cl__1 = 3.514016;
cl__2 = 1.128782;
cl__3 = 1.028896;
cl__4 = 0.144597;
Point(1) = {0.946262, -3.567125, 1, cl__1};
Point(2) = {0.946262, -3.567125, 0, cl__1};
Point(3) = {0.946262, 4.175855, 1, cl__1};
Point(4) = {0.946262, 4.175855, 0, cl__1};
Point(5) = {34.926247, -3.567125, 0, cl__2};
Point(6) = {34.926247, -3.567125, 1, cl__2};
Point(7) = {34.926247, 4.175855, 1, cl__3};
Point(8) = {24.863541, 1.882629, 1, cl__4};
Point(9) = {34.926247, 4.175855, 0, cl__3};
Point(10) = {24.863541, 1.882629, 0, cl__4};
Line(1) = {2, 1};
Line(2) = {1, 3};
Line(3) = {4, 3};
Line(4) = {2, 4};
Line(5) = {2, 5};
Line(6) = {5, 6};
Line(7) = {1, 6};
Line(8) = {3, 7};
Line(9) = {6, 7};
p10 = newp;
Point(p10 + 1) = {24.84573866060371, 2.108829169152083, 1};
Point(p10 + 2) = {24.79276999509337, 2.32945953942432, 1};
Point(p10 + 3) = {24.70593926780675, 2.539087458870392, 1};
Point(p10 + 4) = {24.58738453942432, 2.732551192398357, 1};
Point(p10 + 5) = {24.44002502081943, 2.905087020819437, 1};
Point(p10 + 6) = {24.26748919239835, 3.052446539424321, 1};
Point(p10 + 7) = {24.07402545887039, 3.171001267806751, 1};
Point(p10 + 8) = {23.86439753942432, 3.257831995093369, 1};
Point(p10 + 9) = {23.64376716915208, 3.310800660603714, 1};
Point(p10 + 10) = {23.417567, 3.328603, 1};
Point(p10 + 11) = {23.19136683084792, 3.310800660603713, 1};
Point(p10 + 12) = {22.97073646057568, 3.257831995093369, 1};
Point(p10 + 13) = {22.76110854112961, 3.171001267806751, 1};
Point(p10 + 14) = {22.56764480760164, 3.052446539424321, 1};
Point(p10 + 15) = {22.39510897918056, 2.905087020819437, 1};
Point(p10 + 16) = {22.24774946057568, 2.732551192398357, 1};
Point(p10 + 17) = {22.12919473219325, 2.539087458870392, 1};
Point(p10 + 18) = {22.04236400490663, 2.32945953942432, 1};
Point(p10 + 19) = {21.98939533939629, 2.108829169152083, 1};
Point(p10 + 20) = {21.971593, 1.882629, 1};
Point(p10 + 21) = {21.98939533939629, 1.656428830847918, 1};
Point(p10 + 22) = {22.04236400490663, 1.43579846057568, 1};
Point(p10 + 23) = {22.12919473219325, 1.226170541129609, 1};
Point(p10 + 24) = {22.24774946057568, 1.032706807601644, 1};
Point(p10 + 25) = {22.39510897918056, 0.8601709791805632, 1};
Point(p10 + 26) = {22.56764480760164, 0.7128114605756799, 1};
Point(p10 + 27) = {22.76110854112961, 0.594256732193249, 1};
Point(p10 + 28) = {22.97073646057568, 0.5074260049066317, 1};
Point(p10 + 29) = {23.19136683084792, 0.4544573393962865, 1};
Point(p10 + 30) = {23.417567, 0.436655, 1};
Point(p10 + 31) = {23.64376716915208, 0.4544573393962863, 1};
Point(p10 + 32) = {23.86439753942432, 0.5074260049066315, 1};
Point(p10 + 33) = {24.07402545887039, 0.594256732193249, 1};
Point(p10 + 34) = {24.26748919239835, 0.7128114605756797, 1};
Point(p10 + 35) = {24.44002502081943, 0.860170979180563, 1};
Point(p10 + 36) = {24.58738453942432, 1.032706807601643, 1};
Point(p10 + 37) = {24.70593926780675, 1.226170541129608, 1};
Point(p10 + 38) = {24.79276999509337, 1.43579846057568, 1};
Point(p10 + 39) = {24.84573866060371, 1.656428830847917, 1};
Spline(10) = {8, p10 + 1, p10 + 2, p10 + 3, p10 + 4, p10 + 5, p10 + 6, p10 + 7, p10 + 8, p10 + 9, p10 + 10, p10 + 11, p10 + 12, p10 + 13, p10 + 14, p10 + 15, p10 + 16, p10 + 17, p10 + 18, p10 + 19, p10 + 20, p10 + 21, p10 + 22, p10 + 23, p10 + 24, p10 + 25, p10 + 26, p10 + 27, p10 + 28, p10 + 29, p10 + 30, p10 + 31, p10 + 32, p10 + 33, p10 + 34, p10 + 35, p10 + 36, p10 + 37, p10 + 38, p10 + 39, 8};
Line(11) = {4, 9};
Line(12) = {9, 7};
Line(13) = {5, 9};
p14 = newp;
Point(p14 + 1) = {24.84573866060371, 2.108829169152083, 0};
Point(p14 + 2) = {24.79276999509337, 2.32945953942432, 0};
Point(p14 + 3) = {24.70593926780675, 2.539087458870392, 0};
Point(p14 + 4) = {24.58738453942432, 2.732551192398357, 0};
Point(p14 + 5) = {24.44002502081943, 2.905087020819437, 0};
Point(p14 + 6) = {24.26748919239835, 3.052446539424321, 0};
Point(p14 + 7) = {24.07402545887039, 3.171001267806751, 0};
Point(p14 + 8) = {23.86439753942432, 3.257831995093369, 0};
Point(p14 + 9) = {23.64376716915208, 3.310800660603714, 0};
Point(p14 + 10) = {23.417567, 3.328603, 0};
Point(p14 + 11) = {23.19136683084792, 3.310800660603713, 0};
Point(p14 + 12) = {22.97073646057568, 3.257831995093369, 0};
Point(p14 + 13) = {22.76110854112961, 3.171001267806751, 0};
Point(p14 + 14) = {22.56764480760164, 3.052446539424321, 0};
Point(p14 + 15) = {22.39510897918056, 2.905087020819437, 0};
Point(p14 + 16) = {22.24774946057568, 2.732551192398357, 0};
Point(p14 + 17) = {22.12919473219325, 2.539087458870392, 0};
Point(p14 + 18) = {22.04236400490663, 2.32945953942432, 0};
Point(p14 + 19) = {21.98939533939629, 2.108829169152083, 0};
Point(p14 + 20) = {21.971593, 1.882629, 0};
Point(p14 + 21) = {21.98939533939629, 1.656428830847918, 0};
Point(p14 + 22) = {22.04236400490663, 1.43579846057568, 0};
Point(p14 + 23) = {22.12919473219325, 1.226170541129609, 0};
Point(p14 + 24) = {22.24774946057568, 1.032706807601644, 0};
Point(p14 + 25) = {22.39510897918056, 0.8601709791805632, 0};
Point(p14 + 26) = {22.56764480760164, 0.7128114605756799, 0};
Point(p14 + 27) = {22.76110854112961, 0.594256732193249, 0};
Point(p14 + 28) = {22.97073646057568, 0.5074260049066317, 0};
Point(p14 + 29) = {23.19136683084792, 0.4544573393962865, 0};
Point(p14 + 30) = {23.417567, 0.436655, 0};
Point(p14 + 31) = {23.64376716915208, 0.4544573393962863, 0};
Point(p14 + 32) = {23.86439753942432, 0.5074260049066315, 0};
Point(p14 + 33) = {24.07402545887039, 0.594256732193249, 0};
Point(p14 + 34) = {24.26748919239835, 0.7128114605756797, 0};
Point(p14 + 35) = {24.44002502081943, 0.860170979180563, 0};
Point(p14 + 36) = {24.58738453942432, 1.032706807601643, 0};
Point(p14 + 37) = {24.70593926780675, 1.226170541129608, 0};
Point(p14 + 38) = {24.79276999509337, 1.43579846057568, 0};
Point(p14 + 39) = {24.84573866060371, 1.656428830847917, 0};
Spline(14) = {10, p14 + 1, p14 + 2, p14 + 3, p14 + 4, p14 + 5, p14 + 6, p14 + 7, p14 + 8, p14 + 9, p14 + 10, p14 + 11, p14 + 12, p14 + 13, p14 + 14, p14 + 15, p14 + 16, p14 + 17, p14 + 18, p14 + 19, p14 + 20, p14 + 21, p14 + 22, p14 + 23, p14 + 24, p14 + 25, p14 + 26, p14 + 27, p14 + 28, p14 + 29, p14 + 30, p14 + 31, p14 + 32, p14 + 33, p14 + 34, p14 + 35, p14 + 36, p14 + 37, p14 + 38, p14 + 39, 10};
Line(15) = {10, 8};
Curve Loop(1) = {-1, 4, 3, -2};
Plane Surface(1) = {1};
Curve Loop(2) = {-5, 1, 7, -6};
Plane Surface(2) = {2};
Curve Loop(3) = {-2, 7, 9, -8, -10};
Plane Surface(3) = {3};
Curve Loop(4) = {-11, 3, 8, -12};
Plane Surface(4) = {4};
Curve Loop(5) = {-4, 5, 13, -11, -14};
Plane Surface(5) = {5};
Curve Loop(6) = {-6, 13, 12, -9};
Plane Surface(6) = {6};
Curve Loop(7) = {-10, -15, 14, 15};
Surface(7) = {7};
Surface Loop(1) = {1, 2, 3, 4, 5, 6, 7};
Volume(1) = {1};
Physical Surface("INFLOW") = {1};
Physical Surface("OUTFLOW") = {6};
Physical Surface("OBSTACLE") = {7};
Physical Surface("WALL_Y") = {2, 4};
Physical Surface("WALL_Z") = {3, 5};
Physical Volume("FLUID") = {1};
