cl__1 = 0.273002;
cl__2 = 1.786463;
cl__3 = 3.865414;
cl__4 = 0.09533700000000001;
cl__5 = 0.122077;
Point(1) = {0.698676, -3.092424, 1, cl__1};
Point(2) = {0.698676, -3.092424, 0, cl__1};
Point(3) = {0.698676, 4.552341, 1, cl__2};
Point(4) = {0.698676, 4.552341, 0, cl__2};
Point(5) = {38.464681, -3.092424, 0, cl__1};
Point(6) = {38.464681, -3.092424, 1, cl__1};
Point(7) = {38.464681, 4.552341, 1, cl__3};
Point(8) = {4.26952, -0.5008580000000002, 1, cl__4};
Point(9) = {21.338001, 2.16337, 1, cl__5};
Point(10) = {38.464681, 4.552341, 0, cl__3};
Point(11) = {4.26952, -0.5008580000000002, 0, cl__4};
Point(12) = {21.338001, 2.16337, 0, cl__5};
Line(1) = {2, 1};
Line(2) = {1, 3};
Line(3) = {4, 3};
Line(4) = {2, 4};
Line(5) = {2, 5};
Line(6) = {5, 6};
Line(7) = {1, 6};
Line(8) = {3, 7};
Line(9) = {6, 7};
p10 = newp;
Point(p10 + 1) = {4.257782408649867, -0.351717761195665, 1};
Point(p10 + 2) = {4.222858653053343, -0.2062498500387677, 1};
Point(p10 + 3) = {4.165608671978513, -0.06803616928230888, 1};
Point(p10 + 4) = {4.087442149961232, 0.05952000154857973, 1};
Point(p10 + 5) = {3.990283806193381, 0.1732778061933811, 1};
Point(p10 + 6) = {3.87652600154858, 0.2704361499612323, 1};
Point(p10 + 7) = {3.748969830717691, 0.3486026719785126, 1};
Point(p10 + 8) = {3.610756149961233, 0.4058526530533431, 1};
Point(p10 + 9) = {3.465288238804335, 0.4407764086498677, 1};
Point(p10 + 10) = {3.316148, 0.452514, 1};
Point(p10 + 11) = {3.167007761195665, 0.4407764086498676, 1};
Point(p10 + 12) = {3.021539850038768, 0.4058526530533432, 1};
Point(p10 + 13) = {2.883326169282309, 0.3486026719785127, 1};
Point(p10 + 14) = {2.755769998451421, 0.2704361499612323, 1};
Point(p10 + 15) = {2.642012193806619, 0.1732778061933812, 1};
Point(p10 + 16) = {2.544853850038768, 0.05952000154857973, 1};
Point(p10 + 17) = {2.466687328021488, -0.06803616928230877, 1};
Point(p10 + 18) = {2.409437346946657, -0.2062498500387676, 1};
Point(p10 + 19) = {2.374513591350133, -0.3517177611956649, 1};
Point(p10 + 20) = {2.362776, -0.5008579999999999, 1};
Point(p10 + 21) = {2.374513591350132, -0.6499982388043348, 1};
Point(p10 + 22) = {2.409437346946657, -0.7954661499612328, 1};
Point(p10 + 23) = {2.466687328021487, -0.9336798307176908, 1};
Point(p10 + 24) = {2.544853850038768, -1.06123600154858, 1};
Point(p10 + 25) = {2.642012193806619, -1.174993806193381, 1};
Point(p10 + 26) = {2.75576999845142, -1.272152149961232, 1};
Point(p10 + 27) = {2.883326169282309, -1.350318671978513, 1};
Point(p10 + 28) = {3.021539850038768, -1.407568653053343, 1};
Point(p10 + 29) = {3.167007761195665, -1.442492408649868, 1};
Point(p10 + 30) = {3.316148, -1.45423, 1};
Point(p10 + 31) = {3.465288238804335, -1.442492408649868, 1};
Point(p10 + 32) = {3.610756149961232, -1.407568653053343, 1};
Point(p10 + 33) = {3.748969830717691, -1.350318671978513, 1};
Point(p10 + 34) = {3.87652600154858, -1.272152149961232, 1};
Point(p10 + 35) = {3.990283806193381, -1.174993806193381, 1};
Point(p10 + 36) = {4.087442149961232, -1.06123600154858, 1};
Point(p10 + 37) = {4.165608671978513, -0.9336798307176915, 1};
Point(p10 + 38) = {4.222858653053343, -0.7954661499612325, 1};
Point(p10 + 39) = {4.257782408649867, -0.6499982388043353, 1};
Spline(10) = {8, p10 + 1, p10 + 2, p10 + 3, p10 + 4, p10 + 5, p10 + 6, p10 + 7, p10 + 8, p10 + 9, p10 + 10, p10 + 11, p10 + 12, p10 + 13, p10 + 14, p10 + 15, p10 + 16, p10 + 17, p10 + 18, p10 + 19, p10 + 20, p10 + 21, p10 + 22, p10 + 23, p10 + 24, p10 + 25, p10 + 26, p10 + 27, p10 + 28, p10 + 29, p10 + 30, p10 + 31, p10 + 32, p10 + 33, p10 + 34, p10 + 35, p10 + 36, p10 + 37, p10 + 38, p10 + 39, 8};
p11 = newp;
Point(p11 + 1) = {21.32297134479496, 2.354339876149302, 1};
Point(p11 + 2) = {21.27825245917157, 2.540607440155127, 1};
Point(p11 + 3) = {21.20494547050734, 2.717586166405048, 1};
Point(p11 + 4) = {21.10485544015513, 2.880918251300074, 1};
Point(p11 + 5) = {20.98044691684198, 3.026581916841977, 1};
Point(p11 + 6) = {20.83478325130007, 3.150990440155127, 1};
Point(p11 + 7) = {20.67145116640505, 3.251080470507337, 1};
Point(p11 + 8) = {20.49447244015513, 3.324387459171569, 1};
Point(p11 + 9) = {20.3082048761493, 3.369106344794964, 1};
Point(p11 + 10) = {20.117235, 3.384136, 1};
Point(p11 + 11) = {19.9262651238507, 3.369106344794964, 1};
Point(p11 + 12) = {19.73999755984487, 3.32438745917157, 1};
Point(p11 + 13) = {19.56301883359495, 3.251080470507337, 1};
Point(p11 + 14) = {19.39968674869993, 3.150990440155127, 1};
Point(p11 + 15) = {19.25402308315802, 3.026581916841977, 1};
Point(p11 + 16) = {19.12961455984487, 2.880918251300074, 1};
Point(p11 + 17) = {19.02952452949267, 2.717586166405048, 1};
Point(p11 + 18) = {18.95621754082843, 2.540607440155127, 1};
Point(p11 + 19) = {18.91149865520504, 2.354339876149303, 1};
Point(p11 + 20) = {18.896469, 2.16337, 1};
Point(p11 + 21) = {18.91149865520504, 1.972400123850698, 1};
Point(p11 + 22) = {18.95621754082843, 1.786132559844873, 1};
Point(p11 + 23) = {19.02952452949266, 1.609153833594953, 1};
Point(p11 + 24) = {19.12961455984487, 1.445821748699927, 1};
Point(p11 + 25) = {19.25402308315802, 1.300158083158023, 1};
Point(p11 + 26) = {19.39968674869993, 1.175749559844873, 1};
Point(p11 + 27) = {19.56301883359495, 1.075659529492663, 1};
Point(p11 + 28) = {19.73999755984487, 1.002352540828431, 1};
Point(p11 + 29) = {19.9262651238507, 0.9576336552050362, 1};
Point(p11 + 30) = {20.117235, 0.942604, 1};
Point(p11 + 31) = {20.3082048761493, 0.957633655205036, 1};
Point(p11 + 32) = {20.49447244015513, 1.00235254082843, 1};
Point(p11 + 33) = {20.67145116640505, 1.075659529492663, 1};
Point(p11 + 34) = {20.83478325130007, 1.175749559844873, 1};
Point(p11 + 35) = {20.98044691684198, 1.300158083158023, 1};
Point(p11 + 36) = {21.10485544015513, 1.445821748699927, 1};
Point(p11 + 37) = {21.20494547050734, 1.609153833594952, 1};
Point(p11 + 38) = {21.27825245917157, 1.786132559844873, 1};
Point(p11 + 39) = {21.32297134479496, 1.972400123850697, 1};
Spline(11) = {9, p11 + 1, p11 + 2, p11 + 3, p11 + 4, p11 + 5, p11 + 6, p11 + 7, p11 + 8, p11 + 9, p11 + 10, p11 + 11, p11 + 12, p11 + 13, p11 + 14, p11 + 15, p11 + 16, p11 + 17, p11 + 18, p11 + 19, p11 + 20, p11 + 21, p11 + 22, p11 + 23, p11 + 24, p11 + 25, p11 + 26, p11 + 27, p11 + 28, p11 + 29, p11 + 30, p11 + 31, p11 + 32, p11 + 33, p11 + 34, p11 + 35, p11 + 36, p11 + 37, p11 + 38, p11 + 39, 9};
Line(12) = {4, 10};
Line(13) = {10, 7};
Line(14) = {5, 10};
p15 = newp;
Point(p15 + 1) = {4.257782408649867, -0.351717761195665, 0};
Point(p15 + 2) = {4.222858653053343, -0.2062498500387677, 0};
Point(p15 + 3) = {4.165608671978513, -0.06803616928230888, 0};
Point(p15 + 4) = {4.087442149961232, 0.05952000154857973, 0};
Point(p15 + 5) = {3.990283806193381, 0.1732778061933811, 0};
Point(p15 + 6) = {3.87652600154858, 0.2704361499612323, 0};
Point(p15 + 7) = {3.748969830717691, 0.3486026719785126, 0};
Point(p15 + 8) = {3.610756149961233, 0.4058526530533431, 0};
Point(p15 + 9) = {3.465288238804335, 0.4407764086498677, 0};
Point(p15 + 10) = {3.316148, 0.452514, 0};
Point(p15 + 11) = {3.167007761195665, 0.4407764086498676, 0};
Point(p15 + 12) = {3.021539850038768, 0.4058526530533432, 0};
Point(p15 + 13) = {2.883326169282309, 0.3486026719785127, 0};
Point(p15 + 14) = {2.755769998451421, 0.2704361499612323, 0};
Point(p15 + 15) = {2.642012193806619, 0.1732778061933812, 0};
Point(p15 + 16) = {2.544853850038768, 0.05952000154857973, 0};
Point(p15 + 17) = {2.466687328021488, -0.06803616928230877, 0};
Point(p15 + 18) = {2.409437346946657, -0.2062498500387676, 0};
Point(p15 + 19) = {2.374513591350133, -0.3517177611956649, 0};
Point(p15 + 20) = {2.362776, -0.5008579999999999, 0};
Point(p15 + 21) = {2.374513591350132, -0.6499982388043348, 0};
Point(p15 + 22) = {2.409437346946657, -0.7954661499612328, 0};
Point(p15 + 23) = {2.466687328021487, -0.9336798307176908, 0};
Point(p15 + 24) = {2.544853850038768, -1.06123600154858, 0};
Point(p15 + 25) = {2.642012193806619, -1.174993806193381, 0};
Point(p15 + 26) = {2.75576999845142, -1.272152149961232, 0};
Point(p15 + 27) = {2.883326169282309, -1.350318671978513, 0};
Point(p15 + 28) = {3.021539850038768, -1.407568653053343, 0};
Point(p15 + 29) = {3.167007761195665, -1.442492408649868, 0};
Point(p15 + 30) = {3.316148, -1.45423, 0};
Point(p15 + 31) = {3.465288238804335, -1.442492408649868, 0};
Point(p15 + 32) = {3.610756149961232, -1.407568653053343, 0};
Point(p15 + 33) = {3.748969830717691, -1.350318671978513, 0};
Point(p15 + 34) = {3.87652600154858, -1.272152149961232, 0};
Point(p15 + 35) = {3.990283806193381, -1.174993806193381, 0};
Point(p15 + 36) = {4.087442149961232, -1.06123600154858, 0};
Point(p15 + 37) = {4.165608671978513, -0.9336798307176915, 0};
Point(p15 + 38) = {4.222858653053343, -0.7954661499612325, 0};
Point(p15 + 39) = {4.257782408649867, -0.6499982388043353, 0};
Spline(15) = {11, p15 + 1, p15 + 2, p15 + 3, p15 + 4, p15 + 5, p15 + 6, p15 + 7, p15 + 8, p15 + 9, p15 + 10, p15 + 11, p15 + 12, p15 + 13, p15 + 14, p15 + 15, p15 + 16, p15 + 17, p15 + 18, p15 + 19, p15 + 20, p15 + 21, p15 + 22, p15 + 23, p15 + 24, p15 + 25, p15 + 26, p15 + 27, p15 + 28, p15 + 29, p15 + 30, p15 + 31, p15 + 32, p15 + 33, p15 + 34, p15 + 35, p15 + 36, p15 + 37, p15 + 38, p15 + 39, 11};
p16 = newp;
Point(p16 + 1) = {21.32297134479496, 2.354339876149302, 0};
Point(p16 + 2) = {21.27825245917157, 2.540607440155127, 0};
Point(p16 + 3) = {21.20494547050734, 2.717586166405048, 0};
Point(p16 + 4) = {21.10485544015513, 2.880918251300074, 0};
Point(p16 + 5) = {20.98044691684198, 3.026581916841977, 0};
Point(p16 + 6) = {20.83478325130007, 3.150990440155127, 0};
Point(p16 + 7) = {20.67145116640505, 3.251080470507337, 0};
Point(p16 + 8) = {20.49447244015513, 3.324387459171569, 0};
Point(p16 + 9) = {20.3082048761493, 3.369106344794964, 0};
Point(p16 + 10) = {20.117235, 3.384136, 0};
Point(p16 + 11) = {19.9262651238507, 3.369106344794964, 0};
Point(p16 + 12) = {19.73999755984487, 3.32438745917157, 0};
Point(p16 + 13) = {19.56301883359495, 3.251080470507337, 0};
Point(p16 + 14) = {19.39968674869993, 3.150990440155127, 0};
Point(p16 + 15) = {19.25402308315802, 3.026581916841977, 0};
Point(p16 + 16) = {19.12961455984487, 2.880918251300074, 0};
Point(p16 + 17) = {19.02952452949267, 2.717586166405048, 0};
Point(p16 + 18) = {18.95621754082843, 2.540607440155127, 0};
Point(p16 + 19) = {18.91149865520504, 2.354339876149303, 0};
Point(p16 + 20) = {18.896469, 2.16337, 0};
Point(p16 + 21) = {18.91149865520504, 1.972400123850698, 0};
Point(p16 + 22) = {18.95621754082843, 1.786132559844873, 0};
Point(p16 + 23) = {19.02952452949266, 1.609153833594953, 0};
Point(p16 + 24) = {19.12961455984487, 1.445821748699927, 0};
Point(p16 + 25) = {19.25402308315802, 1.300158083158023, 0};
Point(p16 + 26) = {19.39968674869993, 1.175749559844873, 0};
Point(p16 + 27) = {19.56301883359495, 1.075659529492663, 0};
Point(p16 + 28) = {19.73999755984487, 1.002352540828431, 0};
Point(p16 + 29) = {19.9262651238507, 0.9576336552050362, 0};
Point(p16 + 30) = {20.117235, 0.942604, 0};
Point(p16 + 31) = {20.3082048761493, 0.957633655205036, 0};
Point(p16 + 32) = {20.49447244015513, 1.00235254082843, 0};
Point(p16 + 33) = {20.67145116640505, 1.075659529492663, 0};
Point(p16 + 34) = {20.83478325130007, 1.175749559844873, 0};
Point(p16 + 35) = {20.98044691684198, 1.300158083158023, 0};
Point(p16 + 36) = {21.10485544015513, 1.445821748699927, 0};
Point(p16 + 37) = {21.20494547050734, 1.609153833594952, 0};
Point(p16 + 38) = {21.27825245917157, 1.786132559844873, 0};
Point(p16 + 39) = {21.32297134479496, 1.972400123850697, 0};
Spline(16) = {12, p16 + 1, p16 + 2, p16 + 3, p16 + 4, p16 + 5, p16 + 6, p16 + 7, p16 + 8, p16 + 9, p16 + 10, p16 + 11, p16 + 12, p16 + 13, p16 + 14, p16 + 15, p16 + 16, p16 + 17, p16 + 18, p16 + 19, p16 + 20, p16 + 21, p16 + 22, p16 + 23, p16 + 24, p16 + 25, p16 + 26, p16 + 27, p16 + 28, p16 + 29, p16 + 30, p16 + 31, p16 + 32, p16 + 33, p16 + 34, p16 + 35, p16 + 36, p16 + 37, p16 + 38, p16 + 39, 12};
Line(17) = {11, 8};
Line(18) = {12, 9};
Curve Loop(1) = {-1, 4, 3, -2};
Plane Surface(1) = {1};
Curve Loop(2) = {-5, 1, 7, -6};
Plane Surface(2) = {2};
Curve Loop(3) = {-2, 7, 9, -8, -10, -11};
Plane Surface(3) = {3};
Curve Loop(4) = {-12, 3, 8, -13};
Plane Surface(4) = {4};
Curve Loop(5) = {-4, 5, 14, -12, -15, -16};
Plane Surface(5) = {5};
Curve Loop(6) = {-6, 14, 13, -9};
Plane Surface(6) = {6};
Curve Loop(7) = {-10, -17, 15, 17};
Surface(7) = {7};
Curve Loop(8) = {-11, -18, 16, 18};
Surface(8) = {8};
Surface Loop(1) = {1, 2, 3, 4, 5, 6, 7, 8};
Volume(1) = {1};
Physical Surface("INFLOW") = {1};
Physical Surface("OUTFLOW") = {6};
Physical Surface("OBSTACLE") = {7, 8};
Physical Surface("WALL_Y") = {2, 4};
Physical Surface("WALL_Z") = {3, 5};
Physical Volume("FLUID") = {1};
