cl__1 = 3.557756;
cl__2 = 0.55255;
cl__3 = 0.473057;
cl__4 = 0.09694;
Point(1) = {0.179442, -4.078741, 1, cl__1};
Point(2) = {0.179442, -4.078741, 0, cl__1};
Point(3) = {0.179442, 4.107037000000001, 1, cl__1};
Point(4) = {0.179442, 4.107037000000001, 0, cl__1};
Point(5) = {35.341351, -4.078741, 0, cl__2};
Point(6) = {35.341351, -4.078741, 1, cl__2};
Point(7) = {35.341351, 4.107037000000001, 1, cl__3};
Point(8) = {31.812491, 0.6062729999999997, 1, cl__4};
Point(9) = {35.341351, 4.107037000000001, 0, cl__3};
Point(10) = {31.812491, 0.6062729999999997, 0, cl__4};
Line(1) = {2, 1};
Line(2) = {1, 3};
Line(3) = {4, 3};
Line(4) = {2, 4};
Line(5) = {2, 5};
Line(6) = {5, 6};
Line(7) = {1, 6};
Line(8) = {3, 7};
Line(9) = {6, 7};
p10 = newp;
Point(p10 + 1) = {31.80055611430791, 0.7579201011066046, 1};
Point(p10 + 2) = {31.76504533372697, 0.9058331472960908, 1};
Point(p10 + 3) = {31.70683305152863, 1.046370028476017, 1};
Point(p10 + 4) = {31.62735264729609, 1.176070260216566, 1};
Point(p10 + 5) = {31.5285611923619, 1.291740192361896, 1};
Point(p10 + 6) = {31.41289126021657, 1.390531647296091, 1};
Point(p10 + 7) = {31.28319102847602, 1.470012051528631, 1};
Point(p10 + 8) = {31.14265414729609, 1.528224333726973, 1};
Point(p10 + 9) = {30.99474110110661, 1.563735114307905, 1};
Point(p10 + 10) = {30.843094, 1.57567, 1};
Point(p10 + 11) = {30.6914468988934, 1.563735114307905, 1};
Point(p10 + 12) = {30.54353385270391, 1.528224333726973, 1};
Point(p10 + 13) = {30.40299697152398, 1.470012051528631, 1};
Point(p10 + 14) = {30.27329673978343, 1.390531647296091, 1};
Point(p10 + 15) = {30.15762680763811, 1.291740192361896, 1};
Point(p10 + 16) = {30.05883535270391, 1.176070260216567, 1};
Point(p10 + 17) = {29.97935494847137, 1.046370028476018, 1};
Point(p10 + 18) = {29.92114266627303, 0.905833147296091, 1};
Point(p10 + 19) = {29.8856318856921, 0.7579201011066048, 1};
Point(p10 + 20) = {29.873697, 0.6062730000000001, 1};
Point(p10 + 21) = {29.8856318856921, 0.4546258988933954, 1};
Point(p10 + 22) = {29.92114266627303, 0.3067128527039087, 1};
Point(p10 + 23) = {29.97935494847137, 0.1661759715239831, 1};
Point(p10 + 24) = {30.05883535270391, 0.03647573978343355, 1};
Point(p10 + 25) = {30.15762680763811, -0.07919419236189562, 1};
Point(p10 + 26) = {30.27329673978343, -0.1779856472960908, 1};
Point(p10 + 27) = {30.40299697152398, -0.2574660515286312, 1};
Point(p10 + 28) = {30.54353385270391, -0.315678333726973, 1};
Point(p10 + 29) = {30.6914468988934, -0.3511891143079047, 1};
Point(p10 + 30) = {30.843094, -0.363124, 1};
Point(p10 + 31) = {30.99474110110661, -0.3511891143079048, 1};
Point(p10 + 32) = {31.14265414729609, -0.3156783337269731, 1};
Point(p10 + 33) = {31.28319102847602, -0.2574660515286313, 1};
Point(p10 + 34) = {31.41289126021657, -0.177985647296091, 1};
Point(p10 + 35) = {31.5285611923619, -0.07919419236189573, 1};
Point(p10 + 36) = {31.62735264729609, 0.03647573978343321, 1};
Point(p10 + 37) = {31.70683305152863, 0.1661759715239823, 1};
Point(p10 + 38) = {31.76504533372697, 0.3067128527039089, 1};
Point(p10 + 39) = {31.80055611430791, 0.4546258988933951, 1};
Spline(10) = {8, p10 + 1, p10 + 2, p10 + 3, p10 + 4, p10 + 5, p10 + 6, p10 + 7, p10 + 8, p10 + 9, p10 + 10, p10 + 11, p10 + 12, p10 + 13, p10 + 14, p10 + 15, p10 + 16, p10 + 17, p10 + 18, p10 + 19, p10 + 20, p10 + 21, p10 + 22, p10 + 23, p10 + 24, p10 + 25, p10 + 26, p10 + 27, p10 + 28, p10 + 29, p10 + 30, p10 + 31, p10 + 32, p10 + 33, p10 + 34, p10 + 35, p10 + 36, p10 + 37, p10 + 38, p10 + 39, 8};
Line(11) = {4, 9};
Line(12) = {9, 7};
Line(13) = {5, 9};
p14 = newp;
Point(p14 + 1) = {31.80055611430791, 0.7579201011066046, 0};
Point(p14 + 2) = {31.76504533372697, 0.9058331472960908, 0};
Point(p14 + 3) = {31.70683305152863, 1.046370028476017, 0};
Point(p14 + 4) = {31.62735264729609, 1.176070260216566, 0};
Point(p14 + 5) = {31.5285611923619, 1.291740192361896, 0};
Point(p14 + 6) = {31.41289126021657, 1.390531647296091, 0};
Point(p14 + 7) = {31.28319102847602, 1.470012051528631, 0};
Point(p14 + 8) = {31.14265414729609, 1.528224333726973, 0};
Point(p14 + 9) = {30.99474110110661, 1.563735114307905, 0};
Point(p14 + 10) = {30.843094, 1.57567, 0};
Point(p14 + 11) = {30.6914468988934, 1.563735114307905, 0};
Point(p14 + 12) = {30.54353385270391, 1.528224333726973, 0};
Point(p14 + 13) = {30.40299697152398, 1.470012051528631, 0};
Point(p14 + 14) = {30.27329673978343, 1.390531647296091, 0};
Point(p14 + 15) = {30.15762680763811, 1.291740192361896, 0};
Point(p14 + 16) = {30.05883535270391, 1.176070260216567, 0};
Point(p14 + 17) = {29.97935494847137, 1.046370028476018, 0};
Point(p14 + 18) = {29.92114266627303, 0.905833147296091, 0};
Point(p14 + 19) = {29.8856318856921, 0.7579201011066048, 0};
Point(p14 + 20) = {29.873697, 0.6062730000000001, 0};
Point(p14 + 21) = {29.8856318856921, 0.4546258988933954, 0};
Point(p14 + 22) = {29.92114266627303, 0.3067128527039087, 0};
Point(p14 + 23) = {29.97935494847137, 0.1661759715239831, 0};
Point(p14 + 24) = {30.05883535270391, 0.03647573978343355, 0};
Point(p14 + 25) = {30.15762680763811, -0.07919419236189562, 0};
Point(p14 + 26) = {30.27329673978343, -0.1779856472960908, 0};
Point(p14 + 27) = {30.40299697152398, -0.2574660515286312, 0};
Point(p14 + 28) = {30.54353385270391, -0.315678333726973, 0};
Point(p14 + 29) = {30.6914468988934, -0.3511891143079047, 0};
Point(p14 + 30) = {30.843094, -0.363124, 0};
Point(p14 + 31) = {30.99474110110661, -0.3511891143079048, 0};
Point(p14 + 32) = {31.14265414729609, -0.3156783337269731, 0};
Point(p14 + 33) = {31.28319102847602, -0.2574660515286313, 0};
Point(p14 + 34) = {31.41289126021657, -0.177985647296091, 0};
Point(p14 + 35) = {31.5285611923619, -0.07919419236189573, 0};
Point(p14 + 36) = {31.62735264729609, 0.03647573978343321, 0};
Point(p14 + 37) = {31.70683305152863, 0.1661759715239823, 0};
Point(p14 + 38) = {31.76504533372697, 0.3067128527039089, 0};
Point(p14 + 39) = {31.80055611430791, 0.4546258988933951, 0};
Spline(14) = {10, p14 + 1, p14 + 2, p14 + 3, p14 + 4, p14 + 5, p14 + 6, p14 + 7, p14 + 8, p14 + 9, p14 + 10, p14 + 11, p14 + 12, p14 + 13, p14 + 14, p14 + 15, p14 + 16, p14 + 17, p14 + 18, p14 + 19, p14 + 20, p14 + 21, p14 + 22, p14 + 23, p14 + 24, p14 + 25, p14 + 26, p14 + 27, p14 + 28, p14 + 29, p14 + 30, p14 + 31, p14 + 32, p14 + 33, p14 + 34, p14 + 35, p14 + 36, p14 + 37, p14 + 38, p14 + 39, 10};
Line(15) = {10, 8};
Curve Loop(1) = {-1, 4, 3, -2};
Plane Surface(1) = {1};
Curve Loop(2) = {-5, 1, 7, -6};
Plane Surface(2) = {2};
Curve Loop(3) = {-2, 7, 9, -8, -10};
Plane Surface(3) = {3};
Curve Loop(4) = {-11, 3, 8, -12};
Plane Surface(4) = {4};
Curve Loop(5) = {-4, 5, 13, -11, -14};
Plane Surface(5) = {5};
Curve Loop(6) = {-6, 13, 12, -9};
Plane Surface(6) = {6};
Curve Loop(7) = {-10, -15, 14, 15};
Surface(7) = {7};
Surface Loop(1) = {1, 2, 3, 4, 5, 6, 7};
Volume(1) = {1};
Physical Surface("INFLOW") = {1};
Physical Surface("OUTFLOW") = {6};
Physical Surface("OBSTACLE") = {7};
Physical Surface("WALL_Y") = {2, 4};
Physical Surface("WALL_Z") = {3, 5};
Physical Volume("FLUID") = {1};
