cl__1 = 0.716731;
cl__2 = 3.517612;
cl__3 = 0.123567;
cl__4 = 0.058959;
Point(1) = {0.134871, -4.006014, 1, cl__1};
Point(2) = {0.134871, -4.006014, 0, cl__1};
Point(3) = {0.134871, 5.124606999999999, 1, cl__2};
Point(4) = {0.134871, 5.124606999999999, 0, cl__2};
Point(5) = {34.878611, -4.006014, 0, cl__1};
Point(6) = {34.878611, -4.006014, 1, cl__1};
Point(7) = {34.878611, 5.124606999999999, 1, cl__2};
Point(8) = {8.075339, 1.059123, 1, cl__3};
Point(9) = {11.869744, 3.872644, 1, cl__4};
Point(10) = {34.878611, 5.124606999999999, 0, cl__2};
Point(11) = {8.075339, 1.059123, 0, cl__3};
Point(12) = {11.869744, 3.872644, 0, cl__4};
Line(1) = {2, 1};
Line(2) = {1, 3};
Line(3) = {4, 3};
Line(4) = {2, 4};
Line(5) = {2, 5};
Line(6) = {5, 6};
Line(7) = {1, 6};
Line(8) = {3, 7};
Line(9) = {6, 7};
p10 = newp;
Point(p10 + 1) = {8.060125876446513, 1.252424062547332, 1};
Point(p10 + 2) = {8.014861103377399, 1.440965411405303, 1};
Point(p10 + 3) = {7.940659249730793, 1.620104532832166, 1};
Point(p10 + 4) = {7.839347411405303, 1.785430427129736, 1};
Point(p10 + 5) = {7.713420222095219, 1.932872222095219, 1};
Point(p10 + 6) = {7.565978427129735, 2.058799411405303, 1};
Point(p10 + 7) = {7.400652532832167, 2.160111249730792, 1};
Point(p10 + 8) = {7.221513411405303, 2.2343131033774, 1};
Point(p10 + 9) = {7.032972062547332, 2.279577876446512, 1};
Point(p10 + 10) = {6.839671, 2.294791, 1};
Point(p10 + 11) = {6.646369937452667, 2.279577876446512, 1};
Point(p10 + 12) = {6.457828588594698, 2.2343131033774, 1};
Point(p10 + 13) = {6.278689467167834, 2.160111249730792, 1};
Point(p10 + 14) = {6.113363572870265, 2.058799411405303, 1};
Point(p10 + 15) = {5.965921777904781, 1.932872222095219, 1};
Point(p10 + 16) = {5.839994588594697, 1.785430427129736, 1};
Point(p10 + 17) = {5.738682750269207, 1.620104532832166, 1};
Point(p10 + 18) = {5.6644808966226, 1.440965411405303, 1};
Point(p10 + 19) = {5.619216123553487, 1.252424062547332, 1};
Point(p10 + 20) = {5.604003000000001, 1.059123, 1};
Point(p10 + 21) = {5.619216123553487, 0.8658219374526682, 1};
Point(p10 + 22) = {5.6644808966226, 0.6772805885946971, 1};
Point(p10 + 23) = {5.738682750269207, 0.4981414671678344, 1};
Point(p10 + 24) = {5.839994588594697, 0.3328155728702645, 1};
Point(p10 + 25) = {5.965921777904781, 0.1853737779047813, 1};
Point(p10 + 26) = {6.113363572870265, 0.05944658859469765, 1};
Point(p10 + 27) = {6.278689467167833, -0.04186524973079209, 1};
Point(p10 + 28) = {6.457828588594698, -0.1160671033773997, 1};
Point(p10 + 29) = {6.646369937452667, -0.1613318764465126, 1};
Point(p10 + 30) = {6.839671, -0.176545, 1};
Point(p10 + 31) = {7.032972062547332, -0.1613318764465126, 1};
Point(p10 + 32) = {7.221513411405303, -0.1160671033773999, 1};
Point(p10 + 33) = {7.400652532832166, -0.04186524973079209, 1};
Point(p10 + 34) = {7.565978427129735, 0.05944658859469731, 1};
Point(p10 + 35) = {7.713420222095219, 0.185373777904781, 1};
Point(p10 + 36) = {7.839347411405303, 0.3328155728702641, 1};
Point(p10 + 37) = {7.940659249730793, 0.4981414671678335, 1};
Point(p10 + 38) = {8.014861103377399, 0.6772805885946973, 1};
Point(p10 + 39) = {8.060125876446513, 0.8658219374526678, 1};
Spline(10) = {8, p10 + 1, p10 + 2, p10 + 3, p10 + 4, p10 + 5, p10 + 6, p10 + 7, p10 + 8, p10 + 9, p10 + 10, p10 + 11, p10 + 12, p10 + 13, p10 + 14, p10 + 15, p10 + 16, p10 + 17, p10 + 18, p10 + 19, p10 + 20, p10 + 21, p10 + 22, p10 + 23, p10 + 24, p10 + 25, p10 + 26, p10 + 27, p10 + 28, p10 + 29, p10 + 30, p10 + 31, p10 + 32, p10 + 33, p10 + 34, p10 + 35, p10 + 36, p10 + 37, p10 + 38, p10 + 39, 8};
p11 = newp;
Point(p11 + 1) = {11.86248510717319, 3.964876978415395, 1};
Point(p11 + 2) = {11.84088716672504, 4.054838874798497, 1};
Point(p11 + 3) = {11.80548199162884, 4.140314528693938, 1};
Point(p11 + 4) = {11.7571413747985, 4.219199245825381, 1};
Point(p11 + 5) = {11.69705562265368, 4.289550622653683, 1};
Point(p11 + 6) = {11.62670424582538, 4.349636374798497, 1};
Point(p11 + 7) = {11.54781952869394, 4.397976991628841, 1};
Point(p11 + 8) = {11.4623438747985, 4.433382166725041, 1};
Point(p11 + 9) = {11.37238197841539, 4.45498010717319, 1};
Point(p11 + 10) = {11.280149, 4.462239, 1};
Point(p11 + 11) = {11.18791602158461, 4.45498010717319, 1};
Point(p11 + 12) = {11.0979541252015, 4.433382166725041, 1};
Point(p11 + 13) = {11.01247847130606, 4.397976991628841, 1};
Point(p11 + 14) = {10.93359375417462, 4.349636374798497, 1};
Point(p11 + 15) = {10.86324237734632, 4.289550622653683, 1};
Point(p11 + 16) = {10.8031566252015, 4.219199245825381, 1};
Point(p11 + 17) = {10.75481600837116, 4.140314528693938, 1};
Point(p11 + 18) = {10.71941083327496, 4.054838874798497, 1};
Point(p11 + 19) = {10.69781289282681, 3.964876978415395, 1};
Point(p11 + 20) = {10.690554, 3.872644, 1};
Point(p11 + 21) = {10.69781289282681, 3.780411021584605, 1};
Point(p11 + 22) = {10.71941083327496, 3.690449125201503, 1};
Point(p11 + 23) = {10.75481600837116, 3.604973471306062, 1};
Point(p11 + 24) = {10.8031566252015, 3.52608875417462, 1};
Point(p11 + 25) = {10.86324237734632, 3.455737377346318, 1};
Point(p11 + 26) = {10.93359375417462, 3.395651625201503, 1};
Point(p11 + 27) = {11.01247847130606, 3.347311008371159, 1};
Point(p11 + 28) = {11.0979541252015, 3.311905833274959, 1};
Point(p11 + 29) = {11.18791602158461, 3.29030789282681, 1};
Point(p11 + 30) = {11.280149, 3.283049, 1};
Point(p11 + 31) = {11.37238197841539, 3.29030789282681, 1};
Point(p11 + 32) = {11.4623438747985, 3.311905833274959, 1};
Point(p11 + 33) = {11.54781952869394, 3.347311008371159, 1};
Point(p11 + 34) = {11.62670424582538, 3.395651625201503, 1};
Point(p11 + 35) = {11.69705562265368, 3.455737377346318, 1};
Point(p11 + 36) = {11.7571413747985, 3.526088754174619, 1};
Point(p11 + 37) = {11.80548199162884, 3.604973471306062, 1};
Point(p11 + 38) = {11.84088716672504, 3.690449125201503, 1};
Point(p11 + 39) = {11.86248510717319, 3.780411021584605, 1};
Spline(11) = {9, p11 + 1, p11 + 2, p11 + 3, p11 + 4, p11 + 5, p11 + 6, p11 + 7, p11 + 8, p11 + 9, p11 + 10, p11 + 11, p11 + 12, p11 + 13, p11 + 14, p11 + 15, p11 + 16, p11 + 17, p11 + 18, p11 + 19, p11 + 20, p11 + 21, p11 + 22, p11 + 23, p11 + 24, p11 + 25, p11 + 26, p11 + 27, p11 + 28, p11 + 29, p11 + 30, p11 + 31, p11 + 32, p11 + 33, p11 + 34, p11 + 35, p11 + 36, p11 + 37, p11 + 38, p11 + 39, 9};
Line(12) = {4, 10};
Line(13) = {10, 7};
Line(14) = {5, 10};
p15 = newp;
Point(p15 + 1) = {8.060125876446513, 1.252424062547332, 0};
Point(p15 + 2) = {8.014861103377399, 1.440965411405303, 0};
Point(p15 + 3) = {7.940659249730793, 1.620104532832166, 0};
Point(p15 + 4) = {7.839347411405303, 1.785430427129736, 0};
Point(p15 + 5) = {7.713420222095219, 1.932872222095219, 0};
Point(p15 + 6) = {7.565978427129735, 2.058799411405303, 0};
Point(p15 + 7) = {7.400652532832167, 2.160111249730792, 0};
Point(p15 + 8) = {7.221513411405303, 2.2343131033774, 0};
Point(p15 + 9) = {7.032972062547332, 2.279577876446512, 0};
Point(p15 + 10) = {6.839671, 2.294791, 0};
Point(p15 + 11) = {6.646369937452667, 2.279577876446512, 0};
Point(p15 + 12) = {6.457828588594698, 2.2343131033774, 0};
Point(p15 + 13) = {6.278689467167834, 2.160111249730792, 0};
Point(p15 + 14) = {6.113363572870265, 2.058799411405303, 0};
Point(p15 + 15) = {5.965921777904781, 1.932872222095219, 0};
Point(p15 + 16) = {5.839994588594697, 1.785430427129736, 0};
Point(p15 + 17) = {5.738682750269207, 1.620104532832166, 0};
Point(p15 + 18) = {5.6644808966226, 1.440965411405303, 0};
Point(p15 + 19) = {5.619216123553487, 1.252424062547332, 0};
Point(p15 + 20) = {5.604003000000001, 1.059123, 0};
Point(p15 + 21) = {5.619216123553487, 0.8658219374526682, 0};
Point(p15 + 22) = {5.6644808966226, 0.6772805885946971, 0};
Point(p15 + 23) = {5.738682750269207, 0.4981414671678344, 0};
Point(p15 + 24) = {5.839994588594697, 0.3328155728702645, 0};
Point(p15 + 25) = {5.965921777904781, 0.1853737779047813, 0};
Point(p15 + 26) = {6.113363572870265, 0.05944658859469765, 0};
Point(p15 + 27) = {6.278689467167833, -0.04186524973079209, 0};
Point(p15 + 28) = {6.457828588594698, -0.1160671033773997, 0};
Point(p15 + 29) = {6.646369937452667, -0.1613318764465126, 0};
Point(p15 + 30) = {6.839671, -0.176545, 0};
Point(p15 + 31) = {7.032972062547332, -0.1613318764465126, 0};
Point(p15 + 32) = {7.221513411405303, -0.1160671033773999, 0};
Point(p15 + 33) = {7.400652532832166, -0.04186524973079209, 0};
Point(p15 + 34) = {7.565978427129735, 0.05944658859469731, 0};
Point(p15 + 35) = {7.713420222095219, 0.185373777904781, 0};
Point(p15 + 36) = {7.839347411405303, 0.3328155728702641, 0};
Point(p15 + 37) = {7.940659249730793, 0.4981414671678335, 0};
Point(p15 + 38) = {8.014861103377399, 0.6772805885946973, 0};
Point(p15 + 39) = {8.060125876446513, 0.8658219374526678, 0};
Spline(15) = {11, p15 + 1, p15 + 2, p15 + 3, p15 + 4, p15 + 5, p15 + 6, p15 + 7, p15 + 8, p15 + 9, p15 + 10, p15 + 11, p15 + 12, p15 + 13, p15 + 14, p15 + 15, p15 + 16, p15 + 17, p15 + 18, p15 + 19, p15 + 20, p15 + 21, p15 + 22, p15 + 23, p15 + 24, p15 + 25, p15 + 26, p15 + 27, p15 + 28, p15 + 29, p15 + 30, p15 + 31, p15 + 32, p15 + 33, p15 + 34, p15 + 35, p15 + 36, p15 + 37, p15 + 38, p15 + 39, 11};
p16 = newp;
Point(p16 + 1) = {11.86248510717319, 3.964876978415395, 0};
Point(p16 + 2) = {11.84088716672504, 4.054838874798497, 0};
Point(p16 + 3) = {11.80548199162884, 4.140314528693938, 0};
Point(p16 + 4) = {11.7571413747985, 4.219199245825381, 0};
Point(p16 + 5) = {11.69705562265368, 4.289550622653683, 0};
Point(p16 + 6) = {11.62670424582538, 4.349636374798497, 0};
Point(p16 + 7) = {11.54781952869394, 4.397976991628841, 0};
Point(p16 + 8) = {11.4623438747985, 4.433382166725041, 0};
Point(p16 + 9) = {11.37238197841539, 4.45498010717319, 0};
Point(p16 + 10) = {11.280149, 4.462239, 0};
Point(p16 + 11) = {11.18791602158461, 4.45498010717319, 0};
Point(p16 + 12) = {11.0979541252015, 4.433382166725041, 0};
Point(p16 + 13) = {11.01247847130606, 4.397976991628841, 0};
Point(p16 + 14) = {10.93359375417462, 4.349636374798497, 0};
Point(p16 + 15) = {10.86324237734632, 4.289550622653683, 0};
Point(p16 + 16) = {10.8031566252015, 4.219199245825381, 0};
Point(p16 + 17) = {10.75481600837116, 4.140314528693938, 0};
Point(p16 + 18) = {10.71941083327496, 4.054838874798497, 0};
Point(p16 + 19) = {10.69781289282681, 3.964876978415395, 0};
Point(p16 + 20) = {10.690554, 3.872644, 0};
Point(p16 + 21) = {10.69781289282681, 3.780411021584605, 0};
Point(p16 + 22) = {10.71941083327496, 3.690449125201503, 0};
Point(p16 + 23) = {10.75481600837116, 3.604973471306062, 0};
Point(p16 + 24) = {10.8031566252015, 3.52608875417462, 0};
Point(p16 + 25) = {10.86324237734632, 3.455737377346318, 0};
Point(p16 + 26) = {10.93359375417462, 3.395651625201503, 0};
Point(p16 + 27) = {11.01247847130606, 3.347311008371159, 0};
Point(p16 + 28) = {11.0979541252015, 3.311905833274959, 0};
Point(p16 + 29) = {11.18791602158461, 3.29030789282681, 0};
Point(p16 + 30) = {11.280149, 3.283049, 0};
Point(p16 + 31) = {11.37238197841539, 3.29030789282681, 0};
Point(p16 + 32) = {11.4623438747985, 3.311905833274959, 0};
Point(p16 + 33) = {11.54781952869394, 3.347311008371159, 0};
Point(p16 + 34) = {11.62670424582538, 3.395651625201503, 0};
Point(p16 + 35) = {11.69705562265368, 3.455737377346318, 0};
Point(p16 + 36) = {11.7571413747985, 3.526088754174619, 0};
Point(p16 + 37) = {11.80548199162884, 3.604973471306062, 0};
Point(p16 + 38) = {11.84088716672504, 3.690449125201503, 0};
Point(p16 + 39) = {11.86248510717319, 3.780411021584605, 0};
Spline(16) = {12, p16 + 1, p16 + 2, p16 + 3, p16 + 4, p16 + 5, p16 + 6, p16 + 7, p16 + 8, p16 + 9, p16 + 10, p16 + 11, p16 + 12, p16 + 13, p16 + 14, p16 + 15, p16 + 16, p16 + 17, p16 + 18, p16 + 19, p16 + 20, p16 + 21, p16 + 22, p16 + 23, p16 + 24, p16 + 25, p16 + 26, p16 + 27, p16 + 28, p16 + 29, p16 + 30, p16 + 31, p16 + 32, p16 + 33, p16 + 34, p16 + 35, p16 + 36, p16 + 37, p16 + 38, p16 + 39, 12};
Line(17) = {11, 8};
Line(18) = {12, 9};
Curve Loop(1) = {-1, 4, 3, -2};
Plane Surface(1) = {1};
Curve Loop(2) = {-5, 1, 7, -6};
Plane Surface(2) = {2};
Curve Loop(3) = {-2, 7, 9, -8, -10, -11};
Plane Surface(3) = {3};
Curve Loop(4) = {-12, 3, 8, -13};
Plane Surface(4) = {4};
Curve Loop(5) = {-4, 5, 14, -12, -15, -16};
Plane Surface(5) = {5};
Curve Loop(6) = {-6, 14, 13, -9};
Plane Surface(6) = {6};
Curve Loop(7) = {-10, -17, 15, 17};
Surface(7) = {7};
Curve Loop(8) = {-11, -18, 16, 18};
Surface(8) = {8};
Surface Loop(1) = {1, 2, 3, 4, 5, 6, 7, 8};
Volume(1) = {1};
Physical Surface("INFLOW") = {1};
Physical Surface("OUTFLOW") = {6};
Physical Surface("OBSTACLE") = {7, 8};
Physical Surface("WALL_Y") = {2, 4};
Physical Surface("WALL_Z") = {3, 5};
Physical Volume("FLUID") = {1};
