cl__1 = 1.72716;
cl__2 = 1.646643;
cl__3 = 3.998386;
cl__4 = 0.084451;
Point(1) = {0.823339, -4.479173, 1, cl__1};
Point(2) = {0.823339, -4.479173, 0, cl__1};
Point(3) = {0.823339, 4.626672999999999, 1, cl__2};
Point(4) = {0.823339, 4.626672999999999, 0, cl__2};
Point(5) = {39.723797, -4.479173, 0, cl__3};
Point(6) = {39.723797, -4.479173, 1, cl__3};
Point(7) = {39.723797, 4.626672999999999, 1, cl__3};
Point(8) = {18.719211, 1.640045, 1, cl__4};
Point(9) = {39.723797, 4.626672999999999, 0, cl__3};
Point(10) = {18.719211, 1.640045, 0, cl__4};
Line(1) = {2, 1};
Line(2) = {1, 3};
Line(3) = {4, 3};
Line(4) = {2, 4};
Line(5) = {2, 5};
Line(6) = {5, 6};
Line(7) = {1, 6};
Line(8) = {3, 7};
Line(9) = {6, 7};
p10 = newp;
Point(p10 + 1) = {18.7088136189577, 1.772156252243451, 1};
Point(p10 + 2) = {18.677877493859, 1.901014487004559, 1};
Point(p10 + 3) = {18.62716437477494, 2.023446786887543, 1};
Point(p10 + 4) = {18.55792298700456, 2.136438462339778, 1};
Point(p10 + 5) = {18.47185828331376, 2.237207283313757, 1};
Point(p10 + 6) = {18.37108946233978, 2.323271987004559, 1};
Point(p10 + 7) = {18.25809778688754, 2.392513374774939, 1};
Point(p10 + 8) = {18.13566548700456, 2.443226493859002, 1};
Point(p10 + 9) = {18.00680725224345, 2.474162618957703, 1};
Point(p10 + 10) = {17.874696, 2.48456, 1};
Point(p10 + 11) = {17.74258474775655, 2.474162618957703, 1};
Point(p10 + 12) = {17.61372651299544, 2.443226493859002, 1};
Point(p10 + 13) = {17.49129421311246, 2.39251337477494, 1};
Point(p10 + 14) = {17.37830253766022, 2.323271987004559, 1};
Point(p10 + 15) = {17.27753371668624, 2.237207283313757, 1};
Point(p10 + 16) = {17.19146901299544, 2.136438462339778, 1};
Point(p10 + 17) = {17.12222762522506, 2.023446786887543, 1};
Point(p10 + 18) = {17.071514506141, 1.901014487004559, 1};
Point(p10 + 19) = {17.0405783810423, 1.772156252243451, 1};
Point(p10 + 20) = {17.030181, 1.640045, 1};
Point(p10 + 21) = {17.0405783810423, 1.50793374775655, 1};
Point(p10 + 22) = {17.071514506141, 1.379075512995441, 1};
Point(p10 + 23) = {17.12222762522506, 1.256643213112457, 1};
Point(p10 + 24) = {17.19146901299544, 1.143651537660222, 1};
Point(p10 + 25) = {17.27753371668624, 1.042882716686243, 1};
Point(p10 + 26) = {17.37830253766022, 0.9568180129954413, 1};
Point(p10 + 27) = {17.49129421311246, 0.8875766252250605, 1};
Point(p10 + 28) = {17.61372651299544, 0.8368635061409984, 1};
Point(p10 + 29) = {17.74258474775655, 0.8059273810422973, 1};
Point(p10 + 30) = {17.874696, 0.79553, 1};
Point(p10 + 31) = {18.00680725224345, 0.8059273810422972, 1};
Point(p10 + 32) = {18.13566548700456, 0.8368635061409982, 1};
Point(p10 + 33) = {18.25809778688754, 0.8875766252250604, 1};
Point(p10 + 34) = {18.37108946233978, 0.9568180129954411, 1};
Point(p10 + 35) = {18.47185828331376, 1.042882716686243, 1};
Point(p10 + 36) = {18.55792298700456, 1.143651537660222, 1};
Point(p10 + 37) = {18.62716437477494, 1.256643213112457, 1};
Point(p10 + 38) = {18.677877493859, 1.379075512995441, 1};
Point(p10 + 39) = {18.7088136189577, 1.507933747756549, 1};
Spline(10) = {8, p10 + 1, p10 + 2, p10 + 3, p10 + 4, p10 + 5, p10 + 6, p10 + 7, p10 + 8, p10 + 9, p10 + 10, p10 + 11, p10 + 12, p10 + 13, p10 + 14, p10 + 15, p10 + 16, p10 + 17, p10 + 18, p10 + 19, p10 + 20, p10 + 21, p10 + 22, p10 + 23, p10 + 24, p10 + 25, p10 + 26, p10 + 27, p10 + 28, p10 + 29, p10 + 30, p10 + 31, p10 + 32, p10 + 33, p10 + 34, p10 + 35, p10 + 36, p10 + 37, p10 + 38, p10 + 39, 8};
Line(11) = {4, 9};
Line(12) = {9, 7};
Line(13) = {5, 9};
p14 = newp;
Point(p14 + 1) = {18.7088136189577, 1.772156252243451, 0};
Point(p14 + 2) = {18.677877493859, 1.901014487004559, 0};
Point(p14 + 3) = {18.62716437477494, 2.023446786887543, 0};
Point(p14 + 4) = {18.55792298700456, 2.136438462339778, 0};
Point(p14 + 5) = {18.47185828331376, 2.237207283313757, 0};
Point(p14 + 6) = {18.37108946233978, 2.323271987004559, 0};
Point(p14 + 7) = {18.25809778688754, 2.392513374774939, 0};
Point(p14 + 8) = {18.13566548700456, 2.443226493859002, 0};
Point(p14 + 9) = {18.00680725224345, 2.474162618957703, 0};
Point(p14 + 10) = {17.874696, 2.48456, 0};
Point(p14 + 11) = {17.74258474775655, 2.474162618957703, 0};
Point(p14 + 12) = {17.61372651299544, 2.443226493859002, 0};
Point(p14 + 13) = {17.49129421311246, 2.39251337477494, 0};
Point(p14 + 14) = {17.37830253766022, 2.323271987004559, 0};
Point(p14 + 15) = {17.27753371668624, 2.237207283313757, 0};
Point(p14 + 16) = {17.19146901299544, 2.136438462339778, 0};
Point(p14 + 17) = {17.12222762522506, 2.023446786887543, 0};
Point(p14 + 18) = {17.071514506141, 1.901014487004559, 0};
Point(p14 + 19) = {17.0405783810423, 1.772156252243451, 0};
Point(p14 + 20) = {17.030181, 1.640045, 0};
Point(p14 + 21) = {17.0405783810423, 1.50793374775655, 0};
Point(p14 + 22) = {17.071514506141, 1.379075512995441, 0};
Point(p14 + 23) = {17.12222762522506, 1.256643213112457, 0};
Point(p14 + 24) = {17.19146901299544, 1.143651537660222, 0};
Point(p14 + 25) = {17.27753371668624, 1.042882716686243, 0};
Point(p14 + 26) = {17.37830253766022, 0.9568180129954413, 0};
Point(p14 + 27) = {17.49129421311246, 0.8875766252250605, 0};
Point(p14 + 28) = {17.61372651299544, 0.8368635061409984, 0};
Point(p14 + 29) = {17.74258474775655, 0.8059273810422973, 0};
Point(p14 + 30) = {17.874696, 0.79553, 0};
Point(p14 + 31) = {18.00680725224345, 0.8059273810422972, 0};
Point(p14 + 32) = {18.13566548700456, 0.8368635061409982, 0};
Point(p14 + 33) = {18.25809778688754, 0.8875766252250604, 0};
Point(p14 + 34) = {18.37108946233978, 0.9568180129954411, 0};
Point(p14 + 35) = {18.47185828331376, 1.042882716686243, 0};
Point(p14 + 36) = {18.55792298700456, 1.143651537660222, 0};
Point(p14 + 37) = {18.62716437477494, 1.256643213112457, 0};
Point(p14 + 38) = {18.677877493859, 1.379075512995441, 0};
Point(p14 + 39) = {18.7088136189577, 1.507933747756549, 0};
Spline(14) = {10, p14 + 1, p14 + 2, p14 + 3, p14 + 4, p14 + 5, p14 + 6, p14 + 7, p14 + 8, p14 + 9, p14 + 10, p14 + 11, p14 + 12, p14 + 13, p14 + 14, p14 + 15, p14 + 16, p14 + 17, p14 + 18, p14 + 19, p14 + 20, p14 + 21, p14 + 22, p14 + 23, p14 + 24, p14 + 25, p14 + 26, p14 + 27, p14 + 28, p14 + 29, p14 + 30, p14 + 31, p14 + 32, p14 + 33, p14 + 34, p14 + 35, p14 + 36, p14 + 37, p14 + 38, p14 + 39, 10};
Line(15) = {10, 8};
Curve Loop(1) = {-1, 4, 3, -2};
Plane Surface(1) = {1};
Curve Loop(2) = {-5, 1, 7, -6};
Plane Surface(2) = {2};
Curve Loop(3) = {-2, 7, 9, -8, -10};
Plane Surface(3) = {3};
Curve Loop(4) = {-11, 3, 8, -12};
Plane Surface(4) = {4};
Curve Loop(5) = {-4, 5, 13, -11, -14};
Plane Surface(5) = {5};
Curve Loop(6) = {-6, 13, 12, -9};
Plane Surface(6) = {6};
Curve Loop(7) = {-10, -15, 14, 15};
Surface(7) = {7};
Surface Loop(1) = {1, 2, 3, 4, 5, 6, 7};
Volume(1) = {1};
Physical Surface("INFLOW") = {1};
Physical Surface("OUTFLOW") = {6};
Physical Surface("OBSTACLE") = {7};
Physical Surface("WALL_Y") = {2, 4};
Physical Surface("WALL_Z") = {3, 5};
Physical Volume("FLUID") = {1};
