cl__1 = 3.961485;
cl__2 = 0.209691;
cl__3 = 0.989883;
cl__4 = 0.149511;
cl__5 = 0.09665899999999999;
Point(1) = {0.93789, -3.173862, 1, cl__1};
Point(2) = {0.93789, -3.173862, 0, cl__1};
Point(3) = {0.93789, 4.455795, 1, cl__2};
Point(4) = {0.93789, 4.455795, 0, cl__2};
Point(5) = {39.430742, -3.173862, 0, cl__3};
Point(6) = {39.430742, -3.173862, 1, cl__3};
Point(7) = {39.430742, 4.455795, 1, cl__2};
Point(8) = {38.511083, -0.5146340000000004, 1, cl__4};
Point(9) = {11.772014, 1.374662, 1, cl__5};
Point(10) = {39.430742, 4.455795, 0, cl__2};
Point(11) = {38.511083, -0.5146340000000004, 0, cl__4};
Point(12) = {11.772014, 1.374662, 0, cl__5};
Line(1) = {2, 1};
Line(2) = {1, 3};
Line(3) = {4, 3};
Line(4) = {2, 4};
Line(5) = {2, 5};
Line(6) = {5, 6};
Line(7) = {1, 6};
Line(8) = {3, 7};
Line(9) = {6, 7};
p10 = newp;
Point(p10 + 1) = {38.49267576415383, -0.2807478927115606, 1};
Point(p10 + 2) = {38.43790730385198, -0.05262083760804992, 1};
Point(p10 + 3) = {38.34812620035317, 0.1641299201035947, 1};
Point(p10 + 4) = {38.22554316239195, 0.3641672574139904, 1};
Point(p10 + 5) = {38.07317659119269, 0.5425655911926943, 1};
Point(p10 + 6) = {37.89477825741399, 0.6949321623919502, 1};
Point(p10 + 7) = {37.69474092010359, 0.8175152003531738, 1};
Point(p10 + 8) = {37.47799016239195, 0.9072963038519819, 1};
Point(p10 + 9) = {37.24986310728844, 0.962064764153834, 1};
Point(p10 + 10) = {37.015977, 0.980472, 1};
Point(p10 + 11) = {36.78209089271156, 0.9620647641538338, 1};
Point(p10 + 12) = {36.55396383760805, 0.9072963038519819, 1};
Point(p10 + 13) = {36.33721307989641, 0.817515200353174, 1};
Point(p10 + 14) = {36.13717574258601, 0.6949321623919502, 1};
Point(p10 + 15) = {35.95877740880731, 0.5425655911926943, 1};
Point(p10 + 16) = {35.80641083760805, 0.3641672574139905, 1};
Point(p10 + 17) = {35.68382779964683, 0.164129920103595, 1};
Point(p10 + 18) = {35.59404669614802, -0.05262083760804975, 1};
Point(p10 + 19) = {35.53927823584617, -0.2807478927115604, 1};
Point(p10 + 20) = {35.520871, -0.5146339999999998, 1};
Point(p10 + 21) = {35.53927823584617, -0.7485201072884393, 1};
Point(p10 + 22) = {35.59404669614802, -0.9766471623919506, 1};
Point(p10 + 23) = {35.68382779964683, -1.193397920103594, 1};
Point(p10 + 24) = {35.80641083760805, -1.39343525741399, 1};
Point(p10 + 25) = {35.95877740880731, -1.571833591192694, 1};
Point(p10 + 26) = {36.13717574258601, -1.72420016239195, 1};
Point(p10 + 27) = {36.3372130798964, -1.846783200353174, 1};
Point(p10 + 28) = {36.55396383760805, -1.936564303851982, 1};
Point(p10 + 29) = {36.78209089271156, -1.991332764153834, 1};
Point(p10 + 30) = {37.015977, -2.00974, 1};
Point(p10 + 31) = {37.24986310728844, -1.991332764153834, 1};
Point(p10 + 32) = {37.47799016239195, -1.936564303851982, 1};
Point(p10 + 33) = {37.69474092010359, -1.846783200353174, 1};
Point(p10 + 34) = {37.89477825741399, -1.724200162391951, 1};
Point(p10 + 35) = {38.07317659119269, -1.571833591192695, 1};
Point(p10 + 36) = {38.22554316239195, -1.393435257413991, 1};
Point(p10 + 37) = {38.34812620035317, -1.193397920103595, 1};
Point(p10 + 38) = {38.43790730385198, -0.9766471623919505, 1};
Point(p10 + 39) = {38.49267576415383, -0.7485201072884398, 1};
Spline(10) = {8, p10 + 1, p10 + 2, p10 + 3, p10 + 4, p10 + 5, p10 + 6, p10 + 7, p10 + 8, p10 + 9, p10 + 10, p10 + 11, p10 + 12, p10 + 13, p10 + 14, p10 + 15, p10 + 16, p10 + 17, p10 + 18, p10 + 19, p10 + 20, p10 + 21, p10 + 22, p10 + 23, p10 + 24, p10 + 25, p10 + 26, p10 + 27, p10 + 28, p10 + 29, p10 + 30, p10 + 31, p10 + 32, p10 + 33, p10 + 34, p10 + 35, p10 + 36, p10 + 37, p10 + 38, p10 + 39, 8};
p11 = newp;
Point(p11 + 1) = {11.76011371007083, 1.525869520259842, 1};
Point(p11 + 2) = {11.72470586491618, 1.673353809541897, 1};
Point(p11 + 3) = {11.66666232319566, 1.813483315171749, 1};
Point(p11 + 4) = {11.5874123095419, 1.942807583657625, 1};
Point(p11 + 5) = {11.48890722230676, 2.058142222306762, 1};
Point(p11 + 6) = {11.37357258365762, 2.156647309541897, 1};
Point(p11 + 7) = {11.24424831517175, 2.235897323195662, 1};
Point(p11 + 8) = {11.1041188095419, 2.293940864916184, 1};
Point(p11 + 9) = {10.95663452025984, 2.329348710070832, 1};
Point(p11 + 10) = {10.805427, 2.341249, 1};
Point(p11 + 11) = {10.65421947974016, 2.329348710070832, 1};
Point(p11 + 12) = {10.5067351904581, 2.293940864916184, 1};
Point(p11 + 13) = {10.36660568482825, 2.235897323195662, 1};
Point(p11 + 14) = {10.23728141634238, 2.156647309541897, 1};
Point(p11 + 15) = {10.12194677769324, 2.058142222306762, 1};
Point(p11 + 16) = {10.0234416904581, 1.942807583657625, 1};
Point(p11 + 17) = {9.944191676804339, 1.813483315171749, 1};
Point(p11 + 18) = {9.886148135083817, 1.673353809541897, 1};
Point(p11 + 19) = {9.850740289929167, 1.525869520259842, 1};
Point(p11 + 20) = {9.838839999999999, 1.374662, 1};
Point(p11 + 21) = {9.850740289929167, 1.223454479740159, 1};
Point(p11 + 22) = {9.886148135083817, 1.075970190458102, 1};
Point(p11 + 23) = {9.944191676804337, 0.9358406848282512, 1};
Point(p11 + 24) = {10.0234416904581, 0.8065164163423755, 1};
Point(p11 + 25) = {10.12194677769324, 0.6911817776932387, 1};
Point(p11 + 26) = {10.23728141634238, 0.5926766904581029, 1};
Point(p11 + 27) = {10.36660568482825, 0.5134266768043382, 1};
Point(p11 + 28) = {10.5067351904581, 0.4553831350838166, 1};
Point(p11 + 29) = {10.65421947974016, 0.4199752899291678, 1};
Point(p11 + 30) = {10.805427, 0.4080750000000001, 1};
Point(p11 + 31) = {10.95663452025984, 0.4199752899291677, 1};
Point(p11 + 32) = {11.1041188095419, 0.4553831350838164, 1};
Point(p11 + 33) = {11.24424831517175, 0.5134266768043381, 1};
Point(p11 + 34) = {11.37357258365762, 0.5926766904581027, 1};
Point(p11 + 35) = {11.48890722230676, 0.6911817776932385, 1};
Point(p11 + 36) = {11.5874123095419, 0.8065164163423751, 1};
Point(p11 + 37) = {11.66666232319566, 0.9358406848282506, 1};
Point(p11 + 38) = {11.72470586491618, 1.075970190458102, 1};
Point(p11 + 39) = {11.76011371007083, 1.223454479740158, 1};
Spline(11) = {9, p11 + 1, p11 + 2, p11 + 3, p11 + 4, p11 + 5, p11 + 6, p11 + 7, p11 + 8, p11 + 9, p11 + 10, p11 + 11, p11 + 12, p11 + 13, p11 + 14, p11 + 15, p11 + 16, p11 + 17, p11 + 18, p11 + 19, p11 + 20, p11 + 21, p11 + 22, p11 + 23, p11 + 24, p11 + 25, p11 + 26, p11 + 27, p11 + 28, p11 + 29, p11 + 30, p11 + 31, p11 + 32, p11 + 33, p11 + 34, p11 + 35, p11 + 36, p11 + 37, p11 + 38, p11 + 39, 9};
Line(12) = {4, 10};
Line(13) = {10, 7};
Line(14) = {5, 10};
p15 = newp;
Point(p15 + 1) = {38.49267576415383, -0.2807478927115606, 0};
Point(p15 + 2) = {38.43790730385198, -0.05262083760804992, 0};
Point(p15 + 3) = {38.34812620035317, 0.1641299201035947, 0};
Point(p15 + 4) = {38.22554316239195, 0.3641672574139904, 0};
Point(p15 + 5) = {38.07317659119269, 0.5425655911926943, 0};
Point(p15 + 6) = {37.89477825741399, 0.6949321623919502, 0};
Point(p15 + 7) = {37.69474092010359, 0.8175152003531738, 0};
Point(p15 + 8) = {37.47799016239195, 0.9072963038519819, 0};
Point(p15 + 9) = {37.24986310728844, 0.962064764153834, 0};
Point(p15 + 10) = {37.015977, 0.980472, 0};
Point(p15 + 11) = {36.78209089271156, 0.9620647641538338, 0};
Point(p15 + 12) = {36.55396383760805, 0.9072963038519819, 0};
Point(p15 + 13) = {36.33721307989641, 0.817515200353174, 0};
Point(p15 + 14) = {36.13717574258601, 0.6949321623919502, 0};
Point(p15 + 15) = {35.95877740880731, 0.5425655911926943, 0};
Point(p15 + 16) = {35.80641083760805, 0.3641672574139905, 0};
Point(p15 + 17) = {35.68382779964683, 0.164129920103595, 0};
Point(p15 + 18) = {35.59404669614802, -0.05262083760804975, 0};
Point(p15 + 19) = {35.53927823584617, -0.2807478927115604, 0};
Point(p15 + 20) = {35.520871, -0.5146339999999998, 0};
Point(p15 + 21) = {35.53927823584617, -0.7485201072884393, 0};
Point(p15 + 22) = {35.59404669614802, -0.9766471623919506, 0};
Point(p15 + 23) = {35.68382779964683, -1.193397920103594, 0};
Point(p15 + 24) = {35.80641083760805, -1.39343525741399, 0};
Point(p15 + 25) = {35.95877740880731, -1.571833591192694, 0};
Point(p15 + 26) = {36.13717574258601, -1.72420016239195, 0};
Point(p15 + 27) = {36.3372130798964, -1.846783200353174, 0};
Point(p15 + 28) = {36.55396383760805, -1.936564303851982, 0};
Point(p15 + 29) = {36.78209089271156, -1.991332764153834, 0};
Point(p15 + 30) = {37.015977, -2.00974, 0};
Point(p15 + 31) = {37.24986310728844, -1.991332764153834, 0};
Point(p15 + 32) = {37.47799016239195, -1.936564303851982, 0};
Point(p15 + 33) = {37.69474092010359, -1.846783200353174, 0};
Point(p15 + 34) = {37.89477825741399, -1.724200162391951, 0};
Point(p15 + 35) = {38.07317659119269, -1.571833591192695, 0};
Point(p15 + 36) = {38.22554316239195, -1.393435257413991, 0};
Point(p15 + 37) = {38.34812620035317, -1.193397920103595, 0};
Point(p15 + 38) = {38.43790730385198, -0.9766471623919505, 0};
Point(p15 + 39) = {38.49267576415383, -0.7485201072884398, 0};
Spline(15) = {11, p15 + 1, p15 + 2, p15 + 3, p15 + 4, p15 + 5, p15 + 6, p15 + 7, p15 + 8, p15 + 9, p15 + 10, p15 + 11, p15 + 12, p15 + 13, p15 + 14, p15 + 15, p15 + 16, p15 + 17, p15 + 18, p15 + 19, p15 + 20, p15 + 21, p15 + 22, p15 + 23, p15 + 24, p15 + 25, p15 + 26, p15 + 27, p15 + 28, p15 + 29, p15 + 30, p15 + 31, p15 + 32, p15 + 33, p15 + 34, p15 + 35, p15 + 36, p15 + 37, p15 + 38, p15 + 39, 11};
p16 = newp;
Point(p16 + 1) = {11.76011371007083, 1.525869520259842, 0};
Point(p16 + 2) = {11.72470586491618, 1.673353809541897, 0};
Point(p16 + 3) = {11.66666232319566, 1.813483315171749, 0};
Point(p16 + 4) = {11.5874123095419, 1.942807583657625, 0};
Point(p16 + 5) = {11.48890722230676, 2.058142222306762, 0};
Point(p16 + 6) = {11.37357258365762, 2.156647309541897, 0};
Point(p16 + 7) = {11.24424831517175, 2.235897323195662, 0};
Point(p16 + 8) = {11.1041188095419, 2.293940864916184, 0};
Point(p16 + 9) = {10.95663452025984, 2.329348710070832, 0};
Point(p16 + 10) = {10.805427, 2.341249, 0};
Point(p16 + 11) = {10.65421947974016, 2.329348710070832, 0};
Point(p16 + 12) = {10.5067351904581, 2.293940864916184, 0};
Point(p16 + 13) = {10.36660568482825, 2.235897323195662, 0};
Point(p16 + 14) = {10.23728141634238, 2.156647309541897, 0};
Point(p16 + 15) = {10.12194677769324, 2.058142222306762, 0};
Point(p16 + 16) = {10.0234416904581, 1.942807583657625, 0};
Point(p16 + 17) = {9.944191676804339, 1.813483315171749, 0};
Point(p16 + 18) = {9.886148135083817, 1.673353809541897, 0};
Point(p16 + 19) = {9.850740289929167, 1.525869520259842, 0};
Point(p16 + 20) = {9.838839999999999, 1.374662, 0};
Point(p16 + 21) = {9.850740289929167, 1.223454479740159, 0};
Point(p16 + 22) = {9.886148135083817, 1.075970190458102, 0};
Point(p16 + 23) = {9.944191676804337, 0.9358406848282512, 0};
Point(p16 + 24) = {10.0234416904581, 0.8065164163423755, 0};
Point(p16 + 25) = {10.12194677769324, 0.6911817776932387, 0};
Point(p16 + 26) = {10.23728141634238, 0.5926766904581029, 0};
Point(p16 + 27) = {10.36660568482825, 0.5134266768043382, 0};
Point(p16 + 28) = {10.5067351904581, 0.4553831350838166, 0};
Point(p16 + 29) = {10.65421947974016, 0.4199752899291678, 0};
Point(p16 + 30) = {10.805427, 0.4080750000000001, 0};
Point(p16 + 31) = {10.95663452025984, 0.4199752899291677, 0};
Point(p16 + 32) = {11.1041188095419, 0.4553831350838164, 0};
Point(p16 + 33) = {11.24424831517175, 0.5134266768043381, 0};
Point(p16 + 34) = {11.37357258365762, 0.5926766904581027, 0};
Point(p16 + 35) = {11.48890722230676, 0.6911817776932385, 0};
Point(p16 + 36) = {11.5874123095419, 0.8065164163423751, 0};
Point(p16 + 37) = {11.66666232319566, 0.9358406848282506, 0};
Point(p16 + 38) = {11.72470586491618, 1.075970190458102, 0};
Point(p16 + 39) = {11.76011371007083, 1.223454479740158, 0};
Spline(16) = {12, p16 + 1, p16 + 2, p16 + 3, p16 + 4, p16 + 5, p16 + 6, p16 + 7, p16 + 8, p16 + 9, p16 + 10, p16 + 11, p16 + 12, p16 + 13, p16 + 14, p16 + 15, p16 + 16, p16 + 17, p16 + 18, p16 + 19, p16 + 20, p16 + 21, p16 + 22, p16 + 23, p16 + 24, p16 + 25, p16 + 26, p16 + 27, p16 + 28, p16 + 29, p16 + 30, p16 + 31, p16 + 32, p16 + 33, p16 + 34, p16 + 35, p16 + 36, p16 + 37, p16 + 38, p16 + 39, 12};
Line(17) = {11, 8};
Line(18) = {12, 9};
Curve Loop(1) = {-1, 4, 3, -2};
Plane Surface(1) = {1};
Curve Loop(2) = {-5, 1, 7, -6};
Plane Surface(2) = {2};
Curve Loop(3) = {-2, 7, 9, -8, -10, -11};
Plane Surface(3) = {3};
Curve Loop(4) = {-12, 3, 8, -13};
Plane Surface(4) = {4};
Curve Loop(5) = {-4, 5, 14, -12, -15, -16};
Plane Surface(5) = {5};
Curve Loop(6) = {-6, 14, 13, -9};
Plane Surface(6) = {6};
Curve Loop(7) = {-10, -17, 15, 17};
Surface(7) = {7};
Curve Loop(8) = {-11, -18, 16, 18};
Surface(8) = {8};
Surface Loop(1) = {1, 2, 3, 4, 5, 6, 7, 8};
Volume(1) = {1};
Physical Surface("INFLOW") = {1};
Physical Surface("OUTFLOW") = {6};
Physical Surface("OBSTACLE") = {7, 8};
Physical Surface("WALL_Y") = {2, 4};
Physical Surface("WALL_Z") = {3, 5};
Physical Volume("FLUID") = {1};
