cl__1 = 3.802143;
cl__2 = 1.056473;
cl__3 = 1.284015;
cl__4 = 0.069493;
cl__5 = 0.067992;
Point(1) = {0.654343, -4.29521, 1, cl__1};
Point(2) = {0.654343, -4.29521, 0, cl__1};
Point(3) = {0.654343, 5.077516999999999, 1, cl__2};
Point(4) = {0.654343, 5.077516999999999, 0, cl__2};
Point(5) = {37.73151, -4.29521, 0, cl__3};
Point(6) = {37.73151, -4.29521, 1, cl__3};
Point(7) = {37.73151, 5.077516999999999, 1, cl__2};
Point(8) = {28.401682, 0.8315889999999998, 1, cl__4};
Point(9) = {13.410778, 1.783427, 1, cl__5};
Point(10) = {37.73151, 5.077516999999999, 0, cl__2};
Point(11) = {28.401682, 0.8315889999999998, 0, cl__4};
Point(12) = {13.410778, 1.783427, 0, cl__5};
Line(1) = {2, 1};
Line(2) = {1, 3};
Line(3) = {4, 3};
Line(4) = {2, 4};
Line(5) = {2, 5};
Line(6) = {5, 6};
Line(7) = {1, 6};
Line(8) = {3, 7};
Line(9) = {6, 7};
p10 = newp;
Point(p10 + 1) = {28.39312630777642, 0.9402993770525475, 1};
Point(p10 + 2) = {28.36766990064292, 1.046332943833005, 1};
Point(p10 + 3) = {28.32593959982812, 1.147078802022004, 1};
Point(p10 + 4) = {28.268962943833, 1.240056254234599, 1};
Point(p10 + 5) = {28.19814288702284, 1.322975887022843, 1};
Point(p10 + 6) = {28.1152232542346, 1.393795943833005, 1};
Point(p10 + 7) = {28.022245802022, 1.450772599828126, 1};
Point(p10 + 8) = {27.921499943833, 1.492502900642926, 1};
Point(p10 + 9) = {27.81546637705254, 1.517959307776417, 1};
Point(p10 + 10) = {27.706756, 1.526515, 1};
Point(p10 + 11) = {27.59804562294745, 1.517959307776417, 1};
Point(p10 + 12) = {27.492012056167, 1.492502900642926, 1};
Point(p10 + 13) = {27.39126619797799, 1.450772599828126, 1};
Point(p10 + 14) = {27.2982887457654, 1.393795943833005, 1};
Point(p10 + 15) = {27.21536911297716, 1.322975887022843, 1};
Point(p10 + 16) = {27.14454905616699, 1.240056254234599, 1};
Point(p10 + 17) = {27.08757240017187, 1.147078802022004, 1};
Point(p10 + 18) = {27.04584209935707, 1.046332943833005, 1};
Point(p10 + 19) = {27.02038569222358, 0.9402993770525476, 1};
Point(p10 + 20) = {27.01183, 0.8315890000000001, 1};
Point(p10 + 21) = {27.02038569222358, 0.7228786229474526, 1};
Point(p10 + 22) = {27.04584209935707, 0.6168450561669951, 1};
Point(p10 + 23) = {27.08757240017187, 0.5160991979779961, 1};
Point(p10 + 24) = {27.14454905616699, 0.4231217457654009, 1};
Point(p10 + 25) = {27.21536911297716, 0.3402021129771573, 1};
Point(p10 + 26) = {27.2982887457654, 0.2693820561669953, 1};
Point(p10 + 27) = {27.39126619797799, 0.2124054001718743, 1};
Point(p10 + 28) = {27.492012056167, 0.1706750993570741, 1};
Point(p10 + 29) = {27.59804562294745, 0.1452186922235833, 1};
Point(p10 + 30) = {27.706756, 0.136663, 1};
Point(p10 + 31) = {27.81546637705254, 0.1452186922235833, 1};
Point(p10 + 32) = {27.921499943833, 0.170675099357074, 1};
Point(p10 + 33) = {28.022245802022, 0.2124054001718743, 1};
Point(p10 + 34) = {28.1152232542346, 0.2693820561669952, 1};
Point(p10 + 35) = {28.19814288702284, 0.3402021129771571, 1};
Point(p10 + 36) = {28.268962943833, 0.4231217457654007, 1};
Point(p10 + 37) = {28.32593959982812, 0.5160991979779956, 1};
Point(p10 + 38) = {28.36766990064292, 0.6168450561669951, 1};
Point(p10 + 39) = {28.39312630777642, 0.7228786229474524, 1};
Spline(10) = {8, p10 + 1, p10 + 2, p10 + 3, p10 + 4, p10 + 5, p10 + 6, p10 + 7, p10 + 8, p10 + 9, p10 + 10, p10 + 11, p10 + 12, p10 + 13, p10 + 14, p10 + 15, p10 + 16, p10 + 17, p10 + 18, p10 + 19, p10 + 20, p10 + 21, p10 + 22, p10 + 23, p10 + 24, p10 + 25, p10 + 26, p10 + 27, p10 + 28, p10 + 29, p10 + 30, p10 + 31, p10 + 32, p10 + 33, p10 + 34, p10 + 35, p10 + 36, p10 + 37, p10 + 38, p10 + 39, 8};
p11 = newp;
Point(p11 + 1) = {13.40240709347242, 1.889789452166759, 1};
Point(p11 + 2) = {13.37750049338985, 1.993532907764431, 1};
Point(p11 + 3) = {13.33667148290658, 2.092102858611414, 1};
Point(p11 + 4) = {13.28092540776443, 2.183072185382942, 1};
Point(p11 + 5) = {13.21163492134401, 2.264200921344014, 1};
Point(p11 + 6) = {13.13050618538294, 2.333491407764431, 1};
Point(p11 + 7) = {13.03953685861141, 2.389237482906583, 1};
Point(p11 + 8) = {12.94096690776443, 2.430066493389852, 1};
Point(p11 + 9) = {12.83722345216676, 2.454973093472424, 1};
Point(p11 + 10) = {12.730861, 2.463344, 1};
Point(p11 + 11) = {12.62449854783324, 2.454973093472424, 1};
Point(p11 + 12) = {12.52075509223557, 2.430066493389852, 1};
Point(p11 + 13) = {12.42218514138859, 2.389237482906583, 1};
Point(p11 + 14) = {12.33121581461706, 2.333491407764431, 1};
Point(p11 + 15) = {12.25008707865599, 2.264200921344014, 1};
Point(p11 + 16) = {12.18079659223557, 2.183072185382942, 1};
Point(p11 + 17) = {12.12505051709342, 2.092102858611414, 1};
Point(p11 + 18) = {12.08422150661015, 1.993532907764431, 1};
Point(p11 + 19) = {12.05931490652758, 1.889789452166759, 1};
Point(p11 + 20) = {12.050944, 1.783427, 1};
Point(p11 + 21) = {12.05931490652758, 1.677064547833242, 1};
Point(p11 + 22) = {12.08422150661015, 1.573321092235569, 1};
Point(p11 + 23) = {12.12505051709342, 1.474751141388587, 1};
Point(p11 + 24) = {12.18079659223557, 1.383781814617059, 1};
Point(p11 + 25) = {12.25008707865599, 1.302653078655986, 1};
Point(p11 + 26) = {12.33121581461706, 1.233362592235569, 1};
Point(p11 + 27) = {12.42218514138859, 1.177616517093418, 1};
Point(p11 + 28) = {12.52075509223557, 1.136787506610148, 1};
Point(p11 + 29) = {12.62449854783324, 1.111880906527576, 1};
Point(p11 + 30) = {12.730861, 1.10351, 1};
Point(p11 + 31) = {12.83722345216676, 1.111880906527576, 1};
Point(p11 + 32) = {12.94096690776443, 1.136787506610148, 1};
Point(p11 + 33) = {13.03953685861141, 1.177616517093417, 1};
Point(p11 + 34) = {13.13050618538294, 1.233362592235569, 1};
Point(p11 + 35) = {13.21163492134401, 1.302653078655986, 1};
Point(p11 + 36) = {13.28092540776443, 1.383781814617059, 1};
Point(p11 + 37) = {13.33667148290658, 1.474751141388587, 1};
Point(p11 + 38) = {13.37750049338985, 1.573321092235569, 1};
Point(p11 + 39) = {13.40240709347242, 1.677064547833241, 1};
Spline(11) = {9, p11 + 1, p11 + 2, p11 + 3, p11 + 4, p11 + 5, p11 + 6, p11 + 7, p11 + 8, p11 + 9, p11 + 10, p11 + 11, p11 + 12, p11 + 13, p11 + 14, p11 + 15, p11 + 16, p11 + 17, p11 + 18, p11 + 19, p11 + 20, p11 + 21, p11 + 22, p11 + 23, p11 + 24, p11 + 25, p11 + 26, p11 + 27, p11 + 28, p11 + 29, p11 + 30, p11 + 31, p11 + 32, p11 + 33, p11 + 34, p11 + 35, p11 + 36, p11 + 37, p11 + 38, p11 + 39, 9};
Line(12) = {4, 10};
Line(13) = {10, 7};
Line(14) = {5, 10};
p15 = newp;
Point(p15 + 1) = {28.39312630777642, 0.9402993770525475, 0};
Point(p15 + 2) = {28.36766990064292, 1.046332943833005, 0};
Point(p15 + 3) = {28.32593959982812, 1.147078802022004, 0};
Point(p15 + 4) = {28.268962943833, 1.240056254234599, 0};
Point(p15 + 5) = {28.19814288702284, 1.322975887022843, 0};
Point(p15 + 6) = {28.1152232542346, 1.393795943833005, 0};
Point(p15 + 7) = {28.022245802022, 1.450772599828126, 0};
Point(p15 + 8) = {27.921499943833, 1.492502900642926, 0};
Point(p15 + 9) = {27.81546637705254, 1.517959307776417, 0};
Point(p15 + 10) = {27.706756, 1.526515, 0};
Point(p15 + 11) = {27.59804562294745, 1.517959307776417, 0};
Point(p15 + 12) = {27.492012056167, 1.492502900642926, 0};
Point(p15 + 13) = {27.39126619797799, 1.450772599828126, 0};
Point(p15 + 14) = {27.2982887457654, 1.393795943833005, 0};
Point(p15 + 15) = {27.21536911297716, 1.322975887022843, 0};
Point(p15 + 16) = {27.14454905616699, 1.240056254234599, 0};
Point(p15 + 17) = {27.08757240017187, 1.147078802022004, 0};
Point(p15 + 18) = {27.04584209935707, 1.046332943833005, 0};
Point(p15 + 19) = {27.02038569222358, 0.9402993770525476, 0};
Point(p15 + 20) = {27.01183, 0.8315890000000001, 0};
Point(p15 + 21) = {27.02038569222358, 0.7228786229474526, 0};
Point(p15 + 22) = {27.04584209935707, 0.6168450561669951, 0};
Point(p15 + 23) = {27.08757240017187, 0.5160991979779961, 0};
Point(p15 + 24) = {27.14454905616699, 0.4231217457654009, 0};
Point(p15 + 25) = {27.21536911297716, 0.3402021129771573, 0};
Point(p15 + 26) = {27.2982887457654, 0.2693820561669953, 0};
Point(p15 + 27) = {27.39126619797799, 0.2124054001718743, 0};
Point(p15 + 28) = {27.492012056167, 0.1706750993570741, 0};
Point(p15 + 29) = {27.59804562294745, 0.1452186922235833, 0};
Point(p15 + 30) = {27.706756, 0.136663, 0};
Point(p15 + 31) = {27.81546637705254, 0.1452186922235833, 0};
Point(p15 + 32) = {27.921499943833, 0.170675099357074, 0};
Point(p15 + 33) = {28.022245802022, 0.2124054001718743, 0};
Point(p15 + 34) = {28.1152232542346, 0.2693820561669952, 0};
Point(p15 + 35) = {28.19814288702284, 0.3402021129771571, 0};
Point(p15 + 36) = {28.268962943833, 0.4231217457654007, 0};
Point(p15 + 37) = {28.32593959982812, 0.5160991979779956, 0};
Point(p15 + 38) = {28.36766990064292, 0.6168450561669951, 0};
Point(p15 + 39) = {28.39312630777642, 0.7228786229474524, 0};
Spline(15) = {11, p15 + 1, p15 + 2, p15 + 3, p15 + 4, p15 + 5, p15 + 6, p15 + 7, p15 + 8, p15 + 9, p15 + 10, p15 + 11, p15 + 12, p15 + 13, p15 + 14, p15 + 15, p15 + 16, p15 + 17, p15 + 18, p15 + 19, p15 + 20, p15 + 21, p15 + 22, p15 + 23, p15 + 24, p15 + 25, p15 + 26, p15 + 27, p15 + 28, p15 + 29, p15 + 30, p15 + 31, p15 + 32, p15 + 33, p15 + 34, p15 + 35, p15 + 36, p15 + 37, p15 + 38, p15 + 39, 11};
p16 = newp;
Point(p16 + 1) = {13.40240709347242, 1.889789452166759, 0};
Point(p16 + 2) = {13.37750049338985, 1.993532907764431, 0};
Point(p16 + 3) = {13.33667148290658, 2.092102858611414, 0};
Point(p16 + 4) = {13.28092540776443, 2.183072185382942, 0};
Point(p16 + 5) = {13.21163492134401, 2.264200921344014, 0};
Point(p16 + 6) = {13.13050618538294, 2.333491407764431, 0};
Point(p16 + 7) = {13.03953685861141, 2.389237482906583, 0};
Point(p16 + 8) = {12.94096690776443, 2.430066493389852, 0};
Point(p16 + 9) = {12.83722345216676, 2.454973093472424, 0};
Point(p16 + 10) = {12.730861, 2.463344, 0};
Point(p16 + 11) = {12.62449854783324, 2.454973093472424, 0};
Point(p16 + 12) = {12.52075509223557, 2.430066493389852, 0};
Point(p16 + 13) = {12.42218514138859, 2.389237482906583, 0};
Point(p16 + 14) = {12.33121581461706, 2.333491407764431, 0};
Point(p16 + 15) = {12.25008707865599, 2.264200921344014, 0};
Point(p16 + 16) = {12.18079659223557, 2.183072185382942, 0};
Point(p16 + 17) = {12.12505051709342, 2.092102858611414, 0};
Point(p16 + 18) = {12.08422150661015, 1.993532907764431, 0};
Point(p16 + 19) = {12.05931490652758, 1.889789452166759, 0};
Point(p16 + 20) = {12.050944, 1.783427, 0};
Point(p16 + 21) = {12.05931490652758, 1.677064547833242, 0};
Point(p16 + 22) = {12.08422150661015, 1.573321092235569, 0};
Point(p16 + 23) = {12.12505051709342, 1.474751141388587, 0};
Point(p16 + 24) = {12.18079659223557, 1.383781814617059, 0};
Point(p16 + 25) = {12.25008707865599, 1.302653078655986, 0};
Point(p16 + 26) = {12.33121581461706, 1.233362592235569, 0};
Point(p16 + 27) = {12.42218514138859, 1.177616517093418, 0};
Point(p16 + 28) = {12.52075509223557, 1.136787506610148, 0};
Point(p16 + 29) = {12.62449854783324, 1.111880906527576, 0};
Point(p16 + 30) = {12.730861, 1.10351, 0};
Point(p16 + 31) = {12.83722345216676, 1.111880906527576, 0};
Point(p16 + 32) = {12.94096690776443, 1.136787506610148, 0};
Point(p16 + 33) = {13.03953685861141, 1.177616517093417, 0};
Point(p16 + 34) = {13.13050618538294, 1.233362592235569, 0};
Point(p16 + 35) = {13.21163492134401, 1.302653078655986, 0};
Point(p16 + 36) = {13.28092540776443, 1.383781814617059, 0};
Point(p16 + 37) = {13.33667148290658, 1.474751141388587, 0};
Point(p16 + 38) = {13.37750049338985, 1.573321092235569, 0};
Point(p16 + 39) = {13.40240709347242, 1.677064547833241, 0};
Spline(16) = {12, p16 + 1, p16 + 2, p16 + 3, p16 + 4, p16 + 5, p16 + 6, p16 + 7, p16 + 8, p16 + 9, p16 + 10, p16 + 11, p16 + 12, p16 + 13, p16 + 14, p16 + 15, p16 + 16, p16 + 17, p16 + 18, p16 + 19, p16 + 20, p16 + 21, p16 + 22, p16 + 23, p16 + 24, p16 + 25, p16 + 26, p16 + 27, p16 + 28, p16 + 29, p16 + 30, p16 + 31, p16 + 32, p16 + 33, p16 + 34, p16 + 35, p16 + 36, p16 + 37, p16 + 38, p16 + 39, 12};
Line(17) = {11, 8};
Line(18) = {12, 9};
Curve Loop(1) = {-1, 4, 3, -2};
Plane Surface(1) = {1};
Curve Loop(2) = {-5, 1, 7, -6};
Plane Surface(2) = {2};
Curve Loop(3) = {-2, 7, 9, -8, -10, -11};
Plane Surface(3) = {3};
Curve Loop(4) = {-12, 3, 8, -13};
Plane Surface(4) = {4};
Curve Loop(5) = {-4, 5, 14, -12, -15, -16};
Plane Surface(5) = {5};
Curve Loop(6) = {-6, 14, 13, -9};
Plane Surface(6) = {6};
Curve Loop(7) = {-10, -17, 15, 17};
Surface(7) = {7};
Curve Loop(8) = {-11, -18, 16, 18};
Surface(8) = {8};
Surface Loop(1) = {1, 2, 3, 4, 5, 6, 7, 8};
Volume(1) = {1};
Physical Surface("INFLOW") = {1};
Physical Surface("OUTFLOW") = {6};
Physical Surface("OBSTACLE") = {7, 8};
Physical Surface("WALL_Y") = {2, 4};
Physical Surface("WALL_Z") = {3, 5};
Physical Volume("FLUID") = {1};
