cl__1 = 1.112188;
cl__2 = 1.135129;
cl__3 = 3.594332;
cl__4 = 0.061624;
Point(1) = {0.5476490000000001, -3.431828, 1, cl__1};
Point(2) = {0.5476490000000001, -3.431828, 0, cl__1};
Point(3) = {0.5476490000000001, 4.442803, 1, cl__2};
Point(4) = {0.5476490000000001, 4.442803, 0, cl__2};
Point(5) = {35.727016, -3.431828, 0, cl__3};
Point(6) = {35.727016, -3.431828, 1, cl__3};
Point(7) = {35.727016, 4.442803, 1, cl__3};
Point(8) = {12.338904, 0.1601819999999998, 1, cl__4};
Point(9) = {35.727016, 4.442803, 0, cl__3};
Point(10) = {12.338904, 0.1601819999999998, 0, cl__4};
Line(1) = {2, 1};
Line(2) = {1, 3};
Line(3) = {4, 3};
Line(4) = {2, 4};
Line(5) = {2, 5};
Line(6) = {5, 6};
Line(7) = {1, 6};
Line(8) = {3, 7};
Line(9) = {6, 7};
p10 = newp;
Point(p10 + 1) = {12.33131706300835, 0.2565831747363919, 1};
Point(p10 + 2) = {12.30874306760172, 0.3506106326136176, 1};
Point(p10 + 3) = {12.27173786046584, 0.4399491055594983, 1};
Point(p10 + 4) = {12.22121263261362, 0.5223987838727137, 1};
Point(p10 + 5) = {12.1584114828384, 0.5959294828383981, 1};
Point(p10 + 6) = {12.08488078387271, 0.6587306326136176, 1};
Point(p10 + 7) = {12.0024311055595, 0.7092558604658397, 1};
Point(p10 + 8) = {11.91309263261362, 0.7462610676017254, 1};
Point(p10 + 9) = {11.81906517473639, 0.7688350630083478, 1};
Point(p10 + 10) = {11.722664, 0.7764219999999999, 1};
Point(p10 + 11) = {11.62626282526361, 0.7688350630083476, 1};
Point(p10 + 12) = {11.53223536738638, 0.7462610676017254, 1};
Point(p10 + 13) = {11.4428968944405, 0.7092558604658399, 1};
Point(p10 + 14) = {11.36044721612729, 0.6587306326136176, 1};
Point(p10 + 15) = {11.2869165171616, 0.5959294828383981, 1};
Point(p10 + 16) = {11.22411536738638, 0.5223987838727138, 1};
Point(p10 + 17) = {11.17359013953416, 0.4399491055594983, 1};
Point(p10 + 18) = {11.13658493239828, 0.3506106326136176, 1};
Point(p10 + 19) = {11.11401093699165, 0.2565831747363919, 1};
Point(p10 + 20) = {11.106424, 0.1601820000000001, 1};
Point(p10 + 21) = {11.11401093699165, 0.0637808252636082, 1};
Point(p10 + 22) = {11.13658493239828, -0.03024663261361779, 1};
Point(p10 + 23) = {11.17359013953416, -0.119585105559498, 1};
Point(p10 + 24) = {11.22411536738638, -0.2020347838727136, 1};
Point(p10 + 25) = {11.2869165171616, -0.275565482838398, 1};
Point(p10 + 26) = {11.36044721612729, -0.3383666326136175, 1};
Point(p10 + 27) = {11.4428968944405, -0.3888918604658397, 1};
Point(p10 + 28) = {11.53223536738638, -0.4258970676017255, 1};
Point(p10 + 29) = {11.62626282526361, -0.4484710630083477, 1};
Point(p10 + 30) = {11.722664, -0.456058, 1};
Point(p10 + 31) = {11.81906517473639, -0.4484710630083478, 1};
Point(p10 + 32) = {11.91309263261362, -0.4258970676017255, 1};
Point(p10 + 33) = {12.0024311055595, -0.3888918604658398, 1};
Point(p10 + 34) = {12.08488078387271, -0.3383666326136177, 1};
Point(p10 + 35) = {12.1584114828384, -0.2755654828383982, 1};
Point(p10 + 36) = {12.22121263261362, -0.2020347838727138, 1};
Point(p10 + 37) = {12.27173786046584, -0.1195851055594984, 1};
Point(p10 + 38) = {12.30874306760172, -0.03024663261361774, 1};
Point(p10 + 39) = {12.33131706300835, 0.06378082526360798, 1};
Spline(10) = {8, p10 + 1, p10 + 2, p10 + 3, p10 + 4, p10 + 5, p10 + 6, p10 + 7, p10 + 8, p10 + 9, p10 + 10, p10 + 11, p10 + 12, p10 + 13, p10 + 14, p10 + 15, p10 + 16, p10 + 17, p10 + 18, p10 + 19, p10 + 20, p10 + 21, p10 + 22, p10 + 23, p10 + 24, p10 + 25, p10 + 26, p10 + 27, p10 + 28, p10 + 29, p10 + 30, p10 + 31, p10 + 32, p10 + 33, p10 + 34, p10 + 35, p10 + 36, p10 + 37, p10 + 38, p10 + 39, 8};
Line(11) = {4, 9};
Line(12) = {9, 7};
Line(13) = {5, 9};
p14 = newp;
Point(p14 + 1) = {12.33131706300835, 0.2565831747363919, 0};
Point(p14 + 2) = {12.30874306760172, 0.3506106326136176, 0};
Point(p14 + 3) = {12.27173786046584, 0.4399491055594983, 0};
Point(p14 + 4) = {12.22121263261362, 0.5223987838727137, 0};
Point(p14 + 5) = {12.1584114828384, 0.5959294828383981, 0};
Point(p14 + 6) = {12.08488078387271, 0.6587306326136176, 0};
Point(p14 + 7) = {12.0024311055595, 0.7092558604658397, 0};
Point(p14 + 8) = {11.91309263261362, 0.7462610676017254, 0};
Point(p14 + 9) = {11.81906517473639, 0.7688350630083478, 0};
Point(p14 + 10) = {11.722664, 0.7764219999999999, 0};
Point(p14 + 11) = {11.62626282526361, 0.7688350630083476, 0};
Point(p14 + 12) = {11.53223536738638, 0.7462610676017254, 0};
Point(p14 + 13) = {11.4428968944405, 0.7092558604658399, 0};
Point(p14 + 14) = {11.36044721612729, 0.6587306326136176, 0};
Point(p14 + 15) = {11.2869165171616, 0.5959294828383981, 0};
Point(p14 + 16) = {11.22411536738638, 0.5223987838727138, 0};
Point(p14 + 17) = {11.17359013953416, 0.4399491055594983, 0};
Point(p14 + 18) = {11.13658493239828, 0.3506106326136176, 0};
Point(p14 + 19) = {11.11401093699165, 0.2565831747363919, 0};
Point(p14 + 20) = {11.106424, 0.1601820000000001, 0};
Point(p14 + 21) = {11.11401093699165, 0.0637808252636082, 0};
Point(p14 + 22) = {11.13658493239828, -0.03024663261361779, 0};
Point(p14 + 23) = {11.17359013953416, -0.119585105559498, 0};
Point(p14 + 24) = {11.22411536738638, -0.2020347838727136, 0};
Point(p14 + 25) = {11.2869165171616, -0.275565482838398, 0};
Point(p14 + 26) = {11.36044721612729, -0.3383666326136175, 0};
Point(p14 + 27) = {11.4428968944405, -0.3888918604658397, 0};
Point(p14 + 28) = {11.53223536738638, -0.4258970676017255, 0};
Point(p14 + 29) = {11.62626282526361, -0.4484710630083477, 0};
Point(p14 + 30) = {11.722664, -0.456058, 0};
Point(p14 + 31) = {11.81906517473639, -0.4484710630083478, 0};
Point(p14 + 32) = {11.91309263261362, -0.4258970676017255, 0};
Point(p14 + 33) = {12.0024311055595, -0.3888918604658398, 0};
Point(p14 + 34) = {12.08488078387271, -0.3383666326136177, 0};
Point(p14 + 35) = {12.1584114828384, -0.2755654828383982, 0};
Point(p14 + 36) = {12.22121263261362, -0.2020347838727138, 0};
Point(p14 + 37) = {12.27173786046584, -0.1195851055594984, 0};
Point(p14 + 38) = {12.30874306760172, -0.03024663261361774, 0};
Point(p14 + 39) = {12.33131706300835, 0.06378082526360798, 0};
Spline(14) = {10, p14 + 1, p14 + 2, p14 + 3, p14 + 4, p14 + 5, p14 + 6, p14 + 7, p14 + 8, p14 + 9, p14 + 10, p14 + 11, p14 + 12, p14 + 13, p14 + 14, p14 + 15, p14 + 16, p14 + 17, p14 + 18, p14 + 19, p14 + 20, p14 + 21, p14 + 22, p14 + 23, p14 + 24, p14 + 25, p14 + 26, p14 + 27, p14 + 28, p14 + 29, p14 + 30, p14 + 31, p14 + 32, p14 + 33, p14 + 34, p14 + 35, p14 + 36, p14 + 37, p14 + 38, p14 + 39, 10};
Line(15) = {10, 8};
Curve Loop(1) = {-1, 4, 3, -2};
Plane Surface(1) = {1};
Curve Loop(2) = {-5, 1, 7, -6};
Plane Surface(2) = {2};
Curve Loop(3) = {-2, 7, 9, -8, -10};
Plane Surface(3) = {3};
Curve Loop(4) = {-11, 3, 8, -12};
Plane Surface(4) = {4};
Curve Loop(5) = {-4, 5, 13, -11, -14};
Plane Surface(5) = {5};
Curve Loop(6) = {-6, 13, 12, -9};
Plane Surface(6) = {6};
Curve Loop(7) = {-10, -15, 14, 15};
Surface(7) = {7};
Surface Loop(1) = {1, 2, 3, 4, 5, 6, 7};
Volume(1) = {1};
Physical Surface("INFLOW") = {1};
Physical Surface("OUTFLOW") = {6};
Physical Surface("OBSTACLE") = {7};
Physical Surface("WALL_Y") = {2, 4};
Physical Surface("WALL_Z") = {3, 5};
Physical Volume("FLUID") = {1};
