cl__1 = 1.522935;
cl__2 = 1.028469;
cl__3 = 3.805243;
cl__4 = 0.148978;
cl__5 = 0.054161;
Point(1) = {0.113211, -4.664897, 1, cl__1};
Point(2) = {0.113211, -4.664897, 0, cl__1};
Point(3) = {0.113211, 4.89331, 1, cl__2};
Point(4) = {0.113211, 4.89331, 0, cl__2};
Point(5) = {37.75113, -4.664897, 0, cl__1};
Point(6) = {37.75113, -4.664897, 1, cl__1};
Point(7) = {37.75113, 4.89331, 1, cl__3};
Point(8) = {28.632093, 0.4430539999999997, 1, cl__4};
Point(9) = {14.391058, 3.083582, 1, cl__5};
Point(10) = {37.75113, 4.89331, 0, cl__3};
Point(11) = {28.632093, 0.4430539999999997, 0, cl__4};
Point(12) = {14.391058, 3.083582, 0, cl__5};
Line(1) = {2, 1};
Line(2) = {1, 3};
Line(3) = {4, 3};
Line(4) = {2, 4};
Line(5) = {2, 5};
Line(6) = {5, 6};
Line(7) = {1, 6};
Line(8) = {3, 7};
Line(9) = {6, 7};
p10 = newp;
Point(p10 + 1) = {28.61375138529846, 0.676106311589775, 1};
Point(p10 + 2) = {28.55917817262013, 0.9034201018119317, 1};
Point(p10 + 3) = {28.46971713557925, 1.119398150739983, 1};
Point(p10 + 4) = {28.34757110181193, 1.318722362019271, 1};
Point(p10 + 5) = {28.19574771204897, 1.49648471204897, 1};
Point(p10 + 6) = {28.01798536201927, 1.648308101811932, 1};
Point(p10 + 7) = {27.81866115073998, 1.77045413557925, 1};
Point(p10 + 8) = {27.60268310181193, 1.859915172620129, 1};
Point(p10 + 9) = {27.37536931158977, 1.914488385298462, 1};
Point(p10 + 10) = {27.142317, 1.93283, 1};
Point(p10 + 11) = {26.90926468841022, 1.914488385298462, 1};
Point(p10 + 12) = {26.68195089818807, 1.859915172620129, 1};
Point(p10 + 13) = {26.46597284926002, 1.77045413557925, 1};
Point(p10 + 14) = {26.26664863798073, 1.648308101811932, 1};
Point(p10 + 15) = {26.08888628795103, 1.49648471204897, 1};
Point(p10 + 16) = {25.93706289818807, 1.318722362019272, 1};
Point(p10 + 17) = {25.81491686442075, 1.119398150739983, 1};
Point(p10 + 18) = {25.72545582737987, 0.9034201018119318, 1};
Point(p10 + 19) = {25.67088261470154, 0.6761063115897752, 1};
Point(p10 + 20) = {25.652541, 0.4430540000000002, 1};
Point(p10 + 21) = {25.67088261470154, 0.2100016884102252, 1};
Point(p10 + 22) = {25.72545582737987, -0.0173121018119321, 1};
Point(p10 + 23) = {25.81491686442075, -0.2332901507399822, 1};
Point(p10 + 24) = {25.93706289818807, -0.4326143620192713, 1};
Point(p10 + 25) = {26.08888628795103, -0.6103767120489698, 1};
Point(p10 + 26) = {26.26664863798073, -0.7622001018119315, 1};
Point(p10 + 27) = {26.46597284926002, -0.8843461355792497, 1};
Point(p10 + 28) = {26.68195089818807, -0.9738071726201285, 1};
Point(p10 + 29) = {26.90926468841022, -1.028380385298462, 1};
Point(p10 + 30) = {27.142317, -1.046722, 1};
Point(p10 + 31) = {27.37536931158977, -1.028380385298462, 1};
Point(p10 + 32) = {27.60268310181193, -0.9738071726201287, 1};
Point(p10 + 33) = {27.81866115073998, -0.8843461355792499, 1};
Point(p10 + 34) = {28.01798536201927, -0.7622001018119318, 1};
Point(p10 + 35) = {28.19574771204897, -0.6103767120489703, 1};
Point(p10 + 36) = {28.34757110181193, -0.4326143620192718, 1};
Point(p10 + 37) = {28.46971713557925, -0.2332901507399833, 1};
Point(p10 + 38) = {28.55917817262013, -0.01731210181193193, 1};
Point(p10 + 39) = {28.61375138529846, 0.2100016884102247, 1};
Spline(10) = {8, p10 + 1, p10 + 2, p10 + 3, p10 + 4, p10 + 5, p10 + 6, p10 + 7, p10 + 8, p10 + 9, p10 + 10, p10 + 11, p10 + 12, p10 + 13, p10 + 14, p10 + 15, p10 + 16, p10 + 17, p10 + 18, p10 + 19, p10 + 20, p10 + 21, p10 + 22, p10 + 23, p10 + 24, p10 + 25, p10 + 26, p10 + 27, p10 + 28, p10 + 29, p10 + 30, p10 + 31, p10 + 32, p10 + 33, p10 + 34, p10 + 35, p10 + 36, p10 + 37, p10 + 38, p10 + 39, 8};
p11 = newp;
Point(p11 + 1) = {14.38438986983807, 3.168308627044904, 1};
Point(p11 + 2) = {14.36454967084713, 3.25094900334041, 1};
Point(p11 + 3) = {14.33202593457219, 3.329468248554436, 1};
Point(p11 + 4) = {14.28761950334041, 3.401932958279378, 1};
Point(p11 + 5) = {14.23242381086523, 3.466558810865227, 1};
Point(p11 + 6) = {14.16779795827938, 3.521754503340409, 1};
Point(p11 + 7) = {14.09533324855444, 3.566160934572186, 1};
Point(p11 + 8) = {14.01681400334041, 3.598684670847134, 1};
Point(p11 + 9) = {13.9341736270449, 3.618524869838073, 1};
Point(p11 + 10) = {13.849447, 3.625193, 1};
Point(p11 + 11) = {13.76472037295509, 3.618524869838073, 1};
Point(p11 + 12) = {13.68207999665959, 3.598684670847134, 1};
Point(p11 + 13) = {13.60356075144556, 3.566160934572186, 1};
Point(p11 + 14) = {13.53109604172062, 3.521754503340409, 1};
Point(p11 + 15) = {13.46647018913477, 3.466558810865227, 1};
Point(p11 + 16) = {13.41127449665959, 3.401932958279378, 1};
Point(p11 + 17) = {13.36686806542781, 3.329468248554436, 1};
Point(p11 + 18) = {13.33434432915286, 3.25094900334041, 1};
Point(p11 + 19) = {13.31450413016193, 3.168308627044905, 1};
Point(p11 + 20) = {13.307836, 3.083582, 1};
Point(p11 + 21) = {13.31450413016193, 2.998855372955096, 1};
Point(p11 + 22) = {13.33434432915286, 2.91621499665959, 1};
Point(p11 + 23) = {13.36686806542781, 2.837695751445565, 1};
Point(p11 + 24) = {13.41127449665959, 2.765231041720621, 1};
Point(p11 + 25) = {13.46647018913477, 2.700605189134773, 1};
Point(p11 + 26) = {13.53109604172062, 2.64540949665959, 1};
Point(p11 + 27) = {13.60356075144556, 2.601003065427814, 1};
Point(p11 + 28) = {13.68207999665959, 2.568479329152865, 1};
Point(p11 + 29) = {13.76472037295509, 2.548639130161927, 1};
Point(p11 + 30) = {13.849447, 2.541971, 1};
Point(p11 + 31) = {13.9341736270449, 2.548639130161927, 1};
Point(p11 + 32) = {14.01681400334041, 2.568479329152865, 1};
Point(p11 + 33) = {14.09533324855444, 2.601003065427814, 1};
Point(p11 + 34) = {14.16779795827938, 2.64540949665959, 1};
Point(p11 + 35) = {14.23242381086523, 2.700605189134773, 1};
Point(p11 + 36) = {14.28761950334041, 2.765231041720621, 1};
Point(p11 + 37) = {14.33202593457219, 2.837695751445564, 1};
Point(p11 + 38) = {14.36454967084713, 2.91621499665959, 1};
Point(p11 + 39) = {14.38438986983807, 2.998855372955095, 1};
Spline(11) = {9, p11 + 1, p11 + 2, p11 + 3, p11 + 4, p11 + 5, p11 + 6, p11 + 7, p11 + 8, p11 + 9, p11 + 10, p11 + 11, p11 + 12, p11 + 13, p11 + 14, p11 + 15, p11 + 16, p11 + 17, p11 + 18, p11 + 19, p11 + 20, p11 + 21, p11 + 22, p11 + 23, p11 + 24, p11 + 25, p11 + 26, p11 + 27, p11 + 28, p11 + 29, p11 + 30, p11 + 31, p11 + 32, p11 + 33, p11 + 34, p11 + 35, p11 + 36, p11 + 37, p11 + 38, p11 + 39, 9};
Line(12) = {4, 10};
Line(13) = {10, 7};
Line(14) = {5, 10};
p15 = newp;
Point(p15 + 1) = {28.61375138529846, 0.676106311589775, 0};
Point(p15 + 2) = {28.55917817262013, 0.9034201018119317, 0};
Point(p15 + 3) = {28.46971713557925, 1.119398150739983, 0};
Point(p15 + 4) = {28.34757110181193, 1.318722362019271, 0};
Point(p15 + 5) = {28.19574771204897, 1.49648471204897, 0};
Point(p15 + 6) = {28.01798536201927, 1.648308101811932, 0};
Point(p15 + 7) = {27.81866115073998, 1.77045413557925, 0};
Point(p15 + 8) = {27.60268310181193, 1.859915172620129, 0};
Point(p15 + 9) = {27.37536931158977, 1.914488385298462, 0};
Point(p15 + 10) = {27.142317, 1.93283, 0};
Point(p15 + 11) = {26.90926468841022, 1.914488385298462, 0};
Point(p15 + 12) = {26.68195089818807, 1.859915172620129, 0};
Point(p15 + 13) = {26.46597284926002, 1.77045413557925, 0};
Point(p15 + 14) = {26.26664863798073, 1.648308101811932, 0};
Point(p15 + 15) = {26.08888628795103, 1.49648471204897, 0};
Point(p15 + 16) = {25.93706289818807, 1.318722362019272, 0};
Point(p15 + 17) = {25.81491686442075, 1.119398150739983, 0};
Point(p15 + 18) = {25.72545582737987, 0.9034201018119318, 0};
Point(p15 + 19) = {25.67088261470154, 0.6761063115897752, 0};
Point(p15 + 20) = {25.652541, 0.4430540000000002, 0};
Point(p15 + 21) = {25.67088261470154, 0.2100016884102252, 0};
Point(p15 + 22) = {25.72545582737987, -0.0173121018119321, 0};
Point(p15 + 23) = {25.81491686442075, -0.2332901507399822, 0};
Point(p15 + 24) = {25.93706289818807, -0.4326143620192713, 0};
Point(p15 + 25) = {26.08888628795103, -0.6103767120489698, 0};
Point(p15 + 26) = {26.26664863798073, -0.7622001018119315, 0};
Point(p15 + 27) = {26.46597284926002, -0.8843461355792497, 0};
Point(p15 + 28) = {26.68195089818807, -0.9738071726201285, 0};
Point(p15 + 29) = {26.90926468841022, -1.028380385298462, 0};
Point(p15 + 30) = {27.142317, -1.046722, 0};
Point(p15 + 31) = {27.37536931158977, -1.028380385298462, 0};
Point(p15 + 32) = {27.60268310181193, -0.9738071726201287, 0};
Point(p15 + 33) = {27.81866115073998, -0.8843461355792499, 0};
Point(p15 + 34) = {28.01798536201927, -0.7622001018119318, 0};
Point(p15 + 35) = {28.19574771204897, -0.6103767120489703, 0};
Point(p15 + 36) = {28.34757110181193, -0.4326143620192718, 0};
Point(p15 + 37) = {28.46971713557925, -0.2332901507399833, 0};
Point(p15 + 38) = {28.55917817262013, -0.01731210181193193, 0};
Point(p15 + 39) = {28.61375138529846, 0.2100016884102247, 0};
Spline(15) = {11, p15 + 1, p15 + 2, p15 + 3, p15 + 4, p15 + 5, p15 + 6, p15 + 7, p15 + 8, p15 + 9, p15 + 10, p15 + 11, p15 + 12, p15 + 13, p15 + 14, p15 + 15, p15 + 16, p15 + 17, p15 + 18, p15 + 19, p15 + 20, p15 + 21, p15 + 22, p15 + 23, p15 + 24, p15 + 25, p15 + 26, p15 + 27, p15 + 28, p15 + 29, p15 + 30, p15 + 31, p15 + 32, p15 + 33, p15 + 34, p15 + 35, p15 + 36, p15 + 37, p15 + 38, p15 + 39, 11};
p16 = newp;
Point(p16 + 1) = {14.38438986983807, 3.168308627044904, 0};
Point(p16 + 2) = {14.36454967084713, 3.25094900334041, 0};
Point(p16 + 3) = {14.33202593457219, 3.329468248554436, 0};
Point(p16 + 4) = {14.28761950334041, 3.401932958279378, 0};
Point(p16 + 5) = {14.23242381086523, 3.466558810865227, 0};
Point(p16 + 6) = {14.16779795827938, 3.521754503340409, 0};
Point(p16 + 7) = {14.09533324855444, 3.566160934572186, 0};
Point(p16 + 8) = {14.01681400334041, 3.598684670847134, 0};
Point(p16 + 9) = {13.9341736270449, 3.618524869838073, 0};
Point(p16 + 10) = {13.849447, 3.625193, 0};
Point(p16 + 11) = {13.76472037295509, 3.618524869838073, 0};
Point(p16 + 12) = {13.68207999665959, 3.598684670847134, 0};
Point(p16 + 13) = {13.60356075144556, 3.566160934572186, 0};
Point(p16 + 14) = {13.53109604172062, 3.521754503340409, 0};
Point(p16 + 15) = {13.46647018913477, 3.466558810865227, 0};
Point(p16 + 16) = {13.41127449665959, 3.401932958279378, 0};
Point(p16 + 17) = {13.36686806542781, 3.329468248554436, 0};
Point(p16 + 18) = {13.33434432915286, 3.25094900334041, 0};
Point(p16 + 19) = {13.31450413016193, 3.168308627044905, 0};
Point(p16 + 20) = {13.307836, 3.083582, 0};
Point(p16 + 21) = {13.31450413016193, 2.998855372955096, 0};
Point(p16 + 22) = {13.33434432915286, 2.91621499665959, 0};
Point(p16 + 23) = {13.36686806542781, 2.837695751445565, 0};
Point(p16 + 24) = {13.41127449665959, 2.765231041720621, 0};
Point(p16 + 25) = {13.46647018913477, 2.700605189134773, 0};
Point(p16 + 26) = {13.53109604172062, 2.64540949665959, 0};
Point(p16 + 27) = {13.60356075144556, 2.601003065427814, 0};
Point(p16 + 28) = {13.68207999665959, 2.568479329152865, 0};
Point(p16 + 29) = {13.76472037295509, 2.548639130161927, 0};
Point(p16 + 30) = {13.849447, 2.541971, 0};
Point(p16 + 31) = {13.9341736270449, 2.548639130161927, 0};
Point(p16 + 32) = {14.01681400334041, 2.568479329152865, 0};
Point(p16 + 33) = {14.09533324855444, 2.601003065427814, 0};
Point(p16 + 34) = {14.16779795827938, 2.64540949665959, 0};
Point(p16 + 35) = {14.23242381086523, 2.700605189134773, 0};
Point(p16 + 36) = {14.28761950334041, 2.765231041720621, 0};
Point(p16 + 37) = {14.33202593457219, 2.837695751445564, 0};
Point(p16 + 38) = {14.36454967084713, 2.91621499665959, 0};
Point(p16 + 39) = {14.38438986983807, 2.998855372955095, 0};
Spline(16) = {12, p16 + 1, p16 + 2, p16 + 3, p16 + 4, p16 + 5, p16 + 6, p16 + 7, p16 + 8, p16 + 9, p16 + 10, p16 + 11, p16 + 12, p16 + 13, p16 + 14, p16 + 15, p16 + 16, p16 + 17, p16 + 18, p16 + 19, p16 + 20, p16 + 21, p16 + 22, p16 + 23, p16 + 24, p16 + 25, p16 + 26, p16 + 27, p16 + 28, p16 + 29, p16 + 30, p16 + 31, p16 + 32, p16 + 33, p16 + 34, p16 + 35, p16 + 36, p16 + 37, p16 + 38, p16 + 39, 12};
Line(17) = {11, 8};
Line(18) = {12, 9};
Curve Loop(1) = {-1, 4, 3, -2};
Plane Surface(1) = {1};
Curve Loop(2) = {-5, 1, 7, -6};
Plane Surface(2) = {2};
Curve Loop(3) = {-2, 7, 9, -8, -10, -11};
Plane Surface(3) = {3};
Curve Loop(4) = {-12, 3, 8, -13};
Plane Surface(4) = {4};
Curve Loop(5) = {-4, 5, 14, -12, -15, -16};
Plane Surface(5) = {5};
Curve Loop(6) = {-6, 14, 13, -9};
Plane Surface(6) = {6};
Curve Loop(7) = {-10, -17, 15, 17};
Surface(7) = {7};
Curve Loop(8) = {-11, -18, 16, 18};
Surface(8) = {8};
Surface Loop(1) = {1, 2, 3, 4, 5, 6, 7, 8};
Volume(1) = {1};
Physical Surface("INFLOW") = {1};
Physical Surface("OUTFLOW") = {6};
Physical Surface("OBSTACLE") = {7, 8};
Physical Surface("WALL_Y") = {2, 4};
Physical Surface("WALL_Z") = {3, 5};
Physical Volume("FLUID") = {1};
