cl__1 = 1.815977;
cl__2 = 1.693733;
cl__3 = 3.750779;
cl__4 = 1.865111;
cl__5 = 0.083296;
Point(1) = {0.188163, -3.686867, 1, cl__1};
Point(2) = {0.188163, -3.686867, 0, cl__1};
Point(3) = {0.188163, 5.210259000000001, 1, cl__2};
Point(4) = {0.188163, 5.210259000000001, 0, cl__2};
Point(5) = {37.24305200000001, -3.686867, 0, cl__3};
Point(6) = {37.24305200000001, -3.686867, 1, cl__3};
Point(7) = {37.24305200000001, 5.210259000000001, 1, cl__4};
Point(8) = {18.687068, 3.287255, 1, cl__5};
Point(9) = {37.24305200000001, 5.210259000000001, 0, cl__4};
Point(10) = {18.687068, 3.287255, 0, cl__5};
Line(1) = {2, 1};
Line(2) = {1, 3};
Line(3) = {4, 3};
Line(4) = {2, 4};
Line(5) = {2, 5};
Line(6) = {5, 6};
Line(7) = {1, 6};
Line(8) = {3, 7};
Line(9) = {6, 7};
p10 = newp;
Point(p10 + 1) = {18.67681283093549, 3.417559277737771, 1};
Point(p10 + 2) = {18.64629984003928, 3.544655031702534, 1};
Point(p10 + 3) = {18.59628035841404, 3.665412742625052, 1};
Point(p10 + 4) = {18.52798603170253, 3.776858954890548, 1};
Point(p10 + 5) = {18.44309849288427, 3.876249492884271, 1};
Point(p10 + 6) = {18.34370795489055, 3.961137031702534, 1};
Point(p10 + 7) = {18.23226174262505, 4.02943135841404, 1};
Point(p10 + 8) = {18.11150403170253, 4.079450840039277, 1};
Point(p10 + 9) = {17.98440827773777, 4.109963830935488, 1};
Point(p10 + 10) = {17.854104, 4.120219000000001, 1};
Point(p10 + 11) = {17.72379972226223, 4.109963830935488, 1};
Point(p10 + 12) = {17.59670396829747, 4.079450840039277, 1};
Point(p10 + 13) = {17.47594625737495, 4.02943135841404, 1};
Point(p10 + 14) = {17.36450004510945, 3.961137031702534, 1};
Point(p10 + 15) = {17.26510950711573, 3.876249492884272, 1};
Point(p10 + 16) = {17.18022196829747, 3.776858954890548, 1};
Point(p10 + 17) = {17.11192764158596, 3.665412742625052, 1};
Point(p10 + 18) = {17.06190815996072, 3.544655031702534, 1};
Point(p10 + 19) = {17.03139516906451, 3.417559277737771, 1};
Point(p10 + 20) = {17.02114, 3.287255, 1};
Point(p10 + 21) = {17.03139516906451, 3.156950722262229, 1};
Point(p10 + 22) = {17.06190815996072, 3.029854968297466, 1};
Point(p10 + 23) = {17.11192764158596, 2.909097257374949, 1};
Point(p10 + 24) = {17.18022196829747, 2.797651045109452, 1};
Point(p10 + 25) = {17.26510950711573, 2.698260507115729, 1};
Point(p10 + 26) = {17.36450004510945, 2.613372968297466, 1};
Point(p10 + 27) = {17.47594625737495, 2.545078641585961, 1};
Point(p10 + 28) = {17.59670396829747, 2.495059159960724, 1};
Point(p10 + 29) = {17.72379972226223, 2.464546169064512, 1};
Point(p10 + 30) = {17.854104, 2.454291, 1};
Point(p10 + 31) = {17.98440827773777, 2.464546169064512, 1};
Point(p10 + 32) = {18.11150403170253, 2.495059159960724, 1};
Point(p10 + 33) = {18.23226174262505, 2.545078641585961, 1};
Point(p10 + 34) = {18.34370795489055, 2.613372968297466, 1};
Point(p10 + 35) = {18.44309849288427, 2.698260507115728, 1};
Point(p10 + 36) = {18.52798603170253, 2.797651045109452, 1};
Point(p10 + 37) = {18.59628035841404, 2.909097257374948, 1};
Point(p10 + 38) = {18.64629984003928, 3.029854968297466, 1};
Point(p10 + 39) = {18.67681283093549, 3.156950722262229, 1};
Spline(10) = {8, p10 + 1, p10 + 2, p10 + 3, p10 + 4, p10 + 5, p10 + 6, p10 + 7, p10 + 8, p10 + 9, p10 + 10, p10 + 11, p10 + 12, p10 + 13, p10 + 14, p10 + 15, p10 + 16, p10 + 17, p10 + 18, p10 + 19, p10 + 20, p10 + 21, p10 + 22, p10 + 23, p10 + 24, p10 + 25, p10 + 26, p10 + 27, p10 + 28, p10 + 29, p10 + 30, p10 + 31, p10 + 32, p10 + 33, p10 + 34, p10 + 35, p10 + 36, p10 + 37, p10 + 38, p10 + 39, 8};
Line(11) = {4, 9};
Line(12) = {9, 7};
Line(13) = {5, 9};
p14 = newp;
Point(p14 + 1) = {18.67681283093549, 3.417559277737771, 0};
Point(p14 + 2) = {18.64629984003928, 3.544655031702534, 0};
Point(p14 + 3) = {18.59628035841404, 3.665412742625052, 0};
Point(p14 + 4) = {18.52798603170253, 3.776858954890548, 0};
Point(p14 + 5) = {18.44309849288427, 3.876249492884271, 0};
Point(p14 + 6) = {18.34370795489055, 3.961137031702534, 0};
Point(p14 + 7) = {18.23226174262505, 4.02943135841404, 0};
Point(p14 + 8) = {18.11150403170253, 4.079450840039277, 0};
Point(p14 + 9) = {17.98440827773777, 4.109963830935488, 0};
Point(p14 + 10) = {17.854104, 4.120219000000001, 0};
Point(p14 + 11) = {17.72379972226223, 4.109963830935488, 0};
Point(p14 + 12) = {17.59670396829747, 4.079450840039277, 0};
Point(p14 + 13) = {17.47594625737495, 4.02943135841404, 0};
Point(p14 + 14) = {17.36450004510945, 3.961137031702534, 0};
Point(p14 + 15) = {17.26510950711573, 3.876249492884272, 0};
Point(p14 + 16) = {17.18022196829747, 3.776858954890548, 0};
Point(p14 + 17) = {17.11192764158596, 3.665412742625052, 0};
Point(p14 + 18) = {17.06190815996072, 3.544655031702534, 0};
Point(p14 + 19) = {17.03139516906451, 3.417559277737771, 0};
Point(p14 + 20) = {17.02114, 3.287255, 0};
Point(p14 + 21) = {17.03139516906451, 3.156950722262229, 0};
Point(p14 + 22) = {17.06190815996072, 3.029854968297466, 0};
Point(p14 + 23) = {17.11192764158596, 2.909097257374949, 0};
Point(p14 + 24) = {17.18022196829747, 2.797651045109452, 0};
Point(p14 + 25) = {17.26510950711573, 2.698260507115729, 0};
Point(p14 + 26) = {17.36450004510945, 2.613372968297466, 0};
Point(p14 + 27) = {17.47594625737495, 2.545078641585961, 0};
Point(p14 + 28) = {17.59670396829747, 2.495059159960724, 0};
Point(p14 + 29) = {17.72379972226223, 2.464546169064512, 0};
Point(p14 + 30) = {17.854104, 2.454291, 0};
Point(p14 + 31) = {17.98440827773777, 2.464546169064512, 0};
Point(p14 + 32) = {18.11150403170253, 2.495059159960724, 0};
Point(p14 + 33) = {18.23226174262505, 2.545078641585961, 0};
Point(p14 + 34) = {18.34370795489055, 2.613372968297466, 0};
Point(p14 + 35) = {18.44309849288427, 2.698260507115728, 0};
Point(p14 + 36) = {18.52798603170253, 2.797651045109452, 0};
Point(p14 + 37) = {18.59628035841404, 2.909097257374948, 0};
Point(p14 + 38) = {18.64629984003928, 3.029854968297466, 0};
Point(p14 + 39) = {18.67681283093549, 3.156950722262229, 0};
Spline(14) = {10, p14 + 1, p14 + 2, p14 + 3, p14 + 4, p14 + 5, p14 + 6, p14 + 7, p14 + 8, p14 + 9, p14 + 10, p14 + 11, p14 + 12, p14 + 13, p14 + 14, p14 + 15, p14 + 16, p14 + 17, p14 + 18, p14 + 19, p14 + 20, p14 + 21, p14 + 22, p14 + 23, p14 + 24, p14 + 25, p14 + 26, p14 + 27, p14 + 28, p14 + 29, p14 + 30, p14 + 31, p14 + 32, p14 + 33, p14 + 34, p14 + 35, p14 + 36, p14 + 37, p14 + 38, p14 + 39, 10};
Line(15) = {10, 8};
Curve Loop(1) = {-1, 4, 3, -2};
Plane Surface(1) = {1};
Curve Loop(2) = {-5, 1, 7, -6};
Plane Surface(2) = {2};
Curve Loop(3) = {-2, 7, 9, -8, -10};
Plane Surface(3) = {3};
Curve Loop(4) = {-11, 3, 8, -12};
Plane Surface(4) = {4};
Curve Loop(5) = {-4, 5, 13, -11, -14};
Plane Surface(5) = {5};
Curve Loop(6) = {-6, 13, 12, -9};
Plane Surface(6) = {6};
Curve Loop(7) = {-10, -15, 14, 15};
Surface(7) = {7};
Surface Loop(1) = {1, 2, 3, 4, 5, 6, 7};
Volume(1) = {1};
Physical Surface("INFLOW") = {1};
Physical Surface("OUTFLOW") = {6};
Physical Surface("OBSTACLE") = {7};
Physical Surface("WALL_Y") = {2, 4};
Physical Surface("WALL_Z") = {3, 5};
Physical Volume("FLUID") = {1};
