cl__1 = 0.995559;
cl__2 = 1.355481;
cl__3 = 3.107233;
cl__4 = 0.106689;
cl__5 = 0.07284;
Point(1) = {0.712323, -3.742346, 1, cl__1};
Point(2) = {0.712323, -3.742346, 0, cl__1};
Point(3) = {0.712323, 4.895648000000001, 1, cl__2};
Point(4) = {0.712323, 4.895648000000001, 0, cl__2};
Point(5) = {30.7707, -3.742346, 0, cl__1};
Point(6) = {30.7707, -3.742346, 1, cl__1};
Point(7) = {30.7707, 4.895648000000001, 1, cl__3};
Point(8) = {12.14815, -0.003369000000000262, 1, cl__4};
Point(9) = {18.388088, 1.924358, 1, cl__5};
Point(10) = {30.7707, 4.895648000000001, 0, cl__3};
Point(11) = {12.14815, -0.003369000000000262, 0, cl__4};
Point(12) = {18.388088, 1.924358, 0, cl__5};
Line(1) = {2, 1};
Line(2) = {1, 3};
Line(3) = {4, 3};
Line(4) = {2, 4};
Line(5) = {2, 5};
Line(6) = {5, 6};
Line(7) = {1, 6};
Line(8) = {3, 7};
Line(9) = {6, 7};
p10 = newp;
Point(p10 + 1) = {12.13501486294418, 0.1635287406689117, 1};
Point(p10 + 2) = {12.09593288244407, 0.3263169050607101, 1};
Point(p10 + 3) = {12.03186638656523, 0.4809871083051261, 1};
Point(p10 + 4) = {11.94439290506071, 0.6237308566773075, 1};
Point(p10 + 5) = {11.83566632535299, 0.7510333253529909, 1};
Point(p10 + 6) = {11.70836385667731, 0.8597599050607102, 1};
Point(p10 + 7) = {11.56562010830513, 0.947233386565231, 1};
Point(p10 + 8) = {11.41094990506071, 1.011299882444071, 1};
Point(p10 + 9) = {11.24816174066891, 1.050381862944184, 1};
Point(p10 + 10) = {11.081264, 1.063517, 1};
Point(p10 + 11) = {10.91436625933109, 1.050381862944184, 1};
Point(p10 + 12) = {10.75157809493929, 1.011299882444071, 1};
Point(p10 + 13) = {10.59690789169487, 0.9472333865652312, 1};
Point(p10 + 14) = {10.45416414332269, 0.8597599050607102, 1};
Point(p10 + 15) = {10.32686167464701, 0.7510333253529911, 1};
Point(p10 + 16) = {10.21813509493929, 0.6237308566773077, 1};
Point(p10 + 17) = {10.13066161343477, 0.4809871083051262, 1};
Point(p10 + 18) = {10.06659511755593, 0.3263169050607103, 1};
Point(p10 + 19) = {10.02751313705581, 0.1635287406689118, 1};
Point(p10 + 20) = {10.014378, -0.003368999999999869, 1};
Point(p10 + 21) = {10.02751313705581, -0.1702667406689116, 1};
Point(p10 + 22) = {10.06659511755593, -0.3330549050607105, 1};
Point(p10 + 23) = {10.13066161343477, -0.4877251083051256, 1};
Point(p10 + 24) = {10.21813509493929, -0.6304688566773073, 1};
Point(p10 + 25) = {10.32686167464701, -0.7577713253529909, 1};
Point(p10 + 26) = {10.45416414332269, -0.86649790506071, 1};
Point(p10 + 27) = {10.59690789169487, -0.9539713865652309, 1};
Point(p10 + 28) = {10.75157809493929, -1.018037882444071, 1};
Point(p10 + 29) = {10.91436625933109, -1.057119862944184, 1};
Point(p10 + 30) = {11.081264, -1.070255, 1};
Point(p10 + 31) = {11.24816174066891, -1.057119862944184, 1};
Point(p10 + 32) = {11.41094990506071, -1.018037882444071, 1};
Point(p10 + 33) = {11.56562010830513, -0.9539713865652311, 1};
Point(p10 + 34) = {11.70836385667731, -0.8664979050607102, 1};
Point(p10 + 35) = {11.83566632535299, -0.7577713253529911, 1};
Point(p10 + 36) = {11.94439290506071, -0.6304688566773077, 1};
Point(p10 + 37) = {12.03186638656523, -0.4877251083051263, 1};
Point(p10 + 38) = {12.09593288244407, -0.3330549050607104, 1};
Point(p10 + 39) = {12.13501486294418, -0.170266740668912, 1};
Spline(10) = {8, p10 + 1, p10 + 2, p10 + 3, p10 + 4, p10 + 5, p10 + 6, p10 + 7, p10 + 8, p10 + 9, p10 + 10, p10 + 11, p10 + 12, p10 + 13, p10 + 14, p10 + 15, p10 + 16, p10 + 17, p10 + 18, p10 + 19, p10 + 20, p10 + 21, p10 + 22, p10 + 23, p10 + 24, p10 + 25, p10 + 26, p10 + 27, p10 + 28, p10 + 29, p10 + 30, p10 + 31, p10 + 32, p10 + 33, p10 + 34, p10 + 35, p10 + 36, p10 + 37, p10 + 38, p10 + 39, 8};
p11 = newp;
Point(p11 + 1) = {18.37912013804286, 2.038305490073165, 1};
Point(p11 + 2) = {18.35243737069545, 2.149447214770689, 1};
Point(p11 + 3) = {18.3086967162449, 2.255046495972285, 1};
Point(p11 + 4) = {18.24897521477069, 2.352503128910846, 1};
Point(p11 + 5) = {18.1747434078434, 2.439417407843406, 1};
Point(p11 + 6) = {18.08782912891084, 2.513649214770689, 1};
Point(p11 + 7) = {17.99037249597228, 2.573370716244904, 1};
Point(p11 + 8) = {17.88477321477069, 2.617111370695455, 1};
Point(p11 + 9) = {17.77363149007316, 2.643794138042861, 1};
Point(p11 + 10) = {17.659684, 2.652762, 1};
Point(p11 + 11) = {17.54573650992683, 2.64379413804286, 1};
Point(p11 + 12) = {17.43459478522931, 2.617111370695455, 1};
Point(p11 + 13) = {17.32899550402771, 2.573370716244904, 1};
Point(p11 + 14) = {17.23153887108915, 2.513649214770689, 1};
Point(p11 + 15) = {17.14462459215659, 2.439417407843406, 1};
Point(p11 + 16) = {17.07039278522931, 2.352503128910847, 1};
Point(p11 + 17) = {17.01067128375509, 2.255046495972285, 1};
Point(p11 + 18) = {16.96693062930454, 2.149447214770689, 1};
Point(p11 + 19) = {16.94024786195714, 2.038305490073165, 1};
Point(p11 + 20) = {16.93128, 1.924358, 1};
Point(p11 + 21) = {16.94024786195714, 1.810410509926836, 1};
Point(p11 + 22) = {16.96693062930454, 1.69926878522931, 1};
Point(p11 + 23) = {17.01067128375509, 1.593669504027716, 1};
Point(p11 + 24) = {17.07039278522931, 1.496212871089154, 1};
Point(p11 + 25) = {17.14462459215659, 1.409298592156594, 1};
Point(p11 + 26) = {17.23153887108915, 1.335066785229311, 1};
Point(p11 + 27) = {17.32899550402771, 1.275345283755096, 1};
Point(p11 + 28) = {17.43459478522931, 1.231604629304545, 1};
Point(p11 + 29) = {17.54573650992683, 1.204921861957139, 1};
Point(p11 + 30) = {17.659684, 1.195954, 1};
Point(p11 + 31) = {17.77363149007316, 1.204921861957139, 1};
Point(p11 + 32) = {17.88477321477069, 1.231604629304545, 1};
Point(p11 + 33) = {17.99037249597228, 1.275345283755096, 1};
Point(p11 + 34) = {18.08782912891084, 1.335066785229311, 1};
Point(p11 + 35) = {18.1747434078434, 1.409298592156594, 1};
Point(p11 + 36) = {18.24897521477069, 1.496212871089153, 1};
Point(p11 + 37) = {18.3086967162449, 1.593669504027715, 1};
Point(p11 + 38) = {18.35243737069545, 1.699268785229311, 1};
Point(p11 + 39) = {18.37912013804286, 1.810410509926835, 1};
Spline(11) = {9, p11 + 1, p11 + 2, p11 + 3, p11 + 4, p11 + 5, p11 + 6, p11 + 7, p11 + 8, p11 + 9, p11 + 10, p11 + 11, p11 + 12, p11 + 13, p11 + 14, p11 + 15, p11 + 16, p11 + 17, p11 + 18, p11 + 19, p11 + 20, p11 + 21, p11 + 22, p11 + 23, p11 + 24, p11 + 25, p11 + 26, p11 + 27, p11 + 28, p11 + 29, p11 + 30, p11 + 31, p11 + 32, p11 + 33, p11 + 34, p11 + 35, p11 + 36, p11 + 37, p11 + 38, p11 + 39, 9};
Line(12) = {4, 10};
Line(13) = {10, 7};
Line(14) = {5, 10};
p15 = newp;
Point(p15 + 1) = {12.13501486294418, 0.1635287406689117, 0};
Point(p15 + 2) = {12.09593288244407, 0.3263169050607101, 0};
Point(p15 + 3) = {12.03186638656523, 0.4809871083051261, 0};
Point(p15 + 4) = {11.94439290506071, 0.6237308566773075, 0};
Point(p15 + 5) = {11.83566632535299, 0.7510333253529909, 0};
Point(p15 + 6) = {11.70836385667731, 0.8597599050607102, 0};
Point(p15 + 7) = {11.56562010830513, 0.947233386565231, 0};
Point(p15 + 8) = {11.41094990506071, 1.011299882444071, 0};
Point(p15 + 9) = {11.24816174066891, 1.050381862944184, 0};
Point(p15 + 10) = {11.081264, 1.063517, 0};
Point(p15 + 11) = {10.91436625933109, 1.050381862944184, 0};
Point(p15 + 12) = {10.75157809493929, 1.011299882444071, 0};
Point(p15 + 13) = {10.59690789169487, 0.9472333865652312, 0};
Point(p15 + 14) = {10.45416414332269, 0.8597599050607102, 0};
Point(p15 + 15) = {10.32686167464701, 0.7510333253529911, 0};
Point(p15 + 16) = {10.21813509493929, 0.6237308566773077, 0};
Point(p15 + 17) = {10.13066161343477, 0.4809871083051262, 0};
Point(p15 + 18) = {10.06659511755593, 0.3263169050607103, 0};
Point(p15 + 19) = {10.02751313705581, 0.1635287406689118, 0};
Point(p15 + 20) = {10.014378, -0.003368999999999869, 0};
Point(p15 + 21) = {10.02751313705581, -0.1702667406689116, 0};
Point(p15 + 22) = {10.06659511755593, -0.3330549050607105, 0};
Point(p15 + 23) = {10.13066161343477, -0.4877251083051256, 0};
Point(p15 + 24) = {10.21813509493929, -0.6304688566773073, 0};
Point(p15 + 25) = {10.32686167464701, -0.7577713253529909, 0};
Point(p15 + 26) = {10.45416414332269, -0.86649790506071, 0};
Point(p15 + 27) = {10.59690789169487, -0.9539713865652309, 0};
Point(p15 + 28) = {10.75157809493929, -1.018037882444071, 0};
Point(p15 + 29) = {10.91436625933109, -1.057119862944184, 0};
Point(p15 + 30) = {11.081264, -1.070255, 0};
Point(p15 + 31) = {11.24816174066891, -1.057119862944184, 0};
Point(p15 + 32) = {11.41094990506071, -1.018037882444071, 0};
Point(p15 + 33) = {11.56562010830513, -0.9539713865652311, 0};
Point(p15 + 34) = {11.70836385667731, -0.8664979050607102, 0};
Point(p15 + 35) = {11.83566632535299, -0.7577713253529911, 0};
Point(p15 + 36) = {11.94439290506071, -0.6304688566773077, 0};
Point(p15 + 37) = {12.03186638656523, -0.4877251083051263, 0};
Point(p15 + 38) = {12.09593288244407, -0.3330549050607104, 0};
Point(p15 + 39) = {12.13501486294418, -0.170266740668912, 0};
Spline(15) = {11, p15 + 1, p15 + 2, p15 + 3, p15 + 4, p15 + 5, p15 + 6, p15 + 7, p15 + 8, p15 + 9, p15 + 10, p15 + 11, p15 + 12, p15 + 13, p15 + 14, p15 + 15, p15 + 16, p15 + 17, p15 + 18, p15 + 19, p15 + 20, p15 + 21, p15 + 22, p15 + 23, p15 + 24, p15 + 25, p15 + 26, p15 + 27, p15 + 28, p15 + 29, p15 + 30, p15 + 31, p15 + 32, p15 + 33, p15 + 34, p15 + 35, p15 + 36, p15 + 37, p15 + 38, p15 + 39, 11};
p16 = newp;
Point(p16 + 1) = {18.37912013804286, 2.038305490073165, 0};
Point(p16 + 2) = {18.35243737069545, 2.149447214770689, 0};
Point(p16 + 3) = {18.3086967162449, 2.255046495972285, 0};
Point(p16 + 4) = {18.24897521477069, 2.352503128910846, 0};
Point(p16 + 5) = {18.1747434078434, 2.439417407843406, 0};
Point(p16 + 6) = {18.08782912891084, 2.513649214770689, 0};
Point(p16 + 7) = {17.99037249597228, 2.573370716244904, 0};
Point(p16 + 8) = {17.88477321477069, 2.617111370695455, 0};
Point(p16 + 9) = {17.77363149007316, 2.643794138042861, 0};
Point(p16 + 10) = {17.659684, 2.652762, 0};
Point(p16 + 11) = {17.54573650992683, 2.64379413804286, 0};
Point(p16 + 12) = {17.43459478522931, 2.617111370695455, 0};
Point(p16 + 13) = {17.32899550402771, 2.573370716244904, 0};
Point(p16 + 14) = {17.23153887108915, 2.513649214770689, 0};
Point(p16 + 15) = {17.14462459215659, 2.439417407843406, 0};
Point(p16 + 16) = {17.07039278522931, 2.352503128910847, 0};
Point(p16 + 17) = {17.01067128375509, 2.255046495972285, 0};
Point(p16 + 18) = {16.96693062930454, 2.149447214770689, 0};
Point(p16 + 19) = {16.94024786195714, 2.038305490073165, 0};
Point(p16 + 20) = {16.93128, 1.924358, 0};
Point(p16 + 21) = {16.94024786195714, 1.810410509926836, 0};
Point(p16 + 22) = {16.96693062930454, 1.69926878522931, 0};
Point(p16 + 23) = {17.01067128375509, 1.593669504027716, 0};
Point(p16 + 24) = {17.07039278522931, 1.496212871089154, 0};
Point(p16 + 25) = {17.14462459215659, 1.409298592156594, 0};
Point(p16 + 26) = {17.23153887108915, 1.335066785229311, 0};
Point(p16 + 27) = {17.32899550402771, 1.275345283755096, 0};
Point(p16 + 28) = {17.43459478522931, 1.231604629304545, 0};
Point(p16 + 29) = {17.54573650992683, 1.204921861957139, 0};
Point(p16 + 30) = {17.659684, 1.195954, 0};
Point(p16 + 31) = {17.77363149007316, 1.204921861957139, 0};
Point(p16 + 32) = {17.88477321477069, 1.231604629304545, 0};
Point(p16 + 33) = {17.99037249597228, 1.275345283755096, 0};
Point(p16 + 34) = {18.08782912891084, 1.335066785229311, 0};
Point(p16 + 35) = {18.1747434078434, 1.409298592156594, 0};
Point(p16 + 36) = {18.24897521477069, 1.496212871089153, 0};
Point(p16 + 37) = {18.3086967162449, 1.593669504027715, 0};
Point(p16 + 38) = {18.35243737069545, 1.699268785229311, 0};
Point(p16 + 39) = {18.37912013804286, 1.810410509926835, 0};
Spline(16) = {12, p16 + 1, p16 + 2, p16 + 3, p16 + 4, p16 + 5, p16 + 6, p16 + 7, p16 + 8, p16 + 9, p16 + 10, p16 + 11, p16 + 12, p16 + 13, p16 + 14, p16 + 15, p16 + 16, p16 + 17, p16 + 18, p16 + 19, p16 + 20, p16 + 21, p16 + 22, p16 + 23, p16 + 24, p16 + 25, p16 + 26, p16 + 27, p16 + 28, p16 + 29, p16 + 30, p16 + 31, p16 + 32, p16 + 33, p16 + 34, p16 + 35, p16 + 36, p16 + 37, p16 + 38, p16 + 39, 12};
Line(17) = {11, 8};
Line(18) = {12, 9};
Curve Loop(1) = {-1, 4, 3, -2};
Plane Surface(1) = {1};
Curve Loop(2) = {-5, 1, 7, -6};
Plane Surface(2) = {2};
Curve Loop(3) = {-2, 7, 9, -8, -10, -11};
Plane Surface(3) = {3};
Curve Loop(4) = {-12, 3, 8, -13};
Plane Surface(4) = {4};
Curve Loop(5) = {-4, 5, 14, -12, -15, -16};
Plane Surface(5) = {5};
Curve Loop(6) = {-6, 14, 13, -9};
Plane Surface(6) = {6};
Curve Loop(7) = {-10, -17, 15, 17};
Surface(7) = {7};
Curve Loop(8) = {-11, -18, 16, 18};
Surface(8) = {8};
Surface Loop(1) = {1, 2, 3, 4, 5, 6, 7, 8};
Volume(1) = {1};
Physical Surface("INFLOW") = {1};
Physical Surface("OUTFLOW") = {6};
Physical Surface("OBSTACLE") = {7, 8};
Physical Surface("WALL_Y") = {2, 4};
Physical Surface("WALL_Z") = {3, 5};
Physical Volume("FLUID") = {1};
