cl__1 = 3.325872;
cl__2 = 0.85639;
cl__3 = 0.103752;
cl__4 = 0.091585;
Point(1) = {0.117416, -3.602151, 1, cl__1};
Point(2) = {0.117416, -3.602151, 0, cl__1};
Point(3) = {0.117416, 5.434413, 1, cl__2};
Point(4) = {0.117416, 5.434413, 0, cl__2};
Point(5) = {32.950376, -3.602151, 0, cl__1};
Point(6) = {32.950376, -3.602151, 1, cl__1};
Point(7) = {32.950376, 5.434413, 1, cl__2};
Point(8) = {19.135002, -0.2636140000000002, 1, cl__3};
Point(9) = {25.55399, 0.9555169999999997, 1, cl__4};
Point(10) = {32.950376, 5.434413, 0, cl__2};
Point(11) = {19.135002, -0.2636140000000002, 0, cl__3};
Point(12) = {25.55399, 0.9555169999999997, 0, cl__4};
Line(1) = {2, 1};
Line(2) = {1, 3};
Line(3) = {4, 3};
Line(4) = {2, 4};
Line(5) = {2, 5};
Line(6) = {5, 6};
Line(7) = {1, 6};
Line(8) = {3, 7};
Line(9) = {6, 7};
p10 = newp;
Point(p10 + 1) = {19.12222843175759, -0.1013104267003898, 1};
Point(p10 + 2) = {19.08422225467352, 0.05699669396990664, 1};
Point(p10 + 3) = {19.02191930696287, 0.207409315308775, 1};
Point(p10 + 4) = {18.93685369396991, 0.3462237793879821, 1};
Point(p10 + 5) = {18.8311200134031, 0.4700220134031043, 1};
Point(p10 + 6) = {18.70732177938798, 0.5757556939699067, 1};
Point(p10 + 7) = {18.56850731530877, 0.6608213069628669, 1};
Point(p10 + 8) = {18.41809469396991, 0.723124254673515, 1};
Point(p10 + 9) = {18.25978757329961, 0.761130431757586, 1};
Point(p10 + 10) = {18.097484, 0.7739039999999999, 1};
Point(p10 + 11) = {17.93518042670039, 0.761130431757586, 1};
Point(p10 + 12) = {17.77687330603009, 0.7231242546735152, 1};
Point(p10 + 13) = {17.62646068469123, 0.660821306962867, 1};
Point(p10 + 14) = {17.48764622061202, 0.5757556939699067, 1};
Point(p10 + 15) = {17.3638479865969, 0.4700220134031045, 1};
Point(p10 + 16) = {17.25811430603009, 0.3462237793879822, 1};
Point(p10 + 17) = {17.17304869303713, 0.2074093153087752, 1};
Point(p10 + 18) = {17.11074574532649, 0.05699669396990675, 1};
Point(p10 + 19) = {17.07273956824242, -0.1013104267003897, 1};
Point(p10 + 20) = {17.059966, -0.2636139999999999, 1};
Point(p10 + 21) = {17.07273956824242, -0.4259175732996101, 1};
Point(p10 + 22) = {17.11074574532649, -0.5842246939699069, 1};
Point(p10 + 23) = {17.17304869303713, -0.7346373153087745, 1};
Point(p10 + 24) = {17.25811430603009, -0.873451779387982, 1};
Point(p10 + 25) = {17.3638479865969, -0.9972500134031044, 1};
Point(p10 + 26) = {17.48764622061202, -1.102983693969906, 1};
Point(p10 + 27) = {17.62646068469123, -1.188049306962867, 1};
Point(p10 + 28) = {17.77687330603009, -1.250352254673515, 1};
Point(p10 + 29) = {17.93518042670039, -1.288358431757586, 1};
Point(p10 + 30) = {18.097484, -1.301132, 1};
Point(p10 + 31) = {18.25978757329961, -1.288358431757586, 1};
Point(p10 + 32) = {18.41809469396991, -1.250352254673515, 1};
Point(p10 + 33) = {18.56850731530877, -1.188049306962867, 1};
Point(p10 + 34) = {18.70732177938798, -1.102983693969907, 1};
Point(p10 + 35) = {18.8311200134031, -0.9972500134031046, 1};
Point(p10 + 36) = {18.93685369396991, -0.8734517793879824, 1};
Point(p10 + 37) = {19.02191930696287, -0.7346373153087753, 1};
Point(p10 + 38) = {19.08422225467352, -0.5842246939699069, 1};
Point(p10 + 39) = {19.12222843175759, -0.4259175732996105, 1};
Spline(10) = {8, p10 + 1, p10 + 2, p10 + 3, p10 + 4, p10 + 5, p10 + 6, p10 + 7, p10 + 8, p10 + 9, p10 + 10, p10 + 11, p10 + 12, p10 + 13, p10 + 14, p10 + 15, p10 + 16, p10 + 17, p10 + 18, p10 + 19, p10 + 20, p10 + 21, p10 + 22, p10 + 23, p10 + 24, p10 + 25, p10 + 26, p10 + 27, p10 + 28, p10 + 29, p10 + 30, p10 + 31, p10 + 32, p10 + 33, p10 + 34, p10 + 35, p10 + 36, p10 + 37, p10 + 38, p10 + 39, 8};
p11 = newp;
Point(p11 + 1) = {25.54271441598069, 1.098786879069235, 1};
Point(p11 + 2) = {25.50916530622285, 1.238528978230318, 1};
Point(p11 + 3) = {25.45416876115182, 1.371302383224465, 1};
Point(p11 + 4) = {25.37907897823032, 1.493837772171052, 1};
Point(p11 + 5) = {25.28574491712257, 1.603117917122575, 1};
Point(p11 + 6) = {25.17646477217105, 1.696451978230318, 1};
Point(p11 + 7) = {25.05392938322446, 1.77154176115182, 1};
Point(p11 + 8) = {24.92115597823032, 1.826538306222851, 1};
Point(p11 + 9) = {24.78141387906924, 1.860087415980694, 1};
Point(p11 + 10) = {24.638144, 1.871363, 1};
Point(p11 + 11) = {24.49487412093076, 1.860087415980694, 1};
Point(p11 + 12) = {24.35513202176968, 1.826538306222851, 1};
Point(p11 + 13) = {24.22235861677554, 1.77154176115182, 1};
Point(p11 + 14) = {24.09982322782895, 1.696451978230318, 1};
Point(p11 + 15) = {23.99054308287743, 1.603117917122575, 1};
Point(p11 + 16) = {23.89720902176968, 1.493837772171053, 1};
Point(p11 + 17) = {23.82211923884818, 1.371302383224465, 1};
Point(p11 + 18) = {23.76712269377715, 1.238528978230318, 1};
Point(p11 + 19) = {23.73357358401931, 1.098786879069235, 1};
Point(p11 + 20) = {23.722298, 0.9555170000000001, 1};
Point(p11 + 21) = {23.73357358401931, 0.8122471209307648, 1};
Point(p11 + 22) = {23.76712269377715, 0.6725050217696815, 1};
Point(p11 + 23) = {23.82211923884818, 0.5397316167755355, 1};
Point(p11 + 24) = {23.89720902176968, 0.4171962278289477, 1};
Point(p11 + 25) = {23.99054308287743, 0.3079160828774252, 1};
Point(p11 + 26) = {24.09982322782895, 0.2145820217696819, 1};
Point(p11 + 27) = {24.22235861677554, 0.1394922388481801, 1};
Point(p11 + 28) = {24.35513202176968, 0.08449569377714872, 1};
Point(p11 + 29) = {24.49487412093076, 0.05094658401930541, 1};
Point(p11 + 30) = {24.638144, 0.0396709999999999, 1};
Point(p11 + 31) = {24.78141387906923, 0.05094658401930541, 1};
Point(p11 + 32) = {24.92115597823032, 0.08449569377714861, 1};
Point(p11 + 33) = {25.05392938322446, 0.13949223884818, 1};
Point(p11 + 34) = {25.17646477217105, 0.2145820217696817, 1};
Point(p11 + 35) = {25.28574491712257, 0.307916082877425, 1};
Point(p11 + 36) = {25.37907897823032, 0.4171962278289474, 1};
Point(p11 + 37) = {25.45416876115182, 0.5397316167755348, 1};
Point(p11 + 38) = {25.50916530622285, 0.6725050217696816, 1};
Point(p11 + 39) = {25.54271441598069, 0.8122471209307645, 1};
Spline(11) = {9, p11 + 1, p11 + 2, p11 + 3, p11 + 4, p11 + 5, p11 + 6, p11 + 7, p11 + 8, p11 + 9, p11 + 10, p11 + 11, p11 + 12, p11 + 13, p11 + 14, p11 + 15, p11 + 16, p11 + 17, p11 + 18, p11 + 19, p11 + 20, p11 + 21, p11 + 22, p11 + 23, p11 + 24, p11 + 25, p11 + 26, p11 + 27, p11 + 28, p11 + 29, p11 + 30, p11 + 31, p11 + 32, p11 + 33, p11 + 34, p11 + 35, p11 + 36, p11 + 37, p11 + 38, p11 + 39, 9};
Line(12) = {4, 10};
Line(13) = {10, 7};
Line(14) = {5, 10};
p15 = newp;
Point(p15 + 1) = {19.12222843175759, -0.1013104267003898, 0};
Point(p15 + 2) = {19.08422225467352, 0.05699669396990664, 0};
Point(p15 + 3) = {19.02191930696287, 0.207409315308775, 0};
Point(p15 + 4) = {18.93685369396991, 0.3462237793879821, 0};
Point(p15 + 5) = {18.8311200134031, 0.4700220134031043, 0};
Point(p15 + 6) = {18.70732177938798, 0.5757556939699067, 0};
Point(p15 + 7) = {18.56850731530877, 0.6608213069628669, 0};
Point(p15 + 8) = {18.41809469396991, 0.723124254673515, 0};
Point(p15 + 9) = {18.25978757329961, 0.761130431757586, 0};
Point(p15 + 10) = {18.097484, 0.7739039999999999, 0};
Point(p15 + 11) = {17.93518042670039, 0.761130431757586, 0};
Point(p15 + 12) = {17.77687330603009, 0.7231242546735152, 0};
Point(p15 + 13) = {17.62646068469123, 0.660821306962867, 0};
Point(p15 + 14) = {17.48764622061202, 0.5757556939699067, 0};
Point(p15 + 15) = {17.3638479865969, 0.4700220134031045, 0};
Point(p15 + 16) = {17.25811430603009, 0.3462237793879822, 0};
Point(p15 + 17) = {17.17304869303713, 0.2074093153087752, 0};
Point(p15 + 18) = {17.11074574532649, 0.05699669396990675, 0};
Point(p15 + 19) = {17.07273956824242, -0.1013104267003897, 0};
Point(p15 + 20) = {17.059966, -0.2636139999999999, 0};
Point(p15 + 21) = {17.07273956824242, -0.4259175732996101, 0};
Point(p15 + 22) = {17.11074574532649, -0.5842246939699069, 0};
Point(p15 + 23) = {17.17304869303713, -0.7346373153087745, 0};
Point(p15 + 24) = {17.25811430603009, -0.873451779387982, 0};
Point(p15 + 25) = {17.3638479865969, -0.9972500134031044, 0};
Point(p15 + 26) = {17.48764622061202, -1.102983693969906, 0};
Point(p15 + 27) = {17.62646068469123, -1.188049306962867, 0};
Point(p15 + 28) = {17.77687330603009, -1.250352254673515, 0};
Point(p15 + 29) = {17.93518042670039, -1.288358431757586, 0};
Point(p15 + 30) = {18.097484, -1.301132, 0};
Point(p15 + 31) = {18.25978757329961, -1.288358431757586, 0};
Point(p15 + 32) = {18.41809469396991, -1.250352254673515, 0};
Point(p15 + 33) = {18.56850731530877, -1.188049306962867, 0};
Point(p15 + 34) = {18.70732177938798, -1.102983693969907, 0};
Point(p15 + 35) = {18.8311200134031, -0.9972500134031046, 0};
Point(p15 + 36) = {18.93685369396991, -0.8734517793879824, 0};
Point(p15 + 37) = {19.02191930696287, -0.7346373153087753, 0};
Point(p15 + 38) = {19.08422225467352, -0.5842246939699069, 0};
Point(p15 + 39) = {19.12222843175759, -0.4259175732996105, 0};
Spline(15) = {11, p15 + 1, p15 + 2, p15 + 3, p15 + 4, p15 + 5, p15 + 6, p15 + 7, p15 + 8, p15 + 9, p15 + 10, p15 + 11, p15 + 12, p15 + 13, p15 + 14, p15 + 15, p15 + 16, p15 + 17, p15 + 18, p15 + 19, p15 + 20, p15 + 21, p15 + 22, p15 + 23, p15 + 24, p15 + 25, p15 + 26, p15 + 27, p15 + 28, p15 + 29, p15 + 30, p15 + 31, p15 + 32, p15 + 33, p15 + 34, p15 + 35, p15 + 36, p15 + 37, p15 + 38, p15 + 39, 11};
p16 = newp;
Point(p16 + 1) = {25.54271441598069, 1.098786879069235, 0};
Point(p16 + 2) = {25.50916530622285, 1.238528978230318, 0};
Point(p16 + 3) = {25.45416876115182, 1.371302383224465, 0};
Point(p16 + 4) = {25.37907897823032, 1.493837772171052, 0};
Point(p16 + 5) = {25.28574491712257, 1.603117917122575, 0};
Point(p16 + 6) = {25.17646477217105, 1.696451978230318, 0};
Point(p16 + 7) = {25.05392938322446, 1.77154176115182, 0};
Point(p16 + 8) = {24.92115597823032, 1.826538306222851, 0};
Point(p16 + 9) = {24.78141387906924, 1.860087415980694, 0};
Point(p16 + 10) = {24.638144, 1.871363, 0};
Point(p16 + 11) = {24.49487412093076, 1.860087415980694, 0};
Point(p16 + 12) = {24.35513202176968, 1.826538306222851, 0};
Point(p16 + 13) = {24.22235861677554, 1.77154176115182, 0};
Point(p16 + 14) = {24.09982322782895, 1.696451978230318, 0};
Point(p16 + 15) = {23.99054308287743, 1.603117917122575, 0};
Point(p16 + 16) = {23.89720902176968, 1.493837772171053, 0};
Point(p16 + 17) = {23.82211923884818, 1.371302383224465, 0};
Point(p16 + 18) = {23.76712269377715, 1.238528978230318, 0};
Point(p16 + 19) = {23.73357358401931, 1.098786879069235, 0};
Point(p16 + 20) = {23.722298, 0.9555170000000001, 0};
Point(p16 + 21) = {23.73357358401931, 0.8122471209307648, 0};
Point(p16 + 22) = {23.76712269377715, 0.6725050217696815, 0};
Point(p16 + 23) = {23.82211923884818, 0.5397316167755355, 0};
Point(p16 + 24) = {23.89720902176968, 0.4171962278289477, 0};
Point(p16 + 25) = {23.99054308287743, 0.3079160828774252, 0};
Point(p16 + 26) = {24.09982322782895, 0.2145820217696819, 0};
Point(p16 + 27) = {24.22235861677554, 0.1394922388481801, 0};
Point(p16 + 28) = {24.35513202176968, 0.08449569377714872, 0};
Point(p16 + 29) = {24.49487412093076, 0.05094658401930541, 0};
Point(p16 + 30) = {24.638144, 0.0396709999999999, 0};
Point(p16 + 31) = {24.78141387906923, 0.05094658401930541, 0};
Point(p16 + 32) = {24.92115597823032, 0.08449569377714861, 0};
Point(p16 + 33) = {25.05392938322446, 0.13949223884818, 0};
Point(p16 + 34) = {25.17646477217105, 0.2145820217696817, 0};
Point(p16 + 35) = {25.28574491712257, 0.307916082877425, 0};
Point(p16 + 36) = {25.37907897823032, 0.4171962278289474, 0};
Point(p16 + 37) = {25.45416876115182, 0.5397316167755348, 0};
Point(p16 + 38) = {25.50916530622285, 0.6725050217696816, 0};
Point(p16 + 39) = {25.54271441598069, 0.8122471209307645, 0};
Spline(16) = {12, p16 + 1, p16 + 2, p16 + 3, p16 + 4, p16 + 5, p16 + 6, p16 + 7, p16 + 8, p16 + 9, p16 + 10, p16 + 11, p16 + 12, p16 + 13, p16 + 14, p16 + 15, p16 + 16, p16 + 17, p16 + 18, p16 + 19, p16 + 20, p16 + 21, p16 + 22, p16 + 23, p16 + 24, p16 + 25, p16 + 26, p16 + 27, p16 + 28, p16 + 29, p16 + 30, p16 + 31, p16 + 32, p16 + 33, p16 + 34, p16 + 35, p16 + 36, p16 + 37, p16 + 38, p16 + 39, 12};
Line(17) = {11, 8};
Line(18) = {12, 9};
Curve Loop(1) = {-1, 4, 3, -2};
Plane Surface(1) = {1};
Curve Loop(2) = {-5, 1, 7, -6};
Plane Surface(2) = {2};
Curve Loop(3) = {-2, 7, 9, -8, -10, -11};
Plane Surface(3) = {3};
Curve Loop(4) = {-12, 3, 8, -13};
Plane Surface(4) = {4};
Curve Loop(5) = {-4, 5, 14, -12, -15, -16};
Plane Surface(5) = {5};
Curve Loop(6) = {-6, 14, 13, -9};
Plane Surface(6) = {6};
Curve Loop(7) = {-10, -17, 15, 17};
Surface(7) = {7};
Curve Loop(8) = {-11, -18, 16, 18};
Surface(8) = {8};
Surface Loop(1) = {1, 2, 3, 4, 5, 6, 7, 8};
Volume(1) = {1};
Physical Surface("INFLOW") = {1};
Physical Surface("OUTFLOW") = {6};
Physical Surface("OBSTACLE") = {7, 8};
Physical Surface("WALL_Y") = {2, 4};
Physical Surface("WALL_Z") = {3, 5};
Physical Volume("FLUID") = {1};
