cl__1 = 1.710089;
cl__2 = 1.654605;
cl__3 = 0.548304;
cl__4 = 0.140724;
cl__5 = 0.07115200000000001;
Point(1) = {0.653675, -4.42904, 1, cl__1};
Point(2) = {0.653675, -4.42904, 0, cl__1};
Point(3) = {0.653675, 5.159633, 1, cl__2};
Point(4) = {0.653675, 5.159633, 0, cl__2};
Point(5) = {36.533365, -4.42904, 0, cl__3};
Point(6) = {36.533365, -4.42904, 1, cl__3};
Point(7) = {36.533365, 5.159633, 1, cl__2};
Point(8) = {20.282676, -1.185843, 1, cl__4};
Point(9) = {3.527809, 1.375754, 1, cl__5};
Point(10) = {36.533365, 5.159633, 0, cl__2};
Point(11) = {20.282676, -1.185843, 0, cl__4};
Point(12) = {3.527809, 1.375754, 0, cl__5};
Line(1) = {2, 1};
Line(2) = {1, 3};
Line(3) = {4, 3};
Line(4) = {2, 4};
Line(5) = {2, 5};
Line(6) = {5, 6};
Line(7) = {1, 6};
Line(8) = {3, 7};
Line(9) = {6, 7};
p10 = newp;
Point(p10 + 1) = {20.26535051579578, -0.9657018505478554, 1};
Point(p10 + 2) = {20.21380067410422, -0.7509813068018103, 1};
Point(p10 + 3) = {20.12929580311189, -0.5469685011655206, 1};
Point(p10 + 4) = {20.01391669319819, -0.3586869059934354, 1};
Point(p10 + 5) = {19.87050436097052, -0.1907726390294805, 1};
Point(p10 + 6) = {19.70259009400656, -0.04736030680181003, 1};
Point(p10 + 7) = {19.51430849883448, 0.06801880311188713, 1};
Point(p10 + 8) = {19.31029569319819, 0.1525236741042246, 1};
Point(p10 + 9) = {19.09557514945214, 0.2040735157957829, 1};
Point(p10 + 10) = {18.875434, 0.2213990000000001, 1};
Point(p10 + 11) = {18.65529285054785, 0.2040735157957829, 1};
Point(p10 + 12) = {18.44057230680181, 0.1525236741042246, 1};
Point(p10 + 13) = {18.23655950116552, 0.06801880311188735, 1};
Point(p10 + 14) = {18.04827790599343, -0.04736030680181003, 1};
Point(p10 + 15) = {17.88036363902948, -0.1907726390294803, 1};
Point(p10 + 16) = {17.73695130680181, -0.3586869059934353, 1};
Point(p10 + 17) = {17.62157219688811, -0.5469685011655205, 1};
Point(p10 + 18) = {17.53706732589577, -0.7509813068018101, 1};
Point(p10 + 19) = {17.48551748420422, -0.9657018505478552, 1};
Point(p10 + 20) = {17.468192, -1.185843, 1};
Point(p10 + 21) = {17.48551748420422, -1.405984149452144, 1};
Point(p10 + 22) = {17.53706732589577, -1.62070469319819, 1};
Point(p10 + 23) = {17.62157219688811, -1.824717498834479, 1};
Point(p10 + 24) = {17.73695130680181, -2.012999094006565, 1};
Point(p10 + 25) = {17.88036363902948, -2.18091336097052, 1};
Point(p10 + 26) = {18.04827790599343, -2.324325693198189, 1};
Point(p10 + 27) = {18.23655950116552, -2.439704803111887, 1};
Point(p10 + 28) = {18.44057230680181, -2.524209674104225, 1};
Point(p10 + 29) = {18.65529285054785, -2.575759515795783, 1};
Point(p10 + 30) = {18.875434, -2.593085, 1};
Point(p10 + 31) = {19.09557514945214, -2.575759515795783, 1};
Point(p10 + 32) = {19.31029569319819, -2.524209674104225, 1};
Point(p10 + 33) = {19.51430849883448, -2.439704803111887, 1};
Point(p10 + 34) = {19.70259009400656, -2.32432569319819, 1};
Point(p10 + 35) = {19.87050436097052, -2.18091336097052, 1};
Point(p10 + 36) = {20.01391669319819, -2.012999094006565, 1};
Point(p10 + 37) = {20.12929580311189, -1.82471749883448, 1};
Point(p10 + 38) = {20.21380067410422, -1.62070469319819, 1};
Point(p10 + 39) = {20.26535051579578, -1.405984149452145, 1};
Spline(10) = {8, p10 + 1, p10 + 2, p10 + 3, p10 + 4, p10 + 5, p10 + 6, p10 + 7, p10 + 8, p10 + 9, p10 + 10, p10 + 11, p10 + 12, p10 + 13, p10 + 14, p10 + 15, p10 + 16, p10 + 17, p10 + 18, p10 + 19, p10 + 20, p10 + 21, p10 + 22, p10 + 23, p10 + 24, p10 + 25, p10 + 26, p10 + 27, p10 + 28, p10 + 29, p10 + 30, p10 + 31, p10 + 32, p10 + 33, p10 + 34, p10 + 35, p10 + 36, p10 + 37, p10 + 38, p10 + 39, 8};
p11 = newp;
Point(p11 + 1) = {3.519049045035231, 1.48705978126203, 1};
Point(p11 + 2) = {3.492984879304779, 1.595624844786679, 1};
Point(p11 + 3) = {3.450258289070935, 1.698775958403183, 1};
Point(p11 + 4) = {3.391921344786679, 1.793973199355384, 1};
Point(p11 + 5) = {3.319410495629509, 1.878872495629508, 1};
Point(p11 + 6) = {3.234511199355383, 1.95138334478668, 1};
Point(p11 + 7) = {3.139313958403183, 2.009720289070935, 1};
Point(p11 + 8) = {3.036162844786679, 2.052446879304779, 1};
Point(p11 + 9) = {2.92759778126203, 2.07851104503523, 1};
Point(p11 + 10) = {2.816292, 2.087271, 1};
Point(p11 + 11) = {2.70498621873797, 2.07851104503523, 1};
Point(p11 + 12) = {2.59642115521332, 2.052446879304779, 1};
Point(p11 + 13) = {2.493270041596817, 2.009720289070935, 1};
Point(p11 + 14) = {2.398072800644616, 1.95138334478668, 1};
Point(p11 + 15) = {2.313173504370491, 1.878872495629509, 1};
Point(p11 + 16) = {2.24066265521332, 1.793973199355384, 1};
Point(p11 + 17) = {2.182325710929065, 1.698775958403183, 1};
Point(p11 + 18) = {2.139599120695221, 1.595624844786679, 1};
Point(p11 + 19) = {2.113534954964769, 1.48705978126203, 1};
Point(p11 + 20) = {2.104775, 1.375754, 1};
Point(p11 + 21) = {2.113534954964769, 1.26444821873797, 1};
Point(p11 + 22) = {2.139599120695221, 1.15588315521332, 1};
Point(p11 + 23) = {2.182325710929065, 1.052732041596817, 1};
Point(p11 + 24) = {2.24066265521332, 0.9575348006446165, 1};
Point(p11 + 25) = {2.313173504370491, 0.8726355043704913, 1};
Point(p11 + 26) = {2.398072800644616, 0.8001246552133205, 1};
Point(p11 + 27) = {2.493270041596817, 0.741787710929065, 1};
Point(p11 + 28) = {2.59642115521332, 0.6990611206952212, 1};
Point(p11 + 29) = {2.70498621873797, 0.6729969549647694, 1};
Point(p11 + 30) = {2.816292, 0.664237, 1};
Point(p11 + 31) = {2.92759778126203, 0.6729969549647693, 1};
Point(p11 + 32) = {3.036162844786679, 0.6990611206952211, 1};
Point(p11 + 33) = {3.139313958403183, 0.741787710929065, 1};
Point(p11 + 34) = {3.234511199355383, 0.8001246552133204, 1};
Point(p11 + 35) = {3.319410495629509, 0.8726355043704911, 1};
Point(p11 + 36) = {3.391921344786679, 0.9575348006446162, 1};
Point(p11 + 37) = {3.450258289070935, 1.052732041596817, 1};
Point(p11 + 38) = {3.492984879304779, 1.15588315521332, 1};
Point(p11 + 39) = {3.519049045035231, 1.26444821873797, 1};
Spline(11) = {9, p11 + 1, p11 + 2, p11 + 3, p11 + 4, p11 + 5, p11 + 6, p11 + 7, p11 + 8, p11 + 9, p11 + 10, p11 + 11, p11 + 12, p11 + 13, p11 + 14, p11 + 15, p11 + 16, p11 + 17, p11 + 18, p11 + 19, p11 + 20, p11 + 21, p11 + 22, p11 + 23, p11 + 24, p11 + 25, p11 + 26, p11 + 27, p11 + 28, p11 + 29, p11 + 30, p11 + 31, p11 + 32, p11 + 33, p11 + 34, p11 + 35, p11 + 36, p11 + 37, p11 + 38, p11 + 39, 9};
Line(12) = {4, 10};
Line(13) = {10, 7};
Line(14) = {5, 10};
p15 = newp;
Point(p15 + 1) = {20.26535051579578, -0.9657018505478554, 0};
Point(p15 + 2) = {20.21380067410422, -0.7509813068018103, 0};
Point(p15 + 3) = {20.12929580311189, -0.5469685011655206, 0};
Point(p15 + 4) = {20.01391669319819, -0.3586869059934354, 0};
Point(p15 + 5) = {19.87050436097052, -0.1907726390294805, 0};
Point(p15 + 6) = {19.70259009400656, -0.04736030680181003, 0};
Point(p15 + 7) = {19.51430849883448, 0.06801880311188713, 0};
Point(p15 + 8) = {19.31029569319819, 0.1525236741042246, 0};
Point(p15 + 9) = {19.09557514945214, 0.2040735157957829, 0};
Point(p15 + 10) = {18.875434, 0.2213990000000001, 0};
Point(p15 + 11) = {18.65529285054785, 0.2040735157957829, 0};
Point(p15 + 12) = {18.44057230680181, 0.1525236741042246, 0};
Point(p15 + 13) = {18.23655950116552, 0.06801880311188735, 0};
Point(p15 + 14) = {18.04827790599343, -0.04736030680181003, 0};
Point(p15 + 15) = {17.88036363902948, -0.1907726390294803, 0};
Point(p15 + 16) = {17.73695130680181, -0.3586869059934353, 0};
Point(p15 + 17) = {17.62157219688811, -0.5469685011655205, 0};
Point(p15 + 18) = {17.53706732589577, -0.7509813068018101, 0};
Point(p15 + 19) = {17.48551748420422, -0.9657018505478552, 0};
Point(p15 + 20) = {17.468192, -1.185843, 0};
Point(p15 + 21) = {17.48551748420422, -1.405984149452144, 0};
Point(p15 + 22) = {17.53706732589577, -1.62070469319819, 0};
Point(p15 + 23) = {17.62157219688811, -1.824717498834479, 0};
Point(p15 + 24) = {17.73695130680181, -2.012999094006565, 0};
Point(p15 + 25) = {17.88036363902948, -2.18091336097052, 0};
Point(p15 + 26) = {18.04827790599343, -2.324325693198189, 0};
Point(p15 + 27) = {18.23655950116552, -2.439704803111887, 0};
Point(p15 + 28) = {18.44057230680181, -2.524209674104225, 0};
Point(p15 + 29) = {18.65529285054785, -2.575759515795783, 0};
Point(p15 + 30) = {18.875434, -2.593085, 0};
Point(p15 + 31) = {19.09557514945214, -2.575759515795783, 0};
Point(p15 + 32) = {19.31029569319819, -2.524209674104225, 0};
Point(p15 + 33) = {19.51430849883448, -2.439704803111887, 0};
Point(p15 + 34) = {19.70259009400656, -2.32432569319819, 0};
Point(p15 + 35) = {19.87050436097052, -2.18091336097052, 0};
Point(p15 + 36) = {20.01391669319819, -2.012999094006565, 0};
Point(p15 + 37) = {20.12929580311189, -1.82471749883448, 0};
Point(p15 + 38) = {20.21380067410422, -1.62070469319819, 0};
Point(p15 + 39) = {20.26535051579578, -1.405984149452145, 0};
Spline(15) = {11, p15 + 1, p15 + 2, p15 + 3, p15 + 4, p15 + 5, p15 + 6, p15 + 7, p15 + 8, p15 + 9, p15 + 10, p15 + 11, p15 + 12, p15 + 13, p15 + 14, p15 + 15, p15 + 16, p15 + 17, p15 + 18, p15 + 19, p15 + 20, p15 + 21, p15 + 22, p15 + 23, p15 + 24, p15 + 25, p15 + 26, p15 + 27, p15 + 28, p15 + 29, p15 + 30, p15 + 31, p15 + 32, p15 + 33, p15 + 34, p15 + 35, p15 + 36, p15 + 37, p15 + 38, p15 + 39, 11};
p16 = newp;
Point(p16 + 1) = {3.519049045035231, 1.48705978126203, 0};
Point(p16 + 2) = {3.492984879304779, 1.595624844786679, 0};
Point(p16 + 3) = {3.450258289070935, 1.698775958403183, 0};
Point(p16 + 4) = {3.391921344786679, 1.793973199355384, 0};
Point(p16 + 5) = {3.319410495629509, 1.878872495629508, 0};
Point(p16 + 6) = {3.234511199355383, 1.95138334478668, 0};
Point(p16 + 7) = {3.139313958403183, 2.009720289070935, 0};
Point(p16 + 8) = {3.036162844786679, 2.052446879304779, 0};
Point(p16 + 9) = {2.92759778126203, 2.07851104503523, 0};
Point(p16 + 10) = {2.816292, 2.087271, 0};
Point(p16 + 11) = {2.70498621873797, 2.07851104503523, 0};
Point(p16 + 12) = {2.59642115521332, 2.052446879304779, 0};
Point(p16 + 13) = {2.493270041596817, 2.009720289070935, 0};
Point(p16 + 14) = {2.398072800644616, 1.95138334478668, 0};
Point(p16 + 15) = {2.313173504370491, 1.878872495629509, 0};
Point(p16 + 16) = {2.24066265521332, 1.793973199355384, 0};
Point(p16 + 17) = {2.182325710929065, 1.698775958403183, 0};
Point(p16 + 18) = {2.139599120695221, 1.595624844786679, 0};
Point(p16 + 19) = {2.113534954964769, 1.48705978126203, 0};
Point(p16 + 20) = {2.104775, 1.375754, 0};
Point(p16 + 21) = {2.113534954964769, 1.26444821873797, 0};
Point(p16 + 22) = {2.139599120695221, 1.15588315521332, 0};
Point(p16 + 23) = {2.182325710929065, 1.052732041596817, 0};
Point(p16 + 24) = {2.24066265521332, 0.9575348006446165, 0};
Point(p16 + 25) = {2.313173504370491, 0.8726355043704913, 0};
Point(p16 + 26) = {2.398072800644616, 0.8001246552133205, 0};
Point(p16 + 27) = {2.493270041596817, 0.741787710929065, 0};
Point(p16 + 28) = {2.59642115521332, 0.6990611206952212, 0};
Point(p16 + 29) = {2.70498621873797, 0.6729969549647694, 0};
Point(p16 + 30) = {2.816292, 0.664237, 0};
Point(p16 + 31) = {2.92759778126203, 0.6729969549647693, 0};
Point(p16 + 32) = {3.036162844786679, 0.6990611206952211, 0};
Point(p16 + 33) = {3.139313958403183, 0.741787710929065, 0};
Point(p16 + 34) = {3.234511199355383, 0.8001246552133204, 0};
Point(p16 + 35) = {3.319410495629509, 0.8726355043704911, 0};
Point(p16 + 36) = {3.391921344786679, 0.9575348006446162, 0};
Point(p16 + 37) = {3.450258289070935, 1.052732041596817, 0};
Point(p16 + 38) = {3.492984879304779, 1.15588315521332, 0};
Point(p16 + 39) = {3.519049045035231, 1.26444821873797, 0};
Spline(16) = {12, p16 + 1, p16 + 2, p16 + 3, p16 + 4, p16 + 5, p16 + 6, p16 + 7, p16 + 8, p16 + 9, p16 + 10, p16 + 11, p16 + 12, p16 + 13, p16 + 14, p16 + 15, p16 + 16, p16 + 17, p16 + 18, p16 + 19, p16 + 20, p16 + 21, p16 + 22, p16 + 23, p16 + 24, p16 + 25, p16 + 26, p16 + 27, p16 + 28, p16 + 29, p16 + 30, p16 + 31, p16 + 32, p16 + 33, p16 + 34, p16 + 35, p16 + 36, p16 + 37, p16 + 38, p16 + 39, 12};
Line(17) = {11, 8};
Line(18) = {12, 9};
Curve Loop(1) = {-1, 4, 3, -2};
Plane Surface(1) = {1};
Curve Loop(2) = {-5, 1, 7, -6};
Plane Surface(2) = {2};
Curve Loop(3) = {-2, 7, 9, -8, -10, -11};
Plane Surface(3) = {3};
Curve Loop(4) = {-12, 3, 8, -13};
Plane Surface(4) = {4};
Curve Loop(5) = {-4, 5, 14, -12, -15, -16};
Plane Surface(5) = {5};
Curve Loop(6) = {-6, 14, 13, -9};
Plane Surface(6) = {6};
Curve Loop(7) = {-10, -17, 15, 17};
Surface(7) = {7};
Curve Loop(8) = {-11, -18, 16, 18};
Surface(8) = {8};
Surface Loop(1) = {1, 2, 3, 4, 5, 6, 7, 8};
Volume(1) = {1};
Physical Surface("INFLOW") = {1};
Physical Surface("OUTFLOW") = {6};
Physical Surface("OBSTACLE") = {7, 8};
Physical Surface("WALL_Y") = {2, 4};
Physical Surface("WALL_Z") = {3, 5};
Physical Volume("FLUID") = {1};
