cl__1 = 3.649627;
cl__2 = 1.076274;
cl__3 = 1.024077;
cl__4 = 0.076977;
cl__5 = 0.123966;
Point(1) = {0.660672, -4.661875, 1, cl__1};
Point(2) = {0.660672, -4.661875, 0, cl__1};
Point(3) = {0.660672, 4.833263000000001, 1, cl__2};
Point(4) = {0.660672, 4.833263000000001, 0, cl__2};
Point(5) = {36.186159, -4.661875, 0, cl__3};
Point(6) = {36.186159, -4.661875, 1, cl__3};
Point(7) = {36.186159, 4.833263000000001, 1, cl__2};
Point(8) = {11.924781, -1.330103, 1, cl__4};
Point(9) = {26.992518, 1.271407, 1, cl__5};
Point(10) = {36.186159, 4.833263000000001, 0, cl__2};
Point(11) = {11.924781, -1.330103, 0, cl__4};
Point(12) = {26.992518, 1.271407, 0, cl__5};
Line(1) = {2, 1};
Line(2) = {1, 3};
Line(3) = {4, 3};
Line(4) = {2, 4};
Line(5) = {2, 5};
Line(6) = {5, 6};
Line(7) = {1, 6};
Line(8) = {3, 7};
Line(9) = {6, 7};
p10 = newp;
Point(p10 + 1) = {11.91530390318656, -1.209685067583842, 1};
Point(p10 + 2) = {11.88710597032246, -1.092232224307974, 1};
Point(p10 + 3) = {11.84088152809838, -0.9806365489774882, 1};
Point(p10 + 4) = {11.77776877569203, -0.8776458974838321, 1};
Point(p10 + 5) = {11.69932175852684, -0.7857962414731562, 1};
Point(p10 + 6) = {11.60747210251617, -0.7073492243079743, 1};
Point(p10 + 7) = {11.50448145102251, -0.6442364719016169, 1};
Point(p10 + 8) = {11.39288577569203, -0.598012029677545, 1};
Point(p10 + 9) = {11.27543293241616, -0.5698140968134433, 1};
Point(p10 + 10) = {11.155015, -0.5603370000000001, 1};
Point(p10 + 11) = {11.03459706758384, -0.5698140968134433, 1};
Point(p10 + 12) = {10.91714422430798, -0.5980120296775449, 1};
Point(p10 + 13) = {10.80554854897749, -0.6442364719016169, 1};
Point(p10 + 14) = {10.70255789748383, -0.7073492243079743, 1};
Point(p10 + 15) = {10.61070824147316, -0.7857962414731561, 1};
Point(p10 + 16) = {10.53226122430797, -0.8776458974838321, 1};
Point(p10 + 17) = {10.46914847190162, -0.980636548977488, 1};
Point(p10 + 18) = {10.42292402967755, -1.092232224307974, 1};
Point(p10 + 19) = {10.39472609681344, -1.209685067583842, 1};
Point(p10 + 20) = {10.385249, -1.330103, 1};
Point(p10 + 21) = {10.39472609681344, -1.450520932416158, 1};
Point(p10 + 22) = {10.42292402967755, -1.567973775692026, 1};
Point(p10 + 23) = {10.46914847190162, -1.679569451022512, 1};
Point(p10 + 24) = {10.53226122430797, -1.782560102516168, 1};
Point(p10 + 25) = {10.61070824147316, -1.874409758526844, 1};
Point(p10 + 26) = {10.70255789748383, -1.952856775692026, 1};
Point(p10 + 27) = {10.80554854897749, -2.015969528098383, 1};
Point(p10 + 28) = {10.91714422430798, -2.062193970322455, 1};
Point(p10 + 29) = {11.03459706758384, -2.090391903186557, 1};
Point(p10 + 30) = {11.155015, -2.099869, 1};
Point(p10 + 31) = {11.27543293241616, -2.090391903186557, 1};
Point(p10 + 32) = {11.39288577569203, -2.062193970322455, 1};
Point(p10 + 33) = {11.50448145102251, -2.015969528098383, 1};
Point(p10 + 34) = {11.60747210251617, -1.952856775692026, 1};
Point(p10 + 35) = {11.69932175852684, -1.874409758526844, 1};
Point(p10 + 36) = {11.77776877569203, -1.782560102516168, 1};
Point(p10 + 37) = {11.84088152809838, -1.679569451022512, 1};
Point(p10 + 38) = {11.88710597032246, -1.567973775692026, 1};
Point(p10 + 39) = {11.91530390318656, -1.450520932416159, 1};
Spline(10) = {8, p10 + 1, p10 + 2, p10 + 3, p10 + 4, p10 + 5, p10 + 6, p10 + 7, p10 + 8, p10 + 9, p10 + 10, p10 + 11, p10 + 12, p10 + 13, p10 + 14, p10 + 15, p10 + 16, p10 + 17, p10 + 18, p10 + 19, p10 + 20, p10 + 21, p10 + 22, p10 + 23, p10 + 24, p10 + 25, p10 + 26, p10 + 27, p10 + 28, p10 + 29, p10 + 30, p10 + 31, p10 + 32, p10 + 33, p10 + 34, p10 + 35, p10 + 36, p10 + 37, p10 + 38, p10 + 39, 8};
p11 = newp;
Point(p11 + 1) = {26.97725578986047, 1.465331766759447, 1};
Point(p11 + 2) = {26.93184496570787, 1.654481462161875, 1};
Point(p11 + 3) = {26.85740369274273, 1.834198592954628, 1};
Point(p11 + 4) = {26.75576496216188, 2.000057926930626, 1};
Point(p11 + 5) = {26.62943145683181, 2.147975456831809, 1};
Point(p11 + 6) = {26.48151392693063, 2.274308962161876, 1};
Point(p11 + 7) = {26.31565459295463, 2.375947692742731, 1};
Point(p11 + 8) = {26.13593746216188, 2.450388965707869, 1};
Point(p11 + 9) = {25.94678776675945, 2.495799789860465, 1};
Point(p11 + 10) = {25.752863, 2.511062, 1};
Point(p11 + 11) = {25.55893823324055, 2.495799789860465, 1};
Point(p11 + 12) = {25.36978853783813, 2.450388965707869, 1};
Point(p11 + 13) = {25.19007140704537, 2.375947692742731, 1};
Point(p11 + 14) = {25.02421207306937, 2.274308962161876, 1};
Point(p11 + 15) = {24.87629454316819, 2.147975456831809, 1};
Point(p11 + 16) = {24.74996103783813, 2.000057926930626, 1};
Point(p11 + 17) = {24.64832230725727, 1.834198592954628, 1};
Point(p11 + 18) = {24.57388103429213, 1.654481462161876, 1};
Point(p11 + 19) = {24.52847021013953, 1.465331766759447, 1};
Point(p11 + 20) = {24.513208, 1.271407, 1};
Point(p11 + 21) = {24.52847021013953, 1.077482233240553, 1};
Point(p11 + 22) = {24.57388103429213, 0.8883325378381242, 1};
Point(p11 + 23) = {24.64832230725727, 0.7086154070453727, 1};
Point(p11 + 24) = {24.74996103783813, 0.5427560730693743, 1};
Point(p11 + 25) = {24.87629454316819, 0.3948385431681904, 1};
Point(p11 + 26) = {25.02421207306937, 0.2685050378381246, 1};
Point(p11 + 27) = {25.19007140704537, 0.1668663072572689, 1};
Point(p11 + 28) = {25.36978853783813, 0.09242503429213156, 1};
Point(p11 + 29) = {25.55893823324055, 0.04701421013953455, 1};
Point(p11 + 30) = {25.752863, 0.031752, 1};
Point(p11 + 31) = {25.94678776675945, 0.04701421013953455, 1};
Point(p11 + 32) = {26.13593746216188, 0.09242503429213134, 1};
Point(p11 + 33) = {26.31565459295463, 0.1668663072572687, 1};
Point(p11 + 34) = {26.48151392693063, 0.2685050378381244, 1};
Point(p11 + 35) = {26.62943145683181, 0.3948385431681902, 1};
Point(p11 + 36) = {26.75576496216188, 0.5427560730693739, 1};
Point(p11 + 37) = {26.85740369274273, 0.7086154070453718, 1};
Point(p11 + 38) = {26.93184496570787, 0.8883325378381243, 1};
Point(p11 + 39) = {26.97725578986047, 1.077482233240552, 1};
Spline(11) = {9, p11 + 1, p11 + 2, p11 + 3, p11 + 4, p11 + 5, p11 + 6, p11 + 7, p11 + 8, p11 + 9, p11 + 10, p11 + 11, p11 + 12, p11 + 13, p11 + 14, p11 + 15, p11 + 16, p11 + 17, p11 + 18, p11 + 19, p11 + 20, p11 + 21, p11 + 22, p11 + 23, p11 + 24, p11 + 25, p11 + 26, p11 + 27, p11 + 28, p11 + 29, p11 + 30, p11 + 31, p11 + 32, p11 + 33, p11 + 34, p11 + 35, p11 + 36, p11 + 37, p11 + 38, p11 + 39, 9};
Line(12) = {4, 10};
Line(13) = {10, 7};
Line(14) = {5, 10};
p15 = newp;
Point(p15 + 1) = {11.91530390318656, -1.209685067583842, 0};
Point(p15 + 2) = {11.88710597032246, -1.092232224307974, 0};
Point(p15 + 3) = {11.84088152809838, -0.9806365489774882, 0};
Point(p15 + 4) = {11.77776877569203, -0.8776458974838321, 0};
Point(p15 + 5) = {11.69932175852684, -0.7857962414731562, 0};
Point(p15 + 6) = {11.60747210251617, -0.7073492243079743, 0};
Point(p15 + 7) = {11.50448145102251, -0.6442364719016169, 0};
Point(p15 + 8) = {11.39288577569203, -0.598012029677545, 0};
Point(p15 + 9) = {11.27543293241616, -0.5698140968134433, 0};
Point(p15 + 10) = {11.155015, -0.5603370000000001, 0};
Point(p15 + 11) = {11.03459706758384, -0.5698140968134433, 0};
Point(p15 + 12) = {10.91714422430798, -0.5980120296775449, 0};
Point(p15 + 13) = {10.80554854897749, -0.6442364719016169, 0};
Point(p15 + 14) = {10.70255789748383, -0.7073492243079743, 0};
Point(p15 + 15) = {10.61070824147316, -0.7857962414731561, 0};
Point(p15 + 16) = {10.53226122430797, -0.8776458974838321, 0};
Point(p15 + 17) = {10.46914847190162, -0.980636548977488, 0};
Point(p15 + 18) = {10.42292402967755, -1.092232224307974, 0};
Point(p15 + 19) = {10.39472609681344, -1.209685067583842, 0};
Point(p15 + 20) = {10.385249, -1.330103, 0};
Point(p15 + 21) = {10.39472609681344, -1.450520932416158, 0};
Point(p15 + 22) = {10.42292402967755, -1.567973775692026, 0};
Point(p15 + 23) = {10.46914847190162, -1.679569451022512, 0};
Point(p15 + 24) = {10.53226122430797, -1.782560102516168, 0};
Point(p15 + 25) = {10.61070824147316, -1.874409758526844, 0};
Point(p15 + 26) = {10.70255789748383, -1.952856775692026, 0};
Point(p15 + 27) = {10.80554854897749, -2.015969528098383, 0};
Point(p15 + 28) = {10.91714422430798, -2.062193970322455, 0};
Point(p15 + 29) = {11.03459706758384, -2.090391903186557, 0};
Point(p15 + 30) = {11.155015, -2.099869, 0};
Point(p15 + 31) = {11.27543293241616, -2.090391903186557, 0};
Point(p15 + 32) = {11.39288577569203, -2.062193970322455, 0};
Point(p15 + 33) = {11.50448145102251, -2.015969528098383, 0};
Point(p15 + 34) = {11.60747210251617, -1.952856775692026, 0};
Point(p15 + 35) = {11.69932175852684, -1.874409758526844, 0};
Point(p15 + 36) = {11.77776877569203, -1.782560102516168, 0};
Point(p15 + 37) = {11.84088152809838, -1.679569451022512, 0};
Point(p15 + 38) = {11.88710597032246, -1.567973775692026, 0};
Point(p15 + 39) = {11.91530390318656, -1.450520932416159, 0};
Spline(15) = {11, p15 + 1, p15 + 2, p15 + 3, p15 + 4, p15 + 5, p15 + 6, p15 + 7, p15 + 8, p15 + 9, p15 + 10, p15 + 11, p15 + 12, p15 + 13, p15 + 14, p15 + 15, p15 + 16, p15 + 17, p15 + 18, p15 + 19, p15 + 20, p15 + 21, p15 + 22, p15 + 23, p15 + 24, p15 + 25, p15 + 26, p15 + 27, p15 + 28, p15 + 29, p15 + 30, p15 + 31, p15 + 32, p15 + 33, p15 + 34, p15 + 35, p15 + 36, p15 + 37, p15 + 38, p15 + 39, 11};
p16 = newp;
Point(p16 + 1) = {26.97725578986047, 1.465331766759447, 0};
Point(p16 + 2) = {26.93184496570787, 1.654481462161875, 0};
Point(p16 + 3) = {26.85740369274273, 1.834198592954628, 0};
Point(p16 + 4) = {26.75576496216188, 2.000057926930626, 0};
Point(p16 + 5) = {26.62943145683181, 2.147975456831809, 0};
Point(p16 + 6) = {26.48151392693063, 2.274308962161876, 0};
Point(p16 + 7) = {26.31565459295463, 2.375947692742731, 0};
Point(p16 + 8) = {26.13593746216188, 2.450388965707869, 0};
Point(p16 + 9) = {25.94678776675945, 2.495799789860465, 0};
Point(p16 + 10) = {25.752863, 2.511062, 0};
Point(p16 + 11) = {25.55893823324055, 2.495799789860465, 0};
Point(p16 + 12) = {25.36978853783813, 2.450388965707869, 0};
Point(p16 + 13) = {25.19007140704537, 2.375947692742731, 0};
Point(p16 + 14) = {25.02421207306937, 2.274308962161876, 0};
Point(p16 + 15) = {24.87629454316819, 2.147975456831809, 0};
Point(p16 + 16) = {24.74996103783813, 2.000057926930626, 0};
Point(p16 + 17) = {24.64832230725727, 1.834198592954628, 0};
Point(p16 + 18) = {24.57388103429213, 1.654481462161876, 0};
Point(p16 + 19) = {24.52847021013953, 1.465331766759447, 0};
Point(p16 + 20) = {24.513208, 1.271407, 0};
Point(p16 + 21) = {24.52847021013953, 1.077482233240553, 0};
Point(p16 + 22) = {24.57388103429213, 0.8883325378381242, 0};
Point(p16 + 23) = {24.64832230725727, 0.7086154070453727, 0};
Point(p16 + 24) = {24.74996103783813, 0.5427560730693743, 0};
Point(p16 + 25) = {24.87629454316819, 0.3948385431681904, 0};
Point(p16 + 26) = {25.02421207306937, 0.2685050378381246, 0};
Point(p16 + 27) = {25.19007140704537, 0.1668663072572689, 0};
Point(p16 + 28) = {25.36978853783813, 0.09242503429213156, 0};
Point(p16 + 29) = {25.55893823324055, 0.04701421013953455, 0};
Point(p16 + 30) = {25.752863, 0.031752, 0};
Point(p16 + 31) = {25.94678776675945, 0.04701421013953455, 0};
Point(p16 + 32) = {26.13593746216188, 0.09242503429213134, 0};
Point(p16 + 33) = {26.31565459295463, 0.1668663072572687, 0};
Point(p16 + 34) = {26.48151392693063, 0.2685050378381244, 0};
Point(p16 + 35) = {26.62943145683181, 0.3948385431681902, 0};
Point(p16 + 36) = {26.75576496216188, 0.5427560730693739, 0};
Point(p16 + 37) = {26.85740369274273, 0.7086154070453718, 0};
Point(p16 + 38) = {26.93184496570787, 0.8883325378381243, 0};
Point(p16 + 39) = {26.97725578986047, 1.077482233240552, 0};
Spline(16) = {12, p16 + 1, p16 + 2, p16 + 3, p16 + 4, p16 + 5, p16 + 6, p16 + 7, p16 + 8, p16 + 9, p16 + 10, p16 + 11, p16 + 12, p16 + 13, p16 + 14, p16 + 15, p16 + 16, p16 + 17, p16 + 18, p16 + 19, p16 + 20, p16 + 21, p16 + 22, p16 + 23, p16 + 24, p16 + 25, p16 + 26, p16 + 27, p16 + 28, p16 + 29, p16 + 30, p16 + 31, p16 + 32, p16 + 33, p16 + 34, p16 + 35, p16 + 36, p16 + 37, p16 + 38, p16 + 39, 12};
Line(17) = {11, 8};
Line(18) = {12, 9};
Curve Loop(1) = {-1, 4, 3, -2};
Plane Surface(1) = {1};
Curve Loop(2) = {-5, 1, 7, -6};
Plane Surface(2) = {2};
Curve Loop(3) = {-2, 7, 9, -8, -10, -11};
Plane Surface(3) = {3};
Curve Loop(4) = {-12, 3, 8, -13};
Plane Surface(4) = {4};
Curve Loop(5) = {-4, 5, 14, -12, -15, -16};
Plane Surface(5) = {5};
Curve Loop(6) = {-6, 14, 13, -9};
Plane Surface(6) = {6};
Curve Loop(7) = {-10, -17, 15, 17};
Surface(7) = {7};
Curve Loop(8) = {-11, -18, 16, 18};
Surface(8) = {8};
Surface Loop(1) = {1, 2, 3, 4, 5, 6, 7, 8};
Volume(1) = {1};
Physical Surface("INFLOW") = {1};
Physical Surface("OUTFLOW") = {6};
Physical Surface("OBSTACLE") = {7, 8};
Physical Surface("WALL_Y") = {2, 4};
Physical Surface("WALL_Z") = {3, 5};
Physical Volume("FLUID") = {1};
