cl__1 = 1;
cl__2 = 0.085574;
cl__3 = 0.119688;
Point(1) = {0.164375, -3.953851, 1, cl__1};
Point(2) = {0.164375, -3.953851, 0, cl__1};
Point(3) = {0.164375, 4.885959999999999, 1, cl__1};
Point(4) = {0.164375, 4.885959999999999, 0, cl__1};
Point(5) = {34.065126, -3.953851, 0, cl__1};
Point(6) = {34.065126, -3.953851, 1, cl__1};
Point(7) = {34.065126, 4.885959999999999, 1, cl__1};
Point(8) = {3.962922, -2.225698, 1, cl__2};
Point(9) = {24.567422, 2.885196999999999, 1, cl__3};
Point(10) = {34.065126, 4.885959999999999, 0, cl__1};
Point(11) = {3.962922, -2.225698, 0, cl__2};
Point(12) = {24.567422, 2.885196999999999, 0, cl__3};
Line(1) = {2, 1};
Line(2) = {1, 3};
Line(3) = {4, 3};
Line(4) = {2, 4};
Line(5) = {2, 5};
Line(6) = {5, 6};
Line(7) = {1, 6};
Line(8) = {3, 7};
Line(9) = {6, 7};
p10 = newp;
Point(p10 + 1) = {3.952386383645905, -2.091830301583077, 1};
Point(p10 + 2) = {3.921038956423963, -1.961258870182599, 1};
Point(p10 + 3) = {3.869651596028526, -1.837198807781381, 1};
Point(p10 + 4) = {3.7994896298174, -1.722704884847482, 1};
Point(p10 + 5) = {3.71228067825292, -1.62059632174708, 1};
Point(p10 + 6) = {3.610172115152518, -1.533387370182599, 1};
Point(p10 + 7) = {3.495678192218619, -1.463225403971474, 1};
Point(p10 + 8) = {3.371618129817401, -1.411838043576036, 1};
Point(p10 + 9) = {3.241046698416922, -1.380490616354095, 1};
Point(p10 + 10) = {3.107179, -1.369955, 1};
Point(p10 + 11) = {2.973311301583077, -1.380490616354095, 1};
Point(p10 + 12) = {2.842739870182599, -1.411838043576036, 1};
Point(p10 + 13) = {2.718679807781381, -1.463225403971473, 1};
Point(p10 + 14) = {2.604185884847482, -1.533387370182599, 1};
Point(p10 + 15) = {2.50207732174708, -1.62059632174708, 1};
Point(p10 + 16) = {2.414868370182599, -1.722704884847482, 1};
Point(p10 + 17) = {2.344706403971474, -1.837198807781381, 1};
Point(p10 + 18) = {2.293319043576036, -1.961258870182599, 1};
Point(p10 + 19) = {2.261971616354095, -2.091830301583077, 1};
Point(p10 + 20) = {2.251436, -2.225698, 1};
Point(p10 + 21) = {2.261971616354095, -2.359565698416922, 1};
Point(p10 + 22) = {2.293319043576036, -2.490137129817401, 1};
Point(p10 + 23) = {2.344706403971473, -2.614197192218619, 1};
Point(p10 + 24) = {2.414868370182599, -2.728691115152518, 1};
Point(p10 + 25) = {2.50207732174708, -2.830799678252919, 1};
Point(p10 + 26) = {2.604185884847482, -2.9180086298174, 1};
Point(p10 + 27) = {2.718679807781381, -2.988170596028526, 1};
Point(p10 + 28) = {2.842739870182599, -3.039557956423963, 1};
Point(p10 + 29) = {2.973311301583077, -3.070905383645905, 1};
Point(p10 + 30) = {3.107179, -3.081441, 1};
Point(p10 + 31) = {3.241046698416922, -3.070905383645905, 1};
Point(p10 + 32) = {3.3716181298174, -3.039557956423963, 1};
Point(p10 + 33) = {3.495678192218619, -2.988170596028526, 1};
Point(p10 + 34) = {3.610172115152518, -2.918008629817401, 1};
Point(p10 + 35) = {3.712280678252919, -2.83079967825292, 1};
Point(p10 + 36) = {3.7994896298174, -2.728691115152518, 1};
Point(p10 + 37) = {3.869651596028526, -2.614197192218619, 1};
Point(p10 + 38) = {3.921038956423963, -2.490137129817401, 1};
Point(p10 + 39) = {3.952386383645905, -2.359565698416922, 1};
Spline(10) = {8, p10 + 1, p10 + 2, p10 + 3, p10 + 4, p10 + 5, p10 + 6, p10 + 7, p10 + 8, p10 + 9, p10 + 10, p10 + 11, p10 + 12, p10 + 13, p10 + 14, p10 + 15, p10 + 16, p10 + 17, p10 + 18, p10 + 19, p10 + 20, p10 + 21, p10 + 22, p10 + 23, p10 + 24, p10 + 25, p10 + 26, p10 + 27, p10 + 28, p10 + 29, p10 + 30, p10 + 31, p10 + 32, p10 + 33, p10 + 34, p10 + 35, p10 + 36, p10 + 37, p10 + 38, p10 + 39, 8};
p11 = newp;
Point(p11 + 1) = {24.55268644571483, 3.072429969648421, 1};
Point(p11 + 2) = {24.50884262111031, 3.255052642193498, 1};
Point(p11 + 3) = {24.43697010665753, 3.428568241347269, 1};
Point(p11 + 4) = {24.3388386421935, 3.588704237193311, 1};
Point(p11 + 5) = {24.21686455005299, 3.731517550052993, 1};
Point(p11 + 6) = {24.07405123719331, 3.853491642193498, 1};
Point(p11 + 7) = {23.91391524134727, 3.951623106657525, 1};
Point(p11 + 8) = {23.7403996421935, 4.02349562111031, 1};
Point(p11 + 9) = {23.55777696964842, 4.067339445714827, 1};
Point(p11 + 10) = {23.370544, 4.082075, 1};
Point(p11 + 11) = {23.18331103035158, 4.067339445714827, 1};
Point(p11 + 12) = {23.0006883578065, 4.02349562111031, 1};
Point(p11 + 13) = {22.82717275865273, 3.951623106657525, 1};
Point(p11 + 14) = {22.66703676280669, 3.853491642193498, 1};
Point(p11 + 15) = {22.52422344994701, 3.731517550052993, 1};
Point(p11 + 16) = {22.4022493578065, 3.588704237193311, 1};
Point(p11 + 17) = {22.30411789334247, 3.428568241347269, 1};
Point(p11 + 18) = {22.23224537888969, 3.255052642193498, 1};
Point(p11 + 19) = {22.18840155428517, 3.072429969648421, 1};
Point(p11 + 20) = {22.173666, 2.885197, 1};
Point(p11 + 21) = {22.18840155428517, 2.697964030351578, 1};
Point(p11 + 22) = {22.23224537888969, 2.515341357806501, 1};
Point(p11 + 23) = {22.30411789334247, 2.341825758652731, 1};
Point(p11 + 24) = {22.4022493578065, 2.181689762806689, 1};
Point(p11 + 25) = {22.52422344994701, 2.038876449947007, 1};
Point(p11 + 26) = {22.66703676280669, 1.916902357806502, 1};
Point(p11 + 27) = {22.82717275865273, 1.818770893342474, 1};
Point(p11 + 28) = {23.0006883578065, 1.746898378889689, 1};
Point(p11 + 29) = {23.18331103035158, 1.703054554285172, 1};
Point(p11 + 30) = {23.370544, 1.688319, 1};
Point(p11 + 31) = {23.55777696964842, 1.703054554285172, 1};
Point(p11 + 32) = {23.7403996421935, 1.746898378889689, 1};
Point(p11 + 33) = {23.91391524134727, 1.818770893342474, 1};
Point(p11 + 34) = {24.07405123719331, 1.916902357806501, 1};
Point(p11 + 35) = {24.21686455005299, 2.038876449947007, 1};
Point(p11 + 36) = {24.3388386421935, 2.181689762806689, 1};
Point(p11 + 37) = {24.43697010665753, 2.34182575865273, 1};
Point(p11 + 38) = {24.50884262111031, 2.515341357806501, 1};
Point(p11 + 39) = {24.55268644571483, 2.697964030351578, 1};
Spline(11) = {9, p11 + 1, p11 + 2, p11 + 3, p11 + 4, p11 + 5, p11 + 6, p11 + 7, p11 + 8, p11 + 9, p11 + 10, p11 + 11, p11 + 12, p11 + 13, p11 + 14, p11 + 15, p11 + 16, p11 + 17, p11 + 18, p11 + 19, p11 + 20, p11 + 21, p11 + 22, p11 + 23, p11 + 24, p11 + 25, p11 + 26, p11 + 27, p11 + 28, p11 + 29, p11 + 30, p11 + 31, p11 + 32, p11 + 33, p11 + 34, p11 + 35, p11 + 36, p11 + 37, p11 + 38, p11 + 39, 9};
Line(12) = {4, 10};
Line(13) = {10, 7};
Line(14) = {5, 10};
p15 = newp;
Point(p15 + 1) = {3.952386383645905, -2.091830301583077, 0};
Point(p15 + 2) = {3.921038956423963, -1.961258870182599, 0};
Point(p15 + 3) = {3.869651596028526, -1.837198807781381, 0};
Point(p15 + 4) = {3.7994896298174, -1.722704884847482, 0};
Point(p15 + 5) = {3.71228067825292, -1.62059632174708, 0};
Point(p15 + 6) = {3.610172115152518, -1.533387370182599, 0};
Point(p15 + 7) = {3.495678192218619, -1.463225403971474, 0};
Point(p15 + 8) = {3.371618129817401, -1.411838043576036, 0};
Point(p15 + 9) = {3.241046698416922, -1.380490616354095, 0};
Point(p15 + 10) = {3.107179, -1.369955, 0};
Point(p15 + 11) = {2.973311301583077, -1.380490616354095, 0};
Point(p15 + 12) = {2.842739870182599, -1.411838043576036, 0};
Point(p15 + 13) = {2.718679807781381, -1.463225403971473, 0};
Point(p15 + 14) = {2.604185884847482, -1.533387370182599, 0};
Point(p15 + 15) = {2.50207732174708, -1.62059632174708, 0};
Point(p15 + 16) = {2.414868370182599, -1.722704884847482, 0};
Point(p15 + 17) = {2.344706403971474, -1.837198807781381, 0};
Point(p15 + 18) = {2.293319043576036, -1.961258870182599, 0};
Point(p15 + 19) = {2.261971616354095, -2.091830301583077, 0};
Point(p15 + 20) = {2.251436, -2.225698, 0};
Point(p15 + 21) = {2.261971616354095, -2.359565698416922, 0};
Point(p15 + 22) = {2.293319043576036, -2.490137129817401, 0};
Point(p15 + 23) = {2.344706403971473, -2.614197192218619, 0};
Point(p15 + 24) = {2.414868370182599, -2.728691115152518, 0};
Point(p15 + 25) = {2.50207732174708, -2.830799678252919, 0};
Point(p15 + 26) = {2.604185884847482, -2.9180086298174, 0};
Point(p15 + 27) = {2.718679807781381, -2.988170596028526, 0};
Point(p15 + 28) = {2.842739870182599, -3.039557956423963, 0};
Point(p15 + 29) = {2.973311301583077, -3.070905383645905, 0};
Point(p15 + 30) = {3.107179, -3.081441, 0};
Point(p15 + 31) = {3.241046698416922, -3.070905383645905, 0};
Point(p15 + 32) = {3.3716181298174, -3.039557956423963, 0};
Point(p15 + 33) = {3.495678192218619, -2.988170596028526, 0};
Point(p15 + 34) = {3.610172115152518, -2.918008629817401, 0};
Point(p15 + 35) = {3.712280678252919, -2.83079967825292, 0};
Point(p15 + 36) = {3.7994896298174, -2.728691115152518, 0};
Point(p15 + 37) = {3.869651596028526, -2.614197192218619, 0};
Point(p15 + 38) = {3.921038956423963, -2.490137129817401, 0};
Point(p15 + 39) = {3.952386383645905, -2.359565698416922, 0};
Spline(15) = {11, p15 + 1, p15 + 2, p15 + 3, p15 + 4, p15 + 5, p15 + 6, p15 + 7, p15 + 8, p15 + 9, p15 + 10, p15 + 11, p15 + 12, p15 + 13, p15 + 14, p15 + 15, p15 + 16, p15 + 17, p15 + 18, p15 + 19, p15 + 20, p15 + 21, p15 + 22, p15 + 23, p15 + 24, p15 + 25, p15 + 26, p15 + 27, p15 + 28, p15 + 29, p15 + 30, p15 + 31, p15 + 32, p15 + 33, p15 + 34, p15 + 35, p15 + 36, p15 + 37, p15 + 38, p15 + 39, 11};
p16 = newp;
Point(p16 + 1) = {24.55268644571483, 3.072429969648421, 0};
Point(p16 + 2) = {24.50884262111031, 3.255052642193498, 0};
Point(p16 + 3) = {24.43697010665753, 3.428568241347269, 0};
Point(p16 + 4) = {24.3388386421935, 3.588704237193311, 0};
Point(p16 + 5) = {24.21686455005299, 3.731517550052993, 0};
Point(p16 + 6) = {24.07405123719331, 3.853491642193498, 0};
Point(p16 + 7) = {23.91391524134727, 3.951623106657525, 0};
Point(p16 + 8) = {23.7403996421935, 4.02349562111031, 0};
Point(p16 + 9) = {23.55777696964842, 4.067339445714827, 0};
Point(p16 + 10) = {23.370544, 4.082075, 0};
Point(p16 + 11) = {23.18331103035158, 4.067339445714827, 0};
Point(p16 + 12) = {23.0006883578065, 4.02349562111031, 0};
Point(p16 + 13) = {22.82717275865273, 3.951623106657525, 0};
Point(p16 + 14) = {22.66703676280669, 3.853491642193498, 0};
Point(p16 + 15) = {22.52422344994701, 3.731517550052993, 0};
Point(p16 + 16) = {22.4022493578065, 3.588704237193311, 0};
Point(p16 + 17) = {22.30411789334247, 3.428568241347269, 0};
Point(p16 + 18) = {22.23224537888969, 3.255052642193498, 0};
Point(p16 + 19) = {22.18840155428517, 3.072429969648421, 0};
Point(p16 + 20) = {22.173666, 2.885197, 0};
Point(p16 + 21) = {22.18840155428517, 2.697964030351578, 0};
Point(p16 + 22) = {22.23224537888969, 2.515341357806501, 0};
Point(p16 + 23) = {22.30411789334247, 2.341825758652731, 0};
Point(p16 + 24) = {22.4022493578065, 2.181689762806689, 0};
Point(p16 + 25) = {22.52422344994701, 2.038876449947007, 0};
Point(p16 + 26) = {22.66703676280669, 1.916902357806502, 0};
Point(p16 + 27) = {22.82717275865273, 1.818770893342474, 0};
Point(p16 + 28) = {23.0006883578065, 1.746898378889689, 0};
Point(p16 + 29) = {23.18331103035158, 1.703054554285172, 0};
Point(p16 + 30) = {23.370544, 1.688319, 0};
Point(p16 + 31) = {23.55777696964842, 1.703054554285172, 0};
Point(p16 + 32) = {23.7403996421935, 1.746898378889689, 0};
Point(p16 + 33) = {23.91391524134727, 1.818770893342474, 0};
Point(p16 + 34) = {24.07405123719331, 1.916902357806501, 0};
Point(p16 + 35) = {24.21686455005299, 2.038876449947007, 0};
Point(p16 + 36) = {24.3388386421935, 2.181689762806689, 0};
Point(p16 + 37) = {24.43697010665753, 2.34182575865273, 0};
Point(p16 + 38) = {24.50884262111031, 2.515341357806501, 0};
Point(p16 + 39) = {24.55268644571483, 2.697964030351578, 0};
Spline(16) = {12, p16 + 1, p16 + 2, p16 + 3, p16 + 4, p16 + 5, p16 + 6, p16 + 7, p16 + 8, p16 + 9, p16 + 10, p16 + 11, p16 + 12, p16 + 13, p16 + 14, p16 + 15, p16 + 16, p16 + 17, p16 + 18, p16 + 19, p16 + 20, p16 + 21, p16 + 22, p16 + 23, p16 + 24, p16 + 25, p16 + 26, p16 + 27, p16 + 28, p16 + 29, p16 + 30, p16 + 31, p16 + 32, p16 + 33, p16 + 34, p16 + 35, p16 + 36, p16 + 37, p16 + 38, p16 + 39, 12};
Line(17) = {11, 8};
Line(18) = {12, 9};
Curve Loop(1) = {-1, 4, 3, -2};
Plane Surface(1) = {1};
Curve Loop(2) = {-5, 1, 7, -6};
Plane Surface(2) = {2};
Curve Loop(3) = {-2, 7, 9, -8, -10, -11};
Plane Surface(3) = {3};
Curve Loop(4) = {-12, 3, 8, -13};
Plane Surface(4) = {4};
Curve Loop(5) = {-4, 5, 14, -12, -15, -16};
Plane Surface(5) = {5};
Curve Loop(6) = {-6, 14, 13, -9};
Plane Surface(6) = {6};
Curve Loop(7) = {-10, -17, 15, 17};
Surface(7) = {7};
Curve Loop(8) = {-11, -18, 16, 18};
Surface(8) = {8};
Surface Loop(1) = {1, 2, 3, 4, 5, 6, 7, 8};
Volume(1) = {1};
Physical Surface("INFLOW") = {1};
Physical Surface("OUTFLOW") = {6};
Physical Surface("OBSTACLE") = {7, 8};
Physical Surface("WALL_Y") = {2, 4};
Physical Surface("WALL_Z") = {3, 5};
Physical Volume("FLUID") = {1};
