cl__1 = 1.265091;
cl__2 = 3.141998;
cl__3 = 0.116072;
cl__4 = 0.104572;
Point(1) = {0.072589, -3.805567, 1, cl__1};
Point(2) = {0.072589, -3.805567, 0, cl__1};
Point(3) = {0.072589, 5.661663000000001, 1, cl__2};
Point(4) = {0.072589, 5.661663000000001, 0, cl__2};
Point(5) = {31.061355, -3.805567, 0, cl__1};
Point(6) = {31.061355, -3.805567, 1, cl__1};
Point(7) = {31.061355, 5.661663000000001, 1, cl__2};
Point(8) = {14.755537, -0.9929870000000003, 1, cl__3};
Point(9) = {13.190483, 2.816355, 1, cl__4};
Point(10) = {31.061355, 5.661663000000001, 0, cl__2};
Point(11) = {14.755537, -0.9929870000000003, 0, cl__3};
Point(12) = {13.190483, 2.816355, 0, cl__4};
Line(1) = {2, 1};
Line(2) = {1, 3};
Line(3) = {4, 3};
Line(4) = {2, 4};
Line(5) = {2, 5};
Line(6) = {5, 6};
Line(7) = {1, 6};
Line(8) = {3, 7};
Line(9) = {6, 7};
p10 = newp;
Point(p10 + 1) = {14.74124657376061, -0.811409918435108, 1};
Point(p10 + 2) = {14.69872717276366, -0.6343038672381279, 1};
Point(p10 + 3) = {14.62902576577549, -0.4660297851708141, 1};
Point(p10 + 4) = {14.53385863276187, -0.3107311386033237, 1};
Point(p10 + 5) = {14.41556910437919, -0.1722318956208071, 1};
Point(p10 + 6) = {14.27706986139668, -0.05394236723812784, 1};
Point(p10 + 7) = {14.12177121482919, 0.04122476577549483, 1};
Point(p10 + 8) = {13.95349713276187, 0.1109261727636596, 1};
Point(p10 + 9) = {13.77639108156489, 0.1534455737606101, 1};
Point(p10 + 10) = {13.594814, 0.167736, 1};
Point(p10 + 11) = {13.41323691843511, 0.1534455737606101, 1};
Point(p10 + 12) = {13.23613086723813, 0.1109261727636596, 1};
Point(p10 + 13) = {13.06785678517081, 0.04122476577549505, 1};
Point(p10 + 14) = {12.91255813860332, -0.05394236723812784, 1};
Point(p10 + 15) = {12.77405889562081, -0.172231895620807, 1};
Point(p10 + 16) = {12.65576936723813, -0.3107311386033236, 1};
Point(p10 + 17) = {12.5606022342245, -0.4660297851708139, 1};
Point(p10 + 18) = {12.49090082723634, -0.6343038672381278, 1};
Point(p10 + 19) = {12.44838142623939, -0.8114099184351079, 1};
Point(p10 + 20) = {12.434091, -0.9929869999999998, 1};
Point(p10 + 21) = {12.44838142623939, -1.174564081564892, 1};
Point(p10 + 22) = {12.49090082723634, -1.351670132761872, 1};
Point(p10 + 23) = {12.5606022342245, -1.519944214829185, 1};
Point(p10 + 24) = {12.65576936723813, -1.675242861396676, 1};
Point(p10 + 25) = {12.77405889562081, -1.813742104379193, 1};
Point(p10 + 26) = {12.91255813860332, -1.932031632761872, 1};
Point(p10 + 27) = {13.06785678517081, -2.027198765775495, 1};
Point(p10 + 28) = {13.23613086723813, -2.09690017276366, 1};
Point(p10 + 29) = {13.41323691843511, -2.13941957376061, 1};
Point(p10 + 30) = {13.594814, -2.15371, 1};
Point(p10 + 31) = {13.77639108156489, -2.13941957376061, 1};
Point(p10 + 32) = {13.95349713276187, -2.09690017276366, 1};
Point(p10 + 33) = {14.12177121482918, -2.027198765775495, 1};
Point(p10 + 34) = {14.27706986139668, -1.932031632761872, 1};
Point(p10 + 35) = {14.41556910437919, -1.813742104379193, 1};
Point(p10 + 36) = {14.53385863276187, -1.675242861396677, 1};
Point(p10 + 37) = {14.62902576577549, -1.519944214829186, 1};
Point(p10 + 38) = {14.69872717276366, -1.351670132761872, 1};
Point(p10 + 39) = {14.74124657376061, -1.174564081564892, 1};
Spline(10) = {8, p10 + 1, p10 + 2, p10 + 3, p10 + 4, p10 + 5, p10 + 6, p10 + 7, p10 + 8, p10 + 9, p10 + 10, p10 + 11, p10 + 12, p10 + 13, p10 + 14, p10 + 15, p10 + 16, p10 + 17, p10 + 18, p10 + 19, p10 + 20, p10 + 21, p10 + 22, p10 + 23, p10 + 24, p10 + 25, p10 + 26, p10 + 27, p10 + 28, p10 + 29, p10 + 30, p10 + 31, p10 + 32, p10 + 33, p10 + 34, p10 + 35, p10 + 36, p10 + 37, p10 + 38, p10 + 39, 8};
p11 = newp;
Point(p11 + 1) = {13.17760840228051, 2.97994227451973, 1};
Point(p11 + 2) = {13.13930162444623, 3.139501487425748, 1};
Point(p11 + 3) = {13.07650590650036, 3.291103761349638, 1};
Point(p11 + 4) = {12.99076748742575, 3.431016145168294, 1};
Point(p11 + 5) = {12.88419753164952, 3.555793531649521, 1};
Point(p11 + 6) = {12.7594201451683, 3.662363487425748, 1};
Point(p11 + 7) = {12.61950776134964, 3.748101906500357, 1};
Point(p11 + 8) = {12.46790548742575, 3.810897624446233, 1};
Point(p11 + 9) = {12.30834627451973, 3.84920440228051, 1};
Point(p11 + 10) = {12.144759, 3.862079, 1};
Point(p11 + 11) = {11.98117172548027, 3.84920440228051, 1};
Point(p11 + 12) = {11.82161251257425, 3.810897624446234, 1};
Point(p11 + 13) = {11.67001023865036, 3.748101906500357, 1};
Point(p11 + 14) = {11.53009785483171, 3.662363487425748, 1};
Point(p11 + 15) = {11.40532046835048, 3.555793531649521, 1};
Point(p11 + 16) = {11.29875051257425, 3.431016145168295, 1};
Point(p11 + 17) = {11.21301209349964, 3.291103761349638, 1};
Point(p11 + 18) = {11.15021637555377, 3.139501487425748, 1};
Point(p11 + 19) = {11.11190959771949, 2.979942274519731, 1};
Point(p11 + 20) = {11.099035, 2.816355, 1};
Point(p11 + 21) = {11.11190959771949, 2.65276772548027, 1};
Point(p11 + 22) = {11.15021637555377, 2.493208512574252, 1};
Point(p11 + 23) = {11.21301209349964, 2.341606238650363, 1};
Point(p11 + 24) = {11.29875051257425, 2.201693854831706, 1};
Point(p11 + 25) = {11.40532046835048, 2.076916468350479, 1};
Point(p11 + 26) = {11.53009785483171, 1.970346512574253, 1};
Point(p11 + 27) = {11.67001023865036, 1.884608093499643, 1};
Point(p11 + 28) = {11.82161251257425, 1.821812375553767, 1};
Point(p11 + 29) = {11.98117172548027, 1.78350559771949, 1};
Point(p11 + 30) = {12.144759, 1.770631, 1};
Point(p11 + 31) = {12.30834627451973, 1.78350559771949, 1};
Point(p11 + 32) = {12.46790548742575, 1.821812375553767, 1};
Point(p11 + 33) = {12.61950776134964, 1.884608093499643, 1};
Point(p11 + 34) = {12.75942014516829, 1.970346512574253, 1};
Point(p11 + 35) = {12.88419753164952, 2.076916468350479, 1};
Point(p11 + 36) = {12.99076748742575, 2.201693854831706, 1};
Point(p11 + 37) = {13.07650590650036, 2.341606238650362, 1};
Point(p11 + 38) = {13.13930162444623, 2.493208512574252, 1};
Point(p11 + 39) = {13.17760840228051, 2.65276772548027, 1};
Spline(11) = {9, p11 + 1, p11 + 2, p11 + 3, p11 + 4, p11 + 5, p11 + 6, p11 + 7, p11 + 8, p11 + 9, p11 + 10, p11 + 11, p11 + 12, p11 + 13, p11 + 14, p11 + 15, p11 + 16, p11 + 17, p11 + 18, p11 + 19, p11 + 20, p11 + 21, p11 + 22, p11 + 23, p11 + 24, p11 + 25, p11 + 26, p11 + 27, p11 + 28, p11 + 29, p11 + 30, p11 + 31, p11 + 32, p11 + 33, p11 + 34, p11 + 35, p11 + 36, p11 + 37, p11 + 38, p11 + 39, 9};
Line(12) = {4, 10};
Line(13) = {10, 7};
Line(14) = {5, 10};
p15 = newp;
Point(p15 + 1) = {14.74124657376061, -0.811409918435108, 0};
Point(p15 + 2) = {14.69872717276366, -0.6343038672381279, 0};
Point(p15 + 3) = {14.62902576577549, -0.4660297851708141, 0};
Point(p15 + 4) = {14.53385863276187, -0.3107311386033237, 0};
Point(p15 + 5) = {14.41556910437919, -0.1722318956208071, 0};
Point(p15 + 6) = {14.27706986139668, -0.05394236723812784, 0};
Point(p15 + 7) = {14.12177121482919, 0.04122476577549483, 0};
Point(p15 + 8) = {13.95349713276187, 0.1109261727636596, 0};
Point(p15 + 9) = {13.77639108156489, 0.1534455737606101, 0};
Point(p15 + 10) = {13.594814, 0.167736, 0};
Point(p15 + 11) = {13.41323691843511, 0.1534455737606101, 0};
Point(p15 + 12) = {13.23613086723813, 0.1109261727636596, 0};
Point(p15 + 13) = {13.06785678517081, 0.04122476577549505, 0};
Point(p15 + 14) = {12.91255813860332, -0.05394236723812784, 0};
Point(p15 + 15) = {12.77405889562081, -0.172231895620807, 0};
Point(p15 + 16) = {12.65576936723813, -0.3107311386033236, 0};
Point(p15 + 17) = {12.5606022342245, -0.4660297851708139, 0};
Point(p15 + 18) = {12.49090082723634, -0.6343038672381278, 0};
Point(p15 + 19) = {12.44838142623939, -0.8114099184351079, 0};
Point(p15 + 20) = {12.434091, -0.9929869999999998, 0};
Point(p15 + 21) = {12.44838142623939, -1.174564081564892, 0};
Point(p15 + 22) = {12.49090082723634, -1.351670132761872, 0};
Point(p15 + 23) = {12.5606022342245, -1.519944214829185, 0};
Point(p15 + 24) = {12.65576936723813, -1.675242861396676, 0};
Point(p15 + 25) = {12.77405889562081, -1.813742104379193, 0};
Point(p15 + 26) = {12.91255813860332, -1.932031632761872, 0};
Point(p15 + 27) = {13.06785678517081, -2.027198765775495, 0};
Point(p15 + 28) = {13.23613086723813, -2.09690017276366, 0};
Point(p15 + 29) = {13.41323691843511, -2.13941957376061, 0};
Point(p15 + 30) = {13.594814, -2.15371, 0};
Point(p15 + 31) = {13.77639108156489, -2.13941957376061, 0};
Point(p15 + 32) = {13.95349713276187, -2.09690017276366, 0};
Point(p15 + 33) = {14.12177121482918, -2.027198765775495, 0};
Point(p15 + 34) = {14.27706986139668, -1.932031632761872, 0};
Point(p15 + 35) = {14.41556910437919, -1.813742104379193, 0};
Point(p15 + 36) = {14.53385863276187, -1.675242861396677, 0};
Point(p15 + 37) = {14.62902576577549, -1.519944214829186, 0};
Point(p15 + 38) = {14.69872717276366, -1.351670132761872, 0};
Point(p15 + 39) = {14.74124657376061, -1.174564081564892, 0};
Spline(15) = {11, p15 + 1, p15 + 2, p15 + 3, p15 + 4, p15 + 5, p15 + 6, p15 + 7, p15 + 8, p15 + 9, p15 + 10, p15 + 11, p15 + 12, p15 + 13, p15 + 14, p15 + 15, p15 + 16, p15 + 17, p15 + 18, p15 + 19, p15 + 20, p15 + 21, p15 + 22, p15 + 23, p15 + 24, p15 + 25, p15 + 26, p15 + 27, p15 + 28, p15 + 29, p15 + 30, p15 + 31, p15 + 32, p15 + 33, p15 + 34, p15 + 35, p15 + 36, p15 + 37, p15 + 38, p15 + 39, 11};
p16 = newp;
Point(p16 + 1) = {13.17760840228051, 2.97994227451973, 0};
Point(p16 + 2) = {13.13930162444623, 3.139501487425748, 0};
Point(p16 + 3) = {13.07650590650036, 3.291103761349638, 0};
Point(p16 + 4) = {12.99076748742575, 3.431016145168294, 0};
Point(p16 + 5) = {12.88419753164952, 3.555793531649521, 0};
Point(p16 + 6) = {12.7594201451683, 3.662363487425748, 0};
Point(p16 + 7) = {12.61950776134964, 3.748101906500357, 0};
Point(p16 + 8) = {12.46790548742575, 3.810897624446233, 0};
Point(p16 + 9) = {12.30834627451973, 3.84920440228051, 0};
Point(p16 + 10) = {12.144759, 3.862079, 0};
Point(p16 + 11) = {11.98117172548027, 3.84920440228051, 0};
Point(p16 + 12) = {11.82161251257425, 3.810897624446234, 0};
Point(p16 + 13) = {11.67001023865036, 3.748101906500357, 0};
Point(p16 + 14) = {11.53009785483171, 3.662363487425748, 0};
Point(p16 + 15) = {11.40532046835048, 3.555793531649521, 0};
Point(p16 + 16) = {11.29875051257425, 3.431016145168295, 0};
Point(p16 + 17) = {11.21301209349964, 3.291103761349638, 0};
Point(p16 + 18) = {11.15021637555377, 3.139501487425748, 0};
Point(p16 + 19) = {11.11190959771949, 2.979942274519731, 0};
Point(p16 + 20) = {11.099035, 2.816355, 0};
Point(p16 + 21) = {11.11190959771949, 2.65276772548027, 0};
Point(p16 + 22) = {11.15021637555377, 2.493208512574252, 0};
Point(p16 + 23) = {11.21301209349964, 2.341606238650363, 0};
Point(p16 + 24) = {11.29875051257425, 2.201693854831706, 0};
Point(p16 + 25) = {11.40532046835048, 2.076916468350479, 0};
Point(p16 + 26) = {11.53009785483171, 1.970346512574253, 0};
Point(p16 + 27) = {11.67001023865036, 1.884608093499643, 0};
Point(p16 + 28) = {11.82161251257425, 1.821812375553767, 0};
Point(p16 + 29) = {11.98117172548027, 1.78350559771949, 0};
Point(p16 + 30) = {12.144759, 1.770631, 0};
Point(p16 + 31) = {12.30834627451973, 1.78350559771949, 0};
Point(p16 + 32) = {12.46790548742575, 1.821812375553767, 0};
Point(p16 + 33) = {12.61950776134964, 1.884608093499643, 0};
Point(p16 + 34) = {12.75942014516829, 1.970346512574253, 0};
Point(p16 + 35) = {12.88419753164952, 2.076916468350479, 0};
Point(p16 + 36) = {12.99076748742575, 2.201693854831706, 0};
Point(p16 + 37) = {13.07650590650036, 2.341606238650362, 0};
Point(p16 + 38) = {13.13930162444623, 2.493208512574252, 0};
Point(p16 + 39) = {13.17760840228051, 2.65276772548027, 0};
Spline(16) = {12, p16 + 1, p16 + 2, p16 + 3, p16 + 4, p16 + 5, p16 + 6, p16 + 7, p16 + 8, p16 + 9, p16 + 10, p16 + 11, p16 + 12, p16 + 13, p16 + 14, p16 + 15, p16 + 16, p16 + 17, p16 + 18, p16 + 19, p16 + 20, p16 + 21, p16 + 22, p16 + 23, p16 + 24, p16 + 25, p16 + 26, p16 + 27, p16 + 28, p16 + 29, p16 + 30, p16 + 31, p16 + 32, p16 + 33, p16 + 34, p16 + 35, p16 + 36, p16 + 37, p16 + 38, p16 + 39, 12};
Line(17) = {11, 8};
Line(18) = {12, 9};
Curve Loop(1) = {-1, 4, 3, -2};
Plane Surface(1) = {1};
Curve Loop(2) = {-5, 1, 7, -6};
Plane Surface(2) = {2};
Curve Loop(3) = {-2, 7, 9, -8, -10, -11};
Plane Surface(3) = {3};
Curve Loop(4) = {-12, 3, 8, -13};
Plane Surface(4) = {4};
Curve Loop(5) = {-4, 5, 14, -12, -15, -16};
Plane Surface(5) = {5};
Curve Loop(6) = {-6, 14, 13, -9};
Plane Surface(6) = {6};
Curve Loop(7) = {-10, -17, 15, 17};
Surface(7) = {7};
Curve Loop(8) = {-11, -18, 16, 18};
Surface(8) = {8};
Surface Loop(1) = {1, 2, 3, 4, 5, 6, 7, 8};
Volume(1) = {1};
Physical Surface("INFLOW") = {1};
Physical Surface("OUTFLOW") = {6};
Physical Surface("OBSTACLE") = {7, 8};
Physical Surface("WALL_Y") = {2, 4};
Physical Surface("WALL_Z") = {3, 5};
Physical Volume("FLUID") = {1};
