cl__1 = 0.861991;
cl__2 = 0.503652;
cl__3 = 3.689298;
cl__4 = 0.056713;
Point(1) = {0.095086, -3.791112, 1, cl__1};
Point(2) = {0.095086, -3.791112, 0, cl__1};
Point(3) = {0.095086, 4.644641, 1, cl__2};
Point(4) = {0.095086, 4.644641, 0, cl__2};
Point(5) = {36.651079, -3.791112, 0, cl__3};
Point(6) = {36.651079, -3.791112, 1, cl__3};
Point(7) = {36.651079, 4.644641, 1, cl__3};
Point(8) = {6.161514, 3.568197, 1, cl__4};
Point(9) = {36.651079, 4.644641, 0, cl__3};
Point(10) = {6.161514, 3.568197, 0, cl__4};
Line(1) = {2, 1};
Line(2) = {1, 3};
Line(3) = {4, 3};
Line(4) = {2, 4};
Line(5) = {2, 5};
Line(6) = {5, 6};
Line(7) = {1, 6};
Line(8) = {3, 7};
Line(9) = {6, 7};
p10 = newp;
Point(p10 + 1) = {6.154531651666742, 3.656916147461661, 1};
Point(p10 + 2) = {6.13375653525602, 3.743450735070847, 1};
Point(p10 + 3) = {6.099700203082522, 3.825669994088789, 1};
Point(p10 + 4) = {6.053201235070848, 3.901549413488387, 1};
Point(p10 + 5) = {5.995404590134671, 3.96922059013467, 1};
Point(p10 + 6) = {5.927733413488387, 4.027017235070847, 1};
Point(p10 + 7) = {5.851853994088788, 4.073516203082521, 1};
Point(p10 + 8) = {5.769634735070848, 4.107572535256019, 1};
Point(p10 + 9) = {5.683100147461661, 4.128347651666743, 1};
Point(p10 + 10) = {5.594381, 4.13533, 1};
Point(p10 + 11) = {5.505661852538339, 4.128347651666743, 1};
Point(p10 + 12) = {5.419127264929153, 4.107572535256019, 1};
Point(p10 + 13) = {5.336908005911212, 4.073516203082522, 1};
Point(p10 + 14) = {5.261028586511613, 4.027017235070847, 1};
Point(p10 + 15) = {5.19335740986533, 3.96922059013467, 1};
Point(p10 + 16) = {5.135560764929153, 3.901549413488387, 1};
Point(p10 + 17) = {5.089061796917479, 3.825669994088789, 1};
Point(p10 + 18) = {5.055005464743981, 3.743450735070847, 1};
Point(p10 + 19) = {5.034230348333258, 3.656916147461661, 1};
Point(p10 + 20) = {5.027248, 3.568197, 1};
Point(p10 + 21) = {5.034230348333258, 3.479477852538339, 1};
Point(p10 + 22) = {5.055005464743981, 3.392943264929153, 1};
Point(p10 + 23) = {5.089061796917479, 3.310724005911212, 1};
Point(p10 + 24) = {5.135560764929153, 3.234844586511613, 1};
Point(p10 + 25) = {5.19335740986533, 3.16717340986533, 1};
Point(p10 + 26) = {5.261028586511613, 3.109376764929153, 1};
Point(p10 + 27) = {5.336908005911212, 3.062877796917479, 1};
Point(p10 + 28) = {5.419127264929153, 3.028821464743981, 1};
Point(p10 + 29) = {5.505661852538339, 3.008046348333258, 1};
Point(p10 + 30) = {5.594381, 3.001064, 1};
Point(p10 + 31) = {5.683100147461661, 3.008046348333258, 1};
Point(p10 + 32) = {5.769634735070847, 3.028821464743981, 1};
Point(p10 + 33) = {5.851853994088788, 3.062877796917479, 1};
Point(p10 + 34) = {5.927733413488387, 3.109376764929153, 1};
Point(p10 + 35) = {5.995404590134671, 3.16717340986533, 1};
Point(p10 + 36) = {6.053201235070848, 3.234844586511613, 1};
Point(p10 + 37) = {6.099700203082522, 3.310724005911212, 1};
Point(p10 + 38) = {6.13375653525602, 3.392943264929153, 1};
Point(p10 + 39) = {6.154531651666742, 3.479477852538339, 1};
Spline(10) = {8, p10 + 1, p10 + 2, p10 + 3, p10 + 4, p10 + 5, p10 + 6, p10 + 7, p10 + 8, p10 + 9, p10 + 10, p10 + 11, p10 + 12, p10 + 13, p10 + 14, p10 + 15, p10 + 16, p10 + 17, p10 + 18, p10 + 19, p10 + 20, p10 + 21, p10 + 22, p10 + 23, p10 + 24, p10 + 25, p10 + 26, p10 + 27, p10 + 28, p10 + 29, p10 + 30, p10 + 31, p10 + 32, p10 + 33, p10 + 34, p10 + 35, p10 + 36, p10 + 37, p10 + 38, p10 + 39, 8};
Line(11) = {4, 9};
Line(12) = {9, 7};
Line(13) = {5, 9};
p14 = newp;
Point(p14 + 1) = {6.154531651666742, 3.656916147461661, 0};
Point(p14 + 2) = {6.13375653525602, 3.743450735070847, 0};
Point(p14 + 3) = {6.099700203082522, 3.825669994088789, 0};
Point(p14 + 4) = {6.053201235070848, 3.901549413488387, 0};
Point(p14 + 5) = {5.995404590134671, 3.96922059013467, 0};
Point(p14 + 6) = {5.927733413488387, 4.027017235070847, 0};
Point(p14 + 7) = {5.851853994088788, 4.073516203082521, 0};
Point(p14 + 8) = {5.769634735070848, 4.107572535256019, 0};
Point(p14 + 9) = {5.683100147461661, 4.128347651666743, 0};
Point(p14 + 10) = {5.594381, 4.13533, 0};
Point(p14 + 11) = {5.505661852538339, 4.128347651666743, 0};
Point(p14 + 12) = {5.419127264929153, 4.107572535256019, 0};
Point(p14 + 13) = {5.336908005911212, 4.073516203082522, 0};
Point(p14 + 14) = {5.261028586511613, 4.027017235070847, 0};
Point(p14 + 15) = {5.19335740986533, 3.96922059013467, 0};
Point(p14 + 16) = {5.135560764929153, 3.901549413488387, 0};
Point(p14 + 17) = {5.089061796917479, 3.825669994088789, 0};
Point(p14 + 18) = {5.055005464743981, 3.743450735070847, 0};
Point(p14 + 19) = {5.034230348333258, 3.656916147461661, 0};
Point(p14 + 20) = {5.027248, 3.568197, 0};
Point(p14 + 21) = {5.034230348333258, 3.479477852538339, 0};
Point(p14 + 22) = {5.055005464743981, 3.392943264929153, 0};
Point(p14 + 23) = {5.089061796917479, 3.310724005911212, 0};
Point(p14 + 24) = {5.135560764929153, 3.234844586511613, 0};
Point(p14 + 25) = {5.19335740986533, 3.16717340986533, 0};
Point(p14 + 26) = {5.261028586511613, 3.109376764929153, 0};
Point(p14 + 27) = {5.336908005911212, 3.062877796917479, 0};
Point(p14 + 28) = {5.419127264929153, 3.028821464743981, 0};
Point(p14 + 29) = {5.505661852538339, 3.008046348333258, 0};
Point(p14 + 30) = {5.594381, 3.001064, 0};
Point(p14 + 31) = {5.683100147461661, 3.008046348333258, 0};
Point(p14 + 32) = {5.769634735070847, 3.028821464743981, 0};
Point(p14 + 33) = {5.851853994088788, 3.062877796917479, 0};
Point(p14 + 34) = {5.927733413488387, 3.109376764929153, 0};
Point(p14 + 35) = {5.995404590134671, 3.16717340986533, 0};
Point(p14 + 36) = {6.053201235070848, 3.234844586511613, 0};
Point(p14 + 37) = {6.099700203082522, 3.310724005911212, 0};
Point(p14 + 38) = {6.13375653525602, 3.392943264929153, 0};
Point(p14 + 39) = {6.154531651666742, 3.479477852538339, 0};
Spline(14) = {10, p14 + 1, p14 + 2, p14 + 3, p14 + 4, p14 + 5, p14 + 6, p14 + 7, p14 + 8, p14 + 9, p14 + 10, p14 + 11, p14 + 12, p14 + 13, p14 + 14, p14 + 15, p14 + 16, p14 + 17, p14 + 18, p14 + 19, p14 + 20, p14 + 21, p14 + 22, p14 + 23, p14 + 24, p14 + 25, p14 + 26, p14 + 27, p14 + 28, p14 + 29, p14 + 30, p14 + 31, p14 + 32, p14 + 33, p14 + 34, p14 + 35, p14 + 36, p14 + 37, p14 + 38, p14 + 39, 10};
Line(15) = {10, 8};
Curve Loop(1) = {-1, 4, 3, -2};
Plane Surface(1) = {1};
Curve Loop(2) = {-5, 1, 7, -6};
Plane Surface(2) = {2};
Curve Loop(3) = {-2, 7, 9, -8, -10};
Plane Surface(3) = {3};
Curve Loop(4) = {-11, 3, 8, -12};
Plane Surface(4) = {4};
Curve Loop(5) = {-4, 5, 13, -11, -14};
Plane Surface(5) = {5};
Curve Loop(6) = {-6, 13, 12, -9};
Plane Surface(6) = {6};
Curve Loop(7) = {-10, -15, 14, 15};
Surface(7) = {7};
Surface Loop(1) = {1, 2, 3, 4, 5, 6, 7};
Volume(1) = {1};
Physical Surface("INFLOW") = {1};
Physical Surface("OUTFLOW") = {6};
Physical Surface("OBSTACLE") = {7};
Physical Surface("WALL_Y") = {2, 4};
Physical Surface("WALL_Z") = {3, 5};
Physical Volume("FLUID") = {1};
