cl__1 = 0.914934;
cl__2 = 1.137487;
cl__3 = 3.910459;
cl__4 = 0.056779;
cl__5 = 0.14691;
Point(1) = {0.708966, -3.669185, 1, cl__1};
Point(2) = {0.708966, -3.669185, 0, cl__1};
Point(3) = {0.708966, 4.947389999999999, 1, cl__2};
Point(4) = {0.708966, 4.947389999999999, 0, cl__2};
Point(5) = {38.866535, -3.669185, 0, cl__3};
Point(6) = {38.866535, -3.669185, 1, cl__3};
Point(7) = {38.866535, 4.947389999999999, 1, cl__3};
Point(8) = {10.875684, -2.1581, 1, cl__4};
Point(9) = {16.46914, 2.004081999999999, 1, cl__5};
Point(10) = {38.866535, 4.947389999999999, 0, cl__3};
Point(11) = {10.875684, -2.1581, 0, cl__4};
Point(12) = {16.46914, 2.004081999999999, 0, cl__5};
Line(1) = {2, 1};
Line(2) = {1, 3};
Line(3) = {4, 3};
Line(4) = {2, 4};
Line(5) = {2, 5};
Line(6) = {5, 6};
Line(7) = {1, 6};
Line(8) = {3, 7};
Line(9) = {6, 7};
p10 = newp;
Point(p10 + 1) = {10.86869350134821, -2.069277292922482, 1};
Point(p10 + 2) = {10.84789413466981, -1.982641695678877, 1};
Point(p10 + 3) = {10.81379804940153, -1.900326464200384, 1};
Point(p10 + 4) = {10.76724480432112, -1.824358472674595, 1};
Point(p10 + 5) = {10.70938069482382, -1.756608305176184, 1};
Point(p10 + 6) = {10.6416305273254, -1.698744195678877, 1};
Point(p10 + 7) = {10.56566253579962, -1.652190950598466, 1};
Point(p10 + 8) = {10.48334730432112, -1.618094865330193, 1};
Point(p10 + 9) = {10.39671170707752, -1.597295498651784, 1};
Point(p10 + 10) = {10.307889, -1.590305, 1};
Point(p10 + 11) = {10.21906629292248, -1.597295498651784, 1};
Point(p10 + 12) = {10.13243069567888, -1.618094865330193, 1};
Point(p10 + 13) = {10.05011546420038, -1.652190950598466, 1};
Point(p10 + 14) = {9.974147472674595, -1.698744195678877, 1};
Point(p10 + 15) = {9.906397305176183, -1.756608305176184, 1};
Point(p10 + 16) = {9.848533195678876, -1.824358472674595, 1};
Point(p10 + 17) = {9.801979950598465, -1.900326464200384, 1};
Point(p10 + 18) = {9.767883865330193, -1.982641695678877, 1};
Point(p10 + 19) = {9.747084498651784, -2.069277292922482, 1};
Point(p10 + 20) = {9.740093999999999, -2.1581, 1};
Point(p10 + 21) = {9.747084498651784, -2.246922707077518, 1};
Point(p10 + 22) = {9.767883865330193, -2.333558304321123, 1};
Point(p10 + 23) = {9.801979950598465, -2.415873535799616, 1};
Point(p10 + 24) = {9.848533195678876, -2.491841527325405, 1};
Point(p10 + 25) = {9.906397305176183, -2.559591694823816, 1};
Point(p10 + 26) = {9.974147472674595, -2.617455804321124, 1};
Point(p10 + 27) = {10.05011546420038, -2.664009049401534, 1};
Point(p10 + 28) = {10.13243069567888, -2.698105134669807, 1};
Point(p10 + 29) = {10.21906629292248, -2.718904501348216, 1};
Point(p10 + 30) = {10.307889, -2.725895, 1};
Point(p10 + 31) = {10.39671170707752, -2.718904501348216, 1};
Point(p10 + 32) = {10.48334730432112, -2.698105134669807, 1};
Point(p10 + 33) = {10.56566253579962, -2.664009049401534, 1};
Point(p10 + 34) = {10.6416305273254, -2.617455804321124, 1};
Point(p10 + 35) = {10.70938069482382, -2.559591694823816, 1};
Point(p10 + 36) = {10.76724480432112, -2.491841527325405, 1};
Point(p10 + 37) = {10.81379804940153, -2.415873535799616, 1};
Point(p10 + 38) = {10.84789413466981, -2.333558304321123, 1};
Point(p10 + 39) = {10.86869350134821, -2.246922707077518, 1};
Spline(10) = {8, p10 + 1, p10 + 2, p10 + 3, p10 + 4, p10 + 5, p10 + 6, p10 + 7, p10 + 8, p10 + 9, p10 + 10, p10 + 11, p10 + 12, p10 + 13, p10 + 14, p10 + 15, p10 + 16, p10 + 17, p10 + 18, p10 + 19, p10 + 20, p10 + 21, p10 + 22, p10 + 23, p10 + 24, p10 + 25, p10 + 26, p10 + 27, p10 + 28, p10 + 29, p10 + 30, p10 + 31, p10 + 32, p10 + 33, p10 + 34, p10 + 35, p10 + 36, p10 + 37, p10 + 38, p10 + 39, 8};
p11 = newp;
Point(p11 + 1) = {16.451052916545, 2.233900185459533, 1};
Point(p11 + 2) = {16.39723703020224, 2.458059484470224, 1};
Point(p11 + 3) = {16.30901746669818, 2.671040351148367, 1};
Point(p11 + 4) = {16.18856648447023, 2.867598489713377, 1};
Point(p11 + 5) = {16.03884998645472, 3.042893986454719, 1};
Point(p11 + 6) = {15.86355448971338, 3.192610484470224, 1};
Point(p11 + 7) = {15.66699635114837, 3.313061466698179, 1};
Point(p11 + 8) = {15.45401548447022, 3.401281030202242, 1};
Point(p11 + 9) = {15.22985618545953, 3.455096916544998, 1};
Point(p11 + 10) = {15.000038, 3.473184, 1};
Point(p11 + 11) = {14.77021981454047, 3.455096916544998, 1};
Point(p11 + 12) = {14.54606051552978, 3.401281030202242, 1};
Point(p11 + 13) = {14.33307964885163, 3.313061466698179, 1};
Point(p11 + 14) = {14.13652151028662, 3.192610484470224, 1};
Point(p11 + 15) = {13.96122601354528, 3.042893986454719, 1};
Point(p11 + 16) = {13.81150951552978, 2.867598489713377, 1};
Point(p11 + 17) = {13.69105853330182, 2.671040351148368, 1};
Point(p11 + 18) = {13.60283896979776, 2.458059484470224, 1};
Point(p11 + 19) = {13.549023083455, 2.233900185459533, 1};
Point(p11 + 20) = {13.530936, 2.004082, 1};
Point(p11 + 21) = {13.549023083455, 1.774263814540467, 1};
Point(p11 + 22) = {13.60283896979776, 1.550104515529775, 1};
Point(p11 + 23) = {13.69105853330182, 1.337123648851633, 1};
Point(p11 + 24) = {13.81150951552978, 1.140565510286623, 1};
Point(p11 + 25) = {13.96122601354528, 0.9652700135452807, 1};
Point(p11 + 26) = {14.13652151028662, 0.8155535155297762, 1};
Point(p11 + 27) = {14.33307964885163, 0.6951025333018206, 1};
Point(p11 + 28) = {14.54606051552978, 0.6068829697977574, 1};
Point(p11 + 29) = {14.77021981454047, 0.553067083455002, 1};
Point(p11 + 30) = {15.000038, 0.53498, 1};
Point(p11 + 31) = {15.22985618545953, 0.553067083455002, 1};
Point(p11 + 32) = {15.45401548447022, 0.6068829697977571, 1};
Point(p11 + 33) = {15.66699635114837, 0.6951025333018204, 1};
Point(p11 + 34) = {15.86355448971338, 0.8155535155297757, 1};
Point(p11 + 35) = {16.03884998645472, 0.9652700135452803, 1};
Point(p11 + 36) = {16.18856648447022, 1.140565510286623, 1};
Point(p11 + 37) = {16.30901746669818, 1.337123648851632, 1};
Point(p11 + 38) = {16.39723703020224, 1.550104515529776, 1};
Point(p11 + 39) = {16.451052916545, 1.774263814540466, 1};
Spline(11) = {9, p11 + 1, p11 + 2, p11 + 3, p11 + 4, p11 + 5, p11 + 6, p11 + 7, p11 + 8, p11 + 9, p11 + 10, p11 + 11, p11 + 12, p11 + 13, p11 + 14, p11 + 15, p11 + 16, p11 + 17, p11 + 18, p11 + 19, p11 + 20, p11 + 21, p11 + 22, p11 + 23, p11 + 24, p11 + 25, p11 + 26, p11 + 27, p11 + 28, p11 + 29, p11 + 30, p11 + 31, p11 + 32, p11 + 33, p11 + 34, p11 + 35, p11 + 36, p11 + 37, p11 + 38, p11 + 39, 9};
Line(12) = {4, 10};
Line(13) = {10, 7};
Line(14) = {5, 10};
p15 = newp;
Point(p15 + 1) = {10.86869350134821, -2.069277292922482, 0};
Point(p15 + 2) = {10.84789413466981, -1.982641695678877, 0};
Point(p15 + 3) = {10.81379804940153, -1.900326464200384, 0};
Point(p15 + 4) = {10.76724480432112, -1.824358472674595, 0};
Point(p15 + 5) = {10.70938069482382, -1.756608305176184, 0};
Point(p15 + 6) = {10.6416305273254, -1.698744195678877, 0};
Point(p15 + 7) = {10.56566253579962, -1.652190950598466, 0};
Point(p15 + 8) = {10.48334730432112, -1.618094865330193, 0};
Point(p15 + 9) = {10.39671170707752, -1.597295498651784, 0};
Point(p15 + 10) = {10.307889, -1.590305, 0};
Point(p15 + 11) = {10.21906629292248, -1.597295498651784, 0};
Point(p15 + 12) = {10.13243069567888, -1.618094865330193, 0};
Point(p15 + 13) = {10.05011546420038, -1.652190950598466, 0};
Point(p15 + 14) = {9.974147472674595, -1.698744195678877, 0};
Point(p15 + 15) = {9.906397305176183, -1.756608305176184, 0};
Point(p15 + 16) = {9.848533195678876, -1.824358472674595, 0};
Point(p15 + 17) = {9.801979950598465, -1.900326464200384, 0};
Point(p15 + 18) = {9.767883865330193, -1.982641695678877, 0};
Point(p15 + 19) = {9.747084498651784, -2.069277292922482, 0};
Point(p15 + 20) = {9.740093999999999, -2.1581, 0};
Point(p15 + 21) = {9.747084498651784, -2.246922707077518, 0};
Point(p15 + 22) = {9.767883865330193, -2.333558304321123, 0};
Point(p15 + 23) = {9.801979950598465, -2.415873535799616, 0};
Point(p15 + 24) = {9.848533195678876, -2.491841527325405, 0};
Point(p15 + 25) = {9.906397305176183, -2.559591694823816, 0};
Point(p15 + 26) = {9.974147472674595, -2.617455804321124, 0};
Point(p15 + 27) = {10.05011546420038, -2.664009049401534, 0};
Point(p15 + 28) = {10.13243069567888, -2.698105134669807, 0};
Point(p15 + 29) = {10.21906629292248, -2.718904501348216, 0};
Point(p15 + 30) = {10.307889, -2.725895, 0};
Point(p15 + 31) = {10.39671170707752, -2.718904501348216, 0};
Point(p15 + 32) = {10.48334730432112, -2.698105134669807, 0};
Point(p15 + 33) = {10.56566253579962, -2.664009049401534, 0};
Point(p15 + 34) = {10.6416305273254, -2.617455804321124, 0};
Point(p15 + 35) = {10.70938069482382, -2.559591694823816, 0};
Point(p15 + 36) = {10.76724480432112, -2.491841527325405, 0};
Point(p15 + 37) = {10.81379804940153, -2.415873535799616, 0};
Point(p15 + 38) = {10.84789413466981, -2.333558304321123, 0};
Point(p15 + 39) = {10.86869350134821, -2.246922707077518, 0};
Spline(15) = {11, p15 + 1, p15 + 2, p15 + 3, p15 + 4, p15 + 5, p15 + 6, p15 + 7, p15 + 8, p15 + 9, p15 + 10, p15 + 11, p15 + 12, p15 + 13, p15 + 14, p15 + 15, p15 + 16, p15 + 17, p15 + 18, p15 + 19, p15 + 20, p15 + 21, p15 + 22, p15 + 23, p15 + 24, p15 + 25, p15 + 26, p15 + 27, p15 + 28, p15 + 29, p15 + 30, p15 + 31, p15 + 32, p15 + 33, p15 + 34, p15 + 35, p15 + 36, p15 + 37, p15 + 38, p15 + 39, 11};
p16 = newp;
Point(p16 + 1) = {16.451052916545, 2.233900185459533, 0};
Point(p16 + 2) = {16.39723703020224, 2.458059484470224, 0};
Point(p16 + 3) = {16.30901746669818, 2.671040351148367, 0};
Point(p16 + 4) = {16.18856648447023, 2.867598489713377, 0};
Point(p16 + 5) = {16.03884998645472, 3.042893986454719, 0};
Point(p16 + 6) = {15.86355448971338, 3.192610484470224, 0};
Point(p16 + 7) = {15.66699635114837, 3.313061466698179, 0};
Point(p16 + 8) = {15.45401548447022, 3.401281030202242, 0};
Point(p16 + 9) = {15.22985618545953, 3.455096916544998, 0};
Point(p16 + 10) = {15.000038, 3.473184, 0};
Point(p16 + 11) = {14.77021981454047, 3.455096916544998, 0};
Point(p16 + 12) = {14.54606051552978, 3.401281030202242, 0};
Point(p16 + 13) = {14.33307964885163, 3.313061466698179, 0};
Point(p16 + 14) = {14.13652151028662, 3.192610484470224, 0};
Point(p16 + 15) = {13.96122601354528, 3.042893986454719, 0};
Point(p16 + 16) = {13.81150951552978, 2.867598489713377, 0};
Point(p16 + 17) = {13.69105853330182, 2.671040351148368, 0};
Point(p16 + 18) = {13.60283896979776, 2.458059484470224, 0};
Point(p16 + 19) = {13.549023083455, 2.233900185459533, 0};
Point(p16 + 20) = {13.530936, 2.004082, 0};
Point(p16 + 21) = {13.549023083455, 1.774263814540467, 0};
Point(p16 + 22) = {13.60283896979776, 1.550104515529775, 0};
Point(p16 + 23) = {13.69105853330182, 1.337123648851633, 0};
Point(p16 + 24) = {13.81150951552978, 1.140565510286623, 0};
Point(p16 + 25) = {13.96122601354528, 0.9652700135452807, 0};
Point(p16 + 26) = {14.13652151028662, 0.8155535155297762, 0};
Point(p16 + 27) = {14.33307964885163, 0.6951025333018206, 0};
Point(p16 + 28) = {14.54606051552978, 0.6068829697977574, 0};
Point(p16 + 29) = {14.77021981454047, 0.553067083455002, 0};
Point(p16 + 30) = {15.000038, 0.53498, 0};
Point(p16 + 31) = {15.22985618545953, 0.553067083455002, 0};
Point(p16 + 32) = {15.45401548447022, 0.6068829697977571, 0};
Point(p16 + 33) = {15.66699635114837, 0.6951025333018204, 0};
Point(p16 + 34) = {15.86355448971338, 0.8155535155297757, 0};
Point(p16 + 35) = {16.03884998645472, 0.9652700135452803, 0};
Point(p16 + 36) = {16.18856648447022, 1.140565510286623, 0};
Point(p16 + 37) = {16.30901746669818, 1.337123648851632, 0};
Point(p16 + 38) = {16.39723703020224, 1.550104515529776, 0};
Point(p16 + 39) = {16.451052916545, 1.774263814540466, 0};
Spline(16) = {12, p16 + 1, p16 + 2, p16 + 3, p16 + 4, p16 + 5, p16 + 6, p16 + 7, p16 + 8, p16 + 9, p16 + 10, p16 + 11, p16 + 12, p16 + 13, p16 + 14, p16 + 15, p16 + 16, p16 + 17, p16 + 18, p16 + 19, p16 + 20, p16 + 21, p16 + 22, p16 + 23, p16 + 24, p16 + 25, p16 + 26, p16 + 27, p16 + 28, p16 + 29, p16 + 30, p16 + 31, p16 + 32, p16 + 33, p16 + 34, p16 + 35, p16 + 36, p16 + 37, p16 + 38, p16 + 39, 12};
Line(17) = {11, 8};
Line(18) = {12, 9};
Curve Loop(1) = {-1, 4, 3, -2};
Plane Surface(1) = {1};
Curve Loop(2) = {-5, 1, 7, -6};
Plane Surface(2) = {2};
Curve Loop(3) = {-2, 7, 9, -8, -10, -11};
Plane Surface(3) = {3};
Curve Loop(4) = {-12, 3, 8, -13};
Plane Surface(4) = {4};
Curve Loop(5) = {-4, 5, 14, -12, -15, -16};
Plane Surface(5) = {5};
Curve Loop(6) = {-6, 14, 13, -9};
Plane Surface(6) = {6};
Curve Loop(7) = {-10, -17, 15, 17};
Surface(7) = {7};
Curve Loop(8) = {-11, -18, 16, 18};
Surface(8) = {8};
Surface Loop(1) = {1, 2, 3, 4, 5, 6, 7, 8};
Volume(1) = {1};
Physical Surface("INFLOW") = {1};
Physical Surface("OUTFLOW") = {6};
Physical Surface("OBSTACLE") = {7, 8};
Physical Surface("WALL_Y") = {2, 4};
Physical Surface("WALL_Z") = {3, 5};
Physical Volume("FLUID") = {1};
