cl__1 = 3.802868;
cl__2 = 0.9854270000000001;
cl__3 = 0.814076;
cl__4 = 0.071185;
cl__5 = 0.116414;
Point(1) = {0.327289, -4.663432, 1, cl__1};
Point(2) = {0.327289, -4.663432, 0, cl__1};
Point(3) = {0.327289, 4.668378000000001, 1, cl__2};
Point(4) = {0.327289, 4.668378000000001, 0, cl__2};
Point(5) = {37.741353, -4.663432, 0, cl__3};
Point(6) = {37.741353, -4.663432, 1, cl__3};
Point(7) = {37.741353, 4.668378000000001, 1, cl__2};
Point(8) = {8.933047, -0.6565570000000002, 1, cl__4};
Point(9) = {28.750504, -0.3877440000000003, 1, cl__5};
Point(10) = {37.741353, 4.668378000000001, 0, cl__2};
Point(11) = {8.933047, -0.6565570000000002, 0, cl__4};
Point(12) = {28.750504, -0.3877440000000003, 0, cl__5};
Line(1) = {2, 1};
Line(2) = {1, 3};
Line(3) = {4, 3};
Line(4) = {2, 4};
Line(5) = {2, 5};
Line(6) = {5, 6};
Line(7) = {1, 6};
Line(8) = {3, 7};
Line(9) = {6, 7};
p10 = newp;
Point(p10 + 1) = {8.92428293294099, -0.5451989696266466, 1};
Point(p10 + 2) = {8.898206532181222, -0.4365829435371993, 1};
Point(p10 + 3) = {8.855459885250015, -0.3333834087699039, 1};
Point(p10 + 4) = {8.797095556462802, -0.2381414803703507, 1};
Point(p10 + 5) = {8.724550669294427, -0.153202330705575, 1};
Point(p10 + 6) = {8.63961151962965, -0.08065744353719917, 1};
Point(p10 + 7) = {8.544369591230097, -0.02229311474998619, 1};
Point(p10 + 8) = {8.441170056462802, 0.02045353218122137, 1};
Point(p10 + 9) = {8.332554030373354, 0.0465299329409895, 1};
Point(p10 + 10) = {8.221196000000001, 0.05529400000000007, 1};
Point(p10 + 11) = {8.109837969626648, 0.04652993294098939, 1};
Point(p10 + 12) = {8.0012219435372, 0.02045353218122148, 1};
Point(p10 + 13) = {7.898022408769905, -0.02229311474998608, 1};
Point(p10 + 14) = {7.802780480370352, -0.08065744353719917, 1};
Point(p10 + 15) = {7.717841330705576, -0.1532023307055749, 1};
Point(p10 + 16) = {7.6452964435372, -0.2381414803703505, 1};
Point(p10 + 17) = {7.586932114749987, -0.3333834087699037, 1};
Point(p10 + 18) = {7.54418546781878, -0.4365829435371992, 1};
Point(p10 + 19) = {7.518109067059012, -0.5451989696266465, 1};
Point(p10 + 20) = {7.509345000000001, -0.6565569999999998, 1};
Point(p10 + 21) = {7.518109067059012, -0.7679150303733533, 1};
Point(p10 + 22) = {7.54418546781878, -0.8765310564628008, 1};
Point(p10 + 23) = {7.586932114749986, -0.9797305912300958, 1};
Point(p10 + 24) = {7.6452964435372, -1.074972519629649, 1};
Point(p10 + 25) = {7.717841330705576, -1.159911669294425, 1};
Point(p10 + 26) = {7.802780480370352, -1.232456556462801, 1};
Point(p10 + 27) = {7.898022408769904, -1.290820885250014, 1};
Point(p10 + 28) = {8.0012219435372, -1.333567532181221, 1};
Point(p10 + 29) = {8.109837969626648, -1.359643932940989, 1};
Point(p10 + 30) = {8.221196000000001, -1.368408, 1};
Point(p10 + 31) = {8.332554030373354, -1.35964393294099, 1};
Point(p10 + 32) = {8.441170056462802, -1.333567532181221, 1};
Point(p10 + 33) = {8.544369591230097, -1.290820885250014, 1};
Point(p10 + 34) = {8.63961151962965, -1.232456556462801, 1};
Point(p10 + 35) = {8.724550669294425, -1.159911669294425, 1};
Point(p10 + 36) = {8.797095556462802, -1.074972519629649, 1};
Point(p10 + 37) = {8.855459885250015, -0.9797305912300962, 1};
Point(p10 + 38) = {8.898206532181222, -0.8765310564628008, 1};
Point(p10 + 39) = {8.92428293294099, -0.7679150303733535, 1};
Spline(10) = {8, p10 + 1, p10 + 2, p10 + 3, p10 + 4, p10 + 5, p10 + 6, p10 + 7, p10 + 8, p10 + 9, p10 + 10, p10 + 11, p10 + 12, p10 + 13, p10 + 14, p10 + 15, p10 + 16, p10 + 17, p10 + 18, p10 + 19, p10 + 20, p10 + 21, p10 + 22, p10 + 23, p10 + 24, p10 + 25, p10 + 26, p10 + 27, p10 + 28, p10 + 29, p10 + 30, p10 + 31, p10 + 32, p10 + 33, p10 + 34, p10 + 35, p10 + 36, p10 + 37, p10 + 38, p10 + 39, 8};
p11 = newp;
Point(p11 + 1) = {28.73617145557379, -0.2056317561302054, 1};
Point(p11 + 2) = {28.69352673710591, -0.02800372010037122, 1};
Point(p11 + 3) = {28.62361989909474, 0.140766316328795, 1};
Point(p11 + 4) = {28.52817227989963, 0.2965226747447689, 1};
Point(p11 + 5) = {28.40953411667763, 0.4354301166776322, 1};
Point(p11 + 6) = {28.27062667474477, 0.5540682798996289, 1};
Point(p11 + 7) = {28.11487031632879, 0.6495158990947433, 1};
Point(p11 + 8) = {27.94610027989963, 0.7194227371059053, 1};
Point(p11 + 9) = {27.76847224386979, 0.7620674555737862, 1};
Point(p11 + 10) = {27.58636, 0.7764000000000001, 1};
Point(p11 + 11) = {27.4042477561302, 0.762067455573786, 1};
Point(p11 + 12) = {27.22661972010037, 0.7194227371059053, 1};
Point(p11 + 13) = {27.0578496836712, 0.6495158990947435, 1};
Point(p11 + 14) = {26.90209332525523, 0.5540682798996289, 1};
Point(p11 + 15) = {26.76318588332237, 0.4354301166776323, 1};
Point(p11 + 16) = {26.64454772010037, 0.296522674744769, 1};
Point(p11 + 17) = {26.54910010090526, 0.1407663163287951, 1};
Point(p11 + 18) = {26.47919326289409, -0.02800372010037105, 1};
Point(p11 + 19) = {26.43654854442621, -0.2056317561302053, 1};
Point(p11 + 20) = {26.422216, -0.3877439999999998, 1};
Point(p11 + 21) = {26.43654854442621, -0.5698562438697944, 1};
Point(p11 + 22) = {26.47919326289409, -0.7474842798996291, 1};
Point(p11 + 23) = {26.54910010090526, -0.9162543163287943, 1};
Point(p11 + 24) = {26.64454772010037, -1.072010674744769, 1};
Point(p11 + 25) = {26.76318588332237, -1.210918116677632, 1};
Point(p11 + 26) = {26.90209332525523, -1.329556279899629, 1};
Point(p11 + 27) = {27.0578496836712, -1.425003899094743, 1};
Point(p11 + 28) = {27.22661972010037, -1.494910737105905, 1};
Point(p11 + 29) = {27.4042477561302, -1.537555455573786, 1};
Point(p11 + 30) = {27.58636, -1.551888, 1};
Point(p11 + 31) = {27.76847224386979, -1.537555455573786, 1};
Point(p11 + 32) = {27.94610027989963, -1.494910737105905, 1};
Point(p11 + 33) = {28.11487031632879, -1.425003899094743, 1};
Point(p11 + 34) = {28.27062667474477, -1.329556279899629, 1};
Point(p11 + 35) = {28.40953411667763, -1.210918116677632, 1};
Point(p11 + 36) = {28.52817227989963, -1.072010674744769, 1};
Point(p11 + 37) = {28.62361989909474, -0.9162543163287952, 1};
Point(p11 + 38) = {28.69352673710591, -0.7474842798996291, 1};
Point(p11 + 39) = {28.73617145557379, -0.5698562438697947, 1};
Spline(11) = {9, p11 + 1, p11 + 2, p11 + 3, p11 + 4, p11 + 5, p11 + 6, p11 + 7, p11 + 8, p11 + 9, p11 + 10, p11 + 11, p11 + 12, p11 + 13, p11 + 14, p11 + 15, p11 + 16, p11 + 17, p11 + 18, p11 + 19, p11 + 20, p11 + 21, p11 + 22, p11 + 23, p11 + 24, p11 + 25, p11 + 26, p11 + 27, p11 + 28, p11 + 29, p11 + 30, p11 + 31, p11 + 32, p11 + 33, p11 + 34, p11 + 35, p11 + 36, p11 + 37, p11 + 38, p11 + 39, 9};
Line(12) = {4, 10};
Line(13) = {10, 7};
Line(14) = {5, 10};
p15 = newp;
Point(p15 + 1) = {8.92428293294099, -0.5451989696266466, 0};
Point(p15 + 2) = {8.898206532181222, -0.4365829435371993, 0};
Point(p15 + 3) = {8.855459885250015, -0.3333834087699039, 0};
Point(p15 + 4) = {8.797095556462802, -0.2381414803703507, 0};
Point(p15 + 5) = {8.724550669294427, -0.153202330705575, 0};
Point(p15 + 6) = {8.63961151962965, -0.08065744353719917, 0};
Point(p15 + 7) = {8.544369591230097, -0.02229311474998619, 0};
Point(p15 + 8) = {8.441170056462802, 0.02045353218122137, 0};
Point(p15 + 9) = {8.332554030373354, 0.0465299329409895, 0};
Point(p15 + 10) = {8.221196000000001, 0.05529400000000007, 0};
Point(p15 + 11) = {8.109837969626648, 0.04652993294098939, 0};
Point(p15 + 12) = {8.0012219435372, 0.02045353218122148, 0};
Point(p15 + 13) = {7.898022408769905, -0.02229311474998608, 0};
Point(p15 + 14) = {7.802780480370352, -0.08065744353719917, 0};
Point(p15 + 15) = {7.717841330705576, -0.1532023307055749, 0};
Point(p15 + 16) = {7.6452964435372, -0.2381414803703505, 0};
Point(p15 + 17) = {7.586932114749987, -0.3333834087699037, 0};
Point(p15 + 18) = {7.54418546781878, -0.4365829435371992, 0};
Point(p15 + 19) = {7.518109067059012, -0.5451989696266465, 0};
Point(p15 + 20) = {7.509345000000001, -0.6565569999999998, 0};
Point(p15 + 21) = {7.518109067059012, -0.7679150303733533, 0};
Point(p15 + 22) = {7.54418546781878, -0.8765310564628008, 0};
Point(p15 + 23) = {7.586932114749986, -0.9797305912300958, 0};
Point(p15 + 24) = {7.6452964435372, -1.074972519629649, 0};
Point(p15 + 25) = {7.717841330705576, -1.159911669294425, 0};
Point(p15 + 26) = {7.802780480370352, -1.232456556462801, 0};
Point(p15 + 27) = {7.898022408769904, -1.290820885250014, 0};
Point(p15 + 28) = {8.0012219435372, -1.333567532181221, 0};
Point(p15 + 29) = {8.109837969626648, -1.359643932940989, 0};
Point(p15 + 30) = {8.221196000000001, -1.368408, 0};
Point(p15 + 31) = {8.332554030373354, -1.35964393294099, 0};
Point(p15 + 32) = {8.441170056462802, -1.333567532181221, 0};
Point(p15 + 33) = {8.544369591230097, -1.290820885250014, 0};
Point(p15 + 34) = {8.63961151962965, -1.232456556462801, 0};
Point(p15 + 35) = {8.724550669294425, -1.159911669294425, 0};
Point(p15 + 36) = {8.797095556462802, -1.074972519629649, 0};
Point(p15 + 37) = {8.855459885250015, -0.9797305912300962, 0};
Point(p15 + 38) = {8.898206532181222, -0.8765310564628008, 0};
Point(p15 + 39) = {8.92428293294099, -0.7679150303733535, 0};
Spline(15) = {11, p15 + 1, p15 + 2, p15 + 3, p15 + 4, p15 + 5, p15 + 6, p15 + 7, p15 + 8, p15 + 9, p15 + 10, p15 + 11, p15 + 12, p15 + 13, p15 + 14, p15 + 15, p15 + 16, p15 + 17, p15 + 18, p15 + 19, p15 + 20, p15 + 21, p15 + 22, p15 + 23, p15 + 24, p15 + 25, p15 + 26, p15 + 27, p15 + 28, p15 + 29, p15 + 30, p15 + 31, p15 + 32, p15 + 33, p15 + 34, p15 + 35, p15 + 36, p15 + 37, p15 + 38, p15 + 39, 11};
p16 = newp;
Point(p16 + 1) = {28.73617145557379, -0.2056317561302054, 0};
Point(p16 + 2) = {28.69352673710591, -0.02800372010037122, 0};
Point(p16 + 3) = {28.62361989909474, 0.140766316328795, 0};
Point(p16 + 4) = {28.52817227989963, 0.2965226747447689, 0};
Point(p16 + 5) = {28.40953411667763, 0.4354301166776322, 0};
Point(p16 + 6) = {28.27062667474477, 0.5540682798996289, 0};
Point(p16 + 7) = {28.11487031632879, 0.6495158990947433, 0};
Point(p16 + 8) = {27.94610027989963, 0.7194227371059053, 0};
Point(p16 + 9) = {27.76847224386979, 0.7620674555737862, 0};
Point(p16 + 10) = {27.58636, 0.7764000000000001, 0};
Point(p16 + 11) = {27.4042477561302, 0.762067455573786, 0};
Point(p16 + 12) = {27.22661972010037, 0.7194227371059053, 0};
Point(p16 + 13) = {27.0578496836712, 0.6495158990947435, 0};
Point(p16 + 14) = {26.90209332525523, 0.5540682798996289, 0};
Point(p16 + 15) = {26.76318588332237, 0.4354301166776323, 0};
Point(p16 + 16) = {26.64454772010037, 0.296522674744769, 0};
Point(p16 + 17) = {26.54910010090526, 0.1407663163287951, 0};
Point(p16 + 18) = {26.47919326289409, -0.02800372010037105, 0};
Point(p16 + 19) = {26.43654854442621, -0.2056317561302053, 0};
Point(p16 + 20) = {26.422216, -0.3877439999999998, 0};
Point(p16 + 21) = {26.43654854442621, -0.5698562438697944, 0};
Point(p16 + 22) = {26.47919326289409, -0.7474842798996291, 0};
Point(p16 + 23) = {26.54910010090526, -0.9162543163287943, 0};
Point(p16 + 24) = {26.64454772010037, -1.072010674744769, 0};
Point(p16 + 25) = {26.76318588332237, -1.210918116677632, 0};
Point(p16 + 26) = {26.90209332525523, -1.329556279899629, 0};
Point(p16 + 27) = {27.0578496836712, -1.425003899094743, 0};
Point(p16 + 28) = {27.22661972010037, -1.494910737105905, 0};
Point(p16 + 29) = {27.4042477561302, -1.537555455573786, 0};
Point(p16 + 30) = {27.58636, -1.551888, 0};
Point(p16 + 31) = {27.76847224386979, -1.537555455573786, 0};
Point(p16 + 32) = {27.94610027989963, -1.494910737105905, 0};
Point(p16 + 33) = {28.11487031632879, -1.425003899094743, 0};
Point(p16 + 34) = {28.27062667474477, -1.329556279899629, 0};
Point(p16 + 35) = {28.40953411667763, -1.210918116677632, 0};
Point(p16 + 36) = {28.52817227989963, -1.072010674744769, 0};
Point(p16 + 37) = {28.62361989909474, -0.9162543163287952, 0};
Point(p16 + 38) = {28.69352673710591, -0.7474842798996291, 0};
Point(p16 + 39) = {28.73617145557379, -0.5698562438697947, 0};
Spline(16) = {12, p16 + 1, p16 + 2, p16 + 3, p16 + 4, p16 + 5, p16 + 6, p16 + 7, p16 + 8, p16 + 9, p16 + 10, p16 + 11, p16 + 12, p16 + 13, p16 + 14, p16 + 15, p16 + 16, p16 + 17, p16 + 18, p16 + 19, p16 + 20, p16 + 21, p16 + 22, p16 + 23, p16 + 24, p16 + 25, p16 + 26, p16 + 27, p16 + 28, p16 + 29, p16 + 30, p16 + 31, p16 + 32, p16 + 33, p16 + 34, p16 + 35, p16 + 36, p16 + 37, p16 + 38, p16 + 39, 12};
Line(17) = {11, 8};
Line(18) = {12, 9};
Curve Loop(1) = {-1, 4, 3, -2};
Plane Surface(1) = {1};
Curve Loop(2) = {-5, 1, 7, -6};
Plane Surface(2) = {2};
Curve Loop(3) = {-2, 7, 9, -8, -10, -11};
Plane Surface(3) = {3};
Curve Loop(4) = {-12, 3, 8, -13};
Plane Surface(4) = {4};
Curve Loop(5) = {-4, 5, 14, -12, -15, -16};
Plane Surface(5) = {5};
Curve Loop(6) = {-6, 14, 13, -9};
Plane Surface(6) = {6};
Curve Loop(7) = {-10, -17, 15, 17};
Surface(7) = {7};
Curve Loop(8) = {-11, -18, 16, 18};
Surface(8) = {8};
Surface Loop(1) = {1, 2, 3, 4, 5, 6, 7, 8};
Volume(1) = {1};
Physical Surface("INFLOW") = {1};
Physical Surface("OUTFLOW") = {6};
Physical Surface("OBSTACLE") = {7, 8};
Physical Surface("WALL_Y") = {2, 4};
Physical Surface("WALL_Z") = {3, 5};
Physical Volume("FLUID") = {1};
