cl__1 = 3.803137;
cl__2 = 0.6994089999999999;
cl__3 = 0.056387;
cl__4 = 0.052936;
Point(1) = {0.166963, -3.959025, 1, cl__1};
Point(2) = {0.166963, -3.959025, 0, cl__1};
Point(3) = {0.166963, 4.212885999999999, 1, cl__2};
Point(4) = {0.166963, 4.212885999999999, 0, cl__2};
Point(5) = {37.81124000000001, -3.959025, 0, cl__1};
Point(6) = {37.81124000000001, -3.959025, 1, cl__1};
Point(7) = {37.81124000000001, 4.212885999999999, 1, cl__2};
Point(8) = {31.08162, -1.863354, 1, cl__3};
Point(9) = {34.045797, 2.218103999999999, 1, cl__4};
Point(10) = {37.81124000000001, 4.212885999999999, 0, cl__2};
Point(11) = {31.08162, -1.863354, 0, cl__3};
Point(12) = {34.045797, 2.218103999999999, 0, cl__4};
Line(1) = {2, 1};
Line(2) = {1, 3};
Line(3) = {4, 3};
Line(4) = {2, 4};
Line(5) = {2, 5};
Line(6) = {5, 6};
Line(7) = {1, 6};
Line(8) = {3, 7};
Line(9) = {6, 7};
p10 = newp;
Point(p10 + 1) = {31.07467779998806, -1.775144985328835, 1};
Point(p10 + 2) = {31.05402213995638, -1.689107969347809, 1};
Point(p10 + 3) = {31.02016163080715, -1.607361468930862, 1};
Point(p10 + 4) = {30.97393003065219, -1.531918354219338, 1};
Point(p10 + 5) = {30.91646571492122, -1.464636285078779, 1};
Point(p10 + 6) = {30.84918364578066, -1.40717196934781, 1};
Point(p10 + 7) = {30.77374053106914, -1.360940369192857, 1};
Point(p10 + 8) = {30.69199403065219, -1.327079860043619, 1};
Point(p10 + 9) = {30.60595701467117, -1.306424200011938, 1};
Point(p10 + 10) = {30.517748, -1.299482, 1};
Point(p10 + 11) = {30.42953898532884, -1.306424200011938, 1};
Point(p10 + 12) = {30.34350196934781, -1.327079860043619, 1};
Point(p10 + 13) = {30.26175546893086, -1.360940369192857, 1};
Point(p10 + 14) = {30.18631235421934, -1.40717196934781, 1};
Point(p10 + 15) = {30.11903028507878, -1.464636285078779, 1};
Point(p10 + 16) = {30.06156596934781, -1.531918354219338, 1};
Point(p10 + 17) = {30.01533436919286, -1.607361468930862, 1};
Point(p10 + 18) = {29.98147386004362, -1.689107969347809, 1};
Point(p10 + 19) = {29.96081820001194, -1.775144985328835, 1};
Point(p10 + 20) = {29.953876, -1.863354, 1};
Point(p10 + 21) = {29.96081820001194, -1.951563014671165, 1};
Point(p10 + 22) = {29.98147386004362, -2.03760003065219, 1};
Point(p10 + 23) = {30.01533436919286, -2.119346531069137, 1};
Point(p10 + 24) = {30.06156596934781, -2.194789645780661, 1};
Point(p10 + 25) = {30.11903028507878, -2.262071714921221, 1};
Point(p10 + 26) = {30.18631235421934, -2.31953603065219, 1};
Point(p10 + 27) = {30.26175546893086, -2.365767630807143, 1};
Point(p10 + 28) = {30.34350196934781, -2.399628139956381, 1};
Point(p10 + 29) = {30.42953898532884, -2.420283799988062, 1};
Point(p10 + 30) = {30.517748, -2.427226, 1};
Point(p10 + 31) = {30.60595701467117, -2.420283799988062, 1};
Point(p10 + 32) = {30.69199403065219, -2.399628139956381, 1};
Point(p10 + 33) = {30.77374053106914, -2.365767630807143, 1};
Point(p10 + 34) = {30.84918364578066, -2.31953603065219, 1};
Point(p10 + 35) = {30.91646571492122, -2.262071714921221, 1};
Point(p10 + 36) = {30.97393003065219, -2.194789645780661, 1};
Point(p10 + 37) = {31.02016163080715, -2.119346531069138, 1};
Point(p10 + 38) = {31.05402213995638, -2.03760003065219, 1};
Point(p10 + 39) = {31.07467779998806, -1.951563014671165, 1};
Spline(10) = {8, p10 + 1, p10 + 2, p10 + 3, p10 + 4, p10 + 5, p10 + 6, p10 + 7, p10 + 8, p10 + 9, p10 + 10, p10 + 11, p10 + 12, p10 + 13, p10 + 14, p10 + 15, p10 + 16, p10 + 17, p10 + 18, p10 + 19, p10 + 20, p10 + 21, p10 + 22, p10 + 23, p10 + 24, p10 + 25, p10 + 26, p10 + 27, p10 + 28, p10 + 29, p10 + 30, p10 + 31, p10 + 32, p10 + 33, p10 + 34, p10 + 35, p10 + 36, p10 + 37, p10 + 38, p10 + 39, 8};
p11 = newp;
Point(p11 + 1) = {34.03927974922408, 2.300913522675836, 1};
Point(p11 + 2) = {34.01988847323994, 2.381684000074344, 1};
Point(p11 + 3) = {33.98810064961826, 2.458426594980128, 1};
Point(p11 + 4) = {33.94469900007434, 2.529251650012534, 1};
Point(p11 + 5) = {33.89075221726178, 2.592415217261786, 1};
Point(p11 + 6) = {33.82758865001254, 2.646362000074344, 1};
Point(p11 + 7) = {33.75676359498013, 2.689763649618258, 1};
Point(p11 + 8) = {33.68002100007435, 2.721551473239937, 1};
Point(p11 + 9) = {33.59925052267584, 2.74094274922408, 1};
Point(p11 + 10) = {33.516441, 2.74746, 1};
Point(p11 + 11) = {33.43363147732416, 2.74094274922408, 1};
Point(p11 + 12) = {33.35286099992565, 2.721551473239937, 1};
Point(p11 + 13) = {33.27611840501987, 2.689763649618258, 1};
Point(p11 + 14) = {33.20529334998746, 2.646362000074344, 1};
Point(p11 + 15) = {33.14212978273822, 2.592415217261786, 1};
Point(p11 + 16) = {33.08818299992566, 2.529251650012534, 1};
Point(p11 + 17) = {33.04478135038174, 2.458426594980128, 1};
Point(p11 + 18) = {33.01299352676006, 2.381684000074344, 1};
Point(p11 + 19) = {32.99360225077592, 2.300913522675836, 1};
Point(p11 + 20) = {32.987085, 2.218104, 1};
Point(p11 + 21) = {32.99360225077592, 2.135294477324163, 1};
Point(p11 + 22) = {33.01299352676006, 2.054523999925655, 1};
Point(p11 + 23) = {33.04478135038174, 1.977781405019873, 1};
Point(p11 + 24) = {33.08818299992566, 1.906956349987466, 1};
Point(p11 + 25) = {33.14212978273822, 1.843792782738214, 1};
Point(p11 + 26) = {33.20529334998746, 1.789845999925655, 1};
Point(p11 + 27) = {33.27611840501987, 1.746444350381742, 1};
Point(p11 + 28) = {33.35286099992565, 1.714656526760062, 1};
Point(p11 + 29) = {33.43363147732416, 1.69526525077592, 1};
Point(p11 + 30) = {33.516441, 1.688748, 1};
Point(p11 + 31) = {33.59925052267584, 1.69526525077592, 1};
Point(p11 + 32) = {33.68002100007435, 1.714656526760062, 1};
Point(p11 + 33) = {33.75676359498013, 1.746444350381742, 1};
Point(p11 + 34) = {33.82758865001254, 1.789845999925655, 1};
Point(p11 + 35) = {33.89075221726178, 1.843792782738214, 1};
Point(p11 + 36) = {33.94469900007434, 1.906956349987465, 1};
Point(p11 + 37) = {33.98810064961826, 1.977781405019872, 1};
Point(p11 + 38) = {34.01988847323994, 2.054523999925655, 1};
Point(p11 + 39) = {34.03927974922408, 2.135294477324163, 1};
Spline(11) = {9, p11 + 1, p11 + 2, p11 + 3, p11 + 4, p11 + 5, p11 + 6, p11 + 7, p11 + 8, p11 + 9, p11 + 10, p11 + 11, p11 + 12, p11 + 13, p11 + 14, p11 + 15, p11 + 16, p11 + 17, p11 + 18, p11 + 19, p11 + 20, p11 + 21, p11 + 22, p11 + 23, p11 + 24, p11 + 25, p11 + 26, p11 + 27, p11 + 28, p11 + 29, p11 + 30, p11 + 31, p11 + 32, p11 + 33, p11 + 34, p11 + 35, p11 + 36, p11 + 37, p11 + 38, p11 + 39, 9};
Line(12) = {4, 10};
Line(13) = {10, 7};
Line(14) = {5, 10};
p15 = newp;
Point(p15 + 1) = {31.07467779998806, -1.775144985328835, 0};
Point(p15 + 2) = {31.05402213995638, -1.689107969347809, 0};
Point(p15 + 3) = {31.02016163080715, -1.607361468930862, 0};
Point(p15 + 4) = {30.97393003065219, -1.531918354219338, 0};
Point(p15 + 5) = {30.91646571492122, -1.464636285078779, 0};
Point(p15 + 6) = {30.84918364578066, -1.40717196934781, 0};
Point(p15 + 7) = {30.77374053106914, -1.360940369192857, 0};
Point(p15 + 8) = {30.69199403065219, -1.327079860043619, 0};
Point(p15 + 9) = {30.60595701467117, -1.306424200011938, 0};
Point(p15 + 10) = {30.517748, -1.299482, 0};
Point(p15 + 11) = {30.42953898532884, -1.306424200011938, 0};
Point(p15 + 12) = {30.34350196934781, -1.327079860043619, 0};
Point(p15 + 13) = {30.26175546893086, -1.360940369192857, 0};
Point(p15 + 14) = {30.18631235421934, -1.40717196934781, 0};
Point(p15 + 15) = {30.11903028507878, -1.464636285078779, 0};
Point(p15 + 16) = {30.06156596934781, -1.531918354219338, 0};
Point(p15 + 17) = {30.01533436919286, -1.607361468930862, 0};
Point(p15 + 18) = {29.98147386004362, -1.689107969347809, 0};
Point(p15 + 19) = {29.96081820001194, -1.775144985328835, 0};
Point(p15 + 20) = {29.953876, -1.863354, 0};
Point(p15 + 21) = {29.96081820001194, -1.951563014671165, 0};
Point(p15 + 22) = {29.98147386004362, -2.03760003065219, 0};
Point(p15 + 23) = {30.01533436919286, -2.119346531069137, 0};
Point(p15 + 24) = {30.06156596934781, -2.194789645780661, 0};
Point(p15 + 25) = {30.11903028507878, -2.262071714921221, 0};
Point(p15 + 26) = {30.18631235421934, -2.31953603065219, 0};
Point(p15 + 27) = {30.26175546893086, -2.365767630807143, 0};
Point(p15 + 28) = {30.34350196934781, -2.399628139956381, 0};
Point(p15 + 29) = {30.42953898532884, -2.420283799988062, 0};
Point(p15 + 30) = {30.517748, -2.427226, 0};
Point(p15 + 31) = {30.60595701467117, -2.420283799988062, 0};
Point(p15 + 32) = {30.69199403065219, -2.399628139956381, 0};
Point(p15 + 33) = {30.77374053106914, -2.365767630807143, 0};
Point(p15 + 34) = {30.84918364578066, -2.31953603065219, 0};
Point(p15 + 35) = {30.91646571492122, -2.262071714921221, 0};
Point(p15 + 36) = {30.97393003065219, -2.194789645780661, 0};
Point(p15 + 37) = {31.02016163080715, -2.119346531069138, 0};
Point(p15 + 38) = {31.05402213995638, -2.03760003065219, 0};
Point(p15 + 39) = {31.07467779998806, -1.951563014671165, 0};
Spline(15) = {11, p15 + 1, p15 + 2, p15 + 3, p15 + 4, p15 + 5, p15 + 6, p15 + 7, p15 + 8, p15 + 9, p15 + 10, p15 + 11, p15 + 12, p15 + 13, p15 + 14, p15 + 15, p15 + 16, p15 + 17, p15 + 18, p15 + 19, p15 + 20, p15 + 21, p15 + 22, p15 + 23, p15 + 24, p15 + 25, p15 + 26, p15 + 27, p15 + 28, p15 + 29, p15 + 30, p15 + 31, p15 + 32, p15 + 33, p15 + 34, p15 + 35, p15 + 36, p15 + 37, p15 + 38, p15 + 39, 11};
p16 = newp;
Point(p16 + 1) = {34.03927974922408, 2.300913522675836, 0};
Point(p16 + 2) = {34.01988847323994, 2.381684000074344, 0};
Point(p16 + 3) = {33.98810064961826, 2.458426594980128, 0};
Point(p16 + 4) = {33.94469900007434, 2.529251650012534, 0};
Point(p16 + 5) = {33.89075221726178, 2.592415217261786, 0};
Point(p16 + 6) = {33.82758865001254, 2.646362000074344, 0};
Point(p16 + 7) = {33.75676359498013, 2.689763649618258, 0};
Point(p16 + 8) = {33.68002100007435, 2.721551473239937, 0};
Point(p16 + 9) = {33.59925052267584, 2.74094274922408, 0};
Point(p16 + 10) = {33.516441, 2.74746, 0};
Point(p16 + 11) = {33.43363147732416, 2.74094274922408, 0};
Point(p16 + 12) = {33.35286099992565, 2.721551473239937, 0};
Point(p16 + 13) = {33.27611840501987, 2.689763649618258, 0};
Point(p16 + 14) = {33.20529334998746, 2.646362000074344, 0};
Point(p16 + 15) = {33.14212978273822, 2.592415217261786, 0};
Point(p16 + 16) = {33.08818299992566, 2.529251650012534, 0};
Point(p16 + 17) = {33.04478135038174, 2.458426594980128, 0};
Point(p16 + 18) = {33.01299352676006, 2.381684000074344, 0};
Point(p16 + 19) = {32.99360225077592, 2.300913522675836, 0};
Point(p16 + 20) = {32.987085, 2.218104, 0};
Point(p16 + 21) = {32.99360225077592, 2.135294477324163, 0};
Point(p16 + 22) = {33.01299352676006, 2.054523999925655, 0};
Point(p16 + 23) = {33.04478135038174, 1.977781405019873, 0};
Point(p16 + 24) = {33.08818299992566, 1.906956349987466, 0};
Point(p16 + 25) = {33.14212978273822, 1.843792782738214, 0};
Point(p16 + 26) = {33.20529334998746, 1.789845999925655, 0};
Point(p16 + 27) = {33.27611840501987, 1.746444350381742, 0};
Point(p16 + 28) = {33.35286099992565, 1.714656526760062, 0};
Point(p16 + 29) = {33.43363147732416, 1.69526525077592, 0};
Point(p16 + 30) = {33.516441, 1.688748, 0};
Point(p16 + 31) = {33.59925052267584, 1.69526525077592, 0};
Point(p16 + 32) = {33.68002100007435, 1.714656526760062, 0};
Point(p16 + 33) = {33.75676359498013, 1.746444350381742, 0};
Point(p16 + 34) = {33.82758865001254, 1.789845999925655, 0};
Point(p16 + 35) = {33.89075221726178, 1.843792782738214, 0};
Point(p16 + 36) = {33.94469900007434, 1.906956349987465, 0};
Point(p16 + 37) = {33.98810064961826, 1.977781405019872, 0};
Point(p16 + 38) = {34.01988847323994, 2.054523999925655, 0};
Point(p16 + 39) = {34.03927974922408, 2.135294477324163, 0};
Spline(16) = {12, p16 + 1, p16 + 2, p16 + 3, p16 + 4, p16 + 5, p16 + 6, p16 + 7, p16 + 8, p16 + 9, p16 + 10, p16 + 11, p16 + 12, p16 + 13, p16 + 14, p16 + 15, p16 + 16, p16 + 17, p16 + 18, p16 + 19, p16 + 20, p16 + 21, p16 + 22, p16 + 23, p16 + 24, p16 + 25, p16 + 26, p16 + 27, p16 + 28, p16 + 29, p16 + 30, p16 + 31, p16 + 32, p16 + 33, p16 + 34, p16 + 35, p16 + 36, p16 + 37, p16 + 38, p16 + 39, 12};
Line(17) = {11, 8};
Line(18) = {12, 9};
Curve Loop(1) = {-1, 4, 3, -2};
Plane Surface(1) = {1};
Curve Loop(2) = {-5, 1, 7, -6};
Plane Surface(2) = {2};
Curve Loop(3) = {-2, 7, 9, -8, -10, -11};
Plane Surface(3) = {3};
Curve Loop(4) = {-12, 3, 8, -13};
Plane Surface(4) = {4};
Curve Loop(5) = {-4, 5, 14, -12, -15, -16};
Plane Surface(5) = {5};
Curve Loop(6) = {-6, 14, 13, -9};
Plane Surface(6) = {6};
Curve Loop(7) = {-10, -17, 15, 17};
Surface(7) = {7};
Curve Loop(8) = {-11, -18, 16, 18};
Surface(8) = {8};
Surface Loop(1) = {1, 2, 3, 4, 5, 6, 7, 8};
Volume(1) = {1};
Physical Surface("INFLOW") = {1};
Physical Surface("OUTFLOW") = {6};
Physical Surface("OBSTACLE") = {7, 8};
Physical Surface("WALL_Y") = {2, 4};
Physical Surface("WALL_Z") = {3, 5};
Physical Volume("FLUID") = {1};
