cl__1 = 3.585208;
cl__2 = 1.462797;
cl__3 = 1.518577;
cl__4 = 0.06524099999999999;
Point(1) = {0.370705, -3.612662, 1, cl__1};
Point(2) = {0.370705, -3.612662, 0, cl__1};
Point(3) = {0.370705, 4.440522999999999, 1, cl__1};
Point(4) = {0.370705, 4.440522999999999, 0, cl__1};
Point(5) = {35.625247, -3.612662, 0, cl__2};
Point(6) = {35.625247, -3.612662, 1, cl__2};
Point(7) = {35.625247, 4.440522999999999, 1, cl__3};
Point(8) = {21.284521, -0.6637590000000001, 1, cl__4};
Point(9) = {35.625247, 4.440522999999999, 0, cl__3};
Point(10) = {21.284521, -0.6637590000000001, 0, cl__4};
Line(1) = {2, 1};
Line(2) = {1, 3};
Line(3) = {4, 3};
Line(4) = {2, 4};
Line(5) = {2, 5};
Line(6) = {5, 6};
Line(7) = {1, 6};
Line(8) = {3, 7};
Line(9) = {6, 7};
p10 = newp;
Point(p10 + 1) = {21.27648873797602, -0.5616994342286379, 1};
Point(p10 + 2) = {21.25258973285264, -0.4621529136828462, 1};
Point(p10 + 3) = {21.21341245745226, -0.3675706040744225, 1};
Point(p10 + 4) = {21.15992158631715, -0.2802814357666153, 1};
Point(p10 + 5) = {21.0934342422207, -0.2024347577793034, 1};
Point(p10 + 6) = {21.01558756423339, -0.1359474136828461, 1};
Point(p10 + 7) = {20.92829839592558, -0.08245654254774282, 1};
Point(p10 + 8) = {20.83371608631715, -0.04327926714736263, 1};
Point(p10 + 9) = {20.73416956577136, -0.01938026202398557, 1};
Point(p10 + 10) = {20.63211, -0.01134800000000002, 1};
Point(p10 + 11) = {20.53005043422864, -0.01938026202398568, 1};
Point(p10 + 12) = {20.43050391368285, -0.04327926714736252, 1};
Point(p10 + 13) = {20.33592160407443, -0.08245654254774271, 1};
Point(p10 + 14) = {20.24863243576662, -0.1359474136828461, 1};
Point(p10 + 15) = {20.1707857577793, -0.2024347577793033, 1};
Point(p10 + 16) = {20.10429841368285, -0.2802814357666152, 1};
Point(p10 + 17) = {20.05080754254774, -0.3675706040744225, 1};
Point(p10 + 18) = {20.01163026714736, -0.4621529136828461, 1};
Point(p10 + 19) = {19.98773126202398, -0.5616994342286379, 1};
Point(p10 + 20) = {19.979699, -0.6637589999999999, 1};
Point(p10 + 21) = {19.98773126202398, -0.765818565771362, 1};
Point(p10 + 22) = {20.01163026714736, -0.865365086317154, 1};
Point(p10 + 23) = {20.05080754254774, -0.9599473959255771, 1};
Point(p10 + 24) = {20.10429841368285, -1.047236564233385, 1};
Point(p10 + 25) = {20.1707857577793, -1.125083242220696, 1};
Point(p10 + 26) = {20.24863243576662, -1.191570586317154, 1};
Point(p10 + 27) = {20.33592160407442, -1.245061457452257, 1};
Point(p10 + 28) = {20.43050391368285, -1.284238732852637, 1};
Point(p10 + 29) = {20.53005043422864, -1.308137737976014, 1};
Point(p10 + 30) = {20.63211, -1.31617, 1};
Point(p10 + 31) = {20.73416956577136, -1.308137737976014, 1};
Point(p10 + 32) = {20.83371608631715, -1.284238732852637, 1};
Point(p10 + 33) = {20.92829839592558, -1.245061457452257, 1};
Point(p10 + 34) = {21.01558756423339, -1.191570586317154, 1};
Point(p10 + 35) = {21.0934342422207, -1.125083242220697, 1};
Point(p10 + 36) = {21.15992158631715, -1.047236564233385, 1};
Point(p10 + 37) = {21.21341245745226, -0.9599473959255775, 1};
Point(p10 + 38) = {21.25258973285264, -0.8653650863171539, 1};
Point(p10 + 39) = {21.27648873797602, -0.7658185657713622, 1};
Spline(10) = {8, p10 + 1, p10 + 2, p10 + 3, p10 + 4, p10 + 5, p10 + 6, p10 + 7, p10 + 8, p10 + 9, p10 + 10, p10 + 11, p10 + 12, p10 + 13, p10 + 14, p10 + 15, p10 + 16, p10 + 17, p10 + 18, p10 + 19, p10 + 20, p10 + 21, p10 + 22, p10 + 23, p10 + 24, p10 + 25, p10 + 26, p10 + 27, p10 + 28, p10 + 29, p10 + 30, p10 + 31, p10 + 32, p10 + 33, p10 + 34, p10 + 35, p10 + 36, p10 + 37, p10 + 38, p10 + 39, 8};
Line(11) = {4, 9};
Line(12) = {9, 7};
Line(13) = {5, 9};
p14 = newp;
Point(p14 + 1) = {21.27648873797602, -0.5616994342286379, 0};
Point(p14 + 2) = {21.25258973285264, -0.4621529136828462, 0};
Point(p14 + 3) = {21.21341245745226, -0.3675706040744225, 0};
Point(p14 + 4) = {21.15992158631715, -0.2802814357666153, 0};
Point(p14 + 5) = {21.0934342422207, -0.2024347577793034, 0};
Point(p14 + 6) = {21.01558756423339, -0.1359474136828461, 0};
Point(p14 + 7) = {20.92829839592558, -0.08245654254774282, 0};
Point(p14 + 8) = {20.83371608631715, -0.04327926714736263, 0};
Point(p14 + 9) = {20.73416956577136, -0.01938026202398557, 0};
Point(p14 + 10) = {20.63211, -0.01134800000000002, 0};
Point(p14 + 11) = {20.53005043422864, -0.01938026202398568, 0};
Point(p14 + 12) = {20.43050391368285, -0.04327926714736252, 0};
Point(p14 + 13) = {20.33592160407443, -0.08245654254774271, 0};
Point(p14 + 14) = {20.24863243576662, -0.1359474136828461, 0};
Point(p14 + 15) = {20.1707857577793, -0.2024347577793033, 0};
Point(p14 + 16) = {20.10429841368285, -0.2802814357666152, 0};
Point(p14 + 17) = {20.05080754254774, -0.3675706040744225, 0};
Point(p14 + 18) = {20.01163026714736, -0.4621529136828461, 0};
Point(p14 + 19) = {19.98773126202398, -0.5616994342286379, 0};
Point(p14 + 20) = {19.979699, -0.6637589999999999, 0};
Point(p14 + 21) = {19.98773126202398, -0.765818565771362, 0};
Point(p14 + 22) = {20.01163026714736, -0.865365086317154, 0};
Point(p14 + 23) = {20.05080754254774, -0.9599473959255771, 0};
Point(p14 + 24) = {20.10429841368285, -1.047236564233385, 0};
Point(p14 + 25) = {20.1707857577793, -1.125083242220696, 0};
Point(p14 + 26) = {20.24863243576662, -1.191570586317154, 0};
Point(p14 + 27) = {20.33592160407442, -1.245061457452257, 0};
Point(p14 + 28) = {20.43050391368285, -1.284238732852637, 0};
Point(p14 + 29) = {20.53005043422864, -1.308137737976014, 0};
Point(p14 + 30) = {20.63211, -1.31617, 0};
Point(p14 + 31) = {20.73416956577136, -1.308137737976014, 0};
Point(p14 + 32) = {20.83371608631715, -1.284238732852637, 0};
Point(p14 + 33) = {20.92829839592558, -1.245061457452257, 0};
Point(p14 + 34) = {21.01558756423339, -1.191570586317154, 0};
Point(p14 + 35) = {21.0934342422207, -1.125083242220697, 0};
Point(p14 + 36) = {21.15992158631715, -1.047236564233385, 0};
Point(p14 + 37) = {21.21341245745226, -0.9599473959255775, 0};
Point(p14 + 38) = {21.25258973285264, -0.8653650863171539, 0};
Point(p14 + 39) = {21.27648873797602, -0.7658185657713622, 0};
Spline(14) = {10, p14 + 1, p14 + 2, p14 + 3, p14 + 4, p14 + 5, p14 + 6, p14 + 7, p14 + 8, p14 + 9, p14 + 10, p14 + 11, p14 + 12, p14 + 13, p14 + 14, p14 + 15, p14 + 16, p14 + 17, p14 + 18, p14 + 19, p14 + 20, p14 + 21, p14 + 22, p14 + 23, p14 + 24, p14 + 25, p14 + 26, p14 + 27, p14 + 28, p14 + 29, p14 + 30, p14 + 31, p14 + 32, p14 + 33, p14 + 34, p14 + 35, p14 + 36, p14 + 37, p14 + 38, p14 + 39, 10};
Line(15) = {10, 8};
Curve Loop(1) = {-1, 4, 3, -2};
Plane Surface(1) = {1};
Curve Loop(2) = {-5, 1, 7, -6};
Plane Surface(2) = {2};
Curve Loop(3) = {-2, 7, 9, -8, -10};
Plane Surface(3) = {3};
Curve Loop(4) = {-11, 3, 8, -12};
Plane Surface(4) = {4};
Curve Loop(5) = {-4, 5, 13, -11, -14};
Plane Surface(5) = {5};
Curve Loop(6) = {-6, 13, 12, -9};
Plane Surface(6) = {6};
Curve Loop(7) = {-10, -15, 14, 15};
Surface(7) = {7};
Surface Loop(1) = {1, 2, 3, 4, 5, 6, 7};
Volume(1) = {1};
Physical Surface("INFLOW") = {1};
Physical Surface("OUTFLOW") = {6};
Physical Surface("OBSTACLE") = {7};
Physical Surface("WALL_Y") = {2, 4};
Physical Surface("WALL_Z") = {3, 5};
Physical Volume("FLUID") = {1};
