cl__1 = 1.474998;
cl__2 = 0.535708;
cl__3 = 1.508805;
cl__4 = 0.058267;
cl__5 = 0.09156300000000001;
Point(1) = {0.053611, -3.561629, 1, cl__1};
Point(2) = {0.053611, -3.561629, 0, cl__1};
Point(3) = {0.053611, 4.279708, 1, cl__2};
Point(4) = {0.053611, 4.279708, 0, cl__2};
Point(5) = {30.095834, -3.561629, 0, cl__1};
Point(6) = {30.095834, -3.561629, 1, cl__1};
Point(7) = {30.095834, 4.279708, 1, cl__3};
Point(8) = {25.859916, -0.08861100000000013, 1, cl__4};
Point(9) = {15.812161, 1.448269, 1, cl__5};
Point(10) = {30.095834, 4.279708, 0, cl__3};
Point(11) = {25.859916, -0.08861100000000013, 0, cl__4};
Point(12) = {15.812161, 1.448269, 0, cl__5};
Line(1) = {2, 1};
Line(2) = {1, 3};
Line(3) = {4, 3};
Line(4) = {2, 4};
Line(5) = {2, 5};
Line(6) = {5, 6};
Line(7) = {1, 6};
Line(8) = {3, 7};
Line(9) = {6, 7};
p10 = newp;
Point(p10 + 1) = {25.85274235310291, 0.002538826179456374, 1};
Point(p10 + 2) = {25.83139805140621, 0.09144424112944499, 1};
Point(p10 + 3) = {25.79640866245536, 0.1759160984737415, 1};
Point(p10 + 4) = {25.74863574112944, 0.2538744207385076, 1};
Point(p10 + 5) = {25.68925561530075, 0.3233996153007468, 1};
Point(p10 + 6) = {25.61973042073851, 0.3827797411294451, 1};
Point(p10 + 7) = {25.54177209847374, 0.4305526624553605, 1};
Point(p10 + 8) = {25.45730024112945, 0.4655420514062134, 1};
Point(p10 + 9) = {25.36839482617946, 0.4868863531029096, 1};
Point(p10 + 10) = {25.277245, 0.4940600000000001, 1};
Point(p10 + 11) = {25.18609517382054, 0.4868863531029095, 1};
Point(p10 + 12) = {25.09718975887056, 0.4655420514062135, 1};
Point(p10 + 13) = {25.01271790152626, 0.4305526624553606, 1};
Point(p10 + 14) = {24.93475957926149, 0.3827797411294451, 1};
Point(p10 + 15) = {24.86523438469925, 0.3233996153007469, 1};
Point(p10 + 16) = {24.80585425887056, 0.2538744207385077, 1};
Point(p10 + 17) = {24.75808133754464, 0.1759160984737415, 1};
Point(p10 + 18) = {24.72309194859379, 0.09144424112944505, 1};
Point(p10 + 19) = {24.70174764689709, 0.002538826179456444, 1};
Point(p10 + 20) = {24.694574, -0.08861099999999993, 1};
Point(p10 + 21) = {24.70174764689709, -0.1797608261794563, 1};
Point(p10 + 22) = {24.72309194859379, -0.2686662411294451, 1};
Point(p10 + 23) = {24.75808133754464, -0.3531380984737412, 1};
Point(p10 + 24) = {24.80585425887056, -0.4310964207385076, 1};
Point(p10 + 25) = {24.86523438469925, -0.5006216153007468, 1};
Point(p10 + 26) = {24.93475957926149, -0.5600017411294449, 1};
Point(p10 + 27) = {25.01271790152626, -0.6077746624553605, 1};
Point(p10 + 28) = {25.09718975887056, -0.6427640514062134, 1};
Point(p10 + 29) = {25.18609517382054, -0.6641083531029095, 1};
Point(p10 + 30) = {25.277245, -0.671282, 1};
Point(p10 + 31) = {25.36839482617946, -0.6641083531029096, 1};
Point(p10 + 32) = {25.45730024112945, -0.6427640514062135, 1};
Point(p10 + 33) = {25.54177209847374, -0.6077746624553606, 1};
Point(p10 + 34) = {25.61973042073851, -0.5600017411294451, 1};
Point(p10 + 35) = {25.68925561530075, -0.500621615300747, 1};
Point(p10 + 36) = {25.74863574112944, -0.4310964207385078, 1};
Point(p10 + 37) = {25.79640866245536, -0.3531380984737416, 1};
Point(p10 + 38) = {25.83139805140621, -0.2686662411294451, 1};
Point(p10 + 39) = {25.85274235310291, -0.1797608261794565, 1};
Spline(10) = {8, p10 + 1, p10 + 2, p10 + 3, p10 + 4, p10 + 5, p10 + 6, p10 + 7, p10 + 8, p10 + 9, p10 + 10, p10 + 11, p10 + 12, p10 + 13, p10 + 14, p10 + 15, p10 + 16, p10 + 17, p10 + 18, p10 + 19, p10 + 20, p10 + 21, p10 + 22, p10 + 23, p10 + 24, p10 + 25, p10 + 26, p10 + 27, p10 + 28, p10 + 29, p10 + 30, p10 + 31, p10 + 32, p10 + 33, p10 + 34, p10 + 35, p10 + 36, p10 + 37, p10 + 38, p10 + 39, 8};
p11 = newp;
Point(p11 + 1) = {15.80088807529913, 1.591505089224787, 1};
Point(p11 + 2) = {15.76734687801533, 1.731214230559533, 1};
Point(p11 + 3) = {15.7123633037426, 1.863956321276521, 1};
Point(p11 + 4) = {15.63729123055953, 1.986462810556557, 1};
Point(p11 + 5) = {15.54397918205784, 2.095717182057839, 1};
Point(p11 + 6) = {15.43472481055656, 2.189029230559533, 1};
Point(p11 + 7) = {15.31221832127652, 2.264101303742595, 1};
Point(p11 + 8) = {15.17947623055953, 2.319084878015332, 1};
Point(p11 + 9) = {15.03976708922479, 2.352626075299126, 1};
Point(p11 + 10) = {14.896531, 2.363899, 1};
Point(p11 + 11) = {14.75329491077521, 2.352626075299126, 1};
Point(p11 + 12) = {14.61358576944047, 2.319084878015332, 1};
Point(p11 + 13) = {14.48084367872348, 2.264101303742595, 1};
Point(p11 + 14) = {14.35833718944344, 2.189029230559533, 1};
Point(p11 + 15) = {14.24908281794216, 2.095717182057839, 1};
Point(p11 + 16) = {14.15577076944047, 1.986462810556557, 1};
Point(p11 + 17) = {14.0806986962574, 1.863956321276521, 1};
Point(p11 + 18) = {14.02571512198467, 1.731214230559533, 1};
Point(p11 + 19) = {13.99217392470087, 1.591505089224787, 1};
Point(p11 + 20) = {13.980901, 1.448269, 1};
Point(p11 + 21) = {13.99217392470087, 1.305032910775214, 1};
Point(p11 + 22) = {14.02571512198467, 1.165323769440467, 1};
Point(p11 + 23) = {14.0806986962574, 1.032581678723479, 1};
Point(p11 + 24) = {14.15577076944047, 0.9100751894434429, 1};
Point(p11 + 25) = {14.24908281794216, 0.8008208179421615, 1};
Point(p11 + 26) = {14.35833718944344, 0.7075087694404669, 1};
Point(p11 + 27) = {14.48084367872348, 0.6324366962574047, 1};
Point(p11 + 28) = {14.61358576944047, 0.5774531219846686, 1};
Point(p11 + 29) = {14.75329491077521, 0.5439119247008741, 1};
Point(p11 + 30) = {14.896531, 0.532639, 1};
Point(p11 + 31) = {15.03976708922479, 0.543911924700874, 1};
Point(p11 + 32) = {15.17947623055953, 0.5774531219846685, 1};
Point(p11 + 33) = {15.31221832127652, 0.6324366962574047, 1};
Point(p11 + 34) = {15.43472481055656, 0.7075087694404667, 1};
Point(p11 + 35) = {15.54397918205784, 0.8008208179421613, 1};
Point(p11 + 36) = {15.63729123055953, 0.9100751894434426, 1};
Point(p11 + 37) = {15.7123633037426, 1.032581678723479, 1};
Point(p11 + 38) = {15.76734687801533, 1.165323769440467, 1};
Point(p11 + 39) = {15.80088807529913, 1.305032910775213, 1};
Spline(11) = {9, p11 + 1, p11 + 2, p11 + 3, p11 + 4, p11 + 5, p11 + 6, p11 + 7, p11 + 8, p11 + 9, p11 + 10, p11 + 11, p11 + 12, p11 + 13, p11 + 14, p11 + 15, p11 + 16, p11 + 17, p11 + 18, p11 + 19, p11 + 20, p11 + 21, p11 + 22, p11 + 23, p11 + 24, p11 + 25, p11 + 26, p11 + 27, p11 + 28, p11 + 29, p11 + 30, p11 + 31, p11 + 32, p11 + 33, p11 + 34, p11 + 35, p11 + 36, p11 + 37, p11 + 38, p11 + 39, 9};
Line(12) = {4, 10};
Line(13) = {10, 7};
Line(14) = {5, 10};
p15 = newp;
Point(p15 + 1) = {25.85274235310291, 0.002538826179456374, 0};
Point(p15 + 2) = {25.83139805140621, 0.09144424112944499, 0};
Point(p15 + 3) = {25.79640866245536, 0.1759160984737415, 0};
Point(p15 + 4) = {25.74863574112944, 0.2538744207385076, 0};
Point(p15 + 5) = {25.68925561530075, 0.3233996153007468, 0};
Point(p15 + 6) = {25.61973042073851, 0.3827797411294451, 0};
Point(p15 + 7) = {25.54177209847374, 0.4305526624553605, 0};
Point(p15 + 8) = {25.45730024112945, 0.4655420514062134, 0};
Point(p15 + 9) = {25.36839482617946, 0.4868863531029096, 0};
Point(p15 + 10) = {25.277245, 0.4940600000000001, 0};
Point(p15 + 11) = {25.18609517382054, 0.4868863531029095, 0};
Point(p15 + 12) = {25.09718975887056, 0.4655420514062135, 0};
Point(p15 + 13) = {25.01271790152626, 0.4305526624553606, 0};
Point(p15 + 14) = {24.93475957926149, 0.3827797411294451, 0};
Point(p15 + 15) = {24.86523438469925, 0.3233996153007469, 0};
Point(p15 + 16) = {24.80585425887056, 0.2538744207385077, 0};
Point(p15 + 17) = {24.75808133754464, 0.1759160984737415, 0};
Point(p15 + 18) = {24.72309194859379, 0.09144424112944505, 0};
Point(p15 + 19) = {24.70174764689709, 0.002538826179456444, 0};
Point(p15 + 20) = {24.694574, -0.08861099999999993, 0};
Point(p15 + 21) = {24.70174764689709, -0.1797608261794563, 0};
Point(p15 + 22) = {24.72309194859379, -0.2686662411294451, 0};
Point(p15 + 23) = {24.75808133754464, -0.3531380984737412, 0};
Point(p15 + 24) = {24.80585425887056, -0.4310964207385076, 0};
Point(p15 + 25) = {24.86523438469925, -0.5006216153007468, 0};
Point(p15 + 26) = {24.93475957926149, -0.5600017411294449, 0};
Point(p15 + 27) = {25.01271790152626, -0.6077746624553605, 0};
Point(p15 + 28) = {25.09718975887056, -0.6427640514062134, 0};
Point(p15 + 29) = {25.18609517382054, -0.6641083531029095, 0};
Point(p15 + 30) = {25.277245, -0.671282, 0};
Point(p15 + 31) = {25.36839482617946, -0.6641083531029096, 0};
Point(p15 + 32) = {25.45730024112945, -0.6427640514062135, 0};
Point(p15 + 33) = {25.54177209847374, -0.6077746624553606, 0};
Point(p15 + 34) = {25.61973042073851, -0.5600017411294451, 0};
Point(p15 + 35) = {25.68925561530075, -0.500621615300747, 0};
Point(p15 + 36) = {25.74863574112944, -0.4310964207385078, 0};
Point(p15 + 37) = {25.79640866245536, -0.3531380984737416, 0};
Point(p15 + 38) = {25.83139805140621, -0.2686662411294451, 0};
Point(p15 + 39) = {25.85274235310291, -0.1797608261794565, 0};
Spline(15) = {11, p15 + 1, p15 + 2, p15 + 3, p15 + 4, p15 + 5, p15 + 6, p15 + 7, p15 + 8, p15 + 9, p15 + 10, p15 + 11, p15 + 12, p15 + 13, p15 + 14, p15 + 15, p15 + 16, p15 + 17, p15 + 18, p15 + 19, p15 + 20, p15 + 21, p15 + 22, p15 + 23, p15 + 24, p15 + 25, p15 + 26, p15 + 27, p15 + 28, p15 + 29, p15 + 30, p15 + 31, p15 + 32, p15 + 33, p15 + 34, p15 + 35, p15 + 36, p15 + 37, p15 + 38, p15 + 39, 11};
p16 = newp;
Point(p16 + 1) = {15.80088807529913, 1.591505089224787, 0};
Point(p16 + 2) = {15.76734687801533, 1.731214230559533, 0};
Point(p16 + 3) = {15.7123633037426, 1.863956321276521, 0};
Point(p16 + 4) = {15.63729123055953, 1.986462810556557, 0};
Point(p16 + 5) = {15.54397918205784, 2.095717182057839, 0};
Point(p16 + 6) = {15.43472481055656, 2.189029230559533, 0};
Point(p16 + 7) = {15.31221832127652, 2.264101303742595, 0};
Point(p16 + 8) = {15.17947623055953, 2.319084878015332, 0};
Point(p16 + 9) = {15.03976708922479, 2.352626075299126, 0};
Point(p16 + 10) = {14.896531, 2.363899, 0};
Point(p16 + 11) = {14.75329491077521, 2.352626075299126, 0};
Point(p16 + 12) = {14.61358576944047, 2.319084878015332, 0};
Point(p16 + 13) = {14.48084367872348, 2.264101303742595, 0};
Point(p16 + 14) = {14.35833718944344, 2.189029230559533, 0};
Point(p16 + 15) = {14.24908281794216, 2.095717182057839, 0};
Point(p16 + 16) = {14.15577076944047, 1.986462810556557, 0};
Point(p16 + 17) = {14.0806986962574, 1.863956321276521, 0};
Point(p16 + 18) = {14.02571512198467, 1.731214230559533, 0};
Point(p16 + 19) = {13.99217392470087, 1.591505089224787, 0};
Point(p16 + 20) = {13.980901, 1.448269, 0};
Point(p16 + 21) = {13.99217392470087, 1.305032910775214, 0};
Point(p16 + 22) = {14.02571512198467, 1.165323769440467, 0};
Point(p16 + 23) = {14.0806986962574, 1.032581678723479, 0};
Point(p16 + 24) = {14.15577076944047, 0.9100751894434429, 0};
Point(p16 + 25) = {14.24908281794216, 0.8008208179421615, 0};
Point(p16 + 26) = {14.35833718944344, 0.7075087694404669, 0};
Point(p16 + 27) = {14.48084367872348, 0.6324366962574047, 0};
Point(p16 + 28) = {14.61358576944047, 0.5774531219846686, 0};
Point(p16 + 29) = {14.75329491077521, 0.5439119247008741, 0};
Point(p16 + 30) = {14.896531, 0.532639, 0};
Point(p16 + 31) = {15.03976708922479, 0.543911924700874, 0};
Point(p16 + 32) = {15.17947623055953, 0.5774531219846685, 0};
Point(p16 + 33) = {15.31221832127652, 0.6324366962574047, 0};
Point(p16 + 34) = {15.43472481055656, 0.7075087694404667, 0};
Point(p16 + 35) = {15.54397918205784, 0.8008208179421613, 0};
Point(p16 + 36) = {15.63729123055953, 0.9100751894434426, 0};
Point(p16 + 37) = {15.7123633037426, 1.032581678723479, 0};
Point(p16 + 38) = {15.76734687801533, 1.165323769440467, 0};
Point(p16 + 39) = {15.80088807529913, 1.305032910775213, 0};
Spline(16) = {12, p16 + 1, p16 + 2, p16 + 3, p16 + 4, p16 + 5, p16 + 6, p16 + 7, p16 + 8, p16 + 9, p16 + 10, p16 + 11, p16 + 12, p16 + 13, p16 + 14, p16 + 15, p16 + 16, p16 + 17, p16 + 18, p16 + 19, p16 + 20, p16 + 21, p16 + 22, p16 + 23, p16 + 24, p16 + 25, p16 + 26, p16 + 27, p16 + 28, p16 + 29, p16 + 30, p16 + 31, p16 + 32, p16 + 33, p16 + 34, p16 + 35, p16 + 36, p16 + 37, p16 + 38, p16 + 39, 12};
Line(17) = {11, 8};
Line(18) = {12, 9};
Curve Loop(1) = {-1, 4, 3, -2};
Plane Surface(1) = {1};
Curve Loop(2) = {-5, 1, 7, -6};
Plane Surface(2) = {2};
Curve Loop(3) = {-2, 7, 9, -8, -10, -11};
Plane Surface(3) = {3};
Curve Loop(4) = {-12, 3, 8, -13};
Plane Surface(4) = {4};
Curve Loop(5) = {-4, 5, 14, -12, -15, -16};
Plane Surface(5) = {5};
Curve Loop(6) = {-6, 14, 13, -9};
Plane Surface(6) = {6};
Curve Loop(7) = {-10, -17, 15, 17};
Surface(7) = {7};
Curve Loop(8) = {-11, -18, 16, 18};
Surface(8) = {8};
Surface Loop(1) = {1, 2, 3, 4, 5, 6, 7, 8};
Volume(1) = {1};
Physical Surface("INFLOW") = {1};
Physical Surface("OUTFLOW") = {6};
Physical Surface("OBSTACLE") = {7, 8};
Physical Surface("WALL_Y") = {2, 4};
Physical Surface("WALL_Z") = {3, 5};
Physical Volume("FLUID") = {1};
