cl__1 = 3.563073;
cl__2 = 0.991853;
cl__3 = 0.7309870000000001;
cl__4 = 0.076734;
cl__5 = 0.07496800000000001;
Point(1) = {0.350815, -3.873482, 1, cl__1};
Point(2) = {0.350815, -3.873482, 0, cl__1};
Point(3) = {0.350815, 4.435652, 1, cl__2};
Point(4) = {0.350815, 4.435652, 0, cl__2};
Point(5) = {35.387685, -3.873482, 0, cl__3};
Point(6) = {35.387685, -3.873482, 1, cl__3};
Point(7) = {35.387685, 4.435652, 1, cl__2};
Point(8) = {25.682176, -1.750458, 1, cl__4};
Point(9) = {5.239956, 3.041798, 1, cl__5};
Point(10) = {35.387685, 4.435652, 0, cl__2};
Point(11) = {25.682176, -1.750458, 0, cl__4};
Point(12) = {5.239956, 3.041798, 0, cl__5};
Line(1) = {2, 1};
Line(2) = {1, 3};
Line(3) = {4, 3};
Line(4) = {2, 4};
Line(5) = {2, 5};
Line(6) = {5, 6};
Line(7) = {1, 6};
Line(8) = {3, 7};
Line(9) = {6, 7};
p10 = newp;
Point(p10 + 1) = {25.6727287343373, -1.630419108292634, 1};
Point(p10 + 2) = {25.64461956038348, -1.513335972485345, 1};
Point(p10 + 3) = {25.59854061929028, -1.402091567958357, 1};
Point(p10 + 4) = {25.53562652751466, -1.299425101150137, 1};
Point(p10 + 5) = {25.45742643879603, -1.207864561203971, 1};
Point(p10 + 6) = {25.36586589884987, -1.129664472485345, 1};
Point(p10 + 7) = {25.26319943204165, -1.066750380709725, 1};
Point(p10 + 8) = {25.15195502751466, -1.020671439616528, 1};
Point(p10 + 9) = {25.03487189170737, -0.9925622656627052, 1};
Point(p10 + 10) = {24.914833, -0.9831150000000001, 1};
Point(p10 + 11) = {24.79479410829263, -0.9925622656627053, 1};
Point(p10 + 12) = {24.67771097248535, -1.020671439616528, 1};
Point(p10 + 13) = {24.56646656795836, -1.066750380709725, 1};
Point(p10 + 14) = {24.46380010115014, -1.129664472485345, 1};
Point(p10 + 15) = {24.37223956120397, -1.207864561203971, 1};
Point(p10 + 16) = {24.29403947248534, -1.299425101150137, 1};
Point(p10 + 17) = {24.23112538070973, -1.402091567958357, 1};
Point(p10 + 18) = {24.18504643961653, -1.513335972485345, 1};
Point(p10 + 19) = {24.15693726566271, -1.630419108292634, 1};
Point(p10 + 20) = {24.14749, -1.750458, 1};
Point(p10 + 21) = {24.15693726566271, -1.870496891707366, 1};
Point(p10 + 22) = {24.18504643961653, -1.987580027514656, 1};
Point(p10 + 23) = {24.23112538070973, -2.098824432041643, 1};
Point(p10 + 24) = {24.29403947248534, -2.201490898849863, 1};
Point(p10 + 25) = {24.37223956120397, -2.293051438796029, 1};
Point(p10 + 26) = {24.46380010115014, -2.371251527514655, 1};
Point(p10 + 27) = {24.56646656795836, -2.434165619290275, 1};
Point(p10 + 28) = {24.67771097248535, -2.480244560383472, 1};
Point(p10 + 29) = {24.79479410829263, -2.508353734337295, 1};
Point(p10 + 30) = {24.914833, -2.517801, 1};
Point(p10 + 31) = {25.03487189170737, -2.508353734337295, 1};
Point(p10 + 32) = {25.15195502751466, -2.480244560383472, 1};
Point(p10 + 33) = {25.26319943204165, -2.434165619290275, 1};
Point(p10 + 34) = {25.36586589884987, -2.371251527514656, 1};
Point(p10 + 35) = {25.45742643879603, -2.293051438796029, 1};
Point(p10 + 36) = {25.53562652751466, -2.201490898849864, 1};
Point(p10 + 37) = {25.59854061929028, -2.098824432041643, 1};
Point(p10 + 38) = {25.64461956038348, -1.987580027514656, 1};
Point(p10 + 39) = {25.6727287343373, -1.870496891707366, 1};
Spline(10) = {8, p10 + 1, p10 + 2, p10 + 3, p10 + 4, p10 + 5, p10 + 6, p10 + 7, p10 + 8, p10 + 9, p10 + 10, p10 + 11, p10 + 12, p10 + 13, p10 + 14, p10 + 15, p10 + 16, p10 + 17, p10 + 18, p10 + 19, p10 + 20, p10 + 21, p10 + 22, p10 + 23, p10 + 24, p10 + 25, p10 + 26, p10 + 27, p10 + 28, p10 + 29, p10 + 30, p10 + 31, p10 + 32, p10 + 33, p10 + 34, p10 + 35, p10 + 36, p10 + 37, p10 + 38, p10 + 39, 8};
p11 = newp;
Point(p11 + 1) = {5.230726232112342, 3.159073320447965, 1};
Point(p11 + 2) = {5.203264195966602, 3.273460933292027, 1};
Point(p11 + 3) = {5.158246098033963, 3.382144235873244, 1};
Point(p11 + 4) = {5.096780433292028, 3.482447084582864, 1};
Point(p11 + 5) = {5.020380690399588, 3.571899690399587, 1};
Point(p11 + 6) = {4.930928084582865, 3.648299433292028, 1};
Point(p11 + 7) = {4.830625235873244, 3.709765098033963, 1};
Point(p11 + 8) = {4.721941933292028, 3.754783195966602, 1};
Point(p11 + 9) = {4.607554320447965, 3.782245232112341, 1};
Point(p11 + 10) = {4.490279, 3.791475, 1};
Point(p11 + 11) = {4.373003679552035, 3.782245232112341, 1};
Point(p11 + 12) = {4.258616066707972, 3.754783195966602, 1};
Point(p11 + 13) = {4.149932764126756, 3.709765098033963, 1};
Point(p11 + 14) = {4.049629915417135, 3.648299433292028, 1};
Point(p11 + 15) = {3.960177309600413, 3.571899690399587, 1};
Point(p11 + 16) = {3.883777566707973, 3.482447084582864, 1};
Point(p11 + 17) = {3.822311901966037, 3.382144235873244, 1};
Point(p11 + 18) = {3.777293804033398, 3.273460933292028, 1};
Point(p11 + 19) = {3.749831767887659, 3.159073320447965, 1};
Point(p11 + 20) = {3.740602, 3.041798, 1};
Point(p11 + 21) = {3.749831767887659, 2.924522679552035, 1};
Point(p11 + 22) = {3.777293804033398, 2.810135066707972, 1};
Point(p11 + 23) = {3.822311901966037, 2.701451764126756, 1};
Point(p11 + 24) = {3.883777566707972, 2.601148915417136, 1};
Point(p11 + 25) = {3.960177309600413, 2.511696309600413, 1};
Point(p11 + 26) = {4.049629915417135, 2.435296566707973, 1};
Point(p11 + 27) = {4.149932764126756, 2.373830901966037, 1};
Point(p11 + 28) = {4.258616066707972, 2.328812804033398, 1};
Point(p11 + 29) = {4.373003679552035, 2.301350767887659, 1};
Point(p11 + 30) = {4.490279, 2.292121, 1};
Point(p11 + 31) = {4.607554320447965, 2.301350767887659, 1};
Point(p11 + 32) = {4.721941933292028, 2.328812804033398, 1};
Point(p11 + 33) = {4.830625235873244, 2.373830901966037, 1};
Point(p11 + 34) = {4.930928084582864, 2.435296566707972, 1};
Point(p11 + 35) = {5.020380690399588, 2.511696309600413, 1};
Point(p11 + 36) = {5.096780433292028, 2.601148915417135, 1};
Point(p11 + 37) = {5.158246098033963, 2.701451764126756, 1};
Point(p11 + 38) = {5.203264195966602, 2.810135066707972, 1};
Point(p11 + 39) = {5.230726232112342, 2.924522679552035, 1};
Spline(11) = {9, p11 + 1, p11 + 2, p11 + 3, p11 + 4, p11 + 5, p11 + 6, p11 + 7, p11 + 8, p11 + 9, p11 + 10, p11 + 11, p11 + 12, p11 + 13, p11 + 14, p11 + 15, p11 + 16, p11 + 17, p11 + 18, p11 + 19, p11 + 20, p11 + 21, p11 + 22, p11 + 23, p11 + 24, p11 + 25, p11 + 26, p11 + 27, p11 + 28, p11 + 29, p11 + 30, p11 + 31, p11 + 32, p11 + 33, p11 + 34, p11 + 35, p11 + 36, p11 + 37, p11 + 38, p11 + 39, 9};
Line(12) = {4, 10};
Line(13) = {10, 7};
Line(14) = {5, 10};
p15 = newp;
Point(p15 + 1) = {25.6727287343373, -1.630419108292634, 0};
Point(p15 + 2) = {25.64461956038348, -1.513335972485345, 0};
Point(p15 + 3) = {25.59854061929028, -1.402091567958357, 0};
Point(p15 + 4) = {25.53562652751466, -1.299425101150137, 0};
Point(p15 + 5) = {25.45742643879603, -1.207864561203971, 0};
Point(p15 + 6) = {25.36586589884987, -1.129664472485345, 0};
Point(p15 + 7) = {25.26319943204165, -1.066750380709725, 0};
Point(p15 + 8) = {25.15195502751466, -1.020671439616528, 0};
Point(p15 + 9) = {25.03487189170737, -0.9925622656627052, 0};
Point(p15 + 10) = {24.914833, -0.9831150000000001, 0};
Point(p15 + 11) = {24.79479410829263, -0.9925622656627053, 0};
Point(p15 + 12) = {24.67771097248535, -1.020671439616528, 0};
Point(p15 + 13) = {24.56646656795836, -1.066750380709725, 0};
Point(p15 + 14) = {24.46380010115014, -1.129664472485345, 0};
Point(p15 + 15) = {24.37223956120397, -1.207864561203971, 0};
Point(p15 + 16) = {24.29403947248534, -1.299425101150137, 0};
Point(p15 + 17) = {24.23112538070973, -1.402091567958357, 0};
Point(p15 + 18) = {24.18504643961653, -1.513335972485345, 0};
Point(p15 + 19) = {24.15693726566271, -1.630419108292634, 0};
Point(p15 + 20) = {24.14749, -1.750458, 0};
Point(p15 + 21) = {24.15693726566271, -1.870496891707366, 0};
Point(p15 + 22) = {24.18504643961653, -1.987580027514656, 0};
Point(p15 + 23) = {24.23112538070973, -2.098824432041643, 0};
Point(p15 + 24) = {24.29403947248534, -2.201490898849863, 0};
Point(p15 + 25) = {24.37223956120397, -2.293051438796029, 0};
Point(p15 + 26) = {24.46380010115014, -2.371251527514655, 0};
Point(p15 + 27) = {24.56646656795836, -2.434165619290275, 0};
Point(p15 + 28) = {24.67771097248535, -2.480244560383472, 0};
Point(p15 + 29) = {24.79479410829263, -2.508353734337295, 0};
Point(p15 + 30) = {24.914833, -2.517801, 0};
Point(p15 + 31) = {25.03487189170737, -2.508353734337295, 0};
Point(p15 + 32) = {25.15195502751466, -2.480244560383472, 0};
Point(p15 + 33) = {25.26319943204165, -2.434165619290275, 0};
Point(p15 + 34) = {25.36586589884987, -2.371251527514656, 0};
Point(p15 + 35) = {25.45742643879603, -2.293051438796029, 0};
Point(p15 + 36) = {25.53562652751466, -2.201490898849864, 0};
Point(p15 + 37) = {25.59854061929028, -2.098824432041643, 0};
Point(p15 + 38) = {25.64461956038348, -1.987580027514656, 0};
Point(p15 + 39) = {25.6727287343373, -1.870496891707366, 0};
Spline(15) = {11, p15 + 1, p15 + 2, p15 + 3, p15 + 4, p15 + 5, p15 + 6, p15 + 7, p15 + 8, p15 + 9, p15 + 10, p15 + 11, p15 + 12, p15 + 13, p15 + 14, p15 + 15, p15 + 16, p15 + 17, p15 + 18, p15 + 19, p15 + 20, p15 + 21, p15 + 22, p15 + 23, p15 + 24, p15 + 25, p15 + 26, p15 + 27, p15 + 28, p15 + 29, p15 + 30, p15 + 31, p15 + 32, p15 + 33, p15 + 34, p15 + 35, p15 + 36, p15 + 37, p15 + 38, p15 + 39, 11};
p16 = newp;
Point(p16 + 1) = {5.230726232112342, 3.159073320447965, 0};
Point(p16 + 2) = {5.203264195966602, 3.273460933292027, 0};
Point(p16 + 3) = {5.158246098033963, 3.382144235873244, 0};
Point(p16 + 4) = {5.096780433292028, 3.482447084582864, 0};
Point(p16 + 5) = {5.020380690399588, 3.571899690399587, 0};
Point(p16 + 6) = {4.930928084582865, 3.648299433292028, 0};
Point(p16 + 7) = {4.830625235873244, 3.709765098033963, 0};
Point(p16 + 8) = {4.721941933292028, 3.754783195966602, 0};
Point(p16 + 9) = {4.607554320447965, 3.782245232112341, 0};
Point(p16 + 10) = {4.490279, 3.791475, 0};
Point(p16 + 11) = {4.373003679552035, 3.782245232112341, 0};
Point(p16 + 12) = {4.258616066707972, 3.754783195966602, 0};
Point(p16 + 13) = {4.149932764126756, 3.709765098033963, 0};
Point(p16 + 14) = {4.049629915417135, 3.648299433292028, 0};
Point(p16 + 15) = {3.960177309600413, 3.571899690399587, 0};
Point(p16 + 16) = {3.883777566707973, 3.482447084582864, 0};
Point(p16 + 17) = {3.822311901966037, 3.382144235873244, 0};
Point(p16 + 18) = {3.777293804033398, 3.273460933292028, 0};
Point(p16 + 19) = {3.749831767887659, 3.159073320447965, 0};
Point(p16 + 20) = {3.740602, 3.041798, 0};
Point(p16 + 21) = {3.749831767887659, 2.924522679552035, 0};
Point(p16 + 22) = {3.777293804033398, 2.810135066707972, 0};
Point(p16 + 23) = {3.822311901966037, 2.701451764126756, 0};
Point(p16 + 24) = {3.883777566707972, 2.601148915417136, 0};
Point(p16 + 25) = {3.960177309600413, 2.511696309600413, 0};
Point(p16 + 26) = {4.049629915417135, 2.435296566707973, 0};
Point(p16 + 27) = {4.149932764126756, 2.373830901966037, 0};
Point(p16 + 28) = {4.258616066707972, 2.328812804033398, 0};
Point(p16 + 29) = {4.373003679552035, 2.301350767887659, 0};
Point(p16 + 30) = {4.490279, 2.292121, 0};
Point(p16 + 31) = {4.607554320447965, 2.301350767887659, 0};
Point(p16 + 32) = {4.721941933292028, 2.328812804033398, 0};
Point(p16 + 33) = {4.830625235873244, 2.373830901966037, 0};
Point(p16 + 34) = {4.930928084582864, 2.435296566707972, 0};
Point(p16 + 35) = {5.020380690399588, 2.511696309600413, 0};
Point(p16 + 36) = {5.096780433292028, 2.601148915417135, 0};
Point(p16 + 37) = {5.158246098033963, 2.701451764126756, 0};
Point(p16 + 38) = {5.203264195966602, 2.810135066707972, 0};
Point(p16 + 39) = {5.230726232112342, 2.924522679552035, 0};
Spline(16) = {12, p16 + 1, p16 + 2, p16 + 3, p16 + 4, p16 + 5, p16 + 6, p16 + 7, p16 + 8, p16 + 9, p16 + 10, p16 + 11, p16 + 12, p16 + 13, p16 + 14, p16 + 15, p16 + 16, p16 + 17, p16 + 18, p16 + 19, p16 + 20, p16 + 21, p16 + 22, p16 + 23, p16 + 24, p16 + 25, p16 + 26, p16 + 27, p16 + 28, p16 + 29, p16 + 30, p16 + 31, p16 + 32, p16 + 33, p16 + 34, p16 + 35, p16 + 36, p16 + 37, p16 + 38, p16 + 39, 12};
Line(17) = {11, 8};
Line(18) = {12, 9};
Curve Loop(1) = {-1, 4, 3, -2};
Plane Surface(1) = {1};
Curve Loop(2) = {-5, 1, 7, -6};
Plane Surface(2) = {2};
Curve Loop(3) = {-2, 7, 9, -8, -10, -11};
Plane Surface(3) = {3};
Curve Loop(4) = {-12, 3, 8, -13};
Plane Surface(4) = {4};
Curve Loop(5) = {-4, 5, 14, -12, -15, -16};
Plane Surface(5) = {5};
Curve Loop(6) = {-6, 14, 13, -9};
Plane Surface(6) = {6};
Curve Loop(7) = {-10, -17, 15, 17};
Surface(7) = {7};
Curve Loop(8) = {-11, -18, 16, 18};
Surface(8) = {8};
Surface Loop(1) = {1, 2, 3, 4, 5, 6, 7, 8};
Volume(1) = {1};
Physical Surface("INFLOW") = {1};
Physical Surface("OUTFLOW") = {6};
Physical Surface("OBSTACLE") = {7, 8};
Physical Surface("WALL_Y") = {2, 4};
Physical Surface("WALL_Z") = {3, 5};
Physical Volume("FLUID") = {1};
