cl__1 = 1;
cl__2 = 0.147585;
cl__3 = 0.148219;
Point(1) = {0.591042, -3.553629, 1, cl__1};
Point(2) = {0.591042, -3.553629, 0, cl__1};
Point(3) = {0.591042, 5.189229999999999, 1, cl__1};
Point(4) = {0.591042, 5.189229999999999, 0, cl__1};
Point(5) = {31.063312, -3.553629, 0, cl__1};
Point(6) = {31.063312, -3.553629, 1, cl__1};
Point(7) = {31.063312, 5.189229999999999, 1, cl__1};
Point(8) = {22.549137, -1.536689, 1, cl__2};
Point(9) = {14.721733, 2.723583999999999, 1, cl__3};
Point(10) = {31.063312, 5.189229999999999, 0, cl__1};
Point(11) = {22.549137, -1.536689, 0, cl__2};
Point(12) = {14.721733, 2.723583999999999, 0, cl__3};
Line(1) = {2, 1};
Line(2) = {1, 3};
Line(3) = {4, 3};
Line(4) = {2, 4};
Line(5) = {2, 5};
Line(6) = {5, 6};
Line(7) = {1, 6};
Line(8) = {3, 7};
Line(9) = {6, 7};
p10 = newp;
Point(p10 + 1) = {22.53096680053236, -1.30581472546698, 1};
Point(p10 + 2) = {22.47690361274375, -1.080625341800751, 1};
Point(p10 + 3) = {22.38827865174298, -0.8666657589878907, 1};
Point(p10 + 4) = {22.26727415819925, -0.6692043720483966, 1};
Point(p10 + 5) = {22.11686966433451, -0.4931033356654904, 1};
Point(p10 + 6) = {21.94076862795161, -0.3426988418007506, 1};
Point(p10 + 7) = {21.74330724101211, -0.2216943482570248, 1};
Point(p10 + 8) = {21.52934765819925, -0.1330693872562487, 1};
Point(p10 + 9) = {21.30415827453302, -0.07900619946764409, 1};
Point(p10 + 10) = {21.073284, -0.06083599999999989, 1};
Point(p10 + 11) = {20.84240972546698, -0.07900619946764409, 1};
Point(p10 + 12) = {20.61722034180075, -0.1330693872562485, 1};
Point(p10 + 13) = {20.40326075898789, -0.2216943482570246, 1};
Point(p10 + 14) = {20.2057993720484, -0.3426988418007506, 1};
Point(p10 + 15) = {20.02969833566549, -0.4931033356654901, 1};
Point(p10 + 16) = {19.87929384180075, -0.6692043720483964, 1};
Point(p10 + 17) = {19.75828934825703, -0.8666657589878904, 1};
Point(p10 + 18) = {19.66966438725625, -1.080625341800751, 1};
Point(p10 + 19) = {19.61560119946764, -1.30581472546698, 1};
Point(p10 + 20) = {19.597431, -1.536689, 1};
Point(p10 + 21) = {19.61560119946764, -1.76756327453302, 1};
Point(p10 + 22) = {19.66966438725625, -1.99275265819925, 1};
Point(p10 + 23) = {19.75828934825703, -2.206712241012108, 1};
Point(p10 + 24) = {19.87929384180075, -2.404173627951603, 1};
Point(p10 + 25) = {20.02969833566549, -2.580274664334509, 1};
Point(p10 + 26) = {20.2057993720484, -2.730679158199249, 1};
Point(p10 + 27) = {20.40326075898789, -2.851683651742975, 1};
Point(p10 + 28) = {20.61722034180075, -2.940308612743751, 1};
Point(p10 + 29) = {20.84240972546698, -2.994371800532356, 1};
Point(p10 + 30) = {21.073284, -3.012542, 1};
Point(p10 + 31) = {21.30415827453302, -2.994371800532356, 1};
Point(p10 + 32) = {21.52934765819925, -2.940308612743752, 1};
Point(p10 + 33) = {21.74330724101211, -2.851683651742976, 1};
Point(p10 + 34) = {21.94076862795161, -2.73067915819925, 1};
Point(p10 + 35) = {22.11686966433451, -2.58027466433451, 1};
Point(p10 + 36) = {22.26727415819925, -2.404173627951604, 1};
Point(p10 + 37) = {22.38827865174298, -2.206712241012109, 1};
Point(p10 + 38) = {22.47690361274375, -1.99275265819925, 1};
Point(p10 + 39) = {22.53096680053236, -1.76756327453302, 1};
Spline(10) = {8, p10 + 1, p10 + 2, p10 + 3, p10 + 4, p10 + 5, p10 + 6, p10 + 7, p10 + 8, p10 + 9, p10 + 10, p10 + 11, p10 + 12, p10 + 13, p10 + 14, p10 + 15, p10 + 16, p10 + 17, p10 + 18, p10 + 19, p10 + 20, p10 + 21, p10 + 22, p10 + 23, p10 + 24, p10 + 25, p10 + 26, p10 + 27, p10 + 28, p10 + 29, p10 + 30, p10 + 31, p10 + 32, p10 + 33, p10 + 34, p10 + 35, p10 + 36, p10 + 37, p10 + 38, p10 + 39, 8};
p11 = newp;
Point(p11 + 1) = {14.70348474461173, 2.955450069041375, 1};
Point(p11 + 2) = {14.64918931105706, 3.181606825943586, 1};
Point(p11 + 3) = {14.56018363310633, 3.396485540780458, 1};
Point(p11 + 4) = {14.43865932594359, 3.594795186451138, 1};
Point(p11 + 5) = {14.28760872132723, 3.771652721327232, 1};
Point(p11 + 6) = {14.11075118645114, 3.922703325943586, 1};
Point(p11 + 7) = {13.91244154078046, 4.044227633106329, 1};
Point(p11 + 8) = {13.69756282594359, 4.133233311057062, 1};
Point(p11 + 9) = {13.47140606904138, 4.187528744611729, 1};
Point(p11 + 10) = {13.23954, 4.205776999999999, 1};
Point(p11 + 11) = {13.00767393095862, 4.187528744611729, 1};
Point(p11 + 12) = {12.78151717405641, 4.133233311057062, 1};
Point(p11 + 13) = {12.56663845921954, 4.044227633106329, 1};
Point(p11 + 14) = {12.36832881354886, 3.922703325943586, 1};
Point(p11 + 15) = {12.19147127867277, 3.771652721327232, 1};
Point(p11 + 16) = {12.04042067405641, 3.594795186451138, 1};
Point(p11 + 17) = {11.91889636689367, 3.396485540780458, 1};
Point(p11 + 18) = {11.82989068894294, 3.181606825943586, 1};
Point(p11 + 19) = {11.77559525538827, 2.955450069041375, 1};
Point(p11 + 20) = {11.757347, 2.723584, 1};
Point(p11 + 21) = {11.77559525538827, 2.491717930958625, 1};
Point(p11 + 22) = {11.82989068894294, 2.265561174056413, 1};
Point(p11 + 23) = {11.91889636689367, 2.050682459219543, 1};
Point(p11 + 24) = {12.04042067405641, 1.852372813548862, 1};
Point(p11 + 25) = {12.19147127867277, 1.675515278672767, 1};
Point(p11 + 26) = {12.36832881354886, 1.524464674056413, 1};
Point(p11 + 27) = {12.56663845921954, 1.40294036689367, 1};
Point(p11 + 28) = {12.78151717405641, 1.313934688942937, 1};
Point(p11 + 29) = {13.00767393095862, 1.259639255388271, 1};
Point(p11 + 30) = {13.23954, 1.241391, 1};
Point(p11 + 31) = {13.47140606904138, 1.259639255388271, 1};
Point(p11 + 32) = {13.69756282594359, 1.313934688942937, 1};
Point(p11 + 33) = {13.91244154078046, 1.40294036689367, 1};
Point(p11 + 34) = {14.11075118645114, 1.524464674056413, 1};
Point(p11 + 35) = {14.28760872132723, 1.675515278672767, 1};
Point(p11 + 36) = {14.43865932594359, 1.852372813548862, 1};
Point(p11 + 37) = {14.56018363310633, 2.050682459219542, 1};
Point(p11 + 38) = {14.64918931105706, 2.265561174056413, 1};
Point(p11 + 39) = {14.70348474461173, 2.491717930958624, 1};
Spline(11) = {9, p11 + 1, p11 + 2, p11 + 3, p11 + 4, p11 + 5, p11 + 6, p11 + 7, p11 + 8, p11 + 9, p11 + 10, p11 + 11, p11 + 12, p11 + 13, p11 + 14, p11 + 15, p11 + 16, p11 + 17, p11 + 18, p11 + 19, p11 + 20, p11 + 21, p11 + 22, p11 + 23, p11 + 24, p11 + 25, p11 + 26, p11 + 27, p11 + 28, p11 + 29, p11 + 30, p11 + 31, p11 + 32, p11 + 33, p11 + 34, p11 + 35, p11 + 36, p11 + 37, p11 + 38, p11 + 39, 9};
Line(12) = {4, 10};
Line(13) = {10, 7};
Line(14) = {5, 10};
p15 = newp;
Point(p15 + 1) = {22.53096680053236, -1.30581472546698, 0};
Point(p15 + 2) = {22.47690361274375, -1.080625341800751, 0};
Point(p15 + 3) = {22.38827865174298, -0.8666657589878907, 0};
Point(p15 + 4) = {22.26727415819925, -0.6692043720483966, 0};
Point(p15 + 5) = {22.11686966433451, -0.4931033356654904, 0};
Point(p15 + 6) = {21.94076862795161, -0.3426988418007506, 0};
Point(p15 + 7) = {21.74330724101211, -0.2216943482570248, 0};
Point(p15 + 8) = {21.52934765819925, -0.1330693872562487, 0};
Point(p15 + 9) = {21.30415827453302, -0.07900619946764409, 0};
Point(p15 + 10) = {21.073284, -0.06083599999999989, 0};
Point(p15 + 11) = {20.84240972546698, -0.07900619946764409, 0};
Point(p15 + 12) = {20.61722034180075, -0.1330693872562485, 0};
Point(p15 + 13) = {20.40326075898789, -0.2216943482570246, 0};
Point(p15 + 14) = {20.2057993720484, -0.3426988418007506, 0};
Point(p15 + 15) = {20.02969833566549, -0.4931033356654901, 0};
Point(p15 + 16) = {19.87929384180075, -0.6692043720483964, 0};
Point(p15 + 17) = {19.75828934825703, -0.8666657589878904, 0};
Point(p15 + 18) = {19.66966438725625, -1.080625341800751, 0};
Point(p15 + 19) = {19.61560119946764, -1.30581472546698, 0};
Point(p15 + 20) = {19.597431, -1.536689, 0};
Point(p15 + 21) = {19.61560119946764, -1.76756327453302, 0};
Point(p15 + 22) = {19.66966438725625, -1.99275265819925, 0};
Point(p15 + 23) = {19.75828934825703, -2.206712241012108, 0};
Point(p15 + 24) = {19.87929384180075, -2.404173627951603, 0};
Point(p15 + 25) = {20.02969833566549, -2.580274664334509, 0};
Point(p15 + 26) = {20.2057993720484, -2.730679158199249, 0};
Point(p15 + 27) = {20.40326075898789, -2.851683651742975, 0};
Point(p15 + 28) = {20.61722034180075, -2.940308612743751, 0};
Point(p15 + 29) = {20.84240972546698, -2.994371800532356, 0};
Point(p15 + 30) = {21.073284, -3.012542, 0};
Point(p15 + 31) = {21.30415827453302, -2.994371800532356, 0};
Point(p15 + 32) = {21.52934765819925, -2.940308612743752, 0};
Point(p15 + 33) = {21.74330724101211, -2.851683651742976, 0};
Point(p15 + 34) = {21.94076862795161, -2.73067915819925, 0};
Point(p15 + 35) = {22.11686966433451, -2.58027466433451, 0};
Point(p15 + 36) = {22.26727415819925, -2.404173627951604, 0};
Point(p15 + 37) = {22.38827865174298, -2.206712241012109, 0};
Point(p15 + 38) = {22.47690361274375, -1.99275265819925, 0};
Point(p15 + 39) = {22.53096680053236, -1.76756327453302, 0};
Spline(15) = {11, p15 + 1, p15 + 2, p15 + 3, p15 + 4, p15 + 5, p15 + 6, p15 + 7, p15 + 8, p15 + 9, p15 + 10, p15 + 11, p15 + 12, p15 + 13, p15 + 14, p15 + 15, p15 + 16, p15 + 17, p15 + 18, p15 + 19, p15 + 20, p15 + 21, p15 + 22, p15 + 23, p15 + 24, p15 + 25, p15 + 26, p15 + 27, p15 + 28, p15 + 29, p15 + 30, p15 + 31, p15 + 32, p15 + 33, p15 + 34, p15 + 35, p15 + 36, p15 + 37, p15 + 38, p15 + 39, 11};
p16 = newp;
Point(p16 + 1) = {14.70348474461173, 2.955450069041375, 0};
Point(p16 + 2) = {14.64918931105706, 3.181606825943586, 0};
Point(p16 + 3) = {14.56018363310633, 3.396485540780458, 0};
Point(p16 + 4) = {14.43865932594359, 3.594795186451138, 0};
Point(p16 + 5) = {14.28760872132723, 3.771652721327232, 0};
Point(p16 + 6) = {14.11075118645114, 3.922703325943586, 0};
Point(p16 + 7) = {13.91244154078046, 4.044227633106329, 0};
Point(p16 + 8) = {13.69756282594359, 4.133233311057062, 0};
Point(p16 + 9) = {13.47140606904138, 4.187528744611729, 0};
Point(p16 + 10) = {13.23954, 4.205776999999999, 0};
Point(p16 + 11) = {13.00767393095862, 4.187528744611729, 0};
Point(p16 + 12) = {12.78151717405641, 4.133233311057062, 0};
Point(p16 + 13) = {12.56663845921954, 4.044227633106329, 0};
Point(p16 + 14) = {12.36832881354886, 3.922703325943586, 0};
Point(p16 + 15) = {12.19147127867277, 3.771652721327232, 0};
Point(p16 + 16) = {12.04042067405641, 3.594795186451138, 0};
Point(p16 + 17) = {11.91889636689367, 3.396485540780458, 0};
Point(p16 + 18) = {11.82989068894294, 3.181606825943586, 0};
Point(p16 + 19) = {11.77559525538827, 2.955450069041375, 0};
Point(p16 + 20) = {11.757347, 2.723584, 0};
Point(p16 + 21) = {11.77559525538827, 2.491717930958625, 0};
Point(p16 + 22) = {11.82989068894294, 2.265561174056413, 0};
Point(p16 + 23) = {11.91889636689367, 2.050682459219543, 0};
Point(p16 + 24) = {12.04042067405641, 1.852372813548862, 0};
Point(p16 + 25) = {12.19147127867277, 1.675515278672767, 0};
Point(p16 + 26) = {12.36832881354886, 1.524464674056413, 0};
Point(p16 + 27) = {12.56663845921954, 1.40294036689367, 0};
Point(p16 + 28) = {12.78151717405641, 1.313934688942937, 0};
Point(p16 + 29) = {13.00767393095862, 1.259639255388271, 0};
Point(p16 + 30) = {13.23954, 1.241391, 0};
Point(p16 + 31) = {13.47140606904138, 1.259639255388271, 0};
Point(p16 + 32) = {13.69756282594359, 1.313934688942937, 0};
Point(p16 + 33) = {13.91244154078046, 1.40294036689367, 0};
Point(p16 + 34) = {14.11075118645114, 1.524464674056413, 0};
Point(p16 + 35) = {14.28760872132723, 1.675515278672767, 0};
Point(p16 + 36) = {14.43865932594359, 1.852372813548862, 0};
Point(p16 + 37) = {14.56018363310633, 2.050682459219542, 0};
Point(p16 + 38) = {14.64918931105706, 2.265561174056413, 0};
Point(p16 + 39) = {14.70348474461173, 2.491717930958624, 0};
Spline(16) = {12, p16 + 1, p16 + 2, p16 + 3, p16 + 4, p16 + 5, p16 + 6, p16 + 7, p16 + 8, p16 + 9, p16 + 10, p16 + 11, p16 + 12, p16 + 13, p16 + 14, p16 + 15, p16 + 16, p16 + 17, p16 + 18, p16 + 19, p16 + 20, p16 + 21, p16 + 22, p16 + 23, p16 + 24, p16 + 25, p16 + 26, p16 + 27, p16 + 28, p16 + 29, p16 + 30, p16 + 31, p16 + 32, p16 + 33, p16 + 34, p16 + 35, p16 + 36, p16 + 37, p16 + 38, p16 + 39, 12};
Line(17) = {11, 8};
Line(18) = {12, 9};
Curve Loop(1) = {-1, 4, 3, -2};
Plane Surface(1) = {1};
Curve Loop(2) = {-5, 1, 7, -6};
Plane Surface(2) = {2};
Curve Loop(3) = {-2, 7, 9, -8, -10, -11};
Plane Surface(3) = {3};
Curve Loop(4) = {-12, 3, 8, -13};
Plane Surface(4) = {4};
Curve Loop(5) = {-4, 5, 14, -12, -15, -16};
Plane Surface(5) = {5};
Curve Loop(6) = {-6, 14, 13, -9};
Plane Surface(6) = {6};
Curve Loop(7) = {-10, -17, 15, 17};
Surface(7) = {7};
Curve Loop(8) = {-11, -18, 16, 18};
Surface(8) = {8};
Surface Loop(1) = {1, 2, 3, 4, 5, 6, 7, 8};
Volume(1) = {1};
Physical Surface("INFLOW") = {1};
Physical Surface("OUTFLOW") = {6};
Physical Surface("OBSTACLE") = {7, 8};
Physical Surface("WALL_Y") = {2, 4};
Physical Surface("WALL_Z") = {3, 5};
Physical Volume("FLUID") = {1};
