cl__1 = 1.59348;
cl__2 = 1.684109;
cl__3 = 0.57722;
cl__4 = 0.102829;
cl__5 = 0.106838;
Point(1) = {0.897913, -2.936258, 1, cl__1};
Point(2) = {0.897913, -2.936258, 0, cl__1};
Point(3) = {0.897913, 4.845601, 1, cl__2};
Point(4) = {0.897913, 4.845601, 0, cl__2};
Point(5) = {34.948878, -2.936258, 0, cl__3};
Point(6) = {34.948878, -2.936258, 1, cl__3};
Point(7) = {34.948878, 4.845601, 1, cl__2};
Point(8) = {18.488136, 0.7309479999999998, 1, cl__4};
Point(9) = {5.681033, 2.807804, 1, cl__5};
Point(10) = {34.948878, 4.845601, 0, cl__2};
Point(11) = {18.488136, 0.7309479999999998, 0, cl__4};
Point(12) = {5.681033, 2.807804, 0, cl__5};
Line(1) = {2, 1};
Line(2) = {1, 3};
Line(3) = {4, 3};
Line(4) = {2, 4};
Line(5) = {2, 5};
Line(6) = {5, 6};
Line(7) = {1, 6};
Line(8) = {3, 7};
Line(9) = {6, 7};
p10 = newp;
Point(p10 + 1) = {18.47547608068555, 0.8918075267528239, 1};
Point(p10 + 2) = {18.43780805197159, 1.048706158094832, 1};
Point(p10 + 3) = {18.37605942573808, 1.197780529005679, 1};
Point(p10 + 4) = {18.29175065809483, 1.33535993372407, 1};
Point(p10 + 5) = {18.18695771070597, 1.458056710705971, 1};
Point(p10 + 6) = {18.06426093372407, 1.562849658094831, 1};
Point(p10 + 7) = {17.92668152900568, 1.647158425738084, 1};
Point(p10 + 8) = {17.77760715809483, 1.708907051971595, 1};
Point(p10 + 9) = {17.62070852675282, 1.746575080685552, 1};
Point(p10 + 10) = {17.459849, 1.759235, 1};
Point(p10 + 11) = {17.29898947324718, 1.746575080685552, 1};
Point(p10 + 12) = {17.14209084190517, 1.708907051971595, 1};
Point(p10 + 13) = {16.99301647099432, 1.647158425738084, 1};
Point(p10 + 14) = {16.85543706627593, 1.562849658094831, 1};
Point(p10 + 15) = {16.73274028929403, 1.458056710705971, 1};
Point(p10 + 16) = {16.62794734190517, 1.33535993372407, 1};
Point(p10 + 17) = {16.54363857426192, 1.19778052900568, 1};
Point(p10 + 18) = {16.4818899480284, 1.048706158094832, 1};
Point(p10 + 19) = {16.44422191931445, 0.891807526752824, 1};
Point(p10 + 20) = {16.431562, 0.7309480000000002, 1};
Point(p10 + 21) = {16.44422191931445, 0.5700884732471763, 1};
Point(p10 + 22) = {16.4818899480284, 0.4131898419051682, 1};
Point(p10 + 23) = {16.54363857426191, 0.2641154709943213, 1};
Point(p10 + 24) = {16.62794734190517, 0.1265360662759298, 1};
Point(p10 + 25) = {16.73274028929403, 0.003839289294028769, 1};
Point(p10 + 26) = {16.85543706627593, -0.1009536580948314, 1};
Point(p10 + 27) = {16.99301647099432, -0.185262425738084, 1};
Point(p10 + 28) = {17.14209084190517, -0.2470110519715945, 1};
Point(p10 + 29) = {17.29898947324718, -0.2846790806855523, 1};
Point(p10 + 30) = {17.459849, -0.2973389999999999, 1};
Point(p10 + 31) = {17.62070852675282, -0.2846790806855523, 1};
Point(p10 + 32) = {17.77760715809483, -0.2470110519715946, 1};
Point(p10 + 33) = {17.92668152900568, -0.1852624257380842, 1};
Point(p10 + 34) = {18.06426093372407, -0.1009536580948316, 1};
Point(p10 + 35) = {18.18695771070597, 0.003839289294028547, 1};
Point(p10 + 36) = {18.29175065809483, 0.1265360662759295, 1};
Point(p10 + 37) = {18.37605942573808, 0.2641154709943205, 1};
Point(p10 + 38) = {18.43780805197159, 0.4131898419051683, 1};
Point(p10 + 39) = {18.47547608068555, 0.5700884732471759, 1};
Spline(10) = {8, p10 + 1, p10 + 2, p10 + 3, p10 + 4, p10 + 5, p10 + 6, p10 + 7, p10 + 8, p10 + 9, p10 + 10, p10 + 11, p10 + 12, p10 + 13, p10 + 14, p10 + 15, p10 + 16, p10 + 17, p10 + 18, p10 + 19, p10 + 20, p10 + 21, p10 + 22, p10 + 23, p10 + 24, p10 + 25, p10 + 26, p10 + 27, p10 + 28, p10 + 29, p10 + 30, p10 + 31, p10 + 32, p10 + 33, p10 + 34, p10 + 35, p10 + 36, p10 + 37, p10 + 38, p10 + 39, 8};
p11 = newp;
Point(p11 + 1) = {5.667879469325033, 2.974935453759682, 1};
Point(p11 + 2) = {5.628742760879416, 3.137951576450306, 1};
Point(p11 + 3) = {5.564586550312368, 3.292838370111737, 1};
Point(p11 + 4) = {5.476990576450306, 3.435782007844232, 1};
Point(p11 + 5) = {5.368111742884084, 3.563262742884084, 1};
Point(p11 + 6) = {5.240631007844232, 3.672141576450306, 1};
Point(p11 + 7) = {5.097687370111737, 3.759737550312368, 1};
Point(p11 + 8) = {4.942800576450306, 3.823893760879416, 1};
Point(p11 + 9) = {4.779784453759682, 3.863030469325033, 1};
Point(p11 + 10) = {4.612653, 3.876184, 1};
Point(p11 + 11) = {4.445521546240318, 3.863030469325033, 1};
Point(p11 + 12) = {4.282505423549694, 3.823893760879416, 1};
Point(p11 + 13) = {4.127618629888263, 3.759737550312368, 1};
Point(p11 + 14) = {3.984674992155767, 3.672141576450306, 1};
Point(p11 + 15) = {3.857194257115916, 3.563262742884084, 1};
Point(p11 + 16) = {3.748315423549694, 3.435782007844232, 1};
Point(p11 + 17) = {3.660719449687631, 3.292838370111737, 1};
Point(p11 + 18) = {3.596563239120584, 3.137951576450306, 1};
Point(p11 + 19) = {3.557426530674967, 2.974935453759682, 1};
Point(p11 + 20) = {3.544273, 2.807804, 1};
Point(p11 + 21) = {3.557426530674967, 2.640672546240318, 1};
Point(p11 + 22) = {3.596563239120584, 2.477656423549693, 1};
Point(p11 + 23) = {3.660719449687631, 2.322769629888263, 1};
Point(p11 + 24) = {3.748315423549693, 2.179825992155767, 1};
Point(p11 + 25) = {3.857194257115916, 2.052345257115916, 1};
Point(p11 + 26) = {3.984674992155767, 1.943466423549694, 1};
Point(p11 + 27) = {4.127618629888262, 1.855870449687631, 1};
Point(p11 + 28) = {4.282505423549694, 1.791714239120584, 1};
Point(p11 + 29) = {4.445521546240318, 1.752577530674967, 1};
Point(p11 + 30) = {4.612653, 1.739424, 1};
Point(p11 + 31) = {4.779784453759682, 1.752577530674966, 1};
Point(p11 + 32) = {4.942800576450306, 1.791714239120584, 1};
Point(p11 + 33) = {5.097687370111736, 1.855870449687631, 1};
Point(p11 + 34) = {5.240631007844232, 1.943466423549693, 1};
Point(p11 + 35) = {5.368111742884084, 2.052345257115916, 1};
Point(p11 + 36) = {5.476990576450306, 2.179825992155767, 1};
Point(p11 + 37) = {5.564586550312368, 2.322769629888263, 1};
Point(p11 + 38) = {5.628742760879416, 2.477656423549694, 1};
Point(p11 + 39) = {5.667879469325033, 2.640672546240318, 1};
Spline(11) = {9, p11 + 1, p11 + 2, p11 + 3, p11 + 4, p11 + 5, p11 + 6, p11 + 7, p11 + 8, p11 + 9, p11 + 10, p11 + 11, p11 + 12, p11 + 13, p11 + 14, p11 + 15, p11 + 16, p11 + 17, p11 + 18, p11 + 19, p11 + 20, p11 + 21, p11 + 22, p11 + 23, p11 + 24, p11 + 25, p11 + 26, p11 + 27, p11 + 28, p11 + 29, p11 + 30, p11 + 31, p11 + 32, p11 + 33, p11 + 34, p11 + 35, p11 + 36, p11 + 37, p11 + 38, p11 + 39, 9};
Line(12) = {4, 10};
Line(13) = {10, 7};
Line(14) = {5, 10};
p15 = newp;
Point(p15 + 1) = {18.47547608068555, 0.8918075267528239, 0};
Point(p15 + 2) = {18.43780805197159, 1.048706158094832, 0};
Point(p15 + 3) = {18.37605942573808, 1.197780529005679, 0};
Point(p15 + 4) = {18.29175065809483, 1.33535993372407, 0};
Point(p15 + 5) = {18.18695771070597, 1.458056710705971, 0};
Point(p15 + 6) = {18.06426093372407, 1.562849658094831, 0};
Point(p15 + 7) = {17.92668152900568, 1.647158425738084, 0};
Point(p15 + 8) = {17.77760715809483, 1.708907051971595, 0};
Point(p15 + 9) = {17.62070852675282, 1.746575080685552, 0};
Point(p15 + 10) = {17.459849, 1.759235, 0};
Point(p15 + 11) = {17.29898947324718, 1.746575080685552, 0};
Point(p15 + 12) = {17.14209084190517, 1.708907051971595, 0};
Point(p15 + 13) = {16.99301647099432, 1.647158425738084, 0};
Point(p15 + 14) = {16.85543706627593, 1.562849658094831, 0};
Point(p15 + 15) = {16.73274028929403, 1.458056710705971, 0};
Point(p15 + 16) = {16.62794734190517, 1.33535993372407, 0};
Point(p15 + 17) = {16.54363857426192, 1.19778052900568, 0};
Point(p15 + 18) = {16.4818899480284, 1.048706158094832, 0};
Point(p15 + 19) = {16.44422191931445, 0.891807526752824, 0};
Point(p15 + 20) = {16.431562, 0.7309480000000002, 0};
Point(p15 + 21) = {16.44422191931445, 0.5700884732471763, 0};
Point(p15 + 22) = {16.4818899480284, 0.4131898419051682, 0};
Point(p15 + 23) = {16.54363857426191, 0.2641154709943213, 0};
Point(p15 + 24) = {16.62794734190517, 0.1265360662759298, 0};
Point(p15 + 25) = {16.73274028929403, 0.003839289294028769, 0};
Point(p15 + 26) = {16.85543706627593, -0.1009536580948314, 0};
Point(p15 + 27) = {16.99301647099432, -0.185262425738084, 0};
Point(p15 + 28) = {17.14209084190517, -0.2470110519715945, 0};
Point(p15 + 29) = {17.29898947324718, -0.2846790806855523, 0};
Point(p15 + 30) = {17.459849, -0.2973389999999999, 0};
Point(p15 + 31) = {17.62070852675282, -0.2846790806855523, 0};
Point(p15 + 32) = {17.77760715809483, -0.2470110519715946, 0};
Point(p15 + 33) = {17.92668152900568, -0.1852624257380842, 0};
Point(p15 + 34) = {18.06426093372407, -0.1009536580948316, 0};
Point(p15 + 35) = {18.18695771070597, 0.003839289294028547, 0};
Point(p15 + 36) = {18.29175065809483, 0.1265360662759295, 0};
Point(p15 + 37) = {18.37605942573808, 0.2641154709943205, 0};
Point(p15 + 38) = {18.43780805197159, 0.4131898419051683, 0};
Point(p15 + 39) = {18.47547608068555, 0.5700884732471759, 0};
Spline(15) = {11, p15 + 1, p15 + 2, p15 + 3, p15 + 4, p15 + 5, p15 + 6, p15 + 7, p15 + 8, p15 + 9, p15 + 10, p15 + 11, p15 + 12, p15 + 13, p15 + 14, p15 + 15, p15 + 16, p15 + 17, p15 + 18, p15 + 19, p15 + 20, p15 + 21, p15 + 22, p15 + 23, p15 + 24, p15 + 25, p15 + 26, p15 + 27, p15 + 28, p15 + 29, p15 + 30, p15 + 31, p15 + 32, p15 + 33, p15 + 34, p15 + 35, p15 + 36, p15 + 37, p15 + 38, p15 + 39, 11};
p16 = newp;
Point(p16 + 1) = {5.667879469325033, 2.974935453759682, 0};
Point(p16 + 2) = {5.628742760879416, 3.137951576450306, 0};
Point(p16 + 3) = {5.564586550312368, 3.292838370111737, 0};
Point(p16 + 4) = {5.476990576450306, 3.435782007844232, 0};
Point(p16 + 5) = {5.368111742884084, 3.563262742884084, 0};
Point(p16 + 6) = {5.240631007844232, 3.672141576450306, 0};
Point(p16 + 7) = {5.097687370111737, 3.759737550312368, 0};
Point(p16 + 8) = {4.942800576450306, 3.823893760879416, 0};
Point(p16 + 9) = {4.779784453759682, 3.863030469325033, 0};
Point(p16 + 10) = {4.612653, 3.876184, 0};
Point(p16 + 11) = {4.445521546240318, 3.863030469325033, 0};
Point(p16 + 12) = {4.282505423549694, 3.823893760879416, 0};
Point(p16 + 13) = {4.127618629888263, 3.759737550312368, 0};
Point(p16 + 14) = {3.984674992155767, 3.672141576450306, 0};
Point(p16 + 15) = {3.857194257115916, 3.563262742884084, 0};
Point(p16 + 16) = {3.748315423549694, 3.435782007844232, 0};
Point(p16 + 17) = {3.660719449687631, 3.292838370111737, 0};
Point(p16 + 18) = {3.596563239120584, 3.137951576450306, 0};
Point(p16 + 19) = {3.557426530674967, 2.974935453759682, 0};
Point(p16 + 20) = {3.544273, 2.807804, 0};
Point(p16 + 21) = {3.557426530674967, 2.640672546240318, 0};
Point(p16 + 22) = {3.596563239120584, 2.477656423549693, 0};
Point(p16 + 23) = {3.660719449687631, 2.322769629888263, 0};
Point(p16 + 24) = {3.748315423549693, 2.179825992155767, 0};
Point(p16 + 25) = {3.857194257115916, 2.052345257115916, 0};
Point(p16 + 26) = {3.984674992155767, 1.943466423549694, 0};
Point(p16 + 27) = {4.127618629888262, 1.855870449687631, 0};
Point(p16 + 28) = {4.282505423549694, 1.791714239120584, 0};
Point(p16 + 29) = {4.445521546240318, 1.752577530674967, 0};
Point(p16 + 30) = {4.612653, 1.739424, 0};
Point(p16 + 31) = {4.779784453759682, 1.752577530674966, 0};
Point(p16 + 32) = {4.942800576450306, 1.791714239120584, 0};
Point(p16 + 33) = {5.097687370111736, 1.855870449687631, 0};
Point(p16 + 34) = {5.240631007844232, 1.943466423549693, 0};
Point(p16 + 35) = {5.368111742884084, 2.052345257115916, 0};
Point(p16 + 36) = {5.476990576450306, 2.179825992155767, 0};
Point(p16 + 37) = {5.564586550312368, 2.322769629888263, 0};
Point(p16 + 38) = {5.628742760879416, 2.477656423549694, 0};
Point(p16 + 39) = {5.667879469325033, 2.640672546240318, 0};
Spline(16) = {12, p16 + 1, p16 + 2, p16 + 3, p16 + 4, p16 + 5, p16 + 6, p16 + 7, p16 + 8, p16 + 9, p16 + 10, p16 + 11, p16 + 12, p16 + 13, p16 + 14, p16 + 15, p16 + 16, p16 + 17, p16 + 18, p16 + 19, p16 + 20, p16 + 21, p16 + 22, p16 + 23, p16 + 24, p16 + 25, p16 + 26, p16 + 27, p16 + 28, p16 + 29, p16 + 30, p16 + 31, p16 + 32, p16 + 33, p16 + 34, p16 + 35, p16 + 36, p16 + 37, p16 + 38, p16 + 39, 12};
Line(17) = {11, 8};
Line(18) = {12, 9};
Curve Loop(1) = {-1, 4, 3, -2};
Plane Surface(1) = {1};
Curve Loop(2) = {-5, 1, 7, -6};
Plane Surface(2) = {2};
Curve Loop(3) = {-2, 7, 9, -8, -10, -11};
Plane Surface(3) = {3};
Curve Loop(4) = {-12, 3, 8, -13};
Plane Surface(4) = {4};
Curve Loop(5) = {-4, 5, 14, -12, -15, -16};
Plane Surface(5) = {5};
Curve Loop(6) = {-6, 14, 13, -9};
Plane Surface(6) = {6};
Curve Loop(7) = {-10, -17, 15, 17};
Surface(7) = {7};
Curve Loop(8) = {-11, -18, 16, 18};
Surface(8) = {8};
Surface Loop(1) = {1, 2, 3, 4, 5, 6, 7, 8};
Volume(1) = {1};
Physical Surface("INFLOW") = {1};
Physical Surface("OUTFLOW") = {6};
Physical Surface("OBSTACLE") = {7, 8};
Physical Surface("WALL_Y") = {2, 4};
Physical Surface("WALL_Z") = {3, 5};
Physical Volume("FLUID") = {1};
