cl__1 = 3.347073;
cl__2 = 1.048864;
cl__3 = 1.207309;
cl__4 = 0.054023;
Point(1) = {0.039861, -3.630931, 1, cl__1};
Point(2) = {0.039861, -3.630931, 0, cl__1};
Point(3) = {0.039861, 4.494989, 1, cl__1};
Point(4) = {0.039861, 4.494989, 0, cl__1};
Point(5) = {33.223216, -3.630931, 0, cl__2};
Point(6) = {33.223216, -3.630931, 1, cl__2};
Point(7) = {33.223216, 4.494989, 1, cl__3};
Point(8) = {22.875588, -1.872935, 1, cl__4};
Point(9) = {33.223216, 4.494989, 0, cl__3};
Point(10) = {22.875588, -1.872935, 0, cl__4};
Line(1) = {2, 1};
Line(2) = {1, 3};
Line(3) = {4, 3};
Line(4) = {2, 4};
Line(5) = {2, 5};
Line(6) = {5, 6};
Line(7) = {1, 6};
Line(8) = {3, 7};
Line(9) = {6, 7};
p10 = newp;
Point(p10 + 1) = {22.86893684761639, -1.788424096082386, 1};
Point(p10 + 2) = {22.84914716391117, -1.705994131094833, 1};
Point(p10 + 3) = {22.81670623657533, -1.627674804344705, 1};
Point(p10 + 4) = {22.77241286890517, -1.555394597583533, 1};
Point(p10 + 5) = {22.71735771061397, -1.490933289386029, 1};
Point(p10 + 6) = {22.65289640241647, -1.435878131094833, 1};
Point(p10 + 7) = {22.5806161956553, -1.39158476342467, 1};
Point(p10 + 8) = {22.50229686890517, -1.359143836088837, 1};
Point(p10 + 9) = {22.41986690391762, -1.339354152383608, 1};
Point(p10 + 10) = {22.335356, -1.332703, 1};
Point(p10 + 11) = {22.25084509608239, -1.339354152383608, 1};
Point(p10 + 12) = {22.16841513109484, -1.359143836088836, 1};
Point(p10 + 13) = {22.09009580434471, -1.39158476342467, 1};
Point(p10 + 14) = {22.01781559758354, -1.435878131094833, 1};
Point(p10 + 15) = {21.95335428938603, -1.490933289386029, 1};
Point(p10 + 16) = {21.89829913109483, -1.555394597583533, 1};
Point(p10 + 17) = {21.85400576342467, -1.627674804344705, 1};
Point(p10 + 18) = {21.82156483608884, -1.705994131094833, 1};
Point(p10 + 19) = {21.80177515238361, -1.788424096082386, 1};
Point(p10 + 20) = {21.795124, -1.872935, 1};
Point(p10 + 21) = {21.80177515238361, -1.957445903917614, 1};
Point(p10 + 22) = {21.82156483608884, -2.039875868905167, 1};
Point(p10 + 23) = {21.85400576342467, -2.118195195655295, 1};
Point(p10 + 24) = {21.89829913109483, -2.190475402416467, 1};
Point(p10 + 25) = {21.95335428938603, -2.254936710613971, 1};
Point(p10 + 26) = {22.01781559758354, -2.309991868905167, 1};
Point(p10 + 27) = {22.09009580434471, -2.35428523657533, 1};
Point(p10 + 28) = {22.16841513109484, -2.386726163911163, 1};
Point(p10 + 29) = {22.25084509608239, -2.406515847616392, 1};
Point(p10 + 30) = {22.335356, -2.413167, 1};
Point(p10 + 31) = {22.41986690391762, -2.406515847616392, 1};
Point(p10 + 32) = {22.50229686890517, -2.386726163911164, 1};
Point(p10 + 33) = {22.5806161956553, -2.35428523657533, 1};
Point(p10 + 34) = {22.65289640241647, -2.309991868905167, 1};
Point(p10 + 35) = {22.71735771061397, -2.254936710613971, 1};
Point(p10 + 36) = {22.77241286890517, -2.190475402416467, 1};
Point(p10 + 37) = {22.81670623657533, -2.118195195655295, 1};
Point(p10 + 38) = {22.84914716391117, -2.039875868905167, 1};
Point(p10 + 39) = {22.86893684761639, -1.957445903917614, 1};
Spline(10) = {8, p10 + 1, p10 + 2, p10 + 3, p10 + 4, p10 + 5, p10 + 6, p10 + 7, p10 + 8, p10 + 9, p10 + 10, p10 + 11, p10 + 12, p10 + 13, p10 + 14, p10 + 15, p10 + 16, p10 + 17, p10 + 18, p10 + 19, p10 + 20, p10 + 21, p10 + 22, p10 + 23, p10 + 24, p10 + 25, p10 + 26, p10 + 27, p10 + 28, p10 + 29, p10 + 30, p10 + 31, p10 + 32, p10 + 33, p10 + 34, p10 + 35, p10 + 36, p10 + 37, p10 + 38, p10 + 39, 8};
Line(11) = {4, 9};
Line(12) = {9, 7};
Line(13) = {5, 9};
p14 = newp;
Point(p14 + 1) = {22.86893684761639, -1.788424096082386, 0};
Point(p14 + 2) = {22.84914716391117, -1.705994131094833, 0};
Point(p14 + 3) = {22.81670623657533, -1.627674804344705, 0};
Point(p14 + 4) = {22.77241286890517, -1.555394597583533, 0};
Point(p14 + 5) = {22.71735771061397, -1.490933289386029, 0};
Point(p14 + 6) = {22.65289640241647, -1.435878131094833, 0};
Point(p14 + 7) = {22.5806161956553, -1.39158476342467, 0};
Point(p14 + 8) = {22.50229686890517, -1.359143836088837, 0};
Point(p14 + 9) = {22.41986690391762, -1.339354152383608, 0};
Point(p14 + 10) = {22.335356, -1.332703, 0};
Point(p14 + 11) = {22.25084509608239, -1.339354152383608, 0};
Point(p14 + 12) = {22.16841513109484, -1.359143836088836, 0};
Point(p14 + 13) = {22.09009580434471, -1.39158476342467, 0};
Point(p14 + 14) = {22.01781559758354, -1.435878131094833, 0};
Point(p14 + 15) = {21.95335428938603, -1.490933289386029, 0};
Point(p14 + 16) = {21.89829913109483, -1.555394597583533, 0};
Point(p14 + 17) = {21.85400576342467, -1.627674804344705, 0};
Point(p14 + 18) = {21.82156483608884, -1.705994131094833, 0};
Point(p14 + 19) = {21.80177515238361, -1.788424096082386, 0};
Point(p14 + 20) = {21.795124, -1.872935, 0};
Point(p14 + 21) = {21.80177515238361, -1.957445903917614, 0};
Point(p14 + 22) = {21.82156483608884, -2.039875868905167, 0};
Point(p14 + 23) = {21.85400576342467, -2.118195195655295, 0};
Point(p14 + 24) = {21.89829913109483, -2.190475402416467, 0};
Point(p14 + 25) = {21.95335428938603, -2.254936710613971, 0};
Point(p14 + 26) = {22.01781559758354, -2.309991868905167, 0};
Point(p14 + 27) = {22.09009580434471, -2.35428523657533, 0};
Point(p14 + 28) = {22.16841513109484, -2.386726163911163, 0};
Point(p14 + 29) = {22.25084509608239, -2.406515847616392, 0};
Point(p14 + 30) = {22.335356, -2.413167, 0};
Point(p14 + 31) = {22.41986690391762, -2.406515847616392, 0};
Point(p14 + 32) = {22.50229686890517, -2.386726163911164, 0};
Point(p14 + 33) = {22.5806161956553, -2.35428523657533, 0};
Point(p14 + 34) = {22.65289640241647, -2.309991868905167, 0};
Point(p14 + 35) = {22.71735771061397, -2.254936710613971, 0};
Point(p14 + 36) = {22.77241286890517, -2.190475402416467, 0};
Point(p14 + 37) = {22.81670623657533, -2.118195195655295, 0};
Point(p14 + 38) = {22.84914716391117, -2.039875868905167, 0};
Point(p14 + 39) = {22.86893684761639, -1.957445903917614, 0};
Spline(14) = {10, p14 + 1, p14 + 2, p14 + 3, p14 + 4, p14 + 5, p14 + 6, p14 + 7, p14 + 8, p14 + 9, p14 + 10, p14 + 11, p14 + 12, p14 + 13, p14 + 14, p14 + 15, p14 + 16, p14 + 17, p14 + 18, p14 + 19, p14 + 20, p14 + 21, p14 + 22, p14 + 23, p14 + 24, p14 + 25, p14 + 26, p14 + 27, p14 + 28, p14 + 29, p14 + 30, p14 + 31, p14 + 32, p14 + 33, p14 + 34, p14 + 35, p14 + 36, p14 + 37, p14 + 38, p14 + 39, 10};
Line(15) = {10, 8};
Curve Loop(1) = {-1, 4, 3, -2};
Plane Surface(1) = {1};
Curve Loop(2) = {-5, 1, 7, -6};
Plane Surface(2) = {2};
Curve Loop(3) = {-2, 7, 9, -8, -10};
Plane Surface(3) = {3};
Curve Loop(4) = {-11, 3, 8, -12};
Plane Surface(4) = {4};
Curve Loop(5) = {-4, 5, 13, -11, -14};
Plane Surface(5) = {5};
Curve Loop(6) = {-6, 13, 12, -9};
Plane Surface(6) = {6};
Curve Loop(7) = {-10, -15, 14, 15};
Surface(7) = {7};
Surface Loop(1) = {1, 2, 3, 4, 5, 6, 7};
Volume(1) = {1};
Physical Surface("INFLOW") = {1};
Physical Surface("OUTFLOW") = {6};
Physical Surface("OBSTACLE") = {7};
Physical Surface("WALL_Y") = {2, 4};
Physical Surface("WALL_Z") = {3, 5};
Physical Volume("FLUID") = {1};
