cl__1 = 0.918015;
cl__2 = 1.357741;
cl__3 = 3.167826;
cl__4 = 0.094484;
cl__5 = 0.147498;
Point(1) = {0.284175, -4.171667, 1, cl__1};
Point(2) = {0.284175, -4.171667, 0, cl__1};
Point(3) = {0.284175, 5.424627, 1, cl__2};
Point(4) = {0.284175, 5.424627, 0, cl__2};
Point(5) = {31.312771, -4.171667, 0, cl__1};
Point(6) = {31.312771, -4.171667, 1, cl__1};
Point(7) = {31.312771, 5.424627, 1, cl__3};
Point(8) = {17.872033, -2.183978000000001, 1, cl__4};
Point(9) = {11.657936, -0.2288260000000004, 1, cl__5};
Point(10) = {31.312771, 5.424627, 0, cl__3};
Point(11) = {17.872033, -2.183978000000001, 0, cl__4};
Point(12) = {11.657936, -0.2288260000000004, 0, cl__5};
Line(1) = {2, 1};
Line(2) = {1, 3};
Line(3) = {4, 3};
Line(4) = {2, 4};
Line(5) = {2, 5};
Line(6) = {5, 6};
Line(7) = {1, 6};
Line(8) = {3, 7};
Line(9) = {6, 7};
p10 = newp;
Point(p10 + 1) = {17.86040039016961, -2.036171677879063, 1};
Point(p10 + 2) = {17.8257889941389, -1.892004837949803, 1};
Point(p10 + 3) = {17.76905105934676, -1.755027346273588, 1};
Point(p10 + 4) = {17.6915836620502, -1.628612043297718, 1};
Point(p10 + 5) = {17.5952943066702, -1.515871693329797, 1};
Point(p10 + 6) = {17.48255395670228, -1.419582337949803, 1};
Point(p10 + 7) = {17.35613865372641, -1.342114940653242, 1};
Point(p10 + 8) = {17.2191611620502, -1.285377005861106, 1};
Point(p10 + 9) = {17.07499432212094, -1.250765609830387, 1};
Point(p10 + 10) = {16.927188, -1.239133, 1};
Point(p10 + 11) = {16.77938167787907, -1.250765609830387, 1};
Point(p10 + 12) = {16.6352148379498, -1.285377005861106, 1};
Point(p10 + 13) = {16.49823734627359, -1.342114940653242, 1};
Point(p10 + 14) = {16.37182204329772, -1.419582337949803, 1};
Point(p10 + 15) = {16.2590816933298, -1.515871693329797, 1};
Point(p10 + 16) = {16.1627923379498, -1.628612043297718, 1};
Point(p10 + 17) = {16.08532494065324, -1.755027346273588, 1};
Point(p10 + 18) = {16.02858700586111, -1.892004837949803, 1};
Point(p10 + 19) = {15.99397560983039, -2.036171677879063, 1};
Point(p10 + 20) = {15.982343, -2.183978, 1};
Point(p10 + 21) = {15.99397560983039, -2.331784322120937, 1};
Point(p10 + 22) = {16.02858700586111, -2.475951162050197, 1};
Point(p10 + 23) = {16.08532494065324, -2.612928653726412, 1};
Point(p10 + 24) = {16.1627923379498, -2.739343956702282, 1};
Point(p10 + 25) = {16.2590816933298, -2.852084306670204, 1};
Point(p10 + 26) = {16.37182204329772, -2.948373662050197, 1};
Point(p10 + 27) = {16.49823734627359, -3.025841059346758, 1};
Point(p10 + 28) = {16.6352148379498, -3.082578994138895, 1};
Point(p10 + 29) = {16.77938167787907, -3.117190390169613, 1};
Point(p10 + 30) = {16.927188, -3.128823, 1};
Point(p10 + 31) = {17.07499432212094, -3.117190390169613, 1};
Point(p10 + 32) = {17.2191611620502, -3.082578994138895, 1};
Point(p10 + 33) = {17.35613865372641, -3.025841059346759, 1};
Point(p10 + 34) = {17.48255395670228, -2.948373662050197, 1};
Point(p10 + 35) = {17.5952943066702, -2.852084306670204, 1};
Point(p10 + 36) = {17.6915836620502, -2.739343956702282, 1};
Point(p10 + 37) = {17.76905105934676, -2.612928653726413, 1};
Point(p10 + 38) = {17.8257889941389, -2.475951162050197, 1};
Point(p10 + 39) = {17.86040039016961, -2.331784322120937, 1};
Spline(10) = {8, p10 + 1, p10 + 2, p10 + 3, p10 + 4, p10 + 5, p10 + 6, p10 + 7, p10 + 8, p10 + 9, p10 + 10, p10 + 11, p10 + 12, p10 + 13, p10 + 14, p10 + 15, p10 + 16, p10 + 17, p10 + 18, p10 + 19, p10 + 20, p10 + 21, p10 + 22, p10 + 23, p10 + 24, p10 + 25, p10 + 26, p10 + 27, p10 + 28, p10 + 29, p10 + 30, p10 + 31, p10 + 32, p10 + 33, p10 + 34, p10 + 35, p10 + 36, p10 + 37, p10 + 38, p10 + 39, 8};
p11 = newp;
Point(p11 + 1) = {11.6397765239877, 0.00191202011396982, 1};
Point(p11 + 2) = {11.58574524251806, 0.2269685043971487, 1};
Point(p11 + 3) = {11.49717258506041, 0.4408018152868362, 1};
Point(p11 + 4) = {11.37623950439715, 0.6381466669968566, 1};
Point(p11 + 5) = {11.2259237743281, 0.8141437743280961, 1};
Point(p11 + 6) = {11.04992666699686, 0.9644595043971487, 1};
Point(p11 + 7) = {10.85258181528684, 1.085392585060407, 1};
Point(p11 + 8) = {10.63874850439715, 1.173965242518058, 1};
Point(p11 + 9) = {10.41369202011397, 1.227996523987698, 1};
Point(p11 + 10) = {10.182954, 1.246156, 1};
Point(p11 + 11) = {9.952215979886031, 1.227996523987697, 1};
Point(p11 + 12) = {9.727159495602852, 1.173965242518058, 1};
Point(p11 + 13) = {9.513326184713165, 1.085392585060407, 1};
Point(p11 + 14) = {9.315981333003144, 0.9644595043971487, 1};
Point(p11 + 15) = {9.139984225671904, 0.8141437743280964, 1};
Point(p11 + 16) = {8.989668495602851, 0.6381466669968568, 1};
Point(p11 + 17) = {8.868735414939593, 0.4408018152868364, 1};
Point(p11 + 18) = {8.780162757481943, 0.2269685043971488, 1};
Point(p11 + 19) = {8.726131476012304, 0.001912020113969959, 1};
Point(p11 + 20) = {8.707972, -0.2288259999999998, 1};
Point(p11 + 21) = {8.726131476012302, -0.4595640201139696, 1};
Point(p11 + 22) = {8.780162757481943, -0.6846205043971492, 1};
Point(p11 + 23) = {8.868735414939593, -0.8984538152868354, 1};
Point(p11 + 24) = {8.989668495602851, -1.095798666996856, 1};
Point(p11 + 25) = {9.139984225671904, -1.271795774328096, 1};
Point(p11 + 26) = {9.315981333003144, -1.422111504397149, 1};
Point(p11 + 27) = {9.513326184713165, -1.543044585060407, 1};
Point(p11 + 28) = {9.727159495602852, -1.631617242518058, 1};
Point(p11 + 29) = {9.952215979886031, -1.685648523987697, 1};
Point(p11 + 30) = {10.182954, -1.703808, 1};
Point(p11 + 31) = {10.41369202011397, -1.685648523987697, 1};
Point(p11 + 32) = {10.63874850439715, -1.631617242518058, 1};
Point(p11 + 33) = {10.85258181528684, -1.543044585060407, 1};
Point(p11 + 34) = {11.04992666699686, -1.422111504397149, 1};
Point(p11 + 35) = {11.2259237743281, -1.271795774328097, 1};
Point(p11 + 36) = {11.37623950439715, -1.095798666996857, 1};
Point(p11 + 37) = {11.49717258506041, -0.8984538152868364, 1};
Point(p11 + 38) = {11.58574524251806, -0.6846205043971489, 1};
Point(p11 + 39) = {11.6397765239877, -0.4595640201139701, 1};
Spline(11) = {9, p11 + 1, p11 + 2, p11 + 3, p11 + 4, p11 + 5, p11 + 6, p11 + 7, p11 + 8, p11 + 9, p11 + 10, p11 + 11, p11 + 12, p11 + 13, p11 + 14, p11 + 15, p11 + 16, p11 + 17, p11 + 18, p11 + 19, p11 + 20, p11 + 21, p11 + 22, p11 + 23, p11 + 24, p11 + 25, p11 + 26, p11 + 27, p11 + 28, p11 + 29, p11 + 30, p11 + 31, p11 + 32, p11 + 33, p11 + 34, p11 + 35, p11 + 36, p11 + 37, p11 + 38, p11 + 39, 9};
Line(12) = {4, 10};
Line(13) = {10, 7};
Line(14) = {5, 10};
p15 = newp;
Point(p15 + 1) = {17.86040039016961, -2.036171677879063, 0};
Point(p15 + 2) = {17.8257889941389, -1.892004837949803, 0};
Point(p15 + 3) = {17.76905105934676, -1.755027346273588, 0};
Point(p15 + 4) = {17.6915836620502, -1.628612043297718, 0};
Point(p15 + 5) = {17.5952943066702, -1.515871693329797, 0};
Point(p15 + 6) = {17.48255395670228, -1.419582337949803, 0};
Point(p15 + 7) = {17.35613865372641, -1.342114940653242, 0};
Point(p15 + 8) = {17.2191611620502, -1.285377005861106, 0};
Point(p15 + 9) = {17.07499432212094, -1.250765609830387, 0};
Point(p15 + 10) = {16.927188, -1.239133, 0};
Point(p15 + 11) = {16.77938167787907, -1.250765609830387, 0};
Point(p15 + 12) = {16.6352148379498, -1.285377005861106, 0};
Point(p15 + 13) = {16.49823734627359, -1.342114940653242, 0};
Point(p15 + 14) = {16.37182204329772, -1.419582337949803, 0};
Point(p15 + 15) = {16.2590816933298, -1.515871693329797, 0};
Point(p15 + 16) = {16.1627923379498, -1.628612043297718, 0};
Point(p15 + 17) = {16.08532494065324, -1.755027346273588, 0};
Point(p15 + 18) = {16.02858700586111, -1.892004837949803, 0};
Point(p15 + 19) = {15.99397560983039, -2.036171677879063, 0};
Point(p15 + 20) = {15.982343, -2.183978, 0};
Point(p15 + 21) = {15.99397560983039, -2.331784322120937, 0};
Point(p15 + 22) = {16.02858700586111, -2.475951162050197, 0};
Point(p15 + 23) = {16.08532494065324, -2.612928653726412, 0};
Point(p15 + 24) = {16.1627923379498, -2.739343956702282, 0};
Point(p15 + 25) = {16.2590816933298, -2.852084306670204, 0};
Point(p15 + 26) = {16.37182204329772, -2.948373662050197, 0};
Point(p15 + 27) = {16.49823734627359, -3.025841059346758, 0};
Point(p15 + 28) = {16.6352148379498, -3.082578994138895, 0};
Point(p15 + 29) = {16.77938167787907, -3.117190390169613, 0};
Point(p15 + 30) = {16.927188, -3.128823, 0};
Point(p15 + 31) = {17.07499432212094, -3.117190390169613, 0};
Point(p15 + 32) = {17.2191611620502, -3.082578994138895, 0};
Point(p15 + 33) = {17.35613865372641, -3.025841059346759, 0};
Point(p15 + 34) = {17.48255395670228, -2.948373662050197, 0};
Point(p15 + 35) = {17.5952943066702, -2.852084306670204, 0};
Point(p15 + 36) = {17.6915836620502, -2.739343956702282, 0};
Point(p15 + 37) = {17.76905105934676, -2.612928653726413, 0};
Point(p15 + 38) = {17.8257889941389, -2.475951162050197, 0};
Point(p15 + 39) = {17.86040039016961, -2.331784322120937, 0};
Spline(15) = {11, p15 + 1, p15 + 2, p15 + 3, p15 + 4, p15 + 5, p15 + 6, p15 + 7, p15 + 8, p15 + 9, p15 + 10, p15 + 11, p15 + 12, p15 + 13, p15 + 14, p15 + 15, p15 + 16, p15 + 17, p15 + 18, p15 + 19, p15 + 20, p15 + 21, p15 + 22, p15 + 23, p15 + 24, p15 + 25, p15 + 26, p15 + 27, p15 + 28, p15 + 29, p15 + 30, p15 + 31, p15 + 32, p15 + 33, p15 + 34, p15 + 35, p15 + 36, p15 + 37, p15 + 38, p15 + 39, 11};
p16 = newp;
Point(p16 + 1) = {11.6397765239877, 0.00191202011396982, 0};
Point(p16 + 2) = {11.58574524251806, 0.2269685043971487, 0};
Point(p16 + 3) = {11.49717258506041, 0.4408018152868362, 0};
Point(p16 + 4) = {11.37623950439715, 0.6381466669968566, 0};
Point(p16 + 5) = {11.2259237743281, 0.8141437743280961, 0};
Point(p16 + 6) = {11.04992666699686, 0.9644595043971487, 0};
Point(p16 + 7) = {10.85258181528684, 1.085392585060407, 0};
Point(p16 + 8) = {10.63874850439715, 1.173965242518058, 0};
Point(p16 + 9) = {10.41369202011397, 1.227996523987698, 0};
Point(p16 + 10) = {10.182954, 1.246156, 0};
Point(p16 + 11) = {9.952215979886031, 1.227996523987697, 0};
Point(p16 + 12) = {9.727159495602852, 1.173965242518058, 0};
Point(p16 + 13) = {9.513326184713165, 1.085392585060407, 0};
Point(p16 + 14) = {9.315981333003144, 0.9644595043971487, 0};
Point(p16 + 15) = {9.139984225671904, 0.8141437743280964, 0};
Point(p16 + 16) = {8.989668495602851, 0.6381466669968568, 0};
Point(p16 + 17) = {8.868735414939593, 0.4408018152868364, 0};
Point(p16 + 18) = {8.780162757481943, 0.2269685043971488, 0};
Point(p16 + 19) = {8.726131476012304, 0.001912020113969959, 0};
Point(p16 + 20) = {8.707972, -0.2288259999999998, 0};
Point(p16 + 21) = {8.726131476012302, -0.4595640201139696, 0};
Point(p16 + 22) = {8.780162757481943, -0.6846205043971492, 0};
Point(p16 + 23) = {8.868735414939593, -0.8984538152868354, 0};
Point(p16 + 24) = {8.989668495602851, -1.095798666996856, 0};
Point(p16 + 25) = {9.139984225671904, -1.271795774328096, 0};
Point(p16 + 26) = {9.315981333003144, -1.422111504397149, 0};
Point(p16 + 27) = {9.513326184713165, -1.543044585060407, 0};
Point(p16 + 28) = {9.727159495602852, -1.631617242518058, 0};
Point(p16 + 29) = {9.952215979886031, -1.685648523987697, 0};
Point(p16 + 30) = {10.182954, -1.703808, 0};
Point(p16 + 31) = {10.41369202011397, -1.685648523987697, 0};
Point(p16 + 32) = {10.63874850439715, -1.631617242518058, 0};
Point(p16 + 33) = {10.85258181528684, -1.543044585060407, 0};
Point(p16 + 34) = {11.04992666699686, -1.422111504397149, 0};
Point(p16 + 35) = {11.2259237743281, -1.271795774328097, 0};
Point(p16 + 36) = {11.37623950439715, -1.095798666996857, 0};
Point(p16 + 37) = {11.49717258506041, -0.8984538152868364, 0};
Point(p16 + 38) = {11.58574524251806, -0.6846205043971489, 0};
Point(p16 + 39) = {11.6397765239877, -0.4595640201139701, 0};
Spline(16) = {12, p16 + 1, p16 + 2, p16 + 3, p16 + 4, p16 + 5, p16 + 6, p16 + 7, p16 + 8, p16 + 9, p16 + 10, p16 + 11, p16 + 12, p16 + 13, p16 + 14, p16 + 15, p16 + 16, p16 + 17, p16 + 18, p16 + 19, p16 + 20, p16 + 21, p16 + 22, p16 + 23, p16 + 24, p16 + 25, p16 + 26, p16 + 27, p16 + 28, p16 + 29, p16 + 30, p16 + 31, p16 + 32, p16 + 33, p16 + 34, p16 + 35, p16 + 36, p16 + 37, p16 + 38, p16 + 39, 12};
Line(17) = {11, 8};
Line(18) = {12, 9};
Curve Loop(1) = {-1, 4, 3, -2};
Plane Surface(1) = {1};
Curve Loop(2) = {-5, 1, 7, -6};
Plane Surface(2) = {2};
Curve Loop(3) = {-2, 7, 9, -8, -10, -11};
Plane Surface(3) = {3};
Curve Loop(4) = {-12, 3, 8, -13};
Plane Surface(4) = {4};
Curve Loop(5) = {-4, 5, 14, -12, -15, -16};
Plane Surface(5) = {5};
Curve Loop(6) = {-6, 14, 13, -9};
Plane Surface(6) = {6};
Curve Loop(7) = {-10, -17, 15, 17};
Surface(7) = {7};
Curve Loop(8) = {-11, -18, 16, 18};
Surface(8) = {8};
Surface Loop(1) = {1, 2, 3, 4, 5, 6, 7, 8};
Volume(1) = {1};
Physical Surface("INFLOW") = {1};
Physical Surface("OUTFLOW") = {6};
Physical Surface("OBSTACLE") = {7, 8};
Physical Surface("WALL_Y") = {2, 4};
Physical Surface("WALL_Z") = {3, 5};
Physical Volume("FLUID") = {1};
