cl__1 = 1;
cl__2 = 0.088298;
cl__3 = 0.07284;
Point(1) = {0.566886, -3.510943, 1, cl__1};
Point(2) = {0.566886, -3.510943, 0, cl__1};
Point(3) = {0.566886, 4.246319, 1, cl__1};
Point(4) = {0.566886, 4.246319, 0, cl__1};
Point(5) = {32.551161, -3.510943, 0, cl__1};
Point(6) = {32.551161, -3.510943, 1, cl__1};
Point(7) = {32.551161, 4.246319, 1, cl__1};
Point(8) = {8.843413, -0.2190290000000002, 1, cl__2};
Point(9) = {19.409916, 1.72815, 1, cl__3};
Point(10) = {32.551161, 4.246319, 0, cl__1};
Point(11) = {8.843413, -0.2190290000000002, 0, cl__2};
Point(12) = {19.409916, 1.72815, 0, cl__3};
Line(1) = {2, 1};
Line(2) = {1, 3};
Line(3) = {4, 3};
Line(4) = {2, 4};
Line(5) = {2, 5};
Line(6) = {5, 6};
Line(7) = {1, 6};
Line(8) = {3, 7};
Line(9) = {6, 7};
p10 = newp;
Point(p10 + 1) = {8.832542063290354, -0.08090065249324199, 1};
Point(p10 + 2) = {8.800196931701779, 0.05382651667619667, 1};
Point(p10 + 3) = {8.747174049721322, 0.1818350774695252, 1};
Point(p10 + 4) = {8.674779016676197, 0.2999730342839556, 1};
Point(p10 + 5) = {8.584794438545316, 0.4053314385453164, 1};
Point(p10 + 6) = {8.479436034283957, 0.4953160166761966, 1};
Point(p10 + 7) = {8.361298077469526, 0.5677110497213207, 1};
Point(p10 + 8) = {8.233289516676196, 0.6207339317017783, 1};
Point(p10 + 9) = {8.098562347506759, 0.653079063290354, 1};
Point(p10 + 10) = {7.960434, 0.6639499999999999, 1};
Point(p10 + 11) = {7.822305652493242, 0.653079063290354, 1};
Point(p10 + 12) = {7.687578483323803, 0.6207339317017784, 1};
Point(p10 + 13) = {7.559569922530475, 0.5677110497213208, 1};
Point(p10 + 14) = {7.441431965716045, 0.4953160166761966, 1};
Point(p10 + 15) = {7.336073561454683, 0.4053314385453165, 1};
Point(p10 + 16) = {7.246088983323804, 0.2999730342839557, 1};
Point(p10 + 17) = {7.17369395027868, 0.1818350774695253, 1};
Point(p10 + 18) = {7.120671068298222, 0.05382651667619678, 1};
Point(p10 + 19) = {7.088325936709646, -0.08090065249324191, 1};
Point(p10 + 20) = {7.077455, -0.2190289999999999, 1};
Point(p10 + 21) = {7.088325936709646, -0.3571573475067579, 1};
Point(p10 + 22) = {7.120671068298222, -0.4918845166761969, 1};
Point(p10 + 23) = {7.173693950278679, -0.6198930774695248, 1};
Point(p10 + 24) = {7.246088983323803, -0.7380310342839556, 1};
Point(p10 + 25) = {7.336073561454683, -0.8433894385453164, 1};
Point(p10 + 26) = {7.441431965716045, -0.9333740166761966, 1};
Point(p10 + 27) = {7.559569922530475, -1.005769049721321, 1};
Point(p10 + 28) = {7.687578483323803, -1.058791931701778, 1};
Point(p10 + 29) = {7.822305652493242, -1.091137063290354, 1};
Point(p10 + 30) = {7.960434, -1.102008, 1};
Point(p10 + 31) = {8.098562347506759, -1.091137063290354, 1};
Point(p10 + 32) = {8.233289516676196, -1.058791931701778, 1};
Point(p10 + 33) = {8.361298077469526, -1.005769049721321, 1};
Point(p10 + 34) = {8.479436034283955, -0.9333740166761968, 1};
Point(p10 + 35) = {8.584794438545316, -0.8433894385453167, 1};
Point(p10 + 36) = {8.674779016676197, -0.7380310342839559, 1};
Point(p10 + 37) = {8.747174049721322, -0.6198930774695254, 1};
Point(p10 + 38) = {8.800196931701779, -0.4918845166761968, 1};
Point(p10 + 39) = {8.832542063290354, -0.3571573475067582, 1};
Spline(10) = {8, p10 + 1, p10 + 2, p10 + 3, p10 + 4, p10 + 5, p10 + 6, p10 + 7, p10 + 8, p10 + 9, p10 + 10, p10 + 11, p10 + 12, p10 + 13, p10 + 14, p10 + 15, p10 + 16, p10 + 17, p10 + 18, p10 + 19, p10 + 20, p10 + 21, p10 + 22, p10 + 23, p10 + 24, p10 + 25, p10 + 26, p10 + 27, p10 + 28, p10 + 29, p10 + 30, p10 + 31, p10 + 32, p10 + 33, p10 + 34, p10 + 35, p10 + 36, p10 + 37, p10 + 38, p10 + 39, 8};
p11 = newp;
Point(p11 + 1) = {19.40094813804286, 1.842097490073164, 1};
Point(p11 + 2) = {19.37426537069546, 1.953239214770689, 1};
Point(p11 + 3) = {19.33052471624491, 2.058838495972285, 1};
Point(p11 + 4) = {19.27080321477069, 2.156295128910847, 1};
Point(p11 + 5) = {19.19657140784341, 2.243209407843406, 1};
Point(p11 + 6) = {19.10965712891085, 2.317441214770689, 1};
Point(p11 + 7) = {19.01220049597229, 2.377162716244904, 1};
Point(p11 + 8) = {18.90660121477069, 2.420903370695455, 1};
Point(p11 + 9) = {18.79545949007317, 2.447586138042861, 1};
Point(p11 + 10) = {18.681512, 2.456554, 1};
Point(p11 + 11) = {18.56756450992684, 2.447586138042861, 1};
Point(p11 + 12) = {18.45642278522931, 2.420903370695455, 1};
Point(p11 + 13) = {18.35082350402772, 2.377162716244904, 1};
Point(p11 + 14) = {18.25336687108916, 2.317441214770689, 1};
Point(p11 + 15) = {18.1664525921566, 2.243209407843406, 1};
Point(p11 + 16) = {18.09222078522931, 2.156295128910847, 1};
Point(p11 + 17) = {18.0324992837551, 2.058838495972285, 1};
Point(p11 + 18) = {17.98875862930455, 1.953239214770689, 1};
Point(p11 + 19) = {17.96207586195714, 1.842097490073165, 1};
Point(p11 + 20) = {17.953108, 1.72815, 1};
Point(p11 + 21) = {17.96207586195714, 1.614202509926836, 1};
Point(p11 + 22) = {17.98875862930455, 1.503060785229311, 1};
Point(p11 + 23) = {18.0324992837551, 1.397461504027716, 1};
Point(p11 + 24) = {18.09222078522931, 1.300004871089154, 1};
Point(p11 + 25) = {18.1664525921566, 1.213090592156594, 1};
Point(p11 + 26) = {18.25336687108916, 1.138858785229311, 1};
Point(p11 + 27) = {18.35082350402772, 1.079137283755096, 1};
Point(p11 + 28) = {18.45642278522931, 1.035396629304545, 1};
Point(p11 + 29) = {18.56756450992684, 1.008713861957139, 1};
Point(p11 + 30) = {18.681512, 0.999746, 1};
Point(p11 + 31) = {18.79545949007317, 1.008713861957139, 1};
Point(p11 + 32) = {18.90660121477069, 1.035396629304545, 1};
Point(p11 + 33) = {19.01220049597229, 1.079137283755096, 1};
Point(p11 + 34) = {19.10965712891085, 1.138858785229311, 1};
Point(p11 + 35) = {19.19657140784341, 1.213090592156594, 1};
Point(p11 + 36) = {19.27080321477069, 1.300004871089153, 1};
Point(p11 + 37) = {19.33052471624491, 1.397461504027715, 1};
Point(p11 + 38) = {19.37426537069546, 1.503060785229311, 1};
Point(p11 + 39) = {19.40094813804286, 1.614202509926836, 1};
Spline(11) = {9, p11 + 1, p11 + 2, p11 + 3, p11 + 4, p11 + 5, p11 + 6, p11 + 7, p11 + 8, p11 + 9, p11 + 10, p11 + 11, p11 + 12, p11 + 13, p11 + 14, p11 + 15, p11 + 16, p11 + 17, p11 + 18, p11 + 19, p11 + 20, p11 + 21, p11 + 22, p11 + 23, p11 + 24, p11 + 25, p11 + 26, p11 + 27, p11 + 28, p11 + 29, p11 + 30, p11 + 31, p11 + 32, p11 + 33, p11 + 34, p11 + 35, p11 + 36, p11 + 37, p11 + 38, p11 + 39, 9};
Line(12) = {4, 10};
Line(13) = {10, 7};
Line(14) = {5, 10};
p15 = newp;
Point(p15 + 1) = {8.832542063290354, -0.08090065249324199, 0};
Point(p15 + 2) = {8.800196931701779, 0.05382651667619667, 0};
Point(p15 + 3) = {8.747174049721322, 0.1818350774695252, 0};
Point(p15 + 4) = {8.674779016676197, 0.2999730342839556, 0};
Point(p15 + 5) = {8.584794438545316, 0.4053314385453164, 0};
Point(p15 + 6) = {8.479436034283957, 0.4953160166761966, 0};
Point(p15 + 7) = {8.361298077469526, 0.5677110497213207, 0};
Point(p15 + 8) = {8.233289516676196, 0.6207339317017783, 0};
Point(p15 + 9) = {8.098562347506759, 0.653079063290354, 0};
Point(p15 + 10) = {7.960434, 0.6639499999999999, 0};
Point(p15 + 11) = {7.822305652493242, 0.653079063290354, 0};
Point(p15 + 12) = {7.687578483323803, 0.6207339317017784, 0};
Point(p15 + 13) = {7.559569922530475, 0.5677110497213208, 0};
Point(p15 + 14) = {7.441431965716045, 0.4953160166761966, 0};
Point(p15 + 15) = {7.336073561454683, 0.4053314385453165, 0};
Point(p15 + 16) = {7.246088983323804, 0.2999730342839557, 0};
Point(p15 + 17) = {7.17369395027868, 0.1818350774695253, 0};
Point(p15 + 18) = {7.120671068298222, 0.05382651667619678, 0};
Point(p15 + 19) = {7.088325936709646, -0.08090065249324191, 0};
Point(p15 + 20) = {7.077455, -0.2190289999999999, 0};
Point(p15 + 21) = {7.088325936709646, -0.3571573475067579, 0};
Point(p15 + 22) = {7.120671068298222, -0.4918845166761969, 0};
Point(p15 + 23) = {7.173693950278679, -0.6198930774695248, 0};
Point(p15 + 24) = {7.246088983323803, -0.7380310342839556, 0};
Point(p15 + 25) = {7.336073561454683, -0.8433894385453164, 0};
Point(p15 + 26) = {7.441431965716045, -0.9333740166761966, 0};
Point(p15 + 27) = {7.559569922530475, -1.005769049721321, 0};
Point(p15 + 28) = {7.687578483323803, -1.058791931701778, 0};
Point(p15 + 29) = {7.822305652493242, -1.091137063290354, 0};
Point(p15 + 30) = {7.960434, -1.102008, 0};
Point(p15 + 31) = {8.098562347506759, -1.091137063290354, 0};
Point(p15 + 32) = {8.233289516676196, -1.058791931701778, 0};
Point(p15 + 33) = {8.361298077469526, -1.005769049721321, 0};
Point(p15 + 34) = {8.479436034283955, -0.9333740166761968, 0};
Point(p15 + 35) = {8.584794438545316, -0.8433894385453167, 0};
Point(p15 + 36) = {8.674779016676197, -0.7380310342839559, 0};
Point(p15 + 37) = {8.747174049721322, -0.6198930774695254, 0};
Point(p15 + 38) = {8.800196931701779, -0.4918845166761968, 0};
Point(p15 + 39) = {8.832542063290354, -0.3571573475067582, 0};
Spline(15) = {11, p15 + 1, p15 + 2, p15 + 3, p15 + 4, p15 + 5, p15 + 6, p15 + 7, p15 + 8, p15 + 9, p15 + 10, p15 + 11, p15 + 12, p15 + 13, p15 + 14, p15 + 15, p15 + 16, p15 + 17, p15 + 18, p15 + 19, p15 + 20, p15 + 21, p15 + 22, p15 + 23, p15 + 24, p15 + 25, p15 + 26, p15 + 27, p15 + 28, p15 + 29, p15 + 30, p15 + 31, p15 + 32, p15 + 33, p15 + 34, p15 + 35, p15 + 36, p15 + 37, p15 + 38, p15 + 39, 11};
p16 = newp;
Point(p16 + 1) = {19.40094813804286, 1.842097490073164, 0};
Point(p16 + 2) = {19.37426537069546, 1.953239214770689, 0};
Point(p16 + 3) = {19.33052471624491, 2.058838495972285, 0};
Point(p16 + 4) = {19.27080321477069, 2.156295128910847, 0};
Point(p16 + 5) = {19.19657140784341, 2.243209407843406, 0};
Point(p16 + 6) = {19.10965712891085, 2.317441214770689, 0};
Point(p16 + 7) = {19.01220049597229, 2.377162716244904, 0};
Point(p16 + 8) = {18.90660121477069, 2.420903370695455, 0};
Point(p16 + 9) = {18.79545949007317, 2.447586138042861, 0};
Point(p16 + 10) = {18.681512, 2.456554, 0};
Point(p16 + 11) = {18.56756450992684, 2.447586138042861, 0};
Point(p16 + 12) = {18.45642278522931, 2.420903370695455, 0};
Point(p16 + 13) = {18.35082350402772, 2.377162716244904, 0};
Point(p16 + 14) = {18.25336687108916, 2.317441214770689, 0};
Point(p16 + 15) = {18.1664525921566, 2.243209407843406, 0};
Point(p16 + 16) = {18.09222078522931, 2.156295128910847, 0};
Point(p16 + 17) = {18.0324992837551, 2.058838495972285, 0};
Point(p16 + 18) = {17.98875862930455, 1.953239214770689, 0};
Point(p16 + 19) = {17.96207586195714, 1.842097490073165, 0};
Point(p16 + 20) = {17.953108, 1.72815, 0};
Point(p16 + 21) = {17.96207586195714, 1.614202509926836, 0};
Point(p16 + 22) = {17.98875862930455, 1.503060785229311, 0};
Point(p16 + 23) = {18.0324992837551, 1.397461504027716, 0};
Point(p16 + 24) = {18.09222078522931, 1.300004871089154, 0};
Point(p16 + 25) = {18.1664525921566, 1.213090592156594, 0};
Point(p16 + 26) = {18.25336687108916, 1.138858785229311, 0};
Point(p16 + 27) = {18.35082350402772, 1.079137283755096, 0};
Point(p16 + 28) = {18.45642278522931, 1.035396629304545, 0};
Point(p16 + 29) = {18.56756450992684, 1.008713861957139, 0};
Point(p16 + 30) = {18.681512, 0.999746, 0};
Point(p16 + 31) = {18.79545949007317, 1.008713861957139, 0};
Point(p16 + 32) = {18.90660121477069, 1.035396629304545, 0};
Point(p16 + 33) = {19.01220049597229, 1.079137283755096, 0};
Point(p16 + 34) = {19.10965712891085, 1.138858785229311, 0};
Point(p16 + 35) = {19.19657140784341, 1.213090592156594, 0};
Point(p16 + 36) = {19.27080321477069, 1.300004871089153, 0};
Point(p16 + 37) = {19.33052471624491, 1.397461504027715, 0};
Point(p16 + 38) = {19.37426537069546, 1.503060785229311, 0};
Point(p16 + 39) = {19.40094813804286, 1.614202509926836, 0};
Spline(16) = {12, p16 + 1, p16 + 2, p16 + 3, p16 + 4, p16 + 5, p16 + 6, p16 + 7, p16 + 8, p16 + 9, p16 + 10, p16 + 11, p16 + 12, p16 + 13, p16 + 14, p16 + 15, p16 + 16, p16 + 17, p16 + 18, p16 + 19, p16 + 20, p16 + 21, p16 + 22, p16 + 23, p16 + 24, p16 + 25, p16 + 26, p16 + 27, p16 + 28, p16 + 29, p16 + 30, p16 + 31, p16 + 32, p16 + 33, p16 + 34, p16 + 35, p16 + 36, p16 + 37, p16 + 38, p16 + 39, 12};
Line(17) = {11, 8};
Line(18) = {12, 9};
Curve Loop(1) = {-1, 4, 3, -2};
Plane Surface(1) = {1};
Curve Loop(2) = {-5, 1, 7, -6};
Plane Surface(2) = {2};
Curve Loop(3) = {-2, 7, 9, -8, -10, -11};
Plane Surface(3) = {3};
Curve Loop(4) = {-12, 3, 8, -13};
Plane Surface(4) = {4};
Curve Loop(5) = {-4, 5, 14, -12, -15, -16};
Plane Surface(5) = {5};
Curve Loop(6) = {-6, 14, 13, -9};
Plane Surface(6) = {6};
Curve Loop(7) = {-10, -17, 15, 17};
Surface(7) = {7};
Curve Loop(8) = {-11, -18, 16, 18};
Surface(8) = {8};
Surface Loop(1) = {1, 2, 3, 4, 5, 6, 7, 8};
Volume(1) = {1};
Physical Surface("INFLOW") = {1};
Physical Surface("OUTFLOW") = {6};
Physical Surface("OBSTACLE") = {7, 8};
Physical Surface("WALL_Y") = {2, 4};
Physical Surface("WALL_Z") = {3, 5};
Physical Volume("FLUID") = {1};
