cl__1 = 3.868653;
cl__2 = 0.486394;
cl__3 = 0.855805;
cl__4 = 0.080927;
cl__5 = 0.12888;
Point(1) = {0.966805, -3.971965, 1, cl__1};
Point(2) = {0.966805, -3.971965, 0, cl__1};
Point(3) = {0.966805, 5.183594, 1, cl__2};
Point(4) = {0.966805, 5.183594, 0, cl__2};
Point(5) = {38.41473, -3.971965, 0, cl__3};
Point(6) = {38.41473, -3.971965, 1, cl__3};
Point(7) = {38.41473, 5.183594, 1, cl__2};
Point(8) = {10.016351, 0.4827529999999998, 1, cl__4};
Point(9) = {37.431235, 1.745804, 1, cl__5};
Point(10) = {38.41473, 5.183594, 0, cl__2};
Point(11) = {10.016351, 0.4827529999999998, 0, cl__4};
Point(12) = {37.431235, 1.745804, 0, cl__5};
Line(1) = {2, 1};
Line(2) = {1, 3};
Line(3) = {4, 3};
Line(4) = {2, 4};
Line(5) = {2, 5};
Line(6) = {5, 6};
Line(7) = {1, 6};
Line(8) = {3, 7};
Line(9) = {6, 7};
p10 = newp;
Point(p10 + 1) = {10.00638755570509, 0.6093505630886425, 1};
Point(p10 + 2) = {9.976742555885663, 0.7328308740208194, 1};
Point(p10 + 3) = {9.928145958823396, 0.8501534377337232, 1};
Point(p10 + 4) = {9.861794374020819, 0.9584293833374775, 1};
Point(p10 + 5) = {9.779321597704056, 1.054992597704056, 1};
Point(p10 + 6) = {9.682758383337477, 1.137465374020819, 1};
Point(p10 + 7) = {9.574482437733723, 1.203816958823396, 1};
Point(p10 + 8) = {9.457159874020819, 1.252413555885663, 1};
Point(p10 + 9) = {9.333679563088642, 1.282058555705087, 1};
Point(p10 + 10) = {9.207082, 1.292022, 1};
Point(p10 + 11) = {9.080484436911357, 1.282058555705087, 1};
Point(p10 + 12) = {8.95700412597918, 1.252413555885663, 1};
Point(p10 + 13) = {8.839681562266277, 1.203816958823396, 1};
Point(p10 + 14) = {8.731405616662522, 1.137465374020819, 1};
Point(p10 + 15) = {8.634842402295943, 1.054992597704056, 1};
Point(p10 + 16) = {8.55236962597918, 0.9584293833374775, 1};
Point(p10 + 17) = {8.486018041176603, 0.8501534377337233, 1};
Point(p10 + 18) = {8.437421444114337, 0.7328308740208194, 1};
Point(p10 + 19) = {8.407776444294914, 0.6093505630886427, 1};
Point(p10 + 20) = {8.397812999999999, 0.4827530000000001, 1};
Point(p10 + 21) = {8.407776444294914, 0.3561554369113575, 1};
Point(p10 + 22) = {8.437421444114337, 0.2326751259791804, 1};
Point(p10 + 23) = {8.486018041176603, 0.1153525622662771, 1};
Point(p10 + 24) = {8.55236962597918, 0.007076616662522628, 1};
Point(p10 + 25) = {8.634842402295943, -0.08948659770405609, 1};
Point(p10 + 26) = {8.731405616662522, -0.1719593740208193, 1};
Point(p10 + 27) = {8.839681562266277, -0.2383109588233963, 1};
Point(p10 + 28) = {8.95700412597918, -0.2869075558856626, 1};
Point(p10 + 29) = {9.080484436911357, -0.3165525557050864, 1};
Point(p10 + 30) = {9.207082, -0.326516, 1};
Point(p10 + 31) = {9.333679563088642, -0.3165525557050866, 1};
Point(p10 + 32) = {9.457159874020819, -0.2869075558856627, 1};
Point(p10 + 33) = {9.574482437733723, -0.2383109588233964, 1};
Point(p10 + 34) = {9.682758383337477, -0.1719593740208195, 1};
Point(p10 + 35) = {9.779321597704056, -0.08948659770405631, 1};
Point(p10 + 36) = {9.861794374020819, 0.00707661666252235, 1};
Point(p10 + 37) = {9.928145958823396, 0.1153525622662765, 1};
Point(p10 + 38) = {9.976742555885663, 0.2326751259791805, 1};
Point(p10 + 39) = {10.00638755570509, 0.3561554369113572, 1};
Spline(10) = {8, p10 + 1, p10 + 2, p10 + 3, p10 + 4, p10 + 5, p10 + 6, p10 + 7, p10 + 8, p10 + 9, p10 + 10, p10 + 11, p10 + 12, p10 + 13, p10 + 14, p10 + 15, p10 + 16, p10 + 17, p10 + 18, p10 + 19, p10 + 20, p10 + 21, p10 + 22, p10 + 23, p10 + 24, p10 + 25, p10 + 26, p10 + 27, p10 + 28, p10 + 29, p10 + 30, p10 + 31, p10 + 32, p10 + 33, p10 + 34, p10 + 35, p10 + 36, p10 + 37, p10 + 38, p10 + 39, 8};
p11 = newp;
Point(p11 + 1) = {37.41536769642403, 1.947417207847244, 1};
Point(p11 + 2) = {37.36815649137074, 2.144066029401415, 1};
Point(p11 + 3) = {37.29076388139354, 2.330908318035827, 1};
Point(p11 + 4) = {37.18509552940142, 2.503343396510296, 1};
Point(p11 + 5) = {37.05375334091357, 2.657125340913566, 1};
Point(p11 + 6) = {36.8999713965103, 2.788467529401415, 1};
Point(p11 + 7) = {36.72753631803582, 2.894135881393541, 1};
Point(p11 + 8) = {36.54069402940141, 2.971528491370742, 1};
Point(p11 + 9) = {36.34404520784724, 3.018739696424035, 1};
Point(p11 + 10) = {36.142432, 3.034607, 1};
Point(p11 + 11) = {35.94081879215275, 3.018739696424035, 1};
Point(p11 + 12) = {35.74416997059858, 2.971528491370742, 1};
Point(p11 + 13) = {35.55732768196417, 2.894135881393541, 1};
Point(p11 + 14) = {35.3848926034897, 2.788467529401415, 1};
Point(p11 + 15) = {35.23111065908643, 2.657125340913566, 1};
Point(p11 + 16) = {35.09976847059858, 2.503343396510296, 1};
Point(p11 + 17) = {34.99410011860646, 2.330908318035827, 1};
Point(p11 + 18) = {34.91670750862926, 2.144066029401416, 1};
Point(p11 + 19) = {34.86949630357596, 1.947417207847245, 1};
Point(p11 + 20) = {34.853629, 1.745804, 1};
Point(p11 + 21) = {34.86949630357596, 1.544190792152755, 1};
Point(p11 + 22) = {34.91670750862926, 1.347541970598584, 1};
Point(p11 + 23) = {34.99410011860646, 1.160699681964174, 1};
Point(p11 + 24) = {35.09976847059858, 0.9882646034897038, 1};
Point(p11 + 25) = {35.23111065908643, 0.834482659086434, 1};
Point(p11 + 26) = {35.3848926034897, 0.7031404705985846, 1};
Point(p11 + 27) = {35.55732768196417, 0.5974721186064591, 1};
Point(p11 + 28) = {35.74416997059858, 0.5200795086292573, 1};
Point(p11 + 29) = {35.94081879215275, 0.4728683035759649, 1};
Point(p11 + 30) = {36.142432, 0.457001, 1};
Point(p11 + 31) = {36.34404520784724, 0.4728683035759647, 1};
Point(p11 + 32) = {36.54069402940141, 0.5200795086292571, 1};
Point(p11 + 33) = {36.72753631803582, 0.5974721186064589, 1};
Point(p11 + 34) = {36.8999713965103, 0.7031404705985844, 1};
Point(p11 + 35) = {37.05375334091357, 0.8344826590864337, 1};
Point(p11 + 36) = {37.18509552940142, 0.9882646034897035, 1};
Point(p11 + 37) = {37.29076388139354, 1.160699681964173, 1};
Point(p11 + 38) = {37.36815649137074, 1.347541970598584, 1};
Point(p11 + 39) = {37.41536769642403, 1.544190792152755, 1};
Spline(11) = {9, p11 + 1, p11 + 2, p11 + 3, p11 + 4, p11 + 5, p11 + 6, p11 + 7, p11 + 8, p11 + 9, p11 + 10, p11 + 11, p11 + 12, p11 + 13, p11 + 14, p11 + 15, p11 + 16, p11 + 17, p11 + 18, p11 + 19, p11 + 20, p11 + 21, p11 + 22, p11 + 23, p11 + 24, p11 + 25, p11 + 26, p11 + 27, p11 + 28, p11 + 29, p11 + 30, p11 + 31, p11 + 32, p11 + 33, p11 + 34, p11 + 35, p11 + 36, p11 + 37, p11 + 38, p11 + 39, 9};
Line(12) = {4, 10};
Line(13) = {10, 7};
Line(14) = {5, 10};
p15 = newp;
Point(p15 + 1) = {10.00638755570509, 0.6093505630886425, 0};
Point(p15 + 2) = {9.976742555885663, 0.7328308740208194, 0};
Point(p15 + 3) = {9.928145958823396, 0.8501534377337232, 0};
Point(p15 + 4) = {9.861794374020819, 0.9584293833374775, 0};
Point(p15 + 5) = {9.779321597704056, 1.054992597704056, 0};
Point(p15 + 6) = {9.682758383337477, 1.137465374020819, 0};
Point(p15 + 7) = {9.574482437733723, 1.203816958823396, 0};
Point(p15 + 8) = {9.457159874020819, 1.252413555885663, 0};
Point(p15 + 9) = {9.333679563088642, 1.282058555705087, 0};
Point(p15 + 10) = {9.207082, 1.292022, 0};
Point(p15 + 11) = {9.080484436911357, 1.282058555705087, 0};
Point(p15 + 12) = {8.95700412597918, 1.252413555885663, 0};
Point(p15 + 13) = {8.839681562266277, 1.203816958823396, 0};
Point(p15 + 14) = {8.731405616662522, 1.137465374020819, 0};
Point(p15 + 15) = {8.634842402295943, 1.054992597704056, 0};
Point(p15 + 16) = {8.55236962597918, 0.9584293833374775, 0};
Point(p15 + 17) = {8.486018041176603, 0.8501534377337233, 0};
Point(p15 + 18) = {8.437421444114337, 0.7328308740208194, 0};
Point(p15 + 19) = {8.407776444294914, 0.6093505630886427, 0};
Point(p15 + 20) = {8.397812999999999, 0.4827530000000001, 0};
Point(p15 + 21) = {8.407776444294914, 0.3561554369113575, 0};
Point(p15 + 22) = {8.437421444114337, 0.2326751259791804, 0};
Point(p15 + 23) = {8.486018041176603, 0.1153525622662771, 0};
Point(p15 + 24) = {8.55236962597918, 0.007076616662522628, 0};
Point(p15 + 25) = {8.634842402295943, -0.08948659770405609, 0};
Point(p15 + 26) = {8.731405616662522, -0.1719593740208193, 0};
Point(p15 + 27) = {8.839681562266277, -0.2383109588233963, 0};
Point(p15 + 28) = {8.95700412597918, -0.2869075558856626, 0};
Point(p15 + 29) = {9.080484436911357, -0.3165525557050864, 0};
Point(p15 + 30) = {9.207082, -0.326516, 0};
Point(p15 + 31) = {9.333679563088642, -0.3165525557050866, 0};
Point(p15 + 32) = {9.457159874020819, -0.2869075558856627, 0};
Point(p15 + 33) = {9.574482437733723, -0.2383109588233964, 0};
Point(p15 + 34) = {9.682758383337477, -0.1719593740208195, 0};
Point(p15 + 35) = {9.779321597704056, -0.08948659770405631, 0};
Point(p15 + 36) = {9.861794374020819, 0.00707661666252235, 0};
Point(p15 + 37) = {9.928145958823396, 0.1153525622662765, 0};
Point(p15 + 38) = {9.976742555885663, 0.2326751259791805, 0};
Point(p15 + 39) = {10.00638755570509, 0.3561554369113572, 0};
Spline(15) = {11, p15 + 1, p15 + 2, p15 + 3, p15 + 4, p15 + 5, p15 + 6, p15 + 7, p15 + 8, p15 + 9, p15 + 10, p15 + 11, p15 + 12, p15 + 13, p15 + 14, p15 + 15, p15 + 16, p15 + 17, p15 + 18, p15 + 19, p15 + 20, p15 + 21, p15 + 22, p15 + 23, p15 + 24, p15 + 25, p15 + 26, p15 + 27, p15 + 28, p15 + 29, p15 + 30, p15 + 31, p15 + 32, p15 + 33, p15 + 34, p15 + 35, p15 + 36, p15 + 37, p15 + 38, p15 + 39, 11};
p16 = newp;
Point(p16 + 1) = {37.41536769642403, 1.947417207847244, 0};
Point(p16 + 2) = {37.36815649137074, 2.144066029401415, 0};
Point(p16 + 3) = {37.29076388139354, 2.330908318035827, 0};
Point(p16 + 4) = {37.18509552940142, 2.503343396510296, 0};
Point(p16 + 5) = {37.05375334091357, 2.657125340913566, 0};
Point(p16 + 6) = {36.8999713965103, 2.788467529401415, 0};
Point(p16 + 7) = {36.72753631803582, 2.894135881393541, 0};
Point(p16 + 8) = {36.54069402940141, 2.971528491370742, 0};
Point(p16 + 9) = {36.34404520784724, 3.018739696424035, 0};
Point(p16 + 10) = {36.142432, 3.034607, 0};
Point(p16 + 11) = {35.94081879215275, 3.018739696424035, 0};
Point(p16 + 12) = {35.74416997059858, 2.971528491370742, 0};
Point(p16 + 13) = {35.55732768196417, 2.894135881393541, 0};
Point(p16 + 14) = {35.3848926034897, 2.788467529401415, 0};
Point(p16 + 15) = {35.23111065908643, 2.657125340913566, 0};
Point(p16 + 16) = {35.09976847059858, 2.503343396510296, 0};
Point(p16 + 17) = {34.99410011860646, 2.330908318035827, 0};
Point(p16 + 18) = {34.91670750862926, 2.144066029401416, 0};
Point(p16 + 19) = {34.86949630357596, 1.947417207847245, 0};
Point(p16 + 20) = {34.853629, 1.745804, 0};
Point(p16 + 21) = {34.86949630357596, 1.544190792152755, 0};
Point(p16 + 22) = {34.91670750862926, 1.347541970598584, 0};
Point(p16 + 23) = {34.99410011860646, 1.160699681964174, 0};
Point(p16 + 24) = {35.09976847059858, 0.9882646034897038, 0};
Point(p16 + 25) = {35.23111065908643, 0.834482659086434, 0};
Point(p16 + 26) = {35.3848926034897, 0.7031404705985846, 0};
Point(p16 + 27) = {35.55732768196417, 0.5974721186064591, 0};
Point(p16 + 28) = {35.74416997059858, 0.5200795086292573, 0};
Point(p16 + 29) = {35.94081879215275, 0.4728683035759649, 0};
Point(p16 + 30) = {36.142432, 0.457001, 0};
Point(p16 + 31) = {36.34404520784724, 0.4728683035759647, 0};
Point(p16 + 32) = {36.54069402940141, 0.5200795086292571, 0};
Point(p16 + 33) = {36.72753631803582, 0.5974721186064589, 0};
Point(p16 + 34) = {36.8999713965103, 0.7031404705985844, 0};
Point(p16 + 35) = {37.05375334091357, 0.8344826590864337, 0};
Point(p16 + 36) = {37.18509552940142, 0.9882646034897035, 0};
Point(p16 + 37) = {37.29076388139354, 1.160699681964173, 0};
Point(p16 + 38) = {37.36815649137074, 1.347541970598584, 0};
Point(p16 + 39) = {37.41536769642403, 1.544190792152755, 0};
Spline(16) = {12, p16 + 1, p16 + 2, p16 + 3, p16 + 4, p16 + 5, p16 + 6, p16 + 7, p16 + 8, p16 + 9, p16 + 10, p16 + 11, p16 + 12, p16 + 13, p16 + 14, p16 + 15, p16 + 16, p16 + 17, p16 + 18, p16 + 19, p16 + 20, p16 + 21, p16 + 22, p16 + 23, p16 + 24, p16 + 25, p16 + 26, p16 + 27, p16 + 28, p16 + 29, p16 + 30, p16 + 31, p16 + 32, p16 + 33, p16 + 34, p16 + 35, p16 + 36, p16 + 37, p16 + 38, p16 + 39, 12};
Line(17) = {11, 8};
Line(18) = {12, 9};
Curve Loop(1) = {-1, 4, 3, -2};
Plane Surface(1) = {1};
Curve Loop(2) = {-5, 1, 7, -6};
Plane Surface(2) = {2};
Curve Loop(3) = {-2, 7, 9, -8, -10, -11};
Plane Surface(3) = {3};
Curve Loop(4) = {-12, 3, 8, -13};
Plane Surface(4) = {4};
Curve Loop(5) = {-4, 5, 14, -12, -15, -16};
Plane Surface(5) = {5};
Curve Loop(6) = {-6, 14, 13, -9};
Plane Surface(6) = {6};
Curve Loop(7) = {-10, -17, 15, 17};
Surface(7) = {7};
Curve Loop(8) = {-11, -18, 16, 18};
Surface(8) = {8};
Surface Loop(1) = {1, 2, 3, 4, 5, 6, 7, 8};
Volume(1) = {1};
Physical Surface("INFLOW") = {1};
Physical Surface("OUTFLOW") = {6};
Physical Surface("OBSTACLE") = {7, 8};
Physical Surface("WALL_Y") = {2, 4};
Physical Surface("WALL_Z") = {3, 5};
Physical Volume("FLUID") = {1};
