cl__1 = 1.439971;
cl__2 = 1.447682;
cl__3 = 3.318178;
cl__4 = 0.08094700000000001;
Point(1) = {0.23753, -4.241472, 1, cl__1};
Point(2) = {0.23753, -4.241472, 0, cl__1};
Point(3) = {0.23753, 5.129868999999999, 1, cl__2};
Point(4) = {0.23753, 5.129868999999999, 0, cl__2};
Point(5) = {32.849279, -4.241472, 0, cl__3};
Point(6) = {32.849279, -4.241472, 1, cl__3};
Point(7) = {32.849279, 5.129868999999999, 1, cl__3};
Point(8) = {15.556428, 0.3187299999999998, 1, cl__4};
Point(9) = {32.849279, 5.129868999999999, 0, cl__3};
Point(10) = {15.556428, 0.3187299999999998, 0, cl__4};
Line(1) = {2, 1};
Line(2) = {1, 3};
Line(3) = {4, 3};
Line(4) = {2, 4};
Line(5) = {2, 5};
Line(6) = {5, 6};
Line(7) = {1, 6};
Line(8) = {3, 7};
Line(9) = {6, 7};
p10 = newp;
Point(p10 + 1) = {15.54646210568487, 0.4453586935471856, 1};
Point(p10 + 2) = {15.5168098161324, 0.5688693684027, 1};
Point(p10 + 3) = {15.46820126912171, 0.6862207818431714, 1};
Point(p10 + 4) = {15.4018333684027, 0.7945233526026836, 1};
Point(p10 + 5) = {15.31934031195351, 0.8911103119535122, 1};
Point(p10 + 6) = {15.22275335260268, 0.9736033684026999, 1};
Point(p10 + 7) = {15.11445078184317, 1.03997126912171, 1};
Point(p10 + 8) = {14.9970993684027, 1.088579816132405, 1};
Point(p10 + 9) = {14.87358869354719, 1.118232105684865, 1};
Point(p10 + 10) = {14.74696, 1.128198, 1};
Point(p10 + 11) = {14.62033130645281, 1.118232105684865, 1};
Point(p10 + 12) = {14.4968206315973, 1.088579816132405, 1};
Point(p10 + 13) = {14.37946921815683, 1.03997126912171, 1};
Point(p10 + 14) = {14.27116664739732, 0.9736033684026999, 1};
Point(p10 + 15) = {14.17457968804649, 0.8911103119535122, 1};
Point(p10 + 16) = {14.0920866315973, 0.7945233526026838, 1};
Point(p10 + 17) = {14.02571873087829, 0.6862207818431716, 1};
Point(p10 + 18) = {13.97711018386759, 0.5688693684027, 1};
Point(p10 + 19) = {13.94745789431513, 0.4453586935471857, 1};
Point(p10 + 20) = {13.937492, 0.3187300000000001, 1};
Point(p10 + 21) = {13.94745789431513, 0.1921013064528145, 1};
Point(p10 + 22) = {13.97711018386759, 0.06859063159729983, 1};
Point(p10 + 23) = {14.02571873087829, -0.04876078184317101, 1};
Point(p10 + 24) = {14.0920866315973, -0.1570633526026835, 1};
Point(p10 + 25) = {14.17457968804649, -0.2536503119535121, 1};
Point(p10 + 26) = {14.27116664739732, -0.3361433684026998, 1};
Point(p10 + 27) = {14.37946921815683, -0.4025112691217097, 1};
Point(p10 + 28) = {14.4968206315973, -0.4511198161324053, 1};
Point(p10 + 29) = {14.62033130645281, -0.4807721056848649, 1};
Point(p10 + 30) = {14.74696, -0.490738, 1};
Point(p10 + 31) = {14.87358869354719, -0.4807721056848649, 1};
Point(p10 + 32) = {14.9970993684027, -0.4511198161324054, 1};
Point(p10 + 33) = {15.11445078184317, -0.4025112691217097, 1};
Point(p10 + 34) = {15.22275335260268, -0.3361433684027, 1};
Point(p10 + 35) = {15.31934031195351, -0.2536503119535123, 1};
Point(p10 + 36) = {15.4018333684027, -0.1570633526026838, 1};
Point(p10 + 37) = {15.46820126912171, -0.04876078184317156, 1};
Point(p10 + 38) = {15.5168098161324, 0.06859063159729994, 1};
Point(p10 + 39) = {15.54646210568487, 0.1921013064528142, 1};
Spline(10) = {8, p10 + 1, p10 + 2, p10 + 3, p10 + 4, p10 + 5, p10 + 6, p10 + 7, p10 + 8, p10 + 9, p10 + 10, p10 + 11, p10 + 12, p10 + 13, p10 + 14, p10 + 15, p10 + 16, p10 + 17, p10 + 18, p10 + 19, p10 + 20, p10 + 21, p10 + 22, p10 + 23, p10 + 24, p10 + 25, p10 + 26, p10 + 27, p10 + 28, p10 + 29, p10 + 30, p10 + 31, p10 + 32, p10 + 33, p10 + 34, p10 + 35, p10 + 36, p10 + 37, p10 + 38, p10 + 39, 8};
Line(11) = {4, 9};
Line(12) = {9, 7};
Line(13) = {5, 9};
p14 = newp;
Point(p14 + 1) = {15.54646210568487, 0.4453586935471856, 0};
Point(p14 + 2) = {15.5168098161324, 0.5688693684027, 0};
Point(p14 + 3) = {15.46820126912171, 0.6862207818431714, 0};
Point(p14 + 4) = {15.4018333684027, 0.7945233526026836, 0};
Point(p14 + 5) = {15.31934031195351, 0.8911103119535122, 0};
Point(p14 + 6) = {15.22275335260268, 0.9736033684026999, 0};
Point(p14 + 7) = {15.11445078184317, 1.03997126912171, 0};
Point(p14 + 8) = {14.9970993684027, 1.088579816132405, 0};
Point(p14 + 9) = {14.87358869354719, 1.118232105684865, 0};
Point(p14 + 10) = {14.74696, 1.128198, 0};
Point(p14 + 11) = {14.62033130645281, 1.118232105684865, 0};
Point(p14 + 12) = {14.4968206315973, 1.088579816132405, 0};
Point(p14 + 13) = {14.37946921815683, 1.03997126912171, 0};
Point(p14 + 14) = {14.27116664739732, 0.9736033684026999, 0};
Point(p14 + 15) = {14.17457968804649, 0.8911103119535122, 0};
Point(p14 + 16) = {14.0920866315973, 0.7945233526026838, 0};
Point(p14 + 17) = {14.02571873087829, 0.6862207818431716, 0};
Point(p14 + 18) = {13.97711018386759, 0.5688693684027, 0};
Point(p14 + 19) = {13.94745789431513, 0.4453586935471857, 0};
Point(p14 + 20) = {13.937492, 0.3187300000000001, 0};
Point(p14 + 21) = {13.94745789431513, 0.1921013064528145, 0};
Point(p14 + 22) = {13.97711018386759, 0.06859063159729983, 0};
Point(p14 + 23) = {14.02571873087829, -0.04876078184317101, 0};
Point(p14 + 24) = {14.0920866315973, -0.1570633526026835, 0};
Point(p14 + 25) = {14.17457968804649, -0.2536503119535121, 0};
Point(p14 + 26) = {14.27116664739732, -0.3361433684026998, 0};
Point(p14 + 27) = {14.37946921815683, -0.4025112691217097, 0};
Point(p14 + 28) = {14.4968206315973, -0.4511198161324053, 0};
Point(p14 + 29) = {14.62033130645281, -0.4807721056848649, 0};
Point(p14 + 30) = {14.74696, -0.490738, 0};
Point(p14 + 31) = {14.87358869354719, -0.4807721056848649, 0};
Point(p14 + 32) = {14.9970993684027, -0.4511198161324054, 0};
Point(p14 + 33) = {15.11445078184317, -0.4025112691217097, 0};
Point(p14 + 34) = {15.22275335260268, -0.3361433684027, 0};
Point(p14 + 35) = {15.31934031195351, -0.2536503119535123, 0};
Point(p14 + 36) = {15.4018333684027, -0.1570633526026838, 0};
Point(p14 + 37) = {15.46820126912171, -0.04876078184317156, 0};
Point(p14 + 38) = {15.5168098161324, 0.06859063159729994, 0};
Point(p14 + 39) = {15.54646210568487, 0.1921013064528142, 0};
Spline(14) = {10, p14 + 1, p14 + 2, p14 + 3, p14 + 4, p14 + 5, p14 + 6, p14 + 7, p14 + 8, p14 + 9, p14 + 10, p14 + 11, p14 + 12, p14 + 13, p14 + 14, p14 + 15, p14 + 16, p14 + 17, p14 + 18, p14 + 19, p14 + 20, p14 + 21, p14 + 22, p14 + 23, p14 + 24, p14 + 25, p14 + 26, p14 + 27, p14 + 28, p14 + 29, p14 + 30, p14 + 31, p14 + 32, p14 + 33, p14 + 34, p14 + 35, p14 + 36, p14 + 37, p14 + 38, p14 + 39, 10};
Line(15) = {10, 8};
Curve Loop(1) = {-1, 4, 3, -2};
Plane Surface(1) = {1};
Curve Loop(2) = {-5, 1, 7, -6};
Plane Surface(2) = {2};
Curve Loop(3) = {-2, 7, 9, -8, -10};
Plane Surface(3) = {3};
Curve Loop(4) = {-11, 3, 8, -12};
Plane Surface(4) = {4};
Curve Loop(5) = {-4, 5, 13, -11, -14};
Plane Surface(5) = {5};
Curve Loop(6) = {-6, 13, 12, -9};
Plane Surface(6) = {6};
Curve Loop(7) = {-10, -15, 14, 15};
Surface(7) = {7};
Surface Loop(1) = {1, 2, 3, 4, 5, 6, 7};
Volume(1) = {1};
Physical Surface("INFLOW") = {1};
Physical Surface("OUTFLOW") = {6};
Physical Surface("OBSTACLE") = {7};
Physical Surface("WALL_Y") = {2, 4};
Physical Surface("WALL_Z") = {3, 5};
Physical Volume("FLUID") = {1};
