cl__1 = 3.123996;
cl__2 = 1.29365;
cl__3 = 1.216318;
cl__4 = 0.054868;
Point(1) = {0.015646, -3.585889, 1, cl__1};
Point(2) = {0.015646, -3.585889, 0, cl__1};
Point(3) = {0.015646, 3.998052, 1, cl__1};
Point(4) = {0.015646, 3.998052, 0, cl__1};
Point(5) = {31.008967, -3.585889, 0, cl__2};
Point(6) = {31.008967, -3.585889, 1, cl__2};
Point(7) = {31.008967, 3.998052, 1, cl__3};
Point(8) = {19.085368, 1.541711, 1, cl__4};
Point(9) = {31.008967, 3.998052, 0, cl__3};
Point(10) = {19.085368, 1.541711, 0, cl__4};
Line(1) = {2, 1};
Line(2) = {1, 3};
Line(3) = {4, 3};
Line(4) = {2, 4};
Line(5) = {2, 5};
Line(6) = {5, 6};
Line(7) = {1, 6};
Line(8) = {3, 7};
Line(9) = {6, 7};
p10 = newp;
Point(p10 + 1) = {19.07861288796438, 1.627542836540414, 1};
Point(p10 + 2) = {19.05851388513476, 1.711261208405669, 1};
Point(p10 + 3) = {19.02556589566558, 1.790804691435096, 1};
Point(p10 + 4) = {18.98058020840567, 1.864214661086825, 1};
Point(p10 + 5) = {18.92466452027431, 1.92968352027431, 1};
Point(p10 + 6) = {18.85919566108682, 1.985599208405669, 1};
Point(p10 + 7) = {18.78578569143509, 2.030584895665577, 1};
Point(p10 + 8) = {18.70624220840567, 2.06353288513476, 1};
Point(p10 + 9) = {18.62252383654041, 2.083631887964378, 1};
Point(p10 + 10) = {18.536692, 2.090387, 1};
Point(p10 + 11) = {18.45086016345958, 2.083631887964378, 1};
Point(p10 + 12) = {18.36714179159433, 2.06353288513476, 1};
Point(p10 + 13) = {18.2875983085649, 2.030584895665577, 1};
Point(p10 + 14) = {18.21418833891317, 1.985599208405669, 1};
Point(p10 + 15) = {18.14871947972569, 1.92968352027431, 1};
Point(p10 + 16) = {18.09280379159433, 1.864214661086825, 1};
Point(p10 + 17) = {18.04781810433442, 1.790804691435096, 1};
Point(p10 + 18) = {18.01487011486524, 1.711261208405669, 1};
Point(p10 + 19) = {17.99477111203562, 1.627542836540414, 1};
Point(p10 + 20) = {17.988016, 1.541711, 1};
Point(p10 + 21) = {17.99477111203562, 1.455879163459586, 1};
Point(p10 + 22) = {18.01487011486524, 1.372160791594331, 1};
Point(p10 + 23) = {18.04781810433442, 1.292617308564905, 1};
Point(p10 + 24) = {18.09280379159433, 1.219207338913175, 1};
Point(p10 + 25) = {18.14871947972569, 1.15373847972569, 1};
Point(p10 + 26) = {18.21418833891317, 1.097822791594331, 1};
Point(p10 + 27) = {18.2875983085649, 1.052837104334423, 1};
Point(p10 + 28) = {18.36714179159433, 1.01988911486524, 1};
Point(p10 + 29) = {18.45086016345958, 0.9997901120356223, 1};
Point(p10 + 30) = {18.536692, 0.993035, 1};
Point(p10 + 31) = {18.62252383654041, 0.9997901120356222, 1};
Point(p10 + 32) = {18.70624220840567, 1.01988911486524, 1};
Point(p10 + 33) = {18.78578569143509, 1.052837104334423, 1};
Point(p10 + 34) = {18.85919566108682, 1.097822791594331, 1};
Point(p10 + 35) = {18.92466452027431, 1.15373847972569, 1};
Point(p10 + 36) = {18.98058020840567, 1.219207338913175, 1};
Point(p10 + 37) = {19.02556589566558, 1.292617308564904, 1};
Point(p10 + 38) = {19.05851388513476, 1.372160791594331, 1};
Point(p10 + 39) = {19.07861288796438, 1.455879163459586, 1};
Spline(10) = {8, p10 + 1, p10 + 2, p10 + 3, p10 + 4, p10 + 5, p10 + 6, p10 + 7, p10 + 8, p10 + 9, p10 + 10, p10 + 11, p10 + 12, p10 + 13, p10 + 14, p10 + 15, p10 + 16, p10 + 17, p10 + 18, p10 + 19, p10 + 20, p10 + 21, p10 + 22, p10 + 23, p10 + 24, p10 + 25, p10 + 26, p10 + 27, p10 + 28, p10 + 29, p10 + 30, p10 + 31, p10 + 32, p10 + 33, p10 + 34, p10 + 35, p10 + 36, p10 + 37, p10 + 38, p10 + 39, 8};
Line(11) = {4, 9};
Line(12) = {9, 7};
Line(13) = {5, 9};
p14 = newp;
Point(p14 + 1) = {19.07861288796438, 1.627542836540414, 0};
Point(p14 + 2) = {19.05851388513476, 1.711261208405669, 0};
Point(p14 + 3) = {19.02556589566558, 1.790804691435096, 0};
Point(p14 + 4) = {18.98058020840567, 1.864214661086825, 0};
Point(p14 + 5) = {18.92466452027431, 1.92968352027431, 0};
Point(p14 + 6) = {18.85919566108682, 1.985599208405669, 0};
Point(p14 + 7) = {18.78578569143509, 2.030584895665577, 0};
Point(p14 + 8) = {18.70624220840567, 2.06353288513476, 0};
Point(p14 + 9) = {18.62252383654041, 2.083631887964378, 0};
Point(p14 + 10) = {18.536692, 2.090387, 0};
Point(p14 + 11) = {18.45086016345958, 2.083631887964378, 0};
Point(p14 + 12) = {18.36714179159433, 2.06353288513476, 0};
Point(p14 + 13) = {18.2875983085649, 2.030584895665577, 0};
Point(p14 + 14) = {18.21418833891317, 1.985599208405669, 0};
Point(p14 + 15) = {18.14871947972569, 1.92968352027431, 0};
Point(p14 + 16) = {18.09280379159433, 1.864214661086825, 0};
Point(p14 + 17) = {18.04781810433442, 1.790804691435096, 0};
Point(p14 + 18) = {18.01487011486524, 1.711261208405669, 0};
Point(p14 + 19) = {17.99477111203562, 1.627542836540414, 0};
Point(p14 + 20) = {17.988016, 1.541711, 0};
Point(p14 + 21) = {17.99477111203562, 1.455879163459586, 0};
Point(p14 + 22) = {18.01487011486524, 1.372160791594331, 0};
Point(p14 + 23) = {18.04781810433442, 1.292617308564905, 0};
Point(p14 + 24) = {18.09280379159433, 1.219207338913175, 0};
Point(p14 + 25) = {18.14871947972569, 1.15373847972569, 0};
Point(p14 + 26) = {18.21418833891317, 1.097822791594331, 0};
Point(p14 + 27) = {18.2875983085649, 1.052837104334423, 0};
Point(p14 + 28) = {18.36714179159433, 1.01988911486524, 0};
Point(p14 + 29) = {18.45086016345958, 0.9997901120356223, 0};
Point(p14 + 30) = {18.536692, 0.993035, 0};
Point(p14 + 31) = {18.62252383654041, 0.9997901120356222, 0};
Point(p14 + 32) = {18.70624220840567, 1.01988911486524, 0};
Point(p14 + 33) = {18.78578569143509, 1.052837104334423, 0};
Point(p14 + 34) = {18.85919566108682, 1.097822791594331, 0};
Point(p14 + 35) = {18.92466452027431, 1.15373847972569, 0};
Point(p14 + 36) = {18.98058020840567, 1.219207338913175, 0};
Point(p14 + 37) = {19.02556589566558, 1.292617308564904, 0};
Point(p14 + 38) = {19.05851388513476, 1.372160791594331, 0};
Point(p14 + 39) = {19.07861288796438, 1.455879163459586, 0};
Spline(14) = {10, p14 + 1, p14 + 2, p14 + 3, p14 + 4, p14 + 5, p14 + 6, p14 + 7, p14 + 8, p14 + 9, p14 + 10, p14 + 11, p14 + 12, p14 + 13, p14 + 14, p14 + 15, p14 + 16, p14 + 17, p14 + 18, p14 + 19, p14 + 20, p14 + 21, p14 + 22, p14 + 23, p14 + 24, p14 + 25, p14 + 26, p14 + 27, p14 + 28, p14 + 29, p14 + 30, p14 + 31, p14 + 32, p14 + 33, p14 + 34, p14 + 35, p14 + 36, p14 + 37, p14 + 38, p14 + 39, 10};
Line(15) = {10, 8};
Curve Loop(1) = {-1, 4, 3, -2};
Plane Surface(1) = {1};
Curve Loop(2) = {-5, 1, 7, -6};
Plane Surface(2) = {2};
Curve Loop(3) = {-2, 7, 9, -8, -10};
Plane Surface(3) = {3};
Curve Loop(4) = {-11, 3, 8, -12};
Plane Surface(4) = {4};
Curve Loop(5) = {-4, 5, 13, -11, -14};
Plane Surface(5) = {5};
Curve Loop(6) = {-6, 13, 12, -9};
Plane Surface(6) = {6};
Curve Loop(7) = {-10, -15, 14, 15};
Surface(7) = {7};
Surface Loop(1) = {1, 2, 3, 4, 5, 6, 7};
Volume(1) = {1};
Physical Surface("INFLOW") = {1};
Physical Surface("OUTFLOW") = {6};
Physical Surface("OBSTACLE") = {7};
Physical Surface("WALL_Y") = {2, 4};
Physical Surface("WALL_Z") = {3, 5};
Physical Volume("FLUID") = {1};
