cl__1 = 1.265691;
cl__2 = 1.429382;
cl__3 = 3.436252;
cl__4 = 0.092014;
Point(1) = {0.706419, -4.364035, 1, cl__1};
Point(2) = {0.706419, -4.364035, 0, cl__1};
Point(3) = {0.706419, 4.492493000000001, 1, cl__2};
Point(4) = {0.706419, 4.492493000000001, 0, cl__2};
Point(5) = {34.07599399999999, -4.364035, 0, cl__3};
Point(6) = {34.07599399999999, -4.364035, 1, cl__3};
Point(7) = {34.07599399999999, 4.492493000000001, 1, cl__3};
Point(8) = {15.088064, -2.596429, 1, cl__4};
Point(9) = {34.07599399999999, 4.492493000000001, 0, cl__3};
Point(10) = {15.088064, -2.596429, 0, cl__4};
Line(1) = {2, 1};
Line(2) = {1, 3};
Line(3) = {4, 3};
Line(4) = {2, 4};
Line(5) = {2, 5};
Line(6) = {5, 6};
Line(7) = {1, 6};
Line(8) = {3, 7};
Line(9) = {6, 7};
p10 = newp;
Point(p10 + 1) = {15.07673550046857, -2.452486765600022, 1};
Point(p10 + 2) = {15.04302894712989, -2.312088866727859, 1};
Point(p10 + 3) = {14.98777430719278, -2.178692365607655, 1};
Point(p10 + 4) = {14.91233213327214, -2.055581926814595, 1};
Point(p10 + 5) = {14.81856006206812, -1.945788937931886, 1};
Point(p10 + 6) = {14.70876707318541, -1.852016866727858, 1};
Point(p10 + 7) = {14.58565663439235, -1.776574692807219, 1};
Point(p10 + 8) = {14.45226013327214, -1.721320052870112, 1};
Point(p10 + 9) = {14.31186223439998, -1.687613499531428, 1};
Point(p10 + 10) = {14.16792, -1.676285, 1};
Point(p10 + 11) = {14.02397776560002, -1.687613499531428, 1};
Point(p10 + 12) = {13.88357986672786, -1.721320052870112, 1};
Point(p10 + 13) = {13.75018336560765, -1.776574692807219, 1};
Point(p10 + 14) = {13.62707292681459, -1.852016866727858, 1};
Point(p10 + 15) = {13.51727993793189, -1.945788937931885, 1};
Point(p10 + 16) = {13.42350786672786, -2.055581926814595, 1};
Point(p10 + 17) = {13.34806569280722, -2.178692365607655, 1};
Point(p10 + 18) = {13.29281105287011, -2.312088866727859, 1};
Point(p10 + 19) = {13.25910449953143, -2.452486765600022, 1};
Point(p10 + 20) = {13.247776, -2.596429, 1};
Point(p10 + 21) = {13.25910449953143, -2.740371234399978, 1};
Point(p10 + 22) = {13.29281105287011, -2.880769133272142, 1};
Point(p10 + 23) = {13.34806569280722, -3.014165634392345, 1};
Point(p10 + 24) = {13.42350786672786, -3.137276073185405, 1};
Point(p10 + 25) = {13.51727993793189, -3.247069062068115, 1};
Point(p10 + 26) = {13.62707292681459, -3.340841133272141, 1};
Point(p10 + 27) = {13.75018336560765, -3.416283307192781, 1};
Point(p10 + 28) = {13.88357986672786, -3.471537947129888, 1};
Point(p10 + 29) = {14.02397776560002, -3.505244500468573, 1};
Point(p10 + 30) = {14.16792, -3.516573, 1};
Point(p10 + 31) = {14.31186223439998, -3.505244500468573, 1};
Point(p10 + 32) = {14.45226013327214, -3.471537947129888, 1};
Point(p10 + 33) = {14.58565663439235, -3.416283307192781, 1};
Point(p10 + 34) = {14.70876707318541, -3.340841133272142, 1};
Point(p10 + 35) = {14.81856006206812, -3.247069062068115, 1};
Point(p10 + 36) = {14.91233213327214, -3.137276073185406, 1};
Point(p10 + 37) = {14.98777430719278, -3.014165634392346, 1};
Point(p10 + 38) = {15.04302894712989, -2.880769133272142, 1};
Point(p10 + 39) = {15.07673550046857, -2.740371234399979, 1};
Spline(10) = {8, p10 + 1, p10 + 2, p10 + 3, p10 + 4, p10 + 5, p10 + 6, p10 + 7, p10 + 8, p10 + 9, p10 + 10, p10 + 11, p10 + 12, p10 + 13, p10 + 14, p10 + 15, p10 + 16, p10 + 17, p10 + 18, p10 + 19, p10 + 20, p10 + 21, p10 + 22, p10 + 23, p10 + 24, p10 + 25, p10 + 26, p10 + 27, p10 + 28, p10 + 29, p10 + 30, p10 + 31, p10 + 32, p10 + 33, p10 + 34, p10 + 35, p10 + 36, p10 + 37, p10 + 38, p10 + 39, 8};
Line(11) = {4, 9};
Line(12) = {9, 7};
Line(13) = {5, 9};
p14 = newp;
Point(p14 + 1) = {15.07673550046857, -2.452486765600022, 0};
Point(p14 + 2) = {15.04302894712989, -2.312088866727859, 0};
Point(p14 + 3) = {14.98777430719278, -2.178692365607655, 0};
Point(p14 + 4) = {14.91233213327214, -2.055581926814595, 0};
Point(p14 + 5) = {14.81856006206812, -1.945788937931886, 0};
Point(p14 + 6) = {14.70876707318541, -1.852016866727858, 0};
Point(p14 + 7) = {14.58565663439235, -1.776574692807219, 0};
Point(p14 + 8) = {14.45226013327214, -1.721320052870112, 0};
Point(p14 + 9) = {14.31186223439998, -1.687613499531428, 0};
Point(p14 + 10) = {14.16792, -1.676285, 0};
Point(p14 + 11) = {14.02397776560002, -1.687613499531428, 0};
Point(p14 + 12) = {13.88357986672786, -1.721320052870112, 0};
Point(p14 + 13) = {13.75018336560765, -1.776574692807219, 0};
Point(p14 + 14) = {13.62707292681459, -1.852016866727858, 0};
Point(p14 + 15) = {13.51727993793189, -1.945788937931885, 0};
Point(p14 + 16) = {13.42350786672786, -2.055581926814595, 0};
Point(p14 + 17) = {13.34806569280722, -2.178692365607655, 0};
Point(p14 + 18) = {13.29281105287011, -2.312088866727859, 0};
Point(p14 + 19) = {13.25910449953143, -2.452486765600022, 0};
Point(p14 + 20) = {13.247776, -2.596429, 0};
Point(p14 + 21) = {13.25910449953143, -2.740371234399978, 0};
Point(p14 + 22) = {13.29281105287011, -2.880769133272142, 0};
Point(p14 + 23) = {13.34806569280722, -3.014165634392345, 0};
Point(p14 + 24) = {13.42350786672786, -3.137276073185405, 0};
Point(p14 + 25) = {13.51727993793189, -3.247069062068115, 0};
Point(p14 + 26) = {13.62707292681459, -3.340841133272141, 0};
Point(p14 + 27) = {13.75018336560765, -3.416283307192781, 0};
Point(p14 + 28) = {13.88357986672786, -3.471537947129888, 0};
Point(p14 + 29) = {14.02397776560002, -3.505244500468573, 0};
Point(p14 + 30) = {14.16792, -3.516573, 0};
Point(p14 + 31) = {14.31186223439998, -3.505244500468573, 0};
Point(p14 + 32) = {14.45226013327214, -3.471537947129888, 0};
Point(p14 + 33) = {14.58565663439235, -3.416283307192781, 0};
Point(p14 + 34) = {14.70876707318541, -3.340841133272142, 0};
Point(p14 + 35) = {14.81856006206812, -3.247069062068115, 0};
Point(p14 + 36) = {14.91233213327214, -3.137276073185406, 0};
Point(p14 + 37) = {14.98777430719278, -3.014165634392346, 0};
Point(p14 + 38) = {15.04302894712989, -2.880769133272142, 0};
Point(p14 + 39) = {15.07673550046857, -2.740371234399979, 0};
Spline(14) = {10, p14 + 1, p14 + 2, p14 + 3, p14 + 4, p14 + 5, p14 + 6, p14 + 7, p14 + 8, p14 + 9, p14 + 10, p14 + 11, p14 + 12, p14 + 13, p14 + 14, p14 + 15, p14 + 16, p14 + 17, p14 + 18, p14 + 19, p14 + 20, p14 + 21, p14 + 22, p14 + 23, p14 + 24, p14 + 25, p14 + 26, p14 + 27, p14 + 28, p14 + 29, p14 + 30, p14 + 31, p14 + 32, p14 + 33, p14 + 34, p14 + 35, p14 + 36, p14 + 37, p14 + 38, p14 + 39, 10};
Line(15) = {10, 8};
Curve Loop(1) = {-1, 4, 3, -2};
Plane Surface(1) = {1};
Curve Loop(2) = {-5, 1, 7, -6};
Plane Surface(2) = {2};
Curve Loop(3) = {-2, 7, 9, -8, -10};
Plane Surface(3) = {3};
Curve Loop(4) = {-11, 3, 8, -12};
Plane Surface(4) = {4};
Curve Loop(5) = {-4, 5, 13, -11, -14};
Plane Surface(5) = {5};
Curve Loop(6) = {-6, 13, 12, -9};
Plane Surface(6) = {6};
Curve Loop(7) = {-10, -15, 14, 15};
Surface(7) = {7};
Surface Loop(1) = {1, 2, 3, 4, 5, 6, 7};
Volume(1) = {1};
Physical Surface("INFLOW") = {1};
Physical Surface("OUTFLOW") = {6};
Physical Surface("OBSTACLE") = {7};
Physical Surface("WALL_Y") = {2, 4};
Physical Surface("WALL_Z") = {3, 5};
Physical Volume("FLUID") = {1};
