cl__1 = 3.739261;
cl__2 = 1.448086;
cl__3 = 1.474431;
cl__4 = 0.135272;
cl__5 = 0.055717;
Point(1) = {0.9954229999999999, -3.387728, 1, cl__1};
Point(2) = {0.9954229999999999, -3.387728, 0, cl__1};
Point(3) = {0.9954229999999999, 4.499264, 1, cl__1};
Point(4) = {0.9954229999999999, 4.499264, 0, cl__1};
Point(5) = {37.184083, -3.387728, 0, cl__2};
Point(6) = {37.184083, -3.387728, 1, cl__2};
Point(7) = {37.184083, 4.499264, 1, cl__3};
Point(8) = {23.074828, 0.02248099999999967, 1, cl__4};
Point(9) = {20.718196, 1.955781, 1, cl__5};
Point(10) = {37.184083, 4.499264, 0, cl__3};
Point(11) = {23.074828, 0.02248099999999967, 0, cl__4};
Point(12) = {20.718196, 1.955781, 0, cl__5};
Line(1) = {2, 1};
Line(2) = {1, 3};
Line(3) = {4, 3};
Line(4) = {2, 4};
Line(5) = {2, 5};
Line(6) = {5, 6};
Line(7) = {1, 6};
Line(8) = {3, 7};
Line(9) = {6, 7};
p10 = newp;
Point(p10 + 1) = {23.05817377208985, 0.2340930295492211, 1};
Point(p10 + 2) = {23.00862117072278, 0.4404944686308788, 1};
Point(p10 + 3) = {22.92739034540009, 0.6366030288076796, 1};
Point(p10 + 4) = {22.81648146863088, 0.8175898664810742, 1};
Point(p10 + 5) = {22.67862548504667, 0.9789984850466664, 1};
Point(p10 + 6) = {22.51721686648107, 1.116854468630879, 1};
Point(p10 + 7) = {22.33623002880768, 1.227763345400089, 1};
Point(p10 + 8) = {22.14012146863088, 1.30899417072278, 1};
Point(p10 + 9) = {21.93372002954922, 1.358546772089855, 1};
Point(p10 + 10) = {21.722108, 1.375201, 1};
Point(p10 + 11) = {21.51049597045078, 1.358546772089855, 1};
Point(p10 + 12) = {21.30409453136912, 1.30899417072278, 1};
Point(p10 + 13) = {21.10798597119232, 1.227763345400089, 1};
Point(p10 + 14) = {20.92699913351893, 1.116854468630879, 1};
Point(p10 + 15) = {20.76559051495333, 0.9789984850466665, 1};
Point(p10 + 16) = {20.62773453136912, 0.8175898664810743, 1};
Point(p10 + 17) = {20.51682565459991, 0.6366030288076797, 1};
Point(p10 + 18) = {20.43559482927722, 0.4404944686308789, 1};
Point(p10 + 19) = {20.38604222791015, 0.2340930295492212, 1};
Point(p10 + 20) = {20.369388, 0.02248100000000017, 1};
Point(p10 + 21) = {20.38604222791015, -0.1891310295492209, 1};
Point(p10 + 22) = {20.43559482927722, -0.3955324686308793, 1};
Point(p10 + 23) = {20.51682565459991, -0.591641028807679, 1};
Point(p10 + 24) = {20.62773453136912, -0.7726278664810741, 1};
Point(p10 + 25) = {20.76559051495333, -0.9340364850466665, 1};
Point(p10 + 26) = {20.92699913351893, -1.071892468630879, 1};
Point(p10 + 27) = {21.10798597119232, -1.182801345400089, 1};
Point(p10 + 28) = {21.30409453136912, -1.26403217072278, 1};
Point(p10 + 29) = {21.51049597045078, -1.313584772089855, 1};
Point(p10 + 30) = {21.722108, -1.330239, 1};
Point(p10 + 31) = {21.93372002954922, -1.313584772089855, 1};
Point(p10 + 32) = {22.14012146863088, -1.26403217072278, 1};
Point(p10 + 33) = {22.33623002880768, -1.182801345400089, 1};
Point(p10 + 34) = {22.51721686648107, -1.071892468630879, 1};
Point(p10 + 35) = {22.67862548504667, -0.9340364850466668, 1};
Point(p10 + 36) = {22.81648146863088, -0.7726278664810745, 1};
Point(p10 + 37) = {22.92739034540009, -0.59164102880768, 1};
Point(p10 + 38) = {23.00862117072278, -0.3955324686308791, 1};
Point(p10 + 39) = {23.05817377208985, -0.1891310295492214, 1};
Spline(10) = {8, p10 + 1, p10 + 2, p10 + 3, p10 + 4, p10 + 5, p10 + 6, p10 + 7, p10 + 8, p10 + 9, p10 + 10, p10 + 11, p10 + 12, p10 + 13, p10 + 14, p10 + 15, p10 + 16, p10 + 17, p10 + 18, p10 + 19, p10 + 20, p10 + 21, p10 + 22, p10 + 23, p10 + 24, p10 + 25, p10 + 26, p10 + 27, p10 + 28, p10 + 29, p10 + 30, p10 + 31, p10 + 32, p10 + 33, p10 + 34, p10 + 35, p10 + 36, p10 + 37, p10 + 38, p10 + 39, 8};
p11 = newp;
Point(p11 + 1) = {20.71133637428769, 2.04294080871414, 1};
Point(p11 + 2) = {20.69092640390159, 2.127954453670918, 1};
Point(p11 + 3) = {20.65746865004941, 2.208728616787385, 1};
Point(p11 + 4) = {20.61178695367092, 2.283274370093536, 1};
Point(p11 + 5) = {20.5550061497398, 2.349756149739803, 1};
Point(p11 + 6) = {20.48852437009354, 2.406536953670917, 1};
Point(p11 + 7) = {20.41397861678739, 2.452218650049412, 1};
Point(p11 + 8) = {20.33320445367092, 2.485676403901589, 1};
Point(p11 + 9) = {20.24819080871414, 2.50608637428769, 1};
Point(p11 + 10) = {20.161031, 2.512946, 1};
Point(p11 + 11) = {20.07387119128586, 2.50608637428769, 1};
Point(p11 + 12) = {19.98885754632908, 2.485676403901589, 1};
Point(p11 + 13) = {19.90808338321262, 2.452218650049412, 1};
Point(p11 + 14) = {19.83353762990647, 2.406536953670917, 1};
Point(p11 + 15) = {19.7670558502602, 2.349756149739803, 1};
Point(p11 + 16) = {19.71027504632908, 2.283274370093536, 1};
Point(p11 + 17) = {19.66459334995059, 2.208728616787385, 1};
Point(p11 + 18) = {19.63113559609841, 2.127954453670918, 1};
Point(p11 + 19) = {19.61072562571231, 2.04294080871414, 1};
Point(p11 + 20) = {19.603866, 1.955781, 1};
Point(p11 + 21) = {19.61072562571231, 1.86862119128586, 1};
Point(p11 + 22) = {19.63113559609841, 1.783607546329082, 1};
Point(p11 + 23) = {19.66459334995059, 1.702833383212616, 1};
Point(p11 + 24) = {19.71027504632908, 1.628287629906464, 1};
Point(p11 + 25) = {19.7670558502602, 1.561805850260197, 1};
Point(p11 + 26) = {19.83353762990647, 1.505025046329082, 1};
Point(p11 + 27) = {19.90808338321262, 1.459343349950588, 1};
Point(p11 + 28) = {19.98885754632908, 1.425885596098411, 1};
Point(p11 + 29) = {20.07387119128586, 1.40547562571231, 1};
Point(p11 + 30) = {20.161031, 1.398616, 1};
Point(p11 + 31) = {20.24819080871414, 1.40547562571231, 1};
Point(p11 + 32) = {20.33320445367092, 1.425885596098411, 1};
Point(p11 + 33) = {20.41397861678739, 1.459343349950588, 1};
Point(p11 + 34) = {20.48852437009354, 1.505025046329082, 1};
Point(p11 + 35) = {20.5550061497398, 1.561805850260197, 1};
Point(p11 + 36) = {20.61178695367092, 1.628287629906464, 1};
Point(p11 + 37) = {20.65746865004941, 1.702833383212615, 1};
Point(p11 + 38) = {20.69092640390159, 1.783607546329082, 1};
Point(p11 + 39) = {20.71133637428769, 1.86862119128586, 1};
Spline(11) = {9, p11 + 1, p11 + 2, p11 + 3, p11 + 4, p11 + 5, p11 + 6, p11 + 7, p11 + 8, p11 + 9, p11 + 10, p11 + 11, p11 + 12, p11 + 13, p11 + 14, p11 + 15, p11 + 16, p11 + 17, p11 + 18, p11 + 19, p11 + 20, p11 + 21, p11 + 22, p11 + 23, p11 + 24, p11 + 25, p11 + 26, p11 + 27, p11 + 28, p11 + 29, p11 + 30, p11 + 31, p11 + 32, p11 + 33, p11 + 34, p11 + 35, p11 + 36, p11 + 37, p11 + 38, p11 + 39, 9};
Line(12) = {4, 10};
Line(13) = {10, 7};
Line(14) = {5, 10};
p15 = newp;
Point(p15 + 1) = {23.05817377208985, 0.2340930295492211, 0};
Point(p15 + 2) = {23.00862117072278, 0.4404944686308788, 0};
Point(p15 + 3) = {22.92739034540009, 0.6366030288076796, 0};
Point(p15 + 4) = {22.81648146863088, 0.8175898664810742, 0};
Point(p15 + 5) = {22.67862548504667, 0.9789984850466664, 0};
Point(p15 + 6) = {22.51721686648107, 1.116854468630879, 0};
Point(p15 + 7) = {22.33623002880768, 1.227763345400089, 0};
Point(p15 + 8) = {22.14012146863088, 1.30899417072278, 0};
Point(p15 + 9) = {21.93372002954922, 1.358546772089855, 0};
Point(p15 + 10) = {21.722108, 1.375201, 0};
Point(p15 + 11) = {21.51049597045078, 1.358546772089855, 0};
Point(p15 + 12) = {21.30409453136912, 1.30899417072278, 0};
Point(p15 + 13) = {21.10798597119232, 1.227763345400089, 0};
Point(p15 + 14) = {20.92699913351893, 1.116854468630879, 0};
Point(p15 + 15) = {20.76559051495333, 0.9789984850466665, 0};
Point(p15 + 16) = {20.62773453136912, 0.8175898664810743, 0};
Point(p15 + 17) = {20.51682565459991, 0.6366030288076797, 0};
Point(p15 + 18) = {20.43559482927722, 0.4404944686308789, 0};
Point(p15 + 19) = {20.38604222791015, 0.2340930295492212, 0};
Point(p15 + 20) = {20.369388, 0.02248100000000017, 0};
Point(p15 + 21) = {20.38604222791015, -0.1891310295492209, 0};
Point(p15 + 22) = {20.43559482927722, -0.3955324686308793, 0};
Point(p15 + 23) = {20.51682565459991, -0.591641028807679, 0};
Point(p15 + 24) = {20.62773453136912, -0.7726278664810741, 0};
Point(p15 + 25) = {20.76559051495333, -0.9340364850466665, 0};
Point(p15 + 26) = {20.92699913351893, -1.071892468630879, 0};
Point(p15 + 27) = {21.10798597119232, -1.182801345400089, 0};
Point(p15 + 28) = {21.30409453136912, -1.26403217072278, 0};
Point(p15 + 29) = {21.51049597045078, -1.313584772089855, 0};
Point(p15 + 30) = {21.722108, -1.330239, 0};
Point(p15 + 31) = {21.93372002954922, -1.313584772089855, 0};
Point(p15 + 32) = {22.14012146863088, -1.26403217072278, 0};
Point(p15 + 33) = {22.33623002880768, -1.182801345400089, 0};
Point(p15 + 34) = {22.51721686648107, -1.071892468630879, 0};
Point(p15 + 35) = {22.67862548504667, -0.9340364850466668, 0};
Point(p15 + 36) = {22.81648146863088, -0.7726278664810745, 0};
Point(p15 + 37) = {22.92739034540009, -0.59164102880768, 0};
Point(p15 + 38) = {23.00862117072278, -0.3955324686308791, 0};
Point(p15 + 39) = {23.05817377208985, -0.1891310295492214, 0};
Spline(15) = {11, p15 + 1, p15 + 2, p15 + 3, p15 + 4, p15 + 5, p15 + 6, p15 + 7, p15 + 8, p15 + 9, p15 + 10, p15 + 11, p15 + 12, p15 + 13, p15 + 14, p15 + 15, p15 + 16, p15 + 17, p15 + 18, p15 + 19, p15 + 20, p15 + 21, p15 + 22, p15 + 23, p15 + 24, p15 + 25, p15 + 26, p15 + 27, p15 + 28, p15 + 29, p15 + 30, p15 + 31, p15 + 32, p15 + 33, p15 + 34, p15 + 35, p15 + 36, p15 + 37, p15 + 38, p15 + 39, 11};
p16 = newp;
Point(p16 + 1) = {20.71133637428769, 2.04294080871414, 0};
Point(p16 + 2) = {20.69092640390159, 2.127954453670918, 0};
Point(p16 + 3) = {20.65746865004941, 2.208728616787385, 0};
Point(p16 + 4) = {20.61178695367092, 2.283274370093536, 0};
Point(p16 + 5) = {20.5550061497398, 2.349756149739803, 0};
Point(p16 + 6) = {20.48852437009354, 2.406536953670917, 0};
Point(p16 + 7) = {20.41397861678739, 2.452218650049412, 0};
Point(p16 + 8) = {20.33320445367092, 2.485676403901589, 0};
Point(p16 + 9) = {20.24819080871414, 2.50608637428769, 0};
Point(p16 + 10) = {20.161031, 2.512946, 0};
Point(p16 + 11) = {20.07387119128586, 2.50608637428769, 0};
Point(p16 + 12) = {19.98885754632908, 2.485676403901589, 0};
Point(p16 + 13) = {19.90808338321262, 2.452218650049412, 0};
Point(p16 + 14) = {19.83353762990647, 2.406536953670917, 0};
Point(p16 + 15) = {19.7670558502602, 2.349756149739803, 0};
Point(p16 + 16) = {19.71027504632908, 2.283274370093536, 0};
Point(p16 + 17) = {19.66459334995059, 2.208728616787385, 0};
Point(p16 + 18) = {19.63113559609841, 2.127954453670918, 0};
Point(p16 + 19) = {19.61072562571231, 2.04294080871414, 0};
Point(p16 + 20) = {19.603866, 1.955781, 0};
Point(p16 + 21) = {19.61072562571231, 1.86862119128586, 0};
Point(p16 + 22) = {19.63113559609841, 1.783607546329082, 0};
Point(p16 + 23) = {19.66459334995059, 1.702833383212616, 0};
Point(p16 + 24) = {19.71027504632908, 1.628287629906464, 0};
Point(p16 + 25) = {19.7670558502602, 1.561805850260197, 0};
Point(p16 + 26) = {19.83353762990647, 1.505025046329082, 0};
Point(p16 + 27) = {19.90808338321262, 1.459343349950588, 0};
Point(p16 + 28) = {19.98885754632908, 1.425885596098411, 0};
Point(p16 + 29) = {20.07387119128586, 1.40547562571231, 0};
Point(p16 + 30) = {20.161031, 1.398616, 0};
Point(p16 + 31) = {20.24819080871414, 1.40547562571231, 0};
Point(p16 + 32) = {20.33320445367092, 1.425885596098411, 0};
Point(p16 + 33) = {20.41397861678739, 1.459343349950588, 0};
Point(p16 + 34) = {20.48852437009354, 1.505025046329082, 0};
Point(p16 + 35) = {20.5550061497398, 1.561805850260197, 0};
Point(p16 + 36) = {20.61178695367092, 1.628287629906464, 0};
Point(p16 + 37) = {20.65746865004941, 1.702833383212615, 0};
Point(p16 + 38) = {20.69092640390159, 1.783607546329082, 0};
Point(p16 + 39) = {20.71133637428769, 1.86862119128586, 0};
Spline(16) = {12, p16 + 1, p16 + 2, p16 + 3, p16 + 4, p16 + 5, p16 + 6, p16 + 7, p16 + 8, p16 + 9, p16 + 10, p16 + 11, p16 + 12, p16 + 13, p16 + 14, p16 + 15, p16 + 16, p16 + 17, p16 + 18, p16 + 19, p16 + 20, p16 + 21, p16 + 22, p16 + 23, p16 + 24, p16 + 25, p16 + 26, p16 + 27, p16 + 28, p16 + 29, p16 + 30, p16 + 31, p16 + 32, p16 + 33, p16 + 34, p16 + 35, p16 + 36, p16 + 37, p16 + 38, p16 + 39, 12};
Line(17) = {11, 8};
Line(18) = {12, 9};
Curve Loop(1) = {-1, 4, 3, -2};
Plane Surface(1) = {1};
Curve Loop(2) = {-5, 1, 7, -6};
Plane Surface(2) = {2};
Curve Loop(3) = {-2, 7, 9, -8, -10, -11};
Plane Surface(3) = {3};
Curve Loop(4) = {-12, 3, 8, -13};
Plane Surface(4) = {4};
Curve Loop(5) = {-4, 5, 14, -12, -15, -16};
Plane Surface(5) = {5};
Curve Loop(6) = {-6, 14, 13, -9};
Plane Surface(6) = {6};
Curve Loop(7) = {-10, -17, 15, 17};
Surface(7) = {7};
Curve Loop(8) = {-11, -18, 16, 18};
Surface(8) = {8};
Surface Loop(1) = {1, 2, 3, 4, 5, 6, 7, 8};
Volume(1) = {1};
Physical Surface("INFLOW") = {1};
Physical Surface("OUTFLOW") = {6};
Physical Surface("OBSTACLE") = {7, 8};
Physical Surface("WALL_Y") = {2, 4};
Physical Surface("WALL_Z") = {3, 5};
Physical Volume("FLUID") = {1};
