cl__1 = 1.045922;
cl__2 = 1.066841;
cl__3 = 3.21945;
cl__4 = 0.134247;
cl__5 = 0.129597;
Point(1) = {0.020807, -3.891798, 1, cl__1};
Point(2) = {0.020807, -3.891798, 0, cl__1};
Point(3) = {0.020807, 4.46782, 1, cl__2};
Point(4) = {0.020807, 4.46782, 0, cl__2};
Point(5) = {31.922013, -3.891798, 0, cl__1};
Point(6) = {31.922013, -3.891798, 1, cl__1};
Point(7) = {31.922013, 4.46782, 1, cl__3};
Point(8) = {12.168913, 0.8535179999999997, 1, cl__4};
Point(9) = {22.782913, 1.961038, 1, cl__5};
Point(10) = {31.922013, 4.46782, 0, cl__3};
Point(11) = {12.168913, 0.8535179999999997, 0, cl__4};
Point(12) = {22.782913, 1.961038, 0, cl__5};
Line(1) = {2, 1};
Line(2) = {1, 3};
Line(3) = {4, 3};
Line(4) = {2, 4};
Line(5) = {2, 5};
Line(6) = {5, 6};
Line(7) = {1, 6};
Line(8) = {3, 7};
Line(9) = {6, 7};
p10 = newp;
Point(p10 + 1) = {12.15238500353373, 1.063526106979164, 1};
Point(p10 + 2) = {12.10320798826121, 1.268363117387552, 1};
Point(p10 + 3) = {12.02259285550759, 1.46298526421385, 1};
Point(p10 + 4) = {11.91252461738755, 1.64260030428932, 1};
Point(p10 + 5) = {11.77571351921916, 1.802785519219161, 1};
Point(p10 + 6) = {11.61552830428932, 1.939596617387553, 1};
Point(p10 + 7) = {11.43591326421385, 2.049664855507586, 1};
Point(p10 + 8) = {11.24129111738755, 2.130279988261206, 1};
Point(p10 + 9) = {11.03645410697916, 2.179457003533733, 1};
Point(p10 + 10) = {10.826446, 2.195985, 1};
Point(p10 + 11) = {10.61643789302084, 2.179457003533733, 1};
Point(p10 + 12) = {10.41160088261245, 2.130279988261206, 1};
Point(p10 + 13) = {10.21697873578615, 2.049664855507586, 1};
Point(p10 + 14) = {10.03736369571068, 1.939596617387553, 1};
Point(p10 + 15) = {9.87717848078084, 1.802785519219161, 1};
Point(p10 + 16) = {9.740367382612447, 1.64260030428932, 1};
Point(p10 + 17) = {9.630299144492415, 1.46298526421385, 1};
Point(p10 + 18) = {9.549684011738794, 1.268363117387553, 1};
Point(p10 + 19) = {9.500506996466267, 1.063526106979164, 1};
Point(p10 + 20) = {9.483979000000001, 0.8535180000000001, 1};
Point(p10 + 21) = {9.500506996466267, 0.6435098930208365, 1};
Point(p10 + 22) = {9.549684011738794, 0.438672882612447, 1};
Point(p10 + 23) = {9.630299144492415, 0.2440507357861506, 1};
Point(p10 + 24) = {9.740367382612447, 0.06443569571068053, 1};
Point(p10 + 25) = {9.87717848078084, -0.09574951921916086, 1};
Point(p10 + 26) = {10.03736369571068, -0.2325606173875525, 1};
Point(p10 + 27) = {10.21697873578615, -0.3426288555075856, 1};
Point(p10 + 28) = {10.41160088261245, -0.423243988261206, 1};
Point(p10 + 29) = {10.61643789302084, -0.4724210035337328, 1};
Point(p10 + 30) = {10.826446, -0.4889490000000001, 1};
Point(p10 + 31) = {11.03645410697916, -0.4724210035337328, 1};
Point(p10 + 32) = {11.24129111738755, -0.423243988261206, 1};
Point(p10 + 33) = {11.43591326421385, -0.3426288555075858, 1};
Point(p10 + 34) = {11.61552830428932, -0.2325606173875527, 1};
Point(p10 + 35) = {11.77571351921916, -0.09574951921916119, 1};
Point(p10 + 36) = {11.91252461738755, 0.06443569571068009, 1};
Point(p10 + 37) = {12.02259285550759, 0.2440507357861496, 1};
Point(p10 + 38) = {12.10320798826121, 0.4386728826124472, 1};
Point(p10 + 39) = {12.15238500353373, 0.6435098930208361, 1};
Spline(10) = {8, p10 + 1, p10 + 2, p10 + 3, p10 + 4, p10 + 5, p10 + 6, p10 + 7, p10 + 8, p10 + 9, p10 + 10, p10 + 11, p10 + 12, p10 + 13, p10 + 14, p10 + 15, p10 + 16, p10 + 17, p10 + 18, p10 + 19, p10 + 20, p10 + 21, p10 + 22, p10 + 23, p10 + 24, p10 + 25, p10 + 26, p10 + 27, p10 + 28, p10 + 29, p10 + 30, p10 + 31, p10 + 32, p10 + 33, p10 + 34, p10 + 35, p10 + 36, p10 + 37, p10 + 38, p10 + 39, 8};
p11 = newp;
Point(p11 + 1) = {22.7669574218261, 2.163772842961583, 1};
Point(p11 + 2) = {22.71948356659258, 2.361515681251084, 1};
Point(p11 + 3) = {22.64166039817197, 2.54939742991896, 1};
Point(p11 + 4) = {22.53540418125109, 2.722791816769234, 1};
Point(p11 + 5) = {22.40333129653467, 2.877429296534673, 1};
Point(p11 + 6) = {22.24869381676923, 3.009502181251084, 1};
Point(p11 + 7) = {22.07529942991896, 3.115758398171971, 1};
Point(p11 + 8) = {21.88741768125108, 3.193581566592579, 1};
Point(p11 + 9) = {21.68967484296158, 3.241055421826102, 1};
Point(p11 + 10) = {21.48694, 3.257011, 1};
Point(p11 + 11) = {21.28420515703842, 3.241055421826102, 1};
Point(p11 + 12) = {21.08646231874892, 3.193581566592579, 1};
Point(p11 + 13) = {20.89858057008104, 3.115758398171972, 1};
Point(p11 + 14) = {20.72518618323077, 3.009502181251084, 1};
Point(p11 + 15) = {20.57054870346533, 2.877429296534673, 1};
Point(p11 + 16) = {20.43847581874892, 2.722791816769234, 1};
Point(p11 + 17) = {20.33221960182803, 2.54939742991896, 1};
Point(p11 + 18) = {20.25439643340742, 2.361515681251084, 1};
Point(p11 + 19) = {20.2069225781739, 2.163772842961583, 1};
Point(p11 + 20) = {20.190967, 1.961038, 1};
Point(p11 + 21) = {20.2069225781739, 1.758303157038417, 1};
Point(p11 + 22) = {20.25439643340742, 1.560560318748916, 1};
Point(p11 + 23) = {20.33221960182803, 1.372678570081041, 1};
Point(p11 + 24) = {20.43847581874892, 1.199284183230767, 1};
Point(p11 + 25) = {20.57054870346533, 1.044646703465327, 1};
Point(p11 + 26) = {20.72518618323077, 0.9125738187489163, 1};
Point(p11 + 27) = {20.89858057008104, 0.8063176018280285, 1};
Point(p11 + 28) = {21.08646231874892, 0.728494433407421, 1};
Point(p11 + 29) = {21.28420515703842, 0.6810205781738976, 1};
Point(p11 + 30) = {21.48694, 0.665065, 1};
Point(p11 + 31) = {21.68967484296158, 0.6810205781738976, 1};
Point(p11 + 32) = {21.88741768125108, 0.7284944334074208, 1};
Point(p11 + 33) = {22.07529942991896, 0.8063176018280283, 1};
Point(p11 + 34) = {22.24869381676923, 0.9125738187489161, 1};
Point(p11 + 35) = {22.40333129653467, 1.044646703465326, 1};
Point(p11 + 36) = {22.53540418125109, 1.199284183230767, 1};
Point(p11 + 37) = {22.64166039817197, 1.37267857008104, 1};
Point(p11 + 38) = {22.71948356659258, 1.560560318748916, 1};
Point(p11 + 39) = {22.7669574218261, 1.758303157038417, 1};
Spline(11) = {9, p11 + 1, p11 + 2, p11 + 3, p11 + 4, p11 + 5, p11 + 6, p11 + 7, p11 + 8, p11 + 9, p11 + 10, p11 + 11, p11 + 12, p11 + 13, p11 + 14, p11 + 15, p11 + 16, p11 + 17, p11 + 18, p11 + 19, p11 + 20, p11 + 21, p11 + 22, p11 + 23, p11 + 24, p11 + 25, p11 + 26, p11 + 27, p11 + 28, p11 + 29, p11 + 30, p11 + 31, p11 + 32, p11 + 33, p11 + 34, p11 + 35, p11 + 36, p11 + 37, p11 + 38, p11 + 39, 9};
Line(12) = {4, 10};
Line(13) = {10, 7};
Line(14) = {5, 10};
p15 = newp;
Point(p15 + 1) = {12.15238500353373, 1.063526106979164, 0};
Point(p15 + 2) = {12.10320798826121, 1.268363117387552, 0};
Point(p15 + 3) = {12.02259285550759, 1.46298526421385, 0};
Point(p15 + 4) = {11.91252461738755, 1.64260030428932, 0};
Point(p15 + 5) = {11.77571351921916, 1.802785519219161, 0};
Point(p15 + 6) = {11.61552830428932, 1.939596617387553, 0};
Point(p15 + 7) = {11.43591326421385, 2.049664855507586, 0};
Point(p15 + 8) = {11.24129111738755, 2.130279988261206, 0};
Point(p15 + 9) = {11.03645410697916, 2.179457003533733, 0};
Point(p15 + 10) = {10.826446, 2.195985, 0};
Point(p15 + 11) = {10.61643789302084, 2.179457003533733, 0};
Point(p15 + 12) = {10.41160088261245, 2.130279988261206, 0};
Point(p15 + 13) = {10.21697873578615, 2.049664855507586, 0};
Point(p15 + 14) = {10.03736369571068, 1.939596617387553, 0};
Point(p15 + 15) = {9.87717848078084, 1.802785519219161, 0};
Point(p15 + 16) = {9.740367382612447, 1.64260030428932, 0};
Point(p15 + 17) = {9.630299144492415, 1.46298526421385, 0};
Point(p15 + 18) = {9.549684011738794, 1.268363117387553, 0};
Point(p15 + 19) = {9.500506996466267, 1.063526106979164, 0};
Point(p15 + 20) = {9.483979000000001, 0.8535180000000001, 0};
Point(p15 + 21) = {9.500506996466267, 0.6435098930208365, 0};
Point(p15 + 22) = {9.549684011738794, 0.438672882612447, 0};
Point(p15 + 23) = {9.630299144492415, 0.2440507357861506, 0};
Point(p15 + 24) = {9.740367382612447, 0.06443569571068053, 0};
Point(p15 + 25) = {9.87717848078084, -0.09574951921916086, 0};
Point(p15 + 26) = {10.03736369571068, -0.2325606173875525, 0};
Point(p15 + 27) = {10.21697873578615, -0.3426288555075856, 0};
Point(p15 + 28) = {10.41160088261245, -0.423243988261206, 0};
Point(p15 + 29) = {10.61643789302084, -0.4724210035337328, 0};
Point(p15 + 30) = {10.826446, -0.4889490000000001, 0};
Point(p15 + 31) = {11.03645410697916, -0.4724210035337328, 0};
Point(p15 + 32) = {11.24129111738755, -0.423243988261206, 0};
Point(p15 + 33) = {11.43591326421385, -0.3426288555075858, 0};
Point(p15 + 34) = {11.61552830428932, -0.2325606173875527, 0};
Point(p15 + 35) = {11.77571351921916, -0.09574951921916119, 0};
Point(p15 + 36) = {11.91252461738755, 0.06443569571068009, 0};
Point(p15 + 37) = {12.02259285550759, 0.2440507357861496, 0};
Point(p15 + 38) = {12.10320798826121, 0.4386728826124472, 0};
Point(p15 + 39) = {12.15238500353373, 0.6435098930208361, 0};
Spline(15) = {11, p15 + 1, p15 + 2, p15 + 3, p15 + 4, p15 + 5, p15 + 6, p15 + 7, p15 + 8, p15 + 9, p15 + 10, p15 + 11, p15 + 12, p15 + 13, p15 + 14, p15 + 15, p15 + 16, p15 + 17, p15 + 18, p15 + 19, p15 + 20, p15 + 21, p15 + 22, p15 + 23, p15 + 24, p15 + 25, p15 + 26, p15 + 27, p15 + 28, p15 + 29, p15 + 30, p15 + 31, p15 + 32, p15 + 33, p15 + 34, p15 + 35, p15 + 36, p15 + 37, p15 + 38, p15 + 39, 11};
p16 = newp;
Point(p16 + 1) = {22.7669574218261, 2.163772842961583, 0};
Point(p16 + 2) = {22.71948356659258, 2.361515681251084, 0};
Point(p16 + 3) = {22.64166039817197, 2.54939742991896, 0};
Point(p16 + 4) = {22.53540418125109, 2.722791816769234, 0};
Point(p16 + 5) = {22.40333129653467, 2.877429296534673, 0};
Point(p16 + 6) = {22.24869381676923, 3.009502181251084, 0};
Point(p16 + 7) = {22.07529942991896, 3.115758398171971, 0};
Point(p16 + 8) = {21.88741768125108, 3.193581566592579, 0};
Point(p16 + 9) = {21.68967484296158, 3.241055421826102, 0};
Point(p16 + 10) = {21.48694, 3.257011, 0};
Point(p16 + 11) = {21.28420515703842, 3.241055421826102, 0};
Point(p16 + 12) = {21.08646231874892, 3.193581566592579, 0};
Point(p16 + 13) = {20.89858057008104, 3.115758398171972, 0};
Point(p16 + 14) = {20.72518618323077, 3.009502181251084, 0};
Point(p16 + 15) = {20.57054870346533, 2.877429296534673, 0};
Point(p16 + 16) = {20.43847581874892, 2.722791816769234, 0};
Point(p16 + 17) = {20.33221960182803, 2.54939742991896, 0};
Point(p16 + 18) = {20.25439643340742, 2.361515681251084, 0};
Point(p16 + 19) = {20.2069225781739, 2.163772842961583, 0};
Point(p16 + 20) = {20.190967, 1.961038, 0};
Point(p16 + 21) = {20.2069225781739, 1.758303157038417, 0};
Point(p16 + 22) = {20.25439643340742, 1.560560318748916, 0};
Point(p16 + 23) = {20.33221960182803, 1.372678570081041, 0};
Point(p16 + 24) = {20.43847581874892, 1.199284183230767, 0};
Point(p16 + 25) = {20.57054870346533, 1.044646703465327, 0};
Point(p16 + 26) = {20.72518618323077, 0.9125738187489163, 0};
Point(p16 + 27) = {20.89858057008104, 0.8063176018280285, 0};
Point(p16 + 28) = {21.08646231874892, 0.728494433407421, 0};
Point(p16 + 29) = {21.28420515703842, 0.6810205781738976, 0};
Point(p16 + 30) = {21.48694, 0.665065, 0};
Point(p16 + 31) = {21.68967484296158, 0.6810205781738976, 0};
Point(p16 + 32) = {21.88741768125108, 0.7284944334074208, 0};
Point(p16 + 33) = {22.07529942991896, 0.8063176018280283, 0};
Point(p16 + 34) = {22.24869381676923, 0.9125738187489161, 0};
Point(p16 + 35) = {22.40333129653467, 1.044646703465326, 0};
Point(p16 + 36) = {22.53540418125109, 1.199284183230767, 0};
Point(p16 + 37) = {22.64166039817197, 1.37267857008104, 0};
Point(p16 + 38) = {22.71948356659258, 1.560560318748916, 0};
Point(p16 + 39) = {22.7669574218261, 1.758303157038417, 0};
Spline(16) = {12, p16 + 1, p16 + 2, p16 + 3, p16 + 4, p16 + 5, p16 + 6, p16 + 7, p16 + 8, p16 + 9, p16 + 10, p16 + 11, p16 + 12, p16 + 13, p16 + 14, p16 + 15, p16 + 16, p16 + 17, p16 + 18, p16 + 19, p16 + 20, p16 + 21, p16 + 22, p16 + 23, p16 + 24, p16 + 25, p16 + 26, p16 + 27, p16 + 28, p16 + 29, p16 + 30, p16 + 31, p16 + 32, p16 + 33, p16 + 34, p16 + 35, p16 + 36, p16 + 37, p16 + 38, p16 + 39, 12};
Line(17) = {11, 8};
Line(18) = {12, 9};
Curve Loop(1) = {-1, 4, 3, -2};
Plane Surface(1) = {1};
Curve Loop(2) = {-5, 1, 7, -6};
Plane Surface(2) = {2};
Curve Loop(3) = {-2, 7, 9, -8, -10, -11};
Plane Surface(3) = {3};
Curve Loop(4) = {-12, 3, 8, -13};
Plane Surface(4) = {4};
Curve Loop(5) = {-4, 5, 14, -12, -15, -16};
Plane Surface(5) = {5};
Curve Loop(6) = {-6, 14, 13, -9};
Plane Surface(6) = {6};
Curve Loop(7) = {-10, -17, 15, 17};
Surface(7) = {7};
Curve Loop(8) = {-11, -18, 16, 18};
Surface(8) = {8};
Surface Loop(1) = {1, 2, 3, 4, 5, 6, 7, 8};
Volume(1) = {1};
Physical Surface("INFLOW") = {1};
Physical Surface("OUTFLOW") = {6};
Physical Surface("OBSTACLE") = {7, 8};
Physical Surface("WALL_Y") = {2, 4};
Physical Surface("WALL_Z") = {3, 5};
Physical Volume("FLUID") = {1};
