cl__1 = 1.513926;
cl__2 = 1.568171;
cl__3 = 1.611111;
cl__4 = 1.662437;
cl__5 = 0.142431;
Point(1) = {0.743308, -4.072517, 1, cl__1};
Point(2) = {0.743308, -4.072517, 0, cl__1};
Point(3) = {0.743308, 5.861792, 1, cl__2};
Point(4) = {0.743308, 5.861792, 0, cl__2};
Point(5) = {33.866448, -4.072517, 0, cl__3};
Point(6) = {33.866448, -4.072517, 1, cl__3};
Point(7) = {33.866448, 5.861792, 1, cl__4};
Point(8) = {18.228951, -0.02460300000000035, 1, cl__5};
Point(9) = {33.866448, 5.861792, 0, cl__4};
Point(10) = {18.228951, -0.02460300000000035, 0, cl__5};
Line(1) = {2, 1};
Line(2) = {1, 3};
Line(3) = {4, 3};
Line(4) = {2, 4};
Line(5) = {2, 5};
Line(6) = {5, 6};
Line(7) = {1, 6};
Line(8) = {3, 7};
Line(9) = {6, 7};
p10 = newp;
Point(p10 + 1) = {18.21141538039306, 0.1982081729014512, 1};
Point(p10 + 2) = {18.15924030672435, 0.4155329952581813, 1};
Point(p10 + 3) = {18.07371050246674, 0.6220202086840337, 1};
Point(p10 + 4) = {17.95693199525818, 0.8125854126926924, 1};
Point(p10 + 5) = {17.81178025951181, 0.9825362595118113, 1};
Point(p10 + 6) = {17.64182941269269, 1.127687995258182, 1};
Point(p10 + 7) = {17.45126420868403, 1.244466502466734, 1};
Point(p10 + 8) = {17.24477699525818, 1.32999630672435, 1};
Point(p10 + 9) = {17.02745217290145, 1.382171380393061, 1};
Point(p10 + 10) = {16.804641, 1.399707, 1};
Point(p10 + 11) = {16.58182982709855, 1.382171380393061, 1};
Point(p10 + 12) = {16.36450500474182, 1.32999630672435, 1};
Point(p10 + 13) = {16.15801779131597, 1.244466502466734, 1};
Point(p10 + 14) = {15.96745258730731, 1.127687995258182, 1};
Point(p10 + 15) = {15.79750174048819, 0.9825362595118116, 1};
Point(p10 + 16) = {15.65235000474182, 0.8125854126926925, 1};
Point(p10 + 17) = {15.53557149753327, 0.622020208684034, 1};
Point(p10 + 18) = {15.45004169327565, 0.4155329952581815, 1};
Point(p10 + 19) = {15.39786661960694, 0.1982081729014514, 1};
Point(p10 + 20) = {15.380331, -0.02460299999999983, 1};
Point(p10 + 21) = {15.39786661960694, -0.247414172901451, 1};
Point(p10 + 22) = {15.45004169327565, -0.4647389952581818, 1};
Point(p10 + 23) = {15.53557149753327, -0.6712262086840332, 1};
Point(p10 + 24) = {15.65235000474182, -0.8617914126926923, 1};
Point(p10 + 25) = {15.79750174048819, -1.031742259511811, 1};
Point(p10 + 26) = {15.96745258730731, -1.176893995258181, 1};
Point(p10 + 27) = {16.15801779131597, -1.293672502466734, 1};
Point(p10 + 28) = {16.36450500474182, -1.37920230672435, 1};
Point(p10 + 29) = {16.58182982709855, -1.431377380393061, 1};
Point(p10 + 30) = {16.804641, -1.448913, 1};
Point(p10 + 31) = {17.02745217290145, -1.431377380393061, 1};
Point(p10 + 32) = {17.24477699525818, -1.37920230672435, 1};
Point(p10 + 33) = {17.45126420868403, -1.293672502466734, 1};
Point(p10 + 34) = {17.64182941269269, -1.176893995258181, 1};
Point(p10 + 35) = {17.81178025951181, -1.031742259511812, 1};
Point(p10 + 36) = {17.95693199525818, -0.8617914126926928, 1};
Point(p10 + 37) = {18.07371050246674, -0.6712262086840342, 1};
Point(p10 + 38) = {18.15924030672435, -0.4647389952581816, 1};
Point(p10 + 39) = {18.21141538039306, -0.2474141729014515, 1};
Spline(10) = {8, p10 + 1, p10 + 2, p10 + 3, p10 + 4, p10 + 5, p10 + 6, p10 + 7, p10 + 8, p10 + 9, p10 + 10, p10 + 11, p10 + 12, p10 + 13, p10 + 14, p10 + 15, p10 + 16, p10 + 17, p10 + 18, p10 + 19, p10 + 20, p10 + 21, p10 + 22, p10 + 23, p10 + 24, p10 + 25, p10 + 26, p10 + 27, p10 + 28, p10 + 29, p10 + 30, p10 + 31, p10 + 32, p10 + 33, p10 + 34, p10 + 35, p10 + 36, p10 + 37, p10 + 38, p10 + 39, 8};
Line(11) = {4, 9};
Line(12) = {9, 7};
Line(13) = {5, 9};
p14 = newp;
Point(p14 + 1) = {18.21141538039306, 0.1982081729014512, 0};
Point(p14 + 2) = {18.15924030672435, 0.4155329952581813, 0};
Point(p14 + 3) = {18.07371050246674, 0.6220202086840337, 0};
Point(p14 + 4) = {17.95693199525818, 0.8125854126926924, 0};
Point(p14 + 5) = {17.81178025951181, 0.9825362595118113, 0};
Point(p14 + 6) = {17.64182941269269, 1.127687995258182, 0};
Point(p14 + 7) = {17.45126420868403, 1.244466502466734, 0};
Point(p14 + 8) = {17.24477699525818, 1.32999630672435, 0};
Point(p14 + 9) = {17.02745217290145, 1.382171380393061, 0};
Point(p14 + 10) = {16.804641, 1.399707, 0};
Point(p14 + 11) = {16.58182982709855, 1.382171380393061, 0};
Point(p14 + 12) = {16.36450500474182, 1.32999630672435, 0};
Point(p14 + 13) = {16.15801779131597, 1.244466502466734, 0};
Point(p14 + 14) = {15.96745258730731, 1.127687995258182, 0};
Point(p14 + 15) = {15.79750174048819, 0.9825362595118116, 0};
Point(p14 + 16) = {15.65235000474182, 0.8125854126926925, 0};
Point(p14 + 17) = {15.53557149753327, 0.622020208684034, 0};
Point(p14 + 18) = {15.45004169327565, 0.4155329952581815, 0};
Point(p14 + 19) = {15.39786661960694, 0.1982081729014514, 0};
Point(p14 + 20) = {15.380331, -0.02460299999999983, 0};
Point(p14 + 21) = {15.39786661960694, -0.247414172901451, 0};
Point(p14 + 22) = {15.45004169327565, -0.4647389952581818, 0};
Point(p14 + 23) = {15.53557149753327, -0.6712262086840332, 0};
Point(p14 + 24) = {15.65235000474182, -0.8617914126926923, 0};
Point(p14 + 25) = {15.79750174048819, -1.031742259511811, 0};
Point(p14 + 26) = {15.96745258730731, -1.176893995258181, 0};
Point(p14 + 27) = {16.15801779131597, -1.293672502466734, 0};
Point(p14 + 28) = {16.36450500474182, -1.37920230672435, 0};
Point(p14 + 29) = {16.58182982709855, -1.431377380393061, 0};
Point(p14 + 30) = {16.804641, -1.448913, 0};
Point(p14 + 31) = {17.02745217290145, -1.431377380393061, 0};
Point(p14 + 32) = {17.24477699525818, -1.37920230672435, 0};
Point(p14 + 33) = {17.45126420868403, -1.293672502466734, 0};
Point(p14 + 34) = {17.64182941269269, -1.176893995258181, 0};
Point(p14 + 35) = {17.81178025951181, -1.031742259511812, 0};
Point(p14 + 36) = {17.95693199525818, -0.8617914126926928, 0};
Point(p14 + 37) = {18.07371050246674, -0.6712262086840342, 0};
Point(p14 + 38) = {18.15924030672435, -0.4647389952581816, 0};
Point(p14 + 39) = {18.21141538039306, -0.2474141729014515, 0};
Spline(14) = {10, p14 + 1, p14 + 2, p14 + 3, p14 + 4, p14 + 5, p14 + 6, p14 + 7, p14 + 8, p14 + 9, p14 + 10, p14 + 11, p14 + 12, p14 + 13, p14 + 14, p14 + 15, p14 + 16, p14 + 17, p14 + 18, p14 + 19, p14 + 20, p14 + 21, p14 + 22, p14 + 23, p14 + 24, p14 + 25, p14 + 26, p14 + 27, p14 + 28, p14 + 29, p14 + 30, p14 + 31, p14 + 32, p14 + 33, p14 + 34, p14 + 35, p14 + 36, p14 + 37, p14 + 38, p14 + 39, 10};
Line(15) = {10, 8};
Curve Loop(1) = {-1, 4, 3, -2};
Plane Surface(1) = {1};
Curve Loop(2) = {-5, 1, 7, -6};
Plane Surface(2) = {2};
Curve Loop(3) = {-2, 7, 9, -8, -10};
Plane Surface(3) = {3};
Curve Loop(4) = {-11, 3, 8, -12};
Plane Surface(4) = {4};
Curve Loop(5) = {-4, 5, 13, -11, -14};
Plane Surface(5) = {5};
Curve Loop(6) = {-6, 13, 12, -9};
Plane Surface(6) = {6};
Curve Loop(7) = {-10, -15, 14, 15};
Surface(7) = {7};
Surface Loop(1) = {1, 2, 3, 4, 5, 6, 7};
Volume(1) = {1};
Physical Surface("INFLOW") = {1};
Physical Surface("OUTFLOW") = {6};
Physical Surface("OBSTACLE") = {7};
Physical Surface("WALL_Y") = {2, 4};
Physical Surface("WALL_Z") = {3, 5};
Physical Volume("FLUID") = {1};
