cl__1 = 3.078017;
cl__2 = 1.201457;
cl__3 = 0.912767;
cl__4 = 0.07721;
cl__5 = 0.061382;
Point(1) = {0.567594, -3.861805, 1, cl__1};
Point(2) = {0.567594, -3.861805, 0, cl__1};
Point(3) = {0.567594, 4.03172, 1, cl__2};
Point(4) = {0.567594, 4.03172, 0, cl__2};
Point(5) = {30.526089, -3.861805, 0, cl__3};
Point(6) = {30.526089, -3.861805, 1, cl__3};
Point(7) = {30.526089, 4.03172, 1, cl__2};
Point(8) = {19.632286, 1.373226, 1, cl__4};
Point(9) = {8.952533000000001, 2.0124, 1, cl__5};
Point(10) = {30.526089, 4.03172, 0, cl__2};
Point(11) = {19.632286, 1.373226, 0, cl__4};
Point(12) = {8.952533000000001, 2.0124, 0, cl__5};
Line(1) = {2, 1};
Line(2) = {1, 3};
Line(3) = {4, 3};
Line(4) = {2, 4};
Line(5) = {2, 5};
Line(6) = {5, 6};
Line(7) = {1, 6};
Line(8) = {3, 7};
Line(9) = {6, 7};
p10 = newp;
Point(p10 + 1) = {19.62278013083853, 1.494009519760958, 1};
Point(p10 + 2) = {19.59449658940104, 1.61181894840788, 1};
Point(p10 + 3) = {19.54813181034541, 1.723753426820403, 1};
Point(p10 + 4) = {19.48482744840788, 1.827056756650775, 1};
Point(p10 + 5) = {19.40614226707448, 1.919185267074477, 1};
Point(p10 + 6) = {19.31401375665077, 1.99787044840788, 1};
Point(p10 + 7) = {19.2107104268204, 2.061174810345412, 1};
Point(p10 + 8) = {19.09877594840788, 2.107539589401037, 1};
Point(p10 + 9) = {18.98096651976096, 2.135823130838528, 1};
Point(p10 + 10) = {18.860183, 2.145329, 1};
Point(p10 + 11) = {18.73939948023904, 2.135823130838528, 1};
Point(p10 + 12) = {18.62159005159212, 2.107539589401037, 1};
Point(p10 + 13) = {18.5096555731796, 2.061174810345412, 1};
Point(p10 + 14) = {18.40635224334923, 1.99787044840788, 1};
Point(p10 + 15) = {18.31422373292552, 1.919185267074477, 1};
Point(p10 + 16) = {18.23553855159212, 1.827056756650776, 1};
Point(p10 + 17) = {18.17223418965459, 1.723753426820403, 1};
Point(p10 + 18) = {18.12586941059896, 1.61181894840788, 1};
Point(p10 + 19) = {18.09758586916147, 1.494009519760958, 1};
Point(p10 + 20) = {18.08808, 1.373226, 1};
Point(p10 + 21) = {18.09758586916147, 1.252442480239043, 1};
Point(p10 + 22) = {18.12586941059896, 1.13463305159212, 1};
Point(p10 + 23) = {18.17223418965459, 1.022698573179597, 1};
Point(p10 + 24) = {18.23553855159212, 0.9193952433492247, 1};
Point(p10 + 25) = {18.31422373292552, 0.8272667329255232, 1};
Point(p10 + 26) = {18.40635224334923, 0.7485815515921201, 1};
Point(p10 + 27) = {18.5096555731796, 0.6852771896545887, 1};
Point(p10 + 28) = {18.62159005159212, 0.6389124105989632, 1};
Point(p10 + 29) = {18.73939948023904, 0.6106288691614725, 1};
Point(p10 + 30) = {18.860183, 0.6011230000000001, 1};
Point(p10 + 31) = {18.98096651976095, 0.6106288691614724, 1};
Point(p10 + 32) = {19.09877594840788, 0.6389124105989631, 1};
Point(p10 + 33) = {19.2107104268204, 0.6852771896545886, 1};
Point(p10 + 34) = {19.31401375665077, 0.7485815515921199, 1};
Point(p10 + 35) = {19.40614226707448, 0.827266732925523, 1};
Point(p10 + 36) = {19.48482744840788, 0.9193952433492245, 1};
Point(p10 + 37) = {19.54813181034541, 1.022698573179597, 1};
Point(p10 + 38) = {19.59449658940104, 1.13463305159212, 1};
Point(p10 + 39) = {19.62278013083853, 1.252442480239043, 1};
Spline(10) = {8, p10 + 1, p10 + 2, p10 + 3, p10 + 4, p10 + 5, p10 + 6, p10 + 7, p10 + 8, p10 + 9, p10 + 10, p10 + 11, p10 + 12, p10 + 13, p10 + 14, p10 + 15, p10 + 16, p10 + 17, p10 + 18, p10 + 19, p10 + 20, p10 + 21, p10 + 22, p10 + 23, p10 + 24, p10 + 25, p10 + 26, p10 + 27, p10 + 28, p10 + 29, p10 + 30, p10 + 31, p10 + 32, p10 + 33, p10 + 34, p10 + 35, p10 + 36, p10 + 37, p10 + 38, p10 + 39, 8};
p11 = newp;
Point(p11 + 1) = {8.944975881847427, 2.108422290462064, 1};
Point(p11 + 2) = {8.92249060871926, 2.202080193453241, 1};
Point(p11 + 3) = {8.885630842664256, 2.291067540569129, 1};
Point(p11 + 4) = {8.835304193453242, 2.373193167991661, 1};
Point(p11 + 5) = {8.772749870214366, 2.446434870214364, 1};
Point(p11 + 6) = {8.699508167991661, 2.508989193453242, 1};
Point(p11 + 7) = {8.61738254056913, 2.559315842664255, 1};
Point(p11 + 8) = {8.528395193453242, 2.596175608719259, 1};
Point(p11 + 9) = {8.434737290462065, 2.618660881847426, 1};
Point(p11 + 10) = {8.338715000000001, 2.626218, 1};
Point(p11 + 11) = {8.242692709537936, 2.618660881847426, 1};
Point(p11 + 12) = {8.149034806546759, 2.596175608719259, 1};
Point(p11 + 13) = {8.060047459430871, 2.559315842664255, 1};
Point(p11 + 14) = {7.97792183200834, 2.508989193453242, 1};
Point(p11 + 15) = {7.904680129785636, 2.446434870214364, 1};
Point(p11 + 16) = {7.842125806546759, 2.373193167991661, 1};
Point(p11 + 17) = {7.791799157335745, 2.291067540569129, 1};
Point(p11 + 18) = {7.754939391280742, 2.202080193453241, 1};
Point(p11 + 19) = {7.732454118152575, 2.108422290462065, 1};
Point(p11 + 20) = {7.724897, 2.0124, 1};
Point(p11 + 21) = {7.732454118152575, 1.916377709537936, 1};
Point(p11 + 22) = {7.754939391280742, 1.822719806546758, 1};
Point(p11 + 23) = {7.791799157335745, 1.733732459430871, 1};
Point(p11 + 24) = {7.842125806546759, 1.651606832008339, 1};
Point(p11 + 25) = {7.904680129785636, 1.578365129785636, 1};
Point(p11 + 26) = {7.977921832008339, 1.515810806546759, 1};
Point(p11 + 27) = {8.060047459430871, 1.465484157335744, 1};
Point(p11 + 28) = {8.149034806546759, 1.428624391280741, 1};
Point(p11 + 29) = {8.242692709537936, 1.406139118152574, 1};
Point(p11 + 30) = {8.338715000000001, 1.398582, 1};
Point(p11 + 31) = {8.434737290462065, 1.406139118152574, 1};
Point(p11 + 32) = {8.528395193453242, 1.428624391280741, 1};
Point(p11 + 33) = {8.61738254056913, 1.465484157335744, 1};
Point(p11 + 34) = {8.699508167991661, 1.515810806546758, 1};
Point(p11 + 35) = {8.772749870214364, 1.578365129785636, 1};
Point(p11 + 36) = {8.835304193453242, 1.651606832008339, 1};
Point(p11 + 37) = {8.885630842664256, 1.733732459430871, 1};
Point(p11 + 38) = {8.92249060871926, 1.822719806546758, 1};
Point(p11 + 39) = {8.944975881847427, 1.916377709537935, 1};
Spline(11) = {9, p11 + 1, p11 + 2, p11 + 3, p11 + 4, p11 + 5, p11 + 6, p11 + 7, p11 + 8, p11 + 9, p11 + 10, p11 + 11, p11 + 12, p11 + 13, p11 + 14, p11 + 15, p11 + 16, p11 + 17, p11 + 18, p11 + 19, p11 + 20, p11 + 21, p11 + 22, p11 + 23, p11 + 24, p11 + 25, p11 + 26, p11 + 27, p11 + 28, p11 + 29, p11 + 30, p11 + 31, p11 + 32, p11 + 33, p11 + 34, p11 + 35, p11 + 36, p11 + 37, p11 + 38, p11 + 39, 9};
Line(12) = {4, 10};
Line(13) = {10, 7};
Line(14) = {5, 10};
p15 = newp;
Point(p15 + 1) = {19.62278013083853, 1.494009519760958, 0};
Point(p15 + 2) = {19.59449658940104, 1.61181894840788, 0};
Point(p15 + 3) = {19.54813181034541, 1.723753426820403, 0};
Point(p15 + 4) = {19.48482744840788, 1.827056756650775, 0};
Point(p15 + 5) = {19.40614226707448, 1.919185267074477, 0};
Point(p15 + 6) = {19.31401375665077, 1.99787044840788, 0};
Point(p15 + 7) = {19.2107104268204, 2.061174810345412, 0};
Point(p15 + 8) = {19.09877594840788, 2.107539589401037, 0};
Point(p15 + 9) = {18.98096651976096, 2.135823130838528, 0};
Point(p15 + 10) = {18.860183, 2.145329, 0};
Point(p15 + 11) = {18.73939948023904, 2.135823130838528, 0};
Point(p15 + 12) = {18.62159005159212, 2.107539589401037, 0};
Point(p15 + 13) = {18.5096555731796, 2.061174810345412, 0};
Point(p15 + 14) = {18.40635224334923, 1.99787044840788, 0};
Point(p15 + 15) = {18.31422373292552, 1.919185267074477, 0};
Point(p15 + 16) = {18.23553855159212, 1.827056756650776, 0};
Point(p15 + 17) = {18.17223418965459, 1.723753426820403, 0};
Point(p15 + 18) = {18.12586941059896, 1.61181894840788, 0};
Point(p15 + 19) = {18.09758586916147, 1.494009519760958, 0};
Point(p15 + 20) = {18.08808, 1.373226, 0};
Point(p15 + 21) = {18.09758586916147, 1.252442480239043, 0};
Point(p15 + 22) = {18.12586941059896, 1.13463305159212, 0};
Point(p15 + 23) = {18.17223418965459, 1.022698573179597, 0};
Point(p15 + 24) = {18.23553855159212, 0.9193952433492247, 0};
Point(p15 + 25) = {18.31422373292552, 0.8272667329255232, 0};
Point(p15 + 26) = {18.40635224334923, 0.7485815515921201, 0};
Point(p15 + 27) = {18.5096555731796, 0.6852771896545887, 0};
Point(p15 + 28) = {18.62159005159212, 0.6389124105989632, 0};
Point(p15 + 29) = {18.73939948023904, 0.6106288691614725, 0};
Point(p15 + 30) = {18.860183, 0.6011230000000001, 0};
Point(p15 + 31) = {18.98096651976095, 0.6106288691614724, 0};
Point(p15 + 32) = {19.09877594840788, 0.6389124105989631, 0};
Point(p15 + 33) = {19.2107104268204, 0.6852771896545886, 0};
Point(p15 + 34) = {19.31401375665077, 0.7485815515921199, 0};
Point(p15 + 35) = {19.40614226707448, 0.827266732925523, 0};
Point(p15 + 36) = {19.48482744840788, 0.9193952433492245, 0};
Point(p15 + 37) = {19.54813181034541, 1.022698573179597, 0};
Point(p15 + 38) = {19.59449658940104, 1.13463305159212, 0};
Point(p15 + 39) = {19.62278013083853, 1.252442480239043, 0};
Spline(15) = {11, p15 + 1, p15 + 2, p15 + 3, p15 + 4, p15 + 5, p15 + 6, p15 + 7, p15 + 8, p15 + 9, p15 + 10, p15 + 11, p15 + 12, p15 + 13, p15 + 14, p15 + 15, p15 + 16, p15 + 17, p15 + 18, p15 + 19, p15 + 20, p15 + 21, p15 + 22, p15 + 23, p15 + 24, p15 + 25, p15 + 26, p15 + 27, p15 + 28, p15 + 29, p15 + 30, p15 + 31, p15 + 32, p15 + 33, p15 + 34, p15 + 35, p15 + 36, p15 + 37, p15 + 38, p15 + 39, 11};
p16 = newp;
Point(p16 + 1) = {8.944975881847427, 2.108422290462064, 0};
Point(p16 + 2) = {8.92249060871926, 2.202080193453241, 0};
Point(p16 + 3) = {8.885630842664256, 2.291067540569129, 0};
Point(p16 + 4) = {8.835304193453242, 2.373193167991661, 0};
Point(p16 + 5) = {8.772749870214366, 2.446434870214364, 0};
Point(p16 + 6) = {8.699508167991661, 2.508989193453242, 0};
Point(p16 + 7) = {8.61738254056913, 2.559315842664255, 0};
Point(p16 + 8) = {8.528395193453242, 2.596175608719259, 0};
Point(p16 + 9) = {8.434737290462065, 2.618660881847426, 0};
Point(p16 + 10) = {8.338715000000001, 2.626218, 0};
Point(p16 + 11) = {8.242692709537936, 2.618660881847426, 0};
Point(p16 + 12) = {8.149034806546759, 2.596175608719259, 0};
Point(p16 + 13) = {8.060047459430871, 2.559315842664255, 0};
Point(p16 + 14) = {7.97792183200834, 2.508989193453242, 0};
Point(p16 + 15) = {7.904680129785636, 2.446434870214364, 0};
Point(p16 + 16) = {7.842125806546759, 2.373193167991661, 0};
Point(p16 + 17) = {7.791799157335745, 2.291067540569129, 0};
Point(p16 + 18) = {7.754939391280742, 2.202080193453241, 0};
Point(p16 + 19) = {7.732454118152575, 2.108422290462065, 0};
Point(p16 + 20) = {7.724897, 2.0124, 0};
Point(p16 + 21) = {7.732454118152575, 1.916377709537936, 0};
Point(p16 + 22) = {7.754939391280742, 1.822719806546758, 0};
Point(p16 + 23) = {7.791799157335745, 1.733732459430871, 0};
Point(p16 + 24) = {7.842125806546759, 1.651606832008339, 0};
Point(p16 + 25) = {7.904680129785636, 1.578365129785636, 0};
Point(p16 + 26) = {7.977921832008339, 1.515810806546759, 0};
Point(p16 + 27) = {8.060047459430871, 1.465484157335744, 0};
Point(p16 + 28) = {8.149034806546759, 1.428624391280741, 0};
Point(p16 + 29) = {8.242692709537936, 1.406139118152574, 0};
Point(p16 + 30) = {8.338715000000001, 1.398582, 0};
Point(p16 + 31) = {8.434737290462065, 1.406139118152574, 0};
Point(p16 + 32) = {8.528395193453242, 1.428624391280741, 0};
Point(p16 + 33) = {8.61738254056913, 1.465484157335744, 0};
Point(p16 + 34) = {8.699508167991661, 1.515810806546758, 0};
Point(p16 + 35) = {8.772749870214364, 1.578365129785636, 0};
Point(p16 + 36) = {8.835304193453242, 1.651606832008339, 0};
Point(p16 + 37) = {8.885630842664256, 1.733732459430871, 0};
Point(p16 + 38) = {8.92249060871926, 1.822719806546758, 0};
Point(p16 + 39) = {8.944975881847427, 1.916377709537935, 0};
Spline(16) = {12, p16 + 1, p16 + 2, p16 + 3, p16 + 4, p16 + 5, p16 + 6, p16 + 7, p16 + 8, p16 + 9, p16 + 10, p16 + 11, p16 + 12, p16 + 13, p16 + 14, p16 + 15, p16 + 16, p16 + 17, p16 + 18, p16 + 19, p16 + 20, p16 + 21, p16 + 22, p16 + 23, p16 + 24, p16 + 25, p16 + 26, p16 + 27, p16 + 28, p16 + 29, p16 + 30, p16 + 31, p16 + 32, p16 + 33, p16 + 34, p16 + 35, p16 + 36, p16 + 37, p16 + 38, p16 + 39, 12};
Line(17) = {11, 8};
Line(18) = {12, 9};
Curve Loop(1) = {-1, 4, 3, -2};
Plane Surface(1) = {1};
Curve Loop(2) = {-5, 1, 7, -6};
Plane Surface(2) = {2};
Curve Loop(3) = {-2, 7, 9, -8, -10, -11};
Plane Surface(3) = {3};
Curve Loop(4) = {-12, 3, 8, -13};
Plane Surface(4) = {4};
Curve Loop(5) = {-4, 5, 14, -12, -15, -16};
Plane Surface(5) = {5};
Curve Loop(6) = {-6, 14, 13, -9};
Plane Surface(6) = {6};
Curve Loop(7) = {-10, -17, 15, 17};
Surface(7) = {7};
Curve Loop(8) = {-11, -18, 16, 18};
Surface(8) = {8};
Surface Loop(1) = {1, 2, 3, 4, 5, 6, 7, 8};
Volume(1) = {1};
Physical Surface("INFLOW") = {1};
Physical Surface("OUTFLOW") = {6};
Physical Surface("OBSTACLE") = {7, 8};
Physical Surface("WALL_Y") = {2, 4};
Physical Surface("WALL_Z") = {3, 5};
Physical Volume("FLUID") = {1};
