cl__1 = 3.232802;
cl__2 = 1.237219;
cl__3 = 1.389121;
cl__4 = 0.073148;
Point(1) = {0.740089, -3.066191, 1, cl__1};
Point(2) = {0.740089, -3.066191, 0, cl__1};
Point(3) = {0.740089, 4.961372000000001, 1, cl__1};
Point(4) = {0.740089, 4.961372000000001, 0, cl__1};
Point(5) = {32.077879, -3.066191, 0, cl__2};
Point(6) = {32.077879, -3.066191, 1, cl__2};
Point(7) = {32.077879, 4.961372000000001, 1, cl__3};
Point(8) = {19.77968, -1.675679, 1, cl__4};
Point(9) = {32.077879, 4.961372000000001, 0, cl__3};
Point(10) = {19.77968, -1.675679, 0, cl__4};
Line(1) = {2, 1};
Line(2) = {1, 3};
Line(3) = {4, 3};
Line(4) = {2, 4};
Line(5) = {2, 5};
Line(6) = {5, 6};
Line(7) = {1, 6};
Line(8) = {3, 7};
Line(9) = {6, 7};
p10 = newp;
Point(p10 + 1) = {19.77067431662517, -1.561250943250232, 1};
Point(p10 + 2) = {19.74387901631351, -1.449640485022591, 1};
Point(p10 + 3) = {19.69995388828721, -1.343595845212515, 1};
Point(p10 + 4) = {19.63998051497741, -1.245728194794111, 1};
Point(p10 + 5) = {19.56543563987521, -1.158447360124789, 1};
Point(p10 + 6) = {19.47815480520589, -1.083902485022591, 1};
Point(p10 + 7) = {19.38028715478748, -1.02392911171279, 1};
Point(p10 + 8) = {19.27424251497741, -0.9800039836864862, 1};
Point(p10 + 9) = {19.16263205674977, -0.9532086833748309, 1};
Point(p10 + 10) = {19.048204, -0.9442029999999999, 1};
Point(p10 + 11) = {18.93377594325023, -0.953208683374831, 1};
Point(p10 + 12) = {18.82216548502259, -0.9800039836864861, 1};
Point(p10 + 13) = {18.71612084521252, -1.023929111712789, 1};
Point(p10 + 14) = {18.61825319479411, -1.083902485022591, 1};
Point(p10 + 15) = {18.53097236012479, -1.158447360124789, 1};
Point(p10 + 16) = {18.45642748502259, -1.245728194794111, 1};
Point(p10 + 17) = {18.39645411171279, -1.343595845212515, 1};
Point(p10 + 18) = {18.35252898368648, -1.449640485022591, 1};
Point(p10 + 19) = {18.32573368337483, -1.561250943250232, 1};
Point(p10 + 20) = {18.316728, -1.675679, 1};
Point(p10 + 21) = {18.32573368337483, -1.790107056749768, 1};
Point(p10 + 22) = {18.35252898368648, -1.901717514977409, 1};
Point(p10 + 23) = {18.39645411171279, -2.007762154787484, 1};
Point(p10 + 24) = {18.45642748502259, -2.105629805205889, 1};
Point(p10 + 25) = {18.53097236012479, -2.192910639875211, 1};
Point(p10 + 26) = {18.61825319479411, -2.267455514977409, 1};
Point(p10 + 27) = {18.71612084521252, -2.32742888828721, 1};
Point(p10 + 28) = {18.82216548502259, -2.371354016313513, 1};
Point(p10 + 29) = {18.93377594325023, -2.398149316625169, 1};
Point(p10 + 30) = {19.048204, -2.407155, 1};
Point(p10 + 31) = {19.16263205674977, -2.398149316625169, 1};
Point(p10 + 32) = {19.27424251497741, -2.371354016313514, 1};
Point(p10 + 33) = {19.38028715478748, -2.32742888828721, 1};
Point(p10 + 34) = {19.47815480520589, -2.267455514977409, 1};
Point(p10 + 35) = {19.56543563987521, -2.192910639875211, 1};
Point(p10 + 36) = {19.63998051497741, -2.105629805205889, 1};
Point(p10 + 37) = {19.69995388828721, -2.007762154787485, 1};
Point(p10 + 38) = {19.74387901631351, -1.901717514977409, 1};
Point(p10 + 39) = {19.77067431662517, -1.790107056749768, 1};
Spline(10) = {8, p10 + 1, p10 + 2, p10 + 3, p10 + 4, p10 + 5, p10 + 6, p10 + 7, p10 + 8, p10 + 9, p10 + 10, p10 + 11, p10 + 12, p10 + 13, p10 + 14, p10 + 15, p10 + 16, p10 + 17, p10 + 18, p10 + 19, p10 + 20, p10 + 21, p10 + 22, p10 + 23, p10 + 24, p10 + 25, p10 + 26, p10 + 27, p10 + 28, p10 + 29, p10 + 30, p10 + 31, p10 + 32, p10 + 33, p10 + 34, p10 + 35, p10 + 36, p10 + 37, p10 + 38, p10 + 39, 8};
Line(11) = {4, 9};
Line(12) = {9, 7};
Line(13) = {5, 9};
p14 = newp;
Point(p14 + 1) = {19.77067431662517, -1.561250943250232, 0};
Point(p14 + 2) = {19.74387901631351, -1.449640485022591, 0};
Point(p14 + 3) = {19.69995388828721, -1.343595845212515, 0};
Point(p14 + 4) = {19.63998051497741, -1.245728194794111, 0};
Point(p14 + 5) = {19.56543563987521, -1.158447360124789, 0};
Point(p14 + 6) = {19.47815480520589, -1.083902485022591, 0};
Point(p14 + 7) = {19.38028715478748, -1.02392911171279, 0};
Point(p14 + 8) = {19.27424251497741, -0.9800039836864862, 0};
Point(p14 + 9) = {19.16263205674977, -0.9532086833748309, 0};
Point(p14 + 10) = {19.048204, -0.9442029999999999, 0};
Point(p14 + 11) = {18.93377594325023, -0.953208683374831, 0};
Point(p14 + 12) = {18.82216548502259, -0.9800039836864861, 0};
Point(p14 + 13) = {18.71612084521252, -1.023929111712789, 0};
Point(p14 + 14) = {18.61825319479411, -1.083902485022591, 0};
Point(p14 + 15) = {18.53097236012479, -1.158447360124789, 0};
Point(p14 + 16) = {18.45642748502259, -1.245728194794111, 0};
Point(p14 + 17) = {18.39645411171279, -1.343595845212515, 0};
Point(p14 + 18) = {18.35252898368648, -1.449640485022591, 0};
Point(p14 + 19) = {18.32573368337483, -1.561250943250232, 0};
Point(p14 + 20) = {18.316728, -1.675679, 0};
Point(p14 + 21) = {18.32573368337483, -1.790107056749768, 0};
Point(p14 + 22) = {18.35252898368648, -1.901717514977409, 0};
Point(p14 + 23) = {18.39645411171279, -2.007762154787484, 0};
Point(p14 + 24) = {18.45642748502259, -2.105629805205889, 0};
Point(p14 + 25) = {18.53097236012479, -2.192910639875211, 0};
Point(p14 + 26) = {18.61825319479411, -2.267455514977409, 0};
Point(p14 + 27) = {18.71612084521252, -2.32742888828721, 0};
Point(p14 + 28) = {18.82216548502259, -2.371354016313513, 0};
Point(p14 + 29) = {18.93377594325023, -2.398149316625169, 0};
Point(p14 + 30) = {19.048204, -2.407155, 0};
Point(p14 + 31) = {19.16263205674977, -2.398149316625169, 0};
Point(p14 + 32) = {19.27424251497741, -2.371354016313514, 0};
Point(p14 + 33) = {19.38028715478748, -2.32742888828721, 0};
Point(p14 + 34) = {19.47815480520589, -2.267455514977409, 0};
Point(p14 + 35) = {19.56543563987521, -2.192910639875211, 0};
Point(p14 + 36) = {19.63998051497741, -2.105629805205889, 0};
Point(p14 + 37) = {19.69995388828721, -2.007762154787485, 0};
Point(p14 + 38) = {19.74387901631351, -1.901717514977409, 0};
Point(p14 + 39) = {19.77067431662517, -1.790107056749768, 0};
Spline(14) = {10, p14 + 1, p14 + 2, p14 + 3, p14 + 4, p14 + 5, p14 + 6, p14 + 7, p14 + 8, p14 + 9, p14 + 10, p14 + 11, p14 + 12, p14 + 13, p14 + 14, p14 + 15, p14 + 16, p14 + 17, p14 + 18, p14 + 19, p14 + 20, p14 + 21, p14 + 22, p14 + 23, p14 + 24, p14 + 25, p14 + 26, p14 + 27, p14 + 28, p14 + 29, p14 + 30, p14 + 31, p14 + 32, p14 + 33, p14 + 34, p14 + 35, p14 + 36, p14 + 37, p14 + 38, p14 + 39, 10};
Line(15) = {10, 8};
Curve Loop(1) = {-1, 4, 3, -2};
Plane Surface(1) = {1};
Curve Loop(2) = {-5, 1, 7, -6};
Plane Surface(2) = {2};
Curve Loop(3) = {-2, 7, 9, -8, -10};
Plane Surface(3) = {3};
Curve Loop(4) = {-11, 3, 8, -12};
Plane Surface(4) = {4};
Curve Loop(5) = {-4, 5, 13, -11, -14};
Plane Surface(5) = {5};
Curve Loop(6) = {-6, 13, 12, -9};
Plane Surface(6) = {6};
Curve Loop(7) = {-10, -15, 14, 15};
Surface(7) = {7};
Surface Loop(1) = {1, 2, 3, 4, 5, 6, 7};
Volume(1) = {1};
Physical Surface("INFLOW") = {1};
Physical Surface("OUTFLOW") = {6};
Physical Surface("OBSTACLE") = {7};
Physical Surface("WALL_Y") = {2, 4};
Physical Surface("WALL_Z") = {3, 5};
Physical Volume("FLUID") = {1};
