cl__1 = 3.299091;
cl__2 = 0.644107;
cl__3 = 0.651798;
cl__4 = 0.114885;
cl__5 = 0.06594;
Point(1) = {0.400778, -3.269834, 1, cl__1};
Point(2) = {0.400778, -3.269834, 0, cl__1};
Point(3) = {0.400778, 5.194455000000001, 1, cl__2};
Point(4) = {0.400778, 5.194455000000001, 0, cl__2};
Point(5) = {32.718331, -3.269834, 0, cl__3};
Point(6) = {32.718331, -3.269834, 1, cl__3};
Point(7) = {32.718331, 5.194455000000001, 1, cl__2};
Point(8) = {28.9814, 2.538432999999999, 1, cl__4};
Point(9) = {2.578207, 3.745168, 1, cl__5};
Point(10) = {32.718331, 5.194455000000001, 0, cl__2};
Point(11) = {28.9814, 2.538432999999999, 0, cl__4};
Point(12) = {2.578207, 3.745168, 0, cl__5};
Line(1) = {2, 1};
Line(2) = {1, 3};
Line(3) = {4, 3};
Line(4) = {2, 4};
Line(5) = {2, 5};
Line(6) = {5, 6};
Line(7) = {1, 6};
Line(8) = {3, 7};
Line(9) = {6, 7};
p10 = newp;
Point(p10 + 1) = {28.96725579933936, 2.718152109423609, 1};
Point(p10 + 2) = {28.92517147451962, 2.893445937919681, 1};
Point(p10 + 3) = {28.85618328128771, 3.059998169663779, 1};
Point(p10 + 4) = {28.76198993791968, 3.213707735955198, 1};
Point(p10 + 5) = {28.64491079713904, 3.35078979713904, 1};
Point(p10 + 6) = {28.5078287359552, 3.467868937919681, 1};
Point(p10 + 7) = {28.35411916966378, 3.56206228128771, 1};
Point(p10 + 8) = {28.18756693791968, 3.631050474519622, 1};
Point(p10 + 9) = {28.01227310942361, 3.673134799339362, 1};
Point(p10 + 10) = {27.832554, 3.687279, 1};
Point(p10 + 11) = {27.65283489057639, 3.673134799339361, 1};
Point(p10 + 12) = {27.47754106208032, 3.631050474519622, 1};
Point(p10 + 13) = {27.31098883033622, 3.56206228128771, 1};
Point(p10 + 14) = {27.1572792640448, 3.467868937919681, 1};
Point(p10 + 15) = {27.02019720286096, 3.35078979713904, 1};
Point(p10 + 16) = {26.90311806208032, 3.213707735955198, 1};
Point(p10 + 17) = {26.80892471871229, 3.059998169663779, 1};
Point(p10 + 18) = {26.73993652548038, 2.893445937919681, 1};
Point(p10 + 19) = {26.69785220066064, 2.718152109423609, 1};
Point(p10 + 20) = {26.683708, 2.538433, 1};
Point(p10 + 21) = {26.69785220066064, 2.358713890576391, 1};
Point(p10 + 22) = {26.73993652548038, 2.183420062080319, 1};
Point(p10 + 23) = {26.80892471871229, 2.016867830336221, 1};
Point(p10 + 24) = {26.90311806208032, 1.863158264044801, 1};
Point(p10 + 25) = {27.02019720286096, 1.72607620286096, 1};
Point(p10 + 26) = {27.1572792640448, 1.608997062080319, 1};
Point(p10 + 27) = {27.31098883033622, 1.51480371871229, 1};
Point(p10 + 28) = {27.47754106208032, 1.445815525480378, 1};
Point(p10 + 29) = {27.65283489057639, 1.403731200660638, 1};
Point(p10 + 30) = {27.832554, 1.389587, 1};
Point(p10 + 31) = {28.01227310942361, 1.403731200660638, 1};
Point(p10 + 32) = {28.18756693791968, 1.445815525480378, 1};
Point(p10 + 33) = {28.35411916966378, 1.51480371871229, 1};
Point(p10 + 34) = {28.5078287359552, 1.608997062080319, 1};
Point(p10 + 35) = {28.64491079713904, 1.726076202860959, 1};
Point(p10 + 36) = {28.76198993791968, 1.863158264044801, 1};
Point(p10 + 37) = {28.85618328128771, 2.01686783033622, 1};
Point(p10 + 38) = {28.92517147451962, 2.183420062080319, 1};
Point(p10 + 39) = {28.96725579933936, 2.358713890576391, 1};
Spline(10) = {8, p10 + 1, p10 + 2, p10 + 3, p10 + 4, p10 + 5, p10 + 6, p10 + 7, p10 + 8, p10 + 9, p10 + 10, p10 + 11, p10 + 12, p10 + 13, p10 + 14, p10 + 15, p10 + 16, p10 + 17, p10 + 18, p10 + 19, p10 + 20, p10 + 21, p10 + 22, p10 + 23, p10 + 24, p10 + 25, p10 + 26, p10 + 27, p10 + 28, p10 + 29, p10 + 30, p10 + 31, p10 + 32, p10 + 33, p10 + 34, p10 + 35, p10 + 36, p10 + 37, p10 + 38, p10 + 39, 8};
p11 = newp;
Point(p11 + 1) = {2.570088753346731, 3.848320104075203, 1};
Point(p11 + 2) = {2.545933911562443, 3.948932261005869, 1};
Point(p11 + 3) = {2.506337247017189, 4.044527065575759, 1};
Point(p11 + 4) = {2.452273761005868, 4.132750656435396, 1};
Point(p11 + 5) = {2.385074675980503, 4.211430675980504, 1};
Point(p11 + 6) = {2.306394656435395, 4.278629761005869, 1};
Point(p11 + 7) = {2.218171065575758, 4.332693247017189, 1};
Point(p11 + 8) = {2.122576261005868, 4.372289911562443, 1};
Point(p11 + 9) = {2.021964104075203, 4.396444753346731, 1};
Point(p11 + 10) = {1.918812, 4.404563, 1};
Point(p11 + 11) = {1.815659895924797, 4.396444753346731, 1};
Point(p11 + 12) = {1.715047738994132, 4.372289911562443, 1};
Point(p11 + 13) = {1.619452934424242, 4.332693247017189, 1};
Point(p11 + 14) = {1.531229343564605, 4.278629761005869, 1};
Point(p11 + 15) = {1.452549324019496, 4.211430675980504, 1};
Point(p11 + 16) = {1.385350238994131, 4.132750656435396, 1};
Point(p11 + 17) = {1.331286752982811, 4.044527065575759, 1};
Point(p11 + 18) = {1.291690088437557, 3.948932261005869, 1};
Point(p11 + 19) = {1.267535246653269, 3.848320104075203, 1};
Point(p11 + 20) = {1.259417, 3.745168, 1};
Point(p11 + 21) = {1.267535246653269, 3.642015895924797, 1};
Point(p11 + 22) = {1.291690088437557, 3.541403738994132, 1};
Point(p11 + 23) = {1.331286752982811, 3.445808934424242, 1};
Point(p11 + 24) = {1.385350238994131, 3.357585343564605, 1};
Point(p11 + 25) = {1.452549324019496, 3.278905324019497, 1};
Point(p11 + 26) = {1.531229343564604, 3.211706238994132, 1};
Point(p11 + 27) = {1.619452934424241, 3.157642752982811, 1};
Point(p11 + 28) = {1.715047738994131, 3.118046088437557, 1};
Point(p11 + 29) = {1.815659895924797, 3.09389124665327, 1};
Point(p11 + 30) = {1.918812, 3.085773, 1};
Point(p11 + 31) = {2.021964104075203, 3.093891246653269, 1};
Point(p11 + 32) = {2.122576261005868, 3.118046088437557, 1};
Point(p11 + 33) = {2.218171065575758, 3.157642752982811, 1};
Point(p11 + 34) = {2.306394656435395, 3.211706238994132, 1};
Point(p11 + 35) = {2.385074675980503, 3.278905324019497, 1};
Point(p11 + 36) = {2.452273761005868, 3.357585343564605, 1};
Point(p11 + 37) = {2.506337247017189, 3.445808934424242, 1};
Point(p11 + 38) = {2.545933911562443, 3.541403738994132, 1};
Point(p11 + 39) = {2.570088753346731, 3.642015895924797, 1};
Spline(11) = {9, p11 + 1, p11 + 2, p11 + 3, p11 + 4, p11 + 5, p11 + 6, p11 + 7, p11 + 8, p11 + 9, p11 + 10, p11 + 11, p11 + 12, p11 + 13, p11 + 14, p11 + 15, p11 + 16, p11 + 17, p11 + 18, p11 + 19, p11 + 20, p11 + 21, p11 + 22, p11 + 23, p11 + 24, p11 + 25, p11 + 26, p11 + 27, p11 + 28, p11 + 29, p11 + 30, p11 + 31, p11 + 32, p11 + 33, p11 + 34, p11 + 35, p11 + 36, p11 + 37, p11 + 38, p11 + 39, 9};
Line(12) = {4, 10};
Line(13) = {10, 7};
Line(14) = {5, 10};
p15 = newp;
Point(p15 + 1) = {28.96725579933936, 2.718152109423609, 0};
Point(p15 + 2) = {28.92517147451962, 2.893445937919681, 0};
Point(p15 + 3) = {28.85618328128771, 3.059998169663779, 0};
Point(p15 + 4) = {28.76198993791968, 3.213707735955198, 0};
Point(p15 + 5) = {28.64491079713904, 3.35078979713904, 0};
Point(p15 + 6) = {28.5078287359552, 3.467868937919681, 0};
Point(p15 + 7) = {28.35411916966378, 3.56206228128771, 0};
Point(p15 + 8) = {28.18756693791968, 3.631050474519622, 0};
Point(p15 + 9) = {28.01227310942361, 3.673134799339362, 0};
Point(p15 + 10) = {27.832554, 3.687279, 0};
Point(p15 + 11) = {27.65283489057639, 3.673134799339361, 0};
Point(p15 + 12) = {27.47754106208032, 3.631050474519622, 0};
Point(p15 + 13) = {27.31098883033622, 3.56206228128771, 0};
Point(p15 + 14) = {27.1572792640448, 3.467868937919681, 0};
Point(p15 + 15) = {27.02019720286096, 3.35078979713904, 0};
Point(p15 + 16) = {26.90311806208032, 3.213707735955198, 0};
Point(p15 + 17) = {26.80892471871229, 3.059998169663779, 0};
Point(p15 + 18) = {26.73993652548038, 2.893445937919681, 0};
Point(p15 + 19) = {26.69785220066064, 2.718152109423609, 0};
Point(p15 + 20) = {26.683708, 2.538433, 0};
Point(p15 + 21) = {26.69785220066064, 2.358713890576391, 0};
Point(p15 + 22) = {26.73993652548038, 2.183420062080319, 0};
Point(p15 + 23) = {26.80892471871229, 2.016867830336221, 0};
Point(p15 + 24) = {26.90311806208032, 1.863158264044801, 0};
Point(p15 + 25) = {27.02019720286096, 1.72607620286096, 0};
Point(p15 + 26) = {27.1572792640448, 1.608997062080319, 0};
Point(p15 + 27) = {27.31098883033622, 1.51480371871229, 0};
Point(p15 + 28) = {27.47754106208032, 1.445815525480378, 0};
Point(p15 + 29) = {27.65283489057639, 1.403731200660638, 0};
Point(p15 + 30) = {27.832554, 1.389587, 0};
Point(p15 + 31) = {28.01227310942361, 1.403731200660638, 0};
Point(p15 + 32) = {28.18756693791968, 1.445815525480378, 0};
Point(p15 + 33) = {28.35411916966378, 1.51480371871229, 0};
Point(p15 + 34) = {28.5078287359552, 1.608997062080319, 0};
Point(p15 + 35) = {28.64491079713904, 1.726076202860959, 0};
Point(p15 + 36) = {28.76198993791968, 1.863158264044801, 0};
Point(p15 + 37) = {28.85618328128771, 2.01686783033622, 0};
Point(p15 + 38) = {28.92517147451962, 2.183420062080319, 0};
Point(p15 + 39) = {28.96725579933936, 2.358713890576391, 0};
Spline(15) = {11, p15 + 1, p15 + 2, p15 + 3, p15 + 4, p15 + 5, p15 + 6, p15 + 7, p15 + 8, p15 + 9, p15 + 10, p15 + 11, p15 + 12, p15 + 13, p15 + 14, p15 + 15, p15 + 16, p15 + 17, p15 + 18, p15 + 19, p15 + 20, p15 + 21, p15 + 22, p15 + 23, p15 + 24, p15 + 25, p15 + 26, p15 + 27, p15 + 28, p15 + 29, p15 + 30, p15 + 31, p15 + 32, p15 + 33, p15 + 34, p15 + 35, p15 + 36, p15 + 37, p15 + 38, p15 + 39, 11};
p16 = newp;
Point(p16 + 1) = {2.570088753346731, 3.848320104075203, 0};
Point(p16 + 2) = {2.545933911562443, 3.948932261005869, 0};
Point(p16 + 3) = {2.506337247017189, 4.044527065575759, 0};
Point(p16 + 4) = {2.452273761005868, 4.132750656435396, 0};
Point(p16 + 5) = {2.385074675980503, 4.211430675980504, 0};
Point(p16 + 6) = {2.306394656435395, 4.278629761005869, 0};
Point(p16 + 7) = {2.218171065575758, 4.332693247017189, 0};
Point(p16 + 8) = {2.122576261005868, 4.372289911562443, 0};
Point(p16 + 9) = {2.021964104075203, 4.396444753346731, 0};
Point(p16 + 10) = {1.918812, 4.404563, 0};
Point(p16 + 11) = {1.815659895924797, 4.396444753346731, 0};
Point(p16 + 12) = {1.715047738994132, 4.372289911562443, 0};
Point(p16 + 13) = {1.619452934424242, 4.332693247017189, 0};
Point(p16 + 14) = {1.531229343564605, 4.278629761005869, 0};
Point(p16 + 15) = {1.452549324019496, 4.211430675980504, 0};
Point(p16 + 16) = {1.385350238994131, 4.132750656435396, 0};
Point(p16 + 17) = {1.331286752982811, 4.044527065575759, 0};
Point(p16 + 18) = {1.291690088437557, 3.948932261005869, 0};
Point(p16 + 19) = {1.267535246653269, 3.848320104075203, 0};
Point(p16 + 20) = {1.259417, 3.745168, 0};
Point(p16 + 21) = {1.267535246653269, 3.642015895924797, 0};
Point(p16 + 22) = {1.291690088437557, 3.541403738994132, 0};
Point(p16 + 23) = {1.331286752982811, 3.445808934424242, 0};
Point(p16 + 24) = {1.385350238994131, 3.357585343564605, 0};
Point(p16 + 25) = {1.452549324019496, 3.278905324019497, 0};
Point(p16 + 26) = {1.531229343564604, 3.211706238994132, 0};
Point(p16 + 27) = {1.619452934424241, 3.157642752982811, 0};
Point(p16 + 28) = {1.715047738994131, 3.118046088437557, 0};
Point(p16 + 29) = {1.815659895924797, 3.09389124665327, 0};
Point(p16 + 30) = {1.918812, 3.085773, 0};
Point(p16 + 31) = {2.021964104075203, 3.093891246653269, 0};
Point(p16 + 32) = {2.122576261005868, 3.118046088437557, 0};
Point(p16 + 33) = {2.218171065575758, 3.157642752982811, 0};
Point(p16 + 34) = {2.306394656435395, 3.211706238994132, 0};
Point(p16 + 35) = {2.385074675980503, 3.278905324019497, 0};
Point(p16 + 36) = {2.452273761005868, 3.357585343564605, 0};
Point(p16 + 37) = {2.506337247017189, 3.445808934424242, 0};
Point(p16 + 38) = {2.545933911562443, 3.541403738994132, 0};
Point(p16 + 39) = {2.570088753346731, 3.642015895924797, 0};
Spline(16) = {12, p16 + 1, p16 + 2, p16 + 3, p16 + 4, p16 + 5, p16 + 6, p16 + 7, p16 + 8, p16 + 9, p16 + 10, p16 + 11, p16 + 12, p16 + 13, p16 + 14, p16 + 15, p16 + 16, p16 + 17, p16 + 18, p16 + 19, p16 + 20, p16 + 21, p16 + 22, p16 + 23, p16 + 24, p16 + 25, p16 + 26, p16 + 27, p16 + 28, p16 + 29, p16 + 30, p16 + 31, p16 + 32, p16 + 33, p16 + 34, p16 + 35, p16 + 36, p16 + 37, p16 + 38, p16 + 39, 12};
Line(17) = {11, 8};
Line(18) = {12, 9};
Curve Loop(1) = {-1, 4, 3, -2};
Plane Surface(1) = {1};
Curve Loop(2) = {-5, 1, 7, -6};
Plane Surface(2) = {2};
Curve Loop(3) = {-2, 7, 9, -8, -10, -11};
Plane Surface(3) = {3};
Curve Loop(4) = {-12, 3, 8, -13};
Plane Surface(4) = {4};
Curve Loop(5) = {-4, 5, 14, -12, -15, -16};
Plane Surface(5) = {5};
Curve Loop(6) = {-6, 14, 13, -9};
Plane Surface(6) = {6};
Curve Loop(7) = {-10, -17, 15, 17};
Surface(7) = {7};
Curve Loop(8) = {-11, -18, 16, 18};
Surface(8) = {8};
Surface Loop(1) = {1, 2, 3, 4, 5, 6, 7, 8};
Volume(1) = {1};
Physical Surface("INFLOW") = {1};
Physical Surface("OUTFLOW") = {6};
Physical Surface("OBSTACLE") = {7, 8};
Physical Surface("WALL_Y") = {2, 4};
Physical Surface("WALL_Z") = {3, 5};
Physical Volume("FLUID") = {1};
