cl__1 = 1.610893;
cl__2 = 0.6823630000000001;
cl__3 = 1.428411;
cl__4 = 0.113429;
cl__5 = 0.056612;
Point(1) = {0.536565, -3.521337, 1, cl__1};
Point(2) = {0.536565, -3.521337, 0, cl__1};
Point(3) = {0.536565, 4.753430000000001, 1, cl__2};
Point(4) = {0.536565, 4.753430000000001, 0, cl__2};
Point(5) = {32.774678, -3.521337, 0, cl__1};
Point(6) = {32.774678, -3.521337, 1, cl__1};
Point(7) = {32.774678, 4.753430000000001, 1, cl__3};
Point(8) = {18.714309, -0.9041710000000002, 1, cl__4};
Point(9) = {27.917451, 1.498194, 1, cl__5};
Point(10) = {32.774678, 4.753430000000001, 0, cl__3};
Point(11) = {18.714309, -0.9041710000000002, 0, cl__4};
Point(12) = {27.917451, 1.498194, 0, cl__5};
Line(1) = {2, 1};
Line(2) = {1, 3};
Line(3) = {4, 3};
Line(4) = {2, 4};
Line(5) = {2, 5};
Line(6) = {5, 6};
Line(7) = {1, 6};
Line(8) = {3, 7};
Line(9) = {6, 7};
p10 = newp;
Point(p10 + 1) = {18.70034395860702, -0.7267283249116563, 1};
Point(p10 + 2) = {18.65879270009449, -0.5536548773824634, 1};
Point(p10 + 3) = {18.59067835434772, -0.3892123000884306, 1};
Point(p10 + 4) = {18.49767812261754, -0.2374497150361615, 1};
Point(p10 + 5) = {18.38208197925921, -0.1021040207407864, 1};
Point(p10 + 6) = {18.24673628496384, 0.01349212261753663, 1};
Point(p10 + 7) = {18.09497369991157, 0.1064923543477204, 1};
Point(p10 + 8) = {17.93053112261754, 0.1746067000944947, 1};
Point(p10 + 9) = {17.75745767508834, 0.2161579586070211, 1};
Point(p10 + 10) = {17.580015, 0.230123, 1};
Point(p10 + 11) = {17.40257232491166, 0.2161579586070211, 1};
Point(p10 + 12) = {17.22949887738246, 0.174606700094495, 1};
Point(p10 + 13) = {17.06505630008843, 0.1064923543477206, 1};
Point(p10 + 14) = {16.91329371503616, 0.01349212261753663, 1};
Point(p10 + 15) = {16.77794802074079, -0.1021040207407862, 1};
Point(p10 + 16) = {16.66235187738246, -0.2374497150361613, 1};
Point(p10 + 17) = {16.56935164565228, -0.3892123000884304, 1};
Point(p10 + 18) = {16.5012372999055, -0.5536548773824632, 1};
Point(p10 + 19) = {16.45968604139298, -0.7267283249116562, 1};
Point(p10 + 20) = {16.445721, -0.9041709999999998, 1};
Point(p10 + 21) = {16.45968604139298, -1.081613675088343, 1};
Point(p10 + 22) = {16.5012372999055, -1.254687122617537, 1};
Point(p10 + 23) = {16.56935164565228, -1.419129699911569, 1};
Point(p10 + 24) = {16.66235187738246, -1.570892284963838, 1};
Point(p10 + 25) = {16.77794802074079, -1.706237979259213, 1};
Point(p10 + 26) = {16.91329371503616, -1.821834122617537, 1};
Point(p10 + 27) = {17.06505630008843, -1.91483435434772, 1};
Point(p10 + 28) = {17.22949887738246, -1.982948700094495, 1};
Point(p10 + 29) = {17.40257232491166, -2.024499958607021, 1};
Point(p10 + 30) = {17.580015, -2.038465, 1};
Point(p10 + 31) = {17.75745767508834, -2.024499958607021, 1};
Point(p10 + 32) = {17.93053112261753, -1.982948700094495, 1};
Point(p10 + 33) = {18.09497369991157, -1.91483435434772, 1};
Point(p10 + 34) = {18.24673628496384, -1.821834122617537, 1};
Point(p10 + 35) = {18.38208197925921, -1.706237979259214, 1};
Point(p10 + 36) = {18.49767812261754, -1.570892284963839, 1};
Point(p10 + 37) = {18.59067835434772, -1.419129699911569, 1};
Point(p10 + 38) = {18.65879270009449, -1.254687122617537, 1};
Point(p10 + 39) = {18.70034395860702, -1.081613675088344, 1};
Spline(10) = {8, p10 + 1, p10 + 2, p10 + 3, p10 + 4, p10 + 5, p10 + 6, p10 + 7, p10 + 8, p10 + 9, p10 + 10, p10 + 11, p10 + 12, p10 + 13, p10 + 14, p10 + 15, p10 + 16, p10 + 17, p10 + 18, p10 + 19, p10 + 20, p10 + 21, p10 + 22, p10 + 23, p10 + 24, p10 + 25, p10 + 26, p10 + 27, p10 + 28, p10 + 29, p10 + 30, p10 + 31, p10 + 32, p10 + 33, p10 + 34, p10 + 35, p10 + 36, p10 + 37, p10 + 38, p10 + 39, 8};
p11 = newp;
Point(p11 + 1) = {27.91048118493602, 1.58675389717625, 1};
Point(p11 + 2) = {27.88974335972243, 1.673133155770573, 1};
Point(p11 + 3) = {27.8557481584409, 1.755204831760053, 1};
Point(p11 + 4) = {27.80933265577057, 1.830948048101553, 1};
Point(p11 + 5) = {27.75163975543142, 1.898497755431422, 1};
Point(p11 + 6) = {27.68409004810155, 1.956190655770573, 1};
Point(p11 + 7) = {27.60834683176005, 2.002606158440898, 1};
Point(p11 + 8) = {27.52627515577057, 2.036601359722431, 1};
Point(p11 + 9) = {27.43989589717625, 2.057339184936017, 1};
Point(p11 + 10) = {27.351336, 2.064309, 1};
Point(p11 + 11) = {27.26277610282375, 2.057339184936017, 1};
Point(p11 + 12) = {27.17639684422943, 2.036601359722431, 1};
Point(p11 + 13) = {27.09432516823995, 2.002606158440898, 1};
Point(p11 + 14) = {27.01858195189845, 1.956190655770573, 1};
Point(p11 + 15) = {26.95103224456858, 1.898497755431422, 1};
Point(p11 + 16) = {26.89333934422943, 1.830948048101554, 1};
Point(p11 + 17) = {26.8469238415591, 1.755204831760054, 1};
Point(p11 + 18) = {26.81292864027757, 1.673133155770574, 1};
Point(p11 + 19) = {26.79219081506398, 1.58675389717625, 1};
Point(p11 + 20) = {26.785221, 1.498194, 1};
Point(p11 + 21) = {26.79219081506398, 1.40963410282375, 1};
Point(p11 + 22) = {26.81292864027757, 1.323254844229427, 1};
Point(p11 + 23) = {26.8469238415591, 1.241183168239947, 1};
Point(p11 + 24) = {26.89333934422942, 1.165439951898447, 1};
Point(p11 + 25) = {26.95103224456858, 1.097890244568578, 1};
Point(p11 + 26) = {27.01858195189845, 1.040197344229427, 1};
Point(p11 + 27) = {27.09432516823995, 0.9937818415591022, 1};
Point(p11 + 28) = {27.17639684422943, 0.9597866402775691, 1};
Point(p11 + 29) = {27.26277610282375, 0.9390488150639836, 1};
Point(p11 + 30) = {27.351336, 0.932079, 1};
Point(p11 + 31) = {27.43989589717625, 0.9390488150639835, 1};
Point(p11 + 32) = {27.52627515577057, 0.9597866402775691, 1};
Point(p11 + 33) = {27.60834683176005, 0.9937818415591021, 1};
Point(p11 + 34) = {27.68409004810155, 1.040197344229427, 1};
Point(p11 + 35) = {27.75163975543142, 1.097890244568577, 1};
Point(p11 + 36) = {27.80933265577057, 1.165439951898446, 1};
Point(p11 + 37) = {27.8557481584409, 1.241183168239946, 1};
Point(p11 + 38) = {27.88974335972243, 1.323254844229427, 1};
Point(p11 + 39) = {27.91048118493602, 1.40963410282375, 1};
Spline(11) = {9, p11 + 1, p11 + 2, p11 + 3, p11 + 4, p11 + 5, p11 + 6, p11 + 7, p11 + 8, p11 + 9, p11 + 10, p11 + 11, p11 + 12, p11 + 13, p11 + 14, p11 + 15, p11 + 16, p11 + 17, p11 + 18, p11 + 19, p11 + 20, p11 + 21, p11 + 22, p11 + 23, p11 + 24, p11 + 25, p11 + 26, p11 + 27, p11 + 28, p11 + 29, p11 + 30, p11 + 31, p11 + 32, p11 + 33, p11 + 34, p11 + 35, p11 + 36, p11 + 37, p11 + 38, p11 + 39, 9};
Line(12) = {4, 10};
Line(13) = {10, 7};
Line(14) = {5, 10};
p15 = newp;
Point(p15 + 1) = {18.70034395860702, -0.7267283249116563, 0};
Point(p15 + 2) = {18.65879270009449, -0.5536548773824634, 0};
Point(p15 + 3) = {18.59067835434772, -0.3892123000884306, 0};
Point(p15 + 4) = {18.49767812261754, -0.2374497150361615, 0};
Point(p15 + 5) = {18.38208197925921, -0.1021040207407864, 0};
Point(p15 + 6) = {18.24673628496384, 0.01349212261753663, 0};
Point(p15 + 7) = {18.09497369991157, 0.1064923543477204, 0};
Point(p15 + 8) = {17.93053112261754, 0.1746067000944947, 0};
Point(p15 + 9) = {17.75745767508834, 0.2161579586070211, 0};
Point(p15 + 10) = {17.580015, 0.230123, 0};
Point(p15 + 11) = {17.40257232491166, 0.2161579586070211, 0};
Point(p15 + 12) = {17.22949887738246, 0.174606700094495, 0};
Point(p15 + 13) = {17.06505630008843, 0.1064923543477206, 0};
Point(p15 + 14) = {16.91329371503616, 0.01349212261753663, 0};
Point(p15 + 15) = {16.77794802074079, -0.1021040207407862, 0};
Point(p15 + 16) = {16.66235187738246, -0.2374497150361613, 0};
Point(p15 + 17) = {16.56935164565228, -0.3892123000884304, 0};
Point(p15 + 18) = {16.5012372999055, -0.5536548773824632, 0};
Point(p15 + 19) = {16.45968604139298, -0.7267283249116562, 0};
Point(p15 + 20) = {16.445721, -0.9041709999999998, 0};
Point(p15 + 21) = {16.45968604139298, -1.081613675088343, 0};
Point(p15 + 22) = {16.5012372999055, -1.254687122617537, 0};
Point(p15 + 23) = {16.56935164565228, -1.419129699911569, 0};
Point(p15 + 24) = {16.66235187738246, -1.570892284963838, 0};
Point(p15 + 25) = {16.77794802074079, -1.706237979259213, 0};
Point(p15 + 26) = {16.91329371503616, -1.821834122617537, 0};
Point(p15 + 27) = {17.06505630008843, -1.91483435434772, 0};
Point(p15 + 28) = {17.22949887738246, -1.982948700094495, 0};
Point(p15 + 29) = {17.40257232491166, -2.024499958607021, 0};
Point(p15 + 30) = {17.580015, -2.038465, 0};
Point(p15 + 31) = {17.75745767508834, -2.024499958607021, 0};
Point(p15 + 32) = {17.93053112261753, -1.982948700094495, 0};
Point(p15 + 33) = {18.09497369991157, -1.91483435434772, 0};
Point(p15 + 34) = {18.24673628496384, -1.821834122617537, 0};
Point(p15 + 35) = {18.38208197925921, -1.706237979259214, 0};
Point(p15 + 36) = {18.49767812261754, -1.570892284963839, 0};
Point(p15 + 37) = {18.59067835434772, -1.419129699911569, 0};
Point(p15 + 38) = {18.65879270009449, -1.254687122617537, 0};
Point(p15 + 39) = {18.70034395860702, -1.081613675088344, 0};
Spline(15) = {11, p15 + 1, p15 + 2, p15 + 3, p15 + 4, p15 + 5, p15 + 6, p15 + 7, p15 + 8, p15 + 9, p15 + 10, p15 + 11, p15 + 12, p15 + 13, p15 + 14, p15 + 15, p15 + 16, p15 + 17, p15 + 18, p15 + 19, p15 + 20, p15 + 21, p15 + 22, p15 + 23, p15 + 24, p15 + 25, p15 + 26, p15 + 27, p15 + 28, p15 + 29, p15 + 30, p15 + 31, p15 + 32, p15 + 33, p15 + 34, p15 + 35, p15 + 36, p15 + 37, p15 + 38, p15 + 39, 11};
p16 = newp;
Point(p16 + 1) = {27.91048118493602, 1.58675389717625, 0};
Point(p16 + 2) = {27.88974335972243, 1.673133155770573, 0};
Point(p16 + 3) = {27.8557481584409, 1.755204831760053, 0};
Point(p16 + 4) = {27.80933265577057, 1.830948048101553, 0};
Point(p16 + 5) = {27.75163975543142, 1.898497755431422, 0};
Point(p16 + 6) = {27.68409004810155, 1.956190655770573, 0};
Point(p16 + 7) = {27.60834683176005, 2.002606158440898, 0};
Point(p16 + 8) = {27.52627515577057, 2.036601359722431, 0};
Point(p16 + 9) = {27.43989589717625, 2.057339184936017, 0};
Point(p16 + 10) = {27.351336, 2.064309, 0};
Point(p16 + 11) = {27.26277610282375, 2.057339184936017, 0};
Point(p16 + 12) = {27.17639684422943, 2.036601359722431, 0};
Point(p16 + 13) = {27.09432516823995, 2.002606158440898, 0};
Point(p16 + 14) = {27.01858195189845, 1.956190655770573, 0};
Point(p16 + 15) = {26.95103224456858, 1.898497755431422, 0};
Point(p16 + 16) = {26.89333934422943, 1.830948048101554, 0};
Point(p16 + 17) = {26.8469238415591, 1.755204831760054, 0};
Point(p16 + 18) = {26.81292864027757, 1.673133155770574, 0};
Point(p16 + 19) = {26.79219081506398, 1.58675389717625, 0};
Point(p16 + 20) = {26.785221, 1.498194, 0};
Point(p16 + 21) = {26.79219081506398, 1.40963410282375, 0};
Point(p16 + 22) = {26.81292864027757, 1.323254844229427, 0};
Point(p16 + 23) = {26.8469238415591, 1.241183168239947, 0};
Point(p16 + 24) = {26.89333934422942, 1.165439951898447, 0};
Point(p16 + 25) = {26.95103224456858, 1.097890244568578, 0};
Point(p16 + 26) = {27.01858195189845, 1.040197344229427, 0};
Point(p16 + 27) = {27.09432516823995, 0.9937818415591022, 0};
Point(p16 + 28) = {27.17639684422943, 0.9597866402775691, 0};
Point(p16 + 29) = {27.26277610282375, 0.9390488150639836, 0};
Point(p16 + 30) = {27.351336, 0.932079, 0};
Point(p16 + 31) = {27.43989589717625, 0.9390488150639835, 0};
Point(p16 + 32) = {27.52627515577057, 0.9597866402775691, 0};
Point(p16 + 33) = {27.60834683176005, 0.9937818415591021, 0};
Point(p16 + 34) = {27.68409004810155, 1.040197344229427, 0};
Point(p16 + 35) = {27.75163975543142, 1.097890244568577, 0};
Point(p16 + 36) = {27.80933265577057, 1.165439951898446, 0};
Point(p16 + 37) = {27.8557481584409, 1.241183168239946, 0};
Point(p16 + 38) = {27.88974335972243, 1.323254844229427, 0};
Point(p16 + 39) = {27.91048118493602, 1.40963410282375, 0};
Spline(16) = {12, p16 + 1, p16 + 2, p16 + 3, p16 + 4, p16 + 5, p16 + 6, p16 + 7, p16 + 8, p16 + 9, p16 + 10, p16 + 11, p16 + 12, p16 + 13, p16 + 14, p16 + 15, p16 + 16, p16 + 17, p16 + 18, p16 + 19, p16 + 20, p16 + 21, p16 + 22, p16 + 23, p16 + 24, p16 + 25, p16 + 26, p16 + 27, p16 + 28, p16 + 29, p16 + 30, p16 + 31, p16 + 32, p16 + 33, p16 + 34, p16 + 35, p16 + 36, p16 + 37, p16 + 38, p16 + 39, 12};
Line(17) = {11, 8};
Line(18) = {12, 9};
Curve Loop(1) = {-1, 4, 3, -2};
Plane Surface(1) = {1};
Curve Loop(2) = {-5, 1, 7, -6};
Plane Surface(2) = {2};
Curve Loop(3) = {-2, 7, 9, -8, -10, -11};
Plane Surface(3) = {3};
Curve Loop(4) = {-12, 3, 8, -13};
Plane Surface(4) = {4};
Curve Loop(5) = {-4, 5, 14, -12, -15, -16};
Plane Surface(5) = {5};
Curve Loop(6) = {-6, 14, 13, -9};
Plane Surface(6) = {6};
Curve Loop(7) = {-10, -17, 15, 17};
Surface(7) = {7};
Curve Loop(8) = {-11, -18, 16, 18};
Surface(8) = {8};
Surface Loop(1) = {1, 2, 3, 4, 5, 6, 7, 8};
Volume(1) = {1};
Physical Surface("INFLOW") = {1};
Physical Surface("OUTFLOW") = {6};
Physical Surface("OBSTACLE") = {7, 8};
Physical Surface("WALL_Y") = {2, 4};
Physical Surface("WALL_Z") = {3, 5};
Physical Volume("FLUID") = {1};
