cl__1 = 1.295964;
cl__2 = 1.407378;
cl__3 = 0.610928;
cl__4 = 0.9432469999999999;
cl__5 = 0.08969000000000001;
cl__6 = 0.1065;
Point(1) = {0.017143, -3.944552, 1, cl__1};
Point(2) = {0.017143, -3.944552, 0, cl__1};
Point(3) = {0.017143, 5.570867, 1, cl__2};
Point(4) = {0.017143, 5.570867, 0, cl__2};
Point(5) = {36.74033, -3.944552, 0, cl__3};
Point(6) = {36.74033, -3.944552, 1, cl__3};
Point(7) = {36.74033, 5.570867, 1, cl__4};
Point(8) = {30.848141, -2.214003, 1, cl__5};
Point(9) = {14.77104, -0.8941890000000003, 1, cl__6};
Point(10) = {36.74033, 5.570867, 0, cl__4};
Point(11) = {30.848141, -2.214003, 0, cl__5};
Point(12) = {14.77104, -0.8941890000000003, 0, cl__6};
Line(1) = {2, 1};
Line(2) = {1, 3};
Line(3) = {4, 3};
Line(4) = {2, 4};
Line(5) = {2, 5};
Line(6) = {5, 6};
Line(7) = {1, 6};
Line(8) = {3, 7};
Line(9) = {6, 7};
p10 = newp;
Point(p10 + 1) = {30.83709872192642, -2.073697554043277, 1};
Point(p10 + 2) = {30.80424378523906, -1.936846893813087, 1};
Point(p10 + 3) = {30.75038518751845, -1.806820736745599, 1};
Point(p10 + 4) = {30.67684910618691, -1.68682075835989, 1};
Point(p10 + 5) = {30.58544624361909, -1.57980175638091, 1};
Point(p10 + 6) = {30.47842724164011, -1.488398893813087, 1};
Point(p10 + 7) = {30.3584272632544, -1.41486281248155, 1};
Point(p10 + 8) = {30.22840110618691, -1.361004214760942, 1};
Point(p10 + 9) = {30.09155044595672, -1.328149278073583, 1};
Point(p10 + 10) = {29.951245, -1.317107, 1};
Point(p10 + 11) = {29.81093955404328, -1.328149278073583, 1};
Point(p10 + 12) = {29.67408889381309, -1.361004214760942, 1};
Point(p10 + 13) = {29.5440627367456, -1.414862812481549, 1};
Point(p10 + 14) = {29.42406275835989, -1.488398893813087, 1};
Point(p10 + 15) = {29.31704375638091, -1.57980175638091, 1};
Point(p10 + 16) = {29.22564089381309, -1.68682075835989, 1};
Point(p10 + 17) = {29.15210481248155, -1.806820736745599, 1};
Point(p10 + 18) = {29.09824621476094, -1.936846893813087, 1};
Point(p10 + 19) = {29.06539127807358, -2.073697554043277, 1};
Point(p10 + 20) = {29.054349, -2.214003, 1};
Point(p10 + 21) = {29.06539127807358, -2.354308445956723, 1};
Point(p10 + 22) = {29.09824621476094, -2.491159106186913, 1};
Point(p10 + 23) = {29.15210481248155, -2.6211852632544, 1};
Point(p10 + 24) = {29.22564089381309, -2.74118524164011, 1};
Point(p10 + 25) = {29.31704375638091, -2.84820424361909, 1};
Point(p10 + 26) = {29.42406275835989, -2.939607106186913, 1};
Point(p10 + 27) = {29.5440627367456, -3.01314318751845, 1};
Point(p10 + 28) = {29.67408889381309, -3.067001785239058, 1};
Point(p10 + 29) = {29.81093955404328, -3.099856721926416, 1};
Point(p10 + 30) = {29.951245, -3.110899, 1};
Point(p10 + 31) = {30.09155044595672, -3.099856721926417, 1};
Point(p10 + 32) = {30.22840110618691, -3.067001785239058, 1};
Point(p10 + 33) = {30.3584272632544, -3.01314318751845, 1};
Point(p10 + 34) = {30.47842724164011, -2.939607106186913, 1};
Point(p10 + 35) = {30.58544624361909, -2.84820424361909, 1};
Point(p10 + 36) = {30.67684910618691, -2.74118524164011, 1};
Point(p10 + 37) = {30.75038518751845, -2.621185263254401, 1};
Point(p10 + 38) = {30.80424378523906, -2.491159106186913, 1};
Point(p10 + 39) = {30.83709872192642, -2.354308445956723, 1};
Spline(10) = {8, p10 + 1, p10 + 2, p10 + 3, p10 + 4, p10 + 5, p10 + 6, p10 + 7, p10 + 8, p10 + 9, p10 + 10, p10 + 11, p10 + 12, p10 + 13, p10 + 14, p10 + 15, p10 + 16, p10 + 17, p10 + 18, p10 + 19, p10 + 20, p10 + 21, p10 + 22, p10 + 23, p10 + 24, p10 + 25, p10 + 26, p10 + 27, p10 + 28, p10 + 29, p10 + 30, p10 + 31, p10 + 32, p10 + 33, p10 + 34, p10 + 35, p10 + 36, p10 + 37, p10 + 38, p10 + 39, 8};
p11 = newp;
Point(p11 + 1) = {14.7579280581105, -0.7275859818632241, 1};
Point(p11 + 2) = {14.71891509196737, -0.5650852829566924, 1};
Point(p11 + 3) = {14.65496173027366, -0.4106882097963833, 1};
Point(p11 + 4) = {14.56764271704331, -0.2681965307380115, 1};
Point(p11 + 5) = {14.45910813617724, -0.1411188638227646, 1};
Point(p11 + 6) = {14.33203046926199, -0.03258428295669225, 1};
Point(p11 + 7) = {14.18953879020362, 0.05473473027366005, 1};
Point(p11 + 8) = {14.03514171704331, 0.1186880919673711, 1};
Point(p11 + 9) = {13.87264101813678, 0.1577010581105028, 1};
Point(p11 + 10) = {13.706038, 0.170813, 1};
Point(p11 + 11) = {13.53943498186322, 0.1577010581105028, 1};
Point(p11 + 12) = {13.37693428295669, 0.1186880919673713, 1};
Point(p11 + 13) = {13.22253720979638, 0.05473473027366016, 1};
Point(p11 + 14) = {13.08004553073801, -0.03258428295669225, 1};
Point(p11 + 15) = {12.95296786382276, -0.1411188638227645, 1};
Point(p11 + 16) = {12.84443328295669, -0.2681965307380114, 1};
Point(p11 + 17) = {12.75711426972634, -0.4106882097963832, 1};
Point(p11 + 18) = {12.69316090803263, -0.5650852829566921, 1};
Point(p11 + 19) = {12.6541479418895, -0.727585981863224, 1};
Point(p11 + 20) = {12.641036, -0.8941889999999999, 1};
Point(p11 + 21) = {12.6541479418895, -1.060792018136776, 1};
Point(p11 + 22) = {12.69316090803263, -1.223292717043308, 1};
Point(p11 + 23) = {12.75711426972634, -1.377689790203616, 1};
Point(p11 + 24) = {12.84443328295669, -1.520181469261988, 1};
Point(p11 + 25) = {12.95296786382276, -1.647259136177235, 1};
Point(p11 + 26) = {13.08004553073801, -1.755793717043308, 1};
Point(p11 + 27) = {13.22253720979638, -1.84311273027366, 1};
Point(p11 + 28) = {13.37693428295669, -1.907066091967371, 1};
Point(p11 + 29) = {13.53943498186322, -1.946079058110503, 1};
Point(p11 + 30) = {13.706038, -1.959191, 1};
Point(p11 + 31) = {13.87264101813678, -1.946079058110503, 1};
Point(p11 + 32) = {14.03514171704331, -1.907066091967371, 1};
Point(p11 + 33) = {14.18953879020362, -1.84311273027366, 1};
Point(p11 + 34) = {14.33203046926199, -1.755793717043308, 1};
Point(p11 + 35) = {14.45910813617724, -1.647259136177236, 1};
Point(p11 + 36) = {14.56764271704331, -1.520181469261989, 1};
Point(p11 + 37) = {14.65496173027366, -1.377689790203617, 1};
Point(p11 + 38) = {14.71891509196737, -1.223292717043308, 1};
Point(p11 + 39) = {14.7579280581105, -1.060792018136776, 1};
Spline(11) = {9, p11 + 1, p11 + 2, p11 + 3, p11 + 4, p11 + 5, p11 + 6, p11 + 7, p11 + 8, p11 + 9, p11 + 10, p11 + 11, p11 + 12, p11 + 13, p11 + 14, p11 + 15, p11 + 16, p11 + 17, p11 + 18, p11 + 19, p11 + 20, p11 + 21, p11 + 22, p11 + 23, p11 + 24, p11 + 25, p11 + 26, p11 + 27, p11 + 28, p11 + 29, p11 + 30, p11 + 31, p11 + 32, p11 + 33, p11 + 34, p11 + 35, p11 + 36, p11 + 37, p11 + 38, p11 + 39, 9};
Line(12) = {4, 10};
Line(13) = {10, 7};
Line(14) = {5, 10};
p15 = newp;
Point(p15 + 1) = {30.83709872192642, -2.073697554043277, 0};
Point(p15 + 2) = {30.80424378523906, -1.936846893813087, 0};
Point(p15 + 3) = {30.75038518751845, -1.806820736745599, 0};
Point(p15 + 4) = {30.67684910618691, -1.68682075835989, 0};
Point(p15 + 5) = {30.58544624361909, -1.57980175638091, 0};
Point(p15 + 6) = {30.47842724164011, -1.488398893813087, 0};
Point(p15 + 7) = {30.3584272632544, -1.41486281248155, 0};
Point(p15 + 8) = {30.22840110618691, -1.361004214760942, 0};
Point(p15 + 9) = {30.09155044595672, -1.328149278073583, 0};
Point(p15 + 10) = {29.951245, -1.317107, 0};
Point(p15 + 11) = {29.81093955404328, -1.328149278073583, 0};
Point(p15 + 12) = {29.67408889381309, -1.361004214760942, 0};
Point(p15 + 13) = {29.5440627367456, -1.414862812481549, 0};
Point(p15 + 14) = {29.42406275835989, -1.488398893813087, 0};
Point(p15 + 15) = {29.31704375638091, -1.57980175638091, 0};
Point(p15 + 16) = {29.22564089381309, -1.68682075835989, 0};
Point(p15 + 17) = {29.15210481248155, -1.806820736745599, 0};
Point(p15 + 18) = {29.09824621476094, -1.936846893813087, 0};
Point(p15 + 19) = {29.06539127807358, -2.073697554043277, 0};
Point(p15 + 20) = {29.054349, -2.214003, 0};
Point(p15 + 21) = {29.06539127807358, -2.354308445956723, 0};
Point(p15 + 22) = {29.09824621476094, -2.491159106186913, 0};
Point(p15 + 23) = {29.15210481248155, -2.6211852632544, 0};
Point(p15 + 24) = {29.22564089381309, -2.74118524164011, 0};
Point(p15 + 25) = {29.31704375638091, -2.84820424361909, 0};
Point(p15 + 26) = {29.42406275835989, -2.939607106186913, 0};
Point(p15 + 27) = {29.5440627367456, -3.01314318751845, 0};
Point(p15 + 28) = {29.67408889381309, -3.067001785239058, 0};
Point(p15 + 29) = {29.81093955404328, -3.099856721926416, 0};
Point(p15 + 30) = {29.951245, -3.110899, 0};
Point(p15 + 31) = {30.09155044595672, -3.099856721926417, 0};
Point(p15 + 32) = {30.22840110618691, -3.067001785239058, 0};
Point(p15 + 33) = {30.3584272632544, -3.01314318751845, 0};
Point(p15 + 34) = {30.47842724164011, -2.939607106186913, 0};
Point(p15 + 35) = {30.58544624361909, -2.84820424361909, 0};
Point(p15 + 36) = {30.67684910618691, -2.74118524164011, 0};
Point(p15 + 37) = {30.75038518751845, -2.621185263254401, 0};
Point(p15 + 38) = {30.80424378523906, -2.491159106186913, 0};
Point(p15 + 39) = {30.83709872192642, -2.354308445956723, 0};
Spline(15) = {11, p15 + 1, p15 + 2, p15 + 3, p15 + 4, p15 + 5, p15 + 6, p15 + 7, p15 + 8, p15 + 9, p15 + 10, p15 + 11, p15 + 12, p15 + 13, p15 + 14, p15 + 15, p15 + 16, p15 + 17, p15 + 18, p15 + 19, p15 + 20, p15 + 21, p15 + 22, p15 + 23, p15 + 24, p15 + 25, p15 + 26, p15 + 27, p15 + 28, p15 + 29, p15 + 30, p15 + 31, p15 + 32, p15 + 33, p15 + 34, p15 + 35, p15 + 36, p15 + 37, p15 + 38, p15 + 39, 11};
p16 = newp;
Point(p16 + 1) = {14.7579280581105, -0.7275859818632241, 0};
Point(p16 + 2) = {14.71891509196737, -0.5650852829566924, 0};
Point(p16 + 3) = {14.65496173027366, -0.4106882097963833, 0};
Point(p16 + 4) = {14.56764271704331, -0.2681965307380115, 0};
Point(p16 + 5) = {14.45910813617724, -0.1411188638227646, 0};
Point(p16 + 6) = {14.33203046926199, -0.03258428295669225, 0};
Point(p16 + 7) = {14.18953879020362, 0.05473473027366005, 0};
Point(p16 + 8) = {14.03514171704331, 0.1186880919673711, 0};
Point(p16 + 9) = {13.87264101813678, 0.1577010581105028, 0};
Point(p16 + 10) = {13.706038, 0.170813, 0};
Point(p16 + 11) = {13.53943498186322, 0.1577010581105028, 0};
Point(p16 + 12) = {13.37693428295669, 0.1186880919673713, 0};
Point(p16 + 13) = {13.22253720979638, 0.05473473027366016, 0};
Point(p16 + 14) = {13.08004553073801, -0.03258428295669225, 0};
Point(p16 + 15) = {12.95296786382276, -0.1411188638227645, 0};
Point(p16 + 16) = {12.84443328295669, -0.2681965307380114, 0};
Point(p16 + 17) = {12.75711426972634, -0.4106882097963832, 0};
Point(p16 + 18) = {12.69316090803263, -0.5650852829566921, 0};
Point(p16 + 19) = {12.6541479418895, -0.727585981863224, 0};
Point(p16 + 20) = {12.641036, -0.8941889999999999, 0};
Point(p16 + 21) = {12.6541479418895, -1.060792018136776, 0};
Point(p16 + 22) = {12.69316090803263, -1.223292717043308, 0};
Point(p16 + 23) = {12.75711426972634, -1.377689790203616, 0};
Point(p16 + 24) = {12.84443328295669, -1.520181469261988, 0};
Point(p16 + 25) = {12.95296786382276, -1.647259136177235, 0};
Point(p16 + 26) = {13.08004553073801, -1.755793717043308, 0};
Point(p16 + 27) = {13.22253720979638, -1.84311273027366, 0};
Point(p16 + 28) = {13.37693428295669, -1.907066091967371, 0};
Point(p16 + 29) = {13.53943498186322, -1.946079058110503, 0};
Point(p16 + 30) = {13.706038, -1.959191, 0};
Point(p16 + 31) = {13.87264101813678, -1.946079058110503, 0};
Point(p16 + 32) = {14.03514171704331, -1.907066091967371, 0};
Point(p16 + 33) = {14.18953879020362, -1.84311273027366, 0};
Point(p16 + 34) = {14.33203046926199, -1.755793717043308, 0};
Point(p16 + 35) = {14.45910813617724, -1.647259136177236, 0};
Point(p16 + 36) = {14.56764271704331, -1.520181469261989, 0};
Point(p16 + 37) = {14.65496173027366, -1.377689790203617, 0};
Point(p16 + 38) = {14.71891509196737, -1.223292717043308, 0};
Point(p16 + 39) = {14.7579280581105, -1.060792018136776, 0};
Spline(16) = {12, p16 + 1, p16 + 2, p16 + 3, p16 + 4, p16 + 5, p16 + 6, p16 + 7, p16 + 8, p16 + 9, p16 + 10, p16 + 11, p16 + 12, p16 + 13, p16 + 14, p16 + 15, p16 + 16, p16 + 17, p16 + 18, p16 + 19, p16 + 20, p16 + 21, p16 + 22, p16 + 23, p16 + 24, p16 + 25, p16 + 26, p16 + 27, p16 + 28, p16 + 29, p16 + 30, p16 + 31, p16 + 32, p16 + 33, p16 + 34, p16 + 35, p16 + 36, p16 + 37, p16 + 38, p16 + 39, 12};
Line(17) = {11, 8};
Line(18) = {12, 9};
Curve Loop(1) = {-1, 4, 3, -2};
Plane Surface(1) = {1};
Curve Loop(2) = {-5, 1, 7, -6};
Plane Surface(2) = {2};
Curve Loop(3) = {-2, 7, 9, -8, -10, -11};
Plane Surface(3) = {3};
Curve Loop(4) = {-12, 3, 8, -13};
Plane Surface(4) = {4};
Curve Loop(5) = {-4, 5, 14, -12, -15, -16};
Plane Surface(5) = {5};
Curve Loop(6) = {-6, 14, 13, -9};
Plane Surface(6) = {6};
Curve Loop(7) = {-10, -17, 15, 17};
Surface(7) = {7};
Curve Loop(8) = {-11, -18, 16, 18};
Surface(8) = {8};
Surface Loop(1) = {1, 2, 3, 4, 5, 6, 7, 8};
Volume(1) = {1};
Physical Surface("INFLOW") = {1};
Physical Surface("OUTFLOW") = {6};
Physical Surface("OBSTACLE") = {7, 8};
Physical Surface("WALL_Y") = {2, 4};
Physical Surface("WALL_Z") = {3, 5};
Physical Volume("FLUID") = {1};
