cl__1 = 1.117612;
cl__2 = 0.91775;
cl__3 = 3.530618;
cl__4 = 0.110706;
Point(1) = {0.049044, -4.273788, 1, cl__1};
Point(2) = {0.049044, -4.273788, 0, cl__1};
Point(3) = {0.049044, 5.486600000000001, 1, cl__2};
Point(4) = {0.049044, 5.486600000000001, 0, cl__2};
Point(5) = {34.967273, -4.273788, 0, cl__3};
Point(6) = {34.967273, -4.273788, 1, cl__3};
Point(7) = {34.967273, 5.486600000000001, 1, cl__3};
Point(8) = {11.114494, 2.916991, 1, cl__4};
Point(9) = {34.967273, 5.486600000000001, 0, cl__3};
Point(10) = {11.114494, 2.916991, 0, cl__4};
Line(1) = {2, 1};
Line(2) = {1, 3};
Line(3) = {4, 3};
Line(4) = {2, 4};
Line(5) = {2, 5};
Line(6) = {5, 6};
Line(7) = {1, 6};
Line(8) = {3, 7};
Line(9) = {6, 7};
p10 = newp;
Point(p10 + 1) = {11.10086419278096, 3.090174121039763, 1};
Point(p10 + 2) = {11.0603103822123, 3.259092898877701, 1};
Point(p10 + 3) = {10.9938311377006, 3.419587992594161, 1};
Point(p10 + 4) = {10.9030633988777, 3.567707480329167, 1};
Point(p10 + 5) = {10.79024216871429, 3.699804168714285, 1};
Point(p10 + 6) = {10.65814548032917, 3.812625398877701, 1};
Point(p10 + 7) = {10.51002599259416, 3.903393137700595, 1};
Point(p10 + 8) = {10.3495308988777, 3.969872382212294, 1};
Point(p10 + 9) = {10.18061212103976, 4.010426192780956, 1};
Point(p10 + 10) = {10.007429, 4.024056, 1};
Point(p10 + 11) = {9.834245878960237, 4.010426192780956, 1};
Point(p10 + 12) = {9.665327101122299, 3.969872382212294, 1};
Point(p10 + 13) = {9.504832007405838, 3.903393137700595, 1};
Point(p10 + 14) = {9.356712519670834, 3.812625398877701, 1};
Point(p10 + 15) = {9.224615831285714, 3.699804168714285, 1};
Point(p10 + 16) = {9.111794601122298, 3.567707480329167, 1};
Point(p10 + 17) = {9.021026862299404, 3.419587992594161, 1};
Point(p10 + 18) = {8.954547617787705, 3.259092898877701, 1};
Point(p10 + 19) = {8.913993807219043, 3.090174121039763, 1};
Point(p10 + 20) = {8.900364, 2.916991, 1};
Point(p10 + 21) = {8.913993807219043, 2.743807878960237, 1};
Point(p10 + 22) = {8.954547617787705, 2.574889101122298, 1};
Point(p10 + 23) = {9.021026862299404, 2.414394007405839, 1};
Point(p10 + 24) = {9.111794601122298, 2.266274519670833, 1};
Point(p10 + 25) = {9.224615831285714, 2.134177831285715, 1};
Point(p10 + 26) = {9.356712519670833, 2.021356601122299, 1};
Point(p10 + 27) = {9.504832007405838, 1.930588862299405, 1};
Point(p10 + 28) = {9.665327101122299, 1.864109617787706, 1};
Point(p10 + 29) = {9.834245878960237, 1.823555807219044, 1};
Point(p10 + 30) = {10.007429, 1.809926, 1};
Point(p10 + 31) = {10.18061212103976, 1.823555807219044, 1};
Point(p10 + 32) = {10.3495308988777, 1.864109617787706, 1};
Point(p10 + 33) = {10.51002599259416, 1.930588862299405, 1};
Point(p10 + 34) = {10.65814548032917, 2.021356601122299, 1};
Point(p10 + 35) = {10.79024216871428, 2.134177831285714, 1};
Point(p10 + 36) = {10.9030633988777, 2.266274519670833, 1};
Point(p10 + 37) = {10.9938311377006, 2.414394007405838, 1};
Point(p10 + 38) = {11.0603103822123, 2.574889101122299, 1};
Point(p10 + 39) = {11.10086419278096, 2.743807878960236, 1};
Spline(10) = {8, p10 + 1, p10 + 2, p10 + 3, p10 + 4, p10 + 5, p10 + 6, p10 + 7, p10 + 8, p10 + 9, p10 + 10, p10 + 11, p10 + 12, p10 + 13, p10 + 14, p10 + 15, p10 + 16, p10 + 17, p10 + 18, p10 + 19, p10 + 20, p10 + 21, p10 + 22, p10 + 23, p10 + 24, p10 + 25, p10 + 26, p10 + 27, p10 + 28, p10 + 29, p10 + 30, p10 + 31, p10 + 32, p10 + 33, p10 + 34, p10 + 35, p10 + 36, p10 + 37, p10 + 38, p10 + 39, 8};
Line(11) = {4, 9};
Line(12) = {9, 7};
Line(13) = {5, 9};
p14 = newp;
Point(p14 + 1) = {11.10086419278096, 3.090174121039763, 0};
Point(p14 + 2) = {11.0603103822123, 3.259092898877701, 0};
Point(p14 + 3) = {10.9938311377006, 3.419587992594161, 0};
Point(p14 + 4) = {10.9030633988777, 3.567707480329167, 0};
Point(p14 + 5) = {10.79024216871429, 3.699804168714285, 0};
Point(p14 + 6) = {10.65814548032917, 3.812625398877701, 0};
Point(p14 + 7) = {10.51002599259416, 3.903393137700595, 0};
Point(p14 + 8) = {10.3495308988777, 3.969872382212294, 0};
Point(p14 + 9) = {10.18061212103976, 4.010426192780956, 0};
Point(p14 + 10) = {10.007429, 4.024056, 0};
Point(p14 + 11) = {9.834245878960237, 4.010426192780956, 0};
Point(p14 + 12) = {9.665327101122299, 3.969872382212294, 0};
Point(p14 + 13) = {9.504832007405838, 3.903393137700595, 0};
Point(p14 + 14) = {9.356712519670834, 3.812625398877701, 0};
Point(p14 + 15) = {9.224615831285714, 3.699804168714285, 0};
Point(p14 + 16) = {9.111794601122298, 3.567707480329167, 0};
Point(p14 + 17) = {9.021026862299404, 3.419587992594161, 0};
Point(p14 + 18) = {8.954547617787705, 3.259092898877701, 0};
Point(p14 + 19) = {8.913993807219043, 3.090174121039763, 0};
Point(p14 + 20) = {8.900364, 2.916991, 0};
Point(p14 + 21) = {8.913993807219043, 2.743807878960237, 0};
Point(p14 + 22) = {8.954547617787705, 2.574889101122298, 0};
Point(p14 + 23) = {9.021026862299404, 2.414394007405839, 0};
Point(p14 + 24) = {9.111794601122298, 2.266274519670833, 0};
Point(p14 + 25) = {9.224615831285714, 2.134177831285715, 0};
Point(p14 + 26) = {9.356712519670833, 2.021356601122299, 0};
Point(p14 + 27) = {9.504832007405838, 1.930588862299405, 0};
Point(p14 + 28) = {9.665327101122299, 1.864109617787706, 0};
Point(p14 + 29) = {9.834245878960237, 1.823555807219044, 0};
Point(p14 + 30) = {10.007429, 1.809926, 0};
Point(p14 + 31) = {10.18061212103976, 1.823555807219044, 0};
Point(p14 + 32) = {10.3495308988777, 1.864109617787706, 0};
Point(p14 + 33) = {10.51002599259416, 1.930588862299405, 0};
Point(p14 + 34) = {10.65814548032917, 2.021356601122299, 0};
Point(p14 + 35) = {10.79024216871428, 2.134177831285714, 0};
Point(p14 + 36) = {10.9030633988777, 2.266274519670833, 0};
Point(p14 + 37) = {10.9938311377006, 2.414394007405838, 0};
Point(p14 + 38) = {11.0603103822123, 2.574889101122299, 0};
Point(p14 + 39) = {11.10086419278096, 2.743807878960236, 0};
Spline(14) = {10, p14 + 1, p14 + 2, p14 + 3, p14 + 4, p14 + 5, p14 + 6, p14 + 7, p14 + 8, p14 + 9, p14 + 10, p14 + 11, p14 + 12, p14 + 13, p14 + 14, p14 + 15, p14 + 16, p14 + 17, p14 + 18, p14 + 19, p14 + 20, p14 + 21, p14 + 22, p14 + 23, p14 + 24, p14 + 25, p14 + 26, p14 + 27, p14 + 28, p14 + 29, p14 + 30, p14 + 31, p14 + 32, p14 + 33, p14 + 34, p14 + 35, p14 + 36, p14 + 37, p14 + 38, p14 + 39, 10};
Line(15) = {10, 8};
Curve Loop(1) = {-1, 4, 3, -2};
Plane Surface(1) = {1};
Curve Loop(2) = {-5, 1, 7, -6};
Plane Surface(2) = {2};
Curve Loop(3) = {-2, 7, 9, -8, -10};
Plane Surface(3) = {3};
Curve Loop(4) = {-11, 3, 8, -12};
Plane Surface(4) = {4};
Curve Loop(5) = {-4, 5, 13, -11, -14};
Plane Surface(5) = {5};
Curve Loop(6) = {-6, 13, 12, -9};
Plane Surface(6) = {6};
Curve Loop(7) = {-10, -15, 14, 15};
Surface(7) = {7};
Surface Loop(1) = {1, 2, 3, 4, 5, 6, 7};
Volume(1) = {1};
Physical Surface("INFLOW") = {1};
Physical Surface("OUTFLOW") = {6};
Physical Surface("OBSTACLE") = {7};
Physical Surface("WALL_Y") = {2, 4};
Physical Surface("WALL_Z") = {3, 5};
Physical Volume("FLUID") = {1};
