cl__1 = 1.824352;
cl__2 = 1.838004;
cl__3 = 1.81553;
cl__4 = 1.829244;
cl__5 = 0.105432;
Point(1) = {0.451914, -3.789024, 1, cl__1};
Point(2) = {0.451914, -3.789024, 0, cl__1};
Point(3) = {0.451914, 3.902804, 1, cl__2};
Point(4) = {0.451914, 3.902804, 0, cl__2};
Point(5) = {38.316966, -3.789024, 0, cl__3};
Point(6) = {38.316966, -3.789024, 1, cl__3};
Point(7) = {38.316966, 3.902804, 1, cl__4};
Point(8) = {20.483616, -0.2868150000000002, 1, cl__5};
Point(9) = {38.316966, 3.902804, 0, cl__4};
Point(10) = {20.483616, -0.2868150000000002, 0, cl__5};
Line(1) = {2, 1};
Line(2) = {1, 3};
Line(3) = {4, 3};
Line(4) = {2, 4};
Line(5) = {2, 5};
Line(6) = {5, 6};
Line(7) = {1, 6};
Line(8) = {3, 7};
Line(9) = {6, 7};
p10 = newp;
Point(p10 + 1) = {20.4706356205029, -0.1218836405566439, 1};
Point(p10 + 2) = {20.43201410203424, 0.03898656144141704, 1};
Point(p10 + 3) = {20.36870243455618, 0.1918344477234, 1};
Point(p10 + 4) = {20.28225956144142, 0.3328963960559911, 1};
Point(p10 + 5) = {20.17481399311348, 0.458698993113476, 1};
Point(p10 + 6) = {20.04901139605599, 0.5661445614414171, 1};
Point(p10 + 7) = {19.9079494477234, 0.6525874345561833, 1};
Point(p10 + 8) = {19.75510156144142, 0.7158991020342411, 1};
Point(p10 + 9) = {19.59423135944336, 0.7545206205029034, 1};
Point(p10 + 10) = {19.4293, 0.767501, 1};
Point(p10 + 11) = {19.26436864055664, 0.7545206205029031, 1};
Point(p10 + 12) = {19.10349843855859, 0.7158991020342411, 1};
Point(p10 + 13) = {18.9506505522766, 0.6525874345561833, 1};
Point(p10 + 14) = {18.80958860394401, 0.5661445614414171, 1};
Point(p10 + 15) = {18.68378600688652, 0.4586989931134761, 1};
Point(p10 + 16) = {18.57634043855859, 0.3328963960559913, 1};
Point(p10 + 17) = {18.48989756544382, 0.1918344477234001, 1};
Point(p10 + 18) = {18.42658589796576, 0.03898656144141716, 1};
Point(p10 + 19) = {18.3879643794971, -0.1218836405566438, 1};
Point(p10 + 20) = {18.374984, -0.2868149999999999, 1};
Point(p10 + 21) = {18.3879643794971, -0.4517463594433559, 1};
Point(p10 + 22) = {18.42658589796576, -0.6126165614414174, 1};
Point(p10 + 23) = {18.48989756544382, -0.7654644477233994, 1};
Point(p10 + 24) = {18.57634043855859, -0.9065263960559911, 1};
Point(p10 + 25) = {18.68378600688652, -1.032328993113476, 1};
Point(p10 + 26) = {18.80958860394401, -1.139774561441417, 1};
Point(p10 + 27) = {18.9506505522766, -1.226217434556183, 1};
Point(p10 + 28) = {19.10349843855859, -1.289529102034241, 1};
Point(p10 + 29) = {19.26436864055664, -1.328150620502903, 1};
Point(p10 + 30) = {19.4293, -1.341131, 1};
Point(p10 + 31) = {19.59423135944336, -1.328150620502903, 1};
Point(p10 + 32) = {19.75510156144142, -1.289529102034241, 1};
Point(p10 + 33) = {19.9079494477234, -1.226217434556183, 1};
Point(p10 + 34) = {20.04901139605599, -1.139774561441417, 1};
Point(p10 + 35) = {20.17481399311348, -1.032328993113476, 1};
Point(p10 + 36) = {20.28225956144142, -0.9065263960559913, 1};
Point(p10 + 37) = {20.36870243455618, -0.7654644477234003, 1};
Point(p10 + 38) = {20.43201410203424, -0.6126165614414173, 1};
Point(p10 + 39) = {20.4706356205029, -0.4517463594433563, 1};
Spline(10) = {8, p10 + 1, p10 + 2, p10 + 3, p10 + 4, p10 + 5, p10 + 6, p10 + 7, p10 + 8, p10 + 9, p10 + 10, p10 + 11, p10 + 12, p10 + 13, p10 + 14, p10 + 15, p10 + 16, p10 + 17, p10 + 18, p10 + 19, p10 + 20, p10 + 21, p10 + 22, p10 + 23, p10 + 24, p10 + 25, p10 + 26, p10 + 27, p10 + 28, p10 + 29, p10 + 30, p10 + 31, p10 + 32, p10 + 33, p10 + 34, p10 + 35, p10 + 36, p10 + 37, p10 + 38, p10 + 39, 8};
Line(11) = {4, 9};
Line(12) = {9, 7};
Line(13) = {5, 9};
p14 = newp;
Point(p14 + 1) = {20.4706356205029, -0.1218836405566439, 0};
Point(p14 + 2) = {20.43201410203424, 0.03898656144141704, 0};
Point(p14 + 3) = {20.36870243455618, 0.1918344477234, 0};
Point(p14 + 4) = {20.28225956144142, 0.3328963960559911, 0};
Point(p14 + 5) = {20.17481399311348, 0.458698993113476, 0};
Point(p14 + 6) = {20.04901139605599, 0.5661445614414171, 0};
Point(p14 + 7) = {19.9079494477234, 0.6525874345561833, 0};
Point(p14 + 8) = {19.75510156144142, 0.7158991020342411, 0};
Point(p14 + 9) = {19.59423135944336, 0.7545206205029034, 0};
Point(p14 + 10) = {19.4293, 0.767501, 0};
Point(p14 + 11) = {19.26436864055664, 0.7545206205029031, 0};
Point(p14 + 12) = {19.10349843855859, 0.7158991020342411, 0};
Point(p14 + 13) = {18.9506505522766, 0.6525874345561833, 0};
Point(p14 + 14) = {18.80958860394401, 0.5661445614414171, 0};
Point(p14 + 15) = {18.68378600688652, 0.4586989931134761, 0};
Point(p14 + 16) = {18.57634043855859, 0.3328963960559913, 0};
Point(p14 + 17) = {18.48989756544382, 0.1918344477234001, 0};
Point(p14 + 18) = {18.42658589796576, 0.03898656144141716, 0};
Point(p14 + 19) = {18.3879643794971, -0.1218836405566438, 0};
Point(p14 + 20) = {18.374984, -0.2868149999999999, 0};
Point(p14 + 21) = {18.3879643794971, -0.4517463594433559, 0};
Point(p14 + 22) = {18.42658589796576, -0.6126165614414174, 0};
Point(p14 + 23) = {18.48989756544382, -0.7654644477233994, 0};
Point(p14 + 24) = {18.57634043855859, -0.9065263960559911, 0};
Point(p14 + 25) = {18.68378600688652, -1.032328993113476, 0};
Point(p14 + 26) = {18.80958860394401, -1.139774561441417, 0};
Point(p14 + 27) = {18.9506505522766, -1.226217434556183, 0};
Point(p14 + 28) = {19.10349843855859, -1.289529102034241, 0};
Point(p14 + 29) = {19.26436864055664, -1.328150620502903, 0};
Point(p14 + 30) = {19.4293, -1.341131, 0};
Point(p14 + 31) = {19.59423135944336, -1.328150620502903, 0};
Point(p14 + 32) = {19.75510156144142, -1.289529102034241, 0};
Point(p14 + 33) = {19.9079494477234, -1.226217434556183, 0};
Point(p14 + 34) = {20.04901139605599, -1.139774561441417, 0};
Point(p14 + 35) = {20.17481399311348, -1.032328993113476, 0};
Point(p14 + 36) = {20.28225956144142, -0.9065263960559913, 0};
Point(p14 + 37) = {20.36870243455618, -0.7654644477234003, 0};
Point(p14 + 38) = {20.43201410203424, -0.6126165614414173, 0};
Point(p14 + 39) = {20.4706356205029, -0.4517463594433563, 0};
Spline(14) = {10, p14 + 1, p14 + 2, p14 + 3, p14 + 4, p14 + 5, p14 + 6, p14 + 7, p14 + 8, p14 + 9, p14 + 10, p14 + 11, p14 + 12, p14 + 13, p14 + 14, p14 + 15, p14 + 16, p14 + 17, p14 + 18, p14 + 19, p14 + 20, p14 + 21, p14 + 22, p14 + 23, p14 + 24, p14 + 25, p14 + 26, p14 + 27, p14 + 28, p14 + 29, p14 + 30, p14 + 31, p14 + 32, p14 + 33, p14 + 34, p14 + 35, p14 + 36, p14 + 37, p14 + 38, p14 + 39, 10};
Line(15) = {10, 8};
Curve Loop(1) = {-1, 4, 3, -2};
Plane Surface(1) = {1};
Curve Loop(2) = {-5, 1, 7, -6};
Plane Surface(2) = {2};
Curve Loop(3) = {-2, 7, 9, -8, -10};
Plane Surface(3) = {3};
Curve Loop(4) = {-11, 3, 8, -12};
Plane Surface(4) = {4};
Curve Loop(5) = {-4, 5, 13, -11, -14};
Plane Surface(5) = {5};
Curve Loop(6) = {-6, 13, 12, -9};
Plane Surface(6) = {6};
Curve Loop(7) = {-10, -15, 14, 15};
Surface(7) = {7};
Surface Loop(1) = {1, 2, 3, 4, 5, 6, 7};
Volume(1) = {1};
Physical Surface("INFLOW") = {1};
Physical Surface("OUTFLOW") = {6};
Physical Surface("OBSTACLE") = {7};
Physical Surface("WALL_Y") = {2, 4};
Physical Surface("WALL_Z") = {3, 5};
Physical Volume("FLUID") = {1};
