cl__1 = 0.334936;
cl__2 = 3.687485;
cl__3 = 0.06845;
cl__4 = 0.103987;
Point(1) = {0.839332, -3.248997, 1, cl__1};
Point(2) = {0.839332, -3.248997, 0, cl__1};
Point(3) = {0.839332, 4.634715, 1, cl__2};
Point(4) = {0.839332, 4.634715, 0, cl__2};
Point(5) = {36.66356, -3.248997, 0, cl__1};
Point(6) = {36.66356, -3.248997, 1, cl__1};
Point(7) = {36.66356, 4.634715, 1, cl__2};
Point(8) = {5.321466, -1.888881, 1, cl__3};
Point(9) = {13.646523, -1.001902, 1, cl__4};
Point(10) = {36.66356, 4.634715, 0, cl__2};
Point(11) = {5.321466, -1.888881, 0, cl__3};
Point(12) = {13.646523, -1.001902, 0, cl__4};
Line(1) = {2, 1};
Line(2) = {1, 3};
Line(3) = {4, 3};
Line(4) = {2, 4};
Line(5) = {2, 5};
Line(6) = {5, 6};
Line(7) = {1, 6};
Line(8) = {3, 7};
Line(9) = {6, 7};
p10 = newp;
Point(p10 + 1) = {5.31303870607235, -1.781802077983357, 1};
Point(p10 + 2) = {5.287964332234483, -1.677359794401332, 1};
Point(p10 + 3) = {5.246860292787365, -1.57812586489978, 1};
Point(p10 + 4) = {5.190738705598668, -1.486543758161559, 1};
Point(p10 + 5) = {5.120981470401848, -1.404868529598152, 1};
Point(p10 + 6) = {5.039306241838441, -1.335111294401332, 1};
Point(p10 + 7) = {4.94772413510022, -1.278989707212635, 1};
Point(p10 + 8) = {4.848490205598668, -1.237885667765516, 1};
Point(p10 + 9) = {4.744047922016643, -1.21281129392765, 1};
Point(p10 + 10) = {4.636969, -1.204384, 1};
Point(p10 + 11) = {4.529890077983357, -1.21281129392765, 1};
Point(p10 + 12) = {4.425447794401332, -1.237885667765516, 1};
Point(p10 + 13) = {4.326213864899779, -1.278989707212635, 1};
Point(p10 + 14) = {4.234631758161559, -1.335111294401332, 1};
Point(p10 + 15) = {4.152956529598152, -1.404868529598152, 1};
Point(p10 + 16) = {4.083199294401331, -1.486543758161559, 1};
Point(p10 + 17) = {4.027077707212634, -1.578125864899779, 1};
Point(p10 + 18) = {3.985973667765516, -1.677359794401332, 1};
Point(p10 + 19) = {3.96089929392765, -1.781802077983357, 1};
Point(p10 + 20) = {3.952472, -1.888881, 1};
Point(p10 + 21) = {3.96089929392765, -1.995959922016643, 1};
Point(p10 + 22) = {3.985973667765516, -2.100402205598669, 1};
Point(p10 + 23) = {4.027077707212634, -2.19963613510022, 1};
Point(p10 + 24) = {4.083199294401331, -2.291218241838441, 1};
Point(p10 + 25) = {4.152956529598152, -2.372893470401848, 1};
Point(p10 + 26) = {4.234631758161559, -2.442650705598668, 1};
Point(p10 + 27) = {4.326213864899779, -2.498772292787365, 1};
Point(p10 + 28) = {4.425447794401332, -2.539876332234484, 1};
Point(p10 + 29) = {4.529890077983357, -2.56495070607235, 1};
Point(p10 + 30) = {4.636969, -2.573378, 1};
Point(p10 + 31) = {4.744047922016643, -2.56495070607235, 1};
Point(p10 + 32) = {4.848490205598668, -2.539876332234484, 1};
Point(p10 + 33) = {4.94772413510022, -2.498772292787365, 1};
Point(p10 + 34) = {5.039306241838441, -2.442650705598668, 1};
Point(p10 + 35) = {5.120981470401848, -2.372893470401849, 1};
Point(p10 + 36) = {5.190738705598668, -2.291218241838441, 1};
Point(p10 + 37) = {5.246860292787365, -2.199636135100221, 1};
Point(p10 + 38) = {5.287964332234483, -2.100402205598669, 1};
Point(p10 + 39) = {5.31303870607235, -1.995959922016643, 1};
Spline(10) = {8, p10 + 1, p10 + 2, p10 + 3, p10 + 4, p10 + 5, p10 + 6, p10 + 7, p10 + 8, p10 + 9, p10 + 10, p10 + 11, p10 + 12, p10 + 13, p10 + 14, p10 + 15, p10 + 16, p10 + 17, p10 + 18, p10 + 19, p10 + 20, p10 + 21, p10 + 22, p10 + 23, p10 + 24, p10 + 25, p10 + 26, p10 + 27, p10 + 28, p10 + 29, p10 + 30, p10 + 31, p10 + 32, p10 + 33, p10 + 34, p10 + 35, p10 + 36, p10 + 37, p10 + 38, p10 + 39, 8};
p11 = newp;
Point(p11 + 1) = {13.63372051166964, -0.8392309621420103, 1};
Point(p11 + 2) = {13.59562828643029, -0.6805654251103066, 1};
Point(p11 + 3) = {13.53318428128818, -0.5298122610073368, 1};
Point(p11 + 4) = {13.44792607488969, -0.3906835130543829, 1};
Point(p11 + 5) = {13.34195300723211, -0.2666049927678884, 1};
Point(p11 + 6) = {13.21787448694562, -0.1606319251103066, 1};
Point(p11 + 7) = {13.07874573899266, -0.07537371871181453, 1};
Point(p11 + 8) = {12.92799257488969, -0.01292971356970751, 1};
Point(p11 + 9) = {12.76932703785799, 0.02516251166964412, 1};
Point(p11 + 10) = {12.606656, 0.03796500000000003, 1};
Point(p11 + 11) = {12.44398496214201, 0.02516251166964412, 1};
Point(p11 + 12) = {12.28531942511031, -0.0129297135697074, 1};
Point(p11 + 13) = {12.13456626100734, -0.07537371871181442, 1};
Point(p11 + 14) = {11.99543751305438, -0.1606319251103066, 1};
Point(p11 + 15) = {11.87135899276789, -0.2666049927678883, 1};
Point(p11 + 16) = {11.76538592511031, -0.3906835130543828, 1};
Point(p11 + 17) = {11.68012771871181, -0.5298122610073366, 1};
Point(p11 + 18) = {11.61768371356971, -0.6805654251103065, 1};
Point(p11 + 19) = {11.57959148833035, -0.8392309621420102, 1};
Point(p11 + 20) = {11.566789, -1.001902, 1};
Point(p11 + 21) = {11.57959148833035, -1.16457303785799, 1};
Point(p11 + 22) = {11.61768371356971, -1.323238574889694, 1};
Point(p11 + 23) = {11.68012771871181, -1.473991738992663, 1};
Point(p11 + 24) = {11.76538592511031, -1.613120486945617, 1};
Point(p11 + 25) = {11.87135899276789, -1.737199007232112, 1};
Point(p11 + 26) = {11.99543751305438, -1.843172074889694, 1};
Point(p11 + 27) = {12.13456626100734, -1.928430281288186, 1};
Point(p11 + 28) = {12.28531942511031, -1.990874286430293, 1};
Point(p11 + 29) = {12.44398496214201, -2.028966511669644, 1};
Point(p11 + 30) = {12.606656, -2.041769, 1};
Point(p11 + 31) = {12.76932703785799, -2.028966511669644, 1};
Point(p11 + 32) = {12.92799257488969, -1.990874286430293, 1};
Point(p11 + 33) = {13.07874573899266, -1.928430281288186, 1};
Point(p11 + 34) = {13.21787448694562, -1.843172074889694, 1};
Point(p11 + 35) = {13.34195300723211, -1.737199007232112, 1};
Point(p11 + 36) = {13.44792607488969, -1.613120486945617, 1};
Point(p11 + 37) = {13.53318428128818, -1.473991738992664, 1};
Point(p11 + 38) = {13.59562828643029, -1.323238574889694, 1};
Point(p11 + 39) = {13.63372051166964, -1.16457303785799, 1};
Spline(11) = {9, p11 + 1, p11 + 2, p11 + 3, p11 + 4, p11 + 5, p11 + 6, p11 + 7, p11 + 8, p11 + 9, p11 + 10, p11 + 11, p11 + 12, p11 + 13, p11 + 14, p11 + 15, p11 + 16, p11 + 17, p11 + 18, p11 + 19, p11 + 20, p11 + 21, p11 + 22, p11 + 23, p11 + 24, p11 + 25, p11 + 26, p11 + 27, p11 + 28, p11 + 29, p11 + 30, p11 + 31, p11 + 32, p11 + 33, p11 + 34, p11 + 35, p11 + 36, p11 + 37, p11 + 38, p11 + 39, 9};
Line(12) = {4, 10};
Line(13) = {10, 7};
Line(14) = {5, 10};
p15 = newp;
Point(p15 + 1) = {5.31303870607235, -1.781802077983357, 0};
Point(p15 + 2) = {5.287964332234483, -1.677359794401332, 0};
Point(p15 + 3) = {5.246860292787365, -1.57812586489978, 0};
Point(p15 + 4) = {5.190738705598668, -1.486543758161559, 0};
Point(p15 + 5) = {5.120981470401848, -1.404868529598152, 0};
Point(p15 + 6) = {5.039306241838441, -1.335111294401332, 0};
Point(p15 + 7) = {4.94772413510022, -1.278989707212635, 0};
Point(p15 + 8) = {4.848490205598668, -1.237885667765516, 0};
Point(p15 + 9) = {4.744047922016643, -1.21281129392765, 0};
Point(p15 + 10) = {4.636969, -1.204384, 0};
Point(p15 + 11) = {4.529890077983357, -1.21281129392765, 0};
Point(p15 + 12) = {4.425447794401332, -1.237885667765516, 0};
Point(p15 + 13) = {4.326213864899779, -1.278989707212635, 0};
Point(p15 + 14) = {4.234631758161559, -1.335111294401332, 0};
Point(p15 + 15) = {4.152956529598152, -1.404868529598152, 0};
Point(p15 + 16) = {4.083199294401331, -1.486543758161559, 0};
Point(p15 + 17) = {4.027077707212634, -1.578125864899779, 0};
Point(p15 + 18) = {3.985973667765516, -1.677359794401332, 0};
Point(p15 + 19) = {3.96089929392765, -1.781802077983357, 0};
Point(p15 + 20) = {3.952472, -1.888881, 0};
Point(p15 + 21) = {3.96089929392765, -1.995959922016643, 0};
Point(p15 + 22) = {3.985973667765516, -2.100402205598669, 0};
Point(p15 + 23) = {4.027077707212634, -2.19963613510022, 0};
Point(p15 + 24) = {4.083199294401331, -2.291218241838441, 0};
Point(p15 + 25) = {4.152956529598152, -2.372893470401848, 0};
Point(p15 + 26) = {4.234631758161559, -2.442650705598668, 0};
Point(p15 + 27) = {4.326213864899779, -2.498772292787365, 0};
Point(p15 + 28) = {4.425447794401332, -2.539876332234484, 0};
Point(p15 + 29) = {4.529890077983357, -2.56495070607235, 0};
Point(p15 + 30) = {4.636969, -2.573378, 0};
Point(p15 + 31) = {4.744047922016643, -2.56495070607235, 0};
Point(p15 + 32) = {4.848490205598668, -2.539876332234484, 0};
Point(p15 + 33) = {4.94772413510022, -2.498772292787365, 0};
Point(p15 + 34) = {5.039306241838441, -2.442650705598668, 0};
Point(p15 + 35) = {5.120981470401848, -2.372893470401849, 0};
Point(p15 + 36) = {5.190738705598668, -2.291218241838441, 0};
Point(p15 + 37) = {5.246860292787365, -2.199636135100221, 0};
Point(p15 + 38) = {5.287964332234483, -2.100402205598669, 0};
Point(p15 + 39) = {5.31303870607235, -1.995959922016643, 0};
Spline(15) = {11, p15 + 1, p15 + 2, p15 + 3, p15 + 4, p15 + 5, p15 + 6, p15 + 7, p15 + 8, p15 + 9, p15 + 10, p15 + 11, p15 + 12, p15 + 13, p15 + 14, p15 + 15, p15 + 16, p15 + 17, p15 + 18, p15 + 19, p15 + 20, p15 + 21, p15 + 22, p15 + 23, p15 + 24, p15 + 25, p15 + 26, p15 + 27, p15 + 28, p15 + 29, p15 + 30, p15 + 31, p15 + 32, p15 + 33, p15 + 34, p15 + 35, p15 + 36, p15 + 37, p15 + 38, p15 + 39, 11};
p16 = newp;
Point(p16 + 1) = {13.63372051166964, -0.8392309621420103, 0};
Point(p16 + 2) = {13.59562828643029, -0.6805654251103066, 0};
Point(p16 + 3) = {13.53318428128818, -0.5298122610073368, 0};
Point(p16 + 4) = {13.44792607488969, -0.3906835130543829, 0};
Point(p16 + 5) = {13.34195300723211, -0.2666049927678884, 0};
Point(p16 + 6) = {13.21787448694562, -0.1606319251103066, 0};
Point(p16 + 7) = {13.07874573899266, -0.07537371871181453, 0};
Point(p16 + 8) = {12.92799257488969, -0.01292971356970751, 0};
Point(p16 + 9) = {12.76932703785799, 0.02516251166964412, 0};
Point(p16 + 10) = {12.606656, 0.03796500000000003, 0};
Point(p16 + 11) = {12.44398496214201, 0.02516251166964412, 0};
Point(p16 + 12) = {12.28531942511031, -0.0129297135697074, 0};
Point(p16 + 13) = {12.13456626100734, -0.07537371871181442, 0};
Point(p16 + 14) = {11.99543751305438, -0.1606319251103066, 0};
Point(p16 + 15) = {11.87135899276789, -0.2666049927678883, 0};
Point(p16 + 16) = {11.76538592511031, -0.3906835130543828, 0};
Point(p16 + 17) = {11.68012771871181, -0.5298122610073366, 0};
Point(p16 + 18) = {11.61768371356971, -0.6805654251103065, 0};
Point(p16 + 19) = {11.57959148833035, -0.8392309621420102, 0};
Point(p16 + 20) = {11.566789, -1.001902, 0};
Point(p16 + 21) = {11.57959148833035, -1.16457303785799, 0};
Point(p16 + 22) = {11.61768371356971, -1.323238574889694, 0};
Point(p16 + 23) = {11.68012771871181, -1.473991738992663, 0};
Point(p16 + 24) = {11.76538592511031, -1.613120486945617, 0};
Point(p16 + 25) = {11.87135899276789, -1.737199007232112, 0};
Point(p16 + 26) = {11.99543751305438, -1.843172074889694, 0};
Point(p16 + 27) = {12.13456626100734, -1.928430281288186, 0};
Point(p16 + 28) = {12.28531942511031, -1.990874286430293, 0};
Point(p16 + 29) = {12.44398496214201, -2.028966511669644, 0};
Point(p16 + 30) = {12.606656, -2.041769, 0};
Point(p16 + 31) = {12.76932703785799, -2.028966511669644, 0};
Point(p16 + 32) = {12.92799257488969, -1.990874286430293, 0};
Point(p16 + 33) = {13.07874573899266, -1.928430281288186, 0};
Point(p16 + 34) = {13.21787448694562, -1.843172074889694, 0};
Point(p16 + 35) = {13.34195300723211, -1.737199007232112, 0};
Point(p16 + 36) = {13.44792607488969, -1.613120486945617, 0};
Point(p16 + 37) = {13.53318428128818, -1.473991738992664, 0};
Point(p16 + 38) = {13.59562828643029, -1.323238574889694, 0};
Point(p16 + 39) = {13.63372051166964, -1.16457303785799, 0};
Spline(16) = {12, p16 + 1, p16 + 2, p16 + 3, p16 + 4, p16 + 5, p16 + 6, p16 + 7, p16 + 8, p16 + 9, p16 + 10, p16 + 11, p16 + 12, p16 + 13, p16 + 14, p16 + 15, p16 + 16, p16 + 17, p16 + 18, p16 + 19, p16 + 20, p16 + 21, p16 + 22, p16 + 23, p16 + 24, p16 + 25, p16 + 26, p16 + 27, p16 + 28, p16 + 29, p16 + 30, p16 + 31, p16 + 32, p16 + 33, p16 + 34, p16 + 35, p16 + 36, p16 + 37, p16 + 38, p16 + 39, 12};
Line(17) = {11, 8};
Line(18) = {12, 9};
Curve Loop(1) = {-1, 4, 3, -2};
Plane Surface(1) = {1};
Curve Loop(2) = {-5, 1, 7, -6};
Plane Surface(2) = {2};
Curve Loop(3) = {-2, 7, 9, -8, -10, -11};
Plane Surface(3) = {3};
Curve Loop(4) = {-12, 3, 8, -13};
Plane Surface(4) = {4};
Curve Loop(5) = {-4, 5, 14, -12, -15, -16};
Plane Surface(5) = {5};
Curve Loop(6) = {-6, 14, 13, -9};
Plane Surface(6) = {6};
Curve Loop(7) = {-10, -17, 15, 17};
Surface(7) = {7};
Curve Loop(8) = {-11, -18, 16, 18};
Surface(8) = {8};
Surface Loop(1) = {1, 2, 3, 4, 5, 6, 7, 8};
Volume(1) = {1};
Physical Surface("INFLOW") = {1};
Physical Surface("OUTFLOW") = {6};
Physical Surface("OBSTACLE") = {7, 8};
Physical Surface("WALL_Y") = {2, 4};
Physical Surface("WALL_Z") = {3, 5};
Physical Volume("FLUID") = {1};
