cl__1 = 1;
cl__2 = 0.061193;
cl__3 = 0.086343;
Point(1) = {0.859584, -4.750035, 1, cl__1};
Point(2) = {0.859584, -4.750035, 0, cl__1};
Point(3) = {0.859584, 4.917894000000001, 1, cl__1};
Point(4) = {0.859584, 4.917894000000001, 0, cl__1};
Point(5) = {36.015997, -4.750035, 0, cl__1};
Point(6) = {36.015997, -4.750035, 1, cl__1};
Point(7) = {36.015997, 4.917894000000001, 1, cl__1};
Point(8) = {26.695958, -3.475039000000001, 1, cl__2};
Point(9) = {33.298537, -0.8990510000000002, 1, cl__3};
Point(10) = {36.015997, 4.917894000000001, 0, cl__1};
Point(11) = {26.695958, -3.475039000000001, 0, cl__2};
Point(12) = {33.298537, -0.8990510000000002, 0, cl__3};
Line(1) = {2, 1};
Line(2) = {1, 3};
Line(3) = {4, 3};
Line(4) = {2, 4};
Line(5) = {2, 5};
Line(6) = {5, 6};
Line(7) = {1, 6};
Line(8) = {3, 7};
Line(9) = {6, 7};
p10 = newp;
Point(p10 + 1) = {26.68842410163706, -3.379311744939002, 1};
Point(p10 + 2) = {26.66600791612953, -3.28594161259815, 1};
Point(p10 + 3) = {26.62926140435964, -3.19722768551338, 1};
Point(p10 + 4) = {26.57908938740185, -3.115354394994163, 1};
Point(p10 + 5) = {26.51672726682505, -3.042337733174954, 1};
Point(p10 + 6) = {26.44371060500584, -2.97997561259815, 1};
Point(p10 + 7) = {26.36183731448662, -2.929803595640364, 1};
Point(p10 + 8) = {26.27312338740185, -2.893057083870474, 1};
Point(p10 + 9) = {26.179753255061, -2.870640898362936, 1};
Point(p10 + 10) = {26.084026, -2.863107, 1};
Point(p10 + 11) = {25.988298744939, -2.870640898362936, 1};
Point(p10 + 12) = {25.89492861259815, -2.893057083870474, 1};
Point(p10 + 13) = {25.80621468551338, -2.929803595640364, 1};
Point(p10 + 14) = {25.72434139499416, -2.97997561259815, 1};
Point(p10 + 15) = {25.65132473317496, -3.042337733174954, 1};
Point(p10 + 16) = {25.58896261259815, -3.115354394994163, 1};
Point(p10 + 17) = {25.53879059564036, -3.19722768551338, 1};
Point(p10 + 18) = {25.50204408387048, -3.28594161259815, 1};
Point(p10 + 19) = {25.47962789836294, -3.379311744939002, 1};
Point(p10 + 20) = {25.472094, -3.475039, 1};
Point(p10 + 21) = {25.47962789836294, -3.570766255060999, 1};
Point(p10 + 22) = {25.50204408387048, -3.664136387401851, 1};
Point(p10 + 23) = {25.53879059564036, -3.75285031448662, 1};
Point(p10 + 24) = {25.58896261259815, -3.834723605005838, 1};
Point(p10 + 25) = {25.65132473317496, -3.907740266825046, 1};
Point(p10 + 26) = {25.72434139499416, -3.97010238740185, 1};
Point(p10 + 27) = {25.80621468551338, -4.020274404359636, 1};
Point(p10 + 28) = {25.89492861259815, -4.057020916129526, 1};
Point(p10 + 29) = {25.988298744939, -4.079437101637064, 1};
Point(p10 + 30) = {26.084026, -4.086971, 1};
Point(p10 + 31) = {26.179753255061, -4.079437101637064, 1};
Point(p10 + 32) = {26.27312338740185, -4.057020916129527, 1};
Point(p10 + 33) = {26.36183731448662, -4.020274404359636, 1};
Point(p10 + 34) = {26.44371060500584, -3.970102387401851, 1};
Point(p10 + 35) = {26.51672726682505, -3.907740266825047, 1};
Point(p10 + 36) = {26.57908938740185, -3.834723605005838, 1};
Point(p10 + 37) = {26.62926140435964, -3.752850314486621, 1};
Point(p10 + 38) = {26.66600791612953, -3.664136387401851, 1};
Point(p10 + 39) = {26.68842410163706, -3.570766255060999, 1};
Spline(10) = {8, p10 + 1, p10 + 2, p10 + 3, p10 + 4, p10 + 5, p10 + 6, p10 + 7, p10 + 8, p10 + 9, p10 + 10, p10 + 11, p10 + 12, p10 + 13, p10 + 14, p10 + 15, p10 + 16, p10 + 17, p10 + 18, p10 + 19, p10 + 20, p10 + 21, p10 + 22, p10 + 23, p10 + 24, p10 + 25, p10 + 26, p10 + 27, p10 + 28, p10 + 29, p10 + 30, p10 + 31, p10 + 32, p10 + 33, p10 + 34, p10 + 35, p10 + 36, p10 + 37, p10 + 38, p10 + 39, 8};
p11 = newp;
Point(p11 + 1) = {33.28790669467342, -0.7639801641124533, 1};
Point(p11 + 2) = {33.25627753209078, -0.6322352204788617, 1};
Point(p11 + 3) = {33.20442832720606, -0.5070601668478842, 1};
Point(p11 + 4) = {33.13363577952114, -0.3915372284721008, 1};
Point(p11 + 5) = {33.04564303650702, -0.2885109634929746, 1};
Point(p11 + 6) = {32.9426167715279, -0.2005182204788616, 1};
Point(p11 + 7) = {32.82709383315211, -0.1297256727939409, 1};
Point(p11 + 8) = {32.70191877952114, -0.07787646790921043, 1};
Point(p11 + 9) = {32.57017383588754, -0.04624730532657784, 1};
Point(p11 + 10) = {32.435103, -0.03561700000000001, 1};
Point(p11 + 11) = {32.30003216411245, -0.04624730532657795, 1};
Point(p11 + 12) = {32.16828722047886, -0.07787646790921032, 1};
Point(p11 + 13) = {32.04311216684788, -0.1297256727939408, 1};
Point(p11 + 14) = {31.9275892284721, -0.2005182204788616, 1};
Point(p11 + 15) = {31.82456296349297, -0.2885109634929744, 1};
Point(p11 + 16) = {31.73657022047886, -0.3915372284721007, 1};
Point(p11 + 17) = {31.66577767279394, -0.5070601668478841, 1};
Point(p11 + 18) = {31.61392846790921, -0.6322352204788616, 1};
Point(p11 + 19) = {31.58229930532658, -0.7639801641124533, 1};
Point(p11 + 20) = {31.571669, -0.8990509999999999, 1};
Point(p11 + 21) = {31.58229930532658, -1.034121835887547, 1};
Point(p11 + 22) = {31.61392846790921, -1.165866779521139, 1};
Point(p11 + 23) = {31.66577767279394, -1.291041833152115, 1};
Point(p11 + 24) = {31.73657022047886, -1.406564771527899, 1};
Point(p11 + 25) = {31.82456296349297, -1.509591036507026, 1};
Point(p11 + 26) = {31.9275892284721, -1.597583779521139, 1};
Point(p11 + 27) = {32.04311216684788, -1.668376327206059, 1};
Point(p11 + 28) = {32.16828722047886, -1.72022553209079, 1};
Point(p11 + 29) = {32.30003216411245, -1.751854694673422, 1};
Point(p11 + 30) = {32.435103, -1.762485, 1};
Point(p11 + 31) = {32.57017383588754, -1.751854694673422, 1};
Point(p11 + 32) = {32.70191877952114, -1.72022553209079, 1};
Point(p11 + 33) = {32.82709383315211, -1.668376327206059, 1};
Point(p11 + 34) = {32.9426167715279, -1.597583779521139, 1};
Point(p11 + 35) = {33.04564303650702, -1.509591036507026, 1};
Point(p11 + 36) = {33.13363577952114, -1.406564771527899, 1};
Point(p11 + 37) = {33.20442832720606, -1.291041833152116, 1};
Point(p11 + 38) = {33.25627753209078, -1.165866779521139, 1};
Point(p11 + 39) = {33.28790669467342, -1.034121835887547, 1};
Spline(11) = {9, p11 + 1, p11 + 2, p11 + 3, p11 + 4, p11 + 5, p11 + 6, p11 + 7, p11 + 8, p11 + 9, p11 + 10, p11 + 11, p11 + 12, p11 + 13, p11 + 14, p11 + 15, p11 + 16, p11 + 17, p11 + 18, p11 + 19, p11 + 20, p11 + 21, p11 + 22, p11 + 23, p11 + 24, p11 + 25, p11 + 26, p11 + 27, p11 + 28, p11 + 29, p11 + 30, p11 + 31, p11 + 32, p11 + 33, p11 + 34, p11 + 35, p11 + 36, p11 + 37, p11 + 38, p11 + 39, 9};
Line(12) = {4, 10};
Line(13) = {10, 7};
Line(14) = {5, 10};
p15 = newp;
Point(p15 + 1) = {26.68842410163706, -3.379311744939002, 0};
Point(p15 + 2) = {26.66600791612953, -3.28594161259815, 0};
Point(p15 + 3) = {26.62926140435964, -3.19722768551338, 0};
Point(p15 + 4) = {26.57908938740185, -3.115354394994163, 0};
Point(p15 + 5) = {26.51672726682505, -3.042337733174954, 0};
Point(p15 + 6) = {26.44371060500584, -2.97997561259815, 0};
Point(p15 + 7) = {26.36183731448662, -2.929803595640364, 0};
Point(p15 + 8) = {26.27312338740185, -2.893057083870474, 0};
Point(p15 + 9) = {26.179753255061, -2.870640898362936, 0};
Point(p15 + 10) = {26.084026, -2.863107, 0};
Point(p15 + 11) = {25.988298744939, -2.870640898362936, 0};
Point(p15 + 12) = {25.89492861259815, -2.893057083870474, 0};
Point(p15 + 13) = {25.80621468551338, -2.929803595640364, 0};
Point(p15 + 14) = {25.72434139499416, -2.97997561259815, 0};
Point(p15 + 15) = {25.65132473317496, -3.042337733174954, 0};
Point(p15 + 16) = {25.58896261259815, -3.115354394994163, 0};
Point(p15 + 17) = {25.53879059564036, -3.19722768551338, 0};
Point(p15 + 18) = {25.50204408387048, -3.28594161259815, 0};
Point(p15 + 19) = {25.47962789836294, -3.379311744939002, 0};
Point(p15 + 20) = {25.472094, -3.475039, 0};
Point(p15 + 21) = {25.47962789836294, -3.570766255060999, 0};
Point(p15 + 22) = {25.50204408387048, -3.664136387401851, 0};
Point(p15 + 23) = {25.53879059564036, -3.75285031448662, 0};
Point(p15 + 24) = {25.58896261259815, -3.834723605005838, 0};
Point(p15 + 25) = {25.65132473317496, -3.907740266825046, 0};
Point(p15 + 26) = {25.72434139499416, -3.97010238740185, 0};
Point(p15 + 27) = {25.80621468551338, -4.020274404359636, 0};
Point(p15 + 28) = {25.89492861259815, -4.057020916129526, 0};
Point(p15 + 29) = {25.988298744939, -4.079437101637064, 0};
Point(p15 + 30) = {26.084026, -4.086971, 0};
Point(p15 + 31) = {26.179753255061, -4.079437101637064, 0};
Point(p15 + 32) = {26.27312338740185, -4.057020916129527, 0};
Point(p15 + 33) = {26.36183731448662, -4.020274404359636, 0};
Point(p15 + 34) = {26.44371060500584, -3.970102387401851, 0};
Point(p15 + 35) = {26.51672726682505, -3.907740266825047, 0};
Point(p15 + 36) = {26.57908938740185, -3.834723605005838, 0};
Point(p15 + 37) = {26.62926140435964, -3.752850314486621, 0};
Point(p15 + 38) = {26.66600791612953, -3.664136387401851, 0};
Point(p15 + 39) = {26.68842410163706, -3.570766255060999, 0};
Spline(15) = {11, p15 + 1, p15 + 2, p15 + 3, p15 + 4, p15 + 5, p15 + 6, p15 + 7, p15 + 8, p15 + 9, p15 + 10, p15 + 11, p15 + 12, p15 + 13, p15 + 14, p15 + 15, p15 + 16, p15 + 17, p15 + 18, p15 + 19, p15 + 20, p15 + 21, p15 + 22, p15 + 23, p15 + 24, p15 + 25, p15 + 26, p15 + 27, p15 + 28, p15 + 29, p15 + 30, p15 + 31, p15 + 32, p15 + 33, p15 + 34, p15 + 35, p15 + 36, p15 + 37, p15 + 38, p15 + 39, 11};
p16 = newp;
Point(p16 + 1) = {33.28790669467342, -0.7639801641124533, 0};
Point(p16 + 2) = {33.25627753209078, -0.6322352204788617, 0};
Point(p16 + 3) = {33.20442832720606, -0.5070601668478842, 0};
Point(p16 + 4) = {33.13363577952114, -0.3915372284721008, 0};
Point(p16 + 5) = {33.04564303650702, -0.2885109634929746, 0};
Point(p16 + 6) = {32.9426167715279, -0.2005182204788616, 0};
Point(p16 + 7) = {32.82709383315211, -0.1297256727939409, 0};
Point(p16 + 8) = {32.70191877952114, -0.07787646790921043, 0};
Point(p16 + 9) = {32.57017383588754, -0.04624730532657784, 0};
Point(p16 + 10) = {32.435103, -0.03561700000000001, 0};
Point(p16 + 11) = {32.30003216411245, -0.04624730532657795, 0};
Point(p16 + 12) = {32.16828722047886, -0.07787646790921032, 0};
Point(p16 + 13) = {32.04311216684788, -0.1297256727939408, 0};
Point(p16 + 14) = {31.9275892284721, -0.2005182204788616, 0};
Point(p16 + 15) = {31.82456296349297, -0.2885109634929744, 0};
Point(p16 + 16) = {31.73657022047886, -0.3915372284721007, 0};
Point(p16 + 17) = {31.66577767279394, -0.5070601668478841, 0};
Point(p16 + 18) = {31.61392846790921, -0.6322352204788616, 0};
Point(p16 + 19) = {31.58229930532658, -0.7639801641124533, 0};
Point(p16 + 20) = {31.571669, -0.8990509999999999, 0};
Point(p16 + 21) = {31.58229930532658, -1.034121835887547, 0};
Point(p16 + 22) = {31.61392846790921, -1.165866779521139, 0};
Point(p16 + 23) = {31.66577767279394, -1.291041833152115, 0};
Point(p16 + 24) = {31.73657022047886, -1.406564771527899, 0};
Point(p16 + 25) = {31.82456296349297, -1.509591036507026, 0};
Point(p16 + 26) = {31.9275892284721, -1.597583779521139, 0};
Point(p16 + 27) = {32.04311216684788, -1.668376327206059, 0};
Point(p16 + 28) = {32.16828722047886, -1.72022553209079, 0};
Point(p16 + 29) = {32.30003216411245, -1.751854694673422, 0};
Point(p16 + 30) = {32.435103, -1.762485, 0};
Point(p16 + 31) = {32.57017383588754, -1.751854694673422, 0};
Point(p16 + 32) = {32.70191877952114, -1.72022553209079, 0};
Point(p16 + 33) = {32.82709383315211, -1.668376327206059, 0};
Point(p16 + 34) = {32.9426167715279, -1.597583779521139, 0};
Point(p16 + 35) = {33.04564303650702, -1.509591036507026, 0};
Point(p16 + 36) = {33.13363577952114, -1.406564771527899, 0};
Point(p16 + 37) = {33.20442832720606, -1.291041833152116, 0};
Point(p16 + 38) = {33.25627753209078, -1.165866779521139, 0};
Point(p16 + 39) = {33.28790669467342, -1.034121835887547, 0};
Spline(16) = {12, p16 + 1, p16 + 2, p16 + 3, p16 + 4, p16 + 5, p16 + 6, p16 + 7, p16 + 8, p16 + 9, p16 + 10, p16 + 11, p16 + 12, p16 + 13, p16 + 14, p16 + 15, p16 + 16, p16 + 17, p16 + 18, p16 + 19, p16 + 20, p16 + 21, p16 + 22, p16 + 23, p16 + 24, p16 + 25, p16 + 26, p16 + 27, p16 + 28, p16 + 29, p16 + 30, p16 + 31, p16 + 32, p16 + 33, p16 + 34, p16 + 35, p16 + 36, p16 + 37, p16 + 38, p16 + 39, 12};
Line(17) = {11, 8};
Line(18) = {12, 9};
Curve Loop(1) = {-1, 4, 3, -2};
Plane Surface(1) = {1};
Curve Loop(2) = {-5, 1, 7, -6};
Plane Surface(2) = {2};
Curve Loop(3) = {-2, 7, 9, -8, -10, -11};
Plane Surface(3) = {3};
Curve Loop(4) = {-12, 3, 8, -13};
Plane Surface(4) = {4};
Curve Loop(5) = {-4, 5, 14, -12, -15, -16};
Plane Surface(5) = {5};
Curve Loop(6) = {-6, 14, 13, -9};
Plane Surface(6) = {6};
Curve Loop(7) = {-10, -17, 15, 17};
Surface(7) = {7};
Curve Loop(8) = {-11, -18, 16, 18};
Surface(8) = {8};
Surface Loop(1) = {1, 2, 3, 4, 5, 6, 7, 8};
Volume(1) = {1};
Physical Surface("INFLOW") = {1};
Physical Surface("OUTFLOW") = {6};
Physical Surface("OBSTACLE") = {7, 8};
Physical Surface("WALL_Y") = {2, 4};
Physical Surface("WALL_Z") = {3, 5};
Physical Volume("FLUID") = {1};
