cl__1 = 1;
cl__2 = 0.080966;
cl__3 = 0.106398;
Point(1) = {0.969542, -3.799357, 1, cl__1};
Point(2) = {0.969542, -3.799357, 0, cl__1};
Point(3) = {0.969542, 5.194602999999999, 1, cl__1};
Point(4) = {0.969542, 5.194602999999999, 0, cl__1};
Point(5) = {31.770366, -3.799357, 0, cl__1};
Point(6) = {31.770366, -3.799357, 1, cl__1};
Point(7) = {31.770366, 5.194602999999999, 1, cl__1};
Point(8) = {17.440171, 1.254912, 1, cl__2};
Point(9) = {21.112595, 1.22184, 1, cl__3};
Point(10) = {31.770366, 5.194602999999999, 0, cl__1};
Point(11) = {17.440171, 1.254912, 0, cl__2};
Point(12) = {21.112595, 1.22184, 0, cl__3};
Line(1) = {2, 1};
Line(2) = {1, 3};
Line(3) = {4, 3};
Line(4) = {2, 4};
Line(5) = {2, 5};
Line(6) = {5, 6};
Line(7) = {1, 6};
Line(8) = {3, 7};
Line(9) = {6, 7};
p10 = newp;
Point(p10 + 1) = {17.4302027295346, 1.381570885398938, 1};
Point(p10 + 2) = {17.40054337004005, 1.505111008682614, 1};
Point(p10 + 3) = {17.35192323338088, 1.622490402009621, 1};
Point(p10 + 4) = {17.28553950868261, 1.730818795156376, 1};
Point(p10 + 5) = {17.20302678356228, 1.827428783562281, 1};
Point(p10 + 6) = {17.10641679515638, 1.909941508682614, 1};
Point(p10 + 7) = {16.99808840200962, 1.976325233380878, 1};
Point(p10 + 8) = {16.88070900868262, 2.02494537004005, 1};
Point(p10 + 9) = {16.75716888539894, 2.0546047295346, 1};
Point(p10 + 10) = {16.63051, 2.064573, 1};
Point(p10 + 11) = {16.50385111460106, 2.0546047295346, 1};
Point(p10 + 12) = {16.38031099131739, 2.02494537004005, 1};
Point(p10 + 13) = {16.26293159799038, 1.976325233380878, 1};
Point(p10 + 14) = {16.15460320484362, 1.909941508682614, 1};
Point(p10 + 15) = {16.05799321643772, 1.827428783562281, 1};
Point(p10 + 16) = {15.97548049131739, 1.730818795156376, 1};
Point(p10 + 17) = {15.90909676661912, 1.622490402009621, 1};
Point(p10 + 18) = {15.86047662995995, 1.505111008682614, 1};
Point(p10 + 19) = {15.8308172704654, 1.381570885398939, 1};
Point(p10 + 20) = {15.820849, 1.254912, 1};
Point(p10 + 21) = {15.8308172704654, 1.128253114601062, 1};
Point(p10 + 22) = {15.86047662995995, 1.004712991317386, 1};
Point(p10 + 23) = {15.90909676661912, 0.8873335979903794, 1};
Point(p10 + 24) = {15.97548049131739, 0.779005204843624, 1};
Point(p10 + 25) = {16.05799321643772, 0.6823952164377188, 1};
Point(p10 + 26) = {16.15460320484362, 0.5998824913173858, 1};
Point(p10 + 27) = {16.26293159799038, 0.533498766619122, 1};
Point(p10 + 28) = {16.38031099131739, 0.4848786299599498, 1};
Point(p10 + 29) = {16.50385111460106, 0.4552192704654003, 1};
Point(p10 + 30) = {16.63051, 0.4452510000000001, 1};
Point(p10 + 31) = {16.75716888539894, 0.4552192704654002, 1};
Point(p10 + 32) = {16.88070900868262, 0.4848786299599497, 1};
Point(p10 + 33) = {16.99808840200962, 0.5334987666191219, 1};
Point(p10 + 34) = {17.10641679515638, 0.5998824913173857, 1};
Point(p10 + 35) = {17.20302678356228, 0.6823952164377187, 1};
Point(p10 + 36) = {17.28553950868261, 0.7790052048436238, 1};
Point(p10 + 37) = {17.35192323338088, 0.8873335979903787, 1};
Point(p10 + 38) = {17.40054337004005, 1.004712991317386, 1};
Point(p10 + 39) = {17.4302027295346, 1.128253114601061, 1};
Spline(10) = {8, p10 + 1, p10 + 2, p10 + 3, p10 + 4, p10 + 5, p10 + 6, p10 + 7, p10 + 8, p10 + 9, p10 + 10, p10 + 11, p10 + 12, p10 + 13, p10 + 14, p10 + 15, p10 + 16, p10 + 17, p10 + 18, p10 + 19, p10 + 20, p10 + 21, p10 + 22, p10 + 23, p10 + 24, p10 + 25, p10 + 26, p10 + 27, p10 + 28, p10 + 29, p10 + 30, p10 + 31, p10 + 32, p10 + 33, p10 + 34, p10 + 35, p10 + 36, p10 + 37, p10 + 38, p10 + 39, 8};
p11 = newp;
Point(p11 + 1) = {21.09949559137978, 1.388283767851365, 1};
Point(p11 + 2) = {21.06051991643378, 1.550629137743034, 1};
Point(p11 + 3) = {20.99662768563204, 1.704878627874882, 1};
Point(p11 + 4) = {20.90939213774303, 1.847234103875155, 1};
Point(p11 + 5) = {20.80096130147399, 1.974190301473988, 1};
Point(p11 + 6) = {20.67400510387516, 2.082621137743034, 1};
Point(p11 + 7) = {20.53164962787488, 2.169856685632036, 1};
Point(p11 + 8) = {20.37740013774303, 2.233748916433782, 1};
Point(p11 + 9) = {20.21505476785137, 2.272724591379777, 1};
Point(p11 + 10) = {20.048611, 2.285824, 1};
Point(p11 + 11) = {19.88216723214864, 2.272724591379777, 1};
Point(p11 + 12) = {19.71982186225697, 2.233748916433783, 1};
Point(p11 + 13) = {19.56557237212512, 2.169856685632037, 1};
Point(p11 + 14) = {19.42321689612485, 2.082621137743034, 1};
Point(p11 + 15) = {19.29626069852601, 1.974190301473988, 1};
Point(p11 + 16) = {19.18782986225697, 1.847234103875155, 1};
Point(p11 + 17) = {19.10059431436796, 1.704878627874882, 1};
Point(p11 + 18) = {19.03670208356622, 1.550629137743034, 1};
Point(p11 + 19) = {18.99772640862022, 1.388283767851365, 1};
Point(p11 + 20) = {18.984627, 1.22184, 1};
Point(p11 + 21) = {18.99772640862022, 1.055396232148635, 1};
Point(p11 + 22) = {19.03670208356622, 0.8930508622569656, 1};
Point(p11 + 23) = {19.10059431436796, 0.7388013721251186, 1};
Point(p11 + 24) = {19.18782986225697, 0.5964458961248454, 1};
Point(p11 + 25) = {19.29626069852601, 0.4694896985260125, 1};
Point(p11 + 26) = {19.42321689612485, 0.361058862256966, 1};
Point(p11 + 27) = {19.56557237212512, 0.2738233143679637, 1};
Point(p11 + 28) = {19.71982186225697, 0.2099310835662174, 1};
Point(p11 + 29) = {19.88216723214864, 0.170955408620223, 1};
Point(p11 + 30) = {20.048611, 0.157856, 1};
Point(p11 + 31) = {20.21505476785137, 0.170955408620223, 1};
Point(p11 + 32) = {20.37740013774303, 0.2099310835662171, 1};
Point(p11 + 33) = {20.53164962787488, 0.2738233143679636, 1};
Point(p11 + 34) = {20.67400510387516, 0.3610588622569658, 1};
Point(p11 + 35) = {20.80096130147399, 0.4694896985260123, 1};
Point(p11 + 36) = {20.90939213774303, 0.596445896124845, 1};
Point(p11 + 37) = {20.99662768563204, 0.7388013721251179, 1};
Point(p11 + 38) = {21.06051991643378, 0.8930508622569657, 1};
Point(p11 + 39) = {21.09949559137978, 1.055396232148635, 1};
Spline(11) = {9, p11 + 1, p11 + 2, p11 + 3, p11 + 4, p11 + 5, p11 + 6, p11 + 7, p11 + 8, p11 + 9, p11 + 10, p11 + 11, p11 + 12, p11 + 13, p11 + 14, p11 + 15, p11 + 16, p11 + 17, p11 + 18, p11 + 19, p11 + 20, p11 + 21, p11 + 22, p11 + 23, p11 + 24, p11 + 25, p11 + 26, p11 + 27, p11 + 28, p11 + 29, p11 + 30, p11 + 31, p11 + 32, p11 + 33, p11 + 34, p11 + 35, p11 + 36, p11 + 37, p11 + 38, p11 + 39, 9};
Line(12) = {4, 10};
Line(13) = {10, 7};
Line(14) = {5, 10};
p15 = newp;
Point(p15 + 1) = {17.4302027295346, 1.381570885398938, 0};
Point(p15 + 2) = {17.40054337004005, 1.505111008682614, 0};
Point(p15 + 3) = {17.35192323338088, 1.622490402009621, 0};
Point(p15 + 4) = {17.28553950868261, 1.730818795156376, 0};
Point(p15 + 5) = {17.20302678356228, 1.827428783562281, 0};
Point(p15 + 6) = {17.10641679515638, 1.909941508682614, 0};
Point(p15 + 7) = {16.99808840200962, 1.976325233380878, 0};
Point(p15 + 8) = {16.88070900868262, 2.02494537004005, 0};
Point(p15 + 9) = {16.75716888539894, 2.0546047295346, 0};
Point(p15 + 10) = {16.63051, 2.064573, 0};
Point(p15 + 11) = {16.50385111460106, 2.0546047295346, 0};
Point(p15 + 12) = {16.38031099131739, 2.02494537004005, 0};
Point(p15 + 13) = {16.26293159799038, 1.976325233380878, 0};
Point(p15 + 14) = {16.15460320484362, 1.909941508682614, 0};
Point(p15 + 15) = {16.05799321643772, 1.827428783562281, 0};
Point(p15 + 16) = {15.97548049131739, 1.730818795156376, 0};
Point(p15 + 17) = {15.90909676661912, 1.622490402009621, 0};
Point(p15 + 18) = {15.86047662995995, 1.505111008682614, 0};
Point(p15 + 19) = {15.8308172704654, 1.381570885398939, 0};
Point(p15 + 20) = {15.820849, 1.254912, 0};
Point(p15 + 21) = {15.8308172704654, 1.128253114601062, 0};
Point(p15 + 22) = {15.86047662995995, 1.004712991317386, 0};
Point(p15 + 23) = {15.90909676661912, 0.8873335979903794, 0};
Point(p15 + 24) = {15.97548049131739, 0.779005204843624, 0};
Point(p15 + 25) = {16.05799321643772, 0.6823952164377188, 0};
Point(p15 + 26) = {16.15460320484362, 0.5998824913173858, 0};
Point(p15 + 27) = {16.26293159799038, 0.533498766619122, 0};
Point(p15 + 28) = {16.38031099131739, 0.4848786299599498, 0};
Point(p15 + 29) = {16.50385111460106, 0.4552192704654003, 0};
Point(p15 + 30) = {16.63051, 0.4452510000000001, 0};
Point(p15 + 31) = {16.75716888539894, 0.4552192704654002, 0};
Point(p15 + 32) = {16.88070900868262, 0.4848786299599497, 0};
Point(p15 + 33) = {16.99808840200962, 0.5334987666191219, 0};
Point(p15 + 34) = {17.10641679515638, 0.5998824913173857, 0};
Point(p15 + 35) = {17.20302678356228, 0.6823952164377187, 0};
Point(p15 + 36) = {17.28553950868261, 0.7790052048436238, 0};
Point(p15 + 37) = {17.35192323338088, 0.8873335979903787, 0};
Point(p15 + 38) = {17.40054337004005, 1.004712991317386, 0};
Point(p15 + 39) = {17.4302027295346, 1.128253114601061, 0};
Spline(15) = {11, p15 + 1, p15 + 2, p15 + 3, p15 + 4, p15 + 5, p15 + 6, p15 + 7, p15 + 8, p15 + 9, p15 + 10, p15 + 11, p15 + 12, p15 + 13, p15 + 14, p15 + 15, p15 + 16, p15 + 17, p15 + 18, p15 + 19, p15 + 20, p15 + 21, p15 + 22, p15 + 23, p15 + 24, p15 + 25, p15 + 26, p15 + 27, p15 + 28, p15 + 29, p15 + 30, p15 + 31, p15 + 32, p15 + 33, p15 + 34, p15 + 35, p15 + 36, p15 + 37, p15 + 38, p15 + 39, 11};
p16 = newp;
Point(p16 + 1) = {21.09949559137978, 1.388283767851365, 0};
Point(p16 + 2) = {21.06051991643378, 1.550629137743034, 0};
Point(p16 + 3) = {20.99662768563204, 1.704878627874882, 0};
Point(p16 + 4) = {20.90939213774303, 1.847234103875155, 0};
Point(p16 + 5) = {20.80096130147399, 1.974190301473988, 0};
Point(p16 + 6) = {20.67400510387516, 2.082621137743034, 0};
Point(p16 + 7) = {20.53164962787488, 2.169856685632036, 0};
Point(p16 + 8) = {20.37740013774303, 2.233748916433782, 0};
Point(p16 + 9) = {20.21505476785137, 2.272724591379777, 0};
Point(p16 + 10) = {20.048611, 2.285824, 0};
Point(p16 + 11) = {19.88216723214864, 2.272724591379777, 0};
Point(p16 + 12) = {19.71982186225697, 2.233748916433783, 0};
Point(p16 + 13) = {19.56557237212512, 2.169856685632037, 0};
Point(p16 + 14) = {19.42321689612485, 2.082621137743034, 0};
Point(p16 + 15) = {19.29626069852601, 1.974190301473988, 0};
Point(p16 + 16) = {19.18782986225697, 1.847234103875155, 0};
Point(p16 + 17) = {19.10059431436796, 1.704878627874882, 0};
Point(p16 + 18) = {19.03670208356622, 1.550629137743034, 0};
Point(p16 + 19) = {18.99772640862022, 1.388283767851365, 0};
Point(p16 + 20) = {18.984627, 1.22184, 0};
Point(p16 + 21) = {18.99772640862022, 1.055396232148635, 0};
Point(p16 + 22) = {19.03670208356622, 0.8930508622569656, 0};
Point(p16 + 23) = {19.10059431436796, 0.7388013721251186, 0};
Point(p16 + 24) = {19.18782986225697, 0.5964458961248454, 0};
Point(p16 + 25) = {19.29626069852601, 0.4694896985260125, 0};
Point(p16 + 26) = {19.42321689612485, 0.361058862256966, 0};
Point(p16 + 27) = {19.56557237212512, 0.2738233143679637, 0};
Point(p16 + 28) = {19.71982186225697, 0.2099310835662174, 0};
Point(p16 + 29) = {19.88216723214864, 0.170955408620223, 0};
Point(p16 + 30) = {20.048611, 0.157856, 0};
Point(p16 + 31) = {20.21505476785137, 0.170955408620223, 0};
Point(p16 + 32) = {20.37740013774303, 0.2099310835662171, 0};
Point(p16 + 33) = {20.53164962787488, 0.2738233143679636, 0};
Point(p16 + 34) = {20.67400510387516, 0.3610588622569658, 0};
Point(p16 + 35) = {20.80096130147399, 0.4694896985260123, 0};
Point(p16 + 36) = {20.90939213774303, 0.596445896124845, 0};
Point(p16 + 37) = {20.99662768563204, 0.7388013721251179, 0};
Point(p16 + 38) = {21.06051991643378, 0.8930508622569657, 0};
Point(p16 + 39) = {21.09949559137978, 1.055396232148635, 0};
Spline(16) = {12, p16 + 1, p16 + 2, p16 + 3, p16 + 4, p16 + 5, p16 + 6, p16 + 7, p16 + 8, p16 + 9, p16 + 10, p16 + 11, p16 + 12, p16 + 13, p16 + 14, p16 + 15, p16 + 16, p16 + 17, p16 + 18, p16 + 19, p16 + 20, p16 + 21, p16 + 22, p16 + 23, p16 + 24, p16 + 25, p16 + 26, p16 + 27, p16 + 28, p16 + 29, p16 + 30, p16 + 31, p16 + 32, p16 + 33, p16 + 34, p16 + 35, p16 + 36, p16 + 37, p16 + 38, p16 + 39, 12};
Line(17) = {11, 8};
Line(18) = {12, 9};
Curve Loop(1) = {-1, 4, 3, -2};
Plane Surface(1) = {1};
Curve Loop(2) = {-5, 1, 7, -6};
Plane Surface(2) = {2};
Curve Loop(3) = {-2, 7, 9, -8, -10, -11};
Plane Surface(3) = {3};
Curve Loop(4) = {-12, 3, 8, -13};
Plane Surface(4) = {4};
Curve Loop(5) = {-4, 5, 14, -12, -15, -16};
Plane Surface(5) = {5};
Curve Loop(6) = {-6, 14, 13, -9};
Plane Surface(6) = {6};
Curve Loop(7) = {-10, -17, 15, 17};
Surface(7) = {7};
Curve Loop(8) = {-11, -18, 16, 18};
Surface(8) = {8};
Surface Loop(1) = {1, 2, 3, 4, 5, 6, 7, 8};
Volume(1) = {1};
Physical Surface("INFLOW") = {1};
Physical Surface("OUTFLOW") = {6};
Physical Surface("OBSTACLE") = {7, 8};
Physical Surface("WALL_Y") = {2, 4};
Physical Surface("WALL_Z") = {3, 5};
Physical Volume("FLUID") = {1};
