cl__1 = 3.62888;
cl__2 = 0.605567;
cl__3 = 0.260534;
cl__4 = 0.07803499999999999;
cl__5 = 0.052023;
Point(1) = {0.383043, -3.311247, 1, cl__1};
Point(2) = {0.383043, -3.311247, 0, cl__1};
Point(3) = {0.383043, 4.282417000000001, 1, cl__1};
Point(4) = {0.383043, 4.282417000000001, 0, cl__1};
Point(5) = {36.089621, -3.311247, 0, cl__2};
Point(6) = {36.089621, -3.311247, 1, cl__2};
Point(7) = {36.089621, 4.282417000000001, 1, cl__3};
Point(8) = {30.279496, -1.495535, 1, cl__4};
Point(9) = {33.752819, 3.014923, 1, cl__5};
Point(10) = {36.089621, 4.282417000000001, 0, cl__3};
Point(11) = {30.279496, -1.495535, 0, cl__4};
Point(12) = {33.752819, 3.014923, 0, cl__5};
Line(1) = {2, 1};
Line(2) = {1, 3};
Line(3) = {4, 3};
Line(4) = {2, 4};
Line(5) = {2, 5};
Line(6) = {5, 6};
Line(7) = {1, 6};
Line(8) = {3, 7};
Line(9) = {6, 7};
p10 = newp;
Point(p10 + 1) = {30.26988863351839, -1.373461834509251, 1};
Point(p10 + 2) = {30.24130309932137, -1.254394515490493, 1};
Point(p10 + 3) = {30.19444326813082, -1.141264875499744, 1};
Point(p10 + 4) = {30.13046298450951, -1.036858541729325, 1};
Point(p10 + 5) = {30.05093765537858, -0.9437463446214213, 1};
Point(p10 + 6) = {29.95782545827067, -0.8642210154904929, 1};
Point(p10 + 7) = {29.85341912450026, -0.8002407318691798, 1};
Point(p10 + 8) = {29.74028948450951, -0.7533809006786258, 1};
Point(p10 + 9) = {29.62122216549075, -0.724795366481606, 1};
Point(p10 + 10) = {29.499149, -0.715188, 1};
Point(p10 + 11) = {29.37707583450925, -0.7247953664816061, 1};
Point(p10 + 12) = {29.25800851549049, -0.7533809006786258, 1};
Point(p10 + 13) = {29.14487887549974, -0.8002407318691798, 1};
Point(p10 + 14) = {29.04047254172933, -0.8642210154904929, 1};
Point(p10 + 15) = {28.94736034462142, -0.9437463446214213, 1};
Point(p10 + 16) = {28.86783501549049, -1.036858541729325, 1};
Point(p10 + 17) = {28.80385473186918, -1.141264875499744, 1};
Point(p10 + 18) = {28.75699490067862, -1.254394515490493, 1};
Point(p10 + 19) = {28.72840936648161, -1.373461834509251, 1};
Point(p10 + 20) = {28.718802, -1.495535, 1};
Point(p10 + 21) = {28.72840936648161, -1.617608165490749, 1};
Point(p10 + 22) = {28.75699490067862, -1.736675484509507, 1};
Point(p10 + 23) = {28.80385473186918, -1.849805124500256, 1};
Point(p10 + 24) = {28.86783501549049, -1.954211458270674, 1};
Point(p10 + 25) = {28.94736034462142, -2.047323655378579, 1};
Point(p10 + 26) = {29.04047254172933, -2.126848984509507, 1};
Point(p10 + 27) = {29.14487887549974, -2.190829268130821, 1};
Point(p10 + 28) = {29.25800851549049, -2.237689099321374, 1};
Point(p10 + 29) = {29.37707583450925, -2.266274633518394, 1};
Point(p10 + 30) = {29.499149, -2.275882, 1};
Point(p10 + 31) = {29.62122216549075, -2.266274633518394, 1};
Point(p10 + 32) = {29.74028948450951, -2.237689099321374, 1};
Point(p10 + 33) = {29.85341912450026, -2.190829268130821, 1};
Point(p10 + 34) = {29.95782545827067, -2.126848984509508, 1};
Point(p10 + 35) = {30.05093765537858, -2.047323655378579, 1};
Point(p10 + 36) = {30.13046298450951, -1.954211458270675, 1};
Point(p10 + 37) = {30.19444326813082, -1.849805124500256, 1};
Point(p10 + 38) = {30.24130309932137, -1.736675484509507, 1};
Point(p10 + 39) = {30.26988863351839, -1.617608165490749, 1};
Spline(10) = {8, p10 + 1, p10 + 2, p10 + 3, p10 + 4, p10 + 5, p10 + 6, p10 + 7, p10 + 8, p10 + 9, p10 + 10, p10 + 11, p10 + 12, p10 + 13, p10 + 14, p10 + 15, p10 + 16, p10 + 17, p10 + 18, p10 + 19, p10 + 20, p10 + 21, p10 + 22, p10 + 23, p10 + 24, p10 + 25, p10 + 26, p10 + 27, p10 + 28, p10 + 29, p10 + 30, p10 + 31, p10 + 32, p10 + 33, p10 + 34, p10 + 35, p10 + 36, p10 + 37, p10 + 38, p10 + 39, 8};
p11 = newp;
Point(p11 + 1) = {33.74641406849283, 3.096305371051274, 1};
Point(p11 + 2) = {33.72735698464177, 3.175683838034662, 1};
Point(p11 + 3) = {33.69611699709809, 3.251103839651003, 1};
Point(p11 + 4) = {33.65346333803466, 3.32070828515587, 1};
Point(p11 + 5) = {33.60044628209702, 3.382783282097021, 1};
Point(p11 + 6) = {33.53837128515587, 3.435800338034662, 1};
Point(p11 + 7) = {33.468766839651, 3.478453997098087, 1};
Point(p11 + 8) = {33.39334683803466, 3.509693984641777, 1};
Point(p11 + 9) = {33.31396837105127, 3.52875106849283, 1};
Point(p11 + 10) = {33.232586, 3.535156, 1};
Point(p11 + 11) = {33.15120362894872, 3.52875106849283, 1};
Point(p11 + 12) = {33.07182516196534, 3.509693984641777, 1};
Point(p11 + 13) = {32.99640516034899, 3.478453997098087, 1};
Point(p11 + 14) = {32.92680071484413, 3.435800338034662, 1};
Point(p11 + 15) = {32.86472571790298, 3.382783282097021, 1};
Point(p11 + 16) = {32.81170866196533, 3.32070828515587, 1};
Point(p11 + 17) = {32.76905500290191, 3.251103839651003, 1};
Point(p11 + 18) = {32.73781501535822, 3.175683838034662, 1};
Point(p11 + 19) = {32.71875793150717, 3.096305371051275, 1};
Point(p11 + 20) = {32.712353, 3.014923, 1};
Point(p11 + 21) = {32.71875793150717, 2.933540628948726, 1};
Point(p11 + 22) = {32.73781501535822, 2.854162161965338, 1};
Point(p11 + 23) = {32.76905500290191, 2.778742160348997, 1};
Point(p11 + 24) = {32.81170866196533, 2.70913771484413, 1};
Point(p11 + 25) = {32.86472571790298, 2.647062717902979, 1};
Point(p11 + 26) = {32.92680071484413, 2.594045661965338, 1};
Point(p11 + 27) = {32.99640516034899, 2.551392002901913, 1};
Point(p11 + 28) = {33.07182516196534, 2.520152015358224, 1};
Point(p11 + 29) = {33.15120362894872, 2.50109493150717, 1};
Point(p11 + 30) = {33.232586, 2.49469, 1};
Point(p11 + 31) = {33.31396837105127, 2.50109493150717, 1};
Point(p11 + 32) = {33.39334683803466, 2.520152015358224, 1};
Point(p11 + 33) = {33.468766839651, 2.551392002901913, 1};
Point(p11 + 34) = {33.53837128515587, 2.594045661965338, 1};
Point(p11 + 35) = {33.60044628209702, 2.647062717902979, 1};
Point(p11 + 36) = {33.65346333803466, 2.70913771484413, 1};
Point(p11 + 37) = {33.69611699709809, 2.778742160348996, 1};
Point(p11 + 38) = {33.72735698464177, 2.854162161965338, 1};
Point(p11 + 39) = {33.74641406849283, 2.933540628948725, 1};
Spline(11) = {9, p11 + 1, p11 + 2, p11 + 3, p11 + 4, p11 + 5, p11 + 6, p11 + 7, p11 + 8, p11 + 9, p11 + 10, p11 + 11, p11 + 12, p11 + 13, p11 + 14, p11 + 15, p11 + 16, p11 + 17, p11 + 18, p11 + 19, p11 + 20, p11 + 21, p11 + 22, p11 + 23, p11 + 24, p11 + 25, p11 + 26, p11 + 27, p11 + 28, p11 + 29, p11 + 30, p11 + 31, p11 + 32, p11 + 33, p11 + 34, p11 + 35, p11 + 36, p11 + 37, p11 + 38, p11 + 39, 9};
Line(12) = {4, 10};
Line(13) = {10, 7};
Line(14) = {5, 10};
p15 = newp;
Point(p15 + 1) = {30.26988863351839, -1.373461834509251, 0};
Point(p15 + 2) = {30.24130309932137, -1.254394515490493, 0};
Point(p15 + 3) = {30.19444326813082, -1.141264875499744, 0};
Point(p15 + 4) = {30.13046298450951, -1.036858541729325, 0};
Point(p15 + 5) = {30.05093765537858, -0.9437463446214213, 0};
Point(p15 + 6) = {29.95782545827067, -0.8642210154904929, 0};
Point(p15 + 7) = {29.85341912450026, -0.8002407318691798, 0};
Point(p15 + 8) = {29.74028948450951, -0.7533809006786258, 0};
Point(p15 + 9) = {29.62122216549075, -0.724795366481606, 0};
Point(p15 + 10) = {29.499149, -0.715188, 0};
Point(p15 + 11) = {29.37707583450925, -0.7247953664816061, 0};
Point(p15 + 12) = {29.25800851549049, -0.7533809006786258, 0};
Point(p15 + 13) = {29.14487887549974, -0.8002407318691798, 0};
Point(p15 + 14) = {29.04047254172933, -0.8642210154904929, 0};
Point(p15 + 15) = {28.94736034462142, -0.9437463446214213, 0};
Point(p15 + 16) = {28.86783501549049, -1.036858541729325, 0};
Point(p15 + 17) = {28.80385473186918, -1.141264875499744, 0};
Point(p15 + 18) = {28.75699490067862, -1.254394515490493, 0};
Point(p15 + 19) = {28.72840936648161, -1.373461834509251, 0};
Point(p15 + 20) = {28.718802, -1.495535, 0};
Point(p15 + 21) = {28.72840936648161, -1.617608165490749, 0};
Point(p15 + 22) = {28.75699490067862, -1.736675484509507, 0};
Point(p15 + 23) = {28.80385473186918, -1.849805124500256, 0};
Point(p15 + 24) = {28.86783501549049, -1.954211458270674, 0};
Point(p15 + 25) = {28.94736034462142, -2.047323655378579, 0};
Point(p15 + 26) = {29.04047254172933, -2.126848984509507, 0};
Point(p15 + 27) = {29.14487887549974, -2.190829268130821, 0};
Point(p15 + 28) = {29.25800851549049, -2.237689099321374, 0};
Point(p15 + 29) = {29.37707583450925, -2.266274633518394, 0};
Point(p15 + 30) = {29.499149, -2.275882, 0};
Point(p15 + 31) = {29.62122216549075, -2.266274633518394, 0};
Point(p15 + 32) = {29.74028948450951, -2.237689099321374, 0};
Point(p15 + 33) = {29.85341912450026, -2.190829268130821, 0};
Point(p15 + 34) = {29.95782545827067, -2.126848984509508, 0};
Point(p15 + 35) = {30.05093765537858, -2.047323655378579, 0};
Point(p15 + 36) = {30.13046298450951, -1.954211458270675, 0};
Point(p15 + 37) = {30.19444326813082, -1.849805124500256, 0};
Point(p15 + 38) = {30.24130309932137, -1.736675484509507, 0};
Point(p15 + 39) = {30.26988863351839, -1.617608165490749, 0};
Spline(15) = {11, p15 + 1, p15 + 2, p15 + 3, p15 + 4, p15 + 5, p15 + 6, p15 + 7, p15 + 8, p15 + 9, p15 + 10, p15 + 11, p15 + 12, p15 + 13, p15 + 14, p15 + 15, p15 + 16, p15 + 17, p15 + 18, p15 + 19, p15 + 20, p15 + 21, p15 + 22, p15 + 23, p15 + 24, p15 + 25, p15 + 26, p15 + 27, p15 + 28, p15 + 29, p15 + 30, p15 + 31, p15 + 32, p15 + 33, p15 + 34, p15 + 35, p15 + 36, p15 + 37, p15 + 38, p15 + 39, 11};
p16 = newp;
Point(p16 + 1) = {33.74641406849283, 3.096305371051274, 0};
Point(p16 + 2) = {33.72735698464177, 3.175683838034662, 0};
Point(p16 + 3) = {33.69611699709809, 3.251103839651003, 0};
Point(p16 + 4) = {33.65346333803466, 3.32070828515587, 0};
Point(p16 + 5) = {33.60044628209702, 3.382783282097021, 0};
Point(p16 + 6) = {33.53837128515587, 3.435800338034662, 0};
Point(p16 + 7) = {33.468766839651, 3.478453997098087, 0};
Point(p16 + 8) = {33.39334683803466, 3.509693984641777, 0};
Point(p16 + 9) = {33.31396837105127, 3.52875106849283, 0};
Point(p16 + 10) = {33.232586, 3.535156, 0};
Point(p16 + 11) = {33.15120362894872, 3.52875106849283, 0};
Point(p16 + 12) = {33.07182516196534, 3.509693984641777, 0};
Point(p16 + 13) = {32.99640516034899, 3.478453997098087, 0};
Point(p16 + 14) = {32.92680071484413, 3.435800338034662, 0};
Point(p16 + 15) = {32.86472571790298, 3.382783282097021, 0};
Point(p16 + 16) = {32.81170866196533, 3.32070828515587, 0};
Point(p16 + 17) = {32.76905500290191, 3.251103839651003, 0};
Point(p16 + 18) = {32.73781501535822, 3.175683838034662, 0};
Point(p16 + 19) = {32.71875793150717, 3.096305371051275, 0};
Point(p16 + 20) = {32.712353, 3.014923, 0};
Point(p16 + 21) = {32.71875793150717, 2.933540628948726, 0};
Point(p16 + 22) = {32.73781501535822, 2.854162161965338, 0};
Point(p16 + 23) = {32.76905500290191, 2.778742160348997, 0};
Point(p16 + 24) = {32.81170866196533, 2.70913771484413, 0};
Point(p16 + 25) = {32.86472571790298, 2.647062717902979, 0};
Point(p16 + 26) = {32.92680071484413, 2.594045661965338, 0};
Point(p16 + 27) = {32.99640516034899, 2.551392002901913, 0};
Point(p16 + 28) = {33.07182516196534, 2.520152015358224, 0};
Point(p16 + 29) = {33.15120362894872, 2.50109493150717, 0};
Point(p16 + 30) = {33.232586, 2.49469, 0};
Point(p16 + 31) = {33.31396837105127, 2.50109493150717, 0};
Point(p16 + 32) = {33.39334683803466, 2.520152015358224, 0};
Point(p16 + 33) = {33.468766839651, 2.551392002901913, 0};
Point(p16 + 34) = {33.53837128515587, 2.594045661965338, 0};
Point(p16 + 35) = {33.60044628209702, 2.647062717902979, 0};
Point(p16 + 36) = {33.65346333803466, 2.70913771484413, 0};
Point(p16 + 37) = {33.69611699709809, 2.778742160348996, 0};
Point(p16 + 38) = {33.72735698464177, 2.854162161965338, 0};
Point(p16 + 39) = {33.74641406849283, 2.933540628948725, 0};
Spline(16) = {12, p16 + 1, p16 + 2, p16 + 3, p16 + 4, p16 + 5, p16 + 6, p16 + 7, p16 + 8, p16 + 9, p16 + 10, p16 + 11, p16 + 12, p16 + 13, p16 + 14, p16 + 15, p16 + 16, p16 + 17, p16 + 18, p16 + 19, p16 + 20, p16 + 21, p16 + 22, p16 + 23, p16 + 24, p16 + 25, p16 + 26, p16 + 27, p16 + 28, p16 + 29, p16 + 30, p16 + 31, p16 + 32, p16 + 33, p16 + 34, p16 + 35, p16 + 36, p16 + 37, p16 + 38, p16 + 39, 12};
Line(17) = {11, 8};
Line(18) = {12, 9};
Curve Loop(1) = {-1, 4, 3, -2};
Plane Surface(1) = {1};
Curve Loop(2) = {-5, 1, 7, -6};
Plane Surface(2) = {2};
Curve Loop(3) = {-2, 7, 9, -8, -10, -11};
Plane Surface(3) = {3};
Curve Loop(4) = {-12, 3, 8, -13};
Plane Surface(4) = {4};
Curve Loop(5) = {-4, 5, 14, -12, -15, -16};
Plane Surface(5) = {5};
Curve Loop(6) = {-6, 14, 13, -9};
Plane Surface(6) = {6};
Curve Loop(7) = {-10, -17, 15, 17};
Surface(7) = {7};
Curve Loop(8) = {-11, -18, 16, 18};
Surface(8) = {8};
Surface Loop(1) = {1, 2, 3, 4, 5, 6, 7, 8};
Volume(1) = {1};
Physical Surface("INFLOW") = {1};
Physical Surface("OUTFLOW") = {6};
Physical Surface("OBSTACLE") = {7, 8};
Physical Surface("WALL_Y") = {2, 4};
Physical Surface("WALL_Z") = {3, 5};
Physical Volume("FLUID") = {1};
