cl__1 = 3.54421;
cl__2 = 0.902441;
cl__3 = 1.52838;
cl__4 = 0.111313;
cl__5 = 0.101613;
Point(1) = {0.042416, -3.248678, 1, cl__1};
Point(2) = {0.042416, -3.248678, 0, cl__1};
Point(3) = {0.042416, 5.240349999999999, 1, cl__2};
Point(4) = {0.042416, 5.240349999999999, 0, cl__2};
Point(5) = {35.187027, -3.248678, 0, cl__3};
Point(6) = {35.187027, -3.248678, 1, cl__3};
Point(7) = {35.187027, 5.240349999999999, 1, cl__2};
Point(8) = {17.346569, -0.6582210000000002, 1, cl__4};
Point(9) = {26.884576, 0.4898249999999997, 1, cl__5};
Point(10) = {35.187027, 5.240349999999999, 0, cl__2};
Point(11) = {17.346569, -0.6582210000000002, 0, cl__4};
Point(12) = {26.884576, 0.4898249999999997, 0, cl__5};
Line(1) = {2, 1};
Line(2) = {1, 3};
Line(3) = {4, 3};
Line(4) = {2, 4};
Line(5) = {2, 5};
Line(6) = {5, 6};
Line(7) = {1, 6};
Line(8) = {3, 7};
Line(9) = {6, 7};
p10 = newp;
Point(p10 + 1) = {17.33286447332003, -0.4840884781919076, 1};
Point(p10 + 2) = {17.29208834420969, -0.3142436769834372, 1};
Point(p10 + 3) = {17.2252446562959, -0.1528687390629193, 1};
Point(p10 + 4) = {17.13397932301656, -0.003937250974670126, 1};
Point(p10 + 5) = {17.02053959976931, 0.1288835997693064, 1};
Point(p10 + 6) = {16.88771874902533, 0.2423233230165629, 1};
Point(p10 + 7) = {16.73878726093708, 0.3335886562958947, 1};
Point(p10 + 8) = {16.57741232301656, 0.4004323442096895, 1};
Point(p10 + 9) = {16.40756752180809, 0.4412084733200281, 1};
Point(p10 + 10) = {16.233435, 0.4549130000000001, 1};
Point(p10 + 11) = {16.05930247819191, 0.4412084733200281, 1};
Point(p10 + 12) = {15.88945767698344, 0.4004323442096898, 1};
Point(p10 + 13) = {15.72808273906292, 0.3335886562958948, 1};
Point(p10 + 14) = {15.57915125097467, 0.2423233230165629, 1};
Point(p10 + 15) = {15.44633040023069, 0.1288835997693065, 1};
Point(p10 + 16) = {15.33289067698344, -0.003937250974670015, 1};
Point(p10 + 17) = {15.24162534370411, -0.1528687390629192, 1};
Point(p10 + 18) = {15.17478165579031, -0.3142436769834371, 1};
Point(p10 + 19) = {15.13400552667997, -0.4840884781919075, 1};
Point(p10 + 20) = {15.120301, -0.6582209999999998, 1};
Point(p10 + 21) = {15.13400552667997, -0.8323535218080922, 1};
Point(p10 + 22) = {15.17478165579031, -1.002198323016563, 1};
Point(p10 + 23) = {15.2416253437041, -1.16357326093708, 1};
Point(p10 + 24) = {15.33289067698344, -1.31250474902533, 1};
Point(p10 + 25) = {15.44633040023069, -1.445325599769306, 1};
Point(p10 + 26) = {15.57915125097467, -1.558765323016563, 1};
Point(p10 + 27) = {15.72808273906292, -1.650030656295895, 1};
Point(p10 + 28) = {15.88945767698344, -1.716874344209689, 1};
Point(p10 + 29) = {16.05930247819191, -1.757650473320028, 1};
Point(p10 + 30) = {16.233435, -1.771355, 1};
Point(p10 + 31) = {16.40756752180809, -1.757650473320028, 1};
Point(p10 + 32) = {16.57741232301656, -1.71687434420969, 1};
Point(p10 + 33) = {16.73878726093708, -1.650030656295895, 1};
Point(p10 + 34) = {16.88771874902533, -1.558765323016563, 1};
Point(p10 + 35) = {17.02053959976931, -1.445325599769307, 1};
Point(p10 + 36) = {17.13397932301656, -1.31250474902533, 1};
Point(p10 + 37) = {17.2252446562959, -1.163573260937081, 1};
Point(p10 + 38) = {17.29208834420969, -1.002198323016563, 1};
Point(p10 + 39) = {17.33286447332003, -0.8323535218080925, 1};
Spline(10) = {8, p10 + 1, p10 + 2, p10 + 3, p10 + 4, p10 + 5, p10 + 6, p10 + 7, p10 + 8, p10 + 9, p10 + 10, p10 + 11, p10 + 12, p10 + 13, p10 + 14, p10 + 15, p10 + 16, p10 + 17, p10 + 18, p10 + 19, p10 + 20, p10 + 21, p10 + 22, p10 + 23, p10 + 24, p10 + 25, p10 + 26, p10 + 27, p10 + 28, p10 + 29, p10 + 30, p10 + 31, p10 + 32, p10 + 33, p10 + 34, p10 + 35, p10 + 36, p10 + 37, p10 + 38, p10 + 39, 8};
p11 = newp;
Point(p11 + 1) = {26.87206579046391, 0.6487822836579347, 1};
Point(p11 + 2) = {26.83484320473345, 0.8038255114432322, 1};
Point(p11 + 3) = {26.77382478640395, 0.9511370045288464, 1};
Point(p11 + 4) = {26.69051301144323, 1.087089465056194, 1};
Point(p11 + 5) = {26.58695929224674, 1.208335292246743, 1};
Point(p11 + 6) = {26.46571346505619, 1.311889011443232, 1};
Point(p11 + 7) = {26.32976100452884, 1.395200786403954, 1};
Point(p11 + 8) = {26.18244951144323, 1.456219204733445, 1};
Point(p11 + 9) = {26.02740628365793, 1.493441790463915, 1};
Point(p11 + 10) = {25.868449, 1.505952, 1};
Point(p11 + 11) = {25.70949171634206, 1.493441790463915, 1};
Point(p11 + 12) = {25.55444848855677, 1.456219204733446, 1};
Point(p11 + 13) = {25.40713699547115, 1.395200786403954, 1};
Point(p11 + 14) = {25.2711845349438, 1.311889011443232, 1};
Point(p11 + 15) = {25.14993870775325, 1.208335292246743, 1};
Point(p11 + 16) = {25.04638498855677, 1.087089465056194, 1};
Point(p11 + 17) = {24.96307321359604, 0.9511370045288465, 1};
Point(p11 + 18) = {24.90205479526655, 0.8038255114432322, 1};
Point(p11 + 19) = {24.86483220953608, 0.6487822836579348, 1};
Point(p11 + 20) = {24.852322, 0.4898250000000001, 1};
Point(p11 + 21) = {24.86483220953608, 0.3308677163420655, 1};
Point(p11 + 22) = {24.90205479526655, 0.1758244885567675, 1};
Point(p11 + 23) = {24.96307321359604, 0.0285129954711541, 1};
Point(p11 + 24) = {25.04638498855677, -0.1074394650561938, 1};
Point(p11 + 25) = {25.14993870775325, -0.2286852922467429, 1};
Point(p11 + 26) = {25.2711845349438, -0.3322390114432321, 1};
Point(p11 + 27) = {25.40713699547115, -0.4155507864039535, 1};
Point(p11 + 28) = {25.55444848855677, -0.4765692047334455, 1};
Point(p11 + 29) = {25.70949171634206, -0.5137917904639155, 1};
Point(p11 + 30) = {25.868449, -0.526302, 1};
Point(p11 + 31) = {26.02740628365793, -0.5137917904639155, 1};
Point(p11 + 32) = {26.18244951144323, -0.4765692047334456, 1};
Point(p11 + 33) = {26.32976100452884, -0.4155507864039537, 1};
Point(p11 + 34) = {26.46571346505619, -0.3322390114432324, 1};
Point(p11 + 35) = {26.58695929224674, -0.2286852922467431, 1};
Point(p11 + 36) = {26.69051301144323, -0.1074394650561941, 1};
Point(p11 + 37) = {26.77382478640395, 0.02851299547115338, 1};
Point(p11 + 38) = {26.83484320473345, 0.1758244885567676, 1};
Point(p11 + 39) = {26.87206579046391, 0.3308677163420651, 1};
Spline(11) = {9, p11 + 1, p11 + 2, p11 + 3, p11 + 4, p11 + 5, p11 + 6, p11 + 7, p11 + 8, p11 + 9, p11 + 10, p11 + 11, p11 + 12, p11 + 13, p11 + 14, p11 + 15, p11 + 16, p11 + 17, p11 + 18, p11 + 19, p11 + 20, p11 + 21, p11 + 22, p11 + 23, p11 + 24, p11 + 25, p11 + 26, p11 + 27, p11 + 28, p11 + 29, p11 + 30, p11 + 31, p11 + 32, p11 + 33, p11 + 34, p11 + 35, p11 + 36, p11 + 37, p11 + 38, p11 + 39, 9};
Line(12) = {4, 10};
Line(13) = {10, 7};
Line(14) = {5, 10};
p15 = newp;
Point(p15 + 1) = {17.33286447332003, -0.4840884781919076, 0};
Point(p15 + 2) = {17.29208834420969, -0.3142436769834372, 0};
Point(p15 + 3) = {17.2252446562959, -0.1528687390629193, 0};
Point(p15 + 4) = {17.13397932301656, -0.003937250974670126, 0};
Point(p15 + 5) = {17.02053959976931, 0.1288835997693064, 0};
Point(p15 + 6) = {16.88771874902533, 0.2423233230165629, 0};
Point(p15 + 7) = {16.73878726093708, 0.3335886562958947, 0};
Point(p15 + 8) = {16.57741232301656, 0.4004323442096895, 0};
Point(p15 + 9) = {16.40756752180809, 0.4412084733200281, 0};
Point(p15 + 10) = {16.233435, 0.4549130000000001, 0};
Point(p15 + 11) = {16.05930247819191, 0.4412084733200281, 0};
Point(p15 + 12) = {15.88945767698344, 0.4004323442096898, 0};
Point(p15 + 13) = {15.72808273906292, 0.3335886562958948, 0};
Point(p15 + 14) = {15.57915125097467, 0.2423233230165629, 0};
Point(p15 + 15) = {15.44633040023069, 0.1288835997693065, 0};
Point(p15 + 16) = {15.33289067698344, -0.003937250974670015, 0};
Point(p15 + 17) = {15.24162534370411, -0.1528687390629192, 0};
Point(p15 + 18) = {15.17478165579031, -0.3142436769834371, 0};
Point(p15 + 19) = {15.13400552667997, -0.4840884781919075, 0};
Point(p15 + 20) = {15.120301, -0.6582209999999998, 0};
Point(p15 + 21) = {15.13400552667997, -0.8323535218080922, 0};
Point(p15 + 22) = {15.17478165579031, -1.002198323016563, 0};
Point(p15 + 23) = {15.2416253437041, -1.16357326093708, 0};
Point(p15 + 24) = {15.33289067698344, -1.31250474902533, 0};
Point(p15 + 25) = {15.44633040023069, -1.445325599769306, 0};
Point(p15 + 26) = {15.57915125097467, -1.558765323016563, 0};
Point(p15 + 27) = {15.72808273906292, -1.650030656295895, 0};
Point(p15 + 28) = {15.88945767698344, -1.716874344209689, 0};
Point(p15 + 29) = {16.05930247819191, -1.757650473320028, 0};
Point(p15 + 30) = {16.233435, -1.771355, 0};
Point(p15 + 31) = {16.40756752180809, -1.757650473320028, 0};
Point(p15 + 32) = {16.57741232301656, -1.71687434420969, 0};
Point(p15 + 33) = {16.73878726093708, -1.650030656295895, 0};
Point(p15 + 34) = {16.88771874902533, -1.558765323016563, 0};
Point(p15 + 35) = {17.02053959976931, -1.445325599769307, 0};
Point(p15 + 36) = {17.13397932301656, -1.31250474902533, 0};
Point(p15 + 37) = {17.2252446562959, -1.163573260937081, 0};
Point(p15 + 38) = {17.29208834420969, -1.002198323016563, 0};
Point(p15 + 39) = {17.33286447332003, -0.8323535218080925, 0};
Spline(15) = {11, p15 + 1, p15 + 2, p15 + 3, p15 + 4, p15 + 5, p15 + 6, p15 + 7, p15 + 8, p15 + 9, p15 + 10, p15 + 11, p15 + 12, p15 + 13, p15 + 14, p15 + 15, p15 + 16, p15 + 17, p15 + 18, p15 + 19, p15 + 20, p15 + 21, p15 + 22, p15 + 23, p15 + 24, p15 + 25, p15 + 26, p15 + 27, p15 + 28, p15 + 29, p15 + 30, p15 + 31, p15 + 32, p15 + 33, p15 + 34, p15 + 35, p15 + 36, p15 + 37, p15 + 38, p15 + 39, 11};
p16 = newp;
Point(p16 + 1) = {26.87206579046391, 0.6487822836579347, 0};
Point(p16 + 2) = {26.83484320473345, 0.8038255114432322, 0};
Point(p16 + 3) = {26.77382478640395, 0.9511370045288464, 0};
Point(p16 + 4) = {26.69051301144323, 1.087089465056194, 0};
Point(p16 + 5) = {26.58695929224674, 1.208335292246743, 0};
Point(p16 + 6) = {26.46571346505619, 1.311889011443232, 0};
Point(p16 + 7) = {26.32976100452884, 1.395200786403954, 0};
Point(p16 + 8) = {26.18244951144323, 1.456219204733445, 0};
Point(p16 + 9) = {26.02740628365793, 1.493441790463915, 0};
Point(p16 + 10) = {25.868449, 1.505952, 0};
Point(p16 + 11) = {25.70949171634206, 1.493441790463915, 0};
Point(p16 + 12) = {25.55444848855677, 1.456219204733446, 0};
Point(p16 + 13) = {25.40713699547115, 1.395200786403954, 0};
Point(p16 + 14) = {25.2711845349438, 1.311889011443232, 0};
Point(p16 + 15) = {25.14993870775325, 1.208335292246743, 0};
Point(p16 + 16) = {25.04638498855677, 1.087089465056194, 0};
Point(p16 + 17) = {24.96307321359604, 0.9511370045288465, 0};
Point(p16 + 18) = {24.90205479526655, 0.8038255114432322, 0};
Point(p16 + 19) = {24.86483220953608, 0.6487822836579348, 0};
Point(p16 + 20) = {24.852322, 0.4898250000000001, 0};
Point(p16 + 21) = {24.86483220953608, 0.3308677163420655, 0};
Point(p16 + 22) = {24.90205479526655, 0.1758244885567675, 0};
Point(p16 + 23) = {24.96307321359604, 0.0285129954711541, 0};
Point(p16 + 24) = {25.04638498855677, -0.1074394650561938, 0};
Point(p16 + 25) = {25.14993870775325, -0.2286852922467429, 0};
Point(p16 + 26) = {25.2711845349438, -0.3322390114432321, 0};
Point(p16 + 27) = {25.40713699547115, -0.4155507864039535, 0};
Point(p16 + 28) = {25.55444848855677, -0.4765692047334455, 0};
Point(p16 + 29) = {25.70949171634206, -0.5137917904639155, 0};
Point(p16 + 30) = {25.868449, -0.526302, 0};
Point(p16 + 31) = {26.02740628365793, -0.5137917904639155, 0};
Point(p16 + 32) = {26.18244951144323, -0.4765692047334456, 0};
Point(p16 + 33) = {26.32976100452884, -0.4155507864039537, 0};
Point(p16 + 34) = {26.46571346505619, -0.3322390114432324, 0};
Point(p16 + 35) = {26.58695929224674, -0.2286852922467431, 0};
Point(p16 + 36) = {26.69051301144323, -0.1074394650561941, 0};
Point(p16 + 37) = {26.77382478640395, 0.02851299547115338, 0};
Point(p16 + 38) = {26.83484320473345, 0.1758244885567676, 0};
Point(p16 + 39) = {26.87206579046391, 0.3308677163420651, 0};
Spline(16) = {12, p16 + 1, p16 + 2, p16 + 3, p16 + 4, p16 + 5, p16 + 6, p16 + 7, p16 + 8, p16 + 9, p16 + 10, p16 + 11, p16 + 12, p16 + 13, p16 + 14, p16 + 15, p16 + 16, p16 + 17, p16 + 18, p16 + 19, p16 + 20, p16 + 21, p16 + 22, p16 + 23, p16 + 24, p16 + 25, p16 + 26, p16 + 27, p16 + 28, p16 + 29, p16 + 30, p16 + 31, p16 + 32, p16 + 33, p16 + 34, p16 + 35, p16 + 36, p16 + 37, p16 + 38, p16 + 39, 12};
Line(17) = {11, 8};
Line(18) = {12, 9};
Curve Loop(1) = {-1, 4, 3, -2};
Plane Surface(1) = {1};
Curve Loop(2) = {-5, 1, 7, -6};
Plane Surface(2) = {2};
Curve Loop(3) = {-2, 7, 9, -8, -10, -11};
Plane Surface(3) = {3};
Curve Loop(4) = {-12, 3, 8, -13};
Plane Surface(4) = {4};
Curve Loop(5) = {-4, 5, 14, -12, -15, -16};
Plane Surface(5) = {5};
Curve Loop(6) = {-6, 14, 13, -9};
Plane Surface(6) = {6};
Curve Loop(7) = {-10, -17, 15, 17};
Surface(7) = {7};
Curve Loop(8) = {-11, -18, 16, 18};
Surface(8) = {8};
Surface Loop(1) = {1, 2, 3, 4, 5, 6, 7, 8};
Volume(1) = {1};
Physical Surface("INFLOW") = {1};
Physical Surface("OUTFLOW") = {6};
Physical Surface("OBSTACLE") = {7, 8};
Physical Surface("WALL_Y") = {2, 4};
Physical Surface("WALL_Z") = {3, 5};
Physical Volume("FLUID") = {1};
