cl__1 = 1;
cl__2 = 0.136425;
cl__3 = 0.125988;
Point(1) = {0.146444, -4.502997, 1, cl__1};
Point(2) = {0.146444, -4.502997, 0, cl__1};
Point(3) = {0.146444, 4.897540999999999, 1, cl__1};
Point(4) = {0.146444, 4.897540999999999, 0, cl__1};
Point(5) = {36.02399, -4.502997, 0, cl__1};
Point(6) = {36.02399, -4.502997, 1, cl__1};
Point(7) = {36.02399, 4.897540999999999, 1, cl__1};
Point(8) = {24.250227, 1.170572, 1, cl__2};
Point(9) = {19.059944, 2.391928, 1, cl__3};
Point(10) = {36.02399, 4.897540999999999, 0, cl__1};
Point(11) = {24.250227, 1.170572, 0, cl__2};
Point(12) = {19.059944, 2.391928, 0, cl__3};
Line(1) = {2, 1};
Line(2) = {1, 3};
Line(3) = {4, 3};
Line(4) = {2, 4};
Line(5) = {2, 5};
Line(6) = {5, 6};
Line(7) = {1, 6};
Line(8) = {3, 7};
Line(9) = {6, 7};
p10 = newp;
Point(p10 + 1) = {24.23343085559189, 1.38398724962774, 1};
Point(p10 + 2) = {24.18345599918612, 1.592147507525039, 1};
Point(p10 + 3) = {24.10153297760441, 1.789927177298178, 1};
Point(p10 + 4) = {23.98967900752504, 1.97245626708425, 1};
Point(p10 + 5) = {23.8506483049134, 2.135240304913404, 1};
Point(p10 + 6) = {23.68786426708425, 2.274271007525039, 1};
Point(p10 + 7) = {23.50533517729818, 2.386124977604408, 1};
Point(p10 + 8) = {23.30755550752504, 2.468047999186114, 1};
Point(p10 + 9) = {23.09939524962774, 2.518022855591895, 1};
Point(p10 + 10) = {22.88598, 2.534819, 1};
Point(p10 + 11) = {22.67256475037226, 2.518022855591894, 1};
Point(p10 + 12) = {22.46440449247496, 2.468047999186115, 1};
Point(p10 + 13) = {22.26662482270182, 2.386124977604408, 1};
Point(p10 + 14) = {22.08409573291575, 2.274271007525039, 1};
Point(p10 + 15) = {21.9213116950866, 2.135240304913404, 1};
Point(p10 + 16) = {21.78228099247496, 1.97245626708425, 1};
Point(p10 + 17) = {21.67042702239559, 1.789927177298178, 1};
Point(p10 + 18) = {21.58850400081388, 1.592147507525039, 1};
Point(p10 + 19) = {21.53852914440811, 1.38398724962774, 1};
Point(p10 + 20) = {21.521733, 1.170572, 1};
Point(p10 + 21) = {21.53852914440811, 0.9571567503722603, 1};
Point(p10 + 22) = {21.58850400081388, 0.7489964924749606, 1};
Point(p10 + 23) = {21.67042702239559, 0.5512168227018232, 1};
Point(p10 + 24) = {21.78228099247496, 0.3686877329157505, 1};
Point(p10 + 25) = {21.9213116950866, 0.2059036950865961, 1};
Point(p10 + 26) = {22.08409573291575, 0.06687299247496115, 1};
Point(p10 + 27) = {22.26662482270182, -0.04498097760440833, 1};
Point(p10 + 28) = {22.46440449247496, -0.1269039991861143, 1};
Point(p10 + 29) = {22.67256475037226, -0.1768788555918948, 1};
Point(p10 + 30) = {22.88598, -0.193675, 1};
Point(p10 + 31) = {23.09939524962774, -0.176878855591895, 1};
Point(p10 + 32) = {23.30755550752504, -0.1269039991861145, 1};
Point(p10 + 33) = {23.50533517729818, -0.04498097760440833, 1};
Point(p10 + 34) = {23.68786426708425, 0.06687299247496092, 1};
Point(p10 + 35) = {23.8506483049134, 0.2059036950865958, 1};
Point(p10 + 36) = {23.98967900752504, 0.3686877329157501, 1};
Point(p10 + 37) = {24.10153297760441, 0.5512168227018223, 1};
Point(p10 + 38) = {24.18345599918612, 0.7489964924749608, 1};
Point(p10 + 39) = {24.23343085559189, 0.9571567503722598, 1};
Spline(10) = {8, p10 + 1, p10 + 2, p10 + 3, p10 + 4, p10 + 5, p10 + 6, p10 + 7, p10 + 8, p10 + 9, p10 + 10, p10 + 11, p10 + 12, p10 + 13, p10 + 14, p10 + 15, p10 + 16, p10 + 17, p10 + 18, p10 + 19, p10 + 20, p10 + 21, p10 + 22, p10 + 23, p10 + 24, p10 + 25, p10 + 26, p10 + 27, p10 + 28, p10 + 29, p10 + 30, p10 + 31, p10 + 32, p10 + 33, p10 + 34, p10 + 35, p10 + 36, p10 + 37, p10 + 38, p10 + 39, 8};
p11 = newp;
Point(p11 + 1) = {19.04443282348398, 2.589016184511491, 1};
Point(p11 + 2) = {18.99828123058039, 2.781251403822126, 1};
Point(p11 + 3) = {18.92262562667487, 2.963900188840361, 1};
Point(p11 + 4) = {18.81932890382213, 3.132465120302484, 1};
Point(p11 + 5) = {18.69093457016096, 3.282795570160964, 1};
Point(p11 + 6) = {18.54060412030248, 3.411189903822126, 1};
Point(p11 + 7) = {18.37203918884036, 3.514486626674868, 1};
Point(p11 + 8) = {18.18939040382212, 3.590142230580389, 1};
Point(p11 + 9) = {17.99715518451149, 3.63629382348398, 1};
Point(p11 + 10) = {17.800067, 3.651805, 1};
Point(p11 + 11) = {17.60297881548851, 3.63629382348398, 1};
Point(p11 + 12) = {17.41074359617787, 3.590142230580389, 1};
Point(p11 + 13) = {17.22809481115964, 3.514486626674868, 1};
Point(p11 + 14) = {17.05952987969751, 3.411189903822126, 1};
Point(p11 + 15) = {16.90919942983903, 3.282795570160964, 1};
Point(p11 + 16) = {16.78080509617787, 3.132465120302484, 1};
Point(p11 + 17) = {16.67750837332513, 2.963900188840361, 1};
Point(p11 + 18) = {16.60185276941961, 2.781251403822126, 1};
Point(p11 + 19) = {16.55570117651602, 2.589016184511491, 1};
Point(p11 + 20) = {16.54019, 2.391928, 1};
Point(p11 + 21) = {16.55570117651602, 2.194839815488509, 1};
Point(p11 + 22) = {16.60185276941961, 2.002604596177874, 1};
Point(p11 + 23) = {16.67750837332513, 1.81995581115964, 1};
Point(p11 + 24) = {16.78080509617787, 1.651390879697516, 1};
Point(p11 + 25) = {16.90919942983903, 1.501060429839036, 1};
Point(p11 + 26) = {17.05952987969751, 1.372666096177874, 1};
Point(p11 + 27) = {17.22809481115964, 1.269369373325132, 1};
Point(p11 + 28) = {17.41074359617787, 1.193713769419611, 1};
Point(p11 + 29) = {17.60297881548851, 1.14756217651602, 1};
Point(p11 + 30) = {17.800067, 1.132051, 1};
Point(p11 + 31) = {17.99715518451149, 1.14756217651602, 1};
Point(p11 + 32) = {18.18939040382212, 1.193713769419611, 1};
Point(p11 + 33) = {18.37203918884036, 1.269369373325132, 1};
Point(p11 + 34) = {18.54060412030248, 1.372666096177874, 1};
Point(p11 + 35) = {18.69093457016096, 1.501060429839036, 1};
Point(p11 + 36) = {18.81932890382213, 1.651390879697516, 1};
Point(p11 + 37) = {18.92262562667486, 1.819955811159639, 1};
Point(p11 + 38) = {18.99828123058039, 2.002604596177874, 1};
Point(p11 + 39) = {19.04443282348398, 2.194839815488509, 1};
Spline(11) = {9, p11 + 1, p11 + 2, p11 + 3, p11 + 4, p11 + 5, p11 + 6, p11 + 7, p11 + 8, p11 + 9, p11 + 10, p11 + 11, p11 + 12, p11 + 13, p11 + 14, p11 + 15, p11 + 16, p11 + 17, p11 + 18, p11 + 19, p11 + 20, p11 + 21, p11 + 22, p11 + 23, p11 + 24, p11 + 25, p11 + 26, p11 + 27, p11 + 28, p11 + 29, p11 + 30, p11 + 31, p11 + 32, p11 + 33, p11 + 34, p11 + 35, p11 + 36, p11 + 37, p11 + 38, p11 + 39, 9};
Line(12) = {4, 10};
Line(13) = {10, 7};
Line(14) = {5, 10};
p15 = newp;
Point(p15 + 1) = {24.23343085559189, 1.38398724962774, 0};
Point(p15 + 2) = {24.18345599918612, 1.592147507525039, 0};
Point(p15 + 3) = {24.10153297760441, 1.789927177298178, 0};
Point(p15 + 4) = {23.98967900752504, 1.97245626708425, 0};
Point(p15 + 5) = {23.8506483049134, 2.135240304913404, 0};
Point(p15 + 6) = {23.68786426708425, 2.274271007525039, 0};
Point(p15 + 7) = {23.50533517729818, 2.386124977604408, 0};
Point(p15 + 8) = {23.30755550752504, 2.468047999186114, 0};
Point(p15 + 9) = {23.09939524962774, 2.518022855591895, 0};
Point(p15 + 10) = {22.88598, 2.534819, 0};
Point(p15 + 11) = {22.67256475037226, 2.518022855591894, 0};
Point(p15 + 12) = {22.46440449247496, 2.468047999186115, 0};
Point(p15 + 13) = {22.26662482270182, 2.386124977604408, 0};
Point(p15 + 14) = {22.08409573291575, 2.274271007525039, 0};
Point(p15 + 15) = {21.9213116950866, 2.135240304913404, 0};
Point(p15 + 16) = {21.78228099247496, 1.97245626708425, 0};
Point(p15 + 17) = {21.67042702239559, 1.789927177298178, 0};
Point(p15 + 18) = {21.58850400081388, 1.592147507525039, 0};
Point(p15 + 19) = {21.53852914440811, 1.38398724962774, 0};
Point(p15 + 20) = {21.521733, 1.170572, 0};
Point(p15 + 21) = {21.53852914440811, 0.9571567503722603, 0};
Point(p15 + 22) = {21.58850400081388, 0.7489964924749606, 0};
Point(p15 + 23) = {21.67042702239559, 0.5512168227018232, 0};
Point(p15 + 24) = {21.78228099247496, 0.3686877329157505, 0};
Point(p15 + 25) = {21.9213116950866, 0.2059036950865961, 0};
Point(p15 + 26) = {22.08409573291575, 0.06687299247496115, 0};
Point(p15 + 27) = {22.26662482270182, -0.04498097760440833, 0};
Point(p15 + 28) = {22.46440449247496, -0.1269039991861143, 0};
Point(p15 + 29) = {22.67256475037226, -0.1768788555918948, 0};
Point(p15 + 30) = {22.88598, -0.193675, 0};
Point(p15 + 31) = {23.09939524962774, -0.176878855591895, 0};
Point(p15 + 32) = {23.30755550752504, -0.1269039991861145, 0};
Point(p15 + 33) = {23.50533517729818, -0.04498097760440833, 0};
Point(p15 + 34) = {23.68786426708425, 0.06687299247496092, 0};
Point(p15 + 35) = {23.8506483049134, 0.2059036950865958, 0};
Point(p15 + 36) = {23.98967900752504, 0.3686877329157501, 0};
Point(p15 + 37) = {24.10153297760441, 0.5512168227018223, 0};
Point(p15 + 38) = {24.18345599918612, 0.7489964924749608, 0};
Point(p15 + 39) = {24.23343085559189, 0.9571567503722598, 0};
Spline(15) = {11, p15 + 1, p15 + 2, p15 + 3, p15 + 4, p15 + 5, p15 + 6, p15 + 7, p15 + 8, p15 + 9, p15 + 10, p15 + 11, p15 + 12, p15 + 13, p15 + 14, p15 + 15, p15 + 16, p15 + 17, p15 + 18, p15 + 19, p15 + 20, p15 + 21, p15 + 22, p15 + 23, p15 + 24, p15 + 25, p15 + 26, p15 + 27, p15 + 28, p15 + 29, p15 + 30, p15 + 31, p15 + 32, p15 + 33, p15 + 34, p15 + 35, p15 + 36, p15 + 37, p15 + 38, p15 + 39, 11};
p16 = newp;
Point(p16 + 1) = {19.04443282348398, 2.589016184511491, 0};
Point(p16 + 2) = {18.99828123058039, 2.781251403822126, 0};
Point(p16 + 3) = {18.92262562667487, 2.963900188840361, 0};
Point(p16 + 4) = {18.81932890382213, 3.132465120302484, 0};
Point(p16 + 5) = {18.69093457016096, 3.282795570160964, 0};
Point(p16 + 6) = {18.54060412030248, 3.411189903822126, 0};
Point(p16 + 7) = {18.37203918884036, 3.514486626674868, 0};
Point(p16 + 8) = {18.18939040382212, 3.590142230580389, 0};
Point(p16 + 9) = {17.99715518451149, 3.63629382348398, 0};
Point(p16 + 10) = {17.800067, 3.651805, 0};
Point(p16 + 11) = {17.60297881548851, 3.63629382348398, 0};
Point(p16 + 12) = {17.41074359617787, 3.590142230580389, 0};
Point(p16 + 13) = {17.22809481115964, 3.514486626674868, 0};
Point(p16 + 14) = {17.05952987969751, 3.411189903822126, 0};
Point(p16 + 15) = {16.90919942983903, 3.282795570160964, 0};
Point(p16 + 16) = {16.78080509617787, 3.132465120302484, 0};
Point(p16 + 17) = {16.67750837332513, 2.963900188840361, 0};
Point(p16 + 18) = {16.60185276941961, 2.781251403822126, 0};
Point(p16 + 19) = {16.55570117651602, 2.589016184511491, 0};
Point(p16 + 20) = {16.54019, 2.391928, 0};
Point(p16 + 21) = {16.55570117651602, 2.194839815488509, 0};
Point(p16 + 22) = {16.60185276941961, 2.002604596177874, 0};
Point(p16 + 23) = {16.67750837332513, 1.81995581115964, 0};
Point(p16 + 24) = {16.78080509617787, 1.651390879697516, 0};
Point(p16 + 25) = {16.90919942983903, 1.501060429839036, 0};
Point(p16 + 26) = {17.05952987969751, 1.372666096177874, 0};
Point(p16 + 27) = {17.22809481115964, 1.269369373325132, 0};
Point(p16 + 28) = {17.41074359617787, 1.193713769419611, 0};
Point(p16 + 29) = {17.60297881548851, 1.14756217651602, 0};
Point(p16 + 30) = {17.800067, 1.132051, 0};
Point(p16 + 31) = {17.99715518451149, 1.14756217651602, 0};
Point(p16 + 32) = {18.18939040382212, 1.193713769419611, 0};
Point(p16 + 33) = {18.37203918884036, 1.269369373325132, 0};
Point(p16 + 34) = {18.54060412030248, 1.372666096177874, 0};
Point(p16 + 35) = {18.69093457016096, 1.501060429839036, 0};
Point(p16 + 36) = {18.81932890382213, 1.651390879697516, 0};
Point(p16 + 37) = {18.92262562667486, 1.819955811159639, 0};
Point(p16 + 38) = {18.99828123058039, 2.002604596177874, 0};
Point(p16 + 39) = {19.04443282348398, 2.194839815488509, 0};
Spline(16) = {12, p16 + 1, p16 + 2, p16 + 3, p16 + 4, p16 + 5, p16 + 6, p16 + 7, p16 + 8, p16 + 9, p16 + 10, p16 + 11, p16 + 12, p16 + 13, p16 + 14, p16 + 15, p16 + 16, p16 + 17, p16 + 18, p16 + 19, p16 + 20, p16 + 21, p16 + 22, p16 + 23, p16 + 24, p16 + 25, p16 + 26, p16 + 27, p16 + 28, p16 + 29, p16 + 30, p16 + 31, p16 + 32, p16 + 33, p16 + 34, p16 + 35, p16 + 36, p16 + 37, p16 + 38, p16 + 39, 12};
Line(17) = {11, 8};
Line(18) = {12, 9};
Curve Loop(1) = {-1, 4, 3, -2};
Plane Surface(1) = {1};
Curve Loop(2) = {-5, 1, 7, -6};
Plane Surface(2) = {2};
Curve Loop(3) = {-2, 7, 9, -8, -10, -11};
Plane Surface(3) = {3};
Curve Loop(4) = {-12, 3, 8, -13};
Plane Surface(4) = {4};
Curve Loop(5) = {-4, 5, 14, -12, -15, -16};
Plane Surface(5) = {5};
Curve Loop(6) = {-6, 14, 13, -9};
Plane Surface(6) = {6};
Curve Loop(7) = {-10, -17, 15, 17};
Surface(7) = {7};
Curve Loop(8) = {-11, -18, 16, 18};
Surface(8) = {8};
Surface Loop(1) = {1, 2, 3, 4, 5, 6, 7, 8};
Volume(1) = {1};
Physical Surface("INFLOW") = {1};
Physical Surface("OUTFLOW") = {6};
Physical Surface("OBSTACLE") = {7, 8};
Physical Surface("WALL_Y") = {2, 4};
Physical Surface("WALL_Z") = {3, 5};
Physical Volume("FLUID") = {1};
