cl__1 = 1;
cl__2 = 0.102308;
cl__3 = 0.09539300000000001;
Point(1) = {0.065361, -3.946284, 1, cl__1};
Point(2) = {0.065361, -3.946284, 0, cl__1};
Point(3) = {0.065361, 4.202776999999999, 1, cl__1};
Point(4) = {0.065361, 4.202776999999999, 0, cl__1};
Point(5) = {30.650494, -3.946284, 0, cl__1};
Point(6) = {30.650494, -3.946284, 1, cl__1};
Point(7) = {30.650494, 4.202776999999999, 1, cl__1};
Point(8) = {18.490897, -2.216828, 1, cl__2};
Point(9) = {8.706082, 0.4898889999999998, 1, cl__3};
Point(10) = {30.650494, 4.202776999999999, 0, cl__1};
Point(11) = {18.490897, -2.216828, 0, cl__2};
Point(12) = {8.706082, 0.4898889999999998, 0, cl__3};
Line(1) = {2, 1};
Line(2) = {1, 3};
Line(3) = {4, 3};
Line(4) = {2, 4};
Line(5) = {2, 5};
Line(6) = {5, 6};
Line(7) = {1, 6};
Line(8) = {3, 7};
Line(9) = {6, 7};
p10 = newp;
Point(p10 + 1) = {18.47830118749607, -2.056783027506641, 1};
Point(p10 + 2) = {18.44082390069125, -1.900678893394879, 1};
Point(p10 + 3) = {18.37938795476664, -1.752359399526465, 1};
Point(p10 + 4) = {18.29550610660512, -1.615476664084617, 1};
Point(p10 + 5) = {18.19124380569633, -1.493401194303667, 1};
Point(p10 + 6) = {18.06916833591538, -1.389138893394879, 1};
Point(p10 + 7) = {17.93228560047353, -1.305257045233365, 1};
Point(p10 + 8) = {17.78396610660512, -1.243821099308754, 1};
Point(p10 + 9) = {17.62786197249336, -1.206343812503927, 1};
Point(p10 + 10) = {17.467817, -1.193748, 1};
Point(p10 + 11) = {17.30777202750664, -1.206343812503927, 1};
Point(p10 + 12) = {17.15166789339488, -1.243821099308754, 1};
Point(p10 + 13) = {17.00334839952647, -1.305257045233365, 1};
Point(p10 + 14) = {16.86646566408462, -1.389138893394879, 1};
Point(p10 + 15) = {16.74439019430367, -1.493401194303667, 1};
Point(p10 + 16) = {16.64012789339488, -1.615476664084617, 1};
Point(p10 + 17) = {16.55624604523337, -1.752359399526464, 1};
Point(p10 + 18) = {16.49481009930875, -1.900678893394879, 1};
Point(p10 + 19) = {16.45733281250393, -2.05678302750664, 1};
Point(p10 + 20) = {16.444737, -2.216828, 1};
Point(p10 + 21) = {16.45733281250393, -2.376872972493359, 1};
Point(p10 + 22) = {16.49481009930875, -2.532977106605121, 1};
Point(p10 + 23) = {16.55624604523337, -2.681296600473535, 1};
Point(p10 + 24) = {16.64012789339488, -2.818179335915383, 1};
Point(p10 + 25) = {16.74439019430367, -2.940254805696333, 1};
Point(p10 + 26) = {16.86646566408462, -3.044517106605121, 1};
Point(p10 + 27) = {17.00334839952647, -3.128398954766635, 1};
Point(p10 + 28) = {17.15166789339488, -3.189834900691245, 1};
Point(p10 + 29) = {17.30777202750664, -3.227312187496073, 1};
Point(p10 + 30) = {17.467817, -3.239908, 1};
Point(p10 + 31) = {17.62786197249336, -3.227312187496073, 1};
Point(p10 + 32) = {17.78396610660512, -3.189834900691246, 1};
Point(p10 + 33) = {17.93228560047353, -3.128398954766635, 1};
Point(p10 + 34) = {18.06916833591538, -3.044517106605121, 1};
Point(p10 + 35) = {18.19124380569633, -2.940254805696333, 1};
Point(p10 + 36) = {18.29550610660512, -2.818179335915384, 1};
Point(p10 + 37) = {18.37938795476664, -2.681296600473536, 1};
Point(p10 + 38) = {18.44082390069125, -2.532977106605121, 1};
Point(p10 + 39) = {18.47830118749607, -2.37687297249336, 1};
Spline(10) = {8, p10 + 1, p10 + 2, p10 + 3, p10 + 4, p10 + 5, p10 + 6, p10 + 7, p10 + 8, p10 + 9, p10 + 10, p10 + 11, p10 + 12, p10 + 13, p10 + 14, p10 + 15, p10 + 16, p10 + 17, p10 + 18, p10 + 19, p10 + 20, p10 + 21, p10 + 22, p10 + 23, p10 + 24, p10 + 25, p10 + 26, p10 + 27, p10 + 28, p10 + 29, p10 + 30, p10 + 31, p10 + 32, p10 + 33, p10 + 34, p10 + 35, p10 + 36, p10 + 37, p10 + 38, p10 + 39, 8};
p11 = newp;
Point(p11 + 1) = {8.694337587990558, 0.6391159034979673, 1};
Point(p11 + 2) = {8.659393538363371, 0.7846683453761161, 1};
Point(p11 + 3) = {8.602110289592913, 0.9229623414545469, 1};
Point(p11 + 4) = {8.523898345376116, 1.05059263457835, 1};
Point(p11 + 5) = {8.426683543350158, 1.164416543350159, 1};
Point(p11 + 6) = {8.31285963457835, 1.261631345376116, 1};
Point(p11 + 7) = {8.185229341454548, 1.339843289592913, 1};
Point(p11 + 8) = {8.046935345376117, 1.397126538363371, 1};
Point(p11 + 9) = {7.901382903497968, 1.432070587990558, 1};
Point(p11 + 10) = {7.752156, 1.443815, 1};
Point(p11 + 11) = {7.602929096502033, 1.432070587990557, 1};
Point(p11 + 12) = {7.457376654623884, 1.397126538363371, 1};
Point(p11 + 13) = {7.319082658545454, 1.339843289592913, 1};
Point(p11 + 14) = {7.19145236542165, 1.261631345376116, 1};
Point(p11 + 15) = {7.077628456649842, 1.164416543350159, 1};
Point(p11 + 16) = {6.980413654623884, 1.05059263457835, 1};
Point(p11 + 17) = {6.902201710407088, 0.922962341454547, 1};
Point(p11 + 18) = {6.844918461636629, 0.7846683453761162, 1};
Point(p11 + 19) = {6.809974412009443, 0.6391159034979674, 1};
Point(p11 + 20) = {6.79823, 0.4898890000000001, 1};
Point(p11 + 21) = {6.809974412009443, 0.3406620965020329, 1};
Point(p11 + 22) = {6.844918461636629, 0.1951096546238836, 1};
Point(p11 + 23) = {6.902201710407087, 0.05681565854545362, 1};
Point(p11 + 24) = {6.980413654623884, -0.07081463457834969, 1};
Point(p11 + 25) = {7.077628456649841, -0.1846385433501585, 1};
Point(p11 + 26) = {7.19145236542165, -0.2818533453761161, 1};
Point(p11 + 27) = {7.319082658545454, -0.360065289592913, 1};
Point(p11 + 28) = {7.457376654623884, -0.4173485383633706, 1};
Point(p11 + 29) = {7.602929096502033, -0.4522925879905573, 1};
Point(p11 + 30) = {7.752156, -0.464037, 1};
Point(p11 + 31) = {7.901382903497967, -0.4522925879905574, 1};
Point(p11 + 32) = {8.046935345376117, -0.4173485383633707, 1};
Point(p11 + 33) = {8.185229341454548, -0.3600652895929131, 1};
Point(p11 + 34) = {8.31285963457835, -0.2818533453761163, 1};
Point(p11 + 35) = {8.426683543350158, -0.1846385433501587, 1};
Point(p11 + 36) = {8.523898345376116, -0.07081463457834991, 1};
Point(p11 + 37) = {8.602110289592913, 0.0568156585454529, 1};
Point(p11 + 38) = {8.659393538363371, 0.1951096546238837, 1};
Point(p11 + 39) = {8.694337587990557, 0.3406620965020325, 1};
Spline(11) = {9, p11 + 1, p11 + 2, p11 + 3, p11 + 4, p11 + 5, p11 + 6, p11 + 7, p11 + 8, p11 + 9, p11 + 10, p11 + 11, p11 + 12, p11 + 13, p11 + 14, p11 + 15, p11 + 16, p11 + 17, p11 + 18, p11 + 19, p11 + 20, p11 + 21, p11 + 22, p11 + 23, p11 + 24, p11 + 25, p11 + 26, p11 + 27, p11 + 28, p11 + 29, p11 + 30, p11 + 31, p11 + 32, p11 + 33, p11 + 34, p11 + 35, p11 + 36, p11 + 37, p11 + 38, p11 + 39, 9};
Line(12) = {4, 10};
Line(13) = {10, 7};
Line(14) = {5, 10};
p15 = newp;
Point(p15 + 1) = {18.47830118749607, -2.056783027506641, 0};
Point(p15 + 2) = {18.44082390069125, -1.900678893394879, 0};
Point(p15 + 3) = {18.37938795476664, -1.752359399526465, 0};
Point(p15 + 4) = {18.29550610660512, -1.615476664084617, 0};
Point(p15 + 5) = {18.19124380569633, -1.493401194303667, 0};
Point(p15 + 6) = {18.06916833591538, -1.389138893394879, 0};
Point(p15 + 7) = {17.93228560047353, -1.305257045233365, 0};
Point(p15 + 8) = {17.78396610660512, -1.243821099308754, 0};
Point(p15 + 9) = {17.62786197249336, -1.206343812503927, 0};
Point(p15 + 10) = {17.467817, -1.193748, 0};
Point(p15 + 11) = {17.30777202750664, -1.206343812503927, 0};
Point(p15 + 12) = {17.15166789339488, -1.243821099308754, 0};
Point(p15 + 13) = {17.00334839952647, -1.305257045233365, 0};
Point(p15 + 14) = {16.86646566408462, -1.389138893394879, 0};
Point(p15 + 15) = {16.74439019430367, -1.493401194303667, 0};
Point(p15 + 16) = {16.64012789339488, -1.615476664084617, 0};
Point(p15 + 17) = {16.55624604523337, -1.752359399526464, 0};
Point(p15 + 18) = {16.49481009930875, -1.900678893394879, 0};
Point(p15 + 19) = {16.45733281250393, -2.05678302750664, 0};
Point(p15 + 20) = {16.444737, -2.216828, 0};
Point(p15 + 21) = {16.45733281250393, -2.376872972493359, 0};
Point(p15 + 22) = {16.49481009930875, -2.532977106605121, 0};
Point(p15 + 23) = {16.55624604523337, -2.681296600473535, 0};
Point(p15 + 24) = {16.64012789339488, -2.818179335915383, 0};
Point(p15 + 25) = {16.74439019430367, -2.940254805696333, 0};
Point(p15 + 26) = {16.86646566408462, -3.044517106605121, 0};
Point(p15 + 27) = {17.00334839952647, -3.128398954766635, 0};
Point(p15 + 28) = {17.15166789339488, -3.189834900691245, 0};
Point(p15 + 29) = {17.30777202750664, -3.227312187496073, 0};
Point(p15 + 30) = {17.467817, -3.239908, 0};
Point(p15 + 31) = {17.62786197249336, -3.227312187496073, 0};
Point(p15 + 32) = {17.78396610660512, -3.189834900691246, 0};
Point(p15 + 33) = {17.93228560047353, -3.128398954766635, 0};
Point(p15 + 34) = {18.06916833591538, -3.044517106605121, 0};
Point(p15 + 35) = {18.19124380569633, -2.940254805696333, 0};
Point(p15 + 36) = {18.29550610660512, -2.818179335915384, 0};
Point(p15 + 37) = {18.37938795476664, -2.681296600473536, 0};
Point(p15 + 38) = {18.44082390069125, -2.532977106605121, 0};
Point(p15 + 39) = {18.47830118749607, -2.37687297249336, 0};
Spline(15) = {11, p15 + 1, p15 + 2, p15 + 3, p15 + 4, p15 + 5, p15 + 6, p15 + 7, p15 + 8, p15 + 9, p15 + 10, p15 + 11, p15 + 12, p15 + 13, p15 + 14, p15 + 15, p15 + 16, p15 + 17, p15 + 18, p15 + 19, p15 + 20, p15 + 21, p15 + 22, p15 + 23, p15 + 24, p15 + 25, p15 + 26, p15 + 27, p15 + 28, p15 + 29, p15 + 30, p15 + 31, p15 + 32, p15 + 33, p15 + 34, p15 + 35, p15 + 36, p15 + 37, p15 + 38, p15 + 39, 11};
p16 = newp;
Point(p16 + 1) = {8.694337587990558, 0.6391159034979673, 0};
Point(p16 + 2) = {8.659393538363371, 0.7846683453761161, 0};
Point(p16 + 3) = {8.602110289592913, 0.9229623414545469, 0};
Point(p16 + 4) = {8.523898345376116, 1.05059263457835, 0};
Point(p16 + 5) = {8.426683543350158, 1.164416543350159, 0};
Point(p16 + 6) = {8.31285963457835, 1.261631345376116, 0};
Point(p16 + 7) = {8.185229341454548, 1.339843289592913, 0};
Point(p16 + 8) = {8.046935345376117, 1.397126538363371, 0};
Point(p16 + 9) = {7.901382903497968, 1.432070587990558, 0};
Point(p16 + 10) = {7.752156, 1.443815, 0};
Point(p16 + 11) = {7.602929096502033, 1.432070587990557, 0};
Point(p16 + 12) = {7.457376654623884, 1.397126538363371, 0};
Point(p16 + 13) = {7.319082658545454, 1.339843289592913, 0};
Point(p16 + 14) = {7.19145236542165, 1.261631345376116, 0};
Point(p16 + 15) = {7.077628456649842, 1.164416543350159, 0};
Point(p16 + 16) = {6.980413654623884, 1.05059263457835, 0};
Point(p16 + 17) = {6.902201710407088, 0.922962341454547, 0};
Point(p16 + 18) = {6.844918461636629, 0.7846683453761162, 0};
Point(p16 + 19) = {6.809974412009443, 0.6391159034979674, 0};
Point(p16 + 20) = {6.79823, 0.4898890000000001, 0};
Point(p16 + 21) = {6.809974412009443, 0.3406620965020329, 0};
Point(p16 + 22) = {6.844918461636629, 0.1951096546238836, 0};
Point(p16 + 23) = {6.902201710407087, 0.05681565854545362, 0};
Point(p16 + 24) = {6.980413654623884, -0.07081463457834969, 0};
Point(p16 + 25) = {7.077628456649841, -0.1846385433501585, 0};
Point(p16 + 26) = {7.19145236542165, -0.2818533453761161, 0};
Point(p16 + 27) = {7.319082658545454, -0.360065289592913, 0};
Point(p16 + 28) = {7.457376654623884, -0.4173485383633706, 0};
Point(p16 + 29) = {7.602929096502033, -0.4522925879905573, 0};
Point(p16 + 30) = {7.752156, -0.464037, 0};
Point(p16 + 31) = {7.901382903497967, -0.4522925879905574, 0};
Point(p16 + 32) = {8.046935345376117, -0.4173485383633707, 0};
Point(p16 + 33) = {8.185229341454548, -0.3600652895929131, 0};
Point(p16 + 34) = {8.31285963457835, -0.2818533453761163, 0};
Point(p16 + 35) = {8.426683543350158, -0.1846385433501587, 0};
Point(p16 + 36) = {8.523898345376116, -0.07081463457834991, 0};
Point(p16 + 37) = {8.602110289592913, 0.0568156585454529, 0};
Point(p16 + 38) = {8.659393538363371, 0.1951096546238837, 0};
Point(p16 + 39) = {8.694337587990557, 0.3406620965020325, 0};
Spline(16) = {12, p16 + 1, p16 + 2, p16 + 3, p16 + 4, p16 + 5, p16 + 6, p16 + 7, p16 + 8, p16 + 9, p16 + 10, p16 + 11, p16 + 12, p16 + 13, p16 + 14, p16 + 15, p16 + 16, p16 + 17, p16 + 18, p16 + 19, p16 + 20, p16 + 21, p16 + 22, p16 + 23, p16 + 24, p16 + 25, p16 + 26, p16 + 27, p16 + 28, p16 + 29, p16 + 30, p16 + 31, p16 + 32, p16 + 33, p16 + 34, p16 + 35, p16 + 36, p16 + 37, p16 + 38, p16 + 39, 12};
Line(17) = {11, 8};
Line(18) = {12, 9};
Curve Loop(1) = {-1, 4, 3, -2};
Plane Surface(1) = {1};
Curve Loop(2) = {-5, 1, 7, -6};
Plane Surface(2) = {2};
Curve Loop(3) = {-2, 7, 9, -8, -10, -11};
Plane Surface(3) = {3};
Curve Loop(4) = {-12, 3, 8, -13};
Plane Surface(4) = {4};
Curve Loop(5) = {-4, 5, 14, -12, -15, -16};
Plane Surface(5) = {5};
Curve Loop(6) = {-6, 14, 13, -9};
Plane Surface(6) = {6};
Curve Loop(7) = {-10, -17, 15, 17};
Surface(7) = {7};
Curve Loop(8) = {-11, -18, 16, 18};
Surface(8) = {8};
Surface Loop(1) = {1, 2, 3, 4, 5, 6, 7, 8};
Volume(1) = {1};
Physical Surface("INFLOW") = {1};
Physical Surface("OUTFLOW") = {6};
Physical Surface("OBSTACLE") = {7, 8};
Physical Surface("WALL_Y") = {2, 4};
Physical Surface("WALL_Z") = {3, 5};
Physical Volume("FLUID") = {1};
