cl__1 = 1;
cl__2 = 0.132976;
cl__3 = 0.129138;
Point(1) = {0.451128, -3.466986, 1, cl__1};
Point(2) = {0.451128, -3.466986, 0, cl__1};
Point(3) = {0.451128, 4.166156000000001, 1, cl__1};
Point(4) = {0.451128, 4.166156000000001, 0, cl__1};
Point(5) = {30.266702, -3.466986, 0, cl__1};
Point(6) = {30.266702, -3.466986, 1, cl__1};
Point(7) = {30.266702, 4.166156000000001, 1, cl__1};
Point(8) = {5.494448, -1.62678, 1, cl__2};
Point(9) = {26.69048, 1.144671, 1, cl__3};
Point(10) = {30.266702, 4.166156000000001, 0, cl__1};
Point(11) = {5.494448, -1.62678, 0, cl__2};
Point(12) = {26.69048, 1.144671, 0, cl__3};
Line(1) = {2, 1};
Line(2) = {1, 3};
Line(3) = {4, 3};
Line(4) = {2, 4};
Line(5) = {2, 5};
Line(6) = {5, 6};
Line(7) = {1, 6};
Line(8) = {3, 7};
Line(9) = {6, 7};
p10 = newp;
Point(p10 + 1) = {5.478076423166471, -1.418759392899172, 1};
Point(p10 + 2) = {5.429364815221676, -1.215860943525981, 1};
Point(p10 + 3) = {5.349512617617773, -1.023080685085341, 1};
Point(p10 + 4) = {5.240486056474019, -0.8451655073410561, 1};
Point(p10 + 5) = {5.104969727564185, -0.6864962724358141, 1};
Point(p10 + 6) = {4.946300492658944, -0.550979943525981, 1};
Point(p10 + 7) = {4.768385314914659, -0.4419533823822275, 1};
Point(p10 + 8) = {4.575605056474019, -0.3621011847783238, 1};
Point(p10 + 9) = {4.372706607100827, -0.3133895768335282, 1};
Point(p10 + 10) = {4.164686, -0.2970179999999998, 1};
Point(p10 + 11) = {3.956665392899172, -0.3133895768335284, 1};
Point(p10 + 12) = {3.753766943525981, -0.3621011847783238, 1};
Point(p10 + 13) = {3.560986685085341, -0.4419533823822273, 1};
Point(p10 + 14) = {3.383071507341056, -0.550979943525981, 1};
Point(p10 + 15) = {3.224402272435814, -0.6864962724358139, 1};
Point(p10 + 16) = {3.088885943525981, -0.845165507341056, 1};
Point(p10 + 17) = {2.979859382382227, -1.023080685085341, 1};
Point(p10 + 18) = {2.900007184778324, -1.215860943525981, 1};
Point(p10 + 19) = {2.851295576833528, -1.418759392899172, 1};
Point(p10 + 20) = {2.834924, -1.62678, 1};
Point(p10 + 21) = {2.851295576833528, -1.834800607100827, 1};
Point(p10 + 22) = {2.900007184778324, -2.037699056474019, 1};
Point(p10 + 23) = {2.979859382382227, -2.230479314914659, 1};
Point(p10 + 24) = {3.08888594352598, -2.408394492658943, 1};
Point(p10 + 25) = {3.224402272435813, -2.567063727564186, 1};
Point(p10 + 26) = {3.383071507341056, -2.702580056474019, 1};
Point(p10 + 27) = {3.56098668508534, -2.811606617617772, 1};
Point(p10 + 28) = {3.753766943525981, -2.891458815221676, 1};
Point(p10 + 29) = {3.956665392899172, -2.940170423166471, 1};
Point(p10 + 30) = {4.164686, -2.956542, 1};
Point(p10 + 31) = {4.372706607100826, -2.940170423166472, 1};
Point(p10 + 32) = {4.575605056474018, -2.891458815221676, 1};
Point(p10 + 33) = {4.768385314914659, -2.811606617617772, 1};
Point(p10 + 34) = {4.946300492658943, -2.702580056474019, 1};
Point(p10 + 35) = {5.104969727564185, -2.567063727564186, 1};
Point(p10 + 36) = {5.240486056474019, -2.408394492658944, 1};
Point(p10 + 37) = {5.349512617617772, -2.23047931491466, 1};
Point(p10 + 38) = {5.429364815221676, -2.037699056474019, 1};
Point(p10 + 39) = {5.478076423166471, -1.834800607100828, 1};
Spline(10) = {8, p10 + 1, p10 + 2, p10 + 3, p10 + 4, p10 + 5, p10 + 6, p10 + 7, p10 + 8, p10 + 9, p10 + 10, p10 + 11, p10 + 12, p10 + 13, p10 + 14, p10 + 15, p10 + 16, p10 + 17, p10 + 18, p10 + 19, p10 + 20, p10 + 21, p10 + 22, p10 + 23, p10 + 24, p10 + 25, p10 + 26, p10 + 27, p10 + 28, p10 + 29, p10 + 30, p10 + 31, p10 + 32, p10 + 33, p10 + 34, p10 + 35, p10 + 36, p10 + 37, p10 + 38, p10 + 39, 8};
p11 = newp;
Point(p11 + 1) = {26.67458095696609, 1.346687495898118, 1};
Point(p11 + 2) = {26.62727531506975, 1.543729675212914, 1};
Point(p11 + 3) = {26.5497278962129, 1.730945705544156, 1};
Point(p11 + 4) = {26.44384817521291, 1.903725706890706, 1};
Point(p11 + 5) = {26.31224326219547, 2.057815262195465, 1};
Point(p11 + 6) = {26.1581537068907, 2.189420175212914, 1};
Point(p11 + 7) = {25.98537370554416, 2.295299896212899, 1};
Point(p11 + 8) = {25.79815767521291, 2.372847315069752, 1};
Point(p11 + 9) = {25.60111549589812, 2.420152956966089, 1};
Point(p11 + 10) = {25.399099, 2.436052, 1};
Point(p11 + 11) = {25.19708250410188, 2.420152956966089, 1};
Point(p11 + 12) = {25.00004032478709, 2.372847315069752, 1};
Point(p11 + 13) = {24.81282429445584, 2.295299896212899, 1};
Point(p11 + 14) = {24.64004429310929, 2.189420175212914, 1};
Point(p11 + 15) = {24.48595473780453, 2.057815262195465, 1};
Point(p11 + 16) = {24.35434982478709, 1.903725706890706, 1};
Point(p11 + 17) = {24.2484701037871, 1.730945705544156, 1};
Point(p11 + 18) = {24.17092268493025, 1.543729675212914, 1};
Point(p11 + 19) = {24.12361704303391, 1.346687495898119, 1};
Point(p11 + 20) = {24.107718, 1.144671, 1};
Point(p11 + 21) = {24.12361704303391, 0.9426545041018818, 1};
Point(p11 + 22) = {24.17092268493025, 0.7456123247870856, 1};
Point(p11 + 23) = {24.2484701037871, 0.558396294455845, 1};
Point(p11 + 24) = {24.35434982478709, 0.3856162931092939, 1};
Point(p11 + 25) = {24.48595473780453, 0.2315267378045353, 1};
Point(p11 + 26) = {24.64004429310929, 0.09992182478708611, 1};
Point(p11 + 27) = {24.81282429445584, -0.00595789621289855, 1};
Point(p11 + 28) = {25.00004032478709, -0.08350531506975156, 1};
Point(p11 + 29) = {25.19708250410188, -0.1308109569660894, 1};
Point(p11 + 30) = {25.399099, -0.1467099999999999, 1};
Point(p11 + 31) = {25.60111549589812, -0.1308109569660896, 1};
Point(p11 + 32) = {25.79815767521291, -0.08350531506975178, 1};
Point(p11 + 33) = {25.98537370554416, -0.00595789621289855, 1};
Point(p11 + 34) = {26.1581537068907, 0.09992182478708589, 1};
Point(p11 + 35) = {26.31224326219547, 0.2315267378045349, 1};
Point(p11 + 36) = {26.44384817521291, 0.3856162931092936, 1};
Point(p11 + 37) = {26.5497278962129, 0.5583962944558442, 1};
Point(p11 + 38) = {26.62727531506975, 0.7456123247870858, 1};
Point(p11 + 39) = {26.67458095696609, 0.9426545041018813, 1};
Spline(11) = {9, p11 + 1, p11 + 2, p11 + 3, p11 + 4, p11 + 5, p11 + 6, p11 + 7, p11 + 8, p11 + 9, p11 + 10, p11 + 11, p11 + 12, p11 + 13, p11 + 14, p11 + 15, p11 + 16, p11 + 17, p11 + 18, p11 + 19, p11 + 20, p11 + 21, p11 + 22, p11 + 23, p11 + 24, p11 + 25, p11 + 26, p11 + 27, p11 + 28, p11 + 29, p11 + 30, p11 + 31, p11 + 32, p11 + 33, p11 + 34, p11 + 35, p11 + 36, p11 + 37, p11 + 38, p11 + 39, 9};
Line(12) = {4, 10};
Line(13) = {10, 7};
Line(14) = {5, 10};
p15 = newp;
Point(p15 + 1) = {5.478076423166471, -1.418759392899172, 0};
Point(p15 + 2) = {5.429364815221676, -1.215860943525981, 0};
Point(p15 + 3) = {5.349512617617773, -1.023080685085341, 0};
Point(p15 + 4) = {5.240486056474019, -0.8451655073410561, 0};
Point(p15 + 5) = {5.104969727564185, -0.6864962724358141, 0};
Point(p15 + 6) = {4.946300492658944, -0.550979943525981, 0};
Point(p15 + 7) = {4.768385314914659, -0.4419533823822275, 0};
Point(p15 + 8) = {4.575605056474019, -0.3621011847783238, 0};
Point(p15 + 9) = {4.372706607100827, -0.3133895768335282, 0};
Point(p15 + 10) = {4.164686, -0.2970179999999998, 0};
Point(p15 + 11) = {3.956665392899172, -0.3133895768335284, 0};
Point(p15 + 12) = {3.753766943525981, -0.3621011847783238, 0};
Point(p15 + 13) = {3.560986685085341, -0.4419533823822273, 0};
Point(p15 + 14) = {3.383071507341056, -0.550979943525981, 0};
Point(p15 + 15) = {3.224402272435814, -0.6864962724358139, 0};
Point(p15 + 16) = {3.088885943525981, -0.845165507341056, 0};
Point(p15 + 17) = {2.979859382382227, -1.023080685085341, 0};
Point(p15 + 18) = {2.900007184778324, -1.215860943525981, 0};
Point(p15 + 19) = {2.851295576833528, -1.418759392899172, 0};
Point(p15 + 20) = {2.834924, -1.62678, 0};
Point(p15 + 21) = {2.851295576833528, -1.834800607100827, 0};
Point(p15 + 22) = {2.900007184778324, -2.037699056474019, 0};
Point(p15 + 23) = {2.979859382382227, -2.230479314914659, 0};
Point(p15 + 24) = {3.08888594352598, -2.408394492658943, 0};
Point(p15 + 25) = {3.224402272435813, -2.567063727564186, 0};
Point(p15 + 26) = {3.383071507341056, -2.702580056474019, 0};
Point(p15 + 27) = {3.56098668508534, -2.811606617617772, 0};
Point(p15 + 28) = {3.753766943525981, -2.891458815221676, 0};
Point(p15 + 29) = {3.956665392899172, -2.940170423166471, 0};
Point(p15 + 30) = {4.164686, -2.956542, 0};
Point(p15 + 31) = {4.372706607100826, -2.940170423166472, 0};
Point(p15 + 32) = {4.575605056474018, -2.891458815221676, 0};
Point(p15 + 33) = {4.768385314914659, -2.811606617617772, 0};
Point(p15 + 34) = {4.946300492658943, -2.702580056474019, 0};
Point(p15 + 35) = {5.104969727564185, -2.567063727564186, 0};
Point(p15 + 36) = {5.240486056474019, -2.408394492658944, 0};
Point(p15 + 37) = {5.349512617617772, -2.23047931491466, 0};
Point(p15 + 38) = {5.429364815221676, -2.037699056474019, 0};
Point(p15 + 39) = {5.478076423166471, -1.834800607100828, 0};
Spline(15) = {11, p15 + 1, p15 + 2, p15 + 3, p15 + 4, p15 + 5, p15 + 6, p15 + 7, p15 + 8, p15 + 9, p15 + 10, p15 + 11, p15 + 12, p15 + 13, p15 + 14, p15 + 15, p15 + 16, p15 + 17, p15 + 18, p15 + 19, p15 + 20, p15 + 21, p15 + 22, p15 + 23, p15 + 24, p15 + 25, p15 + 26, p15 + 27, p15 + 28, p15 + 29, p15 + 30, p15 + 31, p15 + 32, p15 + 33, p15 + 34, p15 + 35, p15 + 36, p15 + 37, p15 + 38, p15 + 39, 11};
p16 = newp;
Point(p16 + 1) = {26.67458095696609, 1.346687495898118, 0};
Point(p16 + 2) = {26.62727531506975, 1.543729675212914, 0};
Point(p16 + 3) = {26.5497278962129, 1.730945705544156, 0};
Point(p16 + 4) = {26.44384817521291, 1.903725706890706, 0};
Point(p16 + 5) = {26.31224326219547, 2.057815262195465, 0};
Point(p16 + 6) = {26.1581537068907, 2.189420175212914, 0};
Point(p16 + 7) = {25.98537370554416, 2.295299896212899, 0};
Point(p16 + 8) = {25.79815767521291, 2.372847315069752, 0};
Point(p16 + 9) = {25.60111549589812, 2.420152956966089, 0};
Point(p16 + 10) = {25.399099, 2.436052, 0};
Point(p16 + 11) = {25.19708250410188, 2.420152956966089, 0};
Point(p16 + 12) = {25.00004032478709, 2.372847315069752, 0};
Point(p16 + 13) = {24.81282429445584, 2.295299896212899, 0};
Point(p16 + 14) = {24.64004429310929, 2.189420175212914, 0};
Point(p16 + 15) = {24.48595473780453, 2.057815262195465, 0};
Point(p16 + 16) = {24.35434982478709, 1.903725706890706, 0};
Point(p16 + 17) = {24.2484701037871, 1.730945705544156, 0};
Point(p16 + 18) = {24.17092268493025, 1.543729675212914, 0};
Point(p16 + 19) = {24.12361704303391, 1.346687495898119, 0};
Point(p16 + 20) = {24.107718, 1.144671, 0};
Point(p16 + 21) = {24.12361704303391, 0.9426545041018818, 0};
Point(p16 + 22) = {24.17092268493025, 0.7456123247870856, 0};
Point(p16 + 23) = {24.2484701037871, 0.558396294455845, 0};
Point(p16 + 24) = {24.35434982478709, 0.3856162931092939, 0};
Point(p16 + 25) = {24.48595473780453, 0.2315267378045353, 0};
Point(p16 + 26) = {24.64004429310929, 0.09992182478708611, 0};
Point(p16 + 27) = {24.81282429445584, -0.00595789621289855, 0};
Point(p16 + 28) = {25.00004032478709, -0.08350531506975156, 0};
Point(p16 + 29) = {25.19708250410188, -0.1308109569660894, 0};
Point(p16 + 30) = {25.399099, -0.1467099999999999, 0};
Point(p16 + 31) = {25.60111549589812, -0.1308109569660896, 0};
Point(p16 + 32) = {25.79815767521291, -0.08350531506975178, 0};
Point(p16 + 33) = {25.98537370554416, -0.00595789621289855, 0};
Point(p16 + 34) = {26.1581537068907, 0.09992182478708589, 0};
Point(p16 + 35) = {26.31224326219547, 0.2315267378045349, 0};
Point(p16 + 36) = {26.44384817521291, 0.3856162931092936, 0};
Point(p16 + 37) = {26.5497278962129, 0.5583962944558442, 0};
Point(p16 + 38) = {26.62727531506975, 0.7456123247870858, 0};
Point(p16 + 39) = {26.67458095696609, 0.9426545041018813, 0};
Spline(16) = {12, p16 + 1, p16 + 2, p16 + 3, p16 + 4, p16 + 5, p16 + 6, p16 + 7, p16 + 8, p16 + 9, p16 + 10, p16 + 11, p16 + 12, p16 + 13, p16 + 14, p16 + 15, p16 + 16, p16 + 17, p16 + 18, p16 + 19, p16 + 20, p16 + 21, p16 + 22, p16 + 23, p16 + 24, p16 + 25, p16 + 26, p16 + 27, p16 + 28, p16 + 29, p16 + 30, p16 + 31, p16 + 32, p16 + 33, p16 + 34, p16 + 35, p16 + 36, p16 + 37, p16 + 38, p16 + 39, 12};
Line(17) = {11, 8};
Line(18) = {12, 9};
Curve Loop(1) = {-1, 4, 3, -2};
Plane Surface(1) = {1};
Curve Loop(2) = {-5, 1, 7, -6};
Plane Surface(2) = {2};
Curve Loop(3) = {-2, 7, 9, -8, -10, -11};
Plane Surface(3) = {3};
Curve Loop(4) = {-12, 3, 8, -13};
Plane Surface(4) = {4};
Curve Loop(5) = {-4, 5, 14, -12, -15, -16};
Plane Surface(5) = {5};
Curve Loop(6) = {-6, 14, 13, -9};
Plane Surface(6) = {6};
Curve Loop(7) = {-10, -17, 15, 17};
Surface(7) = {7};
Curve Loop(8) = {-11, -18, 16, 18};
Surface(8) = {8};
Surface Loop(1) = {1, 2, 3, 4, 5, 6, 7, 8};
Volume(1) = {1};
Physical Surface("INFLOW") = {1};
Physical Surface("OUTFLOW") = {6};
Physical Surface("OBSTACLE") = {7, 8};
Physical Surface("WALL_Y") = {2, 4};
Physical Surface("WALL_Z") = {3, 5};
Physical Volume("FLUID") = {1};
