cl__1 = 3.674788;
cl__2 = 0.663293;
cl__3 = 0.640709;
cl__4 = 0.112496;
cl__5 = 0.103995;
Point(1) = {0.209739, -3.331657, 1, cl__1};
Point(2) = {0.209739, -3.331657, 0, cl__1};
Point(3) = {0.209739, 4.922961000000001, 1, cl__2};
Point(4) = {0.209739, 4.922961000000001, 0, cl__2};
Point(5) = {36.515368, -3.331657, 0, cl__3};
Point(6) = {36.515368, -3.331657, 1, cl__3};
Point(7) = {36.515368, 4.922961000000001, 1, cl__2};
Point(8) = {8.430849, -0.8064680000000003, 1, cl__4};
Point(9) = {30.402931, -0.5537980000000002, 1, cl__5};
Point(10) = {36.515368, 4.922961000000001, 0, cl__2};
Point(11) = {8.430849, -0.8064680000000003, 0, cl__4};
Point(12) = {30.402931, -0.5537980000000002, 0, cl__5};
Line(1) = {2, 1};
Line(2) = {1, 3};
Line(3) = {4, 3};
Line(4) = {2, 4};
Line(5) = {2, 5};
Line(6) = {5, 6};
Line(7) = {1, 6};
Line(8) = {3, 7};
Line(9) = {6, 7};
p10 = newp;
Point(p10 + 1) = {8.416998826389268, -0.6304848584704816, 1};
Point(p10 + 2) = {8.375789342797461, -0.4588350059399816, 1};
Point(p10 + 3) = {8.308235263477043, -0.2957450314510005, 1};
Point(p10 + 4) = {8.215999994060018, -0.1452307514400502, 1};
Point(p10 + 5) = {8.101354672990743, -0.01099832700925674, 1};
Point(p10 + 6) = {7.967122248559949, 0.1036469940600185, 1};
Point(p10 + 7) = {7.816607968549, 0.1958822634770432, 1};
Point(p10 + 8) = {7.653517994060018, 0.2634363427974613, 1};
Point(p10 + 9) = {7.481868141529518, 0.3046458263892686, 1};
Point(p10 + 10) = {7.305885, 0.3184960000000001, 1};
Point(p10 + 11) = {7.129901858470482, 0.3046458263892686, 1};
Point(p10 + 12) = {6.958252005939982, 0.2634363427974613, 1};
Point(p10 + 13) = {6.795162031451, 0.1958822634770432, 1};
Point(p10 + 14) = {6.644647751440051, 0.1036469940600185, 1};
Point(p10 + 15) = {6.510415327009257, -0.01099832700925663, 1};
Point(p10 + 16) = {6.395770005939982, -0.14523075144005, 1};
Point(p10 + 17) = {6.303534736522957, -0.2957450314510003, 1};
Point(p10 + 18) = {6.235980657202539, -0.4588350059399815, 1};
Point(p10 + 19) = {6.194771173610731, -0.6304848584704815, 1};
Point(p10 + 20) = {6.180921, -0.8064679999999999, 1};
Point(p10 + 21) = {6.194771173610731, -0.9824511415295181, 1};
Point(p10 + 22) = {6.235980657202539, -1.154100994060019, 1};
Point(p10 + 23) = {6.303534736522956, -1.317190968548999, 1};
Point(p10 + 24) = {6.395770005939982, -1.46770524855995, 1};
Point(p10 + 25) = {6.510415327009256, -1.601937672990743, 1};
Point(p10 + 26) = {6.64464775144005, -1.716582994060018, 1};
Point(p10 + 27) = {6.795162031451, -1.808818263477043, 1};
Point(p10 + 28) = {6.958252005939982, -1.876372342797461, 1};
Point(p10 + 29) = {7.129901858470482, -1.917581826389269, 1};
Point(p10 + 30) = {7.305885, -1.931432, 1};
Point(p10 + 31) = {7.481868141529518, -1.917581826389269, 1};
Point(p10 + 32) = {7.653517994060018, -1.876372342797461, 1};
Point(p10 + 33) = {7.816607968549, -1.808818263477043, 1};
Point(p10 + 34) = {7.967122248559949, -1.716582994060019, 1};
Point(p10 + 35) = {8.101354672990743, -1.601937672990744, 1};
Point(p10 + 36) = {8.215999994060018, -1.46770524855995, 1};
Point(p10 + 37) = {8.308235263477043, -1.317190968549, 1};
Point(p10 + 38) = {8.375789342797461, -1.154100994060018, 1};
Point(p10 + 39) = {8.416998826389268, -0.9824511415295185, 1};
Spline(10) = {8, p10 + 1, p10 + 2, p10 + 3, p10 + 4, p10 + 5, p10 + 6, p10 + 7, p10 + 8, p10 + 9, p10 + 10, p10 + 11, p10 + 12, p10 + 13, p10 + 14, p10 + 15, p10 + 16, p10 + 17, p10 + 18, p10 + 19, p10 + 20, p10 + 21, p10 + 22, p10 + 23, p10 + 24, p10 + 25, p10 + 26, p10 + 27, p10 + 28, p10 + 29, p10 + 30, p10 + 31, p10 + 32, p10 + 33, p10 + 34, p10 + 35, p10 + 36, p10 + 37, p10 + 38, p10 + 39, 8};
p11 = newp;
Point(p11 + 1) = {30.39012751442523, -0.391114290950342, 1};
Point(p11 + 2) = {30.35203232200811, -0.2324363947337622, 1};
Point(p11 + 3) = {30.28958345281664, -0.08167148777685779, 1};
Point(p11 + 4) = {30.20431860526624, 0.05746809755105287, 1};
Point(p11 + 5) = {30.09833728288139, 0.1815562828813877, 1};
Point(p11 + 6) = {29.97424909755105, 0.287537605266238, 1};
Point(p11 + 7) = {29.83510951222314, 0.3728024528166448, 1};
Point(p11 + 8) = {29.68434460526624, 0.4352513220081125, 1};
Point(p11 + 9) = {29.52566670904966, 0.4733465144252325, 1};
Point(p11 + 10) = {29.362983, 0.4861500000000001, 1};
Point(p11 + 11) = {29.20029929095034, 0.4733465144252322, 1};
Point(p11 + 12) = {29.04162139473376, 0.4352513220081126, 1};
Point(p11 + 13) = {28.89085648777686, 0.3728024528166449, 1};
Point(p11 + 14) = {28.75171690244895, 0.287537605266238, 1};
Point(p11 + 15) = {28.62762871711861, 0.1815562828813878, 1};
Point(p11 + 16) = {28.52164739473376, 0.05746809755105298, 1};
Point(p11 + 17) = {28.43638254718336, -0.08167148777685768, 1};
Point(p11 + 18) = {28.37393367799189, -0.2324363947337621, 1};
Point(p11 + 19) = {28.33583848557477, -0.3911142909503419, 1};
Point(p11 + 20) = {28.323035, -0.5537979999999999, 1};
Point(p11 + 21) = {28.33583848557477, -0.7164817090496579, 1};
Point(p11 + 22) = {28.37393367799189, -0.8751596052662383, 1};
Point(p11 + 23) = {28.43638254718336, -1.025924512223142, 1};
Point(p11 + 24) = {28.52164739473376, -1.165064097551053, 1};
Point(p11 + 25) = {28.62762871711861, -1.289152282881388, 1};
Point(p11 + 26) = {28.75171690244895, -1.395133605266238, 1};
Point(p11 + 27) = {28.89085648777686, -1.480398452816645, 1};
Point(p11 + 28) = {29.04162139473376, -1.542847322008112, 1};
Point(p11 + 29) = {29.20029929095034, -1.580942514425232, 1};
Point(p11 + 30) = {29.362983, -1.593746, 1};
Point(p11 + 31) = {29.52566670904966, -1.580942514425232, 1};
Point(p11 + 32) = {29.68434460526624, -1.542847322008113, 1};
Point(p11 + 33) = {29.83510951222314, -1.480398452816645, 1};
Point(p11 + 34) = {29.97424909755105, -1.395133605266238, 1};
Point(p11 + 35) = {30.09833728288139, -1.289152282881388, 1};
Point(p11 + 36) = {30.20431860526624, -1.165064097551053, 1};
Point(p11 + 37) = {30.28958345281664, -1.025924512223142, 1};
Point(p11 + 38) = {30.35203232200811, -0.875159605266238, 1};
Point(p11 + 39) = {30.39012751442523, -0.7164817090496582, 1};
Spline(11) = {9, p11 + 1, p11 + 2, p11 + 3, p11 + 4, p11 + 5, p11 + 6, p11 + 7, p11 + 8, p11 + 9, p11 + 10, p11 + 11, p11 + 12, p11 + 13, p11 + 14, p11 + 15, p11 + 16, p11 + 17, p11 + 18, p11 + 19, p11 + 20, p11 + 21, p11 + 22, p11 + 23, p11 + 24, p11 + 25, p11 + 26, p11 + 27, p11 + 28, p11 + 29, p11 + 30, p11 + 31, p11 + 32, p11 + 33, p11 + 34, p11 + 35, p11 + 36, p11 + 37, p11 + 38, p11 + 39, 9};
Line(12) = {4, 10};
Line(13) = {10, 7};
Line(14) = {5, 10};
p15 = newp;
Point(p15 + 1) = {8.416998826389268, -0.6304848584704816, 0};
Point(p15 + 2) = {8.375789342797461, -0.4588350059399816, 0};
Point(p15 + 3) = {8.308235263477043, -0.2957450314510005, 0};
Point(p15 + 4) = {8.215999994060018, -0.1452307514400502, 0};
Point(p15 + 5) = {8.101354672990743, -0.01099832700925674, 0};
Point(p15 + 6) = {7.967122248559949, 0.1036469940600185, 0};
Point(p15 + 7) = {7.816607968549, 0.1958822634770432, 0};
Point(p15 + 8) = {7.653517994060018, 0.2634363427974613, 0};
Point(p15 + 9) = {7.481868141529518, 0.3046458263892686, 0};
Point(p15 + 10) = {7.305885, 0.3184960000000001, 0};
Point(p15 + 11) = {7.129901858470482, 0.3046458263892686, 0};
Point(p15 + 12) = {6.958252005939982, 0.2634363427974613, 0};
Point(p15 + 13) = {6.795162031451, 0.1958822634770432, 0};
Point(p15 + 14) = {6.644647751440051, 0.1036469940600185, 0};
Point(p15 + 15) = {6.510415327009257, -0.01099832700925663, 0};
Point(p15 + 16) = {6.395770005939982, -0.14523075144005, 0};
Point(p15 + 17) = {6.303534736522957, -0.2957450314510003, 0};
Point(p15 + 18) = {6.235980657202539, -0.4588350059399815, 0};
Point(p15 + 19) = {6.194771173610731, -0.6304848584704815, 0};
Point(p15 + 20) = {6.180921, -0.8064679999999999, 0};
Point(p15 + 21) = {6.194771173610731, -0.9824511415295181, 0};
Point(p15 + 22) = {6.235980657202539, -1.154100994060019, 0};
Point(p15 + 23) = {6.303534736522956, -1.317190968548999, 0};
Point(p15 + 24) = {6.395770005939982, -1.46770524855995, 0};
Point(p15 + 25) = {6.510415327009256, -1.601937672990743, 0};
Point(p15 + 26) = {6.64464775144005, -1.716582994060018, 0};
Point(p15 + 27) = {6.795162031451, -1.808818263477043, 0};
Point(p15 + 28) = {6.958252005939982, -1.876372342797461, 0};
Point(p15 + 29) = {7.129901858470482, -1.917581826389269, 0};
Point(p15 + 30) = {7.305885, -1.931432, 0};
Point(p15 + 31) = {7.481868141529518, -1.917581826389269, 0};
Point(p15 + 32) = {7.653517994060018, -1.876372342797461, 0};
Point(p15 + 33) = {7.816607968549, -1.808818263477043, 0};
Point(p15 + 34) = {7.967122248559949, -1.716582994060019, 0};
Point(p15 + 35) = {8.101354672990743, -1.601937672990744, 0};
Point(p15 + 36) = {8.215999994060018, -1.46770524855995, 0};
Point(p15 + 37) = {8.308235263477043, -1.317190968549, 0};
Point(p15 + 38) = {8.375789342797461, -1.154100994060018, 0};
Point(p15 + 39) = {8.416998826389268, -0.9824511415295185, 0};
Spline(15) = {11, p15 + 1, p15 + 2, p15 + 3, p15 + 4, p15 + 5, p15 + 6, p15 + 7, p15 + 8, p15 + 9, p15 + 10, p15 + 11, p15 + 12, p15 + 13, p15 + 14, p15 + 15, p15 + 16, p15 + 17, p15 + 18, p15 + 19, p15 + 20, p15 + 21, p15 + 22, p15 + 23, p15 + 24, p15 + 25, p15 + 26, p15 + 27, p15 + 28, p15 + 29, p15 + 30, p15 + 31, p15 + 32, p15 + 33, p15 + 34, p15 + 35, p15 + 36, p15 + 37, p15 + 38, p15 + 39, 11};
p16 = newp;
Point(p16 + 1) = {30.39012751442523, -0.391114290950342, 0};
Point(p16 + 2) = {30.35203232200811, -0.2324363947337622, 0};
Point(p16 + 3) = {30.28958345281664, -0.08167148777685779, 0};
Point(p16 + 4) = {30.20431860526624, 0.05746809755105287, 0};
Point(p16 + 5) = {30.09833728288139, 0.1815562828813877, 0};
Point(p16 + 6) = {29.97424909755105, 0.287537605266238, 0};
Point(p16 + 7) = {29.83510951222314, 0.3728024528166448, 0};
Point(p16 + 8) = {29.68434460526624, 0.4352513220081125, 0};
Point(p16 + 9) = {29.52566670904966, 0.4733465144252325, 0};
Point(p16 + 10) = {29.362983, 0.4861500000000001, 0};
Point(p16 + 11) = {29.20029929095034, 0.4733465144252322, 0};
Point(p16 + 12) = {29.04162139473376, 0.4352513220081126, 0};
Point(p16 + 13) = {28.89085648777686, 0.3728024528166449, 0};
Point(p16 + 14) = {28.75171690244895, 0.287537605266238, 0};
Point(p16 + 15) = {28.62762871711861, 0.1815562828813878, 0};
Point(p16 + 16) = {28.52164739473376, 0.05746809755105298, 0};
Point(p16 + 17) = {28.43638254718336, -0.08167148777685768, 0};
Point(p16 + 18) = {28.37393367799189, -0.2324363947337621, 0};
Point(p16 + 19) = {28.33583848557477, -0.3911142909503419, 0};
Point(p16 + 20) = {28.323035, -0.5537979999999999, 0};
Point(p16 + 21) = {28.33583848557477, -0.7164817090496579, 0};
Point(p16 + 22) = {28.37393367799189, -0.8751596052662383, 0};
Point(p16 + 23) = {28.43638254718336, -1.025924512223142, 0};
Point(p16 + 24) = {28.52164739473376, -1.165064097551053, 0};
Point(p16 + 25) = {28.62762871711861, -1.289152282881388, 0};
Point(p16 + 26) = {28.75171690244895, -1.395133605266238, 0};
Point(p16 + 27) = {28.89085648777686, -1.480398452816645, 0};
Point(p16 + 28) = {29.04162139473376, -1.542847322008112, 0};
Point(p16 + 29) = {29.20029929095034, -1.580942514425232, 0};
Point(p16 + 30) = {29.362983, -1.593746, 0};
Point(p16 + 31) = {29.52566670904966, -1.580942514425232, 0};
Point(p16 + 32) = {29.68434460526624, -1.542847322008113, 0};
Point(p16 + 33) = {29.83510951222314, -1.480398452816645, 0};
Point(p16 + 34) = {29.97424909755105, -1.395133605266238, 0};
Point(p16 + 35) = {30.09833728288139, -1.289152282881388, 0};
Point(p16 + 36) = {30.20431860526624, -1.165064097551053, 0};
Point(p16 + 37) = {30.28958345281664, -1.025924512223142, 0};
Point(p16 + 38) = {30.35203232200811, -0.875159605266238, 0};
Point(p16 + 39) = {30.39012751442523, -0.7164817090496582, 0};
Spline(16) = {12, p16 + 1, p16 + 2, p16 + 3, p16 + 4, p16 + 5, p16 + 6, p16 + 7, p16 + 8, p16 + 9, p16 + 10, p16 + 11, p16 + 12, p16 + 13, p16 + 14, p16 + 15, p16 + 16, p16 + 17, p16 + 18, p16 + 19, p16 + 20, p16 + 21, p16 + 22, p16 + 23, p16 + 24, p16 + 25, p16 + 26, p16 + 27, p16 + 28, p16 + 29, p16 + 30, p16 + 31, p16 + 32, p16 + 33, p16 + 34, p16 + 35, p16 + 36, p16 + 37, p16 + 38, p16 + 39, 12};
Line(17) = {11, 8};
Line(18) = {12, 9};
Curve Loop(1) = {-1, 4, 3, -2};
Plane Surface(1) = {1};
Curve Loop(2) = {-5, 1, 7, -6};
Plane Surface(2) = {2};
Curve Loop(3) = {-2, 7, 9, -8, -10, -11};
Plane Surface(3) = {3};
Curve Loop(4) = {-12, 3, 8, -13};
Plane Surface(4) = {4};
Curve Loop(5) = {-4, 5, 14, -12, -15, -16};
Plane Surface(5) = {5};
Curve Loop(6) = {-6, 14, 13, -9};
Plane Surface(6) = {6};
Curve Loop(7) = {-10, -17, 15, 17};
Surface(7) = {7};
Curve Loop(8) = {-11, -18, 16, 18};
Surface(8) = {8};
Surface Loop(1) = {1, 2, 3, 4, 5, 6, 7, 8};
Volume(1) = {1};
Physical Surface("INFLOW") = {1};
Physical Surface("OUTFLOW") = {6};
Physical Surface("OBSTACLE") = {7, 8};
Physical Surface("WALL_Y") = {2, 4};
Physical Surface("WALL_Z") = {3, 5};
Physical Volume("FLUID") = {1};
