cl__1 = 1.024106;
cl__2 = 0.805055;
cl__3 = 3.813164;
cl__4 = 0.075533;
cl__5 = 0.06431199999999999;
Point(1) = {0.531166, -3.396551, 1, cl__1};
Point(2) = {0.531166, -3.396551, 0, cl__1};
Point(3) = {0.531166, 4.528408000000001, 1, cl__2};
Point(4) = {0.531166, 4.528408000000001, 0, cl__2};
Point(5) = {37.925194, -3.396551, 0, cl__3};
Point(6) = {37.925194, -3.396551, 1, cl__3};
Point(7) = {37.925194, 4.528408000000001, 1, cl__3};
Point(8) = {18.244527, -1.94972, 1, cl__4};
Point(9) = {9.776634999999999, 3.271653, 1, cl__5};
Point(10) = {37.925194, 4.528408000000001, 0, cl__3};
Point(11) = {18.244527, -1.94972, 0, cl__4};
Point(12) = {9.776634999999999, 3.271653, 0, cl__5};
Line(1) = {2, 1};
Line(2) = {1, 3};
Line(3) = {4, 3};
Line(4) = {2, 4};
Line(5) = {2, 5};
Line(6) = {5, 6};
Line(7) = {1, 6};
Line(8) = {3, 7};
Line(9) = {6, 7};
p10 = newp;
Point(p10 + 1) = {18.2352276712367, -1.831560824824557, 1};
Point(p10 + 2) = {18.20755866528367, -1.716311120689754, 1};
Point(p10 + 3) = {18.16220128489563, -1.606808717803227, 1};
Point(p10 + 4) = {18.10027237931025, -1.505749928741683, 1};
Point(p10 + 5) = {18.02329684371329, -1.415623156286709, 1};
Point(p10 + 6) = {17.93317007125832, -1.338647620689754, 1};
Point(p10 + 7) = {17.83211128219677, -1.276718715104373, 1};
Point(p10 + 8) = {17.72260887931025, -1.23136133471633, 1};
Point(p10 + 9) = {17.60735917517544, -1.203692328763296, 1};
Point(p10 + 10) = {17.4892, -1.194393, 1};
Point(p10 + 11) = {17.37104082482456, -1.203692328763296, 1};
Point(p10 + 12) = {17.25579112068975, -1.23136133471633, 1};
Point(p10 + 13) = {17.14628871780323, -1.276718715104372, 1};
Point(p10 + 14) = {17.04522992874168, -1.338647620689754, 1};
Point(p10 + 15) = {16.95510315628671, -1.415623156286709, 1};
Point(p10 + 16) = {16.87812762068975, -1.505749928741683, 1};
Point(p10 + 17) = {16.81619871510437, -1.606808717803227, 1};
Point(p10 + 18) = {16.77084133471633, -1.716311120689754, 1};
Point(p10 + 19) = {16.7431723287633, -1.831560824824557, 1};
Point(p10 + 20) = {16.733873, -1.94972, 1};
Point(p10 + 21) = {16.7431723287633, -2.067879175175442, 1};
Point(p10 + 22) = {16.77084133471633, -2.183128879310246, 1};
Point(p10 + 23) = {16.81619871510437, -2.292631282196772, 1};
Point(p10 + 24) = {16.87812762068975, -2.393690071258317, 1};
Point(p10 + 25) = {16.95510315628671, -2.483816843713291, 1};
Point(p10 + 26) = {17.04522992874168, -2.560792379310246, 1};
Point(p10 + 27) = {17.14628871780323, -2.622721284895627, 1};
Point(p10 + 28) = {17.25579112068975, -2.668078665283669, 1};
Point(p10 + 29) = {17.37104082482456, -2.695747671236703, 1};
Point(p10 + 30) = {17.4892, -2.705047, 1};
Point(p10 + 31) = {17.60735917517544, -2.695747671236703, 1};
Point(p10 + 32) = {17.72260887931025, -2.668078665283669, 1};
Point(p10 + 33) = {17.83211128219677, -2.622721284895627, 1};
Point(p10 + 34) = {17.93317007125832, -2.560792379310246, 1};
Point(p10 + 35) = {18.02329684371329, -2.483816843713291, 1};
Point(p10 + 36) = {18.10027237931025, -2.393690071258317, 1};
Point(p10 + 37) = {18.16220128489563, -2.292631282196773, 1};
Point(p10 + 38) = {18.20755866528367, -2.183128879310246, 1};
Point(p10 + 39) = {18.2352276712367, -2.067879175175443, 1};
Spline(10) = {8, p10 + 1, p10 + 2, p10 + 3, p10 + 4, p10 + 5, p10 + 6, p10 + 7, p10 + 8, p10 + 9, p10 + 10, p10 + 11, p10 + 12, p10 + 13, p10 + 14, p10 + 15, p10 + 16, p10 + 17, p10 + 18, p10 + 19, p10 + 20, p10 + 21, p10 + 22, p10 + 23, p10 + 24, p10 + 25, p10 + 26, p10 + 27, p10 + 28, p10 + 29, p10 + 30, p10 + 31, p10 + 32, p10 + 33, p10 + 34, p10 + 35, p10 + 36, p10 + 37, p10 + 38, p10 + 39, 8};
p11 = newp;
Point(p11 + 1) = {9.768717150226863, 3.372258820287743, 1};
Point(p11 + 2) = {9.745158564646706, 3.470387391388428, 1};
Point(p11 + 3) = {9.706539333822974, 3.563622462211498, 1};
Point(p11 + 4) = {9.653810391388427, 3.649668275883831, 1};
Point(p11 + 5) = {9.588270098903129, 3.72640609890313, 1};
Point(p11 + 6) = {9.51153227588383, 3.791946391388428, 1};
Point(p11 + 7) = {9.425486462211497, 3.844675333822975, 1};
Point(p11 + 8) = {9.332251391388427, 3.883294564646707, 1};
Point(p11 + 9) = {9.234122820287743, 3.906853150226864, 1};
Point(p11 + 10) = {9.133516999999999, 3.914771, 1};
Point(p11 + 11) = {9.032911179712256, 3.906853150226864, 1};
Point(p11 + 12) = {8.934782608611572, 3.883294564646707, 1};
Point(p11 + 13) = {8.841547537788502, 3.844675333822975, 1};
Point(p11 + 14) = {8.755501724116169, 3.791946391388428, 1};
Point(p11 + 15) = {8.67876390109687, 3.72640609890313, 1};
Point(p11 + 16) = {8.613223608611571, 3.649668275883831, 1};
Point(p11 + 17) = {8.560494666177025, 3.563622462211498, 1};
Point(p11 + 18) = {8.521875435353293, 3.470387391388428, 1};
Point(p11 + 19) = {8.498316849773136, 3.372258820287743, 1};
Point(p11 + 20) = {8.490399, 3.271653, 1};
Point(p11 + 21) = {8.498316849773136, 3.171047179712257, 1};
Point(p11 + 22) = {8.521875435353293, 3.072918608611572, 1};
Point(p11 + 23) = {8.560494666177025, 2.979683537788503, 1};
Point(p11 + 24) = {8.613223608611571, 2.89363772411617, 1};
Point(p11 + 25) = {8.67876390109687, 2.81689990109687, 1};
Point(p11 + 26) = {8.755501724116169, 2.751359608611573, 1};
Point(p11 + 27) = {8.841547537788502, 2.698630666177025, 1};
Point(p11 + 28) = {8.934782608611572, 2.660011435353294, 1};
Point(p11 + 29) = {9.032911179712256, 2.636452849773137, 1};
Point(p11 + 30) = {9.133516999999999, 2.628535, 1};
Point(p11 + 31) = {9.234122820287743, 2.636452849773137, 1};
Point(p11 + 32) = {9.332251391388427, 2.660011435353294, 1};
Point(p11 + 33) = {9.425486462211497, 2.698630666177025, 1};
Point(p11 + 34) = {9.51153227588383, 2.751359608611573, 1};
Point(p11 + 35) = {9.588270098903129, 2.81689990109687, 1};
Point(p11 + 36) = {9.653810391388427, 2.893637724116169, 1};
Point(p11 + 37) = {9.706539333822974, 2.979683537788502, 1};
Point(p11 + 38) = {9.745158564646706, 3.072918608611573, 1};
Point(p11 + 39) = {9.768717150226863, 3.171047179712257, 1};
Spline(11) = {9, p11 + 1, p11 + 2, p11 + 3, p11 + 4, p11 + 5, p11 + 6, p11 + 7, p11 + 8, p11 + 9, p11 + 10, p11 + 11, p11 + 12, p11 + 13, p11 + 14, p11 + 15, p11 + 16, p11 + 17, p11 + 18, p11 + 19, p11 + 20, p11 + 21, p11 + 22, p11 + 23, p11 + 24, p11 + 25, p11 + 26, p11 + 27, p11 + 28, p11 + 29, p11 + 30, p11 + 31, p11 + 32, p11 + 33, p11 + 34, p11 + 35, p11 + 36, p11 + 37, p11 + 38, p11 + 39, 9};
Line(12) = {4, 10};
Line(13) = {10, 7};
Line(14) = {5, 10};
p15 = newp;
Point(p15 + 1) = {18.2352276712367, -1.831560824824557, 0};
Point(p15 + 2) = {18.20755866528367, -1.716311120689754, 0};
Point(p15 + 3) = {18.16220128489563, -1.606808717803227, 0};
Point(p15 + 4) = {18.10027237931025, -1.505749928741683, 0};
Point(p15 + 5) = {18.02329684371329, -1.415623156286709, 0};
Point(p15 + 6) = {17.93317007125832, -1.338647620689754, 0};
Point(p15 + 7) = {17.83211128219677, -1.276718715104373, 0};
Point(p15 + 8) = {17.72260887931025, -1.23136133471633, 0};
Point(p15 + 9) = {17.60735917517544, -1.203692328763296, 0};
Point(p15 + 10) = {17.4892, -1.194393, 0};
Point(p15 + 11) = {17.37104082482456, -1.203692328763296, 0};
Point(p15 + 12) = {17.25579112068975, -1.23136133471633, 0};
Point(p15 + 13) = {17.14628871780323, -1.276718715104372, 0};
Point(p15 + 14) = {17.04522992874168, -1.338647620689754, 0};
Point(p15 + 15) = {16.95510315628671, -1.415623156286709, 0};
Point(p15 + 16) = {16.87812762068975, -1.505749928741683, 0};
Point(p15 + 17) = {16.81619871510437, -1.606808717803227, 0};
Point(p15 + 18) = {16.77084133471633, -1.716311120689754, 0};
Point(p15 + 19) = {16.7431723287633, -1.831560824824557, 0};
Point(p15 + 20) = {16.733873, -1.94972, 0};
Point(p15 + 21) = {16.7431723287633, -2.067879175175442, 0};
Point(p15 + 22) = {16.77084133471633, -2.183128879310246, 0};
Point(p15 + 23) = {16.81619871510437, -2.292631282196772, 0};
Point(p15 + 24) = {16.87812762068975, -2.393690071258317, 0};
Point(p15 + 25) = {16.95510315628671, -2.483816843713291, 0};
Point(p15 + 26) = {17.04522992874168, -2.560792379310246, 0};
Point(p15 + 27) = {17.14628871780323, -2.622721284895627, 0};
Point(p15 + 28) = {17.25579112068975, -2.668078665283669, 0};
Point(p15 + 29) = {17.37104082482456, -2.695747671236703, 0};
Point(p15 + 30) = {17.4892, -2.705047, 0};
Point(p15 + 31) = {17.60735917517544, -2.695747671236703, 0};
Point(p15 + 32) = {17.72260887931025, -2.668078665283669, 0};
Point(p15 + 33) = {17.83211128219677, -2.622721284895627, 0};
Point(p15 + 34) = {17.93317007125832, -2.560792379310246, 0};
Point(p15 + 35) = {18.02329684371329, -2.483816843713291, 0};
Point(p15 + 36) = {18.10027237931025, -2.393690071258317, 0};
Point(p15 + 37) = {18.16220128489563, -2.292631282196773, 0};
Point(p15 + 38) = {18.20755866528367, -2.183128879310246, 0};
Point(p15 + 39) = {18.2352276712367, -2.067879175175443, 0};
Spline(15) = {11, p15 + 1, p15 + 2, p15 + 3, p15 + 4, p15 + 5, p15 + 6, p15 + 7, p15 + 8, p15 + 9, p15 + 10, p15 + 11, p15 + 12, p15 + 13, p15 + 14, p15 + 15, p15 + 16, p15 + 17, p15 + 18, p15 + 19, p15 + 20, p15 + 21, p15 + 22, p15 + 23, p15 + 24, p15 + 25, p15 + 26, p15 + 27, p15 + 28, p15 + 29, p15 + 30, p15 + 31, p15 + 32, p15 + 33, p15 + 34, p15 + 35, p15 + 36, p15 + 37, p15 + 38, p15 + 39, 11};
p16 = newp;
Point(p16 + 1) = {9.768717150226863, 3.372258820287743, 0};
Point(p16 + 2) = {9.745158564646706, 3.470387391388428, 0};
Point(p16 + 3) = {9.706539333822974, 3.563622462211498, 0};
Point(p16 + 4) = {9.653810391388427, 3.649668275883831, 0};
Point(p16 + 5) = {9.588270098903129, 3.72640609890313, 0};
Point(p16 + 6) = {9.51153227588383, 3.791946391388428, 0};
Point(p16 + 7) = {9.425486462211497, 3.844675333822975, 0};
Point(p16 + 8) = {9.332251391388427, 3.883294564646707, 0};
Point(p16 + 9) = {9.234122820287743, 3.906853150226864, 0};
Point(p16 + 10) = {9.133516999999999, 3.914771, 0};
Point(p16 + 11) = {9.032911179712256, 3.906853150226864, 0};
Point(p16 + 12) = {8.934782608611572, 3.883294564646707, 0};
Point(p16 + 13) = {8.841547537788502, 3.844675333822975, 0};
Point(p16 + 14) = {8.755501724116169, 3.791946391388428, 0};
Point(p16 + 15) = {8.67876390109687, 3.72640609890313, 0};
Point(p16 + 16) = {8.613223608611571, 3.649668275883831, 0};
Point(p16 + 17) = {8.560494666177025, 3.563622462211498, 0};
Point(p16 + 18) = {8.521875435353293, 3.470387391388428, 0};
Point(p16 + 19) = {8.498316849773136, 3.372258820287743, 0};
Point(p16 + 20) = {8.490399, 3.271653, 0};
Point(p16 + 21) = {8.498316849773136, 3.171047179712257, 0};
Point(p16 + 22) = {8.521875435353293, 3.072918608611572, 0};
Point(p16 + 23) = {8.560494666177025, 2.979683537788503, 0};
Point(p16 + 24) = {8.613223608611571, 2.89363772411617, 0};
Point(p16 + 25) = {8.67876390109687, 2.81689990109687, 0};
Point(p16 + 26) = {8.755501724116169, 2.751359608611573, 0};
Point(p16 + 27) = {8.841547537788502, 2.698630666177025, 0};
Point(p16 + 28) = {8.934782608611572, 2.660011435353294, 0};
Point(p16 + 29) = {9.032911179712256, 2.636452849773137, 0};
Point(p16 + 30) = {9.133516999999999, 2.628535, 0};
Point(p16 + 31) = {9.234122820287743, 2.636452849773137, 0};
Point(p16 + 32) = {9.332251391388427, 2.660011435353294, 0};
Point(p16 + 33) = {9.425486462211497, 2.698630666177025, 0};
Point(p16 + 34) = {9.51153227588383, 2.751359608611573, 0};
Point(p16 + 35) = {9.588270098903129, 2.81689990109687, 0};
Point(p16 + 36) = {9.653810391388427, 2.893637724116169, 0};
Point(p16 + 37) = {9.706539333822974, 2.979683537788502, 0};
Point(p16 + 38) = {9.745158564646706, 3.072918608611573, 0};
Point(p16 + 39) = {9.768717150226863, 3.171047179712257, 0};
Spline(16) = {12, p16 + 1, p16 + 2, p16 + 3, p16 + 4, p16 + 5, p16 + 6, p16 + 7, p16 + 8, p16 + 9, p16 + 10, p16 + 11, p16 + 12, p16 + 13, p16 + 14, p16 + 15, p16 + 16, p16 + 17, p16 + 18, p16 + 19, p16 + 20, p16 + 21, p16 + 22, p16 + 23, p16 + 24, p16 + 25, p16 + 26, p16 + 27, p16 + 28, p16 + 29, p16 + 30, p16 + 31, p16 + 32, p16 + 33, p16 + 34, p16 + 35, p16 + 36, p16 + 37, p16 + 38, p16 + 39, 12};
Line(17) = {11, 8};
Line(18) = {12, 9};
Curve Loop(1) = {-1, 4, 3, -2};
Plane Surface(1) = {1};
Curve Loop(2) = {-5, 1, 7, -6};
Plane Surface(2) = {2};
Curve Loop(3) = {-2, 7, 9, -8, -10, -11};
Plane Surface(3) = {3};
Curve Loop(4) = {-12, 3, 8, -13};
Plane Surface(4) = {4};
Curve Loop(5) = {-4, 5, 14, -12, -15, -16};
Plane Surface(5) = {5};
Curve Loop(6) = {-6, 14, 13, -9};
Plane Surface(6) = {6};
Curve Loop(7) = {-10, -17, 15, 17};
Surface(7) = {7};
Curve Loop(8) = {-11, -18, 16, 18};
Surface(8) = {8};
Surface Loop(1) = {1, 2, 3, 4, 5, 6, 7, 8};
Volume(1) = {1};
Physical Surface("INFLOW") = {1};
Physical Surface("OUTFLOW") = {6};
Physical Surface("OBSTACLE") = {7, 8};
Physical Surface("WALL_Y") = {2, 4};
Physical Surface("WALL_Z") = {3, 5};
Physical Volume("FLUID") = {1};
