cl__1 = 1;
cl__2 = 0.144724;
cl__3 = 0.076016;
Point(1) = {0.974128, -3.762679, 1, cl__1};
Point(2) = {0.974128, -3.762679, 0, cl__1};
Point(3) = {0.974128, 4.159211000000001, 1, cl__1};
Point(4) = {0.974128, 4.159211000000001, 0, cl__1};
Point(5) = {37.012612, -3.762679, 0, cl__1};
Point(6) = {37.012612, -3.762679, 1, cl__1};
Point(7) = {37.012612, 4.159211000000001, 1, cl__1};
Point(8) = {4.743634, -1.046322, 1, cl__2};
Point(9) = {15.603507, -0.5632200000000002, 1, cl__3};
Point(10) = {37.012612, 4.159211000000001, 0, cl__1};
Point(11) = {4.743634, -1.046322, 0, cl__2};
Point(12) = {15.603507, -0.5632200000000002, 0, cl__3};
Line(1) = {2, 1};
Line(2) = {1, 3};
Line(3) = {4, 3};
Line(4) = {2, 4};
Line(5) = {2, 5};
Line(6) = {5, 6};
Line(7) = {1, 6};
Line(8) = {3, 7};
Line(9) = {6, 7};
p10 = newp;
Point(p10 + 1) = {4.72581602479627, -0.8199231590773161, 1};
Point(p10 + 2) = {4.672800836869063, -0.5990990089928236, 1};
Point(p10 + 3) = {4.58589384609247, -0.3892869731949394, 1};
Point(p10 + 4) = {4.467234991007176, -0.195653320331232, 1};
Point(p10 + 5) = {4.319746046431544, -0.02296595356845632, 1};
Point(p10 + 6) = {4.147058679668768, 0.1245229910071766, 1};
Point(p10 + 7) = {3.953425026805061, 0.2431818460924702, 1};
Point(p10 + 8) = {3.743612991007176, 0.3300888368690631, 1};
Point(p10 + 9) = {3.522788840922684, 0.3831040247962696, 1};
Point(p10 + 10) = {3.29639, 0.400922, 1};
Point(p10 + 11) = {3.069991159077316, 0.3831040247962694, 1};
Point(p10 + 12) = {2.849167008992824, 0.3300888368690633, 1};
Point(p10 + 13) = {2.63935497319494, 0.2431818460924704, 1};
Point(p10 + 14) = {2.445721320331232, 0.1245229910071766, 1};
Point(p10 + 15) = {2.273033953568456, -0.0229659535684561, 1};
Point(p10 + 16) = {2.125545008992824, -0.1956533203312318, 1};
Point(p10 + 17) = {2.00688615390753, -0.3892869731949392, 1};
Point(p10 + 18) = {1.919979163130937, -0.5990990089928234, 1};
Point(p10 + 19) = {1.866963975203731, -0.8199231590773159, 1};
Point(p10 + 20) = {1.849146, -1.046322, 1};
Point(p10 + 21) = {1.866963975203731, -1.272720840922684, 1};
Point(p10 + 22) = {1.919979163130937, -1.493544991007177, 1};
Point(p10 + 23) = {2.00688615390753, -1.70335702680506, 1};
Point(p10 + 24) = {2.125545008992824, -1.896990679668768, 1};
Point(p10 + 25) = {2.273033953568456, -2.069678046431544, 1};
Point(p10 + 26) = {2.445721320331232, -2.217166991007177, 1};
Point(p10 + 27) = {2.639354973194939, -2.33582584609247, 1};
Point(p10 + 28) = {2.849167008992823, -2.422732836869063, 1};
Point(p10 + 29) = {3.069991159077316, -2.475748024796269, 1};
Point(p10 + 30) = {3.29639, -2.493566, 1};
Point(p10 + 31) = {3.522788840922684, -2.475748024796269, 1};
Point(p10 + 32) = {3.743612991007176, -2.422732836869063, 1};
Point(p10 + 33) = {3.953425026805061, -2.335825846092471, 1};
Point(p10 + 34) = {4.147058679668768, -2.217166991007177, 1};
Point(p10 + 35) = {4.319746046431543, -2.069678046431544, 1};
Point(p10 + 36) = {4.467234991007176, -1.896990679668768, 1};
Point(p10 + 37) = {4.58589384609247, -1.703357026805061, 1};
Point(p10 + 38) = {4.672800836869063, -1.493544991007177, 1};
Point(p10 + 39) = {4.72581602479627, -1.272720840922684, 1};
Spline(10) = {8, p10 + 1, p10 + 2, p10 + 3, p10 + 4, p10 + 5, p10 + 6, p10 + 7, p10 + 8, p10 + 9, p10 + 10, p10 + 11, p10 + 12, p10 + 13, p10 + 14, p10 + 15, p10 + 16, p10 + 17, p10 + 18, p10 + 19, p10 + 20, p10 + 21, p10 + 22, p10 + 23, p10 + 24, p10 + 25, p10 + 26, p10 + 27, p10 + 28, p10 + 29, p10 + 30, p10 + 31, p10 + 32, p10 + 33, p10 + 34, p10 + 35, p10 + 36, p10 + 37, p10 + 38, p10 + 39, 8};
p11 = newp;
Point(p11 + 1) = {15.59414819361012, -0.4443050899239482, 1};
Point(p11 + 2) = {15.56630221931389, -0.3283182595899288, 1};
Point(p11 + 3) = {15.52065473741398, -0.2181154896989857, 1};
Point(p11 + 4) = {15.45832974041007, -0.1164103381878582, 1};
Point(p11 + 5) = {15.3808618765732, -0.02570712342679649, 1};
Point(p11 + 6) = {15.29015866181214, 0.05176074041007128, 1};
Point(p11 + 7) = {15.18845351030101, 0.1140857374139812, 1};
Point(p11 + 8) = {15.07825074041007, 0.1597332193138913, 1};
Point(p11 + 9) = {14.96226391007605, 0.1875791936101187, 1};
Point(p11 + 10) = {14.843349, 0.1969379999999999, 1};
Point(p11 + 11) = {14.72443408992395, 0.1875791936101185, 1};
Point(p11 + 12) = {14.60844725958993, 0.1597332193138914, 1};
Point(p11 + 13) = {14.49824448969899, 0.1140857374139813, 1};
Point(p11 + 14) = {14.39653933818786, 0.05176074041007128, 1};
Point(p11 + 15) = {14.3058361234268, -0.02570712342679637, 1};
Point(p11 + 16) = {14.22836825958993, -0.1164103381878582, 1};
Point(p11 + 17) = {14.16604326258602, -0.2181154896989856, 1};
Point(p11 + 18) = {14.12039578068611, -0.3283182595899287, 1};
Point(p11 + 19) = {14.09254980638988, -0.4443050899239481, 1};
Point(p11 + 20) = {14.083191, -0.5632199999999999, 1};
Point(p11 + 21) = {14.09254980638988, -0.6821349100760518, 1};
Point(p11 + 22) = {14.12039578068611, -0.7981217404100716, 1};
Point(p11 + 23) = {14.16604326258602, -0.908324510301014, 1};
Point(p11 + 24) = {14.22836825958993, -1.010029661812142, 1};
Point(p11 + 25) = {14.3058361234268, -1.100732876573204, 1};
Point(p11 + 26) = {14.39653933818786, -1.178200740410071, 1};
Point(p11 + 27) = {14.49824448969899, -1.240525737413981, 1};
Point(p11 + 28) = {14.60844725958993, -1.286173219313891, 1};
Point(p11 + 29) = {14.72443408992395, -1.314019193610119, 1};
Point(p11 + 30) = {14.843349, -1.323378, 1};
Point(p11 + 31) = {14.96226391007605, -1.314019193610119, 1};
Point(p11 + 32) = {15.07825074041007, -1.286173219313892, 1};
Point(p11 + 33) = {15.18845351030101, -1.240525737413981, 1};
Point(p11 + 34) = {15.29015866181214, -1.178200740410071, 1};
Point(p11 + 35) = {15.3808618765732, -1.100732876573204, 1};
Point(p11 + 36) = {15.45832974041007, -1.010029661812142, 1};
Point(p11 + 37) = {15.52065473741398, -0.9083245103010146, 1};
Point(p11 + 38) = {15.56630221931389, -0.7981217404100714, 1};
Point(p11 + 39) = {15.59414819361012, -0.6821349100760521, 1};
Spline(11) = {9, p11 + 1, p11 + 2, p11 + 3, p11 + 4, p11 + 5, p11 + 6, p11 + 7, p11 + 8, p11 + 9, p11 + 10, p11 + 11, p11 + 12, p11 + 13, p11 + 14, p11 + 15, p11 + 16, p11 + 17, p11 + 18, p11 + 19, p11 + 20, p11 + 21, p11 + 22, p11 + 23, p11 + 24, p11 + 25, p11 + 26, p11 + 27, p11 + 28, p11 + 29, p11 + 30, p11 + 31, p11 + 32, p11 + 33, p11 + 34, p11 + 35, p11 + 36, p11 + 37, p11 + 38, p11 + 39, 9};
Line(12) = {4, 10};
Line(13) = {10, 7};
Line(14) = {5, 10};
p15 = newp;
Point(p15 + 1) = {4.72581602479627, -0.8199231590773161, 0};
Point(p15 + 2) = {4.672800836869063, -0.5990990089928236, 0};
Point(p15 + 3) = {4.58589384609247, -0.3892869731949394, 0};
Point(p15 + 4) = {4.467234991007176, -0.195653320331232, 0};
Point(p15 + 5) = {4.319746046431544, -0.02296595356845632, 0};
Point(p15 + 6) = {4.147058679668768, 0.1245229910071766, 0};
Point(p15 + 7) = {3.953425026805061, 0.2431818460924702, 0};
Point(p15 + 8) = {3.743612991007176, 0.3300888368690631, 0};
Point(p15 + 9) = {3.522788840922684, 0.3831040247962696, 0};
Point(p15 + 10) = {3.29639, 0.400922, 0};
Point(p15 + 11) = {3.069991159077316, 0.3831040247962694, 0};
Point(p15 + 12) = {2.849167008992824, 0.3300888368690633, 0};
Point(p15 + 13) = {2.63935497319494, 0.2431818460924704, 0};
Point(p15 + 14) = {2.445721320331232, 0.1245229910071766, 0};
Point(p15 + 15) = {2.273033953568456, -0.0229659535684561, 0};
Point(p15 + 16) = {2.125545008992824, -0.1956533203312318, 0};
Point(p15 + 17) = {2.00688615390753, -0.3892869731949392, 0};
Point(p15 + 18) = {1.919979163130937, -0.5990990089928234, 0};
Point(p15 + 19) = {1.866963975203731, -0.8199231590773159, 0};
Point(p15 + 20) = {1.849146, -1.046322, 0};
Point(p15 + 21) = {1.866963975203731, -1.272720840922684, 0};
Point(p15 + 22) = {1.919979163130937, -1.493544991007177, 0};
Point(p15 + 23) = {2.00688615390753, -1.70335702680506, 0};
Point(p15 + 24) = {2.125545008992824, -1.896990679668768, 0};
Point(p15 + 25) = {2.273033953568456, -2.069678046431544, 0};
Point(p15 + 26) = {2.445721320331232, -2.217166991007177, 0};
Point(p15 + 27) = {2.639354973194939, -2.33582584609247, 0};
Point(p15 + 28) = {2.849167008992823, -2.422732836869063, 0};
Point(p15 + 29) = {3.069991159077316, -2.475748024796269, 0};
Point(p15 + 30) = {3.29639, -2.493566, 0};
Point(p15 + 31) = {3.522788840922684, -2.475748024796269, 0};
Point(p15 + 32) = {3.743612991007176, -2.422732836869063, 0};
Point(p15 + 33) = {3.953425026805061, -2.335825846092471, 0};
Point(p15 + 34) = {4.147058679668768, -2.217166991007177, 0};
Point(p15 + 35) = {4.319746046431543, -2.069678046431544, 0};
Point(p15 + 36) = {4.467234991007176, -1.896990679668768, 0};
Point(p15 + 37) = {4.58589384609247, -1.703357026805061, 0};
Point(p15 + 38) = {4.672800836869063, -1.493544991007177, 0};
Point(p15 + 39) = {4.72581602479627, -1.272720840922684, 0};
Spline(15) = {11, p15 + 1, p15 + 2, p15 + 3, p15 + 4, p15 + 5, p15 + 6, p15 + 7, p15 + 8, p15 + 9, p15 + 10, p15 + 11, p15 + 12, p15 + 13, p15 + 14, p15 + 15, p15 + 16, p15 + 17, p15 + 18, p15 + 19, p15 + 20, p15 + 21, p15 + 22, p15 + 23, p15 + 24, p15 + 25, p15 + 26, p15 + 27, p15 + 28, p15 + 29, p15 + 30, p15 + 31, p15 + 32, p15 + 33, p15 + 34, p15 + 35, p15 + 36, p15 + 37, p15 + 38, p15 + 39, 11};
p16 = newp;
Point(p16 + 1) = {15.59414819361012, -0.4443050899239482, 0};
Point(p16 + 2) = {15.56630221931389, -0.3283182595899288, 0};
Point(p16 + 3) = {15.52065473741398, -0.2181154896989857, 0};
Point(p16 + 4) = {15.45832974041007, -0.1164103381878582, 0};
Point(p16 + 5) = {15.3808618765732, -0.02570712342679649, 0};
Point(p16 + 6) = {15.29015866181214, 0.05176074041007128, 0};
Point(p16 + 7) = {15.18845351030101, 0.1140857374139812, 0};
Point(p16 + 8) = {15.07825074041007, 0.1597332193138913, 0};
Point(p16 + 9) = {14.96226391007605, 0.1875791936101187, 0};
Point(p16 + 10) = {14.843349, 0.1969379999999999, 0};
Point(p16 + 11) = {14.72443408992395, 0.1875791936101185, 0};
Point(p16 + 12) = {14.60844725958993, 0.1597332193138914, 0};
Point(p16 + 13) = {14.49824448969899, 0.1140857374139813, 0};
Point(p16 + 14) = {14.39653933818786, 0.05176074041007128, 0};
Point(p16 + 15) = {14.3058361234268, -0.02570712342679637, 0};
Point(p16 + 16) = {14.22836825958993, -0.1164103381878582, 0};
Point(p16 + 17) = {14.16604326258602, -0.2181154896989856, 0};
Point(p16 + 18) = {14.12039578068611, -0.3283182595899287, 0};
Point(p16 + 19) = {14.09254980638988, -0.4443050899239481, 0};
Point(p16 + 20) = {14.083191, -0.5632199999999999, 0};
Point(p16 + 21) = {14.09254980638988, -0.6821349100760518, 0};
Point(p16 + 22) = {14.12039578068611, -0.7981217404100716, 0};
Point(p16 + 23) = {14.16604326258602, -0.908324510301014, 0};
Point(p16 + 24) = {14.22836825958993, -1.010029661812142, 0};
Point(p16 + 25) = {14.3058361234268, -1.100732876573204, 0};
Point(p16 + 26) = {14.39653933818786, -1.178200740410071, 0};
Point(p16 + 27) = {14.49824448969899, -1.240525737413981, 0};
Point(p16 + 28) = {14.60844725958993, -1.286173219313891, 0};
Point(p16 + 29) = {14.72443408992395, -1.314019193610119, 0};
Point(p16 + 30) = {14.843349, -1.323378, 0};
Point(p16 + 31) = {14.96226391007605, -1.314019193610119, 0};
Point(p16 + 32) = {15.07825074041007, -1.286173219313892, 0};
Point(p16 + 33) = {15.18845351030101, -1.240525737413981, 0};
Point(p16 + 34) = {15.29015866181214, -1.178200740410071, 0};
Point(p16 + 35) = {15.3808618765732, -1.100732876573204, 0};
Point(p16 + 36) = {15.45832974041007, -1.010029661812142, 0};
Point(p16 + 37) = {15.52065473741398, -0.9083245103010146, 0};
Point(p16 + 38) = {15.56630221931389, -0.7981217404100714, 0};
Point(p16 + 39) = {15.59414819361012, -0.6821349100760521, 0};
Spline(16) = {12, p16 + 1, p16 + 2, p16 + 3, p16 + 4, p16 + 5, p16 + 6, p16 + 7, p16 + 8, p16 + 9, p16 + 10, p16 + 11, p16 + 12, p16 + 13, p16 + 14, p16 + 15, p16 + 16, p16 + 17, p16 + 18, p16 + 19, p16 + 20, p16 + 21, p16 + 22, p16 + 23, p16 + 24, p16 + 25, p16 + 26, p16 + 27, p16 + 28, p16 + 29, p16 + 30, p16 + 31, p16 + 32, p16 + 33, p16 + 34, p16 + 35, p16 + 36, p16 + 37, p16 + 38, p16 + 39, 12};
Line(17) = {11, 8};
Line(18) = {12, 9};
Curve Loop(1) = {-1, 4, 3, -2};
Plane Surface(1) = {1};
Curve Loop(2) = {-5, 1, 7, -6};
Plane Surface(2) = {2};
Curve Loop(3) = {-2, 7, 9, -8, -10, -11};
Plane Surface(3) = {3};
Curve Loop(4) = {-12, 3, 8, -13};
Plane Surface(4) = {4};
Curve Loop(5) = {-4, 5, 14, -12, -15, -16};
Plane Surface(5) = {5};
Curve Loop(6) = {-6, 14, 13, -9};
Plane Surface(6) = {6};
Curve Loop(7) = {-10, -17, 15, 17};
Surface(7) = {7};
Curve Loop(8) = {-11, -18, 16, 18};
Surface(8) = {8};
Surface Loop(1) = {1, 2, 3, 4, 5, 6, 7, 8};
Volume(1) = {1};
Physical Surface("INFLOW") = {1};
Physical Surface("OUTFLOW") = {6};
Physical Surface("OBSTACLE") = {7, 8};
Physical Surface("WALL_Y") = {2, 4};
Physical Surface("WALL_Z") = {3, 5};
Physical Volume("FLUID") = {1};
