cl__1 = 1;
cl__2 = 0.118087;
cl__3 = 0.114147;
Point(1) = {0.029763, -4.612224, 1, cl__1};
Point(2) = {0.029763, -4.612224, 0, cl__1};
Point(3) = {0.029763, 4.903393, 1, cl__1};
Point(4) = {0.029763, 4.903393, 0, cl__1};
Point(5) = {30.099487, -4.612224, 0, cl__1};
Point(6) = {30.099487, -4.612224, 1, cl__1};
Point(7) = {30.099487, 4.903393, 1, cl__1};
Point(8) = {10.082025, -0.9325040000000002, 1, cl__2};
Point(9) = {23.992767, 1.524175, 1, cl__3};
Point(10) = {30.099487, 4.903393, 0, cl__1};
Point(11) = {10.082025, -0.9325040000000002, 0, cl__2};
Point(12) = {23.992767, 1.524175, 0, cl__3};
Line(1) = {2, 1};
Line(2) = {1, 3};
Line(3) = {4, 3};
Line(4) = {2, 4};
Line(5) = {2, 5};
Line(6) = {5, 6};
Line(7) = {1, 6};
Line(8) = {3, 7};
Line(9) = {6, 7};
p10 = newp;
Point(p10 + 1) = {10.06748651844692, -0.7477750768334775, 1};
Point(p10 + 2) = {10.02422905945397, -0.5675947928354614, 1};
Point(p10 + 3) = {9.953317765224842, -0.3963997845820617, 1};
Point(p10 + 4) = {9.856498707164539, -0.238405441340135, 1};
Point(p10 + 5) = {9.73615589180654, -0.0975021081934605, 1};
Point(p10 + 6) = {9.595252558659865, 0.02284070716453857, 1};
Point(p10 + 7) = {9.437258215417938, 0.1196597652248421, 1};
Point(p10 + 8) = {9.266063207164539, 0.1905710594539742, 1};
Point(p10 + 9) = {9.085882923166523, 0.2338285184469209, 1};
Point(p10 + 10) = {8.901154, 0.248367, 1};
Point(p10 + 11) = {8.716425076833477, 0.2338285184469209, 1};
Point(p10 + 12) = {8.536244792835461, 0.1905710594539745, 1};
Point(p10 + 13) = {8.365049784582062, 0.1196597652248421, 1};
Point(p10 + 14) = {8.207055441340135, 0.02284070716453857, 1};
Point(p10 + 15) = {8.06615210819346, -0.09750210819346039, 1};
Point(p10 + 16) = {7.945809292835461, -0.2384054413401349, 1};
Point(p10 + 17) = {7.848990234775158, -0.3963997845820616, 1};
Point(p10 + 18) = {7.778078940546026, -0.5675947928354614, 1};
Point(p10 + 19) = {7.734821481553079, -0.7477750768334774, 1};
Point(p10 + 20) = {7.720283, -0.9325039999999999, 1};
Point(p10 + 21) = {7.734821481553079, -1.117232923166522, 1};
Point(p10 + 22) = {7.778078940546026, -1.297413207164539, 1};
Point(p10 + 23) = {7.848990234775157, -1.468608215417938, 1};
Point(p10 + 24) = {7.945809292835461, -1.626602558659865, 1};
Point(p10 + 25) = {8.06615210819346, -1.76750589180654, 1};
Point(p10 + 26) = {8.207055441340135, -1.887848707164538, 1};
Point(p10 + 27) = {8.365049784582062, -1.984667765224842, 1};
Point(p10 + 28) = {8.536244792835461, -2.055579059453974, 1};
Point(p10 + 29) = {8.716425076833477, -2.098836518446921, 1};
Point(p10 + 30) = {8.901154, -2.113375, 1};
Point(p10 + 31) = {9.085882923166523, -2.098836518446921, 1};
Point(p10 + 32) = {9.266063207164539, -2.055579059453974, 1};
Point(p10 + 33) = {9.437258215417938, -1.984667765224842, 1};
Point(p10 + 34) = {9.595252558659865, -1.887848707164539, 1};
Point(p10 + 35) = {9.73615589180654, -1.76750589180654, 1};
Point(p10 + 36) = {9.856498707164539, -1.626602558659865, 1};
Point(p10 + 37) = {9.953317765224842, -1.468608215417939, 1};
Point(p10 + 38) = {10.02422905945397, -1.297413207164539, 1};
Point(p10 + 39) = {10.06748651844692, -1.117232923166523, 1};
Spline(10) = {8, p10 + 1, p10 + 2, p10 + 3, p10 + 4, p10 + 5, p10 + 6, p10 + 7, p10 + 8, p10 + 9, p10 + 10, p10 + 11, p10 + 12, p10 + 13, p10 + 14, p10 + 15, p10 + 16, p10 + 17, p10 + 18, p10 + 19, p10 + 20, p10 + 21, p10 + 22, p10 + 23, p10 + 24, p10 + 25, p10 + 26, p10 + 27, p10 + 28, p10 + 29, p10 + 30, p10 + 31, p10 + 32, p10 + 33, p10 + 34, p10 + 35, p10 + 36, p10 + 37, p10 + 38, p10 + 39, 8};
p11 = newp;
Point(p11 + 1) = {23.97871365938577, 1.702739623071612, 1};
Point(p11 + 2) = {23.93689967742936, 1.876907392501194, 1};
Point(p11 + 3) = {23.8683546531392, 2.042389719775702, 1};
Point(p11 + 4) = {23.77476639250119, 2.19511188079328, 1};
Point(p11 + 5) = {23.65843934909388, 2.331313349093884, 1};
Point(p11 + 6) = {23.52223788079328, 2.447640392501194, 1};
Point(p11 + 7) = {23.3695157197757, 2.5412286531392, 1};
Point(p11 + 8) = {23.2040333925012, 2.609773677429364, 1};
Point(p11 + 9) = {23.02986562307161, 2.65158765938577, 1};
Point(p11 + 10) = {22.851301, 2.665641, 1};
Point(p11 + 11) = {22.67273637692839, 2.651587659385769, 1};
Point(p11 + 12) = {22.49856860749881, 2.609773677429364, 1};
Point(p11 + 13) = {22.3330862802243, 2.5412286531392, 1};
Point(p11 + 14) = {22.18036411920672, 2.447640392501194, 1};
Point(p11 + 15) = {22.04416265090612, 2.331313349093884, 1};
Point(p11 + 16) = {21.92783560749881, 2.19511188079328, 1};
Point(p11 + 17) = {21.8342473468608, 2.042389719775702, 1};
Point(p11 + 18) = {21.76570232257064, 1.876907392501194, 1};
Point(p11 + 19) = {21.72388834061423, 1.702739623071612, 1};
Point(p11 + 20) = {21.709835, 1.524175, 1};
Point(p11 + 21) = {21.72388834061423, 1.345610376928388, 1};
Point(p11 + 22) = {21.76570232257064, 1.171442607498806, 1};
Point(p11 + 23) = {21.8342473468608, 1.005960280224299, 1};
Point(p11 + 24) = {21.92783560749881, 0.85323811920672, 1};
Point(p11 + 25) = {22.04416265090612, 0.7170366509061165, 1};
Point(p11 + 26) = {22.18036411920672, 0.6007096074988063, 1};
Point(p11 + 27) = {22.3330862802243, 0.5071213468608005, 1};
Point(p11 + 28) = {22.4985686074988, 0.4385763225706363, 1};
Point(p11 + 29) = {22.67273637692839, 0.3967623406142307, 1};
Point(p11 + 30) = {22.851301, 0.382709, 1};
Point(p11 + 31) = {23.02986562307161, 0.3967623406142304, 1};
Point(p11 + 32) = {23.20403339250119, 0.4385763225706361, 1};
Point(p11 + 33) = {23.3695157197757, 0.5071213468608005, 1};
Point(p11 + 34) = {23.52223788079328, 0.6007096074988061, 1};
Point(p11 + 35) = {23.65843934909388, 0.7170366509061161, 1};
Point(p11 + 36) = {23.77476639250119, 0.8532381192067197, 1};
Point(p11 + 37) = {23.8683546531392, 1.005960280224298, 1};
Point(p11 + 38) = {23.93689967742936, 1.171442607498806, 1};
Point(p11 + 39) = {23.97871365938577, 1.345610376928388, 1};
Spline(11) = {9, p11 + 1, p11 + 2, p11 + 3, p11 + 4, p11 + 5, p11 + 6, p11 + 7, p11 + 8, p11 + 9, p11 + 10, p11 + 11, p11 + 12, p11 + 13, p11 + 14, p11 + 15, p11 + 16, p11 + 17, p11 + 18, p11 + 19, p11 + 20, p11 + 21, p11 + 22, p11 + 23, p11 + 24, p11 + 25, p11 + 26, p11 + 27, p11 + 28, p11 + 29, p11 + 30, p11 + 31, p11 + 32, p11 + 33, p11 + 34, p11 + 35, p11 + 36, p11 + 37, p11 + 38, p11 + 39, 9};
Line(12) = {4, 10};
Line(13) = {10, 7};
Line(14) = {5, 10};
p15 = newp;
Point(p15 + 1) = {10.06748651844692, -0.7477750768334775, 0};
Point(p15 + 2) = {10.02422905945397, -0.5675947928354614, 0};
Point(p15 + 3) = {9.953317765224842, -0.3963997845820617, 0};
Point(p15 + 4) = {9.856498707164539, -0.238405441340135, 0};
Point(p15 + 5) = {9.73615589180654, -0.0975021081934605, 0};
Point(p15 + 6) = {9.595252558659865, 0.02284070716453857, 0};
Point(p15 + 7) = {9.437258215417938, 0.1196597652248421, 0};
Point(p15 + 8) = {9.266063207164539, 0.1905710594539742, 0};
Point(p15 + 9) = {9.085882923166523, 0.2338285184469209, 0};
Point(p15 + 10) = {8.901154, 0.248367, 0};
Point(p15 + 11) = {8.716425076833477, 0.2338285184469209, 0};
Point(p15 + 12) = {8.536244792835461, 0.1905710594539745, 0};
Point(p15 + 13) = {8.365049784582062, 0.1196597652248421, 0};
Point(p15 + 14) = {8.207055441340135, 0.02284070716453857, 0};
Point(p15 + 15) = {8.06615210819346, -0.09750210819346039, 0};
Point(p15 + 16) = {7.945809292835461, -0.2384054413401349, 0};
Point(p15 + 17) = {7.848990234775158, -0.3963997845820616, 0};
Point(p15 + 18) = {7.778078940546026, -0.5675947928354614, 0};
Point(p15 + 19) = {7.734821481553079, -0.7477750768334774, 0};
Point(p15 + 20) = {7.720283, -0.9325039999999999, 0};
Point(p15 + 21) = {7.734821481553079, -1.117232923166522, 0};
Point(p15 + 22) = {7.778078940546026, -1.297413207164539, 0};
Point(p15 + 23) = {7.848990234775157, -1.468608215417938, 0};
Point(p15 + 24) = {7.945809292835461, -1.626602558659865, 0};
Point(p15 + 25) = {8.06615210819346, -1.76750589180654, 0};
Point(p15 + 26) = {8.207055441340135, -1.887848707164538, 0};
Point(p15 + 27) = {8.365049784582062, -1.984667765224842, 0};
Point(p15 + 28) = {8.536244792835461, -2.055579059453974, 0};
Point(p15 + 29) = {8.716425076833477, -2.098836518446921, 0};
Point(p15 + 30) = {8.901154, -2.113375, 0};
Point(p15 + 31) = {9.085882923166523, -2.098836518446921, 0};
Point(p15 + 32) = {9.266063207164539, -2.055579059453974, 0};
Point(p15 + 33) = {9.437258215417938, -1.984667765224842, 0};
Point(p15 + 34) = {9.595252558659865, -1.887848707164539, 0};
Point(p15 + 35) = {9.73615589180654, -1.76750589180654, 0};
Point(p15 + 36) = {9.856498707164539, -1.626602558659865, 0};
Point(p15 + 37) = {9.953317765224842, -1.468608215417939, 0};
Point(p15 + 38) = {10.02422905945397, -1.297413207164539, 0};
Point(p15 + 39) = {10.06748651844692, -1.117232923166523, 0};
Spline(15) = {11, p15 + 1, p15 + 2, p15 + 3, p15 + 4, p15 + 5, p15 + 6, p15 + 7, p15 + 8, p15 + 9, p15 + 10, p15 + 11, p15 + 12, p15 + 13, p15 + 14, p15 + 15, p15 + 16, p15 + 17, p15 + 18, p15 + 19, p15 + 20, p15 + 21, p15 + 22, p15 + 23, p15 + 24, p15 + 25, p15 + 26, p15 + 27, p15 + 28, p15 + 29, p15 + 30, p15 + 31, p15 + 32, p15 + 33, p15 + 34, p15 + 35, p15 + 36, p15 + 37, p15 + 38, p15 + 39, 11};
p16 = newp;
Point(p16 + 1) = {23.97871365938577, 1.702739623071612, 0};
Point(p16 + 2) = {23.93689967742936, 1.876907392501194, 0};
Point(p16 + 3) = {23.8683546531392, 2.042389719775702, 0};
Point(p16 + 4) = {23.77476639250119, 2.19511188079328, 0};
Point(p16 + 5) = {23.65843934909388, 2.331313349093884, 0};
Point(p16 + 6) = {23.52223788079328, 2.447640392501194, 0};
Point(p16 + 7) = {23.3695157197757, 2.5412286531392, 0};
Point(p16 + 8) = {23.2040333925012, 2.609773677429364, 0};
Point(p16 + 9) = {23.02986562307161, 2.65158765938577, 0};
Point(p16 + 10) = {22.851301, 2.665641, 0};
Point(p16 + 11) = {22.67273637692839, 2.651587659385769, 0};
Point(p16 + 12) = {22.49856860749881, 2.609773677429364, 0};
Point(p16 + 13) = {22.3330862802243, 2.5412286531392, 0};
Point(p16 + 14) = {22.18036411920672, 2.447640392501194, 0};
Point(p16 + 15) = {22.04416265090612, 2.331313349093884, 0};
Point(p16 + 16) = {21.92783560749881, 2.19511188079328, 0};
Point(p16 + 17) = {21.8342473468608, 2.042389719775702, 0};
Point(p16 + 18) = {21.76570232257064, 1.876907392501194, 0};
Point(p16 + 19) = {21.72388834061423, 1.702739623071612, 0};
Point(p16 + 20) = {21.709835, 1.524175, 0};
Point(p16 + 21) = {21.72388834061423, 1.345610376928388, 0};
Point(p16 + 22) = {21.76570232257064, 1.171442607498806, 0};
Point(p16 + 23) = {21.8342473468608, 1.005960280224299, 0};
Point(p16 + 24) = {21.92783560749881, 0.85323811920672, 0};
Point(p16 + 25) = {22.04416265090612, 0.7170366509061165, 0};
Point(p16 + 26) = {22.18036411920672, 0.6007096074988063, 0};
Point(p16 + 27) = {22.3330862802243, 0.5071213468608005, 0};
Point(p16 + 28) = {22.4985686074988, 0.4385763225706363, 0};
Point(p16 + 29) = {22.67273637692839, 0.3967623406142307, 0};
Point(p16 + 30) = {22.851301, 0.382709, 0};
Point(p16 + 31) = {23.02986562307161, 0.3967623406142304, 0};
Point(p16 + 32) = {23.20403339250119, 0.4385763225706361, 0};
Point(p16 + 33) = {23.3695157197757, 0.5071213468608005, 0};
Point(p16 + 34) = {23.52223788079328, 0.6007096074988061, 0};
Point(p16 + 35) = {23.65843934909388, 0.7170366509061161, 0};
Point(p16 + 36) = {23.77476639250119, 0.8532381192067197, 0};
Point(p16 + 37) = {23.8683546531392, 1.005960280224298, 0};
Point(p16 + 38) = {23.93689967742936, 1.171442607498806, 0};
Point(p16 + 39) = {23.97871365938577, 1.345610376928388, 0};
Spline(16) = {12, p16 + 1, p16 + 2, p16 + 3, p16 + 4, p16 + 5, p16 + 6, p16 + 7, p16 + 8, p16 + 9, p16 + 10, p16 + 11, p16 + 12, p16 + 13, p16 + 14, p16 + 15, p16 + 16, p16 + 17, p16 + 18, p16 + 19, p16 + 20, p16 + 21, p16 + 22, p16 + 23, p16 + 24, p16 + 25, p16 + 26, p16 + 27, p16 + 28, p16 + 29, p16 + 30, p16 + 31, p16 + 32, p16 + 33, p16 + 34, p16 + 35, p16 + 36, p16 + 37, p16 + 38, p16 + 39, 12};
Line(17) = {11, 8};
Line(18) = {12, 9};
Curve Loop(1) = {-1, 4, 3, -2};
Plane Surface(1) = {1};
Curve Loop(2) = {-5, 1, 7, -6};
Plane Surface(2) = {2};
Curve Loop(3) = {-2, 7, 9, -8, -10, -11};
Plane Surface(3) = {3};
Curve Loop(4) = {-12, 3, 8, -13};
Plane Surface(4) = {4};
Curve Loop(5) = {-4, 5, 14, -12, -15, -16};
Plane Surface(5) = {5};
Curve Loop(6) = {-6, 14, 13, -9};
Plane Surface(6) = {6};
Curve Loop(7) = {-10, -17, 15, 17};
Surface(7) = {7};
Curve Loop(8) = {-11, -18, 16, 18};
Surface(8) = {8};
Surface Loop(1) = {1, 2, 3, 4, 5, 6, 7, 8};
Volume(1) = {1};
Physical Surface("INFLOW") = {1};
Physical Surface("OUTFLOW") = {6};
Physical Surface("OBSTACLE") = {7, 8};
Physical Surface("WALL_Y") = {2, 4};
Physical Surface("WALL_Z") = {3, 5};
Physical Volume("FLUID") = {1};
