cl__1 = 3.510036;
cl__2 = 1.727192;
cl__3 = 1.572962;
cl__4 = 0.102234;
cl__5 = 0.06433;
Point(1) = {0.443774, -4.350133, 1, cl__1};
Point(2) = {0.443774, -4.350133, 0, cl__1};
Point(3) = {0.443774, 4.400003, 1, cl__2};
Point(4) = {0.443774, 4.400003, 0, cl__2};
Point(5) = {34.826632, -4.350133, 0, cl__3};
Point(6) = {34.826632, -4.350133, 1, cl__3};
Point(7) = {34.826632, 4.400003, 1, cl__2};
Point(8) = {17.0206, 1.869706, 1, cl__4};
Point(9) = {18.879493, 2.410953, 1, cl__5};
Point(10) = {34.826632, 4.400003, 0, cl__2};
Point(11) = {17.0206, 1.869706, 0, cl__4};
Point(12) = {18.879493, 2.410953, 0, cl__5};
Line(1) = {2, 1};
Line(2) = {1, 3};
Line(3) = {4, 3};
Line(4) = {2, 4};
Line(5) = {2, 5};
Line(6) = {5, 6};
Line(7) = {1, 6};
Line(8) = {3, 7};
Line(9) = {6, 7};
p10 = newp;
Point(p10 + 1) = {17.00801323656574, 2.029635993161555, 1};
Point(p10 + 2) = {16.97056287415177, 2.185627979114256, 1};
Point(p10 + 3) = {16.90917106497136, 2.333840917456227, 1};
Point(p10 + 4) = {16.82534947911426, 2.470625313754948, 1};
Point(p10 + 5) = {16.72116208221216, 2.592613082212161, 1};
Point(p10 + 6) = {16.59917431375495, 2.696800479114256, 1};
Point(p10 + 7) = {16.46238991745623, 2.780622064971357, 1};
Point(p10 + 8) = {16.31417697911425, 2.842013874151769, 1};
Point(p10 + 9) = {16.15818499316156, 2.879464236565736, 1};
Point(p10 + 10) = {15.998255, 2.892051, 1};
Point(p10 + 11) = {15.83832500683845, 2.879464236565736, 1};
Point(p10 + 12) = {15.68233302088574, 2.842013874151769, 1};
Point(p10 + 13) = {15.53412008254377, 2.780622064971357, 1};
Point(p10 + 14) = {15.39733568624505, 2.696800479114256, 1};
Point(p10 + 15) = {15.27534791778784, 2.592613082212161, 1};
Point(p10 + 16) = {15.17116052088575, 2.470625313754949, 1};
Point(p10 + 17) = {15.08733893502864, 2.333840917456227, 1};
Point(p10 + 18) = {15.02594712584823, 2.185627979114256, 1};
Point(p10 + 19) = {14.98849676343426, 2.029635993161555, 1};
Point(p10 + 20) = {14.97591, 1.869706, 1};
Point(p10 + 21) = {14.98849676343426, 1.709776006838445, 1};
Point(p10 + 22) = {15.02594712584823, 1.553784020885744, 1};
Point(p10 + 23) = {15.08733893502864, 1.405571082543774, 1};
Point(p10 + 24) = {15.17116052088574, 1.268786686245052, 1};
Point(p10 + 25) = {15.27534791778784, 1.146798917787839, 1};
Point(p10 + 26) = {15.39733568624505, 1.042611520885744, 1};
Point(p10 + 27) = {15.53412008254377, 0.9587899350286432, 1};
Point(p10 + 28) = {15.68233302088574, 0.8973981258482313, 1};
Point(p10 + 29) = {15.83832500683845, 0.859947763434264, 1};
Point(p10 + 30) = {15.998255, 0.847361, 1};
Point(p10 + 31) = {16.15818499316156, 0.8599477634342638, 1};
Point(p10 + 32) = {16.31417697911425, 0.8973981258482312, 1};
Point(p10 + 33) = {16.46238991745623, 0.9587899350286431, 1};
Point(p10 + 34) = {16.59917431375495, 1.042611520885744, 1};
Point(p10 + 35) = {16.72116208221216, 1.146798917787839, 1};
Point(p10 + 36) = {16.82534947911426, 1.268786686245051, 1};
Point(p10 + 37) = {16.90917106497136, 1.405571082543773, 1};
Point(p10 + 38) = {16.97056287415177, 1.553784020885744, 1};
Point(p10 + 39) = {17.00801323656574, 1.709776006838445, 1};
Spline(10) = {8, p10 + 1, p10 + 2, p10 + 3, p10 + 4, p10 + 5, p10 + 6, p10 + 7, p10 + 8, p10 + 9, p10 + 10, p10 + 11, p10 + 12, p10 + 13, p10 + 14, p10 + 15, p10 + 16, p10 + 17, p10 + 18, p10 + 19, p10 + 20, p10 + 21, p10 + 22, p10 + 23, p10 + 24, p10 + 25, p10 + 26, p10 + 27, p10 + 28, p10 + 29, p10 + 30, p10 + 31, p10 + 32, p10 + 33, p10 + 34, p10 + 35, p10 + 36, p10 + 37, p10 + 38, p10 + 39, 8};
p11 = newp;
Point(p11 + 1) = {18.87157297106315, 2.511586509188056, 1};
Point(p11 + 2) = {18.84800790165009, 2.609742087396432, 1};
Point(p11 + 3) = {18.80937804197776, 2.703002818529952, 1};
Point(p11 + 4) = {18.75663458739643, 2.789072313873487, 1};
Point(p11 + 5) = {18.6910762568034, 2.8658312568034, 1};
Point(p11 + 6) = {18.61431731387349, 2.931389587396432, 1};
Point(p11 + 7) = {18.52824781852995, 2.984133041977756, 1};
Point(p11 + 8) = {18.43498708739643, 3.022762901650091, 1};
Point(p11 + 9) = {18.33683150918806, 3.046327971063149, 1};
Point(p11 + 10) = {18.236198, 3.054248, 1};
Point(p11 + 11) = {18.13556449081195, 3.046327971063149, 1};
Point(p11 + 12) = {18.03740891260357, 3.022762901650091, 1};
Point(p11 + 13) = {17.94414818147005, 2.984133041977756, 1};
Point(p11 + 14) = {17.85807868612651, 2.931389587396432, 1};
Point(p11 + 15) = {17.7813197431966, 2.8658312568034, 1};
Point(p11 + 16) = {17.71576141260357, 2.789072313873487, 1};
Point(p11 + 17) = {17.66301795802224, 2.703002818529952, 1};
Point(p11 + 18) = {17.62438809834991, 2.609742087396432, 1};
Point(p11 + 19) = {17.60082302893685, 2.511586509188056, 1};
Point(p11 + 20) = {17.592903, 2.410953, 1};
Point(p11 + 21) = {17.60082302893685, 2.310319490811945, 1};
Point(p11 + 22) = {17.62438809834991, 2.212163912603568, 1};
Point(p11 + 23) = {17.66301795802224, 2.118903181470049, 1};
Point(p11 + 24) = {17.71576141260357, 2.032833686126514, 1};
Point(p11 + 25) = {17.7813197431966, 1.9560747431966, 1};
Point(p11 + 26) = {17.85807868612651, 1.890516412603569, 1};
Point(p11 + 27) = {17.94414818147005, 1.837772958022244, 1};
Point(p11 + 28) = {18.03740891260357, 1.799143098349909, 1};
Point(p11 + 29) = {18.13556449081195, 1.775578028936851, 1};
Point(p11 + 30) = {18.236198, 1.767658, 1};
Point(p11 + 31) = {18.33683150918806, 1.775578028936851, 1};
Point(p11 + 32) = {18.43498708739643, 1.799143098349909, 1};
Point(p11 + 33) = {18.52824781852995, 1.837772958022244, 1};
Point(p11 + 34) = {18.61431731387349, 1.890516412603568, 1};
Point(p11 + 35) = {18.6910762568034, 1.9560747431966, 1};
Point(p11 + 36) = {18.75663458739643, 2.032833686126513, 1};
Point(p11 + 37) = {18.80937804197776, 2.118903181470048, 1};
Point(p11 + 38) = {18.84800790165009, 2.212163912603568, 1};
Point(p11 + 39) = {18.87157297106315, 2.310319490811945, 1};
Spline(11) = {9, p11 + 1, p11 + 2, p11 + 3, p11 + 4, p11 + 5, p11 + 6, p11 + 7, p11 + 8, p11 + 9, p11 + 10, p11 + 11, p11 + 12, p11 + 13, p11 + 14, p11 + 15, p11 + 16, p11 + 17, p11 + 18, p11 + 19, p11 + 20, p11 + 21, p11 + 22, p11 + 23, p11 + 24, p11 + 25, p11 + 26, p11 + 27, p11 + 28, p11 + 29, p11 + 30, p11 + 31, p11 + 32, p11 + 33, p11 + 34, p11 + 35, p11 + 36, p11 + 37, p11 + 38, p11 + 39, 9};
Line(12) = {4, 10};
Line(13) = {10, 7};
Line(14) = {5, 10};
p15 = newp;
Point(p15 + 1) = {17.00801323656574, 2.029635993161555, 0};
Point(p15 + 2) = {16.97056287415177, 2.185627979114256, 0};
Point(p15 + 3) = {16.90917106497136, 2.333840917456227, 0};
Point(p15 + 4) = {16.82534947911426, 2.470625313754948, 0};
Point(p15 + 5) = {16.72116208221216, 2.592613082212161, 0};
Point(p15 + 6) = {16.59917431375495, 2.696800479114256, 0};
Point(p15 + 7) = {16.46238991745623, 2.780622064971357, 0};
Point(p15 + 8) = {16.31417697911425, 2.842013874151769, 0};
Point(p15 + 9) = {16.15818499316156, 2.879464236565736, 0};
Point(p15 + 10) = {15.998255, 2.892051, 0};
Point(p15 + 11) = {15.83832500683845, 2.879464236565736, 0};
Point(p15 + 12) = {15.68233302088574, 2.842013874151769, 0};
Point(p15 + 13) = {15.53412008254377, 2.780622064971357, 0};
Point(p15 + 14) = {15.39733568624505, 2.696800479114256, 0};
Point(p15 + 15) = {15.27534791778784, 2.592613082212161, 0};
Point(p15 + 16) = {15.17116052088575, 2.470625313754949, 0};
Point(p15 + 17) = {15.08733893502864, 2.333840917456227, 0};
Point(p15 + 18) = {15.02594712584823, 2.185627979114256, 0};
Point(p15 + 19) = {14.98849676343426, 2.029635993161555, 0};
Point(p15 + 20) = {14.97591, 1.869706, 0};
Point(p15 + 21) = {14.98849676343426, 1.709776006838445, 0};
Point(p15 + 22) = {15.02594712584823, 1.553784020885744, 0};
Point(p15 + 23) = {15.08733893502864, 1.405571082543774, 0};
Point(p15 + 24) = {15.17116052088574, 1.268786686245052, 0};
Point(p15 + 25) = {15.27534791778784, 1.146798917787839, 0};
Point(p15 + 26) = {15.39733568624505, 1.042611520885744, 0};
Point(p15 + 27) = {15.53412008254377, 0.9587899350286432, 0};
Point(p15 + 28) = {15.68233302088574, 0.8973981258482313, 0};
Point(p15 + 29) = {15.83832500683845, 0.859947763434264, 0};
Point(p15 + 30) = {15.998255, 0.847361, 0};
Point(p15 + 31) = {16.15818499316156, 0.8599477634342638, 0};
Point(p15 + 32) = {16.31417697911425, 0.8973981258482312, 0};
Point(p15 + 33) = {16.46238991745623, 0.9587899350286431, 0};
Point(p15 + 34) = {16.59917431375495, 1.042611520885744, 0};
Point(p15 + 35) = {16.72116208221216, 1.146798917787839, 0};
Point(p15 + 36) = {16.82534947911426, 1.268786686245051, 0};
Point(p15 + 37) = {16.90917106497136, 1.405571082543773, 0};
Point(p15 + 38) = {16.97056287415177, 1.553784020885744, 0};
Point(p15 + 39) = {17.00801323656574, 1.709776006838445, 0};
Spline(15) = {11, p15 + 1, p15 + 2, p15 + 3, p15 + 4, p15 + 5, p15 + 6, p15 + 7, p15 + 8, p15 + 9, p15 + 10, p15 + 11, p15 + 12, p15 + 13, p15 + 14, p15 + 15, p15 + 16, p15 + 17, p15 + 18, p15 + 19, p15 + 20, p15 + 21, p15 + 22, p15 + 23, p15 + 24, p15 + 25, p15 + 26, p15 + 27, p15 + 28, p15 + 29, p15 + 30, p15 + 31, p15 + 32, p15 + 33, p15 + 34, p15 + 35, p15 + 36, p15 + 37, p15 + 38, p15 + 39, 11};
p16 = newp;
Point(p16 + 1) = {18.87157297106315, 2.511586509188056, 0};
Point(p16 + 2) = {18.84800790165009, 2.609742087396432, 0};
Point(p16 + 3) = {18.80937804197776, 2.703002818529952, 0};
Point(p16 + 4) = {18.75663458739643, 2.789072313873487, 0};
Point(p16 + 5) = {18.6910762568034, 2.8658312568034, 0};
Point(p16 + 6) = {18.61431731387349, 2.931389587396432, 0};
Point(p16 + 7) = {18.52824781852995, 2.984133041977756, 0};
Point(p16 + 8) = {18.43498708739643, 3.022762901650091, 0};
Point(p16 + 9) = {18.33683150918806, 3.046327971063149, 0};
Point(p16 + 10) = {18.236198, 3.054248, 0};
Point(p16 + 11) = {18.13556449081195, 3.046327971063149, 0};
Point(p16 + 12) = {18.03740891260357, 3.022762901650091, 0};
Point(p16 + 13) = {17.94414818147005, 2.984133041977756, 0};
Point(p16 + 14) = {17.85807868612651, 2.931389587396432, 0};
Point(p16 + 15) = {17.7813197431966, 2.8658312568034, 0};
Point(p16 + 16) = {17.71576141260357, 2.789072313873487, 0};
Point(p16 + 17) = {17.66301795802224, 2.703002818529952, 0};
Point(p16 + 18) = {17.62438809834991, 2.609742087396432, 0};
Point(p16 + 19) = {17.60082302893685, 2.511586509188056, 0};
Point(p16 + 20) = {17.592903, 2.410953, 0};
Point(p16 + 21) = {17.60082302893685, 2.310319490811945, 0};
Point(p16 + 22) = {17.62438809834991, 2.212163912603568, 0};
Point(p16 + 23) = {17.66301795802224, 2.118903181470049, 0};
Point(p16 + 24) = {17.71576141260357, 2.032833686126514, 0};
Point(p16 + 25) = {17.7813197431966, 1.9560747431966, 0};
Point(p16 + 26) = {17.85807868612651, 1.890516412603569, 0};
Point(p16 + 27) = {17.94414818147005, 1.837772958022244, 0};
Point(p16 + 28) = {18.03740891260357, 1.799143098349909, 0};
Point(p16 + 29) = {18.13556449081195, 1.775578028936851, 0};
Point(p16 + 30) = {18.236198, 1.767658, 0};
Point(p16 + 31) = {18.33683150918806, 1.775578028936851, 0};
Point(p16 + 32) = {18.43498708739643, 1.799143098349909, 0};
Point(p16 + 33) = {18.52824781852995, 1.837772958022244, 0};
Point(p16 + 34) = {18.61431731387349, 1.890516412603568, 0};
Point(p16 + 35) = {18.6910762568034, 1.9560747431966, 0};
Point(p16 + 36) = {18.75663458739643, 2.032833686126513, 0};
Point(p16 + 37) = {18.80937804197776, 2.118903181470048, 0};
Point(p16 + 38) = {18.84800790165009, 2.212163912603568, 0};
Point(p16 + 39) = {18.87157297106315, 2.310319490811945, 0};
Spline(16) = {12, p16 + 1, p16 + 2, p16 + 3, p16 + 4, p16 + 5, p16 + 6, p16 + 7, p16 + 8, p16 + 9, p16 + 10, p16 + 11, p16 + 12, p16 + 13, p16 + 14, p16 + 15, p16 + 16, p16 + 17, p16 + 18, p16 + 19, p16 + 20, p16 + 21, p16 + 22, p16 + 23, p16 + 24, p16 + 25, p16 + 26, p16 + 27, p16 + 28, p16 + 29, p16 + 30, p16 + 31, p16 + 32, p16 + 33, p16 + 34, p16 + 35, p16 + 36, p16 + 37, p16 + 38, p16 + 39, 12};
Line(17) = {11, 8};
Line(18) = {12, 9};
Curve Loop(1) = {-1, 4, 3, -2};
Plane Surface(1) = {1};
Curve Loop(2) = {-5, 1, 7, -6};
Plane Surface(2) = {2};
Curve Loop(3) = {-2, 7, 9, -8, -10, -11};
Plane Surface(3) = {3};
Curve Loop(4) = {-12, 3, 8, -13};
Plane Surface(4) = {4};
Curve Loop(5) = {-4, 5, 14, -12, -15, -16};
Plane Surface(5) = {5};
Curve Loop(6) = {-6, 14, 13, -9};
Plane Surface(6) = {6};
Curve Loop(7) = {-10, -17, 15, 17};
Surface(7) = {7};
Curve Loop(8) = {-11, -18, 16, 18};
Surface(8) = {8};
Surface Loop(1) = {1, 2, 3, 4, 5, 6, 7, 8};
Volume(1) = {1};
Physical Surface("INFLOW") = {1};
Physical Surface("OUTFLOW") = {6};
Physical Surface("OBSTACLE") = {7, 8};
Physical Surface("WALL_Y") = {2, 4};
Physical Surface("WALL_Z") = {3, 5};
Physical Volume("FLUID") = {1};
