cl__1 = 0.903134;
cl__2 = 1.041974;
cl__3 = 4.021933;
cl__4 = 0.110084;
cl__5 = 0.068188;
Point(1) = {0.08574900000000001, -4.384925, 1, cl__1};
Point(2) = {0.08574900000000001, -4.384925, 0, cl__1};
Point(3) = {0.08574900000000001, 5.283331, 1, cl__2};
Point(4) = {0.08574900000000001, 5.283331, 0, cl__2};
Point(5) = {39.927759, -4.384925, 0, cl__1};
Point(6) = {39.927759, -4.384925, 1, cl__1};
Point(7) = {39.927759, 5.283331, 1, cl__3};
Point(8) = {7.911188, 3.19404, 1, cl__4};
Point(9) = {32.409122, 3.098223, 1, cl__5};
Point(10) = {39.927759, 5.283331, 0, cl__3};
Point(11) = {7.911188, 3.19404, 0, cl__4};
Point(12) = {32.409122, 3.098223, 0, cl__5};
Line(1) = {2, 1};
Line(2) = {1, 3};
Line(3) = {4, 3};
Line(4) = {2, 4};
Line(5) = {2, 5};
Line(6) = {5, 6};
Line(7) = {1, 6};
Line(8) = {3, 7};
Line(9) = {6, 7};
p10 = newp;
Point(p10 + 1) = {7.897634845172411, 3.366249160060423, 1};
Point(p10 + 2) = {7.857309104341841, 3.534217959070723, 1};
Point(p10 + 3) = {7.791203731080999, 3.693810447742783, 1};
Point(p10 + 4) = {7.700946459070723, 3.841096929348394, 1};
Point(p10 + 5) = {7.588759721894618, 3.972450721894618, 1};
Point(p10 + 6) = {7.457405929348394, 4.084637459070723, 1};
Point(p10 + 7) = {7.310119447742784, 4.174894731080999, 1};
Point(p10 + 8) = {7.150526959070723, 4.241000104341841, 1};
Point(p10 + 9) = {6.982558160060423, 4.281325845172411, 1};
Point(p10 + 10) = {6.810349, 4.294879, 1};
Point(p10 + 11) = {6.638139839939577, 4.281325845172411, 1};
Point(p10 + 12) = {6.470171040929277, 4.241000104341841, 1};
Point(p10 + 13) = {6.310578552257217, 4.174894731080999, 1};
Point(p10 + 14) = {6.163292070651607, 4.084637459070723, 1};
Point(p10 + 15) = {6.031938278105383, 3.972450721894618, 1};
Point(p10 + 16) = {5.919751540929278, 3.841096929348394, 1};
Point(p10 + 17) = {5.829494268919002, 3.693810447742783, 1};
Point(p10 + 18) = {5.76338889565816, 3.534217959070723, 1};
Point(p10 + 19) = {5.72306315482759, 3.366249160060423, 1};
Point(p10 + 20) = {5.709510000000001, 3.19404, 1};
Point(p10 + 21) = {5.72306315482759, 3.021830839939578, 1};
Point(p10 + 22) = {5.76338889565816, 2.853862040929277, 1};
Point(p10 + 23) = {5.829494268919001, 2.694269552257218, 1};
Point(p10 + 24) = {5.919751540929278, 2.546983070651606, 1};
Point(p10 + 25) = {6.031938278105383, 2.415629278105382, 1};
Point(p10 + 26) = {6.163292070651607, 2.303442540929278, 1};
Point(p10 + 27) = {6.310578552257217, 2.213185268919002, 1};
Point(p10 + 28) = {6.470171040929277, 2.14707989565816, 1};
Point(p10 + 29) = {6.638139839939577, 2.106754154827589, 1};
Point(p10 + 30) = {6.810349, 2.093201000000001, 1};
Point(p10 + 31) = {6.982558160060423, 2.106754154827589, 1};
Point(p10 + 32) = {7.150526959070723, 2.14707989565816, 1};
Point(p10 + 33) = {7.310119447742784, 2.213185268919001, 1};
Point(p10 + 34) = {7.457405929348394, 2.303442540929277, 1};
Point(p10 + 35) = {7.588759721894618, 2.415629278105382, 1};
Point(p10 + 36) = {7.700946459070723, 2.546983070651606, 1};
Point(p10 + 37) = {7.791203731080999, 2.694269552257217, 1};
Point(p10 + 38) = {7.857309104341841, 2.853862040929277, 1};
Point(p10 + 39) = {7.897634845172411, 3.021830839939577, 1};
Spline(10) = {8, p10 + 1, p10 + 2, p10 + 3, p10 + 4, p10 + 5, p10 + 6, p10 + 7, p10 + 8, p10 + 9, p10 + 10, p10 + 11, p10 + 12, p10 + 13, p10 + 14, p10 + 15, p10 + 16, p10 + 17, p10 + 18, p10 + 19, p10 + 20, p10 + 21, p10 + 22, p10 + 23, p10 + 24, p10 + 25, p10 + 26, p10 + 27, p10 + 28, p10 + 29, p10 + 30, p10 + 31, p10 + 32, p10 + 33, p10 + 34, p10 + 35, p10 + 36, p10 + 37, p10 + 38, p10 + 39, 8};
p11 = newp;
Point(p11 + 1) = {32.40072687643838, 3.204893158759493, 1};
Point(p11 + 2) = {32.3757482215574, 3.308936744192366, 1};
Point(p11 + 3) = {32.33480109273966, 3.407791857924401, 1};
Point(p11 + 4) = {32.27889374419237, 3.499024358974201, 1};
Point(p11 + 5) = {32.20940280038261, 3.580387800382608, 1};
Point(p11 + 6) = {32.1280393589742, 3.649878744192367, 1};
Point(p11 + 7) = {32.0368068579244, 3.705786092739661, 1};
Point(p11 + 8) = {31.93795174419237, 3.746733221557404, 1};
Point(p11 + 9) = {31.83390815875949, 3.771711876438375, 1};
Point(p11 + 10) = {31.727238, 3.780107, 1};
Point(p11 + 11) = {31.62056784124051, 3.771711876438375, 1};
Point(p11 + 12) = {31.51652425580763, 3.746733221557404, 1};
Point(p11 + 13) = {31.4176691420756, 3.705786092739661, 1};
Point(p11 + 14) = {31.3264366410258, 3.649878744192367, 1};
Point(p11 + 15) = {31.24507319961739, 3.580387800382608, 1};
Point(p11 + 16) = {31.17558225580763, 3.499024358974201, 1};
Point(p11 + 17) = {31.11967490726034, 3.407791857924401, 1};
Point(p11 + 18) = {31.07872777844259, 3.308936744192366, 1};
Point(p11 + 19) = {31.05374912356163, 3.204893158759493, 1};
Point(p11 + 20) = {31.045354, 3.098223, 1};
Point(p11 + 21) = {31.05374912356163, 2.991552841240507, 1};
Point(p11 + 22) = {31.07872777844259, 2.887509255807633, 1};
Point(p11 + 23) = {31.11967490726034, 2.788654142075599, 1};
Point(p11 + 24) = {31.17558225580763, 2.697421641025799, 1};
Point(p11 + 25) = {31.24507319961739, 2.616058199617392, 1};
Point(p11 + 26) = {31.3264366410258, 2.546567255807633, 1};
Point(p11 + 27) = {31.4176691420756, 2.490659907260339, 1};
Point(p11 + 28) = {31.51652425580763, 2.449712778442596, 1};
Point(p11 + 29) = {31.62056784124051, 2.424734123561625, 1};
Point(p11 + 30) = {31.727238, 2.416339, 1};
Point(p11 + 31) = {31.83390815875949, 2.424734123561625, 1};
Point(p11 + 32) = {31.93795174419236, 2.449712778442596, 1};
Point(p11 + 33) = {32.0368068579244, 2.490659907260339, 1};
Point(p11 + 34) = {32.1280393589742, 2.546567255807633, 1};
Point(p11 + 35) = {32.20940280038261, 2.616058199617392, 1};
Point(p11 + 36) = {32.27889374419237, 2.697421641025799, 1};
Point(p11 + 37) = {32.33480109273966, 2.788654142075599, 1};
Point(p11 + 38) = {32.3757482215574, 2.887509255807633, 1};
Point(p11 + 39) = {32.40072687643838, 2.991552841240507, 1};
Spline(11) = {9, p11 + 1, p11 + 2, p11 + 3, p11 + 4, p11 + 5, p11 + 6, p11 + 7, p11 + 8, p11 + 9, p11 + 10, p11 + 11, p11 + 12, p11 + 13, p11 + 14, p11 + 15, p11 + 16, p11 + 17, p11 + 18, p11 + 19, p11 + 20, p11 + 21, p11 + 22, p11 + 23, p11 + 24, p11 + 25, p11 + 26, p11 + 27, p11 + 28, p11 + 29, p11 + 30, p11 + 31, p11 + 32, p11 + 33, p11 + 34, p11 + 35, p11 + 36, p11 + 37, p11 + 38, p11 + 39, 9};
Line(12) = {4, 10};
Line(13) = {10, 7};
Line(14) = {5, 10};
p15 = newp;
Point(p15 + 1) = {7.897634845172411, 3.366249160060423, 0};
Point(p15 + 2) = {7.857309104341841, 3.534217959070723, 0};
Point(p15 + 3) = {7.791203731080999, 3.693810447742783, 0};
Point(p15 + 4) = {7.700946459070723, 3.841096929348394, 0};
Point(p15 + 5) = {7.588759721894618, 3.972450721894618, 0};
Point(p15 + 6) = {7.457405929348394, 4.084637459070723, 0};
Point(p15 + 7) = {7.310119447742784, 4.174894731080999, 0};
Point(p15 + 8) = {7.150526959070723, 4.241000104341841, 0};
Point(p15 + 9) = {6.982558160060423, 4.281325845172411, 0};
Point(p15 + 10) = {6.810349, 4.294879, 0};
Point(p15 + 11) = {6.638139839939577, 4.281325845172411, 0};
Point(p15 + 12) = {6.470171040929277, 4.241000104341841, 0};
Point(p15 + 13) = {6.310578552257217, 4.174894731080999, 0};
Point(p15 + 14) = {6.163292070651607, 4.084637459070723, 0};
Point(p15 + 15) = {6.031938278105383, 3.972450721894618, 0};
Point(p15 + 16) = {5.919751540929278, 3.841096929348394, 0};
Point(p15 + 17) = {5.829494268919002, 3.693810447742783, 0};
Point(p15 + 18) = {5.76338889565816, 3.534217959070723, 0};
Point(p15 + 19) = {5.72306315482759, 3.366249160060423, 0};
Point(p15 + 20) = {5.709510000000001, 3.19404, 0};
Point(p15 + 21) = {5.72306315482759, 3.021830839939578, 0};
Point(p15 + 22) = {5.76338889565816, 2.853862040929277, 0};
Point(p15 + 23) = {5.829494268919001, 2.694269552257218, 0};
Point(p15 + 24) = {5.919751540929278, 2.546983070651606, 0};
Point(p15 + 25) = {6.031938278105383, 2.415629278105382, 0};
Point(p15 + 26) = {6.163292070651607, 2.303442540929278, 0};
Point(p15 + 27) = {6.310578552257217, 2.213185268919002, 0};
Point(p15 + 28) = {6.470171040929277, 2.14707989565816, 0};
Point(p15 + 29) = {6.638139839939577, 2.106754154827589, 0};
Point(p15 + 30) = {6.810349, 2.093201000000001, 0};
Point(p15 + 31) = {6.982558160060423, 2.106754154827589, 0};
Point(p15 + 32) = {7.150526959070723, 2.14707989565816, 0};
Point(p15 + 33) = {7.310119447742784, 2.213185268919001, 0};
Point(p15 + 34) = {7.457405929348394, 2.303442540929277, 0};
Point(p15 + 35) = {7.588759721894618, 2.415629278105382, 0};
Point(p15 + 36) = {7.700946459070723, 2.546983070651606, 0};
Point(p15 + 37) = {7.791203731080999, 2.694269552257217, 0};
Point(p15 + 38) = {7.857309104341841, 2.853862040929277, 0};
Point(p15 + 39) = {7.897634845172411, 3.021830839939577, 0};
Spline(15) = {11, p15 + 1, p15 + 2, p15 + 3, p15 + 4, p15 + 5, p15 + 6, p15 + 7, p15 + 8, p15 + 9, p15 + 10, p15 + 11, p15 + 12, p15 + 13, p15 + 14, p15 + 15, p15 + 16, p15 + 17, p15 + 18, p15 + 19, p15 + 20, p15 + 21, p15 + 22, p15 + 23, p15 + 24, p15 + 25, p15 + 26, p15 + 27, p15 + 28, p15 + 29, p15 + 30, p15 + 31, p15 + 32, p15 + 33, p15 + 34, p15 + 35, p15 + 36, p15 + 37, p15 + 38, p15 + 39, 11};
p16 = newp;
Point(p16 + 1) = {32.40072687643838, 3.204893158759493, 0};
Point(p16 + 2) = {32.3757482215574, 3.308936744192366, 0};
Point(p16 + 3) = {32.33480109273966, 3.407791857924401, 0};
Point(p16 + 4) = {32.27889374419237, 3.499024358974201, 0};
Point(p16 + 5) = {32.20940280038261, 3.580387800382608, 0};
Point(p16 + 6) = {32.1280393589742, 3.649878744192367, 0};
Point(p16 + 7) = {32.0368068579244, 3.705786092739661, 0};
Point(p16 + 8) = {31.93795174419237, 3.746733221557404, 0};
Point(p16 + 9) = {31.83390815875949, 3.771711876438375, 0};
Point(p16 + 10) = {31.727238, 3.780107, 0};
Point(p16 + 11) = {31.62056784124051, 3.771711876438375, 0};
Point(p16 + 12) = {31.51652425580763, 3.746733221557404, 0};
Point(p16 + 13) = {31.4176691420756, 3.705786092739661, 0};
Point(p16 + 14) = {31.3264366410258, 3.649878744192367, 0};
Point(p16 + 15) = {31.24507319961739, 3.580387800382608, 0};
Point(p16 + 16) = {31.17558225580763, 3.499024358974201, 0};
Point(p16 + 17) = {31.11967490726034, 3.407791857924401, 0};
Point(p16 + 18) = {31.07872777844259, 3.308936744192366, 0};
Point(p16 + 19) = {31.05374912356163, 3.204893158759493, 0};
Point(p16 + 20) = {31.045354, 3.098223, 0};
Point(p16 + 21) = {31.05374912356163, 2.991552841240507, 0};
Point(p16 + 22) = {31.07872777844259, 2.887509255807633, 0};
Point(p16 + 23) = {31.11967490726034, 2.788654142075599, 0};
Point(p16 + 24) = {31.17558225580763, 2.697421641025799, 0};
Point(p16 + 25) = {31.24507319961739, 2.616058199617392, 0};
Point(p16 + 26) = {31.3264366410258, 2.546567255807633, 0};
Point(p16 + 27) = {31.4176691420756, 2.490659907260339, 0};
Point(p16 + 28) = {31.51652425580763, 2.449712778442596, 0};
Point(p16 + 29) = {31.62056784124051, 2.424734123561625, 0};
Point(p16 + 30) = {31.727238, 2.416339, 0};
Point(p16 + 31) = {31.83390815875949, 2.424734123561625, 0};
Point(p16 + 32) = {31.93795174419236, 2.449712778442596, 0};
Point(p16 + 33) = {32.0368068579244, 2.490659907260339, 0};
Point(p16 + 34) = {32.1280393589742, 2.546567255807633, 0};
Point(p16 + 35) = {32.20940280038261, 2.616058199617392, 0};
Point(p16 + 36) = {32.27889374419237, 2.697421641025799, 0};
Point(p16 + 37) = {32.33480109273966, 2.788654142075599, 0};
Point(p16 + 38) = {32.3757482215574, 2.887509255807633, 0};
Point(p16 + 39) = {32.40072687643838, 2.991552841240507, 0};
Spline(16) = {12, p16 + 1, p16 + 2, p16 + 3, p16 + 4, p16 + 5, p16 + 6, p16 + 7, p16 + 8, p16 + 9, p16 + 10, p16 + 11, p16 + 12, p16 + 13, p16 + 14, p16 + 15, p16 + 16, p16 + 17, p16 + 18, p16 + 19, p16 + 20, p16 + 21, p16 + 22, p16 + 23, p16 + 24, p16 + 25, p16 + 26, p16 + 27, p16 + 28, p16 + 29, p16 + 30, p16 + 31, p16 + 32, p16 + 33, p16 + 34, p16 + 35, p16 + 36, p16 + 37, p16 + 38, p16 + 39, 12};
Line(17) = {11, 8};
Line(18) = {12, 9};
Curve Loop(1) = {-1, 4, 3, -2};
Plane Surface(1) = {1};
Curve Loop(2) = {-5, 1, 7, -6};
Plane Surface(2) = {2};
Curve Loop(3) = {-2, 7, 9, -8, -10, -11};
Plane Surface(3) = {3};
Curve Loop(4) = {-12, 3, 8, -13};
Plane Surface(4) = {4};
Curve Loop(5) = {-4, 5, 14, -12, -15, -16};
Plane Surface(5) = {5};
Curve Loop(6) = {-6, 14, 13, -9};
Plane Surface(6) = {6};
Curve Loop(7) = {-10, -17, 15, 17};
Surface(7) = {7};
Curve Loop(8) = {-11, -18, 16, 18};
Surface(8) = {8};
Surface Loop(1) = {1, 2, 3, 4, 5, 6, 7, 8};
Volume(1) = {1};
Physical Surface("INFLOW") = {1};
Physical Surface("OUTFLOW") = {6};
Physical Surface("OBSTACLE") = {7, 8};
Physical Surface("WALL_Y") = {2, 4};
Physical Surface("WALL_Z") = {3, 5};
Physical Volume("FLUID") = {1};
