cl__1 = 3.796896;
cl__2 = 0.950867;
cl__3 = 0.65151;
cl__4 = 0.122128;
cl__5 = 0.110003;
Point(1) = {0.298791, -4.72468, 1, cl__1};
Point(2) = {0.298791, -4.72468, 0, cl__1};
Point(3) = {0.298791, 5.024538000000001, 1, cl__1};
Point(4) = {0.298791, 5.024538000000001, 0, cl__1};
Point(5) = {37.654744, -4.72468, 0, cl__2};
Point(6) = {37.654744, -4.72468, 1, cl__2};
Point(7) = {37.654744, 5.024538000000001, 1, cl__3};
Point(8) = {26.093383, 1.762227, 1, cl__4};
Point(9) = {31.428287, 2.94781, 1, cl__5};
Point(10) = {37.654744, 5.024538000000001, 0, cl__3};
Point(11) = {26.093383, 1.762227, 0, cl__4};
Point(12) = {31.428287, 2.94781, 0, cl__5};
Line(1) = {2, 1};
Line(2) = {1, 3};
Line(3) = {4, 3};
Line(4) = {2, 4};
Line(5) = {2, 5};
Line(6) = {5, 6};
Line(7) = {1, 6};
Line(8) = {3, 7};
Line(9) = {6, 7};
p10 = newp;
Point(p10 + 1) = {26.07834697966705, 1.953277752767728, 1};
Point(p10 + 2) = {26.03360915539049, 2.139624201941219, 1};
Point(p10 + 3) = {25.96027112088034, 2.316677879493413, 1};
Point(p10 + 4) = {25.86013870194122, 2.480079136275508, 1};
Point(p10 + 5) = {25.73567749104785, 2.62580449104785, 1};
Point(p10 + 6) = {25.58995213627551, 2.750265701941219, 1};
Point(p10 + 7) = {25.42655087949341, 2.850398120880342, 1};
Point(p10 + 8) = {25.24949720194122, 2.923736155390494, 1};
Point(p10 + 9) = {25.06315075276773, 2.968473979667052, 1};
Point(p10 + 10) = {24.8721, 2.98351, 1};
Point(p10 + 11) = {24.68104924723227, 2.968473979667051, 1};
Point(p10 + 12) = {24.49470279805878, 2.923736155390494, 1};
Point(p10 + 13) = {24.31764912050659, 2.850398120880342, 1};
Point(p10 + 14) = {24.15424786372449, 2.750265701941219, 1};
Point(p10 + 15) = {24.00852250895215, 2.62580449104785, 1};
Point(p10 + 16) = {23.88406129805878, 2.480079136275509, 1};
Point(p10 + 17) = {23.78392887911966, 2.316677879493413, 1};
Point(p10 + 18) = {23.71059084460951, 2.139624201941219, 1};
Point(p10 + 19) = {23.66585302033295, 1.953277752767728, 1};
Point(p10 + 20) = {23.650817, 1.762227, 1};
Point(p10 + 21) = {23.66585302033295, 1.571176247232272, 1};
Point(p10 + 22) = {23.71059084460951, 1.384829798058781, 1};
Point(p10 + 23) = {23.78392887911966, 1.207776120506588, 1};
Point(p10 + 24) = {23.88406129805878, 1.044374863724492, 1};
Point(p10 + 25) = {24.00852250895215, 0.8986495089521498, 1};
Point(p10 + 26) = {24.15424786372449, 0.7741882980587813, 1};
Point(p10 + 27) = {24.31764912050659, 0.6740558791196578, 1};
Point(p10 + 28) = {24.49470279805878, 0.6007178446095061, 1};
Point(p10 + 29) = {24.68104924723227, 0.5559800203329486, 1};
Point(p10 + 30) = {24.8721, 0.5409440000000001, 1};
Point(p10 + 31) = {25.06315075276773, 0.5559800203329484, 1};
Point(p10 + 32) = {25.24949720194122, 0.6007178446095061, 1};
Point(p10 + 33) = {25.42655087949341, 0.6740558791196576, 1};
Point(p10 + 34) = {25.58995213627551, 0.774188298058781, 1};
Point(p10 + 35) = {25.73567749104785, 0.8986495089521496, 1};
Point(p10 + 36) = {25.86013870194122, 1.044374863724491, 1};
Point(p10 + 37) = {25.96027112088034, 1.207776120506587, 1};
Point(p10 + 38) = {26.03360915539049, 1.384829798058781, 1};
Point(p10 + 39) = {26.07834697966705, 1.571176247232271, 1};
Spline(10) = {8, p10 + 1, p10 + 2, p10 + 3, p10 + 4, p10 + 5, p10 + 6, p10 + 7, p10 + 8, p10 + 9, p10 + 10, p10 + 11, p10 + 12, p10 + 13, p10 + 14, p10 + 15, p10 + 16, p10 + 17, p10 + 18, p10 + 19, p10 + 20, p10 + 21, p10 + 22, p10 + 23, p10 + 24, p10 + 25, p10 + 26, p10 + 27, p10 + 28, p10 + 29, p10 + 30, p10 + 31, p10 + 32, p10 + 33, p10 + 34, p10 + 35, p10 + 36, p10 + 37, p10 + 38, p10 + 39, 8};
p11 = newp;
Point(p11 + 1) = {31.41474376836989, 3.1198930738816, 1};
Point(p11 + 2) = {31.37444755278971, 3.287738891373257, 1};
Point(p11 + 3) = {31.3083905798225, 3.447214531399993, 1};
Point(p11 + 4) = {31.21819939137326, 3.594393174435046, 1};
Point(p11 + 5) = {31.10609479382898, 3.725650793828982, 1};
Point(p11 + 6) = {30.97483717443505, 3.837755391373256, 1};
Point(p11 + 7) = {30.82765853139999, 3.927946579822503, 1};
Point(p11 + 8) = {30.66818289137326, 3.994003552789707, 1};
Point(p11 + 9) = {30.5003370738816, 4.034299768369891, 1};
Point(p11 + 10) = {30.328254, 4.047843, 1};
Point(p11 + 11) = {30.1561709261184, 4.034299768369891, 1};
Point(p11 + 12) = {29.98832510862675, 3.994003552789707, 1};
Point(p11 + 13) = {29.82884946860001, 3.927946579822503, 1};
Point(p11 + 14) = {29.68167082556495, 3.837755391373256, 1};
Point(p11 + 15) = {29.55041320617102, 3.725650793828982, 1};
Point(p11 + 16) = {29.43830860862674, 3.594393174435046, 1};
Point(p11 + 17) = {29.3481174201775, 3.447214531399993, 1};
Point(p11 + 18) = {29.28206044721029, 3.287738891373257, 1};
Point(p11 + 19) = {29.24176423163011, 3.119893073881601, 1};
Point(p11 + 20) = {29.228221, 2.94781, 1};
Point(p11 + 21) = {29.24176423163011, 2.7757269261184, 1};
Point(p11 + 22) = {29.28206044721029, 2.607881108626743, 1};
Point(p11 + 23) = {29.3481174201775, 2.448405468600008, 1};
Point(p11 + 24) = {29.43830860862674, 2.301226825564954, 1};
Point(p11 + 25) = {29.55041320617102, 2.169969206171019, 1};
Point(p11 + 26) = {29.68167082556495, 2.057864608626744, 1};
Point(p11 + 27) = {29.82884946860001, 1.967673420177497, 1};
Point(p11 + 28) = {29.98832510862674, 1.901616447210293, 1};
Point(p11 + 29) = {30.1561709261184, 1.861320231630109, 1};
Point(p11 + 30) = {30.328254, 1.847777, 1};
Point(p11 + 31) = {30.5003370738816, 1.861320231630109, 1};
Point(p11 + 32) = {30.66818289137326, 1.901616447210293, 1};
Point(p11 + 33) = {30.82765853139999, 1.967673420177497, 1};
Point(p11 + 34) = {30.97483717443505, 2.057864608626743, 1};
Point(p11 + 35) = {31.10609479382898, 2.169969206171019, 1};
Point(p11 + 36) = {31.21819939137326, 2.301226825564954, 1};
Point(p11 + 37) = {31.3083905798225, 2.448405468600007, 1};
Point(p11 + 38) = {31.37444755278971, 2.607881108626743, 1};
Point(p11 + 39) = {31.41474376836989, 2.775726926118399, 1};
Spline(11) = {9, p11 + 1, p11 + 2, p11 + 3, p11 + 4, p11 + 5, p11 + 6, p11 + 7, p11 + 8, p11 + 9, p11 + 10, p11 + 11, p11 + 12, p11 + 13, p11 + 14, p11 + 15, p11 + 16, p11 + 17, p11 + 18, p11 + 19, p11 + 20, p11 + 21, p11 + 22, p11 + 23, p11 + 24, p11 + 25, p11 + 26, p11 + 27, p11 + 28, p11 + 29, p11 + 30, p11 + 31, p11 + 32, p11 + 33, p11 + 34, p11 + 35, p11 + 36, p11 + 37, p11 + 38, p11 + 39, 9};
Line(12) = {4, 10};
Line(13) = {10, 7};
Line(14) = {5, 10};
p15 = newp;
Point(p15 + 1) = {26.07834697966705, 1.953277752767728, 0};
Point(p15 + 2) = {26.03360915539049, 2.139624201941219, 0};
Point(p15 + 3) = {25.96027112088034, 2.316677879493413, 0};
Point(p15 + 4) = {25.86013870194122, 2.480079136275508, 0};
Point(p15 + 5) = {25.73567749104785, 2.62580449104785, 0};
Point(p15 + 6) = {25.58995213627551, 2.750265701941219, 0};
Point(p15 + 7) = {25.42655087949341, 2.850398120880342, 0};
Point(p15 + 8) = {25.24949720194122, 2.923736155390494, 0};
Point(p15 + 9) = {25.06315075276773, 2.968473979667052, 0};
Point(p15 + 10) = {24.8721, 2.98351, 0};
Point(p15 + 11) = {24.68104924723227, 2.968473979667051, 0};
Point(p15 + 12) = {24.49470279805878, 2.923736155390494, 0};
Point(p15 + 13) = {24.31764912050659, 2.850398120880342, 0};
Point(p15 + 14) = {24.15424786372449, 2.750265701941219, 0};
Point(p15 + 15) = {24.00852250895215, 2.62580449104785, 0};
Point(p15 + 16) = {23.88406129805878, 2.480079136275509, 0};
Point(p15 + 17) = {23.78392887911966, 2.316677879493413, 0};
Point(p15 + 18) = {23.71059084460951, 2.139624201941219, 0};
Point(p15 + 19) = {23.66585302033295, 1.953277752767728, 0};
Point(p15 + 20) = {23.650817, 1.762227, 0};
Point(p15 + 21) = {23.66585302033295, 1.571176247232272, 0};
Point(p15 + 22) = {23.71059084460951, 1.384829798058781, 0};
Point(p15 + 23) = {23.78392887911966, 1.207776120506588, 0};
Point(p15 + 24) = {23.88406129805878, 1.044374863724492, 0};
Point(p15 + 25) = {24.00852250895215, 0.8986495089521498, 0};
Point(p15 + 26) = {24.15424786372449, 0.7741882980587813, 0};
Point(p15 + 27) = {24.31764912050659, 0.6740558791196578, 0};
Point(p15 + 28) = {24.49470279805878, 0.6007178446095061, 0};
Point(p15 + 29) = {24.68104924723227, 0.5559800203329486, 0};
Point(p15 + 30) = {24.8721, 0.5409440000000001, 0};
Point(p15 + 31) = {25.06315075276773, 0.5559800203329484, 0};
Point(p15 + 32) = {25.24949720194122, 0.6007178446095061, 0};
Point(p15 + 33) = {25.42655087949341, 0.6740558791196576, 0};
Point(p15 + 34) = {25.58995213627551, 0.774188298058781, 0};
Point(p15 + 35) = {25.73567749104785, 0.8986495089521496, 0};
Point(p15 + 36) = {25.86013870194122, 1.044374863724491, 0};
Point(p15 + 37) = {25.96027112088034, 1.207776120506587, 0};
Point(p15 + 38) = {26.03360915539049, 1.384829798058781, 0};
Point(p15 + 39) = {26.07834697966705, 1.571176247232271, 0};
Spline(15) = {11, p15 + 1, p15 + 2, p15 + 3, p15 + 4, p15 + 5, p15 + 6, p15 + 7, p15 + 8, p15 + 9, p15 + 10, p15 + 11, p15 + 12, p15 + 13, p15 + 14, p15 + 15, p15 + 16, p15 + 17, p15 + 18, p15 + 19, p15 + 20, p15 + 21, p15 + 22, p15 + 23, p15 + 24, p15 + 25, p15 + 26, p15 + 27, p15 + 28, p15 + 29, p15 + 30, p15 + 31, p15 + 32, p15 + 33, p15 + 34, p15 + 35, p15 + 36, p15 + 37, p15 + 38, p15 + 39, 11};
p16 = newp;
Point(p16 + 1) = {31.41474376836989, 3.1198930738816, 0};
Point(p16 + 2) = {31.37444755278971, 3.287738891373257, 0};
Point(p16 + 3) = {31.3083905798225, 3.447214531399993, 0};
Point(p16 + 4) = {31.21819939137326, 3.594393174435046, 0};
Point(p16 + 5) = {31.10609479382898, 3.725650793828982, 0};
Point(p16 + 6) = {30.97483717443505, 3.837755391373256, 0};
Point(p16 + 7) = {30.82765853139999, 3.927946579822503, 0};
Point(p16 + 8) = {30.66818289137326, 3.994003552789707, 0};
Point(p16 + 9) = {30.5003370738816, 4.034299768369891, 0};
Point(p16 + 10) = {30.328254, 4.047843, 0};
Point(p16 + 11) = {30.1561709261184, 4.034299768369891, 0};
Point(p16 + 12) = {29.98832510862675, 3.994003552789707, 0};
Point(p16 + 13) = {29.82884946860001, 3.927946579822503, 0};
Point(p16 + 14) = {29.68167082556495, 3.837755391373256, 0};
Point(p16 + 15) = {29.55041320617102, 3.725650793828982, 0};
Point(p16 + 16) = {29.43830860862674, 3.594393174435046, 0};
Point(p16 + 17) = {29.3481174201775, 3.447214531399993, 0};
Point(p16 + 18) = {29.28206044721029, 3.287738891373257, 0};
Point(p16 + 19) = {29.24176423163011, 3.119893073881601, 0};
Point(p16 + 20) = {29.228221, 2.94781, 0};
Point(p16 + 21) = {29.24176423163011, 2.7757269261184, 0};
Point(p16 + 22) = {29.28206044721029, 2.607881108626743, 0};
Point(p16 + 23) = {29.3481174201775, 2.448405468600008, 0};
Point(p16 + 24) = {29.43830860862674, 2.301226825564954, 0};
Point(p16 + 25) = {29.55041320617102, 2.169969206171019, 0};
Point(p16 + 26) = {29.68167082556495, 2.057864608626744, 0};
Point(p16 + 27) = {29.82884946860001, 1.967673420177497, 0};
Point(p16 + 28) = {29.98832510862674, 1.901616447210293, 0};
Point(p16 + 29) = {30.1561709261184, 1.861320231630109, 0};
Point(p16 + 30) = {30.328254, 1.847777, 0};
Point(p16 + 31) = {30.5003370738816, 1.861320231630109, 0};
Point(p16 + 32) = {30.66818289137326, 1.901616447210293, 0};
Point(p16 + 33) = {30.82765853139999, 1.967673420177497, 0};
Point(p16 + 34) = {30.97483717443505, 2.057864608626743, 0};
Point(p16 + 35) = {31.10609479382898, 2.169969206171019, 0};
Point(p16 + 36) = {31.21819939137326, 2.301226825564954, 0};
Point(p16 + 37) = {31.3083905798225, 2.448405468600007, 0};
Point(p16 + 38) = {31.37444755278971, 2.607881108626743, 0};
Point(p16 + 39) = {31.41474376836989, 2.775726926118399, 0};
Spline(16) = {12, p16 + 1, p16 + 2, p16 + 3, p16 + 4, p16 + 5, p16 + 6, p16 + 7, p16 + 8, p16 + 9, p16 + 10, p16 + 11, p16 + 12, p16 + 13, p16 + 14, p16 + 15, p16 + 16, p16 + 17, p16 + 18, p16 + 19, p16 + 20, p16 + 21, p16 + 22, p16 + 23, p16 + 24, p16 + 25, p16 + 26, p16 + 27, p16 + 28, p16 + 29, p16 + 30, p16 + 31, p16 + 32, p16 + 33, p16 + 34, p16 + 35, p16 + 36, p16 + 37, p16 + 38, p16 + 39, 12};
Line(17) = {11, 8};
Line(18) = {12, 9};
Curve Loop(1) = {-1, 4, 3, -2};
Plane Surface(1) = {1};
Curve Loop(2) = {-5, 1, 7, -6};
Plane Surface(2) = {2};
Curve Loop(3) = {-2, 7, 9, -8, -10, -11};
Plane Surface(3) = {3};
Curve Loop(4) = {-12, 3, 8, -13};
Plane Surface(4) = {4};
Curve Loop(5) = {-4, 5, 14, -12, -15, -16};
Plane Surface(5) = {5};
Curve Loop(6) = {-6, 14, 13, -9};
Plane Surface(6) = {6};
Curve Loop(7) = {-10, -17, 15, 17};
Surface(7) = {7};
Curve Loop(8) = {-11, -18, 16, 18};
Surface(8) = {8};
Surface Loop(1) = {1, 2, 3, 4, 5, 6, 7, 8};
Volume(1) = {1};
Physical Surface("INFLOW") = {1};
Physical Surface("OUTFLOW") = {6};
Physical Surface("OBSTACLE") = {7, 8};
Physical Surface("WALL_Y") = {2, 4};
Physical Surface("WALL_Z") = {3, 5};
Physical Volume("FLUID") = {1};
