cl__1 = 3.296636;
cl__2 = 0.93252;
cl__3 = 0.998187;
cl__4 = 0.075644;
cl__5 = 0.148016;
Point(1) = {0.9337, -3.106937, 1, cl__1};
Point(2) = {0.9337, -3.106937, 0, cl__1};
Point(3) = {0.9337, 4.697748000000001, 1, cl__2};
Point(4) = {0.9337, 4.697748000000001, 0, cl__2};
Point(5) = {32.734575, -3.106937, 0, cl__3};
Point(6) = {32.734575, -3.106937, 1, cl__3};
Point(7) = {32.734575, 4.697748000000001, 1, cl__2};
Point(8) = {12.094507, -0.4497360000000002, 1, cl__4};
Point(9) = {23.629103, -0.9389490000000004, 1, cl__5};
Point(10) = {32.734575, 4.697748000000001, 0, cl__2};
Point(11) = {12.094507, -0.4497360000000002, 0, cl__4};
Point(12) = {23.629103, -0.9389490000000004, 0, cl__5};
Line(1) = {2, 1};
Line(2) = {1, 3};
Line(3) = {4, 3};
Line(4) = {2, 4};
Line(5) = {2, 5};
Line(6) = {5, 6};
Line(7) = {1, 6};
Line(8) = {3, 7};
Line(9) = {6, 7};
p10 = newp;
Point(p10 + 1) = {12.08519391911315, -0.3314020875271076, 1};
Point(p10 + 2) = {12.05748399541237, -0.2159819487070373, 1};
Point(p10 + 3) = {12.01205953918315, -0.1063176104150183, 1};
Point(p10 + 4) = {11.95003905129296, -0.005109372614872487, 1};
Point(p10 + 5) = {11.87294968198788, 0.08515068198787668, 1};
Point(p10 + 6) = {11.78268962738513, 0.1622400512929627, 1};
Point(p10 + 7) = {11.68148138958498, 0.2242605391831457, 1};
Point(p10 + 8) = {11.57181705129296, 0.2696849954123711, 1};
Point(p10 + 9) = {11.45639691247289, 0.2973949191131484, 1};
Point(p10 + 10) = {11.338063, 0.306708, 1};
Point(p10 + 11) = {11.21972908752711, 0.2973949191131483, 1};
Point(p10 + 12) = {11.10430894870704, 0.2696849954123712, 1};
Point(p10 + 13) = {10.99464461041502, 0.2242605391831457, 1};
Point(p10 + 14) = {10.89343637261487, 0.1622400512929627, 1};
Point(p10 + 15) = {10.80317631801212, 0.08515068198787679, 1};
Point(p10 + 16) = {10.72608694870704, -0.005109372614872376, 1};
Point(p10 + 17) = {10.66406646081685, -0.1063176104150182, 1};
Point(p10 + 18) = {10.61864200458763, -0.2159819487070372, 1};
Point(p10 + 19) = {10.59093208088685, -0.3314020875271075, 1};
Point(p10 + 20) = {10.581619, -0.4497359999999999, 1};
Point(p10 + 21) = {10.59093208088685, -0.5680699124728923, 1};
Point(p10 + 22) = {10.61864200458763, -0.6834900512929629, 1};
Point(p10 + 23) = {10.66406646081685, -0.7931543895849813, 1};
Point(p10 + 24) = {10.72608694870704, -0.8943626273851275, 1};
Point(p10 + 25) = {10.80317631801212, -0.9846226819878767, 1};
Point(p10 + 26) = {10.89343637261487, -1.061712051292963, 1};
Point(p10 + 27) = {10.99464461041502, -1.123732539183146, 1};
Point(p10 + 28) = {11.10430894870704, -1.169156995412371, 1};
Point(p10 + 29) = {11.21972908752711, -1.196866919113148, 1};
Point(p10 + 30) = {11.338063, -1.20618, 1};
Point(p10 + 31) = {11.45639691247289, -1.196866919113148, 1};
Point(p10 + 32) = {11.57181705129296, -1.169156995412371, 1};
Point(p10 + 33) = {11.68148138958498, -1.123732539183146, 1};
Point(p10 + 34) = {11.78268962738513, -1.061712051292963, 1};
Point(p10 + 35) = {11.87294968198788, -0.9846226819878769, 1};
Point(p10 + 36) = {11.95003905129296, -0.8943626273851277, 1};
Point(p10 + 37) = {12.01205953918315, -0.793154389584982, 1};
Point(p10 + 38) = {12.05748399541237, -0.6834900512929629, 1};
Point(p10 + 39) = {12.08519391911315, -0.5680699124728926, 1};
Spline(10) = {8, p10 + 1, p10 + 2, p10 + 3, p10 + 4, p10 + 5, p10 + 6, p10 + 7, p10 + 8, p10 + 9, p10 + 10, p10 + 11, p10 + 12, p10 + 13, p10 + 14, p10 + 15, p10 + 16, p10 + 17, p10 + 18, p10 + 19, p10 + 20, p10 + 21, p10 + 22, p10 + 23, p10 + 24, p10 + 25, p10 + 26, p10 + 27, p10 + 28, p10 + 29, p10 + 30, p10 + 31, p10 + 32, p10 + 33, p10 + 34, p10 + 35, p10 + 36, p10 + 37, p10 + 38, p10 + 39, 8};
p11 = newp;
Point(p11 + 1) = {23.61087976190364, -0.7074008057915868, 1};
Point(p11 + 2) = {23.55665876421595, -0.4815540965889835, 1};
Point(p11 + 3) = {23.46777510784918, -0.2669699679150127, 1};
Point(p11 + 4) = {23.34641740341102, -0.06893219318152066, 1};
Point(p11 + 5) = {23.19557388034786, 0.1076828803478613, 1};
Point(p11 + 6) = {23.01895880681848, 0.2585264034110166, 1};
Point(p11 + 7) = {22.82092103208499, 0.3798841078491786, 1};
Point(p11 + 8) = {22.60633690341102, 0.4687677642159507, 1};
Point(p11 + 9) = {22.38049019420842, 0.5229887619036397, 1};
Point(p11 + 10) = {22.148942, 0.541212, 1};
Point(p11 + 11) = {21.91739380579159, 0.5229887619036395, 1};
Point(p11 + 12) = {21.69154709658898, 0.4687677642159509, 1};
Point(p11 + 13) = {21.47696296791501, 0.3798841078491788, 1};
Point(p11 + 14) = {21.27892519318152, 0.2585264034110166, 1};
Point(p11 + 15) = {21.10231011965214, 0.1076828803478616, 1};
Point(p11 + 16) = {20.95146659658899, -0.06893219318152055, 1};
Point(p11 + 17) = {20.83010889215082, -0.2669699679150126, 1};
Point(p11 + 18) = {20.74122523578405, -0.4815540965889833, 1};
Point(p11 + 19) = {20.68700423809636, -0.7074008057915867, 1};
Point(p11 + 20) = {20.668781, -0.9389489999999998, 1};
Point(p11 + 21) = {20.68700423809636, -1.170497194208413, 1};
Point(p11 + 22) = {20.74122523578405, -1.396343903411017, 1};
Point(p11 + 23) = {20.83010889215082, -1.610928032084987, 1};
Point(p11 + 24) = {20.95146659658899, -1.808965806818479, 1};
Point(p11 + 25) = {21.10231011965214, -1.985580880347861, 1};
Point(p11 + 26) = {21.27892519318152, -2.136424403411016, 1};
Point(p11 + 27) = {21.47696296791501, -2.257782107849179, 1};
Point(p11 + 28) = {21.69154709658898, -2.346665764215951, 1};
Point(p11 + 29) = {21.91739380579159, -2.40088676190364, 1};
Point(p11 + 30) = {22.148942, -2.41911, 1};
Point(p11 + 31) = {22.38049019420841, -2.40088676190364, 1};
Point(p11 + 32) = {22.60633690341102, -2.346665764215951, 1};
Point(p11 + 33) = {22.82092103208499, -2.257782107849179, 1};
Point(p11 + 34) = {23.01895880681848, -2.136424403411017, 1};
Point(p11 + 35) = {23.19557388034786, -1.985580880347862, 1};
Point(p11 + 36) = {23.34641740341102, -1.80896580681848, 1};
Point(p11 + 37) = {23.46777510784918, -1.610928032084988, 1};
Point(p11 + 38) = {23.55665876421595, -1.396343903411017, 1};
Point(p11 + 39) = {23.61087976190364, -1.170497194208413, 1};
Spline(11) = {9, p11 + 1, p11 + 2, p11 + 3, p11 + 4, p11 + 5, p11 + 6, p11 + 7, p11 + 8, p11 + 9, p11 + 10, p11 + 11, p11 + 12, p11 + 13, p11 + 14, p11 + 15, p11 + 16, p11 + 17, p11 + 18, p11 + 19, p11 + 20, p11 + 21, p11 + 22, p11 + 23, p11 + 24, p11 + 25, p11 + 26, p11 + 27, p11 + 28, p11 + 29, p11 + 30, p11 + 31, p11 + 32, p11 + 33, p11 + 34, p11 + 35, p11 + 36, p11 + 37, p11 + 38, p11 + 39, 9};
Line(12) = {4, 10};
Line(13) = {10, 7};
Line(14) = {5, 10};
p15 = newp;
Point(p15 + 1) = {12.08519391911315, -0.3314020875271076, 0};
Point(p15 + 2) = {12.05748399541237, -0.2159819487070373, 0};
Point(p15 + 3) = {12.01205953918315, -0.1063176104150183, 0};
Point(p15 + 4) = {11.95003905129296, -0.005109372614872487, 0};
Point(p15 + 5) = {11.87294968198788, 0.08515068198787668, 0};
Point(p15 + 6) = {11.78268962738513, 0.1622400512929627, 0};
Point(p15 + 7) = {11.68148138958498, 0.2242605391831457, 0};
Point(p15 + 8) = {11.57181705129296, 0.2696849954123711, 0};
Point(p15 + 9) = {11.45639691247289, 0.2973949191131484, 0};
Point(p15 + 10) = {11.338063, 0.306708, 0};
Point(p15 + 11) = {11.21972908752711, 0.2973949191131483, 0};
Point(p15 + 12) = {11.10430894870704, 0.2696849954123712, 0};
Point(p15 + 13) = {10.99464461041502, 0.2242605391831457, 0};
Point(p15 + 14) = {10.89343637261487, 0.1622400512929627, 0};
Point(p15 + 15) = {10.80317631801212, 0.08515068198787679, 0};
Point(p15 + 16) = {10.72608694870704, -0.005109372614872376, 0};
Point(p15 + 17) = {10.66406646081685, -0.1063176104150182, 0};
Point(p15 + 18) = {10.61864200458763, -0.2159819487070372, 0};
Point(p15 + 19) = {10.59093208088685, -0.3314020875271075, 0};
Point(p15 + 20) = {10.581619, -0.4497359999999999, 0};
Point(p15 + 21) = {10.59093208088685, -0.5680699124728923, 0};
Point(p15 + 22) = {10.61864200458763, -0.6834900512929629, 0};
Point(p15 + 23) = {10.66406646081685, -0.7931543895849813, 0};
Point(p15 + 24) = {10.72608694870704, -0.8943626273851275, 0};
Point(p15 + 25) = {10.80317631801212, -0.9846226819878767, 0};
Point(p15 + 26) = {10.89343637261487, -1.061712051292963, 0};
Point(p15 + 27) = {10.99464461041502, -1.123732539183146, 0};
Point(p15 + 28) = {11.10430894870704, -1.169156995412371, 0};
Point(p15 + 29) = {11.21972908752711, -1.196866919113148, 0};
Point(p15 + 30) = {11.338063, -1.20618, 0};
Point(p15 + 31) = {11.45639691247289, -1.196866919113148, 0};
Point(p15 + 32) = {11.57181705129296, -1.169156995412371, 0};
Point(p15 + 33) = {11.68148138958498, -1.123732539183146, 0};
Point(p15 + 34) = {11.78268962738513, -1.061712051292963, 0};
Point(p15 + 35) = {11.87294968198788, -0.9846226819878769, 0};
Point(p15 + 36) = {11.95003905129296, -0.8943626273851277, 0};
Point(p15 + 37) = {12.01205953918315, -0.793154389584982, 0};
Point(p15 + 38) = {12.05748399541237, -0.6834900512929629, 0};
Point(p15 + 39) = {12.08519391911315, -0.5680699124728926, 0};
Spline(15) = {11, p15 + 1, p15 + 2, p15 + 3, p15 + 4, p15 + 5, p15 + 6, p15 + 7, p15 + 8, p15 + 9, p15 + 10, p15 + 11, p15 + 12, p15 + 13, p15 + 14, p15 + 15, p15 + 16, p15 + 17, p15 + 18, p15 + 19, p15 + 20, p15 + 21, p15 + 22, p15 + 23, p15 + 24, p15 + 25, p15 + 26, p15 + 27, p15 + 28, p15 + 29, p15 + 30, p15 + 31, p15 + 32, p15 + 33, p15 + 34, p15 + 35, p15 + 36, p15 + 37, p15 + 38, p15 + 39, 11};
p16 = newp;
Point(p16 + 1) = {23.61087976190364, -0.7074008057915868, 0};
Point(p16 + 2) = {23.55665876421595, -0.4815540965889835, 0};
Point(p16 + 3) = {23.46777510784918, -0.2669699679150127, 0};
Point(p16 + 4) = {23.34641740341102, -0.06893219318152066, 0};
Point(p16 + 5) = {23.19557388034786, 0.1076828803478613, 0};
Point(p16 + 6) = {23.01895880681848, 0.2585264034110166, 0};
Point(p16 + 7) = {22.82092103208499, 0.3798841078491786, 0};
Point(p16 + 8) = {22.60633690341102, 0.4687677642159507, 0};
Point(p16 + 9) = {22.38049019420842, 0.5229887619036397, 0};
Point(p16 + 10) = {22.148942, 0.541212, 0};
Point(p16 + 11) = {21.91739380579159, 0.5229887619036395, 0};
Point(p16 + 12) = {21.69154709658898, 0.4687677642159509, 0};
Point(p16 + 13) = {21.47696296791501, 0.3798841078491788, 0};
Point(p16 + 14) = {21.27892519318152, 0.2585264034110166, 0};
Point(p16 + 15) = {21.10231011965214, 0.1076828803478616, 0};
Point(p16 + 16) = {20.95146659658899, -0.06893219318152055, 0};
Point(p16 + 17) = {20.83010889215082, -0.2669699679150126, 0};
Point(p16 + 18) = {20.74122523578405, -0.4815540965889833, 0};
Point(p16 + 19) = {20.68700423809636, -0.7074008057915867, 0};
Point(p16 + 20) = {20.668781, -0.9389489999999998, 0};
Point(p16 + 21) = {20.68700423809636, -1.170497194208413, 0};
Point(p16 + 22) = {20.74122523578405, -1.396343903411017, 0};
Point(p16 + 23) = {20.83010889215082, -1.610928032084987, 0};
Point(p16 + 24) = {20.95146659658899, -1.808965806818479, 0};
Point(p16 + 25) = {21.10231011965214, -1.985580880347861, 0};
Point(p16 + 26) = {21.27892519318152, -2.136424403411016, 0};
Point(p16 + 27) = {21.47696296791501, -2.257782107849179, 0};
Point(p16 + 28) = {21.69154709658898, -2.346665764215951, 0};
Point(p16 + 29) = {21.91739380579159, -2.40088676190364, 0};
Point(p16 + 30) = {22.148942, -2.41911, 0};
Point(p16 + 31) = {22.38049019420841, -2.40088676190364, 0};
Point(p16 + 32) = {22.60633690341102, -2.346665764215951, 0};
Point(p16 + 33) = {22.82092103208499, -2.257782107849179, 0};
Point(p16 + 34) = {23.01895880681848, -2.136424403411017, 0};
Point(p16 + 35) = {23.19557388034786, -1.985580880347862, 0};
Point(p16 + 36) = {23.34641740341102, -1.80896580681848, 0};
Point(p16 + 37) = {23.46777510784918, -1.610928032084988, 0};
Point(p16 + 38) = {23.55665876421595, -1.396343903411017, 0};
Point(p16 + 39) = {23.61087976190364, -1.170497194208413, 0};
Spline(16) = {12, p16 + 1, p16 + 2, p16 + 3, p16 + 4, p16 + 5, p16 + 6, p16 + 7, p16 + 8, p16 + 9, p16 + 10, p16 + 11, p16 + 12, p16 + 13, p16 + 14, p16 + 15, p16 + 16, p16 + 17, p16 + 18, p16 + 19, p16 + 20, p16 + 21, p16 + 22, p16 + 23, p16 + 24, p16 + 25, p16 + 26, p16 + 27, p16 + 28, p16 + 29, p16 + 30, p16 + 31, p16 + 32, p16 + 33, p16 + 34, p16 + 35, p16 + 36, p16 + 37, p16 + 38, p16 + 39, 12};
Line(17) = {11, 8};
Line(18) = {12, 9};
Curve Loop(1) = {-1, 4, 3, -2};
Plane Surface(1) = {1};
Curve Loop(2) = {-5, 1, 7, -6};
Plane Surface(2) = {2};
Curve Loop(3) = {-2, 7, 9, -8, -10, -11};
Plane Surface(3) = {3};
Curve Loop(4) = {-12, 3, 8, -13};
Plane Surface(4) = {4};
Curve Loop(5) = {-4, 5, 14, -12, -15, -16};
Plane Surface(5) = {5};
Curve Loop(6) = {-6, 14, 13, -9};
Plane Surface(6) = {6};
Curve Loop(7) = {-10, -17, 15, 17};
Surface(7) = {7};
Curve Loop(8) = {-11, -18, 16, 18};
Surface(8) = {8};
Surface Loop(1) = {1, 2, 3, 4, 5, 6, 7, 8};
Volume(1) = {1};
Physical Surface("INFLOW") = {1};
Physical Surface("OUTFLOW") = {6};
Physical Surface("OBSTACLE") = {7, 8};
Physical Surface("WALL_Y") = {2, 4};
Physical Surface("WALL_Z") = {3, 5};
Physical Volume("FLUID") = {1};
