cl__1 = 1;
cl__2 = 0.132701;
cl__3 = 0.109381;
Point(1) = {0.041826, -3.40579, 1, cl__1};
Point(2) = {0.041826, -3.40579, 0, cl__1};
Point(3) = {0.041826, 4.876454000000001, 1, cl__1};
Point(4) = {0.041826, 4.876454000000001, 0, cl__1};
Point(5) = {33.803741, -3.40579, 0, cl__1};
Point(6) = {33.803741, -3.40579, 1, cl__1};
Point(7) = {33.803741, 4.876454000000001, 1, cl__1};
Point(8) = {18.926897, -0.4007810000000003, 1, cl__2};
Point(9) = {21.764959, 2.008178, 1, cl__3};
Point(10) = {33.803741, 4.876454000000001, 0, cl__1};
Point(11) = {18.926897, -0.4007810000000003, 0, cl__2};
Point(12) = {21.764959, 2.008178, 0, cl__3};
Line(1) = {2, 1};
Line(2) = {1, 3};
Line(3) = {4, 3};
Line(4) = {2, 4};
Line(5) = {2, 5};
Line(6) = {5, 6};
Line(7) = {1, 6};
Line(8) = {3, 7};
Line(9) = {6, 7};
p10 = newp;
Point(p10 + 1) = {18.91055930485315, -0.1931909005469632, 1};
Point(p10 + 2) = {18.86194850768883, 0.00928764170549895, 1};
Point(p10 + 3) = {18.78226156766321, 0.201668933059376, 1};
Point(p10 + 4) = {18.6734606417055, 0.3792159076446348, 1};
Point(p10 + 5) = {18.53822476970236, 0.5375567697023604, 1};
Point(p10 + 6) = {18.37988390764463, 0.672792641705499, 1};
Point(p10 + 7) = {18.20233693305937, 0.781593567663206, 1};
Point(p10 + 8) = {18.0099556417055, 0.8612805076888317, 1};
Point(p10 + 9) = {17.80747709945303, 0.9098913048531538, 1};
Point(p10 + 10) = {17.599887, 0.926229, 1};
Point(p10 + 11) = {17.39229690054696, 0.9098913048531536, 1};
Point(p10 + 12) = {17.1898183582945, 0.8612805076888319, 1};
Point(p10 + 13) = {16.99743706694062, 0.781593567663206, 1};
Point(p10 + 14) = {16.81989009235537, 0.672792641705499, 1};
Point(p10 + 15) = {16.66154923029764, 0.5375567697023604, 1};
Point(p10 + 16) = {16.5263133582945, 0.3792159076446349, 1};
Point(p10 + 17) = {16.41751243233679, 0.2016689330593761, 1};
Point(p10 + 18) = {16.33782549231117, 0.009287641705499117, 1};
Point(p10 + 19) = {16.28921469514685, -0.1931909005469631, 1};
Point(p10 + 20) = {16.272877, -0.4007809999999998, 1};
Point(p10 + 21) = {16.28921469514685, -0.6083710994530366, 1};
Point(p10 + 22) = {16.33782549231117, -0.8108496417054993, 1};
Point(p10 + 23) = {16.41751243233679, -1.003230933059375, 1};
Point(p10 + 24) = {16.5263133582945, -1.180777907644635, 1};
Point(p10 + 25) = {16.66154923029764, -1.33911876970236, 1};
Point(p10 + 26) = {16.81989009235537, -1.474354641705499, 1};
Point(p10 + 27) = {16.99743706694062, -1.583155567663206, 1};
Point(p10 + 28) = {17.1898183582945, -1.662842507688832, 1};
Point(p10 + 29) = {17.39229690054696, -1.711453304853154, 1};
Point(p10 + 30) = {17.599887, -1.727791, 1};
Point(p10 + 31) = {17.80747709945303, -1.711453304853154, 1};
Point(p10 + 32) = {18.0099556417055, -1.662842507688832, 1};
Point(p10 + 33) = {18.20233693305937, -1.583155567663206, 1};
Point(p10 + 34) = {18.37988390764463, -1.474354641705499, 1};
Point(p10 + 35) = {18.53822476970236, -1.339118769702361, 1};
Point(p10 + 36) = {18.6734606417055, -1.180777907644635, 1};
Point(p10 + 37) = {18.78226156766321, -1.003230933059376, 1};
Point(p10 + 38) = {18.86194850768883, -0.8108496417054992, 1};
Point(p10 + 39) = {18.91055930485315, -0.608371099453037, 1};
Spline(10) = {8, p10 + 1, p10 + 2, p10 + 3, p10 + 4, p10 + 5, p10 + 6, p10 + 7, p10 + 8, p10 + 9, p10 + 10, p10 + 11, p10 + 12, p10 + 13, p10 + 14, p10 + 15, p10 + 16, p10 + 17, p10 + 18, p10 + 19, p10 + 20, p10 + 21, p10 + 22, p10 + 23, p10 + 24, p10 + 25, p10 + 26, p10 + 27, p10 + 28, p10 + 29, p10 + 30, p10 + 31, p10 + 32, p10 + 33, p10 + 34, p10 + 35, p10 + 36, p10 + 37, p10 + 38, p10 + 39, 8};
p11 = newp;
Point(p11 + 1) = {21.751492433073, 2.179286956467795, 1};
Point(p11 + 2) = {21.71142432386274, 2.346182642549284, 1};
Point(p11 + 3) = {21.64574128219638, 2.504755532558115, 1};
Point(p11 + 4) = {21.55606064254928, 2.651101035669021, 1};
Point(p11 + 5) = {21.44459063990253, 2.781615639902533, 1};
Point(p11 + 6) = {21.31407603566902, 2.893085642549284, 1};
Point(p11 + 7) = {21.16773053255811, 2.982766282196382, 1};
Point(p11 + 8) = {21.00915764254928, 3.048449323862737, 1};
Point(p11 + 9) = {20.84226195646779, 3.088517433073005, 1};
Point(p11 + 10) = {20.671153, 3.101984, 1};
Point(p11 + 11) = {20.50004404353221, 3.088517433073005, 1};
Point(p11 + 12) = {20.33314835745072, 3.048449323862737, 1};
Point(p11 + 13) = {20.17457546744189, 2.982766282196382, 1};
Point(p11 + 14) = {20.02822996433098, 2.893085642549284, 1};
Point(p11 + 15) = {19.89771536009747, 2.781615639902533, 1};
Point(p11 + 16) = {19.78624535745072, 2.651101035669021, 1};
Point(p11 + 17) = {19.69656471780362, 2.504755532558115, 1};
Point(p11 + 18) = {19.63088167613726, 2.346182642549284, 1};
Point(p11 + 19) = {19.590813566927, 2.179286956467795, 1};
Point(p11 + 20) = {19.577347, 2.008178, 1};
Point(p11 + 21) = {19.590813566927, 1.837069043532205, 1};
Point(p11 + 22) = {19.63088167613726, 1.670173357450716, 1};
Point(p11 + 23) = {19.69656471780362, 1.511600467441886, 1};
Point(p11 + 24) = {19.78624535745072, 1.365254964330979, 1};
Point(p11 + 25) = {19.89771536009747, 1.234740360097467, 1};
Point(p11 + 26) = {20.02822996433098, 1.123270357450716, 1};
Point(p11 + 27) = {20.17457546744189, 1.033589717803618, 1};
Point(p11 + 28) = {20.33314835745072, 0.9679066761372632, 1};
Point(p11 + 29) = {20.50004404353221, 0.9278385669269948, 1};
Point(p11 + 30) = {20.671153, 0.914372, 1};
Point(p11 + 31) = {20.84226195646779, 0.9278385669269946, 1};
Point(p11 + 32) = {21.00915764254928, 0.9679066761372632, 1};
Point(p11 + 33) = {21.16773053255811, 1.033589717803618, 1};
Point(p11 + 34) = {21.31407603566902, 1.123270357450716, 1};
Point(p11 + 35) = {21.44459063990253, 1.234740360097467, 1};
Point(p11 + 36) = {21.55606064254928, 1.365254964330979, 1};
Point(p11 + 37) = {21.64574128219638, 1.511600467441885, 1};
Point(p11 + 38) = {21.71142432386274, 1.670173357450716, 1};
Point(p11 + 39) = {21.751492433073, 1.837069043532205, 1};
Spline(11) = {9, p11 + 1, p11 + 2, p11 + 3, p11 + 4, p11 + 5, p11 + 6, p11 + 7, p11 + 8, p11 + 9, p11 + 10, p11 + 11, p11 + 12, p11 + 13, p11 + 14, p11 + 15, p11 + 16, p11 + 17, p11 + 18, p11 + 19, p11 + 20, p11 + 21, p11 + 22, p11 + 23, p11 + 24, p11 + 25, p11 + 26, p11 + 27, p11 + 28, p11 + 29, p11 + 30, p11 + 31, p11 + 32, p11 + 33, p11 + 34, p11 + 35, p11 + 36, p11 + 37, p11 + 38, p11 + 39, 9};
Line(12) = {4, 10};
Line(13) = {10, 7};
Line(14) = {5, 10};
p15 = newp;
Point(p15 + 1) = {18.91055930485315, -0.1931909005469632, 0};
Point(p15 + 2) = {18.86194850768883, 0.00928764170549895, 0};
Point(p15 + 3) = {18.78226156766321, 0.201668933059376, 0};
Point(p15 + 4) = {18.6734606417055, 0.3792159076446348, 0};
Point(p15 + 5) = {18.53822476970236, 0.5375567697023604, 0};
Point(p15 + 6) = {18.37988390764463, 0.672792641705499, 0};
Point(p15 + 7) = {18.20233693305937, 0.781593567663206, 0};
Point(p15 + 8) = {18.0099556417055, 0.8612805076888317, 0};
Point(p15 + 9) = {17.80747709945303, 0.9098913048531538, 0};
Point(p15 + 10) = {17.599887, 0.926229, 0};
Point(p15 + 11) = {17.39229690054696, 0.9098913048531536, 0};
Point(p15 + 12) = {17.1898183582945, 0.8612805076888319, 0};
Point(p15 + 13) = {16.99743706694062, 0.781593567663206, 0};
Point(p15 + 14) = {16.81989009235537, 0.672792641705499, 0};
Point(p15 + 15) = {16.66154923029764, 0.5375567697023604, 0};
Point(p15 + 16) = {16.5263133582945, 0.3792159076446349, 0};
Point(p15 + 17) = {16.41751243233679, 0.2016689330593761, 0};
Point(p15 + 18) = {16.33782549231117, 0.009287641705499117, 0};
Point(p15 + 19) = {16.28921469514685, -0.1931909005469631, 0};
Point(p15 + 20) = {16.272877, -0.4007809999999998, 0};
Point(p15 + 21) = {16.28921469514685, -0.6083710994530366, 0};
Point(p15 + 22) = {16.33782549231117, -0.8108496417054993, 0};
Point(p15 + 23) = {16.41751243233679, -1.003230933059375, 0};
Point(p15 + 24) = {16.5263133582945, -1.180777907644635, 0};
Point(p15 + 25) = {16.66154923029764, -1.33911876970236, 0};
Point(p15 + 26) = {16.81989009235537, -1.474354641705499, 0};
Point(p15 + 27) = {16.99743706694062, -1.583155567663206, 0};
Point(p15 + 28) = {17.1898183582945, -1.662842507688832, 0};
Point(p15 + 29) = {17.39229690054696, -1.711453304853154, 0};
Point(p15 + 30) = {17.599887, -1.727791, 0};
Point(p15 + 31) = {17.80747709945303, -1.711453304853154, 0};
Point(p15 + 32) = {18.0099556417055, -1.662842507688832, 0};
Point(p15 + 33) = {18.20233693305937, -1.583155567663206, 0};
Point(p15 + 34) = {18.37988390764463, -1.474354641705499, 0};
Point(p15 + 35) = {18.53822476970236, -1.339118769702361, 0};
Point(p15 + 36) = {18.6734606417055, -1.180777907644635, 0};
Point(p15 + 37) = {18.78226156766321, -1.003230933059376, 0};
Point(p15 + 38) = {18.86194850768883, -0.8108496417054992, 0};
Point(p15 + 39) = {18.91055930485315, -0.608371099453037, 0};
Spline(15) = {11, p15 + 1, p15 + 2, p15 + 3, p15 + 4, p15 + 5, p15 + 6, p15 + 7, p15 + 8, p15 + 9, p15 + 10, p15 + 11, p15 + 12, p15 + 13, p15 + 14, p15 + 15, p15 + 16, p15 + 17, p15 + 18, p15 + 19, p15 + 20, p15 + 21, p15 + 22, p15 + 23, p15 + 24, p15 + 25, p15 + 26, p15 + 27, p15 + 28, p15 + 29, p15 + 30, p15 + 31, p15 + 32, p15 + 33, p15 + 34, p15 + 35, p15 + 36, p15 + 37, p15 + 38, p15 + 39, 11};
p16 = newp;
Point(p16 + 1) = {21.751492433073, 2.179286956467795, 0};
Point(p16 + 2) = {21.71142432386274, 2.346182642549284, 0};
Point(p16 + 3) = {21.64574128219638, 2.504755532558115, 0};
Point(p16 + 4) = {21.55606064254928, 2.651101035669021, 0};
Point(p16 + 5) = {21.44459063990253, 2.781615639902533, 0};
Point(p16 + 6) = {21.31407603566902, 2.893085642549284, 0};
Point(p16 + 7) = {21.16773053255811, 2.982766282196382, 0};
Point(p16 + 8) = {21.00915764254928, 3.048449323862737, 0};
Point(p16 + 9) = {20.84226195646779, 3.088517433073005, 0};
Point(p16 + 10) = {20.671153, 3.101984, 0};
Point(p16 + 11) = {20.50004404353221, 3.088517433073005, 0};
Point(p16 + 12) = {20.33314835745072, 3.048449323862737, 0};
Point(p16 + 13) = {20.17457546744189, 2.982766282196382, 0};
Point(p16 + 14) = {20.02822996433098, 2.893085642549284, 0};
Point(p16 + 15) = {19.89771536009747, 2.781615639902533, 0};
Point(p16 + 16) = {19.78624535745072, 2.651101035669021, 0};
Point(p16 + 17) = {19.69656471780362, 2.504755532558115, 0};
Point(p16 + 18) = {19.63088167613726, 2.346182642549284, 0};
Point(p16 + 19) = {19.590813566927, 2.179286956467795, 0};
Point(p16 + 20) = {19.577347, 2.008178, 0};
Point(p16 + 21) = {19.590813566927, 1.837069043532205, 0};
Point(p16 + 22) = {19.63088167613726, 1.670173357450716, 0};
Point(p16 + 23) = {19.69656471780362, 1.511600467441886, 0};
Point(p16 + 24) = {19.78624535745072, 1.365254964330979, 0};
Point(p16 + 25) = {19.89771536009747, 1.234740360097467, 0};
Point(p16 + 26) = {20.02822996433098, 1.123270357450716, 0};
Point(p16 + 27) = {20.17457546744189, 1.033589717803618, 0};
Point(p16 + 28) = {20.33314835745072, 0.9679066761372632, 0};
Point(p16 + 29) = {20.50004404353221, 0.9278385669269948, 0};
Point(p16 + 30) = {20.671153, 0.914372, 0};
Point(p16 + 31) = {20.84226195646779, 0.9278385669269946, 0};
Point(p16 + 32) = {21.00915764254928, 0.9679066761372632, 0};
Point(p16 + 33) = {21.16773053255811, 1.033589717803618, 0};
Point(p16 + 34) = {21.31407603566902, 1.123270357450716, 0};
Point(p16 + 35) = {21.44459063990253, 1.234740360097467, 0};
Point(p16 + 36) = {21.55606064254928, 1.365254964330979, 0};
Point(p16 + 37) = {21.64574128219638, 1.511600467441885, 0};
Point(p16 + 38) = {21.71142432386274, 1.670173357450716, 0};
Point(p16 + 39) = {21.751492433073, 1.837069043532205, 0};
Spline(16) = {12, p16 + 1, p16 + 2, p16 + 3, p16 + 4, p16 + 5, p16 + 6, p16 + 7, p16 + 8, p16 + 9, p16 + 10, p16 + 11, p16 + 12, p16 + 13, p16 + 14, p16 + 15, p16 + 16, p16 + 17, p16 + 18, p16 + 19, p16 + 20, p16 + 21, p16 + 22, p16 + 23, p16 + 24, p16 + 25, p16 + 26, p16 + 27, p16 + 28, p16 + 29, p16 + 30, p16 + 31, p16 + 32, p16 + 33, p16 + 34, p16 + 35, p16 + 36, p16 + 37, p16 + 38, p16 + 39, 12};
Line(17) = {11, 8};
Line(18) = {12, 9};
Curve Loop(1) = {-1, 4, 3, -2};
Plane Surface(1) = {1};
Curve Loop(2) = {-5, 1, 7, -6};
Plane Surface(2) = {2};
Curve Loop(3) = {-2, 7, 9, -8, -10, -11};
Plane Surface(3) = {3};
Curve Loop(4) = {-12, 3, 8, -13};
Plane Surface(4) = {4};
Curve Loop(5) = {-4, 5, 14, -12, -15, -16};
Plane Surface(5) = {5};
Curve Loop(6) = {-6, 14, 13, -9};
Plane Surface(6) = {6};
Curve Loop(7) = {-10, -17, 15, 17};
Surface(7) = {7};
Curve Loop(8) = {-11, -18, 16, 18};
Surface(8) = {8};
Surface Loop(1) = {1, 2, 3, 4, 5, 6, 7, 8};
Volume(1) = {1};
Physical Surface("INFLOW") = {1};
Physical Surface("OUTFLOW") = {6};
Physical Surface("OBSTACLE") = {7, 8};
Physical Surface("WALL_Y") = {2, 4};
Physical Surface("WALL_Z") = {3, 5};
Physical Volume("FLUID") = {1};
