cl__1 = 1;
cl__2 = 0.09198000000000001;
cl__3 = 0.072981;
Point(1) = {0.659649, -3.913818, 1, cl__1};
Point(2) = {0.659649, -3.913818, 0, cl__1};
Point(3) = {0.659649, 4.44286, 1, cl__1};
Point(4) = {0.659649, 4.44286, 0, cl__1};
Point(5) = {37.241868, -3.913818, 0, cl__1};
Point(6) = {37.241868, -3.913818, 1, cl__1};
Point(7) = {37.241868, 4.44286, 1, cl__1};
Point(8) = {32.932595, 0.03643099999999978, 1, cl__2};
Point(9) = {17.617889, 0.7570819999999998, 1, cl__3};
Point(10) = {37.241868, 4.44286, 0, cl__1};
Point(11) = {32.932595, 0.03643099999999978, 0, cl__2};
Point(12) = {17.617889, 0.7570819999999998, 0, cl__3};
Line(1) = {2, 1};
Line(2) = {1, 3};
Line(3) = {4, 3};
Line(4) = {2, 4};
Line(5) = {2, 5};
Line(6) = {5, 6};
Line(7) = {1, 6};
Line(8) = {3, 7};
Line(9) = {6, 7};
p10 = newp;
Point(p10 + 1) = {32.9212707972377, 0.1803186387716791, 1};
Point(p10 + 2) = {32.8875770284057, 0.3206632863411047, 1};
Point(p10 + 3) = {32.83234334591584, 0.4540091917079364, 1};
Point(p10 + 4) = {32.7569297863411, 0.5770729361323553, 1};
Point(p10 + 5) = {32.66319328180148, 0.6868242818014805, 1};
Point(p10 + 6) = {32.55344193613235, 0.7805607863411048, 1};
Point(p10 + 7) = {32.43037819170794, 0.8559743459158398, 1};
Point(p10 + 8) = {32.2970322863411, 0.9112080284057008, 1};
Point(p10 + 9) = {32.15668763877168, 0.9449017972377047, 1};
Point(p10 + 10) = {32.0128, 0.956226, 1};
Point(p10 + 11) = {31.86891236122832, 0.9449017972377046, 1};
Point(p10 + 12) = {31.72856771365889, 0.9112080284057008, 1};
Point(p10 + 13) = {31.59522180829206, 0.8559743459158399, 1};
Point(p10 + 14) = {31.47215806386764, 0.7805607863411048, 1};
Point(p10 + 15) = {31.36240671819852, 0.6868242818014806, 1};
Point(p10 + 16) = {31.26867021365889, 0.5770729361323554, 1};
Point(p10 + 17) = {31.19325665408416, 0.4540091917079365, 1};
Point(p10 + 18) = {31.1380229715943, 0.3206632863411049, 1};
Point(p10 + 19) = {31.10432920276229, 0.1803186387716793, 1};
Point(p10 + 20) = {31.093005, 0.03643100000000011, 1};
Point(p10 + 21) = {31.10432920276229, -0.107456638771679, 1};
Point(p10 + 22) = {31.1380229715943, -0.247801286341105, 1};
Point(p10 + 23) = {31.19325665408416, -0.381147191707936, 1};
Point(p10 + 24) = {31.26867021365889, -0.5042109361323552, 1};
Point(p10 + 25) = {31.36240671819852, -0.6139622818014805, 1};
Point(p10 + 26) = {31.47215806386764, -0.7076987863411047, 1};
Point(p10 + 27) = {31.59522180829206, -0.7831123459158398, 1};
Point(p10 + 28) = {31.72856771365889, -0.8383460284057008, 1};
Point(p10 + 29) = {31.86891236122832, -0.8720397972377046, 1};
Point(p10 + 30) = {32.0128, -0.883364, 1};
Point(p10 + 31) = {32.15668763877168, -0.8720397972377048, 1};
Point(p10 + 32) = {32.2970322863411, -0.8383460284057008, 1};
Point(p10 + 33) = {32.43037819170794, -0.7831123459158399, 1};
Point(p10 + 34) = {32.55344193613235, -0.7076987863411049, 1};
Point(p10 + 35) = {32.66319328180148, -0.6139622818014806, 1};
Point(p10 + 36) = {32.7569297863411, -0.5042109361323556, 1};
Point(p10 + 37) = {32.83234334591584, -0.3811471917079367, 1};
Point(p10 + 38) = {32.8875770284057, -0.247801286341105, 1};
Point(p10 + 39) = {32.9212707972377, -0.1074566387716794, 1};
Spline(10) = {8, p10 + 1, p10 + 2, p10 + 3, p10 + 4, p10 + 5, p10 + 6, p10 + 7, p10 + 8, p10 + 9, p10 + 10, p10 + 11, p10 + 12, p10 + 13, p10 + 14, p10 + 15, p10 + 16, p10 + 17, p10 + 18, p10 + 19, p10 + 20, p10 + 21, p10 + 22, p10 + 23, p10 + 24, p10 + 25, p10 + 26, p10 + 27, p10 + 28, p10 + 29, p10 + 30, p10 + 31, p10 + 32, p10 + 33, p10 + 34, p10 + 35, p10 + 36, p10 + 37, p10 + 38, p10 + 39, 8};
p11 = newp;
Point(p11 + 1) = {17.6089037786031, 0.8712500626688711, 1};
Point(p11 + 2) = {17.58216936038343, 0.9826069287327579, 1};
Point(p11 + 3) = {17.53834403544401, 1.088410622576918, 1};
Point(p11 + 4) = {17.47850692873276, 1.186055906116579, 1};
Point(p11 + 5) = {17.40413142840488, 1.273138428404879, 1};
Point(p11 + 6) = {17.31704890611658, 1.347513928732758, 1};
Point(p11 + 7) = {17.21940362257692, 1.407351035444009, 1};
Point(p11 + 8) = {17.11359992873276, 1.451176360383431, 1};
Point(p11 + 9) = {17.00224306266887, 1.4779107786031, 1};
Point(p11 + 10) = {16.888075, 1.486896, 1};
Point(p11 + 11) = {16.77390693733113, 1.4779107786031, 1};
Point(p11 + 12) = {16.66255007126724, 1.451176360383431, 1};
Point(p11 + 13) = {16.55674637742308, 1.40735103544401, 1};
Point(p11 + 14) = {16.45910109388342, 1.347513928732758, 1};
Point(p11 + 15) = {16.37201857159512, 1.273138428404879, 1};
Point(p11 + 16) = {16.29764307126724, 1.186055906116579, 1};
Point(p11 + 17) = {16.23780596455599, 1.088410622576918, 1};
Point(p11 + 18) = {16.19398063961657, 0.9826069287327579, 1};
Point(p11 + 19) = {16.1672462213969, 0.8712500626688712, 1};
Point(p11 + 20) = {16.158261, 0.7570820000000001, 1};
Point(p11 + 21) = {16.1672462213969, 0.6429139373311291, 1};
Point(p11 + 22) = {16.19398063961657, 0.5315570712672419, 1};
Point(p11 + 23) = {16.23780596455599, 0.4257533774230828, 1};
Point(p11 + 24) = {16.29764307126724, 0.3281080938834212, 1};
Point(p11 + 25) = {16.37201857159512, 0.2410255715951211, 1};
Point(p11 + 26) = {16.45910109388342, 0.1666500712672423, 1};
Point(p11 + 27) = {16.55674637742308, 0.1068129645559907, 1};
Point(p11 + 28) = {16.66255007126724, 0.06298763961656884, 1};
Point(p11 + 29) = {16.77390693733113, 0.03625322139690024, 1};
Point(p11 + 30) = {16.888075, 0.02726800000000007, 1};
Point(p11 + 31) = {17.00224306266887, 0.03625322139690024, 1};
Point(p11 + 32) = {17.11359992873276, 0.06298763961656884, 1};
Point(p11 + 33) = {17.21940362257692, 0.1068129645559905, 1};
Point(p11 + 34) = {17.31704890611658, 0.1666500712672421, 1};
Point(p11 + 35) = {17.40413142840488, 0.2410255715951209, 1};
Point(p11 + 36) = {17.47850692873276, 0.3281080938834209, 1};
Point(p11 + 37) = {17.53834403544401, 0.4257533774230823, 1};
Point(p11 + 38) = {17.58216936038343, 0.5315570712672421, 1};
Point(p11 + 39) = {17.6089037786031, 0.6429139373311288, 1};
Spline(11) = {9, p11 + 1, p11 + 2, p11 + 3, p11 + 4, p11 + 5, p11 + 6, p11 + 7, p11 + 8, p11 + 9, p11 + 10, p11 + 11, p11 + 12, p11 + 13, p11 + 14, p11 + 15, p11 + 16, p11 + 17, p11 + 18, p11 + 19, p11 + 20, p11 + 21, p11 + 22, p11 + 23, p11 + 24, p11 + 25, p11 + 26, p11 + 27, p11 + 28, p11 + 29, p11 + 30, p11 + 31, p11 + 32, p11 + 33, p11 + 34, p11 + 35, p11 + 36, p11 + 37, p11 + 38, p11 + 39, 9};
Line(12) = {4, 10};
Line(13) = {10, 7};
Line(14) = {5, 10};
p15 = newp;
Point(p15 + 1) = {32.9212707972377, 0.1803186387716791, 0};
Point(p15 + 2) = {32.8875770284057, 0.3206632863411047, 0};
Point(p15 + 3) = {32.83234334591584, 0.4540091917079364, 0};
Point(p15 + 4) = {32.7569297863411, 0.5770729361323553, 0};
Point(p15 + 5) = {32.66319328180148, 0.6868242818014805, 0};
Point(p15 + 6) = {32.55344193613235, 0.7805607863411048, 0};
Point(p15 + 7) = {32.43037819170794, 0.8559743459158398, 0};
Point(p15 + 8) = {32.2970322863411, 0.9112080284057008, 0};
Point(p15 + 9) = {32.15668763877168, 0.9449017972377047, 0};
Point(p15 + 10) = {32.0128, 0.956226, 0};
Point(p15 + 11) = {31.86891236122832, 0.9449017972377046, 0};
Point(p15 + 12) = {31.72856771365889, 0.9112080284057008, 0};
Point(p15 + 13) = {31.59522180829206, 0.8559743459158399, 0};
Point(p15 + 14) = {31.47215806386764, 0.7805607863411048, 0};
Point(p15 + 15) = {31.36240671819852, 0.6868242818014806, 0};
Point(p15 + 16) = {31.26867021365889, 0.5770729361323554, 0};
Point(p15 + 17) = {31.19325665408416, 0.4540091917079365, 0};
Point(p15 + 18) = {31.1380229715943, 0.3206632863411049, 0};
Point(p15 + 19) = {31.10432920276229, 0.1803186387716793, 0};
Point(p15 + 20) = {31.093005, 0.03643100000000011, 0};
Point(p15 + 21) = {31.10432920276229, -0.107456638771679, 0};
Point(p15 + 22) = {31.1380229715943, -0.247801286341105, 0};
Point(p15 + 23) = {31.19325665408416, -0.381147191707936, 0};
Point(p15 + 24) = {31.26867021365889, -0.5042109361323552, 0};
Point(p15 + 25) = {31.36240671819852, -0.6139622818014805, 0};
Point(p15 + 26) = {31.47215806386764, -0.7076987863411047, 0};
Point(p15 + 27) = {31.59522180829206, -0.7831123459158398, 0};
Point(p15 + 28) = {31.72856771365889, -0.8383460284057008, 0};
Point(p15 + 29) = {31.86891236122832, -0.8720397972377046, 0};
Point(p15 + 30) = {32.0128, -0.883364, 0};
Point(p15 + 31) = {32.15668763877168, -0.8720397972377048, 0};
Point(p15 + 32) = {32.2970322863411, -0.8383460284057008, 0};
Point(p15 + 33) = {32.43037819170794, -0.7831123459158399, 0};
Point(p15 + 34) = {32.55344193613235, -0.7076987863411049, 0};
Point(p15 + 35) = {32.66319328180148, -0.6139622818014806, 0};
Point(p15 + 36) = {32.7569297863411, -0.5042109361323556, 0};
Point(p15 + 37) = {32.83234334591584, -0.3811471917079367, 0};
Point(p15 + 38) = {32.8875770284057, -0.247801286341105, 0};
Point(p15 + 39) = {32.9212707972377, -0.1074566387716794, 0};
Spline(15) = {11, p15 + 1, p15 + 2, p15 + 3, p15 + 4, p15 + 5, p15 + 6, p15 + 7, p15 + 8, p15 + 9, p15 + 10, p15 + 11, p15 + 12, p15 + 13, p15 + 14, p15 + 15, p15 + 16, p15 + 17, p15 + 18, p15 + 19, p15 + 20, p15 + 21, p15 + 22, p15 + 23, p15 + 24, p15 + 25, p15 + 26, p15 + 27, p15 + 28, p15 + 29, p15 + 30, p15 + 31, p15 + 32, p15 + 33, p15 + 34, p15 + 35, p15 + 36, p15 + 37, p15 + 38, p15 + 39, 11};
p16 = newp;
Point(p16 + 1) = {17.6089037786031, 0.8712500626688711, 0};
Point(p16 + 2) = {17.58216936038343, 0.9826069287327579, 0};
Point(p16 + 3) = {17.53834403544401, 1.088410622576918, 0};
Point(p16 + 4) = {17.47850692873276, 1.186055906116579, 0};
Point(p16 + 5) = {17.40413142840488, 1.273138428404879, 0};
Point(p16 + 6) = {17.31704890611658, 1.347513928732758, 0};
Point(p16 + 7) = {17.21940362257692, 1.407351035444009, 0};
Point(p16 + 8) = {17.11359992873276, 1.451176360383431, 0};
Point(p16 + 9) = {17.00224306266887, 1.4779107786031, 0};
Point(p16 + 10) = {16.888075, 1.486896, 0};
Point(p16 + 11) = {16.77390693733113, 1.4779107786031, 0};
Point(p16 + 12) = {16.66255007126724, 1.451176360383431, 0};
Point(p16 + 13) = {16.55674637742308, 1.40735103544401, 0};
Point(p16 + 14) = {16.45910109388342, 1.347513928732758, 0};
Point(p16 + 15) = {16.37201857159512, 1.273138428404879, 0};
Point(p16 + 16) = {16.29764307126724, 1.186055906116579, 0};
Point(p16 + 17) = {16.23780596455599, 1.088410622576918, 0};
Point(p16 + 18) = {16.19398063961657, 0.9826069287327579, 0};
Point(p16 + 19) = {16.1672462213969, 0.8712500626688712, 0};
Point(p16 + 20) = {16.158261, 0.7570820000000001, 0};
Point(p16 + 21) = {16.1672462213969, 0.6429139373311291, 0};
Point(p16 + 22) = {16.19398063961657, 0.5315570712672419, 0};
Point(p16 + 23) = {16.23780596455599, 0.4257533774230828, 0};
Point(p16 + 24) = {16.29764307126724, 0.3281080938834212, 0};
Point(p16 + 25) = {16.37201857159512, 0.2410255715951211, 0};
Point(p16 + 26) = {16.45910109388342, 0.1666500712672423, 0};
Point(p16 + 27) = {16.55674637742308, 0.1068129645559907, 0};
Point(p16 + 28) = {16.66255007126724, 0.06298763961656884, 0};
Point(p16 + 29) = {16.77390693733113, 0.03625322139690024, 0};
Point(p16 + 30) = {16.888075, 0.02726800000000007, 0};
Point(p16 + 31) = {17.00224306266887, 0.03625322139690024, 0};
Point(p16 + 32) = {17.11359992873276, 0.06298763961656884, 0};
Point(p16 + 33) = {17.21940362257692, 0.1068129645559905, 0};
Point(p16 + 34) = {17.31704890611658, 0.1666500712672421, 0};
Point(p16 + 35) = {17.40413142840488, 0.2410255715951209, 0};
Point(p16 + 36) = {17.47850692873276, 0.3281080938834209, 0};
Point(p16 + 37) = {17.53834403544401, 0.4257533774230823, 0};
Point(p16 + 38) = {17.58216936038343, 0.5315570712672421, 0};
Point(p16 + 39) = {17.6089037786031, 0.6429139373311288, 0};
Spline(16) = {12, p16 + 1, p16 + 2, p16 + 3, p16 + 4, p16 + 5, p16 + 6, p16 + 7, p16 + 8, p16 + 9, p16 + 10, p16 + 11, p16 + 12, p16 + 13, p16 + 14, p16 + 15, p16 + 16, p16 + 17, p16 + 18, p16 + 19, p16 + 20, p16 + 21, p16 + 22, p16 + 23, p16 + 24, p16 + 25, p16 + 26, p16 + 27, p16 + 28, p16 + 29, p16 + 30, p16 + 31, p16 + 32, p16 + 33, p16 + 34, p16 + 35, p16 + 36, p16 + 37, p16 + 38, p16 + 39, 12};
Line(17) = {11, 8};
Line(18) = {12, 9};
Curve Loop(1) = {-1, 4, 3, -2};
Plane Surface(1) = {1};
Curve Loop(2) = {-5, 1, 7, -6};
Plane Surface(2) = {2};
Curve Loop(3) = {-2, 7, 9, -8, -10, -11};
Plane Surface(3) = {3};
Curve Loop(4) = {-12, 3, 8, -13};
Plane Surface(4) = {4};
Curve Loop(5) = {-4, 5, 14, -12, -15, -16};
Plane Surface(5) = {5};
Curve Loop(6) = {-6, 14, 13, -9};
Plane Surface(6) = {6};
Curve Loop(7) = {-10, -17, 15, 17};
Surface(7) = {7};
Curve Loop(8) = {-11, -18, 16, 18};
Surface(8) = {8};
Surface Loop(1) = {1, 2, 3, 4, 5, 6, 7, 8};
Volume(1) = {1};
Physical Surface("INFLOW") = {1};
Physical Surface("OUTFLOW") = {6};
Physical Surface("OBSTACLE") = {7, 8};
Physical Surface("WALL_Y") = {2, 4};
Physical Surface("WALL_Z") = {3, 5};
Physical Volume("FLUID") = {1};
