cl__1 = 0.621096;
cl__2 = 3.095026;
cl__3 = 0.071185;
cl__4 = 0.083776;
Point(1) = {0.664144, -4.059808, 1, cl__1};
Point(2) = {0.664144, -4.059808, 0, cl__1};
Point(3) = {0.664144, 4.776253000000001, 1, cl__2};
Point(4) = {0.664144, 4.776253000000001, 0, cl__2};
Point(5) = {30.633307, -4.059808, 0, cl__1};
Point(6) = {30.633307, -4.059808, 1, cl__1};
Point(7) = {30.633307, 4.776253000000001, 1, cl__2};
Point(8) = {7.384702, -0.6216780000000001, 1, cl__3};
Point(9) = {9.063926, 2.901264, 1, cl__4};
Point(10) = {30.633307, 4.776253000000001, 0, cl__2};
Point(11) = {7.384702, -0.6216780000000001, 0, cl__3};
Point(12) = {9.063926, 2.901264, 0, cl__4};
Line(1) = {2, 1};
Line(2) = {1, 3};
Line(3) = {4, 3};
Line(4) = {2, 4};
Line(5) = {2, 5};
Line(6) = {5, 6};
Line(7) = {1, 6};
Line(8) = {3, 7};
Line(9) = {6, 7};
p10 = newp;
Point(p10 + 1) = {7.375937932940989, -0.5103199696266466, 1};
Point(p10 + 2) = {7.349861532181221, -0.4017039435371993, 1};
Point(p10 + 3) = {7.307114885250013, -0.2985044087699039, 1};
Point(p10 + 4) = {7.248750556462801, -0.2032624803703507, 1};
Point(p10 + 5) = {7.176205669294425, -0.118323330705575, 1};
Point(p10 + 6) = {7.091266519629649, -0.04577844353719918, 1};
Point(p10 + 7) = {6.996024591230096, 0.01258588525001381, 1};
Point(p10 + 8) = {6.8928250564628, 0.05533253218122136, 1};
Point(p10 + 9) = {6.784209030373353, 0.0814089329409895, 1};
Point(p10 + 10) = {6.672851, 0.09017300000000006, 1};
Point(p10 + 11) = {6.561492969626646, 0.08140893294098939, 1};
Point(p10 + 12) = {6.452876943537199, 0.05533253218122147, 1};
Point(p10 + 13) = {6.349677408769904, 0.01258588525001392, 1};
Point(p10 + 14) = {6.254435480370351, -0.04577844353719918, 1};
Point(p10 + 15) = {6.169496330705575, -0.1183233307055749, 1};
Point(p10 + 16) = {6.096951443537199, -0.2032624803703506, 1};
Point(p10 + 17) = {6.038587114749986, -0.2985044087699038, 1};
Point(p10 + 18) = {5.995840467818779, -0.4017039435371992, 1};
Point(p10 + 19) = {5.96976406705901, -0.5103199696266465, 1};
Point(p10 + 20) = {5.960999999999999, -0.6216779999999998, 1};
Point(p10 + 21) = {5.96976406705901, -0.7330360303733532, 1};
Point(p10 + 22) = {5.995840467818779, -0.8416520564628008, 1};
Point(p10 + 23) = {6.038587114749985, -0.9448515912300957, 1};
Point(p10 + 24) = {6.096951443537199, -1.040093519629649, 1};
Point(p10 + 25) = {6.169496330705575, -1.125032669294425, 1};
Point(p10 + 26) = {6.254435480370351, -1.197577556462801, 1};
Point(p10 + 27) = {6.349677408769903, -1.255941885250014, 1};
Point(p10 + 28) = {6.452876943537198, -1.298688532181221, 1};
Point(p10 + 29) = {6.561492969626646, -1.324764932940989, 1};
Point(p10 + 30) = {6.672851, -1.333529, 1};
Point(p10 + 31) = {6.784209030373353, -1.324764932940989, 1};
Point(p10 + 32) = {6.8928250564628, -1.298688532181221, 1};
Point(p10 + 33) = {6.996024591230095, -1.255941885250014, 1};
Point(p10 + 34) = {7.091266519629649, -1.197577556462801, 1};
Point(p10 + 35) = {7.176205669294425, -1.125032669294425, 1};
Point(p10 + 36) = {7.248750556462801, -1.040093519629649, 1};
Point(p10 + 37) = {7.307114885250013, -0.9448515912300962, 1};
Point(p10 + 38) = {7.349861532181221, -0.8416520564628007, 1};
Point(p10 + 39) = {7.375937932940989, -0.7330360303733535, 1};
Spline(10) = {8, p10 + 1, p10 + 2, p10 + 3, p10 + 4, p10 + 5, p10 + 6, p10 + 7, p10 + 8, p10 + 9, p10 + 10, p10 + 11, p10 + 12, p10 + 13, p10 + 14, p10 + 15, p10 + 16, p10 + 17, p10 + 18, p10 + 19, p10 + 20, p10 + 21, p10 + 22, p10 + 23, p10 + 24, p10 + 25, p10 + 26, p10 + 27, p10 + 28, p10 + 29, p10 + 30, p10 + 31, p10 + 32, p10 + 33, p10 + 34, p10 + 35, p10 + 36, p10 + 37, p10 + 38, p10 + 39, 8};
p11 = newp;
Point(p11 + 1) = {9.053611845775281, 3.032317755259779, 1};
Point(p11 + 2) = {9.022923351808847, 3.160144532122584, 1};
Point(p11 + 3) = {8.972616170671428, 3.281596811109304, 1};
Point(p11 + 4) = {8.903929032122585, 3.393684034034281, 1};
Point(p11 + 5) = {8.818553241472937, 3.493646241472936, 1};
Point(p11 + 6) = {8.718591034034281, 3.579022032122584, 1};
Point(p11 + 7) = {8.606503811109304, 3.647709170671426, 1};
Point(p11 + 8) = {8.485051532122585, 3.698016351808846, 1};
Point(p11 + 9) = {8.357224755259779, 3.72870484577528, 1};
Point(p11 + 10) = {8.226171000000001, 3.739019, 1};
Point(p11 + 11) = {8.095117244740223, 3.72870484577528, 1};
Point(p11 + 12) = {7.967290467877417, 3.698016351808846, 1};
Point(p11 + 13) = {7.845838188890697, 3.647709170671426, 1};
Point(p11 + 14) = {7.73375096596572, 3.579022032122584, 1};
Point(p11 + 15) = {7.633788758527064, 3.493646241472936, 1};
Point(p11 + 16) = {7.548412967877416, 3.393684034034281, 1};
Point(p11 + 17) = {7.479725829328575, 3.281596811109304, 1};
Point(p11 + 18) = {7.429418648191154, 3.160144532122584, 1};
Point(p11 + 19) = {7.398730154224721, 3.032317755259779, 1};
Point(p11 + 20) = {7.388416000000001, 2.901264, 1};
Point(p11 + 21) = {7.398730154224721, 2.770210244740221, 1};
Point(p11 + 22) = {7.429418648191154, 2.642383467877416, 1};
Point(p11 + 23) = {7.479725829328574, 2.520931188890696, 1};
Point(p11 + 24) = {7.548412967877416, 2.408843965965719, 1};
Point(p11 + 25) = {7.633788758527064, 2.308881758527064, 1};
Point(p11 + 26) = {7.73375096596572, 2.223505967877416, 1};
Point(p11 + 27) = {7.845838188890697, 2.154818829328573, 1};
Point(p11 + 28) = {7.967290467877417, 2.104511648191154, 1};
Point(p11 + 29) = {8.095117244740223, 2.07382315422472, 1};
Point(p11 + 30) = {8.226171000000001, 2.063509, 1};
Point(p11 + 31) = {8.357224755259779, 2.07382315422472, 1};
Point(p11 + 32) = {8.485051532122585, 2.104511648191153, 1};
Point(p11 + 33) = {8.606503811109304, 2.154818829328573, 1};
Point(p11 + 34) = {8.718591034034281, 2.223505967877416, 1};
Point(p11 + 35) = {8.818553241472937, 2.308881758527064, 1};
Point(p11 + 36) = {8.903929032122585, 2.408843965965719, 1};
Point(p11 + 37) = {8.972616170671428, 2.520931188890696, 1};
Point(p11 + 38) = {9.022923351808847, 2.642383467877416, 1};
Point(p11 + 39) = {9.053611845775281, 2.770210244740221, 1};
Spline(11) = {9, p11 + 1, p11 + 2, p11 + 3, p11 + 4, p11 + 5, p11 + 6, p11 + 7, p11 + 8, p11 + 9, p11 + 10, p11 + 11, p11 + 12, p11 + 13, p11 + 14, p11 + 15, p11 + 16, p11 + 17, p11 + 18, p11 + 19, p11 + 20, p11 + 21, p11 + 22, p11 + 23, p11 + 24, p11 + 25, p11 + 26, p11 + 27, p11 + 28, p11 + 29, p11 + 30, p11 + 31, p11 + 32, p11 + 33, p11 + 34, p11 + 35, p11 + 36, p11 + 37, p11 + 38, p11 + 39, 9};
Line(12) = {4, 10};
Line(13) = {10, 7};
Line(14) = {5, 10};
p15 = newp;
Point(p15 + 1) = {7.375937932940989, -0.5103199696266466, 0};
Point(p15 + 2) = {7.349861532181221, -0.4017039435371993, 0};
Point(p15 + 3) = {7.307114885250013, -0.2985044087699039, 0};
Point(p15 + 4) = {7.248750556462801, -0.2032624803703507, 0};
Point(p15 + 5) = {7.176205669294425, -0.118323330705575, 0};
Point(p15 + 6) = {7.091266519629649, -0.04577844353719918, 0};
Point(p15 + 7) = {6.996024591230096, 0.01258588525001381, 0};
Point(p15 + 8) = {6.8928250564628, 0.05533253218122136, 0};
Point(p15 + 9) = {6.784209030373353, 0.0814089329409895, 0};
Point(p15 + 10) = {6.672851, 0.09017300000000006, 0};
Point(p15 + 11) = {6.561492969626646, 0.08140893294098939, 0};
Point(p15 + 12) = {6.452876943537199, 0.05533253218122147, 0};
Point(p15 + 13) = {6.349677408769904, 0.01258588525001392, 0};
Point(p15 + 14) = {6.254435480370351, -0.04577844353719918, 0};
Point(p15 + 15) = {6.169496330705575, -0.1183233307055749, 0};
Point(p15 + 16) = {6.096951443537199, -0.2032624803703506, 0};
Point(p15 + 17) = {6.038587114749986, -0.2985044087699038, 0};
Point(p15 + 18) = {5.995840467818779, -0.4017039435371992, 0};
Point(p15 + 19) = {5.96976406705901, -0.5103199696266465, 0};
Point(p15 + 20) = {5.960999999999999, -0.6216779999999998, 0};
Point(p15 + 21) = {5.96976406705901, -0.7330360303733532, 0};
Point(p15 + 22) = {5.995840467818779, -0.8416520564628008, 0};
Point(p15 + 23) = {6.038587114749985, -0.9448515912300957, 0};
Point(p15 + 24) = {6.096951443537199, -1.040093519629649, 0};
Point(p15 + 25) = {6.169496330705575, -1.125032669294425, 0};
Point(p15 + 26) = {6.254435480370351, -1.197577556462801, 0};
Point(p15 + 27) = {6.349677408769903, -1.255941885250014, 0};
Point(p15 + 28) = {6.452876943537198, -1.298688532181221, 0};
Point(p15 + 29) = {6.561492969626646, -1.324764932940989, 0};
Point(p15 + 30) = {6.672851, -1.333529, 0};
Point(p15 + 31) = {6.784209030373353, -1.324764932940989, 0};
Point(p15 + 32) = {6.8928250564628, -1.298688532181221, 0};
Point(p15 + 33) = {6.996024591230095, -1.255941885250014, 0};
Point(p15 + 34) = {7.091266519629649, -1.197577556462801, 0};
Point(p15 + 35) = {7.176205669294425, -1.125032669294425, 0};
Point(p15 + 36) = {7.248750556462801, -1.040093519629649, 0};
Point(p15 + 37) = {7.307114885250013, -0.9448515912300962, 0};
Point(p15 + 38) = {7.349861532181221, -0.8416520564628007, 0};
Point(p15 + 39) = {7.375937932940989, -0.7330360303733535, 0};
Spline(15) = {11, p15 + 1, p15 + 2, p15 + 3, p15 + 4, p15 + 5, p15 + 6, p15 + 7, p15 + 8, p15 + 9, p15 + 10, p15 + 11, p15 + 12, p15 + 13, p15 + 14, p15 + 15, p15 + 16, p15 + 17, p15 + 18, p15 + 19, p15 + 20, p15 + 21, p15 + 22, p15 + 23, p15 + 24, p15 + 25, p15 + 26, p15 + 27, p15 + 28, p15 + 29, p15 + 30, p15 + 31, p15 + 32, p15 + 33, p15 + 34, p15 + 35, p15 + 36, p15 + 37, p15 + 38, p15 + 39, 11};
p16 = newp;
Point(p16 + 1) = {9.053611845775281, 3.032317755259779, 0};
Point(p16 + 2) = {9.022923351808847, 3.160144532122584, 0};
Point(p16 + 3) = {8.972616170671428, 3.281596811109304, 0};
Point(p16 + 4) = {8.903929032122585, 3.393684034034281, 0};
Point(p16 + 5) = {8.818553241472937, 3.493646241472936, 0};
Point(p16 + 6) = {8.718591034034281, 3.579022032122584, 0};
Point(p16 + 7) = {8.606503811109304, 3.647709170671426, 0};
Point(p16 + 8) = {8.485051532122585, 3.698016351808846, 0};
Point(p16 + 9) = {8.357224755259779, 3.72870484577528, 0};
Point(p16 + 10) = {8.226171000000001, 3.739019, 0};
Point(p16 + 11) = {8.095117244740223, 3.72870484577528, 0};
Point(p16 + 12) = {7.967290467877417, 3.698016351808846, 0};
Point(p16 + 13) = {7.845838188890697, 3.647709170671426, 0};
Point(p16 + 14) = {7.73375096596572, 3.579022032122584, 0};
Point(p16 + 15) = {7.633788758527064, 3.493646241472936, 0};
Point(p16 + 16) = {7.548412967877416, 3.393684034034281, 0};
Point(p16 + 17) = {7.479725829328575, 3.281596811109304, 0};
Point(p16 + 18) = {7.429418648191154, 3.160144532122584, 0};
Point(p16 + 19) = {7.398730154224721, 3.032317755259779, 0};
Point(p16 + 20) = {7.388416000000001, 2.901264, 0};
Point(p16 + 21) = {7.398730154224721, 2.770210244740221, 0};
Point(p16 + 22) = {7.429418648191154, 2.642383467877416, 0};
Point(p16 + 23) = {7.479725829328574, 2.520931188890696, 0};
Point(p16 + 24) = {7.548412967877416, 2.408843965965719, 0};
Point(p16 + 25) = {7.633788758527064, 2.308881758527064, 0};
Point(p16 + 26) = {7.73375096596572, 2.223505967877416, 0};
Point(p16 + 27) = {7.845838188890697, 2.154818829328573, 0};
Point(p16 + 28) = {7.967290467877417, 2.104511648191154, 0};
Point(p16 + 29) = {8.095117244740223, 2.07382315422472, 0};
Point(p16 + 30) = {8.226171000000001, 2.063509, 0};
Point(p16 + 31) = {8.357224755259779, 2.07382315422472, 0};
Point(p16 + 32) = {8.485051532122585, 2.104511648191153, 0};
Point(p16 + 33) = {8.606503811109304, 2.154818829328573, 0};
Point(p16 + 34) = {8.718591034034281, 2.223505967877416, 0};
Point(p16 + 35) = {8.818553241472937, 2.308881758527064, 0};
Point(p16 + 36) = {8.903929032122585, 2.408843965965719, 0};
Point(p16 + 37) = {8.972616170671428, 2.520931188890696, 0};
Point(p16 + 38) = {9.022923351808847, 2.642383467877416, 0};
Point(p16 + 39) = {9.053611845775281, 2.770210244740221, 0};
Spline(16) = {12, p16 + 1, p16 + 2, p16 + 3, p16 + 4, p16 + 5, p16 + 6, p16 + 7, p16 + 8, p16 + 9, p16 + 10, p16 + 11, p16 + 12, p16 + 13, p16 + 14, p16 + 15, p16 + 16, p16 + 17, p16 + 18, p16 + 19, p16 + 20, p16 + 21, p16 + 22, p16 + 23, p16 + 24, p16 + 25, p16 + 26, p16 + 27, p16 + 28, p16 + 29, p16 + 30, p16 + 31, p16 + 32, p16 + 33, p16 + 34, p16 + 35, p16 + 36, p16 + 37, p16 + 38, p16 + 39, 12};
Line(17) = {11, 8};
Line(18) = {12, 9};
Curve Loop(1) = {-1, 4, 3, -2};
Plane Surface(1) = {1};
Curve Loop(2) = {-5, 1, 7, -6};
Plane Surface(2) = {2};
Curve Loop(3) = {-2, 7, 9, -8, -10, -11};
Plane Surface(3) = {3};
Curve Loop(4) = {-12, 3, 8, -13};
Plane Surface(4) = {4};
Curve Loop(5) = {-4, 5, 14, -12, -15, -16};
Plane Surface(5) = {5};
Curve Loop(6) = {-6, 14, 13, -9};
Plane Surface(6) = {6};
Curve Loop(7) = {-10, -17, 15, 17};
Surface(7) = {7};
Curve Loop(8) = {-11, -18, 16, 18};
Surface(8) = {8};
Surface Loop(1) = {1, 2, 3, 4, 5, 6, 7, 8};
Volume(1) = {1};
Physical Surface("INFLOW") = {1};
Physical Surface("OUTFLOW") = {6};
Physical Surface("OBSTACLE") = {7, 8};
Physical Surface("WALL_Y") = {2, 4};
Physical Surface("WALL_Z") = {3, 5};
Physical Volume("FLUID") = {1};
