cl__1 = 0.481681;
cl__2 = 0.479436;
cl__3 = 3.768446;
cl__4 = 0.147149;
Point(1) = {0.090133, -3.67444, 1, cl__1};
Point(2) = {0.090133, -3.67444, 0, cl__1};
Point(3) = {0.090133, 4.264659999999999, 1, cl__2};
Point(4) = {0.090133, 4.264659999999999, 0, cl__2};
Point(5) = {37.474808, -3.67444, 0, cl__3};
Point(6) = {37.474808, -3.67444, 1, cl__3};
Point(7) = {37.474808, 4.264659999999999, 1, cl__3};
Point(8) = {6.424153, 0.3128619999999996, 1, cl__4};
Point(9) = {37.474808, 4.264659999999999, 0, cl__3};
Point(10) = {6.424153, 0.3128619999999996, 0, cl__4};
Line(1) = {2, 1};
Line(2) = {1, 3};
Line(3) = {4, 3};
Line(4) = {2, 4};
Line(5) = {2, 5};
Line(6) = {5, 6};
Line(7) = {1, 6};
Line(8) = {3, 7};
Line(9) = {6, 7};
p10 = newp;
Point(p10 + 1) = {6.40603651630234, 0.5430537509620493, 1};
Point(p10 + 2) = {6.352133153163155, 0.7675774170527914, 1};
Point(p10 + 3) = {6.263770190277942, 0.9809044804617456, 1};
Point(p10 + 4) = {6.143123417052792, 1.177782120895851, 1};
Point(p10 + 5) = {5.993163557448193, 1.353362557448193, 1};
Point(p10 + 6) = {5.817583120895852, 1.503322417052791, 1};
Point(p10 + 7) = {5.620705480461746, 1.623969190277941, 1};
Point(p10 + 8) = {5.407378417052792, 1.712332153163155, 1};
Point(p10 + 9) = {5.18285475096205, 1.766235516302339, 1};
Point(p10 + 10) = {4.952663, 1.784352, 1};
Point(p10 + 11) = {4.722471249037951, 1.766235516302339, 1};
Point(p10 + 12) = {4.497947582947209, 1.712332153163156, 1};
Point(p10 + 13) = {4.284620519538255, 1.623969190277941, 1};
Point(p10 + 14) = {4.087742879104149, 1.503322417052791, 1};
Point(p10 + 15) = {3.912162442551808, 1.353362557448193, 1};
Point(p10 + 16) = {3.762202582947209, 1.177782120895851, 1};
Point(p10 + 17) = {3.641555809722059, 0.9809044804617457, 1};
Point(p10 + 18) = {3.553192846836845, 0.7675774170527915, 1};
Point(p10 + 19) = {3.499289483697661, 0.5430537509620494, 1};
Point(p10 + 20) = {3.481173, 0.3128620000000001, 1};
Point(p10 + 21) = {3.499289483697661, 0.08267024903795087, 1};
Point(p10 + 22) = {3.553192846836845, -0.1418534170527919, 1};
Point(p10 + 23) = {3.641555809722059, -0.3551804804617449, 1};
Point(p10 + 24) = {3.762202582947209, -0.5520581208958512, 1};
Point(p10 + 25) = {3.912162442551807, -0.7276385574481927, 1};
Point(p10 + 26) = {4.087742879104149, -0.8775984170527913, 1};
Point(p10 + 27) = {4.284620519538255, -0.9982451902779412, 1};
Point(p10 + 28) = {4.497947582947209, -1.086608153163156, 1};
Point(p10 + 29) = {4.722471249037951, -1.140511516302339, 1};
Point(p10 + 30) = {4.952663, -1.158628, 1};
Point(p10 + 31) = {5.182854750962049, -1.140511516302339, 1};
Point(p10 + 32) = {5.407378417052791, -1.086608153163156, 1};
Point(p10 + 33) = {5.620705480461746, -0.9982451902779415, 1};
Point(p10 + 34) = {5.817583120895852, -0.8775984170527915, 1};
Point(p10 + 35) = {5.993163557448193, -0.7276385574481929, 1};
Point(p10 + 36) = {6.143123417052792, -0.5520581208958516, 1};
Point(p10 + 37) = {6.263770190277942, -0.355180480461746, 1};
Point(p10 + 38) = {6.352133153163155, -0.1418534170527917, 1};
Point(p10 + 39) = {6.40603651630234, 0.08267024903795034, 1};
Spline(10) = {8, p10 + 1, p10 + 2, p10 + 3, p10 + 4, p10 + 5, p10 + 6, p10 + 7, p10 + 8, p10 + 9, p10 + 10, p10 + 11, p10 + 12, p10 + 13, p10 + 14, p10 + 15, p10 + 16, p10 + 17, p10 + 18, p10 + 19, p10 + 20, p10 + 21, p10 + 22, p10 + 23, p10 + 24, p10 + 25, p10 + 26, p10 + 27, p10 + 28, p10 + 29, p10 + 30, p10 + 31, p10 + 32, p10 + 33, p10 + 34, p10 + 35, p10 + 36, p10 + 37, p10 + 38, p10 + 39, 8};
Line(11) = {4, 9};
Line(12) = {9, 7};
Line(13) = {5, 9};
p14 = newp;
Point(p14 + 1) = {6.40603651630234, 0.5430537509620493, 0};
Point(p14 + 2) = {6.352133153163155, 0.7675774170527914, 0};
Point(p14 + 3) = {6.263770190277942, 0.9809044804617456, 0};
Point(p14 + 4) = {6.143123417052792, 1.177782120895851, 0};
Point(p14 + 5) = {5.993163557448193, 1.353362557448193, 0};
Point(p14 + 6) = {5.817583120895852, 1.503322417052791, 0};
Point(p14 + 7) = {5.620705480461746, 1.623969190277941, 0};
Point(p14 + 8) = {5.407378417052792, 1.712332153163155, 0};
Point(p14 + 9) = {5.18285475096205, 1.766235516302339, 0};
Point(p14 + 10) = {4.952663, 1.784352, 0};
Point(p14 + 11) = {4.722471249037951, 1.766235516302339, 0};
Point(p14 + 12) = {4.497947582947209, 1.712332153163156, 0};
Point(p14 + 13) = {4.284620519538255, 1.623969190277941, 0};
Point(p14 + 14) = {4.087742879104149, 1.503322417052791, 0};
Point(p14 + 15) = {3.912162442551808, 1.353362557448193, 0};
Point(p14 + 16) = {3.762202582947209, 1.177782120895851, 0};
Point(p14 + 17) = {3.641555809722059, 0.9809044804617457, 0};
Point(p14 + 18) = {3.553192846836845, 0.7675774170527915, 0};
Point(p14 + 19) = {3.499289483697661, 0.5430537509620494, 0};
Point(p14 + 20) = {3.481173, 0.3128620000000001, 0};
Point(p14 + 21) = {3.499289483697661, 0.08267024903795087, 0};
Point(p14 + 22) = {3.553192846836845, -0.1418534170527919, 0};
Point(p14 + 23) = {3.641555809722059, -0.3551804804617449, 0};
Point(p14 + 24) = {3.762202582947209, -0.5520581208958512, 0};
Point(p14 + 25) = {3.912162442551807, -0.7276385574481927, 0};
Point(p14 + 26) = {4.087742879104149, -0.8775984170527913, 0};
Point(p14 + 27) = {4.284620519538255, -0.9982451902779412, 0};
Point(p14 + 28) = {4.497947582947209, -1.086608153163156, 0};
Point(p14 + 29) = {4.722471249037951, -1.140511516302339, 0};
Point(p14 + 30) = {4.952663, -1.158628, 0};
Point(p14 + 31) = {5.182854750962049, -1.140511516302339, 0};
Point(p14 + 32) = {5.407378417052791, -1.086608153163156, 0};
Point(p14 + 33) = {5.620705480461746, -0.9982451902779415, 0};
Point(p14 + 34) = {5.817583120895852, -0.8775984170527915, 0};
Point(p14 + 35) = {5.993163557448193, -0.7276385574481929, 0};
Point(p14 + 36) = {6.143123417052792, -0.5520581208958516, 0};
Point(p14 + 37) = {6.263770190277942, -0.355180480461746, 0};
Point(p14 + 38) = {6.352133153163155, -0.1418534170527917, 0};
Point(p14 + 39) = {6.40603651630234, 0.08267024903795034, 0};
Spline(14) = {10, p14 + 1, p14 + 2, p14 + 3, p14 + 4, p14 + 5, p14 + 6, p14 + 7, p14 + 8, p14 + 9, p14 + 10, p14 + 11, p14 + 12, p14 + 13, p14 + 14, p14 + 15, p14 + 16, p14 + 17, p14 + 18, p14 + 19, p14 + 20, p14 + 21, p14 + 22, p14 + 23, p14 + 24, p14 + 25, p14 + 26, p14 + 27, p14 + 28, p14 + 29, p14 + 30, p14 + 31, p14 + 32, p14 + 33, p14 + 34, p14 + 35, p14 + 36, p14 + 37, p14 + 38, p14 + 39, 10};
Line(15) = {10, 8};
Curve Loop(1) = {-1, 4, 3, -2};
Plane Surface(1) = {1};
Curve Loop(2) = {-5, 1, 7, -6};
Plane Surface(2) = {2};
Curve Loop(3) = {-2, 7, 9, -8, -10};
Plane Surface(3) = {3};
Curve Loop(4) = {-11, 3, 8, -12};
Plane Surface(4) = {4};
Curve Loop(5) = {-4, 5, 13, -11, -14};
Plane Surface(5) = {5};
Curve Loop(6) = {-6, 13, 12, -9};
Plane Surface(6) = {6};
Curve Loop(7) = {-10, -15, 14, 15};
Surface(7) = {7};
Surface Loop(1) = {1, 2, 3, 4, 5, 6, 7};
Volume(1) = {1};
Physical Surface("INFLOW") = {1};
Physical Surface("OUTFLOW") = {6};
Physical Surface("OBSTACLE") = {7};
Physical Surface("WALL_Y") = {2, 4};
Physical Surface("WALL_Z") = {3, 5};
Physical Volume("FLUID") = {1};
