cl__1 = 1.058953;
cl__2 = 1.099647;
cl__3 = 3.475067;
cl__4 = 0.091599;
Point(1) = {0.72084, -3.820594, 1, cl__1};
Point(2) = {0.72084, -3.820594, 0, cl__1};
Point(3) = {0.72084, 4.250640000000001, 1, cl__2};
Point(4) = {0.72084, 4.250640000000001, 0, cl__2};
Point(5) = {34.515549, -3.820594, 0, cl__3};
Point(6) = {34.515549, -3.820594, 1, cl__3};
Point(7) = {34.515549, 4.250640000000001, 1, cl__3};
Point(8) = {12.614401, -0.3753210000000002, 1, cl__4};
Point(9) = {34.515549, 4.250640000000001, 0, cl__3};
Point(10) = {12.614401, -0.3753210000000002, 0, cl__4};
Line(1) = {2, 1};
Line(2) = {1, 3};
Line(3) = {4, 3};
Line(4) = {2, 4};
Line(5) = {2, 5};
Line(6) = {5, 6};
Line(7) = {1, 6};
Line(8) = {3, 7};
Line(9) = {6, 7};
p10 = newp;
Point(p10 + 1) = {12.60312364310174, -0.2320285943677989, 1};
Point(p10 + 2) = {12.5695692583612, -0.09226452332249196, 1};
Point(p10 + 3) = {12.5145640660913, 0.04052975785642737, 1};
Point(p10 + 4) = {12.43946247667751, 0.1630844132473824, 1};
Point(p10 + 5) = {12.34611374049907, 0.2723817404990656, 1};
Point(p10 + 6) = {12.23681641324738, 0.3657304766775081, 1};
Point(p10 + 7) = {12.11426175785643, 0.440832066091303, 1};
Point(p10 + 8) = {11.98146747667751, 0.4958372583611976, 1};
Point(p10 + 9) = {11.8417034056322, 0.5293916431017403, 1};
Point(p10 + 10) = {11.698411, 0.540669, 1};
Point(p10 + 11) = {11.5551185943678, 0.5293916431017401, 1};
Point(p10 + 12) = {11.41535452332249, 0.4958372583611977, 1};
Point(p10 + 13) = {11.28256024214357, 0.4408320660913031, 1};
Point(p10 + 14) = {11.16000558675262, 0.3657304766775081, 1};
Point(p10 + 15) = {11.05070825950093, 0.2723817404990657, 1};
Point(p10 + 16) = {10.95735952332249, 0.1630844132473825, 1};
Point(p10 + 17) = {10.8822579339087, 0.04052975785642748, 1};
Point(p10 + 18) = {10.8272527416388, -0.09226452332249185, 1};
Point(p10 + 19) = {10.79369835689826, -0.2320285943677989, 1};
Point(p10 + 20) = {10.782421, -0.3753209999999999, 1};
Point(p10 + 21) = {10.79369835689826, -0.5186134056322009, 1};
Point(p10 + 22) = {10.8272527416388, -0.6583774766775083, 1};
Point(p10 + 23) = {10.8822579339087, -0.791171757856427, 1};
Point(p10 + 24) = {10.95735952332249, -0.9137264132473824, 1};
Point(p10 + 25) = {11.05070825950093, -1.023023740499066, 1};
Point(p10 + 26) = {11.16000558675262, -1.116372476677508, 1};
Point(p10 + 27) = {11.28256024214357, -1.191474066091303, 1};
Point(p10 + 28) = {11.41535452332249, -1.246479258361198, 1};
Point(p10 + 29) = {11.5551185943678, -1.28003364310174, 1};
Point(p10 + 30) = {11.698411, -1.291311, 1};
Point(p10 + 31) = {11.8417034056322, -1.28003364310174, 1};
Point(p10 + 32) = {11.98146747667751, -1.246479258361198, 1};
Point(p10 + 33) = {12.11426175785643, -1.191474066091303, 1};
Point(p10 + 34) = {12.23681641324738, -1.116372476677508, 1};
Point(p10 + 35) = {12.34611374049907, -1.023023740499066, 1};
Point(p10 + 36) = {12.43946247667751, -0.9137264132473827, 1};
Point(p10 + 37) = {12.5145640660913, -0.7911717578564277, 1};
Point(p10 + 38) = {12.5695692583612, -0.6583774766775083, 1};
Point(p10 + 39) = {12.60312364310174, -0.5186134056322013, 1};
Spline(10) = {8, p10 + 1, p10 + 2, p10 + 3, p10 + 4, p10 + 5, p10 + 6, p10 + 7, p10 + 8, p10 + 9, p10 + 10, p10 + 11, p10 + 12, p10 + 13, p10 + 14, p10 + 15, p10 + 16, p10 + 17, p10 + 18, p10 + 19, p10 + 20, p10 + 21, p10 + 22, p10 + 23, p10 + 24, p10 + 25, p10 + 26, p10 + 27, p10 + 28, p10 + 29, p10 + 30, p10 + 31, p10 + 32, p10 + 33, p10 + 34, p10 + 35, p10 + 36, p10 + 37, p10 + 38, p10 + 39, 8};
Line(11) = {4, 9};
Line(12) = {9, 7};
Line(13) = {5, 9};
p14 = newp;
Point(p14 + 1) = {12.60312364310174, -0.2320285943677989, 0};
Point(p14 + 2) = {12.5695692583612, -0.09226452332249196, 0};
Point(p14 + 3) = {12.5145640660913, 0.04052975785642737, 0};
Point(p14 + 4) = {12.43946247667751, 0.1630844132473824, 0};
Point(p14 + 5) = {12.34611374049907, 0.2723817404990656, 0};
Point(p14 + 6) = {12.23681641324738, 0.3657304766775081, 0};
Point(p14 + 7) = {12.11426175785643, 0.440832066091303, 0};
Point(p14 + 8) = {11.98146747667751, 0.4958372583611976, 0};
Point(p14 + 9) = {11.8417034056322, 0.5293916431017403, 0};
Point(p14 + 10) = {11.698411, 0.540669, 0};
Point(p14 + 11) = {11.5551185943678, 0.5293916431017401, 0};
Point(p14 + 12) = {11.41535452332249, 0.4958372583611977, 0};
Point(p14 + 13) = {11.28256024214357, 0.4408320660913031, 0};
Point(p14 + 14) = {11.16000558675262, 0.3657304766775081, 0};
Point(p14 + 15) = {11.05070825950093, 0.2723817404990657, 0};
Point(p14 + 16) = {10.95735952332249, 0.1630844132473825, 0};
Point(p14 + 17) = {10.8822579339087, 0.04052975785642748, 0};
Point(p14 + 18) = {10.8272527416388, -0.09226452332249185, 0};
Point(p14 + 19) = {10.79369835689826, -0.2320285943677989, 0};
Point(p14 + 20) = {10.782421, -0.3753209999999999, 0};
Point(p14 + 21) = {10.79369835689826, -0.5186134056322009, 0};
Point(p14 + 22) = {10.8272527416388, -0.6583774766775083, 0};
Point(p14 + 23) = {10.8822579339087, -0.791171757856427, 0};
Point(p14 + 24) = {10.95735952332249, -0.9137264132473824, 0};
Point(p14 + 25) = {11.05070825950093, -1.023023740499066, 0};
Point(p14 + 26) = {11.16000558675262, -1.116372476677508, 0};
Point(p14 + 27) = {11.28256024214357, -1.191474066091303, 0};
Point(p14 + 28) = {11.41535452332249, -1.246479258361198, 0};
Point(p14 + 29) = {11.5551185943678, -1.28003364310174, 0};
Point(p14 + 30) = {11.698411, -1.291311, 0};
Point(p14 + 31) = {11.8417034056322, -1.28003364310174, 0};
Point(p14 + 32) = {11.98146747667751, -1.246479258361198, 0};
Point(p14 + 33) = {12.11426175785643, -1.191474066091303, 0};
Point(p14 + 34) = {12.23681641324738, -1.116372476677508, 0};
Point(p14 + 35) = {12.34611374049907, -1.023023740499066, 0};
Point(p14 + 36) = {12.43946247667751, -0.9137264132473827, 0};
Point(p14 + 37) = {12.5145640660913, -0.7911717578564277, 0};
Point(p14 + 38) = {12.5695692583612, -0.6583774766775083, 0};
Point(p14 + 39) = {12.60312364310174, -0.5186134056322013, 0};
Spline(14) = {10, p14 + 1, p14 + 2, p14 + 3, p14 + 4, p14 + 5, p14 + 6, p14 + 7, p14 + 8, p14 + 9, p14 + 10, p14 + 11, p14 + 12, p14 + 13, p14 + 14, p14 + 15, p14 + 16, p14 + 17, p14 + 18, p14 + 19, p14 + 20, p14 + 21, p14 + 22, p14 + 23, p14 + 24, p14 + 25, p14 + 26, p14 + 27, p14 + 28, p14 + 29, p14 + 30, p14 + 31, p14 + 32, p14 + 33, p14 + 34, p14 + 35, p14 + 36, p14 + 37, p14 + 38, p14 + 39, 10};
Line(15) = {10, 8};
Curve Loop(1) = {-1, 4, 3, -2};
Plane Surface(1) = {1};
Curve Loop(2) = {-5, 1, 7, -6};
Plane Surface(2) = {2};
Curve Loop(3) = {-2, 7, 9, -8, -10};
Plane Surface(3) = {3};
Curve Loop(4) = {-11, 3, 8, -12};
Plane Surface(4) = {4};
Curve Loop(5) = {-4, 5, 13, -11, -14};
Plane Surface(5) = {5};
Curve Loop(6) = {-6, 13, 12, -9};
Plane Surface(6) = {6};
Curve Loop(7) = {-10, -15, 14, 15};
Surface(7) = {7};
Surface Loop(1) = {1, 2, 3, 4, 5, 6, 7};
Volume(1) = {1};
Physical Surface("INFLOW") = {1};
Physical Surface("OUTFLOW") = {6};
Physical Surface("OBSTACLE") = {7};
Physical Surface("WALL_Y") = {2, 4};
Physical Surface("WALL_Z") = {3, 5};
Physical Volume("FLUID") = {1};
