cl__1 = 1.48107;
cl__2 = 3.99454;
cl__3 = 1.124788;
cl__4 = 0.129166;
cl__5 = 0.1438;
Point(1) = {0.141428, -4.273279, 1, cl__1};
Point(2) = {0.141428, -4.273279, 0, cl__1};
Point(3) = {0.141428, 4.972921, 1, cl__2};
Point(4) = {0.141428, 4.972921, 0, cl__2};
Point(5) = {39.676965, -4.273279, 0, cl__3};
Point(6) = {39.676965, -4.273279, 1, cl__3};
Point(7) = {39.676965, 4.972921, 1, cl__2};
Point(8) = {13.574932, -1.140248, 1, cl__4};
Point(9) = {16.989705, 0.8787699999999997, 1, cl__5};
Point(10) = {39.676965, 4.972921, 0, cl__2};
Point(11) = {13.574932, -1.140248, 0, cl__4};
Point(12) = {16.989705, 0.8787699999999997, 0, cl__5};
Line(1) = {2, 1};
Line(2) = {1, 3};
Line(3) = {4, 3};
Line(4) = {2, 4};
Line(5) = {2, 5};
Line(6) = {5, 6};
Line(7) = {1, 6};
Line(8) = {3, 7};
Line(9) = {6, 7};
p10 = newp;
Point(p10 + 1) = {13.5590294973898, -0.9381875460172052, 1};
Point(p10 + 2) = {13.51171356195083, -0.7411024910116666, 1};
Point(p10 + 3) = {13.43414926904619, -0.5538457231254175, 1};
Point(p10 + 4) = {13.32824650898833, -0.3810281254533995, 1};
Point(p10 + 5) = {13.19661295920098, -0.2269050407990216, 1};
Point(p10 + 6) = {13.0424898745466, -0.09527149101166654, 1};
Point(p10 + 7) = {12.86967227687458, 0.0106312690461956, 1};
Point(p10 + 8) = {12.68241550898833, 0.08819556195083078, 1};
Point(p10 + 9) = {12.48533045398279, 0.1355114973897971, 1};
Point(p10 + 10) = {12.28327, 0.1514140000000002, 1};
Point(p10 + 11) = {12.0812095460172, 0.1355114973897968, 1};
Point(p10 + 12) = {11.88412449101167, 0.088195561950831, 1};
Point(p10 + 13) = {11.69686772312542, 0.01063126904619582, 1};
Point(p10 + 14) = {11.5240501254534, -0.09527149101166654, 1};
Point(p10 + 15) = {11.36992704079902, -0.2269050407990214, 1};
Point(p10 + 16) = {11.23829349101167, -0.3810281254533993, 1};
Point(p10 + 17) = {11.13239073095381, -0.5538457231254174, 1};
Point(p10 + 18) = {11.05482643804917, -0.7411024910116665, 1};
Point(p10 + 19) = {11.0075105026102, -0.9381875460172051, 1};
Point(p10 + 20) = {10.991608, -1.140248, 1};
Point(p10 + 21) = {11.0075105026102, -1.342308453982795, 1};
Point(p10 + 22) = {11.05482643804917, -1.539393508988334, 1};
Point(p10 + 23) = {11.1323907309538, -1.726650276874582, 1};
Point(p10 + 24) = {11.23829349101167, -1.8994678745466, 1};
Point(p10 + 25) = {11.36992704079902, -2.053590959200978, 1};
Point(p10 + 26) = {11.5240501254534, -2.185224508988333, 1};
Point(p10 + 27) = {11.69686772312542, -2.291127269046195, 1};
Point(p10 + 28) = {11.88412449101167, -2.368691561950831, 1};
Point(p10 + 29) = {12.0812095460172, -2.416007497389796, 1};
Point(p10 + 30) = {12.28327, -2.43191, 1};
Point(p10 + 31) = {12.48533045398279, -2.416007497389797, 1};
Point(p10 + 32) = {12.68241550898833, -2.368691561950831, 1};
Point(p10 + 33) = {12.86967227687458, -2.291127269046195, 1};
Point(p10 + 34) = {13.0424898745466, -2.185224508988334, 1};
Point(p10 + 35) = {13.19661295920098, -2.053590959200978, 1};
Point(p10 + 36) = {13.32824650898833, -1.899467874546601, 1};
Point(p10 + 37) = {13.43414926904619, -1.726650276874583, 1};
Point(p10 + 38) = {13.51171356195083, -1.539393508988333, 1};
Point(p10 + 39) = {13.5590294973898, -1.342308453982795, 1};
Spline(10) = {8, p10 + 1, p10 + 2, p10 + 3, p10 + 4, p10 + 5, p10 + 6, p10 + 7, p10 + 8, p10 + 9, p10 + 10, p10 + 11, p10 + 12, p10 + 13, p10 + 14, p10 + 15, p10 + 16, p10 + 17, p10 + 18, p10 + 19, p10 + 20, p10 + 21, p10 + 22, p10 + 23, p10 + 24, p10 + 25, p10 + 26, p10 + 27, p10 + 28, p10 + 29, p10 + 30, p10 + 31, p10 + 32, p10 + 33, p10 + 34, p10 + 35, p10 + 36, p10 + 37, p10 + 38, p10 + 39, 8};
p11 = newp;
Point(p11 + 1) = {16.97200080915249, 1.103723073596782, 1};
Point(p11 + 2) = {16.91932417254546, 1.323137055945163, 1};
Point(p11 + 3) = {16.83297216379592, 1.531609246606468, 1};
Point(p11 + 4) = {16.71507105594516, 1.724006368367081, 1};
Point(p11 + 5) = {16.56852396555982, 1.895590965559818, 1};
Point(p11 + 6) = {16.39693936836708, 2.042138055945163, 1};
Point(p11 + 7) = {16.20454224660647, 2.160039163795921, 1};
Point(p11 + 8) = {15.99607005594516, 2.246391172545463, 1};
Point(p11 + 9) = {15.77665607359678, 2.299067809152489, 1};
Point(p11 + 10) = {15.551703, 2.316772, 1};
Point(p11 + 11) = {15.32674992640322, 2.299067809152489, 1};
Point(p11 + 12) = {15.10733594405484, 2.246391172545463, 1};
Point(p11 + 13) = {14.89886375339353, 2.160039163795922, 1};
Point(p11 + 14) = {14.70646663163292, 2.042138055945163, 1};
Point(p11 + 15) = {14.53488203444018, 1.895590965559818, 1};
Point(p11 + 16) = {14.38833494405484, 1.724006368367081, 1};
Point(p11 + 17) = {14.27043383620408, 1.531609246606468, 1};
Point(p11 + 18) = {14.18408182745454, 1.323137055945163, 1};
Point(p11 + 19) = {14.13140519084751, 1.103723073596782, 1};
Point(p11 + 20) = {14.113701, 0.8787700000000003, 1};
Point(p11 + 21) = {14.13140519084751, 0.6538169264032182, 1};
Point(p11 + 22) = {14.18408182745454, 0.4344029440548365, 1};
Point(p11 + 23) = {14.27043383620408, 0.2259307533935331, 1};
Point(p11 + 24) = {14.38833494405484, 0.03353363163291923, 1};
Point(p11 + 25) = {14.53488203444018, -0.1380509655598177, 1};
Point(p11 + 26) = {14.70646663163292, -0.2845980559451631, 1};
Point(p11 + 27) = {14.89886375339353, -0.4024991637959212, 1};
Point(p11 + 28) = {15.10733594405484, -0.4888511725454634, 1};
Point(p11 + 29) = {15.32674992640322, -0.5415278091524891, 1};
Point(p11 + 30) = {15.551703, -0.559232, 1};
Point(p11 + 31) = {15.77665607359678, -0.5415278091524893, 1};
Point(p11 + 32) = {15.99607005594516, -0.4888511725454634, 1};
Point(p11 + 33) = {16.20454224660647, -0.4024991637959214, 1};
Point(p11 + 34) = {16.39693936836708, -0.2845980559451633, 1};
Point(p11 + 35) = {16.56852396555982, -0.1380509655598179, 1};
Point(p11 + 36) = {16.71507105594516, 0.03353363163291878, 1};
Point(p11 + 37) = {16.83297216379592, 0.2259307533935321, 1};
Point(p11 + 38) = {16.91932417254546, 0.4344029440548366, 1};
Point(p11 + 39) = {16.97200080915249, 0.6538169264032176, 1};
Spline(11) = {9, p11 + 1, p11 + 2, p11 + 3, p11 + 4, p11 + 5, p11 + 6, p11 + 7, p11 + 8, p11 + 9, p11 + 10, p11 + 11, p11 + 12, p11 + 13, p11 + 14, p11 + 15, p11 + 16, p11 + 17, p11 + 18, p11 + 19, p11 + 20, p11 + 21, p11 + 22, p11 + 23, p11 + 24, p11 + 25, p11 + 26, p11 + 27, p11 + 28, p11 + 29, p11 + 30, p11 + 31, p11 + 32, p11 + 33, p11 + 34, p11 + 35, p11 + 36, p11 + 37, p11 + 38, p11 + 39, 9};
Line(12) = {4, 10};
Line(13) = {10, 7};
Line(14) = {5, 10};
p15 = newp;
Point(p15 + 1) = {13.5590294973898, -0.9381875460172052, 0};
Point(p15 + 2) = {13.51171356195083, -0.7411024910116666, 0};
Point(p15 + 3) = {13.43414926904619, -0.5538457231254175, 0};
Point(p15 + 4) = {13.32824650898833, -0.3810281254533995, 0};
Point(p15 + 5) = {13.19661295920098, -0.2269050407990216, 0};
Point(p15 + 6) = {13.0424898745466, -0.09527149101166654, 0};
Point(p15 + 7) = {12.86967227687458, 0.0106312690461956, 0};
Point(p15 + 8) = {12.68241550898833, 0.08819556195083078, 0};
Point(p15 + 9) = {12.48533045398279, 0.1355114973897971, 0};
Point(p15 + 10) = {12.28327, 0.1514140000000002, 0};
Point(p15 + 11) = {12.0812095460172, 0.1355114973897968, 0};
Point(p15 + 12) = {11.88412449101167, 0.088195561950831, 0};
Point(p15 + 13) = {11.69686772312542, 0.01063126904619582, 0};
Point(p15 + 14) = {11.5240501254534, -0.09527149101166654, 0};
Point(p15 + 15) = {11.36992704079902, -0.2269050407990214, 0};
Point(p15 + 16) = {11.23829349101167, -0.3810281254533993, 0};
Point(p15 + 17) = {11.13239073095381, -0.5538457231254174, 0};
Point(p15 + 18) = {11.05482643804917, -0.7411024910116665, 0};
Point(p15 + 19) = {11.0075105026102, -0.9381875460172051, 0};
Point(p15 + 20) = {10.991608, -1.140248, 0};
Point(p15 + 21) = {11.0075105026102, -1.342308453982795, 0};
Point(p15 + 22) = {11.05482643804917, -1.539393508988334, 0};
Point(p15 + 23) = {11.1323907309538, -1.726650276874582, 0};
Point(p15 + 24) = {11.23829349101167, -1.8994678745466, 0};
Point(p15 + 25) = {11.36992704079902, -2.053590959200978, 0};
Point(p15 + 26) = {11.5240501254534, -2.185224508988333, 0};
Point(p15 + 27) = {11.69686772312542, -2.291127269046195, 0};
Point(p15 + 28) = {11.88412449101167, -2.368691561950831, 0};
Point(p15 + 29) = {12.0812095460172, -2.416007497389796, 0};
Point(p15 + 30) = {12.28327, -2.43191, 0};
Point(p15 + 31) = {12.48533045398279, -2.416007497389797, 0};
Point(p15 + 32) = {12.68241550898833, -2.368691561950831, 0};
Point(p15 + 33) = {12.86967227687458, -2.291127269046195, 0};
Point(p15 + 34) = {13.0424898745466, -2.185224508988334, 0};
Point(p15 + 35) = {13.19661295920098, -2.053590959200978, 0};
Point(p15 + 36) = {13.32824650898833, -1.899467874546601, 0};
Point(p15 + 37) = {13.43414926904619, -1.726650276874583, 0};
Point(p15 + 38) = {13.51171356195083, -1.539393508988333, 0};
Point(p15 + 39) = {13.5590294973898, -1.342308453982795, 0};
Spline(15) = {11, p15 + 1, p15 + 2, p15 + 3, p15 + 4, p15 + 5, p15 + 6, p15 + 7, p15 + 8, p15 + 9, p15 + 10, p15 + 11, p15 + 12, p15 + 13, p15 + 14, p15 + 15, p15 + 16, p15 + 17, p15 + 18, p15 + 19, p15 + 20, p15 + 21, p15 + 22, p15 + 23, p15 + 24, p15 + 25, p15 + 26, p15 + 27, p15 + 28, p15 + 29, p15 + 30, p15 + 31, p15 + 32, p15 + 33, p15 + 34, p15 + 35, p15 + 36, p15 + 37, p15 + 38, p15 + 39, 11};
p16 = newp;
Point(p16 + 1) = {16.97200080915249, 1.103723073596782, 0};
Point(p16 + 2) = {16.91932417254546, 1.323137055945163, 0};
Point(p16 + 3) = {16.83297216379592, 1.531609246606468, 0};
Point(p16 + 4) = {16.71507105594516, 1.724006368367081, 0};
Point(p16 + 5) = {16.56852396555982, 1.895590965559818, 0};
Point(p16 + 6) = {16.39693936836708, 2.042138055945163, 0};
Point(p16 + 7) = {16.20454224660647, 2.160039163795921, 0};
Point(p16 + 8) = {15.99607005594516, 2.246391172545463, 0};
Point(p16 + 9) = {15.77665607359678, 2.299067809152489, 0};
Point(p16 + 10) = {15.551703, 2.316772, 0};
Point(p16 + 11) = {15.32674992640322, 2.299067809152489, 0};
Point(p16 + 12) = {15.10733594405484, 2.246391172545463, 0};
Point(p16 + 13) = {14.89886375339353, 2.160039163795922, 0};
Point(p16 + 14) = {14.70646663163292, 2.042138055945163, 0};
Point(p16 + 15) = {14.53488203444018, 1.895590965559818, 0};
Point(p16 + 16) = {14.38833494405484, 1.724006368367081, 0};
Point(p16 + 17) = {14.27043383620408, 1.531609246606468, 0};
Point(p16 + 18) = {14.18408182745454, 1.323137055945163, 0};
Point(p16 + 19) = {14.13140519084751, 1.103723073596782, 0};
Point(p16 + 20) = {14.113701, 0.8787700000000003, 0};
Point(p16 + 21) = {14.13140519084751, 0.6538169264032182, 0};
Point(p16 + 22) = {14.18408182745454, 0.4344029440548365, 0};
Point(p16 + 23) = {14.27043383620408, 0.2259307533935331, 0};
Point(p16 + 24) = {14.38833494405484, 0.03353363163291923, 0};
Point(p16 + 25) = {14.53488203444018, -0.1380509655598177, 0};
Point(p16 + 26) = {14.70646663163292, -0.2845980559451631, 0};
Point(p16 + 27) = {14.89886375339353, -0.4024991637959212, 0};
Point(p16 + 28) = {15.10733594405484, -0.4888511725454634, 0};
Point(p16 + 29) = {15.32674992640322, -0.5415278091524891, 0};
Point(p16 + 30) = {15.551703, -0.559232, 0};
Point(p16 + 31) = {15.77665607359678, -0.5415278091524893, 0};
Point(p16 + 32) = {15.99607005594516, -0.4888511725454634, 0};
Point(p16 + 33) = {16.20454224660647, -0.4024991637959214, 0};
Point(p16 + 34) = {16.39693936836708, -0.2845980559451633, 0};
Point(p16 + 35) = {16.56852396555982, -0.1380509655598179, 0};
Point(p16 + 36) = {16.71507105594516, 0.03353363163291878, 0};
Point(p16 + 37) = {16.83297216379592, 0.2259307533935321, 0};
Point(p16 + 38) = {16.91932417254546, 0.4344029440548366, 0};
Point(p16 + 39) = {16.97200080915249, 0.6538169264032176, 0};
Spline(16) = {12, p16 + 1, p16 + 2, p16 + 3, p16 + 4, p16 + 5, p16 + 6, p16 + 7, p16 + 8, p16 + 9, p16 + 10, p16 + 11, p16 + 12, p16 + 13, p16 + 14, p16 + 15, p16 + 16, p16 + 17, p16 + 18, p16 + 19, p16 + 20, p16 + 21, p16 + 22, p16 + 23, p16 + 24, p16 + 25, p16 + 26, p16 + 27, p16 + 28, p16 + 29, p16 + 30, p16 + 31, p16 + 32, p16 + 33, p16 + 34, p16 + 35, p16 + 36, p16 + 37, p16 + 38, p16 + 39, 12};
Line(17) = {11, 8};
Line(18) = {12, 9};
Curve Loop(1) = {-1, 4, 3, -2};
Plane Surface(1) = {1};
Curve Loop(2) = {-5, 1, 7, -6};
Plane Surface(2) = {2};
Curve Loop(3) = {-2, 7, 9, -8, -10, -11};
Plane Surface(3) = {3};
Curve Loop(4) = {-12, 3, 8, -13};
Plane Surface(4) = {4};
Curve Loop(5) = {-4, 5, 14, -12, -15, -16};
Plane Surface(5) = {5};
Curve Loop(6) = {-6, 14, 13, -9};
Plane Surface(6) = {6};
Curve Loop(7) = {-10, -17, 15, 17};
Surface(7) = {7};
Curve Loop(8) = {-11, -18, 16, 18};
Surface(8) = {8};
Surface Loop(1) = {1, 2, 3, 4, 5, 6, 7, 8};
Volume(1) = {1};
Physical Surface("INFLOW") = {1};
Physical Surface("OUTFLOW") = {6};
Physical Surface("OBSTACLE") = {7, 8};
Physical Surface("WALL_Y") = {2, 4};
Physical Surface("WALL_Z") = {3, 5};
Physical Volume("FLUID") = {1};
