cl__1 = 3.886793;
cl__2 = 0.765827;
cl__3 = 0.06406100000000001;
cl__4 = 0.058674;
Point(1) = {0.757283, -4.695809, 1, cl__1};
Point(2) = {0.757283, -4.695809, 0, cl__1};
Point(3) = {0.757283, 5.046798, 1, cl__2};
Point(4) = {0.757283, 5.046798, 0, cl__2};
Point(5) = {38.561465, -4.695809, 0, cl__1};
Point(6) = {38.561465, -4.695809, 1, cl__1};
Point(7) = {38.561465, 5.046798, 1, cl__2};
Point(8) = {26.448098, -3.071053, 1, cl__3};
Point(9) = {32.476677, 0.1488729999999998, 1, cl__4};
Point(10) = {38.561465, 5.046798, 0, cl__2};
Point(11) = {26.448098, -3.071053, 0, cl__3};
Point(12) = {32.476677, 0.1488729999999998, 0, cl__4};
Line(1) = {2, 1};
Line(2) = {1, 3};
Line(3) = {4, 3};
Line(4) = {2, 4};
Line(5) = {2, 5};
Line(6) = {5, 6};
Line(7) = {1, 6};
Line(8) = {3, 7};
Line(9) = {6, 7};
p10 = newp;
Point(p10 + 1) = {26.44021100324533, -2.970839204481648, 1};
Point(p10 + 2) = {26.41674421701687, -2.873093005199476, 1};
Point(p10 + 3) = {26.37827547147336, -2.780221237980849, 1};
Point(p10 + 4) = {26.32575199480052, -2.694510713958414, 1};
Point(p10 + 5) = {26.26046708930948, -2.618071910690523, 1};
Point(p10 + 6) = {26.18402828604159, -2.552787005199476, 1};
Point(p10 + 7) = {26.09831776201915, -2.500263528526641, 1};
Point(p10 + 8) = {26.00544599480052, -2.461794782983129, 1};
Point(p10 + 9) = {25.90769979551835, -2.438327996754668, 1};
Point(p10 + 10) = {25.807486, -2.430441, 1};
Point(p10 + 11) = {25.70727220448165, -2.438327996754668, 1};
Point(p10 + 12) = {25.60952600519948, -2.461794782983129, 1};
Point(p10 + 13) = {25.51665423798085, -2.500263528526641, 1};
Point(p10 + 14) = {25.43094371395841, -2.552787005199476, 1};
Point(p10 + 15) = {25.35450491069053, -2.618071910690523, 1};
Point(p10 + 16) = {25.28922000519948, -2.694510713958414, 1};
Point(p10 + 17) = {25.23669652852664, -2.780221237980849, 1};
Point(p10 + 18) = {25.19822778298313, -2.873093005199476, 1};
Point(p10 + 19) = {25.17476099675467, -2.970839204481647, 1};
Point(p10 + 20) = {25.166874, -3.071053, 1};
Point(p10 + 21) = {25.17476099675467, -3.171266795518352, 1};
Point(p10 + 22) = {25.19822778298313, -3.269012994800524, 1};
Point(p10 + 23) = {25.23669652852664, -3.36188476201915, 1};
Point(p10 + 24) = {25.28922000519948, -3.447595286041586, 1};
Point(p10 + 25) = {25.35450491069052, -3.524034089309477, 1};
Point(p10 + 26) = {25.43094371395841, -3.589318994800524, 1};
Point(p10 + 27) = {25.51665423798085, -3.641842471473359, 1};
Point(p10 + 28) = {25.60952600519948, -3.680311217016871, 1};
Point(p10 + 29) = {25.70727220448165, -3.703778003245332, 1};
Point(p10 + 30) = {25.807486, -3.711665, 1};
Point(p10 + 31) = {25.90769979551835, -3.703778003245332, 1};
Point(p10 + 32) = {26.00544599480052, -3.680311217016871, 1};
Point(p10 + 33) = {26.09831776201915, -3.641842471473359, 1};
Point(p10 + 34) = {26.18402828604158, -3.589318994800524, 1};
Point(p10 + 35) = {26.26046708930948, -3.524034089309477, 1};
Point(p10 + 36) = {26.32575199480052, -3.447595286041586, 1};
Point(p10 + 37) = {26.37827547147336, -3.361884762019151, 1};
Point(p10 + 38) = {26.41674421701687, -3.269012994800524, 1};
Point(p10 + 39) = {26.44021100324533, -3.171266795518353, 1};
Spline(10) = {8, p10 + 1, p10 + 2, p10 + 3, p10 + 4, p10 + 5, p10 + 6, p10 + 7, p10 + 8, p10 + 9, p10 + 10, p10 + 11, p10 + 12, p10 + 13, p10 + 14, p10 + 15, p10 + 16, p10 + 17, p10 + 18, p10 + 19, p10 + 20, p10 + 21, p10 + 22, p10 + 23, p10 + 24, p10 + 25, p10 + 26, p10 + 27, p10 + 28, p10 + 29, p10 + 30, p10 + 31, p10 + 32, p10 + 33, p10 + 34, p10 + 35, p10 + 36, p10 + 37, p10 + 38, p10 + 39, 8};
p11 = newp;
Point(p11 + 1) = {32.46945328158411, 0.240659045148775, 1};
Point(p11 + 2) = {32.44795999825799, 0.3301850132455679, 1};
Point(p11 + 3) = {32.41272638598923, 0.4152464778361822, 1};
Point(p11 + 4) = {32.36462001324556, 0.4937489433595811, 1};
Point(p11 + 5) = {32.30482541857983, 0.5637594185798325, 1};
Point(p11 + 6) = {32.23481494335958, 0.6235540132455679, 1};
Point(p11 + 7) = {32.15631247783618, 0.6716603859892346, 1};
Point(p11 + 8) = {32.07125101324556, 0.7068939982579858, 1};
Point(p11 + 9) = {31.98172504514877, 0.7283872815841099, 1};
Point(p11 + 10) = {31.889939, 0.735611, 1};
Point(p11 + 11) = {31.79815295485122, 0.7283872815841099, 1};
Point(p11 + 12) = {31.70862698675443, 0.7068939982579858, 1};
Point(p11 + 13) = {31.62356552216382, 0.6716603859892346, 1};
Point(p11 + 14) = {31.54506305664042, 0.6235540132455679, 1};
Point(p11 + 15) = {31.47505258142017, 0.5637594185798326, 1};
Point(p11 + 16) = {31.41525798675443, 0.4937489433595812, 1};
Point(p11 + 17) = {31.36715161401076, 0.4152464778361823, 1};
Point(p11 + 18) = {31.33191800174201, 0.3301850132455679, 1};
Point(p11 + 19) = {31.31042471841589, 0.2406590451487751, 1};
Point(p11 + 20) = {31.303201, 0.1488730000000001, 1};
Point(p11 + 21) = {31.31042471841589, 0.05708695485122511, 1};
Point(p11 + 22) = {31.33191800174201, -0.03243901324556808, 1};
Point(p11 + 23) = {31.36715161401076, -0.1175004778361819, 1};
Point(p11 + 24) = {31.41525798675443, -0.196002943359581, 1};
Point(p11 + 25) = {31.47505258142017, -0.2660134185798325, 1};
Point(p11 + 26) = {31.54506305664042, -0.3258080132455679, 1};
Point(p11 + 27) = {31.62356552216382, -0.3739143859892345, 1};
Point(p11 + 28) = {31.70862698675443, -0.4091479982579858, 1};
Point(p11 + 29) = {31.79815295485122, -0.4306412815841099, 1};
Point(p11 + 30) = {31.889939, -0.4378649999999999, 1};
Point(p11 + 31) = {31.98172504514877, -0.4306412815841099, 1};
Point(p11 + 32) = {32.07125101324556, -0.4091479982579858, 1};
Point(p11 + 33) = {32.15631247783618, -0.3739143859892345, 1};
Point(p11 + 34) = {32.23481494335958, -0.325808013245568, 1};
Point(p11 + 35) = {32.30482541857983, -0.2660134185798326, 1};
Point(p11 + 36) = {32.36462001324556, -0.1960029433595812, 1};
Point(p11 + 37) = {32.41272638598923, -0.1175004778361823, 1};
Point(p11 + 38) = {32.44795999825799, -0.032439013245568, 1};
Point(p11 + 39) = {32.46945328158411, 0.05708695485122489, 1};
Spline(11) = {9, p11 + 1, p11 + 2, p11 + 3, p11 + 4, p11 + 5, p11 + 6, p11 + 7, p11 + 8, p11 + 9, p11 + 10, p11 + 11, p11 + 12, p11 + 13, p11 + 14, p11 + 15, p11 + 16, p11 + 17, p11 + 18, p11 + 19, p11 + 20, p11 + 21, p11 + 22, p11 + 23, p11 + 24, p11 + 25, p11 + 26, p11 + 27, p11 + 28, p11 + 29, p11 + 30, p11 + 31, p11 + 32, p11 + 33, p11 + 34, p11 + 35, p11 + 36, p11 + 37, p11 + 38, p11 + 39, 9};
Line(12) = {4, 10};
Line(13) = {10, 7};
Line(14) = {5, 10};
p15 = newp;
Point(p15 + 1) = {26.44021100324533, -2.970839204481648, 0};
Point(p15 + 2) = {26.41674421701687, -2.873093005199476, 0};
Point(p15 + 3) = {26.37827547147336, -2.780221237980849, 0};
Point(p15 + 4) = {26.32575199480052, -2.694510713958414, 0};
Point(p15 + 5) = {26.26046708930948, -2.618071910690523, 0};
Point(p15 + 6) = {26.18402828604159, -2.552787005199476, 0};
Point(p15 + 7) = {26.09831776201915, -2.500263528526641, 0};
Point(p15 + 8) = {26.00544599480052, -2.461794782983129, 0};
Point(p15 + 9) = {25.90769979551835, -2.438327996754668, 0};
Point(p15 + 10) = {25.807486, -2.430441, 0};
Point(p15 + 11) = {25.70727220448165, -2.438327996754668, 0};
Point(p15 + 12) = {25.60952600519948, -2.461794782983129, 0};
Point(p15 + 13) = {25.51665423798085, -2.500263528526641, 0};
Point(p15 + 14) = {25.43094371395841, -2.552787005199476, 0};
Point(p15 + 15) = {25.35450491069053, -2.618071910690523, 0};
Point(p15 + 16) = {25.28922000519948, -2.694510713958414, 0};
Point(p15 + 17) = {25.23669652852664, -2.780221237980849, 0};
Point(p15 + 18) = {25.19822778298313, -2.873093005199476, 0};
Point(p15 + 19) = {25.17476099675467, -2.970839204481647, 0};
Point(p15 + 20) = {25.166874, -3.071053, 0};
Point(p15 + 21) = {25.17476099675467, -3.171266795518352, 0};
Point(p15 + 22) = {25.19822778298313, -3.269012994800524, 0};
Point(p15 + 23) = {25.23669652852664, -3.36188476201915, 0};
Point(p15 + 24) = {25.28922000519948, -3.447595286041586, 0};
Point(p15 + 25) = {25.35450491069052, -3.524034089309477, 0};
Point(p15 + 26) = {25.43094371395841, -3.589318994800524, 0};
Point(p15 + 27) = {25.51665423798085, -3.641842471473359, 0};
Point(p15 + 28) = {25.60952600519948, -3.680311217016871, 0};
Point(p15 + 29) = {25.70727220448165, -3.703778003245332, 0};
Point(p15 + 30) = {25.807486, -3.711665, 0};
Point(p15 + 31) = {25.90769979551835, -3.703778003245332, 0};
Point(p15 + 32) = {26.00544599480052, -3.680311217016871, 0};
Point(p15 + 33) = {26.09831776201915, -3.641842471473359, 0};
Point(p15 + 34) = {26.18402828604158, -3.589318994800524, 0};
Point(p15 + 35) = {26.26046708930948, -3.524034089309477, 0};
Point(p15 + 36) = {26.32575199480052, -3.447595286041586, 0};
Point(p15 + 37) = {26.37827547147336, -3.361884762019151, 0};
Point(p15 + 38) = {26.41674421701687, -3.269012994800524, 0};
Point(p15 + 39) = {26.44021100324533, -3.171266795518353, 0};
Spline(15) = {11, p15 + 1, p15 + 2, p15 + 3, p15 + 4, p15 + 5, p15 + 6, p15 + 7, p15 + 8, p15 + 9, p15 + 10, p15 + 11, p15 + 12, p15 + 13, p15 + 14, p15 + 15, p15 + 16, p15 + 17, p15 + 18, p15 + 19, p15 + 20, p15 + 21, p15 + 22, p15 + 23, p15 + 24, p15 + 25, p15 + 26, p15 + 27, p15 + 28, p15 + 29, p15 + 30, p15 + 31, p15 + 32, p15 + 33, p15 + 34, p15 + 35, p15 + 36, p15 + 37, p15 + 38, p15 + 39, 11};
p16 = newp;
Point(p16 + 1) = {32.46945328158411, 0.240659045148775, 0};
Point(p16 + 2) = {32.44795999825799, 0.3301850132455679, 0};
Point(p16 + 3) = {32.41272638598923, 0.4152464778361822, 0};
Point(p16 + 4) = {32.36462001324556, 0.4937489433595811, 0};
Point(p16 + 5) = {32.30482541857983, 0.5637594185798325, 0};
Point(p16 + 6) = {32.23481494335958, 0.6235540132455679, 0};
Point(p16 + 7) = {32.15631247783618, 0.6716603859892346, 0};
Point(p16 + 8) = {32.07125101324556, 0.7068939982579858, 0};
Point(p16 + 9) = {31.98172504514877, 0.7283872815841099, 0};
Point(p16 + 10) = {31.889939, 0.735611, 0};
Point(p16 + 11) = {31.79815295485122, 0.7283872815841099, 0};
Point(p16 + 12) = {31.70862698675443, 0.7068939982579858, 0};
Point(p16 + 13) = {31.62356552216382, 0.6716603859892346, 0};
Point(p16 + 14) = {31.54506305664042, 0.6235540132455679, 0};
Point(p16 + 15) = {31.47505258142017, 0.5637594185798326, 0};
Point(p16 + 16) = {31.41525798675443, 0.4937489433595812, 0};
Point(p16 + 17) = {31.36715161401076, 0.4152464778361823, 0};
Point(p16 + 18) = {31.33191800174201, 0.3301850132455679, 0};
Point(p16 + 19) = {31.31042471841589, 0.2406590451487751, 0};
Point(p16 + 20) = {31.303201, 0.1488730000000001, 0};
Point(p16 + 21) = {31.31042471841589, 0.05708695485122511, 0};
Point(p16 + 22) = {31.33191800174201, -0.03243901324556808, 0};
Point(p16 + 23) = {31.36715161401076, -0.1175004778361819, 0};
Point(p16 + 24) = {31.41525798675443, -0.196002943359581, 0};
Point(p16 + 25) = {31.47505258142017, -0.2660134185798325, 0};
Point(p16 + 26) = {31.54506305664042, -0.3258080132455679, 0};
Point(p16 + 27) = {31.62356552216382, -0.3739143859892345, 0};
Point(p16 + 28) = {31.70862698675443, -0.4091479982579858, 0};
Point(p16 + 29) = {31.79815295485122, -0.4306412815841099, 0};
Point(p16 + 30) = {31.889939, -0.4378649999999999, 0};
Point(p16 + 31) = {31.98172504514877, -0.4306412815841099, 0};
Point(p16 + 32) = {32.07125101324556, -0.4091479982579858, 0};
Point(p16 + 33) = {32.15631247783618, -0.3739143859892345, 0};
Point(p16 + 34) = {32.23481494335958, -0.325808013245568, 0};
Point(p16 + 35) = {32.30482541857983, -0.2660134185798326, 0};
Point(p16 + 36) = {32.36462001324556, -0.1960029433595812, 0};
Point(p16 + 37) = {32.41272638598923, -0.1175004778361823, 0};
Point(p16 + 38) = {32.44795999825799, -0.032439013245568, 0};
Point(p16 + 39) = {32.46945328158411, 0.05708695485122489, 0};
Spline(16) = {12, p16 + 1, p16 + 2, p16 + 3, p16 + 4, p16 + 5, p16 + 6, p16 + 7, p16 + 8, p16 + 9, p16 + 10, p16 + 11, p16 + 12, p16 + 13, p16 + 14, p16 + 15, p16 + 16, p16 + 17, p16 + 18, p16 + 19, p16 + 20, p16 + 21, p16 + 22, p16 + 23, p16 + 24, p16 + 25, p16 + 26, p16 + 27, p16 + 28, p16 + 29, p16 + 30, p16 + 31, p16 + 32, p16 + 33, p16 + 34, p16 + 35, p16 + 36, p16 + 37, p16 + 38, p16 + 39, 12};
Line(17) = {11, 8};
Line(18) = {12, 9};
Curve Loop(1) = {-1, 4, 3, -2};
Plane Surface(1) = {1};
Curve Loop(2) = {-5, 1, 7, -6};
Plane Surface(2) = {2};
Curve Loop(3) = {-2, 7, 9, -8, -10, -11};
Plane Surface(3) = {3};
Curve Loop(4) = {-12, 3, 8, -13};
Plane Surface(4) = {4};
Curve Loop(5) = {-4, 5, 14, -12, -15, -16};
Plane Surface(5) = {5};
Curve Loop(6) = {-6, 14, 13, -9};
Plane Surface(6) = {6};
Curve Loop(7) = {-10, -17, 15, 17};
Surface(7) = {7};
Curve Loop(8) = {-11, -18, 16, 18};
Surface(8) = {8};
Surface Loop(1) = {1, 2, 3, 4, 5, 6, 7, 8};
Volume(1) = {1};
Physical Surface("INFLOW") = {1};
Physical Surface("OUTFLOW") = {6};
Physical Surface("OBSTACLE") = {7, 8};
Physical Surface("WALL_Y") = {2, 4};
Physical Surface("WALL_Z") = {3, 5};
Physical Volume("FLUID") = {1};
