cl__1 = 1.25626;
cl__2 = 1.178333;
cl__3 = 3.624704;
cl__4 = 0.10741;
Point(1) = {0.721061, -3.221159, 1, cl__1};
Point(2) = {0.721061, -3.221159, 0, cl__1};
Point(3) = {0.721061, 5.157956, 1, cl__2};
Point(4) = {0.721061, 5.157956, 0, cl__2};
Point(5) = {36.004101, -3.221159, 0, cl__3};
Point(6) = {36.004101, -3.221159, 1, cl__3};
Point(7) = {36.004101, 5.157956, 1, cl__3};
Point(8) = {14.307805, 2.200403, 1, cl__4};
Point(9) = {36.004101, 5.157956, 0, cl__3};
Point(10) = {14.307805, 2.200403, 0, cl__4};
Line(1) = {2, 1};
Line(2) = {1, 3};
Line(3) = {4, 3};
Line(4) = {2, 4};
Line(5) = {2, 5};
Line(6) = {5, 6};
Line(7) = {1, 6};
Line(8) = {3, 7};
Line(9) = {6, 7};
p10 = newp;
Point(p10 + 1) = {14.29458104663324, 2.368429258899712, 1};
Point(p10 + 2) = {14.25523480415263, 2.532318153658131, 1};
Point(p10 + 3) = {14.19073510763073, 2.688034195770247, 1};
Point(p10 + 4) = {14.10267015365813, 2.831743139487346, 1};
Point(p10 + 5) = {13.99320839367247, 2.959906393672471, 1};
Point(p10 + 6) = {13.86504513948735, 3.069368153658131, 1};
Point(p10 + 7) = {13.72133619577025, 3.157433107630726, 1};
Point(p10 + 8) = {13.56562015365813, 3.221932804152624, 1};
Point(p10 + 9) = {13.40173125889971, 3.261279046633238, 1};
Point(p10 + 10) = {13.233705, 3.274503, 1};
Point(p10 + 11) = {13.06567874110029, 3.261279046633238, 1};
Point(p10 + 12) = {12.90178984634187, 3.221932804152625, 1};
Point(p10 + 13) = {12.74607380422975, 3.157433107630726, 1};
Point(p10 + 14) = {12.60236486051265, 3.069368153658131, 1};
Point(p10 + 15) = {12.47420160632753, 2.959906393672471, 1};
Point(p10 + 16) = {12.36473984634187, 2.831743139487346, 1};
Point(p10 + 17) = {12.27667489236928, 2.688034195770248, 1};
Point(p10 + 18) = {12.21217519584738, 2.532318153658131, 1};
Point(p10 + 19) = {12.17282895336676, 2.368429258899712, 1};
Point(p10 + 20) = {12.159605, 2.200403, 1};
Point(p10 + 21) = {12.17282895336676, 2.032376741100288, 1};
Point(p10 + 22) = {12.21217519584738, 1.868487846341869, 1};
Point(p10 + 23) = {12.27667489236927, 1.712771804229754, 1};
Point(p10 + 24) = {12.36473984634187, 1.569062860512655, 1};
Point(p10 + 25) = {12.47420160632753, 1.440899606327529, 1};
Point(p10 + 26) = {12.60236486051265, 1.331437846341869, 1};
Point(p10 + 27) = {12.74607380422975, 1.243372892369274, 1};
Point(p10 + 28) = {12.90178984634187, 1.178873195847376, 1};
Point(p10 + 29) = {13.06567874110029, 1.139526953366763, 1};
Point(p10 + 30) = {13.233705, 1.126303, 1};
Point(p10 + 31) = {13.40173125889971, 1.139526953366763, 1};
Point(p10 + 32) = {13.56562015365813, 1.178873195847375, 1};
Point(p10 + 33) = {13.72133619577025, 1.243372892369274, 1};
Point(p10 + 34) = {13.86504513948735, 1.331437846341869, 1};
Point(p10 + 35) = {13.99320839367247, 1.440899606327529, 1};
Point(p10 + 36) = {14.10267015365813, 1.569062860512654, 1};
Point(p10 + 37) = {14.19073510763073, 1.712771804229753, 1};
Point(p10 + 38) = {14.25523480415263, 1.868487846341869, 1};
Point(p10 + 39) = {14.29458104663324, 2.032376741100288, 1};
Spline(10) = {8, p10 + 1, p10 + 2, p10 + 3, p10 + 4, p10 + 5, p10 + 6, p10 + 7, p10 + 8, p10 + 9, p10 + 10, p10 + 11, p10 + 12, p10 + 13, p10 + 14, p10 + 15, p10 + 16, p10 + 17, p10 + 18, p10 + 19, p10 + 20, p10 + 21, p10 + 22, p10 + 23, p10 + 24, p10 + 25, p10 + 26, p10 + 27, p10 + 28, p10 + 29, p10 + 30, p10 + 31, p10 + 32, p10 + 33, p10 + 34, p10 + 35, p10 + 36, p10 + 37, p10 + 38, p10 + 39, 8};
Line(11) = {4, 9};
Line(12) = {9, 7};
Line(13) = {5, 9};
p14 = newp;
Point(p14 + 1) = {14.29458104663324, 2.368429258899712, 0};
Point(p14 + 2) = {14.25523480415263, 2.532318153658131, 0};
Point(p14 + 3) = {14.19073510763073, 2.688034195770247, 0};
Point(p14 + 4) = {14.10267015365813, 2.831743139487346, 0};
Point(p14 + 5) = {13.99320839367247, 2.959906393672471, 0};
Point(p14 + 6) = {13.86504513948735, 3.069368153658131, 0};
Point(p14 + 7) = {13.72133619577025, 3.157433107630726, 0};
Point(p14 + 8) = {13.56562015365813, 3.221932804152624, 0};
Point(p14 + 9) = {13.40173125889971, 3.261279046633238, 0};
Point(p14 + 10) = {13.233705, 3.274503, 0};
Point(p14 + 11) = {13.06567874110029, 3.261279046633238, 0};
Point(p14 + 12) = {12.90178984634187, 3.221932804152625, 0};
Point(p14 + 13) = {12.74607380422975, 3.157433107630726, 0};
Point(p14 + 14) = {12.60236486051265, 3.069368153658131, 0};
Point(p14 + 15) = {12.47420160632753, 2.959906393672471, 0};
Point(p14 + 16) = {12.36473984634187, 2.831743139487346, 0};
Point(p14 + 17) = {12.27667489236928, 2.688034195770248, 0};
Point(p14 + 18) = {12.21217519584738, 2.532318153658131, 0};
Point(p14 + 19) = {12.17282895336676, 2.368429258899712, 0};
Point(p14 + 20) = {12.159605, 2.200403, 0};
Point(p14 + 21) = {12.17282895336676, 2.032376741100288, 0};
Point(p14 + 22) = {12.21217519584738, 1.868487846341869, 0};
Point(p14 + 23) = {12.27667489236927, 1.712771804229754, 0};
Point(p14 + 24) = {12.36473984634187, 1.569062860512655, 0};
Point(p14 + 25) = {12.47420160632753, 1.440899606327529, 0};
Point(p14 + 26) = {12.60236486051265, 1.331437846341869, 0};
Point(p14 + 27) = {12.74607380422975, 1.243372892369274, 0};
Point(p14 + 28) = {12.90178984634187, 1.178873195847376, 0};
Point(p14 + 29) = {13.06567874110029, 1.139526953366763, 0};
Point(p14 + 30) = {13.233705, 1.126303, 0};
Point(p14 + 31) = {13.40173125889971, 1.139526953366763, 0};
Point(p14 + 32) = {13.56562015365813, 1.178873195847375, 0};
Point(p14 + 33) = {13.72133619577025, 1.243372892369274, 0};
Point(p14 + 34) = {13.86504513948735, 1.331437846341869, 0};
Point(p14 + 35) = {13.99320839367247, 1.440899606327529, 0};
Point(p14 + 36) = {14.10267015365813, 1.569062860512654, 0};
Point(p14 + 37) = {14.19073510763073, 1.712771804229753, 0};
Point(p14 + 38) = {14.25523480415263, 1.868487846341869, 0};
Point(p14 + 39) = {14.29458104663324, 2.032376741100288, 0};
Spline(14) = {10, p14 + 1, p14 + 2, p14 + 3, p14 + 4, p14 + 5, p14 + 6, p14 + 7, p14 + 8, p14 + 9, p14 + 10, p14 + 11, p14 + 12, p14 + 13, p14 + 14, p14 + 15, p14 + 16, p14 + 17, p14 + 18, p14 + 19, p14 + 20, p14 + 21, p14 + 22, p14 + 23, p14 + 24, p14 + 25, p14 + 26, p14 + 27, p14 + 28, p14 + 29, p14 + 30, p14 + 31, p14 + 32, p14 + 33, p14 + 34, p14 + 35, p14 + 36, p14 + 37, p14 + 38, p14 + 39, 10};
Line(15) = {10, 8};
Curve Loop(1) = {-1, 4, 3, -2};
Plane Surface(1) = {1};
Curve Loop(2) = {-5, 1, 7, -6};
Plane Surface(2) = {2};
Curve Loop(3) = {-2, 7, 9, -8, -10};
Plane Surface(3) = {3};
Curve Loop(4) = {-11, 3, 8, -12};
Plane Surface(4) = {4};
Curve Loop(5) = {-4, 5, 13, -11, -14};
Plane Surface(5) = {5};
Curve Loop(6) = {-6, 13, 12, -9};
Plane Surface(6) = {6};
Curve Loop(7) = {-10, -15, 14, 15};
Surface(7) = {7};
Surface Loop(1) = {1, 2, 3, 4, 5, 6, 7};
Volume(1) = {1};
Physical Surface("INFLOW") = {1};
Physical Surface("OUTFLOW") = {6};
Physical Surface("OBSTACLE") = {7};
Physical Surface("WALL_Y") = {2, 4};
Physical Surface("WALL_Z") = {3, 5};
Physical Volume("FLUID") = {1};
