cl__1 = 1;
cl__2 = 0.065086;
cl__3 = 0.100455;
Point(1) = {0.895877, -4.115063, 1, cl__1};
Point(2) = {0.895877, -4.115063, 0, cl__1};
Point(3) = {0.895877, 5.014531000000001, 1, cl__1};
Point(4) = {0.895877, 5.014531000000001, 0, cl__1};
Point(5) = {38.098159, -4.115063, 0, cl__1};
Point(6) = {38.098159, -4.115063, 1, cl__1};
Point(7) = {38.098159, 5.014531000000001, 1, cl__1};
Point(8) = {12.900439, -0.2224970000000002, 1, cl__2};
Point(9) = {14.088896, 1.956614, 1, cl__3};
Point(10) = {38.098159, 5.014531000000001, 0, cl__1};
Point(11) = {12.900439, -0.2224970000000002, 0, cl__2};
Point(12) = {14.088896, 1.956614, 0, cl__3};
Line(1) = {2, 1};
Line(2) = {1, 3};
Line(3) = {4, 3};
Line(4) = {2, 4};
Line(5) = {2, 5};
Line(6) = {5, 6};
Line(7) = {1, 6};
Line(8) = {3, 7};
Line(9) = {6, 7};
p10 = newp;
Point(p10 + 1) = {12.89242582104809, -0.1206799076494503, 1};
Point(p10 + 2) = {12.86858359525238, -0.02136989002412737, 1};
Point(p10 + 3) = {12.82949939733976, 0.07298771065098114, 1};
Point(p10 + 4) = {12.77613560997587, 0.1600694970923314, 1};
Point(p10 + 5) = {12.70980622670986, 0.2377312267098575, 1};
Point(p10 + 6) = {12.63214449709233, 0.3040606099758726, 1};
Point(p10 + 7) = {12.54506271065098, 0.3574243973397652, 1};
Point(p10 + 8) = {12.45070510997587, 0.39650859525238, 1};
Point(p10 + 9) = {12.35139509235055, 0.420350821048092, 1};
Point(p10 + 10) = {12.249578, 0.428364, 1};
Point(p10 + 11) = {12.14776090764945, 0.4203508210480919, 1};
Point(p10 + 12) = {12.04845089002413, 0.39650859525238, 1};
Point(p10 + 13) = {11.95409328934902, 0.3574243973397653, 1};
Point(p10 + 14) = {11.86701150290767, 0.3040606099758726, 1};
Point(p10 + 15) = {11.78934977329014, 0.2377312267098576, 1};
Point(p10 + 16) = {11.72302039002413, 0.1600694970923314, 1};
Point(p10 + 17) = {11.66965660266023, 0.0729877106509812, 1};
Point(p10 + 18) = {11.63057240474762, -0.02136989002412729, 1};
Point(p10 + 19) = {11.60673017895191, -0.1206799076494502, 1};
Point(p10 + 20) = {11.598717, -0.2224969999999999, 1};
Point(p10 + 21) = {11.60673017895191, -0.3243140923505496, 1};
Point(p10 + 22) = {11.63057240474762, -0.4236241099758729, 1};
Point(p10 + 23) = {11.66965660266023, -0.5179817106509808, 1};
Point(p10 + 24) = {11.72302039002413, -0.6050634970923313, 1};
Point(p10 + 25) = {11.78934977329014, -0.6827252267098575, 1};
Point(p10 + 26) = {11.86701150290767, -0.7490546099758726, 1};
Point(p10 + 27) = {11.95409328934902, -0.8024183973397652, 1};
Point(p10 + 28) = {12.04845089002413, -0.84150259525238, 1};
Point(p10 + 29) = {12.14776090764945, -0.8653448210480919, 1};
Point(p10 + 30) = {12.249578, -0.8733580000000001, 1};
Point(p10 + 31) = {12.35139509235055, -0.8653448210480921, 1};
Point(p10 + 32) = {12.45070510997587, -0.84150259525238, 1};
Point(p10 + 33) = {12.54506271065098, -0.8024183973397654, 1};
Point(p10 + 34) = {12.63214449709233, -0.7490546099758728, 1};
Point(p10 + 35) = {12.70980622670986, -0.6827252267098576, 1};
Point(p10 + 36) = {12.77613560997587, -0.6050634970923315, 1};
Point(p10 + 37) = {12.82949939733976, -0.5179817106509813, 1};
Point(p10 + 38) = {12.86858359525238, -0.4236241099758728, 1};
Point(p10 + 39) = {12.89242582104809, -0.3243140923505499, 1};
Spline(10) = {8, p10 + 1, p10 + 2, p10 + 3, p10 + 4, p10 + 5, p10 + 6, p10 + 7, p10 + 8, p10 + 9, p10 + 10, p10 + 11, p10 + 12, p10 + 13, p10 + 14, p10 + 15, p10 + 16, p10 + 17, p10 + 18, p10 + 19, p10 + 20, p10 + 21, p10 + 22, p10 + 23, p10 + 24, p10 + 25, p10 + 26, p10 + 27, p10 + 28, p10 + 29, p10 + 30, p10 + 31, p10 + 32, p10 + 33, p10 + 34, p10 + 35, p10 + 36, p10 + 37, p10 + 38, p10 + 39, 8};
p11 = newp;
Point(p11 + 1) = {14.0765283348565, 2.113760085421699, 1};
Point(p11 + 2) = {14.03972987238778, 2.267036712682359, 1};
Point(p11 + 3) = {13.9794067128669, 2.412669702522862, 1};
Point(p11 + 4) = {13.89704421268236, 2.547073087405152, 1};
Point(p11 + 5) = {13.79467040993416, 2.666937409934165, 1};
Point(p11 + 6) = {13.67480608740515, 2.769311212682359, 1};
Point(p11 + 7) = {13.54040270252286, 2.851673712866901, 1};
Point(p11 + 8) = {13.39476971268236, 2.91199687238778, 1};
Point(p11 + 9) = {13.2414930854217, 2.948795334856505, 1};
Point(p11 + 10) = {13.084347, 2.961163, 1};
Point(p11 + 11) = {12.9272009145783, 2.948795334856505, 1};
Point(p11 + 12) = {12.77392428731764, 2.91199687238778, 1};
Point(p11 + 13) = {12.62829129747714, 2.851673712866901, 1};
Point(p11 + 14) = {12.49388791259485, 2.769311212682359, 1};
Point(p11 + 15) = {12.37402359006583, 2.666937409934165, 1};
Point(p11 + 16) = {12.27164978731764, 2.547073087405152, 1};
Point(p11 + 17) = {12.1892872871331, 2.412669702522862, 1};
Point(p11 + 18) = {12.12896412761222, 2.267036712682359, 1};
Point(p11 + 19) = {12.09216566514349, 2.113760085421699, 1};
Point(p11 + 20) = {12.079798, 1.956614, 1};
Point(p11 + 21) = {12.09216566514349, 1.799467914578301, 1};
Point(p11 + 22) = {12.12896412761222, 1.646191287317641, 1};
Point(p11 + 23) = {12.1892872871331, 1.500558297477139, 1};
Point(p11 + 24) = {12.27164978731764, 1.366154912594849, 1};
Point(p11 + 25) = {12.37402359006583, 1.246290590065835, 1};
Point(p11 + 26) = {12.49388791259485, 1.143916787317641, 1};
Point(p11 + 27) = {12.62829129747714, 1.0615542871331, 1};
Point(p11 + 28) = {12.77392428731764, 1.00123112761222, 1};
Point(p11 + 29) = {12.9272009145783, 0.9644326651434952, 1};
Point(p11 + 30) = {13.084347, 0.9520650000000002, 1};
Point(p11 + 31) = {13.2414930854217, 0.9644326651434951, 1};
Point(p11 + 32) = {13.39476971268236, 1.00123112761222, 1};
Point(p11 + 33) = {13.54040270252286, 1.061554287133099, 1};
Point(p11 + 34) = {13.67480608740515, 1.143916787317641, 1};
Point(p11 + 35) = {13.79467040993416, 1.246290590065835, 1};
Point(p11 + 36) = {13.89704421268236, 1.366154912594848, 1};
Point(p11 + 37) = {13.9794067128669, 1.500558297477138, 1};
Point(p11 + 38) = {14.03972987238778, 1.646191287317641, 1};
Point(p11 + 39) = {14.0765283348565, 1.799467914578301, 1};
Spline(11) = {9, p11 + 1, p11 + 2, p11 + 3, p11 + 4, p11 + 5, p11 + 6, p11 + 7, p11 + 8, p11 + 9, p11 + 10, p11 + 11, p11 + 12, p11 + 13, p11 + 14, p11 + 15, p11 + 16, p11 + 17, p11 + 18, p11 + 19, p11 + 20, p11 + 21, p11 + 22, p11 + 23, p11 + 24, p11 + 25, p11 + 26, p11 + 27, p11 + 28, p11 + 29, p11 + 30, p11 + 31, p11 + 32, p11 + 33, p11 + 34, p11 + 35, p11 + 36, p11 + 37, p11 + 38, p11 + 39, 9};
Line(12) = {4, 10};
Line(13) = {10, 7};
Line(14) = {5, 10};
p15 = newp;
Point(p15 + 1) = {12.89242582104809, -0.1206799076494503, 0};
Point(p15 + 2) = {12.86858359525238, -0.02136989002412737, 0};
Point(p15 + 3) = {12.82949939733976, 0.07298771065098114, 0};
Point(p15 + 4) = {12.77613560997587, 0.1600694970923314, 0};
Point(p15 + 5) = {12.70980622670986, 0.2377312267098575, 0};
Point(p15 + 6) = {12.63214449709233, 0.3040606099758726, 0};
Point(p15 + 7) = {12.54506271065098, 0.3574243973397652, 0};
Point(p15 + 8) = {12.45070510997587, 0.39650859525238, 0};
Point(p15 + 9) = {12.35139509235055, 0.420350821048092, 0};
Point(p15 + 10) = {12.249578, 0.428364, 0};
Point(p15 + 11) = {12.14776090764945, 0.4203508210480919, 0};
Point(p15 + 12) = {12.04845089002413, 0.39650859525238, 0};
Point(p15 + 13) = {11.95409328934902, 0.3574243973397653, 0};
Point(p15 + 14) = {11.86701150290767, 0.3040606099758726, 0};
Point(p15 + 15) = {11.78934977329014, 0.2377312267098576, 0};
Point(p15 + 16) = {11.72302039002413, 0.1600694970923314, 0};
Point(p15 + 17) = {11.66965660266023, 0.0729877106509812, 0};
Point(p15 + 18) = {11.63057240474762, -0.02136989002412729, 0};
Point(p15 + 19) = {11.60673017895191, -0.1206799076494502, 0};
Point(p15 + 20) = {11.598717, -0.2224969999999999, 0};
Point(p15 + 21) = {11.60673017895191, -0.3243140923505496, 0};
Point(p15 + 22) = {11.63057240474762, -0.4236241099758729, 0};
Point(p15 + 23) = {11.66965660266023, -0.5179817106509808, 0};
Point(p15 + 24) = {11.72302039002413, -0.6050634970923313, 0};
Point(p15 + 25) = {11.78934977329014, -0.6827252267098575, 0};
Point(p15 + 26) = {11.86701150290767, -0.7490546099758726, 0};
Point(p15 + 27) = {11.95409328934902, -0.8024183973397652, 0};
Point(p15 + 28) = {12.04845089002413, -0.84150259525238, 0};
Point(p15 + 29) = {12.14776090764945, -0.8653448210480919, 0};
Point(p15 + 30) = {12.249578, -0.8733580000000001, 0};
Point(p15 + 31) = {12.35139509235055, -0.8653448210480921, 0};
Point(p15 + 32) = {12.45070510997587, -0.84150259525238, 0};
Point(p15 + 33) = {12.54506271065098, -0.8024183973397654, 0};
Point(p15 + 34) = {12.63214449709233, -0.7490546099758728, 0};
Point(p15 + 35) = {12.70980622670986, -0.6827252267098576, 0};
Point(p15 + 36) = {12.77613560997587, -0.6050634970923315, 0};
Point(p15 + 37) = {12.82949939733976, -0.5179817106509813, 0};
Point(p15 + 38) = {12.86858359525238, -0.4236241099758728, 0};
Point(p15 + 39) = {12.89242582104809, -0.3243140923505499, 0};
Spline(15) = {11, p15 + 1, p15 + 2, p15 + 3, p15 + 4, p15 + 5, p15 + 6, p15 + 7, p15 + 8, p15 + 9, p15 + 10, p15 + 11, p15 + 12, p15 + 13, p15 + 14, p15 + 15, p15 + 16, p15 + 17, p15 + 18, p15 + 19, p15 + 20, p15 + 21, p15 + 22, p15 + 23, p15 + 24, p15 + 25, p15 + 26, p15 + 27, p15 + 28, p15 + 29, p15 + 30, p15 + 31, p15 + 32, p15 + 33, p15 + 34, p15 + 35, p15 + 36, p15 + 37, p15 + 38, p15 + 39, 11};
p16 = newp;
Point(p16 + 1) = {14.0765283348565, 2.113760085421699, 0};
Point(p16 + 2) = {14.03972987238778, 2.267036712682359, 0};
Point(p16 + 3) = {13.9794067128669, 2.412669702522862, 0};
Point(p16 + 4) = {13.89704421268236, 2.547073087405152, 0};
Point(p16 + 5) = {13.79467040993416, 2.666937409934165, 0};
Point(p16 + 6) = {13.67480608740515, 2.769311212682359, 0};
Point(p16 + 7) = {13.54040270252286, 2.851673712866901, 0};
Point(p16 + 8) = {13.39476971268236, 2.91199687238778, 0};
Point(p16 + 9) = {13.2414930854217, 2.948795334856505, 0};
Point(p16 + 10) = {13.084347, 2.961163, 0};
Point(p16 + 11) = {12.9272009145783, 2.948795334856505, 0};
Point(p16 + 12) = {12.77392428731764, 2.91199687238778, 0};
Point(p16 + 13) = {12.62829129747714, 2.851673712866901, 0};
Point(p16 + 14) = {12.49388791259485, 2.769311212682359, 0};
Point(p16 + 15) = {12.37402359006583, 2.666937409934165, 0};
Point(p16 + 16) = {12.27164978731764, 2.547073087405152, 0};
Point(p16 + 17) = {12.1892872871331, 2.412669702522862, 0};
Point(p16 + 18) = {12.12896412761222, 2.267036712682359, 0};
Point(p16 + 19) = {12.09216566514349, 2.113760085421699, 0};
Point(p16 + 20) = {12.079798, 1.956614, 0};
Point(p16 + 21) = {12.09216566514349, 1.799467914578301, 0};
Point(p16 + 22) = {12.12896412761222, 1.646191287317641, 0};
Point(p16 + 23) = {12.1892872871331, 1.500558297477139, 0};
Point(p16 + 24) = {12.27164978731764, 1.366154912594849, 0};
Point(p16 + 25) = {12.37402359006583, 1.246290590065835, 0};
Point(p16 + 26) = {12.49388791259485, 1.143916787317641, 0};
Point(p16 + 27) = {12.62829129747714, 1.0615542871331, 0};
Point(p16 + 28) = {12.77392428731764, 1.00123112761222, 0};
Point(p16 + 29) = {12.9272009145783, 0.9644326651434952, 0};
Point(p16 + 30) = {13.084347, 0.9520650000000002, 0};
Point(p16 + 31) = {13.2414930854217, 0.9644326651434951, 0};
Point(p16 + 32) = {13.39476971268236, 1.00123112761222, 0};
Point(p16 + 33) = {13.54040270252286, 1.061554287133099, 0};
Point(p16 + 34) = {13.67480608740515, 1.143916787317641, 0};
Point(p16 + 35) = {13.79467040993416, 1.246290590065835, 0};
Point(p16 + 36) = {13.89704421268236, 1.366154912594848, 0};
Point(p16 + 37) = {13.9794067128669, 1.500558297477138, 0};
Point(p16 + 38) = {14.03972987238778, 1.646191287317641, 0};
Point(p16 + 39) = {14.0765283348565, 1.799467914578301, 0};
Spline(16) = {12, p16 + 1, p16 + 2, p16 + 3, p16 + 4, p16 + 5, p16 + 6, p16 + 7, p16 + 8, p16 + 9, p16 + 10, p16 + 11, p16 + 12, p16 + 13, p16 + 14, p16 + 15, p16 + 16, p16 + 17, p16 + 18, p16 + 19, p16 + 20, p16 + 21, p16 + 22, p16 + 23, p16 + 24, p16 + 25, p16 + 26, p16 + 27, p16 + 28, p16 + 29, p16 + 30, p16 + 31, p16 + 32, p16 + 33, p16 + 34, p16 + 35, p16 + 36, p16 + 37, p16 + 38, p16 + 39, 12};
Line(17) = {11, 8};
Line(18) = {12, 9};
Curve Loop(1) = {-1, 4, 3, -2};
Plane Surface(1) = {1};
Curve Loop(2) = {-5, 1, 7, -6};
Plane Surface(2) = {2};
Curve Loop(3) = {-2, 7, 9, -8, -10, -11};
Plane Surface(3) = {3};
Curve Loop(4) = {-12, 3, 8, -13};
Plane Surface(4) = {4};
Curve Loop(5) = {-4, 5, 14, -12, -15, -16};
Plane Surface(5) = {5};
Curve Loop(6) = {-6, 14, 13, -9};
Plane Surface(6) = {6};
Curve Loop(7) = {-10, -17, 15, 17};
Surface(7) = {7};
Curve Loop(8) = {-11, -18, 16, 18};
Surface(8) = {8};
Surface Loop(1) = {1, 2, 3, 4, 5, 6, 7, 8};
Volume(1) = {1};
Physical Surface("INFLOW") = {1};
Physical Surface("OUTFLOW") = {6};
Physical Surface("OBSTACLE") = {7, 8};
Physical Surface("WALL_Y") = {2, 4};
Physical Surface("WALL_Z") = {3, 5};
Physical Volume("FLUID") = {1};
