cl__1 = 1.036004;
cl__2 = 1.230718;
cl__3 = 3.044824;
cl__4 = 0.08403099999999999;
cl__5 = 0.102565;
Point(1) = {0.580047, -3.574399, 1, cl__1};
Point(2) = {0.580047, -3.574399, 0, cl__1};
Point(3) = {0.580047, 5.221028, 1, cl__2};
Point(4) = {0.580047, 5.221028, 0, cl__2};
Point(5) = {30.128977, -3.574399, 0, cl__1};
Point(6) = {30.128977, -3.574399, 1, cl__1};
Point(7) = {30.128977, 5.221028, 1, cl__3};
Point(8) = {12.078849, -0.1328200000000002, 1, cl__4};
Point(9) = {19.507622, 2.914947, 1, cl__5};
Point(10) = {30.128977, 5.221028, 0, cl__3};
Point(11) = {12.078849, -0.1328200000000002, 0, cl__4};
Point(12) = {19.507622, 2.914947, 0, cl__5};
Line(1) = {2, 1};
Line(2) = {1, 3};
Line(3) = {4, 3};
Line(4) = {2, 4};
Line(5) = {2, 5};
Line(6) = {5, 6};
Line(7) = {1, 6};
Line(8) = {3, 7};
Line(9) = {6, 7};
p10 = newp;
Point(p10 + 1) = {12.06850335255052, -0.001366085378648463, 1};
Point(p10 + 2) = {12.03772115437753, 0.1268509975941952, 1};
Point(p10 + 3) = {11.9872603653603, 0.2486741188076377, 1};
Point(p10 + 4) = {11.91836349759419, 0.361103588709645, 1};
Point(p10 + 5) = {11.83272702061921, 0.4613710206192113, 1};
Point(p10 + 6) = {11.73245958870965, 0.5470074975941952, 1};
Point(p10 + 7) = {11.62003011880764, 0.6159043653602998, 1};
Point(p10 + 8) = {11.4982069975942, 0.6663651543775293, 1};
Point(p10 + 9) = {11.36998991462135, 0.6971473525505221, 1};
Point(p10 + 10) = {11.238536, 0.7074929999999999, 1};
Point(p10 + 11) = {11.10708208537865, 0.6971473525505218, 1};
Point(p10 + 12) = {10.9788650024058, 0.6663651543775295, 1};
Point(p10 + 13) = {10.85704188119236, 0.6159043653603, 1};
Point(p10 + 14) = {10.74461241129035, 0.5470074975941952, 1};
Point(p10 + 15) = {10.64434497938079, 0.4613710206192114, 1};
Point(p10 + 16) = {10.55870850240581, 0.361103588709645, 1};
Point(p10 + 17) = {10.4898116346397, 0.2486741188076378, 1};
Point(p10 + 18) = {10.43935084562247, 0.1268509975941953, 1};
Point(p10 + 19) = {10.40856864744948, -0.00136608537864838, 1};
Point(p10 + 20) = {10.398223, -0.1328199999999999, 1};
Point(p10 + 21) = {10.40856864744948, -0.2642739146213514, 1};
Point(p10 + 22) = {10.43935084562247, -0.3924909975941954, 1};
Point(p10 + 23) = {10.4898116346397, -0.5143141188076373, 1};
Point(p10 + 24) = {10.55870850240581, -0.6267435887096449, 1};
Point(p10 + 25) = {10.64434497938079, -0.7270110206192113, 1};
Point(p10 + 26) = {10.74461241129035, -0.8126474975941951, 1};
Point(p10 + 27) = {10.85704188119236, -0.8815443653602999, 1};
Point(p10 + 28) = {10.9788650024058, -0.9320051543775294, 1};
Point(p10 + 29) = {11.10708208537865, -0.9627873525505219, 1};
Point(p10 + 30) = {11.238536, -0.973133, 1};
Point(p10 + 31) = {11.36998991462135, -0.9627873525505219, 1};
Point(p10 + 32) = {11.4982069975942, -0.9320051543775294, 1};
Point(p10 + 33) = {11.62003011880764, -0.8815443653602999, 1};
Point(p10 + 34) = {11.73245958870965, -0.8126474975941953, 1};
Point(p10 + 35) = {11.83272702061921, -0.7270110206192115, 1};
Point(p10 + 36) = {11.91836349759419, -0.6267435887096451, 1};
Point(p10 + 37) = {11.9872603653603, -0.5143141188076379, 1};
Point(p10 + 38) = {12.03772115437753, -0.3924909975941954, 1};
Point(p10 + 39) = {12.06850335255052, -0.2642739146213517, 1};
Spline(10) = {8, p10 + 1, p10 + 2, p10 + 3, p10 + 4, p10 + 5, p10 + 6, p10 + 7, p10 + 8, p10 + 9, p10 + 10, p10 + 11, p10 + 12, p10 + 13, p10 + 14, p10 + 15, p10 + 16, p10 + 17, p10 + 18, p10 + 19, p10 + 20, p10 + 21, p10 + 22, p10 + 23, p10 + 24, p10 + 25, p10 + 26, p10 + 27, p10 + 28, p10 + 29, p10 + 30, p10 + 31, p10 + 32, p10 + 33, p10 + 34, p10 + 35, p10 + 36, p10 + 37, p10 + 38, p10 + 39, 8};
p11 = newp;
Point(p11 + 1) = {19.49499450959642, 3.075394478371908, 1};
Point(p11 + 2) = {19.45742296910767, 3.231891207331648, 1};
Point(p11 + 3) = {19.39583251455337, 3.380583718029365, 1};
Point(p11 + 4) = {19.31173970733165, 3.517810707369532, 1};
Point(p11 + 5) = {19.20721519144433, 3.640193191444326, 1};
Point(p11 + 6) = {19.08483270736953, 3.744717707331648, 1};
Point(p11 + 7) = {18.94760571802937, 3.828810514553372, 1};
Point(p11 + 8) = {18.79891320733165, 3.890400969107673, 1};
Point(p11 + 9) = {18.64241647837191, 3.927972509596425, 1};
Point(p11 + 10) = {18.481969, 3.9406, 1};
Point(p11 + 11) = {18.32152152162809, 3.927972509596425, 1};
Point(p11 + 12) = {18.16502479266835, 3.890400969107673, 1};
Point(p11 + 13) = {18.01633228197063, 3.828810514553372, 1};
Point(p11 + 14) = {17.87910529263047, 3.744717707331648, 1};
Point(p11 + 15) = {17.75672280855567, 3.640193191444326, 1};
Point(p11 + 16) = {17.65219829266835, 3.517810707369532, 1};
Point(p11 + 17) = {17.56810548544663, 3.380583718029365, 1};
Point(p11 + 18) = {17.50651503089233, 3.231891207331648, 1};
Point(p11 + 19) = {17.46894349040357, 3.075394478371908, 1};
Point(p11 + 20) = {17.456316, 2.914947, 1};
Point(p11 + 21) = {17.46894349040357, 2.754499521628092, 1};
Point(p11 + 22) = {17.50651503089233, 2.598002792668352, 1};
Point(p11 + 23) = {17.56810548544663, 2.449310281970635, 1};
Point(p11 + 24) = {17.65219829266835, 2.312083292630469, 1};
Point(p11 + 25) = {17.75672280855567, 2.189700808555674, 1};
Point(p11 + 26) = {17.87910529263047, 2.085176292668352, 1};
Point(p11 + 27) = {18.01633228197063, 2.001083485446628, 1};
Point(p11 + 28) = {18.16502479266835, 1.939493030892327, 1};
Point(p11 + 29) = {18.32152152162809, 1.901921490403575, 1};
Point(p11 + 30) = {18.481969, 1.889294, 1};
Point(p11 + 31) = {18.64241647837191, 1.901921490403575, 1};
Point(p11 + 32) = {18.79891320733165, 1.939493030892327, 1};
Point(p11 + 33) = {18.94760571802937, 2.001083485446628, 1};
Point(p11 + 34) = {19.08483270736953, 2.085176292668352, 1};
Point(p11 + 35) = {19.20721519144433, 2.189700808555674, 1};
Point(p11 + 36) = {19.31173970733165, 2.312083292630468, 1};
Point(p11 + 37) = {19.39583251455337, 2.449310281970634, 1};
Point(p11 + 38) = {19.45742296910767, 2.598002792668352, 1};
Point(p11 + 39) = {19.49499450959642, 2.754499521628092, 1};
Spline(11) = {9, p11 + 1, p11 + 2, p11 + 3, p11 + 4, p11 + 5, p11 + 6, p11 + 7, p11 + 8, p11 + 9, p11 + 10, p11 + 11, p11 + 12, p11 + 13, p11 + 14, p11 + 15, p11 + 16, p11 + 17, p11 + 18, p11 + 19, p11 + 20, p11 + 21, p11 + 22, p11 + 23, p11 + 24, p11 + 25, p11 + 26, p11 + 27, p11 + 28, p11 + 29, p11 + 30, p11 + 31, p11 + 32, p11 + 33, p11 + 34, p11 + 35, p11 + 36, p11 + 37, p11 + 38, p11 + 39, 9};
Line(12) = {4, 10};
Line(13) = {10, 7};
Line(14) = {5, 10};
p15 = newp;
Point(p15 + 1) = {12.06850335255052, -0.001366085378648463, 0};
Point(p15 + 2) = {12.03772115437753, 0.1268509975941952, 0};
Point(p15 + 3) = {11.9872603653603, 0.2486741188076377, 0};
Point(p15 + 4) = {11.91836349759419, 0.361103588709645, 0};
Point(p15 + 5) = {11.83272702061921, 0.4613710206192113, 0};
Point(p15 + 6) = {11.73245958870965, 0.5470074975941952, 0};
Point(p15 + 7) = {11.62003011880764, 0.6159043653602998, 0};
Point(p15 + 8) = {11.4982069975942, 0.6663651543775293, 0};
Point(p15 + 9) = {11.36998991462135, 0.6971473525505221, 0};
Point(p15 + 10) = {11.238536, 0.7074929999999999, 0};
Point(p15 + 11) = {11.10708208537865, 0.6971473525505218, 0};
Point(p15 + 12) = {10.9788650024058, 0.6663651543775295, 0};
Point(p15 + 13) = {10.85704188119236, 0.6159043653603, 0};
Point(p15 + 14) = {10.74461241129035, 0.5470074975941952, 0};
Point(p15 + 15) = {10.64434497938079, 0.4613710206192114, 0};
Point(p15 + 16) = {10.55870850240581, 0.361103588709645, 0};
Point(p15 + 17) = {10.4898116346397, 0.2486741188076378, 0};
Point(p15 + 18) = {10.43935084562247, 0.1268509975941953, 0};
Point(p15 + 19) = {10.40856864744948, -0.00136608537864838, 0};
Point(p15 + 20) = {10.398223, -0.1328199999999999, 0};
Point(p15 + 21) = {10.40856864744948, -0.2642739146213514, 0};
Point(p15 + 22) = {10.43935084562247, -0.3924909975941954, 0};
Point(p15 + 23) = {10.4898116346397, -0.5143141188076373, 0};
Point(p15 + 24) = {10.55870850240581, -0.6267435887096449, 0};
Point(p15 + 25) = {10.64434497938079, -0.7270110206192113, 0};
Point(p15 + 26) = {10.74461241129035, -0.8126474975941951, 0};
Point(p15 + 27) = {10.85704188119236, -0.8815443653602999, 0};
Point(p15 + 28) = {10.9788650024058, -0.9320051543775294, 0};
Point(p15 + 29) = {11.10708208537865, -0.9627873525505219, 0};
Point(p15 + 30) = {11.238536, -0.973133, 0};
Point(p15 + 31) = {11.36998991462135, -0.9627873525505219, 0};
Point(p15 + 32) = {11.4982069975942, -0.9320051543775294, 0};
Point(p15 + 33) = {11.62003011880764, -0.8815443653602999, 0};
Point(p15 + 34) = {11.73245958870965, -0.8126474975941953, 0};
Point(p15 + 35) = {11.83272702061921, -0.7270110206192115, 0};
Point(p15 + 36) = {11.91836349759419, -0.6267435887096451, 0};
Point(p15 + 37) = {11.9872603653603, -0.5143141188076379, 0};
Point(p15 + 38) = {12.03772115437753, -0.3924909975941954, 0};
Point(p15 + 39) = {12.06850335255052, -0.2642739146213517, 0};
Spline(15) = {11, p15 + 1, p15 + 2, p15 + 3, p15 + 4, p15 + 5, p15 + 6, p15 + 7, p15 + 8, p15 + 9, p15 + 10, p15 + 11, p15 + 12, p15 + 13, p15 + 14, p15 + 15, p15 + 16, p15 + 17, p15 + 18, p15 + 19, p15 + 20, p15 + 21, p15 + 22, p15 + 23, p15 + 24, p15 + 25, p15 + 26, p15 + 27, p15 + 28, p15 + 29, p15 + 30, p15 + 31, p15 + 32, p15 + 33, p15 + 34, p15 + 35, p15 + 36, p15 + 37, p15 + 38, p15 + 39, 11};
p16 = newp;
Point(p16 + 1) = {19.49499450959642, 3.075394478371908, 0};
Point(p16 + 2) = {19.45742296910767, 3.231891207331648, 0};
Point(p16 + 3) = {19.39583251455337, 3.380583718029365, 0};
Point(p16 + 4) = {19.31173970733165, 3.517810707369532, 0};
Point(p16 + 5) = {19.20721519144433, 3.640193191444326, 0};
Point(p16 + 6) = {19.08483270736953, 3.744717707331648, 0};
Point(p16 + 7) = {18.94760571802937, 3.828810514553372, 0};
Point(p16 + 8) = {18.79891320733165, 3.890400969107673, 0};
Point(p16 + 9) = {18.64241647837191, 3.927972509596425, 0};
Point(p16 + 10) = {18.481969, 3.9406, 0};
Point(p16 + 11) = {18.32152152162809, 3.927972509596425, 0};
Point(p16 + 12) = {18.16502479266835, 3.890400969107673, 0};
Point(p16 + 13) = {18.01633228197063, 3.828810514553372, 0};
Point(p16 + 14) = {17.87910529263047, 3.744717707331648, 0};
Point(p16 + 15) = {17.75672280855567, 3.640193191444326, 0};
Point(p16 + 16) = {17.65219829266835, 3.517810707369532, 0};
Point(p16 + 17) = {17.56810548544663, 3.380583718029365, 0};
Point(p16 + 18) = {17.50651503089233, 3.231891207331648, 0};
Point(p16 + 19) = {17.46894349040357, 3.075394478371908, 0};
Point(p16 + 20) = {17.456316, 2.914947, 0};
Point(p16 + 21) = {17.46894349040357, 2.754499521628092, 0};
Point(p16 + 22) = {17.50651503089233, 2.598002792668352, 0};
Point(p16 + 23) = {17.56810548544663, 2.449310281970635, 0};
Point(p16 + 24) = {17.65219829266835, 2.312083292630469, 0};
Point(p16 + 25) = {17.75672280855567, 2.189700808555674, 0};
Point(p16 + 26) = {17.87910529263047, 2.085176292668352, 0};
Point(p16 + 27) = {18.01633228197063, 2.001083485446628, 0};
Point(p16 + 28) = {18.16502479266835, 1.939493030892327, 0};
Point(p16 + 29) = {18.32152152162809, 1.901921490403575, 0};
Point(p16 + 30) = {18.481969, 1.889294, 0};
Point(p16 + 31) = {18.64241647837191, 1.901921490403575, 0};
Point(p16 + 32) = {18.79891320733165, 1.939493030892327, 0};
Point(p16 + 33) = {18.94760571802937, 2.001083485446628, 0};
Point(p16 + 34) = {19.08483270736953, 2.085176292668352, 0};
Point(p16 + 35) = {19.20721519144433, 2.189700808555674, 0};
Point(p16 + 36) = {19.31173970733165, 2.312083292630468, 0};
Point(p16 + 37) = {19.39583251455337, 2.449310281970634, 0};
Point(p16 + 38) = {19.45742296910767, 2.598002792668352, 0};
Point(p16 + 39) = {19.49499450959642, 2.754499521628092, 0};
Spline(16) = {12, p16 + 1, p16 + 2, p16 + 3, p16 + 4, p16 + 5, p16 + 6, p16 + 7, p16 + 8, p16 + 9, p16 + 10, p16 + 11, p16 + 12, p16 + 13, p16 + 14, p16 + 15, p16 + 16, p16 + 17, p16 + 18, p16 + 19, p16 + 20, p16 + 21, p16 + 22, p16 + 23, p16 + 24, p16 + 25, p16 + 26, p16 + 27, p16 + 28, p16 + 29, p16 + 30, p16 + 31, p16 + 32, p16 + 33, p16 + 34, p16 + 35, p16 + 36, p16 + 37, p16 + 38, p16 + 39, 12};
Line(17) = {11, 8};
Line(18) = {12, 9};
Curve Loop(1) = {-1, 4, 3, -2};
Plane Surface(1) = {1};
Curve Loop(2) = {-5, 1, 7, -6};
Plane Surface(2) = {2};
Curve Loop(3) = {-2, 7, 9, -8, -10, -11};
Plane Surface(3) = {3};
Curve Loop(4) = {-12, 3, 8, -13};
Plane Surface(4) = {4};
Curve Loop(5) = {-4, 5, 14, -12, -15, -16};
Plane Surface(5) = {5};
Curve Loop(6) = {-6, 14, 13, -9};
Plane Surface(6) = {6};
Curve Loop(7) = {-10, -17, 15, 17};
Surface(7) = {7};
Curve Loop(8) = {-11, -18, 16, 18};
Surface(8) = {8};
Surface Loop(1) = {1, 2, 3, 4, 5, 6, 7, 8};
Volume(1) = {1};
Physical Surface("INFLOW") = {1};
Physical Surface("OUTFLOW") = {6};
Physical Surface("OBSTACLE") = {7, 8};
Physical Surface("WALL_Y") = {2, 4};
Physical Surface("WALL_Z") = {3, 5};
Physical Volume("FLUID") = {1};
