cl__1 = 0.654817;
cl__2 = 0.609106;
cl__3 = 3.351732;
cl__4 = 0.052578;
Point(1) = {0.215951, -3.064747, 1, cl__1};
Point(2) = {0.215951, -3.064747, 0, cl__1};
Point(3) = {0.215951, 4.804138, 1, cl__2};
Point(4) = {0.215951, 4.804138, 0, cl__2};
Point(5) = {33.28559499999999, -3.064747, 0, cl__3};
Point(6) = {33.28559499999999, -3.064747, 1, cl__3};
Point(7) = {33.28559499999999, 4.804138, 1, cl__3};
Point(8) = {6.334021, 1.267344, 1, cl__4};
Point(9) = {33.28559499999999, 4.804138, 0, cl__3};
Point(10) = {6.334021, 1.267344, 0, cl__4};
Line(1) = {2, 1};
Line(2) = {1, 3};
Line(3) = {4, 3};
Line(4) = {2, 4};
Line(5) = {2, 5};
Line(6) = {5, 6};
Line(7) = {1, 6};
Line(8) = {3, 7};
Line(9) = {6, 7};
p10 = newp;
Point(p10 + 1) = {6.327547775718111, 1.349594113028853, 1};
Point(p10 + 2) = {6.308287495137666, 1.42981895530246, 1};
Point(p10 + 3) = {6.276714410287759, 1.506043124953059, 1};
Point(p10 + 4) = {6.23360595530246, 1.576389729950336, 1};
Point(p10 + 5) = {6.180023603412263, 1.639126603412263, 1};
Point(p10 + 6) = {6.117286729950337, 1.69270895530246, 1};
Point(p10 + 7) = {6.046940124953059, 1.73581741028776, 1};
Point(p10 + 8) = {5.97071595530246, 1.767390495137666, 1};
Point(p10 + 9) = {5.890491113028852, 1.786650775718112, 1};
Point(p10 + 10) = {5.808241, 1.793124, 1};
Point(p10 + 11) = {5.725990886971147, 1.786650775718111, 1};
Point(p10 + 12) = {5.64576604469754, 1.767390495137666, 1};
Point(p10 + 13) = {5.569541875046941, 1.73581741028776, 1};
Point(p10 + 14) = {5.499195270049663, 1.69270895530246, 1};
Point(p10 + 15) = {5.436458396587737, 1.639126603412263, 1};
Point(p10 + 16) = {5.38287604469754, 1.576389729950337, 1};
Point(p10 + 17) = {5.33976758971224, 1.506043124953059, 1};
Point(p10 + 18) = {5.308194504862334, 1.42981895530246, 1};
Point(p10 + 19) = {5.288934224281888, 1.349594113028853, 1};
Point(p10 + 20) = {5.282461, 1.267344, 1};
Point(p10 + 21) = {5.288934224281888, 1.185093886971148, 1};
Point(p10 + 22) = {5.308194504862334, 1.10486904469754, 1};
Point(p10 + 23) = {5.339767589712239, 1.028644875046941, 1};
Point(p10 + 24) = {5.382876044697539, 0.9582982700496636, 1};
Point(p10 + 25) = {5.436458396587737, 0.8955613965877371, 1};
Point(p10 + 26) = {5.499195270049663, 0.8419790446975401, 1};
Point(p10 + 27) = {5.569541875046941, 0.79887058971224, 1};
Point(p10 + 28) = {5.64576604469754, 0.7672975048623342, 1};
Point(p10 + 29) = {5.725990886971147, 0.7480372242818886, 1};
Point(p10 + 30) = {5.808241, 0.741564, 1};
Point(p10 + 31) = {5.890491113028852, 0.7480372242818885, 1};
Point(p10 + 32) = {5.97071595530246, 0.7672975048623342, 1};
Point(p10 + 33) = {6.046940124953059, 0.7988705897122399, 1};
Point(p10 + 34) = {6.117286729950337, 0.8419790446975401, 1};
Point(p10 + 35) = {6.180023603412263, 0.8955613965877369, 1};
Point(p10 + 36) = {6.233605955302459, 0.9582982700496634, 1};
Point(p10 + 37) = {6.276714410287759, 1.028644875046941, 1};
Point(p10 + 38) = {6.308287495137666, 1.10486904469754, 1};
Point(p10 + 39) = {6.327547775718111, 1.185093886971147, 1};
Spline(10) = {8, p10 + 1, p10 + 2, p10 + 3, p10 + 4, p10 + 5, p10 + 6, p10 + 7, p10 + 8, p10 + 9, p10 + 10, p10 + 11, p10 + 12, p10 + 13, p10 + 14, p10 + 15, p10 + 16, p10 + 17, p10 + 18, p10 + 19, p10 + 20, p10 + 21, p10 + 22, p10 + 23, p10 + 24, p10 + 25, p10 + 26, p10 + 27, p10 + 28, p10 + 29, p10 + 30, p10 + 31, p10 + 32, p10 + 33, p10 + 34, p10 + 35, p10 + 36, p10 + 37, p10 + 38, p10 + 39, 8};
Line(11) = {4, 9};
Line(12) = {9, 7};
Line(13) = {5, 9};
p14 = newp;
Point(p14 + 1) = {6.327547775718111, 1.349594113028853, 0};
Point(p14 + 2) = {6.308287495137666, 1.42981895530246, 0};
Point(p14 + 3) = {6.276714410287759, 1.506043124953059, 0};
Point(p14 + 4) = {6.23360595530246, 1.576389729950336, 0};
Point(p14 + 5) = {6.180023603412263, 1.639126603412263, 0};
Point(p14 + 6) = {6.117286729950337, 1.69270895530246, 0};
Point(p14 + 7) = {6.046940124953059, 1.73581741028776, 0};
Point(p14 + 8) = {5.97071595530246, 1.767390495137666, 0};
Point(p14 + 9) = {5.890491113028852, 1.786650775718112, 0};
Point(p14 + 10) = {5.808241, 1.793124, 0};
Point(p14 + 11) = {5.725990886971147, 1.786650775718111, 0};
Point(p14 + 12) = {5.64576604469754, 1.767390495137666, 0};
Point(p14 + 13) = {5.569541875046941, 1.73581741028776, 0};
Point(p14 + 14) = {5.499195270049663, 1.69270895530246, 0};
Point(p14 + 15) = {5.436458396587737, 1.639126603412263, 0};
Point(p14 + 16) = {5.38287604469754, 1.576389729950337, 0};
Point(p14 + 17) = {5.33976758971224, 1.506043124953059, 0};
Point(p14 + 18) = {5.308194504862334, 1.42981895530246, 0};
Point(p14 + 19) = {5.288934224281888, 1.349594113028853, 0};
Point(p14 + 20) = {5.282461, 1.267344, 0};
Point(p14 + 21) = {5.288934224281888, 1.185093886971148, 0};
Point(p14 + 22) = {5.308194504862334, 1.10486904469754, 0};
Point(p14 + 23) = {5.339767589712239, 1.028644875046941, 0};
Point(p14 + 24) = {5.382876044697539, 0.9582982700496636, 0};
Point(p14 + 25) = {5.436458396587737, 0.8955613965877371, 0};
Point(p14 + 26) = {5.499195270049663, 0.8419790446975401, 0};
Point(p14 + 27) = {5.569541875046941, 0.79887058971224, 0};
Point(p14 + 28) = {5.64576604469754, 0.7672975048623342, 0};
Point(p14 + 29) = {5.725990886971147, 0.7480372242818886, 0};
Point(p14 + 30) = {5.808241, 0.741564, 0};
Point(p14 + 31) = {5.890491113028852, 0.7480372242818885, 0};
Point(p14 + 32) = {5.97071595530246, 0.7672975048623342, 0};
Point(p14 + 33) = {6.046940124953059, 0.7988705897122399, 0};
Point(p14 + 34) = {6.117286729950337, 0.8419790446975401, 0};
Point(p14 + 35) = {6.180023603412263, 0.8955613965877369, 0};
Point(p14 + 36) = {6.233605955302459, 0.9582982700496634, 0};
Point(p14 + 37) = {6.276714410287759, 1.028644875046941, 0};
Point(p14 + 38) = {6.308287495137666, 1.10486904469754, 0};
Point(p14 + 39) = {6.327547775718111, 1.185093886971147, 0};
Spline(14) = {10, p14 + 1, p14 + 2, p14 + 3, p14 + 4, p14 + 5, p14 + 6, p14 + 7, p14 + 8, p14 + 9, p14 + 10, p14 + 11, p14 + 12, p14 + 13, p14 + 14, p14 + 15, p14 + 16, p14 + 17, p14 + 18, p14 + 19, p14 + 20, p14 + 21, p14 + 22, p14 + 23, p14 + 24, p14 + 25, p14 + 26, p14 + 27, p14 + 28, p14 + 29, p14 + 30, p14 + 31, p14 + 32, p14 + 33, p14 + 34, p14 + 35, p14 + 36, p14 + 37, p14 + 38, p14 + 39, 10};
Line(15) = {10, 8};
Curve Loop(1) = {-1, 4, 3, -2};
Plane Surface(1) = {1};
Curve Loop(2) = {-5, 1, 7, -6};
Plane Surface(2) = {2};
Curve Loop(3) = {-2, 7, 9, -8, -10};
Plane Surface(3) = {3};
Curve Loop(4) = {-11, 3, 8, -12};
Plane Surface(4) = {4};
Curve Loop(5) = {-4, 5, 13, -11, -14};
Plane Surface(5) = {5};
Curve Loop(6) = {-6, 13, 12, -9};
Plane Surface(6) = {6};
Curve Loop(7) = {-10, -15, 14, 15};
Surface(7) = {7};
Surface Loop(1) = {1, 2, 3, 4, 5, 6, 7};
Volume(1) = {1};
Physical Surface("INFLOW") = {1};
Physical Surface("OUTFLOW") = {6};
Physical Surface("OBSTACLE") = {7};
Physical Surface("WALL_Y") = {2, 4};
Physical Surface("WALL_Z") = {3, 5};
Physical Volume("FLUID") = {1};
