cl__1 = 1;
cl__2 = 0.137412;
cl__3 = 0.072204;
Point(1) = {0.966268, -3.106107, 1, cl__1};
Point(2) = {0.966268, -3.106107, 0, cl__1};
Point(3) = {0.966268, 4.739889, 1, cl__1};
Point(4) = {0.966268, 4.739889, 0, cl__1};
Point(5) = {38.012592, -3.106107, 0, cl__1};
Point(6) = {38.012592, -3.106107, 1, cl__1};
Point(7) = {38.012592, 4.739889, 1, cl__1};
Point(8) = {10.877387, 1.10769, 1, cl__2};
Point(9) = {17.351504, 3.502556999999999, 1, cl__3};
Point(10) = {38.012592, 4.739889, 0, cl__1};
Point(11) = {10.877387, 1.10769, 0, cl__2};
Point(12) = {17.351504, 3.502556999999999, 0, cl__3};
Line(1) = {2, 1};
Line(2) = {1, 3};
Line(3) = {4, 3};
Line(4) = {2, 4};
Line(5) = {2, 5};
Line(6) = {5, 6};
Line(7) = {1, 6};
Line(8) = {3, 7};
Line(9) = {6, 7};
p10 = newp;
Point(p10 + 1) = {10.86046933951357, 1.322649257797687, 1};
Point(p10 + 2) = {10.81013292700195, 1.53231550525952, 1};
Point(p10 + 3) = {10.72761721199815, 1.731526063530607, 1};
Point(p10 + 4) = {10.61495400525952, 1.915375707524376, 1};
Point(p10 + 5) = {10.47491744884372, 2.079337448843715, 1};
Point(p10 + 6) = {10.31095570752438, 2.21937400525952, 1};
Point(p10 + 7) = {10.12710606353061, 2.332037211998148, 1};
Point(p10 + 8) = {9.927895505259521, 2.414552927001948, 1};
Point(p10 + 9) = {9.718229257797688, 2.464889339513569, 1};
Point(p10 + 10) = {9.503270000000001, 2.481807, 1};
Point(p10 + 11) = {9.288310742202313, 2.464889339513569, 1};
Point(p10 + 12) = {9.07864449474048, 2.414552927001948, 1};
Point(p10 + 13) = {8.879433936469393, 2.332037211998148, 1};
Point(p10 + 14) = {8.695584292475624, 2.21937400525952, 1};
Point(p10 + 15) = {8.531622551156286, 2.079337448843715, 1};
Point(p10 + 16) = {8.391585994740481, 1.915375707524376, 1};
Point(p10 + 17) = {8.278922788001854, 1.731526063530607, 1};
Point(p10 + 18) = {8.196407072998053, 1.53231550525952, 1};
Point(p10 + 19) = {8.146070660486432, 1.322649257797687, 1};
Point(p10 + 20) = {8.129153000000001, 1.10769, 1};
Point(p10 + 21) = {8.146070660486432, 0.8927307422023133, 1};
Point(p10 + 22) = {8.196407072998053, 0.68306449474048, 1};
Point(p10 + 23) = {8.278922788001854, 0.483853936469394, 1};
Point(p10 + 24) = {8.391585994740481, 0.3000042924756239, 1};
Point(p10 + 25) = {8.531622551156286, 0.1360425511562851, 1};
Point(p10 + 26) = {8.695584292475624, -0.00399400525951954, 1};
Point(p10 + 27) = {8.879433936469393, -0.1166572119981473, 1};
Point(p10 + 28) = {9.07864449474048, -0.1991729270019476, 1};
Point(p10 + 29) = {9.288310742202313, -0.2495093395135688, 1};
Point(p10 + 30) = {9.503270000000001, -0.266427, 1};
Point(p10 + 31) = {9.718229257797688, -0.2495093395135688, 1};
Point(p10 + 32) = {9.927895505259521, -0.1991729270019476, 1};
Point(p10 + 33) = {10.12710606353061, -0.1166572119981475, 1};
Point(p10 + 34) = {10.31095570752438, -0.003994005259519762, 1};
Point(p10 + 35) = {10.47491744884372, 0.1360425511562847, 1};
Point(p10 + 36) = {10.61495400525952, 0.3000042924756234, 1};
Point(p10 + 37) = {10.72761721199815, 0.483853936469393, 1};
Point(p10 + 38) = {10.81013292700195, 0.6830644947404801, 1};
Point(p10 + 39) = {10.86046933951357, 0.8927307422023129, 1};
Spline(10) = {8, p10 + 1, p10 + 2, p10 + 3, p10 + 4, p10 + 5, p10 + 6, p10 + 7, p10 + 8, p10 + 9, p10 + 10, p10 + 11, p10 + 12, p10 + 13, p10 + 14, p10 + 15, p10 + 16, p10 + 17, p10 + 18, p10 + 19, p10 + 20, p10 + 21, p10 + 22, p10 + 23, p10 + 24, p10 + 25, p10 + 26, p10 + 27, p10 + 28, p10 + 29, p10 + 30, p10 + 31, p10 + 32, p10 + 33, p10 + 34, p10 + 35, p10 + 36, p10 + 37, p10 + 38, p10 + 39, 8};
p11 = newp;
Point(p11 + 1) = {17.34261451406663, 3.615508628268718, 1};
Point(p11 + 2) = {17.31616494491272, 3.725679012584498, 1};
Point(p11 + 3) = {17.27280656871192, 3.830355392450943, 1};
Point(p11 + 4) = {17.2136070125845, 3.926960287994753, 1};
Point(p11 + 5) = {17.14002396607437, 4.013114966074372, 1};
Point(p11 + 6) = {17.05386928799475, 4.086698012584498, 1};
Point(p11 + 7) = {16.95726439245094, 4.145897568711921, 1};
Point(p11 + 8) = {16.8525880125845, 4.18925594491272, 1};
Point(p11 + 9) = {16.74241762826872, 4.215705514066632, 1};
Point(p11 + 10) = {16.629466, 4.224595, 1};
Point(p11 + 11) = {16.51651437173128, 4.215705514066632, 1};
Point(p11 + 12) = {16.4063439874155, 4.18925594491272, 1};
Point(p11 + 13) = {16.30166760754906, 4.145897568711921, 1};
Point(p11 + 14) = {16.20506271200525, 4.086698012584498, 1};
Point(p11 + 15) = {16.11890803392563, 4.013114966074372, 1};
Point(p11 + 16) = {16.0453249874155, 3.926960287994753, 1};
Point(p11 + 17) = {15.98612543128808, 3.830355392450943, 1};
Point(p11 + 18) = {15.94276705508728, 3.725679012584498, 1};
Point(p11 + 19) = {15.91631748593337, 3.615508628268718, 1};
Point(p11 + 20) = {15.907428, 3.502557, 1};
Point(p11 + 21) = {15.91631748593337, 3.389605371731282, 1};
Point(p11 + 22) = {15.94276705508728, 3.279434987415502, 1};
Point(p11 + 23) = {15.98612543128808, 3.174758607549057, 1};
Point(p11 + 24) = {16.0453249874155, 3.078153712005247, 1};
Point(p11 + 25) = {16.11890803392563, 2.991999033925627, 1};
Point(p11 + 26) = {16.20506271200525, 2.918415987415502, 1};
Point(p11 + 27) = {16.30166760754906, 2.859216431288079, 1};
Point(p11 + 28) = {16.4063439874155, 2.81585805508728, 1};
Point(p11 + 29) = {16.51651437173128, 2.789408485933368, 1};
Point(p11 + 30) = {16.629466, 2.780519, 1};
Point(p11 + 31) = {16.74241762826872, 2.789408485933368, 1};
Point(p11 + 32) = {16.8525880125845, 2.81585805508728, 1};
Point(p11 + 33) = {16.95726439245094, 2.859216431288079, 1};
Point(p11 + 34) = {17.05386928799475, 2.918415987415502, 1};
Point(p11 + 35) = {17.14002396607437, 2.991999033925627, 1};
Point(p11 + 36) = {17.2136070125845, 3.078153712005247, 1};
Point(p11 + 37) = {17.27280656871192, 3.174758607549057, 1};
Point(p11 + 38) = {17.31616494491272, 3.279434987415502, 1};
Point(p11 + 39) = {17.34261451406663, 3.389605371731282, 1};
Spline(11) = {9, p11 + 1, p11 + 2, p11 + 3, p11 + 4, p11 + 5, p11 + 6, p11 + 7, p11 + 8, p11 + 9, p11 + 10, p11 + 11, p11 + 12, p11 + 13, p11 + 14, p11 + 15, p11 + 16, p11 + 17, p11 + 18, p11 + 19, p11 + 20, p11 + 21, p11 + 22, p11 + 23, p11 + 24, p11 + 25, p11 + 26, p11 + 27, p11 + 28, p11 + 29, p11 + 30, p11 + 31, p11 + 32, p11 + 33, p11 + 34, p11 + 35, p11 + 36, p11 + 37, p11 + 38, p11 + 39, 9};
Line(12) = {4, 10};
Line(13) = {10, 7};
Line(14) = {5, 10};
p15 = newp;
Point(p15 + 1) = {10.86046933951357, 1.322649257797687, 0};
Point(p15 + 2) = {10.81013292700195, 1.53231550525952, 0};
Point(p15 + 3) = {10.72761721199815, 1.731526063530607, 0};
Point(p15 + 4) = {10.61495400525952, 1.915375707524376, 0};
Point(p15 + 5) = {10.47491744884372, 2.079337448843715, 0};
Point(p15 + 6) = {10.31095570752438, 2.21937400525952, 0};
Point(p15 + 7) = {10.12710606353061, 2.332037211998148, 0};
Point(p15 + 8) = {9.927895505259521, 2.414552927001948, 0};
Point(p15 + 9) = {9.718229257797688, 2.464889339513569, 0};
Point(p15 + 10) = {9.503270000000001, 2.481807, 0};
Point(p15 + 11) = {9.288310742202313, 2.464889339513569, 0};
Point(p15 + 12) = {9.07864449474048, 2.414552927001948, 0};
Point(p15 + 13) = {8.879433936469393, 2.332037211998148, 0};
Point(p15 + 14) = {8.695584292475624, 2.21937400525952, 0};
Point(p15 + 15) = {8.531622551156286, 2.079337448843715, 0};
Point(p15 + 16) = {8.391585994740481, 1.915375707524376, 0};
Point(p15 + 17) = {8.278922788001854, 1.731526063530607, 0};
Point(p15 + 18) = {8.196407072998053, 1.53231550525952, 0};
Point(p15 + 19) = {8.146070660486432, 1.322649257797687, 0};
Point(p15 + 20) = {8.129153000000001, 1.10769, 0};
Point(p15 + 21) = {8.146070660486432, 0.8927307422023133, 0};
Point(p15 + 22) = {8.196407072998053, 0.68306449474048, 0};
Point(p15 + 23) = {8.278922788001854, 0.483853936469394, 0};
Point(p15 + 24) = {8.391585994740481, 0.3000042924756239, 0};
Point(p15 + 25) = {8.531622551156286, 0.1360425511562851, 0};
Point(p15 + 26) = {8.695584292475624, -0.00399400525951954, 0};
Point(p15 + 27) = {8.879433936469393, -0.1166572119981473, 0};
Point(p15 + 28) = {9.07864449474048, -0.1991729270019476, 0};
Point(p15 + 29) = {9.288310742202313, -0.2495093395135688, 0};
Point(p15 + 30) = {9.503270000000001, -0.266427, 0};
Point(p15 + 31) = {9.718229257797688, -0.2495093395135688, 0};
Point(p15 + 32) = {9.927895505259521, -0.1991729270019476, 0};
Point(p15 + 33) = {10.12710606353061, -0.1166572119981475, 0};
Point(p15 + 34) = {10.31095570752438, -0.003994005259519762, 0};
Point(p15 + 35) = {10.47491744884372, 0.1360425511562847, 0};
Point(p15 + 36) = {10.61495400525952, 0.3000042924756234, 0};
Point(p15 + 37) = {10.72761721199815, 0.483853936469393, 0};
Point(p15 + 38) = {10.81013292700195, 0.6830644947404801, 0};
Point(p15 + 39) = {10.86046933951357, 0.8927307422023129, 0};
Spline(15) = {11, p15 + 1, p15 + 2, p15 + 3, p15 + 4, p15 + 5, p15 + 6, p15 + 7, p15 + 8, p15 + 9, p15 + 10, p15 + 11, p15 + 12, p15 + 13, p15 + 14, p15 + 15, p15 + 16, p15 + 17, p15 + 18, p15 + 19, p15 + 20, p15 + 21, p15 + 22, p15 + 23, p15 + 24, p15 + 25, p15 + 26, p15 + 27, p15 + 28, p15 + 29, p15 + 30, p15 + 31, p15 + 32, p15 + 33, p15 + 34, p15 + 35, p15 + 36, p15 + 37, p15 + 38, p15 + 39, 11};
p16 = newp;
Point(p16 + 1) = {17.34261451406663, 3.615508628268718, 0};
Point(p16 + 2) = {17.31616494491272, 3.725679012584498, 0};
Point(p16 + 3) = {17.27280656871192, 3.830355392450943, 0};
Point(p16 + 4) = {17.2136070125845, 3.926960287994753, 0};
Point(p16 + 5) = {17.14002396607437, 4.013114966074372, 0};
Point(p16 + 6) = {17.05386928799475, 4.086698012584498, 0};
Point(p16 + 7) = {16.95726439245094, 4.145897568711921, 0};
Point(p16 + 8) = {16.8525880125845, 4.18925594491272, 0};
Point(p16 + 9) = {16.74241762826872, 4.215705514066632, 0};
Point(p16 + 10) = {16.629466, 4.224595, 0};
Point(p16 + 11) = {16.51651437173128, 4.215705514066632, 0};
Point(p16 + 12) = {16.4063439874155, 4.18925594491272, 0};
Point(p16 + 13) = {16.30166760754906, 4.145897568711921, 0};
Point(p16 + 14) = {16.20506271200525, 4.086698012584498, 0};
Point(p16 + 15) = {16.11890803392563, 4.013114966074372, 0};
Point(p16 + 16) = {16.0453249874155, 3.926960287994753, 0};
Point(p16 + 17) = {15.98612543128808, 3.830355392450943, 0};
Point(p16 + 18) = {15.94276705508728, 3.725679012584498, 0};
Point(p16 + 19) = {15.91631748593337, 3.615508628268718, 0};
Point(p16 + 20) = {15.907428, 3.502557, 0};
Point(p16 + 21) = {15.91631748593337, 3.389605371731282, 0};
Point(p16 + 22) = {15.94276705508728, 3.279434987415502, 0};
Point(p16 + 23) = {15.98612543128808, 3.174758607549057, 0};
Point(p16 + 24) = {16.0453249874155, 3.078153712005247, 0};
Point(p16 + 25) = {16.11890803392563, 2.991999033925627, 0};
Point(p16 + 26) = {16.20506271200525, 2.918415987415502, 0};
Point(p16 + 27) = {16.30166760754906, 2.859216431288079, 0};
Point(p16 + 28) = {16.4063439874155, 2.81585805508728, 0};
Point(p16 + 29) = {16.51651437173128, 2.789408485933368, 0};
Point(p16 + 30) = {16.629466, 2.780519, 0};
Point(p16 + 31) = {16.74241762826872, 2.789408485933368, 0};
Point(p16 + 32) = {16.8525880125845, 2.81585805508728, 0};
Point(p16 + 33) = {16.95726439245094, 2.859216431288079, 0};
Point(p16 + 34) = {17.05386928799475, 2.918415987415502, 0};
Point(p16 + 35) = {17.14002396607437, 2.991999033925627, 0};
Point(p16 + 36) = {17.2136070125845, 3.078153712005247, 0};
Point(p16 + 37) = {17.27280656871192, 3.174758607549057, 0};
Point(p16 + 38) = {17.31616494491272, 3.279434987415502, 0};
Point(p16 + 39) = {17.34261451406663, 3.389605371731282, 0};
Spline(16) = {12, p16 + 1, p16 + 2, p16 + 3, p16 + 4, p16 + 5, p16 + 6, p16 + 7, p16 + 8, p16 + 9, p16 + 10, p16 + 11, p16 + 12, p16 + 13, p16 + 14, p16 + 15, p16 + 16, p16 + 17, p16 + 18, p16 + 19, p16 + 20, p16 + 21, p16 + 22, p16 + 23, p16 + 24, p16 + 25, p16 + 26, p16 + 27, p16 + 28, p16 + 29, p16 + 30, p16 + 31, p16 + 32, p16 + 33, p16 + 34, p16 + 35, p16 + 36, p16 + 37, p16 + 38, p16 + 39, 12};
Line(17) = {11, 8};
Line(18) = {12, 9};
Curve Loop(1) = {-1, 4, 3, -2};
Plane Surface(1) = {1};
Curve Loop(2) = {-5, 1, 7, -6};
Plane Surface(2) = {2};
Curve Loop(3) = {-2, 7, 9, -8, -10, -11};
Plane Surface(3) = {3};
Curve Loop(4) = {-12, 3, 8, -13};
Plane Surface(4) = {4};
Curve Loop(5) = {-4, 5, 14, -12, -15, -16};
Plane Surface(5) = {5};
Curve Loop(6) = {-6, 14, 13, -9};
Plane Surface(6) = {6};
Curve Loop(7) = {-10, -17, 15, 17};
Surface(7) = {7};
Curve Loop(8) = {-11, -18, 16, 18};
Surface(8) = {8};
Surface Loop(1) = {1, 2, 3, 4, 5, 6, 7, 8};
Volume(1) = {1};
Physical Surface("INFLOW") = {1};
Physical Surface("OUTFLOW") = {6};
Physical Surface("OBSTACLE") = {7, 8};
Physical Surface("WALL_Y") = {2, 4};
Physical Surface("WALL_Z") = {3, 5};
Physical Volume("FLUID") = {1};
