cl__1 = 3.105748;
cl__2 = 1.249714;
cl__3 = 0.63301;
cl__4 = 0.07352;
cl__5 = 0.07462199999999999;
Point(1) = {0.157433, -3.021502, 1, cl__1};
Point(2) = {0.157433, -3.021502, 0, cl__1};
Point(3) = {0.157433, 4.94306, 1, cl__2};
Point(4) = {0.157433, 4.94306, 0, cl__2};
Point(5) = {30.801115, -3.021502, 0, cl__3};
Point(6) = {30.801115, -3.021502, 1, cl__3};
Point(7) = {30.801115, 4.94306, 1, cl__2};
Point(8) = {19.062949, 1.395491, 1, cl__4};
Point(9) = {4.438856, 3.108468, 1, cl__5};
Point(10) = {30.801115, 4.94306, 0, cl__2};
Point(11) = {19.062949, 1.395491, 0, cl__4};
Point(12) = {4.438856, 3.108468, 0, cl__5};
Line(1) = {2, 1};
Line(2) = {1, 3};
Line(3) = {4, 3};
Line(4) = {2, 4};
Line(5) = {2, 5};
Line(6) = {5, 6};
Line(7) = {1, 6};
Line(8) = {3, 7};
Line(9) = {6, 7};
p10 = newp;
Point(p10 + 1) = {19.05389741875891, 1.510502244435438, 1};
Point(p10 + 2) = {19.02696555500626, 1.622681530332439, 1};
Point(p10 + 3) = {18.98281656060939, 1.729266631370514, 1};
Point(p10 + 4) = {18.92253753033244, 1.827633068626435, 1};
Point(p10 + 5) = {18.84761273395548, 1.915358733955475, 1};
Point(p10 + 6) = {18.75988706862644, 1.990283530332439, 1};
Point(p10 + 7) = {18.66152063137051, 2.050562560609385, 1};
Point(p10 + 8) = {18.55493553033244, 2.094711555006262, 1};
Point(p10 + 9) = {18.44275624443544, 2.121643418758908, 1};
Point(p10 + 10) = {18.327745, 2.130695, 1};
Point(p10 + 11) = {18.21273375556456, 2.121643418758908, 1};
Point(p10 + 12) = {18.10055446966756, 2.094711555006262, 1};
Point(p10 + 13) = {17.99396936862949, 2.050562560609385, 1};
Point(p10 + 14) = {17.89560293137356, 1.990283530332439, 1};
Point(p10 + 15) = {17.80787726604452, 1.915358733955475, 1};
Point(p10 + 16) = {17.73295246966756, 1.827633068626435, 1};
Point(p10 + 17) = {17.67267343939061, 1.729266631370514, 1};
Point(p10 + 18) = {17.62852444499374, 1.622681530332439, 1};
Point(p10 + 19) = {17.60159258124109, 1.510502244435438, 1};
Point(p10 + 20) = {17.592541, 1.395491, 1};
Point(p10 + 21) = {17.60159258124109, 1.280479755564562, 1};
Point(p10 + 22) = {17.62852444499374, 1.168300469667561, 1};
Point(p10 + 23) = {17.67267343939061, 1.061715368629487, 1};
Point(p10 + 24) = {17.73295246966756, 0.9633489313735647, 1};
Point(p10 + 25) = {17.80787726604452, 0.8756232660445257, 1};
Point(p10 + 26) = {17.89560293137356, 0.8006984696675613, 1};
Point(p10 + 27) = {17.99396936862949, 0.7404194393906153, 1};
Point(p10 + 28) = {18.10055446966756, 0.696270444993738, 1};
Point(p10 + 29) = {18.21273375556456, 0.6693385812410925, 1};
Point(p10 + 30) = {18.327745, 0.6602870000000001, 1};
Point(p10 + 31) = {18.44275624443544, 0.6693385812410924, 1};
Point(p10 + 32) = {18.55493553033244, 0.6962704449937379, 1};
Point(p10 + 33) = {18.66152063137051, 0.7404194393906153, 1};
Point(p10 + 34) = {18.75988706862644, 0.8006984696675611, 1};
Point(p10 + 35) = {18.84761273395548, 0.8756232660445255, 1};
Point(p10 + 36) = {18.92253753033244, 0.9633489313735645, 1};
Point(p10 + 37) = {18.98281656060939, 1.061715368629486, 1};
Point(p10 + 38) = {19.02696555500626, 1.168300469667561, 1};
Point(p10 + 39) = {19.05389741875891, 1.280479755564562, 1};
Spline(10) = {8, p10 + 1, p10 + 2, p10 + 3, p10 + 4, p10 + 5, p10 + 6, p10 + 7, p10 + 8, p10 + 9, p10 + 10, p10 + 11, p10 + 12, p10 + 13, p10 + 14, p10 + 15, p10 + 16, p10 + 17, p10 + 18, p10 + 19, p10 + 20, p10 + 21, p10 + 22, p10 + 23, p10 + 24, p10 + 25, p10 + 26, p10 + 27, p10 + 28, p10 + 29, p10 + 30, p10 + 31, p10 + 32, p10 + 33, p10 + 34, p10 + 35, p10 + 36, p10 + 37, p10 + 38, p10 + 39, 8};
p11 = newp;
Point(p11 + 1) = {4.429668855077201, 3.225201744329996, 1};
Point(p11 + 2) = {4.402333638307188, 3.339061116457501, 1};
Point(p11 + 3) = {4.357523433447223, 3.447242520763146, 1};
Point(p11 + 4) = {4.296341616457502, 3.547082172039428, 1};
Point(p11 + 5) = {4.220294686723119, 3.636121686723119, 1};
Point(p11 + 6) = {4.131255172039427, 3.712168616457501, 1};
Point(p11 + 7) = {4.031415520763146, 3.773350433447223, 1};
Point(p11 + 8) = {3.923234116457501, 3.818160638307188, 1};
Point(p11 + 9) = {3.809374744329996, 3.845495855077201, 1};
Point(p11 + 10) = {3.692641, 3.854683, 1};
Point(p11 + 11) = {3.575907255670004, 3.8454958550772, 1};
Point(p11 + 12) = {3.462047883542499, 3.818160638307188, 1};
Point(p11 + 13) = {3.353866479236854, 3.773350433447223, 1};
Point(p11 + 14) = {3.254026827960572, 3.712168616457501, 1};
Point(p11 + 15) = {3.16498731327688, 3.636121686723119, 1};
Point(p11 + 16) = {3.088940383542499, 3.547082172039428, 1};
Point(p11 + 17) = {3.027758566552777, 3.447242520763146, 1};
Point(p11 + 18) = {2.982948361692812, 3.339061116457501, 1};
Point(p11 + 19) = {2.9556131449228, 3.225201744329996, 1};
Point(p11 + 20) = {2.946426, 3.108468, 1};
Point(p11 + 21) = {2.9556131449228, 2.991734255670004, 1};
Point(p11 + 22) = {2.982948361692812, 2.877874883542498, 1};
Point(p11 + 23) = {3.027758566552777, 2.769693479236854, 1};
Point(p11 + 24) = {3.088940383542499, 2.669853827960572, 1};
Point(p11 + 25) = {3.16498731327688, 2.58081431327688, 1};
Point(p11 + 26) = {3.254026827960572, 2.504767383542498, 1};
Point(p11 + 27) = {3.353866479236854, 2.443585566552777, 1};
Point(p11 + 28) = {3.462047883542498, 2.398775361692812, 1};
Point(p11 + 29) = {3.575907255670004, 2.371440144922799, 1};
Point(p11 + 30) = {3.692641, 2.362253, 1};
Point(p11 + 31) = {3.809374744329996, 2.371440144922799, 1};
Point(p11 + 32) = {3.923234116457501, 2.398775361692812, 1};
Point(p11 + 33) = {4.031415520763145, 2.443585566552777, 1};
Point(p11 + 34) = {4.131255172039427, 2.504767383542498, 1};
Point(p11 + 35) = {4.220294686723119, 2.58081431327688, 1};
Point(p11 + 36) = {4.296341616457501, 2.669853827960572, 1};
Point(p11 + 37) = {4.357523433447223, 2.769693479236854, 1};
Point(p11 + 38) = {4.402333638307188, 2.877874883542498, 1};
Point(p11 + 39) = {4.429668855077201, 2.991734255670004, 1};
Spline(11) = {9, p11 + 1, p11 + 2, p11 + 3, p11 + 4, p11 + 5, p11 + 6, p11 + 7, p11 + 8, p11 + 9, p11 + 10, p11 + 11, p11 + 12, p11 + 13, p11 + 14, p11 + 15, p11 + 16, p11 + 17, p11 + 18, p11 + 19, p11 + 20, p11 + 21, p11 + 22, p11 + 23, p11 + 24, p11 + 25, p11 + 26, p11 + 27, p11 + 28, p11 + 29, p11 + 30, p11 + 31, p11 + 32, p11 + 33, p11 + 34, p11 + 35, p11 + 36, p11 + 37, p11 + 38, p11 + 39, 9};
Line(12) = {4, 10};
Line(13) = {10, 7};
Line(14) = {5, 10};
p15 = newp;
Point(p15 + 1) = {19.05389741875891, 1.510502244435438, 0};
Point(p15 + 2) = {19.02696555500626, 1.622681530332439, 0};
Point(p15 + 3) = {18.98281656060939, 1.729266631370514, 0};
Point(p15 + 4) = {18.92253753033244, 1.827633068626435, 0};
Point(p15 + 5) = {18.84761273395548, 1.915358733955475, 0};
Point(p15 + 6) = {18.75988706862644, 1.990283530332439, 0};
Point(p15 + 7) = {18.66152063137051, 2.050562560609385, 0};
Point(p15 + 8) = {18.55493553033244, 2.094711555006262, 0};
Point(p15 + 9) = {18.44275624443544, 2.121643418758908, 0};
Point(p15 + 10) = {18.327745, 2.130695, 0};
Point(p15 + 11) = {18.21273375556456, 2.121643418758908, 0};
Point(p15 + 12) = {18.10055446966756, 2.094711555006262, 0};
Point(p15 + 13) = {17.99396936862949, 2.050562560609385, 0};
Point(p15 + 14) = {17.89560293137356, 1.990283530332439, 0};
Point(p15 + 15) = {17.80787726604452, 1.915358733955475, 0};
Point(p15 + 16) = {17.73295246966756, 1.827633068626435, 0};
Point(p15 + 17) = {17.67267343939061, 1.729266631370514, 0};
Point(p15 + 18) = {17.62852444499374, 1.622681530332439, 0};
Point(p15 + 19) = {17.60159258124109, 1.510502244435438, 0};
Point(p15 + 20) = {17.592541, 1.395491, 0};
Point(p15 + 21) = {17.60159258124109, 1.280479755564562, 0};
Point(p15 + 22) = {17.62852444499374, 1.168300469667561, 0};
Point(p15 + 23) = {17.67267343939061, 1.061715368629487, 0};
Point(p15 + 24) = {17.73295246966756, 0.9633489313735647, 0};
Point(p15 + 25) = {17.80787726604452, 0.8756232660445257, 0};
Point(p15 + 26) = {17.89560293137356, 0.8006984696675613, 0};
Point(p15 + 27) = {17.99396936862949, 0.7404194393906153, 0};
Point(p15 + 28) = {18.10055446966756, 0.696270444993738, 0};
Point(p15 + 29) = {18.21273375556456, 0.6693385812410925, 0};
Point(p15 + 30) = {18.327745, 0.6602870000000001, 0};
Point(p15 + 31) = {18.44275624443544, 0.6693385812410924, 0};
Point(p15 + 32) = {18.55493553033244, 0.6962704449937379, 0};
Point(p15 + 33) = {18.66152063137051, 0.7404194393906153, 0};
Point(p15 + 34) = {18.75988706862644, 0.8006984696675611, 0};
Point(p15 + 35) = {18.84761273395548, 0.8756232660445255, 0};
Point(p15 + 36) = {18.92253753033244, 0.9633489313735645, 0};
Point(p15 + 37) = {18.98281656060939, 1.061715368629486, 0};
Point(p15 + 38) = {19.02696555500626, 1.168300469667561, 0};
Point(p15 + 39) = {19.05389741875891, 1.280479755564562, 0};
Spline(15) = {11, p15 + 1, p15 + 2, p15 + 3, p15 + 4, p15 + 5, p15 + 6, p15 + 7, p15 + 8, p15 + 9, p15 + 10, p15 + 11, p15 + 12, p15 + 13, p15 + 14, p15 + 15, p15 + 16, p15 + 17, p15 + 18, p15 + 19, p15 + 20, p15 + 21, p15 + 22, p15 + 23, p15 + 24, p15 + 25, p15 + 26, p15 + 27, p15 + 28, p15 + 29, p15 + 30, p15 + 31, p15 + 32, p15 + 33, p15 + 34, p15 + 35, p15 + 36, p15 + 37, p15 + 38, p15 + 39, 11};
p16 = newp;
Point(p16 + 1) = {4.429668855077201, 3.225201744329996, 0};
Point(p16 + 2) = {4.402333638307188, 3.339061116457501, 0};
Point(p16 + 3) = {4.357523433447223, 3.447242520763146, 0};
Point(p16 + 4) = {4.296341616457502, 3.547082172039428, 0};
Point(p16 + 5) = {4.220294686723119, 3.636121686723119, 0};
Point(p16 + 6) = {4.131255172039427, 3.712168616457501, 0};
Point(p16 + 7) = {4.031415520763146, 3.773350433447223, 0};
Point(p16 + 8) = {3.923234116457501, 3.818160638307188, 0};
Point(p16 + 9) = {3.809374744329996, 3.845495855077201, 0};
Point(p16 + 10) = {3.692641, 3.854683, 0};
Point(p16 + 11) = {3.575907255670004, 3.8454958550772, 0};
Point(p16 + 12) = {3.462047883542499, 3.818160638307188, 0};
Point(p16 + 13) = {3.353866479236854, 3.773350433447223, 0};
Point(p16 + 14) = {3.254026827960572, 3.712168616457501, 0};
Point(p16 + 15) = {3.16498731327688, 3.636121686723119, 0};
Point(p16 + 16) = {3.088940383542499, 3.547082172039428, 0};
Point(p16 + 17) = {3.027758566552777, 3.447242520763146, 0};
Point(p16 + 18) = {2.982948361692812, 3.339061116457501, 0};
Point(p16 + 19) = {2.9556131449228, 3.225201744329996, 0};
Point(p16 + 20) = {2.946426, 3.108468, 0};
Point(p16 + 21) = {2.9556131449228, 2.991734255670004, 0};
Point(p16 + 22) = {2.982948361692812, 2.877874883542498, 0};
Point(p16 + 23) = {3.027758566552777, 2.769693479236854, 0};
Point(p16 + 24) = {3.088940383542499, 2.669853827960572, 0};
Point(p16 + 25) = {3.16498731327688, 2.58081431327688, 0};
Point(p16 + 26) = {3.254026827960572, 2.504767383542498, 0};
Point(p16 + 27) = {3.353866479236854, 2.443585566552777, 0};
Point(p16 + 28) = {3.462047883542498, 2.398775361692812, 0};
Point(p16 + 29) = {3.575907255670004, 2.371440144922799, 0};
Point(p16 + 30) = {3.692641, 2.362253, 0};
Point(p16 + 31) = {3.809374744329996, 2.371440144922799, 0};
Point(p16 + 32) = {3.923234116457501, 2.398775361692812, 0};
Point(p16 + 33) = {4.031415520763145, 2.443585566552777, 0};
Point(p16 + 34) = {4.131255172039427, 2.504767383542498, 0};
Point(p16 + 35) = {4.220294686723119, 2.58081431327688, 0};
Point(p16 + 36) = {4.296341616457501, 2.669853827960572, 0};
Point(p16 + 37) = {4.357523433447223, 2.769693479236854, 0};
Point(p16 + 38) = {4.402333638307188, 2.877874883542498, 0};
Point(p16 + 39) = {4.429668855077201, 2.991734255670004, 0};
Spline(16) = {12, p16 + 1, p16 + 2, p16 + 3, p16 + 4, p16 + 5, p16 + 6, p16 + 7, p16 + 8, p16 + 9, p16 + 10, p16 + 11, p16 + 12, p16 + 13, p16 + 14, p16 + 15, p16 + 16, p16 + 17, p16 + 18, p16 + 19, p16 + 20, p16 + 21, p16 + 22, p16 + 23, p16 + 24, p16 + 25, p16 + 26, p16 + 27, p16 + 28, p16 + 29, p16 + 30, p16 + 31, p16 + 32, p16 + 33, p16 + 34, p16 + 35, p16 + 36, p16 + 37, p16 + 38, p16 + 39, 12};
Line(17) = {11, 8};
Line(18) = {12, 9};
Curve Loop(1) = {-1, 4, 3, -2};
Plane Surface(1) = {1};
Curve Loop(2) = {-5, 1, 7, -6};
Plane Surface(2) = {2};
Curve Loop(3) = {-2, 7, 9, -8, -10, -11};
Plane Surface(3) = {3};
Curve Loop(4) = {-12, 3, 8, -13};
Plane Surface(4) = {4};
Curve Loop(5) = {-4, 5, 14, -12, -15, -16};
Plane Surface(5) = {5};
Curve Loop(6) = {-6, 14, 13, -9};
Plane Surface(6) = {6};
Curve Loop(7) = {-10, -17, 15, 17};
Surface(7) = {7};
Curve Loop(8) = {-11, -18, 16, 18};
Surface(8) = {8};
Surface Loop(1) = {1, 2, 3, 4, 5, 6, 7, 8};
Volume(1) = {1};
Physical Surface("INFLOW") = {1};
Physical Surface("OUTFLOW") = {6};
Physical Surface("OBSTACLE") = {7, 8};
Physical Surface("WALL_Y") = {2, 4};
Physical Surface("WALL_Z") = {3, 5};
Physical Volume("FLUID") = {1};
