cl__1 = 3.986486;
cl__2 = 0.745967;
cl__3 = 0.7858579999999999;
cl__4 = 0.09835000000000001;
Point(1) = {0.435487, -3.353808, 1, cl__1};
Point(2) = {0.435487, -3.353808, 0, cl__1};
Point(3) = {0.435487, 4.821397999999999, 1, cl__1};
Point(4) = {0.435487, 4.821397999999999, 0, cl__1};
Point(5) = {39.654737, -3.353808, 0, cl__2};
Point(6) = {39.654737, -3.353808, 1, cl__2};
Point(7) = {39.654737, 4.821397999999999, 1, cl__3};
Point(8) = {33.03242599999999, 0.3120709999999997, 1, cl__4};
Point(9) = {39.654737, 4.821397999999999, 0, cl__3};
Point(10) = {33.03242599999999, 0.3120709999999997, 0, cl__4};
Line(1) = {2, 1};
Line(2) = {1, 3};
Line(3) = {4, 3};
Line(4) = {2, 4};
Line(5) = {2, 5};
Line(6) = {5, 6};
Line(7) = {1, 6};
Line(8) = {3, 7};
Line(9) = {6, 7};
p10 = newp;
Point(p10 + 1) = {33.02031750759863, 0.465923983498137, 1};
Point(p10 + 2) = {32.98429018166325, 0.615988595933772, 1};
Point(p10 + 3) = {32.92523113452621, 0.7585697485128448, 1};
Point(p10 + 4) = {32.84459459593377, 0.8901566200591428, 1};
Point(p10 + 5) = {32.7443661050834, 1.007509105083407, 1};
Point(p10 + 6) = {32.62701362005914, 1.107737595933772, 1};
Point(p10 + 7) = {32.49542674851284, 1.188374134526211, 1};
Point(p10 + 8) = {32.35284559593377, 1.247433181663251, 1};
Point(p10 + 9) = {32.20278098349814, 1.283460507598637, 1};
Point(p10 + 10) = {32.048928, 1.295569, 1};
Point(p10 + 11) = {31.89507501650186, 1.283460507598637, 1};
Point(p10 + 12) = {31.74501040406622, 1.247433181663251, 1};
Point(p10 + 13) = {31.60242925148715, 1.188374134526212, 1};
Point(p10 + 14) = {31.47084237994085, 1.107737595933772, 1};
Point(p10 + 15) = {31.35348989491659, 1.007509105083407, 1};
Point(p10 + 16) = {31.25326140406623, 0.8901566200591429, 1};
Point(p10 + 17) = {31.17262486547379, 0.7585697485128449, 1};
Point(p10 + 18) = {31.11356581833675, 0.6159885959337721, 1};
Point(p10 + 19) = {31.07753849240136, 0.4659239834981371, 1};
Point(p10 + 20) = {31.06543, 0.3120710000000001, 1};
Point(p10 + 21) = {31.07753849240136, 0.1582180165018632, 1};
Point(p10 + 22) = {31.11356581833675, 0.008153404066227665, 1};
Point(p10 + 23) = {31.17262486547379, -0.1344277485128443, 1};
Point(p10 + 24) = {31.25326140406623, -0.2660146200591427, 1};
Point(p10 + 25) = {31.35348989491659, -0.3833671050834071, 1};
Point(p10 + 26) = {31.47084237994085, -0.483595595933772, 1};
Point(p10 + 27) = {31.60242925148715, -0.5642321345262113, 1};
Point(p10 + 28) = {31.74501040406622, -0.6232911816632509, 1};
Point(p10 + 29) = {31.89507501650186, -0.6593185075986367, 1};
Point(p10 + 30) = {32.048928, -0.671427, 1};
Point(p10 + 31) = {32.20278098349813, -0.6593185075986367, 1};
Point(p10 + 32) = {32.35284559593376, -0.623291181663251, 1};
Point(p10 + 33) = {32.49542674851284, -0.5642321345262115, 1};
Point(p10 + 34) = {32.62701362005914, -0.4835955959337722, 1};
Point(p10 + 35) = {32.7443661050834, -0.3833671050834073, 1};
Point(p10 + 36) = {32.84459459593377, -0.266014620059143, 1};
Point(p10 + 37) = {32.92523113452621, -0.1344277485128449, 1};
Point(p10 + 38) = {32.98429018166325, 0.008153404066227776, 1};
Point(p10 + 39) = {33.02031750759863, 0.1582180165018628, 1};
Spline(10) = {8, p10 + 1, p10 + 2, p10 + 3, p10 + 4, p10 + 5, p10 + 6, p10 + 7, p10 + 8, p10 + 9, p10 + 10, p10 + 11, p10 + 12, p10 + 13, p10 + 14, p10 + 15, p10 + 16, p10 + 17, p10 + 18, p10 + 19, p10 + 20, p10 + 21, p10 + 22, p10 + 23, p10 + 24, p10 + 25, p10 + 26, p10 + 27, p10 + 28, p10 + 29, p10 + 30, p10 + 31, p10 + 32, p10 + 33, p10 + 34, p10 + 35, p10 + 36, p10 + 37, p10 + 38, p10 + 39, 8};
Line(11) = {4, 9};
Line(12) = {9, 7};
Line(13) = {5, 9};
p14 = newp;
Point(p14 + 1) = {33.02031750759863, 0.465923983498137, 0};
Point(p14 + 2) = {32.98429018166325, 0.615988595933772, 0};
Point(p14 + 3) = {32.92523113452621, 0.7585697485128448, 0};
Point(p14 + 4) = {32.84459459593377, 0.8901566200591428, 0};
Point(p14 + 5) = {32.7443661050834, 1.007509105083407, 0};
Point(p14 + 6) = {32.62701362005914, 1.107737595933772, 0};
Point(p14 + 7) = {32.49542674851284, 1.188374134526211, 0};
Point(p14 + 8) = {32.35284559593377, 1.247433181663251, 0};
Point(p14 + 9) = {32.20278098349814, 1.283460507598637, 0};
Point(p14 + 10) = {32.048928, 1.295569, 0};
Point(p14 + 11) = {31.89507501650186, 1.283460507598637, 0};
Point(p14 + 12) = {31.74501040406622, 1.247433181663251, 0};
Point(p14 + 13) = {31.60242925148715, 1.188374134526212, 0};
Point(p14 + 14) = {31.47084237994085, 1.107737595933772, 0};
Point(p14 + 15) = {31.35348989491659, 1.007509105083407, 0};
Point(p14 + 16) = {31.25326140406623, 0.8901566200591429, 0};
Point(p14 + 17) = {31.17262486547379, 0.7585697485128449, 0};
Point(p14 + 18) = {31.11356581833675, 0.6159885959337721, 0};
Point(p14 + 19) = {31.07753849240136, 0.4659239834981371, 0};
Point(p14 + 20) = {31.06543, 0.3120710000000001, 0};
Point(p14 + 21) = {31.07753849240136, 0.1582180165018632, 0};
Point(p14 + 22) = {31.11356581833675, 0.008153404066227665, 0};
Point(p14 + 23) = {31.17262486547379, -0.1344277485128443, 0};
Point(p14 + 24) = {31.25326140406623, -0.2660146200591427, 0};
Point(p14 + 25) = {31.35348989491659, -0.3833671050834071, 0};
Point(p14 + 26) = {31.47084237994085, -0.483595595933772, 0};
Point(p14 + 27) = {31.60242925148715, -0.5642321345262113, 0};
Point(p14 + 28) = {31.74501040406622, -0.6232911816632509, 0};
Point(p14 + 29) = {31.89507501650186, -0.6593185075986367, 0};
Point(p14 + 30) = {32.048928, -0.671427, 0};
Point(p14 + 31) = {32.20278098349813, -0.6593185075986367, 0};
Point(p14 + 32) = {32.35284559593376, -0.623291181663251, 0};
Point(p14 + 33) = {32.49542674851284, -0.5642321345262115, 0};
Point(p14 + 34) = {32.62701362005914, -0.4835955959337722, 0};
Point(p14 + 35) = {32.7443661050834, -0.3833671050834073, 0};
Point(p14 + 36) = {32.84459459593377, -0.266014620059143, 0};
Point(p14 + 37) = {32.92523113452621, -0.1344277485128449, 0};
Point(p14 + 38) = {32.98429018166325, 0.008153404066227776, 0};
Point(p14 + 39) = {33.02031750759863, 0.1582180165018628, 0};
Spline(14) = {10, p14 + 1, p14 + 2, p14 + 3, p14 + 4, p14 + 5, p14 + 6, p14 + 7, p14 + 8, p14 + 9, p14 + 10, p14 + 11, p14 + 12, p14 + 13, p14 + 14, p14 + 15, p14 + 16, p14 + 17, p14 + 18, p14 + 19, p14 + 20, p14 + 21, p14 + 22, p14 + 23, p14 + 24, p14 + 25, p14 + 26, p14 + 27, p14 + 28, p14 + 29, p14 + 30, p14 + 31, p14 + 32, p14 + 33, p14 + 34, p14 + 35, p14 + 36, p14 + 37, p14 + 38, p14 + 39, 10};
Line(15) = {10, 8};
Curve Loop(1) = {-1, 4, 3, -2};
Plane Surface(1) = {1};
Curve Loop(2) = {-5, 1, 7, -6};
Plane Surface(2) = {2};
Curve Loop(3) = {-2, 7, 9, -8, -10};
Plane Surface(3) = {3};
Curve Loop(4) = {-11, 3, 8, -12};
Plane Surface(4) = {4};
Curve Loop(5) = {-4, 5, 13, -11, -14};
Plane Surface(5) = {5};
Curve Loop(6) = {-6, 13, 12, -9};
Plane Surface(6) = {6};
Curve Loop(7) = {-10, -15, 14, 15};
Surface(7) = {7};
Surface Loop(1) = {1, 2, 3, 4, 5, 6, 7};
Volume(1) = {1};
Physical Surface("INFLOW") = {1};
Physical Surface("OUTFLOW") = {6};
Physical Surface("OBSTACLE") = {7};
Physical Surface("WALL_Y") = {2, 4};
Physical Surface("WALL_Z") = {3, 5};
Physical Volume("FLUID") = {1};
