cl__1 = 3.941845;
cl__2 = 0.841513;
cl__3 = 0.950184;
cl__4 = 0.134254;
Point(1) = {0.720314, -3.939355, 1, cl__1};
Point(2) = {0.720314, -3.939355, 0, cl__1};
Point(3) = {0.720314, 4.915987, 1, cl__1};
Point(4) = {0.720314, 4.915987, 0, cl__1};
Point(5) = {39.168994, -3.939355, 0, cl__2};
Point(6) = {39.168994, -3.939355, 1, cl__2};
Point(7) = {39.168994, 4.915987, 1, cl__3};
Point(8) = {31.280928, -0.7757970000000003, 1, cl__4};
Point(9) = {39.168994, 4.915987, 0, cl__3};
Point(10) = {31.280928, -0.7757970000000003, 0, cl__4};
Line(1) = {2, 1};
Line(2) = {1, 3};
Line(3) = {4, 3};
Line(4) = {2, 4};
Line(5) = {2, 5};
Line(6) = {5, 6};
Line(7) = {1, 6};
Line(8) = {3, 7};
Line(9) = {6, 7};
p10 = newp;
Point(p10 + 1) = {31.2643990432243, -0.5657766911325632, 1};
Point(p10 + 2) = {31.21521917066948, -0.3609277792868862, 1};
Point(p10 + 3) = {31.13459935401647, -0.1662943245271701, 1};
Point(p10 + 4) = {31.02452472071312, 0.01333115153899844, 1};
Point(p10 + 5) = {30.88770567354809, 0.1735256735480935, 1};
Point(p10 + 6) = {30.727511151539, 0.3103447207131139, 1};
Point(p10 + 7) = {30.54788567547283, 0.4204193540164723, 1};
Point(p10 + 8) = {30.35325222071312, 0.5010391706694771, 1};
Point(p10 + 9) = {30.14840330886744, 0.5502190432242994, 1};
Point(p10 + 10) = {29.938383, 0.5667480000000001, 1};
Point(p10 + 11) = {29.72836269113256, 0.5502190432242992, 1};
Point(p10 + 12) = {29.52351377928689, 0.5010391706694771, 1};
Point(p10 + 13) = {29.32888032452717, 0.4204193540164726, 1};
Point(p10 + 14) = {29.149254848461, 0.3103447207131139, 1};
Point(p10 + 15) = {28.98906032645191, 0.1735256735480937, 1};
Point(p10 + 16) = {28.85224127928689, 0.01333115153899855, 1};
Point(p10 + 17) = {28.74216664598353, -0.16629432452717, 1};
Point(p10 + 18) = {28.66154682933053, -0.360927779286886, 1};
Point(p10 + 19) = {28.6123669567757, -0.565776691132563, 1};
Point(p10 + 20) = {28.595838, -0.7757969999999998, 1};
Point(p10 + 21) = {28.6123669567757, -0.9858173088674366, 1};
Point(p10 + 22) = {28.66154682933053, -1.190666220713114, 1};
Point(p10 + 23) = {28.74216664598353, -1.385299675472829, 1};
Point(p10 + 24) = {28.85224127928689, -1.564925151538998, 1};
Point(p10 + 25) = {28.98906032645191, -1.725119673548093, 1};
Point(p10 + 26) = {29.149254848461, -1.861938720713114, 1};
Point(p10 + 27) = {29.32888032452717, -1.972013354016472, 1};
Point(p10 + 28) = {29.52351377928689, -2.052633170669477, 1};
Point(p10 + 29) = {29.72836269113256, -2.101813043224299, 1};
Point(p10 + 30) = {29.938383, -2.118342, 1};
Point(p10 + 31) = {30.14840330886744, -2.101813043224299, 1};
Point(p10 + 32) = {30.35325222071312, -2.052633170669477, 1};
Point(p10 + 33) = {30.54788567547283, -1.972013354016473, 1};
Point(p10 + 34) = {30.727511151539, -1.861938720713114, 1};
Point(p10 + 35) = {30.88770567354809, -1.725119673548094, 1};
Point(p10 + 36) = {31.02452472071312, -1.564925151538999, 1};
Point(p10 + 37) = {31.13459935401647, -1.38529967547283, 1};
Point(p10 + 38) = {31.21521917066948, -1.190666220713114, 1};
Point(p10 + 39) = {31.2643990432243, -0.985817308867437, 1};
Spline(10) = {8, p10 + 1, p10 + 2, p10 + 3, p10 + 4, p10 + 5, p10 + 6, p10 + 7, p10 + 8, p10 + 9, p10 + 10, p10 + 11, p10 + 12, p10 + 13, p10 + 14, p10 + 15, p10 + 16, p10 + 17, p10 + 18, p10 + 19, p10 + 20, p10 + 21, p10 + 22, p10 + 23, p10 + 24, p10 + 25, p10 + 26, p10 + 27, p10 + 28, p10 + 29, p10 + 30, p10 + 31, p10 + 32, p10 + 33, p10 + 34, p10 + 35, p10 + 36, p10 + 37, p10 + 38, p10 + 39, 8};
Line(11) = {4, 9};
Line(12) = {9, 7};
Line(13) = {5, 9};
p14 = newp;
Point(p14 + 1) = {31.2643990432243, -0.5657766911325632, 0};
Point(p14 + 2) = {31.21521917066948, -0.3609277792868862, 0};
Point(p14 + 3) = {31.13459935401647, -0.1662943245271701, 0};
Point(p14 + 4) = {31.02452472071312, 0.01333115153899844, 0};
Point(p14 + 5) = {30.88770567354809, 0.1735256735480935, 0};
Point(p14 + 6) = {30.727511151539, 0.3103447207131139, 0};
Point(p14 + 7) = {30.54788567547283, 0.4204193540164723, 0};
Point(p14 + 8) = {30.35325222071312, 0.5010391706694771, 0};
Point(p14 + 9) = {30.14840330886744, 0.5502190432242994, 0};
Point(p14 + 10) = {29.938383, 0.5667480000000001, 0};
Point(p14 + 11) = {29.72836269113256, 0.5502190432242992, 0};
Point(p14 + 12) = {29.52351377928689, 0.5010391706694771, 0};
Point(p14 + 13) = {29.32888032452717, 0.4204193540164726, 0};
Point(p14 + 14) = {29.149254848461, 0.3103447207131139, 0};
Point(p14 + 15) = {28.98906032645191, 0.1735256735480937, 0};
Point(p14 + 16) = {28.85224127928689, 0.01333115153899855, 0};
Point(p14 + 17) = {28.74216664598353, -0.16629432452717, 0};
Point(p14 + 18) = {28.66154682933053, -0.360927779286886, 0};
Point(p14 + 19) = {28.6123669567757, -0.565776691132563, 0};
Point(p14 + 20) = {28.595838, -0.7757969999999998, 0};
Point(p14 + 21) = {28.6123669567757, -0.9858173088674366, 0};
Point(p14 + 22) = {28.66154682933053, -1.190666220713114, 0};
Point(p14 + 23) = {28.74216664598353, -1.385299675472829, 0};
Point(p14 + 24) = {28.85224127928689, -1.564925151538998, 0};
Point(p14 + 25) = {28.98906032645191, -1.725119673548093, 0};
Point(p14 + 26) = {29.149254848461, -1.861938720713114, 0};
Point(p14 + 27) = {29.32888032452717, -1.972013354016472, 0};
Point(p14 + 28) = {29.52351377928689, -2.052633170669477, 0};
Point(p14 + 29) = {29.72836269113256, -2.101813043224299, 0};
Point(p14 + 30) = {29.938383, -2.118342, 0};
Point(p14 + 31) = {30.14840330886744, -2.101813043224299, 0};
Point(p14 + 32) = {30.35325222071312, -2.052633170669477, 0};
Point(p14 + 33) = {30.54788567547283, -1.972013354016473, 0};
Point(p14 + 34) = {30.727511151539, -1.861938720713114, 0};
Point(p14 + 35) = {30.88770567354809, -1.725119673548094, 0};
Point(p14 + 36) = {31.02452472071312, -1.564925151538999, 0};
Point(p14 + 37) = {31.13459935401647, -1.38529967547283, 0};
Point(p14 + 38) = {31.21521917066948, -1.190666220713114, 0};
Point(p14 + 39) = {31.2643990432243, -0.985817308867437, 0};
Spline(14) = {10, p14 + 1, p14 + 2, p14 + 3, p14 + 4, p14 + 5, p14 + 6, p14 + 7, p14 + 8, p14 + 9, p14 + 10, p14 + 11, p14 + 12, p14 + 13, p14 + 14, p14 + 15, p14 + 16, p14 + 17, p14 + 18, p14 + 19, p14 + 20, p14 + 21, p14 + 22, p14 + 23, p14 + 24, p14 + 25, p14 + 26, p14 + 27, p14 + 28, p14 + 29, p14 + 30, p14 + 31, p14 + 32, p14 + 33, p14 + 34, p14 + 35, p14 + 36, p14 + 37, p14 + 38, p14 + 39, 10};
Line(15) = {10, 8};
Curve Loop(1) = {-1, 4, 3, -2};
Plane Surface(1) = {1};
Curve Loop(2) = {-5, 1, 7, -6};
Plane Surface(2) = {2};
Curve Loop(3) = {-2, 7, 9, -8, -10};
Plane Surface(3) = {3};
Curve Loop(4) = {-11, 3, 8, -12};
Plane Surface(4) = {4};
Curve Loop(5) = {-4, 5, 13, -11, -14};
Plane Surface(5) = {5};
Curve Loop(6) = {-6, 13, 12, -9};
Plane Surface(6) = {6};
Curve Loop(7) = {-10, -15, 14, 15};
Surface(7) = {7};
Surface Loop(1) = {1, 2, 3, 4, 5, 6, 7};
Volume(1) = {1};
Physical Surface("INFLOW") = {1};
Physical Surface("OUTFLOW") = {6};
Physical Surface("OBSTACLE") = {7};
Physical Surface("WALL_Y") = {2, 4};
Physical Surface("WALL_Z") = {3, 5};
Physical Volume("FLUID") = {1};
