cl__1 = 0.366141;
cl__2 = 1.141349;
cl__3 = 3.534229;
cl__4 = 0.056625;
cl__5 = 0.128237;
Point(1) = {0.107817, -3.031026, 1, cl__1};
Point(2) = {0.107817, -3.031026, 0, cl__1};
Point(3) = {0.107817, 4.617137, 1, cl__2};
Point(4) = {0.107817, 4.617137, 0, cl__2};
Point(5) = {35.134792, -3.031026, 0, cl__1};
Point(6) = {35.134792, -3.031026, 1, cl__1};
Point(7) = {35.134792, 4.617137, 1, cl__3};
Point(8) = {4.744554, -1.889001, 1, cl__4};
Point(9) = {24.737881, 1.946842, 1, cl__5};
Point(10) = {35.134792, 4.617137, 0, cl__3};
Point(11) = {4.744554, -1.889001, 0, cl__4};
Point(12) = {24.737881, 1.946842, 0, cl__5};
Line(1) = {2, 1};
Line(2) = {1, 3};
Line(3) = {4, 3};
Line(4) = {2, 4};
Line(5) = {2, 5};
Line(6) = {5, 6};
Line(7) = {1, 6};
Line(8) = {3, 7};
Line(9) = {6, 7};
p10 = newp;
Point(p10 + 1) = {4.737582559796975, -1.800420453474364, 1};
Point(p10 + 2) = {4.716839899182582, -1.714021053986169, 1};
Point(p10 + 3) = {4.682836771302091, -1.631930241493981, 1};
Point(p10 + 4) = {4.636410446013831, -1.556169364245144, 1};
Point(p10 + 5) = {4.57870409352654, -1.488603906473461, 1};
Point(p10 + 6) = {4.511138635754857, -1.430897553986169, 1};
Point(p10 + 7) = {4.43537775850602, -1.384471228697909, 1};
Point(p10 + 8) = {4.353286946013831, -1.350468100817418, 1};
Point(p10 + 9) = {4.266887546525636, -1.329725440203025, 1};
Point(p10 + 10) = {4.178307, -1.322754, 1};
Point(p10 + 11) = {4.089726453474364, -1.329725440203025, 1};
Point(p10 + 12) = {4.00332705398617, -1.350468100817418, 1};
Point(p10 + 13) = {3.921236241493981, -1.384471228697909, 1};
Point(p10 + 14) = {3.845475364245144, -1.430897553986169, 1};
Point(p10 + 15) = {3.777909906473461, -1.488603906473461, 1};
Point(p10 + 16) = {3.72020355398617, -1.556169364245144, 1};
Point(p10 + 17) = {3.67377722869791, -1.631930241493981, 1};
Point(p10 + 18) = {3.639774100817418, -1.714021053986169, 1};
Point(p10 + 19) = {3.619031440203025, -1.800420453474364, 1};
Point(p10 + 20) = {3.61206, -1.889001, 1};
Point(p10 + 21) = {3.619031440203025, -1.977581546525635, 1};
Point(p10 + 22) = {3.639774100817418, -2.063980946013831, 1};
Point(p10 + 23) = {3.673777228697909, -2.146071758506019, 1};
Point(p10 + 24) = {3.72020355398617, -2.221832635754856, 1};
Point(p10 + 25) = {3.777909906473461, -2.289398093526539, 1};
Point(p10 + 26) = {3.845475364245144, -2.347104446013831, 1};
Point(p10 + 27) = {3.921236241493981, -2.393530771302091, 1};
Point(p10 + 28) = {4.003327053986169, -2.427533899182582, 1};
Point(p10 + 29) = {4.089726453474364, -2.448276559796975, 1};
Point(p10 + 30) = {4.178307, -2.455248, 1};
Point(p10 + 31) = {4.266887546525636, -2.448276559796975, 1};
Point(p10 + 32) = {4.353286946013831, -2.427533899182582, 1};
Point(p10 + 33) = {4.43537775850602, -2.393530771302091, 1};
Point(p10 + 34) = {4.511138635754856, -2.347104446013831, 1};
Point(p10 + 35) = {4.57870409352654, -2.289398093526539, 1};
Point(p10 + 36) = {4.636410446013831, -2.221832635754856, 1};
Point(p10 + 37) = {4.682836771302091, -2.146071758506019, 1};
Point(p10 + 38) = {4.716839899182582, -2.063980946013831, 1};
Point(p10 + 39) = {4.737582559796975, -1.977581546525636, 1};
Spline(10) = {8, p10 + 1, p10 + 2, p10 + 3, p10 + 4, p10 + 5, p10 + 6, p10 + 7, p10 + 8, p10 + 9, p10 + 10, p10 + 11, p10 + 12, p10 + 13, p10 + 14, p10 + 15, p10 + 16, p10 + 17, p10 + 18, p10 + 19, p10 + 20, p10 + 21, p10 + 22, p10 + 23, p10 + 24, p10 + 25, p10 + 26, p10 + 27, p10 + 28, p10 + 29, p10 + 30, p10 + 31, p10 + 32, p10 + 33, p10 + 34, p10 + 35, p10 + 36, p10 + 37, p10 + 38, p10 + 39, 8};
p11 = newp;
Point(p11 + 1) = {24.72209288501733, 2.147449021368106, 1};
Point(p11 + 2) = {24.67511729585793, 2.343116432093596, 1};
Point(p11 + 3) = {24.59811092742996, 2.529026251141502, 1};
Point(p11 + 4) = {24.4929699320936, 2.700600761767551, 1};
Point(p11 + 5) = {24.36228323009697, 2.853615230096974, 1};
Point(p11 + 6) = {24.20926876176755, 2.984301932093596, 1};
Point(p11 + 7) = {24.0376942511415, 3.089442927429961, 1};
Point(p11 + 8) = {23.8517844320936, 3.166449295857932, 1};
Point(p11 + 9) = {23.65611702136811, 3.213424885017327, 1};
Point(p11 + 10) = {23.45551, 3.229213, 1};
Point(p11 + 11) = {23.25490297863189, 3.213424885017327, 1};
Point(p11 + 12) = {23.05923556790641, 3.166449295857932, 1};
Point(p11 + 13) = {22.8733257488585, 3.089442927429961, 1};
Point(p11 + 14) = {22.70175123823245, 2.984301932093596, 1};
Point(p11 + 15) = {22.54873676990303, 2.853615230096974, 1};
Point(p11 + 16) = {22.4180500679064, 2.700600761767551, 1};
Point(p11 + 17) = {22.31290907257004, 2.529026251141502, 1};
Point(p11 + 18) = {22.23590270414207, 2.343116432093596, 1};
Point(p11 + 19) = {22.18892711498267, 2.147449021368106, 1};
Point(p11 + 20) = {22.173139, 1.946842, 1};
Point(p11 + 21) = {22.18892711498267, 1.746234978631894, 1};
Point(p11 + 22) = {22.23590270414207, 1.550567567906404, 1};
Point(p11 + 23) = {22.31290907257004, 1.364657748858498, 1};
Point(p11 + 24) = {22.4180500679064, 1.193083238232449, 1};
Point(p11 + 25) = {22.54873676990303, 1.040068769903026, 1};
Point(p11 + 26) = {22.70175123823245, 0.9093820679064044, 1};
Point(p11 + 27) = {22.8733257488585, 0.8042410725700386, 1};
Point(p11 + 28) = {23.05923556790641, 0.7272347041420677, 1};
Point(p11 + 29) = {23.25490297863189, 0.6802591149826727, 1};
Point(p11 + 30) = {23.45551, 0.664471, 1};
Point(p11 + 31) = {23.65611702136811, 0.6802591149826727, 1};
Point(p11 + 32) = {23.8517844320936, 0.7272347041420675, 1};
Point(p11 + 33) = {24.0376942511415, 0.8042410725700384, 1};
Point(p11 + 34) = {24.20926876176755, 0.9093820679064042, 1};
Point(p11 + 35) = {24.36228323009697, 1.040068769903026, 1};
Point(p11 + 36) = {24.4929699320936, 1.193083238232449, 1};
Point(p11 + 37) = {24.59811092742996, 1.364657748858497, 1};
Point(p11 + 38) = {24.67511729585793, 1.550567567906404, 1};
Point(p11 + 39) = {24.72209288501733, 1.746234978631894, 1};
Spline(11) = {9, p11 + 1, p11 + 2, p11 + 3, p11 + 4, p11 + 5, p11 + 6, p11 + 7, p11 + 8, p11 + 9, p11 + 10, p11 + 11, p11 + 12, p11 + 13, p11 + 14, p11 + 15, p11 + 16, p11 + 17, p11 + 18, p11 + 19, p11 + 20, p11 + 21, p11 + 22, p11 + 23, p11 + 24, p11 + 25, p11 + 26, p11 + 27, p11 + 28, p11 + 29, p11 + 30, p11 + 31, p11 + 32, p11 + 33, p11 + 34, p11 + 35, p11 + 36, p11 + 37, p11 + 38, p11 + 39, 9};
Line(12) = {4, 10};
Line(13) = {10, 7};
Line(14) = {5, 10};
p15 = newp;
Point(p15 + 1) = {4.737582559796975, -1.800420453474364, 0};
Point(p15 + 2) = {4.716839899182582, -1.714021053986169, 0};
Point(p15 + 3) = {4.682836771302091, -1.631930241493981, 0};
Point(p15 + 4) = {4.636410446013831, -1.556169364245144, 0};
Point(p15 + 5) = {4.57870409352654, -1.488603906473461, 0};
Point(p15 + 6) = {4.511138635754857, -1.430897553986169, 0};
Point(p15 + 7) = {4.43537775850602, -1.384471228697909, 0};
Point(p15 + 8) = {4.353286946013831, -1.350468100817418, 0};
Point(p15 + 9) = {4.266887546525636, -1.329725440203025, 0};
Point(p15 + 10) = {4.178307, -1.322754, 0};
Point(p15 + 11) = {4.089726453474364, -1.329725440203025, 0};
Point(p15 + 12) = {4.00332705398617, -1.350468100817418, 0};
Point(p15 + 13) = {3.921236241493981, -1.384471228697909, 0};
Point(p15 + 14) = {3.845475364245144, -1.430897553986169, 0};
Point(p15 + 15) = {3.777909906473461, -1.488603906473461, 0};
Point(p15 + 16) = {3.72020355398617, -1.556169364245144, 0};
Point(p15 + 17) = {3.67377722869791, -1.631930241493981, 0};
Point(p15 + 18) = {3.639774100817418, -1.714021053986169, 0};
Point(p15 + 19) = {3.619031440203025, -1.800420453474364, 0};
Point(p15 + 20) = {3.61206, -1.889001, 0};
Point(p15 + 21) = {3.619031440203025, -1.977581546525635, 0};
Point(p15 + 22) = {3.639774100817418, -2.063980946013831, 0};
Point(p15 + 23) = {3.673777228697909, -2.146071758506019, 0};
Point(p15 + 24) = {3.72020355398617, -2.221832635754856, 0};
Point(p15 + 25) = {3.777909906473461, -2.289398093526539, 0};
Point(p15 + 26) = {3.845475364245144, -2.347104446013831, 0};
Point(p15 + 27) = {3.921236241493981, -2.393530771302091, 0};
Point(p15 + 28) = {4.003327053986169, -2.427533899182582, 0};
Point(p15 + 29) = {4.089726453474364, -2.448276559796975, 0};
Point(p15 + 30) = {4.178307, -2.455248, 0};
Point(p15 + 31) = {4.266887546525636, -2.448276559796975, 0};
Point(p15 + 32) = {4.353286946013831, -2.427533899182582, 0};
Point(p15 + 33) = {4.43537775850602, -2.393530771302091, 0};
Point(p15 + 34) = {4.511138635754856, -2.347104446013831, 0};
Point(p15 + 35) = {4.57870409352654, -2.289398093526539, 0};
Point(p15 + 36) = {4.636410446013831, -2.221832635754856, 0};
Point(p15 + 37) = {4.682836771302091, -2.146071758506019, 0};
Point(p15 + 38) = {4.716839899182582, -2.063980946013831, 0};
Point(p15 + 39) = {4.737582559796975, -1.977581546525636, 0};
Spline(15) = {11, p15 + 1, p15 + 2, p15 + 3, p15 + 4, p15 + 5, p15 + 6, p15 + 7, p15 + 8, p15 + 9, p15 + 10, p15 + 11, p15 + 12, p15 + 13, p15 + 14, p15 + 15, p15 + 16, p15 + 17, p15 + 18, p15 + 19, p15 + 20, p15 + 21, p15 + 22, p15 + 23, p15 + 24, p15 + 25, p15 + 26, p15 + 27, p15 + 28, p15 + 29, p15 + 30, p15 + 31, p15 + 32, p15 + 33, p15 + 34, p15 + 35, p15 + 36, p15 + 37, p15 + 38, p15 + 39, 11};
p16 = newp;
Point(p16 + 1) = {24.72209288501733, 2.147449021368106, 0};
Point(p16 + 2) = {24.67511729585793, 2.343116432093596, 0};
Point(p16 + 3) = {24.59811092742996, 2.529026251141502, 0};
Point(p16 + 4) = {24.4929699320936, 2.700600761767551, 0};
Point(p16 + 5) = {24.36228323009697, 2.853615230096974, 0};
Point(p16 + 6) = {24.20926876176755, 2.984301932093596, 0};
Point(p16 + 7) = {24.0376942511415, 3.089442927429961, 0};
Point(p16 + 8) = {23.8517844320936, 3.166449295857932, 0};
Point(p16 + 9) = {23.65611702136811, 3.213424885017327, 0};
Point(p16 + 10) = {23.45551, 3.229213, 0};
Point(p16 + 11) = {23.25490297863189, 3.213424885017327, 0};
Point(p16 + 12) = {23.05923556790641, 3.166449295857932, 0};
Point(p16 + 13) = {22.8733257488585, 3.089442927429961, 0};
Point(p16 + 14) = {22.70175123823245, 2.984301932093596, 0};
Point(p16 + 15) = {22.54873676990303, 2.853615230096974, 0};
Point(p16 + 16) = {22.4180500679064, 2.700600761767551, 0};
Point(p16 + 17) = {22.31290907257004, 2.529026251141502, 0};
Point(p16 + 18) = {22.23590270414207, 2.343116432093596, 0};
Point(p16 + 19) = {22.18892711498267, 2.147449021368106, 0};
Point(p16 + 20) = {22.173139, 1.946842, 0};
Point(p16 + 21) = {22.18892711498267, 1.746234978631894, 0};
Point(p16 + 22) = {22.23590270414207, 1.550567567906404, 0};
Point(p16 + 23) = {22.31290907257004, 1.364657748858498, 0};
Point(p16 + 24) = {22.4180500679064, 1.193083238232449, 0};
Point(p16 + 25) = {22.54873676990303, 1.040068769903026, 0};
Point(p16 + 26) = {22.70175123823245, 0.9093820679064044, 0};
Point(p16 + 27) = {22.8733257488585, 0.8042410725700386, 0};
Point(p16 + 28) = {23.05923556790641, 0.7272347041420677, 0};
Point(p16 + 29) = {23.25490297863189, 0.6802591149826727, 0};
Point(p16 + 30) = {23.45551, 0.664471, 0};
Point(p16 + 31) = {23.65611702136811, 0.6802591149826727, 0};
Point(p16 + 32) = {23.8517844320936, 0.7272347041420675, 0};
Point(p16 + 33) = {24.0376942511415, 0.8042410725700384, 0};
Point(p16 + 34) = {24.20926876176755, 0.9093820679064042, 0};
Point(p16 + 35) = {24.36228323009697, 1.040068769903026, 0};
Point(p16 + 36) = {24.4929699320936, 1.193083238232449, 0};
Point(p16 + 37) = {24.59811092742996, 1.364657748858497, 0};
Point(p16 + 38) = {24.67511729585793, 1.550567567906404, 0};
Point(p16 + 39) = {24.72209288501733, 1.746234978631894, 0};
Spline(16) = {12, p16 + 1, p16 + 2, p16 + 3, p16 + 4, p16 + 5, p16 + 6, p16 + 7, p16 + 8, p16 + 9, p16 + 10, p16 + 11, p16 + 12, p16 + 13, p16 + 14, p16 + 15, p16 + 16, p16 + 17, p16 + 18, p16 + 19, p16 + 20, p16 + 21, p16 + 22, p16 + 23, p16 + 24, p16 + 25, p16 + 26, p16 + 27, p16 + 28, p16 + 29, p16 + 30, p16 + 31, p16 + 32, p16 + 33, p16 + 34, p16 + 35, p16 + 36, p16 + 37, p16 + 38, p16 + 39, 12};
Line(17) = {11, 8};
Line(18) = {12, 9};
Curve Loop(1) = {-1, 4, 3, -2};
Plane Surface(1) = {1};
Curve Loop(2) = {-5, 1, 7, -6};
Plane Surface(2) = {2};
Curve Loop(3) = {-2, 7, 9, -8, -10, -11};
Plane Surface(3) = {3};
Curve Loop(4) = {-12, 3, 8, -13};
Plane Surface(4) = {4};
Curve Loop(5) = {-4, 5, 14, -12, -15, -16};
Plane Surface(5) = {5};
Curve Loop(6) = {-6, 14, 13, -9};
Plane Surface(6) = {6};
Curve Loop(7) = {-10, -17, 15, 17};
Surface(7) = {7};
Curve Loop(8) = {-11, -18, 16, 18};
Surface(8) = {8};
Surface Loop(1) = {1, 2, 3, 4, 5, 6, 7, 8};
Volume(1) = {1};
Physical Surface("INFLOW") = {1};
Physical Surface("OUTFLOW") = {6};
Physical Surface("OBSTACLE") = {7, 8};
Physical Surface("WALL_Y") = {2, 4};
Physical Surface("WALL_Z") = {3, 5};
Physical Volume("FLUID") = {1};
