cl__1 = 0.834851;
cl__2 = 0.74681;
cl__3 = 3.812588;
cl__4 = 0.080621;
Point(1) = {0.645903, -3.375495, 1, cl__1};
Point(2) = {0.645903, -3.375495, 0, cl__1};
Point(3) = {0.645903, 4.357138, 1, cl__2};
Point(4) = {0.645903, 4.357138, 0, cl__2};
Point(5) = {37.929329, -3.375495, 0, cl__3};
Point(6) = {37.929329, -3.375495, 1, cl__3};
Point(7) = {37.929329, 4.357138, 1, cl__3};
Point(8) = {9.211209, 1.48302, 1, cl__4};
Point(9) = {37.929329, 4.357138, 0, cl__3};
Point(10) = {9.211209, 1.48302, 0, cl__4};
Line(1) = {2, 1};
Line(2) = {1, 3};
Line(3) = {4, 3};
Line(4) = {2, 4};
Line(5) = {2, 5};
Line(6) = {5, 6};
Line(7) = {1, 6};
Line(8) = {3, 7};
Line(9) = {6, 7};
p10 = newp;
Point(p10 + 1) = {9.201283266317844, 1.609138404322224, 1};
Point(p10 + 2) = {9.171750469776251, 1.732151354967049, 1};
Point(p10 + 3) = {9.123337805839808, 1.849029864833021, 1};
Point(p10 + 4) = {9.05723735496705, 1.956895997109706, 1};
Point(p10 + 5) = {8.975076729633283, 2.053093729633281, 1};
Point(p10 + 6) = {8.878878997109707, 2.135254354967049, 1};
Point(p10 + 7) = {8.771012864833022, 2.201354805839807, 1};
Point(p10 + 8) = {8.65413435496705, 2.249767469776251, 1};
Point(p10 + 9) = {8.531121404322224, 2.279300266317843, 1};
Point(p10 + 10) = {8.405003000000001, 2.289226, 1};
Point(p10 + 11) = {8.278884595677777, 2.279300266317843, 1};
Point(p10 + 12) = {8.155871645032953, 2.249767469776251, 1};
Point(p10 + 13) = {8.038993135166979, 2.201354805839808, 1};
Point(p10 + 14) = {7.931127002890295, 2.135254354967049, 1};
Point(p10 + 15) = {7.834929270366719, 2.053093729633282, 1};
Point(p10 + 16) = {7.752768645032952, 1.956895997109706, 1};
Point(p10 + 17) = {7.686668194160194, 1.849029864833021, 1};
Point(p10 + 18) = {7.63825553022375, 1.732151354967049, 1};
Point(p10 + 19) = {7.608722733682157, 1.609138404322225, 1};
Point(p10 + 20) = {7.598797000000001, 1.48302, 1};
Point(p10 + 21) = {7.608722733682157, 1.356901595677776, 1};
Point(p10 + 22) = {7.63825553022375, 1.233888645032951, 1};
Point(p10 + 23) = {7.686668194160193, 1.117010135166979, 1};
Point(p10 + 24) = {7.752768645032952, 1.009144002890294, 1};
Point(p10 + 25) = {7.834929270366719, 0.9129462703667184, 1};
Point(p10 + 26) = {7.931127002890295, 0.8307856450329513, 1};
Point(p10 + 27) = {8.038993135166979, 0.7646851941601928, 1};
Point(p10 + 28) = {8.155871645032951, 0.7162725302237495, 1};
Point(p10 + 29) = {8.278884595677777, 0.6867397336821565, 1};
Point(p10 + 30) = {8.405003000000001, 0.676814, 1};
Point(p10 + 31) = {8.531121404322224, 0.6867397336821564, 1};
Point(p10 + 32) = {8.654134354967049, 0.7162725302237494, 1};
Point(p10 + 33) = {8.771012864833022, 0.7646851941601926, 1};
Point(p10 + 34) = {8.878878997109705, 0.830785645032951, 1};
Point(p10 + 35) = {8.975076729633283, 0.9129462703667182, 1};
Point(p10 + 36) = {9.05723735496705, 1.009144002890294, 1};
Point(p10 + 37) = {9.123337805839808, 1.117010135166979, 1};
Point(p10 + 38) = {9.171750469776251, 1.233888645032951, 1};
Point(p10 + 39) = {9.201283266317844, 1.356901595677775, 1};
Spline(10) = {8, p10 + 1, p10 + 2, p10 + 3, p10 + 4, p10 + 5, p10 + 6, p10 + 7, p10 + 8, p10 + 9, p10 + 10, p10 + 11, p10 + 12, p10 + 13, p10 + 14, p10 + 15, p10 + 16, p10 + 17, p10 + 18, p10 + 19, p10 + 20, p10 + 21, p10 + 22, p10 + 23, p10 + 24, p10 + 25, p10 + 26, p10 + 27, p10 + 28, p10 + 29, p10 + 30, p10 + 31, p10 + 32, p10 + 33, p10 + 34, p10 + 35, p10 + 36, p10 + 37, p10 + 38, p10 + 39, 8};
Line(11) = {4, 9};
Line(12) = {9, 7};
Line(13) = {5, 9};
p14 = newp;
Point(p14 + 1) = {9.201283266317844, 1.609138404322224, 0};
Point(p14 + 2) = {9.171750469776251, 1.732151354967049, 0};
Point(p14 + 3) = {9.123337805839808, 1.849029864833021, 0};
Point(p14 + 4) = {9.05723735496705, 1.956895997109706, 0};
Point(p14 + 5) = {8.975076729633283, 2.053093729633281, 0};
Point(p14 + 6) = {8.878878997109707, 2.135254354967049, 0};
Point(p14 + 7) = {8.771012864833022, 2.201354805839807, 0};
Point(p14 + 8) = {8.65413435496705, 2.249767469776251, 0};
Point(p14 + 9) = {8.531121404322224, 2.279300266317843, 0};
Point(p14 + 10) = {8.405003000000001, 2.289226, 0};
Point(p14 + 11) = {8.278884595677777, 2.279300266317843, 0};
Point(p14 + 12) = {8.155871645032953, 2.249767469776251, 0};
Point(p14 + 13) = {8.038993135166979, 2.201354805839808, 0};
Point(p14 + 14) = {7.931127002890295, 2.135254354967049, 0};
Point(p14 + 15) = {7.834929270366719, 2.053093729633282, 0};
Point(p14 + 16) = {7.752768645032952, 1.956895997109706, 0};
Point(p14 + 17) = {7.686668194160194, 1.849029864833021, 0};
Point(p14 + 18) = {7.63825553022375, 1.732151354967049, 0};
Point(p14 + 19) = {7.608722733682157, 1.609138404322225, 0};
Point(p14 + 20) = {7.598797000000001, 1.48302, 0};
Point(p14 + 21) = {7.608722733682157, 1.356901595677776, 0};
Point(p14 + 22) = {7.63825553022375, 1.233888645032951, 0};
Point(p14 + 23) = {7.686668194160193, 1.117010135166979, 0};
Point(p14 + 24) = {7.752768645032952, 1.009144002890294, 0};
Point(p14 + 25) = {7.834929270366719, 0.9129462703667184, 0};
Point(p14 + 26) = {7.931127002890295, 0.8307856450329513, 0};
Point(p14 + 27) = {8.038993135166979, 0.7646851941601928, 0};
Point(p14 + 28) = {8.155871645032951, 0.7162725302237495, 0};
Point(p14 + 29) = {8.278884595677777, 0.6867397336821565, 0};
Point(p14 + 30) = {8.405003000000001, 0.676814, 0};
Point(p14 + 31) = {8.531121404322224, 0.6867397336821564, 0};
Point(p14 + 32) = {8.654134354967049, 0.7162725302237494, 0};
Point(p14 + 33) = {8.771012864833022, 0.7646851941601926, 0};
Point(p14 + 34) = {8.878878997109705, 0.830785645032951, 0};
Point(p14 + 35) = {8.975076729633283, 0.9129462703667182, 0};
Point(p14 + 36) = {9.05723735496705, 1.009144002890294, 0};
Point(p14 + 37) = {9.123337805839808, 1.117010135166979, 0};
Point(p14 + 38) = {9.171750469776251, 1.233888645032951, 0};
Point(p14 + 39) = {9.201283266317844, 1.356901595677775, 0};
Spline(14) = {10, p14 + 1, p14 + 2, p14 + 3, p14 + 4, p14 + 5, p14 + 6, p14 + 7, p14 + 8, p14 + 9, p14 + 10, p14 + 11, p14 + 12, p14 + 13, p14 + 14, p14 + 15, p14 + 16, p14 + 17, p14 + 18, p14 + 19, p14 + 20, p14 + 21, p14 + 22, p14 + 23, p14 + 24, p14 + 25, p14 + 26, p14 + 27, p14 + 28, p14 + 29, p14 + 30, p14 + 31, p14 + 32, p14 + 33, p14 + 34, p14 + 35, p14 + 36, p14 + 37, p14 + 38, p14 + 39, 10};
Line(15) = {10, 8};
Curve Loop(1) = {-1, 4, 3, -2};
Plane Surface(1) = {1};
Curve Loop(2) = {-5, 1, 7, -6};
Plane Surface(2) = {2};
Curve Loop(3) = {-2, 7, 9, -8, -10};
Plane Surface(3) = {3};
Curve Loop(4) = {-11, 3, 8, -12};
Plane Surface(4) = {4};
Curve Loop(5) = {-4, 5, 13, -11, -14};
Plane Surface(5) = {5};
Curve Loop(6) = {-6, 13, 12, -9};
Plane Surface(6) = {6};
Curve Loop(7) = {-10, -15, 14, 15};
Surface(7) = {7};
Surface Loop(1) = {1, 2, 3, 4, 5, 6, 7};
Volume(1) = {1};
Physical Surface("INFLOW") = {1};
Physical Surface("OUTFLOW") = {6};
Physical Surface("OBSTACLE") = {7};
Physical Surface("WALL_Y") = {2, 4};
Physical Surface("WALL_Z") = {3, 5};
Physical Volume("FLUID") = {1};
