cl__1 = 0.691921;
cl__2 = 1.556757;
cl__3 = 3.47069;
cl__4 = 0.098303;
cl__5 = 0.07038;
Point(1) = {0.6937950000000001, -3.667157, 1, cl__1};
Point(2) = {0.6937950000000001, -3.667157, 0, cl__1};
Point(3) = {0.6937950000000001, 3.889713, 1, cl__2};
Point(4) = {0.6937950000000001, 3.889713, 0, cl__2};
Point(5) = {34.500615, -3.667157, 0, cl__1};
Point(6) = {34.500615, -3.667157, 1, cl__1};
Point(7) = {34.500615, 3.889713, 1, cl__3};
Point(8) = {19.036021, -1.82379, 1, cl__4};
Point(9) = {7.914759, 0.2872019999999998, 1, cl__5};
Point(10) = {34.500615, 3.889713, 0, cl__3};
Point(11) = {19.036021, -1.82379, 0, cl__4};
Point(12) = {7.914759, 0.2872019999999998, 0, cl__5};
Line(1) = {2, 1};
Line(2) = {1, 3};
Line(3) = {4, 3};
Line(4) = {2, 4};
Line(5) = {2, 5};
Line(6) = {5, 6};
Line(7) = {1, 6};
Line(8) = {3, 7};
Line(9) = {6, 7};
p10 = newp;
Point(p10 + 1) = {19.02391831870187, -1.670010853569362, 1};
Point(p10 + 2) = {18.98790828298756, -1.520018260087573, 1};
Point(p10 + 3) = {18.92887757944679, -1.377505535003032, 1};
Point(p10 + 4) = {18.84827973991243, -1.24598181457994, 1};
Point(p10 + 5) = {18.74809935068269, -1.128685649317313, 1};
Point(p10 + 6) = {18.63080318542006, -1.028505260087573, 1};
Point(p10 + 7) = {18.49927946499697, -0.9479074205532056, 1};
Point(p10 + 8) = {18.35676673991243, -0.8888767170124404, 1};
Point(p10 + 9) = {18.20677414643064, -0.8528666812981242, 1};
Point(p10 + 10) = {18.052995, -0.8407640000000001, 1};
Point(p10 + 11) = {17.89921585356936, -0.8528666812981243, 1};
Point(p10 + 12) = {17.74922326008757, -0.8888767170124403, 1};
Point(p10 + 13) = {17.60671053500303, -0.9479074205532055, 1};
Point(p10 + 14) = {17.47518681457994, -1.028505260087573, 1};
Point(p10 + 15) = {17.35789064931731, -1.128685649317313, 1};
Point(p10 + 16) = {17.25771026008757, -1.245981814579939, 1};
Point(p10 + 17) = {17.1771124205532, -1.377505535003032, 1};
Point(p10 + 18) = {17.11808171701244, -1.520018260087573, 1};
Point(p10 + 19) = {17.08207168129812, -1.670010853569362, 1};
Point(p10 + 20) = {17.069969, -1.82379, 1};
Point(p10 + 21) = {17.08207168129812, -1.977569146430638, 1};
Point(p10 + 22) = {17.11808171701244, -2.127561739912427, 1};
Point(p10 + 23) = {17.1771124205532, -2.270074464996967, 1};
Point(p10 + 24) = {17.25771026008757, -2.401598185420061, 1};
Point(p10 + 25) = {17.35789064931731, -2.518894350682687, 1};
Point(p10 + 26) = {17.47518681457994, -2.619074739912427, 1};
Point(p10 + 27) = {17.60671053500303, -2.699672579446794, 1};
Point(p10 + 28) = {17.74922326008757, -2.75870328298756, 1};
Point(p10 + 29) = {17.89921585356936, -2.794713318701876, 1};
Point(p10 + 30) = {18.052995, -2.806816, 1};
Point(p10 + 31) = {18.20677414643064, -2.794713318701876, 1};
Point(p10 + 32) = {18.35676673991243, -2.75870328298756, 1};
Point(p10 + 33) = {18.49927946499697, -2.699672579446795, 1};
Point(p10 + 34) = {18.63080318542006, -2.619074739912427, 1};
Point(p10 + 35) = {18.74809935068269, -2.518894350682687, 1};
Point(p10 + 36) = {18.84827973991243, -2.401598185420061, 1};
Point(p10 + 37) = {18.92887757944679, -2.270074464996968, 1};
Point(p10 + 38) = {18.98790828298756, -2.127561739912427, 1};
Point(p10 + 39) = {19.02391831870187, -1.977569146430638, 1};
Spline(10) = {8, p10 + 1, p10 + 2, p10 + 3, p10 + 4, p10 + 5, p10 + 6, p10 + 7, p10 + 8, p10 + 9, p10 + 10, p10 + 11, p10 + 12, p10 + 13, p10 + 14, p10 + 15, p10 + 16, p10 + 17, p10 + 18, p10 + 19, p10 + 20, p10 + 21, p10 + 22, p10 + 23, p10 + 24, p10 + 25, p10 + 26, p10 + 27, p10 + 28, p10 + 29, p10 + 30, p10 + 31, p10 + 32, p10 + 33, p10 + 34, p10 + 35, p10 + 36, p10 + 37, p10 + 38, p10 + 39, 8};
p11 = newp;
Point(p11 + 1) = {7.906094041799198, 0.3973007329297795, 1};
Point(p11 + 2) = {7.880312527225045, 0.5046884696580823, 1};
Point(p11 + 3) = {7.838049282730298, 0.6067209677071927, 1};
Point(p11 + 4) = {7.780344969658082, 0.7008858483486948, 1};
Point(p11 + 5) = {7.708620459705873, 0.7848644597058734, 1};
Point(p11 + 6) = {7.624641848348695, 0.8565889696580824, 1};
Point(p11 + 7) = {7.530476967707193, 0.9142932827302974, 1};
Point(p11 + 8) = {7.428444469658082, 0.9565565272250454, 1};
Point(p11 + 9) = {7.32105673292978, 0.9823380417991985, 1};
Point(p11 + 10) = {7.210958, 0.9910030000000001, 1};
Point(p11 + 11) = {7.10085926707022, 0.9823380417991985, 1};
Point(p11 + 12) = {6.993471530341917, 0.9565565272250454, 1};
Point(p11 + 13) = {6.891439032292807, 0.9142932827302976, 1};
Point(p11 + 14) = {6.797274151651305, 0.8565889696580824, 1};
Point(p11 + 15) = {6.713295540294126, 0.7848644597058734, 1};
Point(p11 + 16) = {6.641571030341917, 0.7008858483486951, 1};
Point(p11 + 17) = {6.583866717269702, 0.6067209677071929, 1};
Point(p11 + 18) = {6.541603472774955, 0.5046884696580825, 1};
Point(p11 + 19) = {6.515821958200801, 0.3973007329297796, 1};
Point(p11 + 20) = {6.507156999999999, 0.2872020000000001, 1};
Point(p11 + 21) = {6.515821958200801, 0.1771032670702206, 1};
Point(p11 + 22) = {6.541603472774955, 0.06971553034191744, 1};
Point(p11 + 23) = {6.583866717269702, -0.03231696770719239, 1};
Point(p11 + 24) = {6.641571030341917, -0.1264818483486948, 1};
Point(p11 + 25) = {6.713295540294126, -0.2104604597058733, 1};
Point(p11 + 26) = {6.797274151651305, -0.2821849696580823, 1};
Point(p11 + 27) = {6.891439032292807, -0.3398892827302974, 1};
Point(p11 + 28) = {6.993471530341917, -0.3821525272250454, 1};
Point(p11 + 29) = {7.10085926707022, -0.4079340417991985, 1};
Point(p11 + 30) = {7.210958, -0.416599, 1};
Point(p11 + 31) = {7.32105673292978, -0.4079340417991985, 1};
Point(p11 + 32) = {7.428444469658082, -0.3821525272250454, 1};
Point(p11 + 33) = {7.530476967707193, -0.3398892827302976, 1};
Point(p11 + 34) = {7.624641848348695, -0.2821849696580824, 1};
Point(p11 + 35) = {7.708620459705873, -0.2104604597058735, 1};
Point(p11 + 36) = {7.780344969658082, -0.126481848348695, 1};
Point(p11 + 37) = {7.838049282730298, -0.03231696770719289, 1};
Point(p11 + 38) = {7.880312527225045, 0.06971553034191749, 1};
Point(p11 + 39) = {7.906094041799198, 0.1771032670702203, 1};
Spline(11) = {9, p11 + 1, p11 + 2, p11 + 3, p11 + 4, p11 + 5, p11 + 6, p11 + 7, p11 + 8, p11 + 9, p11 + 10, p11 + 11, p11 + 12, p11 + 13, p11 + 14, p11 + 15, p11 + 16, p11 + 17, p11 + 18, p11 + 19, p11 + 20, p11 + 21, p11 + 22, p11 + 23, p11 + 24, p11 + 25, p11 + 26, p11 + 27, p11 + 28, p11 + 29, p11 + 30, p11 + 31, p11 + 32, p11 + 33, p11 + 34, p11 + 35, p11 + 36, p11 + 37, p11 + 38, p11 + 39, 9};
Line(12) = {4, 10};
Line(13) = {10, 7};
Line(14) = {5, 10};
p15 = newp;
Point(p15 + 1) = {19.02391831870187, -1.670010853569362, 0};
Point(p15 + 2) = {18.98790828298756, -1.520018260087573, 0};
Point(p15 + 3) = {18.92887757944679, -1.377505535003032, 0};
Point(p15 + 4) = {18.84827973991243, -1.24598181457994, 0};
Point(p15 + 5) = {18.74809935068269, -1.128685649317313, 0};
Point(p15 + 6) = {18.63080318542006, -1.028505260087573, 0};
Point(p15 + 7) = {18.49927946499697, -0.9479074205532056, 0};
Point(p15 + 8) = {18.35676673991243, -0.8888767170124404, 0};
Point(p15 + 9) = {18.20677414643064, -0.8528666812981242, 0};
Point(p15 + 10) = {18.052995, -0.8407640000000001, 0};
Point(p15 + 11) = {17.89921585356936, -0.8528666812981243, 0};
Point(p15 + 12) = {17.74922326008757, -0.8888767170124403, 0};
Point(p15 + 13) = {17.60671053500303, -0.9479074205532055, 0};
Point(p15 + 14) = {17.47518681457994, -1.028505260087573, 0};
Point(p15 + 15) = {17.35789064931731, -1.128685649317313, 0};
Point(p15 + 16) = {17.25771026008757, -1.245981814579939, 0};
Point(p15 + 17) = {17.1771124205532, -1.377505535003032, 0};
Point(p15 + 18) = {17.11808171701244, -1.520018260087573, 0};
Point(p15 + 19) = {17.08207168129812, -1.670010853569362, 0};
Point(p15 + 20) = {17.069969, -1.82379, 0};
Point(p15 + 21) = {17.08207168129812, -1.977569146430638, 0};
Point(p15 + 22) = {17.11808171701244, -2.127561739912427, 0};
Point(p15 + 23) = {17.1771124205532, -2.270074464996967, 0};
Point(p15 + 24) = {17.25771026008757, -2.401598185420061, 0};
Point(p15 + 25) = {17.35789064931731, -2.518894350682687, 0};
Point(p15 + 26) = {17.47518681457994, -2.619074739912427, 0};
Point(p15 + 27) = {17.60671053500303, -2.699672579446794, 0};
Point(p15 + 28) = {17.74922326008757, -2.75870328298756, 0};
Point(p15 + 29) = {17.89921585356936, -2.794713318701876, 0};
Point(p15 + 30) = {18.052995, -2.806816, 0};
Point(p15 + 31) = {18.20677414643064, -2.794713318701876, 0};
Point(p15 + 32) = {18.35676673991243, -2.75870328298756, 0};
Point(p15 + 33) = {18.49927946499697, -2.699672579446795, 0};
Point(p15 + 34) = {18.63080318542006, -2.619074739912427, 0};
Point(p15 + 35) = {18.74809935068269, -2.518894350682687, 0};
Point(p15 + 36) = {18.84827973991243, -2.401598185420061, 0};
Point(p15 + 37) = {18.92887757944679, -2.270074464996968, 0};
Point(p15 + 38) = {18.98790828298756, -2.127561739912427, 0};
Point(p15 + 39) = {19.02391831870187, -1.977569146430638, 0};
Spline(15) = {11, p15 + 1, p15 + 2, p15 + 3, p15 + 4, p15 + 5, p15 + 6, p15 + 7, p15 + 8, p15 + 9, p15 + 10, p15 + 11, p15 + 12, p15 + 13, p15 + 14, p15 + 15, p15 + 16, p15 + 17, p15 + 18, p15 + 19, p15 + 20, p15 + 21, p15 + 22, p15 + 23, p15 + 24, p15 + 25, p15 + 26, p15 + 27, p15 + 28, p15 + 29, p15 + 30, p15 + 31, p15 + 32, p15 + 33, p15 + 34, p15 + 35, p15 + 36, p15 + 37, p15 + 38, p15 + 39, 11};
p16 = newp;
Point(p16 + 1) = {7.906094041799198, 0.3973007329297795, 0};
Point(p16 + 2) = {7.880312527225045, 0.5046884696580823, 0};
Point(p16 + 3) = {7.838049282730298, 0.6067209677071927, 0};
Point(p16 + 4) = {7.780344969658082, 0.7008858483486948, 0};
Point(p16 + 5) = {7.708620459705873, 0.7848644597058734, 0};
Point(p16 + 6) = {7.624641848348695, 0.8565889696580824, 0};
Point(p16 + 7) = {7.530476967707193, 0.9142932827302974, 0};
Point(p16 + 8) = {7.428444469658082, 0.9565565272250454, 0};
Point(p16 + 9) = {7.32105673292978, 0.9823380417991985, 0};
Point(p16 + 10) = {7.210958, 0.9910030000000001, 0};
Point(p16 + 11) = {7.10085926707022, 0.9823380417991985, 0};
Point(p16 + 12) = {6.993471530341917, 0.9565565272250454, 0};
Point(p16 + 13) = {6.891439032292807, 0.9142932827302976, 0};
Point(p16 + 14) = {6.797274151651305, 0.8565889696580824, 0};
Point(p16 + 15) = {6.713295540294126, 0.7848644597058734, 0};
Point(p16 + 16) = {6.641571030341917, 0.7008858483486951, 0};
Point(p16 + 17) = {6.583866717269702, 0.6067209677071929, 0};
Point(p16 + 18) = {6.541603472774955, 0.5046884696580825, 0};
Point(p16 + 19) = {6.515821958200801, 0.3973007329297796, 0};
Point(p16 + 20) = {6.507156999999999, 0.2872020000000001, 0};
Point(p16 + 21) = {6.515821958200801, 0.1771032670702206, 0};
Point(p16 + 22) = {6.541603472774955, 0.06971553034191744, 0};
Point(p16 + 23) = {6.583866717269702, -0.03231696770719239, 0};
Point(p16 + 24) = {6.641571030341917, -0.1264818483486948, 0};
Point(p16 + 25) = {6.713295540294126, -0.2104604597058733, 0};
Point(p16 + 26) = {6.797274151651305, -0.2821849696580823, 0};
Point(p16 + 27) = {6.891439032292807, -0.3398892827302974, 0};
Point(p16 + 28) = {6.993471530341917, -0.3821525272250454, 0};
Point(p16 + 29) = {7.10085926707022, -0.4079340417991985, 0};
Point(p16 + 30) = {7.210958, -0.416599, 0};
Point(p16 + 31) = {7.32105673292978, -0.4079340417991985, 0};
Point(p16 + 32) = {7.428444469658082, -0.3821525272250454, 0};
Point(p16 + 33) = {7.530476967707193, -0.3398892827302976, 0};
Point(p16 + 34) = {7.624641848348695, -0.2821849696580824, 0};
Point(p16 + 35) = {7.708620459705873, -0.2104604597058735, 0};
Point(p16 + 36) = {7.780344969658082, -0.126481848348695, 0};
Point(p16 + 37) = {7.838049282730298, -0.03231696770719289, 0};
Point(p16 + 38) = {7.880312527225045, 0.06971553034191749, 0};
Point(p16 + 39) = {7.906094041799198, 0.1771032670702203, 0};
Spline(16) = {12, p16 + 1, p16 + 2, p16 + 3, p16 + 4, p16 + 5, p16 + 6, p16 + 7, p16 + 8, p16 + 9, p16 + 10, p16 + 11, p16 + 12, p16 + 13, p16 + 14, p16 + 15, p16 + 16, p16 + 17, p16 + 18, p16 + 19, p16 + 20, p16 + 21, p16 + 22, p16 + 23, p16 + 24, p16 + 25, p16 + 26, p16 + 27, p16 + 28, p16 + 29, p16 + 30, p16 + 31, p16 + 32, p16 + 33, p16 + 34, p16 + 35, p16 + 36, p16 + 37, p16 + 38, p16 + 39, 12};
Line(17) = {11, 8};
Line(18) = {12, 9};
Curve Loop(1) = {-1, 4, 3, -2};
Plane Surface(1) = {1};
Curve Loop(2) = {-5, 1, 7, -6};
Plane Surface(2) = {2};
Curve Loop(3) = {-2, 7, 9, -8, -10, -11};
Plane Surface(3) = {3};
Curve Loop(4) = {-12, 3, 8, -13};
Plane Surface(4) = {4};
Curve Loop(5) = {-4, 5, 14, -12, -15, -16};
Plane Surface(5) = {5};
Curve Loop(6) = {-6, 14, 13, -9};
Plane Surface(6) = {6};
Curve Loop(7) = {-10, -17, 15, 17};
Surface(7) = {7};
Curve Loop(8) = {-11, -18, 16, 18};
Surface(8) = {8};
Surface Loop(1) = {1, 2, 3, 4, 5, 6, 7, 8};
Volume(1) = {1};
Physical Surface("INFLOW") = {1};
Physical Surface("OUTFLOW") = {6};
Physical Surface("OBSTACLE") = {7, 8};
Physical Surface("WALL_Y") = {2, 4};
Physical Surface("WALL_Z") = {3, 5};
Physical Volume("FLUID") = {1};
