cl__1 = 0.69167;
cl__2 = 0.305061;
cl__3 = 3.083712;
cl__4 = 0.137848;
cl__5 = 0.068287;
Point(1) = {0.094998, -4.056794, 1, cl__1};
Point(2) = {0.094998, -4.056794, 0, cl__1};
Point(3) = {0.094998, 5.573202999999999, 1, cl__2};
Point(4) = {0.094998, 5.573202999999999, 0, cl__2};
Point(5) = {30.45889, -4.056794, 0, cl__3};
Point(6) = {30.45889, -4.056794, 1, cl__3};
Point(7) = {30.45889, 5.573202999999999, 1, cl__3};
Point(8) = {14.710775, 1.173001, 1, cl__4};
Point(9) = {3.514063, 3.033105, 1, cl__5};
Point(10) = {30.45889, 5.573202999999999, 0, cl__3};
Point(11) = {14.710775, 1.173001, 0, cl__4};
Point(12) = {3.514063, 3.033105, 0, cl__5};
Line(1) = {2, 1};
Line(2) = {1, 3};
Line(3) = {4, 3};
Line(4) = {2, 4};
Line(5) = {2, 5};
Line(6) = {5, 6};
Line(7) = {1, 6};
Line(8) = {3, 7};
Line(9) = {6, 7};
p10 = newp;
Point(p10 + 1) = {14.69380367299022, 1.388642155630797, 1};
Point(p10 + 2) = {14.64330758235648, 1.598973510338, 1};
Point(p10 + 3) = {14.56053010943709, 1.798816008118971, 1};
Point(p10 + 4) = {14.447509510338, 1.983248863439119, 1};
Point(p10 + 5) = {14.30702872730291, 2.147730727302907, 1};
Point(p10 + 6) = {14.14254686343912, 2.288211510338, 1};
Point(p10 + 7) = {13.95811400811897, 2.401232109437085, 1};
Point(p10 + 8) = {13.758271510338, 2.484009582356478, 1};
Point(p10 + 9) = {13.5479401556308, 2.534505672990223, 1};
Point(p10 + 10) = {13.332299, 2.551477, 1};
Point(p10 + 11) = {13.1166578443692, 2.534505672990223, 1};
Point(p10 + 12) = {12.906326489662, 2.484009582356478, 1};
Point(p10 + 13) = {12.70648399188103, 2.401232109437085, 1};
Point(p10 + 14) = {12.52205113656088, 2.288211510338, 1};
Point(p10 + 15) = {12.35756927269709, 2.147730727302907, 1};
Point(p10 + 16) = {12.217088489662, 1.983248863439119, 1};
Point(p10 + 17) = {12.10406789056292, 1.798816008118972, 1};
Point(p10 + 18) = {12.02129041764352, 1.598973510338, 1};
Point(p10 + 19) = {11.97079432700978, 1.388642155630798, 1};
Point(p10 + 20) = {11.953823, 1.173001, 1};
Point(p10 + 21) = {11.97079432700978, 0.9573598443692029, 1};
Point(p10 + 22) = {12.02129041764352, 0.7470284896619995, 1};
Point(p10 + 23) = {12.10406789056292, 0.5471859918810292, 1};
Point(p10 + 24) = {12.217088489662, 0.3627531365608809, 1};
Point(p10 + 25) = {12.35756927269709, 0.1982712726970928, 1};
Point(p10 + 26) = {12.52205113656088, 0.05779048966200007, 1};
Point(p10 + 27) = {12.70648399188103, -0.05523010943708462, 1};
Point(p10 + 28) = {12.906326489662, -0.1380075823564781, 1};
Point(p10 + 29) = {13.1166578443692, -0.188503672990223, 1};
Point(p10 + 30) = {13.332299, -0.2054750000000001, 1};
Point(p10 + 31) = {13.5479401556308, -0.1885036729902232, 1};
Point(p10 + 32) = {13.758271510338, -0.1380075823564784, 1};
Point(p10 + 33) = {13.95811400811897, -0.05523010943708462, 1};
Point(p10 + 34) = {14.14254686343912, 0.05779048966199962, 1};
Point(p10 + 35) = {14.30702872730291, 0.1982712726970924, 1};
Point(p10 + 36) = {14.447509510338, 0.3627531365608805, 1};
Point(p10 + 37) = {14.56053010943709, 0.5471859918810282, 1};
Point(p10 + 38) = {14.64330758235648, 0.7470284896619996, 1};
Point(p10 + 39) = {14.69380367299022, 0.9573598443692024, 1};
Spline(10) = {8, p10 + 1, p10 + 2, p10 + 3, p10 + 4, p10 + 5, p10 + 6, p10 + 7, p10 + 8, p10 + 9, p10 + 10, p10 + 11, p10 + 12, p10 + 13, p10 + 14, p10 + 15, p10 + 16, p10 + 17, p10 + 18, p10 + 19, p10 + 20, p10 + 21, p10 + 22, p10 + 23, p10 + 24, p10 + 25, p10 + 26, p10 + 27, p10 + 28, p10 + 29, p10 + 30, p10 + 31, p10 + 32, p10 + 33, p10 + 34, p10 + 35, p10 + 36, p10 + 37, p10 + 38, p10 + 39, 8};
p11 = newp;
Point(p11 + 1) = {3.505655749453861, 3.139929246707557, 1};
Point(p11 + 2) = {3.480641012225955, 3.244123125931826, 1};
Point(p11 + 3) = {3.439634734165987, 3.343121038566645, 1};
Point(p11 + 4) = {3.383646625931826, 3.434485327447709, 1};
Point(p11 + 5) = {3.314055300562076, 3.515966300562076, 1};
Point(p11 + 6) = {3.232574327447709, 3.585557625931826, 1};
Point(p11 + 7) = {3.141210038566645, 3.641545734165986, 1};
Point(p11 + 8) = {3.042212125931826, 3.682552012225955, 1};
Point(p11 + 9) = {2.938018246707558, 3.707566749453861, 1};
Point(p11 + 10) = {2.831194, 3.715974, 1};
Point(p11 + 11) = {2.724369753292442, 3.707566749453861, 1};
Point(p11 + 12) = {2.620175874068174, 3.682552012225955, 1};
Point(p11 + 13) = {2.521177961433355, 3.641545734165986, 1};
Point(p11 + 14) = {2.429813672552291, 3.585557625931826, 1};
Point(p11 + 15) = {2.348332699437924, 3.515966300562076, 1};
Point(p11 + 16) = {2.278741374068174, 3.434485327447709, 1};
Point(p11 + 17) = {2.222753265834013, 3.343121038566645, 1};
Point(p11 + 18) = {2.181746987774045, 3.244123125931826, 1};
Point(p11 + 19) = {2.156732250546139, 3.139929246707557, 1};
Point(p11 + 20) = {2.148325, 3.033105, 1};
Point(p11 + 21) = {2.156732250546139, 2.926280753292442, 1};
Point(p11 + 22) = {2.181746987774045, 2.822086874068174, 1};
Point(p11 + 23) = {2.222753265834013, 2.723088961433356, 1};
Point(p11 + 24) = {2.278741374068174, 2.631724672552291, 1};
Point(p11 + 25) = {2.348332699437923, 2.550243699437924, 1};
Point(p11 + 26) = {2.429813672552291, 2.480652374068174, 1};
Point(p11 + 27) = {2.521177961433355, 2.424664265834013, 1};
Point(p11 + 28) = {2.620175874068174, 2.383657987774045, 1};
Point(p11 + 29) = {2.724369753292442, 2.358643250546139, 1};
Point(p11 + 30) = {2.831194, 2.350236, 1};
Point(p11 + 31) = {2.938018246707557, 2.358643250546139, 1};
Point(p11 + 32) = {3.042212125931826, 2.383657987774045, 1};
Point(p11 + 33) = {3.141210038566645, 2.424664265834013, 1};
Point(p11 + 34) = {3.232574327447709, 2.480652374068174, 1};
Point(p11 + 35) = {3.314055300562076, 2.550243699437923, 1};
Point(p11 + 36) = {3.383646625931826, 2.631724672552291, 1};
Point(p11 + 37) = {3.439634734165987, 2.723088961433355, 1};
Point(p11 + 38) = {3.480641012225955, 2.822086874068174, 1};
Point(p11 + 39) = {3.505655749453861, 2.926280753292442, 1};
Spline(11) = {9, p11 + 1, p11 + 2, p11 + 3, p11 + 4, p11 + 5, p11 + 6, p11 + 7, p11 + 8, p11 + 9, p11 + 10, p11 + 11, p11 + 12, p11 + 13, p11 + 14, p11 + 15, p11 + 16, p11 + 17, p11 + 18, p11 + 19, p11 + 20, p11 + 21, p11 + 22, p11 + 23, p11 + 24, p11 + 25, p11 + 26, p11 + 27, p11 + 28, p11 + 29, p11 + 30, p11 + 31, p11 + 32, p11 + 33, p11 + 34, p11 + 35, p11 + 36, p11 + 37, p11 + 38, p11 + 39, 9};
Line(12) = {4, 10};
Line(13) = {10, 7};
Line(14) = {5, 10};
p15 = newp;
Point(p15 + 1) = {14.69380367299022, 1.388642155630797, 0};
Point(p15 + 2) = {14.64330758235648, 1.598973510338, 0};
Point(p15 + 3) = {14.56053010943709, 1.798816008118971, 0};
Point(p15 + 4) = {14.447509510338, 1.983248863439119, 0};
Point(p15 + 5) = {14.30702872730291, 2.147730727302907, 0};
Point(p15 + 6) = {14.14254686343912, 2.288211510338, 0};
Point(p15 + 7) = {13.95811400811897, 2.401232109437085, 0};
Point(p15 + 8) = {13.758271510338, 2.484009582356478, 0};
Point(p15 + 9) = {13.5479401556308, 2.534505672990223, 0};
Point(p15 + 10) = {13.332299, 2.551477, 0};
Point(p15 + 11) = {13.1166578443692, 2.534505672990223, 0};
Point(p15 + 12) = {12.906326489662, 2.484009582356478, 0};
Point(p15 + 13) = {12.70648399188103, 2.401232109437085, 0};
Point(p15 + 14) = {12.52205113656088, 2.288211510338, 0};
Point(p15 + 15) = {12.35756927269709, 2.147730727302907, 0};
Point(p15 + 16) = {12.217088489662, 1.983248863439119, 0};
Point(p15 + 17) = {12.10406789056292, 1.798816008118972, 0};
Point(p15 + 18) = {12.02129041764352, 1.598973510338, 0};
Point(p15 + 19) = {11.97079432700978, 1.388642155630798, 0};
Point(p15 + 20) = {11.953823, 1.173001, 0};
Point(p15 + 21) = {11.97079432700978, 0.9573598443692029, 0};
Point(p15 + 22) = {12.02129041764352, 0.7470284896619995, 0};
Point(p15 + 23) = {12.10406789056292, 0.5471859918810292, 0};
Point(p15 + 24) = {12.217088489662, 0.3627531365608809, 0};
Point(p15 + 25) = {12.35756927269709, 0.1982712726970928, 0};
Point(p15 + 26) = {12.52205113656088, 0.05779048966200007, 0};
Point(p15 + 27) = {12.70648399188103, -0.05523010943708462, 0};
Point(p15 + 28) = {12.906326489662, -0.1380075823564781, 0};
Point(p15 + 29) = {13.1166578443692, -0.188503672990223, 0};
Point(p15 + 30) = {13.332299, -0.2054750000000001, 0};
Point(p15 + 31) = {13.5479401556308, -0.1885036729902232, 0};
Point(p15 + 32) = {13.758271510338, -0.1380075823564784, 0};
Point(p15 + 33) = {13.95811400811897, -0.05523010943708462, 0};
Point(p15 + 34) = {14.14254686343912, 0.05779048966199962, 0};
Point(p15 + 35) = {14.30702872730291, 0.1982712726970924, 0};
Point(p15 + 36) = {14.447509510338, 0.3627531365608805, 0};
Point(p15 + 37) = {14.56053010943709, 0.5471859918810282, 0};
Point(p15 + 38) = {14.64330758235648, 0.7470284896619996, 0};
Point(p15 + 39) = {14.69380367299022, 0.9573598443692024, 0};
Spline(15) = {11, p15 + 1, p15 + 2, p15 + 3, p15 + 4, p15 + 5, p15 + 6, p15 + 7, p15 + 8, p15 + 9, p15 + 10, p15 + 11, p15 + 12, p15 + 13, p15 + 14, p15 + 15, p15 + 16, p15 + 17, p15 + 18, p15 + 19, p15 + 20, p15 + 21, p15 + 22, p15 + 23, p15 + 24, p15 + 25, p15 + 26, p15 + 27, p15 + 28, p15 + 29, p15 + 30, p15 + 31, p15 + 32, p15 + 33, p15 + 34, p15 + 35, p15 + 36, p15 + 37, p15 + 38, p15 + 39, 11};
p16 = newp;
Point(p16 + 1) = {3.505655749453861, 3.139929246707557, 0};
Point(p16 + 2) = {3.480641012225955, 3.244123125931826, 0};
Point(p16 + 3) = {3.439634734165987, 3.343121038566645, 0};
Point(p16 + 4) = {3.383646625931826, 3.434485327447709, 0};
Point(p16 + 5) = {3.314055300562076, 3.515966300562076, 0};
Point(p16 + 6) = {3.232574327447709, 3.585557625931826, 0};
Point(p16 + 7) = {3.141210038566645, 3.641545734165986, 0};
Point(p16 + 8) = {3.042212125931826, 3.682552012225955, 0};
Point(p16 + 9) = {2.938018246707558, 3.707566749453861, 0};
Point(p16 + 10) = {2.831194, 3.715974, 0};
Point(p16 + 11) = {2.724369753292442, 3.707566749453861, 0};
Point(p16 + 12) = {2.620175874068174, 3.682552012225955, 0};
Point(p16 + 13) = {2.521177961433355, 3.641545734165986, 0};
Point(p16 + 14) = {2.429813672552291, 3.585557625931826, 0};
Point(p16 + 15) = {2.348332699437924, 3.515966300562076, 0};
Point(p16 + 16) = {2.278741374068174, 3.434485327447709, 0};
Point(p16 + 17) = {2.222753265834013, 3.343121038566645, 0};
Point(p16 + 18) = {2.181746987774045, 3.244123125931826, 0};
Point(p16 + 19) = {2.156732250546139, 3.139929246707557, 0};
Point(p16 + 20) = {2.148325, 3.033105, 0};
Point(p16 + 21) = {2.156732250546139, 2.926280753292442, 0};
Point(p16 + 22) = {2.181746987774045, 2.822086874068174, 0};
Point(p16 + 23) = {2.222753265834013, 2.723088961433356, 0};
Point(p16 + 24) = {2.278741374068174, 2.631724672552291, 0};
Point(p16 + 25) = {2.348332699437923, 2.550243699437924, 0};
Point(p16 + 26) = {2.429813672552291, 2.480652374068174, 0};
Point(p16 + 27) = {2.521177961433355, 2.424664265834013, 0};
Point(p16 + 28) = {2.620175874068174, 2.383657987774045, 0};
Point(p16 + 29) = {2.724369753292442, 2.358643250546139, 0};
Point(p16 + 30) = {2.831194, 2.350236, 0};
Point(p16 + 31) = {2.938018246707557, 2.358643250546139, 0};
Point(p16 + 32) = {3.042212125931826, 2.383657987774045, 0};
Point(p16 + 33) = {3.141210038566645, 2.424664265834013, 0};
Point(p16 + 34) = {3.232574327447709, 2.480652374068174, 0};
Point(p16 + 35) = {3.314055300562076, 2.550243699437923, 0};
Point(p16 + 36) = {3.383646625931826, 2.631724672552291, 0};
Point(p16 + 37) = {3.439634734165987, 2.723088961433355, 0};
Point(p16 + 38) = {3.480641012225955, 2.822086874068174, 0};
Point(p16 + 39) = {3.505655749453861, 2.926280753292442, 0};
Spline(16) = {12, p16 + 1, p16 + 2, p16 + 3, p16 + 4, p16 + 5, p16 + 6, p16 + 7, p16 + 8, p16 + 9, p16 + 10, p16 + 11, p16 + 12, p16 + 13, p16 + 14, p16 + 15, p16 + 16, p16 + 17, p16 + 18, p16 + 19, p16 + 20, p16 + 21, p16 + 22, p16 + 23, p16 + 24, p16 + 25, p16 + 26, p16 + 27, p16 + 28, p16 + 29, p16 + 30, p16 + 31, p16 + 32, p16 + 33, p16 + 34, p16 + 35, p16 + 36, p16 + 37, p16 + 38, p16 + 39, 12};
Line(17) = {11, 8};
Line(18) = {12, 9};
Curve Loop(1) = {-1, 4, 3, -2};
Plane Surface(1) = {1};
Curve Loop(2) = {-5, 1, 7, -6};
Plane Surface(2) = {2};
Curve Loop(3) = {-2, 7, 9, -8, -10, -11};
Plane Surface(3) = {3};
Curve Loop(4) = {-12, 3, 8, -13};
Plane Surface(4) = {4};
Curve Loop(5) = {-4, 5, 14, -12, -15, -16};
Plane Surface(5) = {5};
Curve Loop(6) = {-6, 14, 13, -9};
Plane Surface(6) = {6};
Curve Loop(7) = {-10, -17, 15, 17};
Surface(7) = {7};
Curve Loop(8) = {-11, -18, 16, 18};
Surface(8) = {8};
Surface Loop(1) = {1, 2, 3, 4, 5, 6, 7, 8};
Volume(1) = {1};
Physical Surface("INFLOW") = {1};
Physical Surface("OUTFLOW") = {6};
Physical Surface("OBSTACLE") = {7, 8};
Physical Surface("WALL_Y") = {2, 4};
Physical Surface("WALL_Z") = {3, 5};
Physical Volume("FLUID") = {1};
