cl__1 = 1;
cl__2 = 0.080682;
cl__3 = 0.082359;
Point(1) = {0.917896, -4.444708, 1, cl__1};
Point(2) = {0.917896, -4.444708, 0, cl__1};
Point(3) = {0.917896, 4.847636, 1, cl__1};
Point(4) = {0.917896, 4.847636, 0, cl__1};
Point(5) = {31.304895, -4.444708, 0, cl__1};
Point(6) = {31.304895, -4.444708, 1, cl__1};
Point(7) = {31.304895, 4.847636, 1, cl__1};
Point(8) = {19.243846, -3.016744000000001, 1, cl__2};
Point(9) = {29.585925, 3.199206, 1, cl__3};
Point(10) = {31.304895, 4.847636, 0, cl__1};
Point(11) = {19.243846, -3.016744000000001, 0, cl__2};
Point(12) = {29.585925, 3.199206, 0, cl__3};
Line(1) = {2, 1};
Line(2) = {1, 3};
Line(3) = {4, 3};
Line(4) = {2, 4};
Line(5) = {2, 5};
Line(6) = {5, 6};
Line(7) = {1, 6};
Line(8) = {3, 7};
Line(9) = {6, 7};
p10 = newp;
Point(p10 + 1) = {19.23391267002399, -2.890529075612846, 1};
Point(p10 + 2) = {19.20435727164681, -2.767421981547422, 1};
Point(p10 + 3) = {19.15590755686523, -2.65045402302864, 1};
Point(p10 + 4) = {19.08975651845258, -2.54250533938963, 1};
Point(p10 + 5) = {19.00753301451727, -2.446233985482726, 1};
Point(p10 + 6) = {18.91126166061037, -2.364010481547422, 1};
Point(p10 + 7) = {18.80331297697136, -2.297859443134769, 1};
Point(p10 + 8) = {18.68634501845258, -2.249409728353196, 1};
Point(p10 + 9) = {18.56323792438715, -2.219854329976009, 1};
Point(p10 + 10) = {18.437023, -2.209921, 1};
Point(p10 + 11) = {18.31080807561285, -2.219854329976009, 1};
Point(p10 + 12) = {18.18770098154742, -2.249409728353196, 1};
Point(p10 + 13) = {18.07073302302864, -2.297859443134769, 1};
Point(p10 + 14) = {17.96278433938963, -2.364010481547422, 1};
Point(p10 + 15) = {17.86651298548272, -2.446233985482726, 1};
Point(p10 + 16) = {17.78428948154742, -2.54250533938963, 1};
Point(p10 + 17) = {17.71813844313477, -2.65045402302864, 1};
Point(p10 + 18) = {17.66968872835319, -2.767421981547422, 1};
Point(p10 + 19) = {17.64013332997601, -2.890529075612846, 1};
Point(p10 + 20) = {17.6302, -3.016744, 1};
Point(p10 + 21) = {17.64013332997601, -3.142958924387154, 1};
Point(p10 + 22) = {17.66968872835319, -3.266066018452578, 1};
Point(p10 + 23) = {17.71813844313477, -3.38303397697136, 1};
Point(p10 + 24) = {17.78428948154742, -3.49098266061037, 1};
Point(p10 + 25) = {17.86651298548272, -3.587254014517274, 1};
Point(p10 + 26) = {17.96278433938963, -3.669477518452578, 1};
Point(p10 + 27) = {18.07073302302864, -3.735628556865231, 1};
Point(p10 + 28) = {18.18770098154742, -3.784078271646805, 1};
Point(p10 + 29) = {18.31080807561285, -3.813633670023991, 1};
Point(p10 + 30) = {18.437023, -3.823567, 1};
Point(p10 + 31) = {18.56323792438715, -3.813633670023991, 1};
Point(p10 + 32) = {18.68634501845258, -3.784078271646805, 1};
Point(p10 + 33) = {18.80331297697136, -3.735628556865231, 1};
Point(p10 + 34) = {18.91126166061037, -3.669477518452578, 1};
Point(p10 + 35) = {19.00753301451727, -3.587254014517274, 1};
Point(p10 + 36) = {19.08975651845258, -3.49098266061037, 1};
Point(p10 + 37) = {19.15590755686523, -3.38303397697136, 1};
Point(p10 + 38) = {19.20435727164681, -3.266066018452578, 1};
Point(p10 + 39) = {19.23391267002399, -3.142958924387155, 1};
Spline(10) = {8, p10 + 1, p10 + 2, p10 + 3, p10 + 4, p10 + 5, p10 + 6, p10 + 7, p10 + 8, p10 + 9, p10 + 10, p10 + 11, p10 + 12, p10 + 13, p10 + 14, p10 + 15, p10 + 16, p10 + 17, p10 + 18, p10 + 19, p10 + 20, p10 + 21, p10 + 22, p10 + 23, p10 + 24, p10 + 25, p10 + 26, p10 + 27, p10 + 28, p10 + 29, p10 + 30, p10 + 31, p10 + 32, p10 + 33, p10 + 34, p10 + 35, p10 + 36, p10 + 37, p10 + 38, p10 + 39, 8};
p11 = newp;
Point(p11 + 1) = {29.57578525274241, 3.328043704628019, 1};
Point(p11 + 2) = {29.54561568519901, 3.453708997380269, 1};
Point(p11 + 3) = {29.49615917224978, 3.573107581689994, 1};
Point(p11 + 4) = {29.42863349738027, 3.683299468150306, 1};
Point(p11 + 5) = {29.34470136681065, 3.781571366810648, 1};
Point(p11 + 6) = {29.24642946815031, 3.865503497380269, 1};
Point(p11 + 7) = {29.13623758168999, 3.933029172249774, 1};
Point(p11 + 8) = {29.01683899738027, 3.98248568519901, 1};
Point(p11 + 9) = {28.89117370462802, 4.012655252742409, 1};
Point(p11 + 10) = {28.762336, 4.022795, 1};
Point(p11 + 11) = {28.63349829537198, 4.012655252742409, 1};
Point(p11 + 12) = {28.50783300261973, 3.98248568519901, 1};
Point(p11 + 13) = {28.38843441831001, 3.933029172249774, 1};
Point(p11 + 14) = {28.2782425318497, 3.865503497380269, 1};
Point(p11 + 15) = {28.17997063318935, 3.781571366810648, 1};
Point(p11 + 16) = {28.09603850261973, 3.683299468150306, 1};
Point(p11 + 17) = {28.02851282775023, 3.573107581689994, 1};
Point(p11 + 18) = {27.97905631480099, 3.453708997380269, 1};
Point(p11 + 19) = {27.94888674725759, 3.328043704628019, 1};
Point(p11 + 20) = {27.938747, 3.199206, 1};
Point(p11 + 21) = {27.94888674725759, 3.070368295371982, 1};
Point(p11 + 22) = {27.97905631480099, 2.944703002619732, 1};
Point(p11 + 23) = {28.02851282775023, 2.825304418310007, 1};
Point(p11 + 24) = {28.09603850261973, 2.715112531849694, 1};
Point(p11 + 25) = {28.17997063318935, 2.616840633189353, 1};
Point(p11 + 26) = {28.2782425318497, 2.532908502619732, 1};
Point(p11 + 27) = {28.38843441831001, 2.465382827750227, 1};
Point(p11 + 28) = {28.50783300261973, 2.415926314800991, 1};
Point(p11 + 29) = {28.63349829537198, 2.385756747257592, 1};
Point(p11 + 30) = {28.762336, 2.375617, 1};
Point(p11 + 31) = {28.89117370462802, 2.385756747257591, 1};
Point(p11 + 32) = {29.01683899738027, 2.415926314800991, 1};
Point(p11 + 33) = {29.13623758168999, 2.465382827750227, 1};
Point(p11 + 34) = {29.24642946815031, 2.532908502619732, 1};
Point(p11 + 35) = {29.34470136681065, 2.616840633189352, 1};
Point(p11 + 36) = {29.42863349738027, 2.715112531849694, 1};
Point(p11 + 37) = {29.49615917224978, 2.825304418310006, 1};
Point(p11 + 38) = {29.54561568519901, 2.944703002619732, 1};
Point(p11 + 39) = {29.57578525274241, 3.070368295371981, 1};
Spline(11) = {9, p11 + 1, p11 + 2, p11 + 3, p11 + 4, p11 + 5, p11 + 6, p11 + 7, p11 + 8, p11 + 9, p11 + 10, p11 + 11, p11 + 12, p11 + 13, p11 + 14, p11 + 15, p11 + 16, p11 + 17, p11 + 18, p11 + 19, p11 + 20, p11 + 21, p11 + 22, p11 + 23, p11 + 24, p11 + 25, p11 + 26, p11 + 27, p11 + 28, p11 + 29, p11 + 30, p11 + 31, p11 + 32, p11 + 33, p11 + 34, p11 + 35, p11 + 36, p11 + 37, p11 + 38, p11 + 39, 9};
Line(12) = {4, 10};
Line(13) = {10, 7};
Line(14) = {5, 10};
p15 = newp;
Point(p15 + 1) = {19.23391267002399, -2.890529075612846, 0};
Point(p15 + 2) = {19.20435727164681, -2.767421981547422, 0};
Point(p15 + 3) = {19.15590755686523, -2.65045402302864, 0};
Point(p15 + 4) = {19.08975651845258, -2.54250533938963, 0};
Point(p15 + 5) = {19.00753301451727, -2.446233985482726, 0};
Point(p15 + 6) = {18.91126166061037, -2.364010481547422, 0};
Point(p15 + 7) = {18.80331297697136, -2.297859443134769, 0};
Point(p15 + 8) = {18.68634501845258, -2.249409728353196, 0};
Point(p15 + 9) = {18.56323792438715, -2.219854329976009, 0};
Point(p15 + 10) = {18.437023, -2.209921, 0};
Point(p15 + 11) = {18.31080807561285, -2.219854329976009, 0};
Point(p15 + 12) = {18.18770098154742, -2.249409728353196, 0};
Point(p15 + 13) = {18.07073302302864, -2.297859443134769, 0};
Point(p15 + 14) = {17.96278433938963, -2.364010481547422, 0};
Point(p15 + 15) = {17.86651298548272, -2.446233985482726, 0};
Point(p15 + 16) = {17.78428948154742, -2.54250533938963, 0};
Point(p15 + 17) = {17.71813844313477, -2.65045402302864, 0};
Point(p15 + 18) = {17.66968872835319, -2.767421981547422, 0};
Point(p15 + 19) = {17.64013332997601, -2.890529075612846, 0};
Point(p15 + 20) = {17.6302, -3.016744, 0};
Point(p15 + 21) = {17.64013332997601, -3.142958924387154, 0};
Point(p15 + 22) = {17.66968872835319, -3.266066018452578, 0};
Point(p15 + 23) = {17.71813844313477, -3.38303397697136, 0};
Point(p15 + 24) = {17.78428948154742, -3.49098266061037, 0};
Point(p15 + 25) = {17.86651298548272, -3.587254014517274, 0};
Point(p15 + 26) = {17.96278433938963, -3.669477518452578, 0};
Point(p15 + 27) = {18.07073302302864, -3.735628556865231, 0};
Point(p15 + 28) = {18.18770098154742, -3.784078271646805, 0};
Point(p15 + 29) = {18.31080807561285, -3.813633670023991, 0};
Point(p15 + 30) = {18.437023, -3.823567, 0};
Point(p15 + 31) = {18.56323792438715, -3.813633670023991, 0};
Point(p15 + 32) = {18.68634501845258, -3.784078271646805, 0};
Point(p15 + 33) = {18.80331297697136, -3.735628556865231, 0};
Point(p15 + 34) = {18.91126166061037, -3.669477518452578, 0};
Point(p15 + 35) = {19.00753301451727, -3.587254014517274, 0};
Point(p15 + 36) = {19.08975651845258, -3.49098266061037, 0};
Point(p15 + 37) = {19.15590755686523, -3.38303397697136, 0};
Point(p15 + 38) = {19.20435727164681, -3.266066018452578, 0};
Point(p15 + 39) = {19.23391267002399, -3.142958924387155, 0};
Spline(15) = {11, p15 + 1, p15 + 2, p15 + 3, p15 + 4, p15 + 5, p15 + 6, p15 + 7, p15 + 8, p15 + 9, p15 + 10, p15 + 11, p15 + 12, p15 + 13, p15 + 14, p15 + 15, p15 + 16, p15 + 17, p15 + 18, p15 + 19, p15 + 20, p15 + 21, p15 + 22, p15 + 23, p15 + 24, p15 + 25, p15 + 26, p15 + 27, p15 + 28, p15 + 29, p15 + 30, p15 + 31, p15 + 32, p15 + 33, p15 + 34, p15 + 35, p15 + 36, p15 + 37, p15 + 38, p15 + 39, 11};
p16 = newp;
Point(p16 + 1) = {29.57578525274241, 3.328043704628019, 0};
Point(p16 + 2) = {29.54561568519901, 3.453708997380269, 0};
Point(p16 + 3) = {29.49615917224978, 3.573107581689994, 0};
Point(p16 + 4) = {29.42863349738027, 3.683299468150306, 0};
Point(p16 + 5) = {29.34470136681065, 3.781571366810648, 0};
Point(p16 + 6) = {29.24642946815031, 3.865503497380269, 0};
Point(p16 + 7) = {29.13623758168999, 3.933029172249774, 0};
Point(p16 + 8) = {29.01683899738027, 3.98248568519901, 0};
Point(p16 + 9) = {28.89117370462802, 4.012655252742409, 0};
Point(p16 + 10) = {28.762336, 4.022795, 0};
Point(p16 + 11) = {28.63349829537198, 4.012655252742409, 0};
Point(p16 + 12) = {28.50783300261973, 3.98248568519901, 0};
Point(p16 + 13) = {28.38843441831001, 3.933029172249774, 0};
Point(p16 + 14) = {28.2782425318497, 3.865503497380269, 0};
Point(p16 + 15) = {28.17997063318935, 3.781571366810648, 0};
Point(p16 + 16) = {28.09603850261973, 3.683299468150306, 0};
Point(p16 + 17) = {28.02851282775023, 3.573107581689994, 0};
Point(p16 + 18) = {27.97905631480099, 3.453708997380269, 0};
Point(p16 + 19) = {27.94888674725759, 3.328043704628019, 0};
Point(p16 + 20) = {27.938747, 3.199206, 0};
Point(p16 + 21) = {27.94888674725759, 3.070368295371982, 0};
Point(p16 + 22) = {27.97905631480099, 2.944703002619732, 0};
Point(p16 + 23) = {28.02851282775023, 2.825304418310007, 0};
Point(p16 + 24) = {28.09603850261973, 2.715112531849694, 0};
Point(p16 + 25) = {28.17997063318935, 2.616840633189353, 0};
Point(p16 + 26) = {28.2782425318497, 2.532908502619732, 0};
Point(p16 + 27) = {28.38843441831001, 2.465382827750227, 0};
Point(p16 + 28) = {28.50783300261973, 2.415926314800991, 0};
Point(p16 + 29) = {28.63349829537198, 2.385756747257592, 0};
Point(p16 + 30) = {28.762336, 2.375617, 0};
Point(p16 + 31) = {28.89117370462802, 2.385756747257591, 0};
Point(p16 + 32) = {29.01683899738027, 2.415926314800991, 0};
Point(p16 + 33) = {29.13623758168999, 2.465382827750227, 0};
Point(p16 + 34) = {29.24642946815031, 2.532908502619732, 0};
Point(p16 + 35) = {29.34470136681065, 2.616840633189352, 0};
Point(p16 + 36) = {29.42863349738027, 2.715112531849694, 0};
Point(p16 + 37) = {29.49615917224978, 2.825304418310006, 0};
Point(p16 + 38) = {29.54561568519901, 2.944703002619732, 0};
Point(p16 + 39) = {29.57578525274241, 3.070368295371981, 0};
Spline(16) = {12, p16 + 1, p16 + 2, p16 + 3, p16 + 4, p16 + 5, p16 + 6, p16 + 7, p16 + 8, p16 + 9, p16 + 10, p16 + 11, p16 + 12, p16 + 13, p16 + 14, p16 + 15, p16 + 16, p16 + 17, p16 + 18, p16 + 19, p16 + 20, p16 + 21, p16 + 22, p16 + 23, p16 + 24, p16 + 25, p16 + 26, p16 + 27, p16 + 28, p16 + 29, p16 + 30, p16 + 31, p16 + 32, p16 + 33, p16 + 34, p16 + 35, p16 + 36, p16 + 37, p16 + 38, p16 + 39, 12};
Line(17) = {11, 8};
Line(18) = {12, 9};
Curve Loop(1) = {-1, 4, 3, -2};
Plane Surface(1) = {1};
Curve Loop(2) = {-5, 1, 7, -6};
Plane Surface(2) = {2};
Curve Loop(3) = {-2, 7, 9, -8, -10, -11};
Plane Surface(3) = {3};
Curve Loop(4) = {-12, 3, 8, -13};
Plane Surface(4) = {4};
Curve Loop(5) = {-4, 5, 14, -12, -15, -16};
Plane Surface(5) = {5};
Curve Loop(6) = {-6, 14, 13, -9};
Plane Surface(6) = {6};
Curve Loop(7) = {-10, -17, 15, 17};
Surface(7) = {7};
Curve Loop(8) = {-11, -18, 16, 18};
Surface(8) = {8};
Surface Loop(1) = {1, 2, 3, 4, 5, 6, 7, 8};
Volume(1) = {1};
Physical Surface("INFLOW") = {1};
Physical Surface("OUTFLOW") = {6};
Physical Surface("OBSTACLE") = {7, 8};
Physical Surface("WALL_Y") = {2, 4};
Physical Surface("WALL_Z") = {3, 5};
Physical Volume("FLUID") = {1};
