cl__1 = 1;
cl__2 = 0.091657;
cl__3 = 0.100733;
Point(1) = {0.5153759999999999, -4.04461, 1, cl__1};
Point(2) = {0.5153759999999999, -4.04461, 0, cl__1};
Point(3) = {0.5153759999999999, 4.528487000000001, 1, cl__1};
Point(4) = {0.5153759999999999, 4.528487000000001, 0, cl__1};
Point(5) = {31.435769, -4.04461, 0, cl__1};
Point(6) = {31.435769, -4.04461, 1, cl__1};
Point(7) = {31.435769, 4.528487000000001, 1, cl__1};
Point(8) = {20.24358, -2.224168, 1, cl__2};
Point(9) = {3.13488, 0.2234099999999997, 1, cl__3};
Point(10) = {31.435769, 4.528487000000001, 0, cl__1};
Point(11) = {20.24358, -2.224168, 0, cl__2};
Point(12) = {3.13488, 0.2234099999999997, 0, cl__3};
Line(1) = {2, 1};
Line(2) = {1, 3};
Line(3) = {4, 3};
Line(4) = {2, 4};
Line(5) = {2, 5};
Line(6) = {5, 6};
Line(7) = {1, 6};
Line(8) = {3, 7};
Line(9) = {6, 7};
p10 = newp;
Point(p10 + 1) = {20.23229552696261, -2.080785175247006, 1};
Point(p10 + 2) = {20.19871996902762, -1.940932911499743, 1};
Point(p10 + 3) = {20.14368006786228, -1.808054835634723, 1};
Point(p10 + 4) = {20.06853108850026, -1.685422846876793, 1};
Point(p10 + 5) = {19.97512344821859, -1.576056551781409, 1};
Point(p10 + 6) = {19.86575715312321, -1.482648911499743, 1};
Point(p10 + 7) = {19.74312516436528, -1.407499932137716, 1};
Point(p10 + 8) = {19.61024708850026, -1.352460030972384, 1};
Point(p10 + 9) = {19.47039482475299, -1.318884473037396, 1};
Point(p10 + 10) = {19.327012, -1.3076, 1};
Point(p10 + 11) = {19.18362917524701, -1.318884473037396, 1};
Point(p10 + 12) = {19.04377691149974, -1.352460030972384, 1};
Point(p10 + 13) = {18.91089883563472, -1.407499932137716, 1};
Point(p10 + 14) = {18.78826684687679, -1.482648911499743, 1};
Point(p10 + 15) = {18.67890055178141, -1.576056551781408, 1};
Point(p10 + 16) = {18.58549291149974, -1.685422846876792, 1};
Point(p10 + 17) = {18.51034393213772, -1.808054835634723, 1};
Point(p10 + 18) = {18.45530403097238, -1.940932911499743, 1};
Point(p10 + 19) = {18.42172847303739, -2.080785175247006, 1};
Point(p10 + 20) = {18.410444, -2.224168, 1};
Point(p10 + 21) = {18.42172847303739, -2.367550824752994, 1};
Point(p10 + 22) = {18.45530403097238, -2.507403088500257, 1};
Point(p10 + 23) = {18.51034393213772, -2.640281164365277, 1};
Point(p10 + 24) = {18.58549291149974, -2.762913153123208, 1};
Point(p10 + 25) = {18.67890055178141, -2.872279448218592, 1};
Point(p10 + 26) = {18.78826684687679, -2.965687088500257, 1};
Point(p10 + 27) = {18.91089883563472, -3.040836067862284, 1};
Point(p10 + 28) = {19.04377691149974, -3.095875969027617, 1};
Point(p10 + 29) = {19.18362917524701, -3.129451526962604, 1};
Point(p10 + 30) = {19.327012, -3.140736, 1};
Point(p10 + 31) = {19.47039482475299, -3.129451526962605, 1};
Point(p10 + 32) = {19.61024708850026, -3.095875969027617, 1};
Point(p10 + 33) = {19.74312516436528, -3.040836067862284, 1};
Point(p10 + 34) = {19.86575715312321, -2.965687088500257, 1};
Point(p10 + 35) = {19.97512344821859, -2.872279448218592, 1};
Point(p10 + 36) = {20.06853108850026, -2.762913153123208, 1};
Point(p10 + 37) = {20.14368006786228, -2.640281164365277, 1};
Point(p10 + 38) = {20.19871996902762, -2.507403088500257, 1};
Point(p10 + 39) = {20.23229552696261, -2.367550824752995, 1};
Spline(10) = {8, p10 + 1, p10 + 2, p10 + 3, p10 + 4, p10 + 5, p10 + 6, p10 + 7, p10 + 8, p10 + 9, p10 + 10, p10 + 11, p10 + 12, p10 + 13, p10 + 14, p10 + 15, p10 + 16, p10 + 17, p10 + 18, p10 + 19, p10 + 20, p10 + 21, p10 + 22, p10 + 23, p10 + 24, p10 + 25, p10 + 26, p10 + 27, p10 + 28, p10 + 29, p10 + 30, p10 + 31, p10 + 32, p10 + 33, p10 + 34, p10 + 35, p10 + 36, p10 + 37, p10 + 38, p10 + 39, 8};
p11 = newp;
Point(p11 + 1) = {3.122478120755019, 0.3809908168000457, 1};
Point(p11 + 2) = {3.085577858446564, 0.534691470909727, 1};
Point(p11 + 3) = {3.02508781999762, 0.6807273421216382, 1};
Point(p11 + 4) = {2.942497470909727, 0.8155025426212724, 1};
Point(p11 + 5) = {2.839840459679083, 0.9356984596790825, 1};
Point(p11 + 6) = {2.719644542621273, 1.038355470909727, 1};
Point(p11 + 7) = {2.584869342121638, 1.12094581999762, 1};
Point(p11 + 8) = {2.438833470909727, 1.181435858446565, 1};
Point(p11 + 9) = {2.285132816800046, 1.218336120755019, 1};
Point(p11 + 10) = {2.127552, 1.230738, 1};
Point(p11 + 11) = {1.969971183199954, 1.218336120755019, 1};
Point(p11 + 12) = {1.816270529090273, 1.181435858446565, 1};
Point(p11 + 13) = {1.670234657878362, 1.12094581999762, 1};
Point(p11 + 14) = {1.535459457378728, 1.038355470909727, 1};
Point(p11 + 15) = {1.415263540320918, 0.9356984596790826, 1};
Point(p11 + 16) = {1.312606529090273, 0.8155025426212725, 1};
Point(p11 + 17) = {1.23001618000238, 0.6807273421216382, 1};
Point(p11 + 18) = {1.169526141553436, 0.5346914709097271, 1};
Point(p11 + 19) = {1.132625879244981, 0.3809908168000458, 1};
Point(p11 + 20) = {1.120224, 0.2234100000000001, 1};
Point(p11 + 21) = {1.132625879244981, 0.06582918319995446, 1};
Point(p11 + 22) = {1.169526141553436, -0.08787147090972736, 1};
Point(p11 + 23) = {1.23001618000238, -0.2339073421216377, 1};
Point(p11 + 24) = {1.312606529090273, -0.3686825426212723, 1};
Point(p11 + 25) = {1.415263540320917, -0.4888784596790825, 1};
Point(p11 + 26) = {1.535459457378728, -0.5915354709097269, 1};
Point(p11 + 27) = {1.670234657878362, -0.6741258199976201, 1};
Point(p11 + 28) = {1.816270529090273, -0.7346158584465644, 1};
Point(p11 + 29) = {1.969971183199954, -0.7715161207550189, 1};
Point(p11 + 30) = {2.127552, -0.783918, 1};
Point(p11 + 31) = {2.285132816800046, -0.771516120755019, 1};
Point(p11 + 32) = {2.438833470909727, -0.7346158584465645, 1};
Point(p11 + 33) = {2.584869342121638, -0.6741258199976202, 1};
Point(p11 + 34) = {2.719644542621272, -0.5915354709097271, 1};
Point(p11 + 35) = {2.839840459679082, -0.4888784596790827, 1};
Point(p11 + 36) = {2.942497470909727, -0.3686825426212726, 1};
Point(p11 + 37) = {3.02508781999762, -0.2339073421216384, 1};
Point(p11 + 38) = {3.085577858446564, -0.08787147090972725, 1};
Point(p11 + 39) = {3.122478120755019, 0.06582918319995409, 1};
Spline(11) = {9, p11 + 1, p11 + 2, p11 + 3, p11 + 4, p11 + 5, p11 + 6, p11 + 7, p11 + 8, p11 + 9, p11 + 10, p11 + 11, p11 + 12, p11 + 13, p11 + 14, p11 + 15, p11 + 16, p11 + 17, p11 + 18, p11 + 19, p11 + 20, p11 + 21, p11 + 22, p11 + 23, p11 + 24, p11 + 25, p11 + 26, p11 + 27, p11 + 28, p11 + 29, p11 + 30, p11 + 31, p11 + 32, p11 + 33, p11 + 34, p11 + 35, p11 + 36, p11 + 37, p11 + 38, p11 + 39, 9};
Line(12) = {4, 10};
Line(13) = {10, 7};
Line(14) = {5, 10};
p15 = newp;
Point(p15 + 1) = {20.23229552696261, -2.080785175247006, 0};
Point(p15 + 2) = {20.19871996902762, -1.940932911499743, 0};
Point(p15 + 3) = {20.14368006786228, -1.808054835634723, 0};
Point(p15 + 4) = {20.06853108850026, -1.685422846876793, 0};
Point(p15 + 5) = {19.97512344821859, -1.576056551781409, 0};
Point(p15 + 6) = {19.86575715312321, -1.482648911499743, 0};
Point(p15 + 7) = {19.74312516436528, -1.407499932137716, 0};
Point(p15 + 8) = {19.61024708850026, -1.352460030972384, 0};
Point(p15 + 9) = {19.47039482475299, -1.318884473037396, 0};
Point(p15 + 10) = {19.327012, -1.3076, 0};
Point(p15 + 11) = {19.18362917524701, -1.318884473037396, 0};
Point(p15 + 12) = {19.04377691149974, -1.352460030972384, 0};
Point(p15 + 13) = {18.91089883563472, -1.407499932137716, 0};
Point(p15 + 14) = {18.78826684687679, -1.482648911499743, 0};
Point(p15 + 15) = {18.67890055178141, -1.576056551781408, 0};
Point(p15 + 16) = {18.58549291149974, -1.685422846876792, 0};
Point(p15 + 17) = {18.51034393213772, -1.808054835634723, 0};
Point(p15 + 18) = {18.45530403097238, -1.940932911499743, 0};
Point(p15 + 19) = {18.42172847303739, -2.080785175247006, 0};
Point(p15 + 20) = {18.410444, -2.224168, 0};
Point(p15 + 21) = {18.42172847303739, -2.367550824752994, 0};
Point(p15 + 22) = {18.45530403097238, -2.507403088500257, 0};
Point(p15 + 23) = {18.51034393213772, -2.640281164365277, 0};
Point(p15 + 24) = {18.58549291149974, -2.762913153123208, 0};
Point(p15 + 25) = {18.67890055178141, -2.872279448218592, 0};
Point(p15 + 26) = {18.78826684687679, -2.965687088500257, 0};
Point(p15 + 27) = {18.91089883563472, -3.040836067862284, 0};
Point(p15 + 28) = {19.04377691149974, -3.095875969027617, 0};
Point(p15 + 29) = {19.18362917524701, -3.129451526962604, 0};
Point(p15 + 30) = {19.327012, -3.140736, 0};
Point(p15 + 31) = {19.47039482475299, -3.129451526962605, 0};
Point(p15 + 32) = {19.61024708850026, -3.095875969027617, 0};
Point(p15 + 33) = {19.74312516436528, -3.040836067862284, 0};
Point(p15 + 34) = {19.86575715312321, -2.965687088500257, 0};
Point(p15 + 35) = {19.97512344821859, -2.872279448218592, 0};
Point(p15 + 36) = {20.06853108850026, -2.762913153123208, 0};
Point(p15 + 37) = {20.14368006786228, -2.640281164365277, 0};
Point(p15 + 38) = {20.19871996902762, -2.507403088500257, 0};
Point(p15 + 39) = {20.23229552696261, -2.367550824752995, 0};
Spline(15) = {11, p15 + 1, p15 + 2, p15 + 3, p15 + 4, p15 + 5, p15 + 6, p15 + 7, p15 + 8, p15 + 9, p15 + 10, p15 + 11, p15 + 12, p15 + 13, p15 + 14, p15 + 15, p15 + 16, p15 + 17, p15 + 18, p15 + 19, p15 + 20, p15 + 21, p15 + 22, p15 + 23, p15 + 24, p15 + 25, p15 + 26, p15 + 27, p15 + 28, p15 + 29, p15 + 30, p15 + 31, p15 + 32, p15 + 33, p15 + 34, p15 + 35, p15 + 36, p15 + 37, p15 + 38, p15 + 39, 11};
p16 = newp;
Point(p16 + 1) = {3.122478120755019, 0.3809908168000457, 0};
Point(p16 + 2) = {3.085577858446564, 0.534691470909727, 0};
Point(p16 + 3) = {3.02508781999762, 0.6807273421216382, 0};
Point(p16 + 4) = {2.942497470909727, 0.8155025426212724, 0};
Point(p16 + 5) = {2.839840459679083, 0.9356984596790825, 0};
Point(p16 + 6) = {2.719644542621273, 1.038355470909727, 0};
Point(p16 + 7) = {2.584869342121638, 1.12094581999762, 0};
Point(p16 + 8) = {2.438833470909727, 1.181435858446565, 0};
Point(p16 + 9) = {2.285132816800046, 1.218336120755019, 0};
Point(p16 + 10) = {2.127552, 1.230738, 0};
Point(p16 + 11) = {1.969971183199954, 1.218336120755019, 0};
Point(p16 + 12) = {1.816270529090273, 1.181435858446565, 0};
Point(p16 + 13) = {1.670234657878362, 1.12094581999762, 0};
Point(p16 + 14) = {1.535459457378728, 1.038355470909727, 0};
Point(p16 + 15) = {1.415263540320918, 0.9356984596790826, 0};
Point(p16 + 16) = {1.312606529090273, 0.8155025426212725, 0};
Point(p16 + 17) = {1.23001618000238, 0.6807273421216382, 0};
Point(p16 + 18) = {1.169526141553436, 0.5346914709097271, 0};
Point(p16 + 19) = {1.132625879244981, 0.3809908168000458, 0};
Point(p16 + 20) = {1.120224, 0.2234100000000001, 0};
Point(p16 + 21) = {1.132625879244981, 0.06582918319995446, 0};
Point(p16 + 22) = {1.169526141553436, -0.08787147090972736, 0};
Point(p16 + 23) = {1.23001618000238, -0.2339073421216377, 0};
Point(p16 + 24) = {1.312606529090273, -0.3686825426212723, 0};
Point(p16 + 25) = {1.415263540320917, -0.4888784596790825, 0};
Point(p16 + 26) = {1.535459457378728, -0.5915354709097269, 0};
Point(p16 + 27) = {1.670234657878362, -0.6741258199976201, 0};
Point(p16 + 28) = {1.816270529090273, -0.7346158584465644, 0};
Point(p16 + 29) = {1.969971183199954, -0.7715161207550189, 0};
Point(p16 + 30) = {2.127552, -0.783918, 0};
Point(p16 + 31) = {2.285132816800046, -0.771516120755019, 0};
Point(p16 + 32) = {2.438833470909727, -0.7346158584465645, 0};
Point(p16 + 33) = {2.584869342121638, -0.6741258199976202, 0};
Point(p16 + 34) = {2.719644542621272, -0.5915354709097271, 0};
Point(p16 + 35) = {2.839840459679082, -0.4888784596790827, 0};
Point(p16 + 36) = {2.942497470909727, -0.3686825426212726, 0};
Point(p16 + 37) = {3.02508781999762, -0.2339073421216384, 0};
Point(p16 + 38) = {3.085577858446564, -0.08787147090972725, 0};
Point(p16 + 39) = {3.122478120755019, 0.06582918319995409, 0};
Spline(16) = {12, p16 + 1, p16 + 2, p16 + 3, p16 + 4, p16 + 5, p16 + 6, p16 + 7, p16 + 8, p16 + 9, p16 + 10, p16 + 11, p16 + 12, p16 + 13, p16 + 14, p16 + 15, p16 + 16, p16 + 17, p16 + 18, p16 + 19, p16 + 20, p16 + 21, p16 + 22, p16 + 23, p16 + 24, p16 + 25, p16 + 26, p16 + 27, p16 + 28, p16 + 29, p16 + 30, p16 + 31, p16 + 32, p16 + 33, p16 + 34, p16 + 35, p16 + 36, p16 + 37, p16 + 38, p16 + 39, 12};
Line(17) = {11, 8};
Line(18) = {12, 9};
Curve Loop(1) = {-1, 4, 3, -2};
Plane Surface(1) = {1};
Curve Loop(2) = {-5, 1, 7, -6};
Plane Surface(2) = {2};
Curve Loop(3) = {-2, 7, 9, -8, -10, -11};
Plane Surface(3) = {3};
Curve Loop(4) = {-12, 3, 8, -13};
Plane Surface(4) = {4};
Curve Loop(5) = {-4, 5, 14, -12, -15, -16};
Plane Surface(5) = {5};
Curve Loop(6) = {-6, 14, 13, -9};
Plane Surface(6) = {6};
Curve Loop(7) = {-10, -17, 15, 17};
Surface(7) = {7};
Curve Loop(8) = {-11, -18, 16, 18};
Surface(8) = {8};
Surface Loop(1) = {1, 2, 3, 4, 5, 6, 7, 8};
Volume(1) = {1};
Physical Surface("INFLOW") = {1};
Physical Surface("OUTFLOW") = {6};
Physical Surface("OBSTACLE") = {7, 8};
Physical Surface("WALL_Y") = {2, 4};
Physical Surface("WALL_Z") = {3, 5};
Physical Volume("FLUID") = {1};
