cl__1 = 1;
cl__2 = 0.07106999999999999;
cl__3 = 0.122026;
Point(1) = {0.186906, -3.53569, 1, cl__1};
Point(2) = {0.186906, -3.53569, 0, cl__1};
Point(3) = {0.186906, 4.260135999999999, 1, cl__1};
Point(4) = {0.186906, 4.260135999999999, 0, cl__1};
Point(5) = {37.173027, -3.53569, 0, cl__1};
Point(6) = {37.173027, -3.53569, 1, cl__1};
Point(7) = {37.173027, 4.260135999999999, 1, cl__1};
Point(8) = {18.610135, -0.1651570000000002, 1, cl__2};
Point(9) = {9.782926, 2.425848, 1, cl__3};
Point(10) = {37.173027, 4.260135999999999, 0, cl__1};
Point(11) = {18.610135, -0.1651570000000002, 0, cl__2};
Point(12) = {9.782926, 2.425848, 0, cl__3};
Line(1) = {2, 1};
Line(2) = {1, 3};
Line(3) = {4, 3};
Line(4) = {2, 4};
Line(5) = {2, 5};
Line(6) = {5, 6};
Line(7) = {1, 6};
Line(8) = {3, 7};
Line(9) = {6, 7};
p10 = newp;
Point(p10 + 1) = {18.60138505441433, -0.05397839995804776, 1};
Point(p10 + 2) = {18.57535067035703, 0.05446261397025262, 1};
Point(p10 + 3) = {18.53267290076677, 0.1574958641268948, 1};
Point(p10 + 4) = {18.47440261397025, 0.2525843299452699, 1};
Point(p10 + 5) = {18.4019746178164, 0.337386617816404, 1};
Point(p10 + 6) = {18.31717232994527, 0.4098146139702527, 1};
Point(p10 + 7) = {18.22208386412689, 0.4680849007667698, 1};
Point(p10 + 8) = {18.11905061397025, 0.5107626703570308, 1};
Point(p10 + 9) = {18.01060960004195, 0.5367970544143268, 1};
Point(p10 + 10) = {17.899431, 0.545547, 1};
Point(p10 + 11) = {17.78825239995805, 0.5367970544143267, 1};
Point(p10 + 12) = {17.67981138602975, 0.5107626703570308, 1};
Point(p10 + 13) = {17.57677813587311, 0.4680849007667698, 1};
Point(p10 + 14) = {17.48168967005473, 0.4098146139702527, 1};
Point(p10 + 15) = {17.3968873821836, 0.3373866178164041, 1};
Point(p10 + 16) = {17.32445938602975, 0.2525843299452699, 1};
Point(p10 + 17) = {17.26618909923323, 0.1574958641268949, 1};
Point(p10 + 18) = {17.22351132964297, 0.0544626139702527, 1};
Point(p10 + 19) = {17.19747694558567, -0.05397839995804768, 1};
Point(p10 + 20) = {17.188727, -0.1651569999999999, 1};
Point(p10 + 21) = {17.19747694558567, -0.2763356000419521, 1};
Point(p10 + 22) = {17.22351132964297, -0.3847766139702529, 1};
Point(p10 + 23) = {17.26618909923323, -0.4878098641268945, 1};
Point(p10 + 24) = {17.32445938602975, -0.5828983299452697, 1};
Point(p10 + 25) = {17.3968873821836, -0.667700617816404, 1};
Point(p10 + 26) = {17.48168967005473, -0.7401286139702525, 1};
Point(p10 + 27) = {17.57677813587311, -0.7983989007667698, 1};
Point(p10 + 28) = {17.67981138602975, -0.8410766703570308, 1};
Point(p10 + 29) = {17.78825239995805, -0.8671110544143267, 1};
Point(p10 + 30) = {17.899431, -0.875861, 1};
Point(p10 + 31) = {18.01060960004195, -0.8671110544143268, 1};
Point(p10 + 32) = {18.11905061397025, -0.8410766703570308, 1};
Point(p10 + 33) = {18.22208386412689, -0.7983989007667698, 1};
Point(p10 + 34) = {18.31717232994527, -0.7401286139702528, 1};
Point(p10 + 35) = {18.4019746178164, -0.6677006178164042, 1};
Point(p10 + 36) = {18.47440261397025, -0.5828983299452699, 1};
Point(p10 + 37) = {18.53267290076677, -0.487809864126895, 1};
Point(p10 + 38) = {18.57535067035703, -0.3847766139702528, 1};
Point(p10 + 39) = {18.60138505441433, -0.2763356000419524, 1};
Spline(10) = {8, p10 + 1, p10 + 2, p10 + 3, p10 + 4, p10 + 5, p10 + 6, p10 + 7, p10 + 8, p10 + 9, p10 + 10, p10 + 11, p10 + 12, p10 + 13, p10 + 14, p10 + 15, p10 + 16, p10 + 17, p10 + 18, p10 + 19, p10 + 20, p10 + 21, p10 + 22, p10 + 23, p10 + 24, p10 + 25, p10 + 26, p10 + 27, p10 + 28, p10 + 29, p10 + 30, p10 + 31, p10 + 32, p10 + 33, p10 + 34, p10 + 35, p10 + 36, p10 + 37, p10 + 38, p10 + 39, 8};
p11 = newp;
Point(p11 + 1) = {9.767902623741261, 2.616738094572132, 1};
Point(p11 + 2) = {9.72320242034826, 2.802927841487996, 1};
Point(p11 + 3) = {9.649926057180002, 2.97983263125018, 1};
Point(p11 + 4) = {9.549877841487996, 3.143096480821404, 1};
Point(p11 + 5) = {9.425521292383573, 3.288699292383571, 1};
Point(p11 + 6) = {9.279918480821404, 3.413055841487996, 1};
Point(p11 + 7) = {9.116654631250181, 3.513104057180001, 1};
Point(p11 + 8) = {8.939749841487997, 3.586380420348259, 1};
Point(p11 + 9) = {8.753560094572133, 3.63108062374126, 1};
Point(p11 + 10) = {8.562670000000001, 3.646104, 1};
Point(p11 + 11) = {8.371779905427868, 3.63108062374126, 1};
Point(p11 + 12) = {8.185590158512005, 3.586380420348259, 1};
Point(p11 + 13) = {8.00868536874982, 3.513104057180001, 1};
Point(p11 + 14) = {7.845421519178597, 3.413055841487996, 1};
Point(p11 + 15) = {7.699818707616429, 3.288699292383572, 1};
Point(p11 + 16) = {7.575462158512005, 3.143096480821404, 1};
Point(p11 + 17) = {7.475413942819999, 2.97983263125018, 1};
Point(p11 + 18) = {7.402137579651741, 2.802927841487996, 1};
Point(p11 + 19) = {7.357437376258741, 2.616738094572132, 1};
Point(p11 + 20) = {7.342414000000001, 2.425848, 1};
Point(p11 + 21) = {7.357437376258741, 2.234957905427868, 1};
Point(p11 + 22) = {7.402137579651741, 2.048768158512003, 1};
Point(p11 + 23) = {7.475413942819999, 1.87186336874982, 1};
Point(p11 + 24) = {7.575462158512004, 1.708599519178596, 1};
Point(p11 + 25) = {7.699818707616429, 1.562996707616428, 1};
Point(p11 + 26) = {7.845421519178596, 1.438640158512004, 1};
Point(p11 + 27) = {8.00868536874982, 1.338591942819999, 1};
Point(p11 + 28) = {8.185590158512005, 1.265315579651741, 1};
Point(p11 + 29) = {8.371779905427868, 1.22061537625874, 1};
Point(p11 + 30) = {8.562670000000001, 1.205592, 1};
Point(p11 + 31) = {8.753560094572132, 1.220615376258739, 1};
Point(p11 + 32) = {8.939749841487997, 1.265315579651741, 1};
Point(p11 + 33) = {9.116654631250181, 1.338591942819999, 1};
Point(p11 + 34) = {9.279918480821404, 1.438640158512004, 1};
Point(p11 + 35) = {9.425521292383571, 1.562996707616428, 1};
Point(p11 + 36) = {9.549877841487996, 1.708599519178595, 1};
Point(p11 + 37) = {9.649926057180002, 1.871863368749819, 1};
Point(p11 + 38) = {9.72320242034826, 2.048768158512004, 1};
Point(p11 + 39) = {9.767902623741261, 2.234957905427867, 1};
Spline(11) = {9, p11 + 1, p11 + 2, p11 + 3, p11 + 4, p11 + 5, p11 + 6, p11 + 7, p11 + 8, p11 + 9, p11 + 10, p11 + 11, p11 + 12, p11 + 13, p11 + 14, p11 + 15, p11 + 16, p11 + 17, p11 + 18, p11 + 19, p11 + 20, p11 + 21, p11 + 22, p11 + 23, p11 + 24, p11 + 25, p11 + 26, p11 + 27, p11 + 28, p11 + 29, p11 + 30, p11 + 31, p11 + 32, p11 + 33, p11 + 34, p11 + 35, p11 + 36, p11 + 37, p11 + 38, p11 + 39, 9};
Line(12) = {4, 10};
Line(13) = {10, 7};
Line(14) = {5, 10};
p15 = newp;
Point(p15 + 1) = {18.60138505441433, -0.05397839995804776, 0};
Point(p15 + 2) = {18.57535067035703, 0.05446261397025262, 0};
Point(p15 + 3) = {18.53267290076677, 0.1574958641268948, 0};
Point(p15 + 4) = {18.47440261397025, 0.2525843299452699, 0};
Point(p15 + 5) = {18.4019746178164, 0.337386617816404, 0};
Point(p15 + 6) = {18.31717232994527, 0.4098146139702527, 0};
Point(p15 + 7) = {18.22208386412689, 0.4680849007667698, 0};
Point(p15 + 8) = {18.11905061397025, 0.5107626703570308, 0};
Point(p15 + 9) = {18.01060960004195, 0.5367970544143268, 0};
Point(p15 + 10) = {17.899431, 0.545547, 0};
Point(p15 + 11) = {17.78825239995805, 0.5367970544143267, 0};
Point(p15 + 12) = {17.67981138602975, 0.5107626703570308, 0};
Point(p15 + 13) = {17.57677813587311, 0.4680849007667698, 0};
Point(p15 + 14) = {17.48168967005473, 0.4098146139702527, 0};
Point(p15 + 15) = {17.3968873821836, 0.3373866178164041, 0};
Point(p15 + 16) = {17.32445938602975, 0.2525843299452699, 0};
Point(p15 + 17) = {17.26618909923323, 0.1574958641268949, 0};
Point(p15 + 18) = {17.22351132964297, 0.0544626139702527, 0};
Point(p15 + 19) = {17.19747694558567, -0.05397839995804768, 0};
Point(p15 + 20) = {17.188727, -0.1651569999999999, 0};
Point(p15 + 21) = {17.19747694558567, -0.2763356000419521, 0};
Point(p15 + 22) = {17.22351132964297, -0.3847766139702529, 0};
Point(p15 + 23) = {17.26618909923323, -0.4878098641268945, 0};
Point(p15 + 24) = {17.32445938602975, -0.5828983299452697, 0};
Point(p15 + 25) = {17.3968873821836, -0.667700617816404, 0};
Point(p15 + 26) = {17.48168967005473, -0.7401286139702525, 0};
Point(p15 + 27) = {17.57677813587311, -0.7983989007667698, 0};
Point(p15 + 28) = {17.67981138602975, -0.8410766703570308, 0};
Point(p15 + 29) = {17.78825239995805, -0.8671110544143267, 0};
Point(p15 + 30) = {17.899431, -0.875861, 0};
Point(p15 + 31) = {18.01060960004195, -0.8671110544143268, 0};
Point(p15 + 32) = {18.11905061397025, -0.8410766703570308, 0};
Point(p15 + 33) = {18.22208386412689, -0.7983989007667698, 0};
Point(p15 + 34) = {18.31717232994527, -0.7401286139702528, 0};
Point(p15 + 35) = {18.4019746178164, -0.6677006178164042, 0};
Point(p15 + 36) = {18.47440261397025, -0.5828983299452699, 0};
Point(p15 + 37) = {18.53267290076677, -0.487809864126895, 0};
Point(p15 + 38) = {18.57535067035703, -0.3847766139702528, 0};
Point(p15 + 39) = {18.60138505441433, -0.2763356000419524, 0};
Spline(15) = {11, p15 + 1, p15 + 2, p15 + 3, p15 + 4, p15 + 5, p15 + 6, p15 + 7, p15 + 8, p15 + 9, p15 + 10, p15 + 11, p15 + 12, p15 + 13, p15 + 14, p15 + 15, p15 + 16, p15 + 17, p15 + 18, p15 + 19, p15 + 20, p15 + 21, p15 + 22, p15 + 23, p15 + 24, p15 + 25, p15 + 26, p15 + 27, p15 + 28, p15 + 29, p15 + 30, p15 + 31, p15 + 32, p15 + 33, p15 + 34, p15 + 35, p15 + 36, p15 + 37, p15 + 38, p15 + 39, 11};
p16 = newp;
Point(p16 + 1) = {9.767902623741261, 2.616738094572132, 0};
Point(p16 + 2) = {9.72320242034826, 2.802927841487996, 0};
Point(p16 + 3) = {9.649926057180002, 2.97983263125018, 0};
Point(p16 + 4) = {9.549877841487996, 3.143096480821404, 0};
Point(p16 + 5) = {9.425521292383573, 3.288699292383571, 0};
Point(p16 + 6) = {9.279918480821404, 3.413055841487996, 0};
Point(p16 + 7) = {9.116654631250181, 3.513104057180001, 0};
Point(p16 + 8) = {8.939749841487997, 3.586380420348259, 0};
Point(p16 + 9) = {8.753560094572133, 3.63108062374126, 0};
Point(p16 + 10) = {8.562670000000001, 3.646104, 0};
Point(p16 + 11) = {8.371779905427868, 3.63108062374126, 0};
Point(p16 + 12) = {8.185590158512005, 3.586380420348259, 0};
Point(p16 + 13) = {8.00868536874982, 3.513104057180001, 0};
Point(p16 + 14) = {7.845421519178597, 3.413055841487996, 0};
Point(p16 + 15) = {7.699818707616429, 3.288699292383572, 0};
Point(p16 + 16) = {7.575462158512005, 3.143096480821404, 0};
Point(p16 + 17) = {7.475413942819999, 2.97983263125018, 0};
Point(p16 + 18) = {7.402137579651741, 2.802927841487996, 0};
Point(p16 + 19) = {7.357437376258741, 2.616738094572132, 0};
Point(p16 + 20) = {7.342414000000001, 2.425848, 0};
Point(p16 + 21) = {7.357437376258741, 2.234957905427868, 0};
Point(p16 + 22) = {7.402137579651741, 2.048768158512003, 0};
Point(p16 + 23) = {7.475413942819999, 1.87186336874982, 0};
Point(p16 + 24) = {7.575462158512004, 1.708599519178596, 0};
Point(p16 + 25) = {7.699818707616429, 1.562996707616428, 0};
Point(p16 + 26) = {7.845421519178596, 1.438640158512004, 0};
Point(p16 + 27) = {8.00868536874982, 1.338591942819999, 0};
Point(p16 + 28) = {8.185590158512005, 1.265315579651741, 0};
Point(p16 + 29) = {8.371779905427868, 1.22061537625874, 0};
Point(p16 + 30) = {8.562670000000001, 1.205592, 0};
Point(p16 + 31) = {8.753560094572132, 1.220615376258739, 0};
Point(p16 + 32) = {8.939749841487997, 1.265315579651741, 0};
Point(p16 + 33) = {9.116654631250181, 1.338591942819999, 0};
Point(p16 + 34) = {9.279918480821404, 1.438640158512004, 0};
Point(p16 + 35) = {9.425521292383571, 1.562996707616428, 0};
Point(p16 + 36) = {9.549877841487996, 1.708599519178595, 0};
Point(p16 + 37) = {9.649926057180002, 1.871863368749819, 0};
Point(p16 + 38) = {9.72320242034826, 2.048768158512004, 0};
Point(p16 + 39) = {9.767902623741261, 2.234957905427867, 0};
Spline(16) = {12, p16 + 1, p16 + 2, p16 + 3, p16 + 4, p16 + 5, p16 + 6, p16 + 7, p16 + 8, p16 + 9, p16 + 10, p16 + 11, p16 + 12, p16 + 13, p16 + 14, p16 + 15, p16 + 16, p16 + 17, p16 + 18, p16 + 19, p16 + 20, p16 + 21, p16 + 22, p16 + 23, p16 + 24, p16 + 25, p16 + 26, p16 + 27, p16 + 28, p16 + 29, p16 + 30, p16 + 31, p16 + 32, p16 + 33, p16 + 34, p16 + 35, p16 + 36, p16 + 37, p16 + 38, p16 + 39, 12};
Line(17) = {11, 8};
Line(18) = {12, 9};
Curve Loop(1) = {-1, 4, 3, -2};
Plane Surface(1) = {1};
Curve Loop(2) = {-5, 1, 7, -6};
Plane Surface(2) = {2};
Curve Loop(3) = {-2, 7, 9, -8, -10, -11};
Plane Surface(3) = {3};
Curve Loop(4) = {-12, 3, 8, -13};
Plane Surface(4) = {4};
Curve Loop(5) = {-4, 5, 14, -12, -15, -16};
Plane Surface(5) = {5};
Curve Loop(6) = {-6, 14, 13, -9};
Plane Surface(6) = {6};
Curve Loop(7) = {-10, -17, 15, 17};
Surface(7) = {7};
Curve Loop(8) = {-11, -18, 16, 18};
Surface(8) = {8};
Surface Loop(1) = {1, 2, 3, 4, 5, 6, 7, 8};
Volume(1) = {1};
Physical Surface("INFLOW") = {1};
Physical Surface("OUTFLOW") = {6};
Physical Surface("OBSTACLE") = {7, 8};
Physical Surface("WALL_Y") = {2, 4};
Physical Surface("WALL_Z") = {3, 5};
Physical Volume("FLUID") = {1};
