cl__1 = 3.808466;
cl__2 = 0.850209;
cl__3 = 0.922594;
cl__4 = 0.134934;
Point(1) = {0.941586, -3.477076, 1, cl__1};
Point(2) = {0.941586, -3.477076, 0, cl__1};
Point(3) = {0.941586, 4.81976, 1, cl__1};
Point(4) = {0.941586, 4.81976, 0, cl__1};
Point(5) = {37.858046, -3.477076, 0, cl__2};
Point(6) = {37.858046, -3.477076, 1, cl__2};
Point(7) = {37.858046, 4.81976, 1, cl__3};
Point(8) = {29.91006, -0.2197100000000003, 1, cl__4};
Point(9) = {37.858046, 4.81976, 0, cl__3};
Point(10) = {29.91006, -0.2197100000000003, 0, cl__4};
Line(1) = {2, 1};
Line(2) = {1, 3};
Line(3) = {4, 3};
Line(4) = {2, 4};
Line(5) = {2, 5};
Line(6) = {5, 6};
Line(7) = {1, 6};
Line(8) = {3, 7};
Line(9) = {6, 7};
p10 = newp;
Point(p10 + 1) = {29.89344737318698, -0.008626562508149832, 1};
Point(p10 + 2) = {29.84401855075422, 0.1972593002068859, 1};
Point(p10 + 3) = {29.76299063435486, 0.3928779949090597, 1};
Point(p10 + 4) = {29.65235880020688, 0.573412740113578, 1};
Point(p10 + 5) = {29.51484717123304, 0.7344181712330371, 1};
Point(p10 + 6) = {29.35384174011358, 0.8719298002068859, 1};
Point(p10 + 7) = {29.17330699490906, 0.9825616343548563, 1};
Point(p10 + 8) = {28.97768830020689, 1.063589550754219, 1};
Point(p10 + 9) = {28.77180243749185, 1.113018373186984, 1};
Point(p10 + 10) = {28.560719, 1.129631, 1};
Point(p10 + 11) = {28.34963556250815, 1.113018373186983, 1};
Point(p10 + 12) = {28.14374969979311, 1.063589550754219, 1};
Point(p10 + 13) = {27.94813100509094, 0.9825616343548566, 1};
Point(p10 + 14) = {27.76759625988642, 0.8719298002068859, 1};
Point(p10 + 15) = {27.60659082876696, 0.7344181712330372, 1};
Point(p10 + 16) = {27.46907919979311, 0.5734127401135781, 1};
Point(p10 + 17) = {27.35844736564514, 0.3928779949090599, 1};
Point(p10 + 18) = {27.27741944924578, 0.197259300206886, 1};
Point(p10 + 19) = {27.22799062681301, -0.008626562508149693, 1};
Point(p10 + 20) = {27.211378, -0.2197099999999998, 1};
Point(p10 + 21) = {27.22799062681301, -0.43079343749185, 1};
Point(p10 + 22) = {27.27741944924578, -0.6366793002068863, 1};
Point(p10 + 23) = {27.35844736564514, -0.832297994909059, 1};
Point(p10 + 24) = {27.46907919979311, -1.012832740113578, 1};
Point(p10 + 25) = {27.60659082876696, -1.173838171233037, 1};
Point(p10 + 26) = {27.76759625988642, -1.311349800206886, 1};
Point(p10 + 27) = {27.94813100509094, -1.421981634354856, 1};
Point(p10 + 28) = {28.14374969979311, -1.503009550754219, 1};
Point(p10 + 29) = {28.34963556250815, -1.552438373186984, 1};
Point(p10 + 30) = {28.560719, -1.569051, 1};
Point(p10 + 31) = {28.77180243749185, -1.552438373186984, 1};
Point(p10 + 32) = {28.97768830020689, -1.503009550754219, 1};
Point(p10 + 33) = {29.17330699490906, -1.421981634354857, 1};
Point(p10 + 34) = {29.35384174011358, -1.311349800206886, 1};
Point(p10 + 35) = {29.51484717123304, -1.173838171233037, 1};
Point(p10 + 36) = {29.65235880020688, -1.012832740113578, 1};
Point(p10 + 37) = {29.76299063435486, -0.83229799490906, 1};
Point(p10 + 38) = {29.84401855075422, -0.6366793002068861, 1};
Point(p10 + 39) = {29.89344737318698, -0.4307934374918504, 1};
Spline(10) = {8, p10 + 1, p10 + 2, p10 + 3, p10 + 4, p10 + 5, p10 + 6, p10 + 7, p10 + 8, p10 + 9, p10 + 10, p10 + 11, p10 + 12, p10 + 13, p10 + 14, p10 + 15, p10 + 16, p10 + 17, p10 + 18, p10 + 19, p10 + 20, p10 + 21, p10 + 22, p10 + 23, p10 + 24, p10 + 25, p10 + 26, p10 + 27, p10 + 28, p10 + 29, p10 + 30, p10 + 31, p10 + 32, p10 + 33, p10 + 34, p10 + 35, p10 + 36, p10 + 37, p10 + 38, p10 + 39, 8};
Line(11) = {4, 9};
Line(12) = {9, 7};
Line(13) = {5, 9};
p14 = newp;
Point(p14 + 1) = {29.89344737318698, -0.008626562508149832, 0};
Point(p14 + 2) = {29.84401855075422, 0.1972593002068859, 0};
Point(p14 + 3) = {29.76299063435486, 0.3928779949090597, 0};
Point(p14 + 4) = {29.65235880020688, 0.573412740113578, 0};
Point(p14 + 5) = {29.51484717123304, 0.7344181712330371, 0};
Point(p14 + 6) = {29.35384174011358, 0.8719298002068859, 0};
Point(p14 + 7) = {29.17330699490906, 0.9825616343548563, 0};
Point(p14 + 8) = {28.97768830020689, 1.063589550754219, 0};
Point(p14 + 9) = {28.77180243749185, 1.113018373186984, 0};
Point(p14 + 10) = {28.560719, 1.129631, 0};
Point(p14 + 11) = {28.34963556250815, 1.113018373186983, 0};
Point(p14 + 12) = {28.14374969979311, 1.063589550754219, 0};
Point(p14 + 13) = {27.94813100509094, 0.9825616343548566, 0};
Point(p14 + 14) = {27.76759625988642, 0.8719298002068859, 0};
Point(p14 + 15) = {27.60659082876696, 0.7344181712330372, 0};
Point(p14 + 16) = {27.46907919979311, 0.5734127401135781, 0};
Point(p14 + 17) = {27.35844736564514, 0.3928779949090599, 0};
Point(p14 + 18) = {27.27741944924578, 0.197259300206886, 0};
Point(p14 + 19) = {27.22799062681301, -0.008626562508149693, 0};
Point(p14 + 20) = {27.211378, -0.2197099999999998, 0};
Point(p14 + 21) = {27.22799062681301, -0.43079343749185, 0};
Point(p14 + 22) = {27.27741944924578, -0.6366793002068863, 0};
Point(p14 + 23) = {27.35844736564514, -0.832297994909059, 0};
Point(p14 + 24) = {27.46907919979311, -1.012832740113578, 0};
Point(p14 + 25) = {27.60659082876696, -1.173838171233037, 0};
Point(p14 + 26) = {27.76759625988642, -1.311349800206886, 0};
Point(p14 + 27) = {27.94813100509094, -1.421981634354856, 0};
Point(p14 + 28) = {28.14374969979311, -1.503009550754219, 0};
Point(p14 + 29) = {28.34963556250815, -1.552438373186984, 0};
Point(p14 + 30) = {28.560719, -1.569051, 0};
Point(p14 + 31) = {28.77180243749185, -1.552438373186984, 0};
Point(p14 + 32) = {28.97768830020689, -1.503009550754219, 0};
Point(p14 + 33) = {29.17330699490906, -1.421981634354857, 0};
Point(p14 + 34) = {29.35384174011358, -1.311349800206886, 0};
Point(p14 + 35) = {29.51484717123304, -1.173838171233037, 0};
Point(p14 + 36) = {29.65235880020688, -1.012832740113578, 0};
Point(p14 + 37) = {29.76299063435486, -0.83229799490906, 0};
Point(p14 + 38) = {29.84401855075422, -0.6366793002068861, 0};
Point(p14 + 39) = {29.89344737318698, -0.4307934374918504, 0};
Spline(14) = {10, p14 + 1, p14 + 2, p14 + 3, p14 + 4, p14 + 5, p14 + 6, p14 + 7, p14 + 8, p14 + 9, p14 + 10, p14 + 11, p14 + 12, p14 + 13, p14 + 14, p14 + 15, p14 + 16, p14 + 17, p14 + 18, p14 + 19, p14 + 20, p14 + 21, p14 + 22, p14 + 23, p14 + 24, p14 + 25, p14 + 26, p14 + 27, p14 + 28, p14 + 29, p14 + 30, p14 + 31, p14 + 32, p14 + 33, p14 + 34, p14 + 35, p14 + 36, p14 + 37, p14 + 38, p14 + 39, 10};
Line(15) = {10, 8};
Curve Loop(1) = {-1, 4, 3, -2};
Plane Surface(1) = {1};
Curve Loop(2) = {-5, 1, 7, -6};
Plane Surface(2) = {2};
Curve Loop(3) = {-2, 7, 9, -8, -10};
Plane Surface(3) = {3};
Curve Loop(4) = {-11, 3, 8, -12};
Plane Surface(4) = {4};
Curve Loop(5) = {-4, 5, 13, -11, -14};
Plane Surface(5) = {5};
Curve Loop(6) = {-6, 13, 12, -9};
Plane Surface(6) = {6};
Curve Loop(7) = {-10, -15, 14, 15};
Surface(7) = {7};
Surface Loop(1) = {1, 2, 3, 4, 5, 6, 7};
Volume(1) = {1};
Physical Surface("INFLOW") = {1};
Physical Surface("OUTFLOW") = {6};
Physical Surface("OBSTACLE") = {7};
Physical Surface("WALL_Y") = {2, 4};
Physical Surface("WALL_Z") = {3, 5};
Physical Volume("FLUID") = {1};
