cl__1 = 3.35784;
cl__2 = 0.601143;
cl__3 = 0.059799;
cl__4 = 0.058195;
Point(1) = {0.519667, -4.230328, 1, cl__1};
Point(2) = {0.519667, -4.230328, 0, cl__1};
Point(3) = {0.519667, 4.725595, 1, cl__2};
Point(4) = {0.519667, 4.725595, 0, cl__2};
Point(5) = {33.27847, -4.230328, 0, cl__1};
Point(6) = {33.27847, -4.230328, 1, cl__1};
Point(7) = {33.27847, 4.725595, 1, cl__2};
Point(8) = {27.980935, -1.242477, 1, cl__3};
Point(9) = {24.264251, 2.941462, 1, cl__4};
Point(10) = {33.27847, 4.725595, 0, cl__2};
Point(11) = {27.980935, -1.242477, 0, cl__3};
Point(12) = {24.264251, 2.941462, 0, cl__4};
Line(1) = {2, 1};
Line(2) = {1, 3};
Line(3) = {4, 3};
Line(4) = {2, 4};
Line(5) = {2, 5};
Line(6) = {5, 6};
Line(7) = {1, 6};
Line(8) = {3, 7};
Line(9) = {6, 7};
p10 = newp;
Point(p10 + 1) = {27.97357277541581, -1.148931067119523, 1};
Point(p10 + 2) = {27.95166738406631, -1.057688545567714, 1};
Point(p10 + 3) = {27.91575820938635, -0.9709961290417479, 1};
Point(p10 + 4) = {27.86672945443229, -0.8909884725521287, 1};
Point(p10 + 5) = {27.80578836986818, -0.8196356301318189, 1};
Point(p10 + 6) = {27.73443552744787, -0.758694545567714, 1};
Point(p10 + 7) = {27.65442787095825, -0.7096657906136464, 1};
Point(p10 + 8) = {27.56773545443229, -0.6737566159336938, 1};
Point(p10 + 9) = {27.47649293288048, -0.6518512245841949, 1};
Point(p10 + 10) = {27.382947, -0.6444890000000001, 1};
Point(p10 + 11) = {27.28940106711952, -0.6518512245841949, 1};
Point(p10 + 12) = {27.19815854556771, -0.6737566159336937, 1};
Point(p10 + 13) = {27.11146612904175, -0.7096657906136463, 1};
Point(p10 + 14) = {27.03145847255213, -0.758694545567714, 1};
Point(p10 + 15) = {26.96010563013182, -0.8196356301318188, 1};
Point(p10 + 16) = {26.89916454556771, -0.8909884725521287, 1};
Point(p10 + 17) = {26.85013579061365, -0.9709961290417479, 1};
Point(p10 + 18) = {26.81422661593369, -1.057688545567714, 1};
Point(p10 + 19) = {26.7923212245842, -1.148931067119523, 1};
Point(p10 + 20) = {26.784959, -1.242477, 1};
Point(p10 + 21) = {26.7923212245842, -1.336022932880478, 1};
Point(p10 + 22) = {26.81422661593369, -1.427265454432286, 1};
Point(p10 + 23) = {26.85013579061365, -1.513957870958252, 1};
Point(p10 + 24) = {26.89916454556771, -1.593965527447871, 1};
Point(p10 + 25) = {26.96010563013182, -1.665318369868181, 1};
Point(p10 + 26) = {27.03145847255213, -1.726259454432286, 1};
Point(p10 + 27) = {27.11146612904175, -1.775288209386354, 1};
Point(p10 + 28) = {27.19815854556771, -1.811197384066306, 1};
Point(p10 + 29) = {27.28940106711952, -1.833102775415805, 1};
Point(p10 + 30) = {27.382947, -1.840465, 1};
Point(p10 + 31) = {27.47649293288048, -1.833102775415805, 1};
Point(p10 + 32) = {27.56773545443229, -1.811197384066306, 1};
Point(p10 + 33) = {27.65442787095825, -1.775288209386354, 1};
Point(p10 + 34) = {27.73443552744787, -1.726259454432286, 1};
Point(p10 + 35) = {27.80578836986818, -1.665318369868181, 1};
Point(p10 + 36) = {27.86672945443229, -1.593965527447871, 1};
Point(p10 + 37) = {27.91575820938635, -1.513957870958252, 1};
Point(p10 + 38) = {27.95166738406631, -1.427265454432286, 1};
Point(p10 + 39) = {27.97357277541581, -1.336022932880478, 1};
Spline(10) = {8, p10 + 1, p10 + 2, p10 + 3, p10 + 4, p10 + 5, p10 + 6, p10 + 7, p10 + 8, p10 + 9, p10 + 10, p10 + 11, p10 + 12, p10 + 13, p10 + 14, p10 + 15, p10 + 16, p10 + 17, p10 + 18, p10 + 19, p10 + 20, p10 + 21, p10 + 22, p10 + 23, p10 + 24, p10 + 25, p10 + 26, p10 + 27, p10 + 28, p10 + 29, p10 + 30, p10 + 31, p10 + 32, p10 + 33, p10 + 34, p10 + 35, p10 + 36, p10 + 37, p10 + 38, p10 + 39, 8};
p11 = newp;
Point(p11 + 1) = {24.25708626674432, 3.032498567626767, 1};
Point(p11 + 2) = {24.23576848648841, 3.121293512825518, 1};
Point(p11 + 3) = {24.20082257373185, 3.20566040935193, 1};
Point(p11 + 4) = {24.15310901282552, 3.283521864215848, 1};
Point(p11 + 5) = {24.09380266999117, 3.352960669991168, 1};
Point(p11 + 6) = {24.02436386421585, 3.412267012825517, 1};
Point(p11 + 7) = {23.94650240935193, 3.459980573731848, 1};
Point(p11 + 8) = {23.86213551282552, 3.494926486488416, 1};
Point(p11 + 9) = {23.77334056762676, 3.516244266744319, 1};
Point(p11 + 10) = {23.682304, 3.523409, 1};
Point(p11 + 11) = {23.59126743237323, 3.516244266744319, 1};
Point(p11 + 12) = {23.50247248717448, 3.494926486488416, 1};
Point(p11 + 13) = {23.41810559064807, 3.459980573731848, 1};
Point(p11 + 14) = {23.34024413578415, 3.412267012825517, 1};
Point(p11 + 15) = {23.27080533000883, 3.352960669991168, 1};
Point(p11 + 16) = {23.21149898717448, 3.283521864215848, 1};
Point(p11 + 17) = {23.16378542626815, 3.20566040935193, 1};
Point(p11 + 18) = {23.12883951351158, 3.121293512825518, 1};
Point(p11 + 19) = {23.10752173325568, 3.032498567626767, 1};
Point(p11 + 20) = {23.100357, 2.941462, 1};
Point(p11 + 21) = {23.10752173325568, 2.850425432373233, 1};
Point(p11 + 22) = {23.12883951351158, 2.761630487174482, 1};
Point(p11 + 23) = {23.16378542626815, 2.67726359064807, 1};
Point(p11 + 24) = {23.21149898717448, 2.599402135784152, 1};
Point(p11 + 25) = {23.27080533000883, 2.529963330008832, 1};
Point(p11 + 26) = {23.34024413578415, 2.470656987174483, 1};
Point(p11 + 27) = {23.41810559064807, 2.422943426268152, 1};
Point(p11 + 28) = {23.50247248717448, 2.387997513511584, 1};
Point(p11 + 29) = {23.59126743237323, 2.366679733255681, 1};
Point(p11 + 30) = {23.682304, 2.359515, 1};
Point(p11 + 31) = {23.77334056762676, 2.366679733255681, 1};
Point(p11 + 32) = {23.86213551282552, 2.387997513511584, 1};
Point(p11 + 33) = {23.94650240935193, 2.422943426268152, 1};
Point(p11 + 34) = {24.02436386421585, 2.470656987174483, 1};
Point(p11 + 35) = {24.09380266999117, 2.529963330008832, 1};
Point(p11 + 36) = {24.15310901282552, 2.599402135784152, 1};
Point(p11 + 37) = {24.20082257373185, 2.67726359064807, 1};
Point(p11 + 38) = {24.23576848648841, 2.761630487174482, 1};
Point(p11 + 39) = {24.25708626674432, 2.850425432373233, 1};
Spline(11) = {9, p11 + 1, p11 + 2, p11 + 3, p11 + 4, p11 + 5, p11 + 6, p11 + 7, p11 + 8, p11 + 9, p11 + 10, p11 + 11, p11 + 12, p11 + 13, p11 + 14, p11 + 15, p11 + 16, p11 + 17, p11 + 18, p11 + 19, p11 + 20, p11 + 21, p11 + 22, p11 + 23, p11 + 24, p11 + 25, p11 + 26, p11 + 27, p11 + 28, p11 + 29, p11 + 30, p11 + 31, p11 + 32, p11 + 33, p11 + 34, p11 + 35, p11 + 36, p11 + 37, p11 + 38, p11 + 39, 9};
Line(12) = {4, 10};
Line(13) = {10, 7};
Line(14) = {5, 10};
p15 = newp;
Point(p15 + 1) = {27.97357277541581, -1.148931067119523, 0};
Point(p15 + 2) = {27.95166738406631, -1.057688545567714, 0};
Point(p15 + 3) = {27.91575820938635, -0.9709961290417479, 0};
Point(p15 + 4) = {27.86672945443229, -0.8909884725521287, 0};
Point(p15 + 5) = {27.80578836986818, -0.8196356301318189, 0};
Point(p15 + 6) = {27.73443552744787, -0.758694545567714, 0};
Point(p15 + 7) = {27.65442787095825, -0.7096657906136464, 0};
Point(p15 + 8) = {27.56773545443229, -0.6737566159336938, 0};
Point(p15 + 9) = {27.47649293288048, -0.6518512245841949, 0};
Point(p15 + 10) = {27.382947, -0.6444890000000001, 0};
Point(p15 + 11) = {27.28940106711952, -0.6518512245841949, 0};
Point(p15 + 12) = {27.19815854556771, -0.6737566159336937, 0};
Point(p15 + 13) = {27.11146612904175, -0.7096657906136463, 0};
Point(p15 + 14) = {27.03145847255213, -0.758694545567714, 0};
Point(p15 + 15) = {26.96010563013182, -0.8196356301318188, 0};
Point(p15 + 16) = {26.89916454556771, -0.8909884725521287, 0};
Point(p15 + 17) = {26.85013579061365, -0.9709961290417479, 0};
Point(p15 + 18) = {26.81422661593369, -1.057688545567714, 0};
Point(p15 + 19) = {26.7923212245842, -1.148931067119523, 0};
Point(p15 + 20) = {26.784959, -1.242477, 0};
Point(p15 + 21) = {26.7923212245842, -1.336022932880478, 0};
Point(p15 + 22) = {26.81422661593369, -1.427265454432286, 0};
Point(p15 + 23) = {26.85013579061365, -1.513957870958252, 0};
Point(p15 + 24) = {26.89916454556771, -1.593965527447871, 0};
Point(p15 + 25) = {26.96010563013182, -1.665318369868181, 0};
Point(p15 + 26) = {27.03145847255213, -1.726259454432286, 0};
Point(p15 + 27) = {27.11146612904175, -1.775288209386354, 0};
Point(p15 + 28) = {27.19815854556771, -1.811197384066306, 0};
Point(p15 + 29) = {27.28940106711952, -1.833102775415805, 0};
Point(p15 + 30) = {27.382947, -1.840465, 0};
Point(p15 + 31) = {27.47649293288048, -1.833102775415805, 0};
Point(p15 + 32) = {27.56773545443229, -1.811197384066306, 0};
Point(p15 + 33) = {27.65442787095825, -1.775288209386354, 0};
Point(p15 + 34) = {27.73443552744787, -1.726259454432286, 0};
Point(p15 + 35) = {27.80578836986818, -1.665318369868181, 0};
Point(p15 + 36) = {27.86672945443229, -1.593965527447871, 0};
Point(p15 + 37) = {27.91575820938635, -1.513957870958252, 0};
Point(p15 + 38) = {27.95166738406631, -1.427265454432286, 0};
Point(p15 + 39) = {27.97357277541581, -1.336022932880478, 0};
Spline(15) = {11, p15 + 1, p15 + 2, p15 + 3, p15 + 4, p15 + 5, p15 + 6, p15 + 7, p15 + 8, p15 + 9, p15 + 10, p15 + 11, p15 + 12, p15 + 13, p15 + 14, p15 + 15, p15 + 16, p15 + 17, p15 + 18, p15 + 19, p15 + 20, p15 + 21, p15 + 22, p15 + 23, p15 + 24, p15 + 25, p15 + 26, p15 + 27, p15 + 28, p15 + 29, p15 + 30, p15 + 31, p15 + 32, p15 + 33, p15 + 34, p15 + 35, p15 + 36, p15 + 37, p15 + 38, p15 + 39, 11};
p16 = newp;
Point(p16 + 1) = {24.25708626674432, 3.032498567626767, 0};
Point(p16 + 2) = {24.23576848648841, 3.121293512825518, 0};
Point(p16 + 3) = {24.20082257373185, 3.20566040935193, 0};
Point(p16 + 4) = {24.15310901282552, 3.283521864215848, 0};
Point(p16 + 5) = {24.09380266999117, 3.352960669991168, 0};
Point(p16 + 6) = {24.02436386421585, 3.412267012825517, 0};
Point(p16 + 7) = {23.94650240935193, 3.459980573731848, 0};
Point(p16 + 8) = {23.86213551282552, 3.494926486488416, 0};
Point(p16 + 9) = {23.77334056762676, 3.516244266744319, 0};
Point(p16 + 10) = {23.682304, 3.523409, 0};
Point(p16 + 11) = {23.59126743237323, 3.516244266744319, 0};
Point(p16 + 12) = {23.50247248717448, 3.494926486488416, 0};
Point(p16 + 13) = {23.41810559064807, 3.459980573731848, 0};
Point(p16 + 14) = {23.34024413578415, 3.412267012825517, 0};
Point(p16 + 15) = {23.27080533000883, 3.352960669991168, 0};
Point(p16 + 16) = {23.21149898717448, 3.283521864215848, 0};
Point(p16 + 17) = {23.16378542626815, 3.20566040935193, 0};
Point(p16 + 18) = {23.12883951351158, 3.121293512825518, 0};
Point(p16 + 19) = {23.10752173325568, 3.032498567626767, 0};
Point(p16 + 20) = {23.100357, 2.941462, 0};
Point(p16 + 21) = {23.10752173325568, 2.850425432373233, 0};
Point(p16 + 22) = {23.12883951351158, 2.761630487174482, 0};
Point(p16 + 23) = {23.16378542626815, 2.67726359064807, 0};
Point(p16 + 24) = {23.21149898717448, 2.599402135784152, 0};
Point(p16 + 25) = {23.27080533000883, 2.529963330008832, 0};
Point(p16 + 26) = {23.34024413578415, 2.470656987174483, 0};
Point(p16 + 27) = {23.41810559064807, 2.422943426268152, 0};
Point(p16 + 28) = {23.50247248717448, 2.387997513511584, 0};
Point(p16 + 29) = {23.59126743237323, 2.366679733255681, 0};
Point(p16 + 30) = {23.682304, 2.359515, 0};
Point(p16 + 31) = {23.77334056762676, 2.366679733255681, 0};
Point(p16 + 32) = {23.86213551282552, 2.387997513511584, 0};
Point(p16 + 33) = {23.94650240935193, 2.422943426268152, 0};
Point(p16 + 34) = {24.02436386421585, 2.470656987174483, 0};
Point(p16 + 35) = {24.09380266999117, 2.529963330008832, 0};
Point(p16 + 36) = {24.15310901282552, 2.599402135784152, 0};
Point(p16 + 37) = {24.20082257373185, 2.67726359064807, 0};
Point(p16 + 38) = {24.23576848648841, 2.761630487174482, 0};
Point(p16 + 39) = {24.25708626674432, 2.850425432373233, 0};
Spline(16) = {12, p16 + 1, p16 + 2, p16 + 3, p16 + 4, p16 + 5, p16 + 6, p16 + 7, p16 + 8, p16 + 9, p16 + 10, p16 + 11, p16 + 12, p16 + 13, p16 + 14, p16 + 15, p16 + 16, p16 + 17, p16 + 18, p16 + 19, p16 + 20, p16 + 21, p16 + 22, p16 + 23, p16 + 24, p16 + 25, p16 + 26, p16 + 27, p16 + 28, p16 + 29, p16 + 30, p16 + 31, p16 + 32, p16 + 33, p16 + 34, p16 + 35, p16 + 36, p16 + 37, p16 + 38, p16 + 39, 12};
Line(17) = {11, 8};
Line(18) = {12, 9};
Curve Loop(1) = {-1, 4, 3, -2};
Plane Surface(1) = {1};
Curve Loop(2) = {-5, 1, 7, -6};
Plane Surface(2) = {2};
Curve Loop(3) = {-2, 7, 9, -8, -10, -11};
Plane Surface(3) = {3};
Curve Loop(4) = {-12, 3, 8, -13};
Plane Surface(4) = {4};
Curve Loop(5) = {-4, 5, 14, -12, -15, -16};
Plane Surface(5) = {5};
Curve Loop(6) = {-6, 14, 13, -9};
Plane Surface(6) = {6};
Curve Loop(7) = {-10, -17, 15, 17};
Surface(7) = {7};
Curve Loop(8) = {-11, -18, 16, 18};
Surface(8) = {8};
Surface Loop(1) = {1, 2, 3, 4, 5, 6, 7, 8};
Volume(1) = {1};
Physical Surface("INFLOW") = {1};
Physical Surface("OUTFLOW") = {6};
Physical Surface("OBSTACLE") = {7, 8};
Physical Surface("WALL_Y") = {2, 4};
Physical Surface("WALL_Z") = {3, 5};
Physical Volume("FLUID") = {1};
