cl__1 = 0.6931079999999999;
cl__2 = 4.027925;
cl__3 = 0.07137499999999999;
cl__4 = 0.145732;
Point(1) = {0.550325, -4.744446, 1, cl__1};
Point(2) = {0.550325, -4.744446, 0, cl__1};
Point(3) = {0.550325, 4.845623, 1, cl__2};
Point(4) = {0.550325, 4.845623, 0, cl__2};
Point(5) = {39.992824, -4.744446, 0, cl__1};
Point(6) = {39.992824, -4.744446, 1, cl__1};
Point(7) = {39.992824, 4.845623, 1, cl__2};
Point(8) = {7.364998, -0.1377030000000002, 1, cl__3};
Point(9) = {19.654388, -0.7383640000000004, 1, cl__4};
Point(10) = {39.992824, 4.845623, 0, cl__2};
Point(11) = {7.364998, -0.1377030000000002, 0, cl__3};
Point(12) = {19.654388, -0.7383640000000004, 0, cl__4};
Line(1) = {2, 1};
Line(2) = {1, 3};
Line(3) = {4, 3};
Line(4) = {2, 4};
Line(5) = {2, 5};
Line(6) = {5, 6};
Line(7) = {1, 6};
Line(8) = {3, 7};
Line(9) = {6, 7};
p10 = newp;
Point(p10 + 1) = {7.356210590034758, -0.02604836988093033, 1};
Point(p10 + 2) = {7.330064735336117, 0.08285695268413559, 1};
Point(p10 + 3) = {7.287204233619875, 0.1863313572176023, 1};
Point(p10 + 4) = {7.228684452684136, 0.2818269604679958, 1};
Point(p10 + 5) = {7.155946343751555, 0.3669923437515547, 1};
Point(p10 + 6) = {7.070780960467996, 0.4397304526841356, 1};
Point(p10 + 7) = {6.975285357217603, 0.498250233619875, 1};
Point(p10 + 8) = {6.871810952684136, 0.541110735336117, 1};
Point(p10 + 9) = {6.76290563011907, 0.5672565900347578, 1};
Point(p10 + 10) = {6.651251, 0.576044, 1};
Point(p10 + 11) = {6.539596369880931, 0.5672565900347577, 1};
Point(p10 + 12) = {6.430691047315864, 0.541110735336117, 1};
Point(p10 + 13) = {6.327216642782398, 0.498250233619875, 1};
Point(p10 + 14) = {6.231721039532005, 0.4397304526841356, 1};
Point(p10 + 15) = {6.146555656248445, 0.3669923437515548, 1};
Point(p10 + 16) = {6.073817547315865, 0.2818269604679959, 1};
Point(p10 + 17) = {6.015297766380125, 0.1863313572176024, 1};
Point(p10 + 18) = {5.972437264663883, 0.08285695268413568, 1};
Point(p10 + 19) = {5.946291409965243, -0.02604836988093025, 1};
Point(p10 + 20) = {5.937504000000001, -0.1377029999999999, 1};
Point(p10 + 21) = {5.946291409965243, -0.2493576301190696, 1};
Point(p10 + 22) = {5.972437264663883, -0.3582629526841358, 1};
Point(p10 + 23) = {6.015297766380125, -0.4617373572176019, 1};
Point(p10 + 24) = {6.073817547315865, -0.5572329604679958, 1};
Point(p10 + 25) = {6.146555656248445, -0.6423983437515547, 1};
Point(p10 + 26) = {6.231721039532005, -0.7151364526841356, 1};
Point(p10 + 27) = {6.327216642782398, -0.773656233619875, 1};
Point(p10 + 28) = {6.430691047315864, -0.816516735336117, 1};
Point(p10 + 29) = {6.539596369880931, -0.8426625900347577, 1};
Point(p10 + 30) = {6.651251, -0.85145, 1};
Point(p10 + 31) = {6.76290563011907, -0.8426625900347579, 1};
Point(p10 + 32) = {6.871810952684136, -0.816516735336117, 1};
Point(p10 + 33) = {6.975285357217603, -0.773656233619875, 1};
Point(p10 + 34) = {7.070780960467996, -0.7151364526841357, 1};
Point(p10 + 35) = {7.155946343751555, -0.6423983437515549, 1};
Point(p10 + 36) = {7.228684452684136, -0.557232960467996, 1};
Point(p10 + 37) = {7.287204233619875, -0.4617373572176025, 1};
Point(p10 + 38) = {7.330064735336117, -0.3582629526841358, 1};
Point(p10 + 39) = {7.356210590034758, -0.2493576301190698, 1};
Spline(10) = {8, p10 + 1, p10 + 2, p10 + 3, p10 + 4, p10 + 5, p10 + 6, p10 + 7, p10 + 8, p10 + 9, p10 + 10, p10 + 11, p10 + 12, p10 + 13, p10 + 14, p10 + 15, p10 + 16, p10 + 17, p10 + 18, p10 + 19, p10 + 20, p10 + 21, p10 + 22, p10 + 23, p10 + 24, p10 + 25, p10 + 26, p10 + 27, p10 + 28, p10 + 29, p10 + 30, p10 + 31, p10 + 32, p10 + 33, p10 + 34, p10 + 35, p10 + 36, p10 + 37, p10 + 38, p10 + 39, 8};
p11 = newp;
Point(p11 + 1) = {19.63644599713943, -0.5103892382765008, 1};
Point(p11 + 2) = {19.58306178021422, -0.2880279717914905, 1};
Point(p11 + 3) = {19.49554984581714, -0.07675547290056328, 1};
Point(p11 + 4) = {19.37606502820851, 0.1182260283003623, 1};
Point(p11 + 5) = {19.22754944014522, 0.2921154401452168, 1};
Point(p11 + 6) = {19.05366002830036, 0.4406310282085095, 1};
Point(p11 + 7) = {18.85867852709944, 0.5601158458171436, 1};
Point(p11 + 8) = {18.64740602820851, 0.6476277802142205, 1};
Point(p11 + 9) = {18.4250447617235, 0.7010119971394249, 1};
Point(p11 + 10) = {18.19707, 0.7189539999999999, 1};
Point(p11 + 11) = {17.9690952382765, 0.7010119971394246, 1};
Point(p11 + 12) = {17.74673397179149, 0.6476277802142205, 1};
Point(p11 + 13) = {17.53546147290056, 0.5601158458171438, 1};
Point(p11 + 14) = {17.34047997169964, 0.4406310282085095, 1};
Point(p11 + 15) = {17.16659055985478, 0.2921154401452171, 1};
Point(p11 + 16) = {17.01807497179149, 0.1182260283003624, 1};
Point(p11 + 17) = {16.89859015418286, -0.07675547290056317, 1};
Point(p11 + 18) = {16.81107821978578, -0.2880279717914903, 1};
Point(p11 + 19) = {16.75769400286057, -0.5103892382765007, 1};
Point(p11 + 20) = {16.739752, -0.7383639999999998, 1};
Point(p11 + 21) = {16.75769400286057, -0.966338761723499, 1};
Point(p11 + 22) = {16.81107821978578, -1.18870002820851, 1};
Point(p11 + 23) = {16.89859015418286, -1.399972527099436, 1};
Point(p11 + 24) = {17.01807497179149, -1.594954028300362, 1};
Point(p11 + 25) = {17.16659055985478, -1.768843440145217, 1};
Point(p11 + 26) = {17.34047997169964, -1.917359028208509, 1};
Point(p11 + 27) = {17.53546147290056, -2.036843845817144, 1};
Point(p11 + 28) = {17.74673397179149, -2.124355780214221, 1};
Point(p11 + 29) = {17.9690952382765, -2.177739997139425, 1};
Point(p11 + 30) = {18.19707, -2.195682, 1};
Point(p11 + 31) = {18.4250447617235, -2.177739997139425, 1};
Point(p11 + 32) = {18.64740602820851, -2.124355780214221, 1};
Point(p11 + 33) = {18.85867852709944, -2.036843845817144, 1};
Point(p11 + 34) = {19.05366002830036, -1.91735902820851, 1};
Point(p11 + 35) = {19.22754944014522, -1.768843440145217, 1};
Point(p11 + 36) = {19.37606502820851, -1.594954028300362, 1};
Point(p11 + 37) = {19.49554984581714, -1.399972527099437, 1};
Point(p11 + 38) = {19.58306178021422, -1.18870002820851, 1};
Point(p11 + 39) = {19.63644599713943, -0.9663387617234995, 1};
Spline(11) = {9, p11 + 1, p11 + 2, p11 + 3, p11 + 4, p11 + 5, p11 + 6, p11 + 7, p11 + 8, p11 + 9, p11 + 10, p11 + 11, p11 + 12, p11 + 13, p11 + 14, p11 + 15, p11 + 16, p11 + 17, p11 + 18, p11 + 19, p11 + 20, p11 + 21, p11 + 22, p11 + 23, p11 + 24, p11 + 25, p11 + 26, p11 + 27, p11 + 28, p11 + 29, p11 + 30, p11 + 31, p11 + 32, p11 + 33, p11 + 34, p11 + 35, p11 + 36, p11 + 37, p11 + 38, p11 + 39, 9};
Line(12) = {4, 10};
Line(13) = {10, 7};
Line(14) = {5, 10};
p15 = newp;
Point(p15 + 1) = {7.356210590034758, -0.02604836988093033, 0};
Point(p15 + 2) = {7.330064735336117, 0.08285695268413559, 0};
Point(p15 + 3) = {7.287204233619875, 0.1863313572176023, 0};
Point(p15 + 4) = {7.228684452684136, 0.2818269604679958, 0};
Point(p15 + 5) = {7.155946343751555, 0.3669923437515547, 0};
Point(p15 + 6) = {7.070780960467996, 0.4397304526841356, 0};
Point(p15 + 7) = {6.975285357217603, 0.498250233619875, 0};
Point(p15 + 8) = {6.871810952684136, 0.541110735336117, 0};
Point(p15 + 9) = {6.76290563011907, 0.5672565900347578, 0};
Point(p15 + 10) = {6.651251, 0.576044, 0};
Point(p15 + 11) = {6.539596369880931, 0.5672565900347577, 0};
Point(p15 + 12) = {6.430691047315864, 0.541110735336117, 0};
Point(p15 + 13) = {6.327216642782398, 0.498250233619875, 0};
Point(p15 + 14) = {6.231721039532005, 0.4397304526841356, 0};
Point(p15 + 15) = {6.146555656248445, 0.3669923437515548, 0};
Point(p15 + 16) = {6.073817547315865, 0.2818269604679959, 0};
Point(p15 + 17) = {6.015297766380125, 0.1863313572176024, 0};
Point(p15 + 18) = {5.972437264663883, 0.08285695268413568, 0};
Point(p15 + 19) = {5.946291409965243, -0.02604836988093025, 0};
Point(p15 + 20) = {5.937504000000001, -0.1377029999999999, 0};
Point(p15 + 21) = {5.946291409965243, -0.2493576301190696, 0};
Point(p15 + 22) = {5.972437264663883, -0.3582629526841358, 0};
Point(p15 + 23) = {6.015297766380125, -0.4617373572176019, 0};
Point(p15 + 24) = {6.073817547315865, -0.5572329604679958, 0};
Point(p15 + 25) = {6.146555656248445, -0.6423983437515547, 0};
Point(p15 + 26) = {6.231721039532005, -0.7151364526841356, 0};
Point(p15 + 27) = {6.327216642782398, -0.773656233619875, 0};
Point(p15 + 28) = {6.430691047315864, -0.816516735336117, 0};
Point(p15 + 29) = {6.539596369880931, -0.8426625900347577, 0};
Point(p15 + 30) = {6.651251, -0.85145, 0};
Point(p15 + 31) = {6.76290563011907, -0.8426625900347579, 0};
Point(p15 + 32) = {6.871810952684136, -0.816516735336117, 0};
Point(p15 + 33) = {6.975285357217603, -0.773656233619875, 0};
Point(p15 + 34) = {7.070780960467996, -0.7151364526841357, 0};
Point(p15 + 35) = {7.155946343751555, -0.6423983437515549, 0};
Point(p15 + 36) = {7.228684452684136, -0.557232960467996, 0};
Point(p15 + 37) = {7.287204233619875, -0.4617373572176025, 0};
Point(p15 + 38) = {7.330064735336117, -0.3582629526841358, 0};
Point(p15 + 39) = {7.356210590034758, -0.2493576301190698, 0};
Spline(15) = {11, p15 + 1, p15 + 2, p15 + 3, p15 + 4, p15 + 5, p15 + 6, p15 + 7, p15 + 8, p15 + 9, p15 + 10, p15 + 11, p15 + 12, p15 + 13, p15 + 14, p15 + 15, p15 + 16, p15 + 17, p15 + 18, p15 + 19, p15 + 20, p15 + 21, p15 + 22, p15 + 23, p15 + 24, p15 + 25, p15 + 26, p15 + 27, p15 + 28, p15 + 29, p15 + 30, p15 + 31, p15 + 32, p15 + 33, p15 + 34, p15 + 35, p15 + 36, p15 + 37, p15 + 38, p15 + 39, 11};
p16 = newp;
Point(p16 + 1) = {19.63644599713943, -0.5103892382765008, 0};
Point(p16 + 2) = {19.58306178021422, -0.2880279717914905, 0};
Point(p16 + 3) = {19.49554984581714, -0.07675547290056328, 0};
Point(p16 + 4) = {19.37606502820851, 0.1182260283003623, 0};
Point(p16 + 5) = {19.22754944014522, 0.2921154401452168, 0};
Point(p16 + 6) = {19.05366002830036, 0.4406310282085095, 0};
Point(p16 + 7) = {18.85867852709944, 0.5601158458171436, 0};
Point(p16 + 8) = {18.64740602820851, 0.6476277802142205, 0};
Point(p16 + 9) = {18.4250447617235, 0.7010119971394249, 0};
Point(p16 + 10) = {18.19707, 0.7189539999999999, 0};
Point(p16 + 11) = {17.9690952382765, 0.7010119971394246, 0};
Point(p16 + 12) = {17.74673397179149, 0.6476277802142205, 0};
Point(p16 + 13) = {17.53546147290056, 0.5601158458171438, 0};
Point(p16 + 14) = {17.34047997169964, 0.4406310282085095, 0};
Point(p16 + 15) = {17.16659055985478, 0.2921154401452171, 0};
Point(p16 + 16) = {17.01807497179149, 0.1182260283003624, 0};
Point(p16 + 17) = {16.89859015418286, -0.07675547290056317, 0};
Point(p16 + 18) = {16.81107821978578, -0.2880279717914903, 0};
Point(p16 + 19) = {16.75769400286057, -0.5103892382765007, 0};
Point(p16 + 20) = {16.739752, -0.7383639999999998, 0};
Point(p16 + 21) = {16.75769400286057, -0.966338761723499, 0};
Point(p16 + 22) = {16.81107821978578, -1.18870002820851, 0};
Point(p16 + 23) = {16.89859015418286, -1.399972527099436, 0};
Point(p16 + 24) = {17.01807497179149, -1.594954028300362, 0};
Point(p16 + 25) = {17.16659055985478, -1.768843440145217, 0};
Point(p16 + 26) = {17.34047997169964, -1.917359028208509, 0};
Point(p16 + 27) = {17.53546147290056, -2.036843845817144, 0};
Point(p16 + 28) = {17.74673397179149, -2.124355780214221, 0};
Point(p16 + 29) = {17.9690952382765, -2.177739997139425, 0};
Point(p16 + 30) = {18.19707, -2.195682, 0};
Point(p16 + 31) = {18.4250447617235, -2.177739997139425, 0};
Point(p16 + 32) = {18.64740602820851, -2.124355780214221, 0};
Point(p16 + 33) = {18.85867852709944, -2.036843845817144, 0};
Point(p16 + 34) = {19.05366002830036, -1.91735902820851, 0};
Point(p16 + 35) = {19.22754944014522, -1.768843440145217, 0};
Point(p16 + 36) = {19.37606502820851, -1.594954028300362, 0};
Point(p16 + 37) = {19.49554984581714, -1.399972527099437, 0};
Point(p16 + 38) = {19.58306178021422, -1.18870002820851, 0};
Point(p16 + 39) = {19.63644599713943, -0.9663387617234995, 0};
Spline(16) = {12, p16 + 1, p16 + 2, p16 + 3, p16 + 4, p16 + 5, p16 + 6, p16 + 7, p16 + 8, p16 + 9, p16 + 10, p16 + 11, p16 + 12, p16 + 13, p16 + 14, p16 + 15, p16 + 16, p16 + 17, p16 + 18, p16 + 19, p16 + 20, p16 + 21, p16 + 22, p16 + 23, p16 + 24, p16 + 25, p16 + 26, p16 + 27, p16 + 28, p16 + 29, p16 + 30, p16 + 31, p16 + 32, p16 + 33, p16 + 34, p16 + 35, p16 + 36, p16 + 37, p16 + 38, p16 + 39, 12};
Line(17) = {11, 8};
Line(18) = {12, 9};
Curve Loop(1) = {-1, 4, 3, -2};
Plane Surface(1) = {1};
Curve Loop(2) = {-5, 1, 7, -6};
Plane Surface(2) = {2};
Curve Loop(3) = {-2, 7, 9, -8, -10, -11};
Plane Surface(3) = {3};
Curve Loop(4) = {-12, 3, 8, -13};
Plane Surface(4) = {4};
Curve Loop(5) = {-4, 5, 14, -12, -15, -16};
Plane Surface(5) = {5};
Curve Loop(6) = {-6, 14, 13, -9};
Plane Surface(6) = {6};
Curve Loop(7) = {-10, -17, 15, 17};
Surface(7) = {7};
Curve Loop(8) = {-11, -18, 16, 18};
Surface(8) = {8};
Surface Loop(1) = {1, 2, 3, 4, 5, 6, 7, 8};
Volume(1) = {1};
Physical Surface("INFLOW") = {1};
Physical Surface("OUTFLOW") = {6};
Physical Surface("OBSTACLE") = {7, 8};
Physical Surface("WALL_Y") = {2, 4};
Physical Surface("WALL_Z") = {3, 5};
Physical Volume("FLUID") = {1};
