cl__1 = 1;
cl__2 = 0.080929;
cl__3 = 0.134647;
Point(1) = {0.634294, -2.998117, 1, cl__1};
Point(2) = {0.634294, -2.998117, 0, cl__1};
Point(3) = {0.634294, 4.667171, 1, cl__1};
Point(4) = {0.634294, 4.667171, 0, cl__1};
Point(5) = {36.810557, -2.998117, 0, cl__1};
Point(6) = {36.810557, -2.998117, 1, cl__1};
Point(7) = {36.810557, 4.667171, 1, cl__1};
Point(8) = {17.49816, 0.8342319999999998, 1, cl__2};
Point(9) = {27.065116, 1.762697, 1, cl__3};
Point(10) = {36.810557, 4.667171, 0, cl__1};
Point(11) = {17.49816, 0.8342319999999998, 0, cl__2};
Point(12) = {27.065116, 1.762697, 0, cl__3};
Line(1) = {2, 1};
Line(2) = {1, 3};
Line(3) = {4, 3};
Line(4) = {2, 4};
Line(5) = {2, 5};
Line(6) = {5, 6};
Line(7) = {1, 6};
Line(8) = {3, 7};
Line(9) = {6, 7};
p10 = newp;
Point(p10 + 1) = {17.48819629716024, 0.9608328482124084, 1};
Point(p10 + 2) = {17.45855052807251, 1.084316363377701, 1};
Point(p10 + 3) = {17.4099526699604, 1.201641971534218, 1};
Point(p10 + 4) = {17.3435993633777, 1.309920726827775, 1};
Point(p10 + 5) = {17.26112444694646, 1.406486446946461, 1};
Point(p10 + 6) = {17.16455872682778, 1.488961363377701, 1};
Point(p10 + 7) = {17.05627997153422, 1.555314669960404, 1};
Point(p10 + 8) = {16.9389543633777, 1.603912528072505, 1};
Point(p10 + 9) = {16.81547084821241, 1.633558297160239, 1};
Point(p10 + 10) = {16.68887, 1.643522, 1};
Point(p10 + 11) = {16.56226915178759, 1.633558297160239, 1};
Point(p10 + 12) = {16.4387856366223, 1.603912528072505, 1};
Point(p10 + 13) = {16.32146002846578, 1.555314669960404, 1};
Point(p10 + 14) = {16.21318127317222, 1.488961363377701, 1};
Point(p10 + 15) = {16.11661555305354, 1.406486446946461, 1};
Point(p10 + 16) = {16.0341406366223, 1.309920726827776, 1};
Point(p10 + 17) = {15.9677873300396, 1.201641971534218, 1};
Point(p10 + 18) = {15.9191894719275, 1.084316363377701, 1};
Point(p10 + 19) = {15.88954370283976, 0.9608328482124084, 1};
Point(p10 + 20) = {15.87958, 0.8342320000000001, 1};
Point(p10 + 21) = {15.88954370283976, 0.7076311517875916, 1};
Point(p10 + 22) = {15.9191894719275, 0.5841476366222985, 1};
Point(p10 + 23) = {15.9677873300396, 0.4668220284657826, 1};
Point(p10 + 24) = {16.0341406366223, 0.3585432731722245, 1};
Point(p10 + 25) = {16.11661555305354, 0.261977553053539, 1};
Point(p10 + 26) = {16.21318127317222, 0.1795026366222989, 1};
Point(p10 + 27) = {16.32146002846578, 0.1131493300395958, 1};
Point(p10 + 28) = {16.4387856366223, 0.06455147192749522, 1};
Point(p10 + 29) = {16.56226915178759, 0.03490570283976102, 1};
Point(p10 + 30) = {16.68887, 0.02494200000000002, 1};
Point(p10 + 31) = {16.81547084821241, 0.03490570283976102, 1};
Point(p10 + 32) = {16.9389543633777, 0.06455147192749511, 1};
Point(p10 + 33) = {17.05627997153422, 0.1131493300395957, 1};
Point(p10 + 34) = {17.16455872682778, 0.1795026366222987, 1};
Point(p10 + 35) = {17.26112444694646, 0.2619775530535389, 1};
Point(p10 + 36) = {17.3435993633777, 0.3585432731722242, 1};
Point(p10 + 37) = {17.4099526699604, 0.466822028465782, 1};
Point(p10 + 38) = {17.45855052807251, 0.5841476366222986, 1};
Point(p10 + 39) = {17.48819629716024, 0.7076311517875914, 1};
Spline(10) = {8, p10 + 1, p10 + 2, p10 + 3, p10 + 4, p10 + 5, p10 + 6, p10 + 7, p10 + 8, p10 + 9, p10 + 10, p10 + 11, p10 + 12, p10 + 13, p10 + 14, p10 + 15, p10 + 16, p10 + 17, p10 + 18, p10 + 19, p10 + 20, p10 + 21, p10 + 22, p10 + 23, p10 + 24, p10 + 25, p10 + 26, p10 + 27, p10 + 28, p10 + 29, p10 + 30, p10 + 31, p10 + 32, p10 + 33, p10 + 34, p10 + 35, p10 + 36, p10 + 37, p10 + 38, p10 + 39, 8};
p11 = newp;
Point(p11 + 1) = {27.04853874458446, 1.973331001273789, 1};
Point(p11 + 2) = {26.9992151653829, 2.178778494382047, 1};
Point(p11 + 3) = {26.91835977261087, 2.373980680203308, 1};
Point(p11 + 4) = {26.80796349438205, 2.554131033083742, 1};
Point(p11 + 5) = {26.67074465345069, 2.714793653450688, 1};
Point(p11 + 6) = {26.51008203308374, 2.852012494382047, 1};
Point(p11 + 7) = {26.32993168020331, 2.962408772610863, 1};
Point(p11 + 8) = {26.13472949438205, 3.043264165382903, 1};
Point(p11 + 9) = {25.92928200127379, 3.092587744584454, 1};
Point(p11 + 10) = {25.718648, 3.109165, 1};
Point(p11 + 11) = {25.50801399872621, 3.092587744584454, 1};
Point(p11 + 12) = {25.30256650561795, 3.043264165382903, 1};
Point(p11 + 13) = {25.10736431979669, 2.962408772610863, 1};
Point(p11 + 14) = {24.92721396691626, 2.852012494382047, 1};
Point(p11 + 15) = {24.76655134654931, 2.714793653450688, 1};
Point(p11 + 16) = {24.62933250561796, 2.554131033083742, 1};
Point(p11 + 17) = {24.51893622738914, 2.373980680203308, 1};
Point(p11 + 18) = {24.4380808346171, 2.178778494382047, 1};
Point(p11 + 19) = {24.38875725541555, 1.97333100127379, 1};
Point(p11 + 20) = {24.37218, 1.762697, 1};
Point(p11 + 21) = {24.38875725541555, 1.55206299872621, 1};
Point(p11 + 22) = {24.4380808346171, 1.346615505617953, 1};
Point(p11 + 23) = {24.51893622738914, 1.151413319796692, 1};
Point(p11 + 24) = {24.62933250561796, 0.9712629669162584, 1};
Point(p11 + 25) = {24.76655134654931, 0.8106003465493118, 1};
Point(p11 + 26) = {24.92721396691626, 0.6733815056179533, 1};
Point(p11 + 27) = {25.10736431979669, 0.5629852273891367, 1};
Point(p11 + 28) = {25.30256650561795, 0.4821298346170972, 1};
Point(p11 + 29) = {25.50801399872621, 0.4328062554155461, 1};
Point(p11 + 30) = {25.718648, 0.416229, 1};
Point(p11 + 31) = {25.92928200127379, 0.4328062554155461, 1};
Point(p11 + 32) = {26.13472949438205, 0.482129834617097, 1};
Point(p11 + 33) = {26.32993168020331, 0.5629852273891367, 1};
Point(p11 + 34) = {26.51008203308374, 0.6733815056179531, 1};
Point(p11 + 35) = {26.67074465345069, 0.8106003465493115, 1};
Point(p11 + 36) = {26.80796349438205, 0.9712629669162579, 1};
Point(p11 + 37) = {26.91835977261087, 1.151413319796692, 1};
Point(p11 + 38) = {26.9992151653829, 1.346615505617953, 1};
Point(p11 + 39) = {27.04853874458446, 1.55206299872621, 1};
Spline(11) = {9, p11 + 1, p11 + 2, p11 + 3, p11 + 4, p11 + 5, p11 + 6, p11 + 7, p11 + 8, p11 + 9, p11 + 10, p11 + 11, p11 + 12, p11 + 13, p11 + 14, p11 + 15, p11 + 16, p11 + 17, p11 + 18, p11 + 19, p11 + 20, p11 + 21, p11 + 22, p11 + 23, p11 + 24, p11 + 25, p11 + 26, p11 + 27, p11 + 28, p11 + 29, p11 + 30, p11 + 31, p11 + 32, p11 + 33, p11 + 34, p11 + 35, p11 + 36, p11 + 37, p11 + 38, p11 + 39, 9};
Line(12) = {4, 10};
Line(13) = {10, 7};
Line(14) = {5, 10};
p15 = newp;
Point(p15 + 1) = {17.48819629716024, 0.9608328482124084, 0};
Point(p15 + 2) = {17.45855052807251, 1.084316363377701, 0};
Point(p15 + 3) = {17.4099526699604, 1.201641971534218, 0};
Point(p15 + 4) = {17.3435993633777, 1.309920726827775, 0};
Point(p15 + 5) = {17.26112444694646, 1.406486446946461, 0};
Point(p15 + 6) = {17.16455872682778, 1.488961363377701, 0};
Point(p15 + 7) = {17.05627997153422, 1.555314669960404, 0};
Point(p15 + 8) = {16.9389543633777, 1.603912528072505, 0};
Point(p15 + 9) = {16.81547084821241, 1.633558297160239, 0};
Point(p15 + 10) = {16.68887, 1.643522, 0};
Point(p15 + 11) = {16.56226915178759, 1.633558297160239, 0};
Point(p15 + 12) = {16.4387856366223, 1.603912528072505, 0};
Point(p15 + 13) = {16.32146002846578, 1.555314669960404, 0};
Point(p15 + 14) = {16.21318127317222, 1.488961363377701, 0};
Point(p15 + 15) = {16.11661555305354, 1.406486446946461, 0};
Point(p15 + 16) = {16.0341406366223, 1.309920726827776, 0};
Point(p15 + 17) = {15.9677873300396, 1.201641971534218, 0};
Point(p15 + 18) = {15.9191894719275, 1.084316363377701, 0};
Point(p15 + 19) = {15.88954370283976, 0.9608328482124084, 0};
Point(p15 + 20) = {15.87958, 0.8342320000000001, 0};
Point(p15 + 21) = {15.88954370283976, 0.7076311517875916, 0};
Point(p15 + 22) = {15.9191894719275, 0.5841476366222985, 0};
Point(p15 + 23) = {15.9677873300396, 0.4668220284657826, 0};
Point(p15 + 24) = {16.0341406366223, 0.3585432731722245, 0};
Point(p15 + 25) = {16.11661555305354, 0.261977553053539, 0};
Point(p15 + 26) = {16.21318127317222, 0.1795026366222989, 0};
Point(p15 + 27) = {16.32146002846578, 0.1131493300395958, 0};
Point(p15 + 28) = {16.4387856366223, 0.06455147192749522, 0};
Point(p15 + 29) = {16.56226915178759, 0.03490570283976102, 0};
Point(p15 + 30) = {16.68887, 0.02494200000000002, 0};
Point(p15 + 31) = {16.81547084821241, 0.03490570283976102, 0};
Point(p15 + 32) = {16.9389543633777, 0.06455147192749511, 0};
Point(p15 + 33) = {17.05627997153422, 0.1131493300395957, 0};
Point(p15 + 34) = {17.16455872682778, 0.1795026366222987, 0};
Point(p15 + 35) = {17.26112444694646, 0.2619775530535389, 0};
Point(p15 + 36) = {17.3435993633777, 0.3585432731722242, 0};
Point(p15 + 37) = {17.4099526699604, 0.466822028465782, 0};
Point(p15 + 38) = {17.45855052807251, 0.5841476366222986, 0};
Point(p15 + 39) = {17.48819629716024, 0.7076311517875914, 0};
Spline(15) = {11, p15 + 1, p15 + 2, p15 + 3, p15 + 4, p15 + 5, p15 + 6, p15 + 7, p15 + 8, p15 + 9, p15 + 10, p15 + 11, p15 + 12, p15 + 13, p15 + 14, p15 + 15, p15 + 16, p15 + 17, p15 + 18, p15 + 19, p15 + 20, p15 + 21, p15 + 22, p15 + 23, p15 + 24, p15 + 25, p15 + 26, p15 + 27, p15 + 28, p15 + 29, p15 + 30, p15 + 31, p15 + 32, p15 + 33, p15 + 34, p15 + 35, p15 + 36, p15 + 37, p15 + 38, p15 + 39, 11};
p16 = newp;
Point(p16 + 1) = {27.04853874458446, 1.973331001273789, 0};
Point(p16 + 2) = {26.9992151653829, 2.178778494382047, 0};
Point(p16 + 3) = {26.91835977261087, 2.373980680203308, 0};
Point(p16 + 4) = {26.80796349438205, 2.554131033083742, 0};
Point(p16 + 5) = {26.67074465345069, 2.714793653450688, 0};
Point(p16 + 6) = {26.51008203308374, 2.852012494382047, 0};
Point(p16 + 7) = {26.32993168020331, 2.962408772610863, 0};
Point(p16 + 8) = {26.13472949438205, 3.043264165382903, 0};
Point(p16 + 9) = {25.92928200127379, 3.092587744584454, 0};
Point(p16 + 10) = {25.718648, 3.109165, 0};
Point(p16 + 11) = {25.50801399872621, 3.092587744584454, 0};
Point(p16 + 12) = {25.30256650561795, 3.043264165382903, 0};
Point(p16 + 13) = {25.10736431979669, 2.962408772610863, 0};
Point(p16 + 14) = {24.92721396691626, 2.852012494382047, 0};
Point(p16 + 15) = {24.76655134654931, 2.714793653450688, 0};
Point(p16 + 16) = {24.62933250561796, 2.554131033083742, 0};
Point(p16 + 17) = {24.51893622738914, 2.373980680203308, 0};
Point(p16 + 18) = {24.4380808346171, 2.178778494382047, 0};
Point(p16 + 19) = {24.38875725541555, 1.97333100127379, 0};
Point(p16 + 20) = {24.37218, 1.762697, 0};
Point(p16 + 21) = {24.38875725541555, 1.55206299872621, 0};
Point(p16 + 22) = {24.4380808346171, 1.346615505617953, 0};
Point(p16 + 23) = {24.51893622738914, 1.151413319796692, 0};
Point(p16 + 24) = {24.62933250561796, 0.9712629669162584, 0};
Point(p16 + 25) = {24.76655134654931, 0.8106003465493118, 0};
Point(p16 + 26) = {24.92721396691626, 0.6733815056179533, 0};
Point(p16 + 27) = {25.10736431979669, 0.5629852273891367, 0};
Point(p16 + 28) = {25.30256650561795, 0.4821298346170972, 0};
Point(p16 + 29) = {25.50801399872621, 0.4328062554155461, 0};
Point(p16 + 30) = {25.718648, 0.416229, 0};
Point(p16 + 31) = {25.92928200127379, 0.4328062554155461, 0};
Point(p16 + 32) = {26.13472949438205, 0.482129834617097, 0};
Point(p16 + 33) = {26.32993168020331, 0.5629852273891367, 0};
Point(p16 + 34) = {26.51008203308374, 0.6733815056179531, 0};
Point(p16 + 35) = {26.67074465345069, 0.8106003465493115, 0};
Point(p16 + 36) = {26.80796349438205, 0.9712629669162579, 0};
Point(p16 + 37) = {26.91835977261087, 1.151413319796692, 0};
Point(p16 + 38) = {26.9992151653829, 1.346615505617953, 0};
Point(p16 + 39) = {27.04853874458446, 1.55206299872621, 0};
Spline(16) = {12, p16 + 1, p16 + 2, p16 + 3, p16 + 4, p16 + 5, p16 + 6, p16 + 7, p16 + 8, p16 + 9, p16 + 10, p16 + 11, p16 + 12, p16 + 13, p16 + 14, p16 + 15, p16 + 16, p16 + 17, p16 + 18, p16 + 19, p16 + 20, p16 + 21, p16 + 22, p16 + 23, p16 + 24, p16 + 25, p16 + 26, p16 + 27, p16 + 28, p16 + 29, p16 + 30, p16 + 31, p16 + 32, p16 + 33, p16 + 34, p16 + 35, p16 + 36, p16 + 37, p16 + 38, p16 + 39, 12};
Line(17) = {11, 8};
Line(18) = {12, 9};
Curve Loop(1) = {-1, 4, 3, -2};
Plane Surface(1) = {1};
Curve Loop(2) = {-5, 1, 7, -6};
Plane Surface(2) = {2};
Curve Loop(3) = {-2, 7, 9, -8, -10, -11};
Plane Surface(3) = {3};
Curve Loop(4) = {-12, 3, 8, -13};
Plane Surface(4) = {4};
Curve Loop(5) = {-4, 5, 14, -12, -15, -16};
Plane Surface(5) = {5};
Curve Loop(6) = {-6, 14, 13, -9};
Plane Surface(6) = {6};
Curve Loop(7) = {-10, -17, 15, 17};
Surface(7) = {7};
Curve Loop(8) = {-11, -18, 16, 18};
Surface(8) = {8};
Surface Loop(1) = {1, 2, 3, 4, 5, 6, 7, 8};
Volume(1) = {1};
Physical Surface("INFLOW") = {1};
Physical Surface("OUTFLOW") = {6};
Physical Surface("OBSTACLE") = {7, 8};
Physical Surface("WALL_Y") = {2, 4};
Physical Surface("WALL_Z") = {3, 5};
Physical Volume("FLUID") = {1};
