cl__1 = 3.95264;
cl__2 = 0.9999670000000001;
cl__3 = 1.115416;
cl__4 = 0.059844;
Point(1) = {0.068421, -4.365621, 1, cl__1};
Point(2) = {0.068421, -4.365621, 0, cl__1};
Point(3) = {0.068421, 5.627944, 1, cl__1};
Point(4) = {0.068421, 5.627944, 0, cl__1};
Point(5) = {39.209291, -4.365621, 0, cl__2};
Point(6) = {39.209291, -4.365621, 1, cl__2};
Point(7) = {39.209291, 5.627944, 1, cl__3};
Point(8) = {29.878623, -0.6598600000000001, 1, cl__4};
Point(9) = {39.209291, 5.627944, 0, cl__3};
Point(10) = {29.878623, -0.6598600000000001, 0, cl__4};
Line(1) = {2, 1};
Line(2) = {1, 3};
Line(3) = {4, 3};
Line(4) = {2, 4};
Line(5) = {2, 5};
Line(6) = {5, 6};
Line(7) = {1, 6};
Line(8) = {3, 7};
Line(9) = {6, 7};
p10 = newp;
Point(p10 + 1) = {29.87125517361078, -0.5662428894379291, 1};
Point(p10 + 2) = {29.84933311478122, -0.4749309428352734, 1};
Point(p10 + 3) = {29.81339661735486, -0.3881725633643665, 1};
Point(p10 + 4) = {29.76433055716473, -0.3081040302623355, 1};
Point(p10 + 5) = {29.70334310345362, -0.236696896546379, 1};
Point(p10 + 6) = {29.63193596973766, -0.1757094428352733, 1};
Point(p10 + 7) = {29.55186743663564, -0.1266433826451406, 1};
Point(p10 + 8) = {29.46510905716473, -0.09070688521877945, 1};
Point(p10 + 9) = {29.37379711056207, -0.06878482638922401, 1};
Point(p10 + 10) = {29.28018, -0.06141700000000005, 1};
Point(p10 + 11) = {29.18656288943793, -0.06878482638922412, 1};
Point(p10 + 12) = {29.09525094283527, -0.09070688521877945, 1};
Point(p10 + 13) = {29.00849256336437, -0.1266433826451406, 1};
Point(p10 + 14) = {28.92842403026234, -0.1757094428352733, 1};
Point(p10 + 15) = {28.85701689654638, -0.2366968965463789, 1};
Point(p10 + 16) = {28.79602944283527, -0.3081040302623355, 1};
Point(p10 + 17) = {28.74696338264514, -0.3881725633643664, 1};
Point(p10 + 18) = {28.71102688521878, -0.4749309428352733, 1};
Point(p10 + 19) = {28.68910482638923, -0.5662428894379291, 1};
Point(p10 + 20) = {28.681737, -0.6598599999999999, 1};
Point(p10 + 21) = {28.68910482638923, -0.7534771105620708, 1};
Point(p10 + 22) = {28.71102688521878, -0.8447890571647269, 1};
Point(p10 + 23) = {28.74696338264514, -0.9315474366356333, 1};
Point(p10 + 24) = {28.79602944283527, -1.011615969737664, 1};
Point(p10 + 25) = {28.85701689654638, -1.083023103453621, 1};
Point(p10 + 26) = {28.92842403026234, -1.144010557164727, 1};
Point(p10 + 27) = {29.00849256336437, -1.193076617354859, 1};
Point(p10 + 28) = {29.09525094283527, -1.229013114781221, 1};
Point(p10 + 29) = {29.18656288943793, -1.250935173610776, 1};
Point(p10 + 30) = {29.28018, -1.258303, 1};
Point(p10 + 31) = {29.37379711056207, -1.250935173610776, 1};
Point(p10 + 32) = {29.46510905716473, -1.229013114781221, 1};
Point(p10 + 33) = {29.55186743663564, -1.193076617354859, 1};
Point(p10 + 34) = {29.63193596973766, -1.144010557164727, 1};
Point(p10 + 35) = {29.70334310345362, -1.083023103453621, 1};
Point(p10 + 36) = {29.76433055716473, -1.011615969737665, 1};
Point(p10 + 37) = {29.81339661735486, -0.9315474366356337, 1};
Point(p10 + 38) = {29.84933311478122, -0.8447890571647267, 1};
Point(p10 + 39) = {29.87125517361078, -0.753477110562071, 1};
Spline(10) = {8, p10 + 1, p10 + 2, p10 + 3, p10 + 4, p10 + 5, p10 + 6, p10 + 7, p10 + 8, p10 + 9, p10 + 10, p10 + 11, p10 + 12, p10 + 13, p10 + 14, p10 + 15, p10 + 16, p10 + 17, p10 + 18, p10 + 19, p10 + 20, p10 + 21, p10 + 22, p10 + 23, p10 + 24, p10 + 25, p10 + 26, p10 + 27, p10 + 28, p10 + 29, p10 + 30, p10 + 31, p10 + 32, p10 + 33, p10 + 34, p10 + 35, p10 + 36, p10 + 37, p10 + 38, p10 + 39, 8};
Line(11) = {4, 9};
Line(12) = {9, 7};
Line(13) = {5, 9};
p14 = newp;
Point(p14 + 1) = {29.87125517361078, -0.5662428894379291, 0};
Point(p14 + 2) = {29.84933311478122, -0.4749309428352734, 0};
Point(p14 + 3) = {29.81339661735486, -0.3881725633643665, 0};
Point(p14 + 4) = {29.76433055716473, -0.3081040302623355, 0};
Point(p14 + 5) = {29.70334310345362, -0.236696896546379, 0};
Point(p14 + 6) = {29.63193596973766, -0.1757094428352733, 0};
Point(p14 + 7) = {29.55186743663564, -0.1266433826451406, 0};
Point(p14 + 8) = {29.46510905716473, -0.09070688521877945, 0};
Point(p14 + 9) = {29.37379711056207, -0.06878482638922401, 0};
Point(p14 + 10) = {29.28018, -0.06141700000000005, 0};
Point(p14 + 11) = {29.18656288943793, -0.06878482638922412, 0};
Point(p14 + 12) = {29.09525094283527, -0.09070688521877945, 0};
Point(p14 + 13) = {29.00849256336437, -0.1266433826451406, 0};
Point(p14 + 14) = {28.92842403026234, -0.1757094428352733, 0};
Point(p14 + 15) = {28.85701689654638, -0.2366968965463789, 0};
Point(p14 + 16) = {28.79602944283527, -0.3081040302623355, 0};
Point(p14 + 17) = {28.74696338264514, -0.3881725633643664, 0};
Point(p14 + 18) = {28.71102688521878, -0.4749309428352733, 0};
Point(p14 + 19) = {28.68910482638923, -0.5662428894379291, 0};
Point(p14 + 20) = {28.681737, -0.6598599999999999, 0};
Point(p14 + 21) = {28.68910482638923, -0.7534771105620708, 0};
Point(p14 + 22) = {28.71102688521878, -0.8447890571647269, 0};
Point(p14 + 23) = {28.74696338264514, -0.9315474366356333, 0};
Point(p14 + 24) = {28.79602944283527, -1.011615969737664, 0};
Point(p14 + 25) = {28.85701689654638, -1.083023103453621, 0};
Point(p14 + 26) = {28.92842403026234, -1.144010557164727, 0};
Point(p14 + 27) = {29.00849256336437, -1.193076617354859, 0};
Point(p14 + 28) = {29.09525094283527, -1.229013114781221, 0};
Point(p14 + 29) = {29.18656288943793, -1.250935173610776, 0};
Point(p14 + 30) = {29.28018, -1.258303, 0};
Point(p14 + 31) = {29.37379711056207, -1.250935173610776, 0};
Point(p14 + 32) = {29.46510905716473, -1.229013114781221, 0};
Point(p14 + 33) = {29.55186743663564, -1.193076617354859, 0};
Point(p14 + 34) = {29.63193596973766, -1.144010557164727, 0};
Point(p14 + 35) = {29.70334310345362, -1.083023103453621, 0};
Point(p14 + 36) = {29.76433055716473, -1.011615969737665, 0};
Point(p14 + 37) = {29.81339661735486, -0.9315474366356337, 0};
Point(p14 + 38) = {29.84933311478122, -0.8447890571647267, 0};
Point(p14 + 39) = {29.87125517361078, -0.753477110562071, 0};
Spline(14) = {10, p14 + 1, p14 + 2, p14 + 3, p14 + 4, p14 + 5, p14 + 6, p14 + 7, p14 + 8, p14 + 9, p14 + 10, p14 + 11, p14 + 12, p14 + 13, p14 + 14, p14 + 15, p14 + 16, p14 + 17, p14 + 18, p14 + 19, p14 + 20, p14 + 21, p14 + 22, p14 + 23, p14 + 24, p14 + 25, p14 + 26, p14 + 27, p14 + 28, p14 + 29, p14 + 30, p14 + 31, p14 + 32, p14 + 33, p14 + 34, p14 + 35, p14 + 36, p14 + 37, p14 + 38, p14 + 39, 10};
Line(15) = {10, 8};
Curve Loop(1) = {-1, 4, 3, -2};
Plane Surface(1) = {1};
Curve Loop(2) = {-5, 1, 7, -6};
Plane Surface(2) = {2};
Curve Loop(3) = {-2, 7, 9, -8, -10};
Plane Surface(3) = {3};
Curve Loop(4) = {-11, 3, 8, -12};
Plane Surface(4) = {4};
Curve Loop(5) = {-4, 5, 13, -11, -14};
Plane Surface(5) = {5};
Curve Loop(6) = {-6, 13, 12, -9};
Plane Surface(6) = {6};
Curve Loop(7) = {-10, -15, 14, 15};
Surface(7) = {7};
Surface Loop(1) = {1, 2, 3, 4, 5, 6, 7};
Volume(1) = {1};
Physical Surface("INFLOW") = {1};
Physical Surface("OUTFLOW") = {6};
Physical Surface("OBSTACLE") = {7};
Physical Surface("WALL_Y") = {2, 4};
Physical Surface("WALL_Z") = {3, 5};
Physical Volume("FLUID") = {1};
