cl__1 = 1.490498;
cl__2 = 3.220356;
cl__3 = 1.059411;
cl__4 = 0.084602;
cl__5 = 0.055541;
Point(1) = {0.780263, -4.318037, 1, cl__1};
Point(2) = {0.780263, -4.318037, 0, cl__1};
Point(3) = {0.780263, 5.597624999999999, 1, cl__2};
Point(4) = {0.780263, 5.597624999999999, 0, cl__2};
Point(5) = {31.819631, -4.318037, 0, cl__3};
Point(6) = {31.819631, -4.318037, 1, cl__3};
Point(7) = {31.819631, 5.597624999999999, 1, cl__2};
Point(8) = {11.112969, 2.075667, 1, cl__4};
Point(9) = {14.321167, 4.072484, 1, cl__5};
Point(10) = {31.819631, 5.597624999999999, 0, cl__2};
Point(11) = {11.112969, 2.075667, 0, cl__4};
Point(12) = {14.321167, 4.072484, 0, cl__5};
Line(1) = {2, 1};
Line(2) = {1, 3};
Line(3) = {4, 3};
Line(4) = {2, 4};
Line(5) = {2, 5};
Line(6) = {5, 6};
Line(7) = {1, 6};
Line(8) = {3, 7};
Line(9) = {6, 7};
p10 = newp;
Point(p10 + 1) = {11.10255305297532, 2.208014155416731, 1};
Point(p10 + 2) = {11.07156168708558, 2.337102484632076, 1};
Point(p10 + 3) = {11.02075801261342, 2.459753404561151, 1};
Point(p10 + 4) = {10.95139298463208, 2.572946842500235, 1};
Point(p10 + 5) = {10.86517460033979, 2.673895600339787, 1};
Point(p10 + 6) = {10.76422584250024, 2.760113984632076, 1};
Point(p10 + 7) = {10.65103240456115, 2.829479012613416, 1};
Point(p10 + 8) = {10.52838148463208, 2.880282687085575, 1};
Point(p10 + 9) = {10.39929315541673, 2.91127405297532, 1};
Point(p10 + 10) = {10.266946, 2.92169, 1};
Point(p10 + 11) = {10.13459884458327, 2.91127405297532, 1};
Point(p10 + 12) = {10.00551051536793, 2.880282687085575, 1};
Point(p10 + 13) = {9.88285959543885, 2.829479012613416, 1};
Point(p10 + 14) = {9.769666157499765, 2.760113984632076, 1};
Point(p10 + 15) = {9.668717399660215, 2.673895600339787, 1};
Point(p10 + 16) = {9.582499015367924, 2.572946842500235, 1};
Point(p10 + 17) = {9.513133987386585, 2.459753404561151, 1};
Point(p10 + 18) = {9.462330312914427, 2.337102484632076, 1};
Point(p10 + 19) = {9.431338947024681, 2.208014155416731, 1};
Point(p10 + 20) = {9.420923, 2.075667, 1};
Point(p10 + 21) = {9.431338947024681, 1.943319844583269, 1};
Point(p10 + 22) = {9.462330312914427, 1.814231515367924, 1};
Point(p10 + 23) = {9.513133987386585, 1.69158059543885, 1};
Point(p10 + 24) = {9.582499015367924, 1.578387157499765, 1};
Point(p10 + 25) = {9.668717399660213, 1.477438399660214, 1};
Point(p10 + 26) = {9.769666157499765, 1.391220015367924, 1};
Point(p10 + 27) = {9.88285959543885, 1.321854987386585, 1};
Point(p10 + 28) = {10.00551051536793, 1.271051312914425, 1};
Point(p10 + 29) = {10.13459884458327, 1.24005994702468, 1};
Point(p10 + 30) = {10.266946, 1.229644, 1};
Point(p10 + 31) = {10.39929315541673, 1.24005994702468, 1};
Point(p10 + 32) = {10.52838148463208, 1.271051312914425, 1};
Point(p10 + 33) = {10.65103240456115, 1.321854987386585, 1};
Point(p10 + 34) = {10.76422584250024, 1.391220015367924, 1};
Point(p10 + 35) = {10.86517460033979, 1.477438399660214, 1};
Point(p10 + 36) = {10.95139298463208, 1.578387157499765, 1};
Point(p10 + 37) = {11.02075801261342, 1.691580595438849, 1};
Point(p10 + 38) = {11.07156168708558, 1.814231515367924, 1};
Point(p10 + 39) = {11.10255305297532, 1.943319844583269, 1};
Spline(10) = {8, p10 + 1, p10 + 2, p10 + 3, p10 + 4, p10 + 5, p10 + 6, p10 + 7, p10 + 8, p10 + 9, p10 + 10, p10 + 11, p10 + 12, p10 + 13, p10 + 14, p10 + 15, p10 + 16, p10 + 17, p10 + 18, p10 + 19, p10 + 20, p10 + 21, p10 + 22, p10 + 23, p10 + 24, p10 + 25, p10 + 26, p10 + 27, p10 + 28, p10 + 29, p10 + 30, p10 + 31, p10 + 32, p10 + 33, p10 + 34, p10 + 35, p10 + 36, p10 + 37, p10 + 38, p10 + 39, 8};
p11 = newp;
Point(p11 + 1) = {14.31432894431497, 4.15936973553139, 1};
Point(p11 + 2) = {14.29398315288504, 4.244116055896773, 1};
Point(p11 + 3) = {14.26063060661903, 4.324636225431841, 1};
Point(p11 + 4) = {14.21509255589677, 4.39894757033152, 1};
Point(p11 + 5) = {14.15849029865916, 4.465220298659164, 1};
Point(p11 + 6) = {14.09221757033152, 4.521822555896773, 1};
Point(p11 + 7) = {14.01790622543184, 4.567360606619034, 1};
Point(p11 + 8) = {13.93738605589677, 4.60071315288504, 1};
Point(p11 + 9) = {13.85263973553139, 4.621058944314967, 1};
Point(p11 + 10) = {13.765754, 4.627897, 1};
Point(p11 + 11) = {13.67886826446861, 4.621058944314967, 1};
Point(p11 + 12) = {13.59412194410323, 4.60071315288504, 1};
Point(p11 + 13) = {13.51360177456816, 4.567360606619034, 1};
Point(p11 + 14) = {13.43929042966848, 4.521822555896773, 1};
Point(p11 + 15) = {13.37301770134084, 4.465220298659164, 1};
Point(p11 + 16) = {13.31641544410323, 4.39894757033152, 1};
Point(p11 + 17) = {13.27087739338097, 4.324636225431841, 1};
Point(p11 + 18) = {13.23752484711496, 4.244116055896773, 1};
Point(p11 + 19) = {13.21717905568503, 4.15936973553139, 1};
Point(p11 + 20) = {13.210341, 4.072484, 1};
Point(p11 + 21) = {13.21717905568503, 3.985598264468611, 1};
Point(p11 + 22) = {13.23752484711496, 3.900851944103227, 1};
Point(p11 + 23) = {13.27087739338097, 3.82033177456816, 1};
Point(p11 + 24) = {13.31641544410323, 3.746020429668481, 1};
Point(p11 + 25) = {13.37301770134084, 3.679747701340836, 1};
Point(p11 + 26) = {13.43929042966848, 3.623145444103228, 1};
Point(p11 + 27) = {13.51360177456816, 3.577607393380966, 1};
Point(p11 + 28) = {13.59412194410323, 3.54425484711496, 1};
Point(p11 + 29) = {13.67886826446861, 3.523909055685033, 1};
Point(p11 + 30) = {13.765754, 3.517071, 1};
Point(p11 + 31) = {13.85263973553139, 3.523909055685033, 1};
Point(p11 + 32) = {13.93738605589677, 3.54425484711496, 1};
Point(p11 + 33) = {14.01790622543184, 3.577607393380966, 1};
Point(p11 + 34) = {14.09221757033152, 3.623145444103228, 1};
Point(p11 + 35) = {14.15849029865916, 3.679747701340836, 1};
Point(p11 + 36) = {14.21509255589677, 3.746020429668481, 1};
Point(p11 + 37) = {14.26063060661903, 3.820331774568159, 1};
Point(p11 + 38) = {14.29398315288504, 3.900851944103227, 1};
Point(p11 + 39) = {14.31432894431497, 3.985598264468611, 1};
Spline(11) = {9, p11 + 1, p11 + 2, p11 + 3, p11 + 4, p11 + 5, p11 + 6, p11 + 7, p11 + 8, p11 + 9, p11 + 10, p11 + 11, p11 + 12, p11 + 13, p11 + 14, p11 + 15, p11 + 16, p11 + 17, p11 + 18, p11 + 19, p11 + 20, p11 + 21, p11 + 22, p11 + 23, p11 + 24, p11 + 25, p11 + 26, p11 + 27, p11 + 28, p11 + 29, p11 + 30, p11 + 31, p11 + 32, p11 + 33, p11 + 34, p11 + 35, p11 + 36, p11 + 37, p11 + 38, p11 + 39, 9};
Line(12) = {4, 10};
Line(13) = {10, 7};
Line(14) = {5, 10};
p15 = newp;
Point(p15 + 1) = {11.10255305297532, 2.208014155416731, 0};
Point(p15 + 2) = {11.07156168708558, 2.337102484632076, 0};
Point(p15 + 3) = {11.02075801261342, 2.459753404561151, 0};
Point(p15 + 4) = {10.95139298463208, 2.572946842500235, 0};
Point(p15 + 5) = {10.86517460033979, 2.673895600339787, 0};
Point(p15 + 6) = {10.76422584250024, 2.760113984632076, 0};
Point(p15 + 7) = {10.65103240456115, 2.829479012613416, 0};
Point(p15 + 8) = {10.52838148463208, 2.880282687085575, 0};
Point(p15 + 9) = {10.39929315541673, 2.91127405297532, 0};
Point(p15 + 10) = {10.266946, 2.92169, 0};
Point(p15 + 11) = {10.13459884458327, 2.91127405297532, 0};
Point(p15 + 12) = {10.00551051536793, 2.880282687085575, 0};
Point(p15 + 13) = {9.88285959543885, 2.829479012613416, 0};
Point(p15 + 14) = {9.769666157499765, 2.760113984632076, 0};
Point(p15 + 15) = {9.668717399660215, 2.673895600339787, 0};
Point(p15 + 16) = {9.582499015367924, 2.572946842500235, 0};
Point(p15 + 17) = {9.513133987386585, 2.459753404561151, 0};
Point(p15 + 18) = {9.462330312914427, 2.337102484632076, 0};
Point(p15 + 19) = {9.431338947024681, 2.208014155416731, 0};
Point(p15 + 20) = {9.420923, 2.075667, 0};
Point(p15 + 21) = {9.431338947024681, 1.943319844583269, 0};
Point(p15 + 22) = {9.462330312914427, 1.814231515367924, 0};
Point(p15 + 23) = {9.513133987386585, 1.69158059543885, 0};
Point(p15 + 24) = {9.582499015367924, 1.578387157499765, 0};
Point(p15 + 25) = {9.668717399660213, 1.477438399660214, 0};
Point(p15 + 26) = {9.769666157499765, 1.391220015367924, 0};
Point(p15 + 27) = {9.88285959543885, 1.321854987386585, 0};
Point(p15 + 28) = {10.00551051536793, 1.271051312914425, 0};
Point(p15 + 29) = {10.13459884458327, 1.24005994702468, 0};
Point(p15 + 30) = {10.266946, 1.229644, 0};
Point(p15 + 31) = {10.39929315541673, 1.24005994702468, 0};
Point(p15 + 32) = {10.52838148463208, 1.271051312914425, 0};
Point(p15 + 33) = {10.65103240456115, 1.321854987386585, 0};
Point(p15 + 34) = {10.76422584250024, 1.391220015367924, 0};
Point(p15 + 35) = {10.86517460033979, 1.477438399660214, 0};
Point(p15 + 36) = {10.95139298463208, 1.578387157499765, 0};
Point(p15 + 37) = {11.02075801261342, 1.691580595438849, 0};
Point(p15 + 38) = {11.07156168708558, 1.814231515367924, 0};
Point(p15 + 39) = {11.10255305297532, 1.943319844583269, 0};
Spline(15) = {11, p15 + 1, p15 + 2, p15 + 3, p15 + 4, p15 + 5, p15 + 6, p15 + 7, p15 + 8, p15 + 9, p15 + 10, p15 + 11, p15 + 12, p15 + 13, p15 + 14, p15 + 15, p15 + 16, p15 + 17, p15 + 18, p15 + 19, p15 + 20, p15 + 21, p15 + 22, p15 + 23, p15 + 24, p15 + 25, p15 + 26, p15 + 27, p15 + 28, p15 + 29, p15 + 30, p15 + 31, p15 + 32, p15 + 33, p15 + 34, p15 + 35, p15 + 36, p15 + 37, p15 + 38, p15 + 39, 11};
p16 = newp;
Point(p16 + 1) = {14.31432894431497, 4.15936973553139, 0};
Point(p16 + 2) = {14.29398315288504, 4.244116055896773, 0};
Point(p16 + 3) = {14.26063060661903, 4.324636225431841, 0};
Point(p16 + 4) = {14.21509255589677, 4.39894757033152, 0};
Point(p16 + 5) = {14.15849029865916, 4.465220298659164, 0};
Point(p16 + 6) = {14.09221757033152, 4.521822555896773, 0};
Point(p16 + 7) = {14.01790622543184, 4.567360606619034, 0};
Point(p16 + 8) = {13.93738605589677, 4.60071315288504, 0};
Point(p16 + 9) = {13.85263973553139, 4.621058944314967, 0};
Point(p16 + 10) = {13.765754, 4.627897, 0};
Point(p16 + 11) = {13.67886826446861, 4.621058944314967, 0};
Point(p16 + 12) = {13.59412194410323, 4.60071315288504, 0};
Point(p16 + 13) = {13.51360177456816, 4.567360606619034, 0};
Point(p16 + 14) = {13.43929042966848, 4.521822555896773, 0};
Point(p16 + 15) = {13.37301770134084, 4.465220298659164, 0};
Point(p16 + 16) = {13.31641544410323, 4.39894757033152, 0};
Point(p16 + 17) = {13.27087739338097, 4.324636225431841, 0};
Point(p16 + 18) = {13.23752484711496, 4.244116055896773, 0};
Point(p16 + 19) = {13.21717905568503, 4.15936973553139, 0};
Point(p16 + 20) = {13.210341, 4.072484, 0};
Point(p16 + 21) = {13.21717905568503, 3.985598264468611, 0};
Point(p16 + 22) = {13.23752484711496, 3.900851944103227, 0};
Point(p16 + 23) = {13.27087739338097, 3.82033177456816, 0};
Point(p16 + 24) = {13.31641544410323, 3.746020429668481, 0};
Point(p16 + 25) = {13.37301770134084, 3.679747701340836, 0};
Point(p16 + 26) = {13.43929042966848, 3.623145444103228, 0};
Point(p16 + 27) = {13.51360177456816, 3.577607393380966, 0};
Point(p16 + 28) = {13.59412194410323, 3.54425484711496, 0};
Point(p16 + 29) = {13.67886826446861, 3.523909055685033, 0};
Point(p16 + 30) = {13.765754, 3.517071, 0};
Point(p16 + 31) = {13.85263973553139, 3.523909055685033, 0};
Point(p16 + 32) = {13.93738605589677, 3.54425484711496, 0};
Point(p16 + 33) = {14.01790622543184, 3.577607393380966, 0};
Point(p16 + 34) = {14.09221757033152, 3.623145444103228, 0};
Point(p16 + 35) = {14.15849029865916, 3.679747701340836, 0};
Point(p16 + 36) = {14.21509255589677, 3.746020429668481, 0};
Point(p16 + 37) = {14.26063060661903, 3.820331774568159, 0};
Point(p16 + 38) = {14.29398315288504, 3.900851944103227, 0};
Point(p16 + 39) = {14.31432894431497, 3.985598264468611, 0};
Spline(16) = {12, p16 + 1, p16 + 2, p16 + 3, p16 + 4, p16 + 5, p16 + 6, p16 + 7, p16 + 8, p16 + 9, p16 + 10, p16 + 11, p16 + 12, p16 + 13, p16 + 14, p16 + 15, p16 + 16, p16 + 17, p16 + 18, p16 + 19, p16 + 20, p16 + 21, p16 + 22, p16 + 23, p16 + 24, p16 + 25, p16 + 26, p16 + 27, p16 + 28, p16 + 29, p16 + 30, p16 + 31, p16 + 32, p16 + 33, p16 + 34, p16 + 35, p16 + 36, p16 + 37, p16 + 38, p16 + 39, 12};
Line(17) = {11, 8};
Line(18) = {12, 9};
Curve Loop(1) = {-1, 4, 3, -2};
Plane Surface(1) = {1};
Curve Loop(2) = {-5, 1, 7, -6};
Plane Surface(2) = {2};
Curve Loop(3) = {-2, 7, 9, -8, -10, -11};
Plane Surface(3) = {3};
Curve Loop(4) = {-12, 3, 8, -13};
Plane Surface(4) = {4};
Curve Loop(5) = {-4, 5, 14, -12, -15, -16};
Plane Surface(5) = {5};
Curve Loop(6) = {-6, 14, 13, -9};
Plane Surface(6) = {6};
Curve Loop(7) = {-10, -17, 15, 17};
Surface(7) = {7};
Curve Loop(8) = {-11, -18, 16, 18};
Surface(8) = {8};
Surface Loop(1) = {1, 2, 3, 4, 5, 6, 7, 8};
Volume(1) = {1};
Physical Surface("INFLOW") = {1};
Physical Surface("OUTFLOW") = {6};
Physical Surface("OBSTACLE") = {7, 8};
Physical Surface("WALL_Y") = {2, 4};
Physical Surface("WALL_Z") = {3, 5};
Physical Volume("FLUID") = {1};
