cl__1 = 3.843921;
cl__2 = 1.342149;
cl__3 = 1.263004;
cl__4 = 0.091659;
Point(1) = {0.84253, -3.221849, 1, cl__1};
Point(2) = {0.84253, -3.221849, 0, cl__1};
Point(3) = {0.84253, 4.349085000000001, 1, cl__1};
Point(4) = {0.84253, 4.349085000000001, 0, cl__1};
Point(5) = {38.252363, -3.221849, 0, cl__2};
Point(6) = {38.252363, -3.221849, 1, cl__2};
Point(7) = {38.252363, 4.349085000000001, 1, cl__3};
Point(8) = {25.823847, 2.021129, 1, cl__4};
Point(9) = {38.252363, 4.349085000000001, 0, cl__3};
Point(10) = {25.823847, 2.021129, 0, cl__4};
Line(1) = {2, 1};
Line(2) = {1, 3};
Line(3) = {4, 3};
Line(4) = {2, 4};
Line(5) = {2, 5};
Line(6) = {5, 6};
Line(7) = {1, 6};
Line(8) = {3, 7};
Line(9) = {6, 7};
p10 = newp;
Point(p10 + 1) = {25.81256229304108, 2.16451479700783, 1};
Point(p10 + 2) = {25.77898603910143, 2.30436995982315, 1};
Point(p10 + 3) = {25.72394499698624, 2.437250790184772, 1};
Point(p10 + 4) = {25.64879445982315, 2.559885321043001, 1};
Point(p10 + 5) = {25.55538488324743, 2.669253883247434, 1};
Point(p10 + 6) = {25.446016321043, 2.76266345982315, 1};
Point(p10 + 7) = {25.32338179018477, 2.837813996986243, 1};
Point(p10 + 8) = {25.19050095982315, 2.892855039101426, 1};
Point(p10 + 9) = {25.05064579700783, 2.926431293041076, 1};
Point(p10 + 10) = {24.90726, 2.937716, 1};
Point(p10 + 11) = {24.76387420299217, 2.926431293041076, 1};
Point(p10 + 12) = {24.62401904017685, 2.892855039101426, 1};
Point(p10 + 13) = {24.49113820981523, 2.837813996986244, 1};
Point(p10 + 14) = {24.368503678957, 2.76266345982315, 1};
Point(p10 + 15) = {24.25913511675257, 2.669253883247434, 1};
Point(p10 + 16) = {24.16572554017685, 2.559885321043001, 1};
Point(p10 + 17) = {24.09057500301376, 2.437250790184772, 1};
Point(p10 + 18) = {24.03553396089858, 2.30436995982315, 1};
Point(p10 + 19) = {24.00195770695893, 2.16451479700783, 1};
Point(p10 + 20) = {23.990673, 2.021129, 1};
Point(p10 + 21) = {24.00195770695893, 1.87774320299217, 1};
Point(p10 + 22) = {24.03553396089858, 1.73788804017685, 1};
Point(p10 + 23) = {24.09057500301376, 1.605007209815229, 1};
Point(p10 + 24) = {24.16572554017685, 1.482372678956999, 1};
Point(p10 + 25) = {24.25913511675257, 1.373004116752566, 1};
Point(p10 + 26) = {24.368503678957, 1.27959454017685, 1};
Point(p10 + 27) = {24.49113820981523, 1.204444003013757, 1};
Point(p10 + 28) = {24.62401904017685, 1.149402960898574, 1};
Point(p10 + 29) = {24.76387420299217, 1.115826706958925, 1};
Point(p10 + 30) = {24.90726, 1.104542, 1};
Point(p10 + 31) = {25.05064579700783, 1.115826706958924, 1};
Point(p10 + 32) = {25.19050095982315, 1.149402960898574, 1};
Point(p10 + 33) = {25.32338179018477, 1.204444003013756, 1};
Point(p10 + 34) = {25.446016321043, 1.27959454017685, 1};
Point(p10 + 35) = {25.55538488324743, 1.373004116752566, 1};
Point(p10 + 36) = {25.64879445982315, 1.482372678956999, 1};
Point(p10 + 37) = {25.72394499698624, 1.605007209815228, 1};
Point(p10 + 38) = {25.77898603910143, 1.73788804017685, 1};
Point(p10 + 39) = {25.81256229304108, 1.87774320299217, 1};
Spline(10) = {8, p10 + 1, p10 + 2, p10 + 3, p10 + 4, p10 + 5, p10 + 6, p10 + 7, p10 + 8, p10 + 9, p10 + 10, p10 + 11, p10 + 12, p10 + 13, p10 + 14, p10 + 15, p10 + 16, p10 + 17, p10 + 18, p10 + 19, p10 + 20, p10 + 21, p10 + 22, p10 + 23, p10 + 24, p10 + 25, p10 + 26, p10 + 27, p10 + 28, p10 + 29, p10 + 30, p10 + 31, p10 + 32, p10 + 33, p10 + 34, p10 + 35, p10 + 36, p10 + 37, p10 + 38, p10 + 39, 8};
Line(11) = {4, 9};
Line(12) = {9, 7};
Line(13) = {5, 9};
p14 = newp;
Point(p14 + 1) = {25.81256229304108, 2.16451479700783, 0};
Point(p14 + 2) = {25.77898603910143, 2.30436995982315, 0};
Point(p14 + 3) = {25.72394499698624, 2.437250790184772, 0};
Point(p14 + 4) = {25.64879445982315, 2.559885321043001, 0};
Point(p14 + 5) = {25.55538488324743, 2.669253883247434, 0};
Point(p14 + 6) = {25.446016321043, 2.76266345982315, 0};
Point(p14 + 7) = {25.32338179018477, 2.837813996986243, 0};
Point(p14 + 8) = {25.19050095982315, 2.892855039101426, 0};
Point(p14 + 9) = {25.05064579700783, 2.926431293041076, 0};
Point(p14 + 10) = {24.90726, 2.937716, 0};
Point(p14 + 11) = {24.76387420299217, 2.926431293041076, 0};
Point(p14 + 12) = {24.62401904017685, 2.892855039101426, 0};
Point(p14 + 13) = {24.49113820981523, 2.837813996986244, 0};
Point(p14 + 14) = {24.368503678957, 2.76266345982315, 0};
Point(p14 + 15) = {24.25913511675257, 2.669253883247434, 0};
Point(p14 + 16) = {24.16572554017685, 2.559885321043001, 0};
Point(p14 + 17) = {24.09057500301376, 2.437250790184772, 0};
Point(p14 + 18) = {24.03553396089858, 2.30436995982315, 0};
Point(p14 + 19) = {24.00195770695893, 2.16451479700783, 0};
Point(p14 + 20) = {23.990673, 2.021129, 0};
Point(p14 + 21) = {24.00195770695893, 1.87774320299217, 0};
Point(p14 + 22) = {24.03553396089858, 1.73788804017685, 0};
Point(p14 + 23) = {24.09057500301376, 1.605007209815229, 0};
Point(p14 + 24) = {24.16572554017685, 1.482372678956999, 0};
Point(p14 + 25) = {24.25913511675257, 1.373004116752566, 0};
Point(p14 + 26) = {24.368503678957, 1.27959454017685, 0};
Point(p14 + 27) = {24.49113820981523, 1.204444003013757, 0};
Point(p14 + 28) = {24.62401904017685, 1.149402960898574, 0};
Point(p14 + 29) = {24.76387420299217, 1.115826706958925, 0};
Point(p14 + 30) = {24.90726, 1.104542, 0};
Point(p14 + 31) = {25.05064579700783, 1.115826706958924, 0};
Point(p14 + 32) = {25.19050095982315, 1.149402960898574, 0};
Point(p14 + 33) = {25.32338179018477, 1.204444003013756, 0};
Point(p14 + 34) = {25.446016321043, 1.27959454017685, 0};
Point(p14 + 35) = {25.55538488324743, 1.373004116752566, 0};
Point(p14 + 36) = {25.64879445982315, 1.482372678956999, 0};
Point(p14 + 37) = {25.72394499698624, 1.605007209815228, 0};
Point(p14 + 38) = {25.77898603910143, 1.73788804017685, 0};
Point(p14 + 39) = {25.81256229304108, 1.87774320299217, 0};
Spline(14) = {10, p14 + 1, p14 + 2, p14 + 3, p14 + 4, p14 + 5, p14 + 6, p14 + 7, p14 + 8, p14 + 9, p14 + 10, p14 + 11, p14 + 12, p14 + 13, p14 + 14, p14 + 15, p14 + 16, p14 + 17, p14 + 18, p14 + 19, p14 + 20, p14 + 21, p14 + 22, p14 + 23, p14 + 24, p14 + 25, p14 + 26, p14 + 27, p14 + 28, p14 + 29, p14 + 30, p14 + 31, p14 + 32, p14 + 33, p14 + 34, p14 + 35, p14 + 36, p14 + 37, p14 + 38, p14 + 39, 10};
Line(15) = {10, 8};
Curve Loop(1) = {-1, 4, 3, -2};
Plane Surface(1) = {1};
Curve Loop(2) = {-5, 1, 7, -6};
Plane Surface(2) = {2};
Curve Loop(3) = {-2, 7, 9, -8, -10};
Plane Surface(3) = {3};
Curve Loop(4) = {-11, 3, 8, -12};
Plane Surface(4) = {4};
Curve Loop(5) = {-4, 5, 13, -11, -14};
Plane Surface(5) = {5};
Curve Loop(6) = {-6, 13, 12, -9};
Plane Surface(6) = {6};
Curve Loop(7) = {-10, -15, 14, 15};
Surface(7) = {7};
Surface Loop(1) = {1, 2, 3, 4, 5, 6, 7};
Volume(1) = {1};
Physical Surface("INFLOW") = {1};
Physical Surface("OUTFLOW") = {6};
Physical Surface("OBSTACLE") = {7};
Physical Surface("WALL_Y") = {2, 4};
Physical Surface("WALL_Z") = {3, 5};
Physical Volume("FLUID") = {1};
