cl__1 = 0.295174;
cl__2 = 0.76754;
cl__3 = 3.515167;
cl__4 = 0.07274799999999999;
Point(1) = {0.18515, -4.439347, 1, cl__1};
Point(2) = {0.18515, -4.439347, 0, cl__1};
Point(3) = {0.18515, 4.872116, 1, cl__2};
Point(4) = {0.18515, 4.872116, 0, cl__2};
Point(5) = {34.841986, -4.439347, 0, cl__3};
Point(6) = {34.841986, -4.439347, 1, cl__3};
Point(7) = {34.841986, 4.872116, 1, cl__3};
Point(8) = {4.230012, -2.848213, 1, cl__4};
Point(9) = {34.841986, 4.872116, 0, cl__3};
Point(10) = {4.230012, -2.848213, 0, cl__4};
Line(1) = {2, 1};
Line(2) = {1, 3};
Line(3) = {4, 3};
Line(4) = {2, 4};
Line(5) = {2, 5};
Line(6) = {5, 6};
Line(7) = {1, 6};
Line(8) = {3, 7};
Line(9) = {6, 7};
p10 = newp;
Point(p10 + 1) = {4.221055477081173, -2.734409586069138, 1};
Point(p10 + 2) = {4.194406447643948, -2.62340838988113, 1};
Point(p10 + 3) = {4.150721099236127, -2.517942629277975, 1};
Point(p10 + 4) = {4.09107511011887, -2.420609221306515, 1};
Point(p10 + 5) = {4.016937162497933, -2.333804837502067, 1};
Point(p10 + 6) = {3.930132778693485, -2.25966688988113, 1};
Point(p10 + 7) = {3.832799370722025, -2.200020900763874, 1};
Point(p10 + 8) = {3.72733361011887, -2.156335552356053, 1};
Point(p10 + 9) = {3.616332413930862, -2.129686522918827, 1};
Point(p10 + 10) = {3.502529, -2.12073, 1};
Point(p10 + 11) = {3.388725586069138, -2.129686522918827, 1};
Point(p10 + 12) = {3.27772438988113, -2.156335552356053, 1};
Point(p10 + 13) = {3.172258629277975, -2.200020900763874, 1};
Point(p10 + 14) = {3.074925221306515, -2.25966688988113, 1};
Point(p10 + 15) = {2.988120837502067, -2.333804837502067, 1};
Point(p10 + 16) = {2.91398288988113, -2.420609221306515, 1};
Point(p10 + 17) = {2.854336900763874, -2.517942629277975, 1};
Point(p10 + 18) = {2.810651552356053, -2.62340838988113, 1};
Point(p10 + 19) = {2.784002522918827, -2.734409586069138, 1};
Point(p10 + 20) = {2.775046, -2.848213, 1};
Point(p10 + 21) = {2.784002522918827, -2.962016413930862, 1};
Point(p10 + 22) = {2.810651552356053, -3.07301761011887, 1};
Point(p10 + 23) = {2.854336900763873, -3.178483370722024, 1};
Point(p10 + 24) = {2.91398288988113, -3.275816778693485, 1};
Point(p10 + 25) = {2.988120837502067, -3.362621162497933, 1};
Point(p10 + 26) = {3.074925221306515, -3.43675911011887, 1};
Point(p10 + 27) = {3.172258629277975, -3.496405099236126, 1};
Point(p10 + 28) = {3.27772438988113, -3.540090447643947, 1};
Point(p10 + 29) = {3.388725586069138, -3.566739477081172, 1};
Point(p10 + 30) = {3.502529, -3.575696, 1};
Point(p10 + 31) = {3.616332413930862, -3.566739477081172, 1};
Point(p10 + 32) = {3.72733361011887, -3.540090447643947, 1};
Point(p10 + 33) = {3.832799370722025, -3.496405099236126, 1};
Point(p10 + 34) = {3.930132778693485, -3.43675911011887, 1};
Point(p10 + 35) = {4.016937162497933, -3.362621162497933, 1};
Point(p10 + 36) = {4.09107511011887, -3.275816778693485, 1};
Point(p10 + 37) = {4.150721099236126, -3.178483370722025, 1};
Point(p10 + 38) = {4.194406447643948, -3.07301761011887, 1};
Point(p10 + 39) = {4.221055477081173, -2.962016413930862, 1};
Spline(10) = {8, p10 + 1, p10 + 2, p10 + 3, p10 + 4, p10 + 5, p10 + 6, p10 + 7, p10 + 8, p10 + 9, p10 + 10, p10 + 11, p10 + 12, p10 + 13, p10 + 14, p10 + 15, p10 + 16, p10 + 17, p10 + 18, p10 + 19, p10 + 20, p10 + 21, p10 + 22, p10 + 23, p10 + 24, p10 + 25, p10 + 26, p10 + 27, p10 + 28, p10 + 29, p10 + 30, p10 + 31, p10 + 32, p10 + 33, p10 + 34, p10 + 35, p10 + 36, p10 + 37, p10 + 38, p10 + 39, 8};
Line(11) = {4, 9};
Line(12) = {9, 7};
Line(13) = {5, 9};
p14 = newp;
Point(p14 + 1) = {4.221055477081173, -2.734409586069138, 0};
Point(p14 + 2) = {4.194406447643948, -2.62340838988113, 0};
Point(p14 + 3) = {4.150721099236127, -2.517942629277975, 0};
Point(p14 + 4) = {4.09107511011887, -2.420609221306515, 0};
Point(p14 + 5) = {4.016937162497933, -2.333804837502067, 0};
Point(p14 + 6) = {3.930132778693485, -2.25966688988113, 0};
Point(p14 + 7) = {3.832799370722025, -2.200020900763874, 0};
Point(p14 + 8) = {3.72733361011887, -2.156335552356053, 0};
Point(p14 + 9) = {3.616332413930862, -2.129686522918827, 0};
Point(p14 + 10) = {3.502529, -2.12073, 0};
Point(p14 + 11) = {3.388725586069138, -2.129686522918827, 0};
Point(p14 + 12) = {3.27772438988113, -2.156335552356053, 0};
Point(p14 + 13) = {3.172258629277975, -2.200020900763874, 0};
Point(p14 + 14) = {3.074925221306515, -2.25966688988113, 0};
Point(p14 + 15) = {2.988120837502067, -2.333804837502067, 0};
Point(p14 + 16) = {2.91398288988113, -2.420609221306515, 0};
Point(p14 + 17) = {2.854336900763874, -2.517942629277975, 0};
Point(p14 + 18) = {2.810651552356053, -2.62340838988113, 0};
Point(p14 + 19) = {2.784002522918827, -2.734409586069138, 0};
Point(p14 + 20) = {2.775046, -2.848213, 0};
Point(p14 + 21) = {2.784002522918827, -2.962016413930862, 0};
Point(p14 + 22) = {2.810651552356053, -3.07301761011887, 0};
Point(p14 + 23) = {2.854336900763873, -3.178483370722024, 0};
Point(p14 + 24) = {2.91398288988113, -3.275816778693485, 0};
Point(p14 + 25) = {2.988120837502067, -3.362621162497933, 0};
Point(p14 + 26) = {3.074925221306515, -3.43675911011887, 0};
Point(p14 + 27) = {3.172258629277975, -3.496405099236126, 0};
Point(p14 + 28) = {3.27772438988113, -3.540090447643947, 0};
Point(p14 + 29) = {3.388725586069138, -3.566739477081172, 0};
Point(p14 + 30) = {3.502529, -3.575696, 0};
Point(p14 + 31) = {3.616332413930862, -3.566739477081172, 0};
Point(p14 + 32) = {3.72733361011887, -3.540090447643947, 0};
Point(p14 + 33) = {3.832799370722025, -3.496405099236126, 0};
Point(p14 + 34) = {3.930132778693485, -3.43675911011887, 0};
Point(p14 + 35) = {4.016937162497933, -3.362621162497933, 0};
Point(p14 + 36) = {4.09107511011887, -3.275816778693485, 0};
Point(p14 + 37) = {4.150721099236126, -3.178483370722025, 0};
Point(p14 + 38) = {4.194406447643948, -3.07301761011887, 0};
Point(p14 + 39) = {4.221055477081173, -2.962016413930862, 0};
Spline(14) = {10, p14 + 1, p14 + 2, p14 + 3, p14 + 4, p14 + 5, p14 + 6, p14 + 7, p14 + 8, p14 + 9, p14 + 10, p14 + 11, p14 + 12, p14 + 13, p14 + 14, p14 + 15, p14 + 16, p14 + 17, p14 + 18, p14 + 19, p14 + 20, p14 + 21, p14 + 22, p14 + 23, p14 + 24, p14 + 25, p14 + 26, p14 + 27, p14 + 28, p14 + 29, p14 + 30, p14 + 31, p14 + 32, p14 + 33, p14 + 34, p14 + 35, p14 + 36, p14 + 37, p14 + 38, p14 + 39, 10};
Line(15) = {10, 8};
Curve Loop(1) = {-1, 4, 3, -2};
Plane Surface(1) = {1};
Curve Loop(2) = {-5, 1, 7, -6};
Plane Surface(2) = {2};
Curve Loop(3) = {-2, 7, 9, -8, -10};
Plane Surface(3) = {3};
Curve Loop(4) = {-11, 3, 8, -12};
Plane Surface(4) = {4};
Curve Loop(5) = {-4, 5, 13, -11, -14};
Plane Surface(5) = {5};
Curve Loop(6) = {-6, 13, 12, -9};
Plane Surface(6) = {6};
Curve Loop(7) = {-10, -15, 14, 15};
Surface(7) = {7};
Surface Loop(1) = {1, 2, 3, 4, 5, 6, 7};
Volume(1) = {1};
Physical Surface("INFLOW") = {1};
Physical Surface("OUTFLOW") = {6};
Physical Surface("OBSTACLE") = {7};
Physical Surface("WALL_Y") = {2, 4};
Physical Surface("WALL_Z") = {3, 5};
Physical Volume("FLUID") = {1};
