cl__1 = 3.275732;
cl__2 = 0.859595;
cl__3 = 0.87423;
cl__4 = 0.147432;
Point(1) = {0.07693700000000001, -4.630863, 1, cl__1};
Point(2) = {0.07693700000000001, -4.630863, 0, cl__1};
Point(3) = {0.07693700000000001, 4.955763000000001, 1, cl__1};
Point(4) = {0.07693700000000001, 4.955763000000001, 0, cl__1};
Point(5) = {32.404721, -4.630863, 0, cl__2};
Point(6) = {32.404721, -4.630863, 1, cl__2};
Point(7) = {32.404721, 4.955763000000001, 1, cl__3};
Point(8) = {24.940642, 0.007600999999999638, 1, cl__4};
Point(9) = {32.404721, 4.955763000000001, 0, cl__3};
Point(10) = {24.940642, 0.007600999999999638, 0, cl__4};
Line(1) = {2, 1};
Line(2) = {1, 3};
Line(3) = {4, 3};
Line(4) = {2, 4};
Line(5) = {2, 5};
Line(6) = {5, 6};
Line(7) = {1, 6};
Line(8) = {3, 7};
Line(9) = {6, 7};
p10 = newp;
Point(p10 + 1) = {24.92249063737124, 0.2382359298015083, 1};
Point(p10 + 2) = {24.86848349627382, 0.4631918621978556, 1};
Point(p10 + 3) = {24.77995041176096, 0.6769296355475077, 1};
Point(p10 + 4) = {24.65907136219785, 0.8741863165155959, 1};
Point(p10 + 5) = {24.50882279095929, 1.050104790959294, 1};
Point(p10 + 6) = {24.3329043165156, 1.200353362197856, 1};
Point(p10 + 7) = {24.13564763554751, 1.321232411760967, 1};
Point(p10 + 8) = {23.92190986219785, 1.40976549627382, 1};
Point(p10 + 9) = {23.69695392980151, 1.463772637371245, 1};
Point(p10 + 10) = {23.466319, 1.481924, 1};
Point(p10 + 11) = {23.23568407019849, 1.463772637371245, 1};
Point(p10 + 12) = {23.01072813780214, 1.40976549627382, 1};
Point(p10 + 13) = {22.79699036445249, 1.321232411760967, 1};
Point(p10 + 14) = {22.5997336834844, 1.200353362197856, 1};
Point(p10 + 15) = {22.4238152090407, 1.050104790959294, 1};
Point(p10 + 16) = {22.27356663780214, 0.8741863165155961, 1};
Point(p10 + 17) = {22.15268758823903, 0.676929635547508, 1};
Point(p10 + 18) = {22.06415450372618, 0.4631918621978558, 1};
Point(p10 + 19) = {22.01014736262875, 0.2382359298015085, 1};
Point(p10 + 20) = {21.991996, 0.007601000000000181, 1};
Point(p10 + 21) = {22.01014736262875, -0.2230339298015081, 1};
Point(p10 + 22) = {22.06415450372618, -0.447989862197856, 1};
Point(p10 + 23) = {22.15268758823903, -0.6617276355475071, 1};
Point(p10 + 24) = {22.27356663780214, -0.8589843165155958, 1};
Point(p10 + 25) = {22.4238152090407, -1.034902790959294, 1};
Point(p10 + 26) = {22.5997336834844, -1.185151362197856, 1};
Point(p10 + 27) = {22.79699036445249, -1.306030411760967, 1};
Point(p10 + 28) = {23.01072813780214, -1.39456349627382, 1};
Point(p10 + 29) = {23.23568407019849, -1.448570637371245, 1};
Point(p10 + 30) = {23.466319, -1.466722, 1};
Point(p10 + 31) = {23.69695392980151, -1.448570637371245, 1};
Point(p10 + 32) = {23.92190986219785, -1.39456349627382, 1};
Point(p10 + 33) = {24.13564763554751, -1.306030411760967, 1};
Point(p10 + 34) = {24.3329043165156, -1.185151362197856, 1};
Point(p10 + 35) = {24.50882279095929, -1.034902790959295, 1};
Point(p10 + 36) = {24.65907136219785, -0.8589843165155963, 1};
Point(p10 + 37) = {24.77995041176096, -0.6617276355475081, 1};
Point(p10 + 38) = {24.86848349627382, -0.4479898621978559, 1};
Point(p10 + 39) = {24.92249063737124, -0.2230339298015086, 1};
Spline(10) = {8, p10 + 1, p10 + 2, p10 + 3, p10 + 4, p10 + 5, p10 + 6, p10 + 7, p10 + 8, p10 + 9, p10 + 10, p10 + 11, p10 + 12, p10 + 13, p10 + 14, p10 + 15, p10 + 16, p10 + 17, p10 + 18, p10 + 19, p10 + 20, p10 + 21, p10 + 22, p10 + 23, p10 + 24, p10 + 25, p10 + 26, p10 + 27, p10 + 28, p10 + 29, p10 + 30, p10 + 31, p10 + 32, p10 + 33, p10 + 34, p10 + 35, p10 + 36, p10 + 37, p10 + 38, p10 + 39, 8};
Line(11) = {4, 9};
Line(12) = {9, 7};
Line(13) = {5, 9};
p14 = newp;
Point(p14 + 1) = {24.92249063737124, 0.2382359298015083, 0};
Point(p14 + 2) = {24.86848349627382, 0.4631918621978556, 0};
Point(p14 + 3) = {24.77995041176096, 0.6769296355475077, 0};
Point(p14 + 4) = {24.65907136219785, 0.8741863165155959, 0};
Point(p14 + 5) = {24.50882279095929, 1.050104790959294, 0};
Point(p14 + 6) = {24.3329043165156, 1.200353362197856, 0};
Point(p14 + 7) = {24.13564763554751, 1.321232411760967, 0};
Point(p14 + 8) = {23.92190986219785, 1.40976549627382, 0};
Point(p14 + 9) = {23.69695392980151, 1.463772637371245, 0};
Point(p14 + 10) = {23.466319, 1.481924, 0};
Point(p14 + 11) = {23.23568407019849, 1.463772637371245, 0};
Point(p14 + 12) = {23.01072813780214, 1.40976549627382, 0};
Point(p14 + 13) = {22.79699036445249, 1.321232411760967, 0};
Point(p14 + 14) = {22.5997336834844, 1.200353362197856, 0};
Point(p14 + 15) = {22.4238152090407, 1.050104790959294, 0};
Point(p14 + 16) = {22.27356663780214, 0.8741863165155961, 0};
Point(p14 + 17) = {22.15268758823903, 0.676929635547508, 0};
Point(p14 + 18) = {22.06415450372618, 0.4631918621978558, 0};
Point(p14 + 19) = {22.01014736262875, 0.2382359298015085, 0};
Point(p14 + 20) = {21.991996, 0.007601000000000181, 0};
Point(p14 + 21) = {22.01014736262875, -0.2230339298015081, 0};
Point(p14 + 22) = {22.06415450372618, -0.447989862197856, 0};
Point(p14 + 23) = {22.15268758823903, -0.6617276355475071, 0};
Point(p14 + 24) = {22.27356663780214, -0.8589843165155958, 0};
Point(p14 + 25) = {22.4238152090407, -1.034902790959294, 0};
Point(p14 + 26) = {22.5997336834844, -1.185151362197856, 0};
Point(p14 + 27) = {22.79699036445249, -1.306030411760967, 0};
Point(p14 + 28) = {23.01072813780214, -1.39456349627382, 0};
Point(p14 + 29) = {23.23568407019849, -1.448570637371245, 0};
Point(p14 + 30) = {23.466319, -1.466722, 0};
Point(p14 + 31) = {23.69695392980151, -1.448570637371245, 0};
Point(p14 + 32) = {23.92190986219785, -1.39456349627382, 0};
Point(p14 + 33) = {24.13564763554751, -1.306030411760967, 0};
Point(p14 + 34) = {24.3329043165156, -1.185151362197856, 0};
Point(p14 + 35) = {24.50882279095929, -1.034902790959295, 0};
Point(p14 + 36) = {24.65907136219785, -0.8589843165155963, 0};
Point(p14 + 37) = {24.77995041176096, -0.6617276355475081, 0};
Point(p14 + 38) = {24.86848349627382, -0.4479898621978559, 0};
Point(p14 + 39) = {24.92249063737124, -0.2230339298015086, 0};
Spline(14) = {10, p14 + 1, p14 + 2, p14 + 3, p14 + 4, p14 + 5, p14 + 6, p14 + 7, p14 + 8, p14 + 9, p14 + 10, p14 + 11, p14 + 12, p14 + 13, p14 + 14, p14 + 15, p14 + 16, p14 + 17, p14 + 18, p14 + 19, p14 + 20, p14 + 21, p14 + 22, p14 + 23, p14 + 24, p14 + 25, p14 + 26, p14 + 27, p14 + 28, p14 + 29, p14 + 30, p14 + 31, p14 + 32, p14 + 33, p14 + 34, p14 + 35, p14 + 36, p14 + 37, p14 + 38, p14 + 39, 10};
Line(15) = {10, 8};
Curve Loop(1) = {-1, 4, 3, -2};
Plane Surface(1) = {1};
Curve Loop(2) = {-5, 1, 7, -6};
Plane Surface(2) = {2};
Curve Loop(3) = {-2, 7, 9, -8, -10};
Plane Surface(3) = {3};
Curve Loop(4) = {-11, 3, 8, -12};
Plane Surface(4) = {4};
Curve Loop(5) = {-4, 5, 13, -11, -14};
Plane Surface(5) = {5};
Curve Loop(6) = {-6, 13, 12, -9};
Plane Surface(6) = {6};
Curve Loop(7) = {-10, -15, 14, 15};
Surface(7) = {7};
Surface Loop(1) = {1, 2, 3, 4, 5, 6, 7};
Volume(1) = {1};
Physical Surface("INFLOW") = {1};
Physical Surface("OUTFLOW") = {6};
Physical Surface("OBSTACLE") = {7};
Physical Surface("WALL_Y") = {2, 4};
Physical Surface("WALL_Z") = {3, 5};
Physical Volume("FLUID") = {1};
