cl__1 = 0.835817;
cl__2 = 1.006647;
cl__3 = 3.358471;
cl__4 = 0.132829;
Point(1) = {0.606261, -4.000829, 1, cl__1};
Point(2) = {0.606261, -4.000829, 0, cl__1};
Point(3) = {0.606261, 5.031840999999999, 1, cl__2};
Point(4) = {0.606261, 5.031840999999999, 0, cl__2};
Point(5) = {33.279659, -4.000829, 0, cl__3};
Point(6) = {33.279659, -4.000829, 1, cl__3};
Point(7) = {33.279659, 5.031840999999999, 1, cl__3};
Point(8) = {11.286706, -1.477985, 1, cl__4};
Point(9) = {33.279659, 5.031840999999999, 0, cl__3};
Point(10) = {11.286706, -1.477985, 0, cl__4};
Line(1) = {2, 1};
Line(2) = {1, 3};
Line(3) = {4, 3};
Line(4) = {2, 4};
Line(5) = {2, 5};
Line(6) = {5, 6};
Line(7) = {1, 6};
Line(8) = {3, 7};
Line(9) = {6, 7};
p10 = newp;
Point(p10 + 1) = {11.27035255824078, -1.270194820866177, 1};
Point(p10 + 2) = {11.22169490897317, -1.067521125558696, 1};
Point(p10 + 3) = {11.14193116500764, -0.8749544130914573, 1};
Point(p10 + 4) = {11.0330253744413, -0.6972363150176832, 1};
Point(p10 + 5) = {10.8976591592755, -0.5387428407245021, 1};
Point(p10 + 6) = {10.73916568498232, -0.4033766255586955, 1};
Point(p10 + 7) = {10.56144758690854, -0.2944708349923573, 1};
Point(p10 + 8) = {10.36888087444131, -0.2147070910268269, 1};
Point(p10 + 9) = {10.16620717913382, -0.1660494417592251, 1};
Point(p10 + 10) = {9.958417000000001, -0.1496960000000001, 1};
Point(p10 + 11) = {9.750626820866177, -0.1660494417592253, 1};
Point(p10 + 12) = {9.547953125558696, -0.2147070910268267, 1};
Point(p10 + 13) = {9.355386413091457, -0.294470834992357, 1};
Point(p10 + 14) = {9.177668315017684, -0.4033766255586955, 1};
Point(p10 + 15) = {9.019174840724503, -0.538742840724502, 1};
Point(p10 + 16) = {8.883808625558697, -0.6972363150176831, 1};
Point(p10 + 17) = {8.774902834992357, -0.8749544130914572, 1};
Point(p10 + 18) = {8.695139091026828, -1.067521125558695, 1};
Point(p10 + 19) = {8.646481441759226, -1.270194820866177, 1};
Point(p10 + 20) = {8.630128000000001, -1.477985, 1};
Point(p10 + 21) = {8.646481441759226, -1.685775179133823, 1};
Point(p10 + 22) = {8.695139091026828, -1.888448874441305, 1};
Point(p10 + 23) = {8.774902834992357, -2.081015586908542, 1};
Point(p10 + 24) = {8.883808625558697, -2.258733684982317, 1};
Point(p10 + 25) = {9.019174840724503, -2.417227159275498, 1};
Point(p10 + 26) = {9.177668315017684, -2.552593374441305, 1};
Point(p10 + 27) = {9.355386413091457, -2.661499165007643, 1};
Point(p10 + 28) = {9.547953125558696, -2.741262908973173, 1};
Point(p10 + 29) = {9.750626820866177, -2.789920558240775, 1};
Point(p10 + 30) = {9.958417000000001, -2.806274, 1};
Point(p10 + 31) = {10.16620717913382, -2.789920558240775, 1};
Point(p10 + 32) = {10.36888087444131, -2.741262908973173, 1};
Point(p10 + 33) = {10.56144758690854, -2.661499165007643, 1};
Point(p10 + 34) = {10.73916568498232, -2.552593374441305, 1};
Point(p10 + 35) = {10.8976591592755, -2.417227159275498, 1};
Point(p10 + 36) = {11.0330253744413, -2.258733684982317, 1};
Point(p10 + 37) = {11.14193116500764, -2.081015586908543, 1};
Point(p10 + 38) = {11.22169490897317, -1.888448874441305, 1};
Point(p10 + 39) = {11.27035255824078, -1.685775179133824, 1};
Spline(10) = {8, p10 + 1, p10 + 2, p10 + 3, p10 + 4, p10 + 5, p10 + 6, p10 + 7, p10 + 8, p10 + 9, p10 + 10, p10 + 11, p10 + 12, p10 + 13, p10 + 14, p10 + 15, p10 + 16, p10 + 17, p10 + 18, p10 + 19, p10 + 20, p10 + 21, p10 + 22, p10 + 23, p10 + 24, p10 + 25, p10 + 26, p10 + 27, p10 + 28, p10 + 29, p10 + 30, p10 + 31, p10 + 32, p10 + 33, p10 + 34, p10 + 35, p10 + 36, p10 + 37, p10 + 38, p10 + 39, 8};
Line(11) = {4, 9};
Line(12) = {9, 7};
Line(13) = {5, 9};
p14 = newp;
Point(p14 + 1) = {11.27035255824078, -1.270194820866177, 0};
Point(p14 + 2) = {11.22169490897317, -1.067521125558696, 0};
Point(p14 + 3) = {11.14193116500764, -0.8749544130914573, 0};
Point(p14 + 4) = {11.0330253744413, -0.6972363150176832, 0};
Point(p14 + 5) = {10.8976591592755, -0.5387428407245021, 0};
Point(p14 + 6) = {10.73916568498232, -0.4033766255586955, 0};
Point(p14 + 7) = {10.56144758690854, -0.2944708349923573, 0};
Point(p14 + 8) = {10.36888087444131, -0.2147070910268269, 0};
Point(p14 + 9) = {10.16620717913382, -0.1660494417592251, 0};
Point(p14 + 10) = {9.958417000000001, -0.1496960000000001, 0};
Point(p14 + 11) = {9.750626820866177, -0.1660494417592253, 0};
Point(p14 + 12) = {9.547953125558696, -0.2147070910268267, 0};
Point(p14 + 13) = {9.355386413091457, -0.294470834992357, 0};
Point(p14 + 14) = {9.177668315017684, -0.4033766255586955, 0};
Point(p14 + 15) = {9.019174840724503, -0.538742840724502, 0};
Point(p14 + 16) = {8.883808625558697, -0.6972363150176831, 0};
Point(p14 + 17) = {8.774902834992357, -0.8749544130914572, 0};
Point(p14 + 18) = {8.695139091026828, -1.067521125558695, 0};
Point(p14 + 19) = {8.646481441759226, -1.270194820866177, 0};
Point(p14 + 20) = {8.630128000000001, -1.477985, 0};
Point(p14 + 21) = {8.646481441759226, -1.685775179133823, 0};
Point(p14 + 22) = {8.695139091026828, -1.888448874441305, 0};
Point(p14 + 23) = {8.774902834992357, -2.081015586908542, 0};
Point(p14 + 24) = {8.883808625558697, -2.258733684982317, 0};
Point(p14 + 25) = {9.019174840724503, -2.417227159275498, 0};
Point(p14 + 26) = {9.177668315017684, -2.552593374441305, 0};
Point(p14 + 27) = {9.355386413091457, -2.661499165007643, 0};
Point(p14 + 28) = {9.547953125558696, -2.741262908973173, 0};
Point(p14 + 29) = {9.750626820866177, -2.789920558240775, 0};
Point(p14 + 30) = {9.958417000000001, -2.806274, 0};
Point(p14 + 31) = {10.16620717913382, -2.789920558240775, 0};
Point(p14 + 32) = {10.36888087444131, -2.741262908973173, 0};
Point(p14 + 33) = {10.56144758690854, -2.661499165007643, 0};
Point(p14 + 34) = {10.73916568498232, -2.552593374441305, 0};
Point(p14 + 35) = {10.8976591592755, -2.417227159275498, 0};
Point(p14 + 36) = {11.0330253744413, -2.258733684982317, 0};
Point(p14 + 37) = {11.14193116500764, -2.081015586908543, 0};
Point(p14 + 38) = {11.22169490897317, -1.888448874441305, 0};
Point(p14 + 39) = {11.27035255824078, -1.685775179133824, 0};
Spline(14) = {10, p14 + 1, p14 + 2, p14 + 3, p14 + 4, p14 + 5, p14 + 6, p14 + 7, p14 + 8, p14 + 9, p14 + 10, p14 + 11, p14 + 12, p14 + 13, p14 + 14, p14 + 15, p14 + 16, p14 + 17, p14 + 18, p14 + 19, p14 + 20, p14 + 21, p14 + 22, p14 + 23, p14 + 24, p14 + 25, p14 + 26, p14 + 27, p14 + 28, p14 + 29, p14 + 30, p14 + 31, p14 + 32, p14 + 33, p14 + 34, p14 + 35, p14 + 36, p14 + 37, p14 + 38, p14 + 39, 10};
Line(15) = {10, 8};
Curve Loop(1) = {-1, 4, 3, -2};
Plane Surface(1) = {1};
Curve Loop(2) = {-5, 1, 7, -6};
Plane Surface(2) = {2};
Curve Loop(3) = {-2, 7, 9, -8, -10};
Plane Surface(3) = {3};
Curve Loop(4) = {-11, 3, 8, -12};
Plane Surface(4) = {4};
Curve Loop(5) = {-4, 5, 13, -11, -14};
Plane Surface(5) = {5};
Curve Loop(6) = {-6, 13, 12, -9};
Plane Surface(6) = {6};
Curve Loop(7) = {-10, -15, 14, 15};
Surface(7) = {7};
Surface Loop(1) = {1, 2, 3, 4, 5, 6, 7};
Volume(1) = {1};
Physical Surface("INFLOW") = {1};
Physical Surface("OUTFLOW") = {6};
Physical Surface("OBSTACLE") = {7};
Physical Surface("WALL_Y") = {2, 4};
Physical Surface("WALL_Z") = {3, 5};
Physical Volume("FLUID") = {1};
