cl__1 = 1.785086;
cl__2 = 1.821959;
cl__3 = 0.335593;
cl__4 = 0.098037;
cl__5 = 0.08223800000000001;
Point(1) = {0.672374, -3.966573, 1, cl__1};
Point(2) = {0.672374, -3.966573, 0, cl__1};
Point(3) = {0.672374, 5.929243, 1, cl__2};
Point(4) = {0.672374, 5.929243, 0, cl__2};
Point(5) = {36.500864, -3.966573, 0, cl__3};
Point(6) = {36.500864, -3.966573, 1, cl__3};
Point(7) = {36.500864, 5.929243, 1, cl__2};
Point(8) = {5.192761, -1.462228, 1, cl__4};
Point(9) = {19.214927, 1.922876, 1, cl__5};
Point(10) = {36.500864, 5.929243, 0, cl__2};
Point(11) = {5.192761, -1.462228, 0, cl__4};
Point(12) = {19.214927, 1.922876, 0, cl__5};
Line(1) = {2, 1};
Line(2) = {1, 3};
Line(3) = {4, 3};
Line(4) = {2, 4};
Line(5) = {2, 5};
Line(6) = {5, 6};
Line(7) = {1, 6};
Line(8) = {3, 7};
Line(9) = {6, 7};
p10 = newp;
Point(p10 + 1) = {5.180691018469256, -1.308864343508509, 1};
Point(p10 + 2) = {5.14477827688028, -1.159277009224633, 1};
Point(p10 + 3) = {5.08590706611855, -1.017149333770341, 1};
Point(p10 + 4) = {5.005526990775367, -0.8859809722100283, 1};
Point(p10 + 5) = {4.905617275071856, -0.7690017249281446, 1};
Point(p10 + 6) = {4.788638027789972, -0.6690920092246329, 1};
Point(p10 + 7) = {4.65746966622966, -0.5887119338814499, 1};
Point(p10 + 8) = {4.515341990775368, -0.5298407231197204, 1};
Point(p10 + 9) = {4.365754656491491, -0.4939279815307449, 1};
Point(p10 + 10) = {4.212391, -0.4818580000000001, 1};
Point(p10 + 11) = {4.059027343508509, -0.493927981530745, 1};
Point(p10 + 12) = {3.909440009224633, -0.5298407231197203, 1};
Point(p10 + 13) = {3.767312333770341, -0.5887119338814499, 1};
Point(p10 + 14) = {3.636143972210029, -0.6690920092246329, 1};
Point(p10 + 15) = {3.519164724928145, -0.7690017249281444, 1};
Point(p10 + 16) = {3.419255009224633, -0.8859809722100281, 1};
Point(p10 + 17) = {3.33887493388145, -1.017149333770341, 1};
Point(p10 + 18) = {3.28000372311972, -1.159277009224633, 1};
Point(p10 + 19) = {3.244090981530745, -1.308864343508509, 1};
Point(p10 + 20) = {3.232021, -1.462228, 1};
Point(p10 + 21) = {3.244090981530745, -1.615591656491491, 1};
Point(p10 + 22) = {3.28000372311972, -1.765178990775368, 1};
Point(p10 + 23) = {3.33887493388145, -1.907306666229659, 1};
Point(p10 + 24) = {3.419255009224633, -2.038475027789972, 1};
Point(p10 + 25) = {3.519164724928145, -2.155454275071856, 1};
Point(p10 + 26) = {3.636143972210028, -2.255363990775367, 1};
Point(p10 + 27) = {3.767312333770341, -2.33574406611855, 1};
Point(p10 + 28) = {3.909440009224633, -2.39461527688028, 1};
Point(p10 + 29) = {4.059027343508509, -2.430528018469255, 1};
Point(p10 + 30) = {4.212391, -2.442598, 1};
Point(p10 + 31) = {4.365754656491491, -2.430528018469255, 1};
Point(p10 + 32) = {4.515341990775367, -2.39461527688028, 1};
Point(p10 + 33) = {4.65746966622966, -2.33574406611855, 1};
Point(p10 + 34) = {4.788638027789972, -2.255363990775368, 1};
Point(p10 + 35) = {4.905617275071855, -2.155454275071856, 1};
Point(p10 + 36) = {5.005526990775367, -2.038475027789972, 1};
Point(p10 + 37) = {5.08590706611855, -1.90730666622966, 1};
Point(p10 + 38) = {5.14477827688028, -1.765178990775367, 1};
Point(p10 + 39) = {5.180691018469255, -1.615591656491491, 1};
Spline(10) = {8, p10 + 1, p10 + 2, p10 + 3, p10 + 4, p10 + 5, p10 + 6, p10 + 7, p10 + 8, p10 + 9, p10 + 10, p10 + 11, p10 + 12, p10 + 13, p10 + 14, p10 + 15, p10 + 16, p10 + 17, p10 + 18, p10 + 19, p10 + 20, p10 + 21, p10 + 22, p10 + 23, p10 + 24, p10 + 25, p10 + 26, p10 + 27, p10 + 28, p10 + 29, p10 + 30, p10 + 31, p10 + 32, p10 + 33, p10 + 34, p10 + 35, p10 + 36, p10 + 37, p10 + 38, p10 + 39, 8};
p11 = newp;
Point(p11 + 1) = {19.20480212522697, 2.05152473179425, 1};
Point(p11 + 2) = {19.17467680892732, 2.177005704851064, 1};
Point(p11 + 3) = {19.12529283636855, 2.296229161166308, 1};
Point(p11 + 4) = {19.05786620485106, 2.406259423565536, 1};
Point(p11 + 5) = {18.97405718181897, 2.504387181818974, 1};
Point(p11 + 6) = {18.87592942356554, 2.588196204851064, 1};
Point(p11 + 7) = {18.76589916116631, 2.655622836368554, 1};
Point(p11 + 8) = {18.64667570485106, 2.705006808927325, 1};
Point(p11 + 9) = {18.52119473179425, 2.73513212522697, 1};
Point(p11 + 10) = {18.392546, 2.745257, 1};
Point(p11 + 11) = {18.26389726820575, 2.73513212522697, 1};
Point(p11 + 12) = {18.13841629514894, 2.705006808927325, 1};
Point(p11 + 13) = {18.01919283883369, 2.655622836368554, 1};
Point(p11 + 14) = {17.90916257643446, 2.588196204851064, 1};
Point(p11 + 15) = {17.81103481818102, 2.504387181818974, 1};
Point(p11 + 16) = {17.72722579514894, 2.406259423565536, 1};
Point(p11 + 17) = {17.65979916363144, 2.296229161166308, 1};
Point(p11 + 18) = {17.61041519107268, 2.177005704851064, 1};
Point(p11 + 19) = {17.58028987477303, 2.05152473179425, 1};
Point(p11 + 20) = {17.570165, 1.922876, 1};
Point(p11 + 21) = {17.58028987477303, 1.79422726820575, 1};
Point(p11 + 22) = {17.61041519107268, 1.668746295148936, 1};
Point(p11 + 23) = {17.65979916363144, 1.549522838833692, 1};
Point(p11 + 24) = {17.72722579514894, 1.439492576434464, 1};
Point(p11 + 25) = {17.81103481818102, 1.341364818181026, 1};
Point(p11 + 26) = {17.90916257643446, 1.257555795148936, 1};
Point(p11 + 27) = {18.01919283883369, 1.190129163631446, 1};
Point(p11 + 28) = {18.13841629514894, 1.140745191072675, 1};
Point(p11 + 29) = {18.26389726820575, 1.11061987477303, 1};
Point(p11 + 30) = {18.392546, 1.100495, 1};
Point(p11 + 31) = {18.52119473179425, 1.11061987477303, 1};
Point(p11 + 32) = {18.64667570485106, 1.140745191072675, 1};
Point(p11 + 33) = {18.76589916116631, 1.190129163631446, 1};
Point(p11 + 34) = {18.87592942356553, 1.257555795148936, 1};
Point(p11 + 35) = {18.97405718181897, 1.341364818181026, 1};
Point(p11 + 36) = {19.05786620485106, 1.439492576434463, 1};
Point(p11 + 37) = {19.12529283636855, 1.549522838833692, 1};
Point(p11 + 38) = {19.17467680892732, 1.668746295148936, 1};
Point(p11 + 39) = {19.20480212522697, 1.79422726820575, 1};
Spline(11) = {9, p11 + 1, p11 + 2, p11 + 3, p11 + 4, p11 + 5, p11 + 6, p11 + 7, p11 + 8, p11 + 9, p11 + 10, p11 + 11, p11 + 12, p11 + 13, p11 + 14, p11 + 15, p11 + 16, p11 + 17, p11 + 18, p11 + 19, p11 + 20, p11 + 21, p11 + 22, p11 + 23, p11 + 24, p11 + 25, p11 + 26, p11 + 27, p11 + 28, p11 + 29, p11 + 30, p11 + 31, p11 + 32, p11 + 33, p11 + 34, p11 + 35, p11 + 36, p11 + 37, p11 + 38, p11 + 39, 9};
Line(12) = {4, 10};
Line(13) = {10, 7};
Line(14) = {5, 10};
p15 = newp;
Point(p15 + 1) = {5.180691018469256, -1.308864343508509, 0};
Point(p15 + 2) = {5.14477827688028, -1.159277009224633, 0};
Point(p15 + 3) = {5.08590706611855, -1.017149333770341, 0};
Point(p15 + 4) = {5.005526990775367, -0.8859809722100283, 0};
Point(p15 + 5) = {4.905617275071856, -0.7690017249281446, 0};
Point(p15 + 6) = {4.788638027789972, -0.6690920092246329, 0};
Point(p15 + 7) = {4.65746966622966, -0.5887119338814499, 0};
Point(p15 + 8) = {4.515341990775368, -0.5298407231197204, 0};
Point(p15 + 9) = {4.365754656491491, -0.4939279815307449, 0};
Point(p15 + 10) = {4.212391, -0.4818580000000001, 0};
Point(p15 + 11) = {4.059027343508509, -0.493927981530745, 0};
Point(p15 + 12) = {3.909440009224633, -0.5298407231197203, 0};
Point(p15 + 13) = {3.767312333770341, -0.5887119338814499, 0};
Point(p15 + 14) = {3.636143972210029, -0.6690920092246329, 0};
Point(p15 + 15) = {3.519164724928145, -0.7690017249281444, 0};
Point(p15 + 16) = {3.419255009224633, -0.8859809722100281, 0};
Point(p15 + 17) = {3.33887493388145, -1.017149333770341, 0};
Point(p15 + 18) = {3.28000372311972, -1.159277009224633, 0};
Point(p15 + 19) = {3.244090981530745, -1.308864343508509, 0};
Point(p15 + 20) = {3.232021, -1.462228, 0};
Point(p15 + 21) = {3.244090981530745, -1.615591656491491, 0};
Point(p15 + 22) = {3.28000372311972, -1.765178990775368, 0};
Point(p15 + 23) = {3.33887493388145, -1.907306666229659, 0};
Point(p15 + 24) = {3.419255009224633, -2.038475027789972, 0};
Point(p15 + 25) = {3.519164724928145, -2.155454275071856, 0};
Point(p15 + 26) = {3.636143972210028, -2.255363990775367, 0};
Point(p15 + 27) = {3.767312333770341, -2.33574406611855, 0};
Point(p15 + 28) = {3.909440009224633, -2.39461527688028, 0};
Point(p15 + 29) = {4.059027343508509, -2.430528018469255, 0};
Point(p15 + 30) = {4.212391, -2.442598, 0};
Point(p15 + 31) = {4.365754656491491, -2.430528018469255, 0};
Point(p15 + 32) = {4.515341990775367, -2.39461527688028, 0};
Point(p15 + 33) = {4.65746966622966, -2.33574406611855, 0};
Point(p15 + 34) = {4.788638027789972, -2.255363990775368, 0};
Point(p15 + 35) = {4.905617275071855, -2.155454275071856, 0};
Point(p15 + 36) = {5.005526990775367, -2.038475027789972, 0};
Point(p15 + 37) = {5.08590706611855, -1.90730666622966, 0};
Point(p15 + 38) = {5.14477827688028, -1.765178990775367, 0};
Point(p15 + 39) = {5.180691018469255, -1.615591656491491, 0};
Spline(15) = {11, p15 + 1, p15 + 2, p15 + 3, p15 + 4, p15 + 5, p15 + 6, p15 + 7, p15 + 8, p15 + 9, p15 + 10, p15 + 11, p15 + 12, p15 + 13, p15 + 14, p15 + 15, p15 + 16, p15 + 17, p15 + 18, p15 + 19, p15 + 20, p15 + 21, p15 + 22, p15 + 23, p15 + 24, p15 + 25, p15 + 26, p15 + 27, p15 + 28, p15 + 29, p15 + 30, p15 + 31, p15 + 32, p15 + 33, p15 + 34, p15 + 35, p15 + 36, p15 + 37, p15 + 38, p15 + 39, 11};
p16 = newp;
Point(p16 + 1) = {19.20480212522697, 2.05152473179425, 0};
Point(p16 + 2) = {19.17467680892732, 2.177005704851064, 0};
Point(p16 + 3) = {19.12529283636855, 2.296229161166308, 0};
Point(p16 + 4) = {19.05786620485106, 2.406259423565536, 0};
Point(p16 + 5) = {18.97405718181897, 2.504387181818974, 0};
Point(p16 + 6) = {18.87592942356554, 2.588196204851064, 0};
Point(p16 + 7) = {18.76589916116631, 2.655622836368554, 0};
Point(p16 + 8) = {18.64667570485106, 2.705006808927325, 0};
Point(p16 + 9) = {18.52119473179425, 2.73513212522697, 0};
Point(p16 + 10) = {18.392546, 2.745257, 0};
Point(p16 + 11) = {18.26389726820575, 2.73513212522697, 0};
Point(p16 + 12) = {18.13841629514894, 2.705006808927325, 0};
Point(p16 + 13) = {18.01919283883369, 2.655622836368554, 0};
Point(p16 + 14) = {17.90916257643446, 2.588196204851064, 0};
Point(p16 + 15) = {17.81103481818102, 2.504387181818974, 0};
Point(p16 + 16) = {17.72722579514894, 2.406259423565536, 0};
Point(p16 + 17) = {17.65979916363144, 2.296229161166308, 0};
Point(p16 + 18) = {17.61041519107268, 2.177005704851064, 0};
Point(p16 + 19) = {17.58028987477303, 2.05152473179425, 0};
Point(p16 + 20) = {17.570165, 1.922876, 0};
Point(p16 + 21) = {17.58028987477303, 1.79422726820575, 0};
Point(p16 + 22) = {17.61041519107268, 1.668746295148936, 0};
Point(p16 + 23) = {17.65979916363144, 1.549522838833692, 0};
Point(p16 + 24) = {17.72722579514894, 1.439492576434464, 0};
Point(p16 + 25) = {17.81103481818102, 1.341364818181026, 0};
Point(p16 + 26) = {17.90916257643446, 1.257555795148936, 0};
Point(p16 + 27) = {18.01919283883369, 1.190129163631446, 0};
Point(p16 + 28) = {18.13841629514894, 1.140745191072675, 0};
Point(p16 + 29) = {18.26389726820575, 1.11061987477303, 0};
Point(p16 + 30) = {18.392546, 1.100495, 0};
Point(p16 + 31) = {18.52119473179425, 1.11061987477303, 0};
Point(p16 + 32) = {18.64667570485106, 1.140745191072675, 0};
Point(p16 + 33) = {18.76589916116631, 1.190129163631446, 0};
Point(p16 + 34) = {18.87592942356553, 1.257555795148936, 0};
Point(p16 + 35) = {18.97405718181897, 1.341364818181026, 0};
Point(p16 + 36) = {19.05786620485106, 1.439492576434463, 0};
Point(p16 + 37) = {19.12529283636855, 1.549522838833692, 0};
Point(p16 + 38) = {19.17467680892732, 1.668746295148936, 0};
Point(p16 + 39) = {19.20480212522697, 1.79422726820575, 0};
Spline(16) = {12, p16 + 1, p16 + 2, p16 + 3, p16 + 4, p16 + 5, p16 + 6, p16 + 7, p16 + 8, p16 + 9, p16 + 10, p16 + 11, p16 + 12, p16 + 13, p16 + 14, p16 + 15, p16 + 16, p16 + 17, p16 + 18, p16 + 19, p16 + 20, p16 + 21, p16 + 22, p16 + 23, p16 + 24, p16 + 25, p16 + 26, p16 + 27, p16 + 28, p16 + 29, p16 + 30, p16 + 31, p16 + 32, p16 + 33, p16 + 34, p16 + 35, p16 + 36, p16 + 37, p16 + 38, p16 + 39, 12};
Line(17) = {11, 8};
Line(18) = {12, 9};
Curve Loop(1) = {-1, 4, 3, -2};
Plane Surface(1) = {1};
Curve Loop(2) = {-5, 1, 7, -6};
Plane Surface(2) = {2};
Curve Loop(3) = {-2, 7, 9, -8, -10, -11};
Plane Surface(3) = {3};
Curve Loop(4) = {-12, 3, 8, -13};
Plane Surface(4) = {4};
Curve Loop(5) = {-4, 5, 14, -12, -15, -16};
Plane Surface(5) = {5};
Curve Loop(6) = {-6, 14, 13, -9};
Plane Surface(6) = {6};
Curve Loop(7) = {-10, -17, 15, 17};
Surface(7) = {7};
Curve Loop(8) = {-11, -18, 16, 18};
Surface(8) = {8};
Surface Loop(1) = {1, 2, 3, 4, 5, 6, 7, 8};
Volume(1) = {1};
Physical Surface("INFLOW") = {1};
Physical Surface("OUTFLOW") = {6};
Physical Surface("OBSTACLE") = {7, 8};
Physical Surface("WALL_Y") = {2, 4};
Physical Surface("WALL_Z") = {3, 5};
Physical Volume("FLUID") = {1};
