cl__1 = 0.438102;
cl__2 = 0.872852;
cl__3 = 3.837107;
cl__4 = 0.07033399999999999;
Point(1) = {0.300736, -4.18585, 1, cl__1};
Point(2) = {0.300736, -4.18585, 0, cl__1};
Point(3) = {0.300736, 5.601003, 1, cl__2};
Point(4) = {0.300736, 5.601003, 0, cl__2};
Point(5) = {38.057761, -4.18585, 0, cl__3};
Point(6) = {38.057761, -4.18585, 1, cl__3};
Point(7) = {38.057761, 5.601003, 1, cl__3};
Point(8) = {5.806607000000001, -2.516606, 1, cl__4};
Point(9) = {38.057761, 5.601003, 0, cl__3};
Point(10) = {5.806607000000001, -2.516606, 0, cl__4};
Line(1) = {2, 1};
Line(2) = {1, 3};
Line(3) = {4, 3};
Line(4) = {2, 4};
Line(5) = {2, 5};
Line(6) = {5, 6};
Line(7) = {1, 6};
Line(8) = {3, 7};
Line(9) = {6, 7};
p10 = newp;
Point(p10 + 1) = {5.797947754409162, -2.406579852661999, 1};
Point(p10 + 2) = {5.772183237001484, -2.299262914227307, 1};
Point(p10 + 3) = {5.729947855703074, -2.197297683884686, 1};
Point(p10 + 4) = {5.672281585772692, -2.103194884008369, 1};
Point(p10 + 5) = {5.600604362159403, -2.019271637840597, 1};
Point(p10 + 6) = {5.516681115991632, -1.947594414227308, 1};
Point(p10 + 7) = {5.422578316115314, -1.889928144296926, 1};
Point(p10 + 8) = {5.320613085772693, -1.847692762998515, 1};
Point(p10 + 9) = {5.213296147338001, -1.821928245590838, 1};
Point(p10 + 10) = {5.10327, -1.813269, 1};
Point(p10 + 11) = {4.993243852661999, -1.821928245590838, 1};
Point(p10 + 12) = {4.885926914227308, -1.847692762998515, 1};
Point(p10 + 13) = {4.783961683884686, -1.889928144296926, 1};
Point(p10 + 14) = {4.689858884008369, -1.947594414227308, 1};
Point(p10 + 15) = {4.605935637840598, -2.019271637840597, 1};
Point(p10 + 16) = {4.534258414227308, -2.103194884008369, 1};
Point(p10 + 17) = {4.476592144296927, -2.197297683884686, 1};
Point(p10 + 18) = {4.434356762998516, -2.299262914227307, 1};
Point(p10 + 19) = {4.408592245590838, -2.406579852661999, 1};
Point(p10 + 20) = {4.399933, -2.516606, 1};
Point(p10 + 21) = {4.408592245590838, -2.626632147338001, 1};
Point(p10 + 22) = {4.434356762998516, -2.733949085772692, 1};
Point(p10 + 23) = {4.476592144296926, -2.835914316115313, 1};
Point(p10 + 24) = {4.534258414227308, -2.930017115991631, 1};
Point(p10 + 25) = {4.605935637840597, -3.013940362159403, 1};
Point(p10 + 26) = {4.689858884008369, -3.085617585772692, 1};
Point(p10 + 27) = {4.783961683884686, -3.143283855703074, 1};
Point(p10 + 28) = {4.885926914227308, -3.185519237001484, 1};
Point(p10 + 29) = {4.993243852661999, -3.211283754409162, 1};
Point(p10 + 30) = {5.10327, -3.219943, 1};
Point(p10 + 31) = {5.213296147338001, -3.211283754409162, 1};
Point(p10 + 32) = {5.320613085772693, -3.185519237001484, 1};
Point(p10 + 33) = {5.422578316115314, -3.143283855703074, 1};
Point(p10 + 34) = {5.516681115991632, -3.085617585772693, 1};
Point(p10 + 35) = {5.600604362159403, -3.013940362159403, 1};
Point(p10 + 36) = {5.672281585772692, -2.930017115991631, 1};
Point(p10 + 37) = {5.729947855703074, -2.835914316115314, 1};
Point(p10 + 38) = {5.772183237001484, -2.733949085772692, 1};
Point(p10 + 39) = {5.797947754409162, -2.626632147338001, 1};
Spline(10) = {8, p10 + 1, p10 + 2, p10 + 3, p10 + 4, p10 + 5, p10 + 6, p10 + 7, p10 + 8, p10 + 9, p10 + 10, p10 + 11, p10 + 12, p10 + 13, p10 + 14, p10 + 15, p10 + 16, p10 + 17, p10 + 18, p10 + 19, p10 + 20, p10 + 21, p10 + 22, p10 + 23, p10 + 24, p10 + 25, p10 + 26, p10 + 27, p10 + 28, p10 + 29, p10 + 30, p10 + 31, p10 + 32, p10 + 33, p10 + 34, p10 + 35, p10 + 36, p10 + 37, p10 + 38, p10 + 39, 8};
Line(11) = {4, 9};
Line(12) = {9, 7};
Line(13) = {5, 9};
p14 = newp;
Point(p14 + 1) = {5.797947754409162, -2.406579852661999, 0};
Point(p14 + 2) = {5.772183237001484, -2.299262914227307, 0};
Point(p14 + 3) = {5.729947855703074, -2.197297683884686, 0};
Point(p14 + 4) = {5.672281585772692, -2.103194884008369, 0};
Point(p14 + 5) = {5.600604362159403, -2.019271637840597, 0};
Point(p14 + 6) = {5.516681115991632, -1.947594414227308, 0};
Point(p14 + 7) = {5.422578316115314, -1.889928144296926, 0};
Point(p14 + 8) = {5.320613085772693, -1.847692762998515, 0};
Point(p14 + 9) = {5.213296147338001, -1.821928245590838, 0};
Point(p14 + 10) = {5.10327, -1.813269, 0};
Point(p14 + 11) = {4.993243852661999, -1.821928245590838, 0};
Point(p14 + 12) = {4.885926914227308, -1.847692762998515, 0};
Point(p14 + 13) = {4.783961683884686, -1.889928144296926, 0};
Point(p14 + 14) = {4.689858884008369, -1.947594414227308, 0};
Point(p14 + 15) = {4.605935637840598, -2.019271637840597, 0};
Point(p14 + 16) = {4.534258414227308, -2.103194884008369, 0};
Point(p14 + 17) = {4.476592144296927, -2.197297683884686, 0};
Point(p14 + 18) = {4.434356762998516, -2.299262914227307, 0};
Point(p14 + 19) = {4.408592245590838, -2.406579852661999, 0};
Point(p14 + 20) = {4.399933, -2.516606, 0};
Point(p14 + 21) = {4.408592245590838, -2.626632147338001, 0};
Point(p14 + 22) = {4.434356762998516, -2.733949085772692, 0};
Point(p14 + 23) = {4.476592144296926, -2.835914316115313, 0};
Point(p14 + 24) = {4.534258414227308, -2.930017115991631, 0};
Point(p14 + 25) = {4.605935637840597, -3.013940362159403, 0};
Point(p14 + 26) = {4.689858884008369, -3.085617585772692, 0};
Point(p14 + 27) = {4.783961683884686, -3.143283855703074, 0};
Point(p14 + 28) = {4.885926914227308, -3.185519237001484, 0};
Point(p14 + 29) = {4.993243852661999, -3.211283754409162, 0};
Point(p14 + 30) = {5.10327, -3.219943, 0};
Point(p14 + 31) = {5.213296147338001, -3.211283754409162, 0};
Point(p14 + 32) = {5.320613085772693, -3.185519237001484, 0};
Point(p14 + 33) = {5.422578316115314, -3.143283855703074, 0};
Point(p14 + 34) = {5.516681115991632, -3.085617585772693, 0};
Point(p14 + 35) = {5.600604362159403, -3.013940362159403, 0};
Point(p14 + 36) = {5.672281585772692, -2.930017115991631, 0};
Point(p14 + 37) = {5.729947855703074, -2.835914316115314, 0};
Point(p14 + 38) = {5.772183237001484, -2.733949085772692, 0};
Point(p14 + 39) = {5.797947754409162, -2.626632147338001, 0};
Spline(14) = {10, p14 + 1, p14 + 2, p14 + 3, p14 + 4, p14 + 5, p14 + 6, p14 + 7, p14 + 8, p14 + 9, p14 + 10, p14 + 11, p14 + 12, p14 + 13, p14 + 14, p14 + 15, p14 + 16, p14 + 17, p14 + 18, p14 + 19, p14 + 20, p14 + 21, p14 + 22, p14 + 23, p14 + 24, p14 + 25, p14 + 26, p14 + 27, p14 + 28, p14 + 29, p14 + 30, p14 + 31, p14 + 32, p14 + 33, p14 + 34, p14 + 35, p14 + 36, p14 + 37, p14 + 38, p14 + 39, 10};
Line(15) = {10, 8};
Curve Loop(1) = {-1, 4, 3, -2};
Plane Surface(1) = {1};
Curve Loop(2) = {-5, 1, 7, -6};
Plane Surface(2) = {2};
Curve Loop(3) = {-2, 7, 9, -8, -10};
Plane Surface(3) = {3};
Curve Loop(4) = {-11, 3, 8, -12};
Plane Surface(4) = {4};
Curve Loop(5) = {-4, 5, 13, -11, -14};
Plane Surface(5) = {5};
Curve Loop(6) = {-6, 13, 12, -9};
Plane Surface(6) = {6};
Curve Loop(7) = {-10, -15, 14, 15};
Surface(7) = {7};
Surface Loop(1) = {1, 2, 3, 4, 5, 6, 7};
Volume(1) = {1};
Physical Surface("INFLOW") = {1};
Physical Surface("OUTFLOW") = {6};
Physical Surface("OBSTACLE") = {7};
Physical Surface("WALL_Y") = {2, 4};
Physical Surface("WALL_Z") = {3, 5};
Physical Volume("FLUID") = {1};
