cl__1 = 0.476418;
cl__2 = 0.294348;
cl__3 = 3.045976;
cl__4 = 0.106397;
Point(1) = {0.949612, -3.741117, 1, cl__1};
Point(2) = {0.949612, -3.741117, 0, cl__1};
Point(3) = {0.949612, 4.139839, 1, cl__2};
Point(4) = {0.949612, 4.139839, 0, cl__2};
Point(5) = {30.2038, -3.741117, 0, cl__3};
Point(6) = {30.2038, -3.741117, 1, cl__3};
Point(7) = {30.2038, 4.139839, 1, cl__3};
Point(8) = {4.876322999999999, 1.335498, 1, cl__4};
Point(9) = {30.2038, 4.139839, 0, cl__3};
Point(10) = {4.876322999999999, 1.335498, 0, cl__4};
Line(1) = {2, 1};
Line(2) = {1, 3};
Line(3) = {4, 3};
Line(4) = {2, 4};
Line(5) = {2, 5};
Line(6) = {5, 6};
Line(7) = {1, 6};
Line(8) = {3, 7};
Line(9) = {6, 7};
p10 = newp;
Point(p10 + 1) = {4.863223763743009, 1.501939577768854, 1};
Point(p10 + 2) = {4.824248601642554, 1.664282811505113, 1};
Point(p10 + 3) = {4.760357211540698, 1.818530272007886, 1};
Point(p10 + 4) = {4.673122811505113, 1.960883874881623, 1};
Point(p10 + 5) = {4.564693401979051, 2.087838401979051, 1};
Point(p10 + 6) = {4.437738874881623, 2.196267811505113, 1};
Point(p10 + 7) = {4.295385272007886, 2.283502211540698, 1};
Point(p10 + 8) = {4.141137811505113, 2.347393601642555, 1};
Point(p10 + 9) = {3.978794577768854, 2.386368763743009, 1};
Point(p10 + 10) = {3.812353, 2.399468, 1};
Point(p10 + 11) = {3.645911422231145, 2.386368763743009, 1};
Point(p10 + 12) = {3.483568188494887, 2.347393601642555, 1};
Point(p10 + 13) = {3.329320727992114, 2.283502211540698, 1};
Point(p10 + 14) = {3.186967125118377, 2.196267811505113, 1};
Point(p10 + 15) = {3.060012598020949, 2.087838401979051, 1};
Point(p10 + 16) = {2.951583188494887, 1.960883874881623, 1};
Point(p10 + 17) = {2.864348788459302, 1.818530272007886, 1};
Point(p10 + 18) = {2.800457398357445, 1.664282811505113, 1};
Point(p10 + 19) = {2.761482236256991, 1.501939577768855, 1};
Point(p10 + 20) = {2.748383, 1.335498, 1};
Point(p10 + 21) = {2.761482236256991, 1.169056422231146, 1};
Point(p10 + 22) = {2.800457398357445, 1.006713188494887, 1};
Point(p10 + 23) = {2.864348788459302, 0.8524657279921151, 1};
Point(p10 + 24) = {2.951583188494887, 0.7101121251183775, 1};
Point(p10 + 25) = {3.060012598020949, 0.5831575980209491, 1};
Point(p10 + 26) = {3.186967125118377, 0.4747281884948873, 1};
Point(p10 + 27) = {3.329320727992114, 0.3874937884593024, 1};
Point(p10 + 28) = {3.483568188494887, 0.3236023983574454, 1};
Point(p10 + 29) = {3.645911422231145, 0.2846272362569913, 1};
Point(p10 + 30) = {3.812353, 0.271528, 1};
Point(p10 + 31) = {3.978794577768854, 0.2846272362569913, 1};
Point(p10 + 32) = {4.141137811505113, 0.3236023983574454, 1};
Point(p10 + 33) = {4.295385272007885, 0.3874937884593022, 1};
Point(p10 + 34) = {4.437738874881623, 0.4747281884948871, 1};
Point(p10 + 35) = {4.564693401979051, 0.5831575980209489, 1};
Point(p10 + 36) = {4.673122811505113, 0.7101121251183772, 1};
Point(p10 + 37) = {4.760357211540698, 0.8524657279921142, 1};
Point(p10 + 38) = {4.824248601642554, 1.006713188494887, 1};
Point(p10 + 39) = {4.863223763743009, 1.169056422231145, 1};
Spline(10) = {8, p10 + 1, p10 + 2, p10 + 3, p10 + 4, p10 + 5, p10 + 6, p10 + 7, p10 + 8, p10 + 9, p10 + 10, p10 + 11, p10 + 12, p10 + 13, p10 + 14, p10 + 15, p10 + 16, p10 + 17, p10 + 18, p10 + 19, p10 + 20, p10 + 21, p10 + 22, p10 + 23, p10 + 24, p10 + 25, p10 + 26, p10 + 27, p10 + 28, p10 + 29, p10 + 30, p10 + 31, p10 + 32, p10 + 33, p10 + 34, p10 + 35, p10 + 36, p10 + 37, p10 + 38, p10 + 39, 8};
Line(11) = {4, 9};
Line(12) = {9, 7};
Line(13) = {5, 9};
p14 = newp;
Point(p14 + 1) = {4.863223763743009, 1.501939577768854, 0};
Point(p14 + 2) = {4.824248601642554, 1.664282811505113, 0};
Point(p14 + 3) = {4.760357211540698, 1.818530272007886, 0};
Point(p14 + 4) = {4.673122811505113, 1.960883874881623, 0};
Point(p14 + 5) = {4.564693401979051, 2.087838401979051, 0};
Point(p14 + 6) = {4.437738874881623, 2.196267811505113, 0};
Point(p14 + 7) = {4.295385272007886, 2.283502211540698, 0};
Point(p14 + 8) = {4.141137811505113, 2.347393601642555, 0};
Point(p14 + 9) = {3.978794577768854, 2.386368763743009, 0};
Point(p14 + 10) = {3.812353, 2.399468, 0};
Point(p14 + 11) = {3.645911422231145, 2.386368763743009, 0};
Point(p14 + 12) = {3.483568188494887, 2.347393601642555, 0};
Point(p14 + 13) = {3.329320727992114, 2.283502211540698, 0};
Point(p14 + 14) = {3.186967125118377, 2.196267811505113, 0};
Point(p14 + 15) = {3.060012598020949, 2.087838401979051, 0};
Point(p14 + 16) = {2.951583188494887, 1.960883874881623, 0};
Point(p14 + 17) = {2.864348788459302, 1.818530272007886, 0};
Point(p14 + 18) = {2.800457398357445, 1.664282811505113, 0};
Point(p14 + 19) = {2.761482236256991, 1.501939577768855, 0};
Point(p14 + 20) = {2.748383, 1.335498, 0};
Point(p14 + 21) = {2.761482236256991, 1.169056422231146, 0};
Point(p14 + 22) = {2.800457398357445, 1.006713188494887, 0};
Point(p14 + 23) = {2.864348788459302, 0.8524657279921151, 0};
Point(p14 + 24) = {2.951583188494887, 0.7101121251183775, 0};
Point(p14 + 25) = {3.060012598020949, 0.5831575980209491, 0};
Point(p14 + 26) = {3.186967125118377, 0.4747281884948873, 0};
Point(p14 + 27) = {3.329320727992114, 0.3874937884593024, 0};
Point(p14 + 28) = {3.483568188494887, 0.3236023983574454, 0};
Point(p14 + 29) = {3.645911422231145, 0.2846272362569913, 0};
Point(p14 + 30) = {3.812353, 0.271528, 0};
Point(p14 + 31) = {3.978794577768854, 0.2846272362569913, 0};
Point(p14 + 32) = {4.141137811505113, 0.3236023983574454, 0};
Point(p14 + 33) = {4.295385272007885, 0.3874937884593022, 0};
Point(p14 + 34) = {4.437738874881623, 0.4747281884948871, 0};
Point(p14 + 35) = {4.564693401979051, 0.5831575980209489, 0};
Point(p14 + 36) = {4.673122811505113, 0.7101121251183772, 0};
Point(p14 + 37) = {4.760357211540698, 0.8524657279921142, 0};
Point(p14 + 38) = {4.824248601642554, 1.006713188494887, 0};
Point(p14 + 39) = {4.863223763743009, 1.169056422231145, 0};
Spline(14) = {10, p14 + 1, p14 + 2, p14 + 3, p14 + 4, p14 + 5, p14 + 6, p14 + 7, p14 + 8, p14 + 9, p14 + 10, p14 + 11, p14 + 12, p14 + 13, p14 + 14, p14 + 15, p14 + 16, p14 + 17, p14 + 18, p14 + 19, p14 + 20, p14 + 21, p14 + 22, p14 + 23, p14 + 24, p14 + 25, p14 + 26, p14 + 27, p14 + 28, p14 + 29, p14 + 30, p14 + 31, p14 + 32, p14 + 33, p14 + 34, p14 + 35, p14 + 36, p14 + 37, p14 + 38, p14 + 39, 10};
Line(15) = {10, 8};
Curve Loop(1) = {-1, 4, 3, -2};
Plane Surface(1) = {1};
Curve Loop(2) = {-5, 1, 7, -6};
Plane Surface(2) = {2};
Curve Loop(3) = {-2, 7, 9, -8, -10};
Plane Surface(3) = {3};
Curve Loop(4) = {-11, 3, 8, -12};
Plane Surface(4) = {4};
Curve Loop(5) = {-4, 5, 13, -11, -14};
Plane Surface(5) = {5};
Curve Loop(6) = {-6, 13, 12, -9};
Plane Surface(6) = {6};
Curve Loop(7) = {-10, -15, 14, 15};
Surface(7) = {7};
Surface Loop(1) = {1, 2, 3, 4, 5, 6, 7};
Volume(1) = {1};
Physical Surface("INFLOW") = {1};
Physical Surface("OUTFLOW") = {6};
Physical Surface("OBSTACLE") = {7};
Physical Surface("WALL_Y") = {2, 4};
Physical Surface("WALL_Z") = {3, 5};
Physical Volume("FLUID") = {1};
