cl__1 = 1.406671;
cl__2 = 1.263549;
cl__3 = 3.892661;
cl__4 = 0.117941;
Point(1) = {0.351547, -4.148344, 1, cl__1};
Point(2) = {0.351547, -4.148344, 0, cl__1};
Point(3) = {0.351547, 4.233054000000001, 1, cl__2};
Point(4) = {0.351547, 4.233054000000001, 0, cl__2};
Point(5) = {38.70037199999999, -4.148344, 0, cl__3};
Point(6) = {38.70037199999999, -4.148344, 1, cl__3};
Point(7) = {38.70037199999999, 4.233054000000001, 1, cl__3};
Point(8) = {15.239687, 2.523605, 1, cl__4};
Point(9) = {38.70037199999999, 4.233054000000001, 0, cl__3};
Point(10) = {15.239687, 2.523605, 0, cl__4};
Line(1) = {2, 1};
Line(2) = {1, 3};
Line(3) = {4, 3};
Line(4) = {2, 4};
Line(5) = {2, 5};
Line(6) = {5, 6};
Line(7) = {1, 6};
Line(8) = {3, 7};
Line(9) = {6, 7};
p10 = newp;
Point(p10 + 1) = {15.22516649346965, 2.708105528847564, 1};
Point(p10 + 2) = {15.18196251694018, 2.888063042352751, 1};
Point(p10 + 3) = {15.11113889569953, 3.059046389288318, 1};
Point(p10 + 4) = {15.01443954235275, 3.216845392191518, 1};
Point(p10 + 5) = {14.89424551590601, 3.357574515906007, 1};
Point(p10 + 6) = {14.75351639219152, 3.477768542352751, 1};
Point(p10 + 7) = {14.59571738928832, 3.574467895699527, 1};
Point(p10 + 8) = {14.42473404235275, 3.645291516940183, 1};
Point(p10 + 9) = {14.24477652884756, 3.688495493469652, 1};
Point(p10 + 10) = {14.060276, 3.703016, 1};
Point(p10 + 11) = {13.87577547115244, 3.688495493469651, 1};
Point(p10 + 12) = {13.69581795764725, 3.645291516940183, 1};
Point(p10 + 13) = {13.52483461071168, 3.574467895699527, 1};
Point(p10 + 14) = {13.36703560780848, 3.477768542352751, 1};
Point(p10 + 15) = {13.22630648409399, 3.357574515906007, 1};
Point(p10 + 16) = {13.10611245764725, 3.216845392191518, 1};
Point(p10 + 17) = {13.00941310430047, 3.059046389288318, 1};
Point(p10 + 18) = {12.93858948305982, 2.888063042352751, 1};
Point(p10 + 19) = {12.89538550653035, 2.708105528847564, 1};
Point(p10 + 20) = {12.880865, 2.523605, 1};
Point(p10 + 21) = {12.89538550653035, 2.339104471152436, 1};
Point(p10 + 22) = {12.93858948305982, 2.159146957647248, 1};
Point(p10 + 23) = {13.00941310430047, 1.988163610711682, 1};
Point(p10 + 24) = {13.10611245764725, 1.830364607808482, 1};
Point(p10 + 25) = {13.22630648409399, 1.689635484093993, 1};
Point(p10 + 26) = {13.36703560780848, 1.569441457647249, 1};
Point(p10 + 27) = {13.52483461071168, 1.472742104300473, 1};
Point(p10 + 28) = {13.69581795764725, 1.401918483059817, 1};
Point(p10 + 29) = {13.87577547115244, 1.358714506530348, 1};
Point(p10 + 30) = {14.060276, 1.344194, 1};
Point(p10 + 31) = {14.24477652884756, 1.358714506530348, 1};
Point(p10 + 32) = {14.42473404235275, 1.401918483059816, 1};
Point(p10 + 33) = {14.59571738928832, 1.472742104300473, 1};
Point(p10 + 34) = {14.75351639219152, 1.569441457647249, 1};
Point(p10 + 35) = {14.89424551590601, 1.689635484093992, 1};
Point(p10 + 36) = {15.01443954235275, 1.830364607808482, 1};
Point(p10 + 37) = {15.11113889569953, 1.988163610711681, 1};
Point(p10 + 38) = {15.18196251694018, 2.159146957647248, 1};
Point(p10 + 39) = {15.22516649346965, 2.339104471152436, 1};
Spline(10) = {8, p10 + 1, p10 + 2, p10 + 3, p10 + 4, p10 + 5, p10 + 6, p10 + 7, p10 + 8, p10 + 9, p10 + 10, p10 + 11, p10 + 12, p10 + 13, p10 + 14, p10 + 15, p10 + 16, p10 + 17, p10 + 18, p10 + 19, p10 + 20, p10 + 21, p10 + 22, p10 + 23, p10 + 24, p10 + 25, p10 + 26, p10 + 27, p10 + 28, p10 + 29, p10 + 30, p10 + 31, p10 + 32, p10 + 33, p10 + 34, p10 + 35, p10 + 36, p10 + 37, p10 + 38, p10 + 39, 8};
Line(11) = {4, 9};
Line(12) = {9, 7};
Line(13) = {5, 9};
p14 = newp;
Point(p14 + 1) = {15.22516649346965, 2.708105528847564, 0};
Point(p14 + 2) = {15.18196251694018, 2.888063042352751, 0};
Point(p14 + 3) = {15.11113889569953, 3.059046389288318, 0};
Point(p14 + 4) = {15.01443954235275, 3.216845392191518, 0};
Point(p14 + 5) = {14.89424551590601, 3.357574515906007, 0};
Point(p14 + 6) = {14.75351639219152, 3.477768542352751, 0};
Point(p14 + 7) = {14.59571738928832, 3.574467895699527, 0};
Point(p14 + 8) = {14.42473404235275, 3.645291516940183, 0};
Point(p14 + 9) = {14.24477652884756, 3.688495493469652, 0};
Point(p14 + 10) = {14.060276, 3.703016, 0};
Point(p14 + 11) = {13.87577547115244, 3.688495493469651, 0};
Point(p14 + 12) = {13.69581795764725, 3.645291516940183, 0};
Point(p14 + 13) = {13.52483461071168, 3.574467895699527, 0};
Point(p14 + 14) = {13.36703560780848, 3.477768542352751, 0};
Point(p14 + 15) = {13.22630648409399, 3.357574515906007, 0};
Point(p14 + 16) = {13.10611245764725, 3.216845392191518, 0};
Point(p14 + 17) = {13.00941310430047, 3.059046389288318, 0};
Point(p14 + 18) = {12.93858948305982, 2.888063042352751, 0};
Point(p14 + 19) = {12.89538550653035, 2.708105528847564, 0};
Point(p14 + 20) = {12.880865, 2.523605, 0};
Point(p14 + 21) = {12.89538550653035, 2.339104471152436, 0};
Point(p14 + 22) = {12.93858948305982, 2.159146957647248, 0};
Point(p14 + 23) = {13.00941310430047, 1.988163610711682, 0};
Point(p14 + 24) = {13.10611245764725, 1.830364607808482, 0};
Point(p14 + 25) = {13.22630648409399, 1.689635484093993, 0};
Point(p14 + 26) = {13.36703560780848, 1.569441457647249, 0};
Point(p14 + 27) = {13.52483461071168, 1.472742104300473, 0};
Point(p14 + 28) = {13.69581795764725, 1.401918483059817, 0};
Point(p14 + 29) = {13.87577547115244, 1.358714506530348, 0};
Point(p14 + 30) = {14.060276, 1.344194, 0};
Point(p14 + 31) = {14.24477652884756, 1.358714506530348, 0};
Point(p14 + 32) = {14.42473404235275, 1.401918483059816, 0};
Point(p14 + 33) = {14.59571738928832, 1.472742104300473, 0};
Point(p14 + 34) = {14.75351639219152, 1.569441457647249, 0};
Point(p14 + 35) = {14.89424551590601, 1.689635484093992, 0};
Point(p14 + 36) = {15.01443954235275, 1.830364607808482, 0};
Point(p14 + 37) = {15.11113889569953, 1.988163610711681, 0};
Point(p14 + 38) = {15.18196251694018, 2.159146957647248, 0};
Point(p14 + 39) = {15.22516649346965, 2.339104471152436, 0};
Spline(14) = {10, p14 + 1, p14 + 2, p14 + 3, p14 + 4, p14 + 5, p14 + 6, p14 + 7, p14 + 8, p14 + 9, p14 + 10, p14 + 11, p14 + 12, p14 + 13, p14 + 14, p14 + 15, p14 + 16, p14 + 17, p14 + 18, p14 + 19, p14 + 20, p14 + 21, p14 + 22, p14 + 23, p14 + 24, p14 + 25, p14 + 26, p14 + 27, p14 + 28, p14 + 29, p14 + 30, p14 + 31, p14 + 32, p14 + 33, p14 + 34, p14 + 35, p14 + 36, p14 + 37, p14 + 38, p14 + 39, 10};
Line(15) = {10, 8};
Curve Loop(1) = {-1, 4, 3, -2};
Plane Surface(1) = {1};
Curve Loop(2) = {-5, 1, 7, -6};
Plane Surface(2) = {2};
Curve Loop(3) = {-2, 7, 9, -8, -10};
Plane Surface(3) = {3};
Curve Loop(4) = {-11, 3, 8, -12};
Plane Surface(4) = {4};
Curve Loop(5) = {-4, 5, 13, -11, -14};
Plane Surface(5) = {5};
Curve Loop(6) = {-6, 13, 12, -9};
Plane Surface(6) = {6};
Curve Loop(7) = {-10, -15, 14, 15};
Surface(7) = {7};
Surface Loop(1) = {1, 2, 3, 4, 5, 6, 7};
Volume(1) = {1};
Physical Surface("INFLOW") = {1};
Physical Surface("OUTFLOW") = {6};
Physical Surface("OBSTACLE") = {7};
Physical Surface("WALL_Y") = {2, 4};
Physical Surface("WALL_Z") = {3, 5};
Physical Volume("FLUID") = {1};
