cl__1 = 1;
cl__2 = 0.082067;
cl__3 = 0.08189;
Point(1) = {0.883757, -3.860475, 1, cl__1};
Point(2) = {0.883757, -3.860475, 0, cl__1};
Point(3) = {0.883757, 3.891767, 1, cl__1};
Point(4) = {0.883757, 3.891767, 0, cl__1};
Point(5) = {32.060817, -3.860475, 0, cl__1};
Point(6) = {32.060817, -3.860475, 1, cl__1};
Point(7) = {32.060817, 3.891767, 1, cl__1};
Point(8) = {19.990394, 1.337509, 1, cl__2};
Point(9) = {26.973677, 1.79478, 1, cl__3};
Point(10) = {32.060817, 3.891767, 0, cl__1};
Point(11) = {19.990394, 1.337509, 0, cl__2};
Point(12) = {26.973677, 1.79478, 0, cl__3};
Line(1) = {2, 1};
Line(2) = {1, 3};
Line(3) = {4, 3};
Line(4) = {2, 4};
Line(5) = {2, 5};
Line(6) = {5, 6};
Line(7) = {1, 6};
Line(8) = {3, 7};
Line(9) = {6, 7};
p10 = newp;
Point(p10 + 1) = {19.98029025203451, 1.465889290252241, 1};
Point(p10 + 2) = {19.95022779594536, 1.591108431688716, 1};
Point(p10 + 3) = {19.90094686917305, 1.710083113468755, 1};
Point(p10 + 4) = {19.83366093168872, 1.819883784072603, 1};
Point(p10 + 5) = {19.75002678658246, 1.917806786582458, 1};
Point(p10 + 6) = {19.6521037840726, 2.001440931688716, 1};
Point(p10 + 7) = {19.54230311346875, 2.068726869173047, 1};
Point(p10 + 8) = {19.42332843168872, 2.118007795945362, 1};
Point(p10 + 9) = {19.29810929025224, 2.148070252034509, 1};
Point(p10 + 10) = {19.169729, 2.158174, 1};
Point(p10 + 11) = {19.04134870974776, 2.148070252034509, 1};
Point(p10 + 12) = {18.91612956831128, 2.118007795945362, 1};
Point(p10 + 13) = {18.79715488653125, 2.068726869173047, 1};
Point(p10 + 14) = {18.6873542159274, 2.001440931688716, 1};
Point(p10 + 15) = {18.58943121341754, 1.917806786582458, 1};
Point(p10 + 16) = {18.50579706831128, 1.819883784072603, 1};
Point(p10 + 17) = {18.43851113082695, 1.710083113468755, 1};
Point(p10 + 18) = {18.38923020405464, 1.591108431688716, 1};
Point(p10 + 19) = {18.35916774796549, 1.465889290252241, 1};
Point(p10 + 20) = {18.349064, 1.337509, 1};
Point(p10 + 21) = {18.35916774796549, 1.209128709747759, 1};
Point(p10 + 22) = {18.38923020405464, 1.083909568311284, 1};
Point(p10 + 23) = {18.43851113082695, 0.9649348865312454, 1};
Point(p10 + 24) = {18.50579706831128, 0.8551342159273977, 1};
Point(p10 + 25) = {18.58943121341754, 0.7572112134175421, 1};
Point(p10 + 26) = {18.6873542159274, 0.6735770683112839, 1};
Point(p10 + 27) = {18.79715488653125, 0.6062911308269532, 1};
Point(p10 + 28) = {18.91612956831128, 0.5570102040546379, 1};
Point(p10 + 29) = {19.04134870974776, 0.5269477479654915, 1};
Point(p10 + 30) = {19.169729, 0.5168440000000001, 1};
Point(p10 + 31) = {19.29810929025224, 0.5269477479654914, 1};
Point(p10 + 32) = {19.42332843168872, 0.5570102040546379, 1};
Point(p10 + 33) = {19.54230311346875, 0.6062911308269532, 1};
Point(p10 + 34) = {19.6521037840726, 0.6735770683112837, 1};
Point(p10 + 35) = {19.75002678658246, 0.7572112134175419, 1};
Point(p10 + 36) = {19.83366093168872, 0.8551342159273974, 1};
Point(p10 + 37) = {19.90094686917305, 0.9649348865312448, 1};
Point(p10 + 38) = {19.95022779594536, 1.083909568311284, 1};
Point(p10 + 39) = {19.98029025203451, 1.209128709747759, 1};
Spline(10) = {8, p10 + 1, p10 + 2, p10 + 3, p10 + 4, p10 + 5, p10 + 6, p10 + 7, p10 + 8, p10 + 9, p10 + 10, p10 + 11, p10 + 12, p10 + 13, p10 + 14, p10 + 15, p10 + 16, p10 + 17, p10 + 18, p10 + 19, p10 + 20, p10 + 21, p10 + 22, p10 + 23, p10 + 24, p10 + 25, p10 + 26, p10 + 27, p10 + 28, p10 + 29, p10 + 30, p10 + 31, p10 + 32, p10 + 33, p10 + 34, p10 + 35, p10 + 36, p10 + 37, p10 + 38, p10 + 39, 8};
p11 = newp;
Point(p11 + 1) = {26.96359493286672, 1.922884809159305, 1};
Point(p11 + 2) = {26.93359698542017, 2.047835252761622, 1};
Point(p11 + 3) = {26.88442180668395, 2.166554636198714, 1};
Point(p11 + 4) = {26.81728025276162, 2.276119694243315, 1};
Point(p11 + 5) = {26.73382557154079, 2.373832571540789, 1};
Point(p11 + 6) = {26.63611269424331, 2.457287252761622, 1};
Point(p11 + 7) = {26.52654763619871, 2.524428806683951, 1};
Point(p11 + 8) = {26.40782825276162, 2.573603985420166, 1};
Point(p11 + 9) = {26.2828778091593, 2.603601932866721, 1};
Point(p11 + 10) = {26.154773, 2.613684, 1};
Point(p11 + 11) = {26.02666819084069, 2.603601932866721, 1};
Point(p11 + 12) = {25.90171774723838, 2.573603985420167, 1};
Point(p11 + 13) = {25.78299836380128, 2.524428806683951, 1};
Point(p11 + 14) = {25.67343330575669, 2.457287252761622, 1};
Point(p11 + 15) = {25.57572042845921, 2.373832571540789, 1};
Point(p11 + 16) = {25.49226574723838, 2.276119694243316, 1};
Point(p11 + 17) = {25.42512419331605, 2.166554636198714, 1};
Point(p11 + 18) = {25.37594901457983, 2.047835252761622, 1};
Point(p11 + 19) = {25.34595106713328, 1.922884809159305, 1};
Point(p11 + 20) = {25.335869, 1.79478, 1};
Point(p11 + 21) = {25.34595106713328, 1.666675190840695, 1};
Point(p11 + 22) = {25.37594901457983, 1.541724747238378, 1};
Point(p11 + 23) = {25.42512419331605, 1.423005363801287, 1};
Point(p11 + 24) = {25.49226574723838, 1.313440305756685, 1};
Point(p11 + 25) = {25.57572042845921, 1.215727428459211, 1};
Point(p11 + 26) = {25.67343330575668, 1.132272747238378, 1};
Point(p11 + 27) = {25.78299836380128, 1.065131193316049, 1};
Point(p11 + 28) = {25.90171774723838, 1.015956014579834, 1};
Point(p11 + 29) = {26.02666819084069, 0.9859580671332795, 1};
Point(p11 + 30) = {26.154773, 0.9758760000000001, 1};
Point(p11 + 31) = {26.2828778091593, 0.9859580671332794, 1};
Point(p11 + 32) = {26.40782825276162, 1.015956014579833, 1};
Point(p11 + 33) = {26.52654763619871, 1.065131193316049, 1};
Point(p11 + 34) = {26.63611269424331, 1.132272747238378, 1};
Point(p11 + 35) = {26.73382557154079, 1.215727428459211, 1};
Point(p11 + 36) = {26.81728025276162, 1.313440305756684, 1};
Point(p11 + 37) = {26.88442180668395, 1.423005363801286, 1};
Point(p11 + 38) = {26.93359698542017, 1.541724747238378, 1};
Point(p11 + 39) = {26.96359493286672, 1.666675190840695, 1};
Spline(11) = {9, p11 + 1, p11 + 2, p11 + 3, p11 + 4, p11 + 5, p11 + 6, p11 + 7, p11 + 8, p11 + 9, p11 + 10, p11 + 11, p11 + 12, p11 + 13, p11 + 14, p11 + 15, p11 + 16, p11 + 17, p11 + 18, p11 + 19, p11 + 20, p11 + 21, p11 + 22, p11 + 23, p11 + 24, p11 + 25, p11 + 26, p11 + 27, p11 + 28, p11 + 29, p11 + 30, p11 + 31, p11 + 32, p11 + 33, p11 + 34, p11 + 35, p11 + 36, p11 + 37, p11 + 38, p11 + 39, 9};
Line(12) = {4, 10};
Line(13) = {10, 7};
Line(14) = {5, 10};
p15 = newp;
Point(p15 + 1) = {19.98029025203451, 1.465889290252241, 0};
Point(p15 + 2) = {19.95022779594536, 1.591108431688716, 0};
Point(p15 + 3) = {19.90094686917305, 1.710083113468755, 0};
Point(p15 + 4) = {19.83366093168872, 1.819883784072603, 0};
Point(p15 + 5) = {19.75002678658246, 1.917806786582458, 0};
Point(p15 + 6) = {19.6521037840726, 2.001440931688716, 0};
Point(p15 + 7) = {19.54230311346875, 2.068726869173047, 0};
Point(p15 + 8) = {19.42332843168872, 2.118007795945362, 0};
Point(p15 + 9) = {19.29810929025224, 2.148070252034509, 0};
Point(p15 + 10) = {19.169729, 2.158174, 0};
Point(p15 + 11) = {19.04134870974776, 2.148070252034509, 0};
Point(p15 + 12) = {18.91612956831128, 2.118007795945362, 0};
Point(p15 + 13) = {18.79715488653125, 2.068726869173047, 0};
Point(p15 + 14) = {18.6873542159274, 2.001440931688716, 0};
Point(p15 + 15) = {18.58943121341754, 1.917806786582458, 0};
Point(p15 + 16) = {18.50579706831128, 1.819883784072603, 0};
Point(p15 + 17) = {18.43851113082695, 1.710083113468755, 0};
Point(p15 + 18) = {18.38923020405464, 1.591108431688716, 0};
Point(p15 + 19) = {18.35916774796549, 1.465889290252241, 0};
Point(p15 + 20) = {18.349064, 1.337509, 0};
Point(p15 + 21) = {18.35916774796549, 1.209128709747759, 0};
Point(p15 + 22) = {18.38923020405464, 1.083909568311284, 0};
Point(p15 + 23) = {18.43851113082695, 0.9649348865312454, 0};
Point(p15 + 24) = {18.50579706831128, 0.8551342159273977, 0};
Point(p15 + 25) = {18.58943121341754, 0.7572112134175421, 0};
Point(p15 + 26) = {18.6873542159274, 0.6735770683112839, 0};
Point(p15 + 27) = {18.79715488653125, 0.6062911308269532, 0};
Point(p15 + 28) = {18.91612956831128, 0.5570102040546379, 0};
Point(p15 + 29) = {19.04134870974776, 0.5269477479654915, 0};
Point(p15 + 30) = {19.169729, 0.5168440000000001, 0};
Point(p15 + 31) = {19.29810929025224, 0.5269477479654914, 0};
Point(p15 + 32) = {19.42332843168872, 0.5570102040546379, 0};
Point(p15 + 33) = {19.54230311346875, 0.6062911308269532, 0};
Point(p15 + 34) = {19.6521037840726, 0.6735770683112837, 0};
Point(p15 + 35) = {19.75002678658246, 0.7572112134175419, 0};
Point(p15 + 36) = {19.83366093168872, 0.8551342159273974, 0};
Point(p15 + 37) = {19.90094686917305, 0.9649348865312448, 0};
Point(p15 + 38) = {19.95022779594536, 1.083909568311284, 0};
Point(p15 + 39) = {19.98029025203451, 1.209128709747759, 0};
Spline(15) = {11, p15 + 1, p15 + 2, p15 + 3, p15 + 4, p15 + 5, p15 + 6, p15 + 7, p15 + 8, p15 + 9, p15 + 10, p15 + 11, p15 + 12, p15 + 13, p15 + 14, p15 + 15, p15 + 16, p15 + 17, p15 + 18, p15 + 19, p15 + 20, p15 + 21, p15 + 22, p15 + 23, p15 + 24, p15 + 25, p15 + 26, p15 + 27, p15 + 28, p15 + 29, p15 + 30, p15 + 31, p15 + 32, p15 + 33, p15 + 34, p15 + 35, p15 + 36, p15 + 37, p15 + 38, p15 + 39, 11};
p16 = newp;
Point(p16 + 1) = {26.96359493286672, 1.922884809159305, 0};
Point(p16 + 2) = {26.93359698542017, 2.047835252761622, 0};
Point(p16 + 3) = {26.88442180668395, 2.166554636198714, 0};
Point(p16 + 4) = {26.81728025276162, 2.276119694243315, 0};
Point(p16 + 5) = {26.73382557154079, 2.373832571540789, 0};
Point(p16 + 6) = {26.63611269424331, 2.457287252761622, 0};
Point(p16 + 7) = {26.52654763619871, 2.524428806683951, 0};
Point(p16 + 8) = {26.40782825276162, 2.573603985420166, 0};
Point(p16 + 9) = {26.2828778091593, 2.603601932866721, 0};
Point(p16 + 10) = {26.154773, 2.613684, 0};
Point(p16 + 11) = {26.02666819084069, 2.603601932866721, 0};
Point(p16 + 12) = {25.90171774723838, 2.573603985420167, 0};
Point(p16 + 13) = {25.78299836380128, 2.524428806683951, 0};
Point(p16 + 14) = {25.67343330575669, 2.457287252761622, 0};
Point(p16 + 15) = {25.57572042845921, 2.373832571540789, 0};
Point(p16 + 16) = {25.49226574723838, 2.276119694243316, 0};
Point(p16 + 17) = {25.42512419331605, 2.166554636198714, 0};
Point(p16 + 18) = {25.37594901457983, 2.047835252761622, 0};
Point(p16 + 19) = {25.34595106713328, 1.922884809159305, 0};
Point(p16 + 20) = {25.335869, 1.79478, 0};
Point(p16 + 21) = {25.34595106713328, 1.666675190840695, 0};
Point(p16 + 22) = {25.37594901457983, 1.541724747238378, 0};
Point(p16 + 23) = {25.42512419331605, 1.423005363801287, 0};
Point(p16 + 24) = {25.49226574723838, 1.313440305756685, 0};
Point(p16 + 25) = {25.57572042845921, 1.215727428459211, 0};
Point(p16 + 26) = {25.67343330575668, 1.132272747238378, 0};
Point(p16 + 27) = {25.78299836380128, 1.065131193316049, 0};
Point(p16 + 28) = {25.90171774723838, 1.015956014579834, 0};
Point(p16 + 29) = {26.02666819084069, 0.9859580671332795, 0};
Point(p16 + 30) = {26.154773, 0.9758760000000001, 0};
Point(p16 + 31) = {26.2828778091593, 0.9859580671332794, 0};
Point(p16 + 32) = {26.40782825276162, 1.015956014579833, 0};
Point(p16 + 33) = {26.52654763619871, 1.065131193316049, 0};
Point(p16 + 34) = {26.63611269424331, 1.132272747238378, 0};
Point(p16 + 35) = {26.73382557154079, 1.215727428459211, 0};
Point(p16 + 36) = {26.81728025276162, 1.313440305756684, 0};
Point(p16 + 37) = {26.88442180668395, 1.423005363801286, 0};
Point(p16 + 38) = {26.93359698542017, 1.541724747238378, 0};
Point(p16 + 39) = {26.96359493286672, 1.666675190840695, 0};
Spline(16) = {12, p16 + 1, p16 + 2, p16 + 3, p16 + 4, p16 + 5, p16 + 6, p16 + 7, p16 + 8, p16 + 9, p16 + 10, p16 + 11, p16 + 12, p16 + 13, p16 + 14, p16 + 15, p16 + 16, p16 + 17, p16 + 18, p16 + 19, p16 + 20, p16 + 21, p16 + 22, p16 + 23, p16 + 24, p16 + 25, p16 + 26, p16 + 27, p16 + 28, p16 + 29, p16 + 30, p16 + 31, p16 + 32, p16 + 33, p16 + 34, p16 + 35, p16 + 36, p16 + 37, p16 + 38, p16 + 39, 12};
Line(17) = {11, 8};
Line(18) = {12, 9};
Curve Loop(1) = {-1, 4, 3, -2};
Plane Surface(1) = {1};
Curve Loop(2) = {-5, 1, 7, -6};
Plane Surface(2) = {2};
Curve Loop(3) = {-2, 7, 9, -8, -10, -11};
Plane Surface(3) = {3};
Curve Loop(4) = {-12, 3, 8, -13};
Plane Surface(4) = {4};
Curve Loop(5) = {-4, 5, 14, -12, -15, -16};
Plane Surface(5) = {5};
Curve Loop(6) = {-6, 14, 13, -9};
Plane Surface(6) = {6};
Curve Loop(7) = {-10, -17, 15, 17};
Surface(7) = {7};
Curve Loop(8) = {-11, -18, 16, 18};
Surface(8) = {8};
Surface Loop(1) = {1, 2, 3, 4, 5, 6, 7, 8};
Volume(1) = {1};
Physical Surface("INFLOW") = {1};
Physical Surface("OUTFLOW") = {6};
Physical Surface("OBSTACLE") = {7, 8};
Physical Surface("WALL_Y") = {2, 4};
Physical Surface("WALL_Z") = {3, 5};
Physical Volume("FLUID") = {1};
