cl__1 = 3.399815;
cl__2 = 1.150055;
cl__3 = 0.963723;
cl__4 = 0.115374;
Point(1) = {0.267325, -3.860638, 1, cl__1};
Point(2) = {0.267325, -3.860638, 0, cl__1};
Point(3) = {0.267325, 4.654431000000001, 1, cl__1};
Point(4) = {0.267325, 4.654431000000001, 0, cl__1};
Point(5) = {33.730516, -3.860638, 0, cl__2};
Point(6) = {33.730516, -3.860638, 1, cl__2};
Point(7) = {33.730516, 4.654431000000001, 1, cl__3};
Point(8) = {24.226813, 2.962112, 1, cl__4};
Point(9) = {33.730516, 4.654431000000001, 0, cl__3};
Point(10) = {24.226813, 2.962112, 0, cl__4};
Line(1) = {2, 1};
Line(2) = {1, 3};
Line(3) = {4, 3};
Line(4) = {2, 4};
Line(5) = {2, 5};
Line(6) = {5, 6};
Line(7) = {1, 6};
Line(8) = {3, 7};
Line(9) = {6, 7};
p10 = newp;
Point(p10 + 1) = {24.21260859532487, 3.142596073957656, 1};
Point(p10 + 2) = {24.17034514088431, 3.318636031022174, 1};
Point(p10 + 3) = {24.10106330319099, 3.485897183207506, 1};
Point(p10 + 4) = {24.00646903102217, 3.640261005838909, 1};
Point(p10 + 5) = {23.88889154929904, 3.777926549299043, 1};
Point(p10 + 6) = {23.75122600583891, 3.895504031022174, 1};
Point(p10 + 7) = {23.59686218320751, 3.990098303190991, 1};
Point(p10 + 8) = {23.42960103102218, 4.059380140884305, 1};
Point(p10 + 9) = {23.25356107395766, 4.101643595324871, 1};
Point(p10 + 10) = {23.073077, 4.115848, 1};
Point(p10 + 11) = {22.89259292604234, 4.101643595324871, 1};
Point(p10 + 12) = {22.71655296897783, 4.059380140884305, 1};
Point(p10 + 13) = {22.5492918167925, 3.990098303190991, 1};
Point(p10 + 14) = {22.39492799416109, 3.895504031022174, 1};
Point(p10 + 15) = {22.25726245070096, 3.777926549299043, 1};
Point(p10 + 16) = {22.13968496897783, 3.640261005838909, 1};
Point(p10 + 17) = {22.04509069680901, 3.485897183207506, 1};
Point(p10 + 18) = {21.97580885911569, 3.318636031022174, 1};
Point(p10 + 19) = {21.93354540467513, 3.142596073957656, 1};
Point(p10 + 20) = {21.919341, 2.962112, 1};
Point(p10 + 21) = {21.93354540467513, 2.781627926042344, 1};
Point(p10 + 22) = {21.97580885911569, 2.605587968977825, 1};
Point(p10 + 23) = {22.04509069680901, 2.438326816792495, 1};
Point(p10 + 24) = {22.13968496897783, 2.283962994161091, 1};
Point(p10 + 25) = {22.25726245070096, 2.146297450700957, 1};
Point(p10 + 26) = {22.39492799416109, 2.028719968977826, 1};
Point(p10 + 27) = {22.5492918167925, 1.934125696809009, 1};
Point(p10 + 28) = {22.71655296897783, 1.864843859115695, 1};
Point(p10 + 29) = {22.89259292604234, 1.822580404675128, 1};
Point(p10 + 30) = {23.073077, 1.808376, 1};
Point(p10 + 31) = {23.25356107395766, 1.822580404675128, 1};
Point(p10 + 32) = {23.42960103102218, 1.864843859115694, 1};
Point(p10 + 33) = {23.59686218320751, 1.934125696809009, 1};
Point(p10 + 34) = {23.75122600583891, 2.028719968977825, 1};
Point(p10 + 35) = {23.88889154929904, 2.146297450700957, 1};
Point(p10 + 36) = {24.00646903102217, 2.283962994161091, 1};
Point(p10 + 37) = {24.10106330319099, 2.438326816792494, 1};
Point(p10 + 38) = {24.17034514088431, 2.605587968977825, 1};
Point(p10 + 39) = {24.21260859532487, 2.781627926042344, 1};
Spline(10) = {8, p10 + 1, p10 + 2, p10 + 3, p10 + 4, p10 + 5, p10 + 6, p10 + 7, p10 + 8, p10 + 9, p10 + 10, p10 + 11, p10 + 12, p10 + 13, p10 + 14, p10 + 15, p10 + 16, p10 + 17, p10 + 18, p10 + 19, p10 + 20, p10 + 21, p10 + 22, p10 + 23, p10 + 24, p10 + 25, p10 + 26, p10 + 27, p10 + 28, p10 + 29, p10 + 30, p10 + 31, p10 + 32, p10 + 33, p10 + 34, p10 + 35, p10 + 36, p10 + 37, p10 + 38, p10 + 39, 8};
Line(11) = {4, 9};
Line(12) = {9, 7};
Line(13) = {5, 9};
p14 = newp;
Point(p14 + 1) = {24.21260859532487, 3.142596073957656, 0};
Point(p14 + 2) = {24.17034514088431, 3.318636031022174, 0};
Point(p14 + 3) = {24.10106330319099, 3.485897183207506, 0};
Point(p14 + 4) = {24.00646903102217, 3.640261005838909, 0};
Point(p14 + 5) = {23.88889154929904, 3.777926549299043, 0};
Point(p14 + 6) = {23.75122600583891, 3.895504031022174, 0};
Point(p14 + 7) = {23.59686218320751, 3.990098303190991, 0};
Point(p14 + 8) = {23.42960103102218, 4.059380140884305, 0};
Point(p14 + 9) = {23.25356107395766, 4.101643595324871, 0};
Point(p14 + 10) = {23.073077, 4.115848, 0};
Point(p14 + 11) = {22.89259292604234, 4.101643595324871, 0};
Point(p14 + 12) = {22.71655296897783, 4.059380140884305, 0};
Point(p14 + 13) = {22.5492918167925, 3.990098303190991, 0};
Point(p14 + 14) = {22.39492799416109, 3.895504031022174, 0};
Point(p14 + 15) = {22.25726245070096, 3.777926549299043, 0};
Point(p14 + 16) = {22.13968496897783, 3.640261005838909, 0};
Point(p14 + 17) = {22.04509069680901, 3.485897183207506, 0};
Point(p14 + 18) = {21.97580885911569, 3.318636031022174, 0};
Point(p14 + 19) = {21.93354540467513, 3.142596073957656, 0};
Point(p14 + 20) = {21.919341, 2.962112, 0};
Point(p14 + 21) = {21.93354540467513, 2.781627926042344, 0};
Point(p14 + 22) = {21.97580885911569, 2.605587968977825, 0};
Point(p14 + 23) = {22.04509069680901, 2.438326816792495, 0};
Point(p14 + 24) = {22.13968496897783, 2.283962994161091, 0};
Point(p14 + 25) = {22.25726245070096, 2.146297450700957, 0};
Point(p14 + 26) = {22.39492799416109, 2.028719968977826, 0};
Point(p14 + 27) = {22.5492918167925, 1.934125696809009, 0};
Point(p14 + 28) = {22.71655296897783, 1.864843859115695, 0};
Point(p14 + 29) = {22.89259292604234, 1.822580404675128, 0};
Point(p14 + 30) = {23.073077, 1.808376, 0};
Point(p14 + 31) = {23.25356107395766, 1.822580404675128, 0};
Point(p14 + 32) = {23.42960103102218, 1.864843859115694, 0};
Point(p14 + 33) = {23.59686218320751, 1.934125696809009, 0};
Point(p14 + 34) = {23.75122600583891, 2.028719968977825, 0};
Point(p14 + 35) = {23.88889154929904, 2.146297450700957, 0};
Point(p14 + 36) = {24.00646903102217, 2.283962994161091, 0};
Point(p14 + 37) = {24.10106330319099, 2.438326816792494, 0};
Point(p14 + 38) = {24.17034514088431, 2.605587968977825, 0};
Point(p14 + 39) = {24.21260859532487, 2.781627926042344, 0};
Spline(14) = {10, p14 + 1, p14 + 2, p14 + 3, p14 + 4, p14 + 5, p14 + 6, p14 + 7, p14 + 8, p14 + 9, p14 + 10, p14 + 11, p14 + 12, p14 + 13, p14 + 14, p14 + 15, p14 + 16, p14 + 17, p14 + 18, p14 + 19, p14 + 20, p14 + 21, p14 + 22, p14 + 23, p14 + 24, p14 + 25, p14 + 26, p14 + 27, p14 + 28, p14 + 29, p14 + 30, p14 + 31, p14 + 32, p14 + 33, p14 + 34, p14 + 35, p14 + 36, p14 + 37, p14 + 38, p14 + 39, 10};
Line(15) = {10, 8};
Curve Loop(1) = {-1, 4, 3, -2};
Plane Surface(1) = {1};
Curve Loop(2) = {-5, 1, 7, -6};
Plane Surface(2) = {2};
Curve Loop(3) = {-2, 7, 9, -8, -10};
Plane Surface(3) = {3};
Curve Loop(4) = {-11, 3, 8, -12};
Plane Surface(4) = {4};
Curve Loop(5) = {-4, 5, 13, -11, -14};
Plane Surface(5) = {5};
Curve Loop(6) = {-6, 13, 12, -9};
Plane Surface(6) = {6};
Curve Loop(7) = {-10, -15, 14, 15};
Surface(7) = {7};
Surface Loop(1) = {1, 2, 3, 4, 5, 6, 7};
Volume(1) = {1};
Physical Surface("INFLOW") = {1};
Physical Surface("OUTFLOW") = {6};
Physical Surface("OBSTACLE") = {7};
Physical Surface("WALL_Y") = {2, 4};
Physical Surface("WALL_Z") = {3, 5};
Physical Volume("FLUID") = {1};
