cl__1 = 1;
cl__2 = 0.054252;
cl__3 = 0.057774;
Point(1) = {0.597649, -3.873779, 1, cl__1};
Point(2) = {0.597649, -3.873779, 0, cl__1};
Point(3) = {0.597649, 5.400958, 1, cl__1};
Point(4) = {0.597649, 5.400958, 0, cl__1};
Point(5) = {33.420452, -3.873779, 0, cl__1};
Point(6) = {33.420452, -3.873779, 1, cl__1};
Point(7) = {33.420452, 5.400958, 1, cl__1};
Point(8) = {26.433084, 2.386706, 1, cl__2};
Point(9) = {23.665189, 2.634301, 1, cl__3};
Point(10) = {33.420452, 5.400958, 0, cl__1};
Point(11) = {26.433084, 2.386706, 0, cl__2};
Point(12) = {23.665189, 2.634301, 0, cl__3};
Line(1) = {2, 1};
Line(2) = {1, 3};
Line(3) = {4, 3};
Line(4) = {2, 4};
Line(5) = {2, 5};
Line(6) = {5, 6};
Line(7) = {1, 6};
Line(8) = {3, 7};
Line(9) = {6, 7};
p10 = newp;
Point(p10 + 1) = {26.42640471547465, 2.471574356670231, 1};
Point(p10 + 2) = {26.4065313280509, 2.554352972737314, 1};
Point(p10 + 3) = {26.3739531864831, 2.6330035639472, 1};
Point(p10 + 4) = {26.32947247273732, 2.705589491717956, 1};
Point(p10 + 5) = {26.27418444960898, 2.770323449608982, 1};
Point(p10 + 6) = {26.20945049171796, 2.825611472737314, 1};
Point(p10 + 7) = {26.1368645639472, 2.870092186483101, 1};
Point(p10 + 8) = {26.05821397273731, 2.902670328050898, 1};
Point(p10 + 9) = {25.97543535667023, 2.922543715474653, 1};
Point(p10 + 10) = {25.890567, 2.929223, 1};
Point(p10 + 11) = {25.80569864332977, 2.922543715474653, 1};
Point(p10 + 12) = {25.72292002726269, 2.902670328050898, 1};
Point(p10 + 13) = {25.6442694360528, 2.870092186483101, 1};
Point(p10 + 14) = {25.57168350828205, 2.825611472737314, 1};
Point(p10 + 15) = {25.50694955039102, 2.770323449608982, 1};
Point(p10 + 16) = {25.45166152726269, 2.705589491717956, 1};
Point(p10 + 17) = {25.4071808135169, 2.6330035639472, 1};
Point(p10 + 18) = {25.3746026719491, 2.554352972737314, 1};
Point(p10 + 19) = {25.35472928452535, 2.471574356670231, 1};
Point(p10 + 20) = {25.34805, 2.386706, 1};
Point(p10 + 21) = {25.35472928452535, 2.301837643329769, 1};
Point(p10 + 22) = {25.3746026719491, 2.219059027262687, 1};
Point(p10 + 23) = {25.4071808135169, 2.140408436052801, 1};
Point(p10 + 24) = {25.45166152726269, 2.067822508282045, 1};
Point(p10 + 25) = {25.50694955039102, 2.003088550391018, 1};
Point(p10 + 26) = {25.57168350828205, 1.947800527262687, 1};
Point(p10 + 27) = {25.6442694360528, 1.903319813516899, 1};
Point(p10 + 28) = {25.72292002726269, 1.870741671949102, 1};
Point(p10 + 29) = {25.80569864332977, 1.850868284525348, 1};
Point(p10 + 30) = {25.890567, 1.844189, 1};
Point(p10 + 31) = {25.97543535667023, 1.850868284525348, 1};
Point(p10 + 32) = {26.05821397273731, 1.870741671949102, 1};
Point(p10 + 33) = {26.1368645639472, 1.903319813516899, 1};
Point(p10 + 34) = {26.20945049171796, 1.947800527262687, 1};
Point(p10 + 35) = {26.27418444960898, 2.003088550391018, 1};
Point(p10 + 36) = {26.32947247273732, 2.067822508282045, 1};
Point(p10 + 37) = {26.3739531864831, 2.1404084360528, 1};
Point(p10 + 38) = {26.4065313280509, 2.219059027262687, 1};
Point(p10 + 39) = {26.42640471547465, 2.301837643329769, 1};
Spline(10) = {8, p10 + 1, p10 + 2, p10 + 3, p10 + 4, p10 + 5, p10 + 6, p10 + 7, p10 + 8, p10 + 9, p10 + 10, p10 + 11, p10 + 12, p10 + 13, p10 + 14, p10 + 15, p10 + 16, p10 + 17, p10 + 18, p10 + 19, p10 + 20, p10 + 21, p10 + 22, p10 + 23, p10 + 24, p10 + 25, p10 + 26, p10 + 27, p10 + 28, p10 + 29, p10 + 30, p10 + 31, p10 + 32, p10 + 33, p10 + 34, p10 + 35, p10 + 36, p10 + 37, p10 + 38, p10 + 39, 8};
p11 = newp;
Point(p11 + 1) = {23.65807612345373, 2.724678665660018, 1};
Point(p11 + 2) = {23.63691263644178, 2.81283093324521, 1};
Point(p11 + 3) = {23.60221965425197, 2.896587201367027, 1};
Point(p11 + 4) = {23.55485143324521, 2.973885112733192, 1};
Point(p11 + 5) = {23.49597433622881, 3.04282133622881, 1};
Point(p11 + 6) = {23.42703811273319, 3.10169843324521, 1};
Point(p11 + 7) = {23.34974020136703, 3.149066654251966, 1};
Point(p11 + 8) = {23.26598393324521, 3.18375963644178, 1};
Point(p11 + 9) = {23.17783166566002, 3.204923123453732, 1};
Point(p11 + 10) = {23.087454, 3.212036, 1};
Point(p11 + 11) = {22.99707633433998, 3.204923123453732, 1};
Point(p11 + 12) = {22.90892406675479, 3.18375963644178, 1};
Point(p11 + 13) = {22.82516779863298, 3.149066654251967, 1};
Point(p11 + 14) = {22.74786988726681, 3.10169843324521, 1};
Point(p11 + 15) = {22.67893366377119, 3.04282133622881, 1};
Point(p11 + 16) = {22.62005656675479, 2.973885112733192, 1};
Point(p11 + 17) = {22.57268834574803, 2.896587201367027, 1};
Point(p11 + 18) = {22.53799536355822, 2.81283093324521, 1};
Point(p11 + 19) = {22.51683187654627, 2.724678665660018, 1};
Point(p11 + 20) = {22.509719, 2.634301, 1};
Point(p11 + 21) = {22.51683187654627, 2.543923334339982, 1};
Point(p11 + 22) = {22.53799536355822, 2.455771066754789, 1};
Point(p11 + 23) = {22.57268834574803, 2.372014798632973, 1};
Point(p11 + 24) = {22.62005656675479, 2.294716887266808, 1};
Point(p11 + 25) = {22.67893366377119, 2.22578066377119, 1};
Point(p11 + 26) = {22.74786988726681, 2.166903566754789, 1};
Point(p11 + 27) = {22.82516779863298, 2.119535345748033, 1};
Point(p11 + 28) = {22.90892406675479, 2.084842363558219, 1};
Point(p11 + 29) = {22.99707633433998, 2.063678876546268, 1};
Point(p11 + 30) = {23.087454, 2.056566, 1};
Point(p11 + 31) = {23.17783166566002, 2.063678876546268, 1};
Point(p11 + 32) = {23.26598393324521, 2.084842363558219, 1};
Point(p11 + 33) = {23.34974020136703, 2.119535345748033, 1};
Point(p11 + 34) = {23.42703811273319, 2.166903566754789, 1};
Point(p11 + 35) = {23.49597433622881, 2.225780663771189, 1};
Point(p11 + 36) = {23.55485143324521, 2.294716887266808, 1};
Point(p11 + 37) = {23.60221965425197, 2.372014798632973, 1};
Point(p11 + 38) = {23.63691263644178, 2.45577106675479, 1};
Point(p11 + 39) = {23.65807612345373, 2.543923334339982, 1};
Spline(11) = {9, p11 + 1, p11 + 2, p11 + 3, p11 + 4, p11 + 5, p11 + 6, p11 + 7, p11 + 8, p11 + 9, p11 + 10, p11 + 11, p11 + 12, p11 + 13, p11 + 14, p11 + 15, p11 + 16, p11 + 17, p11 + 18, p11 + 19, p11 + 20, p11 + 21, p11 + 22, p11 + 23, p11 + 24, p11 + 25, p11 + 26, p11 + 27, p11 + 28, p11 + 29, p11 + 30, p11 + 31, p11 + 32, p11 + 33, p11 + 34, p11 + 35, p11 + 36, p11 + 37, p11 + 38, p11 + 39, 9};
Line(12) = {4, 10};
Line(13) = {10, 7};
Line(14) = {5, 10};
p15 = newp;
Point(p15 + 1) = {26.42640471547465, 2.471574356670231, 0};
Point(p15 + 2) = {26.4065313280509, 2.554352972737314, 0};
Point(p15 + 3) = {26.3739531864831, 2.6330035639472, 0};
Point(p15 + 4) = {26.32947247273732, 2.705589491717956, 0};
Point(p15 + 5) = {26.27418444960898, 2.770323449608982, 0};
Point(p15 + 6) = {26.20945049171796, 2.825611472737314, 0};
Point(p15 + 7) = {26.1368645639472, 2.870092186483101, 0};
Point(p15 + 8) = {26.05821397273731, 2.902670328050898, 0};
Point(p15 + 9) = {25.97543535667023, 2.922543715474653, 0};
Point(p15 + 10) = {25.890567, 2.929223, 0};
Point(p15 + 11) = {25.80569864332977, 2.922543715474653, 0};
Point(p15 + 12) = {25.72292002726269, 2.902670328050898, 0};
Point(p15 + 13) = {25.6442694360528, 2.870092186483101, 0};
Point(p15 + 14) = {25.57168350828205, 2.825611472737314, 0};
Point(p15 + 15) = {25.50694955039102, 2.770323449608982, 0};
Point(p15 + 16) = {25.45166152726269, 2.705589491717956, 0};
Point(p15 + 17) = {25.4071808135169, 2.6330035639472, 0};
Point(p15 + 18) = {25.3746026719491, 2.554352972737314, 0};
Point(p15 + 19) = {25.35472928452535, 2.471574356670231, 0};
Point(p15 + 20) = {25.34805, 2.386706, 0};
Point(p15 + 21) = {25.35472928452535, 2.301837643329769, 0};
Point(p15 + 22) = {25.3746026719491, 2.219059027262687, 0};
Point(p15 + 23) = {25.4071808135169, 2.140408436052801, 0};
Point(p15 + 24) = {25.45166152726269, 2.067822508282045, 0};
Point(p15 + 25) = {25.50694955039102, 2.003088550391018, 0};
Point(p15 + 26) = {25.57168350828205, 1.947800527262687, 0};
Point(p15 + 27) = {25.6442694360528, 1.903319813516899, 0};
Point(p15 + 28) = {25.72292002726269, 1.870741671949102, 0};
Point(p15 + 29) = {25.80569864332977, 1.850868284525348, 0};
Point(p15 + 30) = {25.890567, 1.844189, 0};
Point(p15 + 31) = {25.97543535667023, 1.850868284525348, 0};
Point(p15 + 32) = {26.05821397273731, 1.870741671949102, 0};
Point(p15 + 33) = {26.1368645639472, 1.903319813516899, 0};
Point(p15 + 34) = {26.20945049171796, 1.947800527262687, 0};
Point(p15 + 35) = {26.27418444960898, 2.003088550391018, 0};
Point(p15 + 36) = {26.32947247273732, 2.067822508282045, 0};
Point(p15 + 37) = {26.3739531864831, 2.1404084360528, 0};
Point(p15 + 38) = {26.4065313280509, 2.219059027262687, 0};
Point(p15 + 39) = {26.42640471547465, 2.301837643329769, 0};
Spline(15) = {11, p15 + 1, p15 + 2, p15 + 3, p15 + 4, p15 + 5, p15 + 6, p15 + 7, p15 + 8, p15 + 9, p15 + 10, p15 + 11, p15 + 12, p15 + 13, p15 + 14, p15 + 15, p15 + 16, p15 + 17, p15 + 18, p15 + 19, p15 + 20, p15 + 21, p15 + 22, p15 + 23, p15 + 24, p15 + 25, p15 + 26, p15 + 27, p15 + 28, p15 + 29, p15 + 30, p15 + 31, p15 + 32, p15 + 33, p15 + 34, p15 + 35, p15 + 36, p15 + 37, p15 + 38, p15 + 39, 11};
p16 = newp;
Point(p16 + 1) = {23.65807612345373, 2.724678665660018, 0};
Point(p16 + 2) = {23.63691263644178, 2.81283093324521, 0};
Point(p16 + 3) = {23.60221965425197, 2.896587201367027, 0};
Point(p16 + 4) = {23.55485143324521, 2.973885112733192, 0};
Point(p16 + 5) = {23.49597433622881, 3.04282133622881, 0};
Point(p16 + 6) = {23.42703811273319, 3.10169843324521, 0};
Point(p16 + 7) = {23.34974020136703, 3.149066654251966, 0};
Point(p16 + 8) = {23.26598393324521, 3.18375963644178, 0};
Point(p16 + 9) = {23.17783166566002, 3.204923123453732, 0};
Point(p16 + 10) = {23.087454, 3.212036, 0};
Point(p16 + 11) = {22.99707633433998, 3.204923123453732, 0};
Point(p16 + 12) = {22.90892406675479, 3.18375963644178, 0};
Point(p16 + 13) = {22.82516779863298, 3.149066654251967, 0};
Point(p16 + 14) = {22.74786988726681, 3.10169843324521, 0};
Point(p16 + 15) = {22.67893366377119, 3.04282133622881, 0};
Point(p16 + 16) = {22.62005656675479, 2.973885112733192, 0};
Point(p16 + 17) = {22.57268834574803, 2.896587201367027, 0};
Point(p16 + 18) = {22.53799536355822, 2.81283093324521, 0};
Point(p16 + 19) = {22.51683187654627, 2.724678665660018, 0};
Point(p16 + 20) = {22.509719, 2.634301, 0};
Point(p16 + 21) = {22.51683187654627, 2.543923334339982, 0};
Point(p16 + 22) = {22.53799536355822, 2.455771066754789, 0};
Point(p16 + 23) = {22.57268834574803, 2.372014798632973, 0};
Point(p16 + 24) = {22.62005656675479, 2.294716887266808, 0};
Point(p16 + 25) = {22.67893366377119, 2.22578066377119, 0};
Point(p16 + 26) = {22.74786988726681, 2.166903566754789, 0};
Point(p16 + 27) = {22.82516779863298, 2.119535345748033, 0};
Point(p16 + 28) = {22.90892406675479, 2.084842363558219, 0};
Point(p16 + 29) = {22.99707633433998, 2.063678876546268, 0};
Point(p16 + 30) = {23.087454, 2.056566, 0};
Point(p16 + 31) = {23.17783166566002, 2.063678876546268, 0};
Point(p16 + 32) = {23.26598393324521, 2.084842363558219, 0};
Point(p16 + 33) = {23.34974020136703, 2.119535345748033, 0};
Point(p16 + 34) = {23.42703811273319, 2.166903566754789, 0};
Point(p16 + 35) = {23.49597433622881, 2.225780663771189, 0};
Point(p16 + 36) = {23.55485143324521, 2.294716887266808, 0};
Point(p16 + 37) = {23.60221965425197, 2.372014798632973, 0};
Point(p16 + 38) = {23.63691263644178, 2.45577106675479, 0};
Point(p16 + 39) = {23.65807612345373, 2.543923334339982, 0};
Spline(16) = {12, p16 + 1, p16 + 2, p16 + 3, p16 + 4, p16 + 5, p16 + 6, p16 + 7, p16 + 8, p16 + 9, p16 + 10, p16 + 11, p16 + 12, p16 + 13, p16 + 14, p16 + 15, p16 + 16, p16 + 17, p16 + 18, p16 + 19, p16 + 20, p16 + 21, p16 + 22, p16 + 23, p16 + 24, p16 + 25, p16 + 26, p16 + 27, p16 + 28, p16 + 29, p16 + 30, p16 + 31, p16 + 32, p16 + 33, p16 + 34, p16 + 35, p16 + 36, p16 + 37, p16 + 38, p16 + 39, 12};
Line(17) = {11, 8};
Line(18) = {12, 9};
Curve Loop(1) = {-1, 4, 3, -2};
Plane Surface(1) = {1};
Curve Loop(2) = {-5, 1, 7, -6};
Plane Surface(2) = {2};
Curve Loop(3) = {-2, 7, 9, -8, -10, -11};
Plane Surface(3) = {3};
Curve Loop(4) = {-12, 3, 8, -13};
Plane Surface(4) = {4};
Curve Loop(5) = {-4, 5, 14, -12, -15, -16};
Plane Surface(5) = {5};
Curve Loop(6) = {-6, 14, 13, -9};
Plane Surface(6) = {6};
Curve Loop(7) = {-10, -17, 15, 17};
Surface(7) = {7};
Curve Loop(8) = {-11, -18, 16, 18};
Surface(8) = {8};
Surface Loop(1) = {1, 2, 3, 4, 5, 6, 7, 8};
Volume(1) = {1};
Physical Surface("INFLOW") = {1};
Physical Surface("OUTFLOW") = {6};
Physical Surface("OBSTACLE") = {7, 8};
Physical Surface("WALL_Y") = {2, 4};
Physical Surface("WALL_Z") = {3, 5};
Physical Volume("FLUID") = {1};
