cl__1 = 1.119607;
cl__2 = 0.920291;
cl__3 = 3.909279;
cl__4 = 0.09149400000000001;
Point(1) = {0.921868, -4.321793, 1, cl__1};
Point(2) = {0.921868, -4.321793, 0, cl__1};
Point(3) = {0.921868, 5.338273999999999, 1, cl__2};
Point(4) = {0.921868, 5.338273999999999, 0, cl__2};
Point(5) = {38.79326200000001, -4.321793, 0, cl__3};
Point(6) = {38.79326200000001, -4.321793, 1, cl__3};
Point(7) = {38.79326200000001, 5.338273999999999, 1, cl__3};
Point(8) = {11.63148, 2.801479, 1, cl__4};
Point(9) = {38.79326200000001, 5.338273999999999, 0, cl__3};
Point(10) = {11.63148, 2.801479, 0, cl__4};
Line(1) = {2, 1};
Line(2) = {1, 3};
Line(3) = {4, 3};
Line(4) = {2, 4};
Line(5) = {2, 5};
Line(6) = {5, 6};
Line(7) = {1, 6};
Line(8) = {3, 7};
Line(9) = {6, 7};
p10 = newp;
Point(p10 + 1) = {11.6202155457208, 2.944607462312839, 1};
Point(p10 + 2) = {11.58669955113212, 3.084211626867403, 1};
Point(p10 + 3) = {11.53175729125395, 3.2168539758127, 1};
Point(p10 + 4) = {11.4567416268674, 3.33926841430298, 1};
Point(p10 + 5) = {11.36349969259238, 3.448440692592382, 1};
Point(p10 + 6) = {11.25432741430298, 3.541682626867403, 1};
Point(p10 + 7) = {11.1319129758127, 3.616698291253954, 1};
Point(p10 + 8) = {10.9992706268674, 3.67164055113212, 1};
Point(p10 + 9) = {10.85966646231284, 3.705156545720797, 1};
Point(p10 + 10) = {10.716538, 3.716421, 1};
Point(p10 + 11) = {10.57340953768716, 3.705156545720797, 1};
Point(p10 + 12) = {10.4338053731326, 3.67164055113212, 1};
Point(p10 + 13) = {10.3011630241873, 3.616698291253954, 1};
Point(p10 + 14) = {10.17874858569702, 3.541682626867403, 1};
Point(p10 + 15) = {10.06957630740762, 3.448440692592382, 1};
Point(p10 + 16) = {9.976334373132596, 3.33926841430298, 1};
Point(p10 + 17) = {9.901318708746047, 3.2168539758127, 1};
Point(p10 + 18) = {9.846376448867879, 3.084211626867403, 1};
Point(p10 + 19) = {9.812860454279203, 2.944607462312839, 1};
Point(p10 + 20) = {9.801596, 2.801479, 1};
Point(p10 + 21) = {9.812860454279203, 2.658350537687161, 1};
Point(p10 + 22) = {9.846376448867879, 2.518746373132597, 1};
Point(p10 + 23) = {9.901318708746047, 2.3861040241873, 1};
Point(p10 + 24) = {9.976334373132596, 2.26368958569702, 1};
Point(p10 + 25) = {10.06957630740762, 2.154517307407618, 1};
Point(p10 + 26) = {10.17874858569702, 2.061275373132597, 1};
Point(p10 + 27) = {10.3011630241873, 1.986259708746046, 1};
Point(p10 + 28) = {10.4338053731326, 1.93131744886788, 1};
Point(p10 + 29) = {10.57340953768716, 1.897801454279203, 1};
Point(p10 + 30) = {10.716538, 1.886537, 1};
Point(p10 + 31) = {10.85966646231284, 1.897801454279203, 1};
Point(p10 + 32) = {10.9992706268674, 1.93131744886788, 1};
Point(p10 + 33) = {11.1319129758127, 1.986259708746046, 1};
Point(p10 + 34) = {11.25432741430298, 2.061275373132597, 1};
Point(p10 + 35) = {11.36349969259238, 2.154517307407618, 1};
Point(p10 + 36) = {11.4567416268674, 2.26368958569702, 1};
Point(p10 + 37) = {11.53175729125395, 2.386104024187299, 1};
Point(p10 + 38) = {11.58669955113212, 2.518746373132597, 1};
Point(p10 + 39) = {11.6202155457208, 2.658350537687161, 1};
Spline(10) = {8, p10 + 1, p10 + 2, p10 + 3, p10 + 4, p10 + 5, p10 + 6, p10 + 7, p10 + 8, p10 + 9, p10 + 10, p10 + 11, p10 + 12, p10 + 13, p10 + 14, p10 + 15, p10 + 16, p10 + 17, p10 + 18, p10 + 19, p10 + 20, p10 + 21, p10 + 22, p10 + 23, p10 + 24, p10 + 25, p10 + 26, p10 + 27, p10 + 28, p10 + 29, p10 + 30, p10 + 31, p10 + 32, p10 + 33, p10 + 34, p10 + 35, p10 + 36, p10 + 37, p10 + 38, p10 + 39, 8};
Line(11) = {4, 9};
Line(12) = {9, 7};
Line(13) = {5, 9};
p14 = newp;
Point(p14 + 1) = {11.6202155457208, 2.944607462312839, 0};
Point(p14 + 2) = {11.58669955113212, 3.084211626867403, 0};
Point(p14 + 3) = {11.53175729125395, 3.2168539758127, 0};
Point(p14 + 4) = {11.4567416268674, 3.33926841430298, 0};
Point(p14 + 5) = {11.36349969259238, 3.448440692592382, 0};
Point(p14 + 6) = {11.25432741430298, 3.541682626867403, 0};
Point(p14 + 7) = {11.1319129758127, 3.616698291253954, 0};
Point(p14 + 8) = {10.9992706268674, 3.67164055113212, 0};
Point(p14 + 9) = {10.85966646231284, 3.705156545720797, 0};
Point(p14 + 10) = {10.716538, 3.716421, 0};
Point(p14 + 11) = {10.57340953768716, 3.705156545720797, 0};
Point(p14 + 12) = {10.4338053731326, 3.67164055113212, 0};
Point(p14 + 13) = {10.3011630241873, 3.616698291253954, 0};
Point(p14 + 14) = {10.17874858569702, 3.541682626867403, 0};
Point(p14 + 15) = {10.06957630740762, 3.448440692592382, 0};
Point(p14 + 16) = {9.976334373132596, 3.33926841430298, 0};
Point(p14 + 17) = {9.901318708746047, 3.2168539758127, 0};
Point(p14 + 18) = {9.846376448867879, 3.084211626867403, 0};
Point(p14 + 19) = {9.812860454279203, 2.944607462312839, 0};
Point(p14 + 20) = {9.801596, 2.801479, 0};
Point(p14 + 21) = {9.812860454279203, 2.658350537687161, 0};
Point(p14 + 22) = {9.846376448867879, 2.518746373132597, 0};
Point(p14 + 23) = {9.901318708746047, 2.3861040241873, 0};
Point(p14 + 24) = {9.976334373132596, 2.26368958569702, 0};
Point(p14 + 25) = {10.06957630740762, 2.154517307407618, 0};
Point(p14 + 26) = {10.17874858569702, 2.061275373132597, 0};
Point(p14 + 27) = {10.3011630241873, 1.986259708746046, 0};
Point(p14 + 28) = {10.4338053731326, 1.93131744886788, 0};
Point(p14 + 29) = {10.57340953768716, 1.897801454279203, 0};
Point(p14 + 30) = {10.716538, 1.886537, 0};
Point(p14 + 31) = {10.85966646231284, 1.897801454279203, 0};
Point(p14 + 32) = {10.9992706268674, 1.93131744886788, 0};
Point(p14 + 33) = {11.1319129758127, 1.986259708746046, 0};
Point(p14 + 34) = {11.25432741430298, 2.061275373132597, 0};
Point(p14 + 35) = {11.36349969259238, 2.154517307407618, 0};
Point(p14 + 36) = {11.4567416268674, 2.26368958569702, 0};
Point(p14 + 37) = {11.53175729125395, 2.386104024187299, 0};
Point(p14 + 38) = {11.58669955113212, 2.518746373132597, 0};
Point(p14 + 39) = {11.6202155457208, 2.658350537687161, 0};
Spline(14) = {10, p14 + 1, p14 + 2, p14 + 3, p14 + 4, p14 + 5, p14 + 6, p14 + 7, p14 + 8, p14 + 9, p14 + 10, p14 + 11, p14 + 12, p14 + 13, p14 + 14, p14 + 15, p14 + 16, p14 + 17, p14 + 18, p14 + 19, p14 + 20, p14 + 21, p14 + 22, p14 + 23, p14 + 24, p14 + 25, p14 + 26, p14 + 27, p14 + 28, p14 + 29, p14 + 30, p14 + 31, p14 + 32, p14 + 33, p14 + 34, p14 + 35, p14 + 36, p14 + 37, p14 + 38, p14 + 39, 10};
Line(15) = {10, 8};
Curve Loop(1) = {-1, 4, 3, -2};
Plane Surface(1) = {1};
Curve Loop(2) = {-5, 1, 7, -6};
Plane Surface(2) = {2};
Curve Loop(3) = {-2, 7, 9, -8, -10};
Plane Surface(3) = {3};
Curve Loop(4) = {-11, 3, 8, -12};
Plane Surface(4) = {4};
Curve Loop(5) = {-4, 5, 13, -11, -14};
Plane Surface(5) = {5};
Curve Loop(6) = {-6, 13, 12, -9};
Plane Surface(6) = {6};
Curve Loop(7) = {-10, -15, 14, 15};
Surface(7) = {7};
Surface Loop(1) = {1, 2, 3, 4, 5, 6, 7};
Volume(1) = {1};
Physical Surface("INFLOW") = {1};
Physical Surface("OUTFLOW") = {6};
Physical Surface("OBSTACLE") = {7};
Physical Surface("WALL_Y") = {2, 4};
Physical Surface("WALL_Z") = {3, 5};
Physical Volume("FLUID") = {1};
