cl__1 = 3.825619;
cl__2 = 0.580331;
cl__3 = 1.877221;
cl__4 = 0.061871;
cl__5 = 0.060264;
Point(1) = {0.235, -3.851029, 1, cl__1};
Point(2) = {0.235, -3.851029, 0, cl__1};
Point(3) = {0.235, 4.769216999999999, 1, cl__2};
Point(4) = {0.235, 4.769216999999999, 0, cl__2};
Point(5) = {38.012613, -3.851029, 0, cl__3};
Point(6) = {38.012613, -3.851029, 1, cl__3};
Point(7) = {38.012613, 4.769216999999999, 1, cl__2};
Point(8) = {33.179902, -0.4562860000000001, 1, cl__4};
Point(9) = {19.509104, 1.322113, 1, cl__5};
Point(10) = {38.012613, 4.769216999999999, 0, cl__2};
Point(11) = {33.179902, -0.4562860000000001, 0, cl__4};
Point(12) = {19.509104, 1.322113, 0, cl__5};
Line(1) = {2, 1};
Line(2) = {1, 3};
Line(3) = {4, 3};
Line(4) = {2, 4};
Line(5) = {2, 5};
Line(6) = {5, 6};
Line(7) = {1, 6};
Line(8) = {3, 7};
Line(9) = {6, 7};
p10 = newp;
Point(p10 + 1) = {33.17228469014459, -0.3594989014383539, 1};
Point(p10 + 2) = {33.14962032402742, -0.2650950224612594, 1};
Point(p10 + 3) = {33.11246697356101, -0.1753988998776443, 1};
Point(p10 + 4) = {33.06173947753874, -0.09261914990988085, 1};
Point(p10 + 5) = {32.99868691526758, -0.01879408473241478, 1};
Point(p10 + 6) = {32.92486185009012, 0.04425847753874063, 1};
Point(p10 + 7) = {32.84208210012235, 0.0949859735610124, 1};
Point(p10 + 8) = {32.75238597753874, 0.1321393240274255, 1};
Point(p10 + 9) = {32.65798209856165, 0.1548036901445959, 1};
Point(p10 + 10) = {32.561195, 0.162421, 1};
Point(p10 + 11) = {32.46440790143835, 0.1548036901445958, 1};
Point(p10 + 12) = {32.37000402246126, 0.1321393240274256, 1};
Point(p10 + 13) = {32.28030789987764, 0.09498597356101252, 1};
Point(p10 + 14) = {32.19752814990988, 0.04425847753874063, 1};
Point(p10 + 15) = {32.12370308473241, -0.01879408473241473, 1};
Point(p10 + 16) = {32.06065052246126, -0.09261914990988079, 1};
Point(p10 + 17) = {32.00992302643898, -0.1753988998776442, 1};
Point(p10 + 18) = {31.97276967597257, -0.2650950224612594, 1};
Point(p10 + 19) = {31.9501053098554, -0.3594989014383538, 1};
Point(p10 + 20) = {31.942488, -0.456286, 1};
Point(p10 + 21) = {31.9501053098554, -0.5530730985616461, 1};
Point(p10 + 22) = {31.97276967597257, -0.6474769775387408, 1};
Point(p10 + 23) = {32.00992302643898, -0.7371731001223555, 1};
Point(p10 + 24) = {32.06065052246126, -0.8199528500901192, 1};
Point(p10 + 25) = {32.12370308473241, -0.8937779152675853, 1};
Point(p10 + 26) = {32.19752814990988, -0.9568304775387406, 1};
Point(p10 + 27) = {32.28030789987764, -1.007557973561013, 1};
Point(p10 + 28) = {32.37000402246126, -1.044711324027426, 1};
Point(p10 + 29) = {32.46440790143835, -1.067375690144596, 1};
Point(p10 + 30) = {32.561195, -1.074993, 1};
Point(p10 + 31) = {32.65798209856165, -1.067375690144596, 1};
Point(p10 + 32) = {32.75238597753874, -1.044711324027426, 1};
Point(p10 + 33) = {32.84208210012235, -1.007557973561013, 1};
Point(p10 + 34) = {32.92486185009012, -0.9568304775387406, 1};
Point(p10 + 35) = {32.99868691526758, -0.8937779152675853, 1};
Point(p10 + 36) = {33.06173947753874, -0.8199528500901194, 1};
Point(p10 + 37) = {33.11246697356101, -0.7371731001223559, 1};
Point(p10 + 38) = {33.14962032402742, -0.6474769775387408, 1};
Point(p10 + 39) = {33.17228469014459, -0.5530730985616463, 1};
Spline(10) = {8, p10 + 1, p10 + 2, p10 + 3, p10 + 4, p10 + 5, p10 + 6, p10 + 7, p10 + 8, p10 + 9, p10 + 10, p10 + 11, p10 + 12, p10 + 13, p10 + 14, p10 + 15, p10 + 16, p10 + 17, p10 + 18, p10 + 19, p10 + 20, p10 + 21, p10 + 22, p10 + 23, p10 + 24, p10 + 25, p10 + 26, p10 + 27, p10 + 28, p10 + 29, p10 + 30, p10 + 31, p10 + 32, p10 + 33, p10 + 34, p10 + 35, p10 + 36, p10 + 37, p10 + 38, p10 + 39, 8};
p11 = newp;
Point(p11 + 1) = {19.50168446464128, 1.41638713531524, 1};
Point(p11 + 2) = {19.47960855214966, 1.508339928541101, 1};
Point(p11 + 3) = {19.44341984475645, 1.59570719673454, 1};
Point(p11 + 4) = {19.3940094285411, 1.676337667797293, 1};
Point(p11 + 5) = {19.33259395193461, 1.748245951934605, 1};
Point(p11 + 6) = {19.26068566779729, 1.809661428541101, 1};
Point(p11 + 7) = {19.18005519673454, 1.859071844756451, 1};
Point(p11 + 8) = {19.0926879285411, 1.89526055214966, 1};
Point(p11 + 9) = {19.00073513531524, 1.917336464641276, 1};
Point(p11 + 10) = {18.906461, 1.924756, 1};
Point(p11 + 11) = {18.81218686468476, 1.917336464641276, 1};
Point(p11 + 12) = {18.7202340714589, 1.89526055214966, 1};
Point(p11 + 13) = {18.63286680326546, 1.859071844756451, 1};
Point(p11 + 14) = {18.55223633220271, 1.809661428541101, 1};
Point(p11 + 15) = {18.4803280480654, 1.748245951934605, 1};
Point(p11 + 16) = {18.4189125714589, 1.676337667797293, 1};
Point(p11 + 17) = {18.36950215524355, 1.59570719673454, 1};
Point(p11 + 18) = {18.33331344785034, 1.508339928541102, 1};
Point(p11 + 19) = {18.31123753535872, 1.41638713531524, 1};
Point(p11 + 20) = {18.303818, 1.322113, 1};
Point(p11 + 21) = {18.31123753535872, 1.22783886468476, 1};
Point(p11 + 22) = {18.33331344785034, 1.135886071458899, 1};
Point(p11 + 23) = {18.36950215524355, 1.048518803265461, 1};
Point(p11 + 24) = {18.4189125714589, 0.9678883322027072, 1};
Point(p11 + 25) = {18.4803280480654, 0.8959800480653956, 1};
Point(p11 + 26) = {18.55223633220271, 0.8345645714588987, 1};
Point(p11 + 27) = {18.63286680326546, 0.7851541552435495, 1};
Point(p11 + 28) = {18.7202340714589, 0.7489654478503398, 1};
Point(p11 + 29) = {18.81218686468476, 0.7268895353587245, 1};
Point(p11 + 30) = {18.906461, 0.7194700000000001, 1};
Point(p11 + 31) = {19.00073513531524, 0.7268895353587245, 1};
Point(p11 + 32) = {19.0926879285411, 0.7489654478503398, 1};
Point(p11 + 33) = {19.18005519673454, 0.7851541552435495, 1};
Point(p11 + 34) = {19.26068566779729, 0.8345645714588985, 1};
Point(p11 + 35) = {19.33259395193461, 0.8959800480653954, 1};
Point(p11 + 36) = {19.3940094285411, 0.967888332202707, 1};
Point(p11 + 37) = {19.44341984475645, 1.04851880326546, 1};
Point(p11 + 38) = {19.47960855214966, 1.135886071458899, 1};
Point(p11 + 39) = {19.50168446464128, 1.22783886468476, 1};
Spline(11) = {9, p11 + 1, p11 + 2, p11 + 3, p11 + 4, p11 + 5, p11 + 6, p11 + 7, p11 + 8, p11 + 9, p11 + 10, p11 + 11, p11 + 12, p11 + 13, p11 + 14, p11 + 15, p11 + 16, p11 + 17, p11 + 18, p11 + 19, p11 + 20, p11 + 21, p11 + 22, p11 + 23, p11 + 24, p11 + 25, p11 + 26, p11 + 27, p11 + 28, p11 + 29, p11 + 30, p11 + 31, p11 + 32, p11 + 33, p11 + 34, p11 + 35, p11 + 36, p11 + 37, p11 + 38, p11 + 39, 9};
Line(12) = {4, 10};
Line(13) = {10, 7};
Line(14) = {5, 10};
p15 = newp;
Point(p15 + 1) = {33.17228469014459, -0.3594989014383539, 0};
Point(p15 + 2) = {33.14962032402742, -0.2650950224612594, 0};
Point(p15 + 3) = {33.11246697356101, -0.1753988998776443, 0};
Point(p15 + 4) = {33.06173947753874, -0.09261914990988085, 0};
Point(p15 + 5) = {32.99868691526758, -0.01879408473241478, 0};
Point(p15 + 6) = {32.92486185009012, 0.04425847753874063, 0};
Point(p15 + 7) = {32.84208210012235, 0.0949859735610124, 0};
Point(p15 + 8) = {32.75238597753874, 0.1321393240274255, 0};
Point(p15 + 9) = {32.65798209856165, 0.1548036901445959, 0};
Point(p15 + 10) = {32.561195, 0.162421, 0};
Point(p15 + 11) = {32.46440790143835, 0.1548036901445958, 0};
Point(p15 + 12) = {32.37000402246126, 0.1321393240274256, 0};
Point(p15 + 13) = {32.28030789987764, 0.09498597356101252, 0};
Point(p15 + 14) = {32.19752814990988, 0.04425847753874063, 0};
Point(p15 + 15) = {32.12370308473241, -0.01879408473241473, 0};
Point(p15 + 16) = {32.06065052246126, -0.09261914990988079, 0};
Point(p15 + 17) = {32.00992302643898, -0.1753988998776442, 0};
Point(p15 + 18) = {31.97276967597257, -0.2650950224612594, 0};
Point(p15 + 19) = {31.9501053098554, -0.3594989014383538, 0};
Point(p15 + 20) = {31.942488, -0.456286, 0};
Point(p15 + 21) = {31.9501053098554, -0.5530730985616461, 0};
Point(p15 + 22) = {31.97276967597257, -0.6474769775387408, 0};
Point(p15 + 23) = {32.00992302643898, -0.7371731001223555, 0};
Point(p15 + 24) = {32.06065052246126, -0.8199528500901192, 0};
Point(p15 + 25) = {32.12370308473241, -0.8937779152675853, 0};
Point(p15 + 26) = {32.19752814990988, -0.9568304775387406, 0};
Point(p15 + 27) = {32.28030789987764, -1.007557973561013, 0};
Point(p15 + 28) = {32.37000402246126, -1.044711324027426, 0};
Point(p15 + 29) = {32.46440790143835, -1.067375690144596, 0};
Point(p15 + 30) = {32.561195, -1.074993, 0};
Point(p15 + 31) = {32.65798209856165, -1.067375690144596, 0};
Point(p15 + 32) = {32.75238597753874, -1.044711324027426, 0};
Point(p15 + 33) = {32.84208210012235, -1.007557973561013, 0};
Point(p15 + 34) = {32.92486185009012, -0.9568304775387406, 0};
Point(p15 + 35) = {32.99868691526758, -0.8937779152675853, 0};
Point(p15 + 36) = {33.06173947753874, -0.8199528500901194, 0};
Point(p15 + 37) = {33.11246697356101, -0.7371731001223559, 0};
Point(p15 + 38) = {33.14962032402742, -0.6474769775387408, 0};
Point(p15 + 39) = {33.17228469014459, -0.5530730985616463, 0};
Spline(15) = {11, p15 + 1, p15 + 2, p15 + 3, p15 + 4, p15 + 5, p15 + 6, p15 + 7, p15 + 8, p15 + 9, p15 + 10, p15 + 11, p15 + 12, p15 + 13, p15 + 14, p15 + 15, p15 + 16, p15 + 17, p15 + 18, p15 + 19, p15 + 20, p15 + 21, p15 + 22, p15 + 23, p15 + 24, p15 + 25, p15 + 26, p15 + 27, p15 + 28, p15 + 29, p15 + 30, p15 + 31, p15 + 32, p15 + 33, p15 + 34, p15 + 35, p15 + 36, p15 + 37, p15 + 38, p15 + 39, 11};
p16 = newp;
Point(p16 + 1) = {19.50168446464128, 1.41638713531524, 0};
Point(p16 + 2) = {19.47960855214966, 1.508339928541101, 0};
Point(p16 + 3) = {19.44341984475645, 1.59570719673454, 0};
Point(p16 + 4) = {19.3940094285411, 1.676337667797293, 0};
Point(p16 + 5) = {19.33259395193461, 1.748245951934605, 0};
Point(p16 + 6) = {19.26068566779729, 1.809661428541101, 0};
Point(p16 + 7) = {19.18005519673454, 1.859071844756451, 0};
Point(p16 + 8) = {19.0926879285411, 1.89526055214966, 0};
Point(p16 + 9) = {19.00073513531524, 1.917336464641276, 0};
Point(p16 + 10) = {18.906461, 1.924756, 0};
Point(p16 + 11) = {18.81218686468476, 1.917336464641276, 0};
Point(p16 + 12) = {18.7202340714589, 1.89526055214966, 0};
Point(p16 + 13) = {18.63286680326546, 1.859071844756451, 0};
Point(p16 + 14) = {18.55223633220271, 1.809661428541101, 0};
Point(p16 + 15) = {18.4803280480654, 1.748245951934605, 0};
Point(p16 + 16) = {18.4189125714589, 1.676337667797293, 0};
Point(p16 + 17) = {18.36950215524355, 1.59570719673454, 0};
Point(p16 + 18) = {18.33331344785034, 1.508339928541102, 0};
Point(p16 + 19) = {18.31123753535872, 1.41638713531524, 0};
Point(p16 + 20) = {18.303818, 1.322113, 0};
Point(p16 + 21) = {18.31123753535872, 1.22783886468476, 0};
Point(p16 + 22) = {18.33331344785034, 1.135886071458899, 0};
Point(p16 + 23) = {18.36950215524355, 1.048518803265461, 0};
Point(p16 + 24) = {18.4189125714589, 0.9678883322027072, 0};
Point(p16 + 25) = {18.4803280480654, 0.8959800480653956, 0};
Point(p16 + 26) = {18.55223633220271, 0.8345645714588987, 0};
Point(p16 + 27) = {18.63286680326546, 0.7851541552435495, 0};
Point(p16 + 28) = {18.7202340714589, 0.7489654478503398, 0};
Point(p16 + 29) = {18.81218686468476, 0.7268895353587245, 0};
Point(p16 + 30) = {18.906461, 0.7194700000000001, 0};
Point(p16 + 31) = {19.00073513531524, 0.7268895353587245, 0};
Point(p16 + 32) = {19.0926879285411, 0.7489654478503398, 0};
Point(p16 + 33) = {19.18005519673454, 0.7851541552435495, 0};
Point(p16 + 34) = {19.26068566779729, 0.8345645714588985, 0};
Point(p16 + 35) = {19.33259395193461, 0.8959800480653954, 0};
Point(p16 + 36) = {19.3940094285411, 0.967888332202707, 0};
Point(p16 + 37) = {19.44341984475645, 1.04851880326546, 0};
Point(p16 + 38) = {19.47960855214966, 1.135886071458899, 0};
Point(p16 + 39) = {19.50168446464128, 1.22783886468476, 0};
Spline(16) = {12, p16 + 1, p16 + 2, p16 + 3, p16 + 4, p16 + 5, p16 + 6, p16 + 7, p16 + 8, p16 + 9, p16 + 10, p16 + 11, p16 + 12, p16 + 13, p16 + 14, p16 + 15, p16 + 16, p16 + 17, p16 + 18, p16 + 19, p16 + 20, p16 + 21, p16 + 22, p16 + 23, p16 + 24, p16 + 25, p16 + 26, p16 + 27, p16 + 28, p16 + 29, p16 + 30, p16 + 31, p16 + 32, p16 + 33, p16 + 34, p16 + 35, p16 + 36, p16 + 37, p16 + 38, p16 + 39, 12};
Line(17) = {11, 8};
Line(18) = {12, 9};
Curve Loop(1) = {-1, 4, 3, -2};
Plane Surface(1) = {1};
Curve Loop(2) = {-5, 1, 7, -6};
Plane Surface(2) = {2};
Curve Loop(3) = {-2, 7, 9, -8, -10, -11};
Plane Surface(3) = {3};
Curve Loop(4) = {-12, 3, 8, -13};
Plane Surface(4) = {4};
Curve Loop(5) = {-4, 5, 14, -12, -15, -16};
Plane Surface(5) = {5};
Curve Loop(6) = {-6, 14, 13, -9};
Plane Surface(6) = {6};
Curve Loop(7) = {-10, -17, 15, 17};
Surface(7) = {7};
Curve Loop(8) = {-11, -18, 16, 18};
Surface(8) = {8};
Surface Loop(1) = {1, 2, 3, 4, 5, 6, 7, 8};
Volume(1) = {1};
Physical Surface("INFLOW") = {1};
Physical Surface("OUTFLOW") = {6};
Physical Surface("OBSTACLE") = {7, 8};
Physical Surface("WALL_Y") = {2, 4};
Physical Surface("WALL_Z") = {3, 5};
Physical Volume("FLUID") = {1};
