cl__1 = 3.432406;
cl__2 = 0.8185519999999999;
cl__3 = 0.622132;
cl__4 = 0.142767;
cl__5 = 0.125999;
Point(1) = {0.323274, -3.423061, 1, cl__1};
Point(2) = {0.323274, -3.423061, 0, cl__1};
Point(3) = {0.323274, 5.363429999999999, 1, cl__2};
Point(4) = {0.323274, 5.363429999999999, 0, cl__2};
Point(5) = {34.041751, -3.423061, 0, cl__3};
Point(6) = {34.041751, -3.423061, 1, cl__3};
Point(7) = {34.041751, 5.363429999999999, 1, cl__2};
Point(8) = {8.357151999999999, 0.4324679999999997, 1, cl__4};
Point(9) = {27.01064, 1.101903, 1, cl__5};
Point(10) = {34.041751, 5.363429999999999, 0, cl__2};
Point(11) = {8.357151999999999, 0.4324679999999997, 0, cl__4};
Point(12) = {27.01064, 1.101903, 0, cl__5};
Line(1) = {2, 1};
Line(2) = {1, 3};
Line(3) = {4, 3};
Line(4) = {2, 4};
Line(5) = {2, 5};
Line(6) = {5, 6};
Line(7) = {1, 6};
Line(8) = {3, 7};
Line(9) = {6, 7};
p10 = newp;
Point(p10 + 1) = {8.339574976282481, 0.6558052620073815, 1};
Point(p10 + 2) = {8.287276709788649, 0.8736432194102643, 1};
Point(p10 + 3) = {8.201544957407579, 1.080617978734658, 1};
Point(p10 + 4) = {8.084490719410264, 1.271633134496152, 1};
Point(p10 + 5) = {7.938996259616942, 1.441985259616942, 1};
Point(p10 + 6) = {7.768644134496151, 1.587479719410264, 1};
Point(p10 + 7) = {7.577628978734658, 1.70453395740758, 1};
Point(p10 + 8) = {7.370654219410264, 1.790265709788651, 1};
Point(p10 + 9) = {7.152816262007382, 1.842563976282482, 1};
Point(p10 + 10) = {6.929479, 1.860141, 1};
Point(p10 + 11) = {6.706141737992618, 1.842563976282482, 1};
Point(p10 + 12) = {6.488303780589735, 1.790265709788651, 1};
Point(p10 + 13) = {6.281329021265342, 1.70453395740758, 1};
Point(p10 + 14) = {6.090313865503848, 1.587479719410264, 1};
Point(p10 + 15) = {5.919961740383058, 1.441985259616942, 1};
Point(p10 + 16) = {5.774467280589736, 1.271633134496152, 1};
Point(p10 + 17) = {5.65741304259242, 1.080617978734658, 1};
Point(p10 + 18) = {5.571681290211349, 0.8736432194102645, 1};
Point(p10 + 19) = {5.519383023717518, 0.6558052620073818, 1};
Point(p10 + 20) = {5.501806, 0.4324680000000002, 1};
Point(p10 + 21) = {5.519383023717518, 0.2091307379926187, 1};
Point(p10 + 22) = {5.571681290211349, -0.008707219410264699, 1};
Point(p10 + 23) = {5.657413042592419, -0.2156819787346572, 1};
Point(p10 + 24) = {5.774467280589735, -0.4066971344961518, 1};
Point(p10 + 25) = {5.919961740383058, -0.5770492596169416, 1};
Point(p10 + 26) = {6.090313865503847, -0.7225437194102642, 1};
Point(p10 + 27) = {6.281329021265342, -0.8395979574075796, 1};
Point(p10 + 28) = {6.488303780589735, -0.9253297097886506, 1};
Point(p10 + 29) = {6.706141737992618, -0.9776279762824818, 1};
Point(p10 + 30) = {6.929479, -0.9952049999999999, 1};
Point(p10 + 31) = {7.152816262007381, -0.977627976282482, 1};
Point(p10 + 32) = {7.370654219410264, -0.9253297097886508, 1};
Point(p10 + 33) = {7.577628978734658, -0.8395979574075796, 1};
Point(p10 + 34) = {7.768644134496151, -0.7225437194102644, 1};
Point(p10 + 35) = {7.938996259616941, -0.5770492596169421, 1};
Point(p10 + 36) = {8.084490719410264, -0.4066971344961522, 1};
Point(p10 + 37) = {8.201544957407579, -0.2156819787346582, 1};
Point(p10 + 38) = {8.287276709788649, -0.008707219410264588, 1};
Point(p10 + 39) = {8.339574976282481, 0.2091307379926182, 1};
Spline(10) = {8, p10 + 1, p10 + 2, p10 + 3, p10 + 4, p10 + 5, p10 + 6, p10 + 7, p10 + 8, p10 + 9, p10 + 10, p10 + 11, p10 + 12, p10 + 13, p10 + 14, p10 + 15, p10 + 16, p10 + 17, p10 + 18, p10 + 19, p10 + 20, p10 + 21, p10 + 22, p10 + 23, p10 + 24, p10 + 25, p10 + 26, p10 + 27, p10 + 28, p10 + 29, p10 + 30, p10 + 31, p10 + 32, p10 + 33, p10 + 34, p10 + 35, p10 + 36, p10 + 37, p10 + 38, p10 + 39, 8};
p11 = newp;
Point(p11 + 1) = {26.99512741995481, 1.299009018040506, 1};
Point(p11 + 2) = {26.94897165102325, 1.491261631759484, 1};
Point(p11 + 3) = {26.87330920141862, 1.673926943757331, 1};
Point(p11 + 4) = {26.77000313175948, 1.842507127821245, 1};
Point(p11 + 5) = {26.64159718033402, 1.992851180334019, 1};
Point(p11 + 6) = {26.49125312782125, 2.121257131759485, 1};
Point(p11 + 7) = {26.32267294375733, 2.224563201418626, 1};
Point(p11 + 8) = {26.14000763175948, 2.300225651023247, 1};
Point(p11 + 9) = {25.9477550180405, 2.346381419954808, 1};
Point(p11 + 10) = {25.750649, 2.361894, 1};
Point(p11 + 11) = {25.5535429819595, 2.346381419954808, 1};
Point(p11 + 12) = {25.36129036824051, 2.300225651023247, 1};
Point(p11 + 13) = {25.17862505624267, 2.224563201418626, 1};
Point(p11 + 14) = {25.01004487217875, 2.121257131759485, 1};
Point(p11 + 15) = {24.85970081966598, 1.992851180334019, 1};
Point(p11 + 16) = {24.73129486824051, 1.842507127821246, 1};
Point(p11 + 17) = {24.62798879858137, 1.673926943757332, 1};
Point(p11 + 18) = {24.55232634897675, 1.491261631759484, 1};
Point(p11 + 19) = {24.50617058004519, 1.299009018040506, 1};
Point(p11 + 20) = {24.490658, 1.101903, 1};
Point(p11 + 21) = {24.50617058004519, 0.9047969819594948, 1};
Point(p11 + 22) = {24.55232634897675, 0.7125443682405153, 1};
Point(p11 + 23) = {24.62798879858137, 0.5298790562426694, 1};
Point(p11 + 24) = {24.73129486824051, 0.3612988721787547, 1};
Point(p11 + 25) = {24.85970081966598, 0.2109548196659808, 1};
Point(p11 + 26) = {25.01004487217875, 0.08254886824051577, 1};
Point(p11 + 27) = {25.17862505624267, -0.02075720141862569, 1};
Point(p11 + 28) = {25.36129036824051, -0.0964196510232469, 1};
Point(p11 + 29) = {25.5535429819595, -0.1425754199548082, 1};
Point(p11 + 30) = {25.750649, -0.158088, 1};
Point(p11 + 31) = {25.9477550180405, -0.1425754199548082, 1};
Point(p11 + 32) = {26.14000763175948, -0.0964196510232469, 1};
Point(p11 + 33) = {26.32267294375733, -0.02075720141862591, 1};
Point(p11 + 34) = {26.49125312782125, 0.08254886824051555, 1};
Point(p11 + 35) = {26.64159718033402, 0.2109548196659806, 1};
Point(p11 + 36) = {26.77000313175948, 0.3612988721787542, 1};
Point(p11 + 37) = {26.87330920141862, 0.5298790562426685, 1};
Point(p11 + 38) = {26.94897165102325, 0.7125443682405155, 1};
Point(p11 + 39) = {26.99512741995481, 0.9047969819594943, 1};
Spline(11) = {9, p11 + 1, p11 + 2, p11 + 3, p11 + 4, p11 + 5, p11 + 6, p11 + 7, p11 + 8, p11 + 9, p11 + 10, p11 + 11, p11 + 12, p11 + 13, p11 + 14, p11 + 15, p11 + 16, p11 + 17, p11 + 18, p11 + 19, p11 + 20, p11 + 21, p11 + 22, p11 + 23, p11 + 24, p11 + 25, p11 + 26, p11 + 27, p11 + 28, p11 + 29, p11 + 30, p11 + 31, p11 + 32, p11 + 33, p11 + 34, p11 + 35, p11 + 36, p11 + 37, p11 + 38, p11 + 39, 9};
Line(12) = {4, 10};
Line(13) = {10, 7};
Line(14) = {5, 10};
p15 = newp;
Point(p15 + 1) = {8.339574976282481, 0.6558052620073815, 0};
Point(p15 + 2) = {8.287276709788649, 0.8736432194102643, 0};
Point(p15 + 3) = {8.201544957407579, 1.080617978734658, 0};
Point(p15 + 4) = {8.084490719410264, 1.271633134496152, 0};
Point(p15 + 5) = {7.938996259616942, 1.441985259616942, 0};
Point(p15 + 6) = {7.768644134496151, 1.587479719410264, 0};
Point(p15 + 7) = {7.577628978734658, 1.70453395740758, 0};
Point(p15 + 8) = {7.370654219410264, 1.790265709788651, 0};
Point(p15 + 9) = {7.152816262007382, 1.842563976282482, 0};
Point(p15 + 10) = {6.929479, 1.860141, 0};
Point(p15 + 11) = {6.706141737992618, 1.842563976282482, 0};
Point(p15 + 12) = {6.488303780589735, 1.790265709788651, 0};
Point(p15 + 13) = {6.281329021265342, 1.70453395740758, 0};
Point(p15 + 14) = {6.090313865503848, 1.587479719410264, 0};
Point(p15 + 15) = {5.919961740383058, 1.441985259616942, 0};
Point(p15 + 16) = {5.774467280589736, 1.271633134496152, 0};
Point(p15 + 17) = {5.65741304259242, 1.080617978734658, 0};
Point(p15 + 18) = {5.571681290211349, 0.8736432194102645, 0};
Point(p15 + 19) = {5.519383023717518, 0.6558052620073818, 0};
Point(p15 + 20) = {5.501806, 0.4324680000000002, 0};
Point(p15 + 21) = {5.519383023717518, 0.2091307379926187, 0};
Point(p15 + 22) = {5.571681290211349, -0.008707219410264699, 0};
Point(p15 + 23) = {5.657413042592419, -0.2156819787346572, 0};
Point(p15 + 24) = {5.774467280589735, -0.4066971344961518, 0};
Point(p15 + 25) = {5.919961740383058, -0.5770492596169416, 0};
Point(p15 + 26) = {6.090313865503847, -0.7225437194102642, 0};
Point(p15 + 27) = {6.281329021265342, -0.8395979574075796, 0};
Point(p15 + 28) = {6.488303780589735, -0.9253297097886506, 0};
Point(p15 + 29) = {6.706141737992618, -0.9776279762824818, 0};
Point(p15 + 30) = {6.929479, -0.9952049999999999, 0};
Point(p15 + 31) = {7.152816262007381, -0.977627976282482, 0};
Point(p15 + 32) = {7.370654219410264, -0.9253297097886508, 0};
Point(p15 + 33) = {7.577628978734658, -0.8395979574075796, 0};
Point(p15 + 34) = {7.768644134496151, -0.7225437194102644, 0};
Point(p15 + 35) = {7.938996259616941, -0.5770492596169421, 0};
Point(p15 + 36) = {8.084490719410264, -0.4066971344961522, 0};
Point(p15 + 37) = {8.201544957407579, -0.2156819787346582, 0};
Point(p15 + 38) = {8.287276709788649, -0.008707219410264588, 0};
Point(p15 + 39) = {8.339574976282481, 0.2091307379926182, 0};
Spline(15) = {11, p15 + 1, p15 + 2, p15 + 3, p15 + 4, p15 + 5, p15 + 6, p15 + 7, p15 + 8, p15 + 9, p15 + 10, p15 + 11, p15 + 12, p15 + 13, p15 + 14, p15 + 15, p15 + 16, p15 + 17, p15 + 18, p15 + 19, p15 + 20, p15 + 21, p15 + 22, p15 + 23, p15 + 24, p15 + 25, p15 + 26, p15 + 27, p15 + 28, p15 + 29, p15 + 30, p15 + 31, p15 + 32, p15 + 33, p15 + 34, p15 + 35, p15 + 36, p15 + 37, p15 + 38, p15 + 39, 11};
p16 = newp;
Point(p16 + 1) = {26.99512741995481, 1.299009018040506, 0};
Point(p16 + 2) = {26.94897165102325, 1.491261631759484, 0};
Point(p16 + 3) = {26.87330920141862, 1.673926943757331, 0};
Point(p16 + 4) = {26.77000313175948, 1.842507127821245, 0};
Point(p16 + 5) = {26.64159718033402, 1.992851180334019, 0};
Point(p16 + 6) = {26.49125312782125, 2.121257131759485, 0};
Point(p16 + 7) = {26.32267294375733, 2.224563201418626, 0};
Point(p16 + 8) = {26.14000763175948, 2.300225651023247, 0};
Point(p16 + 9) = {25.9477550180405, 2.346381419954808, 0};
Point(p16 + 10) = {25.750649, 2.361894, 0};
Point(p16 + 11) = {25.5535429819595, 2.346381419954808, 0};
Point(p16 + 12) = {25.36129036824051, 2.300225651023247, 0};
Point(p16 + 13) = {25.17862505624267, 2.224563201418626, 0};
Point(p16 + 14) = {25.01004487217875, 2.121257131759485, 0};
Point(p16 + 15) = {24.85970081966598, 1.992851180334019, 0};
Point(p16 + 16) = {24.73129486824051, 1.842507127821246, 0};
Point(p16 + 17) = {24.62798879858137, 1.673926943757332, 0};
Point(p16 + 18) = {24.55232634897675, 1.491261631759484, 0};
Point(p16 + 19) = {24.50617058004519, 1.299009018040506, 0};
Point(p16 + 20) = {24.490658, 1.101903, 0};
Point(p16 + 21) = {24.50617058004519, 0.9047969819594948, 0};
Point(p16 + 22) = {24.55232634897675, 0.7125443682405153, 0};
Point(p16 + 23) = {24.62798879858137, 0.5298790562426694, 0};
Point(p16 + 24) = {24.73129486824051, 0.3612988721787547, 0};
Point(p16 + 25) = {24.85970081966598, 0.2109548196659808, 0};
Point(p16 + 26) = {25.01004487217875, 0.08254886824051577, 0};
Point(p16 + 27) = {25.17862505624267, -0.02075720141862569, 0};
Point(p16 + 28) = {25.36129036824051, -0.0964196510232469, 0};
Point(p16 + 29) = {25.5535429819595, -0.1425754199548082, 0};
Point(p16 + 30) = {25.750649, -0.158088, 0};
Point(p16 + 31) = {25.9477550180405, -0.1425754199548082, 0};
Point(p16 + 32) = {26.14000763175948, -0.0964196510232469, 0};
Point(p16 + 33) = {26.32267294375733, -0.02075720141862591, 0};
Point(p16 + 34) = {26.49125312782125, 0.08254886824051555, 0};
Point(p16 + 35) = {26.64159718033402, 0.2109548196659806, 0};
Point(p16 + 36) = {26.77000313175948, 0.3612988721787542, 0};
Point(p16 + 37) = {26.87330920141862, 0.5298790562426685, 0};
Point(p16 + 38) = {26.94897165102325, 0.7125443682405155, 0};
Point(p16 + 39) = {26.99512741995481, 0.9047969819594943, 0};
Spline(16) = {12, p16 + 1, p16 + 2, p16 + 3, p16 + 4, p16 + 5, p16 + 6, p16 + 7, p16 + 8, p16 + 9, p16 + 10, p16 + 11, p16 + 12, p16 + 13, p16 + 14, p16 + 15, p16 + 16, p16 + 17, p16 + 18, p16 + 19, p16 + 20, p16 + 21, p16 + 22, p16 + 23, p16 + 24, p16 + 25, p16 + 26, p16 + 27, p16 + 28, p16 + 29, p16 + 30, p16 + 31, p16 + 32, p16 + 33, p16 + 34, p16 + 35, p16 + 36, p16 + 37, p16 + 38, p16 + 39, 12};
Line(17) = {11, 8};
Line(18) = {12, 9};
Curve Loop(1) = {-1, 4, 3, -2};
Plane Surface(1) = {1};
Curve Loop(2) = {-5, 1, 7, -6};
Plane Surface(2) = {2};
Curve Loop(3) = {-2, 7, 9, -8, -10, -11};
Plane Surface(3) = {3};
Curve Loop(4) = {-12, 3, 8, -13};
Plane Surface(4) = {4};
Curve Loop(5) = {-4, 5, 14, -12, -15, -16};
Plane Surface(5) = {5};
Curve Loop(6) = {-6, 14, 13, -9};
Plane Surface(6) = {6};
Curve Loop(7) = {-10, -17, 15, 17};
Surface(7) = {7};
Curve Loop(8) = {-11, -18, 16, 18};
Surface(8) = {8};
Surface Loop(1) = {1, 2, 3, 4, 5, 6, 7, 8};
Volume(1) = {1};
Physical Surface("INFLOW") = {1};
Physical Surface("OUTFLOW") = {6};
Physical Surface("OBSTACLE") = {7, 8};
Physical Surface("WALL_Y") = {2, 4};
Physical Surface("WALL_Z") = {3, 5};
Physical Volume("FLUID") = {1};
