cl__1 = 1;
cl__2 = 0.119181;
cl__3 = 0.147392;
Point(1) = {0.106331, -3.361472, 1, cl__1};
Point(2) = {0.106331, -3.361472, 0, cl__1};
Point(3) = {0.106331, 4.430224, 1, cl__1};
Point(4) = {0.106331, 4.430224, 0, cl__1};
Point(5) = {30.058471, -3.361472, 0, cl__1};
Point(6) = {30.058471, -3.361472, 1, cl__1};
Point(7) = {30.058471, 4.430224, 1, cl__1};
Point(8) = {6.353908, -0.1782750000000003, 1, cl__2};
Point(9) = {16.104056, 0.9233109999999995, 1, cl__3};
Point(10) = {30.058471, 4.430224, 0, cl__1};
Point(11) = {6.353908, -0.1782750000000003, 0, cl__2};
Point(12) = {16.104056, 0.9233109999999995, 0, cl__3};
Line(1) = {2, 1};
Line(2) = {1, 3};
Line(3) = {4, 3};
Line(4) = {2, 4};
Line(5) = {2, 5};
Line(6) = {5, 6};
Line(7) = {1, 6};
Line(8) = {3, 7};
Line(9) = {6, 7};
p10 = newp;
Point(p10 + 1) = {6.339234890451329, 0.008164534041737392, 1};
Point(p10 + 2) = {6.295576862459662, 0.1900133079980285, 1};
Point(p10 + 3) = {6.224008921566842, 0.3627936015325902, 1};
Point(p10 + 4) = {6.126293307998028, 0.5222509903936833, 1};
Point(p10 + 5) = {6.004836104458814, 0.6644591044588144, 1};
Point(p10 + 6) = {5.862627990393683, 0.7859163079980286, 1};
Point(p10 + 7) = {5.70317060153259, 0.8836319215668418, 1};
Point(p10 + 8) = {5.530390307998029, 0.9551998624596618, 1};
Point(p10 + 9) = {5.348541534041737, 0.9988578904513288, 1};
Point(p10 + 10) = {5.162102, 1.013531, 1};
Point(p10 + 11) = {4.975662465958262, 0.9988578904513286, 1};
Point(p10 + 12) = {4.793813692001971, 0.9551998624596618, 1};
Point(p10 + 13) = {4.62103339846741, 0.883631921566842, 1};
Point(p10 + 14) = {4.461576009606317, 0.7859163079980286, 1};
Point(p10 + 15) = {4.319367895541186, 0.6644591044588145, 1};
Point(p10 + 16) = {4.197910692001972, 0.5222509903936834, 1};
Point(p10 + 17) = {4.100195078433158, 0.3627936015325904, 1};
Point(p10 + 18) = {4.028627137540338, 0.1900133079980287, 1};
Point(p10 + 19) = {3.984969109548671, 0.008164534041737531, 1};
Point(p10 + 20) = {3.970296, -0.1782749999999999, 1};
Point(p10 + 21) = {3.984969109548671, -0.3647145340417372, 1};
Point(p10 + 22) = {4.028627137540338, -0.5465633079980289, 1};
Point(p10 + 23) = {4.100195078433158, -0.7193436015325896, 1};
Point(p10 + 24) = {4.197910692001972, -0.878800990393683, 1};
Point(p10 + 25) = {4.319367895541186, -1.021009104458814, 1};
Point(p10 + 26) = {4.461576009606317, -1.142466307998028, 1};
Point(p10 + 27) = {4.62103339846741, -1.240181921566842, 1};
Point(p10 + 28) = {4.793813692001971, -1.311749862459662, 1};
Point(p10 + 29) = {4.975662465958262, -1.355407890451328, 1};
Point(p10 + 30) = {5.162102, -1.370081, 1};
Point(p10 + 31) = {5.348541534041737, -1.355407890451329, 1};
Point(p10 + 32) = {5.530390307998029, -1.311749862459662, 1};
Point(p10 + 33) = {5.70317060153259, -1.240181921566842, 1};
Point(p10 + 34) = {5.862627990393683, -1.142466307998029, 1};
Point(p10 + 35) = {6.004836104458814, -1.021009104458815, 1};
Point(p10 + 36) = {6.126293307998028, -0.8788009903936834, 1};
Point(p10 + 37) = {6.224008921566842, -0.7193436015325905, 1};
Point(p10 + 38) = {6.295576862459662, -0.5465633079980288, 1};
Point(p10 + 39) = {6.339234890451328, -0.3647145340417376, 1};
Spline(10) = {8, p10 + 1, p10 + 2, p10 + 3, p10 + 4, p10 + 5, p10 + 6, p10 + 7, p10 + 8, p10 + 9, p10 + 10, p10 + 11, p10 + 12, p10 + 13, p10 + 14, p10 + 15, p10 + 16, p10 + 17, p10 + 18, p10 + 19, p10 + 20, p10 + 21, p10 + 22, p10 + 23, p10 + 24, p10 + 25, p10 + 26, p10 + 27, p10 + 28, p10 + 29, p10 + 30, p10 + 31, p10 + 32, p10 + 33, p10 + 34, p10 + 35, p10 + 36, p10 + 37, p10 + 38, p10 + 39, 8};
p11 = newp;
Point(p11 + 1) = {16.08590957434667, 1.153883199581027, 1};
Point(p11 + 2) = {16.03191712261079, 1.378777946383111, 1};
Point(p11 + 3) = {15.94340811814477, 1.592457585357112, 1};
Point(p11 + 4) = {15.82256194638311, 1.789660614629426, 1};
Point(p11 + 5) = {15.67235424114004, 1.965531241140038, 1};
Point(p11 + 6) = {15.49648361462943, 2.115738946383111, 1};
Point(p11 + 7) = {15.29928058535711, 2.236585118144768, 1};
Point(p11 + 8) = {15.08560094638311, 2.325094122610786, 1};
Point(p11 + 9) = {14.86070619958103, 2.379086574346667, 1};
Point(p11 + 10) = {14.630134, 2.397233, 1};
Point(p11 + 11) = {14.39956180041897, 2.379086574346666, 1};
Point(p11 + 12) = {14.17466705361689, 2.325094122610786, 1};
Point(p11 + 13) = {13.96098741464289, 2.236585118144768, 1};
Point(p11 + 14) = {13.76378438537057, 2.115738946383111, 1};
Point(p11 + 15) = {13.58791375885996, 1.965531241140039, 1};
Point(p11 + 16) = {13.43770605361689, 1.789660614629427, 1};
Point(p11 + 17) = {13.31685988185523, 1.592457585357112, 1};
Point(p11 + 18) = {13.22835087738921, 1.378777946383111, 1};
Point(p11 + 19) = {13.17435842565333, 1.153883199581027, 1};
Point(p11 + 20) = {13.156212, 0.9233110000000002, 1};
Point(p11 + 21) = {13.17435842565333, 0.6927388004189731, 1};
Point(p11 + 22) = {13.22835087738921, 0.4678440536168883, 1};
Point(p11 + 23) = {13.31685988185523, 0.2541644146428885, 1};
Point(p11 + 24) = {13.43770605361689, 0.0569613853705736, 1};
Point(p11 + 25) = {13.58791375885996, -0.1189092411400383, 1};
Point(p11 + 26) = {13.76378438537057, -0.2691169463831111, 1};
Point(p11 + 27) = {13.96098741464289, -0.3899631181447674, 1};
Point(p11 + 28) = {14.17466705361689, -0.4784721226107853, 1};
Point(p11 + 29) = {14.39956180041897, -0.5324645743466665, 1};
Point(p11 + 30) = {14.630134, -0.550611, 1};
Point(p11 + 31) = {14.86070619958103, -0.5324645743466667, 1};
Point(p11 + 32) = {15.08560094638311, -0.4784721226107853, 1};
Point(p11 + 33) = {15.29928058535711, -0.3899631181447676, 1};
Point(p11 + 34) = {15.49648361462943, -0.2691169463831113, 1};
Point(p11 + 35) = {15.67235424114004, -0.1189092411400388, 1};
Point(p11 + 36) = {15.82256194638311, 0.05696138537057305, 1};
Point(p11 + 37) = {15.94340811814477, 0.2541644146428874, 1};
Point(p11 + 38) = {16.03191712261079, 0.4678440536168885, 1};
Point(p11 + 39) = {16.08590957434667, 0.6927388004189725, 1};
Spline(11) = {9, p11 + 1, p11 + 2, p11 + 3, p11 + 4, p11 + 5, p11 + 6, p11 + 7, p11 + 8, p11 + 9, p11 + 10, p11 + 11, p11 + 12, p11 + 13, p11 + 14, p11 + 15, p11 + 16, p11 + 17, p11 + 18, p11 + 19, p11 + 20, p11 + 21, p11 + 22, p11 + 23, p11 + 24, p11 + 25, p11 + 26, p11 + 27, p11 + 28, p11 + 29, p11 + 30, p11 + 31, p11 + 32, p11 + 33, p11 + 34, p11 + 35, p11 + 36, p11 + 37, p11 + 38, p11 + 39, 9};
Line(12) = {4, 10};
Line(13) = {10, 7};
Line(14) = {5, 10};
p15 = newp;
Point(p15 + 1) = {6.339234890451329, 0.008164534041737392, 0};
Point(p15 + 2) = {6.295576862459662, 0.1900133079980285, 0};
Point(p15 + 3) = {6.224008921566842, 0.3627936015325902, 0};
Point(p15 + 4) = {6.126293307998028, 0.5222509903936833, 0};
Point(p15 + 5) = {6.004836104458814, 0.6644591044588144, 0};
Point(p15 + 6) = {5.862627990393683, 0.7859163079980286, 0};
Point(p15 + 7) = {5.70317060153259, 0.8836319215668418, 0};
Point(p15 + 8) = {5.530390307998029, 0.9551998624596618, 0};
Point(p15 + 9) = {5.348541534041737, 0.9988578904513288, 0};
Point(p15 + 10) = {5.162102, 1.013531, 0};
Point(p15 + 11) = {4.975662465958262, 0.9988578904513286, 0};
Point(p15 + 12) = {4.793813692001971, 0.9551998624596618, 0};
Point(p15 + 13) = {4.62103339846741, 0.883631921566842, 0};
Point(p15 + 14) = {4.461576009606317, 0.7859163079980286, 0};
Point(p15 + 15) = {4.319367895541186, 0.6644591044588145, 0};
Point(p15 + 16) = {4.197910692001972, 0.5222509903936834, 0};
Point(p15 + 17) = {4.100195078433158, 0.3627936015325904, 0};
Point(p15 + 18) = {4.028627137540338, 0.1900133079980287, 0};
Point(p15 + 19) = {3.984969109548671, 0.008164534041737531, 0};
Point(p15 + 20) = {3.970296, -0.1782749999999999, 0};
Point(p15 + 21) = {3.984969109548671, -0.3647145340417372, 0};
Point(p15 + 22) = {4.028627137540338, -0.5465633079980289, 0};
Point(p15 + 23) = {4.100195078433158, -0.7193436015325896, 0};
Point(p15 + 24) = {4.197910692001972, -0.878800990393683, 0};
Point(p15 + 25) = {4.319367895541186, -1.021009104458814, 0};
Point(p15 + 26) = {4.461576009606317, -1.142466307998028, 0};
Point(p15 + 27) = {4.62103339846741, -1.240181921566842, 0};
Point(p15 + 28) = {4.793813692001971, -1.311749862459662, 0};
Point(p15 + 29) = {4.975662465958262, -1.355407890451328, 0};
Point(p15 + 30) = {5.162102, -1.370081, 0};
Point(p15 + 31) = {5.348541534041737, -1.355407890451329, 0};
Point(p15 + 32) = {5.530390307998029, -1.311749862459662, 0};
Point(p15 + 33) = {5.70317060153259, -1.240181921566842, 0};
Point(p15 + 34) = {5.862627990393683, -1.142466307998029, 0};
Point(p15 + 35) = {6.004836104458814, -1.021009104458815, 0};
Point(p15 + 36) = {6.126293307998028, -0.8788009903936834, 0};
Point(p15 + 37) = {6.224008921566842, -0.7193436015325905, 0};
Point(p15 + 38) = {6.295576862459662, -0.5465633079980288, 0};
Point(p15 + 39) = {6.339234890451328, -0.3647145340417376, 0};
Spline(15) = {11, p15 + 1, p15 + 2, p15 + 3, p15 + 4, p15 + 5, p15 + 6, p15 + 7, p15 + 8, p15 + 9, p15 + 10, p15 + 11, p15 + 12, p15 + 13, p15 + 14, p15 + 15, p15 + 16, p15 + 17, p15 + 18, p15 + 19, p15 + 20, p15 + 21, p15 + 22, p15 + 23, p15 + 24, p15 + 25, p15 + 26, p15 + 27, p15 + 28, p15 + 29, p15 + 30, p15 + 31, p15 + 32, p15 + 33, p15 + 34, p15 + 35, p15 + 36, p15 + 37, p15 + 38, p15 + 39, 11};
p16 = newp;
Point(p16 + 1) = {16.08590957434667, 1.153883199581027, 0};
Point(p16 + 2) = {16.03191712261079, 1.378777946383111, 0};
Point(p16 + 3) = {15.94340811814477, 1.592457585357112, 0};
Point(p16 + 4) = {15.82256194638311, 1.789660614629426, 0};
Point(p16 + 5) = {15.67235424114004, 1.965531241140038, 0};
Point(p16 + 6) = {15.49648361462943, 2.115738946383111, 0};
Point(p16 + 7) = {15.29928058535711, 2.236585118144768, 0};
Point(p16 + 8) = {15.08560094638311, 2.325094122610786, 0};
Point(p16 + 9) = {14.86070619958103, 2.379086574346667, 0};
Point(p16 + 10) = {14.630134, 2.397233, 0};
Point(p16 + 11) = {14.39956180041897, 2.379086574346666, 0};
Point(p16 + 12) = {14.17466705361689, 2.325094122610786, 0};
Point(p16 + 13) = {13.96098741464289, 2.236585118144768, 0};
Point(p16 + 14) = {13.76378438537057, 2.115738946383111, 0};
Point(p16 + 15) = {13.58791375885996, 1.965531241140039, 0};
Point(p16 + 16) = {13.43770605361689, 1.789660614629427, 0};
Point(p16 + 17) = {13.31685988185523, 1.592457585357112, 0};
Point(p16 + 18) = {13.22835087738921, 1.378777946383111, 0};
Point(p16 + 19) = {13.17435842565333, 1.153883199581027, 0};
Point(p16 + 20) = {13.156212, 0.9233110000000002, 0};
Point(p16 + 21) = {13.17435842565333, 0.6927388004189731, 0};
Point(p16 + 22) = {13.22835087738921, 0.4678440536168883, 0};
Point(p16 + 23) = {13.31685988185523, 0.2541644146428885, 0};
Point(p16 + 24) = {13.43770605361689, 0.0569613853705736, 0};
Point(p16 + 25) = {13.58791375885996, -0.1189092411400383, 0};
Point(p16 + 26) = {13.76378438537057, -0.2691169463831111, 0};
Point(p16 + 27) = {13.96098741464289, -0.3899631181447674, 0};
Point(p16 + 28) = {14.17466705361689, -0.4784721226107853, 0};
Point(p16 + 29) = {14.39956180041897, -0.5324645743466665, 0};
Point(p16 + 30) = {14.630134, -0.550611, 0};
Point(p16 + 31) = {14.86070619958103, -0.5324645743466667, 0};
Point(p16 + 32) = {15.08560094638311, -0.4784721226107853, 0};
Point(p16 + 33) = {15.29928058535711, -0.3899631181447676, 0};
Point(p16 + 34) = {15.49648361462943, -0.2691169463831113, 0};
Point(p16 + 35) = {15.67235424114004, -0.1189092411400388, 0};
Point(p16 + 36) = {15.82256194638311, 0.05696138537057305, 0};
Point(p16 + 37) = {15.94340811814477, 0.2541644146428874, 0};
Point(p16 + 38) = {16.03191712261079, 0.4678440536168885, 0};
Point(p16 + 39) = {16.08590957434667, 0.6927388004189725, 0};
Spline(16) = {12, p16 + 1, p16 + 2, p16 + 3, p16 + 4, p16 + 5, p16 + 6, p16 + 7, p16 + 8, p16 + 9, p16 + 10, p16 + 11, p16 + 12, p16 + 13, p16 + 14, p16 + 15, p16 + 16, p16 + 17, p16 + 18, p16 + 19, p16 + 20, p16 + 21, p16 + 22, p16 + 23, p16 + 24, p16 + 25, p16 + 26, p16 + 27, p16 + 28, p16 + 29, p16 + 30, p16 + 31, p16 + 32, p16 + 33, p16 + 34, p16 + 35, p16 + 36, p16 + 37, p16 + 38, p16 + 39, 12};
Line(17) = {11, 8};
Line(18) = {12, 9};
Curve Loop(1) = {-1, 4, 3, -2};
Plane Surface(1) = {1};
Curve Loop(2) = {-5, 1, 7, -6};
Plane Surface(2) = {2};
Curve Loop(3) = {-2, 7, 9, -8, -10, -11};
Plane Surface(3) = {3};
Curve Loop(4) = {-12, 3, 8, -13};
Plane Surface(4) = {4};
Curve Loop(5) = {-4, 5, 14, -12, -15, -16};
Plane Surface(5) = {5};
Curve Loop(6) = {-6, 14, 13, -9};
Plane Surface(6) = {6};
Curve Loop(7) = {-10, -17, 15, 17};
Surface(7) = {7};
Curve Loop(8) = {-11, -18, 16, 18};
Surface(8) = {8};
Surface Loop(1) = {1, 2, 3, 4, 5, 6, 7, 8};
Volume(1) = {1};
Physical Surface("INFLOW") = {1};
Physical Surface("OUTFLOW") = {6};
Physical Surface("OBSTACLE") = {7, 8};
Physical Surface("WALL_Y") = {2, 4};
Physical Surface("WALL_Z") = {3, 5};
Physical Volume("FLUID") = {1};
