cl__1 = 0.832752;
cl__2 = 3.559632;
cl__3 = 0.498518;
cl__4 = 0.059196;
cl__5 = 0.097527;
Point(1) = {0.78715, -3.268814, 1, cl__1};
Point(2) = {0.78715, -3.268814, 0, cl__1};
Point(3) = {0.78715, 4.949575, 1, cl__2};
Point(4) = {0.78715, 4.949575, 0, cl__2};
Point(5) = {35.358341, -3.268814, 0, cl__3};
Point(6) = {35.358341, -3.268814, 1, cl__3};
Point(7) = {35.358341, 4.949575, 1, cl__2};
Point(8) = {8.578910999999998, 1.996148, 1, cl__4};
Point(9) = {3.353816, 2.475261, 1, cl__5};
Point(10) = {35.358341, 4.949575, 0, cl__2};
Point(11) = {8.578910999999998, 1.996148, 0, cl__4};
Point(12) = {3.353816, 2.475261, 0, cl__5};
Line(1) = {2, 1};
Line(2) = {1, 3};
Line(3) = {4, 3};
Line(4) = {2, 4};
Line(5) = {2, 5};
Line(6) = {5, 6};
Line(7) = {1, 6};
Line(8) = {3, 7};
Line(9) = {6, 7};
p10 = newp;
Point(p10 + 1) = {8.571623014722016, 2.088750633056285, 1};
Point(p10 + 2) = {8.549938513273046, 2.179073081956205, 1};
Point(p10 + 3) = {8.514391440045497, 2.264891308244823, 1};
Point(p10 + 4) = {8.465857081956205, 2.344092182376548, 1};
Point(p10 + 5) = {8.405530515977626, 2.414725515977626, 1};
Point(p10 + 6) = {8.334897182376547, 2.475052081956205, 1};
Point(p10 + 7) = {8.255696308244822, 2.523586440045498, 1};
Point(p10 + 8) = {8.169878081956204, 2.559133513273046, 1};
Point(p10 + 9) = {8.079555633056284, 2.580818014722016, 1};
Point(p10 + 10) = {7.986953, 2.588106, 1};
Point(p10 + 11) = {7.894350366943715, 2.580818014722016, 1};
Point(p10 + 12) = {7.804027918043794, 2.559133513273046, 1};
Point(p10 + 13) = {7.718209691755177, 2.523586440045498, 1};
Point(p10 + 14) = {7.639008817623452, 2.475052081956205, 1};
Point(p10 + 15) = {7.568375484022374, 2.414725515977626, 1};
Point(p10 + 16) = {7.508048918043794, 2.344092182376548, 1};
Point(p10 + 17) = {7.459514559954502, 2.264891308244823, 1};
Point(p10 + 18) = {7.423967486726953, 2.179073081956205, 1};
Point(p10 + 19) = {7.402282985277983, 2.088750633056285, 1};
Point(p10 + 20) = {7.394995, 1.996148, 1};
Point(p10 + 21) = {7.402282985277983, 1.903545366943715, 1};
Point(p10 + 22) = {7.423967486726953, 1.813222918043795, 1};
Point(p10 + 23) = {7.459514559954502, 1.727404691755178, 1};
Point(p10 + 24) = {7.508048918043794, 1.648203817623452, 1};
Point(p10 + 25) = {7.568375484022374, 1.577570484022374, 1};
Point(p10 + 26) = {7.639008817623452, 1.517243918043795, 1};
Point(p10 + 27) = {7.718209691755177, 1.468709559954502, 1};
Point(p10 + 28) = {7.804027918043794, 1.433162486726954, 1};
Point(p10 + 29) = {7.894350366943715, 1.411477985277984, 1};
Point(p10 + 30) = {7.986953, 1.40419, 1};
Point(p10 + 31) = {8.079555633056284, 1.411477985277984, 1};
Point(p10 + 32) = {8.169878081956204, 1.433162486726953, 1};
Point(p10 + 33) = {8.255696308244822, 1.468709559954502, 1};
Point(p10 + 34) = {8.334897182376547, 1.517243918043795, 1};
Point(p10 + 35) = {8.405530515977626, 1.577570484022374, 1};
Point(p10 + 36) = {8.465857081956205, 1.648203817623452, 1};
Point(p10 + 37) = {8.514391440045497, 1.727404691755177, 1};
Point(p10 + 38) = {8.549938513273046, 1.813222918043795, 1};
Point(p10 + 39) = {8.571623014722016, 1.903545366943715, 1};
Spline(10) = {8, p10 + 1, p10 + 2, p10 + 3, p10 + 4, p10 + 5, p10 + 6, p10 + 7, p10 + 8, p10 + 9, p10 + 10, p10 + 11, p10 + 12, p10 + 13, p10 + 14, p10 + 15, p10 + 16, p10 + 17, p10 + 18, p10 + 19, p10 + 20, p10 + 21, p10 + 22, p10 + 23, p10 + 24, p10 + 25, p10 + 26, p10 + 27, p10 + 28, p10 + 29, p10 + 30, p10 + 31, p10 + 32, p10 + 33, p10 + 34, p10 + 35, p10 + 36, p10 + 37, p10 + 38, p10 + 39, 8};
p11 = newp;
Point(p11 + 1) = {3.341808832555539, 2.627826527850856, 1};
Point(p11 + 2) = {3.306082986534141, 2.776635386070066, 1};
Point(p11 + 3) = {3.247518150832141, 2.918023406699989, 1};
Point(p11 + 4) = {3.167556386070066, 3.048509147432776, 1};
Point(p11 + 5) = {3.068166616274242, 3.164879616274242, 1};
Point(p11 + 6) = {2.951796147432776, 3.264269386070066, 1};
Point(p11 + 7) = {2.821310406699988, 3.344231150832141, 1};
Point(p11 + 8) = {2.679922386070066, 3.402795986534142, 1};
Point(p11 + 9) = {2.531113527850856, 3.438521832555539, 1};
Point(p11 + 10) = {2.378548, 3.450529, 1};
Point(p11 + 11) = {2.225982472149144, 3.438521832555539, 1};
Point(p11 + 12) = {2.077173613929934, 3.402795986534142, 1};
Point(p11 + 13) = {1.935785593300012, 3.344231150832141, 1};
Point(p11 + 14) = {1.805299852567224, 3.264269386070066, 1};
Point(p11 + 15) = {1.688929383725758, 3.164879616274242, 1};
Point(p11 + 16) = {1.589539613929934, 3.048509147432776, 1};
Point(p11 + 17) = {1.509577849167859, 2.918023406699989, 1};
Point(p11 + 18) = {1.451013013465858, 2.776635386070066, 1};
Point(p11 + 19) = {1.415287167444461, 2.627826527850856, 1};
Point(p11 + 20) = {1.40328, 2.475261, 1};
Point(p11 + 21) = {1.415287167444461, 2.322695472149144, 1};
Point(p11 + 22) = {1.451013013465858, 2.173886613929934, 1};
Point(p11 + 23) = {1.509577849167858, 2.032498593300012, 1};
Point(p11 + 24) = {1.589539613929933, 1.902012852567224, 1};
Point(p11 + 25) = {1.688929383725758, 1.785642383725758, 1};
Point(p11 + 26) = {1.805299852567224, 1.686252613929934, 1};
Point(p11 + 27) = {1.935785593300011, 1.606290849167859, 1};
Point(p11 + 28) = {2.077173613929934, 1.547726013465858, 1};
Point(p11 + 29) = {2.225982472149144, 1.512000167444461, 1};
Point(p11 + 30) = {2.378548, 1.499993, 1};
Point(p11 + 31) = {2.531113527850855, 1.512000167444461, 1};
Point(p11 + 32) = {2.679922386070066, 1.547726013465858, 1};
Point(p11 + 33) = {2.821310406699988, 1.606290849167859, 1};
Point(p11 + 34) = {2.951796147432775, 1.686252613929934, 1};
Point(p11 + 35) = {3.068166616274242, 1.785642383725758, 1};
Point(p11 + 36) = {3.167556386070066, 1.902012852567224, 1};
Point(p11 + 37) = {3.247518150832141, 2.032498593300012, 1};
Point(p11 + 38) = {3.306082986534141, 2.173886613929934, 1};
Point(p11 + 39) = {3.341808832555539, 2.322695472149144, 1};
Spline(11) = {9, p11 + 1, p11 + 2, p11 + 3, p11 + 4, p11 + 5, p11 + 6, p11 + 7, p11 + 8, p11 + 9, p11 + 10, p11 + 11, p11 + 12, p11 + 13, p11 + 14, p11 + 15, p11 + 16, p11 + 17, p11 + 18, p11 + 19, p11 + 20, p11 + 21, p11 + 22, p11 + 23, p11 + 24, p11 + 25, p11 + 26, p11 + 27, p11 + 28, p11 + 29, p11 + 30, p11 + 31, p11 + 32, p11 + 33, p11 + 34, p11 + 35, p11 + 36, p11 + 37, p11 + 38, p11 + 39, 9};
Line(12) = {4, 10};
Line(13) = {10, 7};
Line(14) = {5, 10};
p15 = newp;
Point(p15 + 1) = {8.571623014722016, 2.088750633056285, 0};
Point(p15 + 2) = {8.549938513273046, 2.179073081956205, 0};
Point(p15 + 3) = {8.514391440045497, 2.264891308244823, 0};
Point(p15 + 4) = {8.465857081956205, 2.344092182376548, 0};
Point(p15 + 5) = {8.405530515977626, 2.414725515977626, 0};
Point(p15 + 6) = {8.334897182376547, 2.475052081956205, 0};
Point(p15 + 7) = {8.255696308244822, 2.523586440045498, 0};
Point(p15 + 8) = {8.169878081956204, 2.559133513273046, 0};
Point(p15 + 9) = {8.079555633056284, 2.580818014722016, 0};
Point(p15 + 10) = {7.986953, 2.588106, 0};
Point(p15 + 11) = {7.894350366943715, 2.580818014722016, 0};
Point(p15 + 12) = {7.804027918043794, 2.559133513273046, 0};
Point(p15 + 13) = {7.718209691755177, 2.523586440045498, 0};
Point(p15 + 14) = {7.639008817623452, 2.475052081956205, 0};
Point(p15 + 15) = {7.568375484022374, 2.414725515977626, 0};
Point(p15 + 16) = {7.508048918043794, 2.344092182376548, 0};
Point(p15 + 17) = {7.459514559954502, 2.264891308244823, 0};
Point(p15 + 18) = {7.423967486726953, 2.179073081956205, 0};
Point(p15 + 19) = {7.402282985277983, 2.088750633056285, 0};
Point(p15 + 20) = {7.394995, 1.996148, 0};
Point(p15 + 21) = {7.402282985277983, 1.903545366943715, 0};
Point(p15 + 22) = {7.423967486726953, 1.813222918043795, 0};
Point(p15 + 23) = {7.459514559954502, 1.727404691755178, 0};
Point(p15 + 24) = {7.508048918043794, 1.648203817623452, 0};
Point(p15 + 25) = {7.568375484022374, 1.577570484022374, 0};
Point(p15 + 26) = {7.639008817623452, 1.517243918043795, 0};
Point(p15 + 27) = {7.718209691755177, 1.468709559954502, 0};
Point(p15 + 28) = {7.804027918043794, 1.433162486726954, 0};
Point(p15 + 29) = {7.894350366943715, 1.411477985277984, 0};
Point(p15 + 30) = {7.986953, 1.40419, 0};
Point(p15 + 31) = {8.079555633056284, 1.411477985277984, 0};
Point(p15 + 32) = {8.169878081956204, 1.433162486726953, 0};
Point(p15 + 33) = {8.255696308244822, 1.468709559954502, 0};
Point(p15 + 34) = {8.334897182376547, 1.517243918043795, 0};
Point(p15 + 35) = {8.405530515977626, 1.577570484022374, 0};
Point(p15 + 36) = {8.465857081956205, 1.648203817623452, 0};
Point(p15 + 37) = {8.514391440045497, 1.727404691755177, 0};
Point(p15 + 38) = {8.549938513273046, 1.813222918043795, 0};
Point(p15 + 39) = {8.571623014722016, 1.903545366943715, 0};
Spline(15) = {11, p15 + 1, p15 + 2, p15 + 3, p15 + 4, p15 + 5, p15 + 6, p15 + 7, p15 + 8, p15 + 9, p15 + 10, p15 + 11, p15 + 12, p15 + 13, p15 + 14, p15 + 15, p15 + 16, p15 + 17, p15 + 18, p15 + 19, p15 + 20, p15 + 21, p15 + 22, p15 + 23, p15 + 24, p15 + 25, p15 + 26, p15 + 27, p15 + 28, p15 + 29, p15 + 30, p15 + 31, p15 + 32, p15 + 33, p15 + 34, p15 + 35, p15 + 36, p15 + 37, p15 + 38, p15 + 39, 11};
p16 = newp;
Point(p16 + 1) = {3.341808832555539, 2.627826527850856, 0};
Point(p16 + 2) = {3.306082986534141, 2.776635386070066, 0};
Point(p16 + 3) = {3.247518150832141, 2.918023406699989, 0};
Point(p16 + 4) = {3.167556386070066, 3.048509147432776, 0};
Point(p16 + 5) = {3.068166616274242, 3.164879616274242, 0};
Point(p16 + 6) = {2.951796147432776, 3.264269386070066, 0};
Point(p16 + 7) = {2.821310406699988, 3.344231150832141, 0};
Point(p16 + 8) = {2.679922386070066, 3.402795986534142, 0};
Point(p16 + 9) = {2.531113527850856, 3.438521832555539, 0};
Point(p16 + 10) = {2.378548, 3.450529, 0};
Point(p16 + 11) = {2.225982472149144, 3.438521832555539, 0};
Point(p16 + 12) = {2.077173613929934, 3.402795986534142, 0};
Point(p16 + 13) = {1.935785593300012, 3.344231150832141, 0};
Point(p16 + 14) = {1.805299852567224, 3.264269386070066, 0};
Point(p16 + 15) = {1.688929383725758, 3.164879616274242, 0};
Point(p16 + 16) = {1.589539613929934, 3.048509147432776, 0};
Point(p16 + 17) = {1.509577849167859, 2.918023406699989, 0};
Point(p16 + 18) = {1.451013013465858, 2.776635386070066, 0};
Point(p16 + 19) = {1.415287167444461, 2.627826527850856, 0};
Point(p16 + 20) = {1.40328, 2.475261, 0};
Point(p16 + 21) = {1.415287167444461, 2.322695472149144, 0};
Point(p16 + 22) = {1.451013013465858, 2.173886613929934, 0};
Point(p16 + 23) = {1.509577849167858, 2.032498593300012, 0};
Point(p16 + 24) = {1.589539613929933, 1.902012852567224, 0};
Point(p16 + 25) = {1.688929383725758, 1.785642383725758, 0};
Point(p16 + 26) = {1.805299852567224, 1.686252613929934, 0};
Point(p16 + 27) = {1.935785593300011, 1.606290849167859, 0};
Point(p16 + 28) = {2.077173613929934, 1.547726013465858, 0};
Point(p16 + 29) = {2.225982472149144, 1.512000167444461, 0};
Point(p16 + 30) = {2.378548, 1.499993, 0};
Point(p16 + 31) = {2.531113527850855, 1.512000167444461, 0};
Point(p16 + 32) = {2.679922386070066, 1.547726013465858, 0};
Point(p16 + 33) = {2.821310406699988, 1.606290849167859, 0};
Point(p16 + 34) = {2.951796147432775, 1.686252613929934, 0};
Point(p16 + 35) = {3.068166616274242, 1.785642383725758, 0};
Point(p16 + 36) = {3.167556386070066, 1.902012852567224, 0};
Point(p16 + 37) = {3.247518150832141, 2.032498593300012, 0};
Point(p16 + 38) = {3.306082986534141, 2.173886613929934, 0};
Point(p16 + 39) = {3.341808832555539, 2.322695472149144, 0};
Spline(16) = {12, p16 + 1, p16 + 2, p16 + 3, p16 + 4, p16 + 5, p16 + 6, p16 + 7, p16 + 8, p16 + 9, p16 + 10, p16 + 11, p16 + 12, p16 + 13, p16 + 14, p16 + 15, p16 + 16, p16 + 17, p16 + 18, p16 + 19, p16 + 20, p16 + 21, p16 + 22, p16 + 23, p16 + 24, p16 + 25, p16 + 26, p16 + 27, p16 + 28, p16 + 29, p16 + 30, p16 + 31, p16 + 32, p16 + 33, p16 + 34, p16 + 35, p16 + 36, p16 + 37, p16 + 38, p16 + 39, 12};
Line(17) = {11, 8};
Line(18) = {12, 9};
Curve Loop(1) = {-1, 4, 3, -2};
Plane Surface(1) = {1};
Curve Loop(2) = {-5, 1, 7, -6};
Plane Surface(2) = {2};
Curve Loop(3) = {-2, 7, 9, -8, -10, -11};
Plane Surface(3) = {3};
Curve Loop(4) = {-12, 3, 8, -13};
Plane Surface(4) = {4};
Curve Loop(5) = {-4, 5, 14, -12, -15, -16};
Plane Surface(5) = {5};
Curve Loop(6) = {-6, 14, 13, -9};
Plane Surface(6) = {6};
Curve Loop(7) = {-10, -17, 15, 17};
Surface(7) = {7};
Curve Loop(8) = {-11, -18, 16, 18};
Surface(8) = {8};
Surface Loop(1) = {1, 2, 3, 4, 5, 6, 7, 8};
Volume(1) = {1};
Physical Surface("INFLOW") = {1};
Physical Surface("OUTFLOW") = {6};
Physical Surface("OBSTACLE") = {7, 8};
Physical Surface("WALL_Y") = {2, 4};
Physical Surface("WALL_Z") = {3, 5};
Physical Volume("FLUID") = {1};
