cl__1 = 1;
cl__2 = 0.09996099999999999;
cl__3 = 0.057707;
Point(1) = {0.029356, -3.022732, 1, cl__1};
Point(2) = {0.029356, -3.022732, 0, cl__1};
Point(3) = {0.029356, 4.636948, 1, cl__1};
Point(4) = {0.029356, 4.636948, 0, cl__1};
Point(5) = {32.719806, -3.022732, 0, cl__1};
Point(6) = {32.719806, -3.022732, 1, cl__1};
Point(7) = {32.719806, 4.636948, 1, cl__1};
Point(8) = {15.893593, -1.071406000000001, 1, cl__2};
Point(9) = {23.884148, 0.5871269999999997, 1, cl__3};
Point(10) = {32.719806, 4.636948, 0, cl__1};
Point(11) = {15.893593, -1.071406000000001, 0, cl__2};
Point(12) = {23.884148, 0.5871269999999997, 0, cl__3};
Line(1) = {2, 1};
Line(2) = {1, 3};
Line(3) = {4, 3};
Line(4) = {2, 4};
Line(5) = {2, 5};
Line(6) = {5, 6};
Line(7) = {1, 6};
Line(8) = {3, 7};
Line(9) = {6, 7};
p10 = newp;
Point(p10 + 1) = {15.88128614214231, -0.9150325444011349, 1};
Point(p10 + 2) = {15.8446686042538, -0.7625095222528588, 1};
Point(p10 + 3) = {15.78464203164394, -0.6175925565553517, 1};
Point(p10 + 4) = {15.70268447774714, -0.483849983955921, 1};
Point(p10 + 5) = {15.60081400954189, -0.3645749904581154, 1};
Point(p10 + 6) = {15.48153901604408, -0.2627045222528589, 1};
Point(p10 + 7) = {15.34779644344465, -0.1807469683560657, 1};
Point(p10 + 8) = {15.20287947774714, -0.1207203957462016, 1};
Point(p10 + 9) = {15.05035645559887, -0.08410285785769445, 1};
Point(p10 + 10) = {14.893983, -0.07179600000000008, 1};
Point(p10 + 11) = {14.73760954440113, -0.08410285785769456, 1};
Point(p10 + 12) = {14.58508652225286, -0.1207203957462015, 1};
Point(p10 + 13) = {14.44016955655535, -0.1807469683560656, 1};
Point(p10 + 14) = {14.30642698395592, -0.2627045222528589, 1};
Point(p10 + 15) = {14.18715199045812, -0.3645749904581153, 1};
Point(p10 + 16) = {14.08528152225286, -0.4838499839559209, 1};
Point(p10 + 17) = {14.00332396835607, -0.6175925565553517, 1};
Point(p10 + 18) = {13.9432973957462, -0.7625095222528588, 1};
Point(p10 + 19) = {13.90667985785769, -0.9150325444011348, 1};
Point(p10 + 20) = {13.894373, -1.071406, 1};
Point(p10 + 21) = {13.90667985785769, -1.227779455598865, 1};
Point(p10 + 22) = {13.9432973957462, -1.380302477747142, 1};
Point(p10 + 23) = {14.00332396835607, -1.525219443444648, 1};
Point(p10 + 24) = {14.08528152225286, -1.658962016044079, 1};
Point(p10 + 25) = {14.18715199045812, -1.778237009541885, 1};
Point(p10 + 26) = {14.30642698395592, -1.880107477747141, 1};
Point(p10 + 27) = {14.44016955655535, -1.962065031643935, 1};
Point(p10 + 28) = {14.58508652225286, -2.022091604253799, 1};
Point(p10 + 29) = {14.73760954440113, -2.058709142142305, 1};
Point(p10 + 30) = {14.893983, -2.071016, 1};
Point(p10 + 31) = {15.05035645559887, -2.058709142142306, 1};
Point(p10 + 32) = {15.20287947774714, -2.022091604253799, 1};
Point(p10 + 33) = {15.34779644344465, -1.962065031643935, 1};
Point(p10 + 34) = {15.48153901604408, -1.880107477747141, 1};
Point(p10 + 35) = {15.60081400954189, -1.778237009541885, 1};
Point(p10 + 36) = {15.70268447774714, -1.658962016044079, 1};
Point(p10 + 37) = {15.78464203164394, -1.525219443444649, 1};
Point(p10 + 38) = {15.8446686042538, -1.380302477747142, 1};
Point(p10 + 39) = {15.88128614214231, -1.227779455598865, 1};
Spline(10) = {8, p10 + 1, p10 + 2, p10 + 3, p10 + 4, p10 + 5, p10 + 6, p10 + 7, p10 + 8, p10 + 9, p10 + 10, p10 + 11, p10 + 12, p10 + 13, p10 + 14, p10 + 15, p10 + 16, p10 + 17, p10 + 18, p10 + 19, p10 + 20, p10 + 21, p10 + 22, p10 + 23, p10 + 24, p10 + 25, p10 + 26, p10 + 27, p10 + 28, p10 + 29, p10 + 30, p10 + 31, p10 + 32, p10 + 33, p10 + 34, p10 + 35, p10 + 36, p10 + 37, p10 + 38, p10 + 39, 8};
p11 = newp;
Point(p11 + 1) = {23.87704331070724, 0.677400636740766, 1};
Point(p11 + 2) = {23.85590418385845, 0.7654514369439509, 1};
Point(p11 + 3) = {23.82125113491338, 0.8491112976847002, 1};
Point(p11 + 4) = {23.77393743694395, 0.9263202355404174, 1};
Point(p11 + 5) = {23.71512811021932, 0.9951771102193209, 1};
Point(p11 + 6) = {23.64627123554042, 1.053986436943951, 1};
Point(p11 + 7) = {23.5690622976847, 1.101300134913381, 1};
Point(p11 + 8) = {23.48540243694395, 1.135953183858444, 1};
Point(p11 + 9) = {23.39735163674077, 1.157092310707236, 1};
Point(p11 + 10) = {23.307078, 1.164197, 1};
Point(p11 + 11) = {23.21680436325924, 1.157092310707236, 1};
Point(p11 + 12) = {23.12875356305605, 1.135953183858444, 1};
Point(p11 + 13) = {23.0450937023153, 1.101300134913382, 1};
Point(p11 + 14) = {22.96788476445958, 1.053986436943951, 1};
Point(p11 + 15) = {22.89902788978068, 0.995177110219321, 1};
Point(p11 + 16) = {22.84021856305605, 0.9263202355404174, 1};
Point(p11 + 17) = {22.79290486508662, 0.8491112976847002, 1};
Point(p11 + 18) = {22.75825181614156, 0.7654514369439509, 1};
Point(p11 + 19) = {22.73711268929276, 0.677400636740766, 1};
Point(p11 + 20) = {22.730008, 0.5871270000000001, 1};
Point(p11 + 21) = {22.73711268929276, 0.496853363259234, 1};
Point(p11 + 22) = {22.75825181614156, 0.4088025630560489, 1};
Point(p11 + 23) = {22.79290486508662, 0.3251427023153, 1};
Point(p11 + 24) = {22.84021856305605, 0.2479337644595825, 1};
Point(p11 + 25) = {22.89902788978068, 0.179076889780679, 1};
Point(p11 + 26) = {22.96788476445958, 0.1202675630560491, 1};
Point(p11 + 27) = {23.0450937023153, 0.07295386508661861, 1};
Point(p11 + 28) = {23.12875356305605, 0.03830081614155578, 1};
Point(p11 + 29) = {23.21680436325924, 0.01716168929276385, 1};
Point(p11 + 30) = {23.307078, 0.01005699999999998, 1};
Point(p11 + 31) = {23.39735163674077, 0.01716168929276385, 1};
Point(p11 + 32) = {23.48540243694395, 0.03830081614155567, 1};
Point(p11 + 33) = {23.5690622976847, 0.0729538650866185, 1};
Point(p11 + 34) = {23.64627123554042, 0.120267563056049, 1};
Point(p11 + 35) = {23.71512811021932, 0.1790768897806789, 1};
Point(p11 + 36) = {23.77393743694395, 0.2479337644595824, 1};
Point(p11 + 37) = {23.82125113491338, 0.3251427023152996, 1};
Point(p11 + 38) = {23.85590418385845, 0.408802563056049, 1};
Point(p11 + 39) = {23.87704331070724, 0.4968533632592338, 1};
Spline(11) = {9, p11 + 1, p11 + 2, p11 + 3, p11 + 4, p11 + 5, p11 + 6, p11 + 7, p11 + 8, p11 + 9, p11 + 10, p11 + 11, p11 + 12, p11 + 13, p11 + 14, p11 + 15, p11 + 16, p11 + 17, p11 + 18, p11 + 19, p11 + 20, p11 + 21, p11 + 22, p11 + 23, p11 + 24, p11 + 25, p11 + 26, p11 + 27, p11 + 28, p11 + 29, p11 + 30, p11 + 31, p11 + 32, p11 + 33, p11 + 34, p11 + 35, p11 + 36, p11 + 37, p11 + 38, p11 + 39, 9};
Line(12) = {4, 10};
Line(13) = {10, 7};
Line(14) = {5, 10};
p15 = newp;
Point(p15 + 1) = {15.88128614214231, -0.9150325444011349, 0};
Point(p15 + 2) = {15.8446686042538, -0.7625095222528588, 0};
Point(p15 + 3) = {15.78464203164394, -0.6175925565553517, 0};
Point(p15 + 4) = {15.70268447774714, -0.483849983955921, 0};
Point(p15 + 5) = {15.60081400954189, -0.3645749904581154, 0};
Point(p15 + 6) = {15.48153901604408, -0.2627045222528589, 0};
Point(p15 + 7) = {15.34779644344465, -0.1807469683560657, 0};
Point(p15 + 8) = {15.20287947774714, -0.1207203957462016, 0};
Point(p15 + 9) = {15.05035645559887, -0.08410285785769445, 0};
Point(p15 + 10) = {14.893983, -0.07179600000000008, 0};
Point(p15 + 11) = {14.73760954440113, -0.08410285785769456, 0};
Point(p15 + 12) = {14.58508652225286, -0.1207203957462015, 0};
Point(p15 + 13) = {14.44016955655535, -0.1807469683560656, 0};
Point(p15 + 14) = {14.30642698395592, -0.2627045222528589, 0};
Point(p15 + 15) = {14.18715199045812, -0.3645749904581153, 0};
Point(p15 + 16) = {14.08528152225286, -0.4838499839559209, 0};
Point(p15 + 17) = {14.00332396835607, -0.6175925565553517, 0};
Point(p15 + 18) = {13.9432973957462, -0.7625095222528588, 0};
Point(p15 + 19) = {13.90667985785769, -0.9150325444011348, 0};
Point(p15 + 20) = {13.894373, -1.071406, 0};
Point(p15 + 21) = {13.90667985785769, -1.227779455598865, 0};
Point(p15 + 22) = {13.9432973957462, -1.380302477747142, 0};
Point(p15 + 23) = {14.00332396835607, -1.525219443444648, 0};
Point(p15 + 24) = {14.08528152225286, -1.658962016044079, 0};
Point(p15 + 25) = {14.18715199045812, -1.778237009541885, 0};
Point(p15 + 26) = {14.30642698395592, -1.880107477747141, 0};
Point(p15 + 27) = {14.44016955655535, -1.962065031643935, 0};
Point(p15 + 28) = {14.58508652225286, -2.022091604253799, 0};
Point(p15 + 29) = {14.73760954440113, -2.058709142142305, 0};
Point(p15 + 30) = {14.893983, -2.071016, 0};
Point(p15 + 31) = {15.05035645559887, -2.058709142142306, 0};
Point(p15 + 32) = {15.20287947774714, -2.022091604253799, 0};
Point(p15 + 33) = {15.34779644344465, -1.962065031643935, 0};
Point(p15 + 34) = {15.48153901604408, -1.880107477747141, 0};
Point(p15 + 35) = {15.60081400954189, -1.778237009541885, 0};
Point(p15 + 36) = {15.70268447774714, -1.658962016044079, 0};
Point(p15 + 37) = {15.78464203164394, -1.525219443444649, 0};
Point(p15 + 38) = {15.8446686042538, -1.380302477747142, 0};
Point(p15 + 39) = {15.88128614214231, -1.227779455598865, 0};
Spline(15) = {11, p15 + 1, p15 + 2, p15 + 3, p15 + 4, p15 + 5, p15 + 6, p15 + 7, p15 + 8, p15 + 9, p15 + 10, p15 + 11, p15 + 12, p15 + 13, p15 + 14, p15 + 15, p15 + 16, p15 + 17, p15 + 18, p15 + 19, p15 + 20, p15 + 21, p15 + 22, p15 + 23, p15 + 24, p15 + 25, p15 + 26, p15 + 27, p15 + 28, p15 + 29, p15 + 30, p15 + 31, p15 + 32, p15 + 33, p15 + 34, p15 + 35, p15 + 36, p15 + 37, p15 + 38, p15 + 39, 11};
p16 = newp;
Point(p16 + 1) = {23.87704331070724, 0.677400636740766, 0};
Point(p16 + 2) = {23.85590418385845, 0.7654514369439509, 0};
Point(p16 + 3) = {23.82125113491338, 0.8491112976847002, 0};
Point(p16 + 4) = {23.77393743694395, 0.9263202355404174, 0};
Point(p16 + 5) = {23.71512811021932, 0.9951771102193209, 0};
Point(p16 + 6) = {23.64627123554042, 1.053986436943951, 0};
Point(p16 + 7) = {23.5690622976847, 1.101300134913381, 0};
Point(p16 + 8) = {23.48540243694395, 1.135953183858444, 0};
Point(p16 + 9) = {23.39735163674077, 1.157092310707236, 0};
Point(p16 + 10) = {23.307078, 1.164197, 0};
Point(p16 + 11) = {23.21680436325924, 1.157092310707236, 0};
Point(p16 + 12) = {23.12875356305605, 1.135953183858444, 0};
Point(p16 + 13) = {23.0450937023153, 1.101300134913382, 0};
Point(p16 + 14) = {22.96788476445958, 1.053986436943951, 0};
Point(p16 + 15) = {22.89902788978068, 0.995177110219321, 0};
Point(p16 + 16) = {22.84021856305605, 0.9263202355404174, 0};
Point(p16 + 17) = {22.79290486508662, 0.8491112976847002, 0};
Point(p16 + 18) = {22.75825181614156, 0.7654514369439509, 0};
Point(p16 + 19) = {22.73711268929276, 0.677400636740766, 0};
Point(p16 + 20) = {22.730008, 0.5871270000000001, 0};
Point(p16 + 21) = {22.73711268929276, 0.496853363259234, 0};
Point(p16 + 22) = {22.75825181614156, 0.4088025630560489, 0};
Point(p16 + 23) = {22.79290486508662, 0.3251427023153, 0};
Point(p16 + 24) = {22.84021856305605, 0.2479337644595825, 0};
Point(p16 + 25) = {22.89902788978068, 0.179076889780679, 0};
Point(p16 + 26) = {22.96788476445958, 0.1202675630560491, 0};
Point(p16 + 27) = {23.0450937023153, 0.07295386508661861, 0};
Point(p16 + 28) = {23.12875356305605, 0.03830081614155578, 0};
Point(p16 + 29) = {23.21680436325924, 0.01716168929276385, 0};
Point(p16 + 30) = {23.307078, 0.01005699999999998, 0};
Point(p16 + 31) = {23.39735163674077, 0.01716168929276385, 0};
Point(p16 + 32) = {23.48540243694395, 0.03830081614155567, 0};
Point(p16 + 33) = {23.5690622976847, 0.0729538650866185, 0};
Point(p16 + 34) = {23.64627123554042, 0.120267563056049, 0};
Point(p16 + 35) = {23.71512811021932, 0.1790768897806789, 0};
Point(p16 + 36) = {23.77393743694395, 0.2479337644595824, 0};
Point(p16 + 37) = {23.82125113491338, 0.3251427023152996, 0};
Point(p16 + 38) = {23.85590418385845, 0.408802563056049, 0};
Point(p16 + 39) = {23.87704331070724, 0.4968533632592338, 0};
Spline(16) = {12, p16 + 1, p16 + 2, p16 + 3, p16 + 4, p16 + 5, p16 + 6, p16 + 7, p16 + 8, p16 + 9, p16 + 10, p16 + 11, p16 + 12, p16 + 13, p16 + 14, p16 + 15, p16 + 16, p16 + 17, p16 + 18, p16 + 19, p16 + 20, p16 + 21, p16 + 22, p16 + 23, p16 + 24, p16 + 25, p16 + 26, p16 + 27, p16 + 28, p16 + 29, p16 + 30, p16 + 31, p16 + 32, p16 + 33, p16 + 34, p16 + 35, p16 + 36, p16 + 37, p16 + 38, p16 + 39, 12};
Line(17) = {11, 8};
Line(18) = {12, 9};
Curve Loop(1) = {-1, 4, 3, -2};
Plane Surface(1) = {1};
Curve Loop(2) = {-5, 1, 7, -6};
Plane Surface(2) = {2};
Curve Loop(3) = {-2, 7, 9, -8, -10, -11};
Plane Surface(3) = {3};
Curve Loop(4) = {-12, 3, 8, -13};
Plane Surface(4) = {4};
Curve Loop(5) = {-4, 5, 14, -12, -15, -16};
Plane Surface(5) = {5};
Curve Loop(6) = {-6, 14, 13, -9};
Plane Surface(6) = {6};
Curve Loop(7) = {-10, -17, 15, 17};
Surface(7) = {7};
Curve Loop(8) = {-11, -18, 16, 18};
Surface(8) = {8};
Surface Loop(1) = {1, 2, 3, 4, 5, 6, 7, 8};
Volume(1) = {1};
Physical Surface("INFLOW") = {1};
Physical Surface("OUTFLOW") = {6};
Physical Surface("OBSTACLE") = {7, 8};
Physical Surface("WALL_Y") = {2, 4};
Physical Surface("WALL_Z") = {3, 5};
Physical Volume("FLUID") = {1};
