cl__1 = 0.341054;
cl__2 = 3.657068;
cl__3 = 0.077668;
cl__4 = 0.105168;
Point(1) = {0.717612, -3.876383, 1, cl__1};
Point(2) = {0.717612, -3.876383, 0, cl__1};
Point(3) = {0.717612, 4.283576999999999, 1, cl__2};
Point(4) = {0.717612, 4.283576999999999, 0, cl__2};
Point(5) = {36.342379, -3.876383, 0, cl__1};
Point(6) = {36.342379, -3.876383, 1, cl__1};
Point(7) = {36.342379, 4.283576999999999, 1, cl__2};
Point(8) = {4.131026, -0.6236190000000003, 1, cl__3};
Point(9) = {10.571758, 1.968435, 1, cl__4};
Point(10) = {36.342379, 4.283576999999999, 0, cl__2};
Point(11) = {4.131026, -0.6236190000000003, 0, cl__3};
Point(12) = {10.571758, 1.968435, 0, cl__4};
Line(1) = {2, 1};
Line(2) = {1, 3};
Line(3) = {4, 3};
Line(4) = {2, 4};
Line(5) = {2, 5};
Line(6) = {5, 6};
Line(7) = {1, 6};
Line(8) = {3, 7};
Line(9) = {6, 7};
p10 = newp;
Point(p10 + 1) = {4.121463780373432, -0.5021194796925535, 1};
Point(p10 + 2) = {4.09301257507612, -0.3836116808088659, 1};
Point(p10 + 3) = {4.046372947206621, -0.2710136586622888, 1};
Point(p10 + 4) = {3.982693319191134, -0.167097950249482, 1};
Point(p10 + 5) = {3.903541694811968, -0.07442330518803231, 1};
Point(p10 + 6) = {3.810867049750518, 0.004728319191134145, 1};
Point(p10 + 7) = {3.706951341337711, 0.06840794720662147, 1};
Point(p10 + 8) = {3.594353319191134, 0.1150475750761198, 1};
Point(p10 + 9) = {3.475845520307447, 0.1434987803734316, 1};
Point(p10 + 10) = {3.354346, 0.153061, 1};
Point(p10 + 11) = {3.232846479692554, 0.1434987803734316, 1};
Point(p10 + 12) = {3.114338680808866, 0.11504757507612, 1};
Point(p10 + 13) = {3.001740658662289, 0.06840794720662158, 1};
Point(p10 + 14) = {2.897824950249482, 0.004728319191134145, 1};
Point(p10 + 15) = {2.805150305188032, -0.0744233051880322, 1};
Point(p10 + 16) = {2.725998680808866, -0.1670979502494819, 1};
Point(p10 + 17) = {2.662319052793379, -0.2710136586622888, 1};
Point(p10 + 18) = {2.61567942492388, -0.3836116808088658, 1};
Point(p10 + 19) = {2.587228219626569, -0.5021194796925534, 1};
Point(p10 + 20) = {2.577666, -0.6236189999999999, 1};
Point(p10 + 21) = {2.587228219626569, -0.7451185203074464, 1};
Point(p10 + 22) = {2.61567942492388, -0.8636263191911344, 1};
Point(p10 + 23) = {2.662319052793378, -0.9762243413377109, 1};
Point(p10 + 24) = {2.725998680808866, -1.080140049750518, 1};
Point(p10 + 25) = {2.805150305188032, -1.172814694811968, 1};
Point(p10 + 26) = {2.897824950249482, -1.251966319191134, 1};
Point(p10 + 27) = {3.001740658662289, -1.315645947206622, 1};
Point(p10 + 28) = {3.114338680808866, -1.36228557507612, 1};
Point(p10 + 29) = {3.232846479692554, -1.390736780373432, 1};
Point(p10 + 30) = {3.354346, -1.400299, 1};
Point(p10 + 31) = {3.475845520307447, -1.390736780373432, 1};
Point(p10 + 32) = {3.594353319191134, -1.36228557507612, 1};
Point(p10 + 33) = {3.706951341337711, -1.315645947206622, 1};
Point(p10 + 34) = {3.810867049750518, -1.251966319191134, 1};
Point(p10 + 35) = {3.903541694811968, -1.172814694811968, 1};
Point(p10 + 36) = {3.982693319191134, -1.080140049750518, 1};
Point(p10 + 37) = {4.046372947206621, -0.9762243413377114, 1};
Point(p10 + 38) = {4.09301257507612, -0.8636263191911344, 1};
Point(p10 + 39) = {4.121463780373432, -0.7451185203074467, 1};
Spline(10) = {8, p10 + 1, p10 + 2, p10 + 3, p10 + 4, p10 + 5, p10 + 6, p10 + 7, p10 + 8, p10 + 9, p10 + 10, p10 + 11, p10 + 12, p10 + 13, p10 + 14, p10 + 15, p10 + 16, p10 + 17, p10 + 18, p10 + 19, p10 + 20, p10 + 21, p10 + 22, p10 + 23, p10 + 24, p10 + 25, p10 + 26, p10 + 27, p10 + 28, p10 + 29, p10 + 30, p10 + 31, p10 + 32, p10 + 33, p10 + 34, p10 + 35, p10 + 36, p10 + 37, p10 + 38, p10 + 39, 8};
p11 = newp;
Point(p11 + 1) = {10.55881007403709, 2.13295399819351, 1};
Point(p11 + 2) = {10.52028511705729, 2.293421992644245, 1};
Point(p11 + 3) = {10.45713174135842, 2.445887728766087, 1};
Point(p11 + 4) = {10.37090499264425, 2.586596994130948, 1};
Point(p11 + 5) = {10.26372805963827, 2.712085059638268, 1};
Point(p11 + 6) = {10.13823999413095, 2.819261992644245, 1};
Point(p11 + 7) = {9.997530728766087, 2.905488741358423, 1};
Point(p11 + 8) = {9.845064992644245, 2.968642117057287, 1};
Point(p11 + 9) = {9.684596998193509, 3.007167074037095, 1};
Point(p11 + 10) = {9.520078, 3.020115, 1};
Point(p11 + 11) = {9.35555900180649, 3.007167074037094, 1};
Point(p11 + 12) = {9.195091007355755, 2.968642117057287, 1};
Point(p11 + 13) = {9.042625271233913, 2.905488741358423, 1};
Point(p11 + 14) = {8.901916005869051, 2.819261992644245, 1};
Point(p11 + 15) = {8.776427940361732, 2.712085059638268, 1};
Point(p11 + 16) = {8.669251007355756, 2.586596994130948, 1};
Point(p11 + 17) = {8.583024258641577, 2.445887728766087, 1};
Point(p11 + 18) = {8.519870882942712, 2.293421992644245, 1};
Point(p11 + 19) = {8.481345925962906, 2.13295399819351, 1};
Point(p11 + 20) = {8.468398000000001, 1.968435, 1};
Point(p11 + 21) = {8.481345925962906, 1.80391600180649, 1};
Point(p11 + 22) = {8.519870882942712, 1.643448007355755, 1};
Point(p11 + 23) = {8.583024258641577, 1.490982271233914, 1};
Point(p11 + 24) = {8.669251007355754, 1.350273005869052, 1};
Point(p11 + 25) = {8.776427940361732, 1.224784940361732, 1};
Point(p11 + 26) = {8.901916005869051, 1.117608007355755, 1};
Point(p11 + 27) = {9.042625271233913, 1.031381258641577, 1};
Point(p11 + 28) = {9.195091007355755, 0.9682278829427129, 1};
Point(p11 + 29) = {9.35555900180649, 0.9297029259629057, 1};
Point(p11 + 30) = {9.520078, 0.916755, 1};
Point(p11 + 31) = {9.684596998193509, 0.9297029259629055, 1};
Point(p11 + 32) = {9.845064992644245, 0.9682278829427129, 1};
Point(p11 + 33) = {9.997530728766087, 1.031381258641577, 1};
Point(p11 + 34) = {10.13823999413095, 1.117608007355755, 1};
Point(p11 + 35) = {10.26372805963827, 1.224784940361731, 1};
Point(p11 + 36) = {10.37090499264424, 1.350273005869052, 1};
Point(p11 + 37) = {10.45713174135842, 1.490982271233913, 1};
Point(p11 + 38) = {10.52028511705729, 1.643448007355755, 1};
Point(p11 + 39) = {10.55881007403709, 1.80391600180649, 1};
Spline(11) = {9, p11 + 1, p11 + 2, p11 + 3, p11 + 4, p11 + 5, p11 + 6, p11 + 7, p11 + 8, p11 + 9, p11 + 10, p11 + 11, p11 + 12, p11 + 13, p11 + 14, p11 + 15, p11 + 16, p11 + 17, p11 + 18, p11 + 19, p11 + 20, p11 + 21, p11 + 22, p11 + 23, p11 + 24, p11 + 25, p11 + 26, p11 + 27, p11 + 28, p11 + 29, p11 + 30, p11 + 31, p11 + 32, p11 + 33, p11 + 34, p11 + 35, p11 + 36, p11 + 37, p11 + 38, p11 + 39, 9};
Line(12) = {4, 10};
Line(13) = {10, 7};
Line(14) = {5, 10};
p15 = newp;
Point(p15 + 1) = {4.121463780373432, -0.5021194796925535, 0};
Point(p15 + 2) = {4.09301257507612, -0.3836116808088659, 0};
Point(p15 + 3) = {4.046372947206621, -0.2710136586622888, 0};
Point(p15 + 4) = {3.982693319191134, -0.167097950249482, 0};
Point(p15 + 5) = {3.903541694811968, -0.07442330518803231, 0};
Point(p15 + 6) = {3.810867049750518, 0.004728319191134145, 0};
Point(p15 + 7) = {3.706951341337711, 0.06840794720662147, 0};
Point(p15 + 8) = {3.594353319191134, 0.1150475750761198, 0};
Point(p15 + 9) = {3.475845520307447, 0.1434987803734316, 0};
Point(p15 + 10) = {3.354346, 0.153061, 0};
Point(p15 + 11) = {3.232846479692554, 0.1434987803734316, 0};
Point(p15 + 12) = {3.114338680808866, 0.11504757507612, 0};
Point(p15 + 13) = {3.001740658662289, 0.06840794720662158, 0};
Point(p15 + 14) = {2.897824950249482, 0.004728319191134145, 0};
Point(p15 + 15) = {2.805150305188032, -0.0744233051880322, 0};
Point(p15 + 16) = {2.725998680808866, -0.1670979502494819, 0};
Point(p15 + 17) = {2.662319052793379, -0.2710136586622888, 0};
Point(p15 + 18) = {2.61567942492388, -0.3836116808088658, 0};
Point(p15 + 19) = {2.587228219626569, -0.5021194796925534, 0};
Point(p15 + 20) = {2.577666, -0.6236189999999999, 0};
Point(p15 + 21) = {2.587228219626569, -0.7451185203074464, 0};
Point(p15 + 22) = {2.61567942492388, -0.8636263191911344, 0};
Point(p15 + 23) = {2.662319052793378, -0.9762243413377109, 0};
Point(p15 + 24) = {2.725998680808866, -1.080140049750518, 0};
Point(p15 + 25) = {2.805150305188032, -1.172814694811968, 0};
Point(p15 + 26) = {2.897824950249482, -1.251966319191134, 0};
Point(p15 + 27) = {3.001740658662289, -1.315645947206622, 0};
Point(p15 + 28) = {3.114338680808866, -1.36228557507612, 0};
Point(p15 + 29) = {3.232846479692554, -1.390736780373432, 0};
Point(p15 + 30) = {3.354346, -1.400299, 0};
Point(p15 + 31) = {3.475845520307447, -1.390736780373432, 0};
Point(p15 + 32) = {3.594353319191134, -1.36228557507612, 0};
Point(p15 + 33) = {3.706951341337711, -1.315645947206622, 0};
Point(p15 + 34) = {3.810867049750518, -1.251966319191134, 0};
Point(p15 + 35) = {3.903541694811968, -1.172814694811968, 0};
Point(p15 + 36) = {3.982693319191134, -1.080140049750518, 0};
Point(p15 + 37) = {4.046372947206621, -0.9762243413377114, 0};
Point(p15 + 38) = {4.09301257507612, -0.8636263191911344, 0};
Point(p15 + 39) = {4.121463780373432, -0.7451185203074467, 0};
Spline(15) = {11, p15 + 1, p15 + 2, p15 + 3, p15 + 4, p15 + 5, p15 + 6, p15 + 7, p15 + 8, p15 + 9, p15 + 10, p15 + 11, p15 + 12, p15 + 13, p15 + 14, p15 + 15, p15 + 16, p15 + 17, p15 + 18, p15 + 19, p15 + 20, p15 + 21, p15 + 22, p15 + 23, p15 + 24, p15 + 25, p15 + 26, p15 + 27, p15 + 28, p15 + 29, p15 + 30, p15 + 31, p15 + 32, p15 + 33, p15 + 34, p15 + 35, p15 + 36, p15 + 37, p15 + 38, p15 + 39, 11};
p16 = newp;
Point(p16 + 1) = {10.55881007403709, 2.13295399819351, 0};
Point(p16 + 2) = {10.52028511705729, 2.293421992644245, 0};
Point(p16 + 3) = {10.45713174135842, 2.445887728766087, 0};
Point(p16 + 4) = {10.37090499264425, 2.586596994130948, 0};
Point(p16 + 5) = {10.26372805963827, 2.712085059638268, 0};
Point(p16 + 6) = {10.13823999413095, 2.819261992644245, 0};
Point(p16 + 7) = {9.997530728766087, 2.905488741358423, 0};
Point(p16 + 8) = {9.845064992644245, 2.968642117057287, 0};
Point(p16 + 9) = {9.684596998193509, 3.007167074037095, 0};
Point(p16 + 10) = {9.520078, 3.020115, 0};
Point(p16 + 11) = {9.35555900180649, 3.007167074037094, 0};
Point(p16 + 12) = {9.195091007355755, 2.968642117057287, 0};
Point(p16 + 13) = {9.042625271233913, 2.905488741358423, 0};
Point(p16 + 14) = {8.901916005869051, 2.819261992644245, 0};
Point(p16 + 15) = {8.776427940361732, 2.712085059638268, 0};
Point(p16 + 16) = {8.669251007355756, 2.586596994130948, 0};
Point(p16 + 17) = {8.583024258641577, 2.445887728766087, 0};
Point(p16 + 18) = {8.519870882942712, 2.293421992644245, 0};
Point(p16 + 19) = {8.481345925962906, 2.13295399819351, 0};
Point(p16 + 20) = {8.468398000000001, 1.968435, 0};
Point(p16 + 21) = {8.481345925962906, 1.80391600180649, 0};
Point(p16 + 22) = {8.519870882942712, 1.643448007355755, 0};
Point(p16 + 23) = {8.583024258641577, 1.490982271233914, 0};
Point(p16 + 24) = {8.669251007355754, 1.350273005869052, 0};
Point(p16 + 25) = {8.776427940361732, 1.224784940361732, 0};
Point(p16 + 26) = {8.901916005869051, 1.117608007355755, 0};
Point(p16 + 27) = {9.042625271233913, 1.031381258641577, 0};
Point(p16 + 28) = {9.195091007355755, 0.9682278829427129, 0};
Point(p16 + 29) = {9.35555900180649, 0.9297029259629057, 0};
Point(p16 + 30) = {9.520078, 0.916755, 0};
Point(p16 + 31) = {9.684596998193509, 0.9297029259629055, 0};
Point(p16 + 32) = {9.845064992644245, 0.9682278829427129, 0};
Point(p16 + 33) = {9.997530728766087, 1.031381258641577, 0};
Point(p16 + 34) = {10.13823999413095, 1.117608007355755, 0};
Point(p16 + 35) = {10.26372805963827, 1.224784940361731, 0};
Point(p16 + 36) = {10.37090499264424, 1.350273005869052, 0};
Point(p16 + 37) = {10.45713174135842, 1.490982271233913, 0};
Point(p16 + 38) = {10.52028511705729, 1.643448007355755, 0};
Point(p16 + 39) = {10.55881007403709, 1.80391600180649, 0};
Spline(16) = {12, p16 + 1, p16 + 2, p16 + 3, p16 + 4, p16 + 5, p16 + 6, p16 + 7, p16 + 8, p16 + 9, p16 + 10, p16 + 11, p16 + 12, p16 + 13, p16 + 14, p16 + 15, p16 + 16, p16 + 17, p16 + 18, p16 + 19, p16 + 20, p16 + 21, p16 + 22, p16 + 23, p16 + 24, p16 + 25, p16 + 26, p16 + 27, p16 + 28, p16 + 29, p16 + 30, p16 + 31, p16 + 32, p16 + 33, p16 + 34, p16 + 35, p16 + 36, p16 + 37, p16 + 38, p16 + 39, 12};
Line(17) = {11, 8};
Line(18) = {12, 9};
Curve Loop(1) = {-1, 4, 3, -2};
Plane Surface(1) = {1};
Curve Loop(2) = {-5, 1, 7, -6};
Plane Surface(2) = {2};
Curve Loop(3) = {-2, 7, 9, -8, -10, -11};
Plane Surface(3) = {3};
Curve Loop(4) = {-12, 3, 8, -13};
Plane Surface(4) = {4};
Curve Loop(5) = {-4, 5, 14, -12, -15, -16};
Plane Surface(5) = {5};
Curve Loop(6) = {-6, 14, 13, -9};
Plane Surface(6) = {6};
Curve Loop(7) = {-10, -17, 15, 17};
Surface(7) = {7};
Curve Loop(8) = {-11, -18, 16, 18};
Surface(8) = {8};
Surface Loop(1) = {1, 2, 3, 4, 5, 6, 7, 8};
Volume(1) = {1};
Physical Surface("INFLOW") = {1};
Physical Surface("OUTFLOW") = {6};
Physical Surface("OBSTACLE") = {7, 8};
Physical Surface("WALL_Y") = {2, 4};
Physical Surface("WALL_Z") = {3, 5};
Physical Volume("FLUID") = {1};
