cl__1 = 1;
cl__2 = 0.120561;
cl__3 = 0.125243;
Point(1) = {0.755484, -4.132437, 1, cl__1};
Point(2) = {0.755484, -4.132437, 0, cl__1};
Point(3) = {0.755484, 4.364425, 1, cl__1};
Point(4) = {0.755484, 4.364425, 0, cl__1};
Point(5) = {31.676004, -4.132437, 0, cl__1};
Point(6) = {31.676004, -4.132437, 1, cl__1};
Point(7) = {31.676004, 4.364425, 1, cl__1};
Point(8) = {18.07374, -1.021316, 1, cl__2};
Point(9) = {10.798534, 2.091507, 1, cl__3};
Point(10) = {31.676004, 4.364425, 0, cl__1};
Point(11) = {18.07374, -1.021316, 0, cl__2};
Point(12) = {10.798534, 2.091507, 0, cl__3};
Line(1) = {2, 1};
Line(2) = {1, 3};
Line(3) = {4, 3};
Line(4) = {2, 4};
Line(5) = {2, 5};
Line(6) = {5, 6};
Line(7) = {1, 6};
Line(8) = {3, 7};
Line(9) = {6, 7};
p10 = newp;
Point(p10 + 1) = {18.05889696492822, -0.8327173574717772, 1};
Point(p10 + 2) = {18.01473334449757, -0.6487626394456083, 1};
Point(p10 + 3) = {17.94233659361369, -0.4739814215900044, 1};
Point(p10 + 4) = {17.84348936055439, -0.3126773975541759, 1};
Point(p10 + 5) = {17.72062559225275, -0.1688224077472488, 1};
Point(p10 + 6) = {17.57677060244582, -0.04595863944560818, 1};
Point(p10 + 7) = {17.41546657840999, 0.0528885936136898, 1};
Point(p10 + 8) = {17.24068536055439, 0.1252853444975677, 1};
Point(p10 + 9) = {17.05673064252822, 0.1694489649282229, 1};
Point(p10 + 10) = {16.868132, 0.1842920000000001, 1};
Point(p10 + 11) = {16.67953335747178, 0.1694489649282229, 1};
Point(p10 + 12) = {16.49557863944561, 0.1252853444975677, 1};
Point(p10 + 13) = {16.32079742159, 0.05288859361369003, 1};
Point(p10 + 14) = {16.15949339755418, -0.04595863944560818, 1};
Point(p10 + 15) = {16.01563840774725, -0.1688224077472487, 1};
Point(p10 + 16) = {15.89277463944561, -0.3126773975541758, 1};
Point(p10 + 17) = {15.79392740638631, -0.4739814215900042, 1};
Point(p10 + 18) = {15.72153065550243, -0.6487626394456082, 1};
Point(p10 + 19) = {15.67736703507178, -0.8327173574717771, 1};
Point(p10 + 20) = {15.662524, -1.021316, 1};
Point(p10 + 21) = {15.67736703507178, -1.209914642528222, 1};
Point(p10 + 22) = {15.72153065550243, -1.393869360554392, 1};
Point(p10 + 23) = {15.79392740638631, -1.568650578409995, 1};
Point(p10 + 24) = {15.89277463944561, -1.729954602445824, 1};
Point(p10 + 25) = {16.01563840774725, -1.873809592252751, 1};
Point(p10 + 26) = {16.15949339755418, -1.996673360554391, 1};
Point(p10 + 27) = {16.32079742159, -2.095520593613689, 1};
Point(p10 + 28) = {16.49557863944561, -2.167917344497567, 1};
Point(p10 + 29) = {16.67953335747178, -2.212080964928223, 1};
Point(p10 + 30) = {16.868132, -2.226924, 1};
Point(p10 + 31) = {17.05673064252822, -2.212080964928223, 1};
Point(p10 + 32) = {17.24068536055439, -2.167917344497567, 1};
Point(p10 + 33) = {17.41546657840999, -2.09552059361369, 1};
Point(p10 + 34) = {17.57677060244582, -1.996673360554392, 1};
Point(p10 + 35) = {17.72062559225275, -1.873809592252751, 1};
Point(p10 + 36) = {17.84348936055439, -1.729954602445824, 1};
Point(p10 + 37) = {17.94233659361369, -1.568650578409996, 1};
Point(p10 + 38) = {18.01473334449757, -1.393869360554392, 1};
Point(p10 + 39) = {18.05889696492822, -1.209914642528223, 1};
Spline(10) = {8, p10 + 1, p10 + 2, p10 + 3, p10 + 4, p10 + 5, p10 + 6, p10 + 7, p10 + 8, p10 + 9, p10 + 10, p10 + 11, p10 + 12, p10 + 13, p10 + 14, p10 + 15, p10 + 16, p10 + 17, p10 + 18, p10 + 19, p10 + 20, p10 + 21, p10 + 22, p10 + 23, p10 + 24, p10 + 25, p10 + 26, p10 + 27, p10 + 28, p10 + 29, p10 + 30, p10 + 31, p10 + 32, p10 + 33, p10 + 34, p10 + 35, p10 + 36, p10 + 37, p10 + 38, p10 + 39, 8};
p11 = newp;
Point(p11 + 1) = {10.78311453303489, 2.287429904181406, 1};
Point(p11 + 2) = {10.73723581059051, 2.478528536231027, 1};
Point(p11 + 3) = {10.66202751907619, 2.660097413607801, 1};
Point(p11 + 4) = {10.55934153623103, 2.827665707958158, 1};
Point(p11 + 5) = {10.43170633174791, 2.977107331747905, 1};
Point(p11 + 6) = {10.28226470795816, 3.104742536231027, 1};
Point(p11 + 7) = {10.1146964136078, 3.207428519076189, 1};
Point(p11 + 8) = {9.933127536231027, 3.282636810590507, 1};
Point(p11 + 9) = {9.742028904181407, 3.328515533034887, 1};
Point(p11 + 10) = {9.546106, 3.343935, 1};
Point(p11 + 11) = {9.350183095818593, 3.328515533034887, 1};
Point(p11 + 12) = {9.159084463768973, 3.282636810590507, 1};
Point(p11 + 13) = {8.977515586392199, 3.207428519076189, 1};
Point(p11 + 14) = {8.809947292041842, 3.104742536231027, 1};
Point(p11 + 15) = {8.660505668252094, 2.977107331747905, 1};
Point(p11 + 16) = {8.532870463768973, 2.827665707958158, 1};
Point(p11 + 17) = {8.430184480923812, 2.660097413607801, 1};
Point(p11 + 18) = {8.354976189409493, 2.478528536231027, 1};
Point(p11 + 19) = {8.309097466965113, 2.287429904181407, 1};
Point(p11 + 20) = {8.293678, 2.091507, 1};
Point(p11 + 21) = {8.309097466965113, 1.895584095818594, 1};
Point(p11 + 22) = {8.354976189409493, 1.704485463768973, 1};
Point(p11 + 23) = {8.43018448092381, 1.5229165863922, 1};
Point(p11 + 24) = {8.532870463768973, 1.355348292041842, 1};
Point(p11 + 25) = {8.660505668252094, 1.205906668252095, 1};
Point(p11 + 26) = {8.809947292041842, 1.078271463768973, 1};
Point(p11 + 27) = {8.977515586392199, 0.9755854809238109, 1};
Point(p11 + 28) = {9.159084463768973, 0.9003771894094934, 1};
Point(p11 + 29) = {9.350183095818593, 0.8544984669651128, 1};
Point(p11 + 30) = {9.546106, 0.8390789999999999, 1};
Point(p11 + 31) = {9.742028904181407, 0.8544984669651128, 1};
Point(p11 + 32) = {9.933127536231027, 0.9003771894094932, 1};
Point(p11 + 33) = {10.1146964136078, 0.9755854809238107, 1};
Point(p11 + 34) = {10.28226470795816, 1.078271463768973, 1};
Point(p11 + 35) = {10.43170633174791, 1.205906668252094, 1};
Point(p11 + 36) = {10.55934153623103, 1.355348292041842, 1};
Point(p11 + 37) = {10.66202751907619, 1.522916586392199, 1};
Point(p11 + 38) = {10.73723581059051, 1.704485463768973, 1};
Point(p11 + 39) = {10.78311453303489, 1.895584095818593, 1};
Spline(11) = {9, p11 + 1, p11 + 2, p11 + 3, p11 + 4, p11 + 5, p11 + 6, p11 + 7, p11 + 8, p11 + 9, p11 + 10, p11 + 11, p11 + 12, p11 + 13, p11 + 14, p11 + 15, p11 + 16, p11 + 17, p11 + 18, p11 + 19, p11 + 20, p11 + 21, p11 + 22, p11 + 23, p11 + 24, p11 + 25, p11 + 26, p11 + 27, p11 + 28, p11 + 29, p11 + 30, p11 + 31, p11 + 32, p11 + 33, p11 + 34, p11 + 35, p11 + 36, p11 + 37, p11 + 38, p11 + 39, 9};
Line(12) = {4, 10};
Line(13) = {10, 7};
Line(14) = {5, 10};
p15 = newp;
Point(p15 + 1) = {18.05889696492822, -0.8327173574717772, 0};
Point(p15 + 2) = {18.01473334449757, -0.6487626394456083, 0};
Point(p15 + 3) = {17.94233659361369, -0.4739814215900044, 0};
Point(p15 + 4) = {17.84348936055439, -0.3126773975541759, 0};
Point(p15 + 5) = {17.72062559225275, -0.1688224077472488, 0};
Point(p15 + 6) = {17.57677060244582, -0.04595863944560818, 0};
Point(p15 + 7) = {17.41546657840999, 0.0528885936136898, 0};
Point(p15 + 8) = {17.24068536055439, 0.1252853444975677, 0};
Point(p15 + 9) = {17.05673064252822, 0.1694489649282229, 0};
Point(p15 + 10) = {16.868132, 0.1842920000000001, 0};
Point(p15 + 11) = {16.67953335747178, 0.1694489649282229, 0};
Point(p15 + 12) = {16.49557863944561, 0.1252853444975677, 0};
Point(p15 + 13) = {16.32079742159, 0.05288859361369003, 0};
Point(p15 + 14) = {16.15949339755418, -0.04595863944560818, 0};
Point(p15 + 15) = {16.01563840774725, -0.1688224077472487, 0};
Point(p15 + 16) = {15.89277463944561, -0.3126773975541758, 0};
Point(p15 + 17) = {15.79392740638631, -0.4739814215900042, 0};
Point(p15 + 18) = {15.72153065550243, -0.6487626394456082, 0};
Point(p15 + 19) = {15.67736703507178, -0.8327173574717771, 0};
Point(p15 + 20) = {15.662524, -1.021316, 0};
Point(p15 + 21) = {15.67736703507178, -1.209914642528222, 0};
Point(p15 + 22) = {15.72153065550243, -1.393869360554392, 0};
Point(p15 + 23) = {15.79392740638631, -1.568650578409995, 0};
Point(p15 + 24) = {15.89277463944561, -1.729954602445824, 0};
Point(p15 + 25) = {16.01563840774725, -1.873809592252751, 0};
Point(p15 + 26) = {16.15949339755418, -1.996673360554391, 0};
Point(p15 + 27) = {16.32079742159, -2.095520593613689, 0};
Point(p15 + 28) = {16.49557863944561, -2.167917344497567, 0};
Point(p15 + 29) = {16.67953335747178, -2.212080964928223, 0};
Point(p15 + 30) = {16.868132, -2.226924, 0};
Point(p15 + 31) = {17.05673064252822, -2.212080964928223, 0};
Point(p15 + 32) = {17.24068536055439, -2.167917344497567, 0};
Point(p15 + 33) = {17.41546657840999, -2.09552059361369, 0};
Point(p15 + 34) = {17.57677060244582, -1.996673360554392, 0};
Point(p15 + 35) = {17.72062559225275, -1.873809592252751, 0};
Point(p15 + 36) = {17.84348936055439, -1.729954602445824, 0};
Point(p15 + 37) = {17.94233659361369, -1.568650578409996, 0};
Point(p15 + 38) = {18.01473334449757, -1.393869360554392, 0};
Point(p15 + 39) = {18.05889696492822, -1.209914642528223, 0};
Spline(15) = {11, p15 + 1, p15 + 2, p15 + 3, p15 + 4, p15 + 5, p15 + 6, p15 + 7, p15 + 8, p15 + 9, p15 + 10, p15 + 11, p15 + 12, p15 + 13, p15 + 14, p15 + 15, p15 + 16, p15 + 17, p15 + 18, p15 + 19, p15 + 20, p15 + 21, p15 + 22, p15 + 23, p15 + 24, p15 + 25, p15 + 26, p15 + 27, p15 + 28, p15 + 29, p15 + 30, p15 + 31, p15 + 32, p15 + 33, p15 + 34, p15 + 35, p15 + 36, p15 + 37, p15 + 38, p15 + 39, 11};
p16 = newp;
Point(p16 + 1) = {10.78311453303489, 2.287429904181406, 0};
Point(p16 + 2) = {10.73723581059051, 2.478528536231027, 0};
Point(p16 + 3) = {10.66202751907619, 2.660097413607801, 0};
Point(p16 + 4) = {10.55934153623103, 2.827665707958158, 0};
Point(p16 + 5) = {10.43170633174791, 2.977107331747905, 0};
Point(p16 + 6) = {10.28226470795816, 3.104742536231027, 0};
Point(p16 + 7) = {10.1146964136078, 3.207428519076189, 0};
Point(p16 + 8) = {9.933127536231027, 3.282636810590507, 0};
Point(p16 + 9) = {9.742028904181407, 3.328515533034887, 0};
Point(p16 + 10) = {9.546106, 3.343935, 0};
Point(p16 + 11) = {9.350183095818593, 3.328515533034887, 0};
Point(p16 + 12) = {9.159084463768973, 3.282636810590507, 0};
Point(p16 + 13) = {8.977515586392199, 3.207428519076189, 0};
Point(p16 + 14) = {8.809947292041842, 3.104742536231027, 0};
Point(p16 + 15) = {8.660505668252094, 2.977107331747905, 0};
Point(p16 + 16) = {8.532870463768973, 2.827665707958158, 0};
Point(p16 + 17) = {8.430184480923812, 2.660097413607801, 0};
Point(p16 + 18) = {8.354976189409493, 2.478528536231027, 0};
Point(p16 + 19) = {8.309097466965113, 2.287429904181407, 0};
Point(p16 + 20) = {8.293678, 2.091507, 0};
Point(p16 + 21) = {8.309097466965113, 1.895584095818594, 0};
Point(p16 + 22) = {8.354976189409493, 1.704485463768973, 0};
Point(p16 + 23) = {8.43018448092381, 1.5229165863922, 0};
Point(p16 + 24) = {8.532870463768973, 1.355348292041842, 0};
Point(p16 + 25) = {8.660505668252094, 1.205906668252095, 0};
Point(p16 + 26) = {8.809947292041842, 1.078271463768973, 0};
Point(p16 + 27) = {8.977515586392199, 0.9755854809238109, 0};
Point(p16 + 28) = {9.159084463768973, 0.9003771894094934, 0};
Point(p16 + 29) = {9.350183095818593, 0.8544984669651128, 0};
Point(p16 + 30) = {9.546106, 0.8390789999999999, 0};
Point(p16 + 31) = {9.742028904181407, 0.8544984669651128, 0};
Point(p16 + 32) = {9.933127536231027, 0.9003771894094932, 0};
Point(p16 + 33) = {10.1146964136078, 0.9755854809238107, 0};
Point(p16 + 34) = {10.28226470795816, 1.078271463768973, 0};
Point(p16 + 35) = {10.43170633174791, 1.205906668252094, 0};
Point(p16 + 36) = {10.55934153623103, 1.355348292041842, 0};
Point(p16 + 37) = {10.66202751907619, 1.522916586392199, 0};
Point(p16 + 38) = {10.73723581059051, 1.704485463768973, 0};
Point(p16 + 39) = {10.78311453303489, 1.895584095818593, 0};
Spline(16) = {12, p16 + 1, p16 + 2, p16 + 3, p16 + 4, p16 + 5, p16 + 6, p16 + 7, p16 + 8, p16 + 9, p16 + 10, p16 + 11, p16 + 12, p16 + 13, p16 + 14, p16 + 15, p16 + 16, p16 + 17, p16 + 18, p16 + 19, p16 + 20, p16 + 21, p16 + 22, p16 + 23, p16 + 24, p16 + 25, p16 + 26, p16 + 27, p16 + 28, p16 + 29, p16 + 30, p16 + 31, p16 + 32, p16 + 33, p16 + 34, p16 + 35, p16 + 36, p16 + 37, p16 + 38, p16 + 39, 12};
Line(17) = {11, 8};
Line(18) = {12, 9};
Curve Loop(1) = {-1, 4, 3, -2};
Plane Surface(1) = {1};
Curve Loop(2) = {-5, 1, 7, -6};
Plane Surface(2) = {2};
Curve Loop(3) = {-2, 7, 9, -8, -10, -11};
Plane Surface(3) = {3};
Curve Loop(4) = {-12, 3, 8, -13};
Plane Surface(4) = {4};
Curve Loop(5) = {-4, 5, 14, -12, -15, -16};
Plane Surface(5) = {5};
Curve Loop(6) = {-6, 14, 13, -9};
Plane Surface(6) = {6};
Curve Loop(7) = {-10, -17, 15, 17};
Surface(7) = {7};
Curve Loop(8) = {-11, -18, 16, 18};
Surface(8) = {8};
Surface Loop(1) = {1, 2, 3, 4, 5, 6, 7, 8};
Volume(1) = {1};
Physical Surface("INFLOW") = {1};
Physical Surface("OUTFLOW") = {6};
Physical Surface("OBSTACLE") = {7, 8};
Physical Surface("WALL_Y") = {2, 4};
Physical Surface("WALL_Z") = {3, 5};
Physical Volume("FLUID") = {1};
