cl__1 = 1;
cl__2 = 0.13473;
cl__3 = 0.052527;
Point(1) = {0.570638, -4.017679, 1, cl__1};
Point(2) = {0.570638, -4.017679, 0, cl__1};
Point(3) = {0.570638, 5.351992999999999, 1, cl__1};
Point(4) = {0.570638, 5.351992999999999, 0, cl__1};
Point(5) = {34.174779, -4.017679, 0, cl__1};
Point(6) = {34.174779, -4.017679, 1, cl__1};
Point(7) = {34.174779, 5.351992999999999, 1, cl__1};
Point(8) = {30.101595, -2.005785, 1, cl__2};
Point(9) = {28.148909, 0.2129729999999999, 1, cl__3};
Point(10) = {34.174779, 5.351992999999999, 0, cl__1};
Point(11) = {30.101595, -2.005785, 0, cl__2};
Point(12) = {28.148909, 0.2129729999999999, 0, cl__3};
Line(1) = {2, 1};
Line(2) = {1, 3};
Line(3) = {4, 3};
Line(4) = {2, 4};
Line(5) = {2, 5};
Line(6) = {5, 6};
Line(7) = {1, 6};
Line(8) = {3, 7};
Line(9) = {6, 7};
p10 = newp;
Point(p10 + 1) = {30.08500748897217, -1.795020688816832, 1};
Point(p10 + 2) = {30.03565339546098, -1.589446094461639, 1};
Point(p10 + 3) = {29.95474798104551, -1.394123145710409, 1};
Point(p10 + 4) = {29.84428340553836, -1.213861341801099, 1};
Point(p10 + 5) = {29.70697967339942, -1.053099326600583, 1};
Point(p10 + 6) = {29.5462176581989, -0.9157955944616387, 1};
Point(p10 + 7) = {29.36595585428959, -0.8053310189544878, 1};
Point(p10 + 8) = {29.17063290553836, -0.7244256045390232, 1};
Point(p10 + 9) = {28.96505831118317, -0.67507151102783, 1};
Point(p10 + 10) = {28.754294, -0.6584839999999998, 1};
Point(p10 + 11) = {28.54352968881683, -0.6750715110278303, 1};
Point(p10 + 12) = {28.33795509446164, -0.7244256045390232, 1};
Point(p10 + 13) = {28.14263214571041, -0.8053310189544876, 1};
Point(p10 + 14) = {27.9623703418011, -0.9157955944616387, 1};
Point(p10 + 15) = {27.80160832660059, -1.053099326600583, 1};
Point(p10 + 16) = {27.66430459446164, -1.213861341801098, 1};
Point(p10 + 17) = {27.55384001895449, -1.394123145710409, 1};
Point(p10 + 18) = {27.47293460453902, -1.589446094461639, 1};
Point(p10 + 19) = {27.42358051102783, -1.795020688816832, 1};
Point(p10 + 20) = {27.406993, -2.005785, 1};
Point(p10 + 21) = {27.42358051102783, -2.216549311183168, 1};
Point(p10 + 22) = {27.47293460453902, -2.422123905538361, 1};
Point(p10 + 23) = {27.55384001895449, -2.61744685428959, 1};
Point(p10 + 24) = {27.66430459446164, -2.797708658198901, 1};
Point(p10 + 25) = {27.80160832660059, -2.958470673399416, 1};
Point(p10 + 26) = {27.9623703418011, -3.095774405538361, 1};
Point(p10 + 27) = {28.14263214571041, -3.206238981045512, 1};
Point(p10 + 28) = {28.33795509446164, -3.287144395460976, 1};
Point(p10 + 29) = {28.54352968881683, -3.33649848897217, 1};
Point(p10 + 30) = {28.754294, -3.353086, 1};
Point(p10 + 31) = {28.96505831118317, -3.33649848897217, 1};
Point(p10 + 32) = {29.17063290553836, -3.287144395460976, 1};
Point(p10 + 33) = {29.36595585428959, -3.206238981045512, 1};
Point(p10 + 34) = {29.5462176581989, -3.095774405538361, 1};
Point(p10 + 35) = {29.70697967339942, -2.958470673399417, 1};
Point(p10 + 36) = {29.84428340553836, -2.797708658198902, 1};
Point(p10 + 37) = {29.95474798104551, -2.617446854289591, 1};
Point(p10 + 38) = {30.03565339546098, -2.422123905538361, 1};
Point(p10 + 39) = {30.08500748897217, -2.216549311183168, 1};
Spline(10) = {8, p10 + 1, p10 + 2, p10 + 3, p10 + 4, p10 + 5, p10 + 6, p10 + 7, p10 + 8, p10 + 9, p10 + 10, p10 + 11, p10 + 12, p10 + 13, p10 + 14, p10 + 15, p10 + 16, p10 + 17, p10 + 18, p10 + 19, p10 + 20, p10 + 21, p10 + 22, p10 + 23, p10 + 24, p10 + 25, p10 + 26, p10 + 27, p10 + 28, p10 + 29, p10 + 30, p10 + 31, p10 + 32, p10 + 33, p10 + 34, p10 + 35, p10 + 36, p10 + 37, p10 + 38, p10 + 39, 8};
p11 = newp;
Point(p11 + 1) = {28.14244203004109, 0.2951436443206121, 1};
Point(p11 + 2) = {28.12320035842739, 0.3752909746693174, 1};
Point(p11 + 3) = {28.09165777897347, 0.4514414977791912, 1};
Point(p11 + 4) = {28.04859097466932, 0.521720135042172, 1};
Point(p11 + 5) = {27.99506039316742, 0.5843963931674201, 1};
Point(p11 + 6) = {27.93238413504217, 0.6379269746693174, 1};
Point(p11 + 7) = {27.86210549777919, 0.6809937789734722, 1};
Point(p11 + 8) = {27.78595497466932, 0.7125363584273878, 1};
Point(p11 + 9) = {27.70580764432061, 0.7317780300410891, 1};
Point(p11 + 10) = {27.623637, 0.7382449999999999, 1};
Point(p11 + 11) = {27.54146635567939, 0.7317780300410891, 1};
Point(p11 + 12) = {27.46131902533068, 0.7125363584273879, 1};
Point(p11 + 13) = {27.38516850222081, 0.6809937789734724, 1};
Point(p11 + 14) = {27.31488986495783, 0.6379269746693174, 1};
Point(p11 + 15) = {27.25221360683258, 0.5843963931674202, 1};
Point(p11 + 16) = {27.19868302533068, 0.521720135042172, 1};
Point(p11 + 17) = {27.15561622102653, 0.4514414977791912, 1};
Point(p11 + 18) = {27.12407364157261, 0.3752909746693174, 1};
Point(p11 + 19) = {27.10483196995891, 0.2951436443206122, 1};
Point(p11 + 20) = {27.098365, 0.2129730000000001, 1};
Point(p11 + 21) = {27.10483196995891, 0.1308023556793879, 1};
Point(p11 + 22) = {27.12407364157261, 0.05065502533068247, 1};
Point(p11 + 23) = {27.15561622102653, -0.02549549777919091, 1};
Point(p11 + 24) = {27.19868302533068, -0.09577413504217189, 1};
Point(p11 + 25) = {27.25221360683258, -0.1584503931674201, 1};
Point(p11 + 26) = {27.31488986495783, -0.2119809746693173, 1};
Point(p11 + 27) = {27.38516850222081, -0.2550477789734723, 1};
Point(p11 + 28) = {27.46131902533068, -0.2865903584273879, 1};
Point(p11 + 29) = {27.54146635567939, -0.3058320300410892, 1};
Point(p11 + 30) = {27.623637, -0.312299, 1};
Point(p11 + 31) = {27.70580764432061, -0.3058320300410892, 1};
Point(p11 + 32) = {27.78595497466932, -0.2865903584273879, 1};
Point(p11 + 33) = {27.86210549777919, -0.2550477789734723, 1};
Point(p11 + 34) = {27.93238413504217, -0.2119809746693175, 1};
Point(p11 + 35) = {27.99506039316742, -0.1584503931674202, 1};
Point(p11 + 36) = {28.04859097466932, -0.09577413504217205, 1};
Point(p11 + 37) = {28.09165777897347, -0.0254954977791913, 1};
Point(p11 + 38) = {28.12320035842739, 0.05065502533068253, 1};
Point(p11 + 39) = {28.14244203004109, 0.1308023556793877, 1};
Spline(11) = {9, p11 + 1, p11 + 2, p11 + 3, p11 + 4, p11 + 5, p11 + 6, p11 + 7, p11 + 8, p11 + 9, p11 + 10, p11 + 11, p11 + 12, p11 + 13, p11 + 14, p11 + 15, p11 + 16, p11 + 17, p11 + 18, p11 + 19, p11 + 20, p11 + 21, p11 + 22, p11 + 23, p11 + 24, p11 + 25, p11 + 26, p11 + 27, p11 + 28, p11 + 29, p11 + 30, p11 + 31, p11 + 32, p11 + 33, p11 + 34, p11 + 35, p11 + 36, p11 + 37, p11 + 38, p11 + 39, 9};
Line(12) = {4, 10};
Line(13) = {10, 7};
Line(14) = {5, 10};
p15 = newp;
Point(p15 + 1) = {30.08500748897217, -1.795020688816832, 0};
Point(p15 + 2) = {30.03565339546098, -1.589446094461639, 0};
Point(p15 + 3) = {29.95474798104551, -1.394123145710409, 0};
Point(p15 + 4) = {29.84428340553836, -1.213861341801099, 0};
Point(p15 + 5) = {29.70697967339942, -1.053099326600583, 0};
Point(p15 + 6) = {29.5462176581989, -0.9157955944616387, 0};
Point(p15 + 7) = {29.36595585428959, -0.8053310189544878, 0};
Point(p15 + 8) = {29.17063290553836, -0.7244256045390232, 0};
Point(p15 + 9) = {28.96505831118317, -0.67507151102783, 0};
Point(p15 + 10) = {28.754294, -0.6584839999999998, 0};
Point(p15 + 11) = {28.54352968881683, -0.6750715110278303, 0};
Point(p15 + 12) = {28.33795509446164, -0.7244256045390232, 0};
Point(p15 + 13) = {28.14263214571041, -0.8053310189544876, 0};
Point(p15 + 14) = {27.9623703418011, -0.9157955944616387, 0};
Point(p15 + 15) = {27.80160832660059, -1.053099326600583, 0};
Point(p15 + 16) = {27.66430459446164, -1.213861341801098, 0};
Point(p15 + 17) = {27.55384001895449, -1.394123145710409, 0};
Point(p15 + 18) = {27.47293460453902, -1.589446094461639, 0};
Point(p15 + 19) = {27.42358051102783, -1.795020688816832, 0};
Point(p15 + 20) = {27.406993, -2.005785, 0};
Point(p15 + 21) = {27.42358051102783, -2.216549311183168, 0};
Point(p15 + 22) = {27.47293460453902, -2.422123905538361, 0};
Point(p15 + 23) = {27.55384001895449, -2.61744685428959, 0};
Point(p15 + 24) = {27.66430459446164, -2.797708658198901, 0};
Point(p15 + 25) = {27.80160832660059, -2.958470673399416, 0};
Point(p15 + 26) = {27.9623703418011, -3.095774405538361, 0};
Point(p15 + 27) = {28.14263214571041, -3.206238981045512, 0};
Point(p15 + 28) = {28.33795509446164, -3.287144395460976, 0};
Point(p15 + 29) = {28.54352968881683, -3.33649848897217, 0};
Point(p15 + 30) = {28.754294, -3.353086, 0};
Point(p15 + 31) = {28.96505831118317, -3.33649848897217, 0};
Point(p15 + 32) = {29.17063290553836, -3.287144395460976, 0};
Point(p15 + 33) = {29.36595585428959, -3.206238981045512, 0};
Point(p15 + 34) = {29.5462176581989, -3.095774405538361, 0};
Point(p15 + 35) = {29.70697967339942, -2.958470673399417, 0};
Point(p15 + 36) = {29.84428340553836, -2.797708658198902, 0};
Point(p15 + 37) = {29.95474798104551, -2.617446854289591, 0};
Point(p15 + 38) = {30.03565339546098, -2.422123905538361, 0};
Point(p15 + 39) = {30.08500748897217, -2.216549311183168, 0};
Spline(15) = {11, p15 + 1, p15 + 2, p15 + 3, p15 + 4, p15 + 5, p15 + 6, p15 + 7, p15 + 8, p15 + 9, p15 + 10, p15 + 11, p15 + 12, p15 + 13, p15 + 14, p15 + 15, p15 + 16, p15 + 17, p15 + 18, p15 + 19, p15 + 20, p15 + 21, p15 + 22, p15 + 23, p15 + 24, p15 + 25, p15 + 26, p15 + 27, p15 + 28, p15 + 29, p15 + 30, p15 + 31, p15 + 32, p15 + 33, p15 + 34, p15 + 35, p15 + 36, p15 + 37, p15 + 38, p15 + 39, 11};
p16 = newp;
Point(p16 + 1) = {28.14244203004109, 0.2951436443206121, 0};
Point(p16 + 2) = {28.12320035842739, 0.3752909746693174, 0};
Point(p16 + 3) = {28.09165777897347, 0.4514414977791912, 0};
Point(p16 + 4) = {28.04859097466932, 0.521720135042172, 0};
Point(p16 + 5) = {27.99506039316742, 0.5843963931674201, 0};
Point(p16 + 6) = {27.93238413504217, 0.6379269746693174, 0};
Point(p16 + 7) = {27.86210549777919, 0.6809937789734722, 0};
Point(p16 + 8) = {27.78595497466932, 0.7125363584273878, 0};
Point(p16 + 9) = {27.70580764432061, 0.7317780300410891, 0};
Point(p16 + 10) = {27.623637, 0.7382449999999999, 0};
Point(p16 + 11) = {27.54146635567939, 0.7317780300410891, 0};
Point(p16 + 12) = {27.46131902533068, 0.7125363584273879, 0};
Point(p16 + 13) = {27.38516850222081, 0.6809937789734724, 0};
Point(p16 + 14) = {27.31488986495783, 0.6379269746693174, 0};
Point(p16 + 15) = {27.25221360683258, 0.5843963931674202, 0};
Point(p16 + 16) = {27.19868302533068, 0.521720135042172, 0};
Point(p16 + 17) = {27.15561622102653, 0.4514414977791912, 0};
Point(p16 + 18) = {27.12407364157261, 0.3752909746693174, 0};
Point(p16 + 19) = {27.10483196995891, 0.2951436443206122, 0};
Point(p16 + 20) = {27.098365, 0.2129730000000001, 0};
Point(p16 + 21) = {27.10483196995891, 0.1308023556793879, 0};
Point(p16 + 22) = {27.12407364157261, 0.05065502533068247, 0};
Point(p16 + 23) = {27.15561622102653, -0.02549549777919091, 0};
Point(p16 + 24) = {27.19868302533068, -0.09577413504217189, 0};
Point(p16 + 25) = {27.25221360683258, -0.1584503931674201, 0};
Point(p16 + 26) = {27.31488986495783, -0.2119809746693173, 0};
Point(p16 + 27) = {27.38516850222081, -0.2550477789734723, 0};
Point(p16 + 28) = {27.46131902533068, -0.2865903584273879, 0};
Point(p16 + 29) = {27.54146635567939, -0.3058320300410892, 0};
Point(p16 + 30) = {27.623637, -0.312299, 0};
Point(p16 + 31) = {27.70580764432061, -0.3058320300410892, 0};
Point(p16 + 32) = {27.78595497466932, -0.2865903584273879, 0};
Point(p16 + 33) = {27.86210549777919, -0.2550477789734723, 0};
Point(p16 + 34) = {27.93238413504217, -0.2119809746693175, 0};
Point(p16 + 35) = {27.99506039316742, -0.1584503931674202, 0};
Point(p16 + 36) = {28.04859097466932, -0.09577413504217205, 0};
Point(p16 + 37) = {28.09165777897347, -0.0254954977791913, 0};
Point(p16 + 38) = {28.12320035842739, 0.05065502533068253, 0};
Point(p16 + 39) = {28.14244203004109, 0.1308023556793877, 0};
Spline(16) = {12, p16 + 1, p16 + 2, p16 + 3, p16 + 4, p16 + 5, p16 + 6, p16 + 7, p16 + 8, p16 + 9, p16 + 10, p16 + 11, p16 + 12, p16 + 13, p16 + 14, p16 + 15, p16 + 16, p16 + 17, p16 + 18, p16 + 19, p16 + 20, p16 + 21, p16 + 22, p16 + 23, p16 + 24, p16 + 25, p16 + 26, p16 + 27, p16 + 28, p16 + 29, p16 + 30, p16 + 31, p16 + 32, p16 + 33, p16 + 34, p16 + 35, p16 + 36, p16 + 37, p16 + 38, p16 + 39, 12};
Line(17) = {11, 8};
Line(18) = {12, 9};
Curve Loop(1) = {-1, 4, 3, -2};
Plane Surface(1) = {1};
Curve Loop(2) = {-5, 1, 7, -6};
Plane Surface(2) = {2};
Curve Loop(3) = {-2, 7, 9, -8, -10, -11};
Plane Surface(3) = {3};
Curve Loop(4) = {-12, 3, 8, -13};
Plane Surface(4) = {4};
Curve Loop(5) = {-4, 5, 14, -12, -15, -16};
Plane Surface(5) = {5};
Curve Loop(6) = {-6, 14, 13, -9};
Plane Surface(6) = {6};
Curve Loop(7) = {-10, -17, 15, 17};
Surface(7) = {7};
Curve Loop(8) = {-11, -18, 16, 18};
Surface(8) = {8};
Surface Loop(1) = {1, 2, 3, 4, 5, 6, 7, 8};
Volume(1) = {1};
Physical Surface("INFLOW") = {1};
Physical Surface("OUTFLOW") = {6};
Physical Surface("OBSTACLE") = {7, 8};
Physical Surface("WALL_Y") = {2, 4};
Physical Surface("WALL_Z") = {3, 5};
Physical Volume("FLUID") = {1};
