cl__1 = 0.489246;
cl__2 = 0.393951;
cl__3 = 3.477702;
cl__4 = 0.056176;
Point(1) = {0.873135, -4.547837, 1, cl__1};
Point(2) = {0.873135, -4.547837, 0, cl__1};
Point(3) = {0.873135, 4.711578, 1, cl__2};
Point(4) = {0.873135, 4.711578, 0, cl__2};
Point(5) = {34.46747999999999, -4.547837, 0, cl__3};
Point(6) = {34.46747999999999, -4.547837, 1, cl__3};
Point(7) = {34.46747999999999, 4.711578, 1, cl__3};
Point(8) = {3.253762, 0.5941649999999999, 1, cl__4};
Point(9) = {34.46747999999999, 4.711578, 0, cl__3};
Point(10) = {3.253762, 0.5941649999999999, 0, cl__4};
Line(1) = {2, 1};
Line(2) = {1, 3};
Line(3) = {4, 3};
Line(4) = {2, 4};
Line(5) = {2, 5};
Line(6) = {5, 6};
Line(7) = {1, 6};
Line(8) = {3, 7};
Line(9) = {6, 7};
p10 = newp;
Point(p10 + 1) = {3.246845826836043, 0.68204331221207, 1};
Point(p10 + 2) = {3.226267606480933, 0.7677577687260817, 1};
Point(p10 + 3) = {3.192534043015009, 0.8491977951526883, 1};
Point(p10 + 4) = {3.146475768726082, 0.9243580677573151, 1};
Point(p10 + 5) = {3.089226891185792, 0.9913878911857925, 1};
Point(p10 + 6) = {3.022197067757315, 1.048636768726082, 1};
Point(p10 + 7) = {2.947036795152688, 1.094695043015009, 1};
Point(p10 + 8) = {2.865596768726081, 1.128428606480933, 1};
Point(p10 + 9) = {2.77988231221207, 1.149006826836043, 1};
Point(p10 + 10) = {2.692004, 1.155923, 1};
Point(p10 + 11) = {2.60412568778793, 1.149006826836043, 1};
Point(p10 + 12) = {2.518411231273918, 1.128428606480933, 1};
Point(p10 + 13) = {2.436971204847311, 1.094695043015009, 1};
Point(p10 + 14) = {2.361810932242685, 1.048636768726082, 1};
Point(p10 + 15) = {2.294781108814207, 0.9913878911857926, 1};
Point(p10 + 16) = {2.237532231273918, 0.9243580677573152, 1};
Point(p10 + 17) = {2.191473956984991, 0.8491977951526883, 1};
Point(p10 + 18) = {2.157740393519067, 0.7677577687260818, 1};
Point(p10 + 19) = {2.137162173163957, 0.6820433122120702, 1};
Point(p10 + 20) = {2.130246, 0.5941650000000002, 1};
Point(p10 + 21) = {2.137162173163957, 0.5062866877879302, 1};
Point(p10 + 22) = {2.157740393519067, 0.4205722312739182, 1};
Point(p10 + 23) = {2.191473956984991, 0.339132204847312, 1};
Point(p10 + 24) = {2.237532231273918, 0.263971932242685, 1};
Point(p10 + 25) = {2.294781108814207, 0.1969421088142075, 1};
Point(p10 + 26) = {2.361810932242685, 0.1396932312739184, 1};
Point(p10 + 27) = {2.436971204847311, 0.09363495698499091, 1};
Point(p10 + 28) = {2.518411231273918, 0.0599013935190672, 1};
Point(p10 + 29) = {2.60412568778793, 0.03932317316395673, 1};
Point(p10 + 30) = {2.692004, 0.03240700000000007, 1};
Point(p10 + 31) = {2.77988231221207, 0.03932317316395673, 1};
Point(p10 + 32) = {2.865596768726081, 0.0599013935190672, 1};
Point(p10 + 33) = {2.947036795152688, 0.09363495698499091, 1};
Point(p10 + 34) = {3.022197067757315, 0.1396932312739183, 1};
Point(p10 + 35) = {3.089226891185792, 0.1969421088142074, 1};
Point(p10 + 36) = {3.146475768726082, 0.2639719322426848, 1};
Point(p10 + 37) = {3.192534043015009, 0.3391322048473117, 1};
Point(p10 + 38) = {3.226267606480933, 0.4205722312739182, 1};
Point(p10 + 39) = {3.246845826836043, 0.50628668778793, 1};
Spline(10) = {8, p10 + 1, p10 + 2, p10 + 3, p10 + 4, p10 + 5, p10 + 6, p10 + 7, p10 + 8, p10 + 9, p10 + 10, p10 + 11, p10 + 12, p10 + 13, p10 + 14, p10 + 15, p10 + 16, p10 + 17, p10 + 18, p10 + 19, p10 + 20, p10 + 21, p10 + 22, p10 + 23, p10 + 24, p10 + 25, p10 + 26, p10 + 27, p10 + 28, p10 + 29, p10 + 30, p10 + 31, p10 + 32, p10 + 33, p10 + 34, p10 + 35, p10 + 36, p10 + 37, p10 + 38, p10 + 39, 8};
Line(11) = {4, 9};
Line(12) = {9, 7};
Line(13) = {5, 9};
p14 = newp;
Point(p14 + 1) = {3.246845826836043, 0.68204331221207, 0};
Point(p14 + 2) = {3.226267606480933, 0.7677577687260817, 0};
Point(p14 + 3) = {3.192534043015009, 0.8491977951526883, 0};
Point(p14 + 4) = {3.146475768726082, 0.9243580677573151, 0};
Point(p14 + 5) = {3.089226891185792, 0.9913878911857925, 0};
Point(p14 + 6) = {3.022197067757315, 1.048636768726082, 0};
Point(p14 + 7) = {2.947036795152688, 1.094695043015009, 0};
Point(p14 + 8) = {2.865596768726081, 1.128428606480933, 0};
Point(p14 + 9) = {2.77988231221207, 1.149006826836043, 0};
Point(p14 + 10) = {2.692004, 1.155923, 0};
Point(p14 + 11) = {2.60412568778793, 1.149006826836043, 0};
Point(p14 + 12) = {2.518411231273918, 1.128428606480933, 0};
Point(p14 + 13) = {2.436971204847311, 1.094695043015009, 0};
Point(p14 + 14) = {2.361810932242685, 1.048636768726082, 0};
Point(p14 + 15) = {2.294781108814207, 0.9913878911857926, 0};
Point(p14 + 16) = {2.237532231273918, 0.9243580677573152, 0};
Point(p14 + 17) = {2.191473956984991, 0.8491977951526883, 0};
Point(p14 + 18) = {2.157740393519067, 0.7677577687260818, 0};
Point(p14 + 19) = {2.137162173163957, 0.6820433122120702, 0};
Point(p14 + 20) = {2.130246, 0.5941650000000002, 0};
Point(p14 + 21) = {2.137162173163957, 0.5062866877879302, 0};
Point(p14 + 22) = {2.157740393519067, 0.4205722312739182, 0};
Point(p14 + 23) = {2.191473956984991, 0.339132204847312, 0};
Point(p14 + 24) = {2.237532231273918, 0.263971932242685, 0};
Point(p14 + 25) = {2.294781108814207, 0.1969421088142075, 0};
Point(p14 + 26) = {2.361810932242685, 0.1396932312739184, 0};
Point(p14 + 27) = {2.436971204847311, 0.09363495698499091, 0};
Point(p14 + 28) = {2.518411231273918, 0.0599013935190672, 0};
Point(p14 + 29) = {2.60412568778793, 0.03932317316395673, 0};
Point(p14 + 30) = {2.692004, 0.03240700000000007, 0};
Point(p14 + 31) = {2.77988231221207, 0.03932317316395673, 0};
Point(p14 + 32) = {2.865596768726081, 0.0599013935190672, 0};
Point(p14 + 33) = {2.947036795152688, 0.09363495698499091, 0};
Point(p14 + 34) = {3.022197067757315, 0.1396932312739183, 0};
Point(p14 + 35) = {3.089226891185792, 0.1969421088142074, 0};
Point(p14 + 36) = {3.146475768726082, 0.2639719322426848, 0};
Point(p14 + 37) = {3.192534043015009, 0.3391322048473117, 0};
Point(p14 + 38) = {3.226267606480933, 0.4205722312739182, 0};
Point(p14 + 39) = {3.246845826836043, 0.50628668778793, 0};
Spline(14) = {10, p14 + 1, p14 + 2, p14 + 3, p14 + 4, p14 + 5, p14 + 6, p14 + 7, p14 + 8, p14 + 9, p14 + 10, p14 + 11, p14 + 12, p14 + 13, p14 + 14, p14 + 15, p14 + 16, p14 + 17, p14 + 18, p14 + 19, p14 + 20, p14 + 21, p14 + 22, p14 + 23, p14 + 24, p14 + 25, p14 + 26, p14 + 27, p14 + 28, p14 + 29, p14 + 30, p14 + 31, p14 + 32, p14 + 33, p14 + 34, p14 + 35, p14 + 36, p14 + 37, p14 + 38, p14 + 39, 10};
Line(15) = {10, 8};
Curve Loop(1) = {-1, 4, 3, -2};
Plane Surface(1) = {1};
Curve Loop(2) = {-5, 1, 7, -6};
Plane Surface(2) = {2};
Curve Loop(3) = {-2, 7, 9, -8, -10};
Plane Surface(3) = {3};
Curve Loop(4) = {-11, 3, 8, -12};
Plane Surface(4) = {4};
Curve Loop(5) = {-4, 5, 13, -11, -14};
Plane Surface(5) = {5};
Curve Loop(6) = {-6, 13, 12, -9};
Plane Surface(6) = {6};
Curve Loop(7) = {-10, -15, 14, 15};
Surface(7) = {7};
Surface Loop(1) = {1, 2, 3, 4, 5, 6, 7};
Volume(1) = {1};
Physical Surface("INFLOW") = {1};
Physical Surface("OUTFLOW") = {6};
Physical Surface("OBSTACLE") = {7};
Physical Surface("WALL_Y") = {2, 4};
Physical Surface("WALL_Z") = {3, 5};
Physical Volume("FLUID") = {1};
