cl__1 = 1.683448;
cl__2 = 1.695956;
cl__3 = 0.47065;
cl__4 = 0.563164;
cl__5 = 0.148439;
cl__6 = 0.100248;
Point(1) = {0.663424, -3.813015, 1, cl__1};
Point(2) = {0.663424, -3.813015, 0, cl__1};
Point(3) = {0.663424, 5.04067, 1, cl__2};
Point(4) = {0.663424, 5.04067, 0, cl__2};
Point(5) = {37.642442, -3.813015, 0, cl__3};
Point(6) = {37.642442, -3.813015, 1, cl__3};
Point(7) = {37.642442, 5.04067, 1, cl__4};
Point(8) = {34.186976, -0.08140700000000035, 1, cl__5};
Point(9) = {19.007611, 0.3609469999999997, 1, cl__6};
Point(10) = {37.642442, 5.04067, 0, cl__4};
Point(11) = {34.186976, -0.08140700000000035, 0, cl__5};
Point(12) = {19.007611, 0.3609469999999997, 0, cl__6};
Line(1) = {2, 1};
Line(2) = {1, 3};
Line(3) = {4, 3};
Line(4) = {2, 4};
Line(5) = {2, 5};
Line(6) = {5, 6};
Line(7) = {1, 6};
Line(8) = {3, 7};
Line(9) = {6, 7};
p10 = newp;
Point(p10 + 1) = {34.16870063433772, 0.1508035377333935, 1};
Point(p10 + 2) = {34.11432453750594, 0.3772962813652, 1};
Point(p10 + 3) = {34.02518662947259, 0.5924942278608845, 1};
Point(p10 + 4) = {33.9034817813652, 0.7910984895766856, 1};
Point(p10 + 5) = {33.75220677045941, 0.968218770459405, 1};
Point(p10 + 6) = {33.57508648957669, 1.1194937813652, 1};
Point(p10 + 7) = {33.37648222786088, 1.241198629472592, 1};
Point(p10 + 8) = {33.16128428136521, 1.330336537505944, 1};
Point(p10 + 9) = {32.9347915377334, 1.384712634337719, 1};
Point(p10 + 10) = {32.702581, 1.402988, 1};
Point(p10 + 11) = {32.47037046226661, 1.384712634337719, 1};
Point(p10 + 12) = {32.2438777186348, 1.330336537505945, 1};
Point(p10 + 13) = {32.02867977213912, 1.241198629472592, 1};
Point(p10 + 14) = {31.83007551042332, 1.1194937813652, 1};
Point(p10 + 15) = {31.6529552295406, 0.9682187704594052, 1};
Point(p10 + 16) = {31.5016802186348, 0.7910984895766857, 1};
Point(p10 + 17) = {31.37997537052741, 0.5924942278608846, 1};
Point(p10 + 18) = {31.29083746249406, 0.3772962813652002, 1};
Point(p10 + 19) = {31.23646136566228, 0.1508035377333937, 1};
Point(p10 + 20) = {31.218186, -0.08140699999999981, 1};
Point(p10 + 21) = {31.23646136566228, -0.3136175377333933, 1};
Point(p10 + 22) = {31.29083746249406, -0.5401102813652005, 1};
Point(p10 + 23) = {31.37997537052741, -0.7553082278608837, 1};
Point(p10 + 24) = {31.5016802186348, -0.9539124895766854, 1};
Point(p10 + 25) = {31.65295522954059, -1.131032770459405, 1};
Point(p10 + 26) = {31.83007551042332, -1.2823077813652, 1};
Point(p10 + 27) = {32.02867977213911, -1.404012629472592, 1};
Point(p10 + 28) = {32.2438777186348, -1.493150537505944, 1};
Point(p10 + 29) = {32.47037046226661, -1.547526634337719, 1};
Point(p10 + 30) = {32.702581, -1.565802, 1};
Point(p10 + 31) = {32.9347915377334, -1.547526634337719, 1};
Point(p10 + 32) = {33.16128428136521, -1.493150537505945, 1};
Point(p10 + 33) = {33.37648222786088, -1.404012629472592, 1};
Point(p10 + 34) = {33.57508648957669, -1.2823077813652, 1};
Point(p10 + 35) = {33.75220677045941, -1.131032770459405, 1};
Point(p10 + 36) = {33.9034817813652, -0.953912489576686, 1};
Point(p10 + 37) = {34.02518662947259, -0.7553082278608848, 1};
Point(p10 + 38) = {34.11432453750594, -0.5401102813652003, 1};
Point(p10 + 39) = {34.16870063433772, -0.3136175377333938, 1};
Spline(10) = {8, p10 + 1, p10 + 2, p10 + 3, p10 + 4, p10 + 5, p10 + 6, p10 + 7, p10 + 8, p10 + 9, p10 + 10, p10 + 11, p10 + 12, p10 + 13, p10 + 14, p10 + 15, p10 + 16, p10 + 17, p10 + 18, p10 + 19, p10 + 20, p10 + 21, p10 + 22, p10 + 23, p10 + 24, p10 + 25, p10 + 26, p10 + 27, p10 + 28, p10 + 29, p10 + 30, p10 + 31, p10 + 32, p10 + 33, p10 + 34, p10 + 35, p10 + 36, p10 + 37, p10 + 38, p10 + 39, 8};
p11 = newp;
Point(p11 + 1) = {18.99526886923811, 0.5177686403412054, 1};
Point(p11 + 2) = {18.95854638117298, 0.6707288114360255, 1};
Point(p11 + 3) = {18.89834776533574, 0.8160611262264021, 1};
Point(p11 + 4) = {18.81615531143603, 0.950187020791897, 1};
Point(p11 + 5) = {18.71399287046998, 1.069803870469984, 1};
Point(p11 + 6) = {18.5943760207919, 1.171966311436025, 1};
Point(p11 + 7) = {18.4602501262264, 1.254158765335734, 1};
Point(p11 + 8) = {18.31491781143603, 1.314357381172984, 1};
Point(p11 + 9) = {18.16195764034121, 1.351079869238111, 1};
Point(p11 + 10) = {18.005136, 1.363422, 1};
Point(p11 + 11) = {17.84831435965879, 1.351079869238111, 1};
Point(p11 + 12) = {17.69535418856398, 1.314357381172984, 1};
Point(p11 + 13) = {17.5500218737736, 1.254158765335734, 1};
Point(p11 + 14) = {17.4158959792081, 1.171966311436025, 1};
Point(p11 + 15) = {17.29627912953002, 1.069803870469984, 1};
Point(p11 + 16) = {17.19411668856397, 0.9501870207918971, 1};
Point(p11 + 17) = {17.11192423466427, 0.8160611262264023, 1};
Point(p11 + 18) = {17.05172561882702, 0.6707288114360255, 1};
Point(p11 + 19) = {17.01500313076189, 0.5177686403412056, 1};
Point(p11 + 20) = {17.002661, 0.3609470000000001, 1};
Point(p11 + 21) = {17.01500313076189, 0.2041253596587947, 1};
Point(p11 + 22) = {17.05172561882702, 0.05116518856397428, 1};
Point(p11 + 23) = {17.11192423466427, -0.09416712622640161, 1};
Point(p11 + 24) = {17.19411668856397, -0.2282930207918968, 1};
Point(p11 + 25) = {17.29627912953002, -0.3479098704699841, 1};
Point(p11 + 26) = {17.4158959792081, -0.4500723114360253, 1};
Point(p11 + 27) = {17.5500218737736, -0.532264765335734, 1};
Point(p11 + 28) = {17.69535418856398, -0.592463381172984, 1};
Point(p11 + 29) = {17.84831435965879, -0.6291858692381106, 1};
Point(p11 + 30) = {18.005136, -0.641528, 1};
Point(p11 + 31) = {18.16195764034121, -0.6291858692381107, 1};
Point(p11 + 32) = {18.31491781143603, -0.5924633811729841, 1};
Point(p11 + 33) = {18.4602501262264, -0.5322647653357341, 1};
Point(p11 + 34) = {18.5943760207919, -0.4500723114360256, 1};
Point(p11 + 35) = {18.71399287046998, -0.3479098704699843, 1};
Point(p11 + 36) = {18.81615531143603, -0.2282930207918972, 1};
Point(p11 + 37) = {18.89834776533574, -0.09416712622640233, 1};
Point(p11 + 38) = {18.95854638117298, 0.0511651885639744, 1};
Point(p11 + 39) = {18.99526886923811, 0.2041253596587944, 1};
Spline(11) = {9, p11 + 1, p11 + 2, p11 + 3, p11 + 4, p11 + 5, p11 + 6, p11 + 7, p11 + 8, p11 + 9, p11 + 10, p11 + 11, p11 + 12, p11 + 13, p11 + 14, p11 + 15, p11 + 16, p11 + 17, p11 + 18, p11 + 19, p11 + 20, p11 + 21, p11 + 22, p11 + 23, p11 + 24, p11 + 25, p11 + 26, p11 + 27, p11 + 28, p11 + 29, p11 + 30, p11 + 31, p11 + 32, p11 + 33, p11 + 34, p11 + 35, p11 + 36, p11 + 37, p11 + 38, p11 + 39, 9};
Line(12) = {4, 10};
Line(13) = {10, 7};
Line(14) = {5, 10};
p15 = newp;
Point(p15 + 1) = {34.16870063433772, 0.1508035377333935, 0};
Point(p15 + 2) = {34.11432453750594, 0.3772962813652, 0};
Point(p15 + 3) = {34.02518662947259, 0.5924942278608845, 0};
Point(p15 + 4) = {33.9034817813652, 0.7910984895766856, 0};
Point(p15 + 5) = {33.75220677045941, 0.968218770459405, 0};
Point(p15 + 6) = {33.57508648957669, 1.1194937813652, 0};
Point(p15 + 7) = {33.37648222786088, 1.241198629472592, 0};
Point(p15 + 8) = {33.16128428136521, 1.330336537505944, 0};
Point(p15 + 9) = {32.9347915377334, 1.384712634337719, 0};
Point(p15 + 10) = {32.702581, 1.402988, 0};
Point(p15 + 11) = {32.47037046226661, 1.384712634337719, 0};
Point(p15 + 12) = {32.2438777186348, 1.330336537505945, 0};
Point(p15 + 13) = {32.02867977213912, 1.241198629472592, 0};
Point(p15 + 14) = {31.83007551042332, 1.1194937813652, 0};
Point(p15 + 15) = {31.6529552295406, 0.9682187704594052, 0};
Point(p15 + 16) = {31.5016802186348, 0.7910984895766857, 0};
Point(p15 + 17) = {31.37997537052741, 0.5924942278608846, 0};
Point(p15 + 18) = {31.29083746249406, 0.3772962813652002, 0};
Point(p15 + 19) = {31.23646136566228, 0.1508035377333937, 0};
Point(p15 + 20) = {31.218186, -0.08140699999999981, 0};
Point(p15 + 21) = {31.23646136566228, -0.3136175377333933, 0};
Point(p15 + 22) = {31.29083746249406, -0.5401102813652005, 0};
Point(p15 + 23) = {31.37997537052741, -0.7553082278608837, 0};
Point(p15 + 24) = {31.5016802186348, -0.9539124895766854, 0};
Point(p15 + 25) = {31.65295522954059, -1.131032770459405, 0};
Point(p15 + 26) = {31.83007551042332, -1.2823077813652, 0};
Point(p15 + 27) = {32.02867977213911, -1.404012629472592, 0};
Point(p15 + 28) = {32.2438777186348, -1.493150537505944, 0};
Point(p15 + 29) = {32.47037046226661, -1.547526634337719, 0};
Point(p15 + 30) = {32.702581, -1.565802, 0};
Point(p15 + 31) = {32.9347915377334, -1.547526634337719, 0};
Point(p15 + 32) = {33.16128428136521, -1.493150537505945, 0};
Point(p15 + 33) = {33.37648222786088, -1.404012629472592, 0};
Point(p15 + 34) = {33.57508648957669, -1.2823077813652, 0};
Point(p15 + 35) = {33.75220677045941, -1.131032770459405, 0};
Point(p15 + 36) = {33.9034817813652, -0.953912489576686, 0};
Point(p15 + 37) = {34.02518662947259, -0.7553082278608848, 0};
Point(p15 + 38) = {34.11432453750594, -0.5401102813652003, 0};
Point(p15 + 39) = {34.16870063433772, -0.3136175377333938, 0};
Spline(15) = {11, p15 + 1, p15 + 2, p15 + 3, p15 + 4, p15 + 5, p15 + 6, p15 + 7, p15 + 8, p15 + 9, p15 + 10, p15 + 11, p15 + 12, p15 + 13, p15 + 14, p15 + 15, p15 + 16, p15 + 17, p15 + 18, p15 + 19, p15 + 20, p15 + 21, p15 + 22, p15 + 23, p15 + 24, p15 + 25, p15 + 26, p15 + 27, p15 + 28, p15 + 29, p15 + 30, p15 + 31, p15 + 32, p15 + 33, p15 + 34, p15 + 35, p15 + 36, p15 + 37, p15 + 38, p15 + 39, 11};
p16 = newp;
Point(p16 + 1) = {18.99526886923811, 0.5177686403412054, 0};
Point(p16 + 2) = {18.95854638117298, 0.6707288114360255, 0};
Point(p16 + 3) = {18.89834776533574, 0.8160611262264021, 0};
Point(p16 + 4) = {18.81615531143603, 0.950187020791897, 0};
Point(p16 + 5) = {18.71399287046998, 1.069803870469984, 0};
Point(p16 + 6) = {18.5943760207919, 1.171966311436025, 0};
Point(p16 + 7) = {18.4602501262264, 1.254158765335734, 0};
Point(p16 + 8) = {18.31491781143603, 1.314357381172984, 0};
Point(p16 + 9) = {18.16195764034121, 1.351079869238111, 0};
Point(p16 + 10) = {18.005136, 1.363422, 0};
Point(p16 + 11) = {17.84831435965879, 1.351079869238111, 0};
Point(p16 + 12) = {17.69535418856398, 1.314357381172984, 0};
Point(p16 + 13) = {17.5500218737736, 1.254158765335734, 0};
Point(p16 + 14) = {17.4158959792081, 1.171966311436025, 0};
Point(p16 + 15) = {17.29627912953002, 1.069803870469984, 0};
Point(p16 + 16) = {17.19411668856397, 0.9501870207918971, 0};
Point(p16 + 17) = {17.11192423466427, 0.8160611262264023, 0};
Point(p16 + 18) = {17.05172561882702, 0.6707288114360255, 0};
Point(p16 + 19) = {17.01500313076189, 0.5177686403412056, 0};
Point(p16 + 20) = {17.002661, 0.3609470000000001, 0};
Point(p16 + 21) = {17.01500313076189, 0.2041253596587947, 0};
Point(p16 + 22) = {17.05172561882702, 0.05116518856397428, 0};
Point(p16 + 23) = {17.11192423466427, -0.09416712622640161, 0};
Point(p16 + 24) = {17.19411668856397, -0.2282930207918968, 0};
Point(p16 + 25) = {17.29627912953002, -0.3479098704699841, 0};
Point(p16 + 26) = {17.4158959792081, -0.4500723114360253, 0};
Point(p16 + 27) = {17.5500218737736, -0.532264765335734, 0};
Point(p16 + 28) = {17.69535418856398, -0.592463381172984, 0};
Point(p16 + 29) = {17.84831435965879, -0.6291858692381106, 0};
Point(p16 + 30) = {18.005136, -0.641528, 0};
Point(p16 + 31) = {18.16195764034121, -0.6291858692381107, 0};
Point(p16 + 32) = {18.31491781143603, -0.5924633811729841, 0};
Point(p16 + 33) = {18.4602501262264, -0.5322647653357341, 0};
Point(p16 + 34) = {18.5943760207919, -0.4500723114360256, 0};
Point(p16 + 35) = {18.71399287046998, -0.3479098704699843, 0};
Point(p16 + 36) = {18.81615531143603, -0.2282930207918972, 0};
Point(p16 + 37) = {18.89834776533574, -0.09416712622640233, 0};
Point(p16 + 38) = {18.95854638117298, 0.0511651885639744, 0};
Point(p16 + 39) = {18.99526886923811, 0.2041253596587944, 0};
Spline(16) = {12, p16 + 1, p16 + 2, p16 + 3, p16 + 4, p16 + 5, p16 + 6, p16 + 7, p16 + 8, p16 + 9, p16 + 10, p16 + 11, p16 + 12, p16 + 13, p16 + 14, p16 + 15, p16 + 16, p16 + 17, p16 + 18, p16 + 19, p16 + 20, p16 + 21, p16 + 22, p16 + 23, p16 + 24, p16 + 25, p16 + 26, p16 + 27, p16 + 28, p16 + 29, p16 + 30, p16 + 31, p16 + 32, p16 + 33, p16 + 34, p16 + 35, p16 + 36, p16 + 37, p16 + 38, p16 + 39, 12};
Line(17) = {11, 8};
Line(18) = {12, 9};
Curve Loop(1) = {-1, 4, 3, -2};
Plane Surface(1) = {1};
Curve Loop(2) = {-5, 1, 7, -6};
Plane Surface(2) = {2};
Curve Loop(3) = {-2, 7, 9, -8, -10, -11};
Plane Surface(3) = {3};
Curve Loop(4) = {-12, 3, 8, -13};
Plane Surface(4) = {4};
Curve Loop(5) = {-4, 5, 14, -12, -15, -16};
Plane Surface(5) = {5};
Curve Loop(6) = {-6, 14, 13, -9};
Plane Surface(6) = {6};
Curve Loop(7) = {-10, -17, 15, 17};
Surface(7) = {7};
Curve Loop(8) = {-11, -18, 16, 18};
Surface(8) = {8};
Surface Loop(1) = {1, 2, 3, 4, 5, 6, 7, 8};
Volume(1) = {1};
Physical Surface("INFLOW") = {1};
Physical Surface("OUTFLOW") = {6};
Physical Surface("OBSTACLE") = {7, 8};
Physical Surface("WALL_Y") = {2, 4};
Physical Surface("WALL_Z") = {3, 5};
Physical Volume("FLUID") = {1};
