cl__1 = 0.981587;
cl__2 = 0.749598;
cl__3 = 3.246145;
cl__4 = 0.07184500000000001;
cl__5 = 0.149663;
Point(1) = {0.537036, -3.924747, 1, cl__1};
Point(2) = {0.537036, -3.924747, 0, cl__1};
Point(3) = {0.537036, 4.108638000000001, 1, cl__2};
Point(4) = {0.537036, 4.108638000000001, 0, cl__2};
Point(5) = {32.211981, -3.924747, 0, cl__1};
Point(6) = {32.211981, -3.924747, 1, cl__1};
Point(7) = {32.211981, 4.108638000000001, 1, cl__3};
Point(8) = {11.40907, -1.118265, 1, cl__4};
Point(9) = {25.741162, 0.2450089999999996, 1, cl__5};
Point(10) = {32.211981, 4.108638000000001, 0, cl__3};
Point(11) = {11.40907, -1.118265, 0, cl__4};
Point(12) = {25.741162, 0.2450089999999996, 0, cl__5};
Line(1) = {2, 1};
Line(2) = {1, 3};
Line(3) = {4, 3};
Line(4) = {2, 4};
Line(5) = {2, 5};
Line(6) = {5, 6};
Line(7) = {1, 6};
Line(8) = {3, 7};
Line(9) = {6, 7};
p10 = newp;
Point(p10 + 1) = {11.40022474985888, -1.005875440764171, 1};
Point(p10 + 2) = {11.37390679884967, -0.896253285476291, 1};
Point(p10 + 3) = {11.33076418227051, -0.7920977954146213, 1};
Point(p10 + 4) = {11.27185921452371, -0.6959736244167343, 1};
Point(p10 + 5) = {11.19864233140957, -0.610247668590431, 1};
Point(p10 + 6) = {11.11291637558327, -0.5370307854762909, 1};
Point(p10 + 7) = {11.01679220458538, -0.4781258177294881, 1};
Point(p10 + 8) = {10.91263671452371, -0.4349832011503285, 1};
Point(p10 + 9) = {10.80301455923583, -0.4086652501411263, 1};
Point(p10 + 10) = {10.690625, -0.3998200000000001, 1};
Point(p10 + 11) = {10.57823544076417, -0.4086652501411264, 1};
Point(p10 + 12) = {10.46861328547629, -0.4349832011503284, 1};
Point(p10 + 13) = {10.36445779541462, -0.478125817729488, 1};
Point(p10 + 14) = {10.26833362441674, -0.5370307854762909, 1};
Point(p10 + 15) = {10.18260766859043, -0.6102476685904309, 1};
Point(p10 + 16) = {10.10939078547629, -0.695973624416734, 1};
Point(p10 + 17) = {10.05048581772949, -0.7920977954146213, 1};
Point(p10 + 18) = {10.00734320115033, -0.8962532854762909, 1};
Point(p10 + 19) = {9.981025250141126, -1.005875440764171, 1};
Point(p10 + 20) = {9.972180000000002, -1.118265, 1};
Point(p10 + 21) = {9.981025250141126, -1.230654559235829, 1};
Point(p10 + 22) = {10.00734320115033, -1.340276714523709, 1};
Point(p10 + 23) = {10.05048581772949, -1.444432204585378, 1};
Point(p10 + 24) = {10.10939078547629, -1.540556375583266, 1};
Point(p10 + 25) = {10.18260766859043, -1.626282331409569, 1};
Point(p10 + 26) = {10.26833362441674, -1.699499214523709, 1};
Point(p10 + 27) = {10.36445779541462, -1.758404182270512, 1};
Point(p10 + 28) = {10.46861328547629, -1.801546798849672, 1};
Point(p10 + 29) = {10.57823544076417, -1.827864749858874, 1};
Point(p10 + 30) = {10.690625, -1.83671, 1};
Point(p10 + 31) = {10.80301455923583, -1.827864749858874, 1};
Point(p10 + 32) = {10.91263671452371, -1.801546798849672, 1};
Point(p10 + 33) = {11.01679220458538, -1.758404182270512, 1};
Point(p10 + 34) = {11.11291637558327, -1.699499214523709, 1};
Point(p10 + 35) = {11.19864233140957, -1.626282331409569, 1};
Point(p10 + 36) = {11.27185921452371, -1.540556375583266, 1};
Point(p10 + 37) = {11.33076418227051, -1.444432204585379, 1};
Point(p10 + 38) = {11.37390679884967, -1.340276714523709, 1};
Point(p10 + 39) = {11.40022474985888, -1.230654559235829, 1};
Spline(10) = {8, p10 + 1, p10 + 2, p10 + 3, p10 + 4, p10 + 5, p10 + 6, p10 + 7, p10 + 8, p10 + 9, p10 + 10, p10 + 11, p10 + 12, p10 + 13, p10 + 14, p10 + 15, p10 + 16, p10 + 17, p10 + 18, p10 + 19, p10 + 20, p10 + 21, p10 + 22, p10 + 23, p10 + 24, p10 + 25, p10 + 26, p10 + 27, p10 + 28, p10 + 29, p10 + 30, p10 + 31, p10 + 32, p10 + 33, p10 + 34, p10 + 35, p10 + 36, p10 + 37, p10 + 38, p10 + 39, 8};
p11 = newp;
Point(p11 + 1) = {25.72273598887324, 0.4791336698476258, 1};
Point(p11 + 2) = {25.66791166503933, 0.7074934133083719, 1};
Point(p11 + 3) = {25.57803898530256, 0.9244652556156976, 1};
Point(p11 + 4) = {25.45533091330837, 1.124706629923736, 1};
Point(p11 + 5) = {25.302808929034, 1.303286929034004, 1};
Point(p11 + 6) = {25.12422862992373, 1.455808913308372, 1};
Point(p11 + 7) = {24.9239872556157, 1.578516985302561, 1};
Point(p11 + 8) = {24.70701541330837, 1.668389665039332, 1};
Point(p11 + 9) = {24.47865566984763, 1.723213988873242, 1};
Point(p11 + 10) = {24.244531, 1.74164, 1};
Point(p11 + 11) = {24.01040633015237, 1.723213988873242, 1};
Point(p11 + 12) = {23.78204658669163, 1.668389665039332, 1};
Point(p11 + 13) = {23.5650747443843, 1.578516985302561, 1};
Point(p11 + 14) = {23.36483337007626, 1.455808913308372, 1};
Point(p11 + 15) = {23.186253070966, 1.303286929034004, 1};
Point(p11 + 16) = {23.03373108669163, 1.124706629923736, 1};
Point(p11 + 17) = {22.91102301469744, 0.9244652556156978, 1};
Point(p11 + 18) = {22.82115033496067, 0.7074934133083721, 1};
Point(p11 + 19) = {22.76632601112676, 0.479133669847626, 1};
Point(p11 + 20) = {22.7479, 0.2450090000000002, 1};
Point(p11 + 21) = {22.76632601112676, 0.01088433015237444, 1};
Point(p11 + 22) = {22.82115033496067, -0.2174754133083724, 1};
Point(p11 + 23) = {22.91102301469744, -0.4344472556156969, 1};
Point(p11 + 24) = {23.03373108669163, -0.6346886299237362, 1};
Point(p11 + 25) = {23.18625307096599, -0.8132689290340036, 1};
Point(p11 + 26) = {23.36483337007626, -0.9657909133083717, 1};
Point(p11 + 27) = {23.5650747443843, -1.088498985302561, 1};
Point(p11 + 28) = {23.78204658669163, -1.178371665039332, 1};
Point(p11 + 29) = {24.01040633015237, -1.233195988873242, 1};
Point(p11 + 30) = {24.244531, -1.251622, 1};
Point(p11 + 31) = {24.47865566984762, -1.233195988873242, 1};
Point(p11 + 32) = {24.70701541330837, -1.178371665039332, 1};
Point(p11 + 33) = {24.9239872556157, -1.088498985302561, 1};
Point(p11 + 34) = {25.12422862992373, -0.9657909133083722, 1};
Point(p11 + 35) = {25.302808929034, -0.8132689290340041, 1};
Point(p11 + 36) = {25.45533091330837, -0.6346886299237366, 1};
Point(p11 + 37) = {25.57803898530256, -0.4344472556156979, 1};
Point(p11 + 38) = {25.66791166503933, -0.2174754133083723, 1};
Point(p11 + 39) = {25.72273598887324, 0.01088433015237389, 1};
Spline(11) = {9, p11 + 1, p11 + 2, p11 + 3, p11 + 4, p11 + 5, p11 + 6, p11 + 7, p11 + 8, p11 + 9, p11 + 10, p11 + 11, p11 + 12, p11 + 13, p11 + 14, p11 + 15, p11 + 16, p11 + 17, p11 + 18, p11 + 19, p11 + 20, p11 + 21, p11 + 22, p11 + 23, p11 + 24, p11 + 25, p11 + 26, p11 + 27, p11 + 28, p11 + 29, p11 + 30, p11 + 31, p11 + 32, p11 + 33, p11 + 34, p11 + 35, p11 + 36, p11 + 37, p11 + 38, p11 + 39, 9};
Line(12) = {4, 10};
Line(13) = {10, 7};
Line(14) = {5, 10};
p15 = newp;
Point(p15 + 1) = {11.40022474985888, -1.005875440764171, 0};
Point(p15 + 2) = {11.37390679884967, -0.896253285476291, 0};
Point(p15 + 3) = {11.33076418227051, -0.7920977954146213, 0};
Point(p15 + 4) = {11.27185921452371, -0.6959736244167343, 0};
Point(p15 + 5) = {11.19864233140957, -0.610247668590431, 0};
Point(p15 + 6) = {11.11291637558327, -0.5370307854762909, 0};
Point(p15 + 7) = {11.01679220458538, -0.4781258177294881, 0};
Point(p15 + 8) = {10.91263671452371, -0.4349832011503285, 0};
Point(p15 + 9) = {10.80301455923583, -0.4086652501411263, 0};
Point(p15 + 10) = {10.690625, -0.3998200000000001, 0};
Point(p15 + 11) = {10.57823544076417, -0.4086652501411264, 0};
Point(p15 + 12) = {10.46861328547629, -0.4349832011503284, 0};
Point(p15 + 13) = {10.36445779541462, -0.478125817729488, 0};
Point(p15 + 14) = {10.26833362441674, -0.5370307854762909, 0};
Point(p15 + 15) = {10.18260766859043, -0.6102476685904309, 0};
Point(p15 + 16) = {10.10939078547629, -0.695973624416734, 0};
Point(p15 + 17) = {10.05048581772949, -0.7920977954146213, 0};
Point(p15 + 18) = {10.00734320115033, -0.8962532854762909, 0};
Point(p15 + 19) = {9.981025250141126, -1.005875440764171, 0};
Point(p15 + 20) = {9.972180000000002, -1.118265, 0};
Point(p15 + 21) = {9.981025250141126, -1.230654559235829, 0};
Point(p15 + 22) = {10.00734320115033, -1.340276714523709, 0};
Point(p15 + 23) = {10.05048581772949, -1.444432204585378, 0};
Point(p15 + 24) = {10.10939078547629, -1.540556375583266, 0};
Point(p15 + 25) = {10.18260766859043, -1.626282331409569, 0};
Point(p15 + 26) = {10.26833362441674, -1.699499214523709, 0};
Point(p15 + 27) = {10.36445779541462, -1.758404182270512, 0};
Point(p15 + 28) = {10.46861328547629, -1.801546798849672, 0};
Point(p15 + 29) = {10.57823544076417, -1.827864749858874, 0};
Point(p15 + 30) = {10.690625, -1.83671, 0};
Point(p15 + 31) = {10.80301455923583, -1.827864749858874, 0};
Point(p15 + 32) = {10.91263671452371, -1.801546798849672, 0};
Point(p15 + 33) = {11.01679220458538, -1.758404182270512, 0};
Point(p15 + 34) = {11.11291637558327, -1.699499214523709, 0};
Point(p15 + 35) = {11.19864233140957, -1.626282331409569, 0};
Point(p15 + 36) = {11.27185921452371, -1.540556375583266, 0};
Point(p15 + 37) = {11.33076418227051, -1.444432204585379, 0};
Point(p15 + 38) = {11.37390679884967, -1.340276714523709, 0};
Point(p15 + 39) = {11.40022474985888, -1.230654559235829, 0};
Spline(15) = {11, p15 + 1, p15 + 2, p15 + 3, p15 + 4, p15 + 5, p15 + 6, p15 + 7, p15 + 8, p15 + 9, p15 + 10, p15 + 11, p15 + 12, p15 + 13, p15 + 14, p15 + 15, p15 + 16, p15 + 17, p15 + 18, p15 + 19, p15 + 20, p15 + 21, p15 + 22, p15 + 23, p15 + 24, p15 + 25, p15 + 26, p15 + 27, p15 + 28, p15 + 29, p15 + 30, p15 + 31, p15 + 32, p15 + 33, p15 + 34, p15 + 35, p15 + 36, p15 + 37, p15 + 38, p15 + 39, 11};
p16 = newp;
Point(p16 + 1) = {25.72273598887324, 0.4791336698476258, 0};
Point(p16 + 2) = {25.66791166503933, 0.7074934133083719, 0};
Point(p16 + 3) = {25.57803898530256, 0.9244652556156976, 0};
Point(p16 + 4) = {25.45533091330837, 1.124706629923736, 0};
Point(p16 + 5) = {25.302808929034, 1.303286929034004, 0};
Point(p16 + 6) = {25.12422862992373, 1.455808913308372, 0};
Point(p16 + 7) = {24.9239872556157, 1.578516985302561, 0};
Point(p16 + 8) = {24.70701541330837, 1.668389665039332, 0};
Point(p16 + 9) = {24.47865566984763, 1.723213988873242, 0};
Point(p16 + 10) = {24.244531, 1.74164, 0};
Point(p16 + 11) = {24.01040633015237, 1.723213988873242, 0};
Point(p16 + 12) = {23.78204658669163, 1.668389665039332, 0};
Point(p16 + 13) = {23.5650747443843, 1.578516985302561, 0};
Point(p16 + 14) = {23.36483337007626, 1.455808913308372, 0};
Point(p16 + 15) = {23.186253070966, 1.303286929034004, 0};
Point(p16 + 16) = {23.03373108669163, 1.124706629923736, 0};
Point(p16 + 17) = {22.91102301469744, 0.9244652556156978, 0};
Point(p16 + 18) = {22.82115033496067, 0.7074934133083721, 0};
Point(p16 + 19) = {22.76632601112676, 0.479133669847626, 0};
Point(p16 + 20) = {22.7479, 0.2450090000000002, 0};
Point(p16 + 21) = {22.76632601112676, 0.01088433015237444, 0};
Point(p16 + 22) = {22.82115033496067, -0.2174754133083724, 0};
Point(p16 + 23) = {22.91102301469744, -0.4344472556156969, 0};
Point(p16 + 24) = {23.03373108669163, -0.6346886299237362, 0};
Point(p16 + 25) = {23.18625307096599, -0.8132689290340036, 0};
Point(p16 + 26) = {23.36483337007626, -0.9657909133083717, 0};
Point(p16 + 27) = {23.5650747443843, -1.088498985302561, 0};
Point(p16 + 28) = {23.78204658669163, -1.178371665039332, 0};
Point(p16 + 29) = {24.01040633015237, -1.233195988873242, 0};
Point(p16 + 30) = {24.244531, -1.251622, 0};
Point(p16 + 31) = {24.47865566984762, -1.233195988873242, 0};
Point(p16 + 32) = {24.70701541330837, -1.178371665039332, 0};
Point(p16 + 33) = {24.9239872556157, -1.088498985302561, 0};
Point(p16 + 34) = {25.12422862992373, -0.9657909133083722, 0};
Point(p16 + 35) = {25.302808929034, -0.8132689290340041, 0};
Point(p16 + 36) = {25.45533091330837, -0.6346886299237366, 0};
Point(p16 + 37) = {25.57803898530256, -0.4344472556156979, 0};
Point(p16 + 38) = {25.66791166503933, -0.2174754133083723, 0};
Point(p16 + 39) = {25.72273598887324, 0.01088433015237389, 0};
Spline(16) = {12, p16 + 1, p16 + 2, p16 + 3, p16 + 4, p16 + 5, p16 + 6, p16 + 7, p16 + 8, p16 + 9, p16 + 10, p16 + 11, p16 + 12, p16 + 13, p16 + 14, p16 + 15, p16 + 16, p16 + 17, p16 + 18, p16 + 19, p16 + 20, p16 + 21, p16 + 22, p16 + 23, p16 + 24, p16 + 25, p16 + 26, p16 + 27, p16 + 28, p16 + 29, p16 + 30, p16 + 31, p16 + 32, p16 + 33, p16 + 34, p16 + 35, p16 + 36, p16 + 37, p16 + 38, p16 + 39, 12};
Line(17) = {11, 8};
Line(18) = {12, 9};
Curve Loop(1) = {-1, 4, 3, -2};
Plane Surface(1) = {1};
Curve Loop(2) = {-5, 1, 7, -6};
Plane Surface(2) = {2};
Curve Loop(3) = {-2, 7, 9, -8, -10, -11};
Plane Surface(3) = {3};
Curve Loop(4) = {-12, 3, 8, -13};
Plane Surface(4) = {4};
Curve Loop(5) = {-4, 5, 14, -12, -15, -16};
Plane Surface(5) = {5};
Curve Loop(6) = {-6, 14, 13, -9};
Plane Surface(6) = {6};
Curve Loop(7) = {-10, -17, 15, 17};
Surface(7) = {7};
Curve Loop(8) = {-11, -18, 16, 18};
Surface(8) = {8};
Surface Loop(1) = {1, 2, 3, 4, 5, 6, 7, 8};
Volume(1) = {1};
Physical Surface("INFLOW") = {1};
Physical Surface("OUTFLOW") = {6};
Physical Surface("OBSTACLE") = {7, 8};
Physical Surface("WALL_Y") = {2, 4};
Physical Surface("WALL_Z") = {3, 5};
Physical Volume("FLUID") = {1};
