cl__1 = 3.581161;
cl__2 = 0.909529;
cl__3 = 1.010835;
cl__4 = 0.075919;
Point(1) = {0.5047779999999999, -4.040941, 1, cl__1};
Point(2) = {0.5047779999999999, -4.040941, 0, cl__1};
Point(3) = {0.5047779999999999, 5.702078999999999, 1, cl__1};
Point(4) = {0.5047779999999999, 5.702078999999999, 0, cl__1};
Point(5) = {35.47871900000001, -4.040941, 0, cl__2};
Point(6) = {35.47871900000001, -4.040941, 1, cl__2};
Point(7) = {35.47871900000001, 5.702078999999999, 1, cl__3};
Point(8) = {27.143135, -0.2467470000000002, 1, cl__4};
Point(9) = {35.47871900000001, 5.702078999999999, 0, cl__3};
Point(10) = {27.143135, -0.2467470000000002, 0, cl__4};
Line(1) = {2, 1};
Line(2) = {1, 3};
Line(3) = {4, 3};
Line(4) = {2, 4};
Line(5) = {2, 5};
Line(6) = {5, 6};
Line(7) = {1, 6};
Line(8) = {3, 7};
Line(9) = {6, 7};
p10 = newp;
Point(p10 + 1) = {27.1337880866731, -0.127983205617177, 1};
Point(p10 + 2) = {27.10597749871915, -0.01214377000649494, 1};
Point(p10 + 3) = {27.06038802511161, 0.09791895547826596, 1};
Point(p10 + 4) = {26.9981422299935, 0.1994948612584272, 1};
Point(p10 + 5) = {26.92077281142258, 0.2900828114225774, 1};
Point(p10 + 6) = {26.83018486125843, 0.3674522299935051, 1};
Point(p10 + 7) = {26.72860895547826, 0.4296980251116153, 1};
Point(p10 + 8) = {26.61854622999351, 0.4752874987191502, 1};
Point(p10 + 9) = {26.50270679438282, 0.5030980866731039, 1};
Point(p10 + 10) = {26.383943, 0.512445, 1};
Point(p10 + 11) = {26.26517920561718, 0.5030980866731036, 1};
Point(p10 + 12) = {26.14933977000649, 0.4752874987191503, 1};
Point(p10 + 13) = {26.03927704452173, 0.4296980251116154, 1};
Point(p10 + 14) = {25.93770113874157, 0.3674522299935051, 1};
Point(p10 + 15) = {25.84711318857742, 0.2900828114225775, 1};
Point(p10 + 16) = {25.76974377000649, 0.1994948612584274, 1};
Point(p10 + 17) = {25.70749797488838, 0.09791895547826607, 1};
Point(p10 + 18) = {25.66190850128085, -0.01214377000649486, 1};
Point(p10 + 19) = {25.63409791332689, -0.127983205617177, 1};
Point(p10 + 20) = {25.624751, -0.2467469999999999, 1};
Point(p10 + 21) = {25.63409791332689, -0.3655107943828229, 1};
Point(p10 + 22) = {25.66190850128085, -0.4813502299935053, 1};
Point(p10 + 23) = {25.70749797488838, -0.5914129554782656, 1};
Point(p10 + 24) = {25.76974377000649, -0.6929888612584272, 1};
Point(p10 + 25) = {25.84711318857742, -0.7835768114225774, 1};
Point(p10 + 26) = {25.93770113874157, -0.8609462299935049, 1};
Point(p10 + 27) = {26.03927704452173, -0.9231920251116152, 1};
Point(p10 + 28) = {26.14933977000649, -0.9687814987191501, 1};
Point(p10 + 29) = {26.26517920561718, -0.9965920866731037, 1};
Point(p10 + 30) = {26.383943, -1.005939, 1};
Point(p10 + 31) = {26.50270679438282, -0.9965920866731037, 1};
Point(p10 + 32) = {26.6185462299935, -0.9687814987191503, 1};
Point(p10 + 33) = {26.72860895547826, -0.9231920251116155, 1};
Point(p10 + 34) = {26.83018486125843, -0.8609462299935051, 1};
Point(p10 + 35) = {26.92077281142258, -0.7835768114225774, 1};
Point(p10 + 36) = {26.9981422299935, -0.6929888612584274, 1};
Point(p10 + 37) = {27.06038802511161, -0.5914129554782661, 1};
Point(p10 + 38) = {27.10597749871915, -0.4813502299935052, 1};
Point(p10 + 39) = {27.1337880866731, -0.3655107943828231, 1};
Spline(10) = {8, p10 + 1, p10 + 2, p10 + 3, p10 + 4, p10 + 5, p10 + 6, p10 + 7, p10 + 8, p10 + 9, p10 + 10, p10 + 11, p10 + 12, p10 + 13, p10 + 14, p10 + 15, p10 + 16, p10 + 17, p10 + 18, p10 + 19, p10 + 20, p10 + 21, p10 + 22, p10 + 23, p10 + 24, p10 + 25, p10 + 26, p10 + 27, p10 + 28, p10 + 29, p10 + 30, p10 + 31, p10 + 32, p10 + 33, p10 + 34, p10 + 35, p10 + 36, p10 + 37, p10 + 38, p10 + 39, 8};
Line(11) = {4, 9};
Line(12) = {9, 7};
Line(13) = {5, 9};
p14 = newp;
Point(p14 + 1) = {27.1337880866731, -0.127983205617177, 0};
Point(p14 + 2) = {27.10597749871915, -0.01214377000649494, 0};
Point(p14 + 3) = {27.06038802511161, 0.09791895547826596, 0};
Point(p14 + 4) = {26.9981422299935, 0.1994948612584272, 0};
Point(p14 + 5) = {26.92077281142258, 0.2900828114225774, 0};
Point(p14 + 6) = {26.83018486125843, 0.3674522299935051, 0};
Point(p14 + 7) = {26.72860895547826, 0.4296980251116153, 0};
Point(p14 + 8) = {26.61854622999351, 0.4752874987191502, 0};
Point(p14 + 9) = {26.50270679438282, 0.5030980866731039, 0};
Point(p14 + 10) = {26.383943, 0.512445, 0};
Point(p14 + 11) = {26.26517920561718, 0.5030980866731036, 0};
Point(p14 + 12) = {26.14933977000649, 0.4752874987191503, 0};
Point(p14 + 13) = {26.03927704452173, 0.4296980251116154, 0};
Point(p14 + 14) = {25.93770113874157, 0.3674522299935051, 0};
Point(p14 + 15) = {25.84711318857742, 0.2900828114225775, 0};
Point(p14 + 16) = {25.76974377000649, 0.1994948612584274, 0};
Point(p14 + 17) = {25.70749797488838, 0.09791895547826607, 0};
Point(p14 + 18) = {25.66190850128085, -0.01214377000649486, 0};
Point(p14 + 19) = {25.63409791332689, -0.127983205617177, 0};
Point(p14 + 20) = {25.624751, -0.2467469999999999, 0};
Point(p14 + 21) = {25.63409791332689, -0.3655107943828229, 0};
Point(p14 + 22) = {25.66190850128085, -0.4813502299935053, 0};
Point(p14 + 23) = {25.70749797488838, -0.5914129554782656, 0};
Point(p14 + 24) = {25.76974377000649, -0.6929888612584272, 0};
Point(p14 + 25) = {25.84711318857742, -0.7835768114225774, 0};
Point(p14 + 26) = {25.93770113874157, -0.8609462299935049, 0};
Point(p14 + 27) = {26.03927704452173, -0.9231920251116152, 0};
Point(p14 + 28) = {26.14933977000649, -0.9687814987191501, 0};
Point(p14 + 29) = {26.26517920561718, -0.9965920866731037, 0};
Point(p14 + 30) = {26.383943, -1.005939, 0};
Point(p14 + 31) = {26.50270679438282, -0.9965920866731037, 0};
Point(p14 + 32) = {26.6185462299935, -0.9687814987191503, 0};
Point(p14 + 33) = {26.72860895547826, -0.9231920251116155, 0};
Point(p14 + 34) = {26.83018486125843, -0.8609462299935051, 0};
Point(p14 + 35) = {26.92077281142258, -0.7835768114225774, 0};
Point(p14 + 36) = {26.9981422299935, -0.6929888612584274, 0};
Point(p14 + 37) = {27.06038802511161, -0.5914129554782661, 0};
Point(p14 + 38) = {27.10597749871915, -0.4813502299935052, 0};
Point(p14 + 39) = {27.1337880866731, -0.3655107943828231, 0};
Spline(14) = {10, p14 + 1, p14 + 2, p14 + 3, p14 + 4, p14 + 5, p14 + 6, p14 + 7, p14 + 8, p14 + 9, p14 + 10, p14 + 11, p14 + 12, p14 + 13, p14 + 14, p14 + 15, p14 + 16, p14 + 17, p14 + 18, p14 + 19, p14 + 20, p14 + 21, p14 + 22, p14 + 23, p14 + 24, p14 + 25, p14 + 26, p14 + 27, p14 + 28, p14 + 29, p14 + 30, p14 + 31, p14 + 32, p14 + 33, p14 + 34, p14 + 35, p14 + 36, p14 + 37, p14 + 38, p14 + 39, 10};
Line(15) = {10, 8};
Curve Loop(1) = {-1, 4, 3, -2};
Plane Surface(1) = {1};
Curve Loop(2) = {-5, 1, 7, -6};
Plane Surface(2) = {2};
Curve Loop(3) = {-2, 7, 9, -8, -10};
Plane Surface(3) = {3};
Curve Loop(4) = {-11, 3, 8, -12};
Plane Surface(4) = {4};
Curve Loop(5) = {-4, 5, 13, -11, -14};
Plane Surface(5) = {5};
Curve Loop(6) = {-6, 13, 12, -9};
Plane Surface(6) = {6};
Curve Loop(7) = {-10, -15, 14, 15};
Surface(7) = {7};
Surface Loop(1) = {1, 2, 3, 4, 5, 6, 7};
Volume(1) = {1};
Physical Surface("INFLOW") = {1};
Physical Surface("OUTFLOW") = {6};
Physical Surface("OBSTACLE") = {7};
Physical Surface("WALL_Y") = {2, 4};
Physical Surface("WALL_Z") = {3, 5};
Physical Volume("FLUID") = {1};
