cl__1 = 0.6823630000000001;
cl__2 = 0.123471;
cl__3 = 3.073853;
cl__4 = 0.053173;
Point(1) = {0.745804, -3.60235, 1, cl__1};
Point(2) = {0.745804, -3.60235, 0, cl__1};
Point(3) = {0.745804, 4.758972, 1, cl__2};
Point(4) = {0.745804, 4.758972, 0, cl__2};
Point(5) = {30.452898, -3.60235, 0, cl__3};
Point(6) = {30.452898, -3.60235, 1, cl__3};
Point(7) = {30.452898, 4.758972, 1, cl__3};
Point(8) = {2.633568, 3.626937, 1, cl__4};
Point(9) = {30.452898, 4.758972, 0, cl__3};
Point(10) = {2.633568, 3.626937, 0, cl__4};
Line(1) = {2, 1};
Line(2) = {1, 3};
Line(3) = {4, 3};
Line(4) = {2, 4};
Line(5) = {2, 5};
Line(6) = {5, 6};
Line(7) = {1, 6};
Line(8) = {3, 7};
Line(9) = {6, 7};
p10 = newp;
Point(p10 + 1) = {2.627021459786356, 3.710118680268167, 1};
Point(p10 + 2) = {2.607543036692204, 3.791252151503962, 1};
Point(p10 + 3) = {2.575612354139302, 3.868339638379008, 1};
Point(p10 + 4) = {2.532015651503963, 3.939482991127738, 1};
Point(p10 + 5) = {2.477826424294229, 4.002930424294228, 1};
Point(p10 + 6) = {2.414378991127738, 4.057119651503963, 1};
Point(p10 + 7) = {2.343235638379008, 4.100716354139301, 1};
Point(p10 + 8) = {2.266148151503963, 4.132647036692203, 1};
Point(p10 + 9) = {2.185014680268167, 4.152125459786355, 1};
Point(p10 + 10) = {2.101833, 4.158672, 1};
Point(p10 + 11) = {2.018651319731833, 4.152125459786355, 1};
Point(p10 + 12) = {1.937517848496037, 4.132647036692203, 1};
Point(p10 + 13) = {1.860430361620992, 4.100716354139301, 1};
Point(p10 + 14) = {1.789287008872262, 4.057119651503963, 1};
Point(p10 + 15) = {1.725839575705771, 4.002930424294228, 1};
Point(p10 + 16) = {1.671650348496037, 3.939482991127738, 1};
Point(p10 + 17) = {1.628053645860698, 3.868339638379008, 1};
Point(p10 + 18) = {1.596122963307797, 3.791252151503962, 1};
Point(p10 + 19) = {1.576644540213644, 3.710118680268167, 1};
Point(p10 + 20) = {1.570098, 3.626937, 1};
Point(p10 + 21) = {1.576644540213644, 3.543755319731833, 1};
Point(p10 + 22) = {1.596122963307797, 3.462621848496037, 1};
Point(p10 + 23) = {1.628053645860698, 3.385534361620992, 1};
Point(p10 + 24) = {1.671650348496037, 3.314391008872262, 1};
Point(p10 + 25) = {1.725839575705771, 3.250943575705771, 1};
Point(p10 + 26) = {1.789287008872262, 3.196754348496037, 1};
Point(p10 + 27) = {1.860430361620992, 3.153157645860698, 1};
Point(p10 + 28) = {1.937517848496037, 3.121226963307796, 1};
Point(p10 + 29) = {2.018651319731833, 3.101748540213644, 1};
Point(p10 + 30) = {2.101833, 3.095202, 1};
Point(p10 + 31) = {2.185014680268167, 3.101748540213644, 1};
Point(p10 + 32) = {2.266148151503963, 3.121226963307796, 1};
Point(p10 + 33) = {2.343235638379008, 3.153157645860698, 1};
Point(p10 + 34) = {2.414378991127738, 3.196754348496037, 1};
Point(p10 + 35) = {2.477826424294229, 3.250943575705771, 1};
Point(p10 + 36) = {2.532015651503963, 3.314391008872262, 1};
Point(p10 + 37) = {2.575612354139302, 3.385534361620992, 1};
Point(p10 + 38) = {2.607543036692204, 3.462621848496037, 1};
Point(p10 + 39) = {2.627021459786356, 3.543755319731833, 1};
Spline(10) = {8, p10 + 1, p10 + 2, p10 + 3, p10 + 4, p10 + 5, p10 + 6, p10 + 7, p10 + 8, p10 + 9, p10 + 10, p10 + 11, p10 + 12, p10 + 13, p10 + 14, p10 + 15, p10 + 16, p10 + 17, p10 + 18, p10 + 19, p10 + 20, p10 + 21, p10 + 22, p10 + 23, p10 + 24, p10 + 25, p10 + 26, p10 + 27, p10 + 28, p10 + 29, p10 + 30, p10 + 31, p10 + 32, p10 + 33, p10 + 34, p10 + 35, p10 + 36, p10 + 37, p10 + 38, p10 + 39, 8};
Line(11) = {4, 9};
Line(12) = {9, 7};
Line(13) = {5, 9};
p14 = newp;
Point(p14 + 1) = {2.627021459786356, 3.710118680268167, 0};
Point(p14 + 2) = {2.607543036692204, 3.791252151503962, 0};
Point(p14 + 3) = {2.575612354139302, 3.868339638379008, 0};
Point(p14 + 4) = {2.532015651503963, 3.939482991127738, 0};
Point(p14 + 5) = {2.477826424294229, 4.002930424294228, 0};
Point(p14 + 6) = {2.414378991127738, 4.057119651503963, 0};
Point(p14 + 7) = {2.343235638379008, 4.100716354139301, 0};
Point(p14 + 8) = {2.266148151503963, 4.132647036692203, 0};
Point(p14 + 9) = {2.185014680268167, 4.152125459786355, 0};
Point(p14 + 10) = {2.101833, 4.158672, 0};
Point(p14 + 11) = {2.018651319731833, 4.152125459786355, 0};
Point(p14 + 12) = {1.937517848496037, 4.132647036692203, 0};
Point(p14 + 13) = {1.860430361620992, 4.100716354139301, 0};
Point(p14 + 14) = {1.789287008872262, 4.057119651503963, 0};
Point(p14 + 15) = {1.725839575705771, 4.002930424294228, 0};
Point(p14 + 16) = {1.671650348496037, 3.939482991127738, 0};
Point(p14 + 17) = {1.628053645860698, 3.868339638379008, 0};
Point(p14 + 18) = {1.596122963307797, 3.791252151503962, 0};
Point(p14 + 19) = {1.576644540213644, 3.710118680268167, 0};
Point(p14 + 20) = {1.570098, 3.626937, 0};
Point(p14 + 21) = {1.576644540213644, 3.543755319731833, 0};
Point(p14 + 22) = {1.596122963307797, 3.462621848496037, 0};
Point(p14 + 23) = {1.628053645860698, 3.385534361620992, 0};
Point(p14 + 24) = {1.671650348496037, 3.314391008872262, 0};
Point(p14 + 25) = {1.725839575705771, 3.250943575705771, 0};
Point(p14 + 26) = {1.789287008872262, 3.196754348496037, 0};
Point(p14 + 27) = {1.860430361620992, 3.153157645860698, 0};
Point(p14 + 28) = {1.937517848496037, 3.121226963307796, 0};
Point(p14 + 29) = {2.018651319731833, 3.101748540213644, 0};
Point(p14 + 30) = {2.101833, 3.095202, 0};
Point(p14 + 31) = {2.185014680268167, 3.101748540213644, 0};
Point(p14 + 32) = {2.266148151503963, 3.121226963307796, 0};
Point(p14 + 33) = {2.343235638379008, 3.153157645860698, 0};
Point(p14 + 34) = {2.414378991127738, 3.196754348496037, 0};
Point(p14 + 35) = {2.477826424294229, 3.250943575705771, 0};
Point(p14 + 36) = {2.532015651503963, 3.314391008872262, 0};
Point(p14 + 37) = {2.575612354139302, 3.385534361620992, 0};
Point(p14 + 38) = {2.607543036692204, 3.462621848496037, 0};
Point(p14 + 39) = {2.627021459786356, 3.543755319731833, 0};
Spline(14) = {10, p14 + 1, p14 + 2, p14 + 3, p14 + 4, p14 + 5, p14 + 6, p14 + 7, p14 + 8, p14 + 9, p14 + 10, p14 + 11, p14 + 12, p14 + 13, p14 + 14, p14 + 15, p14 + 16, p14 + 17, p14 + 18, p14 + 19, p14 + 20, p14 + 21, p14 + 22, p14 + 23, p14 + 24, p14 + 25, p14 + 26, p14 + 27, p14 + 28, p14 + 29, p14 + 30, p14 + 31, p14 + 32, p14 + 33, p14 + 34, p14 + 35, p14 + 36, p14 + 37, p14 + 38, p14 + 39, 10};
Line(15) = {10, 8};
Curve Loop(1) = {-1, 4, 3, -2};
Plane Surface(1) = {1};
Curve Loop(2) = {-5, 1, 7, -6};
Plane Surface(2) = {2};
Curve Loop(3) = {-2, 7, 9, -8, -10};
Plane Surface(3) = {3};
Curve Loop(4) = {-11, 3, 8, -12};
Plane Surface(4) = {4};
Curve Loop(5) = {-4, 5, 13, -11, -14};
Plane Surface(5) = {5};
Curve Loop(6) = {-6, 13, 12, -9};
Plane Surface(6) = {6};
Curve Loop(7) = {-10, -15, 14, 15};
Surface(7) = {7};
Surface Loop(1) = {1, 2, 3, 4, 5, 6, 7};
Volume(1) = {1};
Physical Surface("INFLOW") = {1};
Physical Surface("OUTFLOW") = {6};
Physical Surface("OBSTACLE") = {7};
Physical Surface("WALL_Y") = {2, 4};
Physical Surface("WALL_Z") = {3, 5};
Physical Volume("FLUID") = {1};
