cl__1 = 1;
cl__2 = 0.121075;
cl__3 = 0.149396;
Point(1) = {0.102416, -3.292065, 1, cl__1};
Point(2) = {0.102416, -3.292065, 0, cl__1};
Point(3) = {0.102416, 4.952207, 1, cl__1};
Point(4) = {0.102416, 4.952207, 0, cl__1};
Point(5) = {37.513455, -3.292065, 0, cl__1};
Point(6) = {37.513455, -3.292065, 1, cl__1};
Point(7) = {37.513455, 4.952207, 1, cl__1};
Point(8) = {23.265811, -1.231440000000001, 1, cl__2};
Point(9) = {32.132269, -0.5023240000000003, 1, cl__3};
Point(10) = {37.513455, 4.952207, 0, cl__1};
Point(11) = {23.265811, -1.231440000000001, 0, cl__2};
Point(12) = {32.132269, -0.5023240000000003, 0, cl__3};
Line(1) = {2, 1};
Line(2) = {1, 3};
Line(3) = {4, 3};
Line(4) = {2, 4};
Line(5) = {2, 5};
Line(6) = {5, 6};
Line(7) = {1, 6};
Line(8) = {3, 7};
Line(9) = {6, 7};
p10 = newp;
Point(p10 + 1) = {23.25090460912893, -1.04203634571468, 1};
Point(p10 + 2) = {23.20655248133042, -0.8572964379925549, 1};
Point(p10 + 3) = {23.13384671318716, -0.6817691864783448, 1};
Point(p10 + 4) = {23.03457756200745, -0.519776654645879, 1};
Point(p10 + 5) = {22.91118936374874, -0.375307636251263, 1};
Point(p10 + 6) = {22.76672034535412, -0.2519194379925549, 1};
Point(p10 + 7) = {22.60472781352166, -0.152650286812837, 1};
Point(p10 + 8) = {22.42920056200744, -0.07994451866957775, 1};
Point(p10 + 9) = {22.24446065428532, -0.03559239087107446, 1};
Point(p10 + 10) = {22.055057, -0.02068599999999998, 1};
Point(p10 + 11) = {21.86565334571468, -0.03559239087107469, 1};
Point(p10 + 12) = {21.68091343799256, -0.07994451866957752, 1};
Point(p10 + 13) = {21.50538618647835, -0.1526502868128368, 1};
Point(p10 + 14) = {21.34339365464588, -0.2519194379925549, 1};
Point(p10 + 15) = {21.19892463625126, -0.3753076362512628, 1};
Point(p10 + 16) = {21.07553643799256, -0.5197766546458789, 1};
Point(p10 + 17) = {20.97626728681284, -0.6817691864783447, 1};
Point(p10 + 18) = {20.90356151866958, -0.8572964379925548, 1};
Point(p10 + 19) = {20.85920939087108, -1.04203634571468, 1};
Point(p10 + 20) = {20.844303, -1.23144, 1};
Point(p10 + 21) = {20.85920939087108, -1.42084365428532, 1};
Point(p10 + 22) = {20.90356151866958, -1.605583562007446, 1};
Point(p10 + 23) = {20.97626728681284, -1.781110813521655, 1};
Point(p10 + 24) = {21.07553643799256, -1.943103345354121, 1};
Point(p10 + 25) = {21.19892463625126, -2.087572363748737, 1};
Point(p10 + 26) = {21.34339365464588, -2.210960562007445, 1};
Point(p10 + 27) = {21.50538618647835, -2.310229713187163, 1};
Point(p10 + 28) = {21.68091343799255, -2.382935481330422, 1};
Point(p10 + 29) = {21.86565334571468, -2.427287609128926, 1};
Point(p10 + 30) = {22.055057, -2.442194, 1};
Point(p10 + 31) = {22.24446065428532, -2.427287609128926, 1};
Point(p10 + 32) = {22.42920056200744, -2.382935481330422, 1};
Point(p10 + 33) = {22.60472781352166, -2.310229713187163, 1};
Point(p10 + 34) = {22.76672034535412, -2.210960562007446, 1};
Point(p10 + 35) = {22.91118936374874, -2.087572363748738, 1};
Point(p10 + 36) = {23.03457756200745, -1.943103345354122, 1};
Point(p10 + 37) = {23.13384671318716, -1.781110813521656, 1};
Point(p10 + 38) = {23.20655248133042, -1.605583562007445, 1};
Point(p10 + 39) = {23.25090460912893, -1.42084365428532, 1};
Spline(10) = {8, p10 + 1, p10 + 2, p10 + 3, p10 + 4, p10 + 5, p10 + 6, p10 + 7, p10 + 8, p10 + 9, p10 + 10, p10 + 11, p10 + 12, p10 + 13, p10 + 14, p10 + 15, p10 + 16, p10 + 17, p10 + 18, p10 + 19, p10 + 20, p10 + 21, p10 + 22, p10 + 23, p10 + 24, p10 + 25, p10 + 26, p10 + 27, p10 + 28, p10 + 29, p10 + 30, p10 + 31, p10 + 32, p10 + 33, p10 + 34, p10 + 35, p10 + 36, p10 + 37, p10 + 38, p10 + 39, 8};
p11 = newp;
Point(p11 + 1) = {32.11387589793883, -0.2686174794774268, 1};
Point(p11 + 2) = {32.05914949097128, -0.04066558911759238, 1};
Point(p11 + 3) = {31.96943732486341, 0.1759187390098937, 1};
Point(p11 + 4) = {31.84694841088241, 0.3758024799443586, 1};
Point(p11 + 5) = {31.69469883260789, 0.5540638326078919, 1};
Point(p11 + 6) = {31.51643747994436, 0.7063134108824076, 1};
Point(p11 + 7) = {31.31655373900989, 0.8288023248634055, 1};
Point(p11 + 8) = {31.09996941088241, 0.9185144909712748, 1};
Point(p11 + 9) = {30.87201752052258, 0.9732408979388307, 1};
Point(p11 + 10) = {30.638311, 0.9916339999999999, 1};
Point(p11 + 11) = {30.40460447947743, 0.9732408979388305, 1};
Point(p11 + 12) = {30.17665258911759, 0.918514490971275, 1};
Point(p11 + 13) = {29.96006826099011, 0.8288023248634055, 1};
Point(p11 + 14) = {29.76018452005564, 0.7063134108824076, 1};
Point(p11 + 15) = {29.58192316739211, 0.5540638326078922, 1};
Point(p11 + 16) = {29.42967358911759, 0.3758024799443587, 1};
Point(p11 + 17) = {29.3071846751366, 0.1759187390098939, 1};
Point(p11 + 18) = {29.21747250902873, -0.04066558911759222, 1};
Point(p11 + 19) = {29.16274610206117, -0.2686174794774266, 1};
Point(p11 + 20) = {29.144353, -0.5023239999999998, 1};
Point(p11 + 21) = {29.16274610206117, -0.736030520522573, 1};
Point(p11 + 22) = {29.21747250902873, -0.9639824108824081, 1};
Point(p11 + 23) = {29.3071846751366, -1.180566739009893, 1};
Point(p11 + 24) = {29.42967358911759, -1.380450479944358, 1};
Point(p11 + 25) = {29.58192316739211, -1.558711832607892, 1};
Point(p11 + 26) = {29.76018452005564, -1.710961410882407, 1};
Point(p11 + 27) = {29.96006826099011, -1.833450324863406, 1};
Point(p11 + 28) = {30.17665258911759, -1.923162490971275, 1};
Point(p11 + 29) = {30.40460447947743, -1.97788889793883, 1};
Point(p11 + 30) = {30.638311, -1.996282, 1};
Point(p11 + 31) = {30.87201752052258, -1.977888897938831, 1};
Point(p11 + 32) = {31.09996941088241, -1.923162490971275, 1};
Point(p11 + 33) = {31.31655373900989, -1.833450324863406, 1};
Point(p11 + 34) = {31.51643747994436, -1.710961410882408, 1};
Point(p11 + 35) = {31.69469883260789, -1.558711832607892, 1};
Point(p11 + 36) = {31.84694841088241, -1.380450479944359, 1};
Point(p11 + 37) = {31.96943732486341, -1.180566739009894, 1};
Point(p11 + 38) = {32.05914949097128, -0.963982410882408, 1};
Point(p11 + 39) = {32.11387589793883, -0.7360305205225736, 1};
Spline(11) = {9, p11 + 1, p11 + 2, p11 + 3, p11 + 4, p11 + 5, p11 + 6, p11 + 7, p11 + 8, p11 + 9, p11 + 10, p11 + 11, p11 + 12, p11 + 13, p11 + 14, p11 + 15, p11 + 16, p11 + 17, p11 + 18, p11 + 19, p11 + 20, p11 + 21, p11 + 22, p11 + 23, p11 + 24, p11 + 25, p11 + 26, p11 + 27, p11 + 28, p11 + 29, p11 + 30, p11 + 31, p11 + 32, p11 + 33, p11 + 34, p11 + 35, p11 + 36, p11 + 37, p11 + 38, p11 + 39, 9};
Line(12) = {4, 10};
Line(13) = {10, 7};
Line(14) = {5, 10};
p15 = newp;
Point(p15 + 1) = {23.25090460912893, -1.04203634571468, 0};
Point(p15 + 2) = {23.20655248133042, -0.8572964379925549, 0};
Point(p15 + 3) = {23.13384671318716, -0.6817691864783448, 0};
Point(p15 + 4) = {23.03457756200745, -0.519776654645879, 0};
Point(p15 + 5) = {22.91118936374874, -0.375307636251263, 0};
Point(p15 + 6) = {22.76672034535412, -0.2519194379925549, 0};
Point(p15 + 7) = {22.60472781352166, -0.152650286812837, 0};
Point(p15 + 8) = {22.42920056200744, -0.07994451866957775, 0};
Point(p15 + 9) = {22.24446065428532, -0.03559239087107446, 0};
Point(p15 + 10) = {22.055057, -0.02068599999999998, 0};
Point(p15 + 11) = {21.86565334571468, -0.03559239087107469, 0};
Point(p15 + 12) = {21.68091343799256, -0.07994451866957752, 0};
Point(p15 + 13) = {21.50538618647835, -0.1526502868128368, 0};
Point(p15 + 14) = {21.34339365464588, -0.2519194379925549, 0};
Point(p15 + 15) = {21.19892463625126, -0.3753076362512628, 0};
Point(p15 + 16) = {21.07553643799256, -0.5197766546458789, 0};
Point(p15 + 17) = {20.97626728681284, -0.6817691864783447, 0};
Point(p15 + 18) = {20.90356151866958, -0.8572964379925548, 0};
Point(p15 + 19) = {20.85920939087108, -1.04203634571468, 0};
Point(p15 + 20) = {20.844303, -1.23144, 0};
Point(p15 + 21) = {20.85920939087108, -1.42084365428532, 0};
Point(p15 + 22) = {20.90356151866958, -1.605583562007446, 0};
Point(p15 + 23) = {20.97626728681284, -1.781110813521655, 0};
Point(p15 + 24) = {21.07553643799256, -1.943103345354121, 0};
Point(p15 + 25) = {21.19892463625126, -2.087572363748737, 0};
Point(p15 + 26) = {21.34339365464588, -2.210960562007445, 0};
Point(p15 + 27) = {21.50538618647835, -2.310229713187163, 0};
Point(p15 + 28) = {21.68091343799255, -2.382935481330422, 0};
Point(p15 + 29) = {21.86565334571468, -2.427287609128926, 0};
Point(p15 + 30) = {22.055057, -2.442194, 0};
Point(p15 + 31) = {22.24446065428532, -2.427287609128926, 0};
Point(p15 + 32) = {22.42920056200744, -2.382935481330422, 0};
Point(p15 + 33) = {22.60472781352166, -2.310229713187163, 0};
Point(p15 + 34) = {22.76672034535412, -2.210960562007446, 0};
Point(p15 + 35) = {22.91118936374874, -2.087572363748738, 0};
Point(p15 + 36) = {23.03457756200745, -1.943103345354122, 0};
Point(p15 + 37) = {23.13384671318716, -1.781110813521656, 0};
Point(p15 + 38) = {23.20655248133042, -1.605583562007445, 0};
Point(p15 + 39) = {23.25090460912893, -1.42084365428532, 0};
Spline(15) = {11, p15 + 1, p15 + 2, p15 + 3, p15 + 4, p15 + 5, p15 + 6, p15 + 7, p15 + 8, p15 + 9, p15 + 10, p15 + 11, p15 + 12, p15 + 13, p15 + 14, p15 + 15, p15 + 16, p15 + 17, p15 + 18, p15 + 19, p15 + 20, p15 + 21, p15 + 22, p15 + 23, p15 + 24, p15 + 25, p15 + 26, p15 + 27, p15 + 28, p15 + 29, p15 + 30, p15 + 31, p15 + 32, p15 + 33, p15 + 34, p15 + 35, p15 + 36, p15 + 37, p15 + 38, p15 + 39, 11};
p16 = newp;
Point(p16 + 1) = {32.11387589793883, -0.2686174794774268, 0};
Point(p16 + 2) = {32.05914949097128, -0.04066558911759238, 0};
Point(p16 + 3) = {31.96943732486341, 0.1759187390098937, 0};
Point(p16 + 4) = {31.84694841088241, 0.3758024799443586, 0};
Point(p16 + 5) = {31.69469883260789, 0.5540638326078919, 0};
Point(p16 + 6) = {31.51643747994436, 0.7063134108824076, 0};
Point(p16 + 7) = {31.31655373900989, 0.8288023248634055, 0};
Point(p16 + 8) = {31.09996941088241, 0.9185144909712748, 0};
Point(p16 + 9) = {30.87201752052258, 0.9732408979388307, 0};
Point(p16 + 10) = {30.638311, 0.9916339999999999, 0};
Point(p16 + 11) = {30.40460447947743, 0.9732408979388305, 0};
Point(p16 + 12) = {30.17665258911759, 0.918514490971275, 0};
Point(p16 + 13) = {29.96006826099011, 0.8288023248634055, 0};
Point(p16 + 14) = {29.76018452005564, 0.7063134108824076, 0};
Point(p16 + 15) = {29.58192316739211, 0.5540638326078922, 0};
Point(p16 + 16) = {29.42967358911759, 0.3758024799443587, 0};
Point(p16 + 17) = {29.3071846751366, 0.1759187390098939, 0};
Point(p16 + 18) = {29.21747250902873, -0.04066558911759222, 0};
Point(p16 + 19) = {29.16274610206117, -0.2686174794774266, 0};
Point(p16 + 20) = {29.144353, -0.5023239999999998, 0};
Point(p16 + 21) = {29.16274610206117, -0.736030520522573, 0};
Point(p16 + 22) = {29.21747250902873, -0.9639824108824081, 0};
Point(p16 + 23) = {29.3071846751366, -1.180566739009893, 0};
Point(p16 + 24) = {29.42967358911759, -1.380450479944358, 0};
Point(p16 + 25) = {29.58192316739211, -1.558711832607892, 0};
Point(p16 + 26) = {29.76018452005564, -1.710961410882407, 0};
Point(p16 + 27) = {29.96006826099011, -1.833450324863406, 0};
Point(p16 + 28) = {30.17665258911759, -1.923162490971275, 0};
Point(p16 + 29) = {30.40460447947743, -1.97788889793883, 0};
Point(p16 + 30) = {30.638311, -1.996282, 0};
Point(p16 + 31) = {30.87201752052258, -1.977888897938831, 0};
Point(p16 + 32) = {31.09996941088241, -1.923162490971275, 0};
Point(p16 + 33) = {31.31655373900989, -1.833450324863406, 0};
Point(p16 + 34) = {31.51643747994436, -1.710961410882408, 0};
Point(p16 + 35) = {31.69469883260789, -1.558711832607892, 0};
Point(p16 + 36) = {31.84694841088241, -1.380450479944359, 0};
Point(p16 + 37) = {31.96943732486341, -1.180566739009894, 0};
Point(p16 + 38) = {32.05914949097128, -0.963982410882408, 0};
Point(p16 + 39) = {32.11387589793883, -0.7360305205225736, 0};
Spline(16) = {12, p16 + 1, p16 + 2, p16 + 3, p16 + 4, p16 + 5, p16 + 6, p16 + 7, p16 + 8, p16 + 9, p16 + 10, p16 + 11, p16 + 12, p16 + 13, p16 + 14, p16 + 15, p16 + 16, p16 + 17, p16 + 18, p16 + 19, p16 + 20, p16 + 21, p16 + 22, p16 + 23, p16 + 24, p16 + 25, p16 + 26, p16 + 27, p16 + 28, p16 + 29, p16 + 30, p16 + 31, p16 + 32, p16 + 33, p16 + 34, p16 + 35, p16 + 36, p16 + 37, p16 + 38, p16 + 39, 12};
Line(17) = {11, 8};
Line(18) = {12, 9};
Curve Loop(1) = {-1, 4, 3, -2};
Plane Surface(1) = {1};
Curve Loop(2) = {-5, 1, 7, -6};
Plane Surface(2) = {2};
Curve Loop(3) = {-2, 7, 9, -8, -10, -11};
Plane Surface(3) = {3};
Curve Loop(4) = {-12, 3, 8, -13};
Plane Surface(4) = {4};
Curve Loop(5) = {-4, 5, 14, -12, -15, -16};
Plane Surface(5) = {5};
Curve Loop(6) = {-6, 14, 13, -9};
Plane Surface(6) = {6};
Curve Loop(7) = {-10, -17, 15, 17};
Surface(7) = {7};
Curve Loop(8) = {-11, -18, 16, 18};
Surface(8) = {8};
Surface Loop(1) = {1, 2, 3, 4, 5, 6, 7, 8};
Volume(1) = {1};
Physical Surface("INFLOW") = {1};
Physical Surface("OUTFLOW") = {6};
Physical Surface("OBSTACLE") = {7, 8};
Physical Surface("WALL_Y") = {2, 4};
Physical Surface("WALL_Z") = {3, 5};
Physical Volume("FLUID") = {1};
