cl__1 = 3.816911;
cl__2 = 0.668652;
cl__3 = 0.350465;
cl__4 = 0.101528;
Point(1) = {0.186199, -3.723109, 1, cl__1};
Point(2) = {0.186199, -3.723109, 0, cl__1};
Point(3) = {0.186199, 5.196344000000001, 1, cl__1};
Point(4) = {0.186199, 5.196344000000001, 0, cl__1};
Point(5) = {37.907677, -3.723109, 0, cl__2};
Point(6) = {37.907677, -3.723109, 1, cl__2};
Point(7) = {37.907677, 5.196344000000001, 1, cl__3};
Point(8) = {35.020088, 2.91657, 1, cl__4};
Point(9) = {37.907677, 5.196344000000001, 0, cl__3};
Point(10) = {35.020088, 2.91657, 0, cl__4};
Line(1) = {2, 1};
Line(2) = {1, 3};
Line(3) = {4, 3};
Line(4) = {2, 4};
Line(5) = {2, 5};
Line(6) = {5, 6};
Line(7) = {1, 6};
Line(8) = {3, 7};
Line(9) = {6, 7};
p10 = newp;
Point(p10 + 1) = {35.00758820612777, 3.075394940100511, 1};
Point(p10 + 2) = {34.97039661092066, 3.230309083065991, 1};
Point(p10 + 3) = {34.90942899488449, 3.377497928566067, 1};
Point(p10 + 4) = {34.82618658306599, 3.513337198732755, 1};
Point(p10 + 5) = {34.72271907990986, 3.634482079909859, 1};
Point(p10 + 6) = {34.60157419873276, 3.737949583065991, 1};
Point(p10 + 7) = {34.46573492856606, 3.821191994884491, 1};
Point(p10 + 8) = {34.31854608306599, 3.88215961092066, 1};
Point(p10 + 9) = {34.16363194010051, 3.919351206127772, 1};
Point(p10 + 10) = {34.004807, 3.931851, 1};
Point(p10 + 11) = {33.84598205989949, 3.919351206127772, 1};
Point(p10 + 12) = {33.69106791693401, 3.88215961092066, 1};
Point(p10 + 13) = {33.54387907143393, 3.821191994884491, 1};
Point(p10 + 14) = {33.40803980126724, 3.737949583065991, 1};
Point(p10 + 15) = {33.28689492009014, 3.634482079909859, 1};
Point(p10 + 16) = {33.18342741693401, 3.513337198732755, 1};
Point(p10 + 17) = {33.10018500511551, 3.377497928566067, 1};
Point(p10 + 18) = {33.03921738907934, 3.230309083065991, 1};
Point(p10 + 19) = {33.00202579387223, 3.075394940100511, 1};
Point(p10 + 20) = {32.989526, 2.91657, 1};
Point(p10 + 21) = {33.00202579387223, 2.75774505989949, 1};
Point(p10 + 22) = {33.03921738907934, 2.602830916934009, 1};
Point(p10 + 23) = {33.10018500511551, 2.455642071433934, 1};
Point(p10 + 24) = {33.18342741693401, 2.319802801267246, 1};
Point(p10 + 25) = {33.28689492009014, 2.198657920090141, 1};
Point(p10 + 26) = {33.40803980126724, 2.095190416934009, 1};
Point(p10 + 27) = {33.54387907143393, 2.01194800511551, 1};
Point(p10 + 28) = {33.69106791693401, 1.95098038907934, 1};
Point(p10 + 29) = {33.84598205989949, 1.913788793872228, 1};
Point(p10 + 30) = {34.004807, 1.901289, 1};
Point(p10 + 31) = {34.16363194010051, 1.913788793872228, 1};
Point(p10 + 32) = {34.31854608306599, 1.95098038907934, 1};
Point(p10 + 33) = {34.46573492856606, 2.01194800511551, 1};
Point(p10 + 34) = {34.60157419873276, 2.095190416934009, 1};
Point(p10 + 35) = {34.72271907990986, 2.198657920090141, 1};
Point(p10 + 36) = {34.82618658306599, 2.319802801267246, 1};
Point(p10 + 37) = {34.90942899488449, 2.455642071433933, 1};
Point(p10 + 38) = {34.97039661092066, 2.602830916934009, 1};
Point(p10 + 39) = {35.00758820612777, 2.757745059899489, 1};
Spline(10) = {8, p10 + 1, p10 + 2, p10 + 3, p10 + 4, p10 + 5, p10 + 6, p10 + 7, p10 + 8, p10 + 9, p10 + 10, p10 + 11, p10 + 12, p10 + 13, p10 + 14, p10 + 15, p10 + 16, p10 + 17, p10 + 18, p10 + 19, p10 + 20, p10 + 21, p10 + 22, p10 + 23, p10 + 24, p10 + 25, p10 + 26, p10 + 27, p10 + 28, p10 + 29, p10 + 30, p10 + 31, p10 + 32, p10 + 33, p10 + 34, p10 + 35, p10 + 36, p10 + 37, p10 + 38, p10 + 39, 8};
Line(11) = {4, 9};
Line(12) = {9, 7};
Line(13) = {5, 9};
p14 = newp;
Point(p14 + 1) = {35.00758820612777, 3.075394940100511, 0};
Point(p14 + 2) = {34.97039661092066, 3.230309083065991, 0};
Point(p14 + 3) = {34.90942899488449, 3.377497928566067, 0};
Point(p14 + 4) = {34.82618658306599, 3.513337198732755, 0};
Point(p14 + 5) = {34.72271907990986, 3.634482079909859, 0};
Point(p14 + 6) = {34.60157419873276, 3.737949583065991, 0};
Point(p14 + 7) = {34.46573492856606, 3.821191994884491, 0};
Point(p14 + 8) = {34.31854608306599, 3.88215961092066, 0};
Point(p14 + 9) = {34.16363194010051, 3.919351206127772, 0};
Point(p14 + 10) = {34.004807, 3.931851, 0};
Point(p14 + 11) = {33.84598205989949, 3.919351206127772, 0};
Point(p14 + 12) = {33.69106791693401, 3.88215961092066, 0};
Point(p14 + 13) = {33.54387907143393, 3.821191994884491, 0};
Point(p14 + 14) = {33.40803980126724, 3.737949583065991, 0};
Point(p14 + 15) = {33.28689492009014, 3.634482079909859, 0};
Point(p14 + 16) = {33.18342741693401, 3.513337198732755, 0};
Point(p14 + 17) = {33.10018500511551, 3.377497928566067, 0};
Point(p14 + 18) = {33.03921738907934, 3.230309083065991, 0};
Point(p14 + 19) = {33.00202579387223, 3.075394940100511, 0};
Point(p14 + 20) = {32.989526, 2.91657, 0};
Point(p14 + 21) = {33.00202579387223, 2.75774505989949, 0};
Point(p14 + 22) = {33.03921738907934, 2.602830916934009, 0};
Point(p14 + 23) = {33.10018500511551, 2.455642071433934, 0};
Point(p14 + 24) = {33.18342741693401, 2.319802801267246, 0};
Point(p14 + 25) = {33.28689492009014, 2.198657920090141, 0};
Point(p14 + 26) = {33.40803980126724, 2.095190416934009, 0};
Point(p14 + 27) = {33.54387907143393, 2.01194800511551, 0};
Point(p14 + 28) = {33.69106791693401, 1.95098038907934, 0};
Point(p14 + 29) = {33.84598205989949, 1.913788793872228, 0};
Point(p14 + 30) = {34.004807, 1.901289, 0};
Point(p14 + 31) = {34.16363194010051, 1.913788793872228, 0};
Point(p14 + 32) = {34.31854608306599, 1.95098038907934, 0};
Point(p14 + 33) = {34.46573492856606, 2.01194800511551, 0};
Point(p14 + 34) = {34.60157419873276, 2.095190416934009, 0};
Point(p14 + 35) = {34.72271907990986, 2.198657920090141, 0};
Point(p14 + 36) = {34.82618658306599, 2.319802801267246, 0};
Point(p14 + 37) = {34.90942899488449, 2.455642071433933, 0};
Point(p14 + 38) = {34.97039661092066, 2.602830916934009, 0};
Point(p14 + 39) = {35.00758820612777, 2.757745059899489, 0};
Spline(14) = {10, p14 + 1, p14 + 2, p14 + 3, p14 + 4, p14 + 5, p14 + 6, p14 + 7, p14 + 8, p14 + 9, p14 + 10, p14 + 11, p14 + 12, p14 + 13, p14 + 14, p14 + 15, p14 + 16, p14 + 17, p14 + 18, p14 + 19, p14 + 20, p14 + 21, p14 + 22, p14 + 23, p14 + 24, p14 + 25, p14 + 26, p14 + 27, p14 + 28, p14 + 29, p14 + 30, p14 + 31, p14 + 32, p14 + 33, p14 + 34, p14 + 35, p14 + 36, p14 + 37, p14 + 38, p14 + 39, 10};
Line(15) = {10, 8};
Curve Loop(1) = {-1, 4, 3, -2};
Plane Surface(1) = {1};
Curve Loop(2) = {-5, 1, 7, -6};
Plane Surface(2) = {2};
Curve Loop(3) = {-2, 7, 9, -8, -10};
Plane Surface(3) = {3};
Curve Loop(4) = {-11, 3, 8, -12};
Plane Surface(4) = {4};
Curve Loop(5) = {-4, 5, 13, -11, -14};
Plane Surface(5) = {5};
Curve Loop(6) = {-6, 13, 12, -9};
Plane Surface(6) = {6};
Curve Loop(7) = {-10, -15, 14, 15};
Surface(7) = {7};
Surface Loop(1) = {1, 2, 3, 4, 5, 6, 7};
Volume(1) = {1};
Physical Surface("INFLOW") = {1};
Physical Surface("OUTFLOW") = {6};
Physical Surface("OBSTACLE") = {7};
Physical Surface("WALL_Y") = {2, 4};
Physical Surface("WALL_Z") = {3, 5};
Physical Volume("FLUID") = {1};
