cl__1 = 1;
cl__2 = 0.068509;
cl__3 = 0.137162;
Point(1) = {0.67026, -4.334589, 1, cl__1};
Point(2) = {0.67026, -4.334589, 0, cl__1};
Point(3) = {0.67026, 5.582209999999999, 1, cl__1};
Point(4) = {0.67026, 5.582209999999999, 0, cl__1};
Point(5) = {32.650744, -4.334589, 0, cl__1};
Point(6) = {32.650744, -4.334589, 1, cl__1};
Point(7) = {32.650744, 5.582209999999999, 1, cl__1};
Point(8) = {29.135144, -3.102057, 1, cl__2};
Point(9) = {25.762679, 1.031871, 1, cl__3};
Point(10) = {32.650744, 5.582209999999999, 0, cl__1};
Point(11) = {29.135144, -3.102057, 0, cl__2};
Point(12) = {25.762679, 1.031871, 0, cl__3};
Line(1) = {2, 1};
Line(2) = {1, 3};
Line(3) = {4, 3};
Line(4) = {2, 4};
Line(5) = {2, 5};
Line(6) = {5, 6};
Line(7) = {1, 6};
Line(8) = {3, 7};
Line(9) = {6, 7};
p10 = newp;
Point(p10 + 1) = {29.1267094421933, -2.994885781648983, 1};
Point(p10 + 2) = {29.1016134555791, -2.89035347437465, 1};
Point(p10 + 3) = {29.06047398663664, -2.791034010504933, 1};
Point(p10 + 4) = {29.00430402562535, -2.699372964862707, 1};
Point(p10 + 5) = {28.93448666340275, -2.617627336597252, 1};
Point(p10 + 6) = {28.8527410351373, -2.54780997437465, 1};
Point(p10 + 7) = {28.76107998949507, -2.491640013363364, 1};
Point(p10 + 8) = {28.66176052562535, -2.450500544420902, 1};
Point(p10 + 9) = {28.55722821835102, -2.425404557806699, 1};
Point(p10 + 10) = {28.450057, -2.41697, 1};
Point(p10 + 11) = {28.34288578164898, -2.425404557806699, 1};
Point(p10 + 12) = {28.23835347437465, -2.450500544420902, 1};
Point(p10 + 13) = {28.13903401050493, -2.491640013363364, 1};
Point(p10 + 14) = {28.04737296486271, -2.54780997437465, 1};
Point(p10 + 15) = {27.96562733659725, -2.617627336597252, 1};
Point(p10 + 16) = {27.89580997437465, -2.699372964862706, 1};
Point(p10 + 17) = {27.83964001336336, -2.791034010504933, 1};
Point(p10 + 18) = {27.7985005444209, -2.89035347437465, 1};
Point(p10 + 19) = {27.7734045578067, -2.994885781648983, 1};
Point(p10 + 20) = {27.76497, -3.102057, 1};
Point(p10 + 21) = {27.7734045578067, -3.209228218351016, 1};
Point(p10 + 22) = {27.7985005444209, -3.31376052562535, 1};
Point(p10 + 23) = {27.83964001336336, -3.413079989495067, 1};
Point(p10 + 24) = {27.89580997437465, -3.504741035137293, 1};
Point(p10 + 25) = {27.96562733659725, -3.586486663402748, 1};
Point(p10 + 26) = {28.04737296486271, -3.656304025625349, 1};
Point(p10 + 27) = {28.13903401050493, -3.712473986636636, 1};
Point(p10 + 28) = {28.23835347437465, -3.753613455579098, 1};
Point(p10 + 29) = {28.34288578164898, -3.778709442193301, 1};
Point(p10 + 30) = {28.450057, -3.787144, 1};
Point(p10 + 31) = {28.55722821835102, -3.778709442193301, 1};
Point(p10 + 32) = {28.66176052562535, -3.753613455579098, 1};
Point(p10 + 33) = {28.76107998949507, -3.712473986636636, 1};
Point(p10 + 34) = {28.8527410351373, -3.656304025625349, 1};
Point(p10 + 35) = {28.93448666340275, -3.586486663402748, 1};
Point(p10 + 36) = {29.00430402562535, -3.504741035137294, 1};
Point(p10 + 37) = {29.06047398663664, -3.413079989495067, 1};
Point(p10 + 38) = {29.1016134555791, -3.31376052562535, 1};
Point(p10 + 39) = {29.1267094421933, -3.209228218351017, 1};
Spline(10) = {8, p10 + 1, p10 + 2, p10 + 3, p10 + 4, p10 + 5, p10 + 6, p10 + 7, p10 + 8, p10 + 9, p10 + 10, p10 + 11, p10 + 12, p10 + 13, p10 + 14, p10 + 15, p10 + 16, p10 + 17, p10 + 18, p10 + 19, p10 + 20, p10 + 21, p10 + 22, p10 + 23, p10 + 24, p10 + 25, p10 + 26, p10 + 27, p10 + 28, p10 + 29, p10 + 30, p10 + 31, p10 + 32, p10 + 33, p10 + 34, p10 + 35, p10 + 36, p10 + 37, p10 + 38, p10 + 39, 8};
p11 = newp;
Point(p11 + 1) = {25.74579213097374, 1.246439015200621, 1};
Point(p11 + 2) = {25.69554733465469, 1.455723653756588, 1};
Point(p11 + 3) = {25.61318180468115, 1.654571633290758, 1};
Point(p11 + 4) = {25.50072365375659, 1.838086656608393, 1};
Point(p11 + 5) = {25.36094197478397, 2.001749974783968, 1};
Point(p11 + 6) = {25.19727865660839, 2.141531653756588, 1};
Point(p11 + 7) = {25.01376363329076, 2.253989804681152, 1};
Point(p11 + 8) = {24.81491565375659, 2.336355334654693, 1};
Point(p11 + 9) = {24.60563101520062, 2.38660013097374, 1};
Point(p11 + 10) = {24.391063, 2.403487, 1};
Point(p11 + 11) = {24.17649498479938, 2.38660013097374, 1};
Point(p11 + 12) = {23.96721034624341, 2.336355334654693, 1};
Point(p11 + 13) = {23.76836236670924, 2.253989804681153, 1};
Point(p11 + 14) = {23.5848473433916, 2.141531653756588, 1};
Point(p11 + 15) = {23.42118402521603, 2.001749974783968, 1};
Point(p11 + 16) = {23.28140234624341, 1.838086656608393, 1};
Point(p11 + 17) = {23.16894419531885, 1.654571633290758, 1};
Point(p11 + 18) = {23.08657866534531, 1.455723653756588, 1};
Point(p11 + 19) = {23.03633386902626, 1.246439015200622, 1};
Point(p11 + 20) = {23.019447, 1.031871, 1};
Point(p11 + 21) = {23.03633386902626, 0.8173029847993789, 1};
Point(p11 + 22) = {23.08657866534531, 0.6080183462434117, 1};
Point(p11 + 23) = {23.16894419531885, 0.4091703667092426, 1};
Point(p11 + 24) = {23.28140234624341, 0.2256553433916073, 1};
Point(p11 + 25) = {23.42118402521603, 0.06199202521603253, 1};
Point(p11 + 26) = {23.5848473433916, -0.07778965375658764, 1};
Point(p11 + 27) = {23.76836236670924, -0.1902478046811522, 1};
Point(p11 + 28) = {23.96721034624341, -0.2726133346546933, 1};
Point(p11 + 29) = {24.17649498479938, -0.3228581309737404, 1};
Point(p11 + 30) = {24.391063, -0.339745, 1};
Point(p11 + 31) = {24.60563101520062, -0.3228581309737404, 1};
Point(p11 + 32) = {24.81491565375659, -0.2726133346546935, 1};
Point(p11 + 33) = {25.01376363329076, -0.1902478046811524, 1};
Point(p11 + 34) = {25.19727865660839, -0.07778965375658808, 1};
Point(p11 + 35) = {25.36094197478397, 0.0619920252160322, 1};
Point(p11 + 36) = {25.50072365375659, 0.2256553433916069, 1};
Point(p11 + 37) = {25.61318180468115, 0.4091703667092416, 1};
Point(p11 + 38) = {25.69554733465469, 0.6080183462434119, 1};
Point(p11 + 39) = {25.74579213097374, 0.8173029847993784, 1};
Spline(11) = {9, p11 + 1, p11 + 2, p11 + 3, p11 + 4, p11 + 5, p11 + 6, p11 + 7, p11 + 8, p11 + 9, p11 + 10, p11 + 11, p11 + 12, p11 + 13, p11 + 14, p11 + 15, p11 + 16, p11 + 17, p11 + 18, p11 + 19, p11 + 20, p11 + 21, p11 + 22, p11 + 23, p11 + 24, p11 + 25, p11 + 26, p11 + 27, p11 + 28, p11 + 29, p11 + 30, p11 + 31, p11 + 32, p11 + 33, p11 + 34, p11 + 35, p11 + 36, p11 + 37, p11 + 38, p11 + 39, 9};
Line(12) = {4, 10};
Line(13) = {10, 7};
Line(14) = {5, 10};
p15 = newp;
Point(p15 + 1) = {29.1267094421933, -2.994885781648983, 0};
Point(p15 + 2) = {29.1016134555791, -2.89035347437465, 0};
Point(p15 + 3) = {29.06047398663664, -2.791034010504933, 0};
Point(p15 + 4) = {29.00430402562535, -2.699372964862707, 0};
Point(p15 + 5) = {28.93448666340275, -2.617627336597252, 0};
Point(p15 + 6) = {28.8527410351373, -2.54780997437465, 0};
Point(p15 + 7) = {28.76107998949507, -2.491640013363364, 0};
Point(p15 + 8) = {28.66176052562535, -2.450500544420902, 0};
Point(p15 + 9) = {28.55722821835102, -2.425404557806699, 0};
Point(p15 + 10) = {28.450057, -2.41697, 0};
Point(p15 + 11) = {28.34288578164898, -2.425404557806699, 0};
Point(p15 + 12) = {28.23835347437465, -2.450500544420902, 0};
Point(p15 + 13) = {28.13903401050493, -2.491640013363364, 0};
Point(p15 + 14) = {28.04737296486271, -2.54780997437465, 0};
Point(p15 + 15) = {27.96562733659725, -2.617627336597252, 0};
Point(p15 + 16) = {27.89580997437465, -2.699372964862706, 0};
Point(p15 + 17) = {27.83964001336336, -2.791034010504933, 0};
Point(p15 + 18) = {27.7985005444209, -2.89035347437465, 0};
Point(p15 + 19) = {27.7734045578067, -2.994885781648983, 0};
Point(p15 + 20) = {27.76497, -3.102057, 0};
Point(p15 + 21) = {27.7734045578067, -3.209228218351016, 0};
Point(p15 + 22) = {27.7985005444209, -3.31376052562535, 0};
Point(p15 + 23) = {27.83964001336336, -3.413079989495067, 0};
Point(p15 + 24) = {27.89580997437465, -3.504741035137293, 0};
Point(p15 + 25) = {27.96562733659725, -3.586486663402748, 0};
Point(p15 + 26) = {28.04737296486271, -3.656304025625349, 0};
Point(p15 + 27) = {28.13903401050493, -3.712473986636636, 0};
Point(p15 + 28) = {28.23835347437465, -3.753613455579098, 0};
Point(p15 + 29) = {28.34288578164898, -3.778709442193301, 0};
Point(p15 + 30) = {28.450057, -3.787144, 0};
Point(p15 + 31) = {28.55722821835102, -3.778709442193301, 0};
Point(p15 + 32) = {28.66176052562535, -3.753613455579098, 0};
Point(p15 + 33) = {28.76107998949507, -3.712473986636636, 0};
Point(p15 + 34) = {28.8527410351373, -3.656304025625349, 0};
Point(p15 + 35) = {28.93448666340275, -3.586486663402748, 0};
Point(p15 + 36) = {29.00430402562535, -3.504741035137294, 0};
Point(p15 + 37) = {29.06047398663664, -3.413079989495067, 0};
Point(p15 + 38) = {29.1016134555791, -3.31376052562535, 0};
Point(p15 + 39) = {29.1267094421933, -3.209228218351017, 0};
Spline(15) = {11, p15 + 1, p15 + 2, p15 + 3, p15 + 4, p15 + 5, p15 + 6, p15 + 7, p15 + 8, p15 + 9, p15 + 10, p15 + 11, p15 + 12, p15 + 13, p15 + 14, p15 + 15, p15 + 16, p15 + 17, p15 + 18, p15 + 19, p15 + 20, p15 + 21, p15 + 22, p15 + 23, p15 + 24, p15 + 25, p15 + 26, p15 + 27, p15 + 28, p15 + 29, p15 + 30, p15 + 31, p15 + 32, p15 + 33, p15 + 34, p15 + 35, p15 + 36, p15 + 37, p15 + 38, p15 + 39, 11};
p16 = newp;
Point(p16 + 1) = {25.74579213097374, 1.246439015200621, 0};
Point(p16 + 2) = {25.69554733465469, 1.455723653756588, 0};
Point(p16 + 3) = {25.61318180468115, 1.654571633290758, 0};
Point(p16 + 4) = {25.50072365375659, 1.838086656608393, 0};
Point(p16 + 5) = {25.36094197478397, 2.001749974783968, 0};
Point(p16 + 6) = {25.19727865660839, 2.141531653756588, 0};
Point(p16 + 7) = {25.01376363329076, 2.253989804681152, 0};
Point(p16 + 8) = {24.81491565375659, 2.336355334654693, 0};
Point(p16 + 9) = {24.60563101520062, 2.38660013097374, 0};
Point(p16 + 10) = {24.391063, 2.403487, 0};
Point(p16 + 11) = {24.17649498479938, 2.38660013097374, 0};
Point(p16 + 12) = {23.96721034624341, 2.336355334654693, 0};
Point(p16 + 13) = {23.76836236670924, 2.253989804681153, 0};
Point(p16 + 14) = {23.5848473433916, 2.141531653756588, 0};
Point(p16 + 15) = {23.42118402521603, 2.001749974783968, 0};
Point(p16 + 16) = {23.28140234624341, 1.838086656608393, 0};
Point(p16 + 17) = {23.16894419531885, 1.654571633290758, 0};
Point(p16 + 18) = {23.08657866534531, 1.455723653756588, 0};
Point(p16 + 19) = {23.03633386902626, 1.246439015200622, 0};
Point(p16 + 20) = {23.019447, 1.031871, 0};
Point(p16 + 21) = {23.03633386902626, 0.8173029847993789, 0};
Point(p16 + 22) = {23.08657866534531, 0.6080183462434117, 0};
Point(p16 + 23) = {23.16894419531885, 0.4091703667092426, 0};
Point(p16 + 24) = {23.28140234624341, 0.2256553433916073, 0};
Point(p16 + 25) = {23.42118402521603, 0.06199202521603253, 0};
Point(p16 + 26) = {23.5848473433916, -0.07778965375658764, 0};
Point(p16 + 27) = {23.76836236670924, -0.1902478046811522, 0};
Point(p16 + 28) = {23.96721034624341, -0.2726133346546933, 0};
Point(p16 + 29) = {24.17649498479938, -0.3228581309737404, 0};
Point(p16 + 30) = {24.391063, -0.339745, 0};
Point(p16 + 31) = {24.60563101520062, -0.3228581309737404, 0};
Point(p16 + 32) = {24.81491565375659, -0.2726133346546935, 0};
Point(p16 + 33) = {25.01376363329076, -0.1902478046811524, 0};
Point(p16 + 34) = {25.19727865660839, -0.07778965375658808, 0};
Point(p16 + 35) = {25.36094197478397, 0.0619920252160322, 0};
Point(p16 + 36) = {25.50072365375659, 0.2256553433916069, 0};
Point(p16 + 37) = {25.61318180468115, 0.4091703667092416, 0};
Point(p16 + 38) = {25.69554733465469, 0.6080183462434119, 0};
Point(p16 + 39) = {25.74579213097374, 0.8173029847993784, 0};
Spline(16) = {12, p16 + 1, p16 + 2, p16 + 3, p16 + 4, p16 + 5, p16 + 6, p16 + 7, p16 + 8, p16 + 9, p16 + 10, p16 + 11, p16 + 12, p16 + 13, p16 + 14, p16 + 15, p16 + 16, p16 + 17, p16 + 18, p16 + 19, p16 + 20, p16 + 21, p16 + 22, p16 + 23, p16 + 24, p16 + 25, p16 + 26, p16 + 27, p16 + 28, p16 + 29, p16 + 30, p16 + 31, p16 + 32, p16 + 33, p16 + 34, p16 + 35, p16 + 36, p16 + 37, p16 + 38, p16 + 39, 12};
Line(17) = {11, 8};
Line(18) = {12, 9};
Curve Loop(1) = {-1, 4, 3, -2};
Plane Surface(1) = {1};
Curve Loop(2) = {-5, 1, 7, -6};
Plane Surface(2) = {2};
Curve Loop(3) = {-2, 7, 9, -8, -10, -11};
Plane Surface(3) = {3};
Curve Loop(4) = {-12, 3, 8, -13};
Plane Surface(4) = {4};
Curve Loop(5) = {-4, 5, 14, -12, -15, -16};
Plane Surface(5) = {5};
Curve Loop(6) = {-6, 14, 13, -9};
Plane Surface(6) = {6};
Curve Loop(7) = {-10, -17, 15, 17};
Surface(7) = {7};
Curve Loop(8) = {-11, -18, 16, 18};
Surface(8) = {8};
Surface Loop(1) = {1, 2, 3, 4, 5, 6, 7, 8};
Volume(1) = {1};
Physical Surface("INFLOW") = {1};
Physical Surface("OUTFLOW") = {6};
Physical Surface("OBSTACLE") = {7, 8};
Physical Surface("WALL_Y") = {2, 4};
Physical Surface("WALL_Z") = {3, 5};
Physical Volume("FLUID") = {1};
