cl__1 = 3.716917;
cl__2 = 1.39291;
cl__3 = 1.40632;
cl__4 = 0.07424600000000001;
Point(1) = {0.538578, -2.988567, 1, cl__1};
Point(2) = {0.538578, -2.988567, 0, cl__1};
Point(3) = {0.538578, 4.854614999999999, 1, cl__1};
Point(4) = {0.538578, 4.854614999999999, 0, cl__1};
Point(5) = {36.961713, -2.988567, 0, cl__2};
Point(6) = {36.961713, -2.988567, 1, cl__2};
Point(7) = {36.961713, 4.854614999999999, 1, cl__3};
Point(8) = {23.498936, 0.6810269999999998, 1, cl__4};
Point(9) = {36.961713, 4.854614999999999, 0, cl__3};
Point(10) = {23.498936, 0.6810269999999998, 0, cl__4};
Line(1) = {2, 1};
Line(2) = {1, 3};
Line(3) = {4, 3};
Line(4) = {2, 4};
Line(5) = {2, 5};
Line(6) = {5, 6};
Line(7) = {1, 6};
Line(8) = {3, 7};
Line(9) = {6, 7};
p10 = newp;
Point(p10 + 1) = {23.48979510998159, 0.7971730200448398, 1};
Point(p10 + 2) = {23.46259751897547, 0.9104591396096348, 1};
Point(p10 + 3) = {23.41801292193585, 1.018095878455624, 1};
Point(p10 + 4) = {23.35713913960964, 1.117432862846565, 1};
Point(p10 + 5) = {23.2814750865462, 1.206024086546202, 1};
Point(p10 + 6) = {23.19288386284657, 1.281688139609635, 1};
Point(p10 + 7) = {23.09354687845563, 1.342561921935847, 1};
Point(p10 + 8) = {22.98591013960964, 1.387146518975467, 1};
Point(p10 + 9) = {22.87262402004484, 1.414344109981585, 1};
Point(p10 + 10) = {22.756478, 1.423485, 1};
Point(p10 + 11) = {22.64033197995516, 1.414344109981585, 1};
Point(p10 + 12) = {22.52704586039037, 1.387146518975467, 1};
Point(p10 + 13) = {22.41940912154438, 1.342561921935847, 1};
Point(p10 + 14) = {22.32007213715343, 1.281688139609635, 1};
Point(p10 + 15) = {22.2314809134538, 1.206024086546202, 1};
Point(p10 + 16) = {22.15581686039037, 1.117432862846565, 1};
Point(p10 + 17) = {22.09494307806415, 1.018095878455624, 1};
Point(p10 + 18) = {22.05035848102453, 0.9104591396096349, 1};
Point(p10 + 19) = {22.02316089001842, 0.7971730200448398, 1};
Point(p10 + 20) = {22.01402, 0.6810270000000002, 1};
Point(p10 + 21) = {22.02316089001842, 0.5648809799551604, 1};
Point(p10 + 22) = {22.05035848102453, 0.4515948603903651, 1};
Point(p10 + 23) = {22.09494307806415, 0.343958121544376, 1};
Point(p10 + 24) = {22.15581686039037, 0.2446211371534351, 1};
Point(p10 + 25) = {22.2314809134538, 0.1560299134537985, 1};
Point(p10 + 26) = {22.32007213715343, 0.08036586039036542, 1};
Point(p10 + 27) = {22.41940912154438, 0.01949207806415287, 1};
Point(p10 + 28) = {22.52704586039037, -0.02509251897546705, 1};
Point(p10 + 29) = {22.64033197995516, -0.05229010998158456, 1};
Point(p10 + 30) = {22.756478, -0.0614309999999999, 1};
Point(p10 + 31) = {22.87262402004484, -0.05229010998158468, 1};
Point(p10 + 32) = {22.98591013960964, -0.02509251897546705, 1};
Point(p10 + 33) = {23.09354687845563, 0.01949207806415287, 1};
Point(p10 + 34) = {23.19288386284657, 0.08036586039036531, 1};
Point(p10 + 35) = {23.2814750865462, 0.1560299134537982, 1};
Point(p10 + 36) = {23.35713913960964, 0.2446211371534349, 1};
Point(p10 + 37) = {23.41801292193585, 0.3439581215443755, 1};
Point(p10 + 38) = {23.46259751897547, 0.4515948603903652, 1};
Point(p10 + 39) = {23.48979510998159, 0.5648809799551602, 1};
Spline(10) = {8, p10 + 1, p10 + 2, p10 + 3, p10 + 4, p10 + 5, p10 + 6, p10 + 7, p10 + 8, p10 + 9, p10 + 10, p10 + 11, p10 + 12, p10 + 13, p10 + 14, p10 + 15, p10 + 16, p10 + 17, p10 + 18, p10 + 19, p10 + 20, p10 + 21, p10 + 22, p10 + 23, p10 + 24, p10 + 25, p10 + 26, p10 + 27, p10 + 28, p10 + 29, p10 + 30, p10 + 31, p10 + 32, p10 + 33, p10 + 34, p10 + 35, p10 + 36, p10 + 37, p10 + 38, p10 + 39, 8};
Line(11) = {4, 9};
Line(12) = {9, 7};
Line(13) = {5, 9};
p14 = newp;
Point(p14 + 1) = {23.48979510998159, 0.7971730200448398, 0};
Point(p14 + 2) = {23.46259751897547, 0.9104591396096348, 0};
Point(p14 + 3) = {23.41801292193585, 1.018095878455624, 0};
Point(p14 + 4) = {23.35713913960964, 1.117432862846565, 0};
Point(p14 + 5) = {23.2814750865462, 1.206024086546202, 0};
Point(p14 + 6) = {23.19288386284657, 1.281688139609635, 0};
Point(p14 + 7) = {23.09354687845563, 1.342561921935847, 0};
Point(p14 + 8) = {22.98591013960964, 1.387146518975467, 0};
Point(p14 + 9) = {22.87262402004484, 1.414344109981585, 0};
Point(p14 + 10) = {22.756478, 1.423485, 0};
Point(p14 + 11) = {22.64033197995516, 1.414344109981585, 0};
Point(p14 + 12) = {22.52704586039037, 1.387146518975467, 0};
Point(p14 + 13) = {22.41940912154438, 1.342561921935847, 0};
Point(p14 + 14) = {22.32007213715343, 1.281688139609635, 0};
Point(p14 + 15) = {22.2314809134538, 1.206024086546202, 0};
Point(p14 + 16) = {22.15581686039037, 1.117432862846565, 0};
Point(p14 + 17) = {22.09494307806415, 1.018095878455624, 0};
Point(p14 + 18) = {22.05035848102453, 0.9104591396096349, 0};
Point(p14 + 19) = {22.02316089001842, 0.7971730200448398, 0};
Point(p14 + 20) = {22.01402, 0.6810270000000002, 0};
Point(p14 + 21) = {22.02316089001842, 0.5648809799551604, 0};
Point(p14 + 22) = {22.05035848102453, 0.4515948603903651, 0};
Point(p14 + 23) = {22.09494307806415, 0.343958121544376, 0};
Point(p14 + 24) = {22.15581686039037, 0.2446211371534351, 0};
Point(p14 + 25) = {22.2314809134538, 0.1560299134537985, 0};
Point(p14 + 26) = {22.32007213715343, 0.08036586039036542, 0};
Point(p14 + 27) = {22.41940912154438, 0.01949207806415287, 0};
Point(p14 + 28) = {22.52704586039037, -0.02509251897546705, 0};
Point(p14 + 29) = {22.64033197995516, -0.05229010998158456, 0};
Point(p14 + 30) = {22.756478, -0.0614309999999999, 0};
Point(p14 + 31) = {22.87262402004484, -0.05229010998158468, 0};
Point(p14 + 32) = {22.98591013960964, -0.02509251897546705, 0};
Point(p14 + 33) = {23.09354687845563, 0.01949207806415287, 0};
Point(p14 + 34) = {23.19288386284657, 0.08036586039036531, 0};
Point(p14 + 35) = {23.2814750865462, 0.1560299134537982, 0};
Point(p14 + 36) = {23.35713913960964, 0.2446211371534349, 0};
Point(p14 + 37) = {23.41801292193585, 0.3439581215443755, 0};
Point(p14 + 38) = {23.46259751897547, 0.4515948603903652, 0};
Point(p14 + 39) = {23.48979510998159, 0.5648809799551602, 0};
Spline(14) = {10, p14 + 1, p14 + 2, p14 + 3, p14 + 4, p14 + 5, p14 + 6, p14 + 7, p14 + 8, p14 + 9, p14 + 10, p14 + 11, p14 + 12, p14 + 13, p14 + 14, p14 + 15, p14 + 16, p14 + 17, p14 + 18, p14 + 19, p14 + 20, p14 + 21, p14 + 22, p14 + 23, p14 + 24, p14 + 25, p14 + 26, p14 + 27, p14 + 28, p14 + 29, p14 + 30, p14 + 31, p14 + 32, p14 + 33, p14 + 34, p14 + 35, p14 + 36, p14 + 37, p14 + 38, p14 + 39, 10};
Line(15) = {10, 8};
Curve Loop(1) = {-1, 4, 3, -2};
Plane Surface(1) = {1};
Curve Loop(2) = {-5, 1, 7, -6};
Plane Surface(2) = {2};
Curve Loop(3) = {-2, 7, 9, -8, -10};
Plane Surface(3) = {3};
Curve Loop(4) = {-11, 3, 8, -12};
Plane Surface(4) = {4};
Curve Loop(5) = {-4, 5, 13, -11, -14};
Plane Surface(5) = {5};
Curve Loop(6) = {-6, 13, 12, -9};
Plane Surface(6) = {6};
Curve Loop(7) = {-10, -15, 14, 15};
Surface(7) = {7};
Surface Loop(1) = {1, 2, 3, 4, 5, 6, 7};
Volume(1) = {1};
Physical Surface("INFLOW") = {1};
Physical Surface("OUTFLOW") = {6};
Physical Surface("OBSTACLE") = {7};
Physical Surface("WALL_Y") = {2, 4};
Physical Surface("WALL_Z") = {3, 5};
Physical Volume("FLUID") = {1};
