cl__1 = 1;
cl__2 = 0.098417;
cl__3 = 0.128521;
Point(1) = {0.75239, -3.440741, 1, cl__1};
Point(2) = {0.75239, -3.440741, 0, cl__1};
Point(3) = {0.75239, 4.210839, 1, cl__1};
Point(4) = {0.75239, 4.210839, 0, cl__1};
Point(5) = {31.150814, -3.440741, 0, cl__1};
Point(6) = {31.150814, -3.440741, 1, cl__1};
Point(7) = {31.150814, 4.210839, 1, cl__1};
Point(8) = {15.463803, -0.7110120000000002, 1, cl__2};
Point(9) = {8.958161, 0.4185979999999997, 1, cl__3};
Point(10) = {31.150814, 4.210839, 0, cl__1};
Point(11) = {15.463803, -0.7110120000000002, 0, cl__2};
Point(12) = {8.958161, 0.4185979999999997, 0, cl__3};
Line(1) = {2, 1};
Line(2) = {1, 3};
Line(3) = {4, 3};
Line(4) = {2, 4};
Line(5) = {2, 5};
Line(6) = {5, 6};
Line(7) = {1, 6};
Line(8) = {3, 7};
Line(9) = {6, 7};
p10 = newp;
Point(p10 + 1) = {15.4516862095402, -0.5570535796724259, 1};
Point(p10 + 2) = {15.41563419375523, -0.4068861266120192, 1};
Point(p10 + 3) = {15.35653467292351, -0.2642072618903308, 1};
Point(p10 + 4) = {15.27584287338798, -0.1325302126808121, 1};
Point(p10 + 5) = {15.17554569505393, -0.0150973049460732, 1};
Point(p10 + 6) = {15.05811278731919, 0.08519987338798085, 1};
Point(p10 + 7) = {14.92643573810967, 0.1658916729235144, 1};
Point(p10 + 8) = {14.78375687338798, 0.2249911937552339, 1};
Point(p10 + 9) = {14.63358942032757, 0.261043209540198, 1};
Point(p10 + 10) = {14.479631, 0.2731600000000001, 1};
Point(p10 + 11) = {14.32567257967242, 0.2610432095401979, 1};
Point(p10 + 12) = {14.17550512661202, 0.224991193755234, 1};
Point(p10 + 13) = {14.03282626189033, 0.1658916729235145, 1};
Point(p10 + 14) = {13.90114921268081, 0.08519987338798085, 1};
Point(p10 + 15) = {13.78371630494607, -0.01509730494607309, 1};
Point(p10 + 16) = {13.68341912661202, -0.132530212680812, 1};
Point(p10 + 17) = {13.60272732707648, -0.2642072618903307, 1};
Point(p10 + 18) = {13.54362780624477, -0.4068861266120191, 1};
Point(p10 + 19) = {13.5075757904598, -0.5570535796724257, 1};
Point(p10 + 20) = {13.495459, -0.7110119999999999, 1};
Point(p10 + 21) = {13.5075757904598, -0.8649704203275739, 1};
Point(p10 + 22) = {13.54362780624477, -1.015137873387981, 1};
Point(p10 + 23) = {13.60272732707648, -1.157816738109669, 1};
Point(p10 + 24) = {13.68341912661202, -1.289493787319188, 1};
Point(p10 + 25) = {13.78371630494607, -1.406926695053927, 1};
Point(p10 + 26) = {13.90114921268081, -1.507223873387981, 1};
Point(p10 + 27) = {14.03282626189033, -1.587915672923514, 1};
Point(p10 + 28) = {14.17550512661202, -1.647015193755234, 1};
Point(p10 + 29) = {14.32567257967242, -1.683067209540198, 1};
Point(p10 + 30) = {14.479631, -1.695184, 1};
Point(p10 + 31) = {14.63358942032757, -1.683067209540198, 1};
Point(p10 + 32) = {14.78375687338798, -1.647015193755234, 1};
Point(p10 + 33) = {14.92643573810967, -1.587915672923514, 1};
Point(p10 + 34) = {15.05811278731919, -1.507223873387981, 1};
Point(p10 + 35) = {15.17554569505393, -1.406926695053927, 1};
Point(p10 + 36) = {15.27584287338798, -1.289493787319188, 1};
Point(p10 + 37) = {15.35653467292351, -1.157816738109669, 1};
Point(p10 + 38) = {15.41563419375523, -1.015137873387981, 1};
Point(p10 + 39) = {15.4516862095402, -0.8649704203275743, 1};
Spline(10) = {8, p10 + 1, p10 + 2, p10 + 3, p10 + 4, p10 + 5, p10 + 6, p10 + 7, p10 + 8, p10 + 9, p10 + 10, p10 + 11, p10 + 12, p10 + 13, p10 + 14, p10 + 15, p10 + 16, p10 + 17, p10 + 18, p10 + 19, p10 + 20, p10 + 21, p10 + 22, p10 + 23, p10 + 24, p10 + 25, p10 + 26, p10 + 27, p10 + 28, p10 + 29, p10 + 30, p10 + 31, p10 + 32, p10 + 33, p10 + 34, p10 + 35, p10 + 36, p10 + 37, p10 + 38, p10 + 39, 8};
p11 = newp;
Point(p11 + 1) = {8.942337882969639, 0.6196497645522153, 1};
Point(p11 + 2) = {8.89525814953376, 0.8157509674086036, 1};
Point(p11 + 3) = {8.81808105897823, 1.002072946132262, 1};
Point(p11 + 4) = {8.712706967408604, 1.174027835239819, 1};
Point(p11 + 5) = {8.581730534675888, 1.327381534675887, 1};
Point(p11 + 6) = {8.428376835239819, 1.458357967408604, 1};
Point(p11 + 7) = {8.256421946132262, 1.563732058978229, 1};
Point(p11 + 8) = {8.070099967408604, 1.64090914953376, 1};
Point(p11 + 9) = {7.873998764552215, 1.687988882969639, 1};
Point(p11 + 10) = {7.672947, 1.703812, 1};
Point(p11 + 11) = {7.471895235447784, 1.687988882969639, 1};
Point(p11 + 12) = {7.275794032591396, 1.64090914953376, 1};
Point(p11 + 13) = {7.089472053867738, 1.563732058978229, 1};
Point(p11 + 14) = {6.917517164760182, 1.458357967408604, 1};
Point(p11 + 15) = {6.764163465324113, 1.327381534675887, 1};
Point(p11 + 16) = {6.633187032591396, 1.174027835239819, 1};
Point(p11 + 17) = {6.527812941021771, 1.002072946132262, 1};
Point(p11 + 18) = {6.45063585046624, 0.8157509674086039, 1};
Point(p11 + 19) = {6.403556117030361, 0.6196497645522154, 1};
Point(p11 + 20) = {6.387733, 0.4185980000000002, 1};
Point(p11 + 21) = {6.403556117030361, 0.2175462354477849, 1};
Point(p11 + 22) = {6.45063585046624, 0.02144503259139591, 1};
Point(p11 + 23) = {6.52781294102177, -0.1648769461322612, 1};
Point(p11 + 24) = {6.633187032591396, -0.3368318352398184, 1};
Point(p11 + 25) = {6.764163465324112, -0.4901855346758874, 1};
Point(p11 + 26) = {6.917517164760181, -0.6211619674086035, 1};
Point(p11 + 27) = {7.089472053867738, -0.726536058978229, 1};
Point(p11 + 28) = {7.275794032591396, -0.8037131495337595, 1};
Point(p11 + 29) = {7.471895235447784, -0.8507928829696394, 1};
Point(p11 + 30) = {7.672947, -0.8666160000000001, 1};
Point(p11 + 31) = {7.873998764552215, -0.8507928829696394, 1};
Point(p11 + 32) = {8.070099967408604, -0.8037131495337597, 1};
Point(p11 + 33) = {8.256421946132262, -0.726536058978229, 1};
Point(p11 + 34) = {8.428376835239819, -0.621161967408604, 1};
Point(p11 + 35) = {8.581730534675888, -0.4901855346758878, 1};
Point(p11 + 36) = {8.712706967408604, -0.3368318352398189, 1};
Point(p11 + 37) = {8.81808105897823, -0.1648769461322621, 1};
Point(p11 + 38) = {8.89525814953376, 0.02144503259139607, 1};
Point(p11 + 39) = {8.942337882969639, 0.2175462354477845, 1};
Spline(11) = {9, p11 + 1, p11 + 2, p11 + 3, p11 + 4, p11 + 5, p11 + 6, p11 + 7, p11 + 8, p11 + 9, p11 + 10, p11 + 11, p11 + 12, p11 + 13, p11 + 14, p11 + 15, p11 + 16, p11 + 17, p11 + 18, p11 + 19, p11 + 20, p11 + 21, p11 + 22, p11 + 23, p11 + 24, p11 + 25, p11 + 26, p11 + 27, p11 + 28, p11 + 29, p11 + 30, p11 + 31, p11 + 32, p11 + 33, p11 + 34, p11 + 35, p11 + 36, p11 + 37, p11 + 38, p11 + 39, 9};
Line(12) = {4, 10};
Line(13) = {10, 7};
Line(14) = {5, 10};
p15 = newp;
Point(p15 + 1) = {15.4516862095402, -0.5570535796724259, 0};
Point(p15 + 2) = {15.41563419375523, -0.4068861266120192, 0};
Point(p15 + 3) = {15.35653467292351, -0.2642072618903308, 0};
Point(p15 + 4) = {15.27584287338798, -0.1325302126808121, 0};
Point(p15 + 5) = {15.17554569505393, -0.0150973049460732, 0};
Point(p15 + 6) = {15.05811278731919, 0.08519987338798085, 0};
Point(p15 + 7) = {14.92643573810967, 0.1658916729235144, 0};
Point(p15 + 8) = {14.78375687338798, 0.2249911937552339, 0};
Point(p15 + 9) = {14.63358942032757, 0.261043209540198, 0};
Point(p15 + 10) = {14.479631, 0.2731600000000001, 0};
Point(p15 + 11) = {14.32567257967242, 0.2610432095401979, 0};
Point(p15 + 12) = {14.17550512661202, 0.224991193755234, 0};
Point(p15 + 13) = {14.03282626189033, 0.1658916729235145, 0};
Point(p15 + 14) = {13.90114921268081, 0.08519987338798085, 0};
Point(p15 + 15) = {13.78371630494607, -0.01509730494607309, 0};
Point(p15 + 16) = {13.68341912661202, -0.132530212680812, 0};
Point(p15 + 17) = {13.60272732707648, -0.2642072618903307, 0};
Point(p15 + 18) = {13.54362780624477, -0.4068861266120191, 0};
Point(p15 + 19) = {13.5075757904598, -0.5570535796724257, 0};
Point(p15 + 20) = {13.495459, -0.7110119999999999, 0};
Point(p15 + 21) = {13.5075757904598, -0.8649704203275739, 0};
Point(p15 + 22) = {13.54362780624477, -1.015137873387981, 0};
Point(p15 + 23) = {13.60272732707648, -1.157816738109669, 0};
Point(p15 + 24) = {13.68341912661202, -1.289493787319188, 0};
Point(p15 + 25) = {13.78371630494607, -1.406926695053927, 0};
Point(p15 + 26) = {13.90114921268081, -1.507223873387981, 0};
Point(p15 + 27) = {14.03282626189033, -1.587915672923514, 0};
Point(p15 + 28) = {14.17550512661202, -1.647015193755234, 0};
Point(p15 + 29) = {14.32567257967242, -1.683067209540198, 0};
Point(p15 + 30) = {14.479631, -1.695184, 0};
Point(p15 + 31) = {14.63358942032757, -1.683067209540198, 0};
Point(p15 + 32) = {14.78375687338798, -1.647015193755234, 0};
Point(p15 + 33) = {14.92643573810967, -1.587915672923514, 0};
Point(p15 + 34) = {15.05811278731919, -1.507223873387981, 0};
Point(p15 + 35) = {15.17554569505393, -1.406926695053927, 0};
Point(p15 + 36) = {15.27584287338798, -1.289493787319188, 0};
Point(p15 + 37) = {15.35653467292351, -1.157816738109669, 0};
Point(p15 + 38) = {15.41563419375523, -1.015137873387981, 0};
Point(p15 + 39) = {15.4516862095402, -0.8649704203275743, 0};
Spline(15) = {11, p15 + 1, p15 + 2, p15 + 3, p15 + 4, p15 + 5, p15 + 6, p15 + 7, p15 + 8, p15 + 9, p15 + 10, p15 + 11, p15 + 12, p15 + 13, p15 + 14, p15 + 15, p15 + 16, p15 + 17, p15 + 18, p15 + 19, p15 + 20, p15 + 21, p15 + 22, p15 + 23, p15 + 24, p15 + 25, p15 + 26, p15 + 27, p15 + 28, p15 + 29, p15 + 30, p15 + 31, p15 + 32, p15 + 33, p15 + 34, p15 + 35, p15 + 36, p15 + 37, p15 + 38, p15 + 39, 11};
p16 = newp;
Point(p16 + 1) = {8.942337882969639, 0.6196497645522153, 0};
Point(p16 + 2) = {8.89525814953376, 0.8157509674086036, 0};
Point(p16 + 3) = {8.81808105897823, 1.002072946132262, 0};
Point(p16 + 4) = {8.712706967408604, 1.174027835239819, 0};
Point(p16 + 5) = {8.581730534675888, 1.327381534675887, 0};
Point(p16 + 6) = {8.428376835239819, 1.458357967408604, 0};
Point(p16 + 7) = {8.256421946132262, 1.563732058978229, 0};
Point(p16 + 8) = {8.070099967408604, 1.64090914953376, 0};
Point(p16 + 9) = {7.873998764552215, 1.687988882969639, 0};
Point(p16 + 10) = {7.672947, 1.703812, 0};
Point(p16 + 11) = {7.471895235447784, 1.687988882969639, 0};
Point(p16 + 12) = {7.275794032591396, 1.64090914953376, 0};
Point(p16 + 13) = {7.089472053867738, 1.563732058978229, 0};
Point(p16 + 14) = {6.917517164760182, 1.458357967408604, 0};
Point(p16 + 15) = {6.764163465324113, 1.327381534675887, 0};
Point(p16 + 16) = {6.633187032591396, 1.174027835239819, 0};
Point(p16 + 17) = {6.527812941021771, 1.002072946132262, 0};
Point(p16 + 18) = {6.45063585046624, 0.8157509674086039, 0};
Point(p16 + 19) = {6.403556117030361, 0.6196497645522154, 0};
Point(p16 + 20) = {6.387733, 0.4185980000000002, 0};
Point(p16 + 21) = {6.403556117030361, 0.2175462354477849, 0};
Point(p16 + 22) = {6.45063585046624, 0.02144503259139591, 0};
Point(p16 + 23) = {6.52781294102177, -0.1648769461322612, 0};
Point(p16 + 24) = {6.633187032591396, -0.3368318352398184, 0};
Point(p16 + 25) = {6.764163465324112, -0.4901855346758874, 0};
Point(p16 + 26) = {6.917517164760181, -0.6211619674086035, 0};
Point(p16 + 27) = {7.089472053867738, -0.726536058978229, 0};
Point(p16 + 28) = {7.275794032591396, -0.8037131495337595, 0};
Point(p16 + 29) = {7.471895235447784, -0.8507928829696394, 0};
Point(p16 + 30) = {7.672947, -0.8666160000000001, 0};
Point(p16 + 31) = {7.873998764552215, -0.8507928829696394, 0};
Point(p16 + 32) = {8.070099967408604, -0.8037131495337597, 0};
Point(p16 + 33) = {8.256421946132262, -0.726536058978229, 0};
Point(p16 + 34) = {8.428376835239819, -0.621161967408604, 0};
Point(p16 + 35) = {8.581730534675888, -0.4901855346758878, 0};
Point(p16 + 36) = {8.712706967408604, -0.3368318352398189, 0};
Point(p16 + 37) = {8.81808105897823, -0.1648769461322621, 0};
Point(p16 + 38) = {8.89525814953376, 0.02144503259139607, 0};
Point(p16 + 39) = {8.942337882969639, 0.2175462354477845, 0};
Spline(16) = {12, p16 + 1, p16 + 2, p16 + 3, p16 + 4, p16 + 5, p16 + 6, p16 + 7, p16 + 8, p16 + 9, p16 + 10, p16 + 11, p16 + 12, p16 + 13, p16 + 14, p16 + 15, p16 + 16, p16 + 17, p16 + 18, p16 + 19, p16 + 20, p16 + 21, p16 + 22, p16 + 23, p16 + 24, p16 + 25, p16 + 26, p16 + 27, p16 + 28, p16 + 29, p16 + 30, p16 + 31, p16 + 32, p16 + 33, p16 + 34, p16 + 35, p16 + 36, p16 + 37, p16 + 38, p16 + 39, 12};
Line(17) = {11, 8};
Line(18) = {12, 9};
Curve Loop(1) = {-1, 4, 3, -2};
Plane Surface(1) = {1};
Curve Loop(2) = {-5, 1, 7, -6};
Plane Surface(2) = {2};
Curve Loop(3) = {-2, 7, 9, -8, -10, -11};
Plane Surface(3) = {3};
Curve Loop(4) = {-12, 3, 8, -13};
Plane Surface(4) = {4};
Curve Loop(5) = {-4, 5, 14, -12, -15, -16};
Plane Surface(5) = {5};
Curve Loop(6) = {-6, 14, 13, -9};
Plane Surface(6) = {6};
Curve Loop(7) = {-10, -17, 15, 17};
Surface(7) = {7};
Curve Loop(8) = {-11, -18, 16, 18};
Surface(8) = {8};
Surface Loop(1) = {1, 2, 3, 4, 5, 6, 7, 8};
Volume(1) = {1};
Physical Surface("INFLOW") = {1};
Physical Surface("OUTFLOW") = {6};
Physical Surface("OBSTACLE") = {7, 8};
Physical Surface("WALL_Y") = {2, 4};
Physical Surface("WALL_Z") = {3, 5};
Physical Volume("FLUID") = {1};
