cl__1 = 1;
cl__2 = 0.110483;
cl__3 = 0.143893;
Point(1) = {0.987233, -4.117404, 1, cl__1};
Point(2) = {0.987233, -4.117404, 0, cl__1};
Point(3) = {0.987233, 5.425356, 1, cl__1};
Point(4) = {0.987233, 5.425356, 0, cl__1};
Point(5) = {30.078231, -4.117404, 0, cl__1};
Point(6) = {30.078231, -4.117404, 1, cl__1};
Point(7) = {30.078231, 5.425356, 1, cl__1};
Point(8) = {17.744819, -2.172426000000001, 1, cl__2};
Point(9) = {10.443713, 1.559179, 1, cl__3};
Point(10) = {30.078231, 5.425356, 0, cl__1};
Point(11) = {17.744819, -2.172426000000001, 0, cl__2};
Point(12) = {10.443713, 1.559179, 0, cl__3};
Line(1) = {2, 1};
Line(2) = {1, 3};
Line(3) = {4, 3};
Line(4) = {2, 4};
Line(5) = {2, 5};
Line(6) = {5, 6};
Line(7) = {1, 6};
Line(8) = {3, 7};
Line(9) = {6, 7};
p10 = newp;
Point(p10 + 1) = {17.73121670933973, -1.999592509989602, 1};
Point(p10 + 2) = {17.69074477089837, -1.831014754104727, 1};
Point(p10 + 3) = {17.62439973811903, -1.670843676172757, 1};
Point(p10 + 4) = {17.53381524589527, -1.523023219709707, 1};
Point(p10 + 5) = {17.42122178505833, -1.391193214941667, 1};
Point(p10 + 6) = {17.28939178029029, -1.278599754104727, 1};
Point(p10 + 7) = {17.14157132382724, -1.188015261880966, 1};
Point(p10 + 8) = {16.98140024589527, -1.121670229101626, 1};
Point(p10 + 9) = {16.8128224900104, -1.081198290660274, 1};
Point(p10 + 10) = {16.639989, -1.067596, 1};
Point(p10 + 11) = {16.4671555099896, -1.081198290660274, 1};
Point(p10 + 12) = {16.29857775410473, -1.121670229101626, 1};
Point(p10 + 13) = {16.13840667617276, -1.188015261880966, 1};
Point(p10 + 14) = {15.99058621970971, -1.278599754104727, 1};
Point(p10 + 15) = {15.85875621494167, -1.391193214941667, 1};
Point(p10 + 16) = {15.74616275410473, -1.523023219709707, 1};
Point(p10 + 17) = {15.65557826188097, -1.670843676172757, 1};
Point(p10 + 18) = {15.58923322910162, -1.831014754104727, 1};
Point(p10 + 19) = {15.54876129066027, -1.999592509989602, 1};
Point(p10 + 20) = {15.535159, -2.172426, 1};
Point(p10 + 21) = {15.54876129066027, -2.345259490010398, 1};
Point(p10 + 22) = {15.58923322910162, -2.513837245895274, 1};
Point(p10 + 23) = {15.65557826188097, -2.674008323827243, 1};
Point(p10 + 24) = {15.74616275410473, -2.821828780290293, 1};
Point(p10 + 25) = {15.85875621494167, -2.953658785058333, 1};
Point(p10 + 26) = {15.99058621970971, -3.066252245895273, 1};
Point(p10 + 27) = {16.13840667617276, -3.156836738119035, 1};
Point(p10 + 28) = {16.29857775410473, -3.223181770898375, 1};
Point(p10 + 29) = {16.4671555099896, -3.263653709339726, 1};
Point(p10 + 30) = {16.639989, -3.277256, 1};
Point(p10 + 31) = {16.8128224900104, -3.263653709339726, 1};
Point(p10 + 32) = {16.98140024589527, -3.223181770898375, 1};
Point(p10 + 33) = {17.14157132382724, -3.156836738119035, 1};
Point(p10 + 34) = {17.28939178029029, -3.066252245895273, 1};
Point(p10 + 35) = {17.42122178505833, -2.953658785058334, 1};
Point(p10 + 36) = {17.53381524589527, -2.821828780290294, 1};
Point(p10 + 37) = {17.62439973811903, -2.674008323827244, 1};
Point(p10 + 38) = {17.69074477089837, -2.513837245895274, 1};
Point(p10 + 39) = {17.73121670933973, -2.345259490010399, 1};
Spline(10) = {8, p10 + 1, p10 + 2, p10 + 3, p10 + 4, p10 + 5, p10 + 6, p10 + 7, p10 + 8, p10 + 9, p10 + 10, p10 + 11, p10 + 12, p10 + 13, p10 + 14, p10 + 15, p10 + 16, p10 + 17, p10 + 18, p10 + 19, p10 + 20, p10 + 21, p10 + 22, p10 + 23, p10 + 24, p10 + 25, p10 + 26, p10 + 27, p10 + 28, p10 + 29, p10 + 30, p10 + 31, p10 + 32, p10 + 33, p10 + 34, p10 + 35, p10 + 36, p10 + 37, p10 + 38, p10 + 39, 8};
p11 = newp;
Point(p11 + 1) = {10.42599738393256, 1.784277244780339, 1};
Point(p11 + 2) = {10.37328675299259, 2.003832823715943, 1};
Point(p11 + 3) = {10.28687901785037, 2.212439549790226, 1};
Point(p11 + 4) = {10.16890182371594, 2.404960833081208, 1};
Point(p11 + 5) = {10.02226016065276, 2.576656160652759, 1};
Point(p11 + 6) = {9.850564833081208, 2.723297823715943, 1};
Point(p11 + 7) = {9.658043549790225, 2.841275017850368, 1};
Point(p11 + 8) = {9.449436823715942, 2.927682752992586, 1};
Point(p11 + 9) = {9.229881244780339, 2.980393383932562, 1};
Point(p11 + 10) = {9.004783, 2.998109, 1};
Point(p11 + 11) = {8.779684755219661, 2.980393383932562, 1};
Point(p11 + 12) = {8.560129176284057, 2.927682752992586, 1};
Point(p11 + 13) = {8.351522450209774, 2.841275017850368, 1};
Point(p11 + 14) = {8.159001166918792, 2.723297823715943, 1};
Point(p11 + 15) = {7.987305839347241, 2.576656160652759, 1};
Point(p11 + 16) = {7.840664176284057, 2.404960833081208, 1};
Point(p11 + 17) = {7.722686982149631, 2.212439549790227, 1};
Point(p11 + 18) = {7.636279247007415, 2.003832823715944, 1};
Point(p11 + 19) = {7.583568616067438, 1.78427724478034, 1};
Point(p11 + 20) = {7.565853, 1.559179, 1};
Point(p11 + 21) = {7.583568616067438, 1.334080755219661, 1};
Point(p11 + 22) = {7.636279247007415, 1.114525176284057, 1};
Point(p11 + 23) = {7.722686982149631, 0.9059184502097748, 1};
Point(p11 + 24) = {7.840664176284056, 0.7133971669187918, 1};
Point(p11 + 25) = {7.987305839347241, 0.5417018393472413, 1};
Point(p11 + 26) = {8.159001166918792, 0.3950601762840571, 1};
Point(p11 + 27) = {8.351522450209773, 0.2770829821496319, 1};
Point(p11 + 28) = {8.560129176284056, 0.1906752470074147, 1};
Point(p11 + 29) = {8.779684755219661, 0.1379646160674386, 1};
Point(p11 + 30) = {9.004783, 0.1202490000000001, 1};
Point(p11 + 31) = {9.229881244780339, 0.1379646160674384, 1};
Point(p11 + 32) = {9.449436823715942, 0.1906752470074147, 1};
Point(p11 + 33) = {9.658043549790225, 0.2770829821496319, 1};
Point(p11 + 34) = {9.850564833081208, 0.3950601762840567, 1};
Point(p11 + 35) = {10.02226016065276, 0.541701839347241, 1};
Point(p11 + 36) = {10.16890182371594, 0.7133971669187914, 1};
Point(p11 + 37) = {10.28687901785037, 0.9059184502097738, 1};
Point(p11 + 38) = {10.37328675299259, 1.114525176284057, 1};
Point(p11 + 39) = {10.42599738393256, 1.33408075521966, 1};
Spline(11) = {9, p11 + 1, p11 + 2, p11 + 3, p11 + 4, p11 + 5, p11 + 6, p11 + 7, p11 + 8, p11 + 9, p11 + 10, p11 + 11, p11 + 12, p11 + 13, p11 + 14, p11 + 15, p11 + 16, p11 + 17, p11 + 18, p11 + 19, p11 + 20, p11 + 21, p11 + 22, p11 + 23, p11 + 24, p11 + 25, p11 + 26, p11 + 27, p11 + 28, p11 + 29, p11 + 30, p11 + 31, p11 + 32, p11 + 33, p11 + 34, p11 + 35, p11 + 36, p11 + 37, p11 + 38, p11 + 39, 9};
Line(12) = {4, 10};
Line(13) = {10, 7};
Line(14) = {5, 10};
p15 = newp;
Point(p15 + 1) = {17.73121670933973, -1.999592509989602, 0};
Point(p15 + 2) = {17.69074477089837, -1.831014754104727, 0};
Point(p15 + 3) = {17.62439973811903, -1.670843676172757, 0};
Point(p15 + 4) = {17.53381524589527, -1.523023219709707, 0};
Point(p15 + 5) = {17.42122178505833, -1.391193214941667, 0};
Point(p15 + 6) = {17.28939178029029, -1.278599754104727, 0};
Point(p15 + 7) = {17.14157132382724, -1.188015261880966, 0};
Point(p15 + 8) = {16.98140024589527, -1.121670229101626, 0};
Point(p15 + 9) = {16.8128224900104, -1.081198290660274, 0};
Point(p15 + 10) = {16.639989, -1.067596, 0};
Point(p15 + 11) = {16.4671555099896, -1.081198290660274, 0};
Point(p15 + 12) = {16.29857775410473, -1.121670229101626, 0};
Point(p15 + 13) = {16.13840667617276, -1.188015261880966, 0};
Point(p15 + 14) = {15.99058621970971, -1.278599754104727, 0};
Point(p15 + 15) = {15.85875621494167, -1.391193214941667, 0};
Point(p15 + 16) = {15.74616275410473, -1.523023219709707, 0};
Point(p15 + 17) = {15.65557826188097, -1.670843676172757, 0};
Point(p15 + 18) = {15.58923322910162, -1.831014754104727, 0};
Point(p15 + 19) = {15.54876129066027, -1.999592509989602, 0};
Point(p15 + 20) = {15.535159, -2.172426, 0};
Point(p15 + 21) = {15.54876129066027, -2.345259490010398, 0};
Point(p15 + 22) = {15.58923322910162, -2.513837245895274, 0};
Point(p15 + 23) = {15.65557826188097, -2.674008323827243, 0};
Point(p15 + 24) = {15.74616275410473, -2.821828780290293, 0};
Point(p15 + 25) = {15.85875621494167, -2.953658785058333, 0};
Point(p15 + 26) = {15.99058621970971, -3.066252245895273, 0};
Point(p15 + 27) = {16.13840667617276, -3.156836738119035, 0};
Point(p15 + 28) = {16.29857775410473, -3.223181770898375, 0};
Point(p15 + 29) = {16.4671555099896, -3.263653709339726, 0};
Point(p15 + 30) = {16.639989, -3.277256, 0};
Point(p15 + 31) = {16.8128224900104, -3.263653709339726, 0};
Point(p15 + 32) = {16.98140024589527, -3.223181770898375, 0};
Point(p15 + 33) = {17.14157132382724, -3.156836738119035, 0};
Point(p15 + 34) = {17.28939178029029, -3.066252245895273, 0};
Point(p15 + 35) = {17.42122178505833, -2.953658785058334, 0};
Point(p15 + 36) = {17.53381524589527, -2.821828780290294, 0};
Point(p15 + 37) = {17.62439973811903, -2.674008323827244, 0};
Point(p15 + 38) = {17.69074477089837, -2.513837245895274, 0};
Point(p15 + 39) = {17.73121670933973, -2.345259490010399, 0};
Spline(15) = {11, p15 + 1, p15 + 2, p15 + 3, p15 + 4, p15 + 5, p15 + 6, p15 + 7, p15 + 8, p15 + 9, p15 + 10, p15 + 11, p15 + 12, p15 + 13, p15 + 14, p15 + 15, p15 + 16, p15 + 17, p15 + 18, p15 + 19, p15 + 20, p15 + 21, p15 + 22, p15 + 23, p15 + 24, p15 + 25, p15 + 26, p15 + 27, p15 + 28, p15 + 29, p15 + 30, p15 + 31, p15 + 32, p15 + 33, p15 + 34, p15 + 35, p15 + 36, p15 + 37, p15 + 38, p15 + 39, 11};
p16 = newp;
Point(p16 + 1) = {10.42599738393256, 1.784277244780339, 0};
Point(p16 + 2) = {10.37328675299259, 2.003832823715943, 0};
Point(p16 + 3) = {10.28687901785037, 2.212439549790226, 0};
Point(p16 + 4) = {10.16890182371594, 2.404960833081208, 0};
Point(p16 + 5) = {10.02226016065276, 2.576656160652759, 0};
Point(p16 + 6) = {9.850564833081208, 2.723297823715943, 0};
Point(p16 + 7) = {9.658043549790225, 2.841275017850368, 0};
Point(p16 + 8) = {9.449436823715942, 2.927682752992586, 0};
Point(p16 + 9) = {9.229881244780339, 2.980393383932562, 0};
Point(p16 + 10) = {9.004783, 2.998109, 0};
Point(p16 + 11) = {8.779684755219661, 2.980393383932562, 0};
Point(p16 + 12) = {8.560129176284057, 2.927682752992586, 0};
Point(p16 + 13) = {8.351522450209774, 2.841275017850368, 0};
Point(p16 + 14) = {8.159001166918792, 2.723297823715943, 0};
Point(p16 + 15) = {7.987305839347241, 2.576656160652759, 0};
Point(p16 + 16) = {7.840664176284057, 2.404960833081208, 0};
Point(p16 + 17) = {7.722686982149631, 2.212439549790227, 0};
Point(p16 + 18) = {7.636279247007415, 2.003832823715944, 0};
Point(p16 + 19) = {7.583568616067438, 1.78427724478034, 0};
Point(p16 + 20) = {7.565853, 1.559179, 0};
Point(p16 + 21) = {7.583568616067438, 1.334080755219661, 0};
Point(p16 + 22) = {7.636279247007415, 1.114525176284057, 0};
Point(p16 + 23) = {7.722686982149631, 0.9059184502097748, 0};
Point(p16 + 24) = {7.840664176284056, 0.7133971669187918, 0};
Point(p16 + 25) = {7.987305839347241, 0.5417018393472413, 0};
Point(p16 + 26) = {8.159001166918792, 0.3950601762840571, 0};
Point(p16 + 27) = {8.351522450209773, 0.2770829821496319, 0};
Point(p16 + 28) = {8.560129176284056, 0.1906752470074147, 0};
Point(p16 + 29) = {8.779684755219661, 0.1379646160674386, 0};
Point(p16 + 30) = {9.004783, 0.1202490000000001, 0};
Point(p16 + 31) = {9.229881244780339, 0.1379646160674384, 0};
Point(p16 + 32) = {9.449436823715942, 0.1906752470074147, 0};
Point(p16 + 33) = {9.658043549790225, 0.2770829821496319, 0};
Point(p16 + 34) = {9.850564833081208, 0.3950601762840567, 0};
Point(p16 + 35) = {10.02226016065276, 0.541701839347241, 0};
Point(p16 + 36) = {10.16890182371594, 0.7133971669187914, 0};
Point(p16 + 37) = {10.28687901785037, 0.9059184502097738, 0};
Point(p16 + 38) = {10.37328675299259, 1.114525176284057, 0};
Point(p16 + 39) = {10.42599738393256, 1.33408075521966, 0};
Spline(16) = {12, p16 + 1, p16 + 2, p16 + 3, p16 + 4, p16 + 5, p16 + 6, p16 + 7, p16 + 8, p16 + 9, p16 + 10, p16 + 11, p16 + 12, p16 + 13, p16 + 14, p16 + 15, p16 + 16, p16 + 17, p16 + 18, p16 + 19, p16 + 20, p16 + 21, p16 + 22, p16 + 23, p16 + 24, p16 + 25, p16 + 26, p16 + 27, p16 + 28, p16 + 29, p16 + 30, p16 + 31, p16 + 32, p16 + 33, p16 + 34, p16 + 35, p16 + 36, p16 + 37, p16 + 38, p16 + 39, 12};
Line(17) = {11, 8};
Line(18) = {12, 9};
Curve Loop(1) = {-1, 4, 3, -2};
Plane Surface(1) = {1};
Curve Loop(2) = {-5, 1, 7, -6};
Plane Surface(2) = {2};
Curve Loop(3) = {-2, 7, 9, -8, -10, -11};
Plane Surface(3) = {3};
Curve Loop(4) = {-12, 3, 8, -13};
Plane Surface(4) = {4};
Curve Loop(5) = {-4, 5, 14, -12, -15, -16};
Plane Surface(5) = {5};
Curve Loop(6) = {-6, 14, 13, -9};
Plane Surface(6) = {6};
Curve Loop(7) = {-10, -17, 15, 17};
Surface(7) = {7};
Curve Loop(8) = {-11, -18, 16, 18};
Surface(8) = {8};
Surface Loop(1) = {1, 2, 3, 4, 5, 6, 7, 8};
Volume(1) = {1};
Physical Surface("INFLOW") = {1};
Physical Surface("OUTFLOW") = {6};
Physical Surface("OBSTACLE") = {7, 8};
Physical Surface("WALL_Y") = {2, 4};
Physical Surface("WALL_Z") = {3, 5};
Physical Volume("FLUID") = {1};
