cl__1 = 1;
cl__2 = 0.09159299999999999;
cl__3 = 0.099055;
Point(1) = {0.330563, -3.23244, 1, cl__1};
Point(2) = {0.330563, -3.23244, 0, cl__1};
Point(3) = {0.330563, 4.651818, 1, cl__1};
Point(4) = {0.330563, 4.651818, 0, cl__1};
Point(5) = {31.548057, -3.23244, 0, cl__1};
Point(6) = {31.548057, -3.23244, 1, cl__1};
Point(7) = {31.548057, 4.651818, 1, cl__1};
Point(8) = {3.066766, 0.04052799999999978, 1, cl__2};
Point(9) = {20.411809, 1.276384, 1, cl__3};
Point(10) = {31.548057, 4.651818, 0, cl__1};
Point(11) = {3.066766, 0.04052799999999978, 0, cl__2};
Point(12) = {20.411809, 1.276384, 0, cl__3};
Line(1) = {2, 1};
Line(2) = {1, 3};
Line(3) = {4, 3};
Line(4) = {2, 4};
Line(5) = {2, 5};
Line(6) = {5, 6};
Line(7) = {1, 6};
Line(8) = {3, 7};
Line(9) = {6, 7};
p10 = newp;
Point(p10 + 1) = {3.055489369489645, 0.1838111759987637, 1};
Point(p10 + 2) = {3.021937146026736, 0.32356624467484, 1};
Point(p10 + 3) = {2.966935496706376, 0.4563519724169428, 1};
Point(p10 + 4) = {2.89183874467484, 0.5788987339174972, 1};
Point(p10 + 5) = {2.798496021198976, 0.6881890211989756, 1};
Point(p10 + 6) = {2.689205733917497, 0.78153174467484, 1};
Point(p10 + 7) = {2.566658972416943, 0.856628496706376, 1};
Point(p10 + 8) = {2.43387324467484, 0.9116301460267363, 1};
Point(p10 + 9) = {2.294118175998764, 0.9451823694896452, 1};
Point(p10 + 10) = {2.150835, 0.9564590000000001, 1};
Point(p10 + 11) = {2.007551824001236, 0.9451823694896451, 1};
Point(p10 + 12) = {1.86779675532516, 0.9116301460267364, 1};
Point(p10 + 13) = {1.735011027583057, 0.8566284967063761, 1};
Point(p10 + 14) = {1.612464266082503, 0.78153174467484, 1};
Point(p10 + 15) = {1.503173978801024, 0.6881890211989757, 1};
Point(p10 + 16) = {1.40983125532516, 0.5788987339174974, 1};
Point(p10 + 17) = {1.334734503293624, 0.4563519724169429, 1};
Point(p10 + 18) = {1.279732853973264, 0.3235662446748401, 1};
Point(p10 + 19) = {1.246180630510355, 0.1838111759987638, 1};
Point(p10 + 20) = {1.234904, 0.04052800000000011, 1};
Point(p10 + 21) = {1.246180630510355, -0.1027551759987636, 1};
Point(p10 + 22) = {1.279732853973264, -0.2425102446748403, 1};
Point(p10 + 23) = {1.334734503293624, -0.3752959724169423, 1};
Point(p10 + 24) = {1.40983125532516, -0.4978427339174971, 1};
Point(p10 + 25) = {1.503173978801024, -0.6071330211989756, 1};
Point(p10 + 26) = {1.612464266082502, -0.70047574467484, 1};
Point(p10 + 27) = {1.735011027583057, -0.775572496706376, 1};
Point(p10 + 28) = {1.86779675532516, -0.8305741460267363, 1};
Point(p10 + 29) = {2.007551824001236, -0.8641263694896451, 1};
Point(p10 + 30) = {2.150835, -0.875403, 1};
Point(p10 + 31) = {2.294118175998763, -0.8641263694896452, 1};
Point(p10 + 32) = {2.43387324467484, -0.8305741460267364, 1};
Point(p10 + 33) = {2.566658972416942, -0.7755724967063761, 1};
Point(p10 + 34) = {2.689205733917497, -0.7004757446748401, 1};
Point(p10 + 35) = {2.798496021198975, -0.6071330211989758, 1};
Point(p10 + 36) = {2.89183874467484, -0.4978427339174974, 1};
Point(p10 + 37) = {2.966935496706376, -0.375295972416943, 1};
Point(p10 + 38) = {3.021937146026736, -0.2425102446748402, 1};
Point(p10 + 39) = {3.055489369489645, -0.1027551759987639, 1};
Spline(10) = {8, p10 + 1, p10 + 2, p10 + 3, p10 + 4, p10 + 5, p10 + 6, p10 + 7, p10 + 8, p10 + 9, p10 + 10, p10 + 11, p10 + 12, p10 + 13, p10 + 14, p10 + 15, p10 + 16, p10 + 17, p10 + 18, p10 + 19, p10 + 20, p10 + 21, p10 + 22, p10 + 23, p10 + 24, p10 + 25, p10 + 26, p10 + 27, p10 + 28, p10 + 29, p10 + 30, p10 + 31, p10 + 32, p10 + 33, p10 + 34, p10 + 35, p10 + 36, p10 + 37, p10 + 38, p10 + 39, 8};
p11 = newp;
Point(p11 + 1) = {20.39961367346486, 1.431340315780066, 1};
Point(p11 + 2) = {20.36332798327268, 1.582481092795099, 1};
Point(p11 + 3) = {20.30384540354131, 1.726084743507508, 1};
Point(p11 + 4) = {20.2226305927951, 1.858615269443562, 1};
Point(p11 + 5) = {20.12168332921112, 1.976809329211116, 1};
Point(p11 + 6) = {20.00348926944356, 2.077756592795098, 1};
Point(p11 + 7) = {19.87095874350751, 2.158971403541312, 1};
Point(p11 + 8) = {19.7273550927951, 2.21845398327268, 1};
Point(p11 + 9) = {19.57621431578007, 2.254739673464854, 1};
Point(p11 + 10) = {19.421258, 2.266935, 1};
Point(p11 + 11) = {19.26630168421994, 2.254739673464854, 1};
Point(p11 + 12) = {19.1151609072049, 2.21845398327268, 1};
Point(p11 + 13) = {18.9715572564925, 2.158971403541312, 1};
Point(p11 + 14) = {18.83902673055644, 2.077756592795098, 1};
Point(p11 + 15) = {18.72083267078889, 1.976809329211116, 1};
Point(p11 + 16) = {18.6198854072049, 1.858615269443562, 1};
Point(p11 + 17) = {18.53867059645869, 1.726084743507508, 1};
Point(p11 + 18) = {18.47918801672732, 1.582481092795099, 1};
Point(p11 + 19) = {18.44290232653515, 1.431340315780066, 1};
Point(p11 + 20) = {18.430707, 1.276384, 1};
Point(p11 + 21) = {18.44290232653515, 1.121427684219934, 1};
Point(p11 + 22) = {18.47918801672732, 0.9702869072049012, 1};
Point(p11 + 23) = {18.53867059645869, 0.8266832564924926, 1};
Point(p11 + 24) = {18.6198854072049, 0.6941527305564386, 1};
Point(p11 + 25) = {18.72083267078889, 0.5759586707888842, 1};
Point(p11 + 26) = {18.83902673055644, 0.4750114072049015, 1};
Point(p11 + 27) = {18.9715572564925, 0.3937965964586881, 1};
Point(p11 + 28) = {19.1151609072049, 0.3343140167273194, 1};
Point(p11 + 29) = {19.26630168421994, 0.2980283265351458, 1};
Point(p11 + 30) = {19.421258, 0.285833, 1};
Point(p11 + 31) = {19.57621431578007, 0.2980283265351457, 1};
Point(p11 + 32) = {19.7273550927951, 0.3343140167273193, 1};
Point(p11 + 33) = {19.87095874350751, 0.393796596458688, 1};
Point(p11 + 34) = {20.00348926944356, 0.4750114072049013, 1};
Point(p11 + 35) = {20.12168332921112, 0.575958670788884, 1};
Point(p11 + 36) = {20.2226305927951, 0.6941527305564382, 1};
Point(p11 + 37) = {20.30384540354131, 0.826683256492492, 1};
Point(p11 + 38) = {20.36332798327268, 0.9702869072049012, 1};
Point(p11 + 39) = {20.39961367346486, 1.121427684219934, 1};
Spline(11) = {9, p11 + 1, p11 + 2, p11 + 3, p11 + 4, p11 + 5, p11 + 6, p11 + 7, p11 + 8, p11 + 9, p11 + 10, p11 + 11, p11 + 12, p11 + 13, p11 + 14, p11 + 15, p11 + 16, p11 + 17, p11 + 18, p11 + 19, p11 + 20, p11 + 21, p11 + 22, p11 + 23, p11 + 24, p11 + 25, p11 + 26, p11 + 27, p11 + 28, p11 + 29, p11 + 30, p11 + 31, p11 + 32, p11 + 33, p11 + 34, p11 + 35, p11 + 36, p11 + 37, p11 + 38, p11 + 39, 9};
Line(12) = {4, 10};
Line(13) = {10, 7};
Line(14) = {5, 10};
p15 = newp;
Point(p15 + 1) = {3.055489369489645, 0.1838111759987637, 0};
Point(p15 + 2) = {3.021937146026736, 0.32356624467484, 0};
Point(p15 + 3) = {2.966935496706376, 0.4563519724169428, 0};
Point(p15 + 4) = {2.89183874467484, 0.5788987339174972, 0};
Point(p15 + 5) = {2.798496021198976, 0.6881890211989756, 0};
Point(p15 + 6) = {2.689205733917497, 0.78153174467484, 0};
Point(p15 + 7) = {2.566658972416943, 0.856628496706376, 0};
Point(p15 + 8) = {2.43387324467484, 0.9116301460267363, 0};
Point(p15 + 9) = {2.294118175998764, 0.9451823694896452, 0};
Point(p15 + 10) = {2.150835, 0.9564590000000001, 0};
Point(p15 + 11) = {2.007551824001236, 0.9451823694896451, 0};
Point(p15 + 12) = {1.86779675532516, 0.9116301460267364, 0};
Point(p15 + 13) = {1.735011027583057, 0.8566284967063761, 0};
Point(p15 + 14) = {1.612464266082503, 0.78153174467484, 0};
Point(p15 + 15) = {1.503173978801024, 0.6881890211989757, 0};
Point(p15 + 16) = {1.40983125532516, 0.5788987339174974, 0};
Point(p15 + 17) = {1.334734503293624, 0.4563519724169429, 0};
Point(p15 + 18) = {1.279732853973264, 0.3235662446748401, 0};
Point(p15 + 19) = {1.246180630510355, 0.1838111759987638, 0};
Point(p15 + 20) = {1.234904, 0.04052800000000011, 0};
Point(p15 + 21) = {1.246180630510355, -0.1027551759987636, 0};
Point(p15 + 22) = {1.279732853973264, -0.2425102446748403, 0};
Point(p15 + 23) = {1.334734503293624, -0.3752959724169423, 0};
Point(p15 + 24) = {1.40983125532516, -0.4978427339174971, 0};
Point(p15 + 25) = {1.503173978801024, -0.6071330211989756, 0};
Point(p15 + 26) = {1.612464266082502, -0.70047574467484, 0};
Point(p15 + 27) = {1.735011027583057, -0.775572496706376, 0};
Point(p15 + 28) = {1.86779675532516, -0.8305741460267363, 0};
Point(p15 + 29) = {2.007551824001236, -0.8641263694896451, 0};
Point(p15 + 30) = {2.150835, -0.875403, 0};
Point(p15 + 31) = {2.294118175998763, -0.8641263694896452, 0};
Point(p15 + 32) = {2.43387324467484, -0.8305741460267364, 0};
Point(p15 + 33) = {2.566658972416942, -0.7755724967063761, 0};
Point(p15 + 34) = {2.689205733917497, -0.7004757446748401, 0};
Point(p15 + 35) = {2.798496021198975, -0.6071330211989758, 0};
Point(p15 + 36) = {2.89183874467484, -0.4978427339174974, 0};
Point(p15 + 37) = {2.966935496706376, -0.375295972416943, 0};
Point(p15 + 38) = {3.021937146026736, -0.2425102446748402, 0};
Point(p15 + 39) = {3.055489369489645, -0.1027551759987639, 0};
Spline(15) = {11, p15 + 1, p15 + 2, p15 + 3, p15 + 4, p15 + 5, p15 + 6, p15 + 7, p15 + 8, p15 + 9, p15 + 10, p15 + 11, p15 + 12, p15 + 13, p15 + 14, p15 + 15, p15 + 16, p15 + 17, p15 + 18, p15 + 19, p15 + 20, p15 + 21, p15 + 22, p15 + 23, p15 + 24, p15 + 25, p15 + 26, p15 + 27, p15 + 28, p15 + 29, p15 + 30, p15 + 31, p15 + 32, p15 + 33, p15 + 34, p15 + 35, p15 + 36, p15 + 37, p15 + 38, p15 + 39, 11};
p16 = newp;
Point(p16 + 1) = {20.39961367346486, 1.431340315780066, 0};
Point(p16 + 2) = {20.36332798327268, 1.582481092795099, 0};
Point(p16 + 3) = {20.30384540354131, 1.726084743507508, 0};
Point(p16 + 4) = {20.2226305927951, 1.858615269443562, 0};
Point(p16 + 5) = {20.12168332921112, 1.976809329211116, 0};
Point(p16 + 6) = {20.00348926944356, 2.077756592795098, 0};
Point(p16 + 7) = {19.87095874350751, 2.158971403541312, 0};
Point(p16 + 8) = {19.7273550927951, 2.21845398327268, 0};
Point(p16 + 9) = {19.57621431578007, 2.254739673464854, 0};
Point(p16 + 10) = {19.421258, 2.266935, 0};
Point(p16 + 11) = {19.26630168421994, 2.254739673464854, 0};
Point(p16 + 12) = {19.1151609072049, 2.21845398327268, 0};
Point(p16 + 13) = {18.9715572564925, 2.158971403541312, 0};
Point(p16 + 14) = {18.83902673055644, 2.077756592795098, 0};
Point(p16 + 15) = {18.72083267078889, 1.976809329211116, 0};
Point(p16 + 16) = {18.6198854072049, 1.858615269443562, 0};
Point(p16 + 17) = {18.53867059645869, 1.726084743507508, 0};
Point(p16 + 18) = {18.47918801672732, 1.582481092795099, 0};
Point(p16 + 19) = {18.44290232653515, 1.431340315780066, 0};
Point(p16 + 20) = {18.430707, 1.276384, 0};
Point(p16 + 21) = {18.44290232653515, 1.121427684219934, 0};
Point(p16 + 22) = {18.47918801672732, 0.9702869072049012, 0};
Point(p16 + 23) = {18.53867059645869, 0.8266832564924926, 0};
Point(p16 + 24) = {18.6198854072049, 0.6941527305564386, 0};
Point(p16 + 25) = {18.72083267078889, 0.5759586707888842, 0};
Point(p16 + 26) = {18.83902673055644, 0.4750114072049015, 0};
Point(p16 + 27) = {18.9715572564925, 0.3937965964586881, 0};
Point(p16 + 28) = {19.1151609072049, 0.3343140167273194, 0};
Point(p16 + 29) = {19.26630168421994, 0.2980283265351458, 0};
Point(p16 + 30) = {19.421258, 0.285833, 0};
Point(p16 + 31) = {19.57621431578007, 0.2980283265351457, 0};
Point(p16 + 32) = {19.7273550927951, 0.3343140167273193, 0};
Point(p16 + 33) = {19.87095874350751, 0.393796596458688, 0};
Point(p16 + 34) = {20.00348926944356, 0.4750114072049013, 0};
Point(p16 + 35) = {20.12168332921112, 0.575958670788884, 0};
Point(p16 + 36) = {20.2226305927951, 0.6941527305564382, 0};
Point(p16 + 37) = {20.30384540354131, 0.826683256492492, 0};
Point(p16 + 38) = {20.36332798327268, 0.9702869072049012, 0};
Point(p16 + 39) = {20.39961367346486, 1.121427684219934, 0};
Spline(16) = {12, p16 + 1, p16 + 2, p16 + 3, p16 + 4, p16 + 5, p16 + 6, p16 + 7, p16 + 8, p16 + 9, p16 + 10, p16 + 11, p16 + 12, p16 + 13, p16 + 14, p16 + 15, p16 + 16, p16 + 17, p16 + 18, p16 + 19, p16 + 20, p16 + 21, p16 + 22, p16 + 23, p16 + 24, p16 + 25, p16 + 26, p16 + 27, p16 + 28, p16 + 29, p16 + 30, p16 + 31, p16 + 32, p16 + 33, p16 + 34, p16 + 35, p16 + 36, p16 + 37, p16 + 38, p16 + 39, 12};
Line(17) = {11, 8};
Line(18) = {12, 9};
Curve Loop(1) = {-1, 4, 3, -2};
Plane Surface(1) = {1};
Curve Loop(2) = {-5, 1, 7, -6};
Plane Surface(2) = {2};
Curve Loop(3) = {-2, 7, 9, -8, -10, -11};
Plane Surface(3) = {3};
Curve Loop(4) = {-12, 3, 8, -13};
Plane Surface(4) = {4};
Curve Loop(5) = {-4, 5, 14, -12, -15, -16};
Plane Surface(5) = {5};
Curve Loop(6) = {-6, 14, 13, -9};
Plane Surface(6) = {6};
Curve Loop(7) = {-10, -17, 15, 17};
Surface(7) = {7};
Curve Loop(8) = {-11, -18, 16, 18};
Surface(8) = {8};
Surface Loop(1) = {1, 2, 3, 4, 5, 6, 7, 8};
Volume(1) = {1};
Physical Surface("INFLOW") = {1};
Physical Surface("OUTFLOW") = {6};
Physical Surface("OBSTACLE") = {7, 8};
Physical Surface("WALL_Y") = {2, 4};
Physical Surface("WALL_Z") = {3, 5};
Physical Volume("FLUID") = {1};
