cl__1 = 1;
cl__2 = 0.05298;
cl__3 = 0.139218;
Point(1) = {0.639427, -4.004003, 1, cl__1};
Point(2) = {0.639427, -4.004003, 0, cl__1};
Point(3) = {0.639427, 4.054023999999999, 1, cl__1};
Point(4) = {0.639427, 4.054023999999999, 0, cl__1};
Point(5) = {32.750293, -4.004003, 0, cl__1};
Point(6) = {32.750293, -4.004003, 1, cl__1};
Point(7) = {32.750293, 4.054023999999999, 1, cl__1};
Point(8) = {3.377069, -0.6291560000000002, 1, cl__2};
Point(9) = {25.511828, 1.423849, 1, cl__3};
Point(10) = {32.750293, 4.054023999999999, 0, cl__1};
Point(11) = {3.377069, -0.6291560000000002, 0, cl__2};
Point(12) = {25.511828, 1.423849, 0, cl__3};
Line(1) = {2, 1};
Line(2) = {1, 3};
Line(3) = {4, 3};
Line(4) = {2, 4};
Line(5) = {2, 5};
Line(6) = {5, 6};
Line(7) = {1, 6};
Line(8) = {3, 7};
Line(9) = {6, 7};
p10 = newp;
Point(p10 + 1) = {3.370546319782282, -0.5462774897250808, 1};
Point(p10 + 2) = {3.351138889163623, -0.465439723431136, 1};
Point(p10 + 3) = {3.319324583495424, -0.3886331952094874, 1};
Point(p10 + 4) = {3.275886776568864, -0.3177491366912047, 1};
Point(p10 + 5) = {3.221895051352289, -0.2545329486477108, 1};
Point(p10 + 6) = {3.158678863308795, -0.2005412234311361, 1};
Point(p10 + 7) = {3.087794804790513, -0.1571034165045754, 1};
Point(p10 + 8) = {3.010988276568864, -0.1252891108363766, 1};
Point(p10 + 9) = {2.930150510274919, -0.1058816802177179, 1};
Point(p10 + 10) = {2.847272, -0.09935900000000009, 1};
Point(p10 + 11) = {2.764393489725081, -0.1058816802177179, 1};
Point(p10 + 12) = {2.683555723431136, -0.1252891108363766, 1};
Point(p10 + 13) = {2.606749195209487, -0.1571034165045753, 1};
Point(p10 + 14) = {2.535865136691204, -0.2005412234311361, 1};
Point(p10 + 15) = {2.472648948647711, -0.2545329486477108, 1};
Point(p10 + 16) = {2.418657223431136, -0.3177491366912046, 1};
Point(p10 + 17) = {2.375219416504575, -0.3886331952094874, 1};
Point(p10 + 18) = {2.343405110836376, -0.465439723431136, 1};
Point(p10 + 19) = {2.323997680217718, -0.5462774897250808, 1};
Point(p10 + 20) = {2.317475, -0.6291559999999999, 1};
Point(p10 + 21) = {2.323997680217718, -0.7120345102749192, 1};
Point(p10 + 22) = {2.343405110836376, -0.7928722765688643, 1};
Point(p10 + 23) = {2.375219416504575, -0.8696788047905124, 1};
Point(p10 + 24) = {2.418657223431136, -0.9405628633087953, 1};
Point(p10 + 25) = {2.472648948647711, -1.003779051352289, 1};
Point(p10 + 26) = {2.535865136691204, -1.057770776568864, 1};
Point(p10 + 27) = {2.606749195209487, -1.101208583495425, 1};
Point(p10 + 28) = {2.683555723431136, -1.133022889163624, 1};
Point(p10 + 29) = {2.764393489725081, -1.152430319782282, 1};
Point(p10 + 30) = {2.847272, -1.158953, 1};
Point(p10 + 31) = {2.930150510274919, -1.152430319782282, 1};
Point(p10 + 32) = {3.010988276568864, -1.133022889163624, 1};
Point(p10 + 33) = {3.087794804790512, -1.101208583495425, 1};
Point(p10 + 34) = {3.158678863308795, -1.057770776568864, 1};
Point(p10 + 35) = {3.221895051352289, -1.003779051352289, 1};
Point(p10 + 36) = {3.275886776568864, -0.9405628633087955, 1};
Point(p10 + 37) = {3.319324583495424, -0.8696788047905128, 1};
Point(p10 + 38) = {3.351138889163623, -0.7928722765688642, 1};
Point(p10 + 39) = {3.370546319782282, -0.7120345102749194, 1};
Spline(10) = {8, p10 + 1, p10 + 2, p10 + 3, p10 + 4, p10 + 5, p10 + 6, p10 + 7, p10 + 8, p10 + 9, p10 + 10, p10 + 11, p10 + 12, p10 + 13, p10 + 14, p10 + 15, p10 + 16, p10 + 17, p10 + 18, p10 + 19, p10 + 20, p10 + 21, p10 + 22, p10 + 23, p10 + 24, p10 + 25, p10 + 26, p10 + 27, p10 + 28, p10 + 29, p10 + 30, p10 + 31, p10 + 32, p10 + 33, p10 + 34, p10 + 35, p10 + 36, p10 + 37, p10 + 38, p10 + 39, 8};
p11 = newp;
Point(p11 + 1) = {25.49468795400974, 1.641633933539709, 1};
Point(p11 + 2) = {25.44368986085579, 1.854056279228914, 1};
Point(p11 + 3) = {25.36008946284456, 2.055885493927402, 1};
Point(p11 + 4) = {25.24594527922892, 2.242151872536535, 1};
Point(p11 + 5) = {25.10406791863229, 2.408268918632288, 1};
Point(p11 + 6) = {24.93795087253654, 2.550146279228914, 1};
Point(p11 + 7) = {24.7516844939274, 2.664290462844562, 1};
Point(p11 + 8) = {24.54985527922891, 2.747890860855787, 1};
Point(p11 + 9) = {24.33743293353971, 2.798888954009739, 1};
Point(p11 + 10) = {24.119648, 2.816029, 1};
Point(p11 + 11) = {23.90186306646029, 2.798888954009739, 1};
Point(p11 + 12) = {23.68944072077109, 2.747890860855787, 1};
Point(p11 + 13) = {23.4876115060726, 2.664290462844562, 1};
Point(p11 + 14) = {23.30134512746347, 2.550146279228914, 1};
Point(p11 + 15) = {23.13522808136771, 2.408268918632288, 1};
Point(p11 + 16) = {22.99335072077109, 2.242151872536535, 1};
Point(p11 + 17) = {22.87920653715544, 2.055885493927402, 1};
Point(p11 + 18) = {22.79560613914422, 1.854056279228914, 1};
Point(p11 + 19) = {22.74460804599026, 1.641633933539709, 1};
Point(p11 + 20) = {22.727468, 1.423849, 1};
Point(p11 + 21) = {22.74460804599026, 1.206064066460292, 1};
Point(p11 + 22) = {22.79560613914422, 0.9936417207710853, 1};
Point(p11 + 23) = {22.87920653715544, 0.7918125060725985, 1};
Point(p11 + 24) = {22.99335072077109, 0.6055461274634648, 1};
Point(p11 + 25) = {23.13522808136771, 0.4394290813677123, 1};
Point(p11 + 26) = {23.30134512746347, 0.2975517207710858, 1};
Point(p11 + 27) = {23.4876115060726, 0.183407537155438, 1};
Point(p11 + 28) = {23.68944072077109, 0.09980713914421302, 1};
Point(p11 + 29) = {23.90186306646029, 0.04880904599026126, 1};
Point(p11 + 30) = {24.119648, 0.03166899999999995, 1};
Point(p11 + 31) = {24.33743293353971, 0.04880904599026104, 1};
Point(p11 + 32) = {24.54985527922891, 0.09980713914421302, 1};
Point(p11 + 33) = {24.7516844939274, 0.183407537155438, 1};
Point(p11 + 34) = {24.93795087253654, 0.2975517207710854, 1};
Point(p11 + 35) = {25.10406791863229, 0.439429081367712, 1};
Point(p11 + 36) = {25.24594527922892, 0.6055461274634644, 1};
Point(p11 + 37) = {25.36008946284456, 0.7918125060725975, 1};
Point(p11 + 38) = {25.44368986085579, 0.9936417207710854, 1};
Point(p11 + 39) = {25.49468795400974, 1.206064066460291, 1};
Spline(11) = {9, p11 + 1, p11 + 2, p11 + 3, p11 + 4, p11 + 5, p11 + 6, p11 + 7, p11 + 8, p11 + 9, p11 + 10, p11 + 11, p11 + 12, p11 + 13, p11 + 14, p11 + 15, p11 + 16, p11 + 17, p11 + 18, p11 + 19, p11 + 20, p11 + 21, p11 + 22, p11 + 23, p11 + 24, p11 + 25, p11 + 26, p11 + 27, p11 + 28, p11 + 29, p11 + 30, p11 + 31, p11 + 32, p11 + 33, p11 + 34, p11 + 35, p11 + 36, p11 + 37, p11 + 38, p11 + 39, 9};
Line(12) = {4, 10};
Line(13) = {10, 7};
Line(14) = {5, 10};
p15 = newp;
Point(p15 + 1) = {3.370546319782282, -0.5462774897250808, 0};
Point(p15 + 2) = {3.351138889163623, -0.465439723431136, 0};
Point(p15 + 3) = {3.319324583495424, -0.3886331952094874, 0};
Point(p15 + 4) = {3.275886776568864, -0.3177491366912047, 0};
Point(p15 + 5) = {3.221895051352289, -0.2545329486477108, 0};
Point(p15 + 6) = {3.158678863308795, -0.2005412234311361, 0};
Point(p15 + 7) = {3.087794804790513, -0.1571034165045754, 0};
Point(p15 + 8) = {3.010988276568864, -0.1252891108363766, 0};
Point(p15 + 9) = {2.930150510274919, -0.1058816802177179, 0};
Point(p15 + 10) = {2.847272, -0.09935900000000009, 0};
Point(p15 + 11) = {2.764393489725081, -0.1058816802177179, 0};
Point(p15 + 12) = {2.683555723431136, -0.1252891108363766, 0};
Point(p15 + 13) = {2.606749195209487, -0.1571034165045753, 0};
Point(p15 + 14) = {2.535865136691204, -0.2005412234311361, 0};
Point(p15 + 15) = {2.472648948647711, -0.2545329486477108, 0};
Point(p15 + 16) = {2.418657223431136, -0.3177491366912046, 0};
Point(p15 + 17) = {2.375219416504575, -0.3886331952094874, 0};
Point(p15 + 18) = {2.343405110836376, -0.465439723431136, 0};
Point(p15 + 19) = {2.323997680217718, -0.5462774897250808, 0};
Point(p15 + 20) = {2.317475, -0.6291559999999999, 0};
Point(p15 + 21) = {2.323997680217718, -0.7120345102749192, 0};
Point(p15 + 22) = {2.343405110836376, -0.7928722765688643, 0};
Point(p15 + 23) = {2.375219416504575, -0.8696788047905124, 0};
Point(p15 + 24) = {2.418657223431136, -0.9405628633087953, 0};
Point(p15 + 25) = {2.472648948647711, -1.003779051352289, 0};
Point(p15 + 26) = {2.535865136691204, -1.057770776568864, 0};
Point(p15 + 27) = {2.606749195209487, -1.101208583495425, 0};
Point(p15 + 28) = {2.683555723431136, -1.133022889163624, 0};
Point(p15 + 29) = {2.764393489725081, -1.152430319782282, 0};
Point(p15 + 30) = {2.847272, -1.158953, 0};
Point(p15 + 31) = {2.930150510274919, -1.152430319782282, 0};
Point(p15 + 32) = {3.010988276568864, -1.133022889163624, 0};
Point(p15 + 33) = {3.087794804790512, -1.101208583495425, 0};
Point(p15 + 34) = {3.158678863308795, -1.057770776568864, 0};
Point(p15 + 35) = {3.221895051352289, -1.003779051352289, 0};
Point(p15 + 36) = {3.275886776568864, -0.9405628633087955, 0};
Point(p15 + 37) = {3.319324583495424, -0.8696788047905128, 0};
Point(p15 + 38) = {3.351138889163623, -0.7928722765688642, 0};
Point(p15 + 39) = {3.370546319782282, -0.7120345102749194, 0};
Spline(15) = {11, p15 + 1, p15 + 2, p15 + 3, p15 + 4, p15 + 5, p15 + 6, p15 + 7, p15 + 8, p15 + 9, p15 + 10, p15 + 11, p15 + 12, p15 + 13, p15 + 14, p15 + 15, p15 + 16, p15 + 17, p15 + 18, p15 + 19, p15 + 20, p15 + 21, p15 + 22, p15 + 23, p15 + 24, p15 + 25, p15 + 26, p15 + 27, p15 + 28, p15 + 29, p15 + 30, p15 + 31, p15 + 32, p15 + 33, p15 + 34, p15 + 35, p15 + 36, p15 + 37, p15 + 38, p15 + 39, 11};
p16 = newp;
Point(p16 + 1) = {25.49468795400974, 1.641633933539709, 0};
Point(p16 + 2) = {25.44368986085579, 1.854056279228914, 0};
Point(p16 + 3) = {25.36008946284456, 2.055885493927402, 0};
Point(p16 + 4) = {25.24594527922892, 2.242151872536535, 0};
Point(p16 + 5) = {25.10406791863229, 2.408268918632288, 0};
Point(p16 + 6) = {24.93795087253654, 2.550146279228914, 0};
Point(p16 + 7) = {24.7516844939274, 2.664290462844562, 0};
Point(p16 + 8) = {24.54985527922891, 2.747890860855787, 0};
Point(p16 + 9) = {24.33743293353971, 2.798888954009739, 0};
Point(p16 + 10) = {24.119648, 2.816029, 0};
Point(p16 + 11) = {23.90186306646029, 2.798888954009739, 0};
Point(p16 + 12) = {23.68944072077109, 2.747890860855787, 0};
Point(p16 + 13) = {23.4876115060726, 2.664290462844562, 0};
Point(p16 + 14) = {23.30134512746347, 2.550146279228914, 0};
Point(p16 + 15) = {23.13522808136771, 2.408268918632288, 0};
Point(p16 + 16) = {22.99335072077109, 2.242151872536535, 0};
Point(p16 + 17) = {22.87920653715544, 2.055885493927402, 0};
Point(p16 + 18) = {22.79560613914422, 1.854056279228914, 0};
Point(p16 + 19) = {22.74460804599026, 1.641633933539709, 0};
Point(p16 + 20) = {22.727468, 1.423849, 0};
Point(p16 + 21) = {22.74460804599026, 1.206064066460292, 0};
Point(p16 + 22) = {22.79560613914422, 0.9936417207710853, 0};
Point(p16 + 23) = {22.87920653715544, 0.7918125060725985, 0};
Point(p16 + 24) = {22.99335072077109, 0.6055461274634648, 0};
Point(p16 + 25) = {23.13522808136771, 0.4394290813677123, 0};
Point(p16 + 26) = {23.30134512746347, 0.2975517207710858, 0};
Point(p16 + 27) = {23.4876115060726, 0.183407537155438, 0};
Point(p16 + 28) = {23.68944072077109, 0.09980713914421302, 0};
Point(p16 + 29) = {23.90186306646029, 0.04880904599026126, 0};
Point(p16 + 30) = {24.119648, 0.03166899999999995, 0};
Point(p16 + 31) = {24.33743293353971, 0.04880904599026104, 0};
Point(p16 + 32) = {24.54985527922891, 0.09980713914421302, 0};
Point(p16 + 33) = {24.7516844939274, 0.183407537155438, 0};
Point(p16 + 34) = {24.93795087253654, 0.2975517207710854, 0};
Point(p16 + 35) = {25.10406791863229, 0.439429081367712, 0};
Point(p16 + 36) = {25.24594527922892, 0.6055461274634644, 0};
Point(p16 + 37) = {25.36008946284456, 0.7918125060725975, 0};
Point(p16 + 38) = {25.44368986085579, 0.9936417207710854, 0};
Point(p16 + 39) = {25.49468795400974, 1.206064066460291, 0};
Spline(16) = {12, p16 + 1, p16 + 2, p16 + 3, p16 + 4, p16 + 5, p16 + 6, p16 + 7, p16 + 8, p16 + 9, p16 + 10, p16 + 11, p16 + 12, p16 + 13, p16 + 14, p16 + 15, p16 + 16, p16 + 17, p16 + 18, p16 + 19, p16 + 20, p16 + 21, p16 + 22, p16 + 23, p16 + 24, p16 + 25, p16 + 26, p16 + 27, p16 + 28, p16 + 29, p16 + 30, p16 + 31, p16 + 32, p16 + 33, p16 + 34, p16 + 35, p16 + 36, p16 + 37, p16 + 38, p16 + 39, 12};
Line(17) = {11, 8};
Line(18) = {12, 9};
Curve Loop(1) = {-1, 4, 3, -2};
Plane Surface(1) = {1};
Curve Loop(2) = {-5, 1, 7, -6};
Plane Surface(2) = {2};
Curve Loop(3) = {-2, 7, 9, -8, -10, -11};
Plane Surface(3) = {3};
Curve Loop(4) = {-12, 3, 8, -13};
Plane Surface(4) = {4};
Curve Loop(5) = {-4, 5, 14, -12, -15, -16};
Plane Surface(5) = {5};
Curve Loop(6) = {-6, 14, 13, -9};
Plane Surface(6) = {6};
Curve Loop(7) = {-10, -17, 15, 17};
Surface(7) = {7};
Curve Loop(8) = {-11, -18, 16, 18};
Surface(8) = {8};
Surface Loop(1) = {1, 2, 3, 4, 5, 6, 7, 8};
Volume(1) = {1};
Physical Surface("INFLOW") = {1};
Physical Surface("OUTFLOW") = {6};
Physical Surface("OBSTACLE") = {7, 8};
Physical Surface("WALL_Y") = {2, 4};
Physical Surface("WALL_Z") = {3, 5};
Physical Volume("FLUID") = {1};
