cl__1 = 3.971256;
cl__2 = 0.9208769999999999;
cl__3 = 0.925469;
cl__4 = 0.102946;
Point(1) = {0.605095, -3.535955, 1, cl__1};
Point(2) = {0.605095, -3.535955, 0, cl__1};
Point(3) = {0.605095, 4.894078, 1, cl__1};
Point(4) = {0.605095, 4.894078, 0, cl__1};
Point(5) = {39.488235, -3.535955, 0, cl__2};
Point(6) = {39.488235, -3.535955, 1, cl__2};
Point(7) = {39.488235, 4.894078, 1, cl__3};
Point(8) = {31.162319, 0.6231629999999997, 1, cl__4};
Point(9) = {39.488235, 4.894078, 0, cl__3};
Point(10) = {31.162319, 0.6231629999999997, 0, cl__4};
Line(1) = {2, 1};
Line(2) = {1, 3};
Line(3) = {4, 3};
Line(4) = {2, 4};
Line(5) = {2, 5};
Line(6) = {5, 6};
Line(7) = {1, 6};
Line(8) = {3, 7};
Line(9) = {6, 7};
p10 = newp;
Point(p10 + 1) = {31.14964463910907, 0.7842060243803161, 1};
Point(p10 + 2) = {31.11193364126521, 0.9412836350292334, 1};
Point(p10 + 3) = {31.05011457639096, 1.090528059861874, 1};
Point(p10 + 4) = {30.96570963502923, 1.228264405825009, 1};
Point(p10 + 5) = {30.8607971469603, 1.351101146960303, 1};
Point(p10 + 6) = {30.73796040582501, 1.456013635029233, 1};
Point(p10 + 7) = {30.60022405986187, 1.540418576390957, 1};
Point(p10 + 8) = {30.45097963502923, 1.602237641265209, 1};
Point(p10 + 9) = {30.29390202438032, 1.639948639109071, 1};
Point(p10 + 10) = {30.132859, 1.652623, 1};
Point(p10 + 11) = {29.97181597561968, 1.639948639109071, 1};
Point(p10 + 12) = {29.81473836497076, 1.602237641265209, 1};
Point(p10 + 13) = {29.66549394013813, 1.540418576390957, 1};
Point(p10 + 14) = {29.52775759417499, 1.456013635029233, 1};
Point(p10 + 15) = {29.4049208530397, 1.351101146960303, 1};
Point(p10 + 16) = {29.30000836497076, 1.228264405825009, 1};
Point(p10 + 17) = {29.21560342360904, 1.090528059861874, 1};
Point(p10 + 18) = {29.15378435873479, 0.9412836350292335, 1};
Point(p10 + 19) = {29.11607336089093, 0.7842060243803162, 1};
Point(p10 + 20) = {29.103399, 0.6231630000000001, 1};
Point(p10 + 21) = {29.11607336089093, 0.4621199756196841, 1};
Point(p10 + 22) = {29.15378435873479, 0.3050423649707663, 1};
Point(p10 + 23) = {29.21560342360904, 0.1557979401381267, 1};
Point(p10 + 24) = {29.30000836497076, 0.01806159417499076, 1};
Point(p10 + 25) = {29.4049208530397, -0.1047751469603032, 1};
Point(p10 + 26) = {29.52775759417499, -0.2096876350292333, 1};
Point(p10 + 27) = {29.66549394013813, -0.2940925763909571, 1};
Point(p10 + 28) = {29.81473836497076, -0.3559116412652088, 1};
Point(p10 + 29) = {29.97181597561968, -0.3936226391090704, 1};
Point(p10 + 30) = {30.132859, -0.406297, 1};
Point(p10 + 31) = {30.29390202438032, -0.3936226391090706, 1};
Point(p10 + 32) = {30.45097963502923, -0.3559116412652089, 1};
Point(p10 + 33) = {30.60022405986187, -0.2940925763909572, 1};
Point(p10 + 34) = {30.73796040582501, -0.2096876350292335, 1};
Point(p10 + 35) = {30.8607971469603, -0.1047751469603034, 1};
Point(p10 + 36) = {30.96570963502923, 0.01806159417499043, 1};
Point(p10 + 37) = {31.05011457639096, 0.155797940138126, 1};
Point(p10 + 38) = {31.11193364126521, 0.3050423649707664, 1};
Point(p10 + 39) = {31.14964463910907, 0.4621199756196837, 1};
Spline(10) = {8, p10 + 1, p10 + 2, p10 + 3, p10 + 4, p10 + 5, p10 + 6, p10 + 7, p10 + 8, p10 + 9, p10 + 10, p10 + 11, p10 + 12, p10 + 13, p10 + 14, p10 + 15, p10 + 16, p10 + 17, p10 + 18, p10 + 19, p10 + 20, p10 + 21, p10 + 22, p10 + 23, p10 + 24, p10 + 25, p10 + 26, p10 + 27, p10 + 28, p10 + 29, p10 + 30, p10 + 31, p10 + 32, p10 + 33, p10 + 34, p10 + 35, p10 + 36, p10 + 37, p10 + 38, p10 + 39, 8};
Line(11) = {4, 9};
Line(12) = {9, 7};
Line(13) = {5, 9};
p14 = newp;
Point(p14 + 1) = {31.14964463910907, 0.7842060243803161, 0};
Point(p14 + 2) = {31.11193364126521, 0.9412836350292334, 0};
Point(p14 + 3) = {31.05011457639096, 1.090528059861874, 0};
Point(p14 + 4) = {30.96570963502923, 1.228264405825009, 0};
Point(p14 + 5) = {30.8607971469603, 1.351101146960303, 0};
Point(p14 + 6) = {30.73796040582501, 1.456013635029233, 0};
Point(p14 + 7) = {30.60022405986187, 1.540418576390957, 0};
Point(p14 + 8) = {30.45097963502923, 1.602237641265209, 0};
Point(p14 + 9) = {30.29390202438032, 1.639948639109071, 0};
Point(p14 + 10) = {30.132859, 1.652623, 0};
Point(p14 + 11) = {29.97181597561968, 1.639948639109071, 0};
Point(p14 + 12) = {29.81473836497076, 1.602237641265209, 0};
Point(p14 + 13) = {29.66549394013813, 1.540418576390957, 0};
Point(p14 + 14) = {29.52775759417499, 1.456013635029233, 0};
Point(p14 + 15) = {29.4049208530397, 1.351101146960303, 0};
Point(p14 + 16) = {29.30000836497076, 1.228264405825009, 0};
Point(p14 + 17) = {29.21560342360904, 1.090528059861874, 0};
Point(p14 + 18) = {29.15378435873479, 0.9412836350292335, 0};
Point(p14 + 19) = {29.11607336089093, 0.7842060243803162, 0};
Point(p14 + 20) = {29.103399, 0.6231630000000001, 0};
Point(p14 + 21) = {29.11607336089093, 0.4621199756196841, 0};
Point(p14 + 22) = {29.15378435873479, 0.3050423649707663, 0};
Point(p14 + 23) = {29.21560342360904, 0.1557979401381267, 0};
Point(p14 + 24) = {29.30000836497076, 0.01806159417499076, 0};
Point(p14 + 25) = {29.4049208530397, -0.1047751469603032, 0};
Point(p14 + 26) = {29.52775759417499, -0.2096876350292333, 0};
Point(p14 + 27) = {29.66549394013813, -0.2940925763909571, 0};
Point(p14 + 28) = {29.81473836497076, -0.3559116412652088, 0};
Point(p14 + 29) = {29.97181597561968, -0.3936226391090704, 0};
Point(p14 + 30) = {30.132859, -0.406297, 0};
Point(p14 + 31) = {30.29390202438032, -0.3936226391090706, 0};
Point(p14 + 32) = {30.45097963502923, -0.3559116412652089, 0};
Point(p14 + 33) = {30.60022405986187, -0.2940925763909572, 0};
Point(p14 + 34) = {30.73796040582501, -0.2096876350292335, 0};
Point(p14 + 35) = {30.8607971469603, -0.1047751469603034, 0};
Point(p14 + 36) = {30.96570963502923, 0.01806159417499043, 0};
Point(p14 + 37) = {31.05011457639096, 0.155797940138126, 0};
Point(p14 + 38) = {31.11193364126521, 0.3050423649707664, 0};
Point(p14 + 39) = {31.14964463910907, 0.4621199756196837, 0};
Spline(14) = {10, p14 + 1, p14 + 2, p14 + 3, p14 + 4, p14 + 5, p14 + 6, p14 + 7, p14 + 8, p14 + 9, p14 + 10, p14 + 11, p14 + 12, p14 + 13, p14 + 14, p14 + 15, p14 + 16, p14 + 17, p14 + 18, p14 + 19, p14 + 20, p14 + 21, p14 + 22, p14 + 23, p14 + 24, p14 + 25, p14 + 26, p14 + 27, p14 + 28, p14 + 29, p14 + 30, p14 + 31, p14 + 32, p14 + 33, p14 + 34, p14 + 35, p14 + 36, p14 + 37, p14 + 38, p14 + 39, 10};
Line(15) = {10, 8};
Curve Loop(1) = {-1, 4, 3, -2};
Plane Surface(1) = {1};
Curve Loop(2) = {-5, 1, 7, -6};
Plane Surface(2) = {2};
Curve Loop(3) = {-2, 7, 9, -8, -10};
Plane Surface(3) = {3};
Curve Loop(4) = {-11, 3, 8, -12};
Plane Surface(4) = {4};
Curve Loop(5) = {-4, 5, 13, -11, -14};
Plane Surface(5) = {5};
Curve Loop(6) = {-6, 13, 12, -9};
Plane Surface(6) = {6};
Curve Loop(7) = {-10, -15, 14, 15};
Surface(7) = {7};
Surface Loop(1) = {1, 2, 3, 4, 5, 6, 7};
Volume(1) = {1};
Physical Surface("INFLOW") = {1};
Physical Surface("OUTFLOW") = {6};
Physical Surface("OBSTACLE") = {7};
Physical Surface("WALL_Y") = {2, 4};
Physical Surface("WALL_Z") = {3, 5};
Physical Volume("FLUID") = {1};
