cl__1 = 3.877314;
cl__2 = 0.489757;
cl__3 = 0.500257;
cl__4 = 0.05329;
Point(1) = {0.784376, -3.303346, 1, cl__1};
Point(2) = {0.784376, -3.303346, 0, cl__1};
Point(3) = {0.784376, 4.435059000000001, 1, cl__1};
Point(4) = {0.784376, 4.435059000000001, 0, cl__1};
Point(5) = {38.579603, -3.303346, 0, cl__2};
Point(6) = {38.579603, -3.303346, 1, cl__2};
Point(7) = {38.579603, 4.435059000000001, 1, cl__3};
Point(8) = {35.227989, 0.4914649999999999, 1, cl__4};
Point(9) = {38.579603, 4.435059000000001, 0, cl__3};
Point(10) = {35.227989, 0.4914649999999999, 0, cl__4};
Line(1) = {2, 1};
Line(2) = {1, 3};
Line(3) = {4, 3};
Line(4) = {2, 4};
Line(5) = {2, 5};
Line(6) = {5, 6};
Line(7) = {1, 6};
Line(8) = {3, 7};
Line(9) = {6, 7};
p10 = newp;
Point(p10 + 1) = {35.22142809207983, 0.5748292392888691, 1};
Point(p10 + 2) = {35.20190691964672, 0.6561407743363982, 1};
Point(p10 + 3) = {35.16990615875303, 0.7333974452922039, 1};
Point(p10 + 4) = {35.1262137743364, 0.8046969365171635, 1};
Point(p10 + 5) = {35.07190561790787, 0.8682836179078735, 1};
Point(p10 + 6) = {35.00831893651716, 0.9225917743363983, 1};
Point(p10 + 7) = {34.93701944529221, 0.9662841587530295, 1};
Point(p10 + 8) = {34.8597627743364, 0.9982849196467198, 1};
Point(p10 + 9) = {34.77845123928887, 1.01780609207983, 1};
Point(p10 + 10) = {34.695087, 1.024367, 1};
Point(p10 + 11) = {34.61172276071113, 1.01780609207983, 1};
Point(p10 + 12) = {34.53041122566361, 0.9982849196467198, 1};
Point(p10 + 13) = {34.45315455470779, 0.9662841587530295, 1};
Point(p10 + 14) = {34.38185506348284, 0.9225917743363983, 1};
Point(p10 + 15) = {34.31826838209213, 0.8682836179078736, 1};
Point(p10 + 16) = {34.2639602256636, 0.8046969365171636, 1};
Point(p10 + 17) = {34.22026784124697, 0.733397445292204, 1};
Point(p10 + 18) = {34.18826708035328, 0.6561407743363983, 1};
Point(p10 + 19) = {34.16874590792017, 0.5748292392888692, 1};
Point(p10 + 20) = {34.162185, 0.491465, 1};
Point(p10 + 21) = {34.16874590792017, 0.4081007607111309, 1};
Point(p10 + 22) = {34.18826708035328, 0.3267892256636016, 1};
Point(p10 + 23) = {34.22026784124697, 0.2495325547077963, 1};
Point(p10 + 24) = {34.2639602256636, 0.1782330634828365, 1};
Point(p10 + 25) = {34.31826838209213, 0.1146463820921265, 1};
Point(p10 + 26) = {34.38185506348284, 0.06033822566360181, 1};
Point(p10 + 27) = {34.45315455470779, 0.01664584124697044, 1};
Point(p10 + 28) = {34.53041122566361, -0.01535491964671992, 1};
Point(p10 + 29) = {34.61172276071113, -0.03487609207983006, 1};
Point(p10 + 30) = {34.695087, -0.041437, 1};
Point(p10 + 31) = {34.77845123928887, -0.03487609207983006, 1};
Point(p10 + 32) = {34.8597627743364, -0.01535491964671992, 1};
Point(p10 + 33) = {34.93701944529221, 0.01664584124697038, 1};
Point(p10 + 34) = {35.00831893651716, 0.0603382256636017, 1};
Point(p10 + 35) = {35.07190561790787, 0.1146463820921264, 1};
Point(p10 + 36) = {35.1262137743364, 0.1782330634828364, 1};
Point(p10 + 37) = {35.16990615875303, 0.2495325547077959, 1};
Point(p10 + 38) = {35.20190691964672, 0.3267892256636017, 1};
Point(p10 + 39) = {35.22142809207983, 0.4081007607111308, 1};
Spline(10) = {8, p10 + 1, p10 + 2, p10 + 3, p10 + 4, p10 + 5, p10 + 6, p10 + 7, p10 + 8, p10 + 9, p10 + 10, p10 + 11, p10 + 12, p10 + 13, p10 + 14, p10 + 15, p10 + 16, p10 + 17, p10 + 18, p10 + 19, p10 + 20, p10 + 21, p10 + 22, p10 + 23, p10 + 24, p10 + 25, p10 + 26, p10 + 27, p10 + 28, p10 + 29, p10 + 30, p10 + 31, p10 + 32, p10 + 33, p10 + 34, p10 + 35, p10 + 36, p10 + 37, p10 + 38, p10 + 39, 8};
Line(11) = {4, 9};
Line(12) = {9, 7};
Line(13) = {5, 9};
p14 = newp;
Point(p14 + 1) = {35.22142809207983, 0.5748292392888691, 0};
Point(p14 + 2) = {35.20190691964672, 0.6561407743363982, 0};
Point(p14 + 3) = {35.16990615875303, 0.7333974452922039, 0};
Point(p14 + 4) = {35.1262137743364, 0.8046969365171635, 0};
Point(p14 + 5) = {35.07190561790787, 0.8682836179078735, 0};
Point(p14 + 6) = {35.00831893651716, 0.9225917743363983, 0};
Point(p14 + 7) = {34.93701944529221, 0.9662841587530295, 0};
Point(p14 + 8) = {34.8597627743364, 0.9982849196467198, 0};
Point(p14 + 9) = {34.77845123928887, 1.01780609207983, 0};
Point(p14 + 10) = {34.695087, 1.024367, 0};
Point(p14 + 11) = {34.61172276071113, 1.01780609207983, 0};
Point(p14 + 12) = {34.53041122566361, 0.9982849196467198, 0};
Point(p14 + 13) = {34.45315455470779, 0.9662841587530295, 0};
Point(p14 + 14) = {34.38185506348284, 0.9225917743363983, 0};
Point(p14 + 15) = {34.31826838209213, 0.8682836179078736, 0};
Point(p14 + 16) = {34.2639602256636, 0.8046969365171636, 0};
Point(p14 + 17) = {34.22026784124697, 0.733397445292204, 0};
Point(p14 + 18) = {34.18826708035328, 0.6561407743363983, 0};
Point(p14 + 19) = {34.16874590792017, 0.5748292392888692, 0};
Point(p14 + 20) = {34.162185, 0.491465, 0};
Point(p14 + 21) = {34.16874590792017, 0.4081007607111309, 0};
Point(p14 + 22) = {34.18826708035328, 0.3267892256636016, 0};
Point(p14 + 23) = {34.22026784124697, 0.2495325547077963, 0};
Point(p14 + 24) = {34.2639602256636, 0.1782330634828365, 0};
Point(p14 + 25) = {34.31826838209213, 0.1146463820921265, 0};
Point(p14 + 26) = {34.38185506348284, 0.06033822566360181, 0};
Point(p14 + 27) = {34.45315455470779, 0.01664584124697044, 0};
Point(p14 + 28) = {34.53041122566361, -0.01535491964671992, 0};
Point(p14 + 29) = {34.61172276071113, -0.03487609207983006, 0};
Point(p14 + 30) = {34.695087, -0.041437, 0};
Point(p14 + 31) = {34.77845123928887, -0.03487609207983006, 0};
Point(p14 + 32) = {34.8597627743364, -0.01535491964671992, 0};
Point(p14 + 33) = {34.93701944529221, 0.01664584124697038, 0};
Point(p14 + 34) = {35.00831893651716, 0.0603382256636017, 0};
Point(p14 + 35) = {35.07190561790787, 0.1146463820921264, 0};
Point(p14 + 36) = {35.1262137743364, 0.1782330634828364, 0};
Point(p14 + 37) = {35.16990615875303, 0.2495325547077959, 0};
Point(p14 + 38) = {35.20190691964672, 0.3267892256636017, 0};
Point(p14 + 39) = {35.22142809207983, 0.4081007607111308, 0};
Spline(14) = {10, p14 + 1, p14 + 2, p14 + 3, p14 + 4, p14 + 5, p14 + 6, p14 + 7, p14 + 8, p14 + 9, p14 + 10, p14 + 11, p14 + 12, p14 + 13, p14 + 14, p14 + 15, p14 + 16, p14 + 17, p14 + 18, p14 + 19, p14 + 20, p14 + 21, p14 + 22, p14 + 23, p14 + 24, p14 + 25, p14 + 26, p14 + 27, p14 + 28, p14 + 29, p14 + 30, p14 + 31, p14 + 32, p14 + 33, p14 + 34, p14 + 35, p14 + 36, p14 + 37, p14 + 38, p14 + 39, 10};
Line(15) = {10, 8};
Curve Loop(1) = {-1, 4, 3, -2};
Plane Surface(1) = {1};
Curve Loop(2) = {-5, 1, 7, -6};
Plane Surface(2) = {2};
Curve Loop(3) = {-2, 7, 9, -8, -10};
Plane Surface(3) = {3};
Curve Loop(4) = {-11, 3, 8, -12};
Plane Surface(4) = {4};
Curve Loop(5) = {-4, 5, 13, -11, -14};
Plane Surface(5) = {5};
Curve Loop(6) = {-6, 13, 12, -9};
Plane Surface(6) = {6};
Curve Loop(7) = {-10, -15, 14, 15};
Surface(7) = {7};
Surface Loop(1) = {1, 2, 3, 4, 5, 6, 7};
Volume(1) = {1};
Physical Surface("INFLOW") = {1};
Physical Surface("OUTFLOW") = {6};
Physical Surface("OBSTACLE") = {7};
Physical Surface("WALL_Y") = {2, 4};
Physical Surface("WALL_Z") = {3, 5};
Physical Volume("FLUID") = {1};
