cl__1 = 3.043708;
cl__2 = 0.240334;
cl__3 = 0.584203;
cl__4 = 0.118184;
cl__5 = 0.106724;
Point(1) = {0.785382, -4.402565, 1, cl__1};
Point(2) = {0.785382, -4.402565, 0, cl__1};
Point(3) = {0.785382, 5.482823000000001, 1, cl__2};
Point(4) = {0.785382, 5.482823000000001, 0, cl__2};
Point(5) = {30.033074, -4.402565, 0, cl__1};
Point(6) = {30.033074, -4.402565, 1, cl__1};
Point(7) = {30.033074, 5.482823000000001, 1, cl__3};
Point(8) = {29.264027, -1.394647, 1, cl__4};
Point(9) = {25.633597, -0.1772810000000002, 1, cl__5};
Point(10) = {30.033074, 5.482823000000001, 0, cl__3};
Point(11) = {29.264027, -1.394647, 0, cl__4};
Point(12) = {25.633597, -0.1772810000000002, 0, cl__5};
Line(1) = {2, 1};
Line(2) = {1, 3};
Line(3) = {4, 3};
Line(4) = {2, 4};
Line(5) = {2, 5};
Line(6) = {5, 6};
Line(7) = {1, 6};
Line(8) = {3, 7};
Line(9) = {6, 7};
p10 = newp;
Point(p10 + 1) = {29.2494766376956, -1.209767117574714, 1};
Point(p10 + 2) = {29.2061838289922, -1.02943959143589, 1};
Point(p10 + 3) = {29.13521458652069, -0.858104683749813, 1};
Point(p10 + 4) = {29.03831640856411, -0.6999812285716727, 1};
Point(p10 + 5) = {28.91787524985039, -0.5589627501496154, 1};
Point(p10 + 6) = {28.77685677142833, -0.4385215914358895, 1};
Point(p10 + 7) = {28.61873331625019, -0.3416234134793161, 1};
Point(p10 + 8) = {28.44739840856411, -0.2706541710078008, 1};
Point(p10 + 9) = {28.26707088242529, -0.2273613623044046, 1};
Point(p10 + 10) = {28.082191, -0.2128109999999999, 1};
Point(p10 + 11) = {27.89731111757472, -0.2273613623044048, 1};
Point(p10 + 12) = {27.71698359143589, -0.2706541710078008, 1};
Point(p10 + 13) = {27.54564868374981, -0.3416234134793159, 1};
Point(p10 + 14) = {27.38752522857168, -0.4385215914358895, 1};
Point(p10 + 15) = {27.24650675014962, -0.5589627501496153, 1};
Point(p10 + 16) = {27.12606559143589, -0.6999812285716724, 1};
Point(p10 + 17) = {27.02916741347932, -0.8581046837498129, 1};
Point(p10 + 18) = {26.9581981710078, -1.02943959143589, 1};
Point(p10 + 19) = {26.91490536230441, -1.209767117574714, 1};
Point(p10 + 20) = {26.900355, -1.394647, 1};
Point(p10 + 21) = {26.91490536230441, -1.579526882425286, 1};
Point(p10 + 22) = {26.9581981710078, -1.759854408564111, 1};
Point(p10 + 23) = {27.02916741347932, -1.931189316250186, 1};
Point(p10 + 24) = {27.12606559143589, -2.089312771428327, 1};
Point(p10 + 25) = {27.24650675014962, -2.230331249850384, 1};
Point(p10 + 26) = {27.38752522857168, -2.35077240856411, 1};
Point(p10 + 27) = {27.54564868374981, -2.447670586520684, 1};
Point(p10 + 28) = {27.71698359143589, -2.518639828992199, 1};
Point(p10 + 29) = {27.89731111757472, -2.561932637695595, 1};
Point(p10 + 30) = {28.082191, -2.576483, 1};
Point(p10 + 31) = {28.26707088242529, -2.561932637695596, 1};
Point(p10 + 32) = {28.44739840856411, -2.518639828992199, 1};
Point(p10 + 33) = {28.61873331625019, -2.447670586520684, 1};
Point(p10 + 34) = {28.77685677142833, -2.350772408564111, 1};
Point(p10 + 35) = {28.91787524985039, -2.230331249850385, 1};
Point(p10 + 36) = {29.03831640856411, -2.089312771428327, 1};
Point(p10 + 37) = {29.13521458652069, -1.931189316250187, 1};
Point(p10 + 38) = {29.2061838289922, -1.759854408564111, 1};
Point(p10 + 39) = {29.2494766376956, -1.579526882425287, 1};
Spline(10) = {8, p10 + 1, p10 + 2, p10 + 3, p10 + 4, p10 + 5, p10 + 6, p10 + 7, p10 + 8, p10 + 9, p10 + 10, p10 + 11, p10 + 12, p10 + 13, p10 + 14, p10 + 15, p10 + 16, p10 + 17, p10 + 18, p10 + 19, p10 + 20, p10 + 21, p10 + 22, p10 + 23, p10 + 24, p10 + 25, p10 + 26, p10 + 27, p10 + 28, p10 + 29, p10 + 30, p10 + 31, p10 + 32, p10 + 33, p10 + 34, p10 + 35, p10 + 36, p10 + 37, p10 + 38, p10 + 39, 8};
p11 = newp;
Point(p11 + 1) = {25.62045745537011, -0.01032725579260382, 1};
Point(p11 + 2) = {25.58136236067691, 0.1525155331446964, 1};
Point(p11 + 3) = {25.51727436690089, 0.3072376369040328, 1};
Point(p11 + 4) = {25.4297715331447, 0.4500292837976282, 1};
Point(p11 + 5) = {25.32100846958065, 0.5773744695806557, 1};
Point(p11 + 6) = {25.19366328379763, 0.6861375331446965, 1};
Point(p11 + 7) = {25.05087163690403, 0.7736403669008904, 1};
Point(p11 + 8) = {24.8961495331447, 0.8377283606769048, 1};
Point(p11 + 9) = {24.7333067442074, 0.8768234553701173, 1};
Point(p11 + 10) = {24.566353, 0.8899630000000001, 1};
Point(p11 + 11) = {24.3993992557926, 0.8768234553701171, 1};
Point(p11 + 12) = {24.2365564668553, 0.837728360676905, 1};
Point(p11 + 13) = {24.08183436309597, 0.7736403669008906, 1};
Point(p11 + 14) = {23.93904271620237, 0.6861375331446965, 1};
Point(p11 + 15) = {23.81169753041934, 0.5773744695806559, 1};
Point(p11 + 16) = {23.7029344668553, 0.4500292837976283, 1};
Point(p11 + 17) = {23.61543163309911, 0.3072376369040329, 1};
Point(p11 + 18) = {23.55134363932309, 0.1525155331446965, 1};
Point(p11 + 19) = {23.51224854462988, -0.01032725579260371, 1};
Point(p11 + 20) = {23.499109, -0.1772809999999999, 1};
Point(p11 + 21) = {23.51224854462988, -0.344234744207396, 1};
Point(p11 + 22) = {23.55134363932309, -0.5070775331446967, 1};
Point(p11 + 23) = {23.61543163309911, -0.6617996369040323, 1};
Point(p11 + 24) = {23.7029344668553, -0.8045912837976281, 1};
Point(p11 + 25) = {23.81169753041934, -0.9319364695806558, 1};
Point(p11 + 26) = {23.93904271620237, -1.040699533144696, 1};
Point(p11 + 27) = {24.08183436309597, -1.12820236690089, 1};
Point(p11 + 28) = {24.2365564668553, -1.192290360676905, 1};
Point(p11 + 29) = {24.3993992557926, -1.231385455370117, 1};
Point(p11 + 30) = {24.566353, -1.244525, 1};
Point(p11 + 31) = {24.7333067442074, -1.231385455370117, 1};
Point(p11 + 32) = {24.89614953314469, -1.192290360676905, 1};
Point(p11 + 33) = {25.05087163690403, -1.12820236690089, 1};
Point(p11 + 34) = {25.19366328379763, -1.040699533144697, 1};
Point(p11 + 35) = {25.32100846958065, -0.931936469580656, 1};
Point(p11 + 36) = {25.4297715331447, -0.8045912837976285, 1};
Point(p11 + 37) = {25.51727436690089, -0.6617996369040331, 1};
Point(p11 + 38) = {25.58136236067691, -0.5070775331446966, 1};
Point(p11 + 39) = {25.62045745537011, -0.3442347442073964, 1};
Spline(11) = {9, p11 + 1, p11 + 2, p11 + 3, p11 + 4, p11 + 5, p11 + 6, p11 + 7, p11 + 8, p11 + 9, p11 + 10, p11 + 11, p11 + 12, p11 + 13, p11 + 14, p11 + 15, p11 + 16, p11 + 17, p11 + 18, p11 + 19, p11 + 20, p11 + 21, p11 + 22, p11 + 23, p11 + 24, p11 + 25, p11 + 26, p11 + 27, p11 + 28, p11 + 29, p11 + 30, p11 + 31, p11 + 32, p11 + 33, p11 + 34, p11 + 35, p11 + 36, p11 + 37, p11 + 38, p11 + 39, 9};
Line(12) = {4, 10};
Line(13) = {10, 7};
Line(14) = {5, 10};
p15 = newp;
Point(p15 + 1) = {29.2494766376956, -1.209767117574714, 0};
Point(p15 + 2) = {29.2061838289922, -1.02943959143589, 0};
Point(p15 + 3) = {29.13521458652069, -0.858104683749813, 0};
Point(p15 + 4) = {29.03831640856411, -0.6999812285716727, 0};
Point(p15 + 5) = {28.91787524985039, -0.5589627501496154, 0};
Point(p15 + 6) = {28.77685677142833, -0.4385215914358895, 0};
Point(p15 + 7) = {28.61873331625019, -0.3416234134793161, 0};
Point(p15 + 8) = {28.44739840856411, -0.2706541710078008, 0};
Point(p15 + 9) = {28.26707088242529, -0.2273613623044046, 0};
Point(p15 + 10) = {28.082191, -0.2128109999999999, 0};
Point(p15 + 11) = {27.89731111757472, -0.2273613623044048, 0};
Point(p15 + 12) = {27.71698359143589, -0.2706541710078008, 0};
Point(p15 + 13) = {27.54564868374981, -0.3416234134793159, 0};
Point(p15 + 14) = {27.38752522857168, -0.4385215914358895, 0};
Point(p15 + 15) = {27.24650675014962, -0.5589627501496153, 0};
Point(p15 + 16) = {27.12606559143589, -0.6999812285716724, 0};
Point(p15 + 17) = {27.02916741347932, -0.8581046837498129, 0};
Point(p15 + 18) = {26.9581981710078, -1.02943959143589, 0};
Point(p15 + 19) = {26.91490536230441, -1.209767117574714, 0};
Point(p15 + 20) = {26.900355, -1.394647, 0};
Point(p15 + 21) = {26.91490536230441, -1.579526882425286, 0};
Point(p15 + 22) = {26.9581981710078, -1.759854408564111, 0};
Point(p15 + 23) = {27.02916741347932, -1.931189316250186, 0};
Point(p15 + 24) = {27.12606559143589, -2.089312771428327, 0};
Point(p15 + 25) = {27.24650675014962, -2.230331249850384, 0};
Point(p15 + 26) = {27.38752522857168, -2.35077240856411, 0};
Point(p15 + 27) = {27.54564868374981, -2.447670586520684, 0};
Point(p15 + 28) = {27.71698359143589, -2.518639828992199, 0};
Point(p15 + 29) = {27.89731111757472, -2.561932637695595, 0};
Point(p15 + 30) = {28.082191, -2.576483, 0};
Point(p15 + 31) = {28.26707088242529, -2.561932637695596, 0};
Point(p15 + 32) = {28.44739840856411, -2.518639828992199, 0};
Point(p15 + 33) = {28.61873331625019, -2.447670586520684, 0};
Point(p15 + 34) = {28.77685677142833, -2.350772408564111, 0};
Point(p15 + 35) = {28.91787524985039, -2.230331249850385, 0};
Point(p15 + 36) = {29.03831640856411, -2.089312771428327, 0};
Point(p15 + 37) = {29.13521458652069, -1.931189316250187, 0};
Point(p15 + 38) = {29.2061838289922, -1.759854408564111, 0};
Point(p15 + 39) = {29.2494766376956, -1.579526882425287, 0};
Spline(15) = {11, p15 + 1, p15 + 2, p15 + 3, p15 + 4, p15 + 5, p15 + 6, p15 + 7, p15 + 8, p15 + 9, p15 + 10, p15 + 11, p15 + 12, p15 + 13, p15 + 14, p15 + 15, p15 + 16, p15 + 17, p15 + 18, p15 + 19, p15 + 20, p15 + 21, p15 + 22, p15 + 23, p15 + 24, p15 + 25, p15 + 26, p15 + 27, p15 + 28, p15 + 29, p15 + 30, p15 + 31, p15 + 32, p15 + 33, p15 + 34, p15 + 35, p15 + 36, p15 + 37, p15 + 38, p15 + 39, 11};
p16 = newp;
Point(p16 + 1) = {25.62045745537011, -0.01032725579260382, 0};
Point(p16 + 2) = {25.58136236067691, 0.1525155331446964, 0};
Point(p16 + 3) = {25.51727436690089, 0.3072376369040328, 0};
Point(p16 + 4) = {25.4297715331447, 0.4500292837976282, 0};
Point(p16 + 5) = {25.32100846958065, 0.5773744695806557, 0};
Point(p16 + 6) = {25.19366328379763, 0.6861375331446965, 0};
Point(p16 + 7) = {25.05087163690403, 0.7736403669008904, 0};
Point(p16 + 8) = {24.8961495331447, 0.8377283606769048, 0};
Point(p16 + 9) = {24.7333067442074, 0.8768234553701173, 0};
Point(p16 + 10) = {24.566353, 0.8899630000000001, 0};
Point(p16 + 11) = {24.3993992557926, 0.8768234553701171, 0};
Point(p16 + 12) = {24.2365564668553, 0.837728360676905, 0};
Point(p16 + 13) = {24.08183436309597, 0.7736403669008906, 0};
Point(p16 + 14) = {23.93904271620237, 0.6861375331446965, 0};
Point(p16 + 15) = {23.81169753041934, 0.5773744695806559, 0};
Point(p16 + 16) = {23.7029344668553, 0.4500292837976283, 0};
Point(p16 + 17) = {23.61543163309911, 0.3072376369040329, 0};
Point(p16 + 18) = {23.55134363932309, 0.1525155331446965, 0};
Point(p16 + 19) = {23.51224854462988, -0.01032725579260371, 0};
Point(p16 + 20) = {23.499109, -0.1772809999999999, 0};
Point(p16 + 21) = {23.51224854462988, -0.344234744207396, 0};
Point(p16 + 22) = {23.55134363932309, -0.5070775331446967, 0};
Point(p16 + 23) = {23.61543163309911, -0.6617996369040323, 0};
Point(p16 + 24) = {23.7029344668553, -0.8045912837976281, 0};
Point(p16 + 25) = {23.81169753041934, -0.9319364695806558, 0};
Point(p16 + 26) = {23.93904271620237, -1.040699533144696, 0};
Point(p16 + 27) = {24.08183436309597, -1.12820236690089, 0};
Point(p16 + 28) = {24.2365564668553, -1.192290360676905, 0};
Point(p16 + 29) = {24.3993992557926, -1.231385455370117, 0};
Point(p16 + 30) = {24.566353, -1.244525, 0};
Point(p16 + 31) = {24.7333067442074, -1.231385455370117, 0};
Point(p16 + 32) = {24.89614953314469, -1.192290360676905, 0};
Point(p16 + 33) = {25.05087163690403, -1.12820236690089, 0};
Point(p16 + 34) = {25.19366328379763, -1.040699533144697, 0};
Point(p16 + 35) = {25.32100846958065, -0.931936469580656, 0};
Point(p16 + 36) = {25.4297715331447, -0.8045912837976285, 0};
Point(p16 + 37) = {25.51727436690089, -0.6617996369040331, 0};
Point(p16 + 38) = {25.58136236067691, -0.5070775331446966, 0};
Point(p16 + 39) = {25.62045745537011, -0.3442347442073964, 0};
Spline(16) = {12, p16 + 1, p16 + 2, p16 + 3, p16 + 4, p16 + 5, p16 + 6, p16 + 7, p16 + 8, p16 + 9, p16 + 10, p16 + 11, p16 + 12, p16 + 13, p16 + 14, p16 + 15, p16 + 16, p16 + 17, p16 + 18, p16 + 19, p16 + 20, p16 + 21, p16 + 22, p16 + 23, p16 + 24, p16 + 25, p16 + 26, p16 + 27, p16 + 28, p16 + 29, p16 + 30, p16 + 31, p16 + 32, p16 + 33, p16 + 34, p16 + 35, p16 + 36, p16 + 37, p16 + 38, p16 + 39, 12};
Line(17) = {11, 8};
Line(18) = {12, 9};
Curve Loop(1) = {-1, 4, 3, -2};
Plane Surface(1) = {1};
Curve Loop(2) = {-5, 1, 7, -6};
Plane Surface(2) = {2};
Curve Loop(3) = {-2, 7, 9, -8, -10, -11};
Plane Surface(3) = {3};
Curve Loop(4) = {-12, 3, 8, -13};
Plane Surface(4) = {4};
Curve Loop(5) = {-4, 5, 14, -12, -15, -16};
Plane Surface(5) = {5};
Curve Loop(6) = {-6, 14, 13, -9};
Plane Surface(6) = {6};
Curve Loop(7) = {-10, -17, 15, 17};
Surface(7) = {7};
Curve Loop(8) = {-11, -18, 16, 18};
Surface(8) = {8};
Surface Loop(1) = {1, 2, 3, 4, 5, 6, 7, 8};
Volume(1) = {1};
Physical Surface("INFLOW") = {1};
Physical Surface("OUTFLOW") = {6};
Physical Surface("OBSTACLE") = {7, 8};
Physical Surface("WALL_Y") = {2, 4};
Physical Surface("WALL_Z") = {3, 5};
Physical Volume("FLUID") = {1};
