cl__1 = 1;
cl__2 = 0.061345;
cl__3 = 0.117906;
Point(1) = {0.067233, -3.450053, 1, cl__1};
Point(2) = {0.067233, -3.450053, 0, cl__1};
Point(3) = {0.067233, 5.007083, 1, cl__1};
Point(4) = {0.067233, 5.007083, 0, cl__1};
Point(5) = {33.663284, -3.450053, 0, cl__1};
Point(6) = {33.663284, -3.450053, 1, cl__1};
Point(7) = {33.663284, 5.007083, 1, cl__1};
Point(8) = {22.479797, -2.117568, 1, cl__2};
Point(9) = {20.27438, 0.8888009999999996, 1, cl__3};
Point(10) = {33.663284, 5.007083, 0, cl__1};
Point(11) = {22.479797, -2.117568, 0, cl__2};
Point(12) = {20.27438, 0.8888009999999996, 0, cl__3};
Line(1) = {2, 1};
Line(2) = {1, 3};
Line(3) = {4, 3};
Line(4) = {2, 4};
Line(5) = {2, 5};
Line(6) = {5, 6};
Line(7) = {1, 6};
Line(8) = {3, 7};
Line(9) = {6, 7};
p10 = newp;
Point(p10 + 1) = {22.47224442484974, -2.021603433855535, 1};
Point(p10 + 2) = {22.44977266886474, -1.928001833817683, 1};
Point(p10 + 3) = {22.41293506125683, -1.839067981925275, 1};
Point(p10 + 4) = {22.36263866618232, -1.756991724766435, 1};
Point(p10 + 5) = {22.30012194781211, -1.683794052187894, 1};
Point(p10 + 6) = {22.22692427523356, -1.621277333817683, 1};
Point(p10 + 7) = {22.14484801807473, -1.57098093874317, 1};
Point(p10 + 8) = {22.05591416618232, -1.534143331135254, 1};
Point(p10 + 9) = {21.96231256614446, -1.511671575150253, 1};
Point(p10 + 10) = {21.866348, -1.504119, 1};
Point(p10 + 11) = {21.77038343385554, -1.511671575150253, 1};
Point(p10 + 12) = {21.67678183381768, -1.534143331135254, 1};
Point(p10 + 13) = {21.58784798192527, -1.57098093874317, 1};
Point(p10 + 14) = {21.50577172476643, -1.621277333817683, 1};
Point(p10 + 15) = {21.43257405218789, -1.683794052187893, 1};
Point(p10 + 16) = {21.37005733381768, -1.756991724766434, 1};
Point(p10 + 17) = {21.31976093874317, -1.839067981925275, 1};
Point(p10 + 18) = {21.28292333113525, -1.928001833817683, 1};
Point(p10 + 19) = {21.26045157515025, -2.021603433855535, 1};
Point(p10 + 20) = {21.252899, -2.117568, 1};
Point(p10 + 21) = {21.26045157515025, -2.213532566144464, 1};
Point(p10 + 22) = {21.28292333113525, -2.307134166182317, 1};
Point(p10 + 23) = {21.31976093874317, -2.396068018074725, 1};
Point(p10 + 24) = {21.37005733381768, -2.478144275233565, 1};
Point(p10 + 25) = {21.43257405218789, -2.551341947812106, 1};
Point(p10 + 26) = {21.50577172476643, -2.613858666182317, 1};
Point(p10 + 27) = {21.58784798192527, -2.66415506125683, 1};
Point(p10 + 28) = {21.67678183381768, -2.700992668864746, 1};
Point(p10 + 29) = {21.77038343385554, -2.723464424849746, 1};
Point(p10 + 30) = {21.866348, -2.731017, 1};
Point(p10 + 31) = {21.96231256614446, -2.723464424849746, 1};
Point(p10 + 32) = {22.05591416618232, -2.700992668864746, 1};
Point(p10 + 33) = {22.14484801807473, -2.66415506125683, 1};
Point(p10 + 34) = {22.22692427523356, -2.613858666182317, 1};
Point(p10 + 35) = {22.30012194781211, -2.551341947812106, 1};
Point(p10 + 36) = {22.36263866618232, -2.478144275233565, 1};
Point(p10 + 37) = {22.41293506125683, -2.396068018074725, 1};
Point(p10 + 38) = {22.44977266886474, -2.307134166182317, 1};
Point(p10 + 39) = {22.47224442484974, -2.213532566144464, 1};
Spline(10) = {8, p10 + 1, p10 + 2, p10 + 3, p10 + 4, p10 + 5, p10 + 6, p10 + 7, p10 + 8, p10 + 9, p10 + 10, p10 + 11, p10 + 12, p10 + 13, p10 + 14, p10 + 15, p10 + 16, p10 + 17, p10 + 18, p10 + 19, p10 + 20, p10 + 21, p10 + 22, p10 + 23, p10 + 24, p10 + 25, p10 + 26, p10 + 27, p10 + 28, p10 + 29, p10 + 30, p10 + 31, p10 + 32, p10 + 33, p10 + 34, p10 + 35, p10 + 36, p10 + 37, p10 + 38, p10 + 39, 8};
p11 = newp;
Point(p11 + 1) = {20.25986379023878, 1.073246933219265, 1};
Point(p11 + 2) = {20.216672598216, 1.253151195421714, 1};
Point(p11 + 3) = {20.14586993442258, 1.424083946603909, 1};
Point(p11 + 4) = {20.04919919542171, 1.581836255138468, 1};
Point(p11 + 5) = {19.92904073563937, 1.722523735639373, 1};
Point(p11 + 6) = {19.78835325513847, 1.842682195421714, 1};
Point(p11 + 7) = {19.63060094660391, 1.939352934422585, 1};
Point(p11 + 8) = {19.45966819542171, 2.010155598215996, 1};
Point(p11 + 9) = {19.27976393321926, 2.053346790238784, 1};
Point(p11 + 10) = {19.095318, 2.067863, 1};
Point(p11 + 11) = {18.91087206678073, 2.053346790238784, 1};
Point(p11 + 12) = {18.73096780457828, 2.010155598215996, 1};
Point(p11 + 13) = {18.56003505339609, 1.939352934422585, 1};
Point(p11 + 14) = {18.40228274486153, 1.842682195421714, 1};
Point(p11 + 15) = {18.26159526436063, 1.722523735639373, 1};
Point(p11 + 16) = {18.14143680457828, 1.581836255138468, 1};
Point(p11 + 17) = {18.04476606557741, 1.424083946603909, 1};
Point(p11 + 18) = {17.973963401784, 1.253151195421714, 1};
Point(p11 + 19) = {17.93077220976122, 1.073246933219265, 1};
Point(p11 + 20) = {17.916256, 0.8888010000000001, 1};
Point(p11 + 21) = {17.93077220976122, 0.7043550667807355, 1};
Point(p11 + 22) = {17.973963401784, 0.5244508045782853, 1};
Point(p11 + 23) = {18.04476606557741, 0.353518053396091, 1};
Point(p11 + 24) = {18.14143680457828, 0.1957657448615321, 1};
Point(p11 + 25) = {18.26159526436063, 0.05507826436062691, 1};
Point(p11 + 26) = {18.40228274486153, -0.06508019542171428, 1};
Point(p11 + 27) = {18.56003505339609, -0.1617509344225854, 1};
Point(p11 + 28) = {18.73096780457828, -0.2325535982159963, 1};
Point(p11 + 29) = {18.91087206678073, -0.2757447902387844, 1};
Point(p11 + 30) = {19.095318, -0.2902610000000001, 1};
Point(p11 + 31) = {19.27976393321926, -0.2757447902387844, 1};
Point(p11 + 32) = {19.45966819542171, -0.2325535982159965, 1};
Point(p11 + 33) = {19.63060094660391, -0.1617509344225856, 1};
Point(p11 + 34) = {19.78835325513847, -0.0650801954217145, 1};
Point(p11 + 35) = {19.92904073563937, 0.05507826436062668, 1};
Point(p11 + 36) = {20.04919919542171, 0.1957657448615316, 1};
Point(p11 + 37) = {20.14586993442258, 0.3535180533960902, 1};
Point(p11 + 38) = {20.216672598216, 0.5244508045782854, 1};
Point(p11 + 39) = {20.25986379023878, 0.704355066780735, 1};
Spline(11) = {9, p11 + 1, p11 + 2, p11 + 3, p11 + 4, p11 + 5, p11 + 6, p11 + 7, p11 + 8, p11 + 9, p11 + 10, p11 + 11, p11 + 12, p11 + 13, p11 + 14, p11 + 15, p11 + 16, p11 + 17, p11 + 18, p11 + 19, p11 + 20, p11 + 21, p11 + 22, p11 + 23, p11 + 24, p11 + 25, p11 + 26, p11 + 27, p11 + 28, p11 + 29, p11 + 30, p11 + 31, p11 + 32, p11 + 33, p11 + 34, p11 + 35, p11 + 36, p11 + 37, p11 + 38, p11 + 39, 9};
Line(12) = {4, 10};
Line(13) = {10, 7};
Line(14) = {5, 10};
p15 = newp;
Point(p15 + 1) = {22.47224442484974, -2.021603433855535, 0};
Point(p15 + 2) = {22.44977266886474, -1.928001833817683, 0};
Point(p15 + 3) = {22.41293506125683, -1.839067981925275, 0};
Point(p15 + 4) = {22.36263866618232, -1.756991724766435, 0};
Point(p15 + 5) = {22.30012194781211, -1.683794052187894, 0};
Point(p15 + 6) = {22.22692427523356, -1.621277333817683, 0};
Point(p15 + 7) = {22.14484801807473, -1.57098093874317, 0};
Point(p15 + 8) = {22.05591416618232, -1.534143331135254, 0};
Point(p15 + 9) = {21.96231256614446, -1.511671575150253, 0};
Point(p15 + 10) = {21.866348, -1.504119, 0};
Point(p15 + 11) = {21.77038343385554, -1.511671575150253, 0};
Point(p15 + 12) = {21.67678183381768, -1.534143331135254, 0};
Point(p15 + 13) = {21.58784798192527, -1.57098093874317, 0};
Point(p15 + 14) = {21.50577172476643, -1.621277333817683, 0};
Point(p15 + 15) = {21.43257405218789, -1.683794052187893, 0};
Point(p15 + 16) = {21.37005733381768, -1.756991724766434, 0};
Point(p15 + 17) = {21.31976093874317, -1.839067981925275, 0};
Point(p15 + 18) = {21.28292333113525, -1.928001833817683, 0};
Point(p15 + 19) = {21.26045157515025, -2.021603433855535, 0};
Point(p15 + 20) = {21.252899, -2.117568, 0};
Point(p15 + 21) = {21.26045157515025, -2.213532566144464, 0};
Point(p15 + 22) = {21.28292333113525, -2.307134166182317, 0};
Point(p15 + 23) = {21.31976093874317, -2.396068018074725, 0};
Point(p15 + 24) = {21.37005733381768, -2.478144275233565, 0};
Point(p15 + 25) = {21.43257405218789, -2.551341947812106, 0};
Point(p15 + 26) = {21.50577172476643, -2.613858666182317, 0};
Point(p15 + 27) = {21.58784798192527, -2.66415506125683, 0};
Point(p15 + 28) = {21.67678183381768, -2.700992668864746, 0};
Point(p15 + 29) = {21.77038343385554, -2.723464424849746, 0};
Point(p15 + 30) = {21.866348, -2.731017, 0};
Point(p15 + 31) = {21.96231256614446, -2.723464424849746, 0};
Point(p15 + 32) = {22.05591416618232, -2.700992668864746, 0};
Point(p15 + 33) = {22.14484801807473, -2.66415506125683, 0};
Point(p15 + 34) = {22.22692427523356, -2.613858666182317, 0};
Point(p15 + 35) = {22.30012194781211, -2.551341947812106, 0};
Point(p15 + 36) = {22.36263866618232, -2.478144275233565, 0};
Point(p15 + 37) = {22.41293506125683, -2.396068018074725, 0};
Point(p15 + 38) = {22.44977266886474, -2.307134166182317, 0};
Point(p15 + 39) = {22.47224442484974, -2.213532566144464, 0};
Spline(15) = {11, p15 + 1, p15 + 2, p15 + 3, p15 + 4, p15 + 5, p15 + 6, p15 + 7, p15 + 8, p15 + 9, p15 + 10, p15 + 11, p15 + 12, p15 + 13, p15 + 14, p15 + 15, p15 + 16, p15 + 17, p15 + 18, p15 + 19, p15 + 20, p15 + 21, p15 + 22, p15 + 23, p15 + 24, p15 + 25, p15 + 26, p15 + 27, p15 + 28, p15 + 29, p15 + 30, p15 + 31, p15 + 32, p15 + 33, p15 + 34, p15 + 35, p15 + 36, p15 + 37, p15 + 38, p15 + 39, 11};
p16 = newp;
Point(p16 + 1) = {20.25986379023878, 1.073246933219265, 0};
Point(p16 + 2) = {20.216672598216, 1.253151195421714, 0};
Point(p16 + 3) = {20.14586993442258, 1.424083946603909, 0};
Point(p16 + 4) = {20.04919919542171, 1.581836255138468, 0};
Point(p16 + 5) = {19.92904073563937, 1.722523735639373, 0};
Point(p16 + 6) = {19.78835325513847, 1.842682195421714, 0};
Point(p16 + 7) = {19.63060094660391, 1.939352934422585, 0};
Point(p16 + 8) = {19.45966819542171, 2.010155598215996, 0};
Point(p16 + 9) = {19.27976393321926, 2.053346790238784, 0};
Point(p16 + 10) = {19.095318, 2.067863, 0};
Point(p16 + 11) = {18.91087206678073, 2.053346790238784, 0};
Point(p16 + 12) = {18.73096780457828, 2.010155598215996, 0};
Point(p16 + 13) = {18.56003505339609, 1.939352934422585, 0};
Point(p16 + 14) = {18.40228274486153, 1.842682195421714, 0};
Point(p16 + 15) = {18.26159526436063, 1.722523735639373, 0};
Point(p16 + 16) = {18.14143680457828, 1.581836255138468, 0};
Point(p16 + 17) = {18.04476606557741, 1.424083946603909, 0};
Point(p16 + 18) = {17.973963401784, 1.253151195421714, 0};
Point(p16 + 19) = {17.93077220976122, 1.073246933219265, 0};
Point(p16 + 20) = {17.916256, 0.8888010000000001, 0};
Point(p16 + 21) = {17.93077220976122, 0.7043550667807355, 0};
Point(p16 + 22) = {17.973963401784, 0.5244508045782853, 0};
Point(p16 + 23) = {18.04476606557741, 0.353518053396091, 0};
Point(p16 + 24) = {18.14143680457828, 0.1957657448615321, 0};
Point(p16 + 25) = {18.26159526436063, 0.05507826436062691, 0};
Point(p16 + 26) = {18.40228274486153, -0.06508019542171428, 0};
Point(p16 + 27) = {18.56003505339609, -0.1617509344225854, 0};
Point(p16 + 28) = {18.73096780457828, -0.2325535982159963, 0};
Point(p16 + 29) = {18.91087206678073, -0.2757447902387844, 0};
Point(p16 + 30) = {19.095318, -0.2902610000000001, 0};
Point(p16 + 31) = {19.27976393321926, -0.2757447902387844, 0};
Point(p16 + 32) = {19.45966819542171, -0.2325535982159965, 0};
Point(p16 + 33) = {19.63060094660391, -0.1617509344225856, 0};
Point(p16 + 34) = {19.78835325513847, -0.0650801954217145, 0};
Point(p16 + 35) = {19.92904073563937, 0.05507826436062668, 0};
Point(p16 + 36) = {20.04919919542171, 0.1957657448615316, 0};
Point(p16 + 37) = {20.14586993442258, 0.3535180533960902, 0};
Point(p16 + 38) = {20.216672598216, 0.5244508045782854, 0};
Point(p16 + 39) = {20.25986379023878, 0.704355066780735, 0};
Spline(16) = {12, p16 + 1, p16 + 2, p16 + 3, p16 + 4, p16 + 5, p16 + 6, p16 + 7, p16 + 8, p16 + 9, p16 + 10, p16 + 11, p16 + 12, p16 + 13, p16 + 14, p16 + 15, p16 + 16, p16 + 17, p16 + 18, p16 + 19, p16 + 20, p16 + 21, p16 + 22, p16 + 23, p16 + 24, p16 + 25, p16 + 26, p16 + 27, p16 + 28, p16 + 29, p16 + 30, p16 + 31, p16 + 32, p16 + 33, p16 + 34, p16 + 35, p16 + 36, p16 + 37, p16 + 38, p16 + 39, 12};
Line(17) = {11, 8};
Line(18) = {12, 9};
Curve Loop(1) = {-1, 4, 3, -2};
Plane Surface(1) = {1};
Curve Loop(2) = {-5, 1, 7, -6};
Plane Surface(2) = {2};
Curve Loop(3) = {-2, 7, 9, -8, -10, -11};
Plane Surface(3) = {3};
Curve Loop(4) = {-12, 3, 8, -13};
Plane Surface(4) = {4};
Curve Loop(5) = {-4, 5, 14, -12, -15, -16};
Plane Surface(5) = {5};
Curve Loop(6) = {-6, 14, 13, -9};
Plane Surface(6) = {6};
Curve Loop(7) = {-10, -17, 15, 17};
Surface(7) = {7};
Curve Loop(8) = {-11, -18, 16, 18};
Surface(8) = {8};
Surface Loop(1) = {1, 2, 3, 4, 5, 6, 7, 8};
Volume(1) = {1};
Physical Surface("INFLOW") = {1};
Physical Surface("OUTFLOW") = {6};
Physical Surface("OBSTACLE") = {7, 8};
Physical Surface("WALL_Y") = {2, 4};
Physical Surface("WALL_Z") = {3, 5};
Physical Volume("FLUID") = {1};
