cl__1 = 1.32562;
cl__2 = 3.377161;
cl__3 = 0.793855;
cl__4 = 0.09032800000000001;
cl__5 = 0.105834;
Point(1) = {0.661713, -4.346792, 1, cl__1};
Point(2) = {0.661713, -4.346792, 0, cl__1};
Point(3) = {0.661713, 4.843947000000001, 1, cl__2};
Point(4) = {0.661713, 4.843947000000001, 0, cl__2};
Point(5) = {33.457495, -4.346792, 0, cl__3};
Point(6) = {33.457495, -4.346792, 1, cl__3};
Point(7) = {33.457495, 4.843947000000001, 1, cl__2};
Point(8) = {8.354479, 1.317192, 1, cl__4};
Point(9) = {13.935351, 3.115964, 1, cl__5};
Point(10) = {33.457495, 4.843947000000001, 0, cl__2};
Point(11) = {8.354479, 1.317192, 0, cl__4};
Point(12) = {13.935351, 3.115964, 0, cl__5};
Line(1) = {2, 1};
Line(2) = {1, 3};
Line(3) = {4, 3};
Line(4) = {2, 4};
Line(5) = {2, 5};
Line(6) = {5, 6};
Line(7) = {1, 6};
Line(8) = {3, 7};
Line(9) = {6, 7};
p10 = newp;
Point(p10 + 1) = {8.343358161227755, 1.458495654278145, 1};
Point(p10 + 2) = {8.310269476869538, 1.596319943628019, 1};
Point(p10 + 3) = {8.256027700149296, 1.727271176633238, 1};
Point(p10 + 4) = {8.181968443628019, 1.848124899334988, 1};
Point(p10 + 5) = {8.089915291989842, 1.955905291989841, 1};
Point(p10 + 6) = {7.982134899334989, 2.047958443628019, 1};
Point(p10 + 7) = {7.861281176633239, 2.122017700149296, 1};
Point(p10 + 8) = {7.73032994362802, 2.176259476869538, 1};
Point(p10 + 9) = {7.592505654278145, 2.209348161227754, 1};
Point(p10 + 10) = {7.451202, 2.220469, 1};
Point(p10 + 11) = {7.309898345721855, 2.209348161227754, 1};
Point(p10 + 12) = {7.172074056371981, 2.176259476869538, 1};
Point(p10 + 13) = {7.041122823366762, 2.122017700149296, 1};
Point(p10 + 14) = {6.920269100665013, 2.047958443628019, 1};
Point(p10 + 15) = {6.812488708010159, 1.955905291989841, 1};
Point(p10 + 16) = {6.720435556371981, 1.848124899334988, 1};
Point(p10 + 17) = {6.646376299850704, 1.727271176633239, 1};
Point(p10 + 18) = {6.592134523130463, 1.596319943628019, 1};
Point(p10 + 19) = {6.559045838772246, 1.458495654278145, 1};
Point(p10 + 20) = {6.547925, 1.317192, 1};
Point(p10 + 21) = {6.559045838772246, 1.175888345721855, 1};
Point(p10 + 22) = {6.592134523130463, 1.03806405637198, 1};
Point(p10 + 23) = {6.646376299850703, 0.9071128233667618, 1};
Point(p10 + 24) = {6.720435556371981, 0.7862591006650118, 1};
Point(p10 + 25) = {6.812488708010159, 0.6784787080101589, 1};
Point(p10 + 26) = {6.920269100665012, 0.5864255563719806, 1};
Point(p10 + 27) = {7.041122823366762, 0.5123662998507036, 1};
Point(p10 + 28) = {7.172074056371981, 0.4581245231304625, 1};
Point(p10 + 29) = {7.309898345721855, 0.4250358387722457, 1};
Point(p10 + 30) = {7.451202, 0.4139149999999999, 1};
Point(p10 + 31) = {7.592505654278145, 0.4250358387722457, 1};
Point(p10 + 32) = {7.73032994362802, 0.4581245231304625, 1};
Point(p10 + 33) = {7.861281176633239, 0.5123662998507035, 1};
Point(p10 + 34) = {7.982134899334988, 0.5864255563719805, 1};
Point(p10 + 35) = {8.089915291989842, 0.6784787080101586, 1};
Point(p10 + 36) = {8.181968443628019, 0.7862591006650115, 1};
Point(p10 + 37) = {8.256027700149296, 0.9071128233667611, 1};
Point(p10 + 38) = {8.310269476869538, 1.03806405637198, 1};
Point(p10 + 39) = {8.343358161227755, 1.175888345721855, 1};
Spline(10) = {8, p10 + 1, p10 + 2, p10 + 3, p10 + 4, p10 + 5, p10 + 6, p10 + 7, p10 + 8, p10 + 9, p10 + 10, p10 + 11, p10 + 12, p10 + 13, p10 + 14, p10 + 15, p10 + 16, p10 + 17, p10 + 18, p10 + 19, p10 + 20, p10 + 21, p10 + 22, p10 + 23, p10 + 24, p10 + 25, p10 + 26, p10 + 27, p10 + 28, p10 + 29, p10 + 30, p10 + 31, p10 + 32, p10 + 33, p10 + 34, p10 + 35, p10 + 36, p10 + 37, p10 + 38, p10 + 39, 8};
p11 = newp;
Point(p11 + 1) = {13.92232102913882, 3.281525477468538, 1};
Point(p11 + 2) = {13.88355195768188, 3.443010281894759, 1};
Point(p11 + 3) = {13.81999840883561, 3.596442121456351, 1};
Point(p11 + 4) = {13.73322528189476, 3.738042995052225, 1};
Point(p11 + 5) = {13.6253692192281, 3.864326219228095, 1};
Point(p11 + 6) = {13.49908599505223, 3.972182281894759, 1};
Point(p11 + 7) = {13.35748512145635, 4.058955408835613, 1};
Point(p11 + 8) = {13.20405328189476, 4.122508957681878, 1};
Point(p11 + 9) = {13.04256847746854, 4.161278029138821, 1};
Point(p11 + 10) = {12.877007, 4.174308, 1};
Point(p11 + 11) = {12.71144552253146, 4.161278029138821, 1};
Point(p11 + 12) = {12.54996071810524, 4.122508957681879, 1};
Point(p11 + 13) = {12.39652887854365, 4.058955408835613, 1};
Point(p11 + 14) = {12.25492800494778, 3.972182281894759, 1};
Point(p11 + 15) = {12.12864478077191, 3.864326219228095, 1};
Point(p11 + 16) = {12.02078871810524, 3.738042995052225, 1};
Point(p11 + 17) = {11.93401559116439, 3.596442121456351, 1};
Point(p11 + 18) = {11.87046204231812, 3.443010281894759, 1};
Point(p11 + 19) = {11.83169297086118, 3.281525477468538, 1};
Point(p11 + 20) = {11.818663, 3.115964, 1};
Point(p11 + 21) = {11.83169297086118, 2.950402522531462, 1};
Point(p11 + 22) = {11.87046204231812, 2.78891771810524, 1};
Point(p11 + 23) = {11.93401559116439, 2.635485878543649, 1};
Point(p11 + 24) = {12.02078871810524, 2.493885004947775, 1};
Point(p11 + 25) = {12.12864478077191, 2.367601780771905, 1};
Point(p11 + 26) = {12.25492800494778, 2.259745718105241, 1};
Point(p11 + 27) = {12.39652887854365, 2.172972591164386, 1};
Point(p11 + 28) = {12.54996071810524, 2.109419042318122, 1};
Point(p11 + 29) = {12.71144552253146, 2.070649970861179, 1};
Point(p11 + 30) = {12.877007, 2.05762, 1};
Point(p11 + 31) = {13.04256847746854, 2.070649970861179, 1};
Point(p11 + 32) = {13.20405328189476, 2.109419042318122, 1};
Point(p11 + 33) = {13.35748512145635, 2.172972591164386, 1};
Point(p11 + 34) = {13.49908599505223, 2.259745718105241, 1};
Point(p11 + 35) = {13.6253692192281, 2.367601780771905, 1};
Point(p11 + 36) = {13.73322528189476, 2.493885004947774, 1};
Point(p11 + 37) = {13.81999840883561, 2.635485878543649, 1};
Point(p11 + 38) = {13.88355195768188, 2.78891771810524, 1};
Point(p11 + 39) = {13.92232102913882, 2.950402522531462, 1};
Spline(11) = {9, p11 + 1, p11 + 2, p11 + 3, p11 + 4, p11 + 5, p11 + 6, p11 + 7, p11 + 8, p11 + 9, p11 + 10, p11 + 11, p11 + 12, p11 + 13, p11 + 14, p11 + 15, p11 + 16, p11 + 17, p11 + 18, p11 + 19, p11 + 20, p11 + 21, p11 + 22, p11 + 23, p11 + 24, p11 + 25, p11 + 26, p11 + 27, p11 + 28, p11 + 29, p11 + 30, p11 + 31, p11 + 32, p11 + 33, p11 + 34, p11 + 35, p11 + 36, p11 + 37, p11 + 38, p11 + 39, 9};
Line(12) = {4, 10};
Line(13) = {10, 7};
Line(14) = {5, 10};
p15 = newp;
Point(p15 + 1) = {8.343358161227755, 1.458495654278145, 0};
Point(p15 + 2) = {8.310269476869538, 1.596319943628019, 0};
Point(p15 + 3) = {8.256027700149296, 1.727271176633238, 0};
Point(p15 + 4) = {8.181968443628019, 1.848124899334988, 0};
Point(p15 + 5) = {8.089915291989842, 1.955905291989841, 0};
Point(p15 + 6) = {7.982134899334989, 2.047958443628019, 0};
Point(p15 + 7) = {7.861281176633239, 2.122017700149296, 0};
Point(p15 + 8) = {7.73032994362802, 2.176259476869538, 0};
Point(p15 + 9) = {7.592505654278145, 2.209348161227754, 0};
Point(p15 + 10) = {7.451202, 2.220469, 0};
Point(p15 + 11) = {7.309898345721855, 2.209348161227754, 0};
Point(p15 + 12) = {7.172074056371981, 2.176259476869538, 0};
Point(p15 + 13) = {7.041122823366762, 2.122017700149296, 0};
Point(p15 + 14) = {6.920269100665013, 2.047958443628019, 0};
Point(p15 + 15) = {6.812488708010159, 1.955905291989841, 0};
Point(p15 + 16) = {6.720435556371981, 1.848124899334988, 0};
Point(p15 + 17) = {6.646376299850704, 1.727271176633239, 0};
Point(p15 + 18) = {6.592134523130463, 1.596319943628019, 0};
Point(p15 + 19) = {6.559045838772246, 1.458495654278145, 0};
Point(p15 + 20) = {6.547925, 1.317192, 0};
Point(p15 + 21) = {6.559045838772246, 1.175888345721855, 0};
Point(p15 + 22) = {6.592134523130463, 1.03806405637198, 0};
Point(p15 + 23) = {6.646376299850703, 0.9071128233667618, 0};
Point(p15 + 24) = {6.720435556371981, 0.7862591006650118, 0};
Point(p15 + 25) = {6.812488708010159, 0.6784787080101589, 0};
Point(p15 + 26) = {6.920269100665012, 0.5864255563719806, 0};
Point(p15 + 27) = {7.041122823366762, 0.5123662998507036, 0};
Point(p15 + 28) = {7.172074056371981, 0.4581245231304625, 0};
Point(p15 + 29) = {7.309898345721855, 0.4250358387722457, 0};
Point(p15 + 30) = {7.451202, 0.4139149999999999, 0};
Point(p15 + 31) = {7.592505654278145, 0.4250358387722457, 0};
Point(p15 + 32) = {7.73032994362802, 0.4581245231304625, 0};
Point(p15 + 33) = {7.861281176633239, 0.5123662998507035, 0};
Point(p15 + 34) = {7.982134899334988, 0.5864255563719805, 0};
Point(p15 + 35) = {8.089915291989842, 0.6784787080101586, 0};
Point(p15 + 36) = {8.181968443628019, 0.7862591006650115, 0};
Point(p15 + 37) = {8.256027700149296, 0.9071128233667611, 0};
Point(p15 + 38) = {8.310269476869538, 1.03806405637198, 0};
Point(p15 + 39) = {8.343358161227755, 1.175888345721855, 0};
Spline(15) = {11, p15 + 1, p15 + 2, p15 + 3, p15 + 4, p15 + 5, p15 + 6, p15 + 7, p15 + 8, p15 + 9, p15 + 10, p15 + 11, p15 + 12, p15 + 13, p15 + 14, p15 + 15, p15 + 16, p15 + 17, p15 + 18, p15 + 19, p15 + 20, p15 + 21, p15 + 22, p15 + 23, p15 + 24, p15 + 25, p15 + 26, p15 + 27, p15 + 28, p15 + 29, p15 + 30, p15 + 31, p15 + 32, p15 + 33, p15 + 34, p15 + 35, p15 + 36, p15 + 37, p15 + 38, p15 + 39, 11};
p16 = newp;
Point(p16 + 1) = {13.92232102913882, 3.281525477468538, 0};
Point(p16 + 2) = {13.88355195768188, 3.443010281894759, 0};
Point(p16 + 3) = {13.81999840883561, 3.596442121456351, 0};
Point(p16 + 4) = {13.73322528189476, 3.738042995052225, 0};
Point(p16 + 5) = {13.6253692192281, 3.864326219228095, 0};
Point(p16 + 6) = {13.49908599505223, 3.972182281894759, 0};
Point(p16 + 7) = {13.35748512145635, 4.058955408835613, 0};
Point(p16 + 8) = {13.20405328189476, 4.122508957681878, 0};
Point(p16 + 9) = {13.04256847746854, 4.161278029138821, 0};
Point(p16 + 10) = {12.877007, 4.174308, 0};
Point(p16 + 11) = {12.71144552253146, 4.161278029138821, 0};
Point(p16 + 12) = {12.54996071810524, 4.122508957681879, 0};
Point(p16 + 13) = {12.39652887854365, 4.058955408835613, 0};
Point(p16 + 14) = {12.25492800494778, 3.972182281894759, 0};
Point(p16 + 15) = {12.12864478077191, 3.864326219228095, 0};
Point(p16 + 16) = {12.02078871810524, 3.738042995052225, 0};
Point(p16 + 17) = {11.93401559116439, 3.596442121456351, 0};
Point(p16 + 18) = {11.87046204231812, 3.443010281894759, 0};
Point(p16 + 19) = {11.83169297086118, 3.281525477468538, 0};
Point(p16 + 20) = {11.818663, 3.115964, 0};
Point(p16 + 21) = {11.83169297086118, 2.950402522531462, 0};
Point(p16 + 22) = {11.87046204231812, 2.78891771810524, 0};
Point(p16 + 23) = {11.93401559116439, 2.635485878543649, 0};
Point(p16 + 24) = {12.02078871810524, 2.493885004947775, 0};
Point(p16 + 25) = {12.12864478077191, 2.367601780771905, 0};
Point(p16 + 26) = {12.25492800494778, 2.259745718105241, 0};
Point(p16 + 27) = {12.39652887854365, 2.172972591164386, 0};
Point(p16 + 28) = {12.54996071810524, 2.109419042318122, 0};
Point(p16 + 29) = {12.71144552253146, 2.070649970861179, 0};
Point(p16 + 30) = {12.877007, 2.05762, 0};
Point(p16 + 31) = {13.04256847746854, 2.070649970861179, 0};
Point(p16 + 32) = {13.20405328189476, 2.109419042318122, 0};
Point(p16 + 33) = {13.35748512145635, 2.172972591164386, 0};
Point(p16 + 34) = {13.49908599505223, 2.259745718105241, 0};
Point(p16 + 35) = {13.6253692192281, 2.367601780771905, 0};
Point(p16 + 36) = {13.73322528189476, 2.493885004947774, 0};
Point(p16 + 37) = {13.81999840883561, 2.635485878543649, 0};
Point(p16 + 38) = {13.88355195768188, 2.78891771810524, 0};
Point(p16 + 39) = {13.92232102913882, 2.950402522531462, 0};
Spline(16) = {12, p16 + 1, p16 + 2, p16 + 3, p16 + 4, p16 + 5, p16 + 6, p16 + 7, p16 + 8, p16 + 9, p16 + 10, p16 + 11, p16 + 12, p16 + 13, p16 + 14, p16 + 15, p16 + 16, p16 + 17, p16 + 18, p16 + 19, p16 + 20, p16 + 21, p16 + 22, p16 + 23, p16 + 24, p16 + 25, p16 + 26, p16 + 27, p16 + 28, p16 + 29, p16 + 30, p16 + 31, p16 + 32, p16 + 33, p16 + 34, p16 + 35, p16 + 36, p16 + 37, p16 + 38, p16 + 39, 12};
Line(17) = {11, 8};
Line(18) = {12, 9};
Curve Loop(1) = {-1, 4, 3, -2};
Plane Surface(1) = {1};
Curve Loop(2) = {-5, 1, 7, -6};
Plane Surface(2) = {2};
Curve Loop(3) = {-2, 7, 9, -8, -10, -11};
Plane Surface(3) = {3};
Curve Loop(4) = {-12, 3, 8, -13};
Plane Surface(4) = {4};
Curve Loop(5) = {-4, 5, 14, -12, -15, -16};
Plane Surface(5) = {5};
Curve Loop(6) = {-6, 14, 13, -9};
Plane Surface(6) = {6};
Curve Loop(7) = {-10, -17, 15, 17};
Surface(7) = {7};
Curve Loop(8) = {-11, -18, 16, 18};
Surface(8) = {8};
Surface Loop(1) = {1, 2, 3, 4, 5, 6, 7, 8};
Volume(1) = {1};
Physical Surface("INFLOW") = {1};
Physical Surface("OUTFLOW") = {6};
Physical Surface("OBSTACLE") = {7, 8};
Physical Surface("WALL_Y") = {2, 4};
Physical Surface("WALL_Z") = {3, 5};
Physical Volume("FLUID") = {1};
