cl__1 = 1.390072;
cl__2 = 1.23593;
cl__3 = 3.312419;
cl__4 = 0.138376;
Point(1) = {0.247512, -4.575603, 1, cl__1};
Point(2) = {0.247512, -4.575603, 0, cl__1};
Point(3) = {0.247512, 5.267923000000001, 1, cl__2};
Point(4) = {0.247512, 5.267923000000001, 0, cl__2};
Point(5) = {32.756497, -4.575603, 0, cl__3};
Point(6) = {32.756497, -4.575603, 1, cl__3};
Point(7) = {32.756497, 5.267923000000001, 1, cl__3};
Point(8) = {15.116611, 2.618904, 1, cl__4};
Point(9) = {32.756497, 5.267923000000001, 0, cl__3};
Point(10) = {15.116611, 2.618904, 0, cl__4};
Line(1) = {2, 1};
Line(2) = {1, 3};
Line(3) = {4, 3};
Line(4) = {2, 4};
Line(5) = {2, 5};
Line(6) = {5, 6};
Line(7) = {1, 6};
Line(8) = {3, 7};
Line(9) = {6, 7};
p10 = newp;
Point(p10 + 1) = {15.09957465511691, 2.835371286040675, 1};
Point(p10 + 2) = {15.04888511181903, 3.046508429085294, 1};
Point(p10 + 3) = {14.96579051489132, 3.247116531948096, 1};
Point(p10 + 4) = {14.85233692908529, 3.432255957356476, 1};
Point(p10 + 5) = {14.71131795821435, 3.597367958214353, 1};
Point(p10 + 6) = {14.54620595735648, 3.738386929085294, 1};
Point(p10 + 7) = {14.3610665319481, 3.851840514891324, 1};
Point(p10 + 8) = {14.16045842908529, 3.934935111819033, 1};
Point(p10 + 9) = {13.94932128604068, 3.985624655116906, 1};
Point(p10 + 10) = {13.732854, 4.002661, 1};
Point(p10 + 11) = {13.51638671395932, 3.985624655116906, 1};
Point(p10 + 12) = {13.30524957091471, 3.934935111819033, 1};
Point(p10 + 13) = {13.1046414680519, 3.851840514891324, 1};
Point(p10 + 14) = {12.91950204264352, 3.738386929085294, 1};
Point(p10 + 15) = {12.75439004178565, 3.597367958214353, 1};
Point(p10 + 16) = {12.61337107091471, 3.432255957356476, 1};
Point(p10 + 17) = {12.49991748510868, 3.247116531948096, 1};
Point(p10 + 18) = {12.41682288818097, 3.046508429085294, 1};
Point(p10 + 19) = {12.36613334488309, 2.835371286040675, 1};
Point(p10 + 20) = {12.349097, 2.618904, 1};
Point(p10 + 21) = {12.36613334488309, 2.402436713959326, 1};
Point(p10 + 22) = {12.41682288818097, 2.191299570914706, 1};
Point(p10 + 23) = {12.49991748510868, 1.990691468051905, 1};
Point(p10 + 24) = {12.61337107091471, 1.805552042643525, 1};
Point(p10 + 25) = {12.75439004178565, 1.640440041785647, 1};
Point(p10 + 26) = {12.91950204264352, 1.499421070914706, 1};
Point(p10 + 27) = {13.1046414680519, 1.385967485108677, 1};
Point(p10 + 28) = {13.30524957091471, 1.302872888180967, 1};
Point(p10 + 29) = {13.51638671395932, 1.252183344883094, 1};
Point(p10 + 30) = {13.732854, 1.235147, 1};
Point(p10 + 31) = {13.94932128604068, 1.252183344883094, 1};
Point(p10 + 32) = {14.16045842908529, 1.302872888180967, 1};
Point(p10 + 33) = {14.3610665319481, 1.385967485108677, 1};
Point(p10 + 34) = {14.54620595735648, 1.499421070914706, 1};
Point(p10 + 35) = {14.71131795821435, 1.640440041785646, 1};
Point(p10 + 36) = {14.85233692908529, 1.805552042643524, 1};
Point(p10 + 37) = {14.96579051489132, 1.990691468051904, 1};
Point(p10 + 38) = {15.04888511181903, 2.191299570914706, 1};
Point(p10 + 39) = {15.09957465511691, 2.402436713959325, 1};
Spline(10) = {8, p10 + 1, p10 + 2, p10 + 3, p10 + 4, p10 + 5, p10 + 6, p10 + 7, p10 + 8, p10 + 9, p10 + 10, p10 + 11, p10 + 12, p10 + 13, p10 + 14, p10 + 15, p10 + 16, p10 + 17, p10 + 18, p10 + 19, p10 + 20, p10 + 21, p10 + 22, p10 + 23, p10 + 24, p10 + 25, p10 + 26, p10 + 27, p10 + 28, p10 + 29, p10 + 30, p10 + 31, p10 + 32, p10 + 33, p10 + 34, p10 + 35, p10 + 36, p10 + 37, p10 + 38, p10 + 39, 8};
Line(11) = {4, 9};
Line(12) = {9, 7};
Line(13) = {5, 9};
p14 = newp;
Point(p14 + 1) = {15.09957465511691, 2.835371286040675, 0};
Point(p14 + 2) = {15.04888511181903, 3.046508429085294, 0};
Point(p14 + 3) = {14.96579051489132, 3.247116531948096, 0};
Point(p14 + 4) = {14.85233692908529, 3.432255957356476, 0};
Point(p14 + 5) = {14.71131795821435, 3.597367958214353, 0};
Point(p14 + 6) = {14.54620595735648, 3.738386929085294, 0};
Point(p14 + 7) = {14.3610665319481, 3.851840514891324, 0};
Point(p14 + 8) = {14.16045842908529, 3.934935111819033, 0};
Point(p14 + 9) = {13.94932128604068, 3.985624655116906, 0};
Point(p14 + 10) = {13.732854, 4.002661, 0};
Point(p14 + 11) = {13.51638671395932, 3.985624655116906, 0};
Point(p14 + 12) = {13.30524957091471, 3.934935111819033, 0};
Point(p14 + 13) = {13.1046414680519, 3.851840514891324, 0};
Point(p14 + 14) = {12.91950204264352, 3.738386929085294, 0};
Point(p14 + 15) = {12.75439004178565, 3.597367958214353, 0};
Point(p14 + 16) = {12.61337107091471, 3.432255957356476, 0};
Point(p14 + 17) = {12.49991748510868, 3.247116531948096, 0};
Point(p14 + 18) = {12.41682288818097, 3.046508429085294, 0};
Point(p14 + 19) = {12.36613334488309, 2.835371286040675, 0};
Point(p14 + 20) = {12.349097, 2.618904, 0};
Point(p14 + 21) = {12.36613334488309, 2.402436713959326, 0};
Point(p14 + 22) = {12.41682288818097, 2.191299570914706, 0};
Point(p14 + 23) = {12.49991748510868, 1.990691468051905, 0};
Point(p14 + 24) = {12.61337107091471, 1.805552042643525, 0};
Point(p14 + 25) = {12.75439004178565, 1.640440041785647, 0};
Point(p14 + 26) = {12.91950204264352, 1.499421070914706, 0};
Point(p14 + 27) = {13.1046414680519, 1.385967485108677, 0};
Point(p14 + 28) = {13.30524957091471, 1.302872888180967, 0};
Point(p14 + 29) = {13.51638671395932, 1.252183344883094, 0};
Point(p14 + 30) = {13.732854, 1.235147, 0};
Point(p14 + 31) = {13.94932128604068, 1.252183344883094, 0};
Point(p14 + 32) = {14.16045842908529, 1.302872888180967, 0};
Point(p14 + 33) = {14.3610665319481, 1.385967485108677, 0};
Point(p14 + 34) = {14.54620595735648, 1.499421070914706, 0};
Point(p14 + 35) = {14.71131795821435, 1.640440041785646, 0};
Point(p14 + 36) = {14.85233692908529, 1.805552042643524, 0};
Point(p14 + 37) = {14.96579051489132, 1.990691468051904, 0};
Point(p14 + 38) = {15.04888511181903, 2.191299570914706, 0};
Point(p14 + 39) = {15.09957465511691, 2.402436713959325, 0};
Spline(14) = {10, p14 + 1, p14 + 2, p14 + 3, p14 + 4, p14 + 5, p14 + 6, p14 + 7, p14 + 8, p14 + 9, p14 + 10, p14 + 11, p14 + 12, p14 + 13, p14 + 14, p14 + 15, p14 + 16, p14 + 17, p14 + 18, p14 + 19, p14 + 20, p14 + 21, p14 + 22, p14 + 23, p14 + 24, p14 + 25, p14 + 26, p14 + 27, p14 + 28, p14 + 29, p14 + 30, p14 + 31, p14 + 32, p14 + 33, p14 + 34, p14 + 35, p14 + 36, p14 + 37, p14 + 38, p14 + 39, 10};
Line(15) = {10, 8};
Curve Loop(1) = {-1, 4, 3, -2};
Plane Surface(1) = {1};
Curve Loop(2) = {-5, 1, 7, -6};
Plane Surface(2) = {2};
Curve Loop(3) = {-2, 7, 9, -8, -10};
Plane Surface(3) = {3};
Curve Loop(4) = {-11, 3, 8, -12};
Plane Surface(4) = {4};
Curve Loop(5) = {-4, 5, 13, -11, -14};
Plane Surface(5) = {5};
Curve Loop(6) = {-6, 13, 12, -9};
Plane Surface(6) = {6};
Curve Loop(7) = {-10, -15, 14, 15};
Surface(7) = {7};
Surface Loop(1) = {1, 2, 3, 4, 5, 6, 7};
Volume(1) = {1};
Physical Surface("INFLOW") = {1};
Physical Surface("OUTFLOW") = {6};
Physical Surface("OBSTACLE") = {7};
Physical Surface("WALL_Y") = {2, 4};
Physical Surface("WALL_Z") = {3, 5};
Physical Volume("FLUID") = {1};
