cl__1 = 1.237858;
cl__2 = 1.347674;
cl__3 = 3.674053;
cl__4 = 0.135208;
cl__5 = 0.051908;
Point(1) = {0.617965, -3.707332, 1, cl__1};
Point(2) = {0.617965, -3.707332, 0, cl__1};
Point(3) = {0.617965, 3.813503, 1, cl__2};
Point(4) = {0.617965, 3.813503, 0, cl__2};
Point(5) = {36.547579, -3.707332, 0, cl__1};
Point(6) = {36.547579, -3.707332, 1, cl__1};
Point(7) = {36.547579, 3.813503, 1, cl__3};
Point(8) = {15.556122, -1.719937, 1, cl__4};
Point(9) = {24.644148, 2.739707, 1, cl__5};
Point(10) = {36.547579, 3.813503, 0, cl__3};
Point(11) = {15.556122, -1.719937, 0, cl__4};
Point(12) = {24.644148, 2.739707, 0, cl__5};
Line(1) = {2, 1};
Line(2) = {1, 3};
Line(3) = {4, 3};
Line(4) = {2, 4};
Line(5) = {2, 5};
Line(6) = {5, 6};
Line(7) = {1, 6};
Line(8) = {3, 7};
Line(9) = {6, 7};
p10 = newp;
Point(p10 + 1) = {15.5394756146169, -1.50842461920501, 1};
Point(p10 + 2) = {15.4899463477219, -1.302120375194538, 1};
Point(p10 + 3) = {15.40875377424418, -1.106104163140655, 1};
Point(p10 + 4) = {15.29789712480546, -0.9252025527246361, 1};
Point(p10 + 5) = {15.16010605802705, -0.7638699419729494, 1};
Point(p10 + 6) = {14.99877344727536, -0.6260788751945381, 1};
Point(p10 + 7) = {14.81787183685934, -0.5152222257558192, 1};
Point(p10 + 8) = {14.62185562480546, -0.4340296522781, 1};
Point(p10 + 9) = {14.41555138079499, -0.3845003853831044, 1};
Point(p10 + 10) = {14.204039, -0.3678540000000001, 1};
Point(p10 + 11) = {13.99252661920501, -0.3845003853831046, 1};
Point(p10 + 12) = {13.78622237519454, -0.4340296522781, 1};
Point(p10 + 13) = {13.59020616314065, -0.515222225755819, 1};
Point(p10 + 14) = {13.40930455272464, -0.6260788751945381, 1};
Point(p10 + 15) = {13.24797194197295, -0.7638699419729493, 1};
Point(p10 + 16) = {13.11018087519454, -0.925202552724636, 1};
Point(p10 + 17) = {12.99932422575582, -1.106104163140654, 1};
Point(p10 + 18) = {12.9181316522781, -1.302120375194538, 1};
Point(p10 + 19) = {12.8686023853831, -1.508424619205009, 1};
Point(p10 + 20) = {12.851956, -1.719937, 1};
Point(p10 + 21) = {12.8686023853831, -1.93144938079499, 1};
Point(p10 + 22) = {12.9181316522781, -2.137753624805462, 1};
Point(p10 + 23) = {12.99932422575582, -2.333769836859345, 1};
Point(p10 + 24) = {13.11018087519454, -2.514671447275364, 1};
Point(p10 + 25) = {13.24797194197295, -2.676004058027051, 1};
Point(p10 + 26) = {13.40930455272464, -2.813795124805462, 1};
Point(p10 + 27) = {13.59020616314065, -2.924651774244181, 1};
Point(p10 + 28) = {13.78622237519454, -3.0058443477219, 1};
Point(p10 + 29) = {13.99252661920501, -3.055373614616895, 1};
Point(p10 + 30) = {14.204039, -3.07202, 1};
Point(p10 + 31) = {14.41555138079499, -3.055373614616895, 1};
Point(p10 + 32) = {14.62185562480546, -3.0058443477219, 1};
Point(p10 + 33) = {14.81787183685934, -2.924651774244181, 1};
Point(p10 + 34) = {14.99877344727536, -2.813795124805462, 1};
Point(p10 + 35) = {15.16010605802705, -2.676004058027051, 1};
Point(p10 + 36) = {15.29789712480546, -2.514671447275364, 1};
Point(p10 + 37) = {15.40875377424418, -2.333769836859346, 1};
Point(p10 + 38) = {15.4899463477219, -2.137753624805462, 1};
Point(p10 + 39) = {15.5394756146169, -1.931449380794991, 1};
Spline(10) = {8, p10 + 1, p10 + 2, p10 + 3, p10 + 4, p10 + 5, p10 + 6, p10 + 7, p10 + 8, p10 + 9, p10 + 10, p10 + 11, p10 + 12, p10 + 13, p10 + 14, p10 + 15, p10 + 16, p10 + 17, p10 + 18, p10 + 19, p10 + 20, p10 + 21, p10 + 22, p10 + 23, p10 + 24, p10 + 25, p10 + 26, p10 + 27, p10 + 28, p10 + 29, p10 + 30, p10 + 31, p10 + 32, p10 + 33, p10 + 34, p10 + 35, p10 + 36, p10 + 37, p10 + 38, p10 + 39, 8};
p11 = newp;
Point(p11 + 1) = {24.63775728845944, 2.820908689244153, 1};
Point(p11 + 2) = {24.61874251436546, 2.900110923406159, 1};
Point(p11 + 3) = {24.58757188456265, 2.975363480623805, 1};
Point(p11 + 4) = {24.54501292340616, 3.044813393189473, 1};
Point(p11 + 5) = {24.49211357376475, 3.106750573764751, 1};
Point(p11 + 6) = {24.43017639318947, 3.159649923406159, 1};
Point(p11 + 7) = {24.36072648062381, 3.20220888456265, 1};
Point(p11 + 8) = {24.28547392340616, 3.233379514365456, 1};
Point(p11 + 9) = {24.20627168924415, 3.252394288459443, 1};
Point(p11 + 10) = {24.12507, 3.258785, 1};
Point(p11 + 11) = {24.04386831075585, 3.252394288459443, 1};
Point(p11 + 12) = {23.96466607659384, 3.233379514365456, 1};
Point(p11 + 13) = {23.88941351937619, 3.20220888456265, 1};
Point(p11 + 14) = {23.81996360681053, 3.159649923406159, 1};
Point(p11 + 15) = {23.75802642623525, 3.106750573764751, 1};
Point(p11 + 16) = {23.70512707659384, 3.044813393189473, 1};
Point(p11 + 17) = {23.66256811543735, 2.975363480623805, 1};
Point(p11 + 18) = {23.63139748563454, 2.900110923406159, 1};
Point(p11 + 19) = {23.61238271154056, 2.820908689244153, 1};
Point(p11 + 20) = {23.605992, 2.739707, 1};
Point(p11 + 21) = {23.61238271154056, 2.658505310755847, 1};
Point(p11 + 22) = {23.63139748563454, 2.579303076593841, 1};
Point(p11 + 23) = {23.66256811543735, 2.504050519376196, 1};
Point(p11 + 24) = {23.70512707659384, 2.434600606810528, 1};
Point(p11 + 25) = {23.75802642623525, 2.37266342623525, 1};
Point(p11 + 26) = {23.81996360681053, 2.319764076593841, 1};
Point(p11 + 27) = {23.88941351937619, 2.277205115437351, 1};
Point(p11 + 28) = {23.96466607659384, 2.246034485634544, 1};
Point(p11 + 29) = {24.04386831075585, 2.227019711540557, 1};
Point(p11 + 30) = {24.12507, 2.220629, 1};
Point(p11 + 31) = {24.20627168924415, 2.227019711540557, 1};
Point(p11 + 32) = {24.28547392340616, 2.246034485634544, 1};
Point(p11 + 33) = {24.3607264806238, 2.27720511543735, 1};
Point(p11 + 34) = {24.43017639318947, 2.319764076593841, 1};
Point(p11 + 35) = {24.49211357376475, 2.372663426235249, 1};
Point(p11 + 36) = {24.54501292340616, 2.434600606810528, 1};
Point(p11 + 37) = {24.58757188456265, 2.504050519376196, 1};
Point(p11 + 38) = {24.61874251436546, 2.579303076593841, 1};
Point(p11 + 39) = {24.63775728845944, 2.658505310755847, 1};
Spline(11) = {9, p11 + 1, p11 + 2, p11 + 3, p11 + 4, p11 + 5, p11 + 6, p11 + 7, p11 + 8, p11 + 9, p11 + 10, p11 + 11, p11 + 12, p11 + 13, p11 + 14, p11 + 15, p11 + 16, p11 + 17, p11 + 18, p11 + 19, p11 + 20, p11 + 21, p11 + 22, p11 + 23, p11 + 24, p11 + 25, p11 + 26, p11 + 27, p11 + 28, p11 + 29, p11 + 30, p11 + 31, p11 + 32, p11 + 33, p11 + 34, p11 + 35, p11 + 36, p11 + 37, p11 + 38, p11 + 39, 9};
Line(12) = {4, 10};
Line(13) = {10, 7};
Line(14) = {5, 10};
p15 = newp;
Point(p15 + 1) = {15.5394756146169, -1.50842461920501, 0};
Point(p15 + 2) = {15.4899463477219, -1.302120375194538, 0};
Point(p15 + 3) = {15.40875377424418, -1.106104163140655, 0};
Point(p15 + 4) = {15.29789712480546, -0.9252025527246361, 0};
Point(p15 + 5) = {15.16010605802705, -0.7638699419729494, 0};
Point(p15 + 6) = {14.99877344727536, -0.6260788751945381, 0};
Point(p15 + 7) = {14.81787183685934, -0.5152222257558192, 0};
Point(p15 + 8) = {14.62185562480546, -0.4340296522781, 0};
Point(p15 + 9) = {14.41555138079499, -0.3845003853831044, 0};
Point(p15 + 10) = {14.204039, -0.3678540000000001, 0};
Point(p15 + 11) = {13.99252661920501, -0.3845003853831046, 0};
Point(p15 + 12) = {13.78622237519454, -0.4340296522781, 0};
Point(p15 + 13) = {13.59020616314065, -0.515222225755819, 0};
Point(p15 + 14) = {13.40930455272464, -0.6260788751945381, 0};
Point(p15 + 15) = {13.24797194197295, -0.7638699419729493, 0};
Point(p15 + 16) = {13.11018087519454, -0.925202552724636, 0};
Point(p15 + 17) = {12.99932422575582, -1.106104163140654, 0};
Point(p15 + 18) = {12.9181316522781, -1.302120375194538, 0};
Point(p15 + 19) = {12.8686023853831, -1.508424619205009, 0};
Point(p15 + 20) = {12.851956, -1.719937, 0};
Point(p15 + 21) = {12.8686023853831, -1.93144938079499, 0};
Point(p15 + 22) = {12.9181316522781, -2.137753624805462, 0};
Point(p15 + 23) = {12.99932422575582, -2.333769836859345, 0};
Point(p15 + 24) = {13.11018087519454, -2.514671447275364, 0};
Point(p15 + 25) = {13.24797194197295, -2.676004058027051, 0};
Point(p15 + 26) = {13.40930455272464, -2.813795124805462, 0};
Point(p15 + 27) = {13.59020616314065, -2.924651774244181, 0};
Point(p15 + 28) = {13.78622237519454, -3.0058443477219, 0};
Point(p15 + 29) = {13.99252661920501, -3.055373614616895, 0};
Point(p15 + 30) = {14.204039, -3.07202, 0};
Point(p15 + 31) = {14.41555138079499, -3.055373614616895, 0};
Point(p15 + 32) = {14.62185562480546, -3.0058443477219, 0};
Point(p15 + 33) = {14.81787183685934, -2.924651774244181, 0};
Point(p15 + 34) = {14.99877344727536, -2.813795124805462, 0};
Point(p15 + 35) = {15.16010605802705, -2.676004058027051, 0};
Point(p15 + 36) = {15.29789712480546, -2.514671447275364, 0};
Point(p15 + 37) = {15.40875377424418, -2.333769836859346, 0};
Point(p15 + 38) = {15.4899463477219, -2.137753624805462, 0};
Point(p15 + 39) = {15.5394756146169, -1.931449380794991, 0};
Spline(15) = {11, p15 + 1, p15 + 2, p15 + 3, p15 + 4, p15 + 5, p15 + 6, p15 + 7, p15 + 8, p15 + 9, p15 + 10, p15 + 11, p15 + 12, p15 + 13, p15 + 14, p15 + 15, p15 + 16, p15 + 17, p15 + 18, p15 + 19, p15 + 20, p15 + 21, p15 + 22, p15 + 23, p15 + 24, p15 + 25, p15 + 26, p15 + 27, p15 + 28, p15 + 29, p15 + 30, p15 + 31, p15 + 32, p15 + 33, p15 + 34, p15 + 35, p15 + 36, p15 + 37, p15 + 38, p15 + 39, 11};
p16 = newp;
Point(p16 + 1) = {24.63775728845944, 2.820908689244153, 0};
Point(p16 + 2) = {24.61874251436546, 2.900110923406159, 0};
Point(p16 + 3) = {24.58757188456265, 2.975363480623805, 0};
Point(p16 + 4) = {24.54501292340616, 3.044813393189473, 0};
Point(p16 + 5) = {24.49211357376475, 3.106750573764751, 0};
Point(p16 + 6) = {24.43017639318947, 3.159649923406159, 0};
Point(p16 + 7) = {24.36072648062381, 3.20220888456265, 0};
Point(p16 + 8) = {24.28547392340616, 3.233379514365456, 0};
Point(p16 + 9) = {24.20627168924415, 3.252394288459443, 0};
Point(p16 + 10) = {24.12507, 3.258785, 0};
Point(p16 + 11) = {24.04386831075585, 3.252394288459443, 0};
Point(p16 + 12) = {23.96466607659384, 3.233379514365456, 0};
Point(p16 + 13) = {23.88941351937619, 3.20220888456265, 0};
Point(p16 + 14) = {23.81996360681053, 3.159649923406159, 0};
Point(p16 + 15) = {23.75802642623525, 3.106750573764751, 0};
Point(p16 + 16) = {23.70512707659384, 3.044813393189473, 0};
Point(p16 + 17) = {23.66256811543735, 2.975363480623805, 0};
Point(p16 + 18) = {23.63139748563454, 2.900110923406159, 0};
Point(p16 + 19) = {23.61238271154056, 2.820908689244153, 0};
Point(p16 + 20) = {23.605992, 2.739707, 0};
Point(p16 + 21) = {23.61238271154056, 2.658505310755847, 0};
Point(p16 + 22) = {23.63139748563454, 2.579303076593841, 0};
Point(p16 + 23) = {23.66256811543735, 2.504050519376196, 0};
Point(p16 + 24) = {23.70512707659384, 2.434600606810528, 0};
Point(p16 + 25) = {23.75802642623525, 2.37266342623525, 0};
Point(p16 + 26) = {23.81996360681053, 2.319764076593841, 0};
Point(p16 + 27) = {23.88941351937619, 2.277205115437351, 0};
Point(p16 + 28) = {23.96466607659384, 2.246034485634544, 0};
Point(p16 + 29) = {24.04386831075585, 2.227019711540557, 0};
Point(p16 + 30) = {24.12507, 2.220629, 0};
Point(p16 + 31) = {24.20627168924415, 2.227019711540557, 0};
Point(p16 + 32) = {24.28547392340616, 2.246034485634544, 0};
Point(p16 + 33) = {24.3607264806238, 2.27720511543735, 0};
Point(p16 + 34) = {24.43017639318947, 2.319764076593841, 0};
Point(p16 + 35) = {24.49211357376475, 2.372663426235249, 0};
Point(p16 + 36) = {24.54501292340616, 2.434600606810528, 0};
Point(p16 + 37) = {24.58757188456265, 2.504050519376196, 0};
Point(p16 + 38) = {24.61874251436546, 2.579303076593841, 0};
Point(p16 + 39) = {24.63775728845944, 2.658505310755847, 0};
Spline(16) = {12, p16 + 1, p16 + 2, p16 + 3, p16 + 4, p16 + 5, p16 + 6, p16 + 7, p16 + 8, p16 + 9, p16 + 10, p16 + 11, p16 + 12, p16 + 13, p16 + 14, p16 + 15, p16 + 16, p16 + 17, p16 + 18, p16 + 19, p16 + 20, p16 + 21, p16 + 22, p16 + 23, p16 + 24, p16 + 25, p16 + 26, p16 + 27, p16 + 28, p16 + 29, p16 + 30, p16 + 31, p16 + 32, p16 + 33, p16 + 34, p16 + 35, p16 + 36, p16 + 37, p16 + 38, p16 + 39, 12};
Line(17) = {11, 8};
Line(18) = {12, 9};
Curve Loop(1) = {-1, 4, 3, -2};
Plane Surface(1) = {1};
Curve Loop(2) = {-5, 1, 7, -6};
Plane Surface(2) = {2};
Curve Loop(3) = {-2, 7, 9, -8, -10, -11};
Plane Surface(3) = {3};
Curve Loop(4) = {-12, 3, 8, -13};
Plane Surface(4) = {4};
Curve Loop(5) = {-4, 5, 14, -12, -15, -16};
Plane Surface(5) = {5};
Curve Loop(6) = {-6, 14, 13, -9};
Plane Surface(6) = {6};
Curve Loop(7) = {-10, -17, 15, 17};
Surface(7) = {7};
Curve Loop(8) = {-11, -18, 16, 18};
Surface(8) = {8};
Surface Loop(1) = {1, 2, 3, 4, 5, 6, 7, 8};
Volume(1) = {1};
Physical Surface("INFLOW") = {1};
Physical Surface("OUTFLOW") = {6};
Physical Surface("OBSTACLE") = {7, 8};
Physical Surface("WALL_Y") = {2, 4};
Physical Surface("WALL_Z") = {3, 5};
Physical Volume("FLUID") = {1};
