cl__1 = 3.92051;
cl__2 = 1.247767;
cl__3 = 1.459604;
cl__4 = 0.1147;
cl__5 = 0.146572;
Point(1) = {0.790721, -4.061603, 1, cl__1};
Point(2) = {0.790721, -4.061603, 0, cl__1};
Point(3) = {0.790721, 4.780662, 1, cl__2};
Point(4) = {0.790721, 4.780662, 0, cl__2};
Point(5) = {38.955015, -4.061603, 0, cl__3};
Point(6) = {38.955015, -4.061603, 1, cl__3};
Point(7) = {38.955015, 4.780662, 1, cl__2};
Point(8) = {26.763882, -1.28205, 1, cl__4};
Point(9) = {17.032832, 2.234288, 1, cl__5};
Point(10) = {38.955015, 4.780662, 0, cl__2};
Point(11) = {26.763882, -1.28205, 0, cl__4};
Point(12) = {17.032832, 2.234288, 0, cl__5};
Line(1) = {2, 1};
Line(2) = {1, 3};
Line(3) = {4, 3};
Line(4) = {2, 4};
Line(5) = {2, 5};
Line(6) = {5, 6};
Line(7) = {1, 6};
Line(8) = {3, 7};
Line(9) = {6, 7};
p10 = newp;
Point(p10 + 1) = {26.74976052666262, -1.102619668598855, 1};
Point(p10 + 2) = {26.70774382419054, -0.9276075074519352, 1};
Point(p10 + 3) = {26.63886648324406, -0.7613228967987398, 1};
Point(p10 + 4) = {26.54482449254807, -0.6078603156205332, 1};
Point(p10 + 5) = {26.42793347802097, -0.4709985219790299, 1};
Point(p10 + 6) = {26.29107168437947, -0.3541075074519352, 1};
Point(p10 + 7) = {26.13760910320126, -0.260065516755942, 1};
Point(p10 + 8) = {25.97132449254806, -0.1911881758094587, 1};
Point(p10 + 9) = {25.79631233140115, -0.1491714733373768, 1};
Point(p10 + 10) = {25.616882, -0.1350499999999999, 1};
Point(p10 + 11) = {25.43745166859885, -0.149171473337377, 1};
Point(p10 + 12) = {25.26243950745194, -0.1911881758094587, 1};
Point(p10 + 13) = {25.09615489679874, -0.2600655167559418, 1};
Point(p10 + 14) = {24.94269231562053, -0.3541075074519352, 1};
Point(p10 + 15) = {24.80583052197903, -0.4709985219790298, 1};
Point(p10 + 16) = {24.68893950745193, -0.6078603156205331, 1};
Point(p10 + 17) = {24.59489751675594, -0.7613228967987397, 1};
Point(p10 + 18) = {24.52602017580946, -0.9276075074519351, 1};
Point(p10 + 19) = {24.48400347333738, -1.102619668598855, 1};
Point(p10 + 20) = {24.469882, -1.28205, 1};
Point(p10 + 21) = {24.48400347333738, -1.461480331401145, 1};
Point(p10 + 22) = {24.52602017580946, -1.636492492548065, 1};
Point(p10 + 23) = {24.59489751675594, -1.802777103201259, 1};
Point(p10 + 24) = {24.68893950745193, -1.956239684379466, 1};
Point(p10 + 25) = {24.80583052197903, -2.09310147802097, 1};
Point(p10 + 26) = {24.94269231562053, -2.209992492548064, 1};
Point(p10 + 27) = {25.09615489679874, -2.304034483244058, 1};
Point(p10 + 28) = {25.26243950745194, -2.372911824190541, 1};
Point(p10 + 29) = {25.43745166859885, -2.414928526662623, 1};
Point(p10 + 30) = {25.616882, -2.42905, 1};
Point(p10 + 31) = {25.79631233140114, -2.414928526662623, 1};
Point(p10 + 32) = {25.97132449254806, -2.372911824190541, 1};
Point(p10 + 33) = {26.13760910320126, -2.304034483244058, 1};
Point(p10 + 34) = {26.29107168437947, -2.209992492548065, 1};
Point(p10 + 35) = {26.42793347802097, -2.09310147802097, 1};
Point(p10 + 36) = {26.54482449254807, -1.956239684379467, 1};
Point(p10 + 37) = {26.63886648324406, -1.80277710320126, 1};
Point(p10 + 38) = {26.70774382419054, -1.636492492548065, 1};
Point(p10 + 39) = {26.74976052666262, -1.461480331401145, 1};
Spline(10) = {8, p10 + 1, p10 + 2, p10 + 3, p10 + 4, p10 + 5, p10 + 6, p10 + 7, p10 + 8, p10 + 9, p10 + 10, p10 + 11, p10 + 12, p10 + 13, p10 + 14, p10 + 15, p10 + 16, p10 + 17, p10 + 18, p10 + 19, p10 + 20, p10 + 21, p10 + 22, p10 + 23, p10 + 24, p10 + 25, p10 + 26, p10 + 27, p10 + 28, p10 + 29, p10 + 30, p10 + 31, p10 + 32, p10 + 33, p10 + 34, p10 + 35, p10 + 36, p10 + 37, p10 + 38, p10 + 39, 8};
p11 = newp;
Point(p11 + 1) = {17.01478659151208, 2.463576654795372, 1};
Point(p11 + 2) = {16.96109470389458, 2.687219461944264, 1};
Point(p11 + 3) = {16.8730784096138, 2.899709593306749, 1};
Point(p11 + 4) = {16.75290496194426, 3.095814836634367, 1};
Point(p11 + 5) = {16.6035334300004, 3.270706430000403, 1};
Point(p11 + 6) = {16.42864183663437, 3.420077961944265, 1};
Point(p11 + 7) = {16.23253659330675, 3.540251409613802, 1};
Point(p11 + 8) = {16.02004646194426, 3.628267703894584, 1};
Point(p11 + 9) = {15.79640365479537, 3.681959591512083, 1};
Point(p11 + 10) = {15.567115, 3.700005, 1};
Point(p11 + 11) = {15.33782634520463, 3.681959591512083, 1};
Point(p11 + 12) = {15.11418353805573, 3.628267703894584, 1};
Point(p11 + 13) = {14.90169340669325, 3.540251409613802, 1};
Point(p11 + 14) = {14.70558816336563, 3.420077961944265, 1};
Point(p11 + 15) = {14.5306965699996, 3.270706430000403, 1};
Point(p11 + 16) = {14.38132503805573, 3.095814836634367, 1};
Point(p11 + 17) = {14.2611515903862, 2.899709593306749, 1};
Point(p11 + 18) = {14.17313529610542, 2.687219461944265, 1};
Point(p11 + 19) = {14.11944340848792, 2.463576654795372, 1};
Point(p11 + 20) = {14.101398, 2.234288, 1};
Point(p11 + 21) = {14.11944340848792, 2.004999345204628, 1};
Point(p11 + 22) = {14.17313529610542, 1.781356538055735, 1};
Point(p11 + 23) = {14.2611515903862, 1.568866406693251, 1};
Point(p11 + 24) = {14.38132503805573, 1.372761163365633, 1};
Point(p11 + 25) = {14.5306965699996, 1.197869569999597, 1};
Point(p11 + 26) = {14.70558816336563, 1.048498038055735, 1};
Point(p11 + 27) = {14.90169340669325, 0.9283245903861981, 1};
Point(p11 + 28) = {15.11418353805573, 0.8403082961054162, 1};
Point(p11 + 29) = {15.33782634520463, 0.7866164084879166, 1};
Point(p11 + 30) = {15.567115, 0.7685709999999999, 1};
Point(p11 + 31) = {15.79640365479537, 0.7866164084879164, 1};
Point(p11 + 32) = {16.02004646194426, 0.8403082961054162, 1};
Point(p11 + 33) = {16.23253659330675, 0.9283245903861979, 1};
Point(p11 + 34) = {16.42864183663437, 1.048498038055735, 1};
Point(p11 + 35) = {16.6035334300004, 1.197869569999597, 1};
Point(p11 + 36) = {16.75290496194426, 1.372761163365633, 1};
Point(p11 + 37) = {16.8730784096138, 1.56886640669325, 1};
Point(p11 + 38) = {16.96109470389458, 1.781356538055735, 1};
Point(p11 + 39) = {17.01478659151208, 2.004999345204627, 1};
Spline(11) = {9, p11 + 1, p11 + 2, p11 + 3, p11 + 4, p11 + 5, p11 + 6, p11 + 7, p11 + 8, p11 + 9, p11 + 10, p11 + 11, p11 + 12, p11 + 13, p11 + 14, p11 + 15, p11 + 16, p11 + 17, p11 + 18, p11 + 19, p11 + 20, p11 + 21, p11 + 22, p11 + 23, p11 + 24, p11 + 25, p11 + 26, p11 + 27, p11 + 28, p11 + 29, p11 + 30, p11 + 31, p11 + 32, p11 + 33, p11 + 34, p11 + 35, p11 + 36, p11 + 37, p11 + 38, p11 + 39, 9};
Line(12) = {4, 10};
Line(13) = {10, 7};
Line(14) = {5, 10};
p15 = newp;
Point(p15 + 1) = {26.74976052666262, -1.102619668598855, 0};
Point(p15 + 2) = {26.70774382419054, -0.9276075074519352, 0};
Point(p15 + 3) = {26.63886648324406, -0.7613228967987398, 0};
Point(p15 + 4) = {26.54482449254807, -0.6078603156205332, 0};
Point(p15 + 5) = {26.42793347802097, -0.4709985219790299, 0};
Point(p15 + 6) = {26.29107168437947, -0.3541075074519352, 0};
Point(p15 + 7) = {26.13760910320126, -0.260065516755942, 0};
Point(p15 + 8) = {25.97132449254806, -0.1911881758094587, 0};
Point(p15 + 9) = {25.79631233140115, -0.1491714733373768, 0};
Point(p15 + 10) = {25.616882, -0.1350499999999999, 0};
Point(p15 + 11) = {25.43745166859885, -0.149171473337377, 0};
Point(p15 + 12) = {25.26243950745194, -0.1911881758094587, 0};
Point(p15 + 13) = {25.09615489679874, -0.2600655167559418, 0};
Point(p15 + 14) = {24.94269231562053, -0.3541075074519352, 0};
Point(p15 + 15) = {24.80583052197903, -0.4709985219790298, 0};
Point(p15 + 16) = {24.68893950745193, -0.6078603156205331, 0};
Point(p15 + 17) = {24.59489751675594, -0.7613228967987397, 0};
Point(p15 + 18) = {24.52602017580946, -0.9276075074519351, 0};
Point(p15 + 19) = {24.48400347333738, -1.102619668598855, 0};
Point(p15 + 20) = {24.469882, -1.28205, 0};
Point(p15 + 21) = {24.48400347333738, -1.461480331401145, 0};
Point(p15 + 22) = {24.52602017580946, -1.636492492548065, 0};
Point(p15 + 23) = {24.59489751675594, -1.802777103201259, 0};
Point(p15 + 24) = {24.68893950745193, -1.956239684379466, 0};
Point(p15 + 25) = {24.80583052197903, -2.09310147802097, 0};
Point(p15 + 26) = {24.94269231562053, -2.209992492548064, 0};
Point(p15 + 27) = {25.09615489679874, -2.304034483244058, 0};
Point(p15 + 28) = {25.26243950745194, -2.372911824190541, 0};
Point(p15 + 29) = {25.43745166859885, -2.414928526662623, 0};
Point(p15 + 30) = {25.616882, -2.42905, 0};
Point(p15 + 31) = {25.79631233140114, -2.414928526662623, 0};
Point(p15 + 32) = {25.97132449254806, -2.372911824190541, 0};
Point(p15 + 33) = {26.13760910320126, -2.304034483244058, 0};
Point(p15 + 34) = {26.29107168437947, -2.209992492548065, 0};
Point(p15 + 35) = {26.42793347802097, -2.09310147802097, 0};
Point(p15 + 36) = {26.54482449254807, -1.956239684379467, 0};
Point(p15 + 37) = {26.63886648324406, -1.80277710320126, 0};
Point(p15 + 38) = {26.70774382419054, -1.636492492548065, 0};
Point(p15 + 39) = {26.74976052666262, -1.461480331401145, 0};
Spline(15) = {11, p15 + 1, p15 + 2, p15 + 3, p15 + 4, p15 + 5, p15 + 6, p15 + 7, p15 + 8, p15 + 9, p15 + 10, p15 + 11, p15 + 12, p15 + 13, p15 + 14, p15 + 15, p15 + 16, p15 + 17, p15 + 18, p15 + 19, p15 + 20, p15 + 21, p15 + 22, p15 + 23, p15 + 24, p15 + 25, p15 + 26, p15 + 27, p15 + 28, p15 + 29, p15 + 30, p15 + 31, p15 + 32, p15 + 33, p15 + 34, p15 + 35, p15 + 36, p15 + 37, p15 + 38, p15 + 39, 11};
p16 = newp;
Point(p16 + 1) = {17.01478659151208, 2.463576654795372, 0};
Point(p16 + 2) = {16.96109470389458, 2.687219461944264, 0};
Point(p16 + 3) = {16.8730784096138, 2.899709593306749, 0};
Point(p16 + 4) = {16.75290496194426, 3.095814836634367, 0};
Point(p16 + 5) = {16.6035334300004, 3.270706430000403, 0};
Point(p16 + 6) = {16.42864183663437, 3.420077961944265, 0};
Point(p16 + 7) = {16.23253659330675, 3.540251409613802, 0};
Point(p16 + 8) = {16.02004646194426, 3.628267703894584, 0};
Point(p16 + 9) = {15.79640365479537, 3.681959591512083, 0};
Point(p16 + 10) = {15.567115, 3.700005, 0};
Point(p16 + 11) = {15.33782634520463, 3.681959591512083, 0};
Point(p16 + 12) = {15.11418353805573, 3.628267703894584, 0};
Point(p16 + 13) = {14.90169340669325, 3.540251409613802, 0};
Point(p16 + 14) = {14.70558816336563, 3.420077961944265, 0};
Point(p16 + 15) = {14.5306965699996, 3.270706430000403, 0};
Point(p16 + 16) = {14.38132503805573, 3.095814836634367, 0};
Point(p16 + 17) = {14.2611515903862, 2.899709593306749, 0};
Point(p16 + 18) = {14.17313529610542, 2.687219461944265, 0};
Point(p16 + 19) = {14.11944340848792, 2.463576654795372, 0};
Point(p16 + 20) = {14.101398, 2.234288, 0};
Point(p16 + 21) = {14.11944340848792, 2.004999345204628, 0};
Point(p16 + 22) = {14.17313529610542, 1.781356538055735, 0};
Point(p16 + 23) = {14.2611515903862, 1.568866406693251, 0};
Point(p16 + 24) = {14.38132503805573, 1.372761163365633, 0};
Point(p16 + 25) = {14.5306965699996, 1.197869569999597, 0};
Point(p16 + 26) = {14.70558816336563, 1.048498038055735, 0};
Point(p16 + 27) = {14.90169340669325, 0.9283245903861981, 0};
Point(p16 + 28) = {15.11418353805573, 0.8403082961054162, 0};
Point(p16 + 29) = {15.33782634520463, 0.7866164084879166, 0};
Point(p16 + 30) = {15.567115, 0.7685709999999999, 0};
Point(p16 + 31) = {15.79640365479537, 0.7866164084879164, 0};
Point(p16 + 32) = {16.02004646194426, 0.8403082961054162, 0};
Point(p16 + 33) = {16.23253659330675, 0.9283245903861979, 0};
Point(p16 + 34) = {16.42864183663437, 1.048498038055735, 0};
Point(p16 + 35) = {16.6035334300004, 1.197869569999597, 0};
Point(p16 + 36) = {16.75290496194426, 1.372761163365633, 0};
Point(p16 + 37) = {16.8730784096138, 1.56886640669325, 0};
Point(p16 + 38) = {16.96109470389458, 1.781356538055735, 0};
Point(p16 + 39) = {17.01478659151208, 2.004999345204627, 0};
Spline(16) = {12, p16 + 1, p16 + 2, p16 + 3, p16 + 4, p16 + 5, p16 + 6, p16 + 7, p16 + 8, p16 + 9, p16 + 10, p16 + 11, p16 + 12, p16 + 13, p16 + 14, p16 + 15, p16 + 16, p16 + 17, p16 + 18, p16 + 19, p16 + 20, p16 + 21, p16 + 22, p16 + 23, p16 + 24, p16 + 25, p16 + 26, p16 + 27, p16 + 28, p16 + 29, p16 + 30, p16 + 31, p16 + 32, p16 + 33, p16 + 34, p16 + 35, p16 + 36, p16 + 37, p16 + 38, p16 + 39, 12};
Line(17) = {11, 8};
Line(18) = {12, 9};
Curve Loop(1) = {-1, 4, 3, -2};
Plane Surface(1) = {1};
Curve Loop(2) = {-5, 1, 7, -6};
Plane Surface(2) = {2};
Curve Loop(3) = {-2, 7, 9, -8, -10, -11};
Plane Surface(3) = {3};
Curve Loop(4) = {-12, 3, 8, -13};
Plane Surface(4) = {4};
Curve Loop(5) = {-4, 5, 14, -12, -15, -16};
Plane Surface(5) = {5};
Curve Loop(6) = {-6, 14, 13, -9};
Plane Surface(6) = {6};
Curve Loop(7) = {-10, -17, 15, 17};
Surface(7) = {7};
Curve Loop(8) = {-11, -18, 16, 18};
Surface(8) = {8};
Surface Loop(1) = {1, 2, 3, 4, 5, 6, 7, 8};
Volume(1) = {1};
Physical Surface("INFLOW") = {1};
Physical Surface("OUTFLOW") = {6};
Physical Surface("OBSTACLE") = {7, 8};
Physical Surface("WALL_Y") = {2, 4};
Physical Surface("WALL_Z") = {3, 5};
Physical Volume("FLUID") = {1};
