cl__1 = 3.508044;
cl__2 = 0.666091;
cl__3 = 0.584039;
cl__4 = 0.130617;
Point(1) = {0.616519, -3.275061, 1, cl__1};
Point(2) = {0.616519, -3.275061, 0, cl__1};
Point(3) = {0.616519, 4.24147, 1, cl__1};
Point(4) = {0.616519, 4.24147, 0, cl__1};
Point(5) = {34.87854299999999, -3.275061, 0, cl__2};
Point(6) = {34.87854299999999, -3.275061, 1, cl__2};
Point(7) = {34.87854299999999, 4.24147, 1, cl__3};
Point(8) = {29.667908, 1.308124, 1, cl__4};
Point(9) = {34.87854299999999, 4.24147, 0, cl__3};
Point(10) = {29.667908, 1.308124, 0, cl__4};
Line(1) = {2, 1};
Line(2) = {1, 3};
Line(3) = {4, 3};
Line(4) = {2, 4};
Line(5) = {2, 5};
Line(6) = {5, 6};
Line(7) = {1, 6};
Line(8) = {3, 7};
Line(9) = {6, 7};
p10 = newp;
Point(p10 + 1) = {29.65182690445847, 1.512453692332668, 1};
Point(p10 + 2) = {29.60397958777621, 1.711752109508736, 1};
Point(p10 + 3) = {29.52554420968607, 1.901111863063804, 1};
Point(p10 + 4) = {29.41845210950874, 2.075870287416355, 1};
Point(p10 + 5) = {29.28534025016887, 2.23172425016887, 1};
Point(p10 + 6) = {29.12948628741636, 2.364836109508737, 1};
Point(p10 + 7) = {28.95472786306381, 2.471928209686072, 1};
Point(p10 + 8) = {28.76536810950874, 2.550363587776208, 1};
Point(p10 + 9) = {28.56606969233267, 2.59821090445847, 1};
Point(p10 + 10) = {28.36174, 2.614292, 1};
Point(p10 + 11) = {28.15741030766733, 2.59821090445847, 1};
Point(p10 + 12) = {27.95811189049126, 2.550363587776208, 1};
Point(p10 + 13) = {27.7687521369362, 2.471928209686072, 1};
Point(p10 + 14) = {27.59399371258365, 2.364836109508737, 1};
Point(p10 + 15) = {27.43813974983113, 2.23172425016887, 1};
Point(p10 + 16) = {27.30502789049126, 2.075870287416355, 1};
Point(p10 + 17) = {27.19793579031393, 1.901111863063805, 1};
Point(p10 + 18) = {27.11950041222379, 1.711752109508736, 1};
Point(p10 + 19) = {27.07165309554153, 1.512453692332669, 1};
Point(p10 + 20) = {27.055572, 1.308124, 1};
Point(p10 + 21) = {27.07165309554153, 1.103794307667332, 1};
Point(p10 + 22) = {27.11950041222379, 0.9044958904912633, 1};
Point(p10 + 23) = {27.19793579031393, 0.7151361369361964, 1};
Point(p10 + 24) = {27.30502789049126, 0.5403777125836452, 1};
Point(p10 + 25) = {27.43813974983113, 0.3845237498311297, 1};
Point(p10 + 26) = {27.59399371258365, 0.2514118904912639, 1};
Point(p10 + 27) = {27.7687521369362, 0.1443197903139282, 1};
Point(p10 + 28) = {27.95811189049126, 0.06588441222379204, 1};
Point(p10 + 29) = {28.15741030766733, 0.01803709554153032, 1};
Point(p10 + 30) = {28.36174, 0.001956000000000069, 1};
Point(p10 + 31) = {28.56606969233267, 0.0180370955415301, 1};
Point(p10 + 32) = {28.76536810950874, 0.06588441222379182, 1};
Point(p10 + 33) = {28.95472786306381, 0.1443197903139279, 1};
Point(p10 + 34) = {29.12948628741636, 0.2514118904912637, 1};
Point(p10 + 35) = {29.28534025016887, 0.3845237498311295, 1};
Point(p10 + 36) = {29.41845210950874, 0.5403777125836448, 1};
Point(p10 + 37) = {29.52554420968607, 0.7151361369361955, 1};
Point(p10 + 38) = {29.60397958777621, 0.9044958904912634, 1};
Point(p10 + 39) = {29.65182690445847, 1.103794307667332, 1};
Spline(10) = {8, p10 + 1, p10 + 2, p10 + 3, p10 + 4, p10 + 5, p10 + 6, p10 + 7, p10 + 8, p10 + 9, p10 + 10, p10 + 11, p10 + 12, p10 + 13, p10 + 14, p10 + 15, p10 + 16, p10 + 17, p10 + 18, p10 + 19, p10 + 20, p10 + 21, p10 + 22, p10 + 23, p10 + 24, p10 + 25, p10 + 26, p10 + 27, p10 + 28, p10 + 29, p10 + 30, p10 + 31, p10 + 32, p10 + 33, p10 + 34, p10 + 35, p10 + 36, p10 + 37, p10 + 38, p10 + 39, 8};
Line(11) = {4, 9};
Line(12) = {9, 7};
Line(13) = {5, 9};
p14 = newp;
Point(p14 + 1) = {29.65182690445847, 1.512453692332668, 0};
Point(p14 + 2) = {29.60397958777621, 1.711752109508736, 0};
Point(p14 + 3) = {29.52554420968607, 1.901111863063804, 0};
Point(p14 + 4) = {29.41845210950874, 2.075870287416355, 0};
Point(p14 + 5) = {29.28534025016887, 2.23172425016887, 0};
Point(p14 + 6) = {29.12948628741636, 2.364836109508737, 0};
Point(p14 + 7) = {28.95472786306381, 2.471928209686072, 0};
Point(p14 + 8) = {28.76536810950874, 2.550363587776208, 0};
Point(p14 + 9) = {28.56606969233267, 2.59821090445847, 0};
Point(p14 + 10) = {28.36174, 2.614292, 0};
Point(p14 + 11) = {28.15741030766733, 2.59821090445847, 0};
Point(p14 + 12) = {27.95811189049126, 2.550363587776208, 0};
Point(p14 + 13) = {27.7687521369362, 2.471928209686072, 0};
Point(p14 + 14) = {27.59399371258365, 2.364836109508737, 0};
Point(p14 + 15) = {27.43813974983113, 2.23172425016887, 0};
Point(p14 + 16) = {27.30502789049126, 2.075870287416355, 0};
Point(p14 + 17) = {27.19793579031393, 1.901111863063805, 0};
Point(p14 + 18) = {27.11950041222379, 1.711752109508736, 0};
Point(p14 + 19) = {27.07165309554153, 1.512453692332669, 0};
Point(p14 + 20) = {27.055572, 1.308124, 0};
Point(p14 + 21) = {27.07165309554153, 1.103794307667332, 0};
Point(p14 + 22) = {27.11950041222379, 0.9044958904912633, 0};
Point(p14 + 23) = {27.19793579031393, 0.7151361369361964, 0};
Point(p14 + 24) = {27.30502789049126, 0.5403777125836452, 0};
Point(p14 + 25) = {27.43813974983113, 0.3845237498311297, 0};
Point(p14 + 26) = {27.59399371258365, 0.2514118904912639, 0};
Point(p14 + 27) = {27.7687521369362, 0.1443197903139282, 0};
Point(p14 + 28) = {27.95811189049126, 0.06588441222379204, 0};
Point(p14 + 29) = {28.15741030766733, 0.01803709554153032, 0};
Point(p14 + 30) = {28.36174, 0.001956000000000069, 0};
Point(p14 + 31) = {28.56606969233267, 0.0180370955415301, 0};
Point(p14 + 32) = {28.76536810950874, 0.06588441222379182, 0};
Point(p14 + 33) = {28.95472786306381, 0.1443197903139279, 0};
Point(p14 + 34) = {29.12948628741636, 0.2514118904912637, 0};
Point(p14 + 35) = {29.28534025016887, 0.3845237498311295, 0};
Point(p14 + 36) = {29.41845210950874, 0.5403777125836448, 0};
Point(p14 + 37) = {29.52554420968607, 0.7151361369361955, 0};
Point(p14 + 38) = {29.60397958777621, 0.9044958904912634, 0};
Point(p14 + 39) = {29.65182690445847, 1.103794307667332, 0};
Spline(14) = {10, p14 + 1, p14 + 2, p14 + 3, p14 + 4, p14 + 5, p14 + 6, p14 + 7, p14 + 8, p14 + 9, p14 + 10, p14 + 11, p14 + 12, p14 + 13, p14 + 14, p14 + 15, p14 + 16, p14 + 17, p14 + 18, p14 + 19, p14 + 20, p14 + 21, p14 + 22, p14 + 23, p14 + 24, p14 + 25, p14 + 26, p14 + 27, p14 + 28, p14 + 29, p14 + 30, p14 + 31, p14 + 32, p14 + 33, p14 + 34, p14 + 35, p14 + 36, p14 + 37, p14 + 38, p14 + 39, 10};
Line(15) = {10, 8};
Curve Loop(1) = {-1, 4, 3, -2};
Plane Surface(1) = {1};
Curve Loop(2) = {-5, 1, 7, -6};
Plane Surface(2) = {2};
Curve Loop(3) = {-2, 7, 9, -8, -10};
Plane Surface(3) = {3};
Curve Loop(4) = {-11, 3, 8, -12};
Plane Surface(4) = {4};
Curve Loop(5) = {-4, 5, 13, -11, -14};
Plane Surface(5) = {5};
Curve Loop(6) = {-6, 13, 12, -9};
Plane Surface(6) = {6};
Curve Loop(7) = {-10, -15, 14, 15};
Surface(7) = {7};
Surface Loop(1) = {1, 2, 3, 4, 5, 6, 7};
Volume(1) = {1};
Physical Surface("INFLOW") = {1};
Physical Surface("OUTFLOW") = {6};
Physical Surface("OBSTACLE") = {7};
Physical Surface("WALL_Y") = {2, 4};
Physical Surface("WALL_Z") = {3, 5};
Physical Volume("FLUID") = {1};
