cl__1 = 1;
cl__2 = 0.053941;
cl__3 = 0.07016699999999999;
Point(1) = {0.114013, -3.893423, 1, cl__1};
Point(2) = {0.114013, -3.893423, 0, cl__1};
Point(3) = {0.114013, 4.10595, 1, cl__1};
Point(4) = {0.114013, 4.10595, 0, cl__1};
Point(5) = {31.986467, -3.893423, 0, cl__1};
Point(6) = {31.986467, -3.893423, 1, cl__1};
Point(7) = {31.986467, 4.10595, 1, cl__1};
Point(8) = {23.039862, -1.637062, 1, cl__2};
Point(9) = {9.113918999999999, 0.1851539999999998, 1, cl__3};
Point(10) = {31.986467, 4.10595, 0, cl__1};
Point(11) = {23.039862, -1.637062, 0, cl__2};
Point(12) = {9.113918999999999, 0.1851539999999998, 0, cl__3};
Line(1) = {2, 1};
Line(2) = {1, 3};
Line(3) = {4, 3};
Line(4) = {2, 4};
Line(5) = {2, 5};
Line(6) = {5, 6};
Line(7) = {1, 6};
Line(8) = {3, 7};
Line(9) = {6, 7};
p10 = newp;
Point(p10 + 1) = {23.03322101704706, -1.552680310950509, 1};
Point(p10 + 2) = {23.0134615912287, -1.470376379132187, 1};
Point(p10 + 3) = {22.98107026518635, -1.39217680049749, 1};
Point(p10 + 4) = {22.93684462086781, -1.320007108201926, 1};
Point(p10 + 5) = {22.88187364041271, -1.255644359587289, 1};
Point(p10 + 6) = {22.81751089179807, -1.200673379132187, 1};
Point(p10 + 7) = {22.74534119950251, -1.156447734813649, 1};
Point(p10 + 8) = {22.66714162086781, -1.124056408771296, 1};
Point(p10 + 9) = {22.58483768904949, -1.104296982952939, 1};
Point(p10 + 10) = {22.500456, -1.097656, 1};
Point(p10 + 11) = {22.41607431095051, -1.104296982952939, 1};
Point(p10 + 12) = {22.33377037913219, -1.124056408771296, 1};
Point(p10 + 13) = {22.25557080049749, -1.156447734813649, 1};
Point(p10 + 14) = {22.18340110820193, -1.200673379132187, 1};
Point(p10 + 15) = {22.11903835958729, -1.255644359587289, 1};
Point(p10 + 16) = {22.06406737913219, -1.320007108201926, 1};
Point(p10 + 17) = {22.01984173481365, -1.39217680049749, 1};
Point(p10 + 18) = {21.98745040877129, -1.470376379132187, 1};
Point(p10 + 19) = {21.96769098295294, -1.552680310950509, 1};
Point(p10 + 20) = {21.96105, -1.637062, 1};
Point(p10 + 21) = {21.96769098295294, -1.721443689049491, 1};
Point(p10 + 22) = {21.98745040877129, -1.803747620867813, 1};
Point(p10 + 23) = {22.01984173481365, -1.88194719950251, 1};
Point(p10 + 24) = {22.06406737913219, -1.954116891798074, 1};
Point(p10 + 25) = {22.11903835958729, -2.018479640412711, 1};
Point(p10 + 26) = {22.18340110820193, -2.073450620867813, 1};
Point(p10 + 27) = {22.25557080049749, -2.117676265186351, 1};
Point(p10 + 28) = {22.33377037913219, -2.150067591228704, 1};
Point(p10 + 29) = {22.41607431095051, -2.169827017047061, 1};
Point(p10 + 30) = {22.500456, -2.176468, 1};
Point(p10 + 31) = {22.58483768904949, -2.169827017047061, 1};
Point(p10 + 32) = {22.66714162086781, -2.150067591228704, 1};
Point(p10 + 33) = {22.74534119950251, -2.117676265186351, 1};
Point(p10 + 34) = {22.81751089179807, -2.073450620867813, 1};
Point(p10 + 35) = {22.88187364041271, -2.018479640412711, 1};
Point(p10 + 36) = {22.93684462086781, -1.954116891798074, 1};
Point(p10 + 37) = {22.98107026518635, -1.88194719950251, 1};
Point(p10 + 38) = {23.0134615912287, -1.803747620867813, 1};
Point(p10 + 39) = {23.03322101704706, -1.721443689049491, 1};
Spline(10) = {8, p10 + 1, p10 + 2, p10 + 3, p10 + 4, p10 + 5, p10 + 6, p10 + 7, p10 + 8, p10 + 9, p10 + 10, p10 + 11, p10 + 12, p10 + 13, p10 + 14, p10 + 15, p10 + 16, p10 + 17, p10 + 18, p10 + 19, p10 + 20, p10 + 21, p10 + 22, p10 + 23, p10 + 24, p10 + 25, p10 + 26, p10 + 27, p10 + 28, p10 + 29, p10 + 30, p10 + 31, p10 + 32, p10 + 33, p10 + 34, p10 + 35, p10 + 36, p10 + 37, p10 + 38, p10 + 39, 8};
p11 = newp;
Point(p11 + 1) = {9.105280241010412, 0.2949198403881739, 1};
Point(p11 + 2) = {9.079576678958368, 0.4019828814940525, 1};
Point(p11 + 3) = {9.037441220846825, 0.503706875923747, 1};
Point(p11 + 4) = {8.979911381494052, 0.5975870413318165, 1};
Point(p11 + 5) = {8.908403736475508, 0.6813117364755084, 1};
Point(p11 + 6) = {8.824679041331816, 0.7528193814940526, 1};
Point(p11 + 7) = {8.730798875923746, 0.8103492208468246, 1};
Point(p11 + 8) = {8.629074881494052, 0.8524846789583693, 1};
Point(p11 + 9) = {8.522011840388174, 0.8781882410104122, 1};
Point(p11 + 10) = {8.412246, 0.886827, 1};
Point(p11 + 11) = {8.302480159611825, 0.878188241010412, 1};
Point(p11 + 12) = {8.195417118505947, 0.8524846789583693, 1};
Point(p11 + 13) = {8.093693124076253, 0.8103492208468247, 1};
Point(p11 + 14) = {7.999812958668183, 0.7528193814940526, 1};
Point(p11 + 15) = {7.916088263524491, 0.6813117364755084, 1};
Point(p11 + 16) = {7.844580618505947, 0.5975870413318166, 1};
Point(p11 + 17) = {7.787050779153175, 0.5037068759237471, 1};
Point(p11 + 18) = {7.74491532104163, 0.4019828814940526, 1};
Point(p11 + 19) = {7.719211758989587, 0.294919840388174, 1};
Point(p11 + 20) = {7.710573, 0.1851540000000001, 1};
Point(p11 + 21) = {7.719211758989587, 0.0753881596118262, 1};
Point(p11 + 22) = {7.74491532104163, -0.03167488149405268, 1};
Point(p11 + 23) = {7.787050779153175, -0.1333988759237466, 1};
Point(p11 + 24) = {7.844580618505947, -0.2272790413318164, 1};
Point(p11 + 25) = {7.916088263524491, -0.3110037364755083, 1};
Point(p11 + 26) = {7.999812958668183, -0.3825113814940524, 1};
Point(p11 + 27) = {8.093693124076253, -0.4400412208468245, 1};
Point(p11 + 28) = {8.195417118505947, -0.4821766789583692, 1};
Point(p11 + 29) = {8.302480159611825, -0.507880241010412, 1};
Point(p11 + 30) = {8.412246, -0.516519, 1};
Point(p11 + 31) = {8.522011840388174, -0.5078802410104121, 1};
Point(p11 + 32) = {8.629074881494052, -0.4821766789583692, 1};
Point(p11 + 33) = {8.730798875923746, -0.4400412208468246, 1};
Point(p11 + 34) = {8.824679041331816, -0.3825113814940525, 1};
Point(p11 + 35) = {8.908403736475508, -0.3110037364755085, 1};
Point(p11 + 36) = {8.979911381494052, -0.2272790413318166, 1};
Point(p11 + 37) = {9.037441220846825, -0.1333988759237471, 1};
Point(p11 + 38) = {9.079576678958368, -0.03167488149405259, 1};
Point(p11 + 39) = {9.105280241010412, 0.07538815961182595, 1};
Spline(11) = {9, p11 + 1, p11 + 2, p11 + 3, p11 + 4, p11 + 5, p11 + 6, p11 + 7, p11 + 8, p11 + 9, p11 + 10, p11 + 11, p11 + 12, p11 + 13, p11 + 14, p11 + 15, p11 + 16, p11 + 17, p11 + 18, p11 + 19, p11 + 20, p11 + 21, p11 + 22, p11 + 23, p11 + 24, p11 + 25, p11 + 26, p11 + 27, p11 + 28, p11 + 29, p11 + 30, p11 + 31, p11 + 32, p11 + 33, p11 + 34, p11 + 35, p11 + 36, p11 + 37, p11 + 38, p11 + 39, 9};
Line(12) = {4, 10};
Line(13) = {10, 7};
Line(14) = {5, 10};
p15 = newp;
Point(p15 + 1) = {23.03322101704706, -1.552680310950509, 0};
Point(p15 + 2) = {23.0134615912287, -1.470376379132187, 0};
Point(p15 + 3) = {22.98107026518635, -1.39217680049749, 0};
Point(p15 + 4) = {22.93684462086781, -1.320007108201926, 0};
Point(p15 + 5) = {22.88187364041271, -1.255644359587289, 0};
Point(p15 + 6) = {22.81751089179807, -1.200673379132187, 0};
Point(p15 + 7) = {22.74534119950251, -1.156447734813649, 0};
Point(p15 + 8) = {22.66714162086781, -1.124056408771296, 0};
Point(p15 + 9) = {22.58483768904949, -1.104296982952939, 0};
Point(p15 + 10) = {22.500456, -1.097656, 0};
Point(p15 + 11) = {22.41607431095051, -1.104296982952939, 0};
Point(p15 + 12) = {22.33377037913219, -1.124056408771296, 0};
Point(p15 + 13) = {22.25557080049749, -1.156447734813649, 0};
Point(p15 + 14) = {22.18340110820193, -1.200673379132187, 0};
Point(p15 + 15) = {22.11903835958729, -1.255644359587289, 0};
Point(p15 + 16) = {22.06406737913219, -1.320007108201926, 0};
Point(p15 + 17) = {22.01984173481365, -1.39217680049749, 0};
Point(p15 + 18) = {21.98745040877129, -1.470376379132187, 0};
Point(p15 + 19) = {21.96769098295294, -1.552680310950509, 0};
Point(p15 + 20) = {21.96105, -1.637062, 0};
Point(p15 + 21) = {21.96769098295294, -1.721443689049491, 0};
Point(p15 + 22) = {21.98745040877129, -1.803747620867813, 0};
Point(p15 + 23) = {22.01984173481365, -1.88194719950251, 0};
Point(p15 + 24) = {22.06406737913219, -1.954116891798074, 0};
Point(p15 + 25) = {22.11903835958729, -2.018479640412711, 0};
Point(p15 + 26) = {22.18340110820193, -2.073450620867813, 0};
Point(p15 + 27) = {22.25557080049749, -2.117676265186351, 0};
Point(p15 + 28) = {22.33377037913219, -2.150067591228704, 0};
Point(p15 + 29) = {22.41607431095051, -2.169827017047061, 0};
Point(p15 + 30) = {22.500456, -2.176468, 0};
Point(p15 + 31) = {22.58483768904949, -2.169827017047061, 0};
Point(p15 + 32) = {22.66714162086781, -2.150067591228704, 0};
Point(p15 + 33) = {22.74534119950251, -2.117676265186351, 0};
Point(p15 + 34) = {22.81751089179807, -2.073450620867813, 0};
Point(p15 + 35) = {22.88187364041271, -2.018479640412711, 0};
Point(p15 + 36) = {22.93684462086781, -1.954116891798074, 0};
Point(p15 + 37) = {22.98107026518635, -1.88194719950251, 0};
Point(p15 + 38) = {23.0134615912287, -1.803747620867813, 0};
Point(p15 + 39) = {23.03322101704706, -1.721443689049491, 0};
Spline(15) = {11, p15 + 1, p15 + 2, p15 + 3, p15 + 4, p15 + 5, p15 + 6, p15 + 7, p15 + 8, p15 + 9, p15 + 10, p15 + 11, p15 + 12, p15 + 13, p15 + 14, p15 + 15, p15 + 16, p15 + 17, p15 + 18, p15 + 19, p15 + 20, p15 + 21, p15 + 22, p15 + 23, p15 + 24, p15 + 25, p15 + 26, p15 + 27, p15 + 28, p15 + 29, p15 + 30, p15 + 31, p15 + 32, p15 + 33, p15 + 34, p15 + 35, p15 + 36, p15 + 37, p15 + 38, p15 + 39, 11};
p16 = newp;
Point(p16 + 1) = {9.105280241010412, 0.2949198403881739, 0};
Point(p16 + 2) = {9.079576678958368, 0.4019828814940525, 0};
Point(p16 + 3) = {9.037441220846825, 0.503706875923747, 0};
Point(p16 + 4) = {8.979911381494052, 0.5975870413318165, 0};
Point(p16 + 5) = {8.908403736475508, 0.6813117364755084, 0};
Point(p16 + 6) = {8.824679041331816, 0.7528193814940526, 0};
Point(p16 + 7) = {8.730798875923746, 0.8103492208468246, 0};
Point(p16 + 8) = {8.629074881494052, 0.8524846789583693, 0};
Point(p16 + 9) = {8.522011840388174, 0.8781882410104122, 0};
Point(p16 + 10) = {8.412246, 0.886827, 0};
Point(p16 + 11) = {8.302480159611825, 0.878188241010412, 0};
Point(p16 + 12) = {8.195417118505947, 0.8524846789583693, 0};
Point(p16 + 13) = {8.093693124076253, 0.8103492208468247, 0};
Point(p16 + 14) = {7.999812958668183, 0.7528193814940526, 0};
Point(p16 + 15) = {7.916088263524491, 0.6813117364755084, 0};
Point(p16 + 16) = {7.844580618505947, 0.5975870413318166, 0};
Point(p16 + 17) = {7.787050779153175, 0.5037068759237471, 0};
Point(p16 + 18) = {7.74491532104163, 0.4019828814940526, 0};
Point(p16 + 19) = {7.719211758989587, 0.294919840388174, 0};
Point(p16 + 20) = {7.710573, 0.1851540000000001, 0};
Point(p16 + 21) = {7.719211758989587, 0.0753881596118262, 0};
Point(p16 + 22) = {7.74491532104163, -0.03167488149405268, 0};
Point(p16 + 23) = {7.787050779153175, -0.1333988759237466, 0};
Point(p16 + 24) = {7.844580618505947, -0.2272790413318164, 0};
Point(p16 + 25) = {7.916088263524491, -0.3110037364755083, 0};
Point(p16 + 26) = {7.999812958668183, -0.3825113814940524, 0};
Point(p16 + 27) = {8.093693124076253, -0.4400412208468245, 0};
Point(p16 + 28) = {8.195417118505947, -0.4821766789583692, 0};
Point(p16 + 29) = {8.302480159611825, -0.507880241010412, 0};
Point(p16 + 30) = {8.412246, -0.516519, 0};
Point(p16 + 31) = {8.522011840388174, -0.5078802410104121, 0};
Point(p16 + 32) = {8.629074881494052, -0.4821766789583692, 0};
Point(p16 + 33) = {8.730798875923746, -0.4400412208468246, 0};
Point(p16 + 34) = {8.824679041331816, -0.3825113814940525, 0};
Point(p16 + 35) = {8.908403736475508, -0.3110037364755085, 0};
Point(p16 + 36) = {8.979911381494052, -0.2272790413318166, 0};
Point(p16 + 37) = {9.037441220846825, -0.1333988759237471, 0};
Point(p16 + 38) = {9.079576678958368, -0.03167488149405259, 0};
Point(p16 + 39) = {9.105280241010412, 0.07538815961182595, 0};
Spline(16) = {12, p16 + 1, p16 + 2, p16 + 3, p16 + 4, p16 + 5, p16 + 6, p16 + 7, p16 + 8, p16 + 9, p16 + 10, p16 + 11, p16 + 12, p16 + 13, p16 + 14, p16 + 15, p16 + 16, p16 + 17, p16 + 18, p16 + 19, p16 + 20, p16 + 21, p16 + 22, p16 + 23, p16 + 24, p16 + 25, p16 + 26, p16 + 27, p16 + 28, p16 + 29, p16 + 30, p16 + 31, p16 + 32, p16 + 33, p16 + 34, p16 + 35, p16 + 36, p16 + 37, p16 + 38, p16 + 39, 12};
Line(17) = {11, 8};
Line(18) = {12, 9};
Curve Loop(1) = {-1, 4, 3, -2};
Plane Surface(1) = {1};
Curve Loop(2) = {-5, 1, 7, -6};
Plane Surface(2) = {2};
Curve Loop(3) = {-2, 7, 9, -8, -10, -11};
Plane Surface(3) = {3};
Curve Loop(4) = {-12, 3, 8, -13};
Plane Surface(4) = {4};
Curve Loop(5) = {-4, 5, 14, -12, -15, -16};
Plane Surface(5) = {5};
Curve Loop(6) = {-6, 14, 13, -9};
Plane Surface(6) = {6};
Curve Loop(7) = {-10, -17, 15, 17};
Surface(7) = {7};
Curve Loop(8) = {-11, -18, 16, 18};
Surface(8) = {8};
Surface Loop(1) = {1, 2, 3, 4, 5, 6, 7, 8};
Volume(1) = {1};
Physical Surface("INFLOW") = {1};
Physical Surface("OUTFLOW") = {6};
Physical Surface("OBSTACLE") = {7, 8};
Physical Surface("WALL_Y") = {2, 4};
Physical Surface("WALL_Z") = {3, 5};
Physical Volume("FLUID") = {1};
