cl__1 = 1.361661;
cl__2 = 1.382025;
cl__3 = 3.99459;
cl__4 = 0.081912;
Point(1) = {0.7342, -3.05268, 1, cl__1};
Point(2) = {0.7342, -3.05268, 0, cl__1};
Point(3) = {0.7342, 4.774234999999999, 1, cl__2};
Point(4) = {0.7342, 4.774234999999999, 0, cl__2};
Point(5) = {39.753742, -3.05268, 0, cl__3};
Point(6) = {39.753742, -3.05268, 1, cl__3};
Point(7) = {39.753742, 4.774234999999999, 1, cl__3};
Point(8) = {15.549475, 0.4825389999999998, 1, cl__4};
Point(9) = {39.753742, 4.774234999999999, 0, cl__3};
Point(10) = {15.549475, 0.4825389999999998, 0, cl__4};
Line(1) = {2, 1};
Line(2) = {1, 3};
Line(3) = {4, 3};
Line(4) = {2, 4};
Line(5) = {2, 5};
Line(6) = {5, 6};
Line(7) = {1, 6};
Line(8) = {3, 7};
Line(9) = {6, 7};
p10 = newp;
Point(p10 + 1) = {15.53939032279493, 0.6106769732658938, 1};
Point(p10 + 2) = {15.50938460940162, 0.7356597643644294, 1};
Point(p10 + 3) = {15.46019670006708, 0.8544098821846586, 1};
Point(p10 + 4) = {15.39303776436443, 0.9640033047168014, 1};
Point(p10 + 5) = {15.3095614781784, 1.0617414781784, 1};
Point(p10 + 6) = {15.2118233047168, 1.145217764364429, 1};
Point(p10 + 7) = {15.10222988218466, 1.212376700067079, 1};
Point(p10 + 8) = {14.98347976436443, 1.261564609401621, 1};
Point(p10 + 9) = {14.85849697326589, 1.291570322794927, 1};
Point(p10 + 10) = {14.730359, 1.301655, 1};
Point(p10 + 11) = {14.60222102673411, 1.291570322794927, 1};
Point(p10 + 12) = {14.47723823563557, 1.261564609401621, 1};
Point(p10 + 13) = {14.35848811781534, 1.212376700067079, 1};
Point(p10 + 14) = {14.2488946952832, 1.145217764364429, 1};
Point(p10 + 15) = {14.1511565218216, 1.0617414781784, 1};
Point(p10 + 16) = {14.06768023563557, 0.9640033047168015, 1};
Point(p10 + 17) = {14.00052129993292, 0.8544098821846586, 1};
Point(p10 + 18) = {13.95133339059838, 0.7356597643644295, 1};
Point(p10 + 19) = {13.92132767720507, 0.6106769732658939, 1};
Point(p10 + 20) = {13.911243, 0.4825390000000001, 1};
Point(p10 + 21) = {13.92132767720507, 0.3544010267341063, 1};
Point(p10 + 22) = {13.95133339059838, 0.2294182356355703, 1};
Point(p10 + 23) = {14.00052129993292, 0.1106681178153419, 1};
Point(p10 + 24) = {14.06768023563557, 0.001074695283198701, 1};
Point(p10 + 25) = {14.1511565218216, -0.09666347817839999, 1};
Point(p10 + 26) = {14.2488946952832, -0.1801397643644293, 1};
Point(p10 + 27) = {14.35848811781534, -0.247298700067079, 1};
Point(p10 + 28) = {14.47723823563557, -0.2964866094016209, 1};
Point(p10 + 29) = {14.60222102673411, -0.3264923227949267, 1};
Point(p10 + 30) = {14.730359, -0.336577, 1};
Point(p10 + 31) = {14.85849697326589, -0.3264923227949268, 1};
Point(p10 + 32) = {14.98347976436443, -0.296486609401621, 1};
Point(p10 + 33) = {15.10222988218466, -0.2472987000670792, 1};
Point(p10 + 34) = {15.2118233047168, -0.1801397643644295, 1};
Point(p10 + 35) = {15.3095614781784, -0.09666347817840021, 1};
Point(p10 + 36) = {15.39303776436443, 0.001074695283198424, 1};
Point(p10 + 37) = {15.46019670006708, 0.1106681178153412, 1};
Point(p10 + 38) = {15.50938460940162, 0.2294182356355704, 1};
Point(p10 + 39) = {15.53939032279493, 0.3544010267341061, 1};
Spline(10) = {8, p10 + 1, p10 + 2, p10 + 3, p10 + 4, p10 + 5, p10 + 6, p10 + 7, p10 + 8, p10 + 9, p10 + 10, p10 + 11, p10 + 12, p10 + 13, p10 + 14, p10 + 15, p10 + 16, p10 + 17, p10 + 18, p10 + 19, p10 + 20, p10 + 21, p10 + 22, p10 + 23, p10 + 24, p10 + 25, p10 + 26, p10 + 27, p10 + 28, p10 + 29, p10 + 30, p10 + 31, p10 + 32, p10 + 33, p10 + 34, p10 + 35, p10 + 36, p10 + 37, p10 + 38, p10 + 39, 8};
Line(11) = {4, 9};
Line(12) = {9, 7};
Line(13) = {5, 9};
p14 = newp;
Point(p14 + 1) = {15.53939032279493, 0.6106769732658938, 0};
Point(p14 + 2) = {15.50938460940162, 0.7356597643644294, 0};
Point(p14 + 3) = {15.46019670006708, 0.8544098821846586, 0};
Point(p14 + 4) = {15.39303776436443, 0.9640033047168014, 0};
Point(p14 + 5) = {15.3095614781784, 1.0617414781784, 0};
Point(p14 + 6) = {15.2118233047168, 1.145217764364429, 0};
Point(p14 + 7) = {15.10222988218466, 1.212376700067079, 0};
Point(p14 + 8) = {14.98347976436443, 1.261564609401621, 0};
Point(p14 + 9) = {14.85849697326589, 1.291570322794927, 0};
Point(p14 + 10) = {14.730359, 1.301655, 0};
Point(p14 + 11) = {14.60222102673411, 1.291570322794927, 0};
Point(p14 + 12) = {14.47723823563557, 1.261564609401621, 0};
Point(p14 + 13) = {14.35848811781534, 1.212376700067079, 0};
Point(p14 + 14) = {14.2488946952832, 1.145217764364429, 0};
Point(p14 + 15) = {14.1511565218216, 1.0617414781784, 0};
Point(p14 + 16) = {14.06768023563557, 0.9640033047168015, 0};
Point(p14 + 17) = {14.00052129993292, 0.8544098821846586, 0};
Point(p14 + 18) = {13.95133339059838, 0.7356597643644295, 0};
Point(p14 + 19) = {13.92132767720507, 0.6106769732658939, 0};
Point(p14 + 20) = {13.911243, 0.4825390000000001, 0};
Point(p14 + 21) = {13.92132767720507, 0.3544010267341063, 0};
Point(p14 + 22) = {13.95133339059838, 0.2294182356355703, 0};
Point(p14 + 23) = {14.00052129993292, 0.1106681178153419, 0};
Point(p14 + 24) = {14.06768023563557, 0.001074695283198701, 0};
Point(p14 + 25) = {14.1511565218216, -0.09666347817839999, 0};
Point(p14 + 26) = {14.2488946952832, -0.1801397643644293, 0};
Point(p14 + 27) = {14.35848811781534, -0.247298700067079, 0};
Point(p14 + 28) = {14.47723823563557, -0.2964866094016209, 0};
Point(p14 + 29) = {14.60222102673411, -0.3264923227949267, 0};
Point(p14 + 30) = {14.730359, -0.336577, 0};
Point(p14 + 31) = {14.85849697326589, -0.3264923227949268, 0};
Point(p14 + 32) = {14.98347976436443, -0.296486609401621, 0};
Point(p14 + 33) = {15.10222988218466, -0.2472987000670792, 0};
Point(p14 + 34) = {15.2118233047168, -0.1801397643644295, 0};
Point(p14 + 35) = {15.3095614781784, -0.09666347817840021, 0};
Point(p14 + 36) = {15.39303776436443, 0.001074695283198424, 0};
Point(p14 + 37) = {15.46019670006708, 0.1106681178153412, 0};
Point(p14 + 38) = {15.50938460940162, 0.2294182356355704, 0};
Point(p14 + 39) = {15.53939032279493, 0.3544010267341061, 0};
Spline(14) = {10, p14 + 1, p14 + 2, p14 + 3, p14 + 4, p14 + 5, p14 + 6, p14 + 7, p14 + 8, p14 + 9, p14 + 10, p14 + 11, p14 + 12, p14 + 13, p14 + 14, p14 + 15, p14 + 16, p14 + 17, p14 + 18, p14 + 19, p14 + 20, p14 + 21, p14 + 22, p14 + 23, p14 + 24, p14 + 25, p14 + 26, p14 + 27, p14 + 28, p14 + 29, p14 + 30, p14 + 31, p14 + 32, p14 + 33, p14 + 34, p14 + 35, p14 + 36, p14 + 37, p14 + 38, p14 + 39, 10};
Line(15) = {10, 8};
Curve Loop(1) = {-1, 4, 3, -2};
Plane Surface(1) = {1};
Curve Loop(2) = {-5, 1, 7, -6};
Plane Surface(2) = {2};
Curve Loop(3) = {-2, 7, 9, -8, -10};
Plane Surface(3) = {3};
Curve Loop(4) = {-11, 3, 8, -12};
Plane Surface(4) = {4};
Curve Loop(5) = {-4, 5, 13, -11, -14};
Plane Surface(5) = {5};
Curve Loop(6) = {-6, 13, 12, -9};
Plane Surface(6) = {6};
Curve Loop(7) = {-10, -15, 14, 15};
Surface(7) = {7};
Surface Loop(1) = {1, 2, 3, 4, 5, 6, 7};
Volume(1) = {1};
Physical Surface("INFLOW") = {1};
Physical Surface("OUTFLOW") = {6};
Physical Surface("OBSTACLE") = {7};
Physical Surface("WALL_Y") = {2, 4};
Physical Surface("WALL_Z") = {3, 5};
Physical Volume("FLUID") = {1};
