cl__1 = 0.554786;
cl__2 = 3.704215;
cl__3 = 0.120367;
cl__4 = 0.05423;
Point(1) = {0.429914, -4.075044, 1, cl__1};
Point(2) = {0.429914, -4.075044, 0, cl__1};
Point(3) = {0.429914, 4.641538000000001, 1, cl__2};
Point(4) = {0.429914, 4.641538000000001, 0, cl__2};
Point(5) = {36.78486299999999, -4.075044, 0, cl__1};
Point(6) = {36.78486299999999, -4.075044, 1, cl__1};
Point(7) = {36.78486299999999, 4.641538000000001, 1, cl__2};
Point(8) = {7.66658, -1.044182, 1, cl__3};
Point(9) = {3.193589, 3.153349, 1, cl__4};
Point(10) = {36.78486299999999, 4.641538000000001, 0, cl__2};
Point(11) = {7.66658, -1.044182, 0, cl__3};
Point(12) = {3.193589, 3.153349, 0, cl__4};
Line(1) = {2, 1};
Line(2) = {1, 3};
Line(3) = {4, 3};
Line(4) = {2, 4};
Line(5) = {2, 5};
Line(6) = {5, 6};
Line(7) = {1, 6};
Line(8) = {3, 7};
Line(9) = {6, 7};
p10 = newp;
Point(p10 + 1) = {7.65176081261249, -0.8558863710305602, 1};
Point(p10 + 2) = {7.607668148025503, -0.6722272053637126, 1};
Point(p10 + 3) = {7.535387713976337, -0.4977268011879999, 1};
Point(p10 + 4) = {7.436699294636287, -0.3366819375878666, 1};
Point(p10 + 5) = {7.314032926417593, -0.1930580735824072, 1};
Point(p10 + 6) = {7.170409062412133, -0.07039170536371264, 1};
Point(p10 + 7) = {7.009364198811999, 0.02829671397633682, 1};
Point(p10 + 8) = {6.834863794636287, 0.1005771480255038, 1};
Point(p10 + 9) = {6.65120462896944, 0.1446698126124901, 1};
Point(p10 + 10) = {6.462909, 0.159489, 1};
Point(p10 + 11) = {6.27461337103056, 0.1446698126124899, 1};
Point(p10 + 12) = {6.090954205363713, 0.1005771480255038, 1};
Point(p10 + 13) = {5.916453801188, 0.02829671397633704, 1};
Point(p10 + 14) = {5.755408937587866, -0.07039170536371264, 1};
Point(p10 + 15) = {5.611785073582407, -0.1930580735824071, 1};
Point(p10 + 16) = {5.489118705363713, -0.3366819375878665, 1};
Point(p10 + 17) = {5.390430286023663, -0.4977268011879998, 1};
Point(p10 + 18) = {5.318149851974496, -0.6722272053637125, 1};
Point(p10 + 19) = {5.27405718738751, -0.8558863710305601, 1};
Point(p10 + 20) = {5.259238, -1.044182, 1};
Point(p10 + 21) = {5.27405718738751, -1.232477628969439, 1};
Point(p10 + 22) = {5.318149851974496, -1.416136794636288, 1};
Point(p10 + 23) = {5.390430286023663, -1.590637198811999, 1};
Point(p10 + 24) = {5.489118705363713, -1.751682062412133, 1};
Point(p10 + 25) = {5.611785073582407, -1.895305926417593, 1};
Point(p10 + 26) = {5.755408937587866, -2.017972294636287, 1};
Point(p10 + 27) = {5.916453801188, -2.116660713976337, 1};
Point(p10 + 28) = {6.090954205363713, -2.188941148025504, 1};
Point(p10 + 29) = {6.27461337103056, -2.23303381261249, 1};
Point(p10 + 30) = {6.462909, -2.247853, 1};
Point(p10 + 31) = {6.651204628969439, -2.23303381261249, 1};
Point(p10 + 32) = {6.834863794636287, -2.188941148025504, 1};
Point(p10 + 33) = {7.009364198811999, -2.116660713976337, 1};
Point(p10 + 34) = {7.170409062412133, -2.017972294636287, 1};
Point(p10 + 35) = {7.314032926417593, -1.895305926417593, 1};
Point(p10 + 36) = {7.436699294636287, -1.751682062412134, 1};
Point(p10 + 37) = {7.535387713976337, -1.590637198812, 1};
Point(p10 + 38) = {7.607668148025503, -1.416136794636287, 1};
Point(p10 + 39) = {7.65176081261249, -1.23247762896944, 1};
Spline(10) = {8, p10 + 1, p10 + 2, p10 + 3, p10 + 4, p10 + 5, p10 + 6, p10 + 7, p10 + 8, p10 + 9, p10 + 10, p10 + 11, p10 + 12, p10 + 13, p10 + 14, p10 + 15, p10 + 16, p10 + 17, p10 + 18, p10 + 19, p10 + 20, p10 + 21, p10 + 22, p10 + 23, p10 + 24, p10 + 25, p10 + 26, p10 + 27, p10 + 28, p10 + 29, p10 + 30, p10 + 31, p10 + 32, p10 + 33, p10 + 34, p10 + 35, p10 + 36, p10 + 37, p10 + 38, p10 + 39, 8};
p11 = newp;
Point(p11 + 1) = {3.186912362481424, 3.238183723260247, 1};
Point(p11 + 2) = {3.167046850899894, 3.320929534083523, 1};
Point(p11 + 3) = {3.1344816200804, 3.399548955989756, 1};
Point(p11 + 4) = {3.090018534083523, 3.472106117888713, 1};
Point(p11 + 5) = {3.034752421651027, 3.536814421651027, 1};
Point(p11 + 6) = {2.970044117888713, 3.592080534083522, 1};
Point(p11 + 7) = {2.897486955989756, 3.6365436200804, 1};
Point(p11 + 8) = {2.818867534083523, 3.669108850899894, 1};
Point(p11 + 9) = {2.736121723260247, 3.688974362481424, 1};
Point(p11 + 10) = {2.651287, 3.695651, 1};
Point(p11 + 11) = {2.566452276739752, 3.688974362481424, 1};
Point(p11 + 12) = {2.483706465916477, 3.669108850899894, 1};
Point(p11 + 13) = {2.405087044010244, 3.6365436200804, 1};
Point(p11 + 14) = {2.332529882111287, 3.592080534083522, 1};
Point(p11 + 15) = {2.267821578348973, 3.536814421651027, 1};
Point(p11 + 16) = {2.212555465916477, 3.472106117888713, 1};
Point(p11 + 17) = {2.1680923799196, 3.399548955989756, 1};
Point(p11 + 18) = {2.135527149100106, 3.320929534083523, 1};
Point(p11 + 19) = {2.115661637518575, 3.238183723260248, 1};
Point(p11 + 20) = {2.108985, 3.153349, 1};
Point(p11 + 21) = {2.115661637518575, 3.068514276739753, 1};
Point(p11 + 22) = {2.135527149100106, 2.985768465916477, 1};
Point(p11 + 23) = {2.168092379919599, 2.907149044010245, 1};
Point(p11 + 24) = {2.212555465916477, 2.834591882111287, 1};
Point(p11 + 25) = {2.267821578348973, 2.769883578348973, 1};
Point(p11 + 26) = {2.332529882111287, 2.714617465916477, 1};
Point(p11 + 27) = {2.405087044010244, 2.6701543799196, 1};
Point(p11 + 28) = {2.483706465916477, 2.637589149100106, 1};
Point(p11 + 29) = {2.566452276739752, 2.617723637518576, 1};
Point(p11 + 30) = {2.651287, 2.611047, 1};
Point(p11 + 31) = {2.736121723260247, 2.617723637518576, 1};
Point(p11 + 32) = {2.818867534083523, 2.637589149100106, 1};
Point(p11 + 33) = {2.897486955989756, 2.6701543799196, 1};
Point(p11 + 34) = {2.970044117888713, 2.714617465916477, 1};
Point(p11 + 35) = {3.034752421651027, 2.769883578348973, 1};
Point(p11 + 36) = {3.090018534083522, 2.834591882111287, 1};
Point(p11 + 37) = {3.1344816200804, 2.907149044010244, 1};
Point(p11 + 38) = {3.167046850899894, 2.985768465916477, 1};
Point(p11 + 39) = {3.186912362481424, 3.068514276739752, 1};
Spline(11) = {9, p11 + 1, p11 + 2, p11 + 3, p11 + 4, p11 + 5, p11 + 6, p11 + 7, p11 + 8, p11 + 9, p11 + 10, p11 + 11, p11 + 12, p11 + 13, p11 + 14, p11 + 15, p11 + 16, p11 + 17, p11 + 18, p11 + 19, p11 + 20, p11 + 21, p11 + 22, p11 + 23, p11 + 24, p11 + 25, p11 + 26, p11 + 27, p11 + 28, p11 + 29, p11 + 30, p11 + 31, p11 + 32, p11 + 33, p11 + 34, p11 + 35, p11 + 36, p11 + 37, p11 + 38, p11 + 39, 9};
Line(12) = {4, 10};
Line(13) = {10, 7};
Line(14) = {5, 10};
p15 = newp;
Point(p15 + 1) = {7.65176081261249, -0.8558863710305602, 0};
Point(p15 + 2) = {7.607668148025503, -0.6722272053637126, 0};
Point(p15 + 3) = {7.535387713976337, -0.4977268011879999, 0};
Point(p15 + 4) = {7.436699294636287, -0.3366819375878666, 0};
Point(p15 + 5) = {7.314032926417593, -0.1930580735824072, 0};
Point(p15 + 6) = {7.170409062412133, -0.07039170536371264, 0};
Point(p15 + 7) = {7.009364198811999, 0.02829671397633682, 0};
Point(p15 + 8) = {6.834863794636287, 0.1005771480255038, 0};
Point(p15 + 9) = {6.65120462896944, 0.1446698126124901, 0};
Point(p15 + 10) = {6.462909, 0.159489, 0};
Point(p15 + 11) = {6.27461337103056, 0.1446698126124899, 0};
Point(p15 + 12) = {6.090954205363713, 0.1005771480255038, 0};
Point(p15 + 13) = {5.916453801188, 0.02829671397633704, 0};
Point(p15 + 14) = {5.755408937587866, -0.07039170536371264, 0};
Point(p15 + 15) = {5.611785073582407, -0.1930580735824071, 0};
Point(p15 + 16) = {5.489118705363713, -0.3366819375878665, 0};
Point(p15 + 17) = {5.390430286023663, -0.4977268011879998, 0};
Point(p15 + 18) = {5.318149851974496, -0.6722272053637125, 0};
Point(p15 + 19) = {5.27405718738751, -0.8558863710305601, 0};
Point(p15 + 20) = {5.259238, -1.044182, 0};
Point(p15 + 21) = {5.27405718738751, -1.232477628969439, 0};
Point(p15 + 22) = {5.318149851974496, -1.416136794636288, 0};
Point(p15 + 23) = {5.390430286023663, -1.590637198811999, 0};
Point(p15 + 24) = {5.489118705363713, -1.751682062412133, 0};
Point(p15 + 25) = {5.611785073582407, -1.895305926417593, 0};
Point(p15 + 26) = {5.755408937587866, -2.017972294636287, 0};
Point(p15 + 27) = {5.916453801188, -2.116660713976337, 0};
Point(p15 + 28) = {6.090954205363713, -2.188941148025504, 0};
Point(p15 + 29) = {6.27461337103056, -2.23303381261249, 0};
Point(p15 + 30) = {6.462909, -2.247853, 0};
Point(p15 + 31) = {6.651204628969439, -2.23303381261249, 0};
Point(p15 + 32) = {6.834863794636287, -2.188941148025504, 0};
Point(p15 + 33) = {7.009364198811999, -2.116660713976337, 0};
Point(p15 + 34) = {7.170409062412133, -2.017972294636287, 0};
Point(p15 + 35) = {7.314032926417593, -1.895305926417593, 0};
Point(p15 + 36) = {7.436699294636287, -1.751682062412134, 0};
Point(p15 + 37) = {7.535387713976337, -1.590637198812, 0};
Point(p15 + 38) = {7.607668148025503, -1.416136794636287, 0};
Point(p15 + 39) = {7.65176081261249, -1.23247762896944, 0};
Spline(15) = {11, p15 + 1, p15 + 2, p15 + 3, p15 + 4, p15 + 5, p15 + 6, p15 + 7, p15 + 8, p15 + 9, p15 + 10, p15 + 11, p15 + 12, p15 + 13, p15 + 14, p15 + 15, p15 + 16, p15 + 17, p15 + 18, p15 + 19, p15 + 20, p15 + 21, p15 + 22, p15 + 23, p15 + 24, p15 + 25, p15 + 26, p15 + 27, p15 + 28, p15 + 29, p15 + 30, p15 + 31, p15 + 32, p15 + 33, p15 + 34, p15 + 35, p15 + 36, p15 + 37, p15 + 38, p15 + 39, 11};
p16 = newp;
Point(p16 + 1) = {3.186912362481424, 3.238183723260247, 0};
Point(p16 + 2) = {3.167046850899894, 3.320929534083523, 0};
Point(p16 + 3) = {3.1344816200804, 3.399548955989756, 0};
Point(p16 + 4) = {3.090018534083523, 3.472106117888713, 0};
Point(p16 + 5) = {3.034752421651027, 3.536814421651027, 0};
Point(p16 + 6) = {2.970044117888713, 3.592080534083522, 0};
Point(p16 + 7) = {2.897486955989756, 3.6365436200804, 0};
Point(p16 + 8) = {2.818867534083523, 3.669108850899894, 0};
Point(p16 + 9) = {2.736121723260247, 3.688974362481424, 0};
Point(p16 + 10) = {2.651287, 3.695651, 0};
Point(p16 + 11) = {2.566452276739752, 3.688974362481424, 0};
Point(p16 + 12) = {2.483706465916477, 3.669108850899894, 0};
Point(p16 + 13) = {2.405087044010244, 3.6365436200804, 0};
Point(p16 + 14) = {2.332529882111287, 3.592080534083522, 0};
Point(p16 + 15) = {2.267821578348973, 3.536814421651027, 0};
Point(p16 + 16) = {2.212555465916477, 3.472106117888713, 0};
Point(p16 + 17) = {2.1680923799196, 3.399548955989756, 0};
Point(p16 + 18) = {2.135527149100106, 3.320929534083523, 0};
Point(p16 + 19) = {2.115661637518575, 3.238183723260248, 0};
Point(p16 + 20) = {2.108985, 3.153349, 0};
Point(p16 + 21) = {2.115661637518575, 3.068514276739753, 0};
Point(p16 + 22) = {2.135527149100106, 2.985768465916477, 0};
Point(p16 + 23) = {2.168092379919599, 2.907149044010245, 0};
Point(p16 + 24) = {2.212555465916477, 2.834591882111287, 0};
Point(p16 + 25) = {2.267821578348973, 2.769883578348973, 0};
Point(p16 + 26) = {2.332529882111287, 2.714617465916477, 0};
Point(p16 + 27) = {2.405087044010244, 2.6701543799196, 0};
Point(p16 + 28) = {2.483706465916477, 2.637589149100106, 0};
Point(p16 + 29) = {2.566452276739752, 2.617723637518576, 0};
Point(p16 + 30) = {2.651287, 2.611047, 0};
Point(p16 + 31) = {2.736121723260247, 2.617723637518576, 0};
Point(p16 + 32) = {2.818867534083523, 2.637589149100106, 0};
Point(p16 + 33) = {2.897486955989756, 2.6701543799196, 0};
Point(p16 + 34) = {2.970044117888713, 2.714617465916477, 0};
Point(p16 + 35) = {3.034752421651027, 2.769883578348973, 0};
Point(p16 + 36) = {3.090018534083522, 2.834591882111287, 0};
Point(p16 + 37) = {3.1344816200804, 2.907149044010244, 0};
Point(p16 + 38) = {3.167046850899894, 2.985768465916477, 0};
Point(p16 + 39) = {3.186912362481424, 3.068514276739752, 0};
Spline(16) = {12, p16 + 1, p16 + 2, p16 + 3, p16 + 4, p16 + 5, p16 + 6, p16 + 7, p16 + 8, p16 + 9, p16 + 10, p16 + 11, p16 + 12, p16 + 13, p16 + 14, p16 + 15, p16 + 16, p16 + 17, p16 + 18, p16 + 19, p16 + 20, p16 + 21, p16 + 22, p16 + 23, p16 + 24, p16 + 25, p16 + 26, p16 + 27, p16 + 28, p16 + 29, p16 + 30, p16 + 31, p16 + 32, p16 + 33, p16 + 34, p16 + 35, p16 + 36, p16 + 37, p16 + 38, p16 + 39, 12};
Line(17) = {11, 8};
Line(18) = {12, 9};
Curve Loop(1) = {-1, 4, 3, -2};
Plane Surface(1) = {1};
Curve Loop(2) = {-5, 1, 7, -6};
Plane Surface(2) = {2};
Curve Loop(3) = {-2, 7, 9, -8, -10, -11};
Plane Surface(3) = {3};
Curve Loop(4) = {-12, 3, 8, -13};
Plane Surface(4) = {4};
Curve Loop(5) = {-4, 5, 14, -12, -15, -16};
Plane Surface(5) = {5};
Curve Loop(6) = {-6, 14, 13, -9};
Plane Surface(6) = {6};
Curve Loop(7) = {-10, -17, 15, 17};
Surface(7) = {7};
Curve Loop(8) = {-11, -18, 16, 18};
Surface(8) = {8};
Surface Loop(1) = {1, 2, 3, 4, 5, 6, 7, 8};
Volume(1) = {1};
Physical Surface("INFLOW") = {1};
Physical Surface("OUTFLOW") = {6};
Physical Surface("OBSTACLE") = {7, 8};
Physical Surface("WALL_Y") = {2, 4};
Physical Surface("WALL_Z") = {3, 5};
Physical Volume("FLUID") = {1};
