cl__1 = 3.47958;
cl__2 = 1.537427;
cl__3 = 1.601609;
cl__4 = 0.068758;
Point(1) = {0.813566, -3.59305, 1, cl__1};
Point(2) = {0.813566, -3.59305, 0, cl__1};
Point(3) = {0.813566, 4.693243000000001, 1, cl__1};
Point(4) = {0.813566, 4.693243000000001, 0, cl__1};
Point(5) = {34.548259, -3.59305, 0, cl__2};
Point(6) = {34.548259, -3.59305, 1, cl__2};
Point(7) = {34.548259, 4.693243000000001, 1, cl__3};
Point(8) = {19.433247, -0.7188560000000003, 1, cl__4};
Point(9) = {34.548259, 4.693243000000001, 0, cl__3};
Point(10) = {19.433247, -0.7188560000000003, 0, cl__4};
Line(1) = {2, 1};
Line(2) = {1, 3};
Line(3) = {4, 3};
Line(4) = {2, 4};
Line(5) = {2, 5};
Line(6) = {5, 6};
Line(7) = {1, 6};
Line(8) = {3, 7};
Line(9) = {6, 7};
p10 = newp;
Point(p10 + 1) = {19.42478171229143, -0.611294321224243, 1};
Point(p10 + 2) = {19.39959429264377, -0.5063811679566905, 1};
Point(p10 + 3) = {19.35830493892101, -0.4066998502175833, 1};
Point(p10 + 4) = {19.30193033204331, -0.3147048528729844, 1};
Point(p10 + 5) = {19.23185860192859, -0.2326613980714102, 1};
Point(p10 + 6) = {19.14981514712702, -0.1625896679566905, 1};
Point(p10 + 7) = {19.05782014978242, -0.1062150610789895, 1};
Point(p10 + 8) = {18.95813883204331, -0.06492570735622949, 1};
Point(p10 + 9) = {18.85322567877576, -0.03973828770857335, 1};
Point(p10 + 10) = {18.745664, -0.031273, 1};
Point(p10 + 11) = {18.63810232122425, -0.03973828770857346, 1};
Point(p10 + 12) = {18.53318916795669, -0.06492570735622938, 1};
Point(p10 + 13) = {18.43350785021758, -0.1062150610789895, 1};
Point(p10 + 14) = {18.34151285287298, -0.1625896679566905, 1};
Point(p10 + 15) = {18.25946939807141, -0.2326613980714101, 1};
Point(p10 + 16) = {18.18939766795669, -0.3147048528729844, 1};
Point(p10 + 17) = {18.13302306107899, -0.4066998502175832, 1};
Point(p10 + 18) = {18.09173370735623, -0.5063811679566905, 1};
Point(p10 + 19) = {18.06654628770858, -0.6112943212242429, 1};
Point(p10 + 20) = {18.058081, -0.7188559999999999, 1};
Point(p10 + 21) = {18.06654628770858, -0.826417678775757, 1};
Point(p10 + 22) = {18.09173370735623, -0.9313308320433098, 1};
Point(p10 + 23) = {18.13302306107899, -1.031012149782417, 1};
Point(p10 + 24) = {18.18939766795669, -1.123007147127016, 1};
Point(p10 + 25) = {18.25946939807141, -1.20505060192859, 1};
Point(p10 + 26) = {18.34151285287298, -1.275122332043309, 1};
Point(p10 + 27) = {18.43350785021758, -1.331496938921011, 1};
Point(p10 + 28) = {18.53318916795669, -1.372786292643771, 1};
Point(p10 + 29) = {18.63810232122425, -1.397973712291427, 1};
Point(p10 + 30) = {18.745664, -1.406439, 1};
Point(p10 + 31) = {18.85322567877576, -1.397973712291427, 1};
Point(p10 + 32) = {18.95813883204331, -1.372786292643771, 1};
Point(p10 + 33) = {19.05782014978242, -1.331496938921011, 1};
Point(p10 + 34) = {19.14981514712702, -1.27512233204331, 1};
Point(p10 + 35) = {19.23185860192859, -1.20505060192859, 1};
Point(p10 + 36) = {19.30193033204331, -1.123007147127016, 1};
Point(p10 + 37) = {19.35830493892101, -1.031012149782417, 1};
Point(p10 + 38) = {19.39959429264377, -0.9313308320433097, 1};
Point(p10 + 39) = {19.42478171229143, -0.8264176787757572, 1};
Spline(10) = {8, p10 + 1, p10 + 2, p10 + 3, p10 + 4, p10 + 5, p10 + 6, p10 + 7, p10 + 8, p10 + 9, p10 + 10, p10 + 11, p10 + 12, p10 + 13, p10 + 14, p10 + 15, p10 + 16, p10 + 17, p10 + 18, p10 + 19, p10 + 20, p10 + 21, p10 + 22, p10 + 23, p10 + 24, p10 + 25, p10 + 26, p10 + 27, p10 + 28, p10 + 29, p10 + 30, p10 + 31, p10 + 32, p10 + 33, p10 + 34, p10 + 35, p10 + 36, p10 + 37, p10 + 38, p10 + 39, 8};
Line(11) = {4, 9};
Line(12) = {9, 7};
Line(13) = {5, 9};
p14 = newp;
Point(p14 + 1) = {19.42478171229143, -0.611294321224243, 0};
Point(p14 + 2) = {19.39959429264377, -0.5063811679566905, 0};
Point(p14 + 3) = {19.35830493892101, -0.4066998502175833, 0};
Point(p14 + 4) = {19.30193033204331, -0.3147048528729844, 0};
Point(p14 + 5) = {19.23185860192859, -0.2326613980714102, 0};
Point(p14 + 6) = {19.14981514712702, -0.1625896679566905, 0};
Point(p14 + 7) = {19.05782014978242, -0.1062150610789895, 0};
Point(p14 + 8) = {18.95813883204331, -0.06492570735622949, 0};
Point(p14 + 9) = {18.85322567877576, -0.03973828770857335, 0};
Point(p14 + 10) = {18.745664, -0.031273, 0};
Point(p14 + 11) = {18.63810232122425, -0.03973828770857346, 0};
Point(p14 + 12) = {18.53318916795669, -0.06492570735622938, 0};
Point(p14 + 13) = {18.43350785021758, -0.1062150610789895, 0};
Point(p14 + 14) = {18.34151285287298, -0.1625896679566905, 0};
Point(p14 + 15) = {18.25946939807141, -0.2326613980714101, 0};
Point(p14 + 16) = {18.18939766795669, -0.3147048528729844, 0};
Point(p14 + 17) = {18.13302306107899, -0.4066998502175832, 0};
Point(p14 + 18) = {18.09173370735623, -0.5063811679566905, 0};
Point(p14 + 19) = {18.06654628770858, -0.6112943212242429, 0};
Point(p14 + 20) = {18.058081, -0.7188559999999999, 0};
Point(p14 + 21) = {18.06654628770858, -0.826417678775757, 0};
Point(p14 + 22) = {18.09173370735623, -0.9313308320433098, 0};
Point(p14 + 23) = {18.13302306107899, -1.031012149782417, 0};
Point(p14 + 24) = {18.18939766795669, -1.123007147127016, 0};
Point(p14 + 25) = {18.25946939807141, -1.20505060192859, 0};
Point(p14 + 26) = {18.34151285287298, -1.275122332043309, 0};
Point(p14 + 27) = {18.43350785021758, -1.331496938921011, 0};
Point(p14 + 28) = {18.53318916795669, -1.372786292643771, 0};
Point(p14 + 29) = {18.63810232122425, -1.397973712291427, 0};
Point(p14 + 30) = {18.745664, -1.406439, 0};
Point(p14 + 31) = {18.85322567877576, -1.397973712291427, 0};
Point(p14 + 32) = {18.95813883204331, -1.372786292643771, 0};
Point(p14 + 33) = {19.05782014978242, -1.331496938921011, 0};
Point(p14 + 34) = {19.14981514712702, -1.27512233204331, 0};
Point(p14 + 35) = {19.23185860192859, -1.20505060192859, 0};
Point(p14 + 36) = {19.30193033204331, -1.123007147127016, 0};
Point(p14 + 37) = {19.35830493892101, -1.031012149782417, 0};
Point(p14 + 38) = {19.39959429264377, -0.9313308320433097, 0};
Point(p14 + 39) = {19.42478171229143, -0.8264176787757572, 0};
Spline(14) = {10, p14 + 1, p14 + 2, p14 + 3, p14 + 4, p14 + 5, p14 + 6, p14 + 7, p14 + 8, p14 + 9, p14 + 10, p14 + 11, p14 + 12, p14 + 13, p14 + 14, p14 + 15, p14 + 16, p14 + 17, p14 + 18, p14 + 19, p14 + 20, p14 + 21, p14 + 22, p14 + 23, p14 + 24, p14 + 25, p14 + 26, p14 + 27, p14 + 28, p14 + 29, p14 + 30, p14 + 31, p14 + 32, p14 + 33, p14 + 34, p14 + 35, p14 + 36, p14 + 37, p14 + 38, p14 + 39, 10};
Line(15) = {10, 8};
Curve Loop(1) = {-1, 4, 3, -2};
Plane Surface(1) = {1};
Curve Loop(2) = {-5, 1, 7, -6};
Plane Surface(2) = {2};
Curve Loop(3) = {-2, 7, 9, -8, -10};
Plane Surface(3) = {3};
Curve Loop(4) = {-11, 3, 8, -12};
Plane Surface(4) = {4};
Curve Loop(5) = {-4, 5, 13, -11, -14};
Plane Surface(5) = {5};
Curve Loop(6) = {-6, 13, 12, -9};
Plane Surface(6) = {6};
Curve Loop(7) = {-10, -15, 14, 15};
Surface(7) = {7};
Surface Loop(1) = {1, 2, 3, 4, 5, 6, 7};
Volume(1) = {1};
Physical Surface("INFLOW") = {1};
Physical Surface("OUTFLOW") = {6};
Physical Surface("OBSTACLE") = {7};
Physical Surface("WALL_Y") = {2, 4};
Physical Surface("WALL_Z") = {3, 5};
Physical Volume("FLUID") = {1};
