cl__1 = 1;
cl__2 = 0.051862;
cl__3 = 0.078345;
Point(1) = {0.161246, -2.970565, 1, cl__1};
Point(2) = {0.161246, -2.970565, 0, cl__1};
Point(3) = {0.161246, 4.637295999999999, 1, cl__1};
Point(4) = {0.161246, 4.637295999999999, 0, cl__1};
Point(5) = {30.22446, -2.970565, 0, cl__1};
Point(6) = {30.22446, -2.970565, 1, cl__1};
Point(7) = {30.22446, 4.637295999999999, 1, cl__1};
Point(8) = {18.633878, 0.4838959999999999, 1, cl__2};
Point(9) = {22.531384, 1.230534, 1, cl__3};
Point(10) = {30.22446, 4.637295999999999, 0, cl__1};
Point(11) = {18.633878, 0.4838959999999999, 0, cl__2};
Point(12) = {22.531384, 1.230534, 0, cl__3};
Line(1) = {2, 1};
Line(2) = {1, 3};
Line(3) = {4, 3};
Line(4) = {2, 4};
Line(5) = {2, 5};
Line(6) = {5, 6};
Line(7) = {1, 6};
Line(8) = {3, 7};
Line(9) = {6, 7};
p10 = newp;
Point(p10 + 1) = {18.62749292719945, 0.5650260422591645, 1};
Point(p10 + 2) = {18.60849493048099, 0.6441583936227352, 1};
Point(p10 + 3) = {18.57735180357457, 0.7193445529749237, 1};
Point(p10 + 4) = {18.53483039362274, 0.7887331875439224, 1};
Point(p10 + 5) = {18.48197771885897, 0.8506157188589671, 1};
Point(p10 + 6) = {18.42009518754392, 0.9034683936227352, 1};
Point(p10 + 7) = {18.35070655297492, 0.9459898035745713, 1};
Point(p10 + 8) = {18.27552039362273, 0.9771329304809925, 1};
Point(p10 + 9) = {18.19638804225917, 0.9961309271994503, 1};
Point(p10 + 10) = {18.115258, 1.002516, 1};
Point(p10 + 11) = {18.03412795774084, 0.9961309271994503, 1};
Point(p10 + 12) = {17.95499560637727, 0.9771329304809926, 1};
Point(p10 + 13) = {17.87980944702508, 0.9459898035745713, 1};
Point(p10 + 14) = {17.81042081245608, 0.9034683936227352, 1};
Point(p10 + 15) = {17.74853828114103, 0.8506157188589673, 1};
Point(p10 + 16) = {17.69568560637726, 0.7887331875439225, 1};
Point(p10 + 17) = {17.65316419642543, 0.7193445529749238, 1};
Point(p10 + 18) = {17.62202106951901, 0.6441583936227353, 1};
Point(p10 + 19) = {17.60302307280055, 0.5650260422591646, 1};
Point(p10 + 20) = {17.596638, 0.483896, 1};
Point(p10 + 21) = {17.60302307280055, 0.4027659577408356, 1};
Point(p10 + 22) = {17.62202106951901, 0.3236336063772646, 1};
Point(p10 + 23) = {17.65316419642543, 0.2484474470250765, 1};
Point(p10 + 24) = {17.69568560637726, 0.1790588124560776, 1};
Point(p10 + 25) = {17.74853828114103, 0.1171762811410328, 1};
Point(p10 + 26) = {17.81042081245608, 0.06432360637726481, 1};
Point(p10 + 27) = {17.87980944702508, 0.02180219642542874, 1};
Point(p10 + 28) = {17.95499560637727, -0.009340930480992493, 1};
Point(p10 + 29) = {18.03412795774084, -0.0283389271994503, 1};
Point(p10 + 30) = {18.115258, -0.03472399999999998, 1};
Point(p10 + 31) = {18.19638804225917, -0.0283389271994503, 1};
Point(p10 + 32) = {18.27552039362273, -0.009340930480992549, 1};
Point(p10 + 33) = {18.35070655297492, 0.02180219642542863, 1};
Point(p10 + 34) = {18.42009518754392, 0.0643236063772647, 1};
Point(p10 + 35) = {18.48197771885897, 0.1171762811410327, 1};
Point(p10 + 36) = {18.53483039362274, 0.1790588124560775, 1};
Point(p10 + 37) = {18.57735180357457, 0.2484474470250762, 1};
Point(p10 + 38) = {18.60849493048099, 0.3236336063772647, 1};
Point(p10 + 39) = {18.62749292719945, 0.4027659577408353, 1};
Spline(10) = {8, p10 + 1, p10 + 2, p10 + 3, p10 + 4, p10 + 5, p10 + 6, p10 + 7, p10 + 8, p10 + 9, p10 + 10, p10 + 11, p10 + 12, p10 + 13, p10 + 14, p10 + 15, p10 + 16, p10 + 17, p10 + 18, p10 + 19, p10 + 20, p10 + 21, p10 + 22, p10 + 23, p10 + 24, p10 + 25, p10 + 26, p10 + 27, p10 + 28, p10 + 29, p10 + 30, p10 + 31, p10 + 32, p10 + 33, p10 + 34, p10 + 35, p10 + 36, p10 + 37, p10 + 38, p10 + 39, 8};
p11 = newp;
Point(p11 + 1) = {22.52173836888096, 1.353093363808094, 1};
Point(p11 + 2) = {22.49303898297402, 1.472634909328024, 1};
Point(p11 + 3) = {22.445992516408, 1.586215126973447, 1};
Point(p11 + 4) = {22.38175740932802, 1.6910372948348, 1};
Point(p11 + 5) = {22.30191534325451, 1.784520343254507, 1};
Point(p11 + 6) = {22.2084322948348, 1.864362409328024, 1};
Point(p11 + 7) = {22.10361012697345, 1.928597516407998, 1};
Point(p11 + 8) = {21.99002990932802, 1.97564398297402, 1};
Point(p11 + 9) = {21.87048836380809, 2.004343368880964, 1};
Point(p11 + 10) = {21.747929, 2.013989, 1};
Point(p11 + 11) = {21.62536963619191, 2.004343368880964, 1};
Point(p11 + 12) = {21.50582809067198, 1.97564398297402, 1};
Point(p11 + 13) = {21.39224787302655, 1.928597516407998, 1};
Point(p11 + 14) = {21.2874257051652, 1.864362409328024, 1};
Point(p11 + 15) = {21.19394265674549, 1.784520343254507, 1};
Point(p11 + 16) = {21.11410059067197, 1.6910372948348, 1};
Point(p11 + 17) = {21.049865483592, 1.586215126973447, 1};
Point(p11 + 18) = {21.00281901702598, 1.472634909328024, 1};
Point(p11 + 19) = {20.97411963111903, 1.353093363808094, 1};
Point(p11 + 20) = {20.964474, 1.230534, 1};
Point(p11 + 21) = {20.97411963111903, 1.107974636191906, 1};
Point(p11 + 22) = {21.00281901702598, 0.9884330906719754, 1};
Point(p11 + 23) = {21.049865483592, 0.8748528730265538, 1};
Point(p11 + 24) = {21.11410059067197, 0.7700307051652006, 1};
Point(p11 + 25) = {21.19394265674549, 0.6765476567454934, 1};
Point(p11 + 26) = {21.2874257051652, 0.5967055906719756, 1};
Point(p11 + 27) = {21.39224787302655, 0.5324704835920023, 1};
Point(p11 + 28) = {21.50582809067198, 0.4854240170259805, 1};
Point(p11 + 29) = {21.62536963619191, 0.4567246311190364, 1};
Point(p11 + 30) = {21.747929, 0.447079, 1};
Point(p11 + 31) = {21.87048836380809, 0.4567246311190364, 1};
Point(p11 + 32) = {21.99002990932802, 0.4854240170259804, 1};
Point(p11 + 33) = {22.10361012697345, 0.5324704835920022, 1};
Point(p11 + 34) = {22.2084322948348, 0.5967055906719755, 1};
Point(p11 + 35) = {22.30191534325451, 0.6765476567454933, 1};
Point(p11 + 36) = {22.38175740932802, 0.7700307051652002, 1};
Point(p11 + 37) = {22.445992516408, 0.8748528730265532, 1};
Point(p11 + 38) = {22.49303898297402, 0.9884330906719754, 1};
Point(p11 + 39) = {22.52173836888096, 1.107974636191906, 1};
Spline(11) = {9, p11 + 1, p11 + 2, p11 + 3, p11 + 4, p11 + 5, p11 + 6, p11 + 7, p11 + 8, p11 + 9, p11 + 10, p11 + 11, p11 + 12, p11 + 13, p11 + 14, p11 + 15, p11 + 16, p11 + 17, p11 + 18, p11 + 19, p11 + 20, p11 + 21, p11 + 22, p11 + 23, p11 + 24, p11 + 25, p11 + 26, p11 + 27, p11 + 28, p11 + 29, p11 + 30, p11 + 31, p11 + 32, p11 + 33, p11 + 34, p11 + 35, p11 + 36, p11 + 37, p11 + 38, p11 + 39, 9};
Line(12) = {4, 10};
Line(13) = {10, 7};
Line(14) = {5, 10};
p15 = newp;
Point(p15 + 1) = {18.62749292719945, 0.5650260422591645, 0};
Point(p15 + 2) = {18.60849493048099, 0.6441583936227352, 0};
Point(p15 + 3) = {18.57735180357457, 0.7193445529749237, 0};
Point(p15 + 4) = {18.53483039362274, 0.7887331875439224, 0};
Point(p15 + 5) = {18.48197771885897, 0.8506157188589671, 0};
Point(p15 + 6) = {18.42009518754392, 0.9034683936227352, 0};
Point(p15 + 7) = {18.35070655297492, 0.9459898035745713, 0};
Point(p15 + 8) = {18.27552039362273, 0.9771329304809925, 0};
Point(p15 + 9) = {18.19638804225917, 0.9961309271994503, 0};
Point(p15 + 10) = {18.115258, 1.002516, 0};
Point(p15 + 11) = {18.03412795774084, 0.9961309271994503, 0};
Point(p15 + 12) = {17.95499560637727, 0.9771329304809926, 0};
Point(p15 + 13) = {17.87980944702508, 0.9459898035745713, 0};
Point(p15 + 14) = {17.81042081245608, 0.9034683936227352, 0};
Point(p15 + 15) = {17.74853828114103, 0.8506157188589673, 0};
Point(p15 + 16) = {17.69568560637726, 0.7887331875439225, 0};
Point(p15 + 17) = {17.65316419642543, 0.7193445529749238, 0};
Point(p15 + 18) = {17.62202106951901, 0.6441583936227353, 0};
Point(p15 + 19) = {17.60302307280055, 0.5650260422591646, 0};
Point(p15 + 20) = {17.596638, 0.483896, 0};
Point(p15 + 21) = {17.60302307280055, 0.4027659577408356, 0};
Point(p15 + 22) = {17.62202106951901, 0.3236336063772646, 0};
Point(p15 + 23) = {17.65316419642543, 0.2484474470250765, 0};
Point(p15 + 24) = {17.69568560637726, 0.1790588124560776, 0};
Point(p15 + 25) = {17.74853828114103, 0.1171762811410328, 0};
Point(p15 + 26) = {17.81042081245608, 0.06432360637726481, 0};
Point(p15 + 27) = {17.87980944702508, 0.02180219642542874, 0};
Point(p15 + 28) = {17.95499560637727, -0.009340930480992493, 0};
Point(p15 + 29) = {18.03412795774084, -0.0283389271994503, 0};
Point(p15 + 30) = {18.115258, -0.03472399999999998, 0};
Point(p15 + 31) = {18.19638804225917, -0.0283389271994503, 0};
Point(p15 + 32) = {18.27552039362273, -0.009340930480992549, 0};
Point(p15 + 33) = {18.35070655297492, 0.02180219642542863, 0};
Point(p15 + 34) = {18.42009518754392, 0.0643236063772647, 0};
Point(p15 + 35) = {18.48197771885897, 0.1171762811410327, 0};
Point(p15 + 36) = {18.53483039362274, 0.1790588124560775, 0};
Point(p15 + 37) = {18.57735180357457, 0.2484474470250762, 0};
Point(p15 + 38) = {18.60849493048099, 0.3236336063772647, 0};
Point(p15 + 39) = {18.62749292719945, 0.4027659577408353, 0};
Spline(15) = {11, p15 + 1, p15 + 2, p15 + 3, p15 + 4, p15 + 5, p15 + 6, p15 + 7, p15 + 8, p15 + 9, p15 + 10, p15 + 11, p15 + 12, p15 + 13, p15 + 14, p15 + 15, p15 + 16, p15 + 17, p15 + 18, p15 + 19, p15 + 20, p15 + 21, p15 + 22, p15 + 23, p15 + 24, p15 + 25, p15 + 26, p15 + 27, p15 + 28, p15 + 29, p15 + 30, p15 + 31, p15 + 32, p15 + 33, p15 + 34, p15 + 35, p15 + 36, p15 + 37, p15 + 38, p15 + 39, 11};
p16 = newp;
Point(p16 + 1) = {22.52173836888096, 1.353093363808094, 0};
Point(p16 + 2) = {22.49303898297402, 1.472634909328024, 0};
Point(p16 + 3) = {22.445992516408, 1.586215126973447, 0};
Point(p16 + 4) = {22.38175740932802, 1.6910372948348, 0};
Point(p16 + 5) = {22.30191534325451, 1.784520343254507, 0};
Point(p16 + 6) = {22.2084322948348, 1.864362409328024, 0};
Point(p16 + 7) = {22.10361012697345, 1.928597516407998, 0};
Point(p16 + 8) = {21.99002990932802, 1.97564398297402, 0};
Point(p16 + 9) = {21.87048836380809, 2.004343368880964, 0};
Point(p16 + 10) = {21.747929, 2.013989, 0};
Point(p16 + 11) = {21.62536963619191, 2.004343368880964, 0};
Point(p16 + 12) = {21.50582809067198, 1.97564398297402, 0};
Point(p16 + 13) = {21.39224787302655, 1.928597516407998, 0};
Point(p16 + 14) = {21.2874257051652, 1.864362409328024, 0};
Point(p16 + 15) = {21.19394265674549, 1.784520343254507, 0};
Point(p16 + 16) = {21.11410059067197, 1.6910372948348, 0};
Point(p16 + 17) = {21.049865483592, 1.586215126973447, 0};
Point(p16 + 18) = {21.00281901702598, 1.472634909328024, 0};
Point(p16 + 19) = {20.97411963111903, 1.353093363808094, 0};
Point(p16 + 20) = {20.964474, 1.230534, 0};
Point(p16 + 21) = {20.97411963111903, 1.107974636191906, 0};
Point(p16 + 22) = {21.00281901702598, 0.9884330906719754, 0};
Point(p16 + 23) = {21.049865483592, 0.8748528730265538, 0};
Point(p16 + 24) = {21.11410059067197, 0.7700307051652006, 0};
Point(p16 + 25) = {21.19394265674549, 0.6765476567454934, 0};
Point(p16 + 26) = {21.2874257051652, 0.5967055906719756, 0};
Point(p16 + 27) = {21.39224787302655, 0.5324704835920023, 0};
Point(p16 + 28) = {21.50582809067198, 0.4854240170259805, 0};
Point(p16 + 29) = {21.62536963619191, 0.4567246311190364, 0};
Point(p16 + 30) = {21.747929, 0.447079, 0};
Point(p16 + 31) = {21.87048836380809, 0.4567246311190364, 0};
Point(p16 + 32) = {21.99002990932802, 0.4854240170259804, 0};
Point(p16 + 33) = {22.10361012697345, 0.5324704835920022, 0};
Point(p16 + 34) = {22.2084322948348, 0.5967055906719755, 0};
Point(p16 + 35) = {22.30191534325451, 0.6765476567454933, 0};
Point(p16 + 36) = {22.38175740932802, 0.7700307051652002, 0};
Point(p16 + 37) = {22.445992516408, 0.8748528730265532, 0};
Point(p16 + 38) = {22.49303898297402, 0.9884330906719754, 0};
Point(p16 + 39) = {22.52173836888096, 1.107974636191906, 0};
Spline(16) = {12, p16 + 1, p16 + 2, p16 + 3, p16 + 4, p16 + 5, p16 + 6, p16 + 7, p16 + 8, p16 + 9, p16 + 10, p16 + 11, p16 + 12, p16 + 13, p16 + 14, p16 + 15, p16 + 16, p16 + 17, p16 + 18, p16 + 19, p16 + 20, p16 + 21, p16 + 22, p16 + 23, p16 + 24, p16 + 25, p16 + 26, p16 + 27, p16 + 28, p16 + 29, p16 + 30, p16 + 31, p16 + 32, p16 + 33, p16 + 34, p16 + 35, p16 + 36, p16 + 37, p16 + 38, p16 + 39, 12};
Line(17) = {11, 8};
Line(18) = {12, 9};
Curve Loop(1) = {-1, 4, 3, -2};
Plane Surface(1) = {1};
Curve Loop(2) = {-5, 1, 7, -6};
Plane Surface(2) = {2};
Curve Loop(3) = {-2, 7, 9, -8, -10, -11};
Plane Surface(3) = {3};
Curve Loop(4) = {-12, 3, 8, -13};
Plane Surface(4) = {4};
Curve Loop(5) = {-4, 5, 14, -12, -15, -16};
Plane Surface(5) = {5};
Curve Loop(6) = {-6, 14, 13, -9};
Plane Surface(6) = {6};
Curve Loop(7) = {-10, -17, 15, 17};
Surface(7) = {7};
Curve Loop(8) = {-11, -18, 16, 18};
Surface(8) = {8};
Surface Loop(1) = {1, 2, 3, 4, 5, 6, 7, 8};
Volume(1) = {1};
Physical Surface("INFLOW") = {1};
Physical Surface("OUTFLOW") = {6};
Physical Surface("OBSTACLE") = {7, 8};
Physical Surface("WALL_Y") = {2, 4};
Physical Surface("WALL_Z") = {3, 5};
Physical Volume("FLUID") = {1};
