cl__1 = 0.246957;
cl__2 = 3.366266;
cl__3 = 0.146173;
cl__4 = 0.070687;
Point(1) = {0.5885899999999999, -3.280238, 1, cl__1};
Point(2) = {0.5885899999999999, -3.280238, 0, cl__1};
Point(3) = {0.5885899999999999, 4.281169, 1, cl__2};
Point(4) = {0.5885899999999999, 4.281169, 0, cl__2};
Point(5) = {33.449674, -3.280238, 0, cl__1};
Point(6) = {33.449674, -3.280238, 1, cl__1};
Point(7) = {33.449674, 4.281169, 1, cl__2};
Point(8) = {4.95887, -0.6353440000000004, 1, cl__3};
Point(9) = {11.139497, -0.3377480000000002, 1, cl__4};
Point(10) = {33.449674, 4.281169, 0, cl__2};
Point(11) = {4.95887, -0.6353440000000004, 0, cl__3};
Point(12) = {11.139497, -0.3377480000000002, 0, cl__4};
Line(1) = {2, 1};
Line(2) = {1, 3};
Line(3) = {4, 3};
Line(4) = {2, 4};
Line(5) = {2, 5};
Line(6) = {5, 6};
Line(7) = {1, 6};
Line(8) = {3, 7};
Line(9) = {6, 7};
p10 = newp;
Point(p10 + 1) = {4.94087370272145, -0.4066793622856735, 1};
Point(p10 + 2) = {4.887327939451082, -0.1836452068462969, 1};
Point(p10 + 3) = {4.799551184588815, 0.02826662520328815, 1};
Point(p10 + 4) = {4.679704793153704, 0.2238381612629721, 1};
Point(p10 + 5) = {4.53073978105025, 0.3982537810502497, 1};
Point(p10 + 6) = {4.356324161262973, 0.547218793153703, 1};
Point(p10 + 7) = {4.160752625203289, 0.6670651845888144, 1};
Point(p10 + 8) = {3.948840793153703, 0.754841939451082, 1};
Point(p10 + 9) = {3.725806637714327, 0.8083877027214493, 1};
Point(p10 + 10) = {3.497142, 0.8263839999999999, 1};
Point(p10 + 11) = {3.268477362285673, 0.8083877027214493, 1};
Point(p10 + 12) = {3.045443206846297, 0.7548419394510822, 1};
Point(p10 + 13) = {2.833531374796712, 0.6670651845888146, 1};
Point(p10 + 14) = {2.637959838737028, 0.547218793153703, 1};
Point(p10 + 15) = {2.463544218949751, 0.3982537810502497, 1};
Point(p10 + 16) = {2.314579206846297, 0.2238381612629723, 1};
Point(p10 + 17) = {2.194732815411186, 0.02826662520328826, 1};
Point(p10 + 18) = {2.106956060548918, -0.1836452068462968, 1};
Point(p10 + 19) = {2.053410297278551, -0.4066793622856733, 1};
Point(p10 + 20) = {2.035414, -0.6353439999999998, 1};
Point(p10 + 21) = {2.053410297278551, -0.8640086377143263, 1};
Point(p10 + 22) = {2.106956060548918, -1.087042793153704, 1};
Point(p10 + 23) = {2.194732815411185, -1.298954625203288, 1};
Point(p10 + 24) = {2.314579206846297, -1.494526161262972, 1};
Point(p10 + 25) = {2.463544218949751, -1.66894178105025, 1};
Point(p10 + 26) = {2.637959838737028, -1.817906793153703, 1};
Point(p10 + 27) = {2.833531374796712, -1.937753184588814, 1};
Point(p10 + 28) = {3.045443206846297, -2.025529939451082, 1};
Point(p10 + 29) = {3.268477362285673, -2.079075702721449, 1};
Point(p10 + 30) = {3.497142, -2.097072, 1};
Point(p10 + 31) = {3.725806637714327, -2.079075702721449, 1};
Point(p10 + 32) = {3.948840793153703, -2.025529939451082, 1};
Point(p10 + 33) = {4.160752625203288, -1.937753184588815, 1};
Point(p10 + 34) = {4.356324161262972, -1.817906793153703, 1};
Point(p10 + 35) = {4.53073978105025, -1.66894178105025, 1};
Point(p10 + 36) = {4.679704793153704, -1.494526161262972, 1};
Point(p10 + 37) = {4.799551184588815, -1.298954625203288, 1};
Point(p10 + 38) = {4.887327939451082, -1.087042793153703, 1};
Point(p10 + 39) = {4.94087370272145, -0.8640086377143269, 1};
Spline(10) = {8, p10 + 1, p10 + 2, p10 + 3, p10 + 4, p10 + 5, p10 + 6, p10 + 7, p10 + 8, p10 + 9, p10 + 10, p10 + 11, p10 + 12, p10 + 13, p10 + 14, p10 + 15, p10 + 16, p10 + 17, p10 + 18, p10 + 19, p10 + 20, p10 + 21, p10 + 22, p10 + 23, p10 + 24, p10 + 25, p10 + 26, p10 + 27, p10 + 28, p10 + 29, p10 + 30, p10 + 31, p10 + 32, p10 + 33, p10 + 34, p10 + 35, p10 + 36, p10 + 37, p10 + 38, p10 + 39, 8};
p11 = newp;
Point(p11 + 1) = {11.13079429425146, -0.2271696390004071, 1};
Point(p11 + 2) = {11.10490046650401, -0.1193140842371641, 1};
Point(p11 + 3) = {11.06245310873346, -0.0168370974206058, 1};
Point(p11 + 4) = {11.00449741576284, 0.07773799793222363, 1};
Point(p11 + 5) = {10.93246044909699, 0.1620824490969913, 1};
Point(p11 + 6) = {10.84811599793222, 0.234119415762836, 1};
Point(p11 + 7) = {10.75354090257939, 0.292075108733459, 1};
Point(p11 + 8) = {10.65106391576284, 0.3345224665040064, 1};
Point(p11 + 9) = {10.54320836099959, 0.3604162942514633, 1};
Point(p11 + 10) = {10.43263, 0.369119, 1};
Point(p11 + 11) = {10.32205163900041, 0.3604162942514632, 1};
Point(p11 + 12) = {10.21419608423716, 0.3345224665040064, 1};
Point(p11 + 13) = {10.11171909742061, 0.292075108733459, 1};
Point(p11 + 14) = {10.01714400206778, 0.234119415762836, 1};
Point(p11 + 15) = {9.932799550903008, 0.1620824490969913, 1};
Point(p11 + 16) = {9.860762584237163, 0.07773799793222369, 1};
Point(p11 + 17) = {9.80280689126654, -0.01683709742060568, 1};
Point(p11 + 18) = {9.760359533495993, -0.119314084237164, 1};
Point(p11 + 19) = {9.734465705748537, -0.227169639000407, 1};
Point(p11 + 20) = {9.725762999999999, -0.3377479999999999, 1};
Point(p11 + 21) = {9.734465705748537, -0.4483263609995928, 1};
Point(p11 + 22) = {9.760359533495993, -0.5561819157628362, 1};
Point(p11 + 23) = {9.80280689126654, -0.6586589025793939, 1};
Point(p11 + 24) = {9.860762584237163, -0.7532339979322236, 1};
Point(p11 + 25) = {9.932799550903008, -0.8375784490969913, 1};
Point(p11 + 26) = {10.01714400206778, -0.909615415762836, 1};
Point(p11 + 27) = {10.11171909742061, -0.9675711087334591, 1};
Point(p11 + 28) = {10.21419608423716, -1.010018466504006, 1};
Point(p11 + 29) = {10.32205163900041, -1.035912294251463, 1};
Point(p11 + 30) = {10.43263, -1.044615, 1};
Point(p11 + 31) = {10.54320836099959, -1.035912294251463, 1};
Point(p11 + 32) = {10.65106391576284, -1.010018466504006, 1};
Point(p11 + 33) = {10.75354090257939, -0.9675711087334591, 1};
Point(p11 + 34) = {10.84811599793222, -0.909615415762836, 1};
Point(p11 + 35) = {10.93246044909699, -0.8375784490969914, 1};
Point(p11 + 36) = {11.00449741576284, -0.7532339979322238, 1};
Point(p11 + 37) = {11.06245310873346, -0.6586589025793943, 1};
Point(p11 + 38) = {11.10490046650401, -0.556181915762836, 1};
Point(p11 + 39) = {11.13079429425146, -0.448326360999593, 1};
Spline(11) = {9, p11 + 1, p11 + 2, p11 + 3, p11 + 4, p11 + 5, p11 + 6, p11 + 7, p11 + 8, p11 + 9, p11 + 10, p11 + 11, p11 + 12, p11 + 13, p11 + 14, p11 + 15, p11 + 16, p11 + 17, p11 + 18, p11 + 19, p11 + 20, p11 + 21, p11 + 22, p11 + 23, p11 + 24, p11 + 25, p11 + 26, p11 + 27, p11 + 28, p11 + 29, p11 + 30, p11 + 31, p11 + 32, p11 + 33, p11 + 34, p11 + 35, p11 + 36, p11 + 37, p11 + 38, p11 + 39, 9};
Line(12) = {4, 10};
Line(13) = {10, 7};
Line(14) = {5, 10};
p15 = newp;
Point(p15 + 1) = {4.94087370272145, -0.4066793622856735, 0};
Point(p15 + 2) = {4.887327939451082, -0.1836452068462969, 0};
Point(p15 + 3) = {4.799551184588815, 0.02826662520328815, 0};
Point(p15 + 4) = {4.679704793153704, 0.2238381612629721, 0};
Point(p15 + 5) = {4.53073978105025, 0.3982537810502497, 0};
Point(p15 + 6) = {4.356324161262973, 0.547218793153703, 0};
Point(p15 + 7) = {4.160752625203289, 0.6670651845888144, 0};
Point(p15 + 8) = {3.948840793153703, 0.754841939451082, 0};
Point(p15 + 9) = {3.725806637714327, 0.8083877027214493, 0};
Point(p15 + 10) = {3.497142, 0.8263839999999999, 0};
Point(p15 + 11) = {3.268477362285673, 0.8083877027214493, 0};
Point(p15 + 12) = {3.045443206846297, 0.7548419394510822, 0};
Point(p15 + 13) = {2.833531374796712, 0.6670651845888146, 0};
Point(p15 + 14) = {2.637959838737028, 0.547218793153703, 0};
Point(p15 + 15) = {2.463544218949751, 0.3982537810502497, 0};
Point(p15 + 16) = {2.314579206846297, 0.2238381612629723, 0};
Point(p15 + 17) = {2.194732815411186, 0.02826662520328826, 0};
Point(p15 + 18) = {2.106956060548918, -0.1836452068462968, 0};
Point(p15 + 19) = {2.053410297278551, -0.4066793622856733, 0};
Point(p15 + 20) = {2.035414, -0.6353439999999998, 0};
Point(p15 + 21) = {2.053410297278551, -0.8640086377143263, 0};
Point(p15 + 22) = {2.106956060548918, -1.087042793153704, 0};
Point(p15 + 23) = {2.194732815411185, -1.298954625203288, 0};
Point(p15 + 24) = {2.314579206846297, -1.494526161262972, 0};
Point(p15 + 25) = {2.463544218949751, -1.66894178105025, 0};
Point(p15 + 26) = {2.637959838737028, -1.817906793153703, 0};
Point(p15 + 27) = {2.833531374796712, -1.937753184588814, 0};
Point(p15 + 28) = {3.045443206846297, -2.025529939451082, 0};
Point(p15 + 29) = {3.268477362285673, -2.079075702721449, 0};
Point(p15 + 30) = {3.497142, -2.097072, 0};
Point(p15 + 31) = {3.725806637714327, -2.079075702721449, 0};
Point(p15 + 32) = {3.948840793153703, -2.025529939451082, 0};
Point(p15 + 33) = {4.160752625203288, -1.937753184588815, 0};
Point(p15 + 34) = {4.356324161262972, -1.817906793153703, 0};
Point(p15 + 35) = {4.53073978105025, -1.66894178105025, 0};
Point(p15 + 36) = {4.679704793153704, -1.494526161262972, 0};
Point(p15 + 37) = {4.799551184588815, -1.298954625203288, 0};
Point(p15 + 38) = {4.887327939451082, -1.087042793153703, 0};
Point(p15 + 39) = {4.94087370272145, -0.8640086377143269, 0};
Spline(15) = {11, p15 + 1, p15 + 2, p15 + 3, p15 + 4, p15 + 5, p15 + 6, p15 + 7, p15 + 8, p15 + 9, p15 + 10, p15 + 11, p15 + 12, p15 + 13, p15 + 14, p15 + 15, p15 + 16, p15 + 17, p15 + 18, p15 + 19, p15 + 20, p15 + 21, p15 + 22, p15 + 23, p15 + 24, p15 + 25, p15 + 26, p15 + 27, p15 + 28, p15 + 29, p15 + 30, p15 + 31, p15 + 32, p15 + 33, p15 + 34, p15 + 35, p15 + 36, p15 + 37, p15 + 38, p15 + 39, 11};
p16 = newp;
Point(p16 + 1) = {11.13079429425146, -0.2271696390004071, 0};
Point(p16 + 2) = {11.10490046650401, -0.1193140842371641, 0};
Point(p16 + 3) = {11.06245310873346, -0.0168370974206058, 0};
Point(p16 + 4) = {11.00449741576284, 0.07773799793222363, 0};
Point(p16 + 5) = {10.93246044909699, 0.1620824490969913, 0};
Point(p16 + 6) = {10.84811599793222, 0.234119415762836, 0};
Point(p16 + 7) = {10.75354090257939, 0.292075108733459, 0};
Point(p16 + 8) = {10.65106391576284, 0.3345224665040064, 0};
Point(p16 + 9) = {10.54320836099959, 0.3604162942514633, 0};
Point(p16 + 10) = {10.43263, 0.369119, 0};
Point(p16 + 11) = {10.32205163900041, 0.3604162942514632, 0};
Point(p16 + 12) = {10.21419608423716, 0.3345224665040064, 0};
Point(p16 + 13) = {10.11171909742061, 0.292075108733459, 0};
Point(p16 + 14) = {10.01714400206778, 0.234119415762836, 0};
Point(p16 + 15) = {9.932799550903008, 0.1620824490969913, 0};
Point(p16 + 16) = {9.860762584237163, 0.07773799793222369, 0};
Point(p16 + 17) = {9.80280689126654, -0.01683709742060568, 0};
Point(p16 + 18) = {9.760359533495993, -0.119314084237164, 0};
Point(p16 + 19) = {9.734465705748537, -0.227169639000407, 0};
Point(p16 + 20) = {9.725762999999999, -0.3377479999999999, 0};
Point(p16 + 21) = {9.734465705748537, -0.4483263609995928, 0};
Point(p16 + 22) = {9.760359533495993, -0.5561819157628362, 0};
Point(p16 + 23) = {9.80280689126654, -0.6586589025793939, 0};
Point(p16 + 24) = {9.860762584237163, -0.7532339979322236, 0};
Point(p16 + 25) = {9.932799550903008, -0.8375784490969913, 0};
Point(p16 + 26) = {10.01714400206778, -0.909615415762836, 0};
Point(p16 + 27) = {10.11171909742061, -0.9675711087334591, 0};
Point(p16 + 28) = {10.21419608423716, -1.010018466504006, 0};
Point(p16 + 29) = {10.32205163900041, -1.035912294251463, 0};
Point(p16 + 30) = {10.43263, -1.044615, 0};
Point(p16 + 31) = {10.54320836099959, -1.035912294251463, 0};
Point(p16 + 32) = {10.65106391576284, -1.010018466504006, 0};
Point(p16 + 33) = {10.75354090257939, -0.9675711087334591, 0};
Point(p16 + 34) = {10.84811599793222, -0.909615415762836, 0};
Point(p16 + 35) = {10.93246044909699, -0.8375784490969914, 0};
Point(p16 + 36) = {11.00449741576284, -0.7532339979322238, 0};
Point(p16 + 37) = {11.06245310873346, -0.6586589025793943, 0};
Point(p16 + 38) = {11.10490046650401, -0.556181915762836, 0};
Point(p16 + 39) = {11.13079429425146, -0.448326360999593, 0};
Spline(16) = {12, p16 + 1, p16 + 2, p16 + 3, p16 + 4, p16 + 5, p16 + 6, p16 + 7, p16 + 8, p16 + 9, p16 + 10, p16 + 11, p16 + 12, p16 + 13, p16 + 14, p16 + 15, p16 + 16, p16 + 17, p16 + 18, p16 + 19, p16 + 20, p16 + 21, p16 + 22, p16 + 23, p16 + 24, p16 + 25, p16 + 26, p16 + 27, p16 + 28, p16 + 29, p16 + 30, p16 + 31, p16 + 32, p16 + 33, p16 + 34, p16 + 35, p16 + 36, p16 + 37, p16 + 38, p16 + 39, 12};
Line(17) = {11, 8};
Line(18) = {12, 9};
Curve Loop(1) = {-1, 4, 3, -2};
Plane Surface(1) = {1};
Curve Loop(2) = {-5, 1, 7, -6};
Plane Surface(2) = {2};
Curve Loop(3) = {-2, 7, 9, -8, -10, -11};
Plane Surface(3) = {3};
Curve Loop(4) = {-12, 3, 8, -13};
Plane Surface(4) = {4};
Curve Loop(5) = {-4, 5, 14, -12, -15, -16};
Plane Surface(5) = {5};
Curve Loop(6) = {-6, 14, 13, -9};
Plane Surface(6) = {6};
Curve Loop(7) = {-10, -17, 15, 17};
Surface(7) = {7};
Curve Loop(8) = {-11, -18, 16, 18};
Surface(8) = {8};
Surface Loop(1) = {1, 2, 3, 4, 5, 6, 7, 8};
Volume(1) = {1};
Physical Surface("INFLOW") = {1};
Physical Surface("OUTFLOW") = {6};
Physical Surface("OBSTACLE") = {7, 8};
Physical Surface("WALL_Y") = {2, 4};
Physical Surface("WALL_Z") = {3, 5};
Physical Volume("FLUID") = {1};
