cl__1 = 3.144783;
cl__2 = 0.266001;
cl__3 = 0.122738;
cl__4 = 0.073627;
Point(1) = {0.168133, -3.876957, 1, cl__1};
Point(2) = {0.168133, -3.876957, 0, cl__1};
Point(3) = {0.168133, 4.897923, 1, cl__2};
Point(4) = {0.168133, 4.897923, 0, cl__2};
Point(5) = {31.140267, -3.876957, 0, cl__1};
Point(6) = {31.140267, -3.876957, 1, cl__1};
Point(7) = {31.140267, 4.897923, 1, cl__2};
Point(8) = {29.438054, -1.321714, 1, cl__3};
Point(9) = {26.238547, 2.764412, 1, cl__4};
Point(10) = {31.140267, 4.897923, 0, cl__2};
Point(11) = {29.438054, -1.321714, 0, cl__3};
Point(12) = {26.238547, 2.764412, 0, cl__4};
Line(1) = {2, 1};
Line(2) = {1, 3};
Line(3) = {4, 3};
Line(4) = {2, 4};
Line(5) = {2, 5};
Line(6) = {5, 6};
Line(7) = {1, 6};
Line(8) = {3, 7};
Line(9) = {6, 7};
p10 = newp;
Point(p10 + 1) = {29.42294292779132, -1.129709622733386, 1};
Point(p10 + 2) = {29.37798179591383, -0.9424330304610715, 1};
Point(p10 + 3) = {29.30427769665179, -0.7644955944201749, 1};
Point(p10 + 4) = {29.20364546953893, -0.6002787248265167, 1};
Point(p10 + 5) = {29.07856301398596, -0.4538259860140367, 1};
Point(p10 + 6) = {28.93211027517348, -0.3287435304610714, 1};
Point(p10 + 7) = {28.76789340557982, -0.2281113033482054, 1};
Point(p10 + 8) = {28.58995596953893, -0.1544072040861708, 1};
Point(p10 + 9) = {28.40267937726661, -0.1094460722086805, 1};
Point(p10 + 10) = {28.210675, -0.09433500000000006, 1};
Point(p10 + 11) = {28.01867062273339, -0.1094460722086805, 1};
Point(p10 + 12) = {27.83139403046107, -0.1544072040861706, 1};
Point(p10 + 13) = {27.65345659442017, -0.2281113033482052, 1};
Point(p10 + 14) = {27.48923972482651, -0.3287435304610714, 1};
Point(p10 + 15) = {27.34278698601403, -0.4538259860140365, 1};
Point(p10 + 16) = {27.21770453046107, -0.6002787248265166, 1};
Point(p10 + 17) = {27.1170723033482, -0.7644955944201748, 1};
Point(p10 + 18) = {27.04336820408617, -0.9424330304610713, 1};
Point(p10 + 19) = {26.99840707220868, -1.129709622733386, 1};
Point(p10 + 20) = {26.983296, -1.321714, 1};
Point(p10 + 21) = {26.99840707220868, -1.513718377266613, 1};
Point(p10 + 22) = {27.04336820408617, -1.700994969538929, 1};
Point(p10 + 23) = {27.1170723033482, -1.878932405579825, 1};
Point(p10 + 24) = {27.21770453046107, -2.043149275173483, 1};
Point(p10 + 25) = {27.34278698601403, -2.189602013985963, 1};
Point(p10 + 26) = {27.48923972482651, -2.314684469538928, 1};
Point(p10 + 27) = {27.65345659442017, -2.415316696651795, 1};
Point(p10 + 28) = {27.83139403046107, -2.489020795913829, 1};
Point(p10 + 29) = {28.01867062273339, -2.53398192779132, 1};
Point(p10 + 30) = {28.210675, -2.549093, 1};
Point(p10 + 31) = {28.40267937726661, -2.53398192779132, 1};
Point(p10 + 32) = {28.58995596953893, -2.48902079591383, 1};
Point(p10 + 33) = {28.76789340557982, -2.415316696651795, 1};
Point(p10 + 34) = {28.93211027517348, -2.314684469538929, 1};
Point(p10 + 35) = {29.07856301398596, -2.189602013985964, 1};
Point(p10 + 36) = {29.20364546953893, -2.043149275173484, 1};
Point(p10 + 37) = {29.30427769665179, -1.878932405579826, 1};
Point(p10 + 38) = {29.37798179591383, -1.700994969538929, 1};
Point(p10 + 39) = {29.42294292779132, -1.513718377266614, 1};
Spline(10) = {8, p10 + 1, p10 + 2, p10 + 3, p10 + 4, p10 + 5, p10 + 6, p10 + 7, p10 + 8, p10 + 9, p10 + 10, p10 + 11, p10 + 12, p10 + 13, p10 + 14, p10 + 15, p10 + 16, p10 + 17, p10 + 18, p10 + 19, p10 + 20, p10 + 21, p10 + 22, p10 + 23, p10 + 24, p10 + 25, p10 + 26, p10 + 27, p10 + 28, p10 + 29, p10 + 30, p10 + 31, p10 + 32, p10 + 33, p10 + 34, p10 + 35, p10 + 36, p10 + 37, p10 + 38, p10 + 39, 8};
p11 = newp;
Point(p11 + 1) = {26.22948230684164, 2.879589847140706, 1};
Point(p11 + 2) = {26.20251143019612, 2.991931633431448, 1};
Point(p11 + 3) = {26.15829848255765, 3.098671131252736, 1};
Point(p11 + 4) = {26.09793213343145, 3.197180059920127, 1};
Point(p11 + 5) = {26.02289880267744, 3.285032802677438, 1};
Point(p11 + 6) = {25.93504605992013, 3.360066133431448, 1};
Point(p11 + 7) = {25.83653713125274, 3.420432482557645, 1};
Point(p11 + 8) = {25.72979763343145, 3.464645430196116, 1};
Point(p11 + 9) = {25.61745584714071, 3.491616306841641, 1};
Point(p11 + 10) = {25.502278, 3.500681, 1};
Point(p11 + 11) = {25.38710015285929, 3.491616306841641, 1};
Point(p11 + 12) = {25.27475836656855, 3.464645430196116, 1};
Point(p11 + 13) = {25.16801886874726, 3.420432482557645, 1};
Point(p11 + 14) = {25.06950994007988, 3.360066133431448, 1};
Point(p11 + 15) = {24.98165719732256, 3.285032802677438, 1};
Point(p11 + 16) = {24.90662386656855, 3.197180059920127, 1};
Point(p11 + 17) = {24.84625751744235, 3.098671131252737, 1};
Point(p11 + 18) = {24.80204456980388, 2.991931633431448, 1};
Point(p11 + 19) = {24.77507369315836, 2.879589847140706, 1};
Point(p11 + 20) = {24.766009, 2.764412, 1};
Point(p11 + 21) = {24.77507369315836, 2.649234152859294, 1};
Point(p11 + 22) = {24.80204456980388, 2.536892366568552, 1};
Point(p11 + 23) = {24.84625751744235, 2.430152868747264, 1};
Point(p11 + 24) = {24.90662386656855, 2.331643940079873, 1};
Point(p11 + 25) = {24.98165719732256, 2.243791197322562, 1};
Point(p11 + 26) = {25.06950994007987, 2.168757866568552, 1};
Point(p11 + 27) = {25.16801886874726, 2.108391517442355, 1};
Point(p11 + 28) = {25.27475836656855, 2.064178569803884, 1};
Point(p11 + 29) = {25.38710015285929, 2.037207693158359, 1};
Point(p11 + 30) = {25.502278, 2.028143, 1};
Point(p11 + 31) = {25.61745584714071, 2.037207693158359, 1};
Point(p11 + 32) = {25.72979763343145, 2.064178569803884, 1};
Point(p11 + 33) = {25.83653713125274, 2.108391517442355, 1};
Point(p11 + 34) = {25.93504605992013, 2.168757866568552, 1};
Point(p11 + 35) = {26.02289880267744, 2.243791197322562, 1};
Point(p11 + 36) = {26.09793213343145, 2.331643940079873, 1};
Point(p11 + 37) = {26.15829848255765, 2.430152868747264, 1};
Point(p11 + 38) = {26.20251143019612, 2.536892366568552, 1};
Point(p11 + 39) = {26.22948230684164, 2.649234152859294, 1};
Spline(11) = {9, p11 + 1, p11 + 2, p11 + 3, p11 + 4, p11 + 5, p11 + 6, p11 + 7, p11 + 8, p11 + 9, p11 + 10, p11 + 11, p11 + 12, p11 + 13, p11 + 14, p11 + 15, p11 + 16, p11 + 17, p11 + 18, p11 + 19, p11 + 20, p11 + 21, p11 + 22, p11 + 23, p11 + 24, p11 + 25, p11 + 26, p11 + 27, p11 + 28, p11 + 29, p11 + 30, p11 + 31, p11 + 32, p11 + 33, p11 + 34, p11 + 35, p11 + 36, p11 + 37, p11 + 38, p11 + 39, 9};
Line(12) = {4, 10};
Line(13) = {10, 7};
Line(14) = {5, 10};
p15 = newp;
Point(p15 + 1) = {29.42294292779132, -1.129709622733386, 0};
Point(p15 + 2) = {29.37798179591383, -0.9424330304610715, 0};
Point(p15 + 3) = {29.30427769665179, -0.7644955944201749, 0};
Point(p15 + 4) = {29.20364546953893, -0.6002787248265167, 0};
Point(p15 + 5) = {29.07856301398596, -0.4538259860140367, 0};
Point(p15 + 6) = {28.93211027517348, -0.3287435304610714, 0};
Point(p15 + 7) = {28.76789340557982, -0.2281113033482054, 0};
Point(p15 + 8) = {28.58995596953893, -0.1544072040861708, 0};
Point(p15 + 9) = {28.40267937726661, -0.1094460722086805, 0};
Point(p15 + 10) = {28.210675, -0.09433500000000006, 0};
Point(p15 + 11) = {28.01867062273339, -0.1094460722086805, 0};
Point(p15 + 12) = {27.83139403046107, -0.1544072040861706, 0};
Point(p15 + 13) = {27.65345659442017, -0.2281113033482052, 0};
Point(p15 + 14) = {27.48923972482651, -0.3287435304610714, 0};
Point(p15 + 15) = {27.34278698601403, -0.4538259860140365, 0};
Point(p15 + 16) = {27.21770453046107, -0.6002787248265166, 0};
Point(p15 + 17) = {27.1170723033482, -0.7644955944201748, 0};
Point(p15 + 18) = {27.04336820408617, -0.9424330304610713, 0};
Point(p15 + 19) = {26.99840707220868, -1.129709622733386, 0};
Point(p15 + 20) = {26.983296, -1.321714, 0};
Point(p15 + 21) = {26.99840707220868, -1.513718377266613, 0};
Point(p15 + 22) = {27.04336820408617, -1.700994969538929, 0};
Point(p15 + 23) = {27.1170723033482, -1.878932405579825, 0};
Point(p15 + 24) = {27.21770453046107, -2.043149275173483, 0};
Point(p15 + 25) = {27.34278698601403, -2.189602013985963, 0};
Point(p15 + 26) = {27.48923972482651, -2.314684469538928, 0};
Point(p15 + 27) = {27.65345659442017, -2.415316696651795, 0};
Point(p15 + 28) = {27.83139403046107, -2.489020795913829, 0};
Point(p15 + 29) = {28.01867062273339, -2.53398192779132, 0};
Point(p15 + 30) = {28.210675, -2.549093, 0};
Point(p15 + 31) = {28.40267937726661, -2.53398192779132, 0};
Point(p15 + 32) = {28.58995596953893, -2.48902079591383, 0};
Point(p15 + 33) = {28.76789340557982, -2.415316696651795, 0};
Point(p15 + 34) = {28.93211027517348, -2.314684469538929, 0};
Point(p15 + 35) = {29.07856301398596, -2.189602013985964, 0};
Point(p15 + 36) = {29.20364546953893, -2.043149275173484, 0};
Point(p15 + 37) = {29.30427769665179, -1.878932405579826, 0};
Point(p15 + 38) = {29.37798179591383, -1.700994969538929, 0};
Point(p15 + 39) = {29.42294292779132, -1.513718377266614, 0};
Spline(15) = {11, p15 + 1, p15 + 2, p15 + 3, p15 + 4, p15 + 5, p15 + 6, p15 + 7, p15 + 8, p15 + 9, p15 + 10, p15 + 11, p15 + 12, p15 + 13, p15 + 14, p15 + 15, p15 + 16, p15 + 17, p15 + 18, p15 + 19, p15 + 20, p15 + 21, p15 + 22, p15 + 23, p15 + 24, p15 + 25, p15 + 26, p15 + 27, p15 + 28, p15 + 29, p15 + 30, p15 + 31, p15 + 32, p15 + 33, p15 + 34, p15 + 35, p15 + 36, p15 + 37, p15 + 38, p15 + 39, 11};
p16 = newp;
Point(p16 + 1) = {26.22948230684164, 2.879589847140706, 0};
Point(p16 + 2) = {26.20251143019612, 2.991931633431448, 0};
Point(p16 + 3) = {26.15829848255765, 3.098671131252736, 0};
Point(p16 + 4) = {26.09793213343145, 3.197180059920127, 0};
Point(p16 + 5) = {26.02289880267744, 3.285032802677438, 0};
Point(p16 + 6) = {25.93504605992013, 3.360066133431448, 0};
Point(p16 + 7) = {25.83653713125274, 3.420432482557645, 0};
Point(p16 + 8) = {25.72979763343145, 3.464645430196116, 0};
Point(p16 + 9) = {25.61745584714071, 3.491616306841641, 0};
Point(p16 + 10) = {25.502278, 3.500681, 0};
Point(p16 + 11) = {25.38710015285929, 3.491616306841641, 0};
Point(p16 + 12) = {25.27475836656855, 3.464645430196116, 0};
Point(p16 + 13) = {25.16801886874726, 3.420432482557645, 0};
Point(p16 + 14) = {25.06950994007988, 3.360066133431448, 0};
Point(p16 + 15) = {24.98165719732256, 3.285032802677438, 0};
Point(p16 + 16) = {24.90662386656855, 3.197180059920127, 0};
Point(p16 + 17) = {24.84625751744235, 3.098671131252737, 0};
Point(p16 + 18) = {24.80204456980388, 2.991931633431448, 0};
Point(p16 + 19) = {24.77507369315836, 2.879589847140706, 0};
Point(p16 + 20) = {24.766009, 2.764412, 0};
Point(p16 + 21) = {24.77507369315836, 2.649234152859294, 0};
Point(p16 + 22) = {24.80204456980388, 2.536892366568552, 0};
Point(p16 + 23) = {24.84625751744235, 2.430152868747264, 0};
Point(p16 + 24) = {24.90662386656855, 2.331643940079873, 0};
Point(p16 + 25) = {24.98165719732256, 2.243791197322562, 0};
Point(p16 + 26) = {25.06950994007987, 2.168757866568552, 0};
Point(p16 + 27) = {25.16801886874726, 2.108391517442355, 0};
Point(p16 + 28) = {25.27475836656855, 2.064178569803884, 0};
Point(p16 + 29) = {25.38710015285929, 2.037207693158359, 0};
Point(p16 + 30) = {25.502278, 2.028143, 0};
Point(p16 + 31) = {25.61745584714071, 2.037207693158359, 0};
Point(p16 + 32) = {25.72979763343145, 2.064178569803884, 0};
Point(p16 + 33) = {25.83653713125274, 2.108391517442355, 0};
Point(p16 + 34) = {25.93504605992013, 2.168757866568552, 0};
Point(p16 + 35) = {26.02289880267744, 2.243791197322562, 0};
Point(p16 + 36) = {26.09793213343145, 2.331643940079873, 0};
Point(p16 + 37) = {26.15829848255765, 2.430152868747264, 0};
Point(p16 + 38) = {26.20251143019612, 2.536892366568552, 0};
Point(p16 + 39) = {26.22948230684164, 2.649234152859294, 0};
Spline(16) = {12, p16 + 1, p16 + 2, p16 + 3, p16 + 4, p16 + 5, p16 + 6, p16 + 7, p16 + 8, p16 + 9, p16 + 10, p16 + 11, p16 + 12, p16 + 13, p16 + 14, p16 + 15, p16 + 16, p16 + 17, p16 + 18, p16 + 19, p16 + 20, p16 + 21, p16 + 22, p16 + 23, p16 + 24, p16 + 25, p16 + 26, p16 + 27, p16 + 28, p16 + 29, p16 + 30, p16 + 31, p16 + 32, p16 + 33, p16 + 34, p16 + 35, p16 + 36, p16 + 37, p16 + 38, p16 + 39, 12};
Line(17) = {11, 8};
Line(18) = {12, 9};
Curve Loop(1) = {-1, 4, 3, -2};
Plane Surface(1) = {1};
Curve Loop(2) = {-5, 1, 7, -6};
Plane Surface(2) = {2};
Curve Loop(3) = {-2, 7, 9, -8, -10, -11};
Plane Surface(3) = {3};
Curve Loop(4) = {-12, 3, 8, -13};
Plane Surface(4) = {4};
Curve Loop(5) = {-4, 5, 14, -12, -15, -16};
Plane Surface(5) = {5};
Curve Loop(6) = {-6, 14, 13, -9};
Plane Surface(6) = {6};
Curve Loop(7) = {-10, -17, 15, 17};
Surface(7) = {7};
Curve Loop(8) = {-11, -18, 16, 18};
Surface(8) = {8};
Surface Loop(1) = {1, 2, 3, 4, 5, 6, 7, 8};
Volume(1) = {1};
Physical Surface("INFLOW") = {1};
Physical Surface("OUTFLOW") = {6};
Physical Surface("OBSTACLE") = {7, 8};
Physical Surface("WALL_Y") = {2, 4};
Physical Surface("WALL_Z") = {3, 5};
Physical Volume("FLUID") = {1};
