cl__1 = 3.651972;
cl__2 = 0.62104;
cl__3 = 0.137499;
cl__4 = 0.144088;
Point(1) = {0.532855, -4.457615, 1, cl__1};
Point(2) = {0.532855, -4.457615, 0, cl__1};
Point(3) = {0.532855, 5.042145000000001, 1, cl__2};
Point(4) = {0.532855, 5.042145000000001, 0, cl__2};
Point(5) = {36.209512, -4.457615, 0, cl__1};
Point(6) = {36.209512, -4.457615, 1, cl__1};
Point(7) = {36.209512, 5.042145000000001, 1, cl__2};
Point(8) = {26.615997, -0.03487600000000033, 1, cl__3};
Point(9) = {35.672094, 2.933487, 1, cl__4};
Point(10) = {36.209512, 5.042145000000001, 0, cl__2};
Point(11) = {26.615997, -0.03487600000000033, 0, cl__3};
Point(12) = {35.672094, 2.933487, 0, cl__4};
Line(1) = {2, 1};
Line(2) = {1, 3};
Line(3) = {4, 3};
Line(4) = {2, 4};
Line(5) = {2, 5};
Line(6) = {5, 6};
Line(7) = {1, 6};
Line(8) = {3, 7};
Line(9) = {6, 7};
p10 = newp;
Point(p10 + 1) = {26.59906855449993, 0.1802202943890621, 1};
Point(p10 + 2) = {26.54870005251022, 0.390020204146592, 1};
Point(p10 + 3) = {26.46613173371334, 0.5893577592083785, 1};
Point(p10 + 4) = {26.35339670414659, 0.7733246074053844, 1};
Point(p10 + 5) = {26.21327087438403, 0.9373908743840343, 1};
Point(p10 + 6) = {26.04920460740539, 1.077516704146592, 1};
Point(p10 + 7) = {25.86523775920838, 1.190251733713336, 1};
Point(p10 + 8) = {25.66590020414659, 1.272820052510222, 1};
Point(p10 + 9) = {25.45610029438906, 1.32318855449993, 1};
Point(p10 + 10) = {25.241004, 1.340117, 1};
Point(p10 + 11) = {25.02590770561094, 1.32318855449993, 1};
Point(p10 + 12) = {24.81610779585341, 1.272820052510222, 1};
Point(p10 + 13) = {24.61677024079162, 1.190251733713336, 1};
Point(p10 + 14) = {24.43280339259461, 1.077516704146592, 1};
Point(p10 + 15) = {24.26873712561597, 0.9373908743840346, 1};
Point(p10 + 16) = {24.12861129585341, 0.7733246074053846, 1};
Point(p10 + 17) = {24.01587626628666, 0.5893577592083787, 1};
Point(p10 + 18) = {23.93330794748978, 0.3900202041465922, 1};
Point(p10 + 19) = {23.88293944550007, 0.1802202943890623, 1};
Point(p10 + 20) = {23.866011, -0.03487599999999983, 1};
Point(p10 + 21) = {23.88293944550007, -0.249972294389062, 1};
Point(p10 + 22) = {23.93330794748978, -0.4597722041465925, 1};
Point(p10 + 23) = {24.01587626628666, -0.6591097592083779, 1};
Point(p10 + 24) = {24.12861129585341, -0.8430766074053844, 1};
Point(p10 + 25) = {24.26873712561597, -1.007142874384034, 1};
Point(p10 + 26) = {24.43280339259461, -1.147268704146592, 1};
Point(p10 + 27) = {24.61677024079162, -1.260003733713336, 1};
Point(p10 + 28) = {24.81610779585341, -1.342572052510222, 1};
Point(p10 + 29) = {25.02590770561094, -1.39294055449993, 1};
Point(p10 + 30) = {25.241004, -1.409869, 1};
Point(p10 + 31) = {25.45610029438906, -1.39294055449993, 1};
Point(p10 + 32) = {25.66590020414659, -1.342572052510222, 1};
Point(p10 + 33) = {25.86523775920838, -1.260003733713336, 1};
Point(p10 + 34) = {26.04920460740539, -1.147268704146592, 1};
Point(p10 + 35) = {26.21327087438403, -1.007142874384035, 1};
Point(p10 + 36) = {26.35339670414659, -0.8430766074053848, 1};
Point(p10 + 37) = {26.46613173371334, -0.6591097592083789, 1};
Point(p10 + 38) = {26.54870005251022, -0.4597722041465924, 1};
Point(p10 + 39) = {26.59906855449993, -0.2499722943890624, 1};
Spline(10) = {8, p10 + 1, p10 + 2, p10 + 3, p10 + 4, p10 + 5, p10 + 6, p10 + 7, p10 + 8, p10 + 9, p10 + 10, p10 + 11, p10 + 12, p10 + 13, p10 + 14, p10 + 15, p10 + 16, p10 + 17, p10 + 18, p10 + 19, p10 + 20, p10 + 21, p10 + 22, p10 + 23, p10 + 24, p10 + 25, p10 + 26, p10 + 27, p10 + 28, p10 + 29, p10 + 30, p10 + 31, p10 + 32, p10 + 33, p10 + 34, p10 + 35, p10 + 36, p10 + 37, p10 + 38, p10 + 39, 8};
p11 = newp;
Point(p11 + 1) = {35.65435442544336, 3.158889666249308, 1};
Point(p11 + 2) = {35.60157250897329, 3.378742170786997, 1};
Point(p11 + 3) = {35.51504791654644, 3.587631015302719, 1};
Point(p11 + 4) = {35.39691117078699, 3.78041266318217, 1};
Point(p11 + 5) = {35.25007119044895, 3.952340190448948, 1};
Point(p11 + 6) = {35.07814366318217, 4.099180170786997, 1};
Point(p11 + 7) = {34.88536201530272, 4.217316916546439, 1};
Point(p11 + 8) = {34.676473170787, 4.303841508973296, 1};
Point(p11 + 9) = {34.45662066624931, 4.35662342544336, 1};
Point(p11 + 10) = {34.231218, 4.374363, 1};
Point(p11 + 11) = {34.00581533375069, 4.35662342544336, 1};
Point(p11 + 12) = {33.785962829213, 4.303841508973296, 1};
Point(p11 + 13) = {33.57707398469728, 4.217316916546439, 1};
Point(p11 + 14) = {33.38429233681783, 4.099180170786997, 1};
Point(p11 + 15) = {33.21236480955105, 3.952340190448948, 1};
Point(p11 + 16) = {33.065524829213, 3.78041266318217, 1};
Point(p11 + 17) = {32.94738808345356, 3.587631015302719, 1};
Point(p11 + 18) = {32.86086349102671, 3.378742170786997, 1};
Point(p11 + 19) = {32.80808157455664, 3.158889666249308, 1};
Point(p11 + 20) = {32.790342, 2.933487, 1};
Point(p11 + 21) = {32.80808157455664, 2.708084333750692, 1};
Point(p11 + 22) = {32.86086349102671, 2.488231829213003, 1};
Point(p11 + 23) = {32.94738808345356, 2.279342984697282, 1};
Point(p11 + 24) = {33.065524829213, 2.086561336817831, 1};
Point(p11 + 25) = {33.21236480955105, 1.914633809551052, 1};
Point(p11 + 26) = {33.38429233681783, 1.767793829213003, 1};
Point(p11 + 27) = {33.57707398469728, 1.649657083453561, 1};
Point(p11 + 28) = {33.785962829213, 1.563132491026704, 1};
Point(p11 + 29) = {34.00581533375069, 1.51035057455664, 1};
Point(p11 + 30) = {34.231218, 1.492611, 1};
Point(p11 + 31) = {34.45662066624931, 1.51035057455664, 1};
Point(p11 + 32) = {34.67647317078699, 1.563132491026704, 1};
Point(p11 + 33) = {34.88536201530272, 1.649657083453561, 1};
Point(p11 + 34) = {35.07814366318217, 1.767793829213003, 1};
Point(p11 + 35) = {35.25007119044895, 1.914633809551052, 1};
Point(p11 + 36) = {35.39691117078699, 2.08656133681783, 1};
Point(p11 + 37) = {35.51504791654644, 2.27934298469728, 1};
Point(p11 + 38) = {35.60157250897329, 2.488231829213003, 1};
Point(p11 + 39) = {35.65435442544336, 2.708084333750692, 1};
Spline(11) = {9, p11 + 1, p11 + 2, p11 + 3, p11 + 4, p11 + 5, p11 + 6, p11 + 7, p11 + 8, p11 + 9, p11 + 10, p11 + 11, p11 + 12, p11 + 13, p11 + 14, p11 + 15, p11 + 16, p11 + 17, p11 + 18, p11 + 19, p11 + 20, p11 + 21, p11 + 22, p11 + 23, p11 + 24, p11 + 25, p11 + 26, p11 + 27, p11 + 28, p11 + 29, p11 + 30, p11 + 31, p11 + 32, p11 + 33, p11 + 34, p11 + 35, p11 + 36, p11 + 37, p11 + 38, p11 + 39, 9};
Line(12) = {4, 10};
Line(13) = {10, 7};
Line(14) = {5, 10};
p15 = newp;
Point(p15 + 1) = {26.59906855449993, 0.1802202943890621, 0};
Point(p15 + 2) = {26.54870005251022, 0.390020204146592, 0};
Point(p15 + 3) = {26.46613173371334, 0.5893577592083785, 0};
Point(p15 + 4) = {26.35339670414659, 0.7733246074053844, 0};
Point(p15 + 5) = {26.21327087438403, 0.9373908743840343, 0};
Point(p15 + 6) = {26.04920460740539, 1.077516704146592, 0};
Point(p15 + 7) = {25.86523775920838, 1.190251733713336, 0};
Point(p15 + 8) = {25.66590020414659, 1.272820052510222, 0};
Point(p15 + 9) = {25.45610029438906, 1.32318855449993, 0};
Point(p15 + 10) = {25.241004, 1.340117, 0};
Point(p15 + 11) = {25.02590770561094, 1.32318855449993, 0};
Point(p15 + 12) = {24.81610779585341, 1.272820052510222, 0};
Point(p15 + 13) = {24.61677024079162, 1.190251733713336, 0};
Point(p15 + 14) = {24.43280339259461, 1.077516704146592, 0};
Point(p15 + 15) = {24.26873712561597, 0.9373908743840346, 0};
Point(p15 + 16) = {24.12861129585341, 0.7733246074053846, 0};
Point(p15 + 17) = {24.01587626628666, 0.5893577592083787, 0};
Point(p15 + 18) = {23.93330794748978, 0.3900202041465922, 0};
Point(p15 + 19) = {23.88293944550007, 0.1802202943890623, 0};
Point(p15 + 20) = {23.866011, -0.03487599999999983, 0};
Point(p15 + 21) = {23.88293944550007, -0.249972294389062, 0};
Point(p15 + 22) = {23.93330794748978, -0.4597722041465925, 0};
Point(p15 + 23) = {24.01587626628666, -0.6591097592083779, 0};
Point(p15 + 24) = {24.12861129585341, -0.8430766074053844, 0};
Point(p15 + 25) = {24.26873712561597, -1.007142874384034, 0};
Point(p15 + 26) = {24.43280339259461, -1.147268704146592, 0};
Point(p15 + 27) = {24.61677024079162, -1.260003733713336, 0};
Point(p15 + 28) = {24.81610779585341, -1.342572052510222, 0};
Point(p15 + 29) = {25.02590770561094, -1.39294055449993, 0};
Point(p15 + 30) = {25.241004, -1.409869, 0};
Point(p15 + 31) = {25.45610029438906, -1.39294055449993, 0};
Point(p15 + 32) = {25.66590020414659, -1.342572052510222, 0};
Point(p15 + 33) = {25.86523775920838, -1.260003733713336, 0};
Point(p15 + 34) = {26.04920460740539, -1.147268704146592, 0};
Point(p15 + 35) = {26.21327087438403, -1.007142874384035, 0};
Point(p15 + 36) = {26.35339670414659, -0.8430766074053848, 0};
Point(p15 + 37) = {26.46613173371334, -0.6591097592083789, 0};
Point(p15 + 38) = {26.54870005251022, -0.4597722041465924, 0};
Point(p15 + 39) = {26.59906855449993, -0.2499722943890624, 0};
Spline(15) = {11, p15 + 1, p15 + 2, p15 + 3, p15 + 4, p15 + 5, p15 + 6, p15 + 7, p15 + 8, p15 + 9, p15 + 10, p15 + 11, p15 + 12, p15 + 13, p15 + 14, p15 + 15, p15 + 16, p15 + 17, p15 + 18, p15 + 19, p15 + 20, p15 + 21, p15 + 22, p15 + 23, p15 + 24, p15 + 25, p15 + 26, p15 + 27, p15 + 28, p15 + 29, p15 + 30, p15 + 31, p15 + 32, p15 + 33, p15 + 34, p15 + 35, p15 + 36, p15 + 37, p15 + 38, p15 + 39, 11};
p16 = newp;
Point(p16 + 1) = {35.65435442544336, 3.158889666249308, 0};
Point(p16 + 2) = {35.60157250897329, 3.378742170786997, 0};
Point(p16 + 3) = {35.51504791654644, 3.587631015302719, 0};
Point(p16 + 4) = {35.39691117078699, 3.78041266318217, 0};
Point(p16 + 5) = {35.25007119044895, 3.952340190448948, 0};
Point(p16 + 6) = {35.07814366318217, 4.099180170786997, 0};
Point(p16 + 7) = {34.88536201530272, 4.217316916546439, 0};
Point(p16 + 8) = {34.676473170787, 4.303841508973296, 0};
Point(p16 + 9) = {34.45662066624931, 4.35662342544336, 0};
Point(p16 + 10) = {34.231218, 4.374363, 0};
Point(p16 + 11) = {34.00581533375069, 4.35662342544336, 0};
Point(p16 + 12) = {33.785962829213, 4.303841508973296, 0};
Point(p16 + 13) = {33.57707398469728, 4.217316916546439, 0};
Point(p16 + 14) = {33.38429233681783, 4.099180170786997, 0};
Point(p16 + 15) = {33.21236480955105, 3.952340190448948, 0};
Point(p16 + 16) = {33.065524829213, 3.78041266318217, 0};
Point(p16 + 17) = {32.94738808345356, 3.587631015302719, 0};
Point(p16 + 18) = {32.86086349102671, 3.378742170786997, 0};
Point(p16 + 19) = {32.80808157455664, 3.158889666249308, 0};
Point(p16 + 20) = {32.790342, 2.933487, 0};
Point(p16 + 21) = {32.80808157455664, 2.708084333750692, 0};
Point(p16 + 22) = {32.86086349102671, 2.488231829213003, 0};
Point(p16 + 23) = {32.94738808345356, 2.279342984697282, 0};
Point(p16 + 24) = {33.065524829213, 2.086561336817831, 0};
Point(p16 + 25) = {33.21236480955105, 1.914633809551052, 0};
Point(p16 + 26) = {33.38429233681783, 1.767793829213003, 0};
Point(p16 + 27) = {33.57707398469728, 1.649657083453561, 0};
Point(p16 + 28) = {33.785962829213, 1.563132491026704, 0};
Point(p16 + 29) = {34.00581533375069, 1.51035057455664, 0};
Point(p16 + 30) = {34.231218, 1.492611, 0};
Point(p16 + 31) = {34.45662066624931, 1.51035057455664, 0};
Point(p16 + 32) = {34.67647317078699, 1.563132491026704, 0};
Point(p16 + 33) = {34.88536201530272, 1.649657083453561, 0};
Point(p16 + 34) = {35.07814366318217, 1.767793829213003, 0};
Point(p16 + 35) = {35.25007119044895, 1.914633809551052, 0};
Point(p16 + 36) = {35.39691117078699, 2.08656133681783, 0};
Point(p16 + 37) = {35.51504791654644, 2.27934298469728, 0};
Point(p16 + 38) = {35.60157250897329, 2.488231829213003, 0};
Point(p16 + 39) = {35.65435442544336, 2.708084333750692, 0};
Spline(16) = {12, p16 + 1, p16 + 2, p16 + 3, p16 + 4, p16 + 5, p16 + 6, p16 + 7, p16 + 8, p16 + 9, p16 + 10, p16 + 11, p16 + 12, p16 + 13, p16 + 14, p16 + 15, p16 + 16, p16 + 17, p16 + 18, p16 + 19, p16 + 20, p16 + 21, p16 + 22, p16 + 23, p16 + 24, p16 + 25, p16 + 26, p16 + 27, p16 + 28, p16 + 29, p16 + 30, p16 + 31, p16 + 32, p16 + 33, p16 + 34, p16 + 35, p16 + 36, p16 + 37, p16 + 38, p16 + 39, 12};
Line(17) = {11, 8};
Line(18) = {12, 9};
Curve Loop(1) = {-1, 4, 3, -2};
Plane Surface(1) = {1};
Curve Loop(2) = {-5, 1, 7, -6};
Plane Surface(2) = {2};
Curve Loop(3) = {-2, 7, 9, -8, -10, -11};
Plane Surface(3) = {3};
Curve Loop(4) = {-12, 3, 8, -13};
Plane Surface(4) = {4};
Curve Loop(5) = {-4, 5, 14, -12, -15, -16};
Plane Surface(5) = {5};
Curve Loop(6) = {-6, 14, 13, -9};
Plane Surface(6) = {6};
Curve Loop(7) = {-10, -17, 15, 17};
Surface(7) = {7};
Curve Loop(8) = {-11, -18, 16, 18};
Surface(8) = {8};
Surface Loop(1) = {1, 2, 3, 4, 5, 6, 7, 8};
Volume(1) = {1};
Physical Surface("INFLOW") = {1};
Physical Surface("OUTFLOW") = {6};
Physical Surface("OBSTACLE") = {7, 8};
Physical Surface("WALL_Y") = {2, 4};
Physical Surface("WALL_Z") = {3, 5};
Physical Volume("FLUID") = {1};
