cl__1 = 1.3223;
cl__2 = 0.438223;
cl__3 = 4.017315;
cl__4 = 0.088838;
cl__5 = 0.098468;
Point(1) = {0.802168, -3.932548, 1, cl__1};
Point(2) = {0.802168, -3.932548, 0, cl__1};
Point(3) = {0.802168, 5.522240999999999, 1, cl__2};
Point(4) = {0.802168, 5.522240999999999, 0, cl__2};
Point(5) = {39.894036, -3.932548, 0, cl__1};
Point(6) = {39.894036, -3.932548, 1, cl__1};
Point(7) = {39.894036, 5.522240999999999, 1, cl__3};
Point(8) = {37.298751, 0.02262799999999978, 1, cl__4};
Point(9) = {15.31111, 0.4209059999999997, 1, cl__5};
Point(10) = {39.894036, 5.522240999999999, 0, cl__3};
Point(11) = {37.298751, 0.02262799999999978, 0, cl__4};
Point(12) = {15.31111, 0.4209059999999997, 0, cl__5};
Line(1) = {2, 1};
Line(2) = {1, 3};
Line(3) = {4, 3};
Line(4) = {2, 4};
Line(5) = {2, 5};
Line(6) = {5, 6};
Line(7) = {1, 6};
Line(8) = {3, 7};
Line(9) = {6, 7};
p10 = newp;
Point(p10 + 1) = {37.28781355570625, 0.1616014064869054, 1};
Point(p10 + 2) = {37.25527053900281, 0.2971528264798101, 1};
Point(p10 + 3) = {37.20192326696499, 0.4259445341491183, 1};
Point(p10 + 4) = {37.12908532647981, 0.5448052502168396, 1};
Point(p10 + 5) = {37.03855022937729, 0.6508082293772862, 1};
Point(p10 + 6) = {36.93254725021684, 0.7413433264798102, 1};
Point(p10 + 7) = {36.81368653414912, 0.8141812669649863, 1};
Point(p10 + 8) = {36.68489482647981, 0.8675285390028048, 1};
Point(p10 + 9) = {36.5493434064869, 0.9000715557062491, 1};
Point(p10 + 10) = {36.41037, 0.911009, 1};
Point(p10 + 11) = {36.2713965935131, 0.900071555706249, 1};
Point(p10 + 12) = {36.13584517352019, 0.8675285390028048, 1};
Point(p10 + 13) = {36.00705346585088, 0.8141812669649864, 1};
Point(p10 + 14) = {35.88819274978316, 0.7413433264798102, 1};
Point(p10 + 15) = {35.78218977062271, 0.6508082293772863, 1};
Point(p10 + 16) = {35.69165467352019, 0.5448052502168397, 1};
Point(p10 + 17) = {35.61881673303501, 0.4259445341491184, 1};
Point(p10 + 18) = {35.56546946099719, 0.2971528264798102, 1};
Point(p10 + 19) = {35.53292644429375, 0.1616014064869054, 1};
Point(p10 + 20) = {35.521989, 0.02262800000000011, 1};
Point(p10 + 21) = {35.53292644429375, -0.1163454064869052, 1};
Point(p10 + 22) = {35.56546946099719, -0.2518968264798104, 1};
Point(p10 + 23) = {35.61881673303501, -0.3806885341491179, 1};
Point(p10 + 24) = {35.69165467352019, -0.4995492502168395, 1};
Point(p10 + 25) = {35.78218977062271, -0.6055522293772863, 1};
Point(p10 + 26) = {35.88819274978316, -0.6960873264798101, 1};
Point(p10 + 27) = {36.00705346585088, -0.7689252669649863, 1};
Point(p10 + 28) = {36.13584517352019, -0.8222725390028048, 1};
Point(p10 + 29) = {36.2713965935131, -0.854815555706249, 1};
Point(p10 + 30) = {36.41037, -0.865753, 1};
Point(p10 + 31) = {36.5493434064869, -0.8548155557062491, 1};
Point(p10 + 32) = {36.68489482647981, -0.8222725390028048, 1};
Point(p10 + 33) = {36.81368653414912, -0.7689252669649864, 1};
Point(p10 + 34) = {36.93254725021684, -0.6960873264798103, 1};
Point(p10 + 35) = {37.03855022937729, -0.6055522293772864, 1};
Point(p10 + 36) = {37.12908532647981, -0.4995492502168398, 1};
Point(p10 + 37) = {37.20192326696499, -0.3806885341491185, 1};
Point(p10 + 38) = {37.25527053900281, -0.2518968264798104, 1};
Point(p10 + 39) = {37.28781355570625, -0.1163454064869055, 1};
Spline(10) = {8, p10 + 1, p10 + 2, p10 + 3, p10 + 4, p10 + 5, p10 + 6, p10 + 7, p10 + 8, p10 + 9, p10 + 10, p10 + 11, p10 + 12, p10 + 13, p10 + 14, p10 + 15, p10 + 16, p10 + 17, p10 + 18, p10 + 19, p10 + 20, p10 + 21, p10 + 22, p10 + 23, p10 + 24, p10 + 25, p10 + 26, p10 + 27, p10 + 28, p10 + 29, p10 + 30, p10 + 31, p10 + 32, p10 + 33, p10 + 34, p10 + 35, p10 + 36, p10 + 37, p10 + 38, p10 + 39, 8};
p11 = newp;
Point(p11 + 1) = {15.29898696752888, 0.5749437326013495, 1};
Point(p11 + 2) = {15.262916379409, 0.7251885450041289, 1};
Point(p11 + 3) = {15.20378641323128, 0.8679409112930372, 1};
Point(p11 + 4) = {15.12305304500413, 0.9996857944421002, 1};
Point(p11 + 5) = {15.02270419819199, 1.117179198191988, 1};
Point(p11 + 6) = {14.9052107944421, 1.217528045004129, 1};
Point(p11 + 7) = {14.77346591129304, 1.298261413231278, 1};
Point(p11 + 8) = {14.63071354500413, 1.357391379408996, 1};
Point(p11 + 9) = {14.48046873260135, 1.39346196752888, 1};
Point(p11 + 10) = {14.326431, 1.405585, 1};
Point(p11 + 11) = {14.17239326739865, 1.39346196752888, 1};
Point(p11 + 12) = {14.02214845499587, 1.357391379408996, 1};
Point(p11 + 13) = {13.87939608870696, 1.298261413231278, 1};
Point(p11 + 14) = {13.7476512055579, 1.217528045004129, 1};
Point(p11 + 15) = {13.63015780180801, 1.117179198191988, 1};
Point(p11 + 16) = {13.52980895499587, 0.9996857944421003, 1};
Point(p11 + 17) = {13.44907558676872, 0.8679409112930372, 1};
Point(p11 + 18) = {13.389945620591, 0.7251885450041289, 1};
Point(p11 + 19) = {13.35387503247112, 0.5749437326013496, 1};
Point(p11 + 20) = {13.341752, 0.4209060000000001, 1};
Point(p11 + 21) = {13.35387503247112, 0.2668682673986507, 1};
Point(p11 + 22) = {13.389945620591, 0.1166234549958708, 1};
Point(p11 + 23) = {13.44907558676872, -0.02612891129303663, 1};
Point(p11 + 24) = {13.52980895499587, -0.1578737944421, 1};
Point(p11 + 25) = {13.63015780180801, -0.2753671981919883, 1};
Point(p11 + 26) = {13.7476512055579, -0.3757160450041287, 1};
Point(p11 + 27) = {13.87939608870696, -0.4564494132312777, 1};
Point(p11 + 28) = {14.02214845499587, -0.5155793794089955, 1};
Point(p11 + 29) = {14.17239326739865, -0.5516499675288795, 1};
Point(p11 + 30) = {14.326431, -0.563773, 1};
Point(p11 + 31) = {14.48046873260135, -0.5516499675288796, 1};
Point(p11 + 32) = {14.63071354500413, -0.5155793794089956, 1};
Point(p11 + 33) = {14.77346591129304, -0.4564494132312779, 1};
Point(p11 + 34) = {14.9052107944421, -0.3757160450041289, 1};
Point(p11 + 35) = {15.02270419819199, -0.2753671981919885, 1};
Point(p11 + 36) = {15.12305304500413, -0.1578737944421004, 1};
Point(p11 + 37) = {15.20378641323128, -0.02612891129303735, 1};
Point(p11 + 38) = {15.262916379409, 0.116623454995871, 1};
Point(p11 + 39) = {15.29898696752888, 0.2668682673986503, 1};
Spline(11) = {9, p11 + 1, p11 + 2, p11 + 3, p11 + 4, p11 + 5, p11 + 6, p11 + 7, p11 + 8, p11 + 9, p11 + 10, p11 + 11, p11 + 12, p11 + 13, p11 + 14, p11 + 15, p11 + 16, p11 + 17, p11 + 18, p11 + 19, p11 + 20, p11 + 21, p11 + 22, p11 + 23, p11 + 24, p11 + 25, p11 + 26, p11 + 27, p11 + 28, p11 + 29, p11 + 30, p11 + 31, p11 + 32, p11 + 33, p11 + 34, p11 + 35, p11 + 36, p11 + 37, p11 + 38, p11 + 39, 9};
Line(12) = {4, 10};
Line(13) = {10, 7};
Line(14) = {5, 10};
p15 = newp;
Point(p15 + 1) = {37.28781355570625, 0.1616014064869054, 0};
Point(p15 + 2) = {37.25527053900281, 0.2971528264798101, 0};
Point(p15 + 3) = {37.20192326696499, 0.4259445341491183, 0};
Point(p15 + 4) = {37.12908532647981, 0.5448052502168396, 0};
Point(p15 + 5) = {37.03855022937729, 0.6508082293772862, 0};
Point(p15 + 6) = {36.93254725021684, 0.7413433264798102, 0};
Point(p15 + 7) = {36.81368653414912, 0.8141812669649863, 0};
Point(p15 + 8) = {36.68489482647981, 0.8675285390028048, 0};
Point(p15 + 9) = {36.5493434064869, 0.9000715557062491, 0};
Point(p15 + 10) = {36.41037, 0.911009, 0};
Point(p15 + 11) = {36.2713965935131, 0.900071555706249, 0};
Point(p15 + 12) = {36.13584517352019, 0.8675285390028048, 0};
Point(p15 + 13) = {36.00705346585088, 0.8141812669649864, 0};
Point(p15 + 14) = {35.88819274978316, 0.7413433264798102, 0};
Point(p15 + 15) = {35.78218977062271, 0.6508082293772863, 0};
Point(p15 + 16) = {35.69165467352019, 0.5448052502168397, 0};
Point(p15 + 17) = {35.61881673303501, 0.4259445341491184, 0};
Point(p15 + 18) = {35.56546946099719, 0.2971528264798102, 0};
Point(p15 + 19) = {35.53292644429375, 0.1616014064869054, 0};
Point(p15 + 20) = {35.521989, 0.02262800000000011, 0};
Point(p15 + 21) = {35.53292644429375, -0.1163454064869052, 0};
Point(p15 + 22) = {35.56546946099719, -0.2518968264798104, 0};
Point(p15 + 23) = {35.61881673303501, -0.3806885341491179, 0};
Point(p15 + 24) = {35.69165467352019, -0.4995492502168395, 0};
Point(p15 + 25) = {35.78218977062271, -0.6055522293772863, 0};
Point(p15 + 26) = {35.88819274978316, -0.6960873264798101, 0};
Point(p15 + 27) = {36.00705346585088, -0.7689252669649863, 0};
Point(p15 + 28) = {36.13584517352019, -0.8222725390028048, 0};
Point(p15 + 29) = {36.2713965935131, -0.854815555706249, 0};
Point(p15 + 30) = {36.41037, -0.865753, 0};
Point(p15 + 31) = {36.5493434064869, -0.8548155557062491, 0};
Point(p15 + 32) = {36.68489482647981, -0.8222725390028048, 0};
Point(p15 + 33) = {36.81368653414912, -0.7689252669649864, 0};
Point(p15 + 34) = {36.93254725021684, -0.6960873264798103, 0};
Point(p15 + 35) = {37.03855022937729, -0.6055522293772864, 0};
Point(p15 + 36) = {37.12908532647981, -0.4995492502168398, 0};
Point(p15 + 37) = {37.20192326696499, -0.3806885341491185, 0};
Point(p15 + 38) = {37.25527053900281, -0.2518968264798104, 0};
Point(p15 + 39) = {37.28781355570625, -0.1163454064869055, 0};
Spline(15) = {11, p15 + 1, p15 + 2, p15 + 3, p15 + 4, p15 + 5, p15 + 6, p15 + 7, p15 + 8, p15 + 9, p15 + 10, p15 + 11, p15 + 12, p15 + 13, p15 + 14, p15 + 15, p15 + 16, p15 + 17, p15 + 18, p15 + 19, p15 + 20, p15 + 21, p15 + 22, p15 + 23, p15 + 24, p15 + 25, p15 + 26, p15 + 27, p15 + 28, p15 + 29, p15 + 30, p15 + 31, p15 + 32, p15 + 33, p15 + 34, p15 + 35, p15 + 36, p15 + 37, p15 + 38, p15 + 39, 11};
p16 = newp;
Point(p16 + 1) = {15.29898696752888, 0.5749437326013495, 0};
Point(p16 + 2) = {15.262916379409, 0.7251885450041289, 0};
Point(p16 + 3) = {15.20378641323128, 0.8679409112930372, 0};
Point(p16 + 4) = {15.12305304500413, 0.9996857944421002, 0};
Point(p16 + 5) = {15.02270419819199, 1.117179198191988, 0};
Point(p16 + 6) = {14.9052107944421, 1.217528045004129, 0};
Point(p16 + 7) = {14.77346591129304, 1.298261413231278, 0};
Point(p16 + 8) = {14.63071354500413, 1.357391379408996, 0};
Point(p16 + 9) = {14.48046873260135, 1.39346196752888, 0};
Point(p16 + 10) = {14.326431, 1.405585, 0};
Point(p16 + 11) = {14.17239326739865, 1.39346196752888, 0};
Point(p16 + 12) = {14.02214845499587, 1.357391379408996, 0};
Point(p16 + 13) = {13.87939608870696, 1.298261413231278, 0};
Point(p16 + 14) = {13.7476512055579, 1.217528045004129, 0};
Point(p16 + 15) = {13.63015780180801, 1.117179198191988, 0};
Point(p16 + 16) = {13.52980895499587, 0.9996857944421003, 0};
Point(p16 + 17) = {13.44907558676872, 0.8679409112930372, 0};
Point(p16 + 18) = {13.389945620591, 0.7251885450041289, 0};
Point(p16 + 19) = {13.35387503247112, 0.5749437326013496, 0};
Point(p16 + 20) = {13.341752, 0.4209060000000001, 0};
Point(p16 + 21) = {13.35387503247112, 0.2668682673986507, 0};
Point(p16 + 22) = {13.389945620591, 0.1166234549958708, 0};
Point(p16 + 23) = {13.44907558676872, -0.02612891129303663, 0};
Point(p16 + 24) = {13.52980895499587, -0.1578737944421, 0};
Point(p16 + 25) = {13.63015780180801, -0.2753671981919883, 0};
Point(p16 + 26) = {13.7476512055579, -0.3757160450041287, 0};
Point(p16 + 27) = {13.87939608870696, -0.4564494132312777, 0};
Point(p16 + 28) = {14.02214845499587, -0.5155793794089955, 0};
Point(p16 + 29) = {14.17239326739865, -0.5516499675288795, 0};
Point(p16 + 30) = {14.326431, -0.563773, 0};
Point(p16 + 31) = {14.48046873260135, -0.5516499675288796, 0};
Point(p16 + 32) = {14.63071354500413, -0.5155793794089956, 0};
Point(p16 + 33) = {14.77346591129304, -0.4564494132312779, 0};
Point(p16 + 34) = {14.9052107944421, -0.3757160450041289, 0};
Point(p16 + 35) = {15.02270419819199, -0.2753671981919885, 0};
Point(p16 + 36) = {15.12305304500413, -0.1578737944421004, 0};
Point(p16 + 37) = {15.20378641323128, -0.02612891129303735, 0};
Point(p16 + 38) = {15.262916379409, 0.116623454995871, 0};
Point(p16 + 39) = {15.29898696752888, 0.2668682673986503, 0};
Spline(16) = {12, p16 + 1, p16 + 2, p16 + 3, p16 + 4, p16 + 5, p16 + 6, p16 + 7, p16 + 8, p16 + 9, p16 + 10, p16 + 11, p16 + 12, p16 + 13, p16 + 14, p16 + 15, p16 + 16, p16 + 17, p16 + 18, p16 + 19, p16 + 20, p16 + 21, p16 + 22, p16 + 23, p16 + 24, p16 + 25, p16 + 26, p16 + 27, p16 + 28, p16 + 29, p16 + 30, p16 + 31, p16 + 32, p16 + 33, p16 + 34, p16 + 35, p16 + 36, p16 + 37, p16 + 38, p16 + 39, 12};
Line(17) = {11, 8};
Line(18) = {12, 9};
Curve Loop(1) = {-1, 4, 3, -2};
Plane Surface(1) = {1};
Curve Loop(2) = {-5, 1, 7, -6};
Plane Surface(2) = {2};
Curve Loop(3) = {-2, 7, 9, -8, -10, -11};
Plane Surface(3) = {3};
Curve Loop(4) = {-12, 3, 8, -13};
Plane Surface(4) = {4};
Curve Loop(5) = {-4, 5, 14, -12, -15, -16};
Plane Surface(5) = {5};
Curve Loop(6) = {-6, 14, 13, -9};
Plane Surface(6) = {6};
Curve Loop(7) = {-10, -17, 15, 17};
Surface(7) = {7};
Curve Loop(8) = {-11, -18, 16, 18};
Surface(8) = {8};
Surface Loop(1) = {1, 2, 3, 4, 5, 6, 7, 8};
Volume(1) = {1};
Physical Surface("INFLOW") = {1};
Physical Surface("OUTFLOW") = {6};
Physical Surface("OBSTACLE") = {7, 8};
Physical Surface("WALL_Y") = {2, 4};
Physical Surface("WALL_Z") = {3, 5};
Physical Volume("FLUID") = {1};
