cl__1 = 3.931315;
cl__2 = 0.663617;
cl__3 = 0.449787;
cl__4 = 0.059448;
cl__5 = 0.07954799999999999;
Point(1) = {0.290703, -3.909659, 1, cl__1};
Point(2) = {0.290703, -3.909659, 0, cl__1};
Point(3) = {0.290703, 4.784369, 1, cl__2};
Point(4) = {0.290703, 4.784369, 0, cl__2};
Point(5) = {39.072077, -3.909659, 0, cl__3};
Point(6) = {39.072077, -3.909659, 1, cl__3};
Point(7) = {39.072077, 4.784369, 1, cl__2};
Point(8) = {4.799897, -0.6528040000000003, 1, cl__4};
Point(9) = {33.676118, 0.2007629999999998, 1, cl__5};
Point(10) = {39.072077, 4.784369, 0, cl__2};
Point(11) = {4.799897, -0.6528040000000003, 0, cl__4};
Point(12) = {33.676118, 0.2007629999999998, 0, cl__5};
Line(1) = {2, 1};
Line(2) = {1, 3};
Line(3) = {4, 3};
Line(4) = {2, 4};
Line(5) = {2, 5};
Line(6) = {5, 6};
Line(7) = {1, 6};
Line(8) = {3, 7};
Line(9) = {6, 7};
p10 = newp;
Point(p10 + 1) = {4.79257791547036, -0.5598062134850235, 1};
Point(p10 + 2) = {4.770800882033209, -0.4690983411160038, 1};
Point(p10 + 3) = {4.735102122525598, -0.3829139117528353, 1};
Point(p10 + 4) = {4.686360658883997, -0.3033750720761614, 1};
Point(p10 + 5) = {4.625776667706903, -0.2324403322930966, 1};
Point(p10 + 6) = {4.554841927923839, -0.1718563411160038, 1};
Point(p10 + 7) = {4.475303088247164, -0.1231148774744024, 1};
Point(p10 + 8) = {4.389118658883996, -0.08741611796679194, 1};
Point(p10 + 9) = {4.298410786514976, -0.06563908452964018, 1};
Point(p10 + 10) = {4.205413, -0.05832000000000004, 1};
Point(p10 + 11) = {4.112415213485023, -0.06563908452964018, 1};
Point(p10 + 12) = {4.021707341116004, -0.08741611796679194, 1};
Point(p10 + 13) = {3.935522911752835, -0.1231148774744023, 1};
Point(p10 + 14) = {3.855984072076161, -0.1718563411160038, 1};
Point(p10 + 15) = {3.785049332293096, -0.2324403322930965, 1};
Point(p10 + 16) = {3.724465341116004, -0.3033750720761614, 1};
Point(p10 + 17) = {3.675723877474403, -0.3829139117528353, 1};
Point(p10 + 18) = {3.640025117966792, -0.4690983411160038, 1};
Point(p10 + 19) = {3.61824808452964, -0.5598062134850234, 1};
Point(p10 + 20) = {3.610929, -0.6528039999999999, 1};
Point(p10 + 21) = {3.61824808452964, -0.7458017865149766, 1};
Point(p10 + 22) = {3.640025117966792, -0.8365096588839964, 1};
Point(p10 + 23) = {3.675723877474402, -0.9226940882471645, 1};
Point(p10 + 24) = {3.724465341116004, -1.002232927923839, 1};
Point(p10 + 25) = {3.785049332293096, -1.073167667706904, 1};
Point(p10 + 26) = {3.855984072076161, -1.133751658883996, 1};
Point(p10 + 27) = {3.935522911752835, -1.182493122525598, 1};
Point(p10 + 28) = {4.021707341116004, -1.218191882033208, 1};
Point(p10 + 29) = {4.112415213485023, -1.23996891547036, 1};
Point(p10 + 30) = {4.205413, -1.247288, 1};
Point(p10 + 31) = {4.298410786514976, -1.23996891547036, 1};
Point(p10 + 32) = {4.389118658883996, -1.218191882033208, 1};
Point(p10 + 33) = {4.475303088247164, -1.182493122525598, 1};
Point(p10 + 34) = {4.554841927923839, -1.133751658883996, 1};
Point(p10 + 35) = {4.625776667706903, -1.073167667706904, 1};
Point(p10 + 36) = {4.686360658883996, -1.002232927923839, 1};
Point(p10 + 37) = {4.735102122525598, -0.9226940882471649, 1};
Point(p10 + 38) = {4.770800882033209, -0.8365096588839964, 1};
Point(p10 + 39) = {4.79257791547036, -0.7458017865149768, 1};
Spline(10) = {8, p10 + 1, p10 + 2, p10 + 3, p10 + 4, p10 + 5, p10 + 6, p10 + 7, p10 + 8, p10 + 9, p10 + 10, p10 + 11, p10 + 12, p10 + 13, p10 + 14, p10 + 15, p10 + 16, p10 + 17, p10 + 18, p10 + 19, p10 + 20, p10 + 21, p10 + 22, p10 + 23, p10 + 24, p10 + 25, p10 + 26, p10 + 27, p10 + 28, p10 + 29, p10 + 30, p10 + 31, p10 + 32, p10 + 33, p10 + 34, p10 + 35, p10 + 36, p10 + 37, p10 + 38, p10 + 39, 8};
p11 = newp;
Point(p11 + 1) = {33.66632429655331, 0.3252038011191329, 1};
Point(p11 + 2) = {33.6371843396955, 0.4465804567193719, 1};
Point(p11 + 3) = {33.58941565187441, 0.5619042707138141, 1};
Point(p11 + 4) = {33.52419445671937, 0.6683355880641211, 1};
Point(p11 + 5) = {33.44312671651184, 0.7632537165118372, 1};
Point(p11 + 6) = {33.34820858806413, 0.844321456719372, 1};
Point(p11 + 7) = {33.24177727071382, 0.9095426518744112, 1};
Point(p11 + 8) = {33.12645345671937, 0.9573113396955014, 1};
Point(p11 + 9) = {33.00507680111914, 0.9864512965533014, 1};
Point(p11 + 10) = {32.880636, 0.996245, 1};
Point(p11 + 11) = {32.75619519888087, 0.9864512965533013, 1};
Point(p11 + 12) = {32.63481854328063, 0.9573113396955014, 1};
Point(p11 + 13) = {32.51949472928619, 0.9095426518744113, 1};
Point(p11 + 14) = {32.41306341193588, 0.844321456719372, 1};
Point(p11 + 15) = {32.31814528348816, 0.7632537165118373, 1};
Point(p11 + 16) = {32.23707754328063, 0.6683355880641212, 1};
Point(p11 + 17) = {32.17185634812559, 0.5619042707138142, 1};
Point(p11 + 18) = {32.1240876603045, 0.446580456719372, 1};
Point(p11 + 19) = {32.0949477034467, 0.3252038011191331, 1};
Point(p11 + 20) = {32.085154, 0.2007630000000001, 1};
Point(p11 + 21) = {32.0949477034467, 0.07632219888086718, 1};
Point(p11 + 22) = {32.1240876603045, -0.04505445671937217, 1};
Point(p11 + 23) = {32.17185634812559, -0.1603782707138137, 1};
Point(p11 + 24) = {32.23707754328063, -0.266809588064121, 1};
Point(p11 + 25) = {32.31814528348816, -0.3617277165118371, 1};
Point(p11 + 26) = {32.41306341193588, -0.4427954567193718, 1};
Point(p11 + 27) = {32.51949472928619, -0.5080166518744111, 1};
Point(p11 + 28) = {32.63481854328063, -0.5557853396955014, 1};
Point(p11 + 29) = {32.75619519888087, -0.5849252965533013, 1};
Point(p11 + 30) = {32.880636, -0.594719, 1};
Point(p11 + 31) = {33.00507680111914, -0.5849252965533014, 1};
Point(p11 + 32) = {33.12645345671937, -0.5557853396955014, 1};
Point(p11 + 33) = {33.24177727071382, -0.5080166518744113, 1};
Point(p11 + 34) = {33.34820858806413, -0.442795456719372, 1};
Point(p11 + 35) = {33.44312671651184, -0.3617277165118373, 1};
Point(p11 + 36) = {33.52419445671937, -0.2668095880641214, 1};
Point(p11 + 37) = {33.58941565187441, -0.1603782707138143, 1};
Point(p11 + 38) = {33.6371843396955, -0.04505445671937208, 1};
Point(p11 + 39) = {33.66632429655331, 0.07632219888086689, 1};
Spline(11) = {9, p11 + 1, p11 + 2, p11 + 3, p11 + 4, p11 + 5, p11 + 6, p11 + 7, p11 + 8, p11 + 9, p11 + 10, p11 + 11, p11 + 12, p11 + 13, p11 + 14, p11 + 15, p11 + 16, p11 + 17, p11 + 18, p11 + 19, p11 + 20, p11 + 21, p11 + 22, p11 + 23, p11 + 24, p11 + 25, p11 + 26, p11 + 27, p11 + 28, p11 + 29, p11 + 30, p11 + 31, p11 + 32, p11 + 33, p11 + 34, p11 + 35, p11 + 36, p11 + 37, p11 + 38, p11 + 39, 9};
Line(12) = {4, 10};
Line(13) = {10, 7};
Line(14) = {5, 10};
p15 = newp;
Point(p15 + 1) = {4.79257791547036, -0.5598062134850235, 0};
Point(p15 + 2) = {4.770800882033209, -0.4690983411160038, 0};
Point(p15 + 3) = {4.735102122525598, -0.3829139117528353, 0};
Point(p15 + 4) = {4.686360658883997, -0.3033750720761614, 0};
Point(p15 + 5) = {4.625776667706903, -0.2324403322930966, 0};
Point(p15 + 6) = {4.554841927923839, -0.1718563411160038, 0};
Point(p15 + 7) = {4.475303088247164, -0.1231148774744024, 0};
Point(p15 + 8) = {4.389118658883996, -0.08741611796679194, 0};
Point(p15 + 9) = {4.298410786514976, -0.06563908452964018, 0};
Point(p15 + 10) = {4.205413, -0.05832000000000004, 0};
Point(p15 + 11) = {4.112415213485023, -0.06563908452964018, 0};
Point(p15 + 12) = {4.021707341116004, -0.08741611796679194, 0};
Point(p15 + 13) = {3.935522911752835, -0.1231148774744023, 0};
Point(p15 + 14) = {3.855984072076161, -0.1718563411160038, 0};
Point(p15 + 15) = {3.785049332293096, -0.2324403322930965, 0};
Point(p15 + 16) = {3.724465341116004, -0.3033750720761614, 0};
Point(p15 + 17) = {3.675723877474403, -0.3829139117528353, 0};
Point(p15 + 18) = {3.640025117966792, -0.4690983411160038, 0};
Point(p15 + 19) = {3.61824808452964, -0.5598062134850234, 0};
Point(p15 + 20) = {3.610929, -0.6528039999999999, 0};
Point(p15 + 21) = {3.61824808452964, -0.7458017865149766, 0};
Point(p15 + 22) = {3.640025117966792, -0.8365096588839964, 0};
Point(p15 + 23) = {3.675723877474402, -0.9226940882471645, 0};
Point(p15 + 24) = {3.724465341116004, -1.002232927923839, 0};
Point(p15 + 25) = {3.785049332293096, -1.073167667706904, 0};
Point(p15 + 26) = {3.855984072076161, -1.133751658883996, 0};
Point(p15 + 27) = {3.935522911752835, -1.182493122525598, 0};
Point(p15 + 28) = {4.021707341116004, -1.218191882033208, 0};
Point(p15 + 29) = {4.112415213485023, -1.23996891547036, 0};
Point(p15 + 30) = {4.205413, -1.247288, 0};
Point(p15 + 31) = {4.298410786514976, -1.23996891547036, 0};
Point(p15 + 32) = {4.389118658883996, -1.218191882033208, 0};
Point(p15 + 33) = {4.475303088247164, -1.182493122525598, 0};
Point(p15 + 34) = {4.554841927923839, -1.133751658883996, 0};
Point(p15 + 35) = {4.625776667706903, -1.073167667706904, 0};
Point(p15 + 36) = {4.686360658883996, -1.002232927923839, 0};
Point(p15 + 37) = {4.735102122525598, -0.9226940882471649, 0};
Point(p15 + 38) = {4.770800882033209, -0.8365096588839964, 0};
Point(p15 + 39) = {4.79257791547036, -0.7458017865149768, 0};
Spline(15) = {11, p15 + 1, p15 + 2, p15 + 3, p15 + 4, p15 + 5, p15 + 6, p15 + 7, p15 + 8, p15 + 9, p15 + 10, p15 + 11, p15 + 12, p15 + 13, p15 + 14, p15 + 15, p15 + 16, p15 + 17, p15 + 18, p15 + 19, p15 + 20, p15 + 21, p15 + 22, p15 + 23, p15 + 24, p15 + 25, p15 + 26, p15 + 27, p15 + 28, p15 + 29, p15 + 30, p15 + 31, p15 + 32, p15 + 33, p15 + 34, p15 + 35, p15 + 36, p15 + 37, p15 + 38, p15 + 39, 11};
p16 = newp;
Point(p16 + 1) = {33.66632429655331, 0.3252038011191329, 0};
Point(p16 + 2) = {33.6371843396955, 0.4465804567193719, 0};
Point(p16 + 3) = {33.58941565187441, 0.5619042707138141, 0};
Point(p16 + 4) = {33.52419445671937, 0.6683355880641211, 0};
Point(p16 + 5) = {33.44312671651184, 0.7632537165118372, 0};
Point(p16 + 6) = {33.34820858806413, 0.844321456719372, 0};
Point(p16 + 7) = {33.24177727071382, 0.9095426518744112, 0};
Point(p16 + 8) = {33.12645345671937, 0.9573113396955014, 0};
Point(p16 + 9) = {33.00507680111914, 0.9864512965533014, 0};
Point(p16 + 10) = {32.880636, 0.996245, 0};
Point(p16 + 11) = {32.75619519888087, 0.9864512965533013, 0};
Point(p16 + 12) = {32.63481854328063, 0.9573113396955014, 0};
Point(p16 + 13) = {32.51949472928619, 0.9095426518744113, 0};
Point(p16 + 14) = {32.41306341193588, 0.844321456719372, 0};
Point(p16 + 15) = {32.31814528348816, 0.7632537165118373, 0};
Point(p16 + 16) = {32.23707754328063, 0.6683355880641212, 0};
Point(p16 + 17) = {32.17185634812559, 0.5619042707138142, 0};
Point(p16 + 18) = {32.1240876603045, 0.446580456719372, 0};
Point(p16 + 19) = {32.0949477034467, 0.3252038011191331, 0};
Point(p16 + 20) = {32.085154, 0.2007630000000001, 0};
Point(p16 + 21) = {32.0949477034467, 0.07632219888086718, 0};
Point(p16 + 22) = {32.1240876603045, -0.04505445671937217, 0};
Point(p16 + 23) = {32.17185634812559, -0.1603782707138137, 0};
Point(p16 + 24) = {32.23707754328063, -0.266809588064121, 0};
Point(p16 + 25) = {32.31814528348816, -0.3617277165118371, 0};
Point(p16 + 26) = {32.41306341193588, -0.4427954567193718, 0};
Point(p16 + 27) = {32.51949472928619, -0.5080166518744111, 0};
Point(p16 + 28) = {32.63481854328063, -0.5557853396955014, 0};
Point(p16 + 29) = {32.75619519888087, -0.5849252965533013, 0};
Point(p16 + 30) = {32.880636, -0.594719, 0};
Point(p16 + 31) = {33.00507680111914, -0.5849252965533014, 0};
Point(p16 + 32) = {33.12645345671937, -0.5557853396955014, 0};
Point(p16 + 33) = {33.24177727071382, -0.5080166518744113, 0};
Point(p16 + 34) = {33.34820858806413, -0.442795456719372, 0};
Point(p16 + 35) = {33.44312671651184, -0.3617277165118373, 0};
Point(p16 + 36) = {33.52419445671937, -0.2668095880641214, 0};
Point(p16 + 37) = {33.58941565187441, -0.1603782707138143, 0};
Point(p16 + 38) = {33.6371843396955, -0.04505445671937208, 0};
Point(p16 + 39) = {33.66632429655331, 0.07632219888086689, 0};
Spline(16) = {12, p16 + 1, p16 + 2, p16 + 3, p16 + 4, p16 + 5, p16 + 6, p16 + 7, p16 + 8, p16 + 9, p16 + 10, p16 + 11, p16 + 12, p16 + 13, p16 + 14, p16 + 15, p16 + 16, p16 + 17, p16 + 18, p16 + 19, p16 + 20, p16 + 21, p16 + 22, p16 + 23, p16 + 24, p16 + 25, p16 + 26, p16 + 27, p16 + 28, p16 + 29, p16 + 30, p16 + 31, p16 + 32, p16 + 33, p16 + 34, p16 + 35, p16 + 36, p16 + 37, p16 + 38, p16 + 39, 12};
Line(17) = {11, 8};
Line(18) = {12, 9};
Curve Loop(1) = {-1, 4, 3, -2};
Plane Surface(1) = {1};
Curve Loop(2) = {-5, 1, 7, -6};
Plane Surface(2) = {2};
Curve Loop(3) = {-2, 7, 9, -8, -10, -11};
Plane Surface(3) = {3};
Curve Loop(4) = {-12, 3, 8, -13};
Plane Surface(4) = {4};
Curve Loop(5) = {-4, 5, 14, -12, -15, -16};
Plane Surface(5) = {5};
Curve Loop(6) = {-6, 14, 13, -9};
Plane Surface(6) = {6};
Curve Loop(7) = {-10, -17, 15, 17};
Surface(7) = {7};
Curve Loop(8) = {-11, -18, 16, 18};
Surface(8) = {8};
Surface Loop(1) = {1, 2, 3, 4, 5, 6, 7, 8};
Volume(1) = {1};
Physical Surface("INFLOW") = {1};
Physical Surface("OUTFLOW") = {6};
Physical Surface("OBSTACLE") = {7, 8};
Physical Surface("WALL_Y") = {2, 4};
Physical Surface("WALL_Z") = {3, 5};
Physical Volume("FLUID") = {1};
