cl__1 = 3.317443;
cl__2 = 0.491231;
cl__3 = 0.9060049999999999;
cl__4 = 0.132261;
cl__5 = 0.104973;
Point(1) = {0.030861, -3.33251, 1, cl__1};
Point(2) = {0.030861, -3.33251, 0, cl__1};
Point(3) = {0.030861, 4.854622, 1, cl__2};
Point(4) = {0.030861, 4.854622, 0, cl__2};
Point(5) = {32.920899, -3.33251, 0, cl__1};
Point(6) = {32.920899, -3.33251, 1, cl__1};
Point(7) = {32.920899, 4.854622, 1, cl__3};
Point(8) = {28.425821, -1.09002, 1, cl__4};
Point(9) = {25.494094, 2.177118999999999, 1, cl__5};
Point(10) = {32.920899, 4.854622, 0, cl__3};
Point(11) = {28.425821, -1.09002, 0, cl__4};
Point(12) = {25.494094, 2.177118999999999, 0, cl__5};
Line(1) = {2, 1};
Line(2) = {1, 3};
Line(3) = {4, 3};
Line(4) = {2, 4};
Line(5) = {2, 5};
Line(6) = {5, 6};
Line(7) = {1, 6};
Line(8) = {3, 7};
Line(9) = {6, 7};
p10 = newp;
Point(p10 + 1) = {28.40953746384288, -0.8831180557586752, 1};
Point(p10 + 2) = {28.36108781007365, -0.6813107240527565, 1};
Point(p10 + 3) = {28.2816650299633, -0.4895671711489783, 1};
Point(p10 + 4) = {28.17322477594724, -0.3126087596801999, 1};
Point(p10 + 5) = {28.03843720697192, -0.1547927930280792, 1};
Point(p10 + 6) = {27.8806212403198, -0.0200052240527564, 1};
Point(p10 + 7) = {27.70366282885102, 0.08843502996330121, 1};
Point(p10 + 8) = {27.51191927594724, 0.1678578100736492, 1};
Point(p10 + 9) = {27.31011194424132, 0.2163074638428757, 1};
Point(p10 + 10) = {27.10321, 0.232591, 1};
Point(p10 + 11) = {26.89630805575868, 0.2163074638428757, 1};
Point(p10 + 12) = {26.69450072405276, 0.1678578100736494, 1};
Point(p10 + 13) = {26.50275717114898, 0.08843502996330144, 1};
Point(p10 + 14) = {26.3257987596802, -0.0200052240527564, 1};
Point(p10 + 15) = {26.16798279302808, -0.1547927930280791, 1};
Point(p10 + 16) = {26.03319522405276, -0.3126087596801996, 1};
Point(p10 + 17) = {25.9247549700367, -0.4895671711489782, 1};
Point(p10 + 18) = {25.84533218992635, -0.6813107240527563, 1};
Point(p10 + 19) = {25.79688253615712, -0.8831180557586751, 1};
Point(p10 + 20) = {25.780599, -1.09002, 1};
Point(p10 + 21) = {25.79688253615712, -1.296921944241325, 1};
Point(p10 + 22) = {25.84533218992635, -1.498729275947244, 1};
Point(p10 + 23) = {25.9247549700367, -1.690472828851021, 1};
Point(p10 + 24) = {26.03319522405276, -1.8674312403198, 1};
Point(p10 + 25) = {26.16798279302808, -2.025247206971921, 1};
Point(p10 + 26) = {26.3257987596802, -2.160034775947243, 1};
Point(p10 + 27) = {26.50275717114898, -2.268475029963301, 1};
Point(p10 + 28) = {26.69450072405276, -2.347897810073649, 1};
Point(p10 + 29) = {26.89630805575868, -2.396347463842876, 1};
Point(p10 + 30) = {27.10321, -2.412631, 1};
Point(p10 + 31) = {27.31011194424132, -2.396347463842876, 1};
Point(p10 + 32) = {27.51191927594724, -2.34789781007365, 1};
Point(p10 + 33) = {27.70366282885102, -2.268475029963302, 1};
Point(p10 + 34) = {27.8806212403198, -2.160034775947244, 1};
Point(p10 + 35) = {28.03843720697192, -2.025247206971921, 1};
Point(p10 + 36) = {28.17322477594724, -1.8674312403198, 1};
Point(p10 + 37) = {28.2816650299633, -1.690472828851022, 1};
Point(p10 + 38) = {28.36108781007365, -1.498729275947244, 1};
Point(p10 + 39) = {28.40953746384288, -1.296921944241325, 1};
Spline(10) = {8, p10 + 1, p10 + 2, p10 + 3, p10 + 4, p10 + 5, p10 + 6, p10 + 7, p10 + 8, p10 + 9, p10 + 10, p10 + 11, p10 + 12, p10 + 13, p10 + 14, p10 + 15, p10 + 16, p10 + 17, p10 + 18, p10 + 19, p10 + 20, p10 + 21, p10 + 22, p10 + 23, p10 + 24, p10 + 25, p10 + 26, p10 + 27, p10 + 28, p10 + 29, p10 + 30, p10 + 31, p10 + 32, p10 + 33, p10 + 34, p10 + 35, p10 + 36, p10 + 37, p10 + 38, p10 + 39, 8};
p11 = newp;
Point(p11 + 1) = {25.48117013101957, 2.341332325248821, 1};
Point(p11 + 2) = {25.44271675262445, 2.501502173437236, 1};
Point(p11 + 3) = {25.37968071461016, 2.653684631329595, 1};
Point(p11 + 4) = {25.29361417343724, 2.794132461747969, 1};
Point(p11 + 5) = {25.18663637298783, 2.919387372987829, 1};
Point(p11 + 6) = {25.06138146174797, 3.026365173437236, 1};
Point(p11 + 7) = {24.9209336313296, 3.112431714610159, 1};
Point(p11 + 8) = {24.76875117343724, 3.175467752624446, 1};
Point(p11 + 9) = {24.60858132524882, 3.213921131019571, 1};
Point(p11 + 10) = {24.444368, 3.226845, 1};
Point(p11 + 11) = {24.28015467475118, 3.213921131019571, 1};
Point(p11 + 12) = {24.11998482656276, 3.175467752624446, 1};
Point(p11 + 13) = {23.96780236867041, 3.112431714610159, 1};
Point(p11 + 14) = {23.82735453825203, 3.026365173437236, 1};
Point(p11 + 15) = {23.70209962701217, 2.919387372987829, 1};
Point(p11 + 16) = {23.59512182656276, 2.794132461747969, 1};
Point(p11 + 17) = {23.50905528538984, 2.653684631329595, 1};
Point(p11 + 18) = {23.44601924737556, 2.501502173437236, 1};
Point(p11 + 19) = {23.40756586898043, 2.341332325248821, 1};
Point(p11 + 20) = {23.394642, 2.177119, 1};
Point(p11 + 21) = {23.40756586898043, 2.012905674751178, 1};
Point(p11 + 22) = {23.44601924737556, 1.852735826562763, 1};
Point(p11 + 23) = {23.50905528538984, 1.700553368670405, 1};
Point(p11 + 24) = {23.59512182656276, 1.560105538252031, 1};
Point(p11 + 25) = {23.70209962701217, 1.43485062701217, 1};
Point(p11 + 26) = {23.82735453825203, 1.327872826562764, 1};
Point(p11 + 27) = {23.96780236867041, 1.241806285389841, 1};
Point(p11 + 28) = {24.11998482656276, 1.178770247375553, 1};
Point(p11 + 29) = {24.28015467475118, 1.140316868980428, 1};
Point(p11 + 30) = {24.444368, 1.127393, 1};
Point(p11 + 31) = {24.60858132524882, 1.140316868980428, 1};
Point(p11 + 32) = {24.76875117343724, 1.178770247375553, 1};
Point(p11 + 33) = {24.9209336313296, 1.241806285389841, 1};
Point(p11 + 34) = {25.06138146174797, 1.327872826562764, 1};
Point(p11 + 35) = {25.18663637298783, 1.43485062701217, 1};
Point(p11 + 36) = {25.29361417343724, 1.560105538252031, 1};
Point(p11 + 37) = {25.37968071461016, 1.700553368670404, 1};
Point(p11 + 38) = {25.44271675262445, 1.852735826562764, 1};
Point(p11 + 39) = {25.48117013101957, 2.012905674751178, 1};
Spline(11) = {9, p11 + 1, p11 + 2, p11 + 3, p11 + 4, p11 + 5, p11 + 6, p11 + 7, p11 + 8, p11 + 9, p11 + 10, p11 + 11, p11 + 12, p11 + 13, p11 + 14, p11 + 15, p11 + 16, p11 + 17, p11 + 18, p11 + 19, p11 + 20, p11 + 21, p11 + 22, p11 + 23, p11 + 24, p11 + 25, p11 + 26, p11 + 27, p11 + 28, p11 + 29, p11 + 30, p11 + 31, p11 + 32, p11 + 33, p11 + 34, p11 + 35, p11 + 36, p11 + 37, p11 + 38, p11 + 39, 9};
Line(12) = {4, 10};
Line(13) = {10, 7};
Line(14) = {5, 10};
p15 = newp;
Point(p15 + 1) = {28.40953746384288, -0.8831180557586752, 0};
Point(p15 + 2) = {28.36108781007365, -0.6813107240527565, 0};
Point(p15 + 3) = {28.2816650299633, -0.4895671711489783, 0};
Point(p15 + 4) = {28.17322477594724, -0.3126087596801999, 0};
Point(p15 + 5) = {28.03843720697192, -0.1547927930280792, 0};
Point(p15 + 6) = {27.8806212403198, -0.0200052240527564, 0};
Point(p15 + 7) = {27.70366282885102, 0.08843502996330121, 0};
Point(p15 + 8) = {27.51191927594724, 0.1678578100736492, 0};
Point(p15 + 9) = {27.31011194424132, 0.2163074638428757, 0};
Point(p15 + 10) = {27.10321, 0.232591, 0};
Point(p15 + 11) = {26.89630805575868, 0.2163074638428757, 0};
Point(p15 + 12) = {26.69450072405276, 0.1678578100736494, 0};
Point(p15 + 13) = {26.50275717114898, 0.08843502996330144, 0};
Point(p15 + 14) = {26.3257987596802, -0.0200052240527564, 0};
Point(p15 + 15) = {26.16798279302808, -0.1547927930280791, 0};
Point(p15 + 16) = {26.03319522405276, -0.3126087596801996, 0};
Point(p15 + 17) = {25.9247549700367, -0.4895671711489782, 0};
Point(p15 + 18) = {25.84533218992635, -0.6813107240527563, 0};
Point(p15 + 19) = {25.79688253615712, -0.8831180557586751, 0};
Point(p15 + 20) = {25.780599, -1.09002, 0};
Point(p15 + 21) = {25.79688253615712, -1.296921944241325, 0};
Point(p15 + 22) = {25.84533218992635, -1.498729275947244, 0};
Point(p15 + 23) = {25.9247549700367, -1.690472828851021, 0};
Point(p15 + 24) = {26.03319522405276, -1.8674312403198, 0};
Point(p15 + 25) = {26.16798279302808, -2.025247206971921, 0};
Point(p15 + 26) = {26.3257987596802, -2.160034775947243, 0};
Point(p15 + 27) = {26.50275717114898, -2.268475029963301, 0};
Point(p15 + 28) = {26.69450072405276, -2.347897810073649, 0};
Point(p15 + 29) = {26.89630805575868, -2.396347463842876, 0};
Point(p15 + 30) = {27.10321, -2.412631, 0};
Point(p15 + 31) = {27.31011194424132, -2.396347463842876, 0};
Point(p15 + 32) = {27.51191927594724, -2.34789781007365, 0};
Point(p15 + 33) = {27.70366282885102, -2.268475029963302, 0};
Point(p15 + 34) = {27.8806212403198, -2.160034775947244, 0};
Point(p15 + 35) = {28.03843720697192, -2.025247206971921, 0};
Point(p15 + 36) = {28.17322477594724, -1.8674312403198, 0};
Point(p15 + 37) = {28.2816650299633, -1.690472828851022, 0};
Point(p15 + 38) = {28.36108781007365, -1.498729275947244, 0};
Point(p15 + 39) = {28.40953746384288, -1.296921944241325, 0};
Spline(15) = {11, p15 + 1, p15 + 2, p15 + 3, p15 + 4, p15 + 5, p15 + 6, p15 + 7, p15 + 8, p15 + 9, p15 + 10, p15 + 11, p15 + 12, p15 + 13, p15 + 14, p15 + 15, p15 + 16, p15 + 17, p15 + 18, p15 + 19, p15 + 20, p15 + 21, p15 + 22, p15 + 23, p15 + 24, p15 + 25, p15 + 26, p15 + 27, p15 + 28, p15 + 29, p15 + 30, p15 + 31, p15 + 32, p15 + 33, p15 + 34, p15 + 35, p15 + 36, p15 + 37, p15 + 38, p15 + 39, 11};
p16 = newp;
Point(p16 + 1) = {25.48117013101957, 2.341332325248821, 0};
Point(p16 + 2) = {25.44271675262445, 2.501502173437236, 0};
Point(p16 + 3) = {25.37968071461016, 2.653684631329595, 0};
Point(p16 + 4) = {25.29361417343724, 2.794132461747969, 0};
Point(p16 + 5) = {25.18663637298783, 2.919387372987829, 0};
Point(p16 + 6) = {25.06138146174797, 3.026365173437236, 0};
Point(p16 + 7) = {24.9209336313296, 3.112431714610159, 0};
Point(p16 + 8) = {24.76875117343724, 3.175467752624446, 0};
Point(p16 + 9) = {24.60858132524882, 3.213921131019571, 0};
Point(p16 + 10) = {24.444368, 3.226845, 0};
Point(p16 + 11) = {24.28015467475118, 3.213921131019571, 0};
Point(p16 + 12) = {24.11998482656276, 3.175467752624446, 0};
Point(p16 + 13) = {23.96780236867041, 3.112431714610159, 0};
Point(p16 + 14) = {23.82735453825203, 3.026365173437236, 0};
Point(p16 + 15) = {23.70209962701217, 2.919387372987829, 0};
Point(p16 + 16) = {23.59512182656276, 2.794132461747969, 0};
Point(p16 + 17) = {23.50905528538984, 2.653684631329595, 0};
Point(p16 + 18) = {23.44601924737556, 2.501502173437236, 0};
Point(p16 + 19) = {23.40756586898043, 2.341332325248821, 0};
Point(p16 + 20) = {23.394642, 2.177119, 0};
Point(p16 + 21) = {23.40756586898043, 2.012905674751178, 0};
Point(p16 + 22) = {23.44601924737556, 1.852735826562763, 0};
Point(p16 + 23) = {23.50905528538984, 1.700553368670405, 0};
Point(p16 + 24) = {23.59512182656276, 1.560105538252031, 0};
Point(p16 + 25) = {23.70209962701217, 1.43485062701217, 0};
Point(p16 + 26) = {23.82735453825203, 1.327872826562764, 0};
Point(p16 + 27) = {23.96780236867041, 1.241806285389841, 0};
Point(p16 + 28) = {24.11998482656276, 1.178770247375553, 0};
Point(p16 + 29) = {24.28015467475118, 1.140316868980428, 0};
Point(p16 + 30) = {24.444368, 1.127393, 0};
Point(p16 + 31) = {24.60858132524882, 1.140316868980428, 0};
Point(p16 + 32) = {24.76875117343724, 1.178770247375553, 0};
Point(p16 + 33) = {24.9209336313296, 1.241806285389841, 0};
Point(p16 + 34) = {25.06138146174797, 1.327872826562764, 0};
Point(p16 + 35) = {25.18663637298783, 1.43485062701217, 0};
Point(p16 + 36) = {25.29361417343724, 1.560105538252031, 0};
Point(p16 + 37) = {25.37968071461016, 1.700553368670404, 0};
Point(p16 + 38) = {25.44271675262445, 1.852735826562764, 0};
Point(p16 + 39) = {25.48117013101957, 2.012905674751178, 0};
Spline(16) = {12, p16 + 1, p16 + 2, p16 + 3, p16 + 4, p16 + 5, p16 + 6, p16 + 7, p16 + 8, p16 + 9, p16 + 10, p16 + 11, p16 + 12, p16 + 13, p16 + 14, p16 + 15, p16 + 16, p16 + 17, p16 + 18, p16 + 19, p16 + 20, p16 + 21, p16 + 22, p16 + 23, p16 + 24, p16 + 25, p16 + 26, p16 + 27, p16 + 28, p16 + 29, p16 + 30, p16 + 31, p16 + 32, p16 + 33, p16 + 34, p16 + 35, p16 + 36, p16 + 37, p16 + 38, p16 + 39, 12};
Line(17) = {11, 8};
Line(18) = {12, 9};
Curve Loop(1) = {-1, 4, 3, -2};
Plane Surface(1) = {1};
Curve Loop(2) = {-5, 1, 7, -6};
Plane Surface(2) = {2};
Curve Loop(3) = {-2, 7, 9, -8, -10, -11};
Plane Surface(3) = {3};
Curve Loop(4) = {-12, 3, 8, -13};
Plane Surface(4) = {4};
Curve Loop(5) = {-4, 5, 14, -12, -15, -16};
Plane Surface(5) = {5};
Curve Loop(6) = {-6, 14, 13, -9};
Plane Surface(6) = {6};
Curve Loop(7) = {-10, -17, 15, 17};
Surface(7) = {7};
Curve Loop(8) = {-11, -18, 16, 18};
Surface(8) = {8};
Surface Loop(1) = {1, 2, 3, 4, 5, 6, 7, 8};
Volume(1) = {1};
Physical Surface("INFLOW") = {1};
Physical Surface("OUTFLOW") = {6};
Physical Surface("OBSTACLE") = {7, 8};
Physical Surface("WALL_Y") = {2, 4};
Physical Surface("WALL_Z") = {3, 5};
Physical Volume("FLUID") = {1};
