cl__1 = 0.8035679999999999;
cl__2 = 0.515867;
cl__3 = 3.307374;
cl__4 = 0.060646;
cl__5 = 0.107491;
Point(1) = {0.348095, -3.544667, 1, cl__1};
Point(2) = {0.348095, -3.544667, 0, cl__1};
Point(3) = {0.348095, 5.471242, 1, cl__2};
Point(4) = {0.348095, 5.471242, 0, cl__2};
Point(5) = {32.765078, -3.544667, 0, cl__3};
Point(6) = {32.765078, -3.544667, 1, cl__3};
Point(7) = {32.765078, 5.471242, 1, cl__3};
Point(8) = {9.161673, -0.8372660000000001, 1, cl__4};
Point(9) = {7.448539999999999, 3.874261, 1, cl__5};
Point(10) = {32.765078, 5.471242, 0, cl__3};
Point(11) = {9.161673, -0.8372660000000001, 0, cl__4};
Point(12) = {7.448539999999999, 3.874261, 0, cl__5};
Line(1) = {2, 1};
Line(2) = {1, 3};
Line(3) = {4, 3};
Line(4) = {2, 4};
Line(5) = {2, 5};
Line(6) = {5, 6};
Line(7) = {1, 6};
Line(8) = {3, 7};
Line(9) = {6, 7};
p10 = newp;
Point(p10 + 1) = {9.154206409479031, -0.7423939721593763, 1};
Point(p10 + 2) = {9.131990490154941, -0.6498580085063974, 1};
Point(p10 + 3) = {9.0955722716919, -0.5619366515754558, 1};
Point(p10 + 4) = {9.045848491493603, -0.4807948169684452, 1};
Point(p10 + 5) = {8.984043514052299, -0.4084304859477004, 1};
Point(p10 + 6) = {8.911679183031556, -0.3466255085063975, 1};
Point(p10 + 7) = {8.830537348424544, -0.2969017283081015, 1};
Point(p10 + 8) = {8.742615991493603, -0.2604835098450596, 1};
Point(p10 + 9) = {8.650080027840623, -0.2382675905209697, 1};
Point(p10 + 10) = {8.555208, -0.2308009999999999, 1};
Point(p10 + 11) = {8.460335972159376, -0.2382675905209698, 1};
Point(p10 + 12) = {8.367800008506398, -0.2604835098450595, 1};
Point(p10 + 13) = {8.279878651575457, -0.2969017283081014, 1};
Point(p10 + 14) = {8.198736816968445, -0.3466255085063975, 1};
Point(p10 + 15) = {8.126372485947702, -0.4084304859477004, 1};
Point(p10 + 16) = {8.064567508506398, -0.4807948169684452, 1};
Point(p10 + 17) = {8.014843728308103, -0.5619366515754556, 1};
Point(p10 + 18) = {7.97842550984506, -0.6498580085063974, 1};
Point(p10 + 19) = {7.95620959052097, -0.7423939721593763, 1};
Point(p10 + 20) = {7.948743, -0.8372659999999998, 1};
Point(p10 + 21) = {7.95620959052097, -0.9321380278406235, 1};
Point(p10 + 22) = {7.97842550984506, -1.024673991493603, 1};
Point(p10 + 23) = {8.014843728308101, -1.112595348424544, 1};
Point(p10 + 24) = {8.064567508506398, -1.193737183031555, 1};
Point(p10 + 25) = {8.126372485947702, -1.2661015140523, 1};
Point(p10 + 26) = {8.198736816968445, -1.327906491493602, 1};
Point(p10 + 27) = {8.279878651575457, -1.377630271691898, 1};
Point(p10 + 28) = {8.367800008506398, -1.41404849015494, 1};
Point(p10 + 29) = {8.460335972159376, -1.43626440947903, 1};
Point(p10 + 30) = {8.555208, -1.443731, 1};
Point(p10 + 31) = {8.650080027840623, -1.43626440947903, 1};
Point(p10 + 32) = {8.742615991493603, -1.41404849015494, 1};
Point(p10 + 33) = {8.830537348424544, -1.377630271691899, 1};
Point(p10 + 34) = {8.911679183031556, -1.327906491493603, 1};
Point(p10 + 35) = {8.984043514052299, -1.2661015140523, 1};
Point(p10 + 36) = {9.045848491493603, -1.193737183031555, 1};
Point(p10 + 37) = {9.095572271691898, -1.112595348424544, 1};
Point(p10 + 38) = {9.131990490154941, -1.024673991493602, 1};
Point(p10 + 39) = {9.154206409479031, -0.9321380278406237, 1};
Spline(10) = {8, p10 + 1, p10 + 2, p10 + 3, p10 + 4, p10 + 5, p10 + 6, p10 + 7, p10 + 8, p10 + 9, p10 + 10, p10 + 11, p10 + 12, p10 + 13, p10 + 14, p10 + 15, p10 + 16, p10 + 17, p10 + 18, p10 + 19, p10 + 20, p10 + 21, p10 + 22, p10 + 23, p10 + 24, p10 + 25, p10 + 26, p10 + 27, p10 + 28, p10 + 29, p10 + 30, p10 + 31, p10 + 32, p10 + 33, p10 + 34, p10 + 35, p10 + 36, p10 + 37, p10 + 38, p10 + 39, 8};
p11 = newp;
Point(p11 + 1) = {7.435306111124097, 4.042413501513, 1};
Point(p11 + 2) = {7.395930306761274, 4.206425530372591, 1};
Point(p11 + 3) = {7.331382149895746, 4.362258566103537, 1};
Point(p11 + 4) = {7.243251030372591, 4.506075482185945, 1};
Point(p11 + 5) = {7.133707028844888, 4.634335028844888, 1};
Point(p11 + 6) = {7.005447482185946, 4.743879030372592, 1};
Point(p11 + 7) = {6.861630566103537, 4.832010149895746, 1};
Point(p11 + 8) = {6.705797530372592, 4.896558306761275, 1};
Point(p11 + 9) = {6.541785501512999, 4.935934111124098, 1};
Point(p11 + 10) = {6.373633, 4.949168, 1};
Point(p11 + 11) = {6.205480498487001, 4.935934111124098, 1};
Point(p11 + 12) = {6.041468469627408, 4.896558306761275, 1};
Point(p11 + 13) = {5.885635433896462, 4.832010149895746, 1};
Point(p11 + 14) = {5.741818517814054, 4.743879030372592, 1};
Point(p11 + 15) = {5.613558971155111, 4.634335028844888, 1};
Point(p11 + 16) = {5.504014969627408, 4.506075482185945, 1};
Point(p11 + 17) = {5.415883850104254, 4.362258566103537, 1};
Point(p11 + 18) = {5.351335693238726, 4.206425530372591, 1};
Point(p11 + 19) = {5.311959888875903, 4.042413501513, 1};
Point(p11 + 20) = {5.298726, 3.874261, 1};
Point(p11 + 21) = {5.311959888875903, 3.706108498487001, 1};
Point(p11 + 22) = {5.351335693238726, 3.542096469627408, 1};
Point(p11 + 23) = {5.415883850104254, 3.386263433896464, 1};
Point(p11 + 24) = {5.504014969627408, 3.242446517814055, 1};
Point(p11 + 25) = {5.613558971155111, 3.114186971155112, 1};
Point(p11 + 26) = {5.741818517814054, 3.004642969627409, 1};
Point(p11 + 27) = {5.885635433896462, 2.916511850104254, 1};
Point(p11 + 28) = {6.041468469627408, 2.851963693238726, 1};
Point(p11 + 29) = {6.205480498487001, 2.812587888875902, 1};
Point(p11 + 30) = {6.373633, 2.799354, 1};
Point(p11 + 31) = {6.541785501512999, 2.812587888875902, 1};
Point(p11 + 32) = {6.705797530372592, 2.851963693238726, 1};
Point(p11 + 33) = {6.861630566103536, 2.916511850104254, 1};
Point(p11 + 34) = {7.005447482185945, 3.004642969627408, 1};
Point(p11 + 35) = {7.133707028844888, 3.114186971155112, 1};
Point(p11 + 36) = {7.243251030372591, 3.242446517814054, 1};
Point(p11 + 37) = {7.331382149895746, 3.386263433896463, 1};
Point(p11 + 38) = {7.395930306761274, 3.542096469627408, 1};
Point(p11 + 39) = {7.435306111124097, 3.706108498487001, 1};
Spline(11) = {9, p11 + 1, p11 + 2, p11 + 3, p11 + 4, p11 + 5, p11 + 6, p11 + 7, p11 + 8, p11 + 9, p11 + 10, p11 + 11, p11 + 12, p11 + 13, p11 + 14, p11 + 15, p11 + 16, p11 + 17, p11 + 18, p11 + 19, p11 + 20, p11 + 21, p11 + 22, p11 + 23, p11 + 24, p11 + 25, p11 + 26, p11 + 27, p11 + 28, p11 + 29, p11 + 30, p11 + 31, p11 + 32, p11 + 33, p11 + 34, p11 + 35, p11 + 36, p11 + 37, p11 + 38, p11 + 39, 9};
Line(12) = {4, 10};
Line(13) = {10, 7};
Line(14) = {5, 10};
p15 = newp;
Point(p15 + 1) = {9.154206409479031, -0.7423939721593763, 0};
Point(p15 + 2) = {9.131990490154941, -0.6498580085063974, 0};
Point(p15 + 3) = {9.0955722716919, -0.5619366515754558, 0};
Point(p15 + 4) = {9.045848491493603, -0.4807948169684452, 0};
Point(p15 + 5) = {8.984043514052299, -0.4084304859477004, 0};
Point(p15 + 6) = {8.911679183031556, -0.3466255085063975, 0};
Point(p15 + 7) = {8.830537348424544, -0.2969017283081015, 0};
Point(p15 + 8) = {8.742615991493603, -0.2604835098450596, 0};
Point(p15 + 9) = {8.650080027840623, -0.2382675905209697, 0};
Point(p15 + 10) = {8.555208, -0.2308009999999999, 0};
Point(p15 + 11) = {8.460335972159376, -0.2382675905209698, 0};
Point(p15 + 12) = {8.367800008506398, -0.2604835098450595, 0};
Point(p15 + 13) = {8.279878651575457, -0.2969017283081014, 0};
Point(p15 + 14) = {8.198736816968445, -0.3466255085063975, 0};
Point(p15 + 15) = {8.126372485947702, -0.4084304859477004, 0};
Point(p15 + 16) = {8.064567508506398, -0.4807948169684452, 0};
Point(p15 + 17) = {8.014843728308103, -0.5619366515754556, 0};
Point(p15 + 18) = {7.97842550984506, -0.6498580085063974, 0};
Point(p15 + 19) = {7.95620959052097, -0.7423939721593763, 0};
Point(p15 + 20) = {7.948743, -0.8372659999999998, 0};
Point(p15 + 21) = {7.95620959052097, -0.9321380278406235, 0};
Point(p15 + 22) = {7.97842550984506, -1.024673991493603, 0};
Point(p15 + 23) = {8.014843728308101, -1.112595348424544, 0};
Point(p15 + 24) = {8.064567508506398, -1.193737183031555, 0};
Point(p15 + 25) = {8.126372485947702, -1.2661015140523, 0};
Point(p15 + 26) = {8.198736816968445, -1.327906491493602, 0};
Point(p15 + 27) = {8.279878651575457, -1.377630271691898, 0};
Point(p15 + 28) = {8.367800008506398, -1.41404849015494, 0};
Point(p15 + 29) = {8.460335972159376, -1.43626440947903, 0};
Point(p15 + 30) = {8.555208, -1.443731, 0};
Point(p15 + 31) = {8.650080027840623, -1.43626440947903, 0};
Point(p15 + 32) = {8.742615991493603, -1.41404849015494, 0};
Point(p15 + 33) = {8.830537348424544, -1.377630271691899, 0};
Point(p15 + 34) = {8.911679183031556, -1.327906491493603, 0};
Point(p15 + 35) = {8.984043514052299, -1.2661015140523, 0};
Point(p15 + 36) = {9.045848491493603, -1.193737183031555, 0};
Point(p15 + 37) = {9.095572271691898, -1.112595348424544, 0};
Point(p15 + 38) = {9.131990490154941, -1.024673991493602, 0};
Point(p15 + 39) = {9.154206409479031, -0.9321380278406237, 0};
Spline(15) = {11, p15 + 1, p15 + 2, p15 + 3, p15 + 4, p15 + 5, p15 + 6, p15 + 7, p15 + 8, p15 + 9, p15 + 10, p15 + 11, p15 + 12, p15 + 13, p15 + 14, p15 + 15, p15 + 16, p15 + 17, p15 + 18, p15 + 19, p15 + 20, p15 + 21, p15 + 22, p15 + 23, p15 + 24, p15 + 25, p15 + 26, p15 + 27, p15 + 28, p15 + 29, p15 + 30, p15 + 31, p15 + 32, p15 + 33, p15 + 34, p15 + 35, p15 + 36, p15 + 37, p15 + 38, p15 + 39, 11};
p16 = newp;
Point(p16 + 1) = {7.435306111124097, 4.042413501513, 0};
Point(p16 + 2) = {7.395930306761274, 4.206425530372591, 0};
Point(p16 + 3) = {7.331382149895746, 4.362258566103537, 0};
Point(p16 + 4) = {7.243251030372591, 4.506075482185945, 0};
Point(p16 + 5) = {7.133707028844888, 4.634335028844888, 0};
Point(p16 + 6) = {7.005447482185946, 4.743879030372592, 0};
Point(p16 + 7) = {6.861630566103537, 4.832010149895746, 0};
Point(p16 + 8) = {6.705797530372592, 4.896558306761275, 0};
Point(p16 + 9) = {6.541785501512999, 4.935934111124098, 0};
Point(p16 + 10) = {6.373633, 4.949168, 0};
Point(p16 + 11) = {6.205480498487001, 4.935934111124098, 0};
Point(p16 + 12) = {6.041468469627408, 4.896558306761275, 0};
Point(p16 + 13) = {5.885635433896462, 4.832010149895746, 0};
Point(p16 + 14) = {5.741818517814054, 4.743879030372592, 0};
Point(p16 + 15) = {5.613558971155111, 4.634335028844888, 0};
Point(p16 + 16) = {5.504014969627408, 4.506075482185945, 0};
Point(p16 + 17) = {5.415883850104254, 4.362258566103537, 0};
Point(p16 + 18) = {5.351335693238726, 4.206425530372591, 0};
Point(p16 + 19) = {5.311959888875903, 4.042413501513, 0};
Point(p16 + 20) = {5.298726, 3.874261, 0};
Point(p16 + 21) = {5.311959888875903, 3.706108498487001, 0};
Point(p16 + 22) = {5.351335693238726, 3.542096469627408, 0};
Point(p16 + 23) = {5.415883850104254, 3.386263433896464, 0};
Point(p16 + 24) = {5.504014969627408, 3.242446517814055, 0};
Point(p16 + 25) = {5.613558971155111, 3.114186971155112, 0};
Point(p16 + 26) = {5.741818517814054, 3.004642969627409, 0};
Point(p16 + 27) = {5.885635433896462, 2.916511850104254, 0};
Point(p16 + 28) = {6.041468469627408, 2.851963693238726, 0};
Point(p16 + 29) = {6.205480498487001, 2.812587888875902, 0};
Point(p16 + 30) = {6.373633, 2.799354, 0};
Point(p16 + 31) = {6.541785501512999, 2.812587888875902, 0};
Point(p16 + 32) = {6.705797530372592, 2.851963693238726, 0};
Point(p16 + 33) = {6.861630566103536, 2.916511850104254, 0};
Point(p16 + 34) = {7.005447482185945, 3.004642969627408, 0};
Point(p16 + 35) = {7.133707028844888, 3.114186971155112, 0};
Point(p16 + 36) = {7.243251030372591, 3.242446517814054, 0};
Point(p16 + 37) = {7.331382149895746, 3.386263433896463, 0};
Point(p16 + 38) = {7.395930306761274, 3.542096469627408, 0};
Point(p16 + 39) = {7.435306111124097, 3.706108498487001, 0};
Spline(16) = {12, p16 + 1, p16 + 2, p16 + 3, p16 + 4, p16 + 5, p16 + 6, p16 + 7, p16 + 8, p16 + 9, p16 + 10, p16 + 11, p16 + 12, p16 + 13, p16 + 14, p16 + 15, p16 + 16, p16 + 17, p16 + 18, p16 + 19, p16 + 20, p16 + 21, p16 + 22, p16 + 23, p16 + 24, p16 + 25, p16 + 26, p16 + 27, p16 + 28, p16 + 29, p16 + 30, p16 + 31, p16 + 32, p16 + 33, p16 + 34, p16 + 35, p16 + 36, p16 + 37, p16 + 38, p16 + 39, 12};
Line(17) = {11, 8};
Line(18) = {12, 9};
Curve Loop(1) = {-1, 4, 3, -2};
Plane Surface(1) = {1};
Curve Loop(2) = {-5, 1, 7, -6};
Plane Surface(2) = {2};
Curve Loop(3) = {-2, 7, 9, -8, -10, -11};
Plane Surface(3) = {3};
Curve Loop(4) = {-12, 3, 8, -13};
Plane Surface(4) = {4};
Curve Loop(5) = {-4, 5, 14, -12, -15, -16};
Plane Surface(5) = {5};
Curve Loop(6) = {-6, 14, 13, -9};
Plane Surface(6) = {6};
Curve Loop(7) = {-10, -17, 15, 17};
Surface(7) = {7};
Curve Loop(8) = {-11, -18, 16, 18};
Surface(8) = {8};
Surface Loop(1) = {1, 2, 3, 4, 5, 6, 7, 8};
Volume(1) = {1};
Physical Surface("INFLOW") = {1};
Physical Surface("OUTFLOW") = {6};
Physical Surface("OBSTACLE") = {7, 8};
Physical Surface("WALL_Y") = {2, 4};
Physical Surface("WALL_Z") = {3, 5};
Physical Volume("FLUID") = {1};
