cl__1 = 0.75214;
cl__2 = 3.928666;
cl__3 = 0.506453;
cl__4 = 0.133957;
cl__5 = 0.07381699999999999;
Point(1) = {0.772613, -4.50518, 1, cl__1};
Point(2) = {0.772613, -4.50518, 0, cl__1};
Point(3) = {0.772613, 4.896026, 1, cl__2};
Point(4) = {0.772613, 4.896026, 0, cl__2};
Point(5) = {39.004433, -4.50518, 0, cl__3};
Point(6) = {39.004433, -4.50518, 1, cl__3};
Point(7) = {39.004433, 4.896026, 1, cl__2};
Point(8) = {10.427519, -1.443802, 1, cl__4};
Point(9) = {4.792641, 0.2802919999999998, 1, cl__5};
Point(10) = {39.004433, 4.896026, 0, cl__2};
Point(11) = {10.427519, -1.443802, 0, cl__4};
Point(12) = {4.792641, 0.2802919999999998, 0, cl__5};
Line(1) = {2, 1};
Line(2) = {1, 3};
Line(3) = {4, 3};
Line(4) = {2, 4};
Line(5) = {2, 5};
Line(6) = {5, 6};
Line(7) = {1, 6};
Line(8) = {3, 7};
Line(9) = {6, 7};
p10 = newp;
Point(p10 + 1) = {10.41102662116439, -1.234246457928198, 1};
Point(p10 + 2) = {10.36195558175956, -1.029850868777174, 1};
Point(p10 + 3) = {10.28151417363311, -0.8356481303018964, 1};
Point(p10 + 4) = {10.17168313122282, -0.6564201584455626, 1};
Point(p10 + 5) = {10.03516685930119, -0.4965801406988118, 1};
Point(p10 + 6) = {9.875326841554436, -0.3600638687771742, 1};
Point(p10 + 7) = {9.696098869698103, -0.2502328263668914, 1};
Point(p10 + 8) = {9.501896131222825, -0.1697914182404361, 1};
Point(p10 + 9) = {9.297500542071802, -0.1207203788356088, 1};
Point(p10 + 10) = {9.087944999999999, -0.104228, 1};
Point(p10 + 11) = {8.878389457928197, -0.120720378835609, 1};
Point(p10 + 12) = {8.673993868777174, -0.1697914182404359, 1};
Point(p10 + 13) = {8.479791130301896, -0.2502328263668911, 1};
Point(p10 + 14) = {8.300563158445563, -0.3600638687771742, 1};
Point(p10 + 15) = {8.140723140698812, -0.4965801406988117, 1};
Point(p10 + 16) = {8.004206868777175, -0.6564201584455625, 1};
Point(p10 + 17) = {7.894375826366891, -0.8356481303018962, 1};
Point(p10 + 18) = {7.813934418240436, -1.029850868777174, 1};
Point(p10 + 19) = {7.764863378835608, -1.234246457928198, 1};
Point(p10 + 20) = {7.748371, -1.443802, 1};
Point(p10 + 21) = {7.764863378835608, -1.653357542071802, 1};
Point(p10 + 22) = {7.813934418240436, -1.857753131222826, 1};
Point(p10 + 23) = {7.894375826366891, -2.051955869698103, 1};
Point(p10 + 24) = {8.004206868777173, -2.231183841554437, 1};
Point(p10 + 25) = {8.14072314069881, -2.391023859301188, 1};
Point(p10 + 26) = {8.300563158445563, -2.527540131222826, 1};
Point(p10 + 27) = {8.479791130301896, -2.637371173633109, 1};
Point(p10 + 28) = {8.673993868777174, -2.717812581759564, 1};
Point(p10 + 29) = {8.878389457928197, -2.766883621164391, 1};
Point(p10 + 30) = {9.087944999999999, -2.783376, 1};
Point(p10 + 31) = {9.297500542071802, -2.766883621164391, 1};
Point(p10 + 32) = {9.501896131222825, -2.717812581759564, 1};
Point(p10 + 33) = {9.696098869698103, -2.637371173633109, 1};
Point(p10 + 34) = {9.875326841554436, -2.527540131222826, 1};
Point(p10 + 35) = {10.03516685930119, -2.391023859301189, 1};
Point(p10 + 36) = {10.17168313122282, -2.231183841554438, 1};
Point(p10 + 37) = {10.28151417363311, -2.051955869698104, 1};
Point(p10 + 38) = {10.36195558175956, -1.857753131222826, 1};
Point(p10 + 39) = {10.41102662116439, -1.653357542071803, 1};
Spline(10) = {8, p10 + 1, p10 + 2, p10 + 3, p10 + 4, p10 + 5, p10 + 6, p10 + 7, p10 + 8, p10 + 9, p10 + 10, p10 + 11, p10 + 12, p10 + 13, p10 + 14, p10 + 15, p10 + 16, p10 + 17, p10 + 18, p10 + 19, p10 + 20, p10 + 21, p10 + 22, p10 + 23, p10 + 24, p10 + 25, p10 + 26, p10 + 27, p10 + 28, p10 + 29, p10 + 30, p10 + 31, p10 + 32, p10 + 33, p10 + 34, p10 + 35, p10 + 36, p10 + 37, p10 + 38, p10 + 39, 8};
p11 = newp;
Point(p11 + 1) = {4.783552927000431, 0.3957669161898171, 1};
Point(p11 + 2) = {4.756512486520561, 0.5083984567037662, 1};
Point(p11 + 3) = {4.712185503947079, 0.6154132592117417, 1};
Point(p11 + 4) = {4.651663456703766, 0.7141762641142303, 1};
Point(p11 + 5) = {4.576436598454912, 0.8022555984549113, 1};
Point(p11 + 6) = {4.48835726411423, 0.8774824567037662, 1};
Point(p11 + 7) = {4.389594259211742, 0.9380045039470791, 1};
Point(p11 + 8) = {4.282579456703766, 0.9823314865205609, 1};
Point(p11 + 9) = {4.169947916189817, 1.009371927000432, 1};
Point(p11 + 10) = {4.054473, 1.01846, 1};
Point(p11 + 11) = {3.938998083810183, 1.009371927000432, 1};
Point(p11 + 12) = {3.826366543296233, 0.982331486520561, 1};
Point(p11 + 13) = {3.719351740788258, 0.9380045039470791, 1};
Point(p11 + 14) = {3.620588735885769, 0.8774824567037662, 1};
Point(p11 + 15) = {3.532509401545088, 0.8022555984549115, 1};
Point(p11 + 16) = {3.457282543296234, 0.7141762641142304, 1};
Point(p11 + 17) = {3.396760496052921, 0.6154132592117418, 1};
Point(p11 + 18) = {3.352433513479439, 0.5083984567037663, 1};
Point(p11 + 19) = {3.325393072999568, 0.3957669161898172, 1};
Point(p11 + 20) = {3.316305, 0.2802920000000001, 1};
Point(p11 + 21) = {3.325393072999568, 0.164817083810183, 1};
Point(p11 + 22) = {3.352433513479439, 0.05218554329623357, 1};
Point(p11 + 23) = {3.396760496052921, -0.05482925921174142, 1};
Point(p11 + 24) = {3.457282543296234, -0.1535922641142303, 1};
Point(p11 + 25) = {3.532509401545088, -0.2416715984549114, 1};
Point(p11 + 26) = {3.620588735885769, -0.3168984567037662, 1};
Point(p11 + 27) = {3.719351740788258, -0.3774205039470792, 1};
Point(p11 + 28) = {3.826366543296233, -0.4217474865205609, 1};
Point(p11 + 29) = {3.938998083810183, -0.4487879270004317, 1};
Point(p11 + 30) = {4.054473, -0.4578760000000001, 1};
Point(p11 + 31) = {4.169947916189817, -0.4487879270004317, 1};
Point(p11 + 32) = {4.282579456703766, -0.421747486520561, 1};
Point(p11 + 33) = {4.389594259211742, -0.3774205039470792, 1};
Point(p11 + 34) = {4.48835726411423, -0.3168984567037664, 1};
Point(p11 + 35) = {4.576436598454912, -0.2416715984549116, 1};
Point(p11 + 36) = {4.651663456703766, -0.1535922641142305, 1};
Point(p11 + 37) = {4.712185503947079, -0.05482925921174192, 1};
Point(p11 + 38) = {4.756512486520561, 0.05218554329623365, 1};
Point(p11 + 39) = {4.783552927000431, 0.1648170838101827, 1};
Spline(11) = {9, p11 + 1, p11 + 2, p11 + 3, p11 + 4, p11 + 5, p11 + 6, p11 + 7, p11 + 8, p11 + 9, p11 + 10, p11 + 11, p11 + 12, p11 + 13, p11 + 14, p11 + 15, p11 + 16, p11 + 17, p11 + 18, p11 + 19, p11 + 20, p11 + 21, p11 + 22, p11 + 23, p11 + 24, p11 + 25, p11 + 26, p11 + 27, p11 + 28, p11 + 29, p11 + 30, p11 + 31, p11 + 32, p11 + 33, p11 + 34, p11 + 35, p11 + 36, p11 + 37, p11 + 38, p11 + 39, 9};
Line(12) = {4, 10};
Line(13) = {10, 7};
Line(14) = {5, 10};
p15 = newp;
Point(p15 + 1) = {10.41102662116439, -1.234246457928198, 0};
Point(p15 + 2) = {10.36195558175956, -1.029850868777174, 0};
Point(p15 + 3) = {10.28151417363311, -0.8356481303018964, 0};
Point(p15 + 4) = {10.17168313122282, -0.6564201584455626, 0};
Point(p15 + 5) = {10.03516685930119, -0.4965801406988118, 0};
Point(p15 + 6) = {9.875326841554436, -0.3600638687771742, 0};
Point(p15 + 7) = {9.696098869698103, -0.2502328263668914, 0};
Point(p15 + 8) = {9.501896131222825, -0.1697914182404361, 0};
Point(p15 + 9) = {9.297500542071802, -0.1207203788356088, 0};
Point(p15 + 10) = {9.087944999999999, -0.104228, 0};
Point(p15 + 11) = {8.878389457928197, -0.120720378835609, 0};
Point(p15 + 12) = {8.673993868777174, -0.1697914182404359, 0};
Point(p15 + 13) = {8.479791130301896, -0.2502328263668911, 0};
Point(p15 + 14) = {8.300563158445563, -0.3600638687771742, 0};
Point(p15 + 15) = {8.140723140698812, -0.4965801406988117, 0};
Point(p15 + 16) = {8.004206868777175, -0.6564201584455625, 0};
Point(p15 + 17) = {7.894375826366891, -0.8356481303018962, 0};
Point(p15 + 18) = {7.813934418240436, -1.029850868777174, 0};
Point(p15 + 19) = {7.764863378835608, -1.234246457928198, 0};
Point(p15 + 20) = {7.748371, -1.443802, 0};
Point(p15 + 21) = {7.764863378835608, -1.653357542071802, 0};
Point(p15 + 22) = {7.813934418240436, -1.857753131222826, 0};
Point(p15 + 23) = {7.894375826366891, -2.051955869698103, 0};
Point(p15 + 24) = {8.004206868777173, -2.231183841554437, 0};
Point(p15 + 25) = {8.14072314069881, -2.391023859301188, 0};
Point(p15 + 26) = {8.300563158445563, -2.527540131222826, 0};
Point(p15 + 27) = {8.479791130301896, -2.637371173633109, 0};
Point(p15 + 28) = {8.673993868777174, -2.717812581759564, 0};
Point(p15 + 29) = {8.878389457928197, -2.766883621164391, 0};
Point(p15 + 30) = {9.087944999999999, -2.783376, 0};
Point(p15 + 31) = {9.297500542071802, -2.766883621164391, 0};
Point(p15 + 32) = {9.501896131222825, -2.717812581759564, 0};
Point(p15 + 33) = {9.696098869698103, -2.637371173633109, 0};
Point(p15 + 34) = {9.875326841554436, -2.527540131222826, 0};
Point(p15 + 35) = {10.03516685930119, -2.391023859301189, 0};
Point(p15 + 36) = {10.17168313122282, -2.231183841554438, 0};
Point(p15 + 37) = {10.28151417363311, -2.051955869698104, 0};
Point(p15 + 38) = {10.36195558175956, -1.857753131222826, 0};
Point(p15 + 39) = {10.41102662116439, -1.653357542071803, 0};
Spline(15) = {11, p15 + 1, p15 + 2, p15 + 3, p15 + 4, p15 + 5, p15 + 6, p15 + 7, p15 + 8, p15 + 9, p15 + 10, p15 + 11, p15 + 12, p15 + 13, p15 + 14, p15 + 15, p15 + 16, p15 + 17, p15 + 18, p15 + 19, p15 + 20, p15 + 21, p15 + 22, p15 + 23, p15 + 24, p15 + 25, p15 + 26, p15 + 27, p15 + 28, p15 + 29, p15 + 30, p15 + 31, p15 + 32, p15 + 33, p15 + 34, p15 + 35, p15 + 36, p15 + 37, p15 + 38, p15 + 39, 11};
p16 = newp;
Point(p16 + 1) = {4.783552927000431, 0.3957669161898171, 0};
Point(p16 + 2) = {4.756512486520561, 0.5083984567037662, 0};
Point(p16 + 3) = {4.712185503947079, 0.6154132592117417, 0};
Point(p16 + 4) = {4.651663456703766, 0.7141762641142303, 0};
Point(p16 + 5) = {4.576436598454912, 0.8022555984549113, 0};
Point(p16 + 6) = {4.48835726411423, 0.8774824567037662, 0};
Point(p16 + 7) = {4.389594259211742, 0.9380045039470791, 0};
Point(p16 + 8) = {4.282579456703766, 0.9823314865205609, 0};
Point(p16 + 9) = {4.169947916189817, 1.009371927000432, 0};
Point(p16 + 10) = {4.054473, 1.01846, 0};
Point(p16 + 11) = {3.938998083810183, 1.009371927000432, 0};
Point(p16 + 12) = {3.826366543296233, 0.982331486520561, 0};
Point(p16 + 13) = {3.719351740788258, 0.9380045039470791, 0};
Point(p16 + 14) = {3.620588735885769, 0.8774824567037662, 0};
Point(p16 + 15) = {3.532509401545088, 0.8022555984549115, 0};
Point(p16 + 16) = {3.457282543296234, 0.7141762641142304, 0};
Point(p16 + 17) = {3.396760496052921, 0.6154132592117418, 0};
Point(p16 + 18) = {3.352433513479439, 0.5083984567037663, 0};
Point(p16 + 19) = {3.325393072999568, 0.3957669161898172, 0};
Point(p16 + 20) = {3.316305, 0.2802920000000001, 0};
Point(p16 + 21) = {3.325393072999568, 0.164817083810183, 0};
Point(p16 + 22) = {3.352433513479439, 0.05218554329623357, 0};
Point(p16 + 23) = {3.396760496052921, -0.05482925921174142, 0};
Point(p16 + 24) = {3.457282543296234, -0.1535922641142303, 0};
Point(p16 + 25) = {3.532509401545088, -0.2416715984549114, 0};
Point(p16 + 26) = {3.620588735885769, -0.3168984567037662, 0};
Point(p16 + 27) = {3.719351740788258, -0.3774205039470792, 0};
Point(p16 + 28) = {3.826366543296233, -0.4217474865205609, 0};
Point(p16 + 29) = {3.938998083810183, -0.4487879270004317, 0};
Point(p16 + 30) = {4.054473, -0.4578760000000001, 0};
Point(p16 + 31) = {4.169947916189817, -0.4487879270004317, 0};
Point(p16 + 32) = {4.282579456703766, -0.421747486520561, 0};
Point(p16 + 33) = {4.389594259211742, -0.3774205039470792, 0};
Point(p16 + 34) = {4.48835726411423, -0.3168984567037664, 0};
Point(p16 + 35) = {4.576436598454912, -0.2416715984549116, 0};
Point(p16 + 36) = {4.651663456703766, -0.1535922641142305, 0};
Point(p16 + 37) = {4.712185503947079, -0.05482925921174192, 0};
Point(p16 + 38) = {4.756512486520561, 0.05218554329623365, 0};
Point(p16 + 39) = {4.783552927000431, 0.1648170838101827, 0};
Spline(16) = {12, p16 + 1, p16 + 2, p16 + 3, p16 + 4, p16 + 5, p16 + 6, p16 + 7, p16 + 8, p16 + 9, p16 + 10, p16 + 11, p16 + 12, p16 + 13, p16 + 14, p16 + 15, p16 + 16, p16 + 17, p16 + 18, p16 + 19, p16 + 20, p16 + 21, p16 + 22, p16 + 23, p16 + 24, p16 + 25, p16 + 26, p16 + 27, p16 + 28, p16 + 29, p16 + 30, p16 + 31, p16 + 32, p16 + 33, p16 + 34, p16 + 35, p16 + 36, p16 + 37, p16 + 38, p16 + 39, 12};
Line(17) = {11, 8};
Line(18) = {12, 9};
Curve Loop(1) = {-1, 4, 3, -2};
Plane Surface(1) = {1};
Curve Loop(2) = {-5, 1, 7, -6};
Plane Surface(2) = {2};
Curve Loop(3) = {-2, 7, 9, -8, -10, -11};
Plane Surface(3) = {3};
Curve Loop(4) = {-12, 3, 8, -13};
Plane Surface(4) = {4};
Curve Loop(5) = {-4, 5, 14, -12, -15, -16};
Plane Surface(5) = {5};
Curve Loop(6) = {-6, 14, 13, -9};
Plane Surface(6) = {6};
Curve Loop(7) = {-10, -17, 15, 17};
Surface(7) = {7};
Curve Loop(8) = {-11, -18, 16, 18};
Surface(8) = {8};
Surface Loop(1) = {1, 2, 3, 4, 5, 6, 7, 8};
Volume(1) = {1};
Physical Surface("INFLOW") = {1};
Physical Surface("OUTFLOW") = {6};
Physical Surface("OBSTACLE") = {7, 8};
Physical Surface("WALL_Y") = {2, 4};
Physical Surface("WALL_Z") = {3, 5};
Physical Volume("FLUID") = {1};
