cl__1 = 1.715752;
cl__2 = 1.736323;
cl__3 = 1.587032;
cl__4 = 1.609133;
cl__5 = 0.122244;
Point(1) = {0.495329, -4.450706, 1, cl__1};
Point(2) = {0.495329, -4.450706, 0, cl__1};
Point(3) = {0.495329, 4.524744999999999, 1, cl__2};
Point(4) = {0.495329, 4.524744999999999, 0, cl__2};
Point(5) = {35.022912, -4.450706, 0, cl__3};
Point(6) = {35.022912, -4.450706, 1, cl__3};
Point(7) = {35.022912, 4.524744999999999, 1, cl__4};
Point(8) = {19.642782, -0.3865900000000003, 1, cl__5};
Point(9) = {35.022912, 4.524744999999999, 0, cl__4};
Point(10) = {19.642782, -0.3865900000000003, 0, cl__5};
Line(1) = {2, 1};
Line(2) = {1, 3};
Line(3) = {4, 3};
Line(4) = {2, 4};
Line(5) = {2, 5};
Line(6) = {5, 6};
Line(7) = {1, 6};
Line(8) = {3, 7};
Line(9) = {6, 7};
p10 = newp;
Point(p10 + 1) = {19.62773168583048, -0.19535762681836, 1};
Point(p10 + 2) = {19.58295133200591, -0.008834029328311788, 1};
Point(p10 + 3) = {19.50954357945493, 0.1683879624636105, 1};
Point(p10 + 4) = {19.40931597067169, 0.3319445549534201, 1};
Point(p10 + 5) = {19.28473644202081, 0.4778084420208079, 1};
Point(p10 + 6) = {19.13887255495342, 0.6023879706716884, 1};
Point(p10 + 7) = {18.97531596246361, 0.7026155794549251, 1};
Point(p10 + 8) = {18.79809397067169, 0.7760233320059127, 1};
Point(p10 + 9) = {18.61157037318164, 0.8208036858304828, 1};
Point(p10 + 10) = {18.420338, 0.8358540000000001, 1};
Point(p10 + 11) = {18.22910562681836, 0.8208036858304826, 1};
Point(p10 + 12) = {18.04258202932831, 0.7760233320059129, 1};
Point(p10 + 13) = {17.86536003753639, 0.7026155794549254, 1};
Point(p10 + 14) = {17.70180344504658, 0.6023879706716884, 1};
Point(p10 + 15) = {17.55593955797919, 0.4778084420208081, 1};
Point(p10 + 16) = {17.43136002932831, 0.3319445549534202, 1};
Point(p10 + 17) = {17.33113242054507, 0.1683879624636107, 1};
Point(p10 + 18) = {17.25772466799409, -0.008834029328311621, 1};
Point(p10 + 19) = {17.21294431416952, -0.1953576268183599, 1};
Point(p10 + 20) = {17.197894, -0.3865899999999998, 1};
Point(p10 + 21) = {17.21294431416952, -0.5778223731816399, 1};
Point(p10 + 22) = {17.25772466799409, -0.7643459706716886, 1};
Point(p10 + 23) = {17.33113242054507, -0.9415679624636099, 1};
Point(p10 + 24) = {17.43136002932831, -1.10512455495342, 1};
Point(p10 + 25) = {17.55593955797919, -1.250988442020808, 1};
Point(p10 + 26) = {17.70180344504658, -1.375567970671688, 1};
Point(p10 + 27) = {17.86536003753639, -1.475795579454925, 1};
Point(p10 + 28) = {18.04258202932831, -1.549203332005913, 1};
Point(p10 + 29) = {18.22910562681836, -1.593983685830483, 1};
Point(p10 + 30) = {18.420338, -1.609034, 1};
Point(p10 + 31) = {18.61157037318164, -1.593983685830483, 1};
Point(p10 + 32) = {18.79809397067169, -1.549203332005913, 1};
Point(p10 + 33) = {18.97531596246361, -1.475795579454925, 1};
Point(p10 + 34) = {19.13887255495342, -1.375567970671689, 1};
Point(p10 + 35) = {19.28473644202081, -1.250988442020808, 1};
Point(p10 + 36) = {19.40931597067169, -1.10512455495342, 1};
Point(p10 + 37) = {19.50954357945493, -0.9415679624636107, 1};
Point(p10 + 38) = {19.58295133200591, -0.7643459706716884, 1};
Point(p10 + 39) = {19.62773168583048, -0.5778223731816403, 1};
Spline(10) = {8, p10 + 1, p10 + 2, p10 + 3, p10 + 4, p10 + 5, p10 + 6, p10 + 7, p10 + 8, p10 + 9, p10 + 10, p10 + 11, p10 + 12, p10 + 13, p10 + 14, p10 + 15, p10 + 16, p10 + 17, p10 + 18, p10 + 19, p10 + 20, p10 + 21, p10 + 22, p10 + 23, p10 + 24, p10 + 25, p10 + 26, p10 + 27, p10 + 28, p10 + 29, p10 + 30, p10 + 31, p10 + 32, p10 + 33, p10 + 34, p10 + 35, p10 + 36, p10 + 37, p10 + 38, p10 + 39, 8};
Line(11) = {4, 9};
Line(12) = {9, 7};
Line(13) = {5, 9};
p14 = newp;
Point(p14 + 1) = {19.62773168583048, -0.19535762681836, 0};
Point(p14 + 2) = {19.58295133200591, -0.008834029328311788, 0};
Point(p14 + 3) = {19.50954357945493, 0.1683879624636105, 0};
Point(p14 + 4) = {19.40931597067169, 0.3319445549534201, 0};
Point(p14 + 5) = {19.28473644202081, 0.4778084420208079, 0};
Point(p14 + 6) = {19.13887255495342, 0.6023879706716884, 0};
Point(p14 + 7) = {18.97531596246361, 0.7026155794549251, 0};
Point(p14 + 8) = {18.79809397067169, 0.7760233320059127, 0};
Point(p14 + 9) = {18.61157037318164, 0.8208036858304828, 0};
Point(p14 + 10) = {18.420338, 0.8358540000000001, 0};
Point(p14 + 11) = {18.22910562681836, 0.8208036858304826, 0};
Point(p14 + 12) = {18.04258202932831, 0.7760233320059129, 0};
Point(p14 + 13) = {17.86536003753639, 0.7026155794549254, 0};
Point(p14 + 14) = {17.70180344504658, 0.6023879706716884, 0};
Point(p14 + 15) = {17.55593955797919, 0.4778084420208081, 0};
Point(p14 + 16) = {17.43136002932831, 0.3319445549534202, 0};
Point(p14 + 17) = {17.33113242054507, 0.1683879624636107, 0};
Point(p14 + 18) = {17.25772466799409, -0.008834029328311621, 0};
Point(p14 + 19) = {17.21294431416952, -0.1953576268183599, 0};
Point(p14 + 20) = {17.197894, -0.3865899999999998, 0};
Point(p14 + 21) = {17.21294431416952, -0.5778223731816399, 0};
Point(p14 + 22) = {17.25772466799409, -0.7643459706716886, 0};
Point(p14 + 23) = {17.33113242054507, -0.9415679624636099, 0};
Point(p14 + 24) = {17.43136002932831, -1.10512455495342, 0};
Point(p14 + 25) = {17.55593955797919, -1.250988442020808, 0};
Point(p14 + 26) = {17.70180344504658, -1.375567970671688, 0};
Point(p14 + 27) = {17.86536003753639, -1.475795579454925, 0};
Point(p14 + 28) = {18.04258202932831, -1.549203332005913, 0};
Point(p14 + 29) = {18.22910562681836, -1.593983685830483, 0};
Point(p14 + 30) = {18.420338, -1.609034, 0};
Point(p14 + 31) = {18.61157037318164, -1.593983685830483, 0};
Point(p14 + 32) = {18.79809397067169, -1.549203332005913, 0};
Point(p14 + 33) = {18.97531596246361, -1.475795579454925, 0};
Point(p14 + 34) = {19.13887255495342, -1.375567970671689, 0};
Point(p14 + 35) = {19.28473644202081, -1.250988442020808, 0};
Point(p14 + 36) = {19.40931597067169, -1.10512455495342, 0};
Point(p14 + 37) = {19.50954357945493, -0.9415679624636107, 0};
Point(p14 + 38) = {19.58295133200591, -0.7643459706716884, 0};
Point(p14 + 39) = {19.62773168583048, -0.5778223731816403, 0};
Spline(14) = {10, p14 + 1, p14 + 2, p14 + 3, p14 + 4, p14 + 5, p14 + 6, p14 + 7, p14 + 8, p14 + 9, p14 + 10, p14 + 11, p14 + 12, p14 + 13, p14 + 14, p14 + 15, p14 + 16, p14 + 17, p14 + 18, p14 + 19, p14 + 20, p14 + 21, p14 + 22, p14 + 23, p14 + 24, p14 + 25, p14 + 26, p14 + 27, p14 + 28, p14 + 29, p14 + 30, p14 + 31, p14 + 32, p14 + 33, p14 + 34, p14 + 35, p14 + 36, p14 + 37, p14 + 38, p14 + 39, 10};
Line(15) = {10, 8};
Curve Loop(1) = {-1, 4, 3, -2};
Plane Surface(1) = {1};
Curve Loop(2) = {-5, 1, 7, -6};
Plane Surface(2) = {2};
Curve Loop(3) = {-2, 7, 9, -8, -10};
Plane Surface(3) = {3};
Curve Loop(4) = {-11, 3, 8, -12};
Plane Surface(4) = {4};
Curve Loop(5) = {-4, 5, 13, -11, -14};
Plane Surface(5) = {5};
Curve Loop(6) = {-6, 13, 12, -9};
Plane Surface(6) = {6};
Curve Loop(7) = {-10, -15, 14, 15};
Surface(7) = {7};
Surface Loop(1) = {1, 2, 3, 4, 5, 6, 7};
Volume(1) = {1};
Physical Surface("INFLOW") = {1};
Physical Surface("OUTFLOW") = {6};
Physical Surface("OBSTACLE") = {7};
Physical Surface("WALL_Y") = {2, 4};
Physical Surface("WALL_Z") = {3, 5};
Physical Volume("FLUID") = {1};
