cl__1 = 0.792028;
cl__2 = 0.85078;
cl__3 = 3.427233;
cl__4 = 0.054859;
cl__5 = 0.09744;
Point(1) = {0.948084, -3.117317, 1, cl__1};
Point(2) = {0.948084, -3.117317, 0, cl__1};
Point(3) = {0.948084, 4.953729000000001, 1, cl__2};
Point(4) = {0.948084, 4.953729000000001, 0, cl__2};
Point(5) = {34.033916, -3.117317, 0, cl__3};
Point(6) = {34.033916, -3.117317, 1, cl__3};
Point(7) = {34.033916, 4.953729000000001, 1, cl__3};
Point(8) = {9.254094, 0.2803349999999998, 1, cl__4};
Point(9) = {13.915921, 0.3816179999999998, 1, cl__5};
Point(10) = {34.033916, 4.953729000000001, 0, cl__3};
Point(11) = {9.254094, 0.2803349999999998, 0, cl__4};
Point(12) = {13.915921, 0.3816179999999998, 0, cl__5};
Line(1) = {2, 1};
Line(2) = {1, 3};
Line(3) = {4, 3};
Line(4) = {2, 4};
Line(5) = {2, 5};
Line(6) = {5, 6};
Line(7) = {1, 6};
Line(8) = {3, 7};
Line(9) = {6, 7};
p10 = newp;
Point(p10 + 1) = {9.247339983702066, 0.3661529138730251, 1};
Point(p10 + 2) = {9.22724424110481, 0.4498577058931693, 1};
Point(p10 + 3) = {9.194301596084925, 0.5293882862806187, 1};
Point(p10 + 4) = {9.14932320589317, 0.6027863481993709, 1};
Point(p10 + 5) = {9.093416587770786, 0.6682445877707845, 1};
Point(p10 + 6) = {9.027958348199371, 0.7241512058931694, 1};
Point(p10 + 7) = {8.95456028628062, 0.7691295960849241, 1};
Point(p10 + 8) = {8.875029705893169, 0.8020722411048095, 1};
Point(p10 + 9) = {8.791324913873027, 0.8221679837020649, 1};
Point(p10 + 10) = {8.705507000000001, 0.828922, 1};
Point(p10 + 11) = {8.619689086126975, 0.8221679837020648, 1};
Point(p10 + 12) = {8.535984294106832, 0.8020722411048095, 1};
Point(p10 + 13) = {8.456453713719382, 0.7691295960849243, 1};
Point(p10 + 14) = {8.38305565180063, 0.7241512058931694, 1};
Point(p10 + 15) = {8.317597412229215, 0.6682445877707845, 1};
Point(p10 + 16) = {8.261690794106832, 0.602786348199371, 1};
Point(p10 + 17) = {8.216712403915077, 0.5293882862806188, 1};
Point(p10 + 18) = {8.183769758895192, 0.4498577058931693, 1};
Point(p10 + 19) = {8.163674016297936, 0.3661529138730252, 1};
Point(p10 + 20) = {8.156920000000001, 0.2803350000000001, 1};
Point(p10 + 21) = {8.163674016297936, 0.1945170861269749, 1};
Point(p10 + 22) = {8.183769758895192, 0.1108122941068306, 1};
Point(p10 + 23) = {8.216712403915077, 0.03128171371938152, 1};
Point(p10 + 24) = {8.261690794106832, -0.04211634819937093, 1};
Point(p10 + 25) = {8.317597412229215, -0.1075745877707845, 1};
Point(p10 + 26) = {8.38305565180063, -0.1634812058931693, 1};
Point(p10 + 27) = {8.456453713719382, -0.2084595960849241, 1};
Point(p10 + 28) = {8.535984294106832, -0.2414022411048095, 1};
Point(p10 + 29) = {8.619689086126975, -0.2614979837020648, 1};
Point(p10 + 30) = {8.705507000000001, -0.268252, 1};
Point(p10 + 31) = {8.791324913873027, -0.2614979837020649, 1};
Point(p10 + 32) = {8.875029705893169, -0.2414022411048095, 1};
Point(p10 + 33) = {8.95456028628062, -0.2084595960849242, 1};
Point(p10 + 34) = {9.027958348199371, -0.1634812058931694, 1};
Point(p10 + 35) = {9.093416587770784, -0.1075745877707847, 1};
Point(p10 + 36) = {9.14932320589317, -0.0421163481993711, 1};
Point(p10 + 37) = {9.194301596084925, 0.03128171371938113, 1};
Point(p10 + 38) = {9.22724424110481, 0.1108122941068306, 1};
Point(p10 + 39) = {9.247339983702066, 0.1945170861269747, 1};
Spline(10) = {8, p10 + 1, p10 + 2, p10 + 3, p10 + 4, p10 + 5, p10 + 6, p10 + 7, p10 + 8, p10 + 9, p10 + 10, p10 + 11, p10 + 12, p10 + 13, p10 + 14, p10 + 15, p10 + 16, p10 + 17, p10 + 18, p10 + 19, p10 + 20, p10 + 21, p10 + 22, p10 + 23, p10 + 24, p10 + 25, p10 + 26, p10 + 27, p10 + 28, p10 + 29, p10 + 30, p10 + 31, p10 + 32, p10 + 33, p10 + 34, p10 + 35, p10 + 36, p10 + 37, p10 + 38, p10 + 39, 8};
p11 = newp;
Point(p11 + 1) = {13.90392456832254, 0.5340471169973409, 1};
Point(p11 + 2) = {13.86823066525193, 0.6827229232509713, 1};
Point(p11 + 3) = {13.80971819314305, 0.8239845269842154, 1};
Point(p11 + 4) = {13.72982792325097, 0.9543535986927767, 1};
Point(p11 + 5) = {13.63052701916105, 1.070620019161047, 1};
Point(p11 + 6) = {13.51426059869278, 1.169920923250971, 1};
Point(p11 + 7) = {13.38389152698422, 1.249811193143049, 1};
Point(p11 + 8) = {13.24262992325097, 1.308323665251932, 1};
Point(p11 + 9) = {13.09395411699734, 1.34401756832254, 1};
Point(p11 + 10) = {12.941525, 1.356014, 1};
Point(p11 + 11) = {12.78909588300266, 1.34401756832254, 1};
Point(p11 + 12) = {12.64042007674903, 1.308323665251933, 1};
Point(p11 + 13) = {12.49915847301578, 1.249811193143049, 1};
Point(p11 + 14) = {12.36878940130722, 1.169920923250971, 1};
Point(p11 + 15) = {12.25252298083895, 1.070620019161047, 1};
Point(p11 + 16) = {12.15322207674903, 0.9543535986927768, 1};
Point(p11 + 17) = {12.07333180685695, 0.8239845269842155, 1};
Point(p11 + 18) = {12.01481933474807, 0.6827229232509714, 1};
Point(p11 + 19) = {11.97912543167746, 0.5340471169973409, 1};
Point(p11 + 20) = {11.967129, 0.3816180000000001, 1};
Point(p11 + 21) = {11.97912543167746, 0.2291888830026594, 1};
Point(p11 + 22) = {12.01481933474807, 0.08051307674902841, 1};
Point(p11 + 23) = {12.07333180685695, -0.0607485269842149, 1};
Point(p11 + 24) = {12.15322207674903, -0.1911175986927766, 1};
Point(p11 + 25) = {12.25252298083895, -0.3073840191610471, 1};
Point(p11 + 26) = {12.36878940130722, -0.4066849232509712, 1};
Point(p11 + 27) = {12.49915847301578, -0.4865751931430489, 1};
Point(p11 + 28) = {12.64042007674903, -0.5450876652519324, 1};
Point(p11 + 29) = {12.78909588300266, -0.5807815683225398, 1};
Point(p11 + 30) = {12.941525, -0.592778, 1};
Point(p11 + 31) = {13.09395411699734, -0.5807815683225399, 1};
Point(p11 + 32) = {13.24262992325097, -0.5450876652519325, 1};
Point(p11 + 33) = {13.38389152698422, -0.486575193143049, 1};
Point(p11 + 34) = {13.51426059869278, -0.4066849232509714, 1};
Point(p11 + 35) = {13.63052701916105, -0.3073840191610473, 1};
Point(p11 + 36) = {13.72982792325097, -0.1911175986927769, 1};
Point(p11 + 37) = {13.80971819314305, -0.06074852698421562, 1};
Point(p11 + 38) = {13.86823066525193, 0.08051307674902852, 1};
Point(p11 + 39) = {13.90392456832254, 0.229188883002659, 1};
Spline(11) = {9, p11 + 1, p11 + 2, p11 + 3, p11 + 4, p11 + 5, p11 + 6, p11 + 7, p11 + 8, p11 + 9, p11 + 10, p11 + 11, p11 + 12, p11 + 13, p11 + 14, p11 + 15, p11 + 16, p11 + 17, p11 + 18, p11 + 19, p11 + 20, p11 + 21, p11 + 22, p11 + 23, p11 + 24, p11 + 25, p11 + 26, p11 + 27, p11 + 28, p11 + 29, p11 + 30, p11 + 31, p11 + 32, p11 + 33, p11 + 34, p11 + 35, p11 + 36, p11 + 37, p11 + 38, p11 + 39, 9};
Line(12) = {4, 10};
Line(13) = {10, 7};
Line(14) = {5, 10};
p15 = newp;
Point(p15 + 1) = {9.247339983702066, 0.3661529138730251, 0};
Point(p15 + 2) = {9.22724424110481, 0.4498577058931693, 0};
Point(p15 + 3) = {9.194301596084925, 0.5293882862806187, 0};
Point(p15 + 4) = {9.14932320589317, 0.6027863481993709, 0};
Point(p15 + 5) = {9.093416587770786, 0.6682445877707845, 0};
Point(p15 + 6) = {9.027958348199371, 0.7241512058931694, 0};
Point(p15 + 7) = {8.95456028628062, 0.7691295960849241, 0};
Point(p15 + 8) = {8.875029705893169, 0.8020722411048095, 0};
Point(p15 + 9) = {8.791324913873027, 0.8221679837020649, 0};
Point(p15 + 10) = {8.705507000000001, 0.828922, 0};
Point(p15 + 11) = {8.619689086126975, 0.8221679837020648, 0};
Point(p15 + 12) = {8.535984294106832, 0.8020722411048095, 0};
Point(p15 + 13) = {8.456453713719382, 0.7691295960849243, 0};
Point(p15 + 14) = {8.38305565180063, 0.7241512058931694, 0};
Point(p15 + 15) = {8.317597412229215, 0.6682445877707845, 0};
Point(p15 + 16) = {8.261690794106832, 0.602786348199371, 0};
Point(p15 + 17) = {8.216712403915077, 0.5293882862806188, 0};
Point(p15 + 18) = {8.183769758895192, 0.4498577058931693, 0};
Point(p15 + 19) = {8.163674016297936, 0.3661529138730252, 0};
Point(p15 + 20) = {8.156920000000001, 0.2803350000000001, 0};
Point(p15 + 21) = {8.163674016297936, 0.1945170861269749, 0};
Point(p15 + 22) = {8.183769758895192, 0.1108122941068306, 0};
Point(p15 + 23) = {8.216712403915077, 0.03128171371938152, 0};
Point(p15 + 24) = {8.261690794106832, -0.04211634819937093, 0};
Point(p15 + 25) = {8.317597412229215, -0.1075745877707845, 0};
Point(p15 + 26) = {8.38305565180063, -0.1634812058931693, 0};
Point(p15 + 27) = {8.456453713719382, -0.2084595960849241, 0};
Point(p15 + 28) = {8.535984294106832, -0.2414022411048095, 0};
Point(p15 + 29) = {8.619689086126975, -0.2614979837020648, 0};
Point(p15 + 30) = {8.705507000000001, -0.268252, 0};
Point(p15 + 31) = {8.791324913873027, -0.2614979837020649, 0};
Point(p15 + 32) = {8.875029705893169, -0.2414022411048095, 0};
Point(p15 + 33) = {8.95456028628062, -0.2084595960849242, 0};
Point(p15 + 34) = {9.027958348199371, -0.1634812058931694, 0};
Point(p15 + 35) = {9.093416587770784, -0.1075745877707847, 0};
Point(p15 + 36) = {9.14932320589317, -0.0421163481993711, 0};
Point(p15 + 37) = {9.194301596084925, 0.03128171371938113, 0};
Point(p15 + 38) = {9.22724424110481, 0.1108122941068306, 0};
Point(p15 + 39) = {9.247339983702066, 0.1945170861269747, 0};
Spline(15) = {11, p15 + 1, p15 + 2, p15 + 3, p15 + 4, p15 + 5, p15 + 6, p15 + 7, p15 + 8, p15 + 9, p15 + 10, p15 + 11, p15 + 12, p15 + 13, p15 + 14, p15 + 15, p15 + 16, p15 + 17, p15 + 18, p15 + 19, p15 + 20, p15 + 21, p15 + 22, p15 + 23, p15 + 24, p15 + 25, p15 + 26, p15 + 27, p15 + 28, p15 + 29, p15 + 30, p15 + 31, p15 + 32, p15 + 33, p15 + 34, p15 + 35, p15 + 36, p15 + 37, p15 + 38, p15 + 39, 11};
p16 = newp;
Point(p16 + 1) = {13.90392456832254, 0.5340471169973409, 0};
Point(p16 + 2) = {13.86823066525193, 0.6827229232509713, 0};
Point(p16 + 3) = {13.80971819314305, 0.8239845269842154, 0};
Point(p16 + 4) = {13.72982792325097, 0.9543535986927767, 0};
Point(p16 + 5) = {13.63052701916105, 1.070620019161047, 0};
Point(p16 + 6) = {13.51426059869278, 1.169920923250971, 0};
Point(p16 + 7) = {13.38389152698422, 1.249811193143049, 0};
Point(p16 + 8) = {13.24262992325097, 1.308323665251932, 0};
Point(p16 + 9) = {13.09395411699734, 1.34401756832254, 0};
Point(p16 + 10) = {12.941525, 1.356014, 0};
Point(p16 + 11) = {12.78909588300266, 1.34401756832254, 0};
Point(p16 + 12) = {12.64042007674903, 1.308323665251933, 0};
Point(p16 + 13) = {12.49915847301578, 1.249811193143049, 0};
Point(p16 + 14) = {12.36878940130722, 1.169920923250971, 0};
Point(p16 + 15) = {12.25252298083895, 1.070620019161047, 0};
Point(p16 + 16) = {12.15322207674903, 0.9543535986927768, 0};
Point(p16 + 17) = {12.07333180685695, 0.8239845269842155, 0};
Point(p16 + 18) = {12.01481933474807, 0.6827229232509714, 0};
Point(p16 + 19) = {11.97912543167746, 0.5340471169973409, 0};
Point(p16 + 20) = {11.967129, 0.3816180000000001, 0};
Point(p16 + 21) = {11.97912543167746, 0.2291888830026594, 0};
Point(p16 + 22) = {12.01481933474807, 0.08051307674902841, 0};
Point(p16 + 23) = {12.07333180685695, -0.0607485269842149, 0};
Point(p16 + 24) = {12.15322207674903, -0.1911175986927766, 0};
Point(p16 + 25) = {12.25252298083895, -0.3073840191610471, 0};
Point(p16 + 26) = {12.36878940130722, -0.4066849232509712, 0};
Point(p16 + 27) = {12.49915847301578, -0.4865751931430489, 0};
Point(p16 + 28) = {12.64042007674903, -0.5450876652519324, 0};
Point(p16 + 29) = {12.78909588300266, -0.5807815683225398, 0};
Point(p16 + 30) = {12.941525, -0.592778, 0};
Point(p16 + 31) = {13.09395411699734, -0.5807815683225399, 0};
Point(p16 + 32) = {13.24262992325097, -0.5450876652519325, 0};
Point(p16 + 33) = {13.38389152698422, -0.486575193143049, 0};
Point(p16 + 34) = {13.51426059869278, -0.4066849232509714, 0};
Point(p16 + 35) = {13.63052701916105, -0.3073840191610473, 0};
Point(p16 + 36) = {13.72982792325097, -0.1911175986927769, 0};
Point(p16 + 37) = {13.80971819314305, -0.06074852698421562, 0};
Point(p16 + 38) = {13.86823066525193, 0.08051307674902852, 0};
Point(p16 + 39) = {13.90392456832254, 0.229188883002659, 0};
Spline(16) = {12, p16 + 1, p16 + 2, p16 + 3, p16 + 4, p16 + 5, p16 + 6, p16 + 7, p16 + 8, p16 + 9, p16 + 10, p16 + 11, p16 + 12, p16 + 13, p16 + 14, p16 + 15, p16 + 16, p16 + 17, p16 + 18, p16 + 19, p16 + 20, p16 + 21, p16 + 22, p16 + 23, p16 + 24, p16 + 25, p16 + 26, p16 + 27, p16 + 28, p16 + 29, p16 + 30, p16 + 31, p16 + 32, p16 + 33, p16 + 34, p16 + 35, p16 + 36, p16 + 37, p16 + 38, p16 + 39, 12};
Line(17) = {11, 8};
Line(18) = {12, 9};
Curve Loop(1) = {-1, 4, 3, -2};
Plane Surface(1) = {1};
Curve Loop(2) = {-5, 1, 7, -6};
Plane Surface(2) = {2};
Curve Loop(3) = {-2, 7, 9, -8, -10, -11};
Plane Surface(3) = {3};
Curve Loop(4) = {-12, 3, 8, -13};
Plane Surface(4) = {4};
Curve Loop(5) = {-4, 5, 14, -12, -15, -16};
Plane Surface(5) = {5};
Curve Loop(6) = {-6, 14, 13, -9};
Plane Surface(6) = {6};
Curve Loop(7) = {-10, -17, 15, 17};
Surface(7) = {7};
Curve Loop(8) = {-11, -18, 16, 18};
Surface(8) = {8};
Surface Loop(1) = {1, 2, 3, 4, 5, 6, 7, 8};
Volume(1) = {1};
Physical Surface("INFLOW") = {1};
Physical Surface("OUTFLOW") = {6};
Physical Surface("OBSTACLE") = {7, 8};
Physical Surface("WALL_Y") = {2, 4};
Physical Surface("WALL_Z") = {3, 5};
Physical Volume("FLUID") = {1};
