cl__1 = 1;
cl__2 = 0.12849;
cl__3 = 0.100731;
Point(1) = {0.655401, -3.275738, 1, cl__1};
Point(2) = {0.655401, -3.275738, 0, cl__1};
Point(3) = {0.655401, 5.270676, 1, cl__1};
Point(4) = {0.655401, 5.270676, 0, cl__1};
Point(5) = {32.594263, -3.275738, 0, cl__1};
Point(6) = {32.594263, -3.275738, 1, cl__1};
Point(7) = {32.594263, 5.270676, 1, cl__1};
Point(8) = {8.532661000000001, 0.2960059999999997, 1, cl__2};
Point(9) = {30.554878, 1.468859, 1, cl__3};
Point(10) = {32.594263, 5.270676, 0, cl__1};
Point(11) = {8.532661000000001, 0.2960059999999997, 0, cl__2};
Point(12) = {30.554878, 1.468859, 0, cl__3};
Line(1) = {2, 1};
Line(2) = {1, 3};
Line(3) = {4, 3};
Line(4) = {2, 4};
Line(5) = {2, 5};
Line(6) = {5, 6};
Line(7) = {1, 6};
Line(8) = {3, 7};
Line(9) = {6, 7};
p10 = newp;
Point(p10 + 1) = {8.516841785765671, 0.4970081748267975, 1};
Point(p10 + 2) = {8.469773664618094, 0.6930610090213868, 1};
Point(p10 + 3) = {8.392615609910061, 0.8793370311438443, 1};
Point(p10 + 4) = {8.287267509021387, 1.051249507314842, 1};
Point(p10 + 5) = {8.156323381826251, 1.204565381826251, 1};
Point(p10 + 6) = {8.003007507314841, 1.335509509021387, 1};
Point(p10 + 7) = {7.831095031143844, 1.440857609910061, 1};
Point(p10 + 8) = {7.644819009021387, 1.518015664618094, 1};
Point(p10 + 9) = {7.448766174826797, 1.565083785765671, 1};
Point(p10 + 10) = {7.247764, 1.580903, 1};
Point(p10 + 11) = {7.046761825173203, 1.565083785765671, 1};
Point(p10 + 12) = {6.850708990978614, 1.518015664618094, 1};
Point(p10 + 13) = {6.664432968856156, 1.440857609910061, 1};
Point(p10 + 14) = {6.492520492685158, 1.335509509021387, 1};
Point(p10 + 15) = {6.339204618173749, 1.204565381826251, 1};
Point(p10 + 16) = {6.208260490978613, 1.051249507314842, 1};
Point(p10 + 17) = {6.102912390089939, 0.8793370311438445, 1};
Point(p10 + 18) = {6.025754335381906, 0.6930610090213869, 1};
Point(p10 + 19) = {5.97868621423433, 0.4970081748267977, 1};
Point(p10 + 20) = {5.962867, 0.2960060000000002, 1};
Point(p10 + 21) = {5.97868621423433, 0.09500382517320266, 1};
Point(p10 + 22) = {6.025754335381906, -0.1010490090213872, 1};
Point(p10 + 23) = {6.102912390089939, -0.2873250311438438, 1};
Point(p10 + 24) = {6.208260490978613, -0.4592375073148417, 1};
Point(p10 + 25) = {6.339204618173748, -0.6125533818262513, 1};
Point(p10 + 26) = {6.492520492685158, -0.7434975090213867, 1};
Point(p10 + 27) = {6.664432968856156, -0.8488456099100612, 1};
Point(p10 + 28) = {6.850708990978613, -0.9260036646180938, 1};
Point(p10 + 29) = {7.046761825173203, -0.9730717857656705, 1};
Point(p10 + 30) = {7.247764, -0.988891, 1};
Point(p10 + 31) = {7.448766174826797, -0.9730717857656708, 1};
Point(p10 + 32) = {7.644819009021386, -0.926003664618094, 1};
Point(p10 + 33) = {7.831095031143844, -0.8488456099100614, 1};
Point(p10 + 34) = {8.003007507314841, -0.7434975090213869, 1};
Point(p10 + 35) = {8.156323381826251, -0.6125533818262515, 1};
Point(p10 + 36) = {8.287267509021387, -0.4592375073148421, 1};
Point(p10 + 37) = {8.392615609910061, -0.2873250311438447, 1};
Point(p10 + 38) = {8.469773664618094, -0.1010490090213871, 1};
Point(p10 + 39) = {8.516841785765671, 0.09500382517320219, 1};
Spline(10) = {8, p10 + 1, p10 + 2, p10 + 3, p10 + 4, p10 + 5, p10 + 6, p10 + 7, p10 + 8, p10 + 9, p10 + 10, p10 + 11, p10 + 12, p10 + 13, p10 + 14, p10 + 15, p10 + 16, p10 + 17, p10 + 18, p10 + 19, p10 + 20, p10 + 21, p10 + 22, p10 + 23, p10 + 24, p10 + 25, p10 + 26, p10 + 27, p10 + 28, p10 + 29, p10 + 30, p10 + 31, p10 + 32, p10 + 33, p10 + 34, p10 + 35, p10 + 36, p10 + 37, p10 + 38, p10 + 39, 8};
p11 = newp;
Point(p11 + 1) = {30.54247628080659, 1.626437783152, 1};
Point(p11 + 2) = {30.50557649471185, 1.7801364536888, 1};
Point(p11 + 3) = {30.4450872369128, 1.926170440245141, 1};
Point(p11 + 4) = {30.3624979536888, 2.060943901412992, 1};
Point(p11 + 5) = {30.25984226729093, 2.181138267290927, 1};
Point(p11 + 6) = {30.13964790141299, 2.2837939536888, 1};
Point(p11 + 7) = {30.00487444024514, 2.366383236912806, 1};
Point(p11 + 8) = {29.8588404536888, 2.426872494711852, 1};
Point(p11 + 9) = {29.705141783152, 2.463772280806591, 1};
Point(p11 + 10) = {29.547563, 2.476174, 1};
Point(p11 + 11) = {29.389984216848, 2.463772280806591, 1};
Point(p11 + 12) = {29.2362855463112, 2.426872494711853, 1};
Point(p11 + 13) = {29.09025155975486, 2.366383236912806, 1};
Point(p11 + 14) = {28.95547809858701, 2.2837939536888, 1};
Point(p11 + 15) = {28.83528373270907, 2.181138267290927, 1};
Point(p11 + 16) = {28.7326280463112, 2.060943901412993, 1};
Point(p11 + 17) = {28.6500387630872, 1.926170440245142, 1};
Point(p11 + 18) = {28.58954950528815, 1.7801364536888, 1};
Point(p11 + 19) = {28.55264971919341, 1.626437783152, 1};
Point(p11 + 20) = {28.540248, 1.468859, 1};
Point(p11 + 21) = {28.55264971919341, 1.311280216848, 1};
Point(p11 + 22) = {28.58954950528815, 1.157581546311199, 1};
Point(p11 + 23) = {28.6500387630872, 1.011547559754859, 1};
Point(p11 + 24) = {28.7326280463112, 0.8767740985870075, 1};
Point(p11 + 25) = {28.83528373270907, 0.7565797327090729, 1};
Point(p11 + 26) = {28.95547809858701, 0.6539240463111998, 1};
Point(p11 + 27) = {29.09025155975486, 0.5713347630871942, 1};
Point(p11 + 28) = {29.2362855463112, 0.5108455052881474, 1};
Point(p11 + 29) = {29.389984216848, 0.4739457191934089, 1};
Point(p11 + 30) = {29.547563, 0.461544, 1};
Point(p11 + 31) = {29.705141783152, 0.4739457191934088, 1};
Point(p11 + 32) = {29.8588404536888, 0.5108455052881472, 1};
Point(p11 + 33) = {30.00487444024514, 0.5713347630871941, 1};
Point(p11 + 34) = {30.13964790141299, 0.6539240463111996, 1};
Point(p11 + 35) = {30.25984226729093, 0.7565797327090726, 1};
Point(p11 + 36) = {30.3624979536888, 0.8767740985870072, 1};
Point(p11 + 37) = {30.4450872369128, 1.011547559754858, 1};
Point(p11 + 38) = {30.50557649471185, 1.1575815463112, 1};
Point(p11 + 39) = {30.54247628080659, 1.311280216848, 1};
Spline(11) = {9, p11 + 1, p11 + 2, p11 + 3, p11 + 4, p11 + 5, p11 + 6, p11 + 7, p11 + 8, p11 + 9, p11 + 10, p11 + 11, p11 + 12, p11 + 13, p11 + 14, p11 + 15, p11 + 16, p11 + 17, p11 + 18, p11 + 19, p11 + 20, p11 + 21, p11 + 22, p11 + 23, p11 + 24, p11 + 25, p11 + 26, p11 + 27, p11 + 28, p11 + 29, p11 + 30, p11 + 31, p11 + 32, p11 + 33, p11 + 34, p11 + 35, p11 + 36, p11 + 37, p11 + 38, p11 + 39, 9};
Line(12) = {4, 10};
Line(13) = {10, 7};
Line(14) = {5, 10};
p15 = newp;
Point(p15 + 1) = {8.516841785765671, 0.4970081748267975, 0};
Point(p15 + 2) = {8.469773664618094, 0.6930610090213868, 0};
Point(p15 + 3) = {8.392615609910061, 0.8793370311438443, 0};
Point(p15 + 4) = {8.287267509021387, 1.051249507314842, 0};
Point(p15 + 5) = {8.156323381826251, 1.204565381826251, 0};
Point(p15 + 6) = {8.003007507314841, 1.335509509021387, 0};
Point(p15 + 7) = {7.831095031143844, 1.440857609910061, 0};
Point(p15 + 8) = {7.644819009021387, 1.518015664618094, 0};
Point(p15 + 9) = {7.448766174826797, 1.565083785765671, 0};
Point(p15 + 10) = {7.247764, 1.580903, 0};
Point(p15 + 11) = {7.046761825173203, 1.565083785765671, 0};
Point(p15 + 12) = {6.850708990978614, 1.518015664618094, 0};
Point(p15 + 13) = {6.664432968856156, 1.440857609910061, 0};
Point(p15 + 14) = {6.492520492685158, 1.335509509021387, 0};
Point(p15 + 15) = {6.339204618173749, 1.204565381826251, 0};
Point(p15 + 16) = {6.208260490978613, 1.051249507314842, 0};
Point(p15 + 17) = {6.102912390089939, 0.8793370311438445, 0};
Point(p15 + 18) = {6.025754335381906, 0.6930610090213869, 0};
Point(p15 + 19) = {5.97868621423433, 0.4970081748267977, 0};
Point(p15 + 20) = {5.962867, 0.2960060000000002, 0};
Point(p15 + 21) = {5.97868621423433, 0.09500382517320266, 0};
Point(p15 + 22) = {6.025754335381906, -0.1010490090213872, 0};
Point(p15 + 23) = {6.102912390089939, -0.2873250311438438, 0};
Point(p15 + 24) = {6.208260490978613, -0.4592375073148417, 0};
Point(p15 + 25) = {6.339204618173748, -0.6125533818262513, 0};
Point(p15 + 26) = {6.492520492685158, -0.7434975090213867, 0};
Point(p15 + 27) = {6.664432968856156, -0.8488456099100612, 0};
Point(p15 + 28) = {6.850708990978613, -0.9260036646180938, 0};
Point(p15 + 29) = {7.046761825173203, -0.9730717857656705, 0};
Point(p15 + 30) = {7.247764, -0.988891, 0};
Point(p15 + 31) = {7.448766174826797, -0.9730717857656708, 0};
Point(p15 + 32) = {7.644819009021386, -0.926003664618094, 0};
Point(p15 + 33) = {7.831095031143844, -0.8488456099100614, 0};
Point(p15 + 34) = {8.003007507314841, -0.7434975090213869, 0};
Point(p15 + 35) = {8.156323381826251, -0.6125533818262515, 0};
Point(p15 + 36) = {8.287267509021387, -0.4592375073148421, 0};
Point(p15 + 37) = {8.392615609910061, -0.2873250311438447, 0};
Point(p15 + 38) = {8.469773664618094, -0.1010490090213871, 0};
Point(p15 + 39) = {8.516841785765671, 0.09500382517320219, 0};
Spline(15) = {11, p15 + 1, p15 + 2, p15 + 3, p15 + 4, p15 + 5, p15 + 6, p15 + 7, p15 + 8, p15 + 9, p15 + 10, p15 + 11, p15 + 12, p15 + 13, p15 + 14, p15 + 15, p15 + 16, p15 + 17, p15 + 18, p15 + 19, p15 + 20, p15 + 21, p15 + 22, p15 + 23, p15 + 24, p15 + 25, p15 + 26, p15 + 27, p15 + 28, p15 + 29, p15 + 30, p15 + 31, p15 + 32, p15 + 33, p15 + 34, p15 + 35, p15 + 36, p15 + 37, p15 + 38, p15 + 39, 11};
p16 = newp;
Point(p16 + 1) = {30.54247628080659, 1.626437783152, 0};
Point(p16 + 2) = {30.50557649471185, 1.7801364536888, 0};
Point(p16 + 3) = {30.4450872369128, 1.926170440245141, 0};
Point(p16 + 4) = {30.3624979536888, 2.060943901412992, 0};
Point(p16 + 5) = {30.25984226729093, 2.181138267290927, 0};
Point(p16 + 6) = {30.13964790141299, 2.2837939536888, 0};
Point(p16 + 7) = {30.00487444024514, 2.366383236912806, 0};
Point(p16 + 8) = {29.8588404536888, 2.426872494711852, 0};
Point(p16 + 9) = {29.705141783152, 2.463772280806591, 0};
Point(p16 + 10) = {29.547563, 2.476174, 0};
Point(p16 + 11) = {29.389984216848, 2.463772280806591, 0};
Point(p16 + 12) = {29.2362855463112, 2.426872494711853, 0};
Point(p16 + 13) = {29.09025155975486, 2.366383236912806, 0};
Point(p16 + 14) = {28.95547809858701, 2.2837939536888, 0};
Point(p16 + 15) = {28.83528373270907, 2.181138267290927, 0};
Point(p16 + 16) = {28.7326280463112, 2.060943901412993, 0};
Point(p16 + 17) = {28.6500387630872, 1.926170440245142, 0};
Point(p16 + 18) = {28.58954950528815, 1.7801364536888, 0};
Point(p16 + 19) = {28.55264971919341, 1.626437783152, 0};
Point(p16 + 20) = {28.540248, 1.468859, 0};
Point(p16 + 21) = {28.55264971919341, 1.311280216848, 0};
Point(p16 + 22) = {28.58954950528815, 1.157581546311199, 0};
Point(p16 + 23) = {28.6500387630872, 1.011547559754859, 0};
Point(p16 + 24) = {28.7326280463112, 0.8767740985870075, 0};
Point(p16 + 25) = {28.83528373270907, 0.7565797327090729, 0};
Point(p16 + 26) = {28.95547809858701, 0.6539240463111998, 0};
Point(p16 + 27) = {29.09025155975486, 0.5713347630871942, 0};
Point(p16 + 28) = {29.2362855463112, 0.5108455052881474, 0};
Point(p16 + 29) = {29.389984216848, 0.4739457191934089, 0};
Point(p16 + 30) = {29.547563, 0.461544, 0};
Point(p16 + 31) = {29.705141783152, 0.4739457191934088, 0};
Point(p16 + 32) = {29.8588404536888, 0.5108455052881472, 0};
Point(p16 + 33) = {30.00487444024514, 0.5713347630871941, 0};
Point(p16 + 34) = {30.13964790141299, 0.6539240463111996, 0};
Point(p16 + 35) = {30.25984226729093, 0.7565797327090726, 0};
Point(p16 + 36) = {30.3624979536888, 0.8767740985870072, 0};
Point(p16 + 37) = {30.4450872369128, 1.011547559754858, 0};
Point(p16 + 38) = {30.50557649471185, 1.1575815463112, 0};
Point(p16 + 39) = {30.54247628080659, 1.311280216848, 0};
Spline(16) = {12, p16 + 1, p16 + 2, p16 + 3, p16 + 4, p16 + 5, p16 + 6, p16 + 7, p16 + 8, p16 + 9, p16 + 10, p16 + 11, p16 + 12, p16 + 13, p16 + 14, p16 + 15, p16 + 16, p16 + 17, p16 + 18, p16 + 19, p16 + 20, p16 + 21, p16 + 22, p16 + 23, p16 + 24, p16 + 25, p16 + 26, p16 + 27, p16 + 28, p16 + 29, p16 + 30, p16 + 31, p16 + 32, p16 + 33, p16 + 34, p16 + 35, p16 + 36, p16 + 37, p16 + 38, p16 + 39, 12};
Line(17) = {11, 8};
Line(18) = {12, 9};
Curve Loop(1) = {-1, 4, 3, -2};
Plane Surface(1) = {1};
Curve Loop(2) = {-5, 1, 7, -6};
Plane Surface(2) = {2};
Curve Loop(3) = {-2, 7, 9, -8, -10, -11};
Plane Surface(3) = {3};
Curve Loop(4) = {-12, 3, 8, -13};
Plane Surface(4) = {4};
Curve Loop(5) = {-4, 5, 14, -12, -15, -16};
Plane Surface(5) = {5};
Curve Loop(6) = {-6, 14, 13, -9};
Plane Surface(6) = {6};
Curve Loop(7) = {-10, -17, 15, 17};
Surface(7) = {7};
Curve Loop(8) = {-11, -18, 16, 18};
Surface(8) = {8};
Surface Loop(1) = {1, 2, 3, 4, 5, 6, 7, 8};
Volume(1) = {1};
Physical Surface("INFLOW") = {1};
Physical Surface("OUTFLOW") = {6};
Physical Surface("OBSTACLE") = {7, 8};
Physical Surface("WALL_Y") = {2, 4};
Physical Surface("WALL_Z") = {3, 5};
Physical Volume("FLUID") = {1};
