cl__1 = 0.361717;
cl__2 = 0.611986;
cl__3 = 3.888169;
cl__4 = 0.138949;
Point(1) = {0.356974, -3.384064, 1, cl__1};
Point(2) = {0.356974, -3.384064, 0, cl__1};
Point(3) = {0.356974, 4.945748, 1, cl__2};
Point(4) = {0.356974, 4.945748, 0, cl__2};
Point(5) = {38.657983, -3.384064, 0, cl__3};
Point(6) = {38.657983, -3.384064, 1, cl__3};
Point(7) = {38.657983, 4.945748, 1, cl__3};
Point(8) = {6.20144, -1.099375, 1, cl__4};
Point(9) = {38.657983, 4.945748, 0, cl__3};
Point(10) = {6.20144, -1.099375, 0, cl__4};
Line(1) = {2, 1};
Line(2) = {1, 3};
Line(3) = {4, 3};
Line(4) = {2, 4};
Line(5) = {2, 5};
Line(6) = {5, 6};
Line(7) = {1, 6};
Line(8) = {3, 7};
Line(9) = {6, 7};
p10 = newp;
Point(p10 + 1) = {6.184333109308517, -0.8820113444746447, 1};
Point(p10 + 2) = {6.133433665657404, -0.6699999035369375, 1};
Point(p10 + 3) = {6.049994982274923, -0.4685611024883964, 1};
Point(p10 + 4) = {5.936071596463062, -0.2826550331478884, 1};
Point(p10 + 5) = {5.794468680070552, -0.1168593199294478, 1};
Point(p10 + 6) = {5.628672966852111, 0.02474359646306246, 1};
Point(p10 + 7) = {5.442766897511603, 0.1386669822749225, 1};
Point(p10 + 8) = {5.241328096463063, 0.2221056656574039, 1};
Point(p10 + 9) = {5.029316655525355, 0.2730051093085162, 1};
Point(p10 + 10) = {4.811953, 0.2901119999999999, 1};
Point(p10 + 11) = {4.594589344474644, 0.273005109308516, 1};
Point(p10 + 12) = {4.382577903536937, 0.2221056656574041, 1};
Point(p10 + 13) = {4.181139102488396, 0.1386669822749227, 1};
Point(p10 + 14) = {3.995233033147889, 0.02474359646306246, 1};
Point(p10 + 15) = {3.829437319929448, -0.1168593199294476, 1};
Point(p10 + 16) = {3.687834403536938, -0.2826550331478883, 1};
Point(p10 + 17) = {3.573911017725077, -0.4685611024883963, 1};
Point(p10 + 18) = {3.490472334342596, -0.6699999035369373, 1};
Point(p10 + 19) = {3.439572890691484, -0.8820113444746446, 1};
Point(p10 + 20) = {3.422466, -1.099375, 1};
Point(p10 + 21) = {3.439572890691484, -1.316738655525355, 1};
Point(p10 + 22) = {3.490472334342596, -1.528750096463063, 1};
Point(p10 + 23) = {3.573911017725077, -1.730188897511603, 1};
Point(p10 + 24) = {3.687834403536937, -1.916094966852111, 1};
Point(p10 + 25) = {3.829437319929447, -2.081890680070552, 1};
Point(p10 + 26) = {3.995233033147888, -2.223493596463062, 1};
Point(p10 + 27) = {4.181139102488396, -2.337416982274922, 1};
Point(p10 + 28) = {4.382577903536937, -2.420855665657404, 1};
Point(p10 + 29) = {4.594589344474644, -2.471755109308516, 1};
Point(p10 + 30) = {4.811953, -2.488862, 1};
Point(p10 + 31) = {5.029316655525355, -2.471755109308516, 1};
Point(p10 + 32) = {5.241328096463063, -2.420855665657404, 1};
Point(p10 + 33) = {5.442766897511603, -2.337416982274923, 1};
Point(p10 + 34) = {5.628672966852111, -2.223493596463062, 1};
Point(p10 + 35) = {5.794468680070552, -2.081890680070552, 1};
Point(p10 + 36) = {5.936071596463062, -1.916094966852112, 1};
Point(p10 + 37) = {6.049994982274923, -1.730188897511604, 1};
Point(p10 + 38) = {6.133433665657404, -1.528750096463063, 1};
Point(p10 + 39) = {6.184333109308516, -1.316738655525356, 1};
Spline(10) = {8, p10 + 1, p10 + 2, p10 + 3, p10 + 4, p10 + 5, p10 + 6, p10 + 7, p10 + 8, p10 + 9, p10 + 10, p10 + 11, p10 + 12, p10 + 13, p10 + 14, p10 + 15, p10 + 16, p10 + 17, p10 + 18, p10 + 19, p10 + 20, p10 + 21, p10 + 22, p10 + 23, p10 + 24, p10 + 25, p10 + 26, p10 + 27, p10 + 28, p10 + 29, p10 + 30, p10 + 31, p10 + 32, p10 + 33, p10 + 34, p10 + 35, p10 + 36, p10 + 37, p10 + 38, p10 + 39, 8};
Line(11) = {4, 9};
Line(12) = {9, 7};
Line(13) = {5, 9};
p14 = newp;
Point(p14 + 1) = {6.184333109308517, -0.8820113444746447, 0};
Point(p14 + 2) = {6.133433665657404, -0.6699999035369375, 0};
Point(p14 + 3) = {6.049994982274923, -0.4685611024883964, 0};
Point(p14 + 4) = {5.936071596463062, -0.2826550331478884, 0};
Point(p14 + 5) = {5.794468680070552, -0.1168593199294478, 0};
Point(p14 + 6) = {5.628672966852111, 0.02474359646306246, 0};
Point(p14 + 7) = {5.442766897511603, 0.1386669822749225, 0};
Point(p14 + 8) = {5.241328096463063, 0.2221056656574039, 0};
Point(p14 + 9) = {5.029316655525355, 0.2730051093085162, 0};
Point(p14 + 10) = {4.811953, 0.2901119999999999, 0};
Point(p14 + 11) = {4.594589344474644, 0.273005109308516, 0};
Point(p14 + 12) = {4.382577903536937, 0.2221056656574041, 0};
Point(p14 + 13) = {4.181139102488396, 0.1386669822749227, 0};
Point(p14 + 14) = {3.995233033147889, 0.02474359646306246, 0};
Point(p14 + 15) = {3.829437319929448, -0.1168593199294476, 0};
Point(p14 + 16) = {3.687834403536938, -0.2826550331478883, 0};
Point(p14 + 17) = {3.573911017725077, -0.4685611024883963, 0};
Point(p14 + 18) = {3.490472334342596, -0.6699999035369373, 0};
Point(p14 + 19) = {3.439572890691484, -0.8820113444746446, 0};
Point(p14 + 20) = {3.422466, -1.099375, 0};
Point(p14 + 21) = {3.439572890691484, -1.316738655525355, 0};
Point(p14 + 22) = {3.490472334342596, -1.528750096463063, 0};
Point(p14 + 23) = {3.573911017725077, -1.730188897511603, 0};
Point(p14 + 24) = {3.687834403536937, -1.916094966852111, 0};
Point(p14 + 25) = {3.829437319929447, -2.081890680070552, 0};
Point(p14 + 26) = {3.995233033147888, -2.223493596463062, 0};
Point(p14 + 27) = {4.181139102488396, -2.337416982274922, 0};
Point(p14 + 28) = {4.382577903536937, -2.420855665657404, 0};
Point(p14 + 29) = {4.594589344474644, -2.471755109308516, 0};
Point(p14 + 30) = {4.811953, -2.488862, 0};
Point(p14 + 31) = {5.029316655525355, -2.471755109308516, 0};
Point(p14 + 32) = {5.241328096463063, -2.420855665657404, 0};
Point(p14 + 33) = {5.442766897511603, -2.337416982274923, 0};
Point(p14 + 34) = {5.628672966852111, -2.223493596463062, 0};
Point(p14 + 35) = {5.794468680070552, -2.081890680070552, 0};
Point(p14 + 36) = {5.936071596463062, -1.916094966852112, 0};
Point(p14 + 37) = {6.049994982274923, -1.730188897511604, 0};
Point(p14 + 38) = {6.133433665657404, -1.528750096463063, 0};
Point(p14 + 39) = {6.184333109308516, -1.316738655525356, 0};
Spline(14) = {10, p14 + 1, p14 + 2, p14 + 3, p14 + 4, p14 + 5, p14 + 6, p14 + 7, p14 + 8, p14 + 9, p14 + 10, p14 + 11, p14 + 12, p14 + 13, p14 + 14, p14 + 15, p14 + 16, p14 + 17, p14 + 18, p14 + 19, p14 + 20, p14 + 21, p14 + 22, p14 + 23, p14 + 24, p14 + 25, p14 + 26, p14 + 27, p14 + 28, p14 + 29, p14 + 30, p14 + 31, p14 + 32, p14 + 33, p14 + 34, p14 + 35, p14 + 36, p14 + 37, p14 + 38, p14 + 39, 10};
Line(15) = {10, 8};
Curve Loop(1) = {-1, 4, 3, -2};
Plane Surface(1) = {1};
Curve Loop(2) = {-5, 1, 7, -6};
Plane Surface(2) = {2};
Curve Loop(3) = {-2, 7, 9, -8, -10};
Plane Surface(3) = {3};
Curve Loop(4) = {-11, 3, 8, -12};
Plane Surface(4) = {4};
Curve Loop(5) = {-4, 5, 13, -11, -14};
Plane Surface(5) = {5};
Curve Loop(6) = {-6, 13, 12, -9};
Plane Surface(6) = {6};
Curve Loop(7) = {-10, -15, 14, 15};
Surface(7) = {7};
Surface Loop(1) = {1, 2, 3, 4, 5, 6, 7};
Volume(1) = {1};
Physical Surface("INFLOW") = {1};
Physical Surface("OUTFLOW") = {6};
Physical Surface("OBSTACLE") = {7};
Physical Surface("WALL_Y") = {2, 4};
Physical Surface("WALL_Z") = {3, 5};
Physical Volume("FLUID") = {1};
