cl__1 = 3.972612;
cl__2 = 0.51418;
cl__3 = 0.898818;
cl__4 = 0.080905;
cl__5 = 0.050068;
Point(1) = {0.028207, -3.753947, 1, cl__1};
Point(2) = {0.028207, -3.753947, 0, cl__1};
Point(3) = {0.028207, 5.155068999999999, 1, cl__2};
Point(4) = {0.028207, 5.155068999999999, 0, cl__2};
Point(5) = {39.475588, -3.753947, 0, cl__3};
Point(6) = {39.475588, -3.753947, 1, cl__3};
Point(7) = {39.475588, 5.155068999999999, 1, cl__2};
Point(8) = {35.611771, -0.06925200000000019, 1, cl__4};
Point(9) = {9.138294, 0.2356299999999999, 1, cl__5};
Point(10) = {39.475588, 5.155068999999999, 0, cl__2};
Point(11) = {35.611771, -0.06925200000000019, 0, cl__4};
Point(12) = {9.138294, 0.2356299999999999, 0, cl__5};
Line(1) = {2, 1};
Line(2) = {1, 3};
Line(3) = {4, 3};
Line(4) = {2, 4};
Line(5) = {2, 5};
Line(6) = {5, 6};
Line(7) = {1, 6};
Line(8) = {3, 7};
Line(9) = {6, 7};
p10 = newp;
Point(p10 + 1) = {35.60181021502352, 0.05731177324419391, 1};
Point(p10 + 2) = {35.57217312767814, 0.1807591263500343, 1};
Point(p10 + 3) = {35.52358950141417, 0.2980503757857795, 1};
Point(p10 + 4) = {35.45725562635003, 0.4062974217229823, 1};
Point(p10 + 5) = {35.37480486263932, 0.5028348626393199, 1};
Point(p10 + 6) = {35.27826742172298, 0.5852856263500344, 1};
Point(p10 + 7) = {35.17002037578578, 0.6516195014141716, 1};
Point(p10 + 8) = {35.05272912635003, 0.7002031276781429, 1};
Point(p10 + 9) = {34.92928177324419, 0.729840215023518, 1};
Point(p10 + 10) = {34.802718, 0.739801, 1};
Point(p10 + 11) = {34.67615422675581, 0.7298402150235179, 1};
Point(p10 + 12) = {34.55270687364997, 0.700203127678143, 1};
Point(p10 + 13) = {34.43541562421422, 0.6516195014141717, 1};
Point(p10 + 14) = {34.32716857827702, 0.5852856263500344, 1};
Point(p10 + 15) = {34.23063113736068, 0.5028348626393199, 1};
Point(p10 + 16) = {34.14818037364996, 0.4062974217229824, 1};
Point(p10 + 17) = {34.08184649858583, 0.2980503757857796, 1};
Point(p10 + 18) = {34.03326287232186, 0.1807591263500344, 1};
Point(p10 + 19) = {34.00362578497648, 0.05731177324419399, 1};
Point(p10 + 20) = {33.993665, -0.0692519999999999, 1};
Point(p10 + 21) = {34.00362578497648, -0.1958157732441938, 1};
Point(p10 + 22) = {34.03326287232186, -0.3192631263500346, 1};
Point(p10 + 23) = {34.08184649858583, -0.4365543757857791, 1};
Point(p10 + 24) = {34.14818037364996, -0.5448014217229822, 1};
Point(p10 + 25) = {34.23063113736068, -0.6413388626393198, 1};
Point(p10 + 26) = {34.32716857827702, -0.7237896263500343, 1};
Point(p10 + 27) = {34.43541562421422, -0.7901235014141715, 1};
Point(p10 + 28) = {34.55270687364997, -0.8387071276781428, 1};
Point(p10 + 29) = {34.67615422675581, -0.8683442150235179, 1};
Point(p10 + 30) = {34.802718, -0.878305, 1};
Point(p10 + 31) = {34.92928177324419, -0.868344215023518, 1};
Point(p10 + 32) = {35.05272912635003, -0.8387071276781429, 1};
Point(p10 + 33) = {35.17002037578578, -0.7901235014141716, 1};
Point(p10 + 34) = {35.27826742172298, -0.7237896263500344, 1};
Point(p10 + 35) = {35.37480486263932, -0.6413388626393199, 1};
Point(p10 + 36) = {35.45725562635003, -0.5448014217229825, 1};
Point(p10 + 37) = {35.52358950141417, -0.4365543757857797, 1};
Point(p10 + 38) = {35.57217312767814, -0.3192631263500345, 1};
Point(p10 + 39) = {35.60181021502352, -0.1958157732441941, 1};
Spline(10) = {8, p10 + 1, p10 + 2, p10 + 3, p10 + 4, p10 + 5, p10 + 6, p10 + 7, p10 + 8, p10 + 9, p10 + 10, p10 + 11, p10 + 12, p10 + 13, p10 + 14, p10 + 15, p10 + 16, p10 + 17, p10 + 18, p10 + 19, p10 + 20, p10 + 21, p10 + 22, p10 + 23, p10 + 24, p10 + 25, p10 + 26, p10 + 27, p10 + 28, p10 + 29, p10 + 30, p10 + 31, p10 + 32, p10 + 33, p10 + 34, p10 + 35, p10 + 36, p10 + 37, p10 + 38, p10 + 39, 8};
p11 = newp;
Point(p11 + 1) = {9.132129761434195, 0.3139540772597379, 1};
Point(p11 + 2) = {9.113788829748206, 0.3903495557946318, 1};
Point(p11 + 3) = {9.083722819550204, 0.4629353253810955, 1};
Point(p11 + 4) = {9.042672055794631, 0.5299240834735524, 1};
Point(p11 + 5) = {8.991647344524823, 0.5896663445248241, 1};
Point(p11 + 6) = {8.931905083473552, 0.6406910557946318, 1};
Point(p11 + 7) = {8.864916325381095, 0.6817418195502045, 1};
Point(p11 + 8) = {8.792330555794631, 0.7118078297482063, 1};
Point(p11 + 9) = {8.715935077259738, 0.7301487614341954, 1};
Point(p11 + 10) = {8.637611, 0.736313, 1};
Point(p11 + 11) = {8.559286922740261, 0.7301487614341953, 1};
Point(p11 + 12) = {8.482891444205368, 0.7118078297482064, 1};
Point(p11 + 13) = {8.410305674618904, 0.6817418195502045, 1};
Point(p11 + 14) = {8.343316916526447, 0.6406910557946318, 1};
Point(p11 + 15) = {8.283574655475176, 0.5896663445248242, 1};
Point(p11 + 16) = {8.232549944205369, 0.5299240834735524, 1};
Point(p11 + 17) = {8.191499180449796, 0.4629353253810956, 1};
Point(p11 + 18) = {8.161433170251794, 0.3903495557946318, 1};
Point(p11 + 19) = {8.143092238565805, 0.313954077259738, 1};
Point(p11 + 20) = {8.136927999999999, 0.2356300000000001, 1};
Point(p11 + 21) = {8.143092238565805, 0.1573059227402622, 1};
Point(p11 + 22) = {8.161433170251794, 0.08091044420536805, 1};
Point(p11 + 23) = {8.191499180449796, 0.008324674618904765, 1};
Point(p11 + 24) = {8.232549944205369, -0.05866408347355229, 1};
Point(p11 + 25) = {8.283574655475176, -0.1184063445248241, 1};
Point(p11 + 26) = {8.343316916526447, -0.1694310557946317, 1};
Point(p11 + 27) = {8.410305674618904, -0.2104818195502045, 1};
Point(p11 + 28) = {8.482891444205368, -0.2405478297482063, 1};
Point(p11 + 29) = {8.559286922740261, -0.2588887614341953, 1};
Point(p11 + 30) = {8.637611, -0.265053, 1};
Point(p11 + 31) = {8.715935077259738, -0.2588887614341954, 1};
Point(p11 + 32) = {8.792330555794631, -0.2405478297482064, 1};
Point(p11 + 33) = {8.864916325381095, -0.2104818195502046, 1};
Point(p11 + 34) = {8.931905083473552, -0.1694310557946319, 1};
Point(p11 + 35) = {8.991647344524823, -0.1184063445248242, 1};
Point(p11 + 36) = {9.042672055794631, -0.05866408347355245, 1};
Point(p11 + 37) = {9.083722819550204, 0.008324674618904404, 1};
Point(p11 + 38) = {9.113788829748206, 0.08091044420536811, 1};
Point(p11 + 39) = {9.132129761434195, 0.157305922740262, 1};
Spline(11) = {9, p11 + 1, p11 + 2, p11 + 3, p11 + 4, p11 + 5, p11 + 6, p11 + 7, p11 + 8, p11 + 9, p11 + 10, p11 + 11, p11 + 12, p11 + 13, p11 + 14, p11 + 15, p11 + 16, p11 + 17, p11 + 18, p11 + 19, p11 + 20, p11 + 21, p11 + 22, p11 + 23, p11 + 24, p11 + 25, p11 + 26, p11 + 27, p11 + 28, p11 + 29, p11 + 30, p11 + 31, p11 + 32, p11 + 33, p11 + 34, p11 + 35, p11 + 36, p11 + 37, p11 + 38, p11 + 39, 9};
Line(12) = {4, 10};
Line(13) = {10, 7};
Line(14) = {5, 10};
p15 = newp;
Point(p15 + 1) = {35.60181021502352, 0.05731177324419391, 0};
Point(p15 + 2) = {35.57217312767814, 0.1807591263500343, 0};
Point(p15 + 3) = {35.52358950141417, 0.2980503757857795, 0};
Point(p15 + 4) = {35.45725562635003, 0.4062974217229823, 0};
Point(p15 + 5) = {35.37480486263932, 0.5028348626393199, 0};
Point(p15 + 6) = {35.27826742172298, 0.5852856263500344, 0};
Point(p15 + 7) = {35.17002037578578, 0.6516195014141716, 0};
Point(p15 + 8) = {35.05272912635003, 0.7002031276781429, 0};
Point(p15 + 9) = {34.92928177324419, 0.729840215023518, 0};
Point(p15 + 10) = {34.802718, 0.739801, 0};
Point(p15 + 11) = {34.67615422675581, 0.7298402150235179, 0};
Point(p15 + 12) = {34.55270687364997, 0.700203127678143, 0};
Point(p15 + 13) = {34.43541562421422, 0.6516195014141717, 0};
Point(p15 + 14) = {34.32716857827702, 0.5852856263500344, 0};
Point(p15 + 15) = {34.23063113736068, 0.5028348626393199, 0};
Point(p15 + 16) = {34.14818037364996, 0.4062974217229824, 0};
Point(p15 + 17) = {34.08184649858583, 0.2980503757857796, 0};
Point(p15 + 18) = {34.03326287232186, 0.1807591263500344, 0};
Point(p15 + 19) = {34.00362578497648, 0.05731177324419399, 0};
Point(p15 + 20) = {33.993665, -0.0692519999999999, 0};
Point(p15 + 21) = {34.00362578497648, -0.1958157732441938, 0};
Point(p15 + 22) = {34.03326287232186, -0.3192631263500346, 0};
Point(p15 + 23) = {34.08184649858583, -0.4365543757857791, 0};
Point(p15 + 24) = {34.14818037364996, -0.5448014217229822, 0};
Point(p15 + 25) = {34.23063113736068, -0.6413388626393198, 0};
Point(p15 + 26) = {34.32716857827702, -0.7237896263500343, 0};
Point(p15 + 27) = {34.43541562421422, -0.7901235014141715, 0};
Point(p15 + 28) = {34.55270687364997, -0.8387071276781428, 0};
Point(p15 + 29) = {34.67615422675581, -0.8683442150235179, 0};
Point(p15 + 30) = {34.802718, -0.878305, 0};
Point(p15 + 31) = {34.92928177324419, -0.868344215023518, 0};
Point(p15 + 32) = {35.05272912635003, -0.8387071276781429, 0};
Point(p15 + 33) = {35.17002037578578, -0.7901235014141716, 0};
Point(p15 + 34) = {35.27826742172298, -0.7237896263500344, 0};
Point(p15 + 35) = {35.37480486263932, -0.6413388626393199, 0};
Point(p15 + 36) = {35.45725562635003, -0.5448014217229825, 0};
Point(p15 + 37) = {35.52358950141417, -0.4365543757857797, 0};
Point(p15 + 38) = {35.57217312767814, -0.3192631263500345, 0};
Point(p15 + 39) = {35.60181021502352, -0.1958157732441941, 0};
Spline(15) = {11, p15 + 1, p15 + 2, p15 + 3, p15 + 4, p15 + 5, p15 + 6, p15 + 7, p15 + 8, p15 + 9, p15 + 10, p15 + 11, p15 + 12, p15 + 13, p15 + 14, p15 + 15, p15 + 16, p15 + 17, p15 + 18, p15 + 19, p15 + 20, p15 + 21, p15 + 22, p15 + 23, p15 + 24, p15 + 25, p15 + 26, p15 + 27, p15 + 28, p15 + 29, p15 + 30, p15 + 31, p15 + 32, p15 + 33, p15 + 34, p15 + 35, p15 + 36, p15 + 37, p15 + 38, p15 + 39, 11};
p16 = newp;
Point(p16 + 1) = {9.132129761434195, 0.3139540772597379, 0};
Point(p16 + 2) = {9.113788829748206, 0.3903495557946318, 0};
Point(p16 + 3) = {9.083722819550204, 0.4629353253810955, 0};
Point(p16 + 4) = {9.042672055794631, 0.5299240834735524, 0};
Point(p16 + 5) = {8.991647344524823, 0.5896663445248241, 0};
Point(p16 + 6) = {8.931905083473552, 0.6406910557946318, 0};
Point(p16 + 7) = {8.864916325381095, 0.6817418195502045, 0};
Point(p16 + 8) = {8.792330555794631, 0.7118078297482063, 0};
Point(p16 + 9) = {8.715935077259738, 0.7301487614341954, 0};
Point(p16 + 10) = {8.637611, 0.736313, 0};
Point(p16 + 11) = {8.559286922740261, 0.7301487614341953, 0};
Point(p16 + 12) = {8.482891444205368, 0.7118078297482064, 0};
Point(p16 + 13) = {8.410305674618904, 0.6817418195502045, 0};
Point(p16 + 14) = {8.343316916526447, 0.6406910557946318, 0};
Point(p16 + 15) = {8.283574655475176, 0.5896663445248242, 0};
Point(p16 + 16) = {8.232549944205369, 0.5299240834735524, 0};
Point(p16 + 17) = {8.191499180449796, 0.4629353253810956, 0};
Point(p16 + 18) = {8.161433170251794, 0.3903495557946318, 0};
Point(p16 + 19) = {8.143092238565805, 0.313954077259738, 0};
Point(p16 + 20) = {8.136927999999999, 0.2356300000000001, 0};
Point(p16 + 21) = {8.143092238565805, 0.1573059227402622, 0};
Point(p16 + 22) = {8.161433170251794, 0.08091044420536805, 0};
Point(p16 + 23) = {8.191499180449796, 0.008324674618904765, 0};
Point(p16 + 24) = {8.232549944205369, -0.05866408347355229, 0};
Point(p16 + 25) = {8.283574655475176, -0.1184063445248241, 0};
Point(p16 + 26) = {8.343316916526447, -0.1694310557946317, 0};
Point(p16 + 27) = {8.410305674618904, -0.2104818195502045, 0};
Point(p16 + 28) = {8.482891444205368, -0.2405478297482063, 0};
Point(p16 + 29) = {8.559286922740261, -0.2588887614341953, 0};
Point(p16 + 30) = {8.637611, -0.265053, 0};
Point(p16 + 31) = {8.715935077259738, -0.2588887614341954, 0};
Point(p16 + 32) = {8.792330555794631, -0.2405478297482064, 0};
Point(p16 + 33) = {8.864916325381095, -0.2104818195502046, 0};
Point(p16 + 34) = {8.931905083473552, -0.1694310557946319, 0};
Point(p16 + 35) = {8.991647344524823, -0.1184063445248242, 0};
Point(p16 + 36) = {9.042672055794631, -0.05866408347355245, 0};
Point(p16 + 37) = {9.083722819550204, 0.008324674618904404, 0};
Point(p16 + 38) = {9.113788829748206, 0.08091044420536811, 0};
Point(p16 + 39) = {9.132129761434195, 0.157305922740262, 0};
Spline(16) = {12, p16 + 1, p16 + 2, p16 + 3, p16 + 4, p16 + 5, p16 + 6, p16 + 7, p16 + 8, p16 + 9, p16 + 10, p16 + 11, p16 + 12, p16 + 13, p16 + 14, p16 + 15, p16 + 16, p16 + 17, p16 + 18, p16 + 19, p16 + 20, p16 + 21, p16 + 22, p16 + 23, p16 + 24, p16 + 25, p16 + 26, p16 + 27, p16 + 28, p16 + 29, p16 + 30, p16 + 31, p16 + 32, p16 + 33, p16 + 34, p16 + 35, p16 + 36, p16 + 37, p16 + 38, p16 + 39, 12};
Line(17) = {11, 8};
Line(18) = {12, 9};
Curve Loop(1) = {-1, 4, 3, -2};
Plane Surface(1) = {1};
Curve Loop(2) = {-5, 1, 7, -6};
Plane Surface(2) = {2};
Curve Loop(3) = {-2, 7, 9, -8, -10, -11};
Plane Surface(3) = {3};
Curve Loop(4) = {-12, 3, 8, -13};
Plane Surface(4) = {4};
Curve Loop(5) = {-4, 5, 14, -12, -15, -16};
Plane Surface(5) = {5};
Curve Loop(6) = {-6, 14, 13, -9};
Plane Surface(6) = {6};
Curve Loop(7) = {-10, -17, 15, 17};
Surface(7) = {7};
Curve Loop(8) = {-11, -18, 16, 18};
Surface(8) = {8};
Surface Loop(1) = {1, 2, 3, 4, 5, 6, 7, 8};
Volume(1) = {1};
Physical Surface("INFLOW") = {1};
Physical Surface("OUTFLOW") = {6};
Physical Surface("OBSTACLE") = {7, 8};
Physical Surface("WALL_Y") = {2, 4};
Physical Surface("WALL_Z") = {3, 5};
Physical Volume("FLUID") = {1};
