cl__1 = 0.623764;
cl__2 = 3.829965;
cl__3 = 0.44765;
cl__4 = 0.054597;
cl__5 = 0.08586000000000001;
Point(1) = {0.416028, -4.007241, 1, cl__1};
Point(2) = {0.416028, -4.007241, 0, cl__1};
Point(3) = {0.416028, 5.188742, 1, cl__2};
Point(4) = {0.416028, 5.188742, 0, cl__2};
Point(5) = {38.022648, -4.007241, 0, cl__3};
Point(6) = {38.022648, -4.007241, 1, cl__3};
Point(7) = {38.022648, 5.188742, 1, cl__2};
Point(8) = {4.840154, -0.8158280000000002, 1, cl__4};
Point(9) = {7.750605, -1.10581, 1, cl__5};
Point(10) = {38.022648, 5.188742, 0, cl__2};
Point(11) = {4.840154, -0.8158280000000002, 0, cl__4};
Point(12) = {7.750605, -1.10581, 0, cl__5};
Line(1) = {2, 1};
Line(2) = {1, 3};
Line(3) = {4, 3};
Line(4) = {2, 4};
Line(5) = {2, 5};
Line(6) = {5, 6};
Line(7) = {1, 6};
Line(8) = {3, 7};
Line(9) = {6, 7};
p10 = newp;
Point(p10 + 1) = {4.833432178691409, -0.730419162253055, 1};
Point(p10 + 2) = {4.813432228314698, -0.6471133735471212, 1};
Point(p10 + 3) = {4.780646614024172, -0.5679618988762002, 1};
Point(p10 + 4) = {4.735882626452879, -0.4949137102353738, 1};
Point(p10 + 5) = {4.680242503537982, -0.4297674964620183, 1};
Point(p10 + 6) = {4.615096289764626, -0.3741273735471212, 1};
Point(p10 + 7) = {4.5420481011238, -0.3293633859758284, 1};
Point(p10 + 8) = {4.462896626452879, -0.2965777716853024, 1};
Point(p10 + 9) = {4.379590837746945, -0.2765778213085914, 1};
Point(p10 + 10) = {4.294182, -0.269856, 1};
Point(p10 + 11) = {4.208773162253055, -0.2765778213085914, 1};
Point(p10 + 12) = {4.125467373547122, -0.2965777716853024, 1};
Point(p10 + 13) = {4.0463158988762, -0.3293633859758284, 1};
Point(p10 + 14) = {3.973267710235374, -0.3741273735471212, 1};
Point(p10 + 15) = {3.908121496462019, -0.4297674964620182, 1};
Point(p10 + 16) = {3.852481373547121, -0.4949137102353738, 1};
Point(p10 + 17) = {3.807717385975828, -0.5679618988762001, 1};
Point(p10 + 18) = {3.774931771685303, -0.6471133735471212, 1};
Point(p10 + 19) = {3.754931821308592, -0.730419162253055, 1};
Point(p10 + 20) = {3.74821, -0.8158279999999999, 1};
Point(p10 + 21) = {3.754931821308592, -0.9012368377469449, 1};
Point(p10 + 22) = {3.774931771685303, -0.9845426264528789, 1};
Point(p10 + 23) = {3.807717385975828, -1.063694101123799, 1};
Point(p10 + 24) = {3.852481373547121, -1.136742289764626, 1};
Point(p10 + 25) = {3.908121496462019, -1.201888503537982, 1};
Point(p10 + 26) = {3.973267710235374, -1.257528626452879, 1};
Point(p10 + 27) = {4.0463158988762, -1.302292614024172, 1};
Point(p10 + 28) = {4.125467373547122, -1.335078228314698, 1};
Point(p10 + 29) = {4.208773162253055, -1.355078178691409, 1};
Point(p10 + 30) = {4.294182, -1.3618, 1};
Point(p10 + 31) = {4.379590837746945, -1.355078178691409, 1};
Point(p10 + 32) = {4.462896626452879, -1.335078228314698, 1};
Point(p10 + 33) = {4.5420481011238, -1.302292614024172, 1};
Point(p10 + 34) = {4.615096289764626, -1.257528626452879, 1};
Point(p10 + 35) = {4.680242503537982, -1.201888503537982, 1};
Point(p10 + 36) = {4.735882626452879, -1.136742289764626, 1};
Point(p10 + 37) = {4.780646614024172, -1.0636941011238, 1};
Point(p10 + 38) = {4.813432228314698, -0.9845426264528789, 1};
Point(p10 + 39) = {4.833432178691409, -0.9012368377469451, 1};
Spline(10) = {8, p10 + 1, p10 + 2, p10 + 3, p10 + 4, p10 + 5, p10 + 6, p10 + 7, p10 + 8, p10 + 9, p10 + 10, p10 + 11, p10 + 12, p10 + 13, p10 + 14, p10 + 15, p10 + 16, p10 + 17, p10 + 18, p10 + 19, p10 + 20, p10 + 21, p10 + 22, p10 + 23, p10 + 24, p10 + 25, p10 + 26, p10 + 27, p10 + 28, p10 + 29, p10 + 30, p10 + 31, p10 + 32, p10 + 33, p10 + 34, p10 + 35, p10 + 36, p10 + 37, p10 + 38, p10 + 39, 8};
p11 = newp;
Point(p11 + 1) = {7.740034221546645, -0.9714955247509227, 1};
Point(p11 + 2) = {7.708582173834503, -0.8404883176466644, 1};
Point(p11 + 3) = {7.657023310661609, -0.7160142109141249, 1};
Point(p11 + 4) = {7.586627182353336, -0.6011381701669348, 1};
Point(p11 + 5) = {7.499127175219989, -0.4986888247800115, 1};
Point(p11 + 6) = {7.396677829833066, -0.4111888176466645, 1};
Point(p11 + 7) = {7.281801789085875, -0.3407926893383916, 1};
Point(p11 + 8) = {7.157327682353336, -0.2892338261654974, 1};
Point(p11 + 9) = {7.026320475249078, -0.2577817784533553, 1};
Point(p11 + 10) = {6.892006, -0.247211, 1};
Point(p11 + 11) = {6.757691524750923, -0.2577817784533554, 1};
Point(p11 + 12) = {6.626684317646665, -0.2892338261654973, 1};
Point(p11 + 13) = {6.502210210914125, -0.3407926893383915, 1};
Point(p11 + 14) = {6.387334170166936, -0.4111888176466645, 1};
Point(p11 + 15) = {6.284884824780012, -0.4986888247800114, 1};
Point(p11 + 16) = {6.197384817646665, -0.6011381701669347, 1};
Point(p11 + 17) = {6.126988689338392, -0.7160142109141248, 1};
Point(p11 + 18) = {6.075429826165498, -0.8404883176466644, 1};
Point(p11 + 19) = {6.043977778453356, -0.9714955247509227, 1};
Point(p11 + 20) = {6.033407, -1.10581, 1};
Point(p11 + 21) = {6.043977778453356, -1.240124475249077, 1};
Point(p11 + 22) = {6.075429826165498, -1.371131682353336, 1};
Point(p11 + 23) = {6.126988689338392, -1.495605789085875, 1};
Point(p11 + 24) = {6.197384817646665, -1.610481829833065, 1};
Point(p11 + 25) = {6.284884824780011, -1.712931175219988, 1};
Point(p11 + 26) = {6.387334170166935, -1.800431182353335, 1};
Point(p11 + 27) = {6.502210210914125, -1.870827310661608, 1};
Point(p11 + 28) = {6.626684317646665, -1.922386173834502, 1};
Point(p11 + 29) = {6.757691524750923, -1.953838221546645, 1};
Point(p11 + 30) = {6.892006, -1.964409, 1};
Point(p11 + 31) = {7.026320475249078, -1.953838221546645, 1};
Point(p11 + 32) = {7.157327682353335, -1.922386173834503, 1};
Point(p11 + 33) = {7.281801789085875, -1.870827310661608, 1};
Point(p11 + 34) = {7.396677829833065, -1.800431182353336, 1};
Point(p11 + 35) = {7.499127175219988, -1.712931175219988, 1};
Point(p11 + 36) = {7.586627182353336, -1.610481829833065, 1};
Point(p11 + 37) = {7.657023310661609, -1.495605789085875, 1};
Point(p11 + 38) = {7.708582173834503, -1.371131682353336, 1};
Point(p11 + 39) = {7.740034221546645, -1.240124475249077, 1};
Spline(11) = {9, p11 + 1, p11 + 2, p11 + 3, p11 + 4, p11 + 5, p11 + 6, p11 + 7, p11 + 8, p11 + 9, p11 + 10, p11 + 11, p11 + 12, p11 + 13, p11 + 14, p11 + 15, p11 + 16, p11 + 17, p11 + 18, p11 + 19, p11 + 20, p11 + 21, p11 + 22, p11 + 23, p11 + 24, p11 + 25, p11 + 26, p11 + 27, p11 + 28, p11 + 29, p11 + 30, p11 + 31, p11 + 32, p11 + 33, p11 + 34, p11 + 35, p11 + 36, p11 + 37, p11 + 38, p11 + 39, 9};
Line(12) = {4, 10};
Line(13) = {10, 7};
Line(14) = {5, 10};
p15 = newp;
Point(p15 + 1) = {4.833432178691409, -0.730419162253055, 0};
Point(p15 + 2) = {4.813432228314698, -0.6471133735471212, 0};
Point(p15 + 3) = {4.780646614024172, -0.5679618988762002, 0};
Point(p15 + 4) = {4.735882626452879, -0.4949137102353738, 0};
Point(p15 + 5) = {4.680242503537982, -0.4297674964620183, 0};
Point(p15 + 6) = {4.615096289764626, -0.3741273735471212, 0};
Point(p15 + 7) = {4.5420481011238, -0.3293633859758284, 0};
Point(p15 + 8) = {4.462896626452879, -0.2965777716853024, 0};
Point(p15 + 9) = {4.379590837746945, -0.2765778213085914, 0};
Point(p15 + 10) = {4.294182, -0.269856, 0};
Point(p15 + 11) = {4.208773162253055, -0.2765778213085914, 0};
Point(p15 + 12) = {4.125467373547122, -0.2965777716853024, 0};
Point(p15 + 13) = {4.0463158988762, -0.3293633859758284, 0};
Point(p15 + 14) = {3.973267710235374, -0.3741273735471212, 0};
Point(p15 + 15) = {3.908121496462019, -0.4297674964620182, 0};
Point(p15 + 16) = {3.852481373547121, -0.4949137102353738, 0};
Point(p15 + 17) = {3.807717385975828, -0.5679618988762001, 0};
Point(p15 + 18) = {3.774931771685303, -0.6471133735471212, 0};
Point(p15 + 19) = {3.754931821308592, -0.730419162253055, 0};
Point(p15 + 20) = {3.74821, -0.8158279999999999, 0};
Point(p15 + 21) = {3.754931821308592, -0.9012368377469449, 0};
Point(p15 + 22) = {3.774931771685303, -0.9845426264528789, 0};
Point(p15 + 23) = {3.807717385975828, -1.063694101123799, 0};
Point(p15 + 24) = {3.852481373547121, -1.136742289764626, 0};
Point(p15 + 25) = {3.908121496462019, -1.201888503537982, 0};
Point(p15 + 26) = {3.973267710235374, -1.257528626452879, 0};
Point(p15 + 27) = {4.0463158988762, -1.302292614024172, 0};
Point(p15 + 28) = {4.125467373547122, -1.335078228314698, 0};
Point(p15 + 29) = {4.208773162253055, -1.355078178691409, 0};
Point(p15 + 30) = {4.294182, -1.3618, 0};
Point(p15 + 31) = {4.379590837746945, -1.355078178691409, 0};
Point(p15 + 32) = {4.462896626452879, -1.335078228314698, 0};
Point(p15 + 33) = {4.5420481011238, -1.302292614024172, 0};
Point(p15 + 34) = {4.615096289764626, -1.257528626452879, 0};
Point(p15 + 35) = {4.680242503537982, -1.201888503537982, 0};
Point(p15 + 36) = {4.735882626452879, -1.136742289764626, 0};
Point(p15 + 37) = {4.780646614024172, -1.0636941011238, 0};
Point(p15 + 38) = {4.813432228314698, -0.9845426264528789, 0};
Point(p15 + 39) = {4.833432178691409, -0.9012368377469451, 0};
Spline(15) = {11, p15 + 1, p15 + 2, p15 + 3, p15 + 4, p15 + 5, p15 + 6, p15 + 7, p15 + 8, p15 + 9, p15 + 10, p15 + 11, p15 + 12, p15 + 13, p15 + 14, p15 + 15, p15 + 16, p15 + 17, p15 + 18, p15 + 19, p15 + 20, p15 + 21, p15 + 22, p15 + 23, p15 + 24, p15 + 25, p15 + 26, p15 + 27, p15 + 28, p15 + 29, p15 + 30, p15 + 31, p15 + 32, p15 + 33, p15 + 34, p15 + 35, p15 + 36, p15 + 37, p15 + 38, p15 + 39, 11};
p16 = newp;
Point(p16 + 1) = {7.740034221546645, -0.9714955247509227, 0};
Point(p16 + 2) = {7.708582173834503, -0.8404883176466644, 0};
Point(p16 + 3) = {7.657023310661609, -0.7160142109141249, 0};
Point(p16 + 4) = {7.586627182353336, -0.6011381701669348, 0};
Point(p16 + 5) = {7.499127175219989, -0.4986888247800115, 0};
Point(p16 + 6) = {7.396677829833066, -0.4111888176466645, 0};
Point(p16 + 7) = {7.281801789085875, -0.3407926893383916, 0};
Point(p16 + 8) = {7.157327682353336, -0.2892338261654974, 0};
Point(p16 + 9) = {7.026320475249078, -0.2577817784533553, 0};
Point(p16 + 10) = {6.892006, -0.247211, 0};
Point(p16 + 11) = {6.757691524750923, -0.2577817784533554, 0};
Point(p16 + 12) = {6.626684317646665, -0.2892338261654973, 0};
Point(p16 + 13) = {6.502210210914125, -0.3407926893383915, 0};
Point(p16 + 14) = {6.387334170166936, -0.4111888176466645, 0};
Point(p16 + 15) = {6.284884824780012, -0.4986888247800114, 0};
Point(p16 + 16) = {6.197384817646665, -0.6011381701669347, 0};
Point(p16 + 17) = {6.126988689338392, -0.7160142109141248, 0};
Point(p16 + 18) = {6.075429826165498, -0.8404883176466644, 0};
Point(p16 + 19) = {6.043977778453356, -0.9714955247509227, 0};
Point(p16 + 20) = {6.033407, -1.10581, 0};
Point(p16 + 21) = {6.043977778453356, -1.240124475249077, 0};
Point(p16 + 22) = {6.075429826165498, -1.371131682353336, 0};
Point(p16 + 23) = {6.126988689338392, -1.495605789085875, 0};
Point(p16 + 24) = {6.197384817646665, -1.610481829833065, 0};
Point(p16 + 25) = {6.284884824780011, -1.712931175219988, 0};
Point(p16 + 26) = {6.387334170166935, -1.800431182353335, 0};
Point(p16 + 27) = {6.502210210914125, -1.870827310661608, 0};
Point(p16 + 28) = {6.626684317646665, -1.922386173834502, 0};
Point(p16 + 29) = {6.757691524750923, -1.953838221546645, 0};
Point(p16 + 30) = {6.892006, -1.964409, 0};
Point(p16 + 31) = {7.026320475249078, -1.953838221546645, 0};
Point(p16 + 32) = {7.157327682353335, -1.922386173834503, 0};
Point(p16 + 33) = {7.281801789085875, -1.870827310661608, 0};
Point(p16 + 34) = {7.396677829833065, -1.800431182353336, 0};
Point(p16 + 35) = {7.499127175219988, -1.712931175219988, 0};
Point(p16 + 36) = {7.586627182353336, -1.610481829833065, 0};
Point(p16 + 37) = {7.657023310661609, -1.495605789085875, 0};
Point(p16 + 38) = {7.708582173834503, -1.371131682353336, 0};
Point(p16 + 39) = {7.740034221546645, -1.240124475249077, 0};
Spline(16) = {12, p16 + 1, p16 + 2, p16 + 3, p16 + 4, p16 + 5, p16 + 6, p16 + 7, p16 + 8, p16 + 9, p16 + 10, p16 + 11, p16 + 12, p16 + 13, p16 + 14, p16 + 15, p16 + 16, p16 + 17, p16 + 18, p16 + 19, p16 + 20, p16 + 21, p16 + 22, p16 + 23, p16 + 24, p16 + 25, p16 + 26, p16 + 27, p16 + 28, p16 + 29, p16 + 30, p16 + 31, p16 + 32, p16 + 33, p16 + 34, p16 + 35, p16 + 36, p16 + 37, p16 + 38, p16 + 39, 12};
Line(17) = {11, 8};
Line(18) = {12, 9};
Curve Loop(1) = {-1, 4, 3, -2};
Plane Surface(1) = {1};
Curve Loop(2) = {-5, 1, 7, -6};
Plane Surface(2) = {2};
Curve Loop(3) = {-2, 7, 9, -8, -10, -11};
Plane Surface(3) = {3};
Curve Loop(4) = {-12, 3, 8, -13};
Plane Surface(4) = {4};
Curve Loop(5) = {-4, 5, 14, -12, -15, -16};
Plane Surface(5) = {5};
Curve Loop(6) = {-6, 14, 13, -9};
Plane Surface(6) = {6};
Curve Loop(7) = {-10, -17, 15, 17};
Surface(7) = {7};
Curve Loop(8) = {-11, -18, 16, 18};
Surface(8) = {8};
Surface Loop(1) = {1, 2, 3, 4, 5, 6, 7, 8};
Volume(1) = {1};
Physical Surface("INFLOW") = {1};
Physical Surface("OUTFLOW") = {6};
Physical Surface("OBSTACLE") = {7, 8};
Physical Surface("WALL_Y") = {2, 4};
Physical Surface("WALL_Z") = {3, 5};
Physical Volume("FLUID") = {1};
