cl__1 = 3.346842;
cl__2 = 0.937436;
cl__3 = 0.921276;
cl__4 = 0.126916;
Point(1) = {0.611948, -4.913278, 1, cl__1};
Point(2) = {0.611948, -4.913278, 0, cl__1};
Point(3) = {0.611948, 5.085710000000001, 1, cl__1};
Point(4) = {0.611948, 5.085710000000001, 0, cl__1};
Point(5) = {33.092907, -4.913278, 0, cl__2};
Point(6) = {33.092907, -4.913278, 1, cl__2};
Point(7) = {33.092907, 5.085710000000001, 1, cl__3};
Point(8) = {25.058652, 0.2569309999999997, 1, cl__4};
Point(9) = {33.092907, 5.085710000000001, 0, cl__3};
Point(10) = {25.058652, 0.2569309999999997, 0, cl__4};
Line(1) = {2, 1};
Line(2) = {1, 3};
Line(3) = {4, 3};
Line(4) = {2, 4};
Line(5) = {2, 5};
Line(6) = {5, 6};
Line(7) = {1, 6};
Line(8) = {3, 7};
Line(9) = {6, 7};
p10 = newp;
Point(p10 + 1) = {25.04302647279143, 0.4554721478227847, 1};
Point(p10 + 2) = {24.99653464350374, 0.6491245536658802, 1};
Point(p10 + 3) = {24.92032129527153, 0.8331198526019419, 1};
Point(p10 + 4) = {24.81626305366588, 1.002927469725777, 1};
Point(p10 + 5) = {24.68692217794463, 1.154366177944625, 1};
Point(p10 + 6) = {24.53548346972578, 1.28370705366588, 1};
Point(p10 + 7) = {24.36567585260194, 1.38776529527153, 1};
Point(p10 + 8) = {24.18168055366588, 1.463978643503739, 1};
Point(p10 + 9) = {23.98802814782279, 1.510470472791428, 1};
Point(p10 + 10) = {23.789487, 1.526096, 1};
Point(p10 + 11) = {23.59094585217722, 1.510470472791428, 1};
Point(p10 + 12) = {23.39729344633412, 1.463978643503739, 1};
Point(p10 + 13) = {23.21329814739806, 1.38776529527153, 1};
Point(p10 + 14) = {23.04349053027422, 1.28370705366588, 1};
Point(p10 + 15) = {22.89205182205538, 1.154366177944625, 1};
Point(p10 + 16) = {22.76271094633412, 1.002927469725777, 1};
Point(p10 + 17) = {22.65865270472847, 0.8331198526019421, 1};
Point(p10 + 18) = {22.58243935649626, 0.6491245536658803, 1};
Point(p10 + 19) = {22.53594752720857, 0.4554721478227848, 1};
Point(p10 + 20) = {22.520322, 0.2569310000000002, 1};
Point(p10 + 21) = {22.53594752720857, 0.05838985217721557, 1};
Point(p10 + 22) = {22.58243935649626, -0.1352625536658805, 1};
Point(p10 + 23) = {22.65865270472847, -0.3192578526019413, 1};
Point(p10 + 24) = {22.76271094633412, -0.4890654697257766, 1};
Point(p10 + 25) = {22.89205182205538, -0.6405041779446246, 1};
Point(p10 + 26) = {23.04349053027422, -0.7698450536658801, 1};
Point(p10 + 27) = {23.21329814739806, -0.8739032952715298, 1};
Point(p10 + 28) = {23.39729344633412, -0.9501166435037387, 1};
Point(p10 + 29) = {23.59094585217722, -0.9966084727914279, 1};
Point(p10 + 30) = {23.789487, -1.012234, 1};
Point(p10 + 31) = {23.98802814782279, -0.9966084727914282, 1};
Point(p10 + 32) = {24.18168055366588, -0.9501166435037387, 1};
Point(p10 + 33) = {24.36567585260194, -0.87390329527153, 1};
Point(p10 + 34) = {24.53548346972578, -0.7698450536658803, 1};
Point(p10 + 35) = {24.68692217794463, -0.6405041779446249, 1};
Point(p10 + 36) = {24.81626305366588, -0.489065469725777, 1};
Point(p10 + 37) = {24.92032129527153, -0.3192578526019422, 1};
Point(p10 + 38) = {24.99653464350374, -0.1352625536658804, 1};
Point(p10 + 39) = {25.04302647279143, 0.05838985217721512, 1};
Spline(10) = {8, p10 + 1, p10 + 2, p10 + 3, p10 + 4, p10 + 5, p10 + 6, p10 + 7, p10 + 8, p10 + 9, p10 + 10, p10 + 11, p10 + 12, p10 + 13, p10 + 14, p10 + 15, p10 + 16, p10 + 17, p10 + 18, p10 + 19, p10 + 20, p10 + 21, p10 + 22, p10 + 23, p10 + 24, p10 + 25, p10 + 26, p10 + 27, p10 + 28, p10 + 29, p10 + 30, p10 + 31, p10 + 32, p10 + 33, p10 + 34, p10 + 35, p10 + 36, p10 + 37, p10 + 38, p10 + 39, 8};
Line(11) = {4, 9};
Line(12) = {9, 7};
Line(13) = {5, 9};
p14 = newp;
Point(p14 + 1) = {25.04302647279143, 0.4554721478227847, 0};
Point(p14 + 2) = {24.99653464350374, 0.6491245536658802, 0};
Point(p14 + 3) = {24.92032129527153, 0.8331198526019419, 0};
Point(p14 + 4) = {24.81626305366588, 1.002927469725777, 0};
Point(p14 + 5) = {24.68692217794463, 1.154366177944625, 0};
Point(p14 + 6) = {24.53548346972578, 1.28370705366588, 0};
Point(p14 + 7) = {24.36567585260194, 1.38776529527153, 0};
Point(p14 + 8) = {24.18168055366588, 1.463978643503739, 0};
Point(p14 + 9) = {23.98802814782279, 1.510470472791428, 0};
Point(p14 + 10) = {23.789487, 1.526096, 0};
Point(p14 + 11) = {23.59094585217722, 1.510470472791428, 0};
Point(p14 + 12) = {23.39729344633412, 1.463978643503739, 0};
Point(p14 + 13) = {23.21329814739806, 1.38776529527153, 0};
Point(p14 + 14) = {23.04349053027422, 1.28370705366588, 0};
Point(p14 + 15) = {22.89205182205538, 1.154366177944625, 0};
Point(p14 + 16) = {22.76271094633412, 1.002927469725777, 0};
Point(p14 + 17) = {22.65865270472847, 0.8331198526019421, 0};
Point(p14 + 18) = {22.58243935649626, 0.6491245536658803, 0};
Point(p14 + 19) = {22.53594752720857, 0.4554721478227848, 0};
Point(p14 + 20) = {22.520322, 0.2569310000000002, 0};
Point(p14 + 21) = {22.53594752720857, 0.05838985217721557, 0};
Point(p14 + 22) = {22.58243935649626, -0.1352625536658805, 0};
Point(p14 + 23) = {22.65865270472847, -0.3192578526019413, 0};
Point(p14 + 24) = {22.76271094633412, -0.4890654697257766, 0};
Point(p14 + 25) = {22.89205182205538, -0.6405041779446246, 0};
Point(p14 + 26) = {23.04349053027422, -0.7698450536658801, 0};
Point(p14 + 27) = {23.21329814739806, -0.8739032952715298, 0};
Point(p14 + 28) = {23.39729344633412, -0.9501166435037387, 0};
Point(p14 + 29) = {23.59094585217722, -0.9966084727914279, 0};
Point(p14 + 30) = {23.789487, -1.012234, 0};
Point(p14 + 31) = {23.98802814782279, -0.9966084727914282, 0};
Point(p14 + 32) = {24.18168055366588, -0.9501166435037387, 0};
Point(p14 + 33) = {24.36567585260194, -0.87390329527153, 0};
Point(p14 + 34) = {24.53548346972578, -0.7698450536658803, 0};
Point(p14 + 35) = {24.68692217794463, -0.6405041779446249, 0};
Point(p14 + 36) = {24.81626305366588, -0.489065469725777, 0};
Point(p14 + 37) = {24.92032129527153, -0.3192578526019422, 0};
Point(p14 + 38) = {24.99653464350374, -0.1352625536658804, 0};
Point(p14 + 39) = {25.04302647279143, 0.05838985217721512, 0};
Spline(14) = {10, p14 + 1, p14 + 2, p14 + 3, p14 + 4, p14 + 5, p14 + 6, p14 + 7, p14 + 8, p14 + 9, p14 + 10, p14 + 11, p14 + 12, p14 + 13, p14 + 14, p14 + 15, p14 + 16, p14 + 17, p14 + 18, p14 + 19, p14 + 20, p14 + 21, p14 + 22, p14 + 23, p14 + 24, p14 + 25, p14 + 26, p14 + 27, p14 + 28, p14 + 29, p14 + 30, p14 + 31, p14 + 32, p14 + 33, p14 + 34, p14 + 35, p14 + 36, p14 + 37, p14 + 38, p14 + 39, 10};
Line(15) = {10, 8};
Curve Loop(1) = {-1, 4, 3, -2};
Plane Surface(1) = {1};
Curve Loop(2) = {-5, 1, 7, -6};
Plane Surface(2) = {2};
Curve Loop(3) = {-2, 7, 9, -8, -10};
Plane Surface(3) = {3};
Curve Loop(4) = {-11, 3, 8, -12};
Plane Surface(4) = {4};
Curve Loop(5) = {-4, 5, 13, -11, -14};
Plane Surface(5) = {5};
Curve Loop(6) = {-6, 13, 12, -9};
Plane Surface(6) = {6};
Curve Loop(7) = {-10, -15, 14, 15};
Surface(7) = {7};
Surface Loop(1) = {1, 2, 3, 4, 5, 6, 7};
Volume(1) = {1};
Physical Surface("INFLOW") = {1};
Physical Surface("OUTFLOW") = {6};
Physical Surface("OBSTACLE") = {7};
Physical Surface("WALL_Y") = {2, 4};
Physical Surface("WALL_Z") = {3, 5};
Physical Volume("FLUID") = {1};
