cl__1 = 1;
cl__2 = 0.133922;
cl__3 = 0.141398;
Point(1) = {0.055909, -3.811739, 1, cl__1};
Point(2) = {0.055909, -3.811739, 0, cl__1};
Point(3) = {0.055909, 5.804524, 1, cl__1};
Point(4) = {0.055909, 5.804524, 0, cl__1};
Point(5) = {32.194116, -3.811739, 0, cl__1};
Point(6) = {32.194116, -3.811739, 1, cl__1};
Point(7) = {32.194116, 5.804524, 1, cl__1};
Point(8) = {27.01051, -1.396237, 1, cl__2};
Point(9) = {27.369205, 1.900429, 1, cl__3};
Point(10) = {32.194116, 5.804524, 0, cl__1};
Point(11) = {27.01051, -1.396237, 0, cl__2};
Point(12) = {27.369205, 1.900429, 0, cl__3};
Line(1) = {2, 1};
Line(2) = {1, 3};
Line(3) = {4, 3};
Line(4) = {2, 4};
Line(5) = {2, 5};
Line(6) = {5, 6};
Line(7) = {1, 6};
Line(8) = {3, 7};
Line(9) = {6, 7};
p10 = newp;
Point(p10 + 1) = {26.9940219548685, -1.186736522859892, 1};
Point(p10 + 2) = {26.94496380986583, -0.9823946427591942, 1};
Point(p10 + 3) = {26.86454353933659, -0.7882429349578047, 1};
Point(p10 + 4) = {26.75474135724081, -0.6090620588543696, 1};
Point(p10 + 5) = {26.61826095771421, -0.4492640422857895, 1};
Point(p10 + 6) = {26.45846294114563, -0.3127836427591941, 1};
Point(p10 + 7) = {26.2792820650422, -0.2029814606634057, 1};
Point(p10 + 8) = {26.08513035724081, -0.1225611901341719, 1};
Point(p10 + 9) = {25.88078847714011, -0.07350304513149841, 1};
Point(p10 + 10) = {25.671288, -0.05701500000000004, 1};
Point(p10 + 11) = {25.46178752285989, -0.07350304513149863, 1};
Point(p10 + 12) = {25.25744564275919, -0.1225611901341719, 1};
Point(p10 + 13) = {25.06329393495781, -0.2029814606634055, 1};
Point(p10 + 14) = {24.88411305885437, -0.3127836427591941, 1};
Point(p10 + 15) = {24.72431504228579, -0.4492640422857894, 1};
Point(p10 + 16) = {24.58783464275919, -0.6090620588543694, 1};
Point(p10 + 17) = {24.47803246066341, -0.7882429349578046, 1};
Point(p10 + 18) = {24.39761219013417, -0.9823946427591941, 1};
Point(p10 + 19) = {24.3485540451315, -1.186736522859892, 1};
Point(p10 + 20) = {24.332066, -1.396237, 1};
Point(p10 + 21) = {24.3485540451315, -1.605737477140108, 1};
Point(p10 + 22) = {24.39761219013417, -1.810079357240806, 1};
Point(p10 + 23) = {24.47803246066341, -2.004231065042195, 1};
Point(p10 + 24) = {24.58783464275919, -2.18341194114563, 1};
Point(p10 + 25) = {24.72431504228579, -2.34320995771421, 1};
Point(p10 + 26) = {24.88411305885437, -2.479690357240806, 1};
Point(p10 + 27) = {25.06329393495781, -2.589492539336594, 1};
Point(p10 + 28) = {25.25744564275919, -2.669912809865828, 1};
Point(p10 + 29) = {25.46178752285989, -2.718970954868501, 1};
Point(p10 + 30) = {25.671288, -2.735459, 1};
Point(p10 + 31) = {25.88078847714011, -2.718970954868501, 1};
Point(p10 + 32) = {26.08513035724081, -2.669912809865828, 1};
Point(p10 + 33) = {26.2792820650422, -2.589492539336594, 1};
Point(p10 + 34) = {26.45846294114563, -2.479690357240806, 1};
Point(p10 + 35) = {26.61826095771421, -2.343209957714211, 1};
Point(p10 + 36) = {26.75474135724081, -2.183411941145631, 1};
Point(p10 + 37) = {26.86454353933659, -2.004231065042196, 1};
Point(p10 + 38) = {26.94496380986583, -1.810079357240806, 1};
Point(p10 + 39) = {26.9940219548685, -1.605737477140108, 1};
Spline(10) = {8, p10 + 1, p10 + 2, p10 + 3, p10 + 4, p10 + 5, p10 + 6, p10 + 7, p10 + 8, p10 + 9, p10 + 10, p10 + 11, p10 + 12, p10 + 13, p10 + 14, p10 + 15, p10 + 16, p10 + 17, p10 + 18, p10 + 19, p10 + 20, p10 + 21, p10 + 22, p10 + 23, p10 + 24, p10 + 25, p10 + 26, p10 + 27, p10 + 28, p10 + 29, p10 + 30, p10 + 31, p10 + 32, p10 + 33, p10 + 34, p10 + 35, p10 + 36, p10 + 37, p10 + 38, p10 + 39, 8};
p11 = newp;
Point(p11 + 1) = {27.35179655983471, 2.121624204877586, 1};
Point(p11 + 2) = {27.29999989291102, 2.337372849706288, 1};
Point(p11 + 3) = {27.21509040507187, 2.542362486821724, 1};
Point(p11 + 4) = {27.09915884970629, 2.731545591036511, 1};
Point(p11 + 5) = {26.95505984646215, 2.900263846462154, 1};
Point(p11 + 6) = {26.78634159103651, 3.044362849706288, 1};
Point(p11 + 7) = {26.59715848682172, 3.160294405071868, 1};
Point(p11 + 8) = {26.39216884970629, 3.245203892911021, 1};
Point(p11 + 9) = {26.17642020487758, 3.297000559834713, 1};
Point(p11 + 10) = {25.955225, 3.314409, 1};
Point(p11 + 11) = {25.73402979512241, 3.297000559834713, 1};
Point(p11 + 12) = {25.51828115029371, 3.245203892911021, 1};
Point(p11 + 13) = {25.31329151317827, 3.160294405071868, 1};
Point(p11 + 14) = {25.12410840896349, 3.044362849706288, 1};
Point(p11 + 15) = {24.95539015353785, 2.900263846462154, 1};
Point(p11 + 16) = {24.81129115029371, 2.731545591036511, 1};
Point(p11 + 17) = {24.69535959492813, 2.542362486821724, 1};
Point(p11 + 18) = {24.61045010708898, 2.337372849706288, 1};
Point(p11 + 19) = {24.55865344016529, 2.121624204877586, 1};
Point(p11 + 20) = {24.541245, 1.900429, 1};
Point(p11 + 21) = {24.55865344016529, 1.679233795122415, 1};
Point(p11 + 22) = {24.61045010708898, 1.463485150293711, 1};
Point(p11 + 23) = {24.69535959492813, 1.258495513178276, 1};
Point(p11 + 24) = {24.81129115029371, 1.069312408963489, 1};
Point(p11 + 25) = {24.95539015353785, 0.9005941535378456, 1};
Point(p11 + 26) = {25.12410840896349, 0.7564951502937118, 1};
Point(p11 + 27) = {25.31329151317827, 0.6405635949281316, 1};
Point(p11 + 28) = {25.51828115029371, 0.5556541070889787, 1};
Point(p11 + 29) = {25.73402979512241, 0.5038574401652871, 1};
Point(p11 + 30) = {25.955225, 0.4864489999999999, 1};
Point(p11 + 31) = {26.17642020487758, 0.5038574401652871, 1};
Point(p11 + 32) = {26.39216884970629, 0.5556541070889787, 1};
Point(p11 + 33) = {26.59715848682172, 0.6405635949281314, 1};
Point(p11 + 34) = {26.78634159103651, 0.7564951502937116, 1};
Point(p11 + 35) = {26.95505984646215, 0.9005941535378452, 1};
Point(p11 + 36) = {27.09915884970628, 1.069312408963488, 1};
Point(p11 + 37) = {27.21509040507187, 1.258495513178275, 1};
Point(p11 + 38) = {27.29999989291102, 1.463485150293712, 1};
Point(p11 + 39) = {27.35179655983471, 1.679233795122414, 1};
Spline(11) = {9, p11 + 1, p11 + 2, p11 + 3, p11 + 4, p11 + 5, p11 + 6, p11 + 7, p11 + 8, p11 + 9, p11 + 10, p11 + 11, p11 + 12, p11 + 13, p11 + 14, p11 + 15, p11 + 16, p11 + 17, p11 + 18, p11 + 19, p11 + 20, p11 + 21, p11 + 22, p11 + 23, p11 + 24, p11 + 25, p11 + 26, p11 + 27, p11 + 28, p11 + 29, p11 + 30, p11 + 31, p11 + 32, p11 + 33, p11 + 34, p11 + 35, p11 + 36, p11 + 37, p11 + 38, p11 + 39, 9};
Line(12) = {4, 10};
Line(13) = {10, 7};
Line(14) = {5, 10};
p15 = newp;
Point(p15 + 1) = {26.9940219548685, -1.186736522859892, 0};
Point(p15 + 2) = {26.94496380986583, -0.9823946427591942, 0};
Point(p15 + 3) = {26.86454353933659, -0.7882429349578047, 0};
Point(p15 + 4) = {26.75474135724081, -0.6090620588543696, 0};
Point(p15 + 5) = {26.61826095771421, -0.4492640422857895, 0};
Point(p15 + 6) = {26.45846294114563, -0.3127836427591941, 0};
Point(p15 + 7) = {26.2792820650422, -0.2029814606634057, 0};
Point(p15 + 8) = {26.08513035724081, -0.1225611901341719, 0};
Point(p15 + 9) = {25.88078847714011, -0.07350304513149841, 0};
Point(p15 + 10) = {25.671288, -0.05701500000000004, 0};
Point(p15 + 11) = {25.46178752285989, -0.07350304513149863, 0};
Point(p15 + 12) = {25.25744564275919, -0.1225611901341719, 0};
Point(p15 + 13) = {25.06329393495781, -0.2029814606634055, 0};
Point(p15 + 14) = {24.88411305885437, -0.3127836427591941, 0};
Point(p15 + 15) = {24.72431504228579, -0.4492640422857894, 0};
Point(p15 + 16) = {24.58783464275919, -0.6090620588543694, 0};
Point(p15 + 17) = {24.47803246066341, -0.7882429349578046, 0};
Point(p15 + 18) = {24.39761219013417, -0.9823946427591941, 0};
Point(p15 + 19) = {24.3485540451315, -1.186736522859892, 0};
Point(p15 + 20) = {24.332066, -1.396237, 0};
Point(p15 + 21) = {24.3485540451315, -1.605737477140108, 0};
Point(p15 + 22) = {24.39761219013417, -1.810079357240806, 0};
Point(p15 + 23) = {24.47803246066341, -2.004231065042195, 0};
Point(p15 + 24) = {24.58783464275919, -2.18341194114563, 0};
Point(p15 + 25) = {24.72431504228579, -2.34320995771421, 0};
Point(p15 + 26) = {24.88411305885437, -2.479690357240806, 0};
Point(p15 + 27) = {25.06329393495781, -2.589492539336594, 0};
Point(p15 + 28) = {25.25744564275919, -2.669912809865828, 0};
Point(p15 + 29) = {25.46178752285989, -2.718970954868501, 0};
Point(p15 + 30) = {25.671288, -2.735459, 0};
Point(p15 + 31) = {25.88078847714011, -2.718970954868501, 0};
Point(p15 + 32) = {26.08513035724081, -2.669912809865828, 0};
Point(p15 + 33) = {26.2792820650422, -2.589492539336594, 0};
Point(p15 + 34) = {26.45846294114563, -2.479690357240806, 0};
Point(p15 + 35) = {26.61826095771421, -2.343209957714211, 0};
Point(p15 + 36) = {26.75474135724081, -2.183411941145631, 0};
Point(p15 + 37) = {26.86454353933659, -2.004231065042196, 0};
Point(p15 + 38) = {26.94496380986583, -1.810079357240806, 0};
Point(p15 + 39) = {26.9940219548685, -1.605737477140108, 0};
Spline(15) = {11, p15 + 1, p15 + 2, p15 + 3, p15 + 4, p15 + 5, p15 + 6, p15 + 7, p15 + 8, p15 + 9, p15 + 10, p15 + 11, p15 + 12, p15 + 13, p15 + 14, p15 + 15, p15 + 16, p15 + 17, p15 + 18, p15 + 19, p15 + 20, p15 + 21, p15 + 22, p15 + 23, p15 + 24, p15 + 25, p15 + 26, p15 + 27, p15 + 28, p15 + 29, p15 + 30, p15 + 31, p15 + 32, p15 + 33, p15 + 34, p15 + 35, p15 + 36, p15 + 37, p15 + 38, p15 + 39, 11};
p16 = newp;
Point(p16 + 1) = {27.35179655983471, 2.121624204877586, 0};
Point(p16 + 2) = {27.29999989291102, 2.337372849706288, 0};
Point(p16 + 3) = {27.21509040507187, 2.542362486821724, 0};
Point(p16 + 4) = {27.09915884970629, 2.731545591036511, 0};
Point(p16 + 5) = {26.95505984646215, 2.900263846462154, 0};
Point(p16 + 6) = {26.78634159103651, 3.044362849706288, 0};
Point(p16 + 7) = {26.59715848682172, 3.160294405071868, 0};
Point(p16 + 8) = {26.39216884970629, 3.245203892911021, 0};
Point(p16 + 9) = {26.17642020487758, 3.297000559834713, 0};
Point(p16 + 10) = {25.955225, 3.314409, 0};
Point(p16 + 11) = {25.73402979512241, 3.297000559834713, 0};
Point(p16 + 12) = {25.51828115029371, 3.245203892911021, 0};
Point(p16 + 13) = {25.31329151317827, 3.160294405071868, 0};
Point(p16 + 14) = {25.12410840896349, 3.044362849706288, 0};
Point(p16 + 15) = {24.95539015353785, 2.900263846462154, 0};
Point(p16 + 16) = {24.81129115029371, 2.731545591036511, 0};
Point(p16 + 17) = {24.69535959492813, 2.542362486821724, 0};
Point(p16 + 18) = {24.61045010708898, 2.337372849706288, 0};
Point(p16 + 19) = {24.55865344016529, 2.121624204877586, 0};
Point(p16 + 20) = {24.541245, 1.900429, 0};
Point(p16 + 21) = {24.55865344016529, 1.679233795122415, 0};
Point(p16 + 22) = {24.61045010708898, 1.463485150293711, 0};
Point(p16 + 23) = {24.69535959492813, 1.258495513178276, 0};
Point(p16 + 24) = {24.81129115029371, 1.069312408963489, 0};
Point(p16 + 25) = {24.95539015353785, 0.9005941535378456, 0};
Point(p16 + 26) = {25.12410840896349, 0.7564951502937118, 0};
Point(p16 + 27) = {25.31329151317827, 0.6405635949281316, 0};
Point(p16 + 28) = {25.51828115029371, 0.5556541070889787, 0};
Point(p16 + 29) = {25.73402979512241, 0.5038574401652871, 0};
Point(p16 + 30) = {25.955225, 0.4864489999999999, 0};
Point(p16 + 31) = {26.17642020487758, 0.5038574401652871, 0};
Point(p16 + 32) = {26.39216884970629, 0.5556541070889787, 0};
Point(p16 + 33) = {26.59715848682172, 0.6405635949281314, 0};
Point(p16 + 34) = {26.78634159103651, 0.7564951502937116, 0};
Point(p16 + 35) = {26.95505984646215, 0.9005941535378452, 0};
Point(p16 + 36) = {27.09915884970628, 1.069312408963488, 0};
Point(p16 + 37) = {27.21509040507187, 1.258495513178275, 0};
Point(p16 + 38) = {27.29999989291102, 1.463485150293712, 0};
Point(p16 + 39) = {27.35179655983471, 1.679233795122414, 0};
Spline(16) = {12, p16 + 1, p16 + 2, p16 + 3, p16 + 4, p16 + 5, p16 + 6, p16 + 7, p16 + 8, p16 + 9, p16 + 10, p16 + 11, p16 + 12, p16 + 13, p16 + 14, p16 + 15, p16 + 16, p16 + 17, p16 + 18, p16 + 19, p16 + 20, p16 + 21, p16 + 22, p16 + 23, p16 + 24, p16 + 25, p16 + 26, p16 + 27, p16 + 28, p16 + 29, p16 + 30, p16 + 31, p16 + 32, p16 + 33, p16 + 34, p16 + 35, p16 + 36, p16 + 37, p16 + 38, p16 + 39, 12};
Line(17) = {11, 8};
Line(18) = {12, 9};
Curve Loop(1) = {-1, 4, 3, -2};
Plane Surface(1) = {1};
Curve Loop(2) = {-5, 1, 7, -6};
Plane Surface(2) = {2};
Curve Loop(3) = {-2, 7, 9, -8, -10, -11};
Plane Surface(3) = {3};
Curve Loop(4) = {-12, 3, 8, -13};
Plane Surface(4) = {4};
Curve Loop(5) = {-4, 5, 14, -12, -15, -16};
Plane Surface(5) = {5};
Curve Loop(6) = {-6, 14, 13, -9};
Plane Surface(6) = {6};
Curve Loop(7) = {-10, -17, 15, 17};
Surface(7) = {7};
Curve Loop(8) = {-11, -18, 16, 18};
Surface(8) = {8};
Surface Loop(1) = {1, 2, 3, 4, 5, 6, 7, 8};
Volume(1) = {1};
Physical Surface("INFLOW") = {1};
Physical Surface("OUTFLOW") = {6};
Physical Surface("OBSTACLE") = {7, 8};
Physical Surface("WALL_Y") = {2, 4};
Physical Surface("WALL_Z") = {3, 5};
Physical Volume("FLUID") = {1};
