cl__1 = 3.700183;
cl__2 = 0.660632;
cl__3 = 0.364878;
cl__4 = 0.082505;
cl__5 = 0.056228;
Point(1) = {0.841167, -3.641687, 1, cl__1};
Point(2) = {0.841167, -3.641687, 0, cl__1};
Point(3) = {0.841167, 3.937239, 1, cl__2};
Point(4) = {0.841167, 3.937239, 0, cl__2};
Point(5) = {36.807269, -3.641687, 0, cl__3};
Point(6) = {36.807269, -3.641687, 1, cl__3};
Point(7) = {36.807269, 3.937239, 1, cl__2};
Point(8) = {5.907489, -2.218036, 1, cl__4};
Point(9) = {32.688317, 1.787393, 1, cl__5};
Point(10) = {36.807269, 3.937239, 0, cl__2};
Point(11) = {5.907489, -2.218036, 0, cl__4};
Point(12) = {32.688317, 1.787393, 0, cl__5};
Line(1) = {2, 1};
Line(2) = {1, 3};
Line(3) = {4, 3};
Line(4) = {2, 4};
Line(5) = {2, 5};
Line(6) = {5, 6};
Line(7) = {1, 6};
Line(8) = {3, 7};
Line(9) = {6, 7};
p10 = newp;
Point(p10 + 1) = {5.897331265408019, -2.088969744618558, 1};
Point(p10 + 2) = {5.867108178769317, -1.96308152879095, 1};
Point(p10 + 3) = {5.817563932781613, -1.843471138189887, 1};
Point(p10 + 4) = {5.749918471209051, -1.733083777596095, 1};
Point(p10 + 5) = {5.665837449817961, -1.634637550182039, 1};
Point(p10 + 6) = {5.567391222403905, -1.55055652879095, 1};
Point(p10 + 7) = {5.457003861810113, -1.482911067218387, 1};
Point(p10 + 8) = {5.33739347120905, -1.433366821230684, 1};
Point(p10 + 9) = {5.211505255381442, -1.403143734591982, 1};
Point(p10 + 10) = {5.082439, -1.392986, 1};
Point(p10 + 11) = {4.953372744618557, -1.403143734591982, 1};
Point(p10 + 12) = {4.82748452879095, -1.433366821230684, 1};
Point(p10 + 13) = {4.707874138189887, -1.482911067218387, 1};
Point(p10 + 14) = {4.597486777596095, -1.55055652879095, 1};
Point(p10 + 15) = {4.499040550182039, -1.634637550182039, 1};
Point(p10 + 16) = {4.414959528790949, -1.733083777596095, 1};
Point(p10 + 17) = {4.347314067218387, -1.843471138189887, 1};
Point(p10 + 18) = {4.297769821230683, -1.96308152879095, 1};
Point(p10 + 19) = {4.267546734591981, -2.088969744618558, 1};
Point(p10 + 20) = {4.257389, -2.218036, 1};
Point(p10 + 21) = {4.267546734591981, -2.347102255381443, 1};
Point(p10 + 22) = {4.297769821230683, -2.472990471209051, 1};
Point(p10 + 23) = {4.347314067218387, -2.592600861810113, 1};
Point(p10 + 24) = {4.414959528790949, -2.702988222403905, 1};
Point(p10 + 25) = {4.499040550182039, -2.801434449817961, 1};
Point(p10 + 26) = {4.597486777596095, -2.88551547120905, 1};
Point(p10 + 27) = {4.707874138189887, -2.953160932781613, 1};
Point(p10 + 28) = {4.82748452879095, -3.002705178769316, 1};
Point(p10 + 29) = {4.953372744618557, -3.032928265408018, 1};
Point(p10 + 30) = {5.082439, -3.043086, 1};
Point(p10 + 31) = {5.211505255381442, -3.032928265408018, 1};
Point(p10 + 32) = {5.33739347120905, -3.002705178769316, 1};
Point(p10 + 33) = {5.457003861810113, -2.953160932781613, 1};
Point(p10 + 34) = {5.567391222403905, -2.885515471209051, 1};
Point(p10 + 35) = {5.66583744981796, -2.801434449817961, 1};
Point(p10 + 36) = {5.749918471209051, -2.702988222403905, 1};
Point(p10 + 37) = {5.817563932781613, -2.592600861810114, 1};
Point(p10 + 38) = {5.867108178769317, -2.472990471209051, 1};
Point(p10 + 39) = {5.897331265408019, -2.347102255381443, 1};
Spline(10) = {8, p10 + 1, p10 + 2, p10 + 3, p10 + 4, p10 + 5, p10 + 6, p10 + 7, p10 + 8, p10 + 9, p10 + 10, p10 + 11, p10 + 12, p10 + 13, p10 + 14, p10 + 15, p10 + 16, p10 + 17, p10 + 18, p10 + 19, p10 + 20, p10 + 21, p10 + 22, p10 + 23, p10 + 24, p10 + 25, p10 + 26, p10 + 27, p10 + 28, p10 + 29, p10 + 30, p10 + 31, p10 + 32, p10 + 33, p10 + 34, p10 + 35, p10 + 36, p10 + 37, p10 + 38, p10 + 39, 8};
p11 = newp;
Point(p11 + 1) = {32.68139438783817, 1.875353127437286, 1};
Point(p11 + 2) = {32.66079700903895, 1.96114738461414, 1};
Point(p11 + 3) = {32.62703203942716, 2.042663232184052, 1};
Point(p11 + 4) = {32.58093088461414, 2.117893479444264, 1};
Point(p11 + 5) = {32.52362870803235, 2.184985708032353, 1};
Point(p11 + 6) = {32.45653647944426, 2.24228788461414, 1};
Point(p11 + 7) = {32.38130623218405, 2.28838903942716, 1};
Point(p11 + 8) = {32.29979038461414, 2.322154009038955, 1};
Point(p11 + 9) = {32.21399612743728, 2.342751387838175, 1};
Point(p11 + 10) = {32.126036, 2.349674, 1};
Point(p11 + 11) = {32.03807587256271, 2.342751387838175, 1};
Point(p11 + 12) = {31.95228161538586, 2.322154009038955, 1};
Point(p11 + 13) = {31.87076576781595, 2.28838903942716, 1};
Point(p11 + 14) = {31.79553552055573, 2.24228788461414, 1};
Point(p11 + 15) = {31.72844329196765, 2.184985708032353, 1};
Point(p11 + 16) = {31.67114111538586, 2.117893479444264, 1};
Point(p11 + 17) = {31.62503996057284, 2.042663232184052, 1};
Point(p11 + 18) = {31.59127499096104, 1.96114738461414, 1};
Point(p11 + 19) = {31.57067761216182, 1.875353127437286, 1};
Point(p11 + 20) = {31.563755, 1.787393, 1};
Point(p11 + 21) = {31.57067761216182, 1.699432872562714, 1};
Point(p11 + 22) = {31.59127499096104, 1.61363861538586, 1};
Point(p11 + 23) = {31.62503996057284, 1.532122767815948, 1};
Point(p11 + 24) = {31.67114111538586, 1.456892520555736, 1};
Point(p11 + 25) = {31.72844329196765, 1.389800291967647, 1};
Point(p11 + 26) = {31.79553552055573, 1.33249811538586, 1};
Point(p11 + 27) = {31.87076576781595, 1.28639696057284, 1};
Point(p11 + 28) = {31.95228161538586, 1.252631990961045, 1};
Point(p11 + 29) = {32.03807587256271, 1.232034612161825, 1};
Point(p11 + 30) = {32.126036, 1.225112, 1};
Point(p11 + 31) = {32.21399612743728, 1.232034612161825, 1};
Point(p11 + 32) = {32.29979038461414, 1.252631990961045, 1};
Point(p11 + 33) = {32.38130623218405, 1.28639696057284, 1};
Point(p11 + 34) = {32.45653647944426, 1.33249811538586, 1};
Point(p11 + 35) = {32.52362870803235, 1.389800291967647, 1};
Point(p11 + 36) = {32.58093088461414, 1.456892520555736, 1};
Point(p11 + 37) = {32.62703203942716, 1.532122767815948, 1};
Point(p11 + 38) = {32.66079700903895, 1.61363861538586, 1};
Point(p11 + 39) = {32.68139438783817, 1.699432872562714, 1};
Spline(11) = {9, p11 + 1, p11 + 2, p11 + 3, p11 + 4, p11 + 5, p11 + 6, p11 + 7, p11 + 8, p11 + 9, p11 + 10, p11 + 11, p11 + 12, p11 + 13, p11 + 14, p11 + 15, p11 + 16, p11 + 17, p11 + 18, p11 + 19, p11 + 20, p11 + 21, p11 + 22, p11 + 23, p11 + 24, p11 + 25, p11 + 26, p11 + 27, p11 + 28, p11 + 29, p11 + 30, p11 + 31, p11 + 32, p11 + 33, p11 + 34, p11 + 35, p11 + 36, p11 + 37, p11 + 38, p11 + 39, 9};
Line(12) = {4, 10};
Line(13) = {10, 7};
Line(14) = {5, 10};
p15 = newp;
Point(p15 + 1) = {5.897331265408019, -2.088969744618558, 0};
Point(p15 + 2) = {5.867108178769317, -1.96308152879095, 0};
Point(p15 + 3) = {5.817563932781613, -1.843471138189887, 0};
Point(p15 + 4) = {5.749918471209051, -1.733083777596095, 0};
Point(p15 + 5) = {5.665837449817961, -1.634637550182039, 0};
Point(p15 + 6) = {5.567391222403905, -1.55055652879095, 0};
Point(p15 + 7) = {5.457003861810113, -1.482911067218387, 0};
Point(p15 + 8) = {5.33739347120905, -1.433366821230684, 0};
Point(p15 + 9) = {5.211505255381442, -1.403143734591982, 0};
Point(p15 + 10) = {5.082439, -1.392986, 0};
Point(p15 + 11) = {4.953372744618557, -1.403143734591982, 0};
Point(p15 + 12) = {4.82748452879095, -1.433366821230684, 0};
Point(p15 + 13) = {4.707874138189887, -1.482911067218387, 0};
Point(p15 + 14) = {4.597486777596095, -1.55055652879095, 0};
Point(p15 + 15) = {4.499040550182039, -1.634637550182039, 0};
Point(p15 + 16) = {4.414959528790949, -1.733083777596095, 0};
Point(p15 + 17) = {4.347314067218387, -1.843471138189887, 0};
Point(p15 + 18) = {4.297769821230683, -1.96308152879095, 0};
Point(p15 + 19) = {4.267546734591981, -2.088969744618558, 0};
Point(p15 + 20) = {4.257389, -2.218036, 0};
Point(p15 + 21) = {4.267546734591981, -2.347102255381443, 0};
Point(p15 + 22) = {4.297769821230683, -2.472990471209051, 0};
Point(p15 + 23) = {4.347314067218387, -2.592600861810113, 0};
Point(p15 + 24) = {4.414959528790949, -2.702988222403905, 0};
Point(p15 + 25) = {4.499040550182039, -2.801434449817961, 0};
Point(p15 + 26) = {4.597486777596095, -2.88551547120905, 0};
Point(p15 + 27) = {4.707874138189887, -2.953160932781613, 0};
Point(p15 + 28) = {4.82748452879095, -3.002705178769316, 0};
Point(p15 + 29) = {4.953372744618557, -3.032928265408018, 0};
Point(p15 + 30) = {5.082439, -3.043086, 0};
Point(p15 + 31) = {5.211505255381442, -3.032928265408018, 0};
Point(p15 + 32) = {5.33739347120905, -3.002705178769316, 0};
Point(p15 + 33) = {5.457003861810113, -2.953160932781613, 0};
Point(p15 + 34) = {5.567391222403905, -2.885515471209051, 0};
Point(p15 + 35) = {5.66583744981796, -2.801434449817961, 0};
Point(p15 + 36) = {5.749918471209051, -2.702988222403905, 0};
Point(p15 + 37) = {5.817563932781613, -2.592600861810114, 0};
Point(p15 + 38) = {5.867108178769317, -2.472990471209051, 0};
Point(p15 + 39) = {5.897331265408019, -2.347102255381443, 0};
Spline(15) = {11, p15 + 1, p15 + 2, p15 + 3, p15 + 4, p15 + 5, p15 + 6, p15 + 7, p15 + 8, p15 + 9, p15 + 10, p15 + 11, p15 + 12, p15 + 13, p15 + 14, p15 + 15, p15 + 16, p15 + 17, p15 + 18, p15 + 19, p15 + 20, p15 + 21, p15 + 22, p15 + 23, p15 + 24, p15 + 25, p15 + 26, p15 + 27, p15 + 28, p15 + 29, p15 + 30, p15 + 31, p15 + 32, p15 + 33, p15 + 34, p15 + 35, p15 + 36, p15 + 37, p15 + 38, p15 + 39, 11};
p16 = newp;
Point(p16 + 1) = {32.68139438783817, 1.875353127437286, 0};
Point(p16 + 2) = {32.66079700903895, 1.96114738461414, 0};
Point(p16 + 3) = {32.62703203942716, 2.042663232184052, 0};
Point(p16 + 4) = {32.58093088461414, 2.117893479444264, 0};
Point(p16 + 5) = {32.52362870803235, 2.184985708032353, 0};
Point(p16 + 6) = {32.45653647944426, 2.24228788461414, 0};
Point(p16 + 7) = {32.38130623218405, 2.28838903942716, 0};
Point(p16 + 8) = {32.29979038461414, 2.322154009038955, 0};
Point(p16 + 9) = {32.21399612743728, 2.342751387838175, 0};
Point(p16 + 10) = {32.126036, 2.349674, 0};
Point(p16 + 11) = {32.03807587256271, 2.342751387838175, 0};
Point(p16 + 12) = {31.95228161538586, 2.322154009038955, 0};
Point(p16 + 13) = {31.87076576781595, 2.28838903942716, 0};
Point(p16 + 14) = {31.79553552055573, 2.24228788461414, 0};
Point(p16 + 15) = {31.72844329196765, 2.184985708032353, 0};
Point(p16 + 16) = {31.67114111538586, 2.117893479444264, 0};
Point(p16 + 17) = {31.62503996057284, 2.042663232184052, 0};
Point(p16 + 18) = {31.59127499096104, 1.96114738461414, 0};
Point(p16 + 19) = {31.57067761216182, 1.875353127437286, 0};
Point(p16 + 20) = {31.563755, 1.787393, 0};
Point(p16 + 21) = {31.57067761216182, 1.699432872562714, 0};
Point(p16 + 22) = {31.59127499096104, 1.61363861538586, 0};
Point(p16 + 23) = {31.62503996057284, 1.532122767815948, 0};
Point(p16 + 24) = {31.67114111538586, 1.456892520555736, 0};
Point(p16 + 25) = {31.72844329196765, 1.389800291967647, 0};
Point(p16 + 26) = {31.79553552055573, 1.33249811538586, 0};
Point(p16 + 27) = {31.87076576781595, 1.28639696057284, 0};
Point(p16 + 28) = {31.95228161538586, 1.252631990961045, 0};
Point(p16 + 29) = {32.03807587256271, 1.232034612161825, 0};
Point(p16 + 30) = {32.126036, 1.225112, 0};
Point(p16 + 31) = {32.21399612743728, 1.232034612161825, 0};
Point(p16 + 32) = {32.29979038461414, 1.252631990961045, 0};
Point(p16 + 33) = {32.38130623218405, 1.28639696057284, 0};
Point(p16 + 34) = {32.45653647944426, 1.33249811538586, 0};
Point(p16 + 35) = {32.52362870803235, 1.389800291967647, 0};
Point(p16 + 36) = {32.58093088461414, 1.456892520555736, 0};
Point(p16 + 37) = {32.62703203942716, 1.532122767815948, 0};
Point(p16 + 38) = {32.66079700903895, 1.61363861538586, 0};
Point(p16 + 39) = {32.68139438783817, 1.699432872562714, 0};
Spline(16) = {12, p16 + 1, p16 + 2, p16 + 3, p16 + 4, p16 + 5, p16 + 6, p16 + 7, p16 + 8, p16 + 9, p16 + 10, p16 + 11, p16 + 12, p16 + 13, p16 + 14, p16 + 15, p16 + 16, p16 + 17, p16 + 18, p16 + 19, p16 + 20, p16 + 21, p16 + 22, p16 + 23, p16 + 24, p16 + 25, p16 + 26, p16 + 27, p16 + 28, p16 + 29, p16 + 30, p16 + 31, p16 + 32, p16 + 33, p16 + 34, p16 + 35, p16 + 36, p16 + 37, p16 + 38, p16 + 39, 12};
Line(17) = {11, 8};
Line(18) = {12, 9};
Curve Loop(1) = {-1, 4, 3, -2};
Plane Surface(1) = {1};
Curve Loop(2) = {-5, 1, 7, -6};
Plane Surface(2) = {2};
Curve Loop(3) = {-2, 7, 9, -8, -10, -11};
Plane Surface(3) = {3};
Curve Loop(4) = {-12, 3, 8, -13};
Plane Surface(4) = {4};
Curve Loop(5) = {-4, 5, 14, -12, -15, -16};
Plane Surface(5) = {5};
Curve Loop(6) = {-6, 14, 13, -9};
Plane Surface(6) = {6};
Curve Loop(7) = {-10, -17, 15, 17};
Surface(7) = {7};
Curve Loop(8) = {-11, -18, 16, 18};
Surface(8) = {8};
Surface Loop(1) = {1, 2, 3, 4, 5, 6, 7, 8};
Volume(1) = {1};
Physical Surface("INFLOW") = {1};
Physical Surface("OUTFLOW") = {6};
Physical Surface("OBSTACLE") = {7, 8};
Physical Surface("WALL_Y") = {2, 4};
Physical Surface("WALL_Z") = {3, 5};
Physical Volume("FLUID") = {1};
