cl__1 = 3.135735;
cl__2 = 0.480755;
cl__3 = 0.09167699999999999;
cl__4 = 0.125949;
Point(1) = {0.491619, -4.139942, 1, cl__1};
Point(2) = {0.491619, -4.139942, 0, cl__1};
Point(3) = {0.491619, 5.532308, 1, cl__2};
Point(4) = {0.491619, 5.532308, 0, cl__2};
Point(5) = {30.982174, -4.139942, 0, cl__1};
Point(6) = {30.982174, -4.139942, 1, cl__1};
Point(7) = {30.982174, 5.532308, 1, cl__2};
Point(8) = {26.502575, -2.230228, 1, cl__3};
Point(9) = {26.787857, 2.330477999999999, 1, cl__4};
Point(10) = {30.982174, 5.532308, 0, cl__2};
Point(11) = {26.502575, -2.230228, 0, cl__3};
Point(12) = {26.787857, 2.330477999999999, 0, cl__4};
Line(1) = {2, 1};
Line(2) = {1, 3};
Line(3) = {4, 3};
Line(4) = {2, 4};
Line(5) = {2, 5};
Line(6) = {5, 6};
Line(7) = {1, 6};
Line(8) = {3, 7};
Line(9) = {6, 7};
p10 = newp;
Point(p10 + 1) = {26.49128800307243, -2.086813106181672, 1};
Point(p10 + 2) = {26.45770493561346, -1.946929563015896, 1};
Point(p10 + 3) = {26.40265272419974, -1.814021767582276, 1};
Point(p10 + 4) = {26.3274869369841, -1.691362350900072, 1};
Point(p10 + 5) = {26.23405840510874, -1.581971594891265, 1};
Point(p10 + 6) = {26.12466764909993, -1.488543063015896, 1};
Point(p10 + 7) = {26.00200823241773, -1.413377275800257, 1};
Point(p10 + 8) = {25.86910043698411, -1.358325064386543, 1};
Point(p10 + 9) = {25.72921689381833, -1.324741996927574, 1};
Point(p10 + 10) = {25.585802, -1.313455, 1};
Point(p10 + 11) = {25.44238710618167, -1.324741996927574, 1};
Point(p10 + 12) = {25.3025035630159, -1.358325064386543, 1};
Point(p10 + 13) = {25.16959576758228, -1.413377275800257, 1};
Point(p10 + 14) = {25.04693635090007, -1.488543063015896, 1};
Point(p10 + 15) = {24.93754559489127, -1.581971594891265, 1};
Point(p10 + 16) = {24.8441170630159, -1.691362350900072, 1};
Point(p10 + 17) = {24.76895127580026, -1.814021767582276, 1};
Point(p10 + 18) = {24.71389906438655, -1.946929563015896, 1};
Point(p10 + 19) = {24.68031599692758, -2.086813106181672, 1};
Point(p10 + 20) = {24.669029, -2.230228, 1};
Point(p10 + 21) = {24.68031599692758, -2.373642893818327, 1};
Point(p10 + 22) = {24.71389906438655, -2.513526436984104, 1};
Point(p10 + 23) = {24.76895127580026, -2.646434232417723, 1};
Point(p10 + 24) = {24.8441170630159, -2.769093649099927, 1};
Point(p10 + 25) = {24.93754559489127, -2.878484405108734, 1};
Point(p10 + 26) = {25.04693635090007, -2.971912936984103, 1};
Point(p10 + 27) = {25.16959576758228, -3.047078724199742, 1};
Point(p10 + 28) = {25.3025035630159, -3.102130935613457, 1};
Point(p10 + 29) = {25.44238710618167, -3.135714003072426, 1};
Point(p10 + 30) = {25.585802, -3.147001, 1};
Point(p10 + 31) = {25.72921689381833, -3.135714003072426, 1};
Point(p10 + 32) = {25.86910043698411, -3.102130935613457, 1};
Point(p10 + 33) = {26.00200823241773, -3.047078724199742, 1};
Point(p10 + 34) = {26.12466764909993, -2.971912936984104, 1};
Point(p10 + 35) = {26.23405840510874, -2.878484405108735, 1};
Point(p10 + 36) = {26.3274869369841, -2.769093649099927, 1};
Point(p10 + 37) = {26.40265272419974, -2.646434232417723, 1};
Point(p10 + 38) = {26.45770493561346, -2.513526436984104, 1};
Point(p10 + 39) = {26.49128800307243, -2.373642893818328, 1};
Spline(10) = {8, p10 + 1, p10 + 2, p10 + 3, p10 + 4, p10 + 5, p10 + 6, p10 + 7, p10 + 8, p10 + 9, p10 + 10, p10 + 11, p10 + 12, p10 + 13, p10 + 14, p10 + 15, p10 + 16, p10 + 17, p10 + 18, p10 + 19, p10 + 20, p10 + 21, p10 + 22, p10 + 23, p10 + 24, p10 + 25, p10 + 26, p10 + 27, p10 + 28, p10 + 29, p10 + 30, p10 + 31, p10 + 32, p10 + 33, p10 + 34, p10 + 35, p10 + 36, p10 + 37, p10 + 38, p10 + 39, 8};
p11 = newp;
Point(p11 + 1) = {26.77235055116119, 2.527506113676915, 1};
Point(p11 + 2) = {26.72621302487813, 2.719682741296285, 1};
Point(p11 + 3) = {26.65058048016958, 2.902275856488461, 1};
Point(p11 + 4) = {26.54731524129629, 3.070789410765604, 1};
Point(p11 + 5) = {26.41896004115699, 3.221074041156988, 1};
Point(p11 + 6) = {26.2686754107656, 3.349429241296285, 1};
Point(p11 + 7) = {26.10016185648846, 3.45269448016958, 1};
Point(p11 + 8) = {25.91756874129629, 3.528327024878132, 1};
Point(p11 + 9) = {25.72539211367691, 3.574464551161192, 1};
Point(p11 + 10) = {25.528364, 3.589971, 1};
Point(p11 + 11) = {25.33133588632309, 3.574464551161191, 1};
Point(p11 + 12) = {25.13915925870371, 3.528327024878132, 1};
Point(p11 + 13) = {24.95656614351154, 3.45269448016958, 1};
Point(p11 + 14) = {24.7880525892344, 3.349429241296285, 1};
Point(p11 + 15) = {24.63776795884301, 3.221074041156988, 1};
Point(p11 + 16) = {24.50941275870371, 3.070789410765604, 1};
Point(p11 + 17) = {24.40614751983042, 2.902275856488461, 1};
Point(p11 + 18) = {24.33051497512187, 2.719682741296285, 1};
Point(p11 + 19) = {24.28437744883881, 2.527506113676916, 1};
Point(p11 + 20) = {24.268871, 2.330478, 1};
Point(p11 + 21) = {24.28437744883881, 2.133449886323084, 1};
Point(p11 + 22) = {24.33051497512187, 1.941273258703714, 1};
Point(p11 + 23) = {24.40614751983042, 1.75868014351154, 1};
Point(p11 + 24) = {24.50941275870371, 1.590166589234396, 1};
Point(p11 + 25) = {24.63776795884301, 1.439881958843012, 1};
Point(p11 + 26) = {24.7880525892344, 1.311526758703714, 1};
Point(p11 + 27) = {24.95656614351154, 1.20826151983042, 1};
Point(p11 + 28) = {25.13915925870371, 1.132628975121868, 1};
Point(p11 + 29) = {25.33133588632309, 1.086491448838808, 1};
Point(p11 + 30) = {25.528364, 1.070985, 1};
Point(p11 + 31) = {25.72539211367691, 1.086491448838808, 1};
Point(p11 + 32) = {25.91756874129629, 1.132628975121868, 1};
Point(p11 + 33) = {26.10016185648846, 1.20826151983042, 1};
Point(p11 + 34) = {26.2686754107656, 1.311526758703714, 1};
Point(p11 + 35) = {26.41896004115699, 1.439881958843011, 1};
Point(p11 + 36) = {26.54731524129629, 1.590166589234396, 1};
Point(p11 + 37) = {26.65058048016958, 1.758680143511539, 1};
Point(p11 + 38) = {26.72621302487813, 1.941273258703714, 1};
Point(p11 + 39) = {26.77235055116119, 2.133449886323084, 1};
Spline(11) = {9, p11 + 1, p11 + 2, p11 + 3, p11 + 4, p11 + 5, p11 + 6, p11 + 7, p11 + 8, p11 + 9, p11 + 10, p11 + 11, p11 + 12, p11 + 13, p11 + 14, p11 + 15, p11 + 16, p11 + 17, p11 + 18, p11 + 19, p11 + 20, p11 + 21, p11 + 22, p11 + 23, p11 + 24, p11 + 25, p11 + 26, p11 + 27, p11 + 28, p11 + 29, p11 + 30, p11 + 31, p11 + 32, p11 + 33, p11 + 34, p11 + 35, p11 + 36, p11 + 37, p11 + 38, p11 + 39, 9};
Line(12) = {4, 10};
Line(13) = {10, 7};
Line(14) = {5, 10};
p15 = newp;
Point(p15 + 1) = {26.49128800307243, -2.086813106181672, 0};
Point(p15 + 2) = {26.45770493561346, -1.946929563015896, 0};
Point(p15 + 3) = {26.40265272419974, -1.814021767582276, 0};
Point(p15 + 4) = {26.3274869369841, -1.691362350900072, 0};
Point(p15 + 5) = {26.23405840510874, -1.581971594891265, 0};
Point(p15 + 6) = {26.12466764909993, -1.488543063015896, 0};
Point(p15 + 7) = {26.00200823241773, -1.413377275800257, 0};
Point(p15 + 8) = {25.86910043698411, -1.358325064386543, 0};
Point(p15 + 9) = {25.72921689381833, -1.324741996927574, 0};
Point(p15 + 10) = {25.585802, -1.313455, 0};
Point(p15 + 11) = {25.44238710618167, -1.324741996927574, 0};
Point(p15 + 12) = {25.3025035630159, -1.358325064386543, 0};
Point(p15 + 13) = {25.16959576758228, -1.413377275800257, 0};
Point(p15 + 14) = {25.04693635090007, -1.488543063015896, 0};
Point(p15 + 15) = {24.93754559489127, -1.581971594891265, 0};
Point(p15 + 16) = {24.8441170630159, -1.691362350900072, 0};
Point(p15 + 17) = {24.76895127580026, -1.814021767582276, 0};
Point(p15 + 18) = {24.71389906438655, -1.946929563015896, 0};
Point(p15 + 19) = {24.68031599692758, -2.086813106181672, 0};
Point(p15 + 20) = {24.669029, -2.230228, 0};
Point(p15 + 21) = {24.68031599692758, -2.373642893818327, 0};
Point(p15 + 22) = {24.71389906438655, -2.513526436984104, 0};
Point(p15 + 23) = {24.76895127580026, -2.646434232417723, 0};
Point(p15 + 24) = {24.8441170630159, -2.769093649099927, 0};
Point(p15 + 25) = {24.93754559489127, -2.878484405108734, 0};
Point(p15 + 26) = {25.04693635090007, -2.971912936984103, 0};
Point(p15 + 27) = {25.16959576758228, -3.047078724199742, 0};
Point(p15 + 28) = {25.3025035630159, -3.102130935613457, 0};
Point(p15 + 29) = {25.44238710618167, -3.135714003072426, 0};
Point(p15 + 30) = {25.585802, -3.147001, 0};
Point(p15 + 31) = {25.72921689381833, -3.135714003072426, 0};
Point(p15 + 32) = {25.86910043698411, -3.102130935613457, 0};
Point(p15 + 33) = {26.00200823241773, -3.047078724199742, 0};
Point(p15 + 34) = {26.12466764909993, -2.971912936984104, 0};
Point(p15 + 35) = {26.23405840510874, -2.878484405108735, 0};
Point(p15 + 36) = {26.3274869369841, -2.769093649099927, 0};
Point(p15 + 37) = {26.40265272419974, -2.646434232417723, 0};
Point(p15 + 38) = {26.45770493561346, -2.513526436984104, 0};
Point(p15 + 39) = {26.49128800307243, -2.373642893818328, 0};
Spline(15) = {11, p15 + 1, p15 + 2, p15 + 3, p15 + 4, p15 + 5, p15 + 6, p15 + 7, p15 + 8, p15 + 9, p15 + 10, p15 + 11, p15 + 12, p15 + 13, p15 + 14, p15 + 15, p15 + 16, p15 + 17, p15 + 18, p15 + 19, p15 + 20, p15 + 21, p15 + 22, p15 + 23, p15 + 24, p15 + 25, p15 + 26, p15 + 27, p15 + 28, p15 + 29, p15 + 30, p15 + 31, p15 + 32, p15 + 33, p15 + 34, p15 + 35, p15 + 36, p15 + 37, p15 + 38, p15 + 39, 11};
p16 = newp;
Point(p16 + 1) = {26.77235055116119, 2.527506113676915, 0};
Point(p16 + 2) = {26.72621302487813, 2.719682741296285, 0};
Point(p16 + 3) = {26.65058048016958, 2.902275856488461, 0};
Point(p16 + 4) = {26.54731524129629, 3.070789410765604, 0};
Point(p16 + 5) = {26.41896004115699, 3.221074041156988, 0};
Point(p16 + 6) = {26.2686754107656, 3.349429241296285, 0};
Point(p16 + 7) = {26.10016185648846, 3.45269448016958, 0};
Point(p16 + 8) = {25.91756874129629, 3.528327024878132, 0};
Point(p16 + 9) = {25.72539211367691, 3.574464551161192, 0};
Point(p16 + 10) = {25.528364, 3.589971, 0};
Point(p16 + 11) = {25.33133588632309, 3.574464551161191, 0};
Point(p16 + 12) = {25.13915925870371, 3.528327024878132, 0};
Point(p16 + 13) = {24.95656614351154, 3.45269448016958, 0};
Point(p16 + 14) = {24.7880525892344, 3.349429241296285, 0};
Point(p16 + 15) = {24.63776795884301, 3.221074041156988, 0};
Point(p16 + 16) = {24.50941275870371, 3.070789410765604, 0};
Point(p16 + 17) = {24.40614751983042, 2.902275856488461, 0};
Point(p16 + 18) = {24.33051497512187, 2.719682741296285, 0};
Point(p16 + 19) = {24.28437744883881, 2.527506113676916, 0};
Point(p16 + 20) = {24.268871, 2.330478, 0};
Point(p16 + 21) = {24.28437744883881, 2.133449886323084, 0};
Point(p16 + 22) = {24.33051497512187, 1.941273258703714, 0};
Point(p16 + 23) = {24.40614751983042, 1.75868014351154, 0};
Point(p16 + 24) = {24.50941275870371, 1.590166589234396, 0};
Point(p16 + 25) = {24.63776795884301, 1.439881958843012, 0};
Point(p16 + 26) = {24.7880525892344, 1.311526758703714, 0};
Point(p16 + 27) = {24.95656614351154, 1.20826151983042, 0};
Point(p16 + 28) = {25.13915925870371, 1.132628975121868, 0};
Point(p16 + 29) = {25.33133588632309, 1.086491448838808, 0};
Point(p16 + 30) = {25.528364, 1.070985, 0};
Point(p16 + 31) = {25.72539211367691, 1.086491448838808, 0};
Point(p16 + 32) = {25.91756874129629, 1.132628975121868, 0};
Point(p16 + 33) = {26.10016185648846, 1.20826151983042, 0};
Point(p16 + 34) = {26.2686754107656, 1.311526758703714, 0};
Point(p16 + 35) = {26.41896004115699, 1.439881958843011, 0};
Point(p16 + 36) = {26.54731524129629, 1.590166589234396, 0};
Point(p16 + 37) = {26.65058048016958, 1.758680143511539, 0};
Point(p16 + 38) = {26.72621302487813, 1.941273258703714, 0};
Point(p16 + 39) = {26.77235055116119, 2.133449886323084, 0};
Spline(16) = {12, p16 + 1, p16 + 2, p16 + 3, p16 + 4, p16 + 5, p16 + 6, p16 + 7, p16 + 8, p16 + 9, p16 + 10, p16 + 11, p16 + 12, p16 + 13, p16 + 14, p16 + 15, p16 + 16, p16 + 17, p16 + 18, p16 + 19, p16 + 20, p16 + 21, p16 + 22, p16 + 23, p16 + 24, p16 + 25, p16 + 26, p16 + 27, p16 + 28, p16 + 29, p16 + 30, p16 + 31, p16 + 32, p16 + 33, p16 + 34, p16 + 35, p16 + 36, p16 + 37, p16 + 38, p16 + 39, 12};
Line(17) = {11, 8};
Line(18) = {12, 9};
Curve Loop(1) = {-1, 4, 3, -2};
Plane Surface(1) = {1};
Curve Loop(2) = {-5, 1, 7, -6};
Plane Surface(2) = {2};
Curve Loop(3) = {-2, 7, 9, -8, -10, -11};
Plane Surface(3) = {3};
Curve Loop(4) = {-12, 3, 8, -13};
Plane Surface(4) = {4};
Curve Loop(5) = {-4, 5, 14, -12, -15, -16};
Plane Surface(5) = {5};
Curve Loop(6) = {-6, 14, 13, -9};
Plane Surface(6) = {6};
Curve Loop(7) = {-10, -17, 15, 17};
Surface(7) = {7};
Curve Loop(8) = {-11, -18, 16, 18};
Surface(8) = {8};
Surface Loop(1) = {1, 2, 3, 4, 5, 6, 7, 8};
Volume(1) = {1};
Physical Surface("INFLOW") = {1};
Physical Surface("OUTFLOW") = {6};
Physical Surface("OBSTACLE") = {7, 8};
Physical Surface("WALL_Y") = {2, 4};
Physical Surface("WALL_Z") = {3, 5};
Physical Volume("FLUID") = {1};
