cl__1 = 3.368523;
cl__2 = 0.804519;
cl__3 = 0.7142539999999999;
cl__4 = 0.114331;
Point(1) = {0.173182, -3.280735, 1, cl__1};
Point(2) = {0.173182, -3.280735, 0, cl__1};
Point(3) = {0.173182, 5.104982, 1, cl__1};
Point(4) = {0.173182, 5.104982, 0, cl__1};
Point(5) = {33.42327, -3.280735, 0, cl__2};
Point(6) = {33.42327, -3.280735, 1, cl__2};
Point(7) = {33.42327, 5.104982, 1, cl__3};
Point(8) = {26.945732, 1.852611, 1, cl__4};
Point(9) = {33.42327, 5.104982, 0, cl__3};
Point(10) = {26.945732, 1.852611, 0, cl__4};
Line(1) = {2, 1};
Line(2) = {1, 3};
Line(3) = {4, 3};
Line(4) = {2, 4};
Line(5) = {2, 5};
Line(6) = {5, 6};
Line(7) = {1, 6};
Line(8) = {3, 7};
Line(9) = {6, 7};
p10 = newp;
Point(p10 + 1) = {26.93165596899749, 2.031463931790682, 1};
Point(p10 + 2) = {26.8897744745889, 2.205912910821827, 1};
Point(p10 + 3) = {26.82111877816328, 2.371662424266721, 1};
Point(p10 + 4) = {26.72737941082183, 2.524631169013255, 1};
Point(p10 + 5) = {26.61086454689161, 2.66105254689161, 1};
Point(p10 + 6) = {26.47444316901326, 2.777567410821827, 1};
Point(p10 + 7) = {26.32147442426672, 2.871306778163278, 1};
Point(p10 + 8) = {26.15572491082183, 2.939962474588896, 1};
Point(p10 + 9) = {25.98127593179068, 2.981843968997486, 1};
Point(p10 + 10) = {25.802423, 2.99592, 1};
Point(p10 + 11) = {25.62357006820932, 2.981843968997486, 1};
Point(p10 + 12) = {25.44912108917817, 2.939962474588896, 1};
Point(p10 + 13) = {25.28337157573328, 2.871306778163278, 1};
Point(p10 + 14) = {25.13040283098675, 2.777567410821827, 1};
Point(p10 + 15) = {24.99398145310839, 2.66105254689161, 1};
Point(p10 + 16) = {24.87746658917817, 2.524631169013255, 1};
Point(p10 + 17) = {24.78372722183672, 2.371662424266721, 1};
Point(p10 + 18) = {24.7150715254111, 2.205912910821827, 1};
Point(p10 + 19) = {24.67319003100252, 2.031463931790682, 1};
Point(p10 + 20) = {24.659114, 1.852611, 1};
Point(p10 + 21) = {24.67319003100252, 1.673758068209319, 1};
Point(p10 + 22) = {24.7150715254111, 1.499309089178173, 1};
Point(p10 + 23) = {24.78372722183672, 1.333559575733279, 1};
Point(p10 + 24) = {24.87746658917817, 1.180590830986745, 1};
Point(p10 + 25) = {24.99398145310839, 1.04416945310839, 1};
Point(p10 + 26) = {25.13040283098675, 0.9276545891781734, 1};
Point(p10 + 27) = {25.28337157573328, 0.8339152218367214, 1};
Point(p10 + 28) = {25.44912108917817, 0.7652595254111043, 1};
Point(p10 + 29) = {25.62357006820932, 0.723378031002514, 1};
Point(p10 + 30) = {25.802423, 0.7093020000000001, 1};
Point(p10 + 31) = {25.98127593179068, 0.7233780310025137, 1};
Point(p10 + 32) = {26.15572491082183, 0.7652595254111043, 1};
Point(p10 + 33) = {26.32147442426672, 0.8339152218367214, 1};
Point(p10 + 34) = {26.47444316901326, 0.9276545891781731, 1};
Point(p10 + 35) = {26.61086454689161, 1.044169453108389, 1};
Point(p10 + 36) = {26.72737941082183, 1.180590830986745, 1};
Point(p10 + 37) = {26.82111877816328, 1.333559575733278, 1};
Point(p10 + 38) = {26.8897744745889, 1.499309089178173, 1};
Point(p10 + 39) = {26.93165596899749, 1.673758068209318, 1};
Spline(10) = {8, p10 + 1, p10 + 2, p10 + 3, p10 + 4, p10 + 5, p10 + 6, p10 + 7, p10 + 8, p10 + 9, p10 + 10, p10 + 11, p10 + 12, p10 + 13, p10 + 14, p10 + 15, p10 + 16, p10 + 17, p10 + 18, p10 + 19, p10 + 20, p10 + 21, p10 + 22, p10 + 23, p10 + 24, p10 + 25, p10 + 26, p10 + 27, p10 + 28, p10 + 29, p10 + 30, p10 + 31, p10 + 32, p10 + 33, p10 + 34, p10 + 35, p10 + 36, p10 + 37, p10 + 38, p10 + 39, 8};
Line(11) = {4, 9};
Line(12) = {9, 7};
Line(13) = {5, 9};
p14 = newp;
Point(p14 + 1) = {26.93165596899749, 2.031463931790682, 0};
Point(p14 + 2) = {26.8897744745889, 2.205912910821827, 0};
Point(p14 + 3) = {26.82111877816328, 2.371662424266721, 0};
Point(p14 + 4) = {26.72737941082183, 2.524631169013255, 0};
Point(p14 + 5) = {26.61086454689161, 2.66105254689161, 0};
Point(p14 + 6) = {26.47444316901326, 2.777567410821827, 0};
Point(p14 + 7) = {26.32147442426672, 2.871306778163278, 0};
Point(p14 + 8) = {26.15572491082183, 2.939962474588896, 0};
Point(p14 + 9) = {25.98127593179068, 2.981843968997486, 0};
Point(p14 + 10) = {25.802423, 2.99592, 0};
Point(p14 + 11) = {25.62357006820932, 2.981843968997486, 0};
Point(p14 + 12) = {25.44912108917817, 2.939962474588896, 0};
Point(p14 + 13) = {25.28337157573328, 2.871306778163278, 0};
Point(p14 + 14) = {25.13040283098675, 2.777567410821827, 0};
Point(p14 + 15) = {24.99398145310839, 2.66105254689161, 0};
Point(p14 + 16) = {24.87746658917817, 2.524631169013255, 0};
Point(p14 + 17) = {24.78372722183672, 2.371662424266721, 0};
Point(p14 + 18) = {24.7150715254111, 2.205912910821827, 0};
Point(p14 + 19) = {24.67319003100252, 2.031463931790682, 0};
Point(p14 + 20) = {24.659114, 1.852611, 0};
Point(p14 + 21) = {24.67319003100252, 1.673758068209319, 0};
Point(p14 + 22) = {24.7150715254111, 1.499309089178173, 0};
Point(p14 + 23) = {24.78372722183672, 1.333559575733279, 0};
Point(p14 + 24) = {24.87746658917817, 1.180590830986745, 0};
Point(p14 + 25) = {24.99398145310839, 1.04416945310839, 0};
Point(p14 + 26) = {25.13040283098675, 0.9276545891781734, 0};
Point(p14 + 27) = {25.28337157573328, 0.8339152218367214, 0};
Point(p14 + 28) = {25.44912108917817, 0.7652595254111043, 0};
Point(p14 + 29) = {25.62357006820932, 0.723378031002514, 0};
Point(p14 + 30) = {25.802423, 0.7093020000000001, 0};
Point(p14 + 31) = {25.98127593179068, 0.7233780310025137, 0};
Point(p14 + 32) = {26.15572491082183, 0.7652595254111043, 0};
Point(p14 + 33) = {26.32147442426672, 0.8339152218367214, 0};
Point(p14 + 34) = {26.47444316901326, 0.9276545891781731, 0};
Point(p14 + 35) = {26.61086454689161, 1.044169453108389, 0};
Point(p14 + 36) = {26.72737941082183, 1.180590830986745, 0};
Point(p14 + 37) = {26.82111877816328, 1.333559575733278, 0};
Point(p14 + 38) = {26.8897744745889, 1.499309089178173, 0};
Point(p14 + 39) = {26.93165596899749, 1.673758068209318, 0};
Spline(14) = {10, p14 + 1, p14 + 2, p14 + 3, p14 + 4, p14 + 5, p14 + 6, p14 + 7, p14 + 8, p14 + 9, p14 + 10, p14 + 11, p14 + 12, p14 + 13, p14 + 14, p14 + 15, p14 + 16, p14 + 17, p14 + 18, p14 + 19, p14 + 20, p14 + 21, p14 + 22, p14 + 23, p14 + 24, p14 + 25, p14 + 26, p14 + 27, p14 + 28, p14 + 29, p14 + 30, p14 + 31, p14 + 32, p14 + 33, p14 + 34, p14 + 35, p14 + 36, p14 + 37, p14 + 38, p14 + 39, 10};
Line(15) = {10, 8};
Curve Loop(1) = {-1, 4, 3, -2};
Plane Surface(1) = {1};
Curve Loop(2) = {-5, 1, 7, -6};
Plane Surface(2) = {2};
Curve Loop(3) = {-2, 7, 9, -8, -10};
Plane Surface(3) = {3};
Curve Loop(4) = {-11, 3, 8, -12};
Plane Surface(4) = {4};
Curve Loop(5) = {-4, 5, 13, -11, -14};
Plane Surface(5) = {5};
Curve Loop(6) = {-6, 13, 12, -9};
Plane Surface(6) = {6};
Curve Loop(7) = {-10, -15, 14, 15};
Surface(7) = {7};
Surface Loop(1) = {1, 2, 3, 4, 5, 6, 7};
Volume(1) = {1};
Physical Surface("INFLOW") = {1};
Physical Surface("OUTFLOW") = {6};
Physical Surface("OBSTACLE") = {7};
Physical Surface("WALL_Y") = {2, 4};
Physical Surface("WALL_Z") = {3, 5};
Physical Volume("FLUID") = {1};
