cl__1 = 1.135529;
cl__2 = 1.211313;
cl__3 = 3.854954;
cl__4 = 0.06397799999999999;
Point(1) = {0.221367, -4.823518, 1, cl__1};
Point(2) = {0.221367, -4.823518, 0, cl__1};
Point(3) = {0.221367, 4.949951, 1, cl__2};
Point(4) = {0.221367, 4.949951, 0, cl__2};
Point(5) = {38.238553, -4.823518, 0, cl__3};
Point(6) = {38.238553, -4.823518, 1, cl__3};
Point(7) = {38.238553, 4.949951, 1, cl__3};
Point(8) = {12.195092, -0.8962680000000002, 1, cl__4};
Point(9) = {38.238553, 4.949951, 0, cl__3};
Point(10) = {12.195092, -0.8962680000000002, 0, cl__4};
Line(1) = {2, 1};
Line(2) = {1, 3};
Line(3) = {4, 3};
Line(4) = {2, 4};
Line(5) = {2, 5};
Line(6) = {5, 6};
Line(7) = {1, 6};
Line(8) = {3, 7};
Line(9) = {6, 7};
p10 = newp;
Point(p10 + 1) = {12.18721528348093, -0.7961848272599562, 1};
Point(p10 + 2) = {12.16377908482576, -0.6985660343897793, 1};
Point(p10 + 3) = {12.12536048102566, -0.605815320048132, 1};
Point(p10 + 4) = {12.07290546561022, -0.5202165146440784, 1};
Point(p10 + 5) = {12.00770565514719, -0.4438773448528142, 1};
Point(p10 + 6) = {11.93136648535592, -0.3786775343897791, 1};
Point(p10 + 7) = {11.84576767995187, -0.3262225189743385, 1};
Point(p10 + 8) = {11.75301696561022, -0.2878039151742354, 1};
Point(p10 + 9) = {11.65539817274004, -0.2643677165190644, 1};
Point(p10 + 10) = {11.555315, -0.2564909999999999, 1};
Point(p10 + 11) = {11.45523182725996, -0.2643677165190645, 1};
Point(p10 + 12) = {11.35761303438978, -0.2878039151742354, 1};
Point(p10 + 13) = {11.26486232004813, -0.3262225189743385, 1};
Point(p10 + 14) = {11.17926351464408, -0.3786775343897791, 1};
Point(p10 + 15) = {11.10292434485281, -0.4438773448528141, 1};
Point(p10 + 16) = {11.03772453438978, -0.5202165146440783, 1};
Point(p10 + 17) = {10.98526951897434, -0.6058153200481319, 1};
Point(p10 + 18) = {10.94685091517424, -0.6985660343897792, 1};
Point(p10 + 19) = {10.92341471651907, -0.7961848272599561, 1};
Point(p10 + 20) = {10.915538, -0.8962679999999998, 1};
Point(p10 + 21) = {10.92341471651907, -0.9963511727400437, 1};
Point(p10 + 22) = {10.94685091517424, -1.093969965610221, 1};
Point(p10 + 23) = {10.98526951897434, -1.186720679951868, 1};
Point(p10 + 24) = {11.03772453438978, -1.272319485355921, 1};
Point(p10 + 25) = {11.10292434485281, -1.348658655147186, 1};
Point(p10 + 26) = {11.17926351464408, -1.413858465610221, 1};
Point(p10 + 27) = {11.26486232004813, -1.466313481025662, 1};
Point(p10 + 28) = {11.35761303438978, -1.504732084825764, 1};
Point(p10 + 29) = {11.45523182725996, -1.528168283480935, 1};
Point(p10 + 30) = {11.555315, -1.536045, 1};
Point(p10 + 31) = {11.65539817274004, -1.528168283480936, 1};
Point(p10 + 32) = {11.75301696561022, -1.504732084825764, 1};
Point(p10 + 33) = {11.84576767995187, -1.466313481025662, 1};
Point(p10 + 34) = {11.93136648535592, -1.413858465610221, 1};
Point(p10 + 35) = {12.00770565514719, -1.348658655147186, 1};
Point(p10 + 36) = {12.07290546561022, -1.272319485355922, 1};
Point(p10 + 37) = {12.12536048102566, -1.186720679951868, 1};
Point(p10 + 38) = {12.16377908482576, -1.093969965610221, 1};
Point(p10 + 39) = {12.18721528348093, -0.9963511727400439, 1};
Spline(10) = {8, p10 + 1, p10 + 2, p10 + 3, p10 + 4, p10 + 5, p10 + 6, p10 + 7, p10 + 8, p10 + 9, p10 + 10, p10 + 11, p10 + 12, p10 + 13, p10 + 14, p10 + 15, p10 + 16, p10 + 17, p10 + 18, p10 + 19, p10 + 20, p10 + 21, p10 + 22, p10 + 23, p10 + 24, p10 + 25, p10 + 26, p10 + 27, p10 + 28, p10 + 29, p10 + 30, p10 + 31, p10 + 32, p10 + 33, p10 + 34, p10 + 35, p10 + 36, p10 + 37, p10 + 38, p10 + 39, 8};
Line(11) = {4, 9};
Line(12) = {9, 7};
Line(13) = {5, 9};
p14 = newp;
Point(p14 + 1) = {12.18721528348093, -0.7961848272599562, 0};
Point(p14 + 2) = {12.16377908482576, -0.6985660343897793, 0};
Point(p14 + 3) = {12.12536048102566, -0.605815320048132, 0};
Point(p14 + 4) = {12.07290546561022, -0.5202165146440784, 0};
Point(p14 + 5) = {12.00770565514719, -0.4438773448528142, 0};
Point(p14 + 6) = {11.93136648535592, -0.3786775343897791, 0};
Point(p14 + 7) = {11.84576767995187, -0.3262225189743385, 0};
Point(p14 + 8) = {11.75301696561022, -0.2878039151742354, 0};
Point(p14 + 9) = {11.65539817274004, -0.2643677165190644, 0};
Point(p14 + 10) = {11.555315, -0.2564909999999999, 0};
Point(p14 + 11) = {11.45523182725996, -0.2643677165190645, 0};
Point(p14 + 12) = {11.35761303438978, -0.2878039151742354, 0};
Point(p14 + 13) = {11.26486232004813, -0.3262225189743385, 0};
Point(p14 + 14) = {11.17926351464408, -0.3786775343897791, 0};
Point(p14 + 15) = {11.10292434485281, -0.4438773448528141, 0};
Point(p14 + 16) = {11.03772453438978, -0.5202165146440783, 0};
Point(p14 + 17) = {10.98526951897434, -0.6058153200481319, 0};
Point(p14 + 18) = {10.94685091517424, -0.6985660343897792, 0};
Point(p14 + 19) = {10.92341471651907, -0.7961848272599561, 0};
Point(p14 + 20) = {10.915538, -0.8962679999999998, 0};
Point(p14 + 21) = {10.92341471651907, -0.9963511727400437, 0};
Point(p14 + 22) = {10.94685091517424, -1.093969965610221, 0};
Point(p14 + 23) = {10.98526951897434, -1.186720679951868, 0};
Point(p14 + 24) = {11.03772453438978, -1.272319485355921, 0};
Point(p14 + 25) = {11.10292434485281, -1.348658655147186, 0};
Point(p14 + 26) = {11.17926351464408, -1.413858465610221, 0};
Point(p14 + 27) = {11.26486232004813, -1.466313481025662, 0};
Point(p14 + 28) = {11.35761303438978, -1.504732084825764, 0};
Point(p14 + 29) = {11.45523182725996, -1.528168283480935, 0};
Point(p14 + 30) = {11.555315, -1.536045, 0};
Point(p14 + 31) = {11.65539817274004, -1.528168283480936, 0};
Point(p14 + 32) = {11.75301696561022, -1.504732084825764, 0};
Point(p14 + 33) = {11.84576767995187, -1.466313481025662, 0};
Point(p14 + 34) = {11.93136648535592, -1.413858465610221, 0};
Point(p14 + 35) = {12.00770565514719, -1.348658655147186, 0};
Point(p14 + 36) = {12.07290546561022, -1.272319485355922, 0};
Point(p14 + 37) = {12.12536048102566, -1.186720679951868, 0};
Point(p14 + 38) = {12.16377908482576, -1.093969965610221, 0};
Point(p14 + 39) = {12.18721528348093, -0.9963511727400439, 0};
Spline(14) = {10, p14 + 1, p14 + 2, p14 + 3, p14 + 4, p14 + 5, p14 + 6, p14 + 7, p14 + 8, p14 + 9, p14 + 10, p14 + 11, p14 + 12, p14 + 13, p14 + 14, p14 + 15, p14 + 16, p14 + 17, p14 + 18, p14 + 19, p14 + 20, p14 + 21, p14 + 22, p14 + 23, p14 + 24, p14 + 25, p14 + 26, p14 + 27, p14 + 28, p14 + 29, p14 + 30, p14 + 31, p14 + 32, p14 + 33, p14 + 34, p14 + 35, p14 + 36, p14 + 37, p14 + 38, p14 + 39, 10};
Line(15) = {10, 8};
Curve Loop(1) = {-1, 4, 3, -2};
Plane Surface(1) = {1};
Curve Loop(2) = {-5, 1, 7, -6};
Plane Surface(2) = {2};
Curve Loop(3) = {-2, 7, 9, -8, -10};
Plane Surface(3) = {3};
Curve Loop(4) = {-11, 3, 8, -12};
Plane Surface(4) = {4};
Curve Loop(5) = {-4, 5, 13, -11, -14};
Plane Surface(5) = {5};
Curve Loop(6) = {-6, 13, 12, -9};
Plane Surface(6) = {6};
Curve Loop(7) = {-10, -15, 14, 15};
Surface(7) = {7};
Surface Loop(1) = {1, 2, 3, 4, 5, 6, 7};
Volume(1) = {1};
Physical Surface("INFLOW") = {1};
Physical Surface("OUTFLOW") = {6};
Physical Surface("OBSTACLE") = {7};
Physical Surface("WALL_Y") = {2, 4};
Physical Surface("WALL_Z") = {3, 5};
Physical Volume("FLUID") = {1};
