cl__1 = 0.446644;
cl__2 = 0.354112;
cl__3 = 3.667384;
cl__4 = 0.078415;
Point(1) = {0.597886, -3.043163, 1, cl__1};
Point(2) = {0.597886, -3.043163, 0, cl__1};
Point(3) = {0.597886, 4.621617000000001, 1, cl__2};
Point(4) = {0.597886, 4.621617000000001, 0, cl__2};
Point(5) = {36.473054, -3.043163, 0, cl__3};
Point(6) = {36.473054, -3.043163, 1, cl__3};
Point(7) = {36.473054, 4.621617000000001, 1, cl__3};
Point(8) = {4.231066999999999, 1.367238, 1, cl__4};
Point(9) = {36.473054, 4.621617000000001, 0, cl__3};
Point(10) = {4.231066999999999, 1.367238, 0, cl__4};
Line(1) = {2, 1};
Line(2) = {1, 3};
Line(3) = {4, 3};
Line(4) = {2, 4};
Line(5) = {2, 5};
Line(6) = {5, 6};
Line(7) = {1, 6};
Line(8) = {3, 7};
Line(9) = {6, 7};
p10 = newp;
Point(p10 + 1) = {4.221412849212656, 1.489905616457902, 1};
Point(p10 + 2) = {4.192688114083296, 1.609552749088132, 1};
Point(p10 + 3) = {4.145600092922736, 1.723233288399266, 1};
Point(p10 + 4) = {4.081308249088132, 1.828148042229386, 1};
Point(p10 + 5) = {4.001395661147088, 1.921713661147088, 1};
Point(p10 + 6) = {3.907830042229386, 2.001626249088132, 1};
Point(p10 + 7) = {3.802915288399266, 2.065918092922736, 1};
Point(p10 + 8) = {3.689234749088132, 2.113006114083296, 1};
Point(p10 + 9) = {3.569587616457902, 2.141730849212656, 1};
Point(p10 + 10) = {3.44692, 2.151385, 1};
Point(p10 + 11) = {3.324252383542098, 2.141730849212656, 1};
Point(p10 + 12) = {3.204605250911868, 2.113006114083296, 1};
Point(p10 + 13) = {3.090924711600734, 2.065918092922736, 1};
Point(p10 + 14) = {2.986009957770614, 2.001626249088132, 1};
Point(p10 + 15) = {2.892444338852912, 1.921713661147088, 1};
Point(p10 + 16) = {2.812531750911868, 1.828148042229386, 1};
Point(p10 + 17) = {2.748239907077264, 1.723233288399266, 1};
Point(p10 + 18) = {2.701151885916704, 1.609552749088132, 1};
Point(p10 + 19) = {2.672427150787344, 1.489905616457902, 1};
Point(p10 + 20) = {2.662773, 1.367238, 1};
Point(p10 + 21) = {2.672427150787344, 1.244570383542098, 1};
Point(p10 + 22) = {2.701151885916704, 1.124923250911868, 1};
Point(p10 + 23) = {2.748239907077264, 1.011242711600734, 1};
Point(p10 + 24) = {2.812531750911868, 0.906327957770614, 1};
Point(p10 + 25) = {2.892444338852912, 0.8127623388529123, 1};
Point(p10 + 26) = {2.986009957770614, 0.7328497509118681, 1};
Point(p10 + 27) = {3.090924711600733, 0.6685579070772639, 1};
Point(p10 + 28) = {3.204605250911868, 0.6214698859167042, 1};
Point(p10 + 29) = {3.324252383542098, 0.5927451507873445, 1};
Point(p10 + 30) = {3.44692, 0.5830909999999999, 1};
Point(p10 + 31) = {3.569587616457902, 0.5927451507873445, 1};
Point(p10 + 32) = {3.689234749088132, 0.621469885916704, 1};
Point(p10 + 33) = {3.802915288399266, 0.6685579070772638, 1};
Point(p10 + 34) = {3.907830042229386, 0.7328497509118679, 1};
Point(p10 + 35) = {4.001395661147088, 0.8127623388529122, 1};
Point(p10 + 36) = {4.081308249088131, 0.9063279577706138, 1};
Point(p10 + 37) = {4.145600092922736, 1.011242711600733, 1};
Point(p10 + 38) = {4.192688114083296, 1.124923250911868, 1};
Point(p10 + 39) = {4.221412849212656, 1.244570383542098, 1};
Spline(10) = {8, p10 + 1, p10 + 2, p10 + 3, p10 + 4, p10 + 5, p10 + 6, p10 + 7, p10 + 8, p10 + 9, p10 + 10, p10 + 11, p10 + 12, p10 + 13, p10 + 14, p10 + 15, p10 + 16, p10 + 17, p10 + 18, p10 + 19, p10 + 20, p10 + 21, p10 + 22, p10 + 23, p10 + 24, p10 + 25, p10 + 26, p10 + 27, p10 + 28, p10 + 29, p10 + 30, p10 + 31, p10 + 32, p10 + 33, p10 + 34, p10 + 35, p10 + 36, p10 + 37, p10 + 38, p10 + 39, 8};
Line(11) = {4, 9};
Line(12) = {9, 7};
Line(13) = {5, 9};
p14 = newp;
Point(p14 + 1) = {4.221412849212656, 1.489905616457902, 0};
Point(p14 + 2) = {4.192688114083296, 1.609552749088132, 0};
Point(p14 + 3) = {4.145600092922736, 1.723233288399266, 0};
Point(p14 + 4) = {4.081308249088132, 1.828148042229386, 0};
Point(p14 + 5) = {4.001395661147088, 1.921713661147088, 0};
Point(p14 + 6) = {3.907830042229386, 2.001626249088132, 0};
Point(p14 + 7) = {3.802915288399266, 2.065918092922736, 0};
Point(p14 + 8) = {3.689234749088132, 2.113006114083296, 0};
Point(p14 + 9) = {3.569587616457902, 2.141730849212656, 0};
Point(p14 + 10) = {3.44692, 2.151385, 0};
Point(p14 + 11) = {3.324252383542098, 2.141730849212656, 0};
Point(p14 + 12) = {3.204605250911868, 2.113006114083296, 0};
Point(p14 + 13) = {3.090924711600734, 2.065918092922736, 0};
Point(p14 + 14) = {2.986009957770614, 2.001626249088132, 0};
Point(p14 + 15) = {2.892444338852912, 1.921713661147088, 0};
Point(p14 + 16) = {2.812531750911868, 1.828148042229386, 0};
Point(p14 + 17) = {2.748239907077264, 1.723233288399266, 0};
Point(p14 + 18) = {2.701151885916704, 1.609552749088132, 0};
Point(p14 + 19) = {2.672427150787344, 1.489905616457902, 0};
Point(p14 + 20) = {2.662773, 1.367238, 0};
Point(p14 + 21) = {2.672427150787344, 1.244570383542098, 0};
Point(p14 + 22) = {2.701151885916704, 1.124923250911868, 0};
Point(p14 + 23) = {2.748239907077264, 1.011242711600734, 0};
Point(p14 + 24) = {2.812531750911868, 0.906327957770614, 0};
Point(p14 + 25) = {2.892444338852912, 0.8127623388529123, 0};
Point(p14 + 26) = {2.986009957770614, 0.7328497509118681, 0};
Point(p14 + 27) = {3.090924711600733, 0.6685579070772639, 0};
Point(p14 + 28) = {3.204605250911868, 0.6214698859167042, 0};
Point(p14 + 29) = {3.324252383542098, 0.5927451507873445, 0};
Point(p14 + 30) = {3.44692, 0.5830909999999999, 0};
Point(p14 + 31) = {3.569587616457902, 0.5927451507873445, 0};
Point(p14 + 32) = {3.689234749088132, 0.621469885916704, 0};
Point(p14 + 33) = {3.802915288399266, 0.6685579070772638, 0};
Point(p14 + 34) = {3.907830042229386, 0.7328497509118679, 0};
Point(p14 + 35) = {4.001395661147088, 0.8127623388529122, 0};
Point(p14 + 36) = {4.081308249088131, 0.9063279577706138, 0};
Point(p14 + 37) = {4.145600092922736, 1.011242711600733, 0};
Point(p14 + 38) = {4.192688114083296, 1.124923250911868, 0};
Point(p14 + 39) = {4.221412849212656, 1.244570383542098, 0};
Spline(14) = {10, p14 + 1, p14 + 2, p14 + 3, p14 + 4, p14 + 5, p14 + 6, p14 + 7, p14 + 8, p14 + 9, p14 + 10, p14 + 11, p14 + 12, p14 + 13, p14 + 14, p14 + 15, p14 + 16, p14 + 17, p14 + 18, p14 + 19, p14 + 20, p14 + 21, p14 + 22, p14 + 23, p14 + 24, p14 + 25, p14 + 26, p14 + 27, p14 + 28, p14 + 29, p14 + 30, p14 + 31, p14 + 32, p14 + 33, p14 + 34, p14 + 35, p14 + 36, p14 + 37, p14 + 38, p14 + 39, 10};
Line(15) = {10, 8};
Curve Loop(1) = {-1, 4, 3, -2};
Plane Surface(1) = {1};
Curve Loop(2) = {-5, 1, 7, -6};
Plane Surface(2) = {2};
Curve Loop(3) = {-2, 7, 9, -8, -10};
Plane Surface(3) = {3};
Curve Loop(4) = {-11, 3, 8, -12};
Plane Surface(4) = {4};
Curve Loop(5) = {-4, 5, 13, -11, -14};
Plane Surface(5) = {5};
Curve Loop(6) = {-6, 13, 12, -9};
Plane Surface(6) = {6};
Curve Loop(7) = {-10, -15, 14, 15};
Surface(7) = {7};
Surface Loop(1) = {1, 2, 3, 4, 5, 6, 7};
Volume(1) = {1};
Physical Surface("INFLOW") = {1};
Physical Surface("OUTFLOW") = {6};
Physical Surface("OBSTACLE") = {7};
Physical Surface("WALL_Y") = {2, 4};
Physical Surface("WALL_Z") = {3, 5};
Physical Volume("FLUID") = {1};
