cl__1 = 1.513926;
cl__2 = 1.611111;
cl__3 = 0.412146;
cl__4 = 0.142431;
cl__5 = 0.132234;
Point(1) = {0.743308, -4.072517, 1, cl__1};
Point(2) = {0.743308, -4.072517, 0, cl__1};
Point(3) = {0.743308, 5.861792, 1, cl__2};
Point(4) = {0.743308, 5.861792, 0, cl__2};
Point(5) = {33.866448, -4.072517, 0, cl__3};
Point(6) = {33.866448, -4.072517, 1, cl__3};
Point(7) = {33.866448, 5.861792, 1, cl__2};
Point(8) = {18.228951, -0.02460300000000035, 1, cl__4};
Point(9) = {3.995318, 1.017803, 1, cl__5};
Point(10) = {33.866448, 5.861792, 0, cl__2};
Point(11) = {18.228951, -0.02460300000000035, 0, cl__4};
Point(12) = {3.995318, 1.017803, 0, cl__5};
Line(1) = {2, 1};
Line(2) = {1, 3};
Line(3) = {4, 3};
Line(4) = {2, 4};
Line(5) = {2, 5};
Line(6) = {5, 6};
Line(7) = {1, 6};
Line(8) = {3, 7};
Line(9) = {6, 7};
p10 = newp;
Point(p10 + 1) = {18.21141538039306, 0.1982081729014512, 1};
Point(p10 + 2) = {18.15924030672435, 0.4155329952581813, 1};
Point(p10 + 3) = {18.07371050246674, 0.6220202086840337, 1};
Point(p10 + 4) = {17.95693199525818, 0.8125854126926924, 1};
Point(p10 + 5) = {17.81178025951181, 0.9825362595118113, 1};
Point(p10 + 6) = {17.64182941269269, 1.127687995258182, 1};
Point(p10 + 7) = {17.45126420868403, 1.244466502466734, 1};
Point(p10 + 8) = {17.24477699525818, 1.32999630672435, 1};
Point(p10 + 9) = {17.02745217290145, 1.382171380393061, 1};
Point(p10 + 10) = {16.804641, 1.399707, 1};
Point(p10 + 11) = {16.58182982709855, 1.382171380393061, 1};
Point(p10 + 12) = {16.36450500474182, 1.32999630672435, 1};
Point(p10 + 13) = {16.15801779131597, 1.244466502466734, 1};
Point(p10 + 14) = {15.96745258730731, 1.127687995258182, 1};
Point(p10 + 15) = {15.79750174048819, 0.9825362595118116, 1};
Point(p10 + 16) = {15.65235000474182, 0.8125854126926925, 1};
Point(p10 + 17) = {15.53557149753327, 0.622020208684034, 1};
Point(p10 + 18) = {15.45004169327565, 0.4155329952581815, 1};
Point(p10 + 19) = {15.39786661960694, 0.1982081729014514, 1};
Point(p10 + 20) = {15.380331, -0.02460299999999983, 1};
Point(p10 + 21) = {15.39786661960694, -0.247414172901451, 1};
Point(p10 + 22) = {15.45004169327565, -0.4647389952581818, 1};
Point(p10 + 23) = {15.53557149753327, -0.6712262086840332, 1};
Point(p10 + 24) = {15.65235000474182, -0.8617914126926923, 1};
Point(p10 + 25) = {15.79750174048819, -1.031742259511811, 1};
Point(p10 + 26) = {15.96745258730731, -1.176893995258181, 1};
Point(p10 + 27) = {16.15801779131597, -1.293672502466734, 1};
Point(p10 + 28) = {16.36450500474182, -1.37920230672435, 1};
Point(p10 + 29) = {16.58182982709855, -1.431377380393061, 1};
Point(p10 + 30) = {16.804641, -1.448913, 1};
Point(p10 + 31) = {17.02745217290145, -1.431377380393061, 1};
Point(p10 + 32) = {17.24477699525818, -1.37920230672435, 1};
Point(p10 + 33) = {17.45126420868403, -1.293672502466734, 1};
Point(p10 + 34) = {17.64182941269269, -1.176893995258181, 1};
Point(p10 + 35) = {17.81178025951181, -1.031742259511812, 1};
Point(p10 + 36) = {17.95693199525818, -0.8617914126926928, 1};
Point(p10 + 37) = {18.07371050246674, -0.6712262086840342, 1};
Point(p10 + 38) = {18.15924030672435, -0.4647389952581816, 1};
Point(p10 + 39) = {18.21141538039306, -0.2474141729014515, 1};
Spline(10) = {8, p10 + 1, p10 + 2, p10 + 3, p10 + 4, p10 + 5, p10 + 6, p10 + 7, p10 + 8, p10 + 9, p10 + 10, p10 + 11, p10 + 12, p10 + 13, p10 + 14, p10 + 15, p10 + 16, p10 + 17, p10 + 18, p10 + 19, p10 + 20, p10 + 21, p10 + 22, p10 + 23, p10 + 24, p10 + 25, p10 + 26, p10 + 27, p10 + 28, p10 + 29, p10 + 30, p10 + 31, p10 + 32, p10 + 33, p10 + 34, p10 + 35, p10 + 36, p10 + 37, p10 + 38, p10 + 39, 8};
p11 = newp;
Point(p11 + 1) = {3.979037787990915, 1.224662706935764, 1};
Point(p11 + 2) = {3.93059802481425, 1.426428841358762, 1};
Point(p11 + 3) = {3.851191458201771, 1.618133251416092, 1};
Point(p11 + 4) = {3.742773341358762, 1.795055538301681, 1};
Point(p11 + 5) = {3.608013288141001, 1.952839288141, 1};
Point(p11 + 6) = {3.450229538301681, 2.087599341358763, 1};
Point(p11 + 7) = {3.273307251416092, 2.19601745820177, 1};
Point(p11 + 8) = {3.081602841358762, 2.275424024814249, 1};
Point(p11 + 9) = {2.879836706935764, 2.323863787990915, 1};
Point(p11 + 10) = {2.672977, 2.340144, 1};
Point(p11 + 11) = {2.466117293064236, 2.323863787990915, 1};
Point(p11 + 12) = {2.264351158641237, 2.275424024814249, 1};
Point(p11 + 13) = {2.072646748583908, 2.196017458201771, 1};
Point(p11 + 14) = {1.895724461698319, 2.087599341358763, 1};
Point(p11 + 15) = {1.737940711859, 1.952839288141, 1};
Point(p11 + 16) = {1.603180658641238, 1.795055538301682, 1};
Point(p11 + 17) = {1.49476254179823, 1.618133251416092, 1};
Point(p11 + 18) = {1.41535597518575, 1.426428841358762, 1};
Point(p11 + 19) = {1.366916212009085, 1.224662706935764, 1};
Point(p11 + 20) = {1.350636, 1.017803, 1};
Point(p11 + 21) = {1.366916212009085, 0.8109432930642363, 1};
Point(p11 + 22) = {1.41535597518575, 0.6091771586412373, 1};
Point(p11 + 23) = {1.494762541798229, 0.4174727485839087, 1};
Point(p11 + 24) = {1.603180658641237, 0.240550461698319, 1};
Point(p11 + 25) = {1.737940711858999, 0.08276671185899964, 1};
Point(p11 + 26) = {1.895724461698319, -0.05199334135876232, 1};
Point(p11 + 27) = {2.072646748583908, -0.1604114582017704, 1};
Point(p11 + 28) = {2.264351158641237, -0.2398180248142496, 1};
Point(p11 + 29) = {2.466117293064236, -0.2882577879909149, 1};
Point(p11 + 30) = {2.672976999999999, -0.304538, 1};
Point(p11 + 31) = {2.879836706935764, -0.2882577879909149, 1};
Point(p11 + 32) = {3.081602841358762, -0.2398180248142496, 1};
Point(p11 + 33) = {3.273307251416092, -0.1604114582017706, 1};
Point(p11 + 34) = {3.450229538301681, -0.05199334135876255, 1};
Point(p11 + 35) = {3.608013288141, 0.08276671185899942, 1};
Point(p11 + 36) = {3.742773341358762, 0.2405504616983185, 1};
Point(p11 + 37) = {3.85119145820177, 0.4174727485839077, 1};
Point(p11 + 38) = {3.93059802481425, 0.6091771586412373, 1};
Point(p11 + 39) = {3.979037787990915, 0.8109432930642357, 1};
Spline(11) = {9, p11 + 1, p11 + 2, p11 + 3, p11 + 4, p11 + 5, p11 + 6, p11 + 7, p11 + 8, p11 + 9, p11 + 10, p11 + 11, p11 + 12, p11 + 13, p11 + 14, p11 + 15, p11 + 16, p11 + 17, p11 + 18, p11 + 19, p11 + 20, p11 + 21, p11 + 22, p11 + 23, p11 + 24, p11 + 25, p11 + 26, p11 + 27, p11 + 28, p11 + 29, p11 + 30, p11 + 31, p11 + 32, p11 + 33, p11 + 34, p11 + 35, p11 + 36, p11 + 37, p11 + 38, p11 + 39, 9};
Line(12) = {4, 10};
Line(13) = {10, 7};
Line(14) = {5, 10};
p15 = newp;
Point(p15 + 1) = {18.21141538039306, 0.1982081729014512, 0};
Point(p15 + 2) = {18.15924030672435, 0.4155329952581813, 0};
Point(p15 + 3) = {18.07371050246674, 0.6220202086840337, 0};
Point(p15 + 4) = {17.95693199525818, 0.8125854126926924, 0};
Point(p15 + 5) = {17.81178025951181, 0.9825362595118113, 0};
Point(p15 + 6) = {17.64182941269269, 1.127687995258182, 0};
Point(p15 + 7) = {17.45126420868403, 1.244466502466734, 0};
Point(p15 + 8) = {17.24477699525818, 1.32999630672435, 0};
Point(p15 + 9) = {17.02745217290145, 1.382171380393061, 0};
Point(p15 + 10) = {16.804641, 1.399707, 0};
Point(p15 + 11) = {16.58182982709855, 1.382171380393061, 0};
Point(p15 + 12) = {16.36450500474182, 1.32999630672435, 0};
Point(p15 + 13) = {16.15801779131597, 1.244466502466734, 0};
Point(p15 + 14) = {15.96745258730731, 1.127687995258182, 0};
Point(p15 + 15) = {15.79750174048819, 0.9825362595118116, 0};
Point(p15 + 16) = {15.65235000474182, 0.8125854126926925, 0};
Point(p15 + 17) = {15.53557149753327, 0.622020208684034, 0};
Point(p15 + 18) = {15.45004169327565, 0.4155329952581815, 0};
Point(p15 + 19) = {15.39786661960694, 0.1982081729014514, 0};
Point(p15 + 20) = {15.380331, -0.02460299999999983, 0};
Point(p15 + 21) = {15.39786661960694, -0.247414172901451, 0};
Point(p15 + 22) = {15.45004169327565, -0.4647389952581818, 0};
Point(p15 + 23) = {15.53557149753327, -0.6712262086840332, 0};
Point(p15 + 24) = {15.65235000474182, -0.8617914126926923, 0};
Point(p15 + 25) = {15.79750174048819, -1.031742259511811, 0};
Point(p15 + 26) = {15.96745258730731, -1.176893995258181, 0};
Point(p15 + 27) = {16.15801779131597, -1.293672502466734, 0};
Point(p15 + 28) = {16.36450500474182, -1.37920230672435, 0};
Point(p15 + 29) = {16.58182982709855, -1.431377380393061, 0};
Point(p15 + 30) = {16.804641, -1.448913, 0};
Point(p15 + 31) = {17.02745217290145, -1.431377380393061, 0};
Point(p15 + 32) = {17.24477699525818, -1.37920230672435, 0};
Point(p15 + 33) = {17.45126420868403, -1.293672502466734, 0};
Point(p15 + 34) = {17.64182941269269, -1.176893995258181, 0};
Point(p15 + 35) = {17.81178025951181, -1.031742259511812, 0};
Point(p15 + 36) = {17.95693199525818, -0.8617914126926928, 0};
Point(p15 + 37) = {18.07371050246674, -0.6712262086840342, 0};
Point(p15 + 38) = {18.15924030672435, -0.4647389952581816, 0};
Point(p15 + 39) = {18.21141538039306, -0.2474141729014515, 0};
Spline(15) = {11, p15 + 1, p15 + 2, p15 + 3, p15 + 4, p15 + 5, p15 + 6, p15 + 7, p15 + 8, p15 + 9, p15 + 10, p15 + 11, p15 + 12, p15 + 13, p15 + 14, p15 + 15, p15 + 16, p15 + 17, p15 + 18, p15 + 19, p15 + 20, p15 + 21, p15 + 22, p15 + 23, p15 + 24, p15 + 25, p15 + 26, p15 + 27, p15 + 28, p15 + 29, p15 + 30, p15 + 31, p15 + 32, p15 + 33, p15 + 34, p15 + 35, p15 + 36, p15 + 37, p15 + 38, p15 + 39, 11};
p16 = newp;
Point(p16 + 1) = {3.979037787990915, 1.224662706935764, 0};
Point(p16 + 2) = {3.93059802481425, 1.426428841358762, 0};
Point(p16 + 3) = {3.851191458201771, 1.618133251416092, 0};
Point(p16 + 4) = {3.742773341358762, 1.795055538301681, 0};
Point(p16 + 5) = {3.608013288141001, 1.952839288141, 0};
Point(p16 + 6) = {3.450229538301681, 2.087599341358763, 0};
Point(p16 + 7) = {3.273307251416092, 2.19601745820177, 0};
Point(p16 + 8) = {3.081602841358762, 2.275424024814249, 0};
Point(p16 + 9) = {2.879836706935764, 2.323863787990915, 0};
Point(p16 + 10) = {2.672977, 2.340144, 0};
Point(p16 + 11) = {2.466117293064236, 2.323863787990915, 0};
Point(p16 + 12) = {2.264351158641237, 2.275424024814249, 0};
Point(p16 + 13) = {2.072646748583908, 2.196017458201771, 0};
Point(p16 + 14) = {1.895724461698319, 2.087599341358763, 0};
Point(p16 + 15) = {1.737940711859, 1.952839288141, 0};
Point(p16 + 16) = {1.603180658641238, 1.795055538301682, 0};
Point(p16 + 17) = {1.49476254179823, 1.618133251416092, 0};
Point(p16 + 18) = {1.41535597518575, 1.426428841358762, 0};
Point(p16 + 19) = {1.366916212009085, 1.224662706935764, 0};
Point(p16 + 20) = {1.350636, 1.017803, 0};
Point(p16 + 21) = {1.366916212009085, 0.8109432930642363, 0};
Point(p16 + 22) = {1.41535597518575, 0.6091771586412373, 0};
Point(p16 + 23) = {1.494762541798229, 0.4174727485839087, 0};
Point(p16 + 24) = {1.603180658641237, 0.240550461698319, 0};
Point(p16 + 25) = {1.737940711858999, 0.08276671185899964, 0};
Point(p16 + 26) = {1.895724461698319, -0.05199334135876232, 0};
Point(p16 + 27) = {2.072646748583908, -0.1604114582017704, 0};
Point(p16 + 28) = {2.264351158641237, -0.2398180248142496, 0};
Point(p16 + 29) = {2.466117293064236, -0.2882577879909149, 0};
Point(p16 + 30) = {2.672976999999999, -0.304538, 0};
Point(p16 + 31) = {2.879836706935764, -0.2882577879909149, 0};
Point(p16 + 32) = {3.081602841358762, -0.2398180248142496, 0};
Point(p16 + 33) = {3.273307251416092, -0.1604114582017706, 0};
Point(p16 + 34) = {3.450229538301681, -0.05199334135876255, 0};
Point(p16 + 35) = {3.608013288141, 0.08276671185899942, 0};
Point(p16 + 36) = {3.742773341358762, 0.2405504616983185, 0};
Point(p16 + 37) = {3.85119145820177, 0.4174727485839077, 0};
Point(p16 + 38) = {3.93059802481425, 0.6091771586412373, 0};
Point(p16 + 39) = {3.979037787990915, 0.8109432930642357, 0};
Spline(16) = {12, p16 + 1, p16 + 2, p16 + 3, p16 + 4, p16 + 5, p16 + 6, p16 + 7, p16 + 8, p16 + 9, p16 + 10, p16 + 11, p16 + 12, p16 + 13, p16 + 14, p16 + 15, p16 + 16, p16 + 17, p16 + 18, p16 + 19, p16 + 20, p16 + 21, p16 + 22, p16 + 23, p16 + 24, p16 + 25, p16 + 26, p16 + 27, p16 + 28, p16 + 29, p16 + 30, p16 + 31, p16 + 32, p16 + 33, p16 + 34, p16 + 35, p16 + 36, p16 + 37, p16 + 38, p16 + 39, 12};
Line(17) = {11, 8};
Line(18) = {12, 9};
Curve Loop(1) = {-1, 4, 3, -2};
Plane Surface(1) = {1};
Curve Loop(2) = {-5, 1, 7, -6};
Plane Surface(2) = {2};
Curve Loop(3) = {-2, 7, 9, -8, -10, -11};
Plane Surface(3) = {3};
Curve Loop(4) = {-12, 3, 8, -13};
Plane Surface(4) = {4};
Curve Loop(5) = {-4, 5, 14, -12, -15, -16};
Plane Surface(5) = {5};
Curve Loop(6) = {-6, 14, 13, -9};
Plane Surface(6) = {6};
Curve Loop(7) = {-10, -17, 15, 17};
Surface(7) = {7};
Curve Loop(8) = {-11, -18, 16, 18};
Surface(8) = {8};
Surface Loop(1) = {1, 2, 3, 4, 5, 6, 7, 8};
Volume(1) = {1};
Physical Surface("INFLOW") = {1};
Physical Surface("OUTFLOW") = {6};
Physical Surface("OBSTACLE") = {7, 8};
Physical Surface("WALL_Y") = {2, 4};
Physical Surface("WALL_Z") = {3, 5};
Physical Volume("FLUID") = {1};
