cl__1 = 1;
cl__2 = 0.122003;
cl__3 = 0.100476;
Point(1) = {0.417575, -4.3023, 1, cl__1};
Point(2) = {0.417575, -4.3023, 0, cl__1};
Point(3) = {0.417575, 5.448418000000001, 1, cl__1};
Point(4) = {0.417575, 5.448418000000001, 0, cl__1};
Point(5) = {35.65764, -4.3023, 0, cl__1};
Point(6) = {35.65764, -4.3023, 1, cl__1};
Point(7) = {35.65764, 5.448418000000001, 1, cl__1};
Point(8) = {29.081107, -0.2415490000000003, 1, cl__2};
Point(9) = {22.602943, 2.554213, 1, cl__3};
Point(10) = {35.65764, 5.448418000000001, 0, cl__1};
Point(11) = {29.081107, -0.2415490000000003, 0, cl__2};
Point(12) = {22.602943, 2.554213, 0, cl__3};
Line(1) = {2, 1};
Line(2) = {1, 3};
Line(3) = {4, 3};
Line(4) = {2, 4};
Line(5) = {2, 5};
Line(6) = {5, 6};
Line(7) = {1, 6};
Line(8) = {3, 7};
Line(9) = {6, 7};
p10 = newp;
Point(p10 + 1) = {29.0660863692413, -0.05069379031357205, 1};
Point(p10 + 2) = {29.02139433474512, 0.1354619306982501, 1};
Point(p10 + 3) = {28.94813136272511, 0.3123343913687384, 1};
Point(p10 + 4) = {28.84810143069825, 0.4755684047101428, 1};
Point(p10 + 5) = {28.72376760757136, 0.621144607571367, 1};
Point(p10 + 6) = {28.57819140471014, 0.7454784306982501, 1};
Point(p10 + 7) = {28.41495739136874, 0.8455083627251068, 1};
Point(p10 + 8) = {28.23808493069825, 0.918771334745125, 1};
Point(p10 + 9) = {28.05192920968643, 0.9634633692413077, 1};
Point(p10 + 10) = {27.861074, 0.9784839999999999, 1};
Point(p10 + 11) = {27.67021879031357, 0.9634633692413075, 1};
Point(p10 + 12) = {27.48406306930175, 0.9187713347451252, 1};
Point(p10 + 13) = {27.30719060863126, 0.845508362725107, 1};
Point(p10 + 14) = {27.14395659528986, 0.7454784306982501, 1};
Point(p10 + 15) = {26.99838039242863, 0.6211446075713671, 1};
Point(p10 + 16) = {26.87404656930175, 0.4755684047101429, 1};
Point(p10 + 17) = {26.77401663727489, 0.3123343913687385, 1};
Point(p10 + 18) = {26.70075366525487, 0.1354619306982503, 1};
Point(p10 + 19) = {26.65606163075869, -0.05069379031357191, 1};
Point(p10 + 20) = {26.641041, -0.2415489999999999, 1};
Point(p10 + 21) = {26.65606163075869, -0.4324042096864278, 1};
Point(p10 + 22) = {26.70075366525487, -0.6185599306982505, 1};
Point(p10 + 23) = {26.77401663727489, -0.7954323913687378, 1};
Point(p10 + 24) = {26.87404656930175, -0.9586664047101427, 1};
Point(p10 + 25) = {26.99838039242863, -1.104242607571367, 1};
Point(p10 + 26) = {27.14395659528985, -1.22857643069825, 1};
Point(p10 + 27) = {27.30719060863126, -1.328606362725107, 1};
Point(p10 + 28) = {27.48406306930175, -1.401869334745125, 1};
Point(p10 + 29) = {27.67021879031357, -1.446561369241308, 1};
Point(p10 + 30) = {27.861074, -1.461582, 1};
Point(p10 + 31) = {28.05192920968643, -1.446561369241308, 1};
Point(p10 + 32) = {28.23808493069825, -1.401869334745125, 1};
Point(p10 + 33) = {28.41495739136874, -1.328606362725107, 1};
Point(p10 + 34) = {28.57819140471014, -1.22857643069825, 1};
Point(p10 + 35) = {28.72376760757136, -1.104242607571367, 1};
Point(p10 + 36) = {28.84810143069825, -0.9586664047101431, 1};
Point(p10 + 37) = {28.94813136272511, -0.7954323913687387, 1};
Point(p10 + 38) = {29.02139433474512, -0.6185599306982504, 1};
Point(p10 + 39) = {29.0660863692413, -0.4324042096864282, 1};
Spline(10) = {8, p10 + 1, p10 + 2, p10 + 3, p10 + 4, p10 + 5, p10 + 6, p10 + 7, p10 + 8, p10 + 9, p10 + 10, p10 + 11, p10 + 12, p10 + 13, p10 + 14, p10 + 15, p10 + 16, p10 + 17, p10 + 18, p10 + 19, p10 + 20, p10 + 21, p10 + 22, p10 + 23, p10 + 24, p10 + 25, p10 + 26, p10 + 27, p10 + 28, p10 + 29, p10 + 30, p10 + 31, p10 + 32, p10 + 33, p10 + 34, p10 + 35, p10 + 36, p10 + 37, p10 + 38, p10 + 39, 8};
p11 = newp;
Point(p11 + 1) = {22.59057268784973, 2.711392718831682, 1};
Point(p11 + 2) = {22.55376634953878, 2.864702151336149, 1};
Point(p11 + 3) = {22.4934302792696, 3.010366310480306, 1};
Point(p11 + 4) = {22.41105015133615, 3.144798461234394, 1};
Point(p11 + 5) = {22.30865443789212, 3.26468843789212, 1};
Point(p11 + 6) = {22.18876446123439, 3.36708415133615, 1};
Point(p11 + 7) = {22.05433231048031, 3.449464279269601, 1};
Point(p11 + 8) = {21.90866815133615, 3.509800349538784, 1};
Point(p11 + 9) = {21.75535871883168, 3.546606687849733, 1};
Point(p11 + 10) = {21.598179, 3.558977, 1};
Point(p11 + 11) = {21.44099928116832, 3.546606687849733, 1};
Point(p11 + 12) = {21.28768984866385, 3.509800349538784, 1};
Point(p11 + 13) = {21.14202568951969, 3.449464279269601, 1};
Point(p11 + 14) = {21.0075935387656, 3.36708415133615, 1};
Point(p11 + 15) = {20.88770356210788, 3.26468843789212, 1};
Point(p11 + 16) = {20.78530784866385, 3.144798461234394, 1};
Point(p11 + 17) = {20.7029277207304, 3.010366310480306, 1};
Point(p11 + 18) = {20.64259165046121, 2.86470215133615, 1};
Point(p11 + 19) = {20.60578531215026, 2.711392718831683, 1};
Point(p11 + 20) = {20.593415, 2.554213, 1};
Point(p11 + 21) = {20.60578531215026, 2.397033281168317, 1};
Point(p11 + 22) = {20.64259165046121, 2.24372384866385, 1};
Point(p11 + 23) = {20.7029277207304, 2.098059689519694, 1};
Point(p11 + 24) = {20.78530784866385, 1.963627538765605, 1};
Point(p11 + 25) = {20.88770356210788, 1.84373756210788, 1};
Point(p11 + 26) = {21.0075935387656, 1.74134184866385, 1};
Point(p11 + 27) = {21.14202568951969, 1.658961720730399, 1};
Point(p11 + 28) = {21.28768984866385, 1.598625650461216, 1};
Point(p11 + 29) = {21.44099928116832, 1.561819312150267, 1};
Point(p11 + 30) = {21.598179, 1.549449, 1};
Point(p11 + 31) = {21.75535871883168, 1.561819312150267, 1};
Point(p11 + 32) = {21.90866815133615, 1.598625650461216, 1};
Point(p11 + 33) = {22.05433231048031, 1.658961720730399, 1};
Point(p11 + 34) = {22.18876446123439, 1.74134184866385, 1};
Point(p11 + 35) = {22.30865443789212, 1.843737562107879, 1};
Point(p11 + 36) = {22.41105015133615, 1.963627538765605, 1};
Point(p11 + 37) = {22.4934302792696, 2.098059689519694, 1};
Point(p11 + 38) = {22.55376634953878, 2.24372384866385, 1};
Point(p11 + 39) = {22.59057268784973, 2.397033281168317, 1};
Spline(11) = {9, p11 + 1, p11 + 2, p11 + 3, p11 + 4, p11 + 5, p11 + 6, p11 + 7, p11 + 8, p11 + 9, p11 + 10, p11 + 11, p11 + 12, p11 + 13, p11 + 14, p11 + 15, p11 + 16, p11 + 17, p11 + 18, p11 + 19, p11 + 20, p11 + 21, p11 + 22, p11 + 23, p11 + 24, p11 + 25, p11 + 26, p11 + 27, p11 + 28, p11 + 29, p11 + 30, p11 + 31, p11 + 32, p11 + 33, p11 + 34, p11 + 35, p11 + 36, p11 + 37, p11 + 38, p11 + 39, 9};
Line(12) = {4, 10};
Line(13) = {10, 7};
Line(14) = {5, 10};
p15 = newp;
Point(p15 + 1) = {29.0660863692413, -0.05069379031357205, 0};
Point(p15 + 2) = {29.02139433474512, 0.1354619306982501, 0};
Point(p15 + 3) = {28.94813136272511, 0.3123343913687384, 0};
Point(p15 + 4) = {28.84810143069825, 0.4755684047101428, 0};
Point(p15 + 5) = {28.72376760757136, 0.621144607571367, 0};
Point(p15 + 6) = {28.57819140471014, 0.7454784306982501, 0};
Point(p15 + 7) = {28.41495739136874, 0.8455083627251068, 0};
Point(p15 + 8) = {28.23808493069825, 0.918771334745125, 0};
Point(p15 + 9) = {28.05192920968643, 0.9634633692413077, 0};
Point(p15 + 10) = {27.861074, 0.9784839999999999, 0};
Point(p15 + 11) = {27.67021879031357, 0.9634633692413075, 0};
Point(p15 + 12) = {27.48406306930175, 0.9187713347451252, 0};
Point(p15 + 13) = {27.30719060863126, 0.845508362725107, 0};
Point(p15 + 14) = {27.14395659528986, 0.7454784306982501, 0};
Point(p15 + 15) = {26.99838039242863, 0.6211446075713671, 0};
Point(p15 + 16) = {26.87404656930175, 0.4755684047101429, 0};
Point(p15 + 17) = {26.77401663727489, 0.3123343913687385, 0};
Point(p15 + 18) = {26.70075366525487, 0.1354619306982503, 0};
Point(p15 + 19) = {26.65606163075869, -0.05069379031357191, 0};
Point(p15 + 20) = {26.641041, -0.2415489999999999, 0};
Point(p15 + 21) = {26.65606163075869, -0.4324042096864278, 0};
Point(p15 + 22) = {26.70075366525487, -0.6185599306982505, 0};
Point(p15 + 23) = {26.77401663727489, -0.7954323913687378, 0};
Point(p15 + 24) = {26.87404656930175, -0.9586664047101427, 0};
Point(p15 + 25) = {26.99838039242863, -1.104242607571367, 0};
Point(p15 + 26) = {27.14395659528985, -1.22857643069825, 0};
Point(p15 + 27) = {27.30719060863126, -1.328606362725107, 0};
Point(p15 + 28) = {27.48406306930175, -1.401869334745125, 0};
Point(p15 + 29) = {27.67021879031357, -1.446561369241308, 0};
Point(p15 + 30) = {27.861074, -1.461582, 0};
Point(p15 + 31) = {28.05192920968643, -1.446561369241308, 0};
Point(p15 + 32) = {28.23808493069825, -1.401869334745125, 0};
Point(p15 + 33) = {28.41495739136874, -1.328606362725107, 0};
Point(p15 + 34) = {28.57819140471014, -1.22857643069825, 0};
Point(p15 + 35) = {28.72376760757136, -1.104242607571367, 0};
Point(p15 + 36) = {28.84810143069825, -0.9586664047101431, 0};
Point(p15 + 37) = {28.94813136272511, -0.7954323913687387, 0};
Point(p15 + 38) = {29.02139433474512, -0.6185599306982504, 0};
Point(p15 + 39) = {29.0660863692413, -0.4324042096864282, 0};
Spline(15) = {11, p15 + 1, p15 + 2, p15 + 3, p15 + 4, p15 + 5, p15 + 6, p15 + 7, p15 + 8, p15 + 9, p15 + 10, p15 + 11, p15 + 12, p15 + 13, p15 + 14, p15 + 15, p15 + 16, p15 + 17, p15 + 18, p15 + 19, p15 + 20, p15 + 21, p15 + 22, p15 + 23, p15 + 24, p15 + 25, p15 + 26, p15 + 27, p15 + 28, p15 + 29, p15 + 30, p15 + 31, p15 + 32, p15 + 33, p15 + 34, p15 + 35, p15 + 36, p15 + 37, p15 + 38, p15 + 39, 11};
p16 = newp;
Point(p16 + 1) = {22.59057268784973, 2.711392718831682, 0};
Point(p16 + 2) = {22.55376634953878, 2.864702151336149, 0};
Point(p16 + 3) = {22.4934302792696, 3.010366310480306, 0};
Point(p16 + 4) = {22.41105015133615, 3.144798461234394, 0};
Point(p16 + 5) = {22.30865443789212, 3.26468843789212, 0};
Point(p16 + 6) = {22.18876446123439, 3.36708415133615, 0};
Point(p16 + 7) = {22.05433231048031, 3.449464279269601, 0};
Point(p16 + 8) = {21.90866815133615, 3.509800349538784, 0};
Point(p16 + 9) = {21.75535871883168, 3.546606687849733, 0};
Point(p16 + 10) = {21.598179, 3.558977, 0};
Point(p16 + 11) = {21.44099928116832, 3.546606687849733, 0};
Point(p16 + 12) = {21.28768984866385, 3.509800349538784, 0};
Point(p16 + 13) = {21.14202568951969, 3.449464279269601, 0};
Point(p16 + 14) = {21.0075935387656, 3.36708415133615, 0};
Point(p16 + 15) = {20.88770356210788, 3.26468843789212, 0};
Point(p16 + 16) = {20.78530784866385, 3.144798461234394, 0};
Point(p16 + 17) = {20.7029277207304, 3.010366310480306, 0};
Point(p16 + 18) = {20.64259165046121, 2.86470215133615, 0};
Point(p16 + 19) = {20.60578531215026, 2.711392718831683, 0};
Point(p16 + 20) = {20.593415, 2.554213, 0};
Point(p16 + 21) = {20.60578531215026, 2.397033281168317, 0};
Point(p16 + 22) = {20.64259165046121, 2.24372384866385, 0};
Point(p16 + 23) = {20.7029277207304, 2.098059689519694, 0};
Point(p16 + 24) = {20.78530784866385, 1.963627538765605, 0};
Point(p16 + 25) = {20.88770356210788, 1.84373756210788, 0};
Point(p16 + 26) = {21.0075935387656, 1.74134184866385, 0};
Point(p16 + 27) = {21.14202568951969, 1.658961720730399, 0};
Point(p16 + 28) = {21.28768984866385, 1.598625650461216, 0};
Point(p16 + 29) = {21.44099928116832, 1.561819312150267, 0};
Point(p16 + 30) = {21.598179, 1.549449, 0};
Point(p16 + 31) = {21.75535871883168, 1.561819312150267, 0};
Point(p16 + 32) = {21.90866815133615, 1.598625650461216, 0};
Point(p16 + 33) = {22.05433231048031, 1.658961720730399, 0};
Point(p16 + 34) = {22.18876446123439, 1.74134184866385, 0};
Point(p16 + 35) = {22.30865443789212, 1.843737562107879, 0};
Point(p16 + 36) = {22.41105015133615, 1.963627538765605, 0};
Point(p16 + 37) = {22.4934302792696, 2.098059689519694, 0};
Point(p16 + 38) = {22.55376634953878, 2.24372384866385, 0};
Point(p16 + 39) = {22.59057268784973, 2.397033281168317, 0};
Spline(16) = {12, p16 + 1, p16 + 2, p16 + 3, p16 + 4, p16 + 5, p16 + 6, p16 + 7, p16 + 8, p16 + 9, p16 + 10, p16 + 11, p16 + 12, p16 + 13, p16 + 14, p16 + 15, p16 + 16, p16 + 17, p16 + 18, p16 + 19, p16 + 20, p16 + 21, p16 + 22, p16 + 23, p16 + 24, p16 + 25, p16 + 26, p16 + 27, p16 + 28, p16 + 29, p16 + 30, p16 + 31, p16 + 32, p16 + 33, p16 + 34, p16 + 35, p16 + 36, p16 + 37, p16 + 38, p16 + 39, 12};
Line(17) = {11, 8};
Line(18) = {12, 9};
Curve Loop(1) = {-1, 4, 3, -2};
Plane Surface(1) = {1};
Curve Loop(2) = {-5, 1, 7, -6};
Plane Surface(2) = {2};
Curve Loop(3) = {-2, 7, 9, -8, -10, -11};
Plane Surface(3) = {3};
Curve Loop(4) = {-12, 3, 8, -13};
Plane Surface(4) = {4};
Curve Loop(5) = {-4, 5, 14, -12, -15, -16};
Plane Surface(5) = {5};
Curve Loop(6) = {-6, 14, 13, -9};
Plane Surface(6) = {6};
Curve Loop(7) = {-10, -17, 15, 17};
Surface(7) = {7};
Curve Loop(8) = {-11, -18, 16, 18};
Surface(8) = {8};
Surface Loop(1) = {1, 2, 3, 4, 5, 6, 7, 8};
Volume(1) = {1};
Physical Surface("INFLOW") = {1};
Physical Surface("OUTFLOW") = {6};
Physical Surface("OBSTACLE") = {7, 8};
Physical Surface("WALL_Y") = {2, 4};
Physical Surface("WALL_Z") = {3, 5};
Physical Volume("FLUID") = {1};
