cl__1 = 1;
cl__2 = 0.08115799999999999;
cl__3 = 0.077213;
Point(1) = {0.412904, -3.258512, 1, cl__1};
Point(2) = {0.412904, -3.258512, 0, cl__1};
Point(3) = {0.412904, 4.965476000000001, 1, cl__1};
Point(4) = {0.412904, 4.965476000000001, 0, cl__1};
Point(5) = {31.824072, -3.258512, 0, cl__1};
Point(6) = {31.824072, -3.258512, 1, cl__1};
Point(7) = {31.824072, 4.965476000000001, 1, cl__1};
Point(8) = {16.519288, -1.300107, 1, cl__2};
Point(9) = {21.040653, 0.9682049999999999, 1, cl__3};
Point(10) = {31.824072, 4.965476000000001, 0, cl__1};
Point(11) = {16.519288, -1.300107, 0, cl__2};
Point(12) = {21.040653, 0.9682049999999999, 0, cl__3};
Line(1) = {2, 1};
Line(2) = {1, 3};
Line(3) = {4, 3};
Line(4) = {2, 4};
Line(5) = {2, 5};
Line(6) = {5, 6};
Line(7) = {1, 6};
Line(8) = {3, 7};
Line(9) = {6, 7};
p10 = newp;
Point(p10 + 1) = {16.50929614039518, -1.173148386166044, 1};
Point(p10 + 2) = {16.47956659432527, -1.049315914756163, 1};
Point(p10 + 3) = {16.43083140188122, -0.9316587521928777, 1};
Point(p10 + 4) = {16.36429058524384, -0.8230740083002315, 1};
Point(p10 + 5) = {16.28158260015503, -0.7262353998449653, 1};
Point(p10 + 6) = {16.18474399169977, -0.6435274147561632, 1};
Point(p10 + 7) = {16.07615924780712, -0.5769865981187769, 1};
Point(p10 + 8) = {15.95850208524384, -0.5282514056747281, 1};
Point(p10 + 9) = {15.83466961383396, -0.4985218596048198, 1};
Point(p10 + 10) = {15.707711, -0.4885299999999999, 1};
Point(p10 + 11) = {15.58075238616604, -0.4985218596048199, 1};
Point(p10 + 12) = {15.45691991475616, -0.5282514056747279, 1};
Point(p10 + 13) = {15.33926275219288, -0.5769865981187768, 1};
Point(p10 + 14) = {15.23067800830023, -0.6435274147561632, 1};
Point(p10 + 15) = {15.13383939984497, -0.7262353998449652, 1};
Point(p10 + 16) = {15.05113141475616, -0.8230740083002314, 1};
Point(p10 + 17) = {14.98459059811878, -0.9316587521928776, 1};
Point(p10 + 18) = {14.93585540567473, -1.049315914756163, 1};
Point(p10 + 19) = {14.90612585960482, -1.173148386166044, 1};
Point(p10 + 20) = {14.896134, -1.300107, 1};
Point(p10 + 21) = {14.90612585960482, -1.427065613833955, 1};
Point(p10 + 22) = {14.93585540567473, -1.550898085243837, 1};
Point(p10 + 23) = {14.98459059811878, -1.668555247807121, 1};
Point(p10 + 24) = {15.05113141475616, -1.777139991699768, 1};
Point(p10 + 25) = {15.13383939984496, -1.873978600155034, 1};
Point(p10 + 26) = {15.23067800830023, -1.956686585243836, 1};
Point(p10 + 27) = {15.33926275219288, -2.023227401881223, 1};
Point(p10 + 28) = {15.45691991475616, -2.071962594325272, 1};
Point(p10 + 29) = {15.58075238616604, -2.10169214039518, 1};
Point(p10 + 30) = {15.707711, -2.111684, 1};
Point(p10 + 31) = {15.83466961383395, -2.10169214039518, 1};
Point(p10 + 32) = {15.95850208524384, -2.071962594325272, 1};
Point(p10 + 33) = {16.07615924780712, -2.023227401881223, 1};
Point(p10 + 34) = {16.18474399169977, -1.956686585243837, 1};
Point(p10 + 35) = {16.28158260015503, -1.873978600155035, 1};
Point(p10 + 36) = {16.36429058524384, -1.777139991699769, 1};
Point(p10 + 37) = {16.43083140188122, -1.668555247807122, 1};
Point(p10 + 38) = {16.47956659432527, -1.550898085243837, 1};
Point(p10 + 39) = {16.50929614039518, -1.427065613833955, 1};
Spline(10) = {8, p10 + 1, p10 + 2, p10 + 3, p10 + 4, p10 + 5, p10 + 6, p10 + 7, p10 + 8, p10 + 9, p10 + 10, p10 + 11, p10 + 12, p10 + 13, p10 + 14, p10 + 15, p10 + 16, p10 + 17, p10 + 18, p10 + 19, p10 + 20, p10 + 21, p10 + 22, p10 + 23, p10 + 24, p10 + 25, p10 + 26, p10 + 27, p10 + 28, p10 + 29, p10 + 30, p10 + 31, p10 + 32, p10 + 33, p10 + 34, p10 + 35, p10 + 36, p10 + 37, p10 + 38, p10 + 39, 8};
p11 = newp;
Point(p11 + 1) = {21.03114674917709, 1.088993369229374, 1};
Point(p11 + 2) = {21.00286207215304, 1.206807527934706, 1};
Point(p11 + 3) = {20.95649543154766, 1.318746500525895, 1};
Point(p11 + 4) = {20.89318852793471, 1.422053977993596, 1};
Point(p11 + 5) = {20.8145001873847, 1.514186187384694, 1};
Point(p11 + 6) = {20.7223679779936, 1.592874527934706, 1};
Point(p11 + 7) = {20.6190605005259, 1.656181431547661, 1};
Point(p11 + 8) = {20.50712152793471, 1.702548072153042, 1};
Point(p11 + 9) = {20.38930736922937, 1.730832749177086, 1};
Point(p11 + 10) = {20.268519, 1.740339, 1};
Point(p11 + 11) = {20.14773063077063, 1.730832749177086, 1};
Point(p11 + 12) = {20.0299164720653, 1.702548072153042, 1};
Point(p11 + 13) = {19.91797749947411, 1.656181431547661, 1};
Point(p11 + 14) = {19.8146700220064, 1.592874527934706, 1};
Point(p11 + 15) = {19.72253781261531, 1.514186187384694, 1};
Point(p11 + 16) = {19.64384947206529, 1.422053977993597, 1};
Point(p11 + 17) = {19.58054256845234, 1.318746500525895, 1};
Point(p11 + 18) = {19.53417592784696, 1.206807527934706, 1};
Point(p11 + 19) = {19.50589125082292, 1.088993369229374, 1};
Point(p11 + 20) = {19.496385, 0.9682050000000001, 1};
Point(p11 + 21) = {19.50589125082292, 0.8474166307706265, 1};
Point(p11 + 22) = {19.53417592784696, 0.729602472065294, 1};
Point(p11 + 23) = {19.58054256845234, 0.6176634994741053, 1};
Point(p11 + 24) = {19.64384947206529, 0.5143560220064036, 1};
Point(p11 + 25) = {19.72253781261531, 0.4222238126153064, 1};
Point(p11 + 26) = {19.8146700220064, 0.3435354720652944, 1};
Point(p11 + 27) = {19.91797749947411, 0.2802285684523388, 1};
Point(p11 + 28) = {20.0299164720653, 0.2338619278469579, 1};
Point(p11 + 29) = {20.14773063077063, 0.205577250822914, 1};
Point(p11 + 30) = {20.268519, 0.196071, 1};
Point(p11 + 31) = {20.38930736922937, 0.2055772508229139, 1};
Point(p11 + 32) = {20.50712152793471, 0.2338619278469578, 1};
Point(p11 + 33) = {20.6190605005259, 0.2802285684523388, 1};
Point(p11 + 34) = {20.7223679779936, 0.3435354720652942, 1};
Point(p11 + 35) = {20.8145001873847, 0.4222238126153062, 1};
Point(p11 + 36) = {20.89318852793471, 0.5143560220064034, 1};
Point(p11 + 37) = {20.95649543154766, 0.6176634994741046, 1};
Point(p11 + 38) = {21.00286207215304, 0.7296024720652942, 1};
Point(p11 + 39) = {21.03114674917709, 0.8474166307706262, 1};
Spline(11) = {9, p11 + 1, p11 + 2, p11 + 3, p11 + 4, p11 + 5, p11 + 6, p11 + 7, p11 + 8, p11 + 9, p11 + 10, p11 + 11, p11 + 12, p11 + 13, p11 + 14, p11 + 15, p11 + 16, p11 + 17, p11 + 18, p11 + 19, p11 + 20, p11 + 21, p11 + 22, p11 + 23, p11 + 24, p11 + 25, p11 + 26, p11 + 27, p11 + 28, p11 + 29, p11 + 30, p11 + 31, p11 + 32, p11 + 33, p11 + 34, p11 + 35, p11 + 36, p11 + 37, p11 + 38, p11 + 39, 9};
Line(12) = {4, 10};
Line(13) = {10, 7};
Line(14) = {5, 10};
p15 = newp;
Point(p15 + 1) = {16.50929614039518, -1.173148386166044, 0};
Point(p15 + 2) = {16.47956659432527, -1.049315914756163, 0};
Point(p15 + 3) = {16.43083140188122, -0.9316587521928777, 0};
Point(p15 + 4) = {16.36429058524384, -0.8230740083002315, 0};
Point(p15 + 5) = {16.28158260015503, -0.7262353998449653, 0};
Point(p15 + 6) = {16.18474399169977, -0.6435274147561632, 0};
Point(p15 + 7) = {16.07615924780712, -0.5769865981187769, 0};
Point(p15 + 8) = {15.95850208524384, -0.5282514056747281, 0};
Point(p15 + 9) = {15.83466961383396, -0.4985218596048198, 0};
Point(p15 + 10) = {15.707711, -0.4885299999999999, 0};
Point(p15 + 11) = {15.58075238616604, -0.4985218596048199, 0};
Point(p15 + 12) = {15.45691991475616, -0.5282514056747279, 0};
Point(p15 + 13) = {15.33926275219288, -0.5769865981187768, 0};
Point(p15 + 14) = {15.23067800830023, -0.6435274147561632, 0};
Point(p15 + 15) = {15.13383939984497, -0.7262353998449652, 0};
Point(p15 + 16) = {15.05113141475616, -0.8230740083002314, 0};
Point(p15 + 17) = {14.98459059811878, -0.9316587521928776, 0};
Point(p15 + 18) = {14.93585540567473, -1.049315914756163, 0};
Point(p15 + 19) = {14.90612585960482, -1.173148386166044, 0};
Point(p15 + 20) = {14.896134, -1.300107, 0};
Point(p15 + 21) = {14.90612585960482, -1.427065613833955, 0};
Point(p15 + 22) = {14.93585540567473, -1.550898085243837, 0};
Point(p15 + 23) = {14.98459059811878, -1.668555247807121, 0};
Point(p15 + 24) = {15.05113141475616, -1.777139991699768, 0};
Point(p15 + 25) = {15.13383939984496, -1.873978600155034, 0};
Point(p15 + 26) = {15.23067800830023, -1.956686585243836, 0};
Point(p15 + 27) = {15.33926275219288, -2.023227401881223, 0};
Point(p15 + 28) = {15.45691991475616, -2.071962594325272, 0};
Point(p15 + 29) = {15.58075238616604, -2.10169214039518, 0};
Point(p15 + 30) = {15.707711, -2.111684, 0};
Point(p15 + 31) = {15.83466961383395, -2.10169214039518, 0};
Point(p15 + 32) = {15.95850208524384, -2.071962594325272, 0};
Point(p15 + 33) = {16.07615924780712, -2.023227401881223, 0};
Point(p15 + 34) = {16.18474399169977, -1.956686585243837, 0};
Point(p15 + 35) = {16.28158260015503, -1.873978600155035, 0};
Point(p15 + 36) = {16.36429058524384, -1.777139991699769, 0};
Point(p15 + 37) = {16.43083140188122, -1.668555247807122, 0};
Point(p15 + 38) = {16.47956659432527, -1.550898085243837, 0};
Point(p15 + 39) = {16.50929614039518, -1.427065613833955, 0};
Spline(15) = {11, p15 + 1, p15 + 2, p15 + 3, p15 + 4, p15 + 5, p15 + 6, p15 + 7, p15 + 8, p15 + 9, p15 + 10, p15 + 11, p15 + 12, p15 + 13, p15 + 14, p15 + 15, p15 + 16, p15 + 17, p15 + 18, p15 + 19, p15 + 20, p15 + 21, p15 + 22, p15 + 23, p15 + 24, p15 + 25, p15 + 26, p15 + 27, p15 + 28, p15 + 29, p15 + 30, p15 + 31, p15 + 32, p15 + 33, p15 + 34, p15 + 35, p15 + 36, p15 + 37, p15 + 38, p15 + 39, 11};
p16 = newp;
Point(p16 + 1) = {21.03114674917709, 1.088993369229374, 0};
Point(p16 + 2) = {21.00286207215304, 1.206807527934706, 0};
Point(p16 + 3) = {20.95649543154766, 1.318746500525895, 0};
Point(p16 + 4) = {20.89318852793471, 1.422053977993596, 0};
Point(p16 + 5) = {20.8145001873847, 1.514186187384694, 0};
Point(p16 + 6) = {20.7223679779936, 1.592874527934706, 0};
Point(p16 + 7) = {20.6190605005259, 1.656181431547661, 0};
Point(p16 + 8) = {20.50712152793471, 1.702548072153042, 0};
Point(p16 + 9) = {20.38930736922937, 1.730832749177086, 0};
Point(p16 + 10) = {20.268519, 1.740339, 0};
Point(p16 + 11) = {20.14773063077063, 1.730832749177086, 0};
Point(p16 + 12) = {20.0299164720653, 1.702548072153042, 0};
Point(p16 + 13) = {19.91797749947411, 1.656181431547661, 0};
Point(p16 + 14) = {19.8146700220064, 1.592874527934706, 0};
Point(p16 + 15) = {19.72253781261531, 1.514186187384694, 0};
Point(p16 + 16) = {19.64384947206529, 1.422053977993597, 0};
Point(p16 + 17) = {19.58054256845234, 1.318746500525895, 0};
Point(p16 + 18) = {19.53417592784696, 1.206807527934706, 0};
Point(p16 + 19) = {19.50589125082292, 1.088993369229374, 0};
Point(p16 + 20) = {19.496385, 0.9682050000000001, 0};
Point(p16 + 21) = {19.50589125082292, 0.8474166307706265, 0};
Point(p16 + 22) = {19.53417592784696, 0.729602472065294, 0};
Point(p16 + 23) = {19.58054256845234, 0.6176634994741053, 0};
Point(p16 + 24) = {19.64384947206529, 0.5143560220064036, 0};
Point(p16 + 25) = {19.72253781261531, 0.4222238126153064, 0};
Point(p16 + 26) = {19.8146700220064, 0.3435354720652944, 0};
Point(p16 + 27) = {19.91797749947411, 0.2802285684523388, 0};
Point(p16 + 28) = {20.0299164720653, 0.2338619278469579, 0};
Point(p16 + 29) = {20.14773063077063, 0.205577250822914, 0};
Point(p16 + 30) = {20.268519, 0.196071, 0};
Point(p16 + 31) = {20.38930736922937, 0.2055772508229139, 0};
Point(p16 + 32) = {20.50712152793471, 0.2338619278469578, 0};
Point(p16 + 33) = {20.6190605005259, 0.2802285684523388, 0};
Point(p16 + 34) = {20.7223679779936, 0.3435354720652942, 0};
Point(p16 + 35) = {20.8145001873847, 0.4222238126153062, 0};
Point(p16 + 36) = {20.89318852793471, 0.5143560220064034, 0};
Point(p16 + 37) = {20.95649543154766, 0.6176634994741046, 0};
Point(p16 + 38) = {21.00286207215304, 0.7296024720652942, 0};
Point(p16 + 39) = {21.03114674917709, 0.8474166307706262, 0};
Spline(16) = {12, p16 + 1, p16 + 2, p16 + 3, p16 + 4, p16 + 5, p16 + 6, p16 + 7, p16 + 8, p16 + 9, p16 + 10, p16 + 11, p16 + 12, p16 + 13, p16 + 14, p16 + 15, p16 + 16, p16 + 17, p16 + 18, p16 + 19, p16 + 20, p16 + 21, p16 + 22, p16 + 23, p16 + 24, p16 + 25, p16 + 26, p16 + 27, p16 + 28, p16 + 29, p16 + 30, p16 + 31, p16 + 32, p16 + 33, p16 + 34, p16 + 35, p16 + 36, p16 + 37, p16 + 38, p16 + 39, 12};
Line(17) = {11, 8};
Line(18) = {12, 9};
Curve Loop(1) = {-1, 4, 3, -2};
Plane Surface(1) = {1};
Curve Loop(2) = {-5, 1, 7, -6};
Plane Surface(2) = {2};
Curve Loop(3) = {-2, 7, 9, -8, -10, -11};
Plane Surface(3) = {3};
Curve Loop(4) = {-12, 3, 8, -13};
Plane Surface(4) = {4};
Curve Loop(5) = {-4, 5, 14, -12, -15, -16};
Plane Surface(5) = {5};
Curve Loop(6) = {-6, 14, 13, -9};
Plane Surface(6) = {6};
Curve Loop(7) = {-10, -17, 15, 17};
Surface(7) = {7};
Curve Loop(8) = {-11, -18, 16, 18};
Surface(8) = {8};
Surface Loop(1) = {1, 2, 3, 4, 5, 6, 7, 8};
Volume(1) = {1};
Physical Surface("INFLOW") = {1};
Physical Surface("OUTFLOW") = {6};
Physical Surface("OBSTACLE") = {7, 8};
Physical Surface("WALL_Y") = {2, 4};
Physical Surface("WALL_Z") = {3, 5};
Physical Volume("FLUID") = {1};
