cl__1 = 3.722704;
cl__2 = 1.571709;
cl__3 = 1.424201;
cl__4 = 0.080958;
Point(1) = {0.349821, -3.272251, 1, cl__1};
Point(2) = {0.349821, -3.272251, 0, cl__1};
Point(3) = {0.349821, 5.207644000000001, 1, cl__1};
Point(4) = {0.349821, 5.207644000000001, 0, cl__1};
Point(5) = {36.9848, -3.272251, 0, cl__2};
Point(6) = {36.9848, -3.272251, 1, cl__2};
Point(7) = {36.9848, 5.207644000000001, 1, cl__3};
Point(8) = {22.817063, 3.714213, 1, cl__4};
Point(9) = {36.9848, 5.207644000000001, 0, cl__3};
Point(10) = {22.817063, 3.714213, 0, cl__4};
Line(1) = {2, 1};
Line(2) = {1, 3};
Line(3) = {4, 3};
Line(4) = {2, 4};
Line(5) = {2, 5};
Line(6) = {5, 6};
Line(7) = {1, 6};
Line(8) = {3, 7};
Line(9) = {6, 7};
p10 = newp;
Point(p10 + 1) = {22.80709570215569, 3.8408595270762, 1};
Point(p10 + 2) = {22.77743923657526, 3.964387596340059, 1};
Point(p10 + 3) = {22.72882384386547, 4.081755536760141, 1};
Point(p10 + 4) = {22.66244659634006, 4.190073360121445, 1};
Point(p10 + 5) = {22.57994192212657, 4.286673922126568, 1};
Point(p10 + 6) = {22.48334136012144, 4.369178596340059, 1};
Point(p10 + 7) = {22.37502353676014, 4.435555843865467, 1};
Point(p10 + 8) = {22.25765559634006, 4.484171236575263, 1};
Point(p10 + 9) = {22.1341275270762, 4.513827702155693, 1};
Point(p10 + 10) = {22.007481, 4.523795, 1};
Point(p10 + 11) = {21.8808344729238, 4.513827702155693, 1};
Point(p10 + 12) = {21.75730640365994, 4.484171236575263, 1};
Point(p10 + 13) = {21.63993846323986, 4.435555843865467, 1};
Point(p10 + 14) = {21.53162063987855, 4.369178596340059, 1};
Point(p10 + 15) = {21.43502007787343, 4.286673922126568, 1};
Point(p10 + 16) = {21.35251540365994, 4.190073360121445, 1};
Point(p10 + 17) = {21.28613815613453, 4.081755536760141, 1};
Point(p10 + 18) = {21.23752276342474, 3.964387596340059, 1};
Point(p10 + 19) = {21.2078662978443, 3.8408595270762, 1};
Point(p10 + 20) = {21.197899, 3.714213, 1};
Point(p10 + 21) = {21.2078662978443, 3.5875664729238, 1};
Point(p10 + 22) = {21.23752276342474, 3.464038403659941, 1};
Point(p10 + 23) = {21.28613815613453, 3.346670463239859, 1};
Point(p10 + 24) = {21.35251540365994, 3.238352639878555, 1};
Point(p10 + 25) = {21.43502007787343, 3.141752077873432, 1};
Point(p10 + 26) = {21.53162063987855, 3.059247403659941, 1};
Point(p10 + 27) = {21.63993846323986, 2.992870156134533, 1};
Point(p10 + 28) = {21.75730640365994, 2.944254763424737, 1};
Point(p10 + 29) = {21.8808344729238, 2.914598297844307, 1};
Point(p10 + 30) = {22.007481, 2.904631, 1};
Point(p10 + 31) = {22.1341275270762, 2.914598297844307, 1};
Point(p10 + 32) = {22.25765559634006, 2.944254763424737, 1};
Point(p10 + 33) = {22.37502353676014, 2.992870156134533, 1};
Point(p10 + 34) = {22.48334136012144, 3.059247403659941, 1};
Point(p10 + 35) = {22.57994192212657, 3.141752077873432, 1};
Point(p10 + 36) = {22.66244659634006, 3.238352639878555, 1};
Point(p10 + 37) = {22.72882384386547, 3.346670463239858, 1};
Point(p10 + 38) = {22.77743923657526, 3.464038403659941, 1};
Point(p10 + 39) = {22.80709570215569, 3.587566472923799, 1};
Spline(10) = {8, p10 + 1, p10 + 2, p10 + 3, p10 + 4, p10 + 5, p10 + 6, p10 + 7, p10 + 8, p10 + 9, p10 + 10, p10 + 11, p10 + 12, p10 + 13, p10 + 14, p10 + 15, p10 + 16, p10 + 17, p10 + 18, p10 + 19, p10 + 20, p10 + 21, p10 + 22, p10 + 23, p10 + 24, p10 + 25, p10 + 26, p10 + 27, p10 + 28, p10 + 29, p10 + 30, p10 + 31, p10 + 32, p10 + 33, p10 + 34, p10 + 35, p10 + 36, p10 + 37, p10 + 38, p10 + 39, 8};
Line(11) = {4, 9};
Line(12) = {9, 7};
Line(13) = {5, 9};
p14 = newp;
Point(p14 + 1) = {22.80709570215569, 3.8408595270762, 0};
Point(p14 + 2) = {22.77743923657526, 3.964387596340059, 0};
Point(p14 + 3) = {22.72882384386547, 4.081755536760141, 0};
Point(p14 + 4) = {22.66244659634006, 4.190073360121445, 0};
Point(p14 + 5) = {22.57994192212657, 4.286673922126568, 0};
Point(p14 + 6) = {22.48334136012144, 4.369178596340059, 0};
Point(p14 + 7) = {22.37502353676014, 4.435555843865467, 0};
Point(p14 + 8) = {22.25765559634006, 4.484171236575263, 0};
Point(p14 + 9) = {22.1341275270762, 4.513827702155693, 0};
Point(p14 + 10) = {22.007481, 4.523795, 0};
Point(p14 + 11) = {21.8808344729238, 4.513827702155693, 0};
Point(p14 + 12) = {21.75730640365994, 4.484171236575263, 0};
Point(p14 + 13) = {21.63993846323986, 4.435555843865467, 0};
Point(p14 + 14) = {21.53162063987855, 4.369178596340059, 0};
Point(p14 + 15) = {21.43502007787343, 4.286673922126568, 0};
Point(p14 + 16) = {21.35251540365994, 4.190073360121445, 0};
Point(p14 + 17) = {21.28613815613453, 4.081755536760141, 0};
Point(p14 + 18) = {21.23752276342474, 3.964387596340059, 0};
Point(p14 + 19) = {21.2078662978443, 3.8408595270762, 0};
Point(p14 + 20) = {21.197899, 3.714213, 0};
Point(p14 + 21) = {21.2078662978443, 3.5875664729238, 0};
Point(p14 + 22) = {21.23752276342474, 3.464038403659941, 0};
Point(p14 + 23) = {21.28613815613453, 3.346670463239859, 0};
Point(p14 + 24) = {21.35251540365994, 3.238352639878555, 0};
Point(p14 + 25) = {21.43502007787343, 3.141752077873432, 0};
Point(p14 + 26) = {21.53162063987855, 3.059247403659941, 0};
Point(p14 + 27) = {21.63993846323986, 2.992870156134533, 0};
Point(p14 + 28) = {21.75730640365994, 2.944254763424737, 0};
Point(p14 + 29) = {21.8808344729238, 2.914598297844307, 0};
Point(p14 + 30) = {22.007481, 2.904631, 0};
Point(p14 + 31) = {22.1341275270762, 2.914598297844307, 0};
Point(p14 + 32) = {22.25765559634006, 2.944254763424737, 0};
Point(p14 + 33) = {22.37502353676014, 2.992870156134533, 0};
Point(p14 + 34) = {22.48334136012144, 3.059247403659941, 0};
Point(p14 + 35) = {22.57994192212657, 3.141752077873432, 0};
Point(p14 + 36) = {22.66244659634006, 3.238352639878555, 0};
Point(p14 + 37) = {22.72882384386547, 3.346670463239858, 0};
Point(p14 + 38) = {22.77743923657526, 3.464038403659941, 0};
Point(p14 + 39) = {22.80709570215569, 3.587566472923799, 0};
Spline(14) = {10, p14 + 1, p14 + 2, p14 + 3, p14 + 4, p14 + 5, p14 + 6, p14 + 7, p14 + 8, p14 + 9, p14 + 10, p14 + 11, p14 + 12, p14 + 13, p14 + 14, p14 + 15, p14 + 16, p14 + 17, p14 + 18, p14 + 19, p14 + 20, p14 + 21, p14 + 22, p14 + 23, p14 + 24, p14 + 25, p14 + 26, p14 + 27, p14 + 28, p14 + 29, p14 + 30, p14 + 31, p14 + 32, p14 + 33, p14 + 34, p14 + 35, p14 + 36, p14 + 37, p14 + 38, p14 + 39, 10};
Line(15) = {10, 8};
Curve Loop(1) = {-1, 4, 3, -2};
Plane Surface(1) = {1};
Curve Loop(2) = {-5, 1, 7, -6};
Plane Surface(2) = {2};
Curve Loop(3) = {-2, 7, 9, -8, -10};
Plane Surface(3) = {3};
Curve Loop(4) = {-11, 3, 8, -12};
Plane Surface(4) = {4};
Curve Loop(5) = {-4, 5, 13, -11, -14};
Plane Surface(5) = {5};
Curve Loop(6) = {-6, 13, 12, -9};
Plane Surface(6) = {6};
Curve Loop(7) = {-10, -15, 14, 15};
Surface(7) = {7};
Surface Loop(1) = {1, 2, 3, 4, 5, 6, 7};
Volume(1) = {1};
Physical Surface("INFLOW") = {1};
Physical Surface("OUTFLOW") = {6};
Physical Surface("OBSTACLE") = {7};
Physical Surface("WALL_Y") = {2, 4};
Physical Surface("WALL_Z") = {3, 5};
Physical Volume("FLUID") = {1};
