cl__1 = 3.684176;
cl__2 = 1.375965;
cl__3 = 1.413688;
cl__4 = 0.118976;
Point(1) = {0.321211, -4.053051, 1, cl__1};
Point(2) = {0.321211, -4.053051, 0, cl__1};
Point(3) = {0.321211, 4.213189, 1, cl__1};
Point(4) = {0.321211, 4.213189, 0, cl__1};
Point(5) = {36.609192, -4.053051, 0, cl__2};
Point(6) = {36.609192, -4.053051, 1, cl__2};
Point(7) = {36.609192, 4.213189, 1, cl__3};
Point(8) = {23.251256, -0.6107420000000002, 1, cl__4};
Point(9) = {36.609192, 4.213189, 0, cl__3};
Point(10) = {23.251256, -0.6107420000000002, 0, cl__4};
Line(1) = {2, 1};
Line(2) = {1, 3};
Line(3) = {4, 3};
Line(4) = {2, 4};
Line(5) = {2, 5};
Line(6) = {5, 6};
Line(7) = {1, 6};
Line(8) = {3, 7};
Line(9) = {6, 7};
p10 = newp;
Point(p10 + 1) = {23.23660801854817, -0.4246217487014097, 1};
Point(p10 + 2) = {23.1930247561099, -0.2430843956874907, 1};
Point(p10 + 3) = {23.12157937725097, -0.07059999307737819, 1};
Point(p10 + 4) = {23.02403110431251, 0.08858432069375433, 1};
Point(p10 + 5) = {22.90278189951841, 0.2305488995184126, 1};
Point(p10 + 6) = {22.76081732069375, 0.3517981043125094, 1};
Point(p10 + 7) = {22.60163300692262, 0.4493463772509733, 1};
Point(p10 + 8) = {22.42914860431251, 0.5207917561099032, 1};
Point(p10 + 9) = {22.24761125129859, 0.5643750185481741, 1};
Point(p10 + 10) = {22.061491, 0.579023, 1};
Point(p10 + 11) = {21.87537074870141, 0.5643750185481738, 1};
Point(p10 + 12) = {21.69383339568749, 0.5207917561099035, 1};
Point(p10 + 13) = {21.52134899307738, 0.4493463772509735, 1};
Point(p10 + 14) = {21.36216467930625, 0.3517981043125094, 1};
Point(p10 + 15) = {21.22020010048159, 0.2305488995184127, 1};
Point(p10 + 16) = {21.09895089568749, 0.08858432069375444, 1};
Point(p10 + 17) = {21.00140262274903, -0.07059999307737808, 1};
Point(p10 + 18) = {20.9299572438901, -0.2430843956874906, 1};
Point(p10 + 19) = {20.88637398145183, -0.4246217487014096, 1};
Point(p10 + 20) = {20.871726, -0.6107419999999999, 1};
Point(p10 + 21) = {20.88637398145183, -0.7968622512985901, 1};
Point(p10 + 22) = {20.9299572438901, -0.9783996043125096, 1};
Point(p10 + 23) = {21.00140262274903, -1.150884006922621, 1};
Point(p10 + 24) = {21.09895089568749, -1.310068320693754, 1};
Point(p10 + 25) = {21.22020010048159, -1.452032899518413, 1};
Point(p10 + 26) = {21.36216467930625, -1.573282104312509, 1};
Point(p10 + 27) = {21.52134899307738, -1.670830377250973, 1};
Point(p10 + 28) = {21.69383339568749, -1.742275756109903, 1};
Point(p10 + 29) = {21.87537074870141, -1.785859018548174, 1};
Point(p10 + 30) = {22.061491, -1.800507, 1};
Point(p10 + 31) = {22.24761125129859, -1.785859018548174, 1};
Point(p10 + 32) = {22.42914860431251, -1.742275756109903, 1};
Point(p10 + 33) = {22.60163300692262, -1.670830377250974, 1};
Point(p10 + 34) = {22.76081732069375, -1.57328210431251, 1};
Point(p10 + 35) = {22.90278189951841, -1.452032899518413, 1};
Point(p10 + 36) = {23.02403110431251, -1.310068320693754, 1};
Point(p10 + 37) = {23.12157937725097, -1.150884006922622, 1};
Point(p10 + 38) = {23.1930247561099, -0.9783996043125096, 1};
Point(p10 + 39) = {23.23660801854817, -0.7968622512985906, 1};
Spline(10) = {8, p10 + 1, p10 + 2, p10 + 3, p10 + 4, p10 + 5, p10 + 6, p10 + 7, p10 + 8, p10 + 9, p10 + 10, p10 + 11, p10 + 12, p10 + 13, p10 + 14, p10 + 15, p10 + 16, p10 + 17, p10 + 18, p10 + 19, p10 + 20, p10 + 21, p10 + 22, p10 + 23, p10 + 24, p10 + 25, p10 + 26, p10 + 27, p10 + 28, p10 + 29, p10 + 30, p10 + 31, p10 + 32, p10 + 33, p10 + 34, p10 + 35, p10 + 36, p10 + 37, p10 + 38, p10 + 39, 8};
Line(11) = {4, 9};
Line(12) = {9, 7};
Line(13) = {5, 9};
p14 = newp;
Point(p14 + 1) = {23.23660801854817, -0.4246217487014097, 0};
Point(p14 + 2) = {23.1930247561099, -0.2430843956874907, 0};
Point(p14 + 3) = {23.12157937725097, -0.07059999307737819, 0};
Point(p14 + 4) = {23.02403110431251, 0.08858432069375433, 0};
Point(p14 + 5) = {22.90278189951841, 0.2305488995184126, 0};
Point(p14 + 6) = {22.76081732069375, 0.3517981043125094, 0};
Point(p14 + 7) = {22.60163300692262, 0.4493463772509733, 0};
Point(p14 + 8) = {22.42914860431251, 0.5207917561099032, 0};
Point(p14 + 9) = {22.24761125129859, 0.5643750185481741, 0};
Point(p14 + 10) = {22.061491, 0.579023, 0};
Point(p14 + 11) = {21.87537074870141, 0.5643750185481738, 0};
Point(p14 + 12) = {21.69383339568749, 0.5207917561099035, 0};
Point(p14 + 13) = {21.52134899307738, 0.4493463772509735, 0};
Point(p14 + 14) = {21.36216467930625, 0.3517981043125094, 0};
Point(p14 + 15) = {21.22020010048159, 0.2305488995184127, 0};
Point(p14 + 16) = {21.09895089568749, 0.08858432069375444, 0};
Point(p14 + 17) = {21.00140262274903, -0.07059999307737808, 0};
Point(p14 + 18) = {20.9299572438901, -0.2430843956874906, 0};
Point(p14 + 19) = {20.88637398145183, -0.4246217487014096, 0};
Point(p14 + 20) = {20.871726, -0.6107419999999999, 0};
Point(p14 + 21) = {20.88637398145183, -0.7968622512985901, 0};
Point(p14 + 22) = {20.9299572438901, -0.9783996043125096, 0};
Point(p14 + 23) = {21.00140262274903, -1.150884006922621, 0};
Point(p14 + 24) = {21.09895089568749, -1.310068320693754, 0};
Point(p14 + 25) = {21.22020010048159, -1.452032899518413, 0};
Point(p14 + 26) = {21.36216467930625, -1.573282104312509, 0};
Point(p14 + 27) = {21.52134899307738, -1.670830377250973, 0};
Point(p14 + 28) = {21.69383339568749, -1.742275756109903, 0};
Point(p14 + 29) = {21.87537074870141, -1.785859018548174, 0};
Point(p14 + 30) = {22.061491, -1.800507, 0};
Point(p14 + 31) = {22.24761125129859, -1.785859018548174, 0};
Point(p14 + 32) = {22.42914860431251, -1.742275756109903, 0};
Point(p14 + 33) = {22.60163300692262, -1.670830377250974, 0};
Point(p14 + 34) = {22.76081732069375, -1.57328210431251, 0};
Point(p14 + 35) = {22.90278189951841, -1.452032899518413, 0};
Point(p14 + 36) = {23.02403110431251, -1.310068320693754, 0};
Point(p14 + 37) = {23.12157937725097, -1.150884006922622, 0};
Point(p14 + 38) = {23.1930247561099, -0.9783996043125096, 0};
Point(p14 + 39) = {23.23660801854817, -0.7968622512985906, 0};
Spline(14) = {10, p14 + 1, p14 + 2, p14 + 3, p14 + 4, p14 + 5, p14 + 6, p14 + 7, p14 + 8, p14 + 9, p14 + 10, p14 + 11, p14 + 12, p14 + 13, p14 + 14, p14 + 15, p14 + 16, p14 + 17, p14 + 18, p14 + 19, p14 + 20, p14 + 21, p14 + 22, p14 + 23, p14 + 24, p14 + 25, p14 + 26, p14 + 27, p14 + 28, p14 + 29, p14 + 30, p14 + 31, p14 + 32, p14 + 33, p14 + 34, p14 + 35, p14 + 36, p14 + 37, p14 + 38, p14 + 39, 10};
Line(15) = {10, 8};
Curve Loop(1) = {-1, 4, 3, -2};
Plane Surface(1) = {1};
Curve Loop(2) = {-5, 1, 7, -6};
Plane Surface(2) = {2};
Curve Loop(3) = {-2, 7, 9, -8, -10};
Plane Surface(3) = {3};
Curve Loop(4) = {-11, 3, 8, -12};
Plane Surface(4) = {4};
Curve Loop(5) = {-4, 5, 13, -11, -14};
Plane Surface(5) = {5};
Curve Loop(6) = {-6, 13, 12, -9};
Plane Surface(6) = {6};
Curve Loop(7) = {-10, -15, 14, 15};
Surface(7) = {7};
Surface Loop(1) = {1, 2, 3, 4, 5, 6, 7};
Volume(1) = {1};
Physical Surface("INFLOW") = {1};
Physical Surface("OUTFLOW") = {6};
Physical Surface("OBSTACLE") = {7};
Physical Surface("WALL_Y") = {2, 4};
Physical Surface("WALL_Z") = {3, 5};
Physical Volume("FLUID") = {1};
