cl__1 = 3.717949;
cl__2 = 1.562941;
cl__3 = 0.46294;
cl__4 = 0.128919;
cl__5 = 0.054348;
Point(1) = {0.729924, -3.631638, 1, cl__1};
Point(2) = {0.729924, -3.631638, 0, cl__1};
Point(3) = {0.729924, 3.914333, 1, cl__2};
Point(4) = {0.729924, 3.914333, 0, cl__2};
Point(5) = {36.987553, -3.631638, 0, cl__3};
Point(6) = {36.987553, -3.631638, 1, cl__3};
Point(7) = {36.987553, 3.914333, 1, cl__2};
Point(8) = {7.588895, -1.629828, 1, cl__4};
Point(9) = {22.107408, 1.23398, 1, cl__5};
Point(10) = {36.987553, 3.914333, 0, cl__2};
Point(11) = {7.588895, -1.629828, 0, cl__4};
Point(12) = {22.107408, 1.23398, 0, cl__5};
Line(1) = {2, 1};
Line(2) = {1, 3};
Line(3) = {4, 3};
Line(4) = {2, 4};
Line(5) = {2, 5};
Line(6) = {5, 6};
Line(7) = {1, 6};
Line(8) = {3, 7};
Line(9) = {6, 7};
p10 = newp;
Point(p10 + 1) = {7.573022956435164, -1.428154564883715, 1};
Point(p10 + 2) = {7.525797648129516, -1.23144699905575, 1};
Point(p10 + 3) = {7.448381918905353, -1.044548895621773, 1};
Point(p10 + 4) = {7.342682000944249, -0.8720623061675712, 1};
Point(p10 + 5) = {7.211300577024323, -0.7182344229756773, 1};
Point(p10 + 6) = {7.057472693832429, -0.5868529990557503, 1};
Point(p10 + 7) = {6.884986104378227, -0.4811530810946465, 1};
Point(p10 + 8) = {6.698088000944249, -0.4037373518704837, 1};
Point(p10 + 9) = {6.501380435116285, -0.3565120435648357, 1};
Point(p10 + 10) = {6.299707, -0.3406400000000001, 1};
Point(p10 + 11) = {6.098033564883714, -0.3565120435648357, 1};
Point(p10 + 12) = {5.90132599905575, -0.4037373518704834, 1};
Point(p10 + 13) = {5.714427895621773, -0.4811530810946465, 1};
Point(p10 + 14) = {5.541941306167571, -0.5868529990557503, 1};
Point(p10 + 15) = {5.388113422975677, -0.7182344229756772, 1};
Point(p10 + 16) = {5.25673199905575, -0.8720623061675711, 1};
Point(p10 + 17) = {5.151032081094646, -1.044548895621773, 1};
Point(p10 + 18) = {5.073616351870483, -1.23144699905575, 1};
Point(p10 + 19) = {5.026391043564836, -1.428154564883715, 1};
Point(p10 + 20) = {5.010519, -1.629828, 1};
Point(p10 + 21) = {5.026391043564836, -1.831501435116285, 1};
Point(p10 + 22) = {5.073616351870483, -2.02820900094425, 1};
Point(p10 + 23) = {5.151032081094645, -2.215107104378226, 1};
Point(p10 + 24) = {5.25673199905575, -2.387593693832429, 1};
Point(p10 + 25) = {5.388113422975676, -2.541421577024323, 1};
Point(p10 + 26) = {5.541941306167571, -2.67280300094425, 1};
Point(p10 + 27) = {5.714427895621773, -2.778502918905354, 1};
Point(p10 + 28) = {5.90132599905575, -2.855918648129516, 1};
Point(p10 + 29) = {6.098033564883714, -2.903143956435164, 1};
Point(p10 + 30) = {6.299707, -2.919016, 1};
Point(p10 + 31) = {6.501380435116284, -2.903143956435164, 1};
Point(p10 + 32) = {6.698088000944249, -2.855918648129517, 1};
Point(p10 + 33) = {6.884986104378227, -2.778502918905354, 1};
Point(p10 + 34) = {7.057472693832429, -2.67280300094425, 1};
Point(p10 + 35) = {7.211300577024322, -2.541421577024323, 1};
Point(p10 + 36) = {7.342682000944249, -2.387593693832429, 1};
Point(p10 + 37) = {7.448381918905353, -2.215107104378227, 1};
Point(p10 + 38) = {7.525797648129516, -2.02820900094425, 1};
Point(p10 + 39) = {7.573022956435164, -1.831501435116285, 1};
Spline(10) = {8, p10 + 1, p10 + 2, p10 + 3, p10 + 4, p10 + 5, p10 + 6, p10 + 7, p10 + 8, p10 + 9, p10 + 10, p10 + 11, p10 + 12, p10 + 13, p10 + 14, p10 + 15, p10 + 16, p10 + 17, p10 + 18, p10 + 19, p10 + 20, p10 + 21, p10 + 22, p10 + 23, p10 + 24, p10 + 25, p10 + 26, p10 + 27, p10 + 28, p10 + 29, p10 + 30, p10 + 31, p10 + 32, p10 + 33, p10 + 34, p10 + 35, p10 + 36, p10 + 37, p10 + 38, p10 + 39, 8};
p11 = newp;
Point(p11 + 1) = {22.10071683472333, 1.318999315928995, 1};
Point(p11 + 2) = {22.08080809758912, 1.401925174136885, 1};
Point(p11 + 3) = {22.04817200777894, 1.480715664779448, 1};
Point(p11 + 4) = {22.00361217413688, 1.553430704486418, 1};
Point(p11 + 5) = {21.94822580765283, 1.618279807652827, 1};
Point(p11 + 6) = {21.88337670448642, 1.673666174136885, 1};
Point(p11 + 7) = {21.81066166477945, 1.718226007778943, 1};
Point(p11 + 8) = {21.73187117413688, 1.750862097589123, 1};
Point(p11 + 9) = {21.64894531592899, 1.770770834723327, 1};
Point(p11 + 10) = {21.563926, 1.777462, 1};
Point(p11 + 11) = {21.478906684071, 1.770770834723327, 1};
Point(p11 + 12) = {21.39598082586311, 1.750862097589123, 1};
Point(p11 + 13) = {21.31719033522055, 1.718226007778943, 1};
Point(p11 + 14) = {21.24447529551358, 1.673666174136885, 1};
Point(p11 + 15) = {21.17962619234717, 1.618279807652827, 1};
Point(p11 + 16) = {21.12423982586311, 1.553430704486418, 1};
Point(p11 + 17) = {21.07967999222106, 1.480715664779448, 1};
Point(p11 + 18) = {21.04704390241088, 1.401925174136885, 1};
Point(p11 + 19) = {21.02713516527667, 1.318999315928995, 1};
Point(p11 + 20) = {21.020444, 1.23398, 1};
Point(p11 + 21) = {21.02713516527667, 1.148960684071005, 1};
Point(p11 + 22) = {21.04704390241088, 1.066034825863115, 1};
Point(p11 + 23) = {21.07967999222106, 0.987244335220552, 1};
Point(p11 + 24) = {21.12423982586311, 0.9145292955135822, 1};
Point(p11 + 25) = {21.17962619234717, 0.8496801923471728, 1};
Point(p11 + 26) = {21.24447529551358, 0.7942938258631149, 1};
Point(p11 + 27) = {21.31719033522055, 0.7497339922210575, 1};
Point(p11 + 28) = {21.39598082586311, 0.7170979024108775, 1};
Point(p11 + 29) = {21.478906684071, 0.6971891652766734, 1};
Point(p11 + 30) = {21.563926, 0.6904980000000001, 1};
Point(p11 + 31) = {21.64894531592899, 0.6971891652766734, 1};
Point(p11 + 32) = {21.73187117413688, 0.7170979024108773, 1};
Point(p11 + 33) = {21.81066166477945, 0.7497339922210575, 1};
Point(p11 + 34) = {21.88337670448642, 0.7942938258631148, 1};
Point(p11 + 35) = {21.94822580765283, 0.8496801923471727, 1};
Point(p11 + 36) = {22.00361217413688, 0.9145292955135821, 1};
Point(p11 + 37) = {22.04817200777894, 0.9872443352205515, 1};
Point(p11 + 38) = {22.08080809758912, 1.066034825863115, 1};
Point(p11 + 39) = {22.10071683472333, 1.148960684071005, 1};
Spline(11) = {9, p11 + 1, p11 + 2, p11 + 3, p11 + 4, p11 + 5, p11 + 6, p11 + 7, p11 + 8, p11 + 9, p11 + 10, p11 + 11, p11 + 12, p11 + 13, p11 + 14, p11 + 15, p11 + 16, p11 + 17, p11 + 18, p11 + 19, p11 + 20, p11 + 21, p11 + 22, p11 + 23, p11 + 24, p11 + 25, p11 + 26, p11 + 27, p11 + 28, p11 + 29, p11 + 30, p11 + 31, p11 + 32, p11 + 33, p11 + 34, p11 + 35, p11 + 36, p11 + 37, p11 + 38, p11 + 39, 9};
Line(12) = {4, 10};
Line(13) = {10, 7};
Line(14) = {5, 10};
p15 = newp;
Point(p15 + 1) = {7.573022956435164, -1.428154564883715, 0};
Point(p15 + 2) = {7.525797648129516, -1.23144699905575, 0};
Point(p15 + 3) = {7.448381918905353, -1.044548895621773, 0};
Point(p15 + 4) = {7.342682000944249, -0.8720623061675712, 0};
Point(p15 + 5) = {7.211300577024323, -0.7182344229756773, 0};
Point(p15 + 6) = {7.057472693832429, -0.5868529990557503, 0};
Point(p15 + 7) = {6.884986104378227, -0.4811530810946465, 0};
Point(p15 + 8) = {6.698088000944249, -0.4037373518704837, 0};
Point(p15 + 9) = {6.501380435116285, -0.3565120435648357, 0};
Point(p15 + 10) = {6.299707, -0.3406400000000001, 0};
Point(p15 + 11) = {6.098033564883714, -0.3565120435648357, 0};
Point(p15 + 12) = {5.90132599905575, -0.4037373518704834, 0};
Point(p15 + 13) = {5.714427895621773, -0.4811530810946465, 0};
Point(p15 + 14) = {5.541941306167571, -0.5868529990557503, 0};
Point(p15 + 15) = {5.388113422975677, -0.7182344229756772, 0};
Point(p15 + 16) = {5.25673199905575, -0.8720623061675711, 0};
Point(p15 + 17) = {5.151032081094646, -1.044548895621773, 0};
Point(p15 + 18) = {5.073616351870483, -1.23144699905575, 0};
Point(p15 + 19) = {5.026391043564836, -1.428154564883715, 0};
Point(p15 + 20) = {5.010519, -1.629828, 0};
Point(p15 + 21) = {5.026391043564836, -1.831501435116285, 0};
Point(p15 + 22) = {5.073616351870483, -2.02820900094425, 0};
Point(p15 + 23) = {5.151032081094645, -2.215107104378226, 0};
Point(p15 + 24) = {5.25673199905575, -2.387593693832429, 0};
Point(p15 + 25) = {5.388113422975676, -2.541421577024323, 0};
Point(p15 + 26) = {5.541941306167571, -2.67280300094425, 0};
Point(p15 + 27) = {5.714427895621773, -2.778502918905354, 0};
Point(p15 + 28) = {5.90132599905575, -2.855918648129516, 0};
Point(p15 + 29) = {6.098033564883714, -2.903143956435164, 0};
Point(p15 + 30) = {6.299707, -2.919016, 0};
Point(p15 + 31) = {6.501380435116284, -2.903143956435164, 0};
Point(p15 + 32) = {6.698088000944249, -2.855918648129517, 0};
Point(p15 + 33) = {6.884986104378227, -2.778502918905354, 0};
Point(p15 + 34) = {7.057472693832429, -2.67280300094425, 0};
Point(p15 + 35) = {7.211300577024322, -2.541421577024323, 0};
Point(p15 + 36) = {7.342682000944249, -2.387593693832429, 0};
Point(p15 + 37) = {7.448381918905353, -2.215107104378227, 0};
Point(p15 + 38) = {7.525797648129516, -2.02820900094425, 0};
Point(p15 + 39) = {7.573022956435164, -1.831501435116285, 0};
Spline(15) = {11, p15 + 1, p15 + 2, p15 + 3, p15 + 4, p15 + 5, p15 + 6, p15 + 7, p15 + 8, p15 + 9, p15 + 10, p15 + 11, p15 + 12, p15 + 13, p15 + 14, p15 + 15, p15 + 16, p15 + 17, p15 + 18, p15 + 19, p15 + 20, p15 + 21, p15 + 22, p15 + 23, p15 + 24, p15 + 25, p15 + 26, p15 + 27, p15 + 28, p15 + 29, p15 + 30, p15 + 31, p15 + 32, p15 + 33, p15 + 34, p15 + 35, p15 + 36, p15 + 37, p15 + 38, p15 + 39, 11};
p16 = newp;
Point(p16 + 1) = {22.10071683472333, 1.318999315928995, 0};
Point(p16 + 2) = {22.08080809758912, 1.401925174136885, 0};
Point(p16 + 3) = {22.04817200777894, 1.480715664779448, 0};
Point(p16 + 4) = {22.00361217413688, 1.553430704486418, 0};
Point(p16 + 5) = {21.94822580765283, 1.618279807652827, 0};
Point(p16 + 6) = {21.88337670448642, 1.673666174136885, 0};
Point(p16 + 7) = {21.81066166477945, 1.718226007778943, 0};
Point(p16 + 8) = {21.73187117413688, 1.750862097589123, 0};
Point(p16 + 9) = {21.64894531592899, 1.770770834723327, 0};
Point(p16 + 10) = {21.563926, 1.777462, 0};
Point(p16 + 11) = {21.478906684071, 1.770770834723327, 0};
Point(p16 + 12) = {21.39598082586311, 1.750862097589123, 0};
Point(p16 + 13) = {21.31719033522055, 1.718226007778943, 0};
Point(p16 + 14) = {21.24447529551358, 1.673666174136885, 0};
Point(p16 + 15) = {21.17962619234717, 1.618279807652827, 0};
Point(p16 + 16) = {21.12423982586311, 1.553430704486418, 0};
Point(p16 + 17) = {21.07967999222106, 1.480715664779448, 0};
Point(p16 + 18) = {21.04704390241088, 1.401925174136885, 0};
Point(p16 + 19) = {21.02713516527667, 1.318999315928995, 0};
Point(p16 + 20) = {21.020444, 1.23398, 0};
Point(p16 + 21) = {21.02713516527667, 1.148960684071005, 0};
Point(p16 + 22) = {21.04704390241088, 1.066034825863115, 0};
Point(p16 + 23) = {21.07967999222106, 0.987244335220552, 0};
Point(p16 + 24) = {21.12423982586311, 0.9145292955135822, 0};
Point(p16 + 25) = {21.17962619234717, 0.8496801923471728, 0};
Point(p16 + 26) = {21.24447529551358, 0.7942938258631149, 0};
Point(p16 + 27) = {21.31719033522055, 0.7497339922210575, 0};
Point(p16 + 28) = {21.39598082586311, 0.7170979024108775, 0};
Point(p16 + 29) = {21.478906684071, 0.6971891652766734, 0};
Point(p16 + 30) = {21.563926, 0.6904980000000001, 0};
Point(p16 + 31) = {21.64894531592899, 0.6971891652766734, 0};
Point(p16 + 32) = {21.73187117413688, 0.7170979024108773, 0};
Point(p16 + 33) = {21.81066166477945, 0.7497339922210575, 0};
Point(p16 + 34) = {21.88337670448642, 0.7942938258631148, 0};
Point(p16 + 35) = {21.94822580765283, 0.8496801923471727, 0};
Point(p16 + 36) = {22.00361217413688, 0.9145292955135821, 0};
Point(p16 + 37) = {22.04817200777894, 0.9872443352205515, 0};
Point(p16 + 38) = {22.08080809758912, 1.066034825863115, 0};
Point(p16 + 39) = {22.10071683472333, 1.148960684071005, 0};
Spline(16) = {12, p16 + 1, p16 + 2, p16 + 3, p16 + 4, p16 + 5, p16 + 6, p16 + 7, p16 + 8, p16 + 9, p16 + 10, p16 + 11, p16 + 12, p16 + 13, p16 + 14, p16 + 15, p16 + 16, p16 + 17, p16 + 18, p16 + 19, p16 + 20, p16 + 21, p16 + 22, p16 + 23, p16 + 24, p16 + 25, p16 + 26, p16 + 27, p16 + 28, p16 + 29, p16 + 30, p16 + 31, p16 + 32, p16 + 33, p16 + 34, p16 + 35, p16 + 36, p16 + 37, p16 + 38, p16 + 39, 12};
Line(17) = {11, 8};
Line(18) = {12, 9};
Curve Loop(1) = {-1, 4, 3, -2};
Plane Surface(1) = {1};
Curve Loop(2) = {-5, 1, 7, -6};
Plane Surface(2) = {2};
Curve Loop(3) = {-2, 7, 9, -8, -10, -11};
Plane Surface(3) = {3};
Curve Loop(4) = {-12, 3, 8, -13};
Plane Surface(4) = {4};
Curve Loop(5) = {-4, 5, 14, -12, -15, -16};
Plane Surface(5) = {5};
Curve Loop(6) = {-6, 14, 13, -9};
Plane Surface(6) = {6};
Curve Loop(7) = {-10, -17, 15, 17};
Surface(7) = {7};
Curve Loop(8) = {-11, -18, 16, 18};
Surface(8) = {8};
Surface Loop(1) = {1, 2, 3, 4, 5, 6, 7, 8};
Volume(1) = {1};
Physical Surface("INFLOW") = {1};
Physical Surface("OUTFLOW") = {6};
Physical Surface("OBSTACLE") = {7, 8};
Physical Surface("WALL_Y") = {2, 4};
Physical Surface("WALL_Z") = {3, 5};
Physical Volume("FLUID") = {1};
