cl__1 = 0.968776;
cl__2 = 0.936262;
cl__3 = 3.924482;
cl__4 = 0.105084;
Point(1) = {0.346023, -3.866513, 1, cl__1};
Point(2) = {0.346023, -3.866513, 0, cl__1};
Point(3) = {0.346023, 5.748321000000001, 1, cl__2};
Point(4) = {0.346023, 5.748321000000001, 0, cl__2};
Point(5) = {38.949259, -3.866513, 0, cl__3};
Point(6) = {38.949259, -3.866513, 1, cl__3};
Point(7) = {38.949259, 5.748321000000001, 1, cl__3};
Point(8) = {10.811732, 1.298552, 1, cl__4};
Point(9) = {38.949259, 5.748321000000001, 0, cl__3};
Point(10) = {10.811732, 1.298552, 0, cl__4};
Line(1) = {2, 1};
Line(2) = {1, 3};
Line(3) = {4, 3};
Line(4) = {2, 4};
Line(5) = {2, 5};
Line(6) = {5, 6};
Line(7) = {1, 6};
Line(8) = {3, 7};
Line(9) = {6, 7};
p10 = newp;
Point(p10 + 1) = {10.79879440351934, 1.462939749677341, 1};
Point(p10 + 2) = {10.76030018064012, 1.623279727385964, 1};
Point(p10 + 3) = {10.69719718688463, 1.775623830736805, 1};
Point(p10 + 4) = {10.61103922738596, 1.916220842304275, 1};
Point(p10 + 5) = {10.50394779704885, 2.041608797048853, 1};
Point(p10 + 6) = {10.37855984230428, 2.148700227385964, 1};
Point(p10 + 7) = {10.23796283073681, 2.234858186884629, 1};
Point(p10 + 8) = {10.08561872738596, 2.297961180640115, 1};
Point(p10 + 9) = {9.925278749677343, 2.336455403519335, 1};
Point(p10 + 10) = {9.760891000000001, 2.349393, 1};
Point(p10 + 11) = {9.596503250322659, 2.336455403519335, 1};
Point(p10 + 12) = {9.436163272614037, 2.297961180640115, 1};
Point(p10 + 13) = {9.283819169263197, 2.234858186884629, 1};
Point(p10 + 14) = {9.143222157695726, 2.148700227385964, 1};
Point(p10 + 15) = {9.017834202951148, 2.041608797048853, 1};
Point(p10 + 16) = {8.910742772614038, 1.916220842304275, 1};
Point(p10 + 17) = {8.824584813115372, 1.775623830736805, 1};
Point(p10 + 18) = {8.761481819359886, 1.623279727385964, 1};
Point(p10 + 19) = {8.722987596480666, 1.462939749677341, 1};
Point(p10 + 20) = {8.710050000000001, 1.298552, 1};
Point(p10 + 21) = {8.722987596480666, 1.134164250322659, 1};
Point(p10 + 22) = {8.761481819359886, 0.9738242726140356, 1};
Point(p10 + 23) = {8.824584813115372, 0.8214801692631954, 1};
Point(p10 + 24) = {8.910742772614036, 0.6808831576957254, 1};
Point(p10 + 25) = {9.017834202951148, 0.5554952029511473, 1};
Point(p10 + 26) = {9.143222157695726, 0.448403772614036, 1};
Point(p10 + 27) = {9.283819169263195, 0.3622458131153714, 1};
Point(p10 + 28) = {9.436163272614037, 0.2991428193598846, 1};
Point(p10 + 29) = {9.596503250322659, 0.2606485964806649, 1};
Point(p10 + 30) = {9.760891000000001, 0.247711, 1};
Point(p10 + 31) = {9.925278749677341, 0.2606485964806649, 1};
Point(p10 + 32) = {10.08561872738596, 0.2991428193598845, 1};
Point(p10 + 33) = {10.23796283073681, 0.3622458131153713, 1};
Point(p10 + 34) = {10.37855984230428, 0.4484037726140357, 1};
Point(p10 + 35) = {10.50394779704885, 0.5554952029511471, 1};
Point(p10 + 36) = {10.61103922738596, 0.6808831576957249, 1};
Point(p10 + 37) = {10.69719718688463, 0.8214801692631947, 1};
Point(p10 + 38) = {10.76030018064012, 0.9738242726140356, 1};
Point(p10 + 39) = {10.79879440351934, 1.134164250322659, 1};
Spline(10) = {8, p10 + 1, p10 + 2, p10 + 3, p10 + 4, p10 + 5, p10 + 6, p10 + 7, p10 + 8, p10 + 9, p10 + 10, p10 + 11, p10 + 12, p10 + 13, p10 + 14, p10 + 15, p10 + 16, p10 + 17, p10 + 18, p10 + 19, p10 + 20, p10 + 21, p10 + 22, p10 + 23, p10 + 24, p10 + 25, p10 + 26, p10 + 27, p10 + 28, p10 + 29, p10 + 30, p10 + 31, p10 + 32, p10 + 33, p10 + 34, p10 + 35, p10 + 36, p10 + 37, p10 + 38, p10 + 39, 8};
Line(11) = {4, 9};
Line(12) = {9, 7};
Line(13) = {5, 9};
p14 = newp;
Point(p14 + 1) = {10.79879440351934, 1.462939749677341, 0};
Point(p14 + 2) = {10.76030018064012, 1.623279727385964, 0};
Point(p14 + 3) = {10.69719718688463, 1.775623830736805, 0};
Point(p14 + 4) = {10.61103922738596, 1.916220842304275, 0};
Point(p14 + 5) = {10.50394779704885, 2.041608797048853, 0};
Point(p14 + 6) = {10.37855984230428, 2.148700227385964, 0};
Point(p14 + 7) = {10.23796283073681, 2.234858186884629, 0};
Point(p14 + 8) = {10.08561872738596, 2.297961180640115, 0};
Point(p14 + 9) = {9.925278749677343, 2.336455403519335, 0};
Point(p14 + 10) = {9.760891000000001, 2.349393, 0};
Point(p14 + 11) = {9.596503250322659, 2.336455403519335, 0};
Point(p14 + 12) = {9.436163272614037, 2.297961180640115, 0};
Point(p14 + 13) = {9.283819169263197, 2.234858186884629, 0};
Point(p14 + 14) = {9.143222157695726, 2.148700227385964, 0};
Point(p14 + 15) = {9.017834202951148, 2.041608797048853, 0};
Point(p14 + 16) = {8.910742772614038, 1.916220842304275, 0};
Point(p14 + 17) = {8.824584813115372, 1.775623830736805, 0};
Point(p14 + 18) = {8.761481819359886, 1.623279727385964, 0};
Point(p14 + 19) = {8.722987596480666, 1.462939749677341, 0};
Point(p14 + 20) = {8.710050000000001, 1.298552, 0};
Point(p14 + 21) = {8.722987596480666, 1.134164250322659, 0};
Point(p14 + 22) = {8.761481819359886, 0.9738242726140356, 0};
Point(p14 + 23) = {8.824584813115372, 0.8214801692631954, 0};
Point(p14 + 24) = {8.910742772614036, 0.6808831576957254, 0};
Point(p14 + 25) = {9.017834202951148, 0.5554952029511473, 0};
Point(p14 + 26) = {9.143222157695726, 0.448403772614036, 0};
Point(p14 + 27) = {9.283819169263195, 0.3622458131153714, 0};
Point(p14 + 28) = {9.436163272614037, 0.2991428193598846, 0};
Point(p14 + 29) = {9.596503250322659, 0.2606485964806649, 0};
Point(p14 + 30) = {9.760891000000001, 0.247711, 0};
Point(p14 + 31) = {9.925278749677341, 0.2606485964806649, 0};
Point(p14 + 32) = {10.08561872738596, 0.2991428193598845, 0};
Point(p14 + 33) = {10.23796283073681, 0.3622458131153713, 0};
Point(p14 + 34) = {10.37855984230428, 0.4484037726140357, 0};
Point(p14 + 35) = {10.50394779704885, 0.5554952029511471, 0};
Point(p14 + 36) = {10.61103922738596, 0.6808831576957249, 0};
Point(p14 + 37) = {10.69719718688463, 0.8214801692631947, 0};
Point(p14 + 38) = {10.76030018064012, 0.9738242726140356, 0};
Point(p14 + 39) = {10.79879440351934, 1.134164250322659, 0};
Spline(14) = {10, p14 + 1, p14 + 2, p14 + 3, p14 + 4, p14 + 5, p14 + 6, p14 + 7, p14 + 8, p14 + 9, p14 + 10, p14 + 11, p14 + 12, p14 + 13, p14 + 14, p14 + 15, p14 + 16, p14 + 17, p14 + 18, p14 + 19, p14 + 20, p14 + 21, p14 + 22, p14 + 23, p14 + 24, p14 + 25, p14 + 26, p14 + 27, p14 + 28, p14 + 29, p14 + 30, p14 + 31, p14 + 32, p14 + 33, p14 + 34, p14 + 35, p14 + 36, p14 + 37, p14 + 38, p14 + 39, 10};
Line(15) = {10, 8};
Curve Loop(1) = {-1, 4, 3, -2};
Plane Surface(1) = {1};
Curve Loop(2) = {-5, 1, 7, -6};
Plane Surface(2) = {2};
Curve Loop(3) = {-2, 7, 9, -8, -10};
Plane Surface(3) = {3};
Curve Loop(4) = {-11, 3, 8, -12};
Plane Surface(4) = {4};
Curve Loop(5) = {-4, 5, 13, -11, -14};
Plane Surface(5) = {5};
Curve Loop(6) = {-6, 13, 12, -9};
Plane Surface(6) = {6};
Curve Loop(7) = {-10, -15, 14, 15};
Surface(7) = {7};
Surface Loop(1) = {1, 2, 3, 4, 5, 6, 7};
Volume(1) = {1};
Physical Surface("INFLOW") = {1};
Physical Surface("OUTFLOW") = {6};
Physical Surface("OBSTACLE") = {7};
Physical Surface("WALL_Y") = {2, 4};
Physical Surface("WALL_Z") = {3, 5};
Physical Volume("FLUID") = {1};
