cl__1 = 1;
cl__2 = 0.106501;
cl__3 = 0.059524;
Point(1) = {0.261613, -4.283173, 1, cl__1};
Point(2) = {0.261613, -4.283173, 0, cl__1};
Point(3) = {0.261613, 4.911649000000001, 1, cl__1};
Point(4) = {0.261613, 4.911649000000001, 0, cl__1};
Point(5) = {37.045682, -4.283173, 0, cl__1};
Point(6) = {37.045682, -4.283173, 1, cl__1};
Point(7) = {37.045682, 4.911649000000001, 1, cl__1};
Point(8) = {29.498637, 0.7047739999999998, 1, cl__2};
Point(9) = {19.973956, 1.844299, 1, cl__3};
Point(10) = {37.045682, 4.911649000000001, 0, cl__1};
Point(11) = {29.498637, 0.7047739999999998, 0, cl__2};
Point(12) = {19.973956, 1.844299, 0, cl__3};
Line(1) = {2, 1};
Line(2) = {1, 3};
Line(3) = {4, 3};
Line(4) = {2, 4};
Line(5) = {2, 5};
Line(6) = {5, 6};
Line(7) = {1, 6};
Line(8) = {3, 7};
Line(9) = {6, 7};
p10 = newp;
Point(p10 + 1) = {29.48552493499391, 0.8713785824814264, 1};
Point(p10 + 2) = {29.44651160253253, 1.033880807213251, 1};
Point(p10 + 3) = {29.3825576403389, 1.188279330108614, 1};
Point(p10 + 4) = {29.29523780721325, 1.330772347114511, 1};
Point(p10 + 5) = {29.18670220724505, 1.457851207245047, 1};
Point(p10 + 6) = {29.05962334711451, 1.566386807213252, 1};
Point(p10 + 7) = {28.91713033010861, 1.653706640338902, 1};
Point(p10 + 8) = {28.76273180721325, 1.717660602532534, 1};
Point(p10 + 9) = {28.60022958248143, 1.756673934993909, 1};
Point(p10 + 10) = {28.433625, 1.769786, 1};
Point(p10 + 11) = {28.26702041751857, 1.756673934993909, 1};
Point(p10 + 12) = {28.10451819278675, 1.717660602532534, 1};
Point(p10 + 13) = {27.95011966989139, 1.653706640338902, 1};
Point(p10 + 14) = {27.80762665288549, 1.566386807213252, 1};
Point(p10 + 15) = {27.68054779275495, 1.457851207245048, 1};
Point(p10 + 16) = {27.57201219278675, 1.330772347114511, 1};
Point(p10 + 17) = {27.4846923596611, 1.188279330108614, 1};
Point(p10 + 18) = {27.42073839746747, 1.033880807213252, 1};
Point(p10 + 19) = {27.38172506500609, 0.8713785824814265, 1};
Point(p10 + 20) = {27.368613, 0.7047740000000001, 1};
Point(p10 + 21) = {27.38172506500609, 0.5381694175185738, 1};
Point(p10 + 22) = {27.42073839746747, 0.3756671927867481, 1};
Point(p10 + 23) = {27.4846923596611, 0.2212686698913863, 1};
Point(p10 + 24) = {27.57201219278675, 0.07877565288548871, 1};
Point(p10 + 25) = {27.68054779275495, -0.04830320724504733, 1};
Point(p10 + 26) = {27.80762665288549, -0.1568388072132515, 1};
Point(p10 + 27) = {27.95011966989139, -0.244158640338902, 1};
Point(p10 + 28) = {28.10451819278675, -0.308112602532534, 1};
Point(p10 + 29) = {28.26702041751857, -0.3471259349939089, 1};
Point(p10 + 30) = {28.433625, -0.3602380000000001, 1};
Point(p10 + 31) = {28.60022958248143, -0.3471259349939089, 1};
Point(p10 + 32) = {28.76273180721325, -0.3081126025325343, 1};
Point(p10 + 33) = {28.91713033010861, -0.2441586403389021, 1};
Point(p10 + 34) = {29.05962334711451, -0.1568388072132517, 1};
Point(p10 + 35) = {29.18670220724505, -0.04830320724504755, 1};
Point(p10 + 36) = {29.29523780721325, 0.07877565288548838, 1};
Point(p10 + 37) = {29.3825576403389, 0.2212686698913856, 1};
Point(p10 + 38) = {29.44651160253253, 0.3756671927867483, 1};
Point(p10 + 39) = {29.48552493499391, 0.5381694175185734, 1};
Spline(10) = {8, p10 + 1, p10 + 2, p10 + 3, p10 + 4, p10 + 5, p10 + 6, p10 + 7, p10 + 8, p10 + 9, p10 + 10, p10 + 11, p10 + 12, p10 + 13, p10 + 14, p10 + 15, p10 + 16, p10 + 17, p10 + 18, p10 + 19, p10 + 20, p10 + 21, p10 + 22, p10 + 23, p10 + 24, p10 + 25, p10 + 26, p10 + 27, p10 + 28, p10 + 29, p10 + 30, p10 + 31, p10 + 32, p10 + 33, p10 + 34, p10 + 35, p10 + 36, p10 + 37, p10 + 38, p10 + 39, 8};
p11 = newp;
Point(p11 + 1) = {19.96662758323253, 1.937415363839477, 1};
Point(p11 + 2) = {19.94482278287256, 2.028238893765733, 1};
Point(p11 + 3) = {19.90907850547093, 2.114533213045967, 1};
Point(p11 + 4) = {19.86027489376573, 2.194173469145076, 1};
Point(p11 + 5) = {19.79961365464704, 2.265198654647043, 1};
Point(p11 + 6) = {19.72858846914507, 2.325859893765732, 1};
Point(p11 + 7) = {19.64894821304597, 2.374663505470933, 1};
Point(p11 + 8) = {19.56265389376573, 2.41040778287256, 1};
Point(p11 + 9) = {19.47183036383948, 2.432212583232531, 1};
Point(p11 + 10) = {19.378714, 2.439541, 1};
Point(p11 + 11) = {19.28559763616052, 2.432212583232531, 1};
Point(p11 + 12) = {19.19477410623427, 2.41040778287256, 1};
Point(p11 + 13) = {19.10847978695403, 2.374663505470933, 1};
Point(p11 + 14) = {19.02883953085492, 2.325859893765732, 1};
Point(p11 + 15) = {18.95781434535295, 2.265198654647043, 1};
Point(p11 + 16) = {18.89715310623427, 2.194173469145076, 1};
Point(p11 + 17) = {18.84834949452907, 2.114533213045967, 1};
Point(p11 + 18) = {18.81260521712744, 2.028238893765733, 1};
Point(p11 + 19) = {18.79080041676747, 1.937415363839477, 1};
Point(p11 + 20) = {18.783472, 1.844299, 1};
Point(p11 + 21) = {18.79080041676747, 1.751182636160523, 1};
Point(p11 + 22) = {18.81260521712744, 1.660359106234267, 1};
Point(p11 + 23) = {18.84834949452907, 1.574064786954033, 1};
Point(p11 + 24) = {18.89715310623427, 1.494424530854924, 1};
Point(p11 + 25) = {18.95781434535295, 1.423399345352957, 1};
Point(p11 + 26) = {19.02883953085492, 1.362738106234267, 1};
Point(p11 + 27) = {19.10847978695403, 1.313934494529067, 1};
Point(p11 + 28) = {19.19477410623427, 1.27819021712744, 1};
Point(p11 + 29) = {19.28559763616052, 1.256385416767469, 1};
Point(p11 + 30) = {19.378714, 1.249057, 1};
Point(p11 + 31) = {19.47183036383948, 1.256385416767469, 1};
Point(p11 + 32) = {19.56265389376573, 1.27819021712744, 1};
Point(p11 + 33) = {19.64894821304597, 1.313934494529067, 1};
Point(p11 + 34) = {19.72858846914507, 1.362738106234267, 1};
Point(p11 + 35) = {19.79961365464704, 1.423399345352957, 1};
Point(p11 + 36) = {19.86027489376573, 1.494424530854924, 1};
Point(p11 + 37) = {19.90907850547093, 1.574064786954033, 1};
Point(p11 + 38) = {19.94482278287256, 1.660359106234267, 1};
Point(p11 + 39) = {19.96662758323253, 1.751182636160523, 1};
Spline(11) = {9, p11 + 1, p11 + 2, p11 + 3, p11 + 4, p11 + 5, p11 + 6, p11 + 7, p11 + 8, p11 + 9, p11 + 10, p11 + 11, p11 + 12, p11 + 13, p11 + 14, p11 + 15, p11 + 16, p11 + 17, p11 + 18, p11 + 19, p11 + 20, p11 + 21, p11 + 22, p11 + 23, p11 + 24, p11 + 25, p11 + 26, p11 + 27, p11 + 28, p11 + 29, p11 + 30, p11 + 31, p11 + 32, p11 + 33, p11 + 34, p11 + 35, p11 + 36, p11 + 37, p11 + 38, p11 + 39, 9};
Line(12) = {4, 10};
Line(13) = {10, 7};
Line(14) = {5, 10};
p15 = newp;
Point(p15 + 1) = {29.48552493499391, 0.8713785824814264, 0};
Point(p15 + 2) = {29.44651160253253, 1.033880807213251, 0};
Point(p15 + 3) = {29.3825576403389, 1.188279330108614, 0};
Point(p15 + 4) = {29.29523780721325, 1.330772347114511, 0};
Point(p15 + 5) = {29.18670220724505, 1.457851207245047, 0};
Point(p15 + 6) = {29.05962334711451, 1.566386807213252, 0};
Point(p15 + 7) = {28.91713033010861, 1.653706640338902, 0};
Point(p15 + 8) = {28.76273180721325, 1.717660602532534, 0};
Point(p15 + 9) = {28.60022958248143, 1.756673934993909, 0};
Point(p15 + 10) = {28.433625, 1.769786, 0};
Point(p15 + 11) = {28.26702041751857, 1.756673934993909, 0};
Point(p15 + 12) = {28.10451819278675, 1.717660602532534, 0};
Point(p15 + 13) = {27.95011966989139, 1.653706640338902, 0};
Point(p15 + 14) = {27.80762665288549, 1.566386807213252, 0};
Point(p15 + 15) = {27.68054779275495, 1.457851207245048, 0};
Point(p15 + 16) = {27.57201219278675, 1.330772347114511, 0};
Point(p15 + 17) = {27.4846923596611, 1.188279330108614, 0};
Point(p15 + 18) = {27.42073839746747, 1.033880807213252, 0};
Point(p15 + 19) = {27.38172506500609, 0.8713785824814265, 0};
Point(p15 + 20) = {27.368613, 0.7047740000000001, 0};
Point(p15 + 21) = {27.38172506500609, 0.5381694175185738, 0};
Point(p15 + 22) = {27.42073839746747, 0.3756671927867481, 0};
Point(p15 + 23) = {27.4846923596611, 0.2212686698913863, 0};
Point(p15 + 24) = {27.57201219278675, 0.07877565288548871, 0};
Point(p15 + 25) = {27.68054779275495, -0.04830320724504733, 0};
Point(p15 + 26) = {27.80762665288549, -0.1568388072132515, 0};
Point(p15 + 27) = {27.95011966989139, -0.244158640338902, 0};
Point(p15 + 28) = {28.10451819278675, -0.308112602532534, 0};
Point(p15 + 29) = {28.26702041751857, -0.3471259349939089, 0};
Point(p15 + 30) = {28.433625, -0.3602380000000001, 0};
Point(p15 + 31) = {28.60022958248143, -0.3471259349939089, 0};
Point(p15 + 32) = {28.76273180721325, -0.3081126025325343, 0};
Point(p15 + 33) = {28.91713033010861, -0.2441586403389021, 0};
Point(p15 + 34) = {29.05962334711451, -0.1568388072132517, 0};
Point(p15 + 35) = {29.18670220724505, -0.04830320724504755, 0};
Point(p15 + 36) = {29.29523780721325, 0.07877565288548838, 0};
Point(p15 + 37) = {29.3825576403389, 0.2212686698913856, 0};
Point(p15 + 38) = {29.44651160253253, 0.3756671927867483, 0};
Point(p15 + 39) = {29.48552493499391, 0.5381694175185734, 0};
Spline(15) = {11, p15 + 1, p15 + 2, p15 + 3, p15 + 4, p15 + 5, p15 + 6, p15 + 7, p15 + 8, p15 + 9, p15 + 10, p15 + 11, p15 + 12, p15 + 13, p15 + 14, p15 + 15, p15 + 16, p15 + 17, p15 + 18, p15 + 19, p15 + 20, p15 + 21, p15 + 22, p15 + 23, p15 + 24, p15 + 25, p15 + 26, p15 + 27, p15 + 28, p15 + 29, p15 + 30, p15 + 31, p15 + 32, p15 + 33, p15 + 34, p15 + 35, p15 + 36, p15 + 37, p15 + 38, p15 + 39, 11};
p16 = newp;
Point(p16 + 1) = {19.96662758323253, 1.937415363839477, 0};
Point(p16 + 2) = {19.94482278287256, 2.028238893765733, 0};
Point(p16 + 3) = {19.90907850547093, 2.114533213045967, 0};
Point(p16 + 4) = {19.86027489376573, 2.194173469145076, 0};
Point(p16 + 5) = {19.79961365464704, 2.265198654647043, 0};
Point(p16 + 6) = {19.72858846914507, 2.325859893765732, 0};
Point(p16 + 7) = {19.64894821304597, 2.374663505470933, 0};
Point(p16 + 8) = {19.56265389376573, 2.41040778287256, 0};
Point(p16 + 9) = {19.47183036383948, 2.432212583232531, 0};
Point(p16 + 10) = {19.378714, 2.439541, 0};
Point(p16 + 11) = {19.28559763616052, 2.432212583232531, 0};
Point(p16 + 12) = {19.19477410623427, 2.41040778287256, 0};
Point(p16 + 13) = {19.10847978695403, 2.374663505470933, 0};
Point(p16 + 14) = {19.02883953085492, 2.325859893765732, 0};
Point(p16 + 15) = {18.95781434535295, 2.265198654647043, 0};
Point(p16 + 16) = {18.89715310623427, 2.194173469145076, 0};
Point(p16 + 17) = {18.84834949452907, 2.114533213045967, 0};
Point(p16 + 18) = {18.81260521712744, 2.028238893765733, 0};
Point(p16 + 19) = {18.79080041676747, 1.937415363839477, 0};
Point(p16 + 20) = {18.783472, 1.844299, 0};
Point(p16 + 21) = {18.79080041676747, 1.751182636160523, 0};
Point(p16 + 22) = {18.81260521712744, 1.660359106234267, 0};
Point(p16 + 23) = {18.84834949452907, 1.574064786954033, 0};
Point(p16 + 24) = {18.89715310623427, 1.494424530854924, 0};
Point(p16 + 25) = {18.95781434535295, 1.423399345352957, 0};
Point(p16 + 26) = {19.02883953085492, 1.362738106234267, 0};
Point(p16 + 27) = {19.10847978695403, 1.313934494529067, 0};
Point(p16 + 28) = {19.19477410623427, 1.27819021712744, 0};
Point(p16 + 29) = {19.28559763616052, 1.256385416767469, 0};
Point(p16 + 30) = {19.378714, 1.249057, 0};
Point(p16 + 31) = {19.47183036383948, 1.256385416767469, 0};
Point(p16 + 32) = {19.56265389376573, 1.27819021712744, 0};
Point(p16 + 33) = {19.64894821304597, 1.313934494529067, 0};
Point(p16 + 34) = {19.72858846914507, 1.362738106234267, 0};
Point(p16 + 35) = {19.79961365464704, 1.423399345352957, 0};
Point(p16 + 36) = {19.86027489376573, 1.494424530854924, 0};
Point(p16 + 37) = {19.90907850547093, 1.574064786954033, 0};
Point(p16 + 38) = {19.94482278287256, 1.660359106234267, 0};
Point(p16 + 39) = {19.96662758323253, 1.751182636160523, 0};
Spline(16) = {12, p16 + 1, p16 + 2, p16 + 3, p16 + 4, p16 + 5, p16 + 6, p16 + 7, p16 + 8, p16 + 9, p16 + 10, p16 + 11, p16 + 12, p16 + 13, p16 + 14, p16 + 15, p16 + 16, p16 + 17, p16 + 18, p16 + 19, p16 + 20, p16 + 21, p16 + 22, p16 + 23, p16 + 24, p16 + 25, p16 + 26, p16 + 27, p16 + 28, p16 + 29, p16 + 30, p16 + 31, p16 + 32, p16 + 33, p16 + 34, p16 + 35, p16 + 36, p16 + 37, p16 + 38, p16 + 39, 12};
Line(17) = {11, 8};
Line(18) = {12, 9};
Curve Loop(1) = {-1, 4, 3, -2};
Plane Surface(1) = {1};
Curve Loop(2) = {-5, 1, 7, -6};
Plane Surface(2) = {2};
Curve Loop(3) = {-2, 7, 9, -8, -10, -11};
Plane Surface(3) = {3};
Curve Loop(4) = {-12, 3, 8, -13};
Plane Surface(4) = {4};
Curve Loop(5) = {-4, 5, 14, -12, -15, -16};
Plane Surface(5) = {5};
Curve Loop(6) = {-6, 14, 13, -9};
Plane Surface(6) = {6};
Curve Loop(7) = {-10, -17, 15, 17};
Surface(7) = {7};
Curve Loop(8) = {-11, -18, 16, 18};
Surface(8) = {8};
Surface Loop(1) = {1, 2, 3, 4, 5, 6, 7, 8};
Volume(1) = {1};
Physical Surface("INFLOW") = {1};
Physical Surface("OUTFLOW") = {6};
Physical Surface("OBSTACLE") = {7, 8};
Physical Surface("WALL_Y") = {2, 4};
Physical Surface("WALL_Z") = {3, 5};
Physical Volume("FLUID") = {1};
