cl__1 = 0.465418;
cl__2 = 0.244031;
cl__3 = 3.665855;
cl__4 = 0.145025;
cl__5 = 0.077823;
Point(1) = {0.414225, -4.398165, 1, cl__1};
Point(2) = {0.414225, -4.398165, 0, cl__1};
Point(3) = {0.414225, 5.302148, 1, cl__2};
Point(4) = {0.414225, 5.302148, 0, cl__2};
Point(5) = {36.336278, -4.398165, 0, cl__1};
Point(6) = {36.336278, -4.398165, 1, cl__1};
Point(7) = {36.336278, 5.302148, 1, cl__3};
Point(8) = {35.473223, -1.270051, 1, cl__4};
Point(9) = {4.160944, 0.1514559999999998, 1, cl__5};
Point(10) = {36.336278, 5.302148, 0, cl__3};
Point(11) = {35.473223, -1.270051, 0, cl__4};
Point(12) = {4.160944, 0.1514559999999998, 0, cl__5};
Line(1) = {2, 1};
Line(2) = {1, 3};
Line(3) = {4, 3};
Line(4) = {2, 4};
Line(5) = {2, 5};
Line(6) = {5, 6};
Line(7) = {1, 6};
Line(8) = {3, 7};
Line(9) = {6, 7};
p10 = newp;
Point(p10 + 1) = {35.45536796670147, -1.043181291337545, 1};
Point(p10 + 2) = {35.40224251698312, -0.821897867839755, 1};
Point(p10 + 3) = {35.31515477573028, -0.6116494617907234, 1};
Point(p10 + 4) = {35.19624913216025, -0.4176130867218317, 1};
Point(p10 + 5) = {35.04845343784292, -0.2445665621570849, 1};
Point(p10 + 6) = {34.87540691327817, -0.09677086783975497, 1};
Point(p10 + 7) = {34.68137053820928, 0.022134775730277, 1};
Point(p10 + 8) = {34.47112213216025, 0.1092225169831116, 1};
Point(p10 + 9) = {34.24983870866246, 0.1623479667014609, 1};
Point(p10 + 10) = {34.022969, 0.1802029999999999, 1};
Point(p10 + 11) = {33.79609929133755, 0.1623479667014607, 1};
Point(p10 + 12) = {33.57481586783976, 0.1092225169831116, 1};
Point(p10 + 13) = {33.36456746179073, 0.02213477573027722, 1};
Point(p10 + 14) = {33.17053108672184, -0.09677086783975497, 1};
Point(p10 + 15) = {32.99748456215709, -0.2445665621570847, 1};
Point(p10 + 16) = {32.84968886783976, -0.4176130867218316, 1};
Point(p10 + 17) = {32.73078322426973, -0.6116494617907233, 1};
Point(p10 + 18) = {32.64369548301689, -0.8218978678397549, 1};
Point(p10 + 19) = {32.59057003329854, -1.043181291337545, 1};
Point(p10 + 20) = {32.572715, -1.270051, 1};
Point(p10 + 21) = {32.59057003329854, -1.496920708662455, 1};
Point(p10 + 22) = {32.64369548301689, -1.718204132160245, 1};
Point(p10 + 23) = {32.73078322426973, -1.928452538209276, 1};
Point(p10 + 24) = {32.84968886783976, -2.122488913278168, 1};
Point(p10 + 25) = {32.99748456215709, -2.295535437842915, 1};
Point(p10 + 26) = {33.17053108672184, -2.443331132160245, 1};
Point(p10 + 27) = {33.36456746179073, -2.562236775730277, 1};
Point(p10 + 28) = {33.57481586783976, -2.649324516983111, 1};
Point(p10 + 29) = {33.79609929133755, -2.702449966701461, 1};
Point(p10 + 30) = {34.022969, -2.720305, 1};
Point(p10 + 31) = {34.24983870866246, -2.702449966701461, 1};
Point(p10 + 32) = {34.47112213216025, -2.649324516983111, 1};
Point(p10 + 33) = {34.68137053820928, -2.562236775730277, 1};
Point(p10 + 34) = {34.87540691327817, -2.443331132160245, 1};
Point(p10 + 35) = {35.04845343784292, -2.295535437842916, 1};
Point(p10 + 36) = {35.19624913216025, -2.122488913278169, 1};
Point(p10 + 37) = {35.31515477573028, -1.928452538209277, 1};
Point(p10 + 38) = {35.40224251698312, -1.718204132160245, 1};
Point(p10 + 39) = {35.45536796670147, -1.496920708662455, 1};
Spline(10) = {8, p10 + 1, p10 + 2, p10 + 3, p10 + 4, p10 + 5, p10 + 6, p10 + 7, p10 + 8, p10 + 9, p10 + 10, p10 + 11, p10 + 12, p10 + 13, p10 + 14, p10 + 15, p10 + 16, p10 + 17, p10 + 18, p10 + 19, p10 + 20, p10 + 21, p10 + 22, p10 + 23, p10 + 24, p10 + 25, p10 + 26, p10 + 27, p10 + 28, p10 + 29, p10 + 30, p10 + 31, p10 + 32, p10 + 33, p10 + 34, p10 + 35, p10 + 36, p10 + 37, p10 + 38, p10 + 39, 8};
p11 = newp;
Point(p11 + 1) = {4.151362746547992, 0.2731973679903987, 1};
Point(p11 + 2) = {4.122854908450313, 0.3919410594644378, 1};
Point(p11 + 3) = {4.076122443293017, 0.5047632106503085, 1};
Point(p11 + 4) = {4.012316059464438, 0.6088857657505622, 1};
Point(p11 + 5) = {3.933006881895682, 0.7017448818956821, 1};
Point(p11 + 6) = {3.840147765750562, 0.7810540594644378, 1};
Point(p11 + 7) = {3.736025210650308, 0.8448604432930167, 1};
Point(p11 + 8) = {3.623203059464438, 0.8915929084503121, 1};
Point(p11 + 9) = {3.504459367990399, 0.9201007465479917, 1};
Point(p11 + 10) = {3.382718, 0.929682, 1};
Point(p11 + 11) = {3.260976632009601, 0.9201007465479916, 1};
Point(p11 + 12) = {3.142232940535562, 0.8915929084503122, 1};
Point(p11 + 13) = {3.029410789349692, 0.8448604432930168, 1};
Point(p11 + 14) = {2.925288234249438, 0.7810540594644378, 1};
Point(p11 + 15) = {2.832429118104318, 0.7017448818956822, 1};
Point(p11 + 16) = {2.753119940535562, 0.6088857657505623, 1};
Point(p11 + 17) = {2.689313556706983, 0.5047632106503086, 1};
Point(p11 + 18) = {2.642581091549688, 0.3919410594644379, 1};
Point(p11 + 19) = {2.614073253452009, 0.2731973679903988, 1};
Point(p11 + 20) = {2.604492, 0.1514560000000001, 1};
Point(p11 + 21) = {2.614073253452009, 0.02971463200960141, 1};
Point(p11 + 22) = {2.642581091549688, -0.08902905946443807, 1};
Point(p11 + 23) = {2.689313556706983, -0.2018512106503081, 1};
Point(p11 + 24) = {2.753119940535562, -0.3059737657505621, 1};
Point(p11 + 25) = {2.832429118104318, -0.398832881895682, 1};
Point(p11 + 26) = {2.925288234249438, -0.4781420594644377, 1};
Point(p11 + 27) = {3.029410789349691, -0.5419484432930166, 1};
Point(p11 + 28) = {3.142232940535562, -0.5886809084503121, 1};
Point(p11 + 29) = {3.260976632009601, -0.6171887465479915, 1};
Point(p11 + 30) = {3.382718, -0.6267699999999999, 1};
Point(p11 + 31) = {3.504459367990399, -0.6171887465479916, 1};
Point(p11 + 32) = {3.623203059464438, -0.5886809084503122, 1};
Point(p11 + 33) = {3.736025210650308, -0.5419484432930167, 1};
Point(p11 + 34) = {3.840147765750562, -0.4781420594644379, 1};
Point(p11 + 35) = {3.933006881895682, -0.3988328818956822, 1};
Point(p11 + 36) = {4.012316059464438, -0.3059737657505623, 1};
Point(p11 + 37) = {4.076122443293016, -0.2018512106503087, 1};
Point(p11 + 38) = {4.122854908450313, -0.08902905946443798, 1};
Point(p11 + 39) = {4.151362746547992, 0.02971463200960113, 1};
Spline(11) = {9, p11 + 1, p11 + 2, p11 + 3, p11 + 4, p11 + 5, p11 + 6, p11 + 7, p11 + 8, p11 + 9, p11 + 10, p11 + 11, p11 + 12, p11 + 13, p11 + 14, p11 + 15, p11 + 16, p11 + 17, p11 + 18, p11 + 19, p11 + 20, p11 + 21, p11 + 22, p11 + 23, p11 + 24, p11 + 25, p11 + 26, p11 + 27, p11 + 28, p11 + 29, p11 + 30, p11 + 31, p11 + 32, p11 + 33, p11 + 34, p11 + 35, p11 + 36, p11 + 37, p11 + 38, p11 + 39, 9};
Line(12) = {4, 10};
Line(13) = {10, 7};
Line(14) = {5, 10};
p15 = newp;
Point(p15 + 1) = {35.45536796670147, -1.043181291337545, 0};
Point(p15 + 2) = {35.40224251698312, -0.821897867839755, 0};
Point(p15 + 3) = {35.31515477573028, -0.6116494617907234, 0};
Point(p15 + 4) = {35.19624913216025, -0.4176130867218317, 0};
Point(p15 + 5) = {35.04845343784292, -0.2445665621570849, 0};
Point(p15 + 6) = {34.87540691327817, -0.09677086783975497, 0};
Point(p15 + 7) = {34.68137053820928, 0.022134775730277, 0};
Point(p15 + 8) = {34.47112213216025, 0.1092225169831116, 0};
Point(p15 + 9) = {34.24983870866246, 0.1623479667014609, 0};
Point(p15 + 10) = {34.022969, 0.1802029999999999, 0};
Point(p15 + 11) = {33.79609929133755, 0.1623479667014607, 0};
Point(p15 + 12) = {33.57481586783976, 0.1092225169831116, 0};
Point(p15 + 13) = {33.36456746179073, 0.02213477573027722, 0};
Point(p15 + 14) = {33.17053108672184, -0.09677086783975497, 0};
Point(p15 + 15) = {32.99748456215709, -0.2445665621570847, 0};
Point(p15 + 16) = {32.84968886783976, -0.4176130867218316, 0};
Point(p15 + 17) = {32.73078322426973, -0.6116494617907233, 0};
Point(p15 + 18) = {32.64369548301689, -0.8218978678397549, 0};
Point(p15 + 19) = {32.59057003329854, -1.043181291337545, 0};
Point(p15 + 20) = {32.572715, -1.270051, 0};
Point(p15 + 21) = {32.59057003329854, -1.496920708662455, 0};
Point(p15 + 22) = {32.64369548301689, -1.718204132160245, 0};
Point(p15 + 23) = {32.73078322426973, -1.928452538209276, 0};
Point(p15 + 24) = {32.84968886783976, -2.122488913278168, 0};
Point(p15 + 25) = {32.99748456215709, -2.295535437842915, 0};
Point(p15 + 26) = {33.17053108672184, -2.443331132160245, 0};
Point(p15 + 27) = {33.36456746179073, -2.562236775730277, 0};
Point(p15 + 28) = {33.57481586783976, -2.649324516983111, 0};
Point(p15 + 29) = {33.79609929133755, -2.702449966701461, 0};
Point(p15 + 30) = {34.022969, -2.720305, 0};
Point(p15 + 31) = {34.24983870866246, -2.702449966701461, 0};
Point(p15 + 32) = {34.47112213216025, -2.649324516983111, 0};
Point(p15 + 33) = {34.68137053820928, -2.562236775730277, 0};
Point(p15 + 34) = {34.87540691327817, -2.443331132160245, 0};
Point(p15 + 35) = {35.04845343784292, -2.295535437842916, 0};
Point(p15 + 36) = {35.19624913216025, -2.122488913278169, 0};
Point(p15 + 37) = {35.31515477573028, -1.928452538209277, 0};
Point(p15 + 38) = {35.40224251698312, -1.718204132160245, 0};
Point(p15 + 39) = {35.45536796670147, -1.496920708662455, 0};
Spline(15) = {11, p15 + 1, p15 + 2, p15 + 3, p15 + 4, p15 + 5, p15 + 6, p15 + 7, p15 + 8, p15 + 9, p15 + 10, p15 + 11, p15 + 12, p15 + 13, p15 + 14, p15 + 15, p15 + 16, p15 + 17, p15 + 18, p15 + 19, p15 + 20, p15 + 21, p15 + 22, p15 + 23, p15 + 24, p15 + 25, p15 + 26, p15 + 27, p15 + 28, p15 + 29, p15 + 30, p15 + 31, p15 + 32, p15 + 33, p15 + 34, p15 + 35, p15 + 36, p15 + 37, p15 + 38, p15 + 39, 11};
p16 = newp;
Point(p16 + 1) = {4.151362746547992, 0.2731973679903987, 0};
Point(p16 + 2) = {4.122854908450313, 0.3919410594644378, 0};
Point(p16 + 3) = {4.076122443293017, 0.5047632106503085, 0};
Point(p16 + 4) = {4.012316059464438, 0.6088857657505622, 0};
Point(p16 + 5) = {3.933006881895682, 0.7017448818956821, 0};
Point(p16 + 6) = {3.840147765750562, 0.7810540594644378, 0};
Point(p16 + 7) = {3.736025210650308, 0.8448604432930167, 0};
Point(p16 + 8) = {3.623203059464438, 0.8915929084503121, 0};
Point(p16 + 9) = {3.504459367990399, 0.9201007465479917, 0};
Point(p16 + 10) = {3.382718, 0.929682, 0};
Point(p16 + 11) = {3.260976632009601, 0.9201007465479916, 0};
Point(p16 + 12) = {3.142232940535562, 0.8915929084503122, 0};
Point(p16 + 13) = {3.029410789349692, 0.8448604432930168, 0};
Point(p16 + 14) = {2.925288234249438, 0.7810540594644378, 0};
Point(p16 + 15) = {2.832429118104318, 0.7017448818956822, 0};
Point(p16 + 16) = {2.753119940535562, 0.6088857657505623, 0};
Point(p16 + 17) = {2.689313556706983, 0.5047632106503086, 0};
Point(p16 + 18) = {2.642581091549688, 0.3919410594644379, 0};
Point(p16 + 19) = {2.614073253452009, 0.2731973679903988, 0};
Point(p16 + 20) = {2.604492, 0.1514560000000001, 0};
Point(p16 + 21) = {2.614073253452009, 0.02971463200960141, 0};
Point(p16 + 22) = {2.642581091549688, -0.08902905946443807, 0};
Point(p16 + 23) = {2.689313556706983, -0.2018512106503081, 0};
Point(p16 + 24) = {2.753119940535562, -0.3059737657505621, 0};
Point(p16 + 25) = {2.832429118104318, -0.398832881895682, 0};
Point(p16 + 26) = {2.925288234249438, -0.4781420594644377, 0};
Point(p16 + 27) = {3.029410789349691, -0.5419484432930166, 0};
Point(p16 + 28) = {3.142232940535562, -0.5886809084503121, 0};
Point(p16 + 29) = {3.260976632009601, -0.6171887465479915, 0};
Point(p16 + 30) = {3.382718, -0.6267699999999999, 0};
Point(p16 + 31) = {3.504459367990399, -0.6171887465479916, 0};
Point(p16 + 32) = {3.623203059464438, -0.5886809084503122, 0};
Point(p16 + 33) = {3.736025210650308, -0.5419484432930167, 0};
Point(p16 + 34) = {3.840147765750562, -0.4781420594644379, 0};
Point(p16 + 35) = {3.933006881895682, -0.3988328818956822, 0};
Point(p16 + 36) = {4.012316059464438, -0.3059737657505623, 0};
Point(p16 + 37) = {4.076122443293016, -0.2018512106503087, 0};
Point(p16 + 38) = {4.122854908450313, -0.08902905946443798, 0};
Point(p16 + 39) = {4.151362746547992, 0.02971463200960113, 0};
Spline(16) = {12, p16 + 1, p16 + 2, p16 + 3, p16 + 4, p16 + 5, p16 + 6, p16 + 7, p16 + 8, p16 + 9, p16 + 10, p16 + 11, p16 + 12, p16 + 13, p16 + 14, p16 + 15, p16 + 16, p16 + 17, p16 + 18, p16 + 19, p16 + 20, p16 + 21, p16 + 22, p16 + 23, p16 + 24, p16 + 25, p16 + 26, p16 + 27, p16 + 28, p16 + 29, p16 + 30, p16 + 31, p16 + 32, p16 + 33, p16 + 34, p16 + 35, p16 + 36, p16 + 37, p16 + 38, p16 + 39, 12};
Line(17) = {11, 8};
Line(18) = {12, 9};
Curve Loop(1) = {-1, 4, 3, -2};
Plane Surface(1) = {1};
Curve Loop(2) = {-5, 1, 7, -6};
Plane Surface(2) = {2};
Curve Loop(3) = {-2, 7, 9, -8, -10, -11};
Plane Surface(3) = {3};
Curve Loop(4) = {-12, 3, 8, -13};
Plane Surface(4) = {4};
Curve Loop(5) = {-4, 5, 14, -12, -15, -16};
Plane Surface(5) = {5};
Curve Loop(6) = {-6, 14, 13, -9};
Plane Surface(6) = {6};
Curve Loop(7) = {-10, -17, 15, 17};
Surface(7) = {7};
Curve Loop(8) = {-11, -18, 16, 18};
Surface(8) = {8};
Surface Loop(1) = {1, 2, 3, 4, 5, 6, 7, 8};
Volume(1) = {1};
Physical Surface("INFLOW") = {1};
Physical Surface("OUTFLOW") = {6};
Physical Surface("OBSTACLE") = {7, 8};
Physical Surface("WALL_Y") = {2, 4};
Physical Surface("WALL_Z") = {3, 5};
Physical Volume("FLUID") = {1};
