cl__1 = 1;
cl__2 = 0.105734;
cl__3 = 0.126544;
Point(1) = {0.995686, -3.940511, 1, cl__1};
Point(2) = {0.995686, -3.940511, 0, cl__1};
Point(3) = {0.995686, 5.892064, 1, cl__1};
Point(4) = {0.995686, 5.892064, 0, cl__1};
Point(5) = {31.451524, -3.940511, 0, cl__1};
Point(6) = {31.451524, -3.940511, 1, cl__1};
Point(7) = {31.451524, 5.892064, 1, cl__1};
Point(8) = {29.901914, -1.794482, 1, cl__2};
Point(9) = {28.931394, 2.232777, 1, cl__3};
Point(10) = {31.451524, 5.892064, 0, cl__1};
Point(11) = {29.901914, -1.794482, 0, cl__2};
Point(12) = {28.931394, 2.232777, 0, cl__3};
Line(1) = {2, 1};
Line(2) = {1, 3};
Line(3) = {4, 3};
Line(4) = {2, 4};
Line(5) = {2, 5};
Line(6) = {5, 6};
Line(7) = {1, 6};
Line(8) = {3, 7};
Line(9) = {6, 7};
p10 = newp;
Point(p10 + 1) = {29.88889639004486, -1.629077582734362, 1};
Point(p10 + 2) = {29.85016409693952, -1.467745971167593, 1};
Point(p10 + 3) = {29.78667083828533, -1.314459685005388, 1};
Point(p10 + 4) = {29.69998002883241, -1.172993141341076, 1};
Point(p10 + 5) = {29.59222628401979, -1.046829715980216, 1};
Point(p10 + 6) = {29.46606285865893, -0.939075971167593, 1};
Point(p10 + 7) = {29.32459631499461, -0.8523851617146712, 1};
Point(p10 + 8) = {29.17131002883241, -0.7888919030604824, 1};
Point(p10 + 9) = {29.00997841726564, -0.7501596099551371, 1};
Point(p10 + 10) = {28.844574, -0.737142, 1};
Point(p10 + 11) = {28.67916958273436, -0.7501596099551371, 1};
Point(p10 + 12) = {28.51783797116759, -0.7888919030604822, 1};
Point(p10 + 13) = {28.36455168500539, -0.852385161714671, 1};
Point(p10 + 14) = {28.22308514134108, -0.939075971167593, 1};
Point(p10 + 15) = {28.09692171598022, -1.046829715980216, 1};
Point(p10 + 16) = {27.9891679711676, -1.172993141341076, 1};
Point(p10 + 17) = {27.90247716171467, -1.314459685005387, 1};
Point(p10 + 18) = {27.83898390306048, -1.467745971167593, 1};
Point(p10 + 19) = {27.80025160995514, -1.629077582734362, 1};
Point(p10 + 20) = {27.787234, -1.794482, 1};
Point(p10 + 21) = {27.80025160995514, -1.959886417265637, 1};
Point(p10 + 22) = {27.83898390306048, -2.121218028832407, 1};
Point(p10 + 23) = {27.90247716171467, -2.274504314994612, 1};
Point(p10 + 24) = {27.9891679711676, -2.415970858658923, 1};
Point(p10 + 25) = {28.09692171598022, -2.542134284019784, 1};
Point(p10 + 26) = {28.22308514134108, -2.649888028832406, 1};
Point(p10 + 27) = {28.36455168500539, -2.736578838285329, 1};
Point(p10 + 28) = {28.51783797116759, -2.800072096939517, 1};
Point(p10 + 29) = {28.67916958273436, -2.838804390044863, 1};
Point(p10 + 30) = {28.844574, -2.851822, 1};
Point(p10 + 31) = {29.00997841726564, -2.838804390044863, 1};
Point(p10 + 32) = {29.17131002883241, -2.800072096939518, 1};
Point(p10 + 33) = {29.32459631499461, -2.736578838285329, 1};
Point(p10 + 34) = {29.46606285865893, -2.649888028832407, 1};
Point(p10 + 35) = {29.59222628401978, -2.542134284019784, 1};
Point(p10 + 36) = {29.69998002883241, -2.415970858658924, 1};
Point(p10 + 37) = {29.78667083828533, -2.274504314994612, 1};
Point(p10 + 38) = {29.85016409693952, -2.121218028832407, 1};
Point(p10 + 39) = {29.88889639004486, -1.959886417265638, 1};
Spline(10) = {8, p10 + 1, p10 + 2, p10 + 3, p10 + 4, p10 + 5, p10 + 6, p10 + 7, p10 + 8, p10 + 9, p10 + 10, p10 + 11, p10 + 12, p10 + 13, p10 + 14, p10 + 15, p10 + 16, p10 + 17, p10 + 18, p10 + 19, p10 + 20, p10 + 21, p10 + 22, p10 + 23, p10 + 24, p10 + 25, p10 + 26, p10 + 27, p10 + 28, p10 + 29, p10 + 30, p10 + 31, p10 + 32, p10 + 33, p10 + 34, p10 + 35, p10 + 36, p10 + 37, p10 + 38, p10 + 39, 8};
p11 = newp;
Point(p11 + 1) = {28.91581439528101, 2.430734647268185, 1};
Point(p11 + 2) = {28.86945920269796, 2.623817920276862, 1};
Point(p11 + 3) = {28.79346984093631, 2.807272468037914, 1};
Point(p11 + 4) = {28.68971742027686, 2.976581030734726, 1};
Point(p11 + 5) = {28.5607566696508, 3.127574669650799, 1};
Point(p11 + 6) = {28.40976303073473, 3.256535420276862, 1};
Point(p11 + 7) = {28.24045446803791, 3.360287840936307, 1};
Point(p11 + 8) = {28.05699992027686, 3.436277202697958, 1};
Point(p11 + 9) = {27.86391664726819, 3.482632395281009, 1};
Point(p11 + 10) = {27.665959, 3.498212, 1};
Point(p11 + 11) = {27.46800135273181, 3.482632395281008, 1};
Point(p11 + 12) = {27.27491807972314, 3.436277202697958, 1};
Point(p11 + 13) = {27.09146353196209, 3.360287840936308, 1};
Point(p11 + 14) = {26.92215496926528, 3.256535420276862, 1};
Point(p11 + 15) = {26.7711613303492, 3.127574669650799, 1};
Point(p11 + 16) = {26.64220057972314, 2.976581030734726, 1};
Point(p11 + 17) = {26.53844815906369, 2.807272468037914, 1};
Point(p11 + 18) = {26.46245879730204, 2.623817920276862, 1};
Point(p11 + 19) = {26.41610360471899, 2.430734647268185, 1};
Point(p11 + 20) = {26.400524, 2.232777, 1};
Point(p11 + 21) = {26.41610360471899, 2.034819352731815, 1};
Point(p11 + 22) = {26.46245879730204, 1.841736079723138, 1};
Point(p11 + 23) = {26.53844815906369, 1.658281531962087, 1};
Point(p11 + 24) = {26.64220057972314, 1.488972969265274, 1};
Point(p11 + 25) = {26.7711613303492, 1.337979330349201, 1};
Point(p11 + 26) = {26.92215496926528, 1.209018579723139, 1};
Point(p11 + 27) = {27.09146353196209, 1.105266159063693, 1};
Point(p11 + 28) = {27.27491807972314, 1.029276797302042, 1};
Point(p11 + 29) = {27.46800135273181, 0.9829216047189919, 1};
Point(p11 + 30) = {27.665959, 0.9673419999999999, 1};
Point(p11 + 31) = {27.86391664726818, 0.9829216047189917, 1};
Point(p11 + 32) = {28.05699992027686, 1.029276797302042, 1};
Point(p11 + 33) = {28.24045446803791, 1.105266159063693, 1};
Point(p11 + 34) = {28.40976303073473, 1.209018579723138, 1};
Point(p11 + 35) = {28.5607566696508, 1.337979330349201, 1};
Point(p11 + 36) = {28.68971742027686, 1.488972969265274, 1};
Point(p11 + 37) = {28.79346984093631, 1.658281531962086, 1};
Point(p11 + 38) = {28.86945920269796, 1.841736079723138, 1};
Point(p11 + 39) = {28.91581439528101, 2.034819352731815, 1};
Spline(11) = {9, p11 + 1, p11 + 2, p11 + 3, p11 + 4, p11 + 5, p11 + 6, p11 + 7, p11 + 8, p11 + 9, p11 + 10, p11 + 11, p11 + 12, p11 + 13, p11 + 14, p11 + 15, p11 + 16, p11 + 17, p11 + 18, p11 + 19, p11 + 20, p11 + 21, p11 + 22, p11 + 23, p11 + 24, p11 + 25, p11 + 26, p11 + 27, p11 + 28, p11 + 29, p11 + 30, p11 + 31, p11 + 32, p11 + 33, p11 + 34, p11 + 35, p11 + 36, p11 + 37, p11 + 38, p11 + 39, 9};
Line(12) = {4, 10};
Line(13) = {10, 7};
Line(14) = {5, 10};
p15 = newp;
Point(p15 + 1) = {29.88889639004486, -1.629077582734362, 0};
Point(p15 + 2) = {29.85016409693952, -1.467745971167593, 0};
Point(p15 + 3) = {29.78667083828533, -1.314459685005388, 0};
Point(p15 + 4) = {29.69998002883241, -1.172993141341076, 0};
Point(p15 + 5) = {29.59222628401979, -1.046829715980216, 0};
Point(p15 + 6) = {29.46606285865893, -0.939075971167593, 0};
Point(p15 + 7) = {29.32459631499461, -0.8523851617146712, 0};
Point(p15 + 8) = {29.17131002883241, -0.7888919030604824, 0};
Point(p15 + 9) = {29.00997841726564, -0.7501596099551371, 0};
Point(p15 + 10) = {28.844574, -0.737142, 0};
Point(p15 + 11) = {28.67916958273436, -0.7501596099551371, 0};
Point(p15 + 12) = {28.51783797116759, -0.7888919030604822, 0};
Point(p15 + 13) = {28.36455168500539, -0.852385161714671, 0};
Point(p15 + 14) = {28.22308514134108, -0.939075971167593, 0};
Point(p15 + 15) = {28.09692171598022, -1.046829715980216, 0};
Point(p15 + 16) = {27.9891679711676, -1.172993141341076, 0};
Point(p15 + 17) = {27.90247716171467, -1.314459685005387, 0};
Point(p15 + 18) = {27.83898390306048, -1.467745971167593, 0};
Point(p15 + 19) = {27.80025160995514, -1.629077582734362, 0};
Point(p15 + 20) = {27.787234, -1.794482, 0};
Point(p15 + 21) = {27.80025160995514, -1.959886417265637, 0};
Point(p15 + 22) = {27.83898390306048, -2.121218028832407, 0};
Point(p15 + 23) = {27.90247716171467, -2.274504314994612, 0};
Point(p15 + 24) = {27.9891679711676, -2.415970858658923, 0};
Point(p15 + 25) = {28.09692171598022, -2.542134284019784, 0};
Point(p15 + 26) = {28.22308514134108, -2.649888028832406, 0};
Point(p15 + 27) = {28.36455168500539, -2.736578838285329, 0};
Point(p15 + 28) = {28.51783797116759, -2.800072096939517, 0};
Point(p15 + 29) = {28.67916958273436, -2.838804390044863, 0};
Point(p15 + 30) = {28.844574, -2.851822, 0};
Point(p15 + 31) = {29.00997841726564, -2.838804390044863, 0};
Point(p15 + 32) = {29.17131002883241, -2.800072096939518, 0};
Point(p15 + 33) = {29.32459631499461, -2.736578838285329, 0};
Point(p15 + 34) = {29.46606285865893, -2.649888028832407, 0};
Point(p15 + 35) = {29.59222628401978, -2.542134284019784, 0};
Point(p15 + 36) = {29.69998002883241, -2.415970858658924, 0};
Point(p15 + 37) = {29.78667083828533, -2.274504314994612, 0};
Point(p15 + 38) = {29.85016409693952, -2.121218028832407, 0};
Point(p15 + 39) = {29.88889639004486, -1.959886417265638, 0};
Spline(15) = {11, p15 + 1, p15 + 2, p15 + 3, p15 + 4, p15 + 5, p15 + 6, p15 + 7, p15 + 8, p15 + 9, p15 + 10, p15 + 11, p15 + 12, p15 + 13, p15 + 14, p15 + 15, p15 + 16, p15 + 17, p15 + 18, p15 + 19, p15 + 20, p15 + 21, p15 + 22, p15 + 23, p15 + 24, p15 + 25, p15 + 26, p15 + 27, p15 + 28, p15 + 29, p15 + 30, p15 + 31, p15 + 32, p15 + 33, p15 + 34, p15 + 35, p15 + 36, p15 + 37, p15 + 38, p15 + 39, 11};
p16 = newp;
Point(p16 + 1) = {28.91581439528101, 2.430734647268185, 0};
Point(p16 + 2) = {28.86945920269796, 2.623817920276862, 0};
Point(p16 + 3) = {28.79346984093631, 2.807272468037914, 0};
Point(p16 + 4) = {28.68971742027686, 2.976581030734726, 0};
Point(p16 + 5) = {28.5607566696508, 3.127574669650799, 0};
Point(p16 + 6) = {28.40976303073473, 3.256535420276862, 0};
Point(p16 + 7) = {28.24045446803791, 3.360287840936307, 0};
Point(p16 + 8) = {28.05699992027686, 3.436277202697958, 0};
Point(p16 + 9) = {27.86391664726819, 3.482632395281009, 0};
Point(p16 + 10) = {27.665959, 3.498212, 0};
Point(p16 + 11) = {27.46800135273181, 3.482632395281008, 0};
Point(p16 + 12) = {27.27491807972314, 3.436277202697958, 0};
Point(p16 + 13) = {27.09146353196209, 3.360287840936308, 0};
Point(p16 + 14) = {26.92215496926528, 3.256535420276862, 0};
Point(p16 + 15) = {26.7711613303492, 3.127574669650799, 0};
Point(p16 + 16) = {26.64220057972314, 2.976581030734726, 0};
Point(p16 + 17) = {26.53844815906369, 2.807272468037914, 0};
Point(p16 + 18) = {26.46245879730204, 2.623817920276862, 0};
Point(p16 + 19) = {26.41610360471899, 2.430734647268185, 0};
Point(p16 + 20) = {26.400524, 2.232777, 0};
Point(p16 + 21) = {26.41610360471899, 2.034819352731815, 0};
Point(p16 + 22) = {26.46245879730204, 1.841736079723138, 0};
Point(p16 + 23) = {26.53844815906369, 1.658281531962087, 0};
Point(p16 + 24) = {26.64220057972314, 1.488972969265274, 0};
Point(p16 + 25) = {26.7711613303492, 1.337979330349201, 0};
Point(p16 + 26) = {26.92215496926528, 1.209018579723139, 0};
Point(p16 + 27) = {27.09146353196209, 1.105266159063693, 0};
Point(p16 + 28) = {27.27491807972314, 1.029276797302042, 0};
Point(p16 + 29) = {27.46800135273181, 0.9829216047189919, 0};
Point(p16 + 30) = {27.665959, 0.9673419999999999, 0};
Point(p16 + 31) = {27.86391664726818, 0.9829216047189917, 0};
Point(p16 + 32) = {28.05699992027686, 1.029276797302042, 0};
Point(p16 + 33) = {28.24045446803791, 1.105266159063693, 0};
Point(p16 + 34) = {28.40976303073473, 1.209018579723138, 0};
Point(p16 + 35) = {28.5607566696508, 1.337979330349201, 0};
Point(p16 + 36) = {28.68971742027686, 1.488972969265274, 0};
Point(p16 + 37) = {28.79346984093631, 1.658281531962086, 0};
Point(p16 + 38) = {28.86945920269796, 1.841736079723138, 0};
Point(p16 + 39) = {28.91581439528101, 2.034819352731815, 0};
Spline(16) = {12, p16 + 1, p16 + 2, p16 + 3, p16 + 4, p16 + 5, p16 + 6, p16 + 7, p16 + 8, p16 + 9, p16 + 10, p16 + 11, p16 + 12, p16 + 13, p16 + 14, p16 + 15, p16 + 16, p16 + 17, p16 + 18, p16 + 19, p16 + 20, p16 + 21, p16 + 22, p16 + 23, p16 + 24, p16 + 25, p16 + 26, p16 + 27, p16 + 28, p16 + 29, p16 + 30, p16 + 31, p16 + 32, p16 + 33, p16 + 34, p16 + 35, p16 + 36, p16 + 37, p16 + 38, p16 + 39, 12};
Line(17) = {11, 8};
Line(18) = {12, 9};
Curve Loop(1) = {-1, 4, 3, -2};
Plane Surface(1) = {1};
Curve Loop(2) = {-5, 1, 7, -6};
Plane Surface(2) = {2};
Curve Loop(3) = {-2, 7, 9, -8, -10, -11};
Plane Surface(3) = {3};
Curve Loop(4) = {-12, 3, 8, -13};
Plane Surface(4) = {4};
Curve Loop(5) = {-4, 5, 14, -12, -15, -16};
Plane Surface(5) = {5};
Curve Loop(6) = {-6, 14, 13, -9};
Plane Surface(6) = {6};
Curve Loop(7) = {-10, -17, 15, 17};
Surface(7) = {7};
Curve Loop(8) = {-11, -18, 16, 18};
Surface(8) = {8};
Surface Loop(1) = {1, 2, 3, 4, 5, 6, 7, 8};
Volume(1) = {1};
Physical Surface("INFLOW") = {1};
Physical Surface("OUTFLOW") = {6};
Physical Surface("OBSTACLE") = {7, 8};
Physical Surface("WALL_Y") = {2, 4};
Physical Surface("WALL_Z") = {3, 5};
Physical Volume("FLUID") = {1};
