cl__1 = 0.76651;
cl__2 = 0.287166;
cl__3 = 3.715393;
cl__4 = 0.06560000000000001;
cl__5 = 0.117581;
Point(1) = {0.269076, -3.940291, 1, cl__1};
Point(2) = {0.269076, -3.940291, 0, cl__1};
Point(3) = {0.269076, 5.834528000000001, 1, cl__2};
Point(4) = {0.269076, 5.834528000000001, 0, cl__2};
Point(5) = {36.831073, -3.940291, 0, cl__3};
Point(6) = {36.831073, -3.940291, 1, cl__3};
Point(7) = {36.831073, 5.834528000000001, 1, cl__3};
Point(8) = {9.852546999999999, 1.159263, 1, cl__4};
Point(9) = {5.105293, 4.107263, 1, cl__5};
Point(10) = {36.831073, 5.834528000000001, 0, cl__3};
Point(11) = {9.852546999999999, 1.159263, 0, cl__4};
Point(12) = {5.105293, 4.107263, 0, cl__5};
Line(1) = {2, 1};
Line(2) = {1, 3};
Line(3) = {4, 3};
Line(4) = {2, 4};
Line(5) = {2, 5};
Line(6) = {5, 6};
Line(7) = {1, 6};
Line(8) = {3, 7};
Line(9) = {6, 7};
p10 = newp;
Point(p10 + 1) = {9.844470600677047, 1.261883383328531, 1};
Point(p10 + 2) = {9.820440270463555, 1.361976912241988, 1};
Point(p10 + 3) = {9.781047715841472, 1.457078951867144, 1};
Point(p10 + 4) = {9.727262912241988, 1.544847774362853, 1};
Point(p10 + 5) = {9.660410220031251, 1.62312222003125, 1};
Point(p10 + 6) = {9.582135774362852, 1.689974912241988, 1};
Point(p10 + 7) = {9.494366951867143, 1.743759715841473, 1};
Point(p10 + 8) = {9.399264912241987, 1.783152270463555, 1};
Point(p10 + 9) = {9.299171383328531, 1.807182600677048, 1};
Point(p10 + 10) = {9.196550999999999, 1.815259, 1};
Point(p10 + 11) = {9.093930616671468, 1.807182600677048, 1};
Point(p10 + 12) = {8.993837087758012, 1.783152270463555, 1};
Point(p10 + 13) = {8.898735048132856, 1.743759715841473, 1};
Point(p10 + 14) = {8.810966225637147, 1.689974912241988, 1};
Point(p10 + 15) = {8.732691779968748, 1.623122220031251, 1};
Point(p10 + 16) = {8.665839087758011, 1.544847774362853, 1};
Point(p10 + 17) = {8.612054284158527, 1.457078951867144, 1};
Point(p10 + 18) = {8.572661729536444, 1.361976912241988, 1};
Point(p10 + 19) = {8.548631399322952, 1.261883383328531, 1};
Point(p10 + 20) = {8.540554999999999, 1.159263, 1};
Point(p10 + 21) = {8.548631399322952, 1.056642616671469, 1};
Point(p10 + 22) = {8.572661729536444, 0.9565490877580117, 1};
Point(p10 + 23) = {8.612054284158527, 0.8614470481328566, 1};
Point(p10 + 24) = {8.665839087758011, 0.7736782256371468, 1};
Point(p10 + 25) = {8.732691779968748, 0.6954037799687496, 1};
Point(p10 + 26) = {8.810966225637147, 0.6285510877580119, 1};
Point(p10 + 27) = {8.898735048132856, 0.5747662841585274, 1};
Point(p10 + 28) = {8.993837087758012, 0.5353737295364444, 1};
Point(p10 + 29) = {9.093930616671468, 0.511343399322952, 1};
Point(p10 + 30) = {9.196550999999999, 0.5032669999999999, 1};
Point(p10 + 31) = {9.299171383328531, 0.5113433993229519, 1};
Point(p10 + 32) = {9.399264912241987, 0.5353737295364444, 1};
Point(p10 + 33) = {9.494366951867143, 0.5747662841585274, 1};
Point(p10 + 34) = {9.582135774362852, 0.6285510877580118, 1};
Point(p10 + 35) = {9.660410220031249, 0.6954037799687494, 1};
Point(p10 + 36) = {9.727262912241988, 0.7736782256371466, 1};
Point(p10 + 37) = {9.781047715841472, 0.861447048132856, 1};
Point(p10 + 38) = {9.820440270463555, 0.9565490877580118, 1};
Point(p10 + 39) = {9.844470600677047, 1.056642616671468, 1};
Spline(10) = {8, p10 + 1, p10 + 2, p10 + 3, p10 + 4, p10 + 5, p10 + 6, p10 + 7, p10 + 8, p10 + 9, p10 + 10, p10 + 11, p10 + 12, p10 + 13, p10 + 14, p10 + 15, p10 + 16, p10 + 17, p10 + 18, p10 + 19, p10 + 20, p10 + 21, p10 + 22, p10 + 23, p10 + 24, p10 + 25, p10 + 26, p10 + 27, p10 + 28, p10 + 29, p10 + 30, p10 + 31, p10 + 32, p10 + 33, p10 + 34, p10 + 35, p10 + 36, p10 + 37, p10 + 38, p10 + 39, 8};
p11 = newp;
Point(p11 + 1) = {5.09081680313185, 4.291200521207884, 1};
Point(p11 + 2) = {5.047744664538037, 4.470608890189995, 1};
Point(p11 + 3) = {4.977137163218973, 4.641070477479755, 1};
Point(p11 + 4) = {4.880732890189996, 4.798387953068517, 1};
Point(p11 + 5) = {4.760905638600517, 4.938687638600516, 1};
Point(p11 + 6) = {4.620605953068518, 5.058514890189995, 1};
Point(p11 + 7) = {4.463288477479756, 5.154919163218973, 1};
Point(p11 + 8) = {4.292826890189996, 5.225526664538036, 1};
Point(p11 + 9) = {4.113418521207884, 5.26859880313185, 1};
Point(p11 + 10) = {3.929481, 5.283075, 1};
Point(p11 + 11) = {3.745543478792116, 5.26859880313185, 1};
Point(p11 + 12) = {3.566135109810004, 5.225526664538037, 1};
Point(p11 + 13) = {3.395673522520244, 5.154919163218973, 1};
Point(p11 + 14) = {3.238356046931483, 5.058514890189995, 1};
Point(p11 + 15) = {3.098056361399483, 4.938687638600516, 1};
Point(p11 + 16) = {2.978229109810004, 4.798387953068517, 1};
Point(p11 + 17) = {2.881824836781027, 4.641070477479756, 1};
Point(p11 + 18) = {2.811217335461963, 4.470608890189996, 1};
Point(p11 + 19) = {2.76814519686815, 4.291200521207884, 1};
Point(p11 + 20) = {2.753669, 4.107263, 1};
Point(p11 + 21) = {2.76814519686815, 3.923325478792116, 1};
Point(p11 + 22) = {2.811217335461963, 3.743917109810003, 1};
Point(p11 + 23) = {2.881824836781027, 3.573455522520244, 1};
Point(p11 + 24) = {2.978229109810004, 3.416138046931482, 1};
Point(p11 + 25) = {3.098056361399483, 3.275838361399483, 1};
Point(p11 + 26) = {3.238356046931482, 3.156011109810004, 1};
Point(p11 + 27) = {3.395673522520244, 3.059606836781026, 1};
Point(p11 + 28) = {3.566135109810004, 2.988999335461963, 1};
Point(p11 + 29) = {3.745543478792116, 2.94592719686815, 1};
Point(p11 + 30) = {3.929481, 2.931451, 1};
Point(p11 + 31) = {4.113418521207883, 2.94592719686815, 1};
Point(p11 + 32) = {4.292826890189995, 2.988999335461962, 1};
Point(p11 + 33) = {4.463288477479756, 3.059606836781026, 1};
Point(p11 + 34) = {4.620605953068517, 3.156011109810004, 1};
Point(p11 + 35) = {4.760905638600517, 3.275838361399483, 1};
Point(p11 + 36) = {4.880732890189996, 3.416138046931482, 1};
Point(p11 + 37) = {4.977137163218973, 3.573455522520244, 1};
Point(p11 + 38) = {5.047744664538037, 3.743917109810004, 1};
Point(p11 + 39) = {5.09081680313185, 3.923325478792115, 1};
Spline(11) = {9, p11 + 1, p11 + 2, p11 + 3, p11 + 4, p11 + 5, p11 + 6, p11 + 7, p11 + 8, p11 + 9, p11 + 10, p11 + 11, p11 + 12, p11 + 13, p11 + 14, p11 + 15, p11 + 16, p11 + 17, p11 + 18, p11 + 19, p11 + 20, p11 + 21, p11 + 22, p11 + 23, p11 + 24, p11 + 25, p11 + 26, p11 + 27, p11 + 28, p11 + 29, p11 + 30, p11 + 31, p11 + 32, p11 + 33, p11 + 34, p11 + 35, p11 + 36, p11 + 37, p11 + 38, p11 + 39, 9};
Line(12) = {4, 10};
Line(13) = {10, 7};
Line(14) = {5, 10};
p15 = newp;
Point(p15 + 1) = {9.844470600677047, 1.261883383328531, 0};
Point(p15 + 2) = {9.820440270463555, 1.361976912241988, 0};
Point(p15 + 3) = {9.781047715841472, 1.457078951867144, 0};
Point(p15 + 4) = {9.727262912241988, 1.544847774362853, 0};
Point(p15 + 5) = {9.660410220031251, 1.62312222003125, 0};
Point(p15 + 6) = {9.582135774362852, 1.689974912241988, 0};
Point(p15 + 7) = {9.494366951867143, 1.743759715841473, 0};
Point(p15 + 8) = {9.399264912241987, 1.783152270463555, 0};
Point(p15 + 9) = {9.299171383328531, 1.807182600677048, 0};
Point(p15 + 10) = {9.196550999999999, 1.815259, 0};
Point(p15 + 11) = {9.093930616671468, 1.807182600677048, 0};
Point(p15 + 12) = {8.993837087758012, 1.783152270463555, 0};
Point(p15 + 13) = {8.898735048132856, 1.743759715841473, 0};
Point(p15 + 14) = {8.810966225637147, 1.689974912241988, 0};
Point(p15 + 15) = {8.732691779968748, 1.623122220031251, 0};
Point(p15 + 16) = {8.665839087758011, 1.544847774362853, 0};
Point(p15 + 17) = {8.612054284158527, 1.457078951867144, 0};
Point(p15 + 18) = {8.572661729536444, 1.361976912241988, 0};
Point(p15 + 19) = {8.548631399322952, 1.261883383328531, 0};
Point(p15 + 20) = {8.540554999999999, 1.159263, 0};
Point(p15 + 21) = {8.548631399322952, 1.056642616671469, 0};
Point(p15 + 22) = {8.572661729536444, 0.9565490877580117, 0};
Point(p15 + 23) = {8.612054284158527, 0.8614470481328566, 0};
Point(p15 + 24) = {8.665839087758011, 0.7736782256371468, 0};
Point(p15 + 25) = {8.732691779968748, 0.6954037799687496, 0};
Point(p15 + 26) = {8.810966225637147, 0.6285510877580119, 0};
Point(p15 + 27) = {8.898735048132856, 0.5747662841585274, 0};
Point(p15 + 28) = {8.993837087758012, 0.5353737295364444, 0};
Point(p15 + 29) = {9.093930616671468, 0.511343399322952, 0};
Point(p15 + 30) = {9.196550999999999, 0.5032669999999999, 0};
Point(p15 + 31) = {9.299171383328531, 0.5113433993229519, 0};
Point(p15 + 32) = {9.399264912241987, 0.5353737295364444, 0};
Point(p15 + 33) = {9.494366951867143, 0.5747662841585274, 0};
Point(p15 + 34) = {9.582135774362852, 0.6285510877580118, 0};
Point(p15 + 35) = {9.660410220031249, 0.6954037799687494, 0};
Point(p15 + 36) = {9.727262912241988, 0.7736782256371466, 0};
Point(p15 + 37) = {9.781047715841472, 0.861447048132856, 0};
Point(p15 + 38) = {9.820440270463555, 0.9565490877580118, 0};
Point(p15 + 39) = {9.844470600677047, 1.056642616671468, 0};
Spline(15) = {11, p15 + 1, p15 + 2, p15 + 3, p15 + 4, p15 + 5, p15 + 6, p15 + 7, p15 + 8, p15 + 9, p15 + 10, p15 + 11, p15 + 12, p15 + 13, p15 + 14, p15 + 15, p15 + 16, p15 + 17, p15 + 18, p15 + 19, p15 + 20, p15 + 21, p15 + 22, p15 + 23, p15 + 24, p15 + 25, p15 + 26, p15 + 27, p15 + 28, p15 + 29, p15 + 30, p15 + 31, p15 + 32, p15 + 33, p15 + 34, p15 + 35, p15 + 36, p15 + 37, p15 + 38, p15 + 39, 11};
p16 = newp;
Point(p16 + 1) = {5.09081680313185, 4.291200521207884, 0};
Point(p16 + 2) = {5.047744664538037, 4.470608890189995, 0};
Point(p16 + 3) = {4.977137163218973, 4.641070477479755, 0};
Point(p16 + 4) = {4.880732890189996, 4.798387953068517, 0};
Point(p16 + 5) = {4.760905638600517, 4.938687638600516, 0};
Point(p16 + 6) = {4.620605953068518, 5.058514890189995, 0};
Point(p16 + 7) = {4.463288477479756, 5.154919163218973, 0};
Point(p16 + 8) = {4.292826890189996, 5.225526664538036, 0};
Point(p16 + 9) = {4.113418521207884, 5.26859880313185, 0};
Point(p16 + 10) = {3.929481, 5.283075, 0};
Point(p16 + 11) = {3.745543478792116, 5.26859880313185, 0};
Point(p16 + 12) = {3.566135109810004, 5.225526664538037, 0};
Point(p16 + 13) = {3.395673522520244, 5.154919163218973, 0};
Point(p16 + 14) = {3.238356046931483, 5.058514890189995, 0};
Point(p16 + 15) = {3.098056361399483, 4.938687638600516, 0};
Point(p16 + 16) = {2.978229109810004, 4.798387953068517, 0};
Point(p16 + 17) = {2.881824836781027, 4.641070477479756, 0};
Point(p16 + 18) = {2.811217335461963, 4.470608890189996, 0};
Point(p16 + 19) = {2.76814519686815, 4.291200521207884, 0};
Point(p16 + 20) = {2.753669, 4.107263, 0};
Point(p16 + 21) = {2.76814519686815, 3.923325478792116, 0};
Point(p16 + 22) = {2.811217335461963, 3.743917109810003, 0};
Point(p16 + 23) = {2.881824836781027, 3.573455522520244, 0};
Point(p16 + 24) = {2.978229109810004, 3.416138046931482, 0};
Point(p16 + 25) = {3.098056361399483, 3.275838361399483, 0};
Point(p16 + 26) = {3.238356046931482, 3.156011109810004, 0};
Point(p16 + 27) = {3.395673522520244, 3.059606836781026, 0};
Point(p16 + 28) = {3.566135109810004, 2.988999335461963, 0};
Point(p16 + 29) = {3.745543478792116, 2.94592719686815, 0};
Point(p16 + 30) = {3.929481, 2.931451, 0};
Point(p16 + 31) = {4.113418521207883, 2.94592719686815, 0};
Point(p16 + 32) = {4.292826890189995, 2.988999335461962, 0};
Point(p16 + 33) = {4.463288477479756, 3.059606836781026, 0};
Point(p16 + 34) = {4.620605953068517, 3.156011109810004, 0};
Point(p16 + 35) = {4.760905638600517, 3.275838361399483, 0};
Point(p16 + 36) = {4.880732890189996, 3.416138046931482, 0};
Point(p16 + 37) = {4.977137163218973, 3.573455522520244, 0};
Point(p16 + 38) = {5.047744664538037, 3.743917109810004, 0};
Point(p16 + 39) = {5.09081680313185, 3.923325478792115, 0};
Spline(16) = {12, p16 + 1, p16 + 2, p16 + 3, p16 + 4, p16 + 5, p16 + 6, p16 + 7, p16 + 8, p16 + 9, p16 + 10, p16 + 11, p16 + 12, p16 + 13, p16 + 14, p16 + 15, p16 + 16, p16 + 17, p16 + 18, p16 + 19, p16 + 20, p16 + 21, p16 + 22, p16 + 23, p16 + 24, p16 + 25, p16 + 26, p16 + 27, p16 + 28, p16 + 29, p16 + 30, p16 + 31, p16 + 32, p16 + 33, p16 + 34, p16 + 35, p16 + 36, p16 + 37, p16 + 38, p16 + 39, 12};
Line(17) = {11, 8};
Line(18) = {12, 9};
Curve Loop(1) = {-1, 4, 3, -2};
Plane Surface(1) = {1};
Curve Loop(2) = {-5, 1, 7, -6};
Plane Surface(2) = {2};
Curve Loop(3) = {-2, 7, 9, -8, -10, -11};
Plane Surface(3) = {3};
Curve Loop(4) = {-12, 3, 8, -13};
Plane Surface(4) = {4};
Curve Loop(5) = {-4, 5, 14, -12, -15, -16};
Plane Surface(5) = {5};
Curve Loop(6) = {-6, 14, 13, -9};
Plane Surface(6) = {6};
Curve Loop(7) = {-10, -17, 15, 17};
Surface(7) = {7};
Curve Loop(8) = {-11, -18, 16, 18};
Surface(8) = {8};
Surface Loop(1) = {1, 2, 3, 4, 5, 6, 7, 8};
Volume(1) = {1};
Physical Surface("INFLOW") = {1};
Physical Surface("OUTFLOW") = {6};
Physical Surface("OBSTACLE") = {7, 8};
Physical Surface("WALL_Y") = {2, 4};
Physical Surface("WALL_Z") = {3, 5};
Physical Volume("FLUID") = {1};
