cl__1 = 0.711839;
cl__2 = 3.581249;
cl__3 = 0.093907;
cl__4 = 0.125135;
Point(1) = {0.041611, -4.268239, 1, cl__1};
Point(2) = {0.041611, -4.268239, 0, cl__1};
Point(3) = {0.041611, 5.7062, 1, cl__2};
Point(4) = {0.041611, 5.7062, 0, cl__2};
Point(5) = {35.46353300000001, -4.268239, 0, cl__1};
Point(6) = {35.46353300000001, -4.268239, 1, cl__1};
Point(7) = {35.46353300000001, 5.7062, 1, cl__2};
Point(8) = {13.300841, 3.15919, 1, cl__3};
Point(9) = {4.883394, 3.292269999999999, 1, cl__4};
Point(10) = {35.46353300000001, 5.7062, 0, cl__2};
Point(11) = {13.300841, 3.15919, 0, cl__3};
Point(12) = {4.883394, 3.292269999999999, 0, cl__4};
Line(1) = {2, 1};
Line(2) = {1, 3};
Line(3) = {4, 3};
Line(4) = {2, 4};
Line(5) = {2, 5};
Line(6) = {5, 6};
Line(7) = {1, 6};
Line(8) = {3, 7};
Line(9) = {6, 7};
p10 = newp;
Point(p10 + 1) = {13.28927949000268, 3.30609291308533, 1};
Point(p10 + 2) = {13.25487964275729, 3.449378588907682, 1};
Point(p10 + 3) = {13.19848849666957, 3.585518858590416, 1};
Point(p10 + 4) = {13.12149458890768, 3.711161496870293, 1};
Point(p10 + 5) = {13.02579376500885, 3.823212765008851, 1};
Point(p10 + 6) = {12.91374249687029, 3.918913588907682, 1};
Point(p10 + 7) = {12.78809985859042, 3.995907496669571, 1};
Point(p10 + 8) = {12.65195958890768, 4.05229864275729, 1};
Point(p10 + 9) = {12.50867391308533, 4.086698490002676, 1};
Point(p10 + 10) = {12.361771, 4.09826, 1};
Point(p10 + 11) = {12.21486808691467, 4.086698490002676, 1};
Point(p10 + 12) = {12.07158241109232, 4.05229864275729, 1};
Point(p10 + 13) = {11.93544214140958, 3.995907496669571, 1};
Point(p10 + 14) = {11.80979950312971, 3.918913588907682, 1};
Point(p10 + 15) = {11.69774823499115, 3.823212765008851, 1};
Point(p10 + 16) = {11.60204741109232, 3.711161496870293, 1};
Point(p10 + 17) = {11.52505350333043, 3.585518858590417, 1};
Point(p10 + 18) = {11.46866235724271, 3.449378588907682, 1};
Point(p10 + 19) = {11.43426250999732, 3.30609291308533, 1};
Point(p10 + 20) = {11.422701, 3.15919, 1};
Point(p10 + 21) = {11.43426250999732, 3.012287086914671, 1};
Point(p10 + 22) = {11.46866235724271, 2.869001411092318, 1};
Point(p10 + 23) = {11.52505350333043, 2.732861141409584, 1};
Point(p10 + 24) = {11.60204741109232, 2.607218503129708, 1};
Point(p10 + 25) = {11.69774823499115, 2.495167234991149, 1};
Point(p10 + 26) = {11.80979950312971, 2.399466411092318, 1};
Point(p10 + 27) = {11.93544214140958, 2.32247250333043, 1};
Point(p10 + 28) = {12.07158241109232, 2.26608135724271, 1};
Point(p10 + 29) = {12.21486808691467, 2.231681509997324, 1};
Point(p10 + 30) = {12.361771, 2.22012, 1};
Point(p10 + 31) = {12.50867391308533, 2.231681509997324, 1};
Point(p10 + 32) = {12.65195958890768, 2.26608135724271, 1};
Point(p10 + 33) = {12.78809985859042, 2.32247250333043, 1};
Point(p10 + 34) = {12.91374249687029, 2.399466411092318, 1};
Point(p10 + 35) = {13.02579376500885, 2.495167234991149, 1};
Point(p10 + 36) = {13.12149458890768, 2.607218503129707, 1};
Point(p10 + 37) = {13.19848849666957, 2.732861141409584, 1};
Point(p10 + 38) = {13.25487964275729, 2.869001411092318, 1};
Point(p10 + 39) = {13.28927949000268, 3.01228708691467, 1};
Spline(10) = {8, p10 + 1, p10 + 2, p10 + 3, p10 + 4, p10 + 5, p10 + 6, p10 + 7, p10 + 8, p10 + 9, p10 + 10, p10 + 11, p10 + 12, p10 + 13, p10 + 14, p10 + 15, p10 + 16, p10 + 17, p10 + 18, p10 + 19, p10 + 20, p10 + 21, p10 + 22, p10 + 23, p10 + 24, p10 + 25, p10 + 26, p10 + 27, p10 + 28, p10 + 29, p10 + 30, p10 + 31, p10 + 32, p10 + 33, p10 + 34, p10 + 35, p10 + 36, p10 + 37, p10 + 38, p10 + 39, 8};
p11 = newp;
Point(p11 + 1) = {4.867987866562022, 3.488023485655768, 1};
Point(p11 + 2) = {4.822148816383359, 3.678956870826118, 1};
Point(p11 + 3) = {4.747005559010493, 3.860368741896583, 1};
Point(p11 + 4) = {4.644408370826119, 4.027792136529925, 1};
Point(p11 + 5) = {4.51688353510388, 4.17710453510388, 1};
Point(p11 + 6) = {4.367571136529925, 4.304629370826119, 1};
Point(p11 + 7) = {4.200147741896583, 4.407226559010493, 1};
Point(p11 + 8) = {4.018735870826118, 4.482369816383359, 1};
Point(p11 + 9) = {3.827802485655768, 4.528208866562022, 1};
Point(p11 + 10) = {3.632049, 4.543615, 1};
Point(p11 + 11) = {3.436295514344232, 4.528208866562022, 1};
Point(p11 + 12) = {3.245362129173881, 4.482369816383359, 1};
Point(p11 + 13) = {3.063950258103417, 4.407226559010493, 1};
Point(p11 + 14) = {2.896526863470075, 4.304629370826119, 1};
Point(p11 + 15) = {2.747214464896119, 4.17710453510388, 1};
Point(p11 + 16) = {2.619689629173881, 4.027792136529925, 1};
Point(p11 + 17) = {2.517092440989507, 3.860368741896583, 1};
Point(p11 + 18) = {2.441949183616641, 3.678956870826119, 1};
Point(p11 + 19) = {2.396110133437977, 3.488023485655768, 1};
Point(p11 + 20) = {2.380704, 3.29227, 1};
Point(p11 + 21) = {2.396110133437977, 3.096516514344232, 1};
Point(p11 + 22) = {2.441949183616641, 2.905583129173881, 1};
Point(p11 + 23) = {2.517092440989506, 2.724171258103417, 1};
Point(p11 + 24) = {2.619689629173881, 2.556747863470075, 1};
Point(p11 + 25) = {2.747214464896119, 2.407435464896119, 1};
Point(p11 + 26) = {2.896526863470075, 2.279910629173881, 1};
Point(p11 + 27) = {3.063950258103417, 2.177313440989507, 1};
Point(p11 + 28) = {3.245362129173881, 2.102170183616641, 1};
Point(p11 + 29) = {3.436295514344232, 2.056331133437977, 1};
Point(p11 + 30) = {3.632048999999999, 2.040925, 1};
Point(p11 + 31) = {3.827802485655767, 2.056331133437977, 1};
Point(p11 + 32) = {4.018735870826118, 2.102170183616641, 1};
Point(p11 + 33) = {4.200147741896583, 2.177313440989507, 1};
Point(p11 + 34) = {4.367571136529924, 2.279910629173881, 1};
Point(p11 + 35) = {4.516883535103879, 2.407435464896119, 1};
Point(p11 + 36) = {4.644408370826119, 2.556747863470075, 1};
Point(p11 + 37) = {4.747005559010493, 2.724171258103417, 1};
Point(p11 + 38) = {4.822148816383359, 2.905583129173881, 1};
Point(p11 + 39) = {4.867987866562022, 3.096516514344232, 1};
Spline(11) = {9, p11 + 1, p11 + 2, p11 + 3, p11 + 4, p11 + 5, p11 + 6, p11 + 7, p11 + 8, p11 + 9, p11 + 10, p11 + 11, p11 + 12, p11 + 13, p11 + 14, p11 + 15, p11 + 16, p11 + 17, p11 + 18, p11 + 19, p11 + 20, p11 + 21, p11 + 22, p11 + 23, p11 + 24, p11 + 25, p11 + 26, p11 + 27, p11 + 28, p11 + 29, p11 + 30, p11 + 31, p11 + 32, p11 + 33, p11 + 34, p11 + 35, p11 + 36, p11 + 37, p11 + 38, p11 + 39, 9};
Line(12) = {4, 10};
Line(13) = {10, 7};
Line(14) = {5, 10};
p15 = newp;
Point(p15 + 1) = {13.28927949000268, 3.30609291308533, 0};
Point(p15 + 2) = {13.25487964275729, 3.449378588907682, 0};
Point(p15 + 3) = {13.19848849666957, 3.585518858590416, 0};
Point(p15 + 4) = {13.12149458890768, 3.711161496870293, 0};
Point(p15 + 5) = {13.02579376500885, 3.823212765008851, 0};
Point(p15 + 6) = {12.91374249687029, 3.918913588907682, 0};
Point(p15 + 7) = {12.78809985859042, 3.995907496669571, 0};
Point(p15 + 8) = {12.65195958890768, 4.05229864275729, 0};
Point(p15 + 9) = {12.50867391308533, 4.086698490002676, 0};
Point(p15 + 10) = {12.361771, 4.09826, 0};
Point(p15 + 11) = {12.21486808691467, 4.086698490002676, 0};
Point(p15 + 12) = {12.07158241109232, 4.05229864275729, 0};
Point(p15 + 13) = {11.93544214140958, 3.995907496669571, 0};
Point(p15 + 14) = {11.80979950312971, 3.918913588907682, 0};
Point(p15 + 15) = {11.69774823499115, 3.823212765008851, 0};
Point(p15 + 16) = {11.60204741109232, 3.711161496870293, 0};
Point(p15 + 17) = {11.52505350333043, 3.585518858590417, 0};
Point(p15 + 18) = {11.46866235724271, 3.449378588907682, 0};
Point(p15 + 19) = {11.43426250999732, 3.30609291308533, 0};
Point(p15 + 20) = {11.422701, 3.15919, 0};
Point(p15 + 21) = {11.43426250999732, 3.012287086914671, 0};
Point(p15 + 22) = {11.46866235724271, 2.869001411092318, 0};
Point(p15 + 23) = {11.52505350333043, 2.732861141409584, 0};
Point(p15 + 24) = {11.60204741109232, 2.607218503129708, 0};
Point(p15 + 25) = {11.69774823499115, 2.495167234991149, 0};
Point(p15 + 26) = {11.80979950312971, 2.399466411092318, 0};
Point(p15 + 27) = {11.93544214140958, 2.32247250333043, 0};
Point(p15 + 28) = {12.07158241109232, 2.26608135724271, 0};
Point(p15 + 29) = {12.21486808691467, 2.231681509997324, 0};
Point(p15 + 30) = {12.361771, 2.22012, 0};
Point(p15 + 31) = {12.50867391308533, 2.231681509997324, 0};
Point(p15 + 32) = {12.65195958890768, 2.26608135724271, 0};
Point(p15 + 33) = {12.78809985859042, 2.32247250333043, 0};
Point(p15 + 34) = {12.91374249687029, 2.399466411092318, 0};
Point(p15 + 35) = {13.02579376500885, 2.495167234991149, 0};
Point(p15 + 36) = {13.12149458890768, 2.607218503129707, 0};
Point(p15 + 37) = {13.19848849666957, 2.732861141409584, 0};
Point(p15 + 38) = {13.25487964275729, 2.869001411092318, 0};
Point(p15 + 39) = {13.28927949000268, 3.01228708691467, 0};
Spline(15) = {11, p15 + 1, p15 + 2, p15 + 3, p15 + 4, p15 + 5, p15 + 6, p15 + 7, p15 + 8, p15 + 9, p15 + 10, p15 + 11, p15 + 12, p15 + 13, p15 + 14, p15 + 15, p15 + 16, p15 + 17, p15 + 18, p15 + 19, p15 + 20, p15 + 21, p15 + 22, p15 + 23, p15 + 24, p15 + 25, p15 + 26, p15 + 27, p15 + 28, p15 + 29, p15 + 30, p15 + 31, p15 + 32, p15 + 33, p15 + 34, p15 + 35, p15 + 36, p15 + 37, p15 + 38, p15 + 39, 11};
p16 = newp;
Point(p16 + 1) = {4.867987866562022, 3.488023485655768, 0};
Point(p16 + 2) = {4.822148816383359, 3.678956870826118, 0};
Point(p16 + 3) = {4.747005559010493, 3.860368741896583, 0};
Point(p16 + 4) = {4.644408370826119, 4.027792136529925, 0};
Point(p16 + 5) = {4.51688353510388, 4.17710453510388, 0};
Point(p16 + 6) = {4.367571136529925, 4.304629370826119, 0};
Point(p16 + 7) = {4.200147741896583, 4.407226559010493, 0};
Point(p16 + 8) = {4.018735870826118, 4.482369816383359, 0};
Point(p16 + 9) = {3.827802485655768, 4.528208866562022, 0};
Point(p16 + 10) = {3.632049, 4.543615, 0};
Point(p16 + 11) = {3.436295514344232, 4.528208866562022, 0};
Point(p16 + 12) = {3.245362129173881, 4.482369816383359, 0};
Point(p16 + 13) = {3.063950258103417, 4.407226559010493, 0};
Point(p16 + 14) = {2.896526863470075, 4.304629370826119, 0};
Point(p16 + 15) = {2.747214464896119, 4.17710453510388, 0};
Point(p16 + 16) = {2.619689629173881, 4.027792136529925, 0};
Point(p16 + 17) = {2.517092440989507, 3.860368741896583, 0};
Point(p16 + 18) = {2.441949183616641, 3.678956870826119, 0};
Point(p16 + 19) = {2.396110133437977, 3.488023485655768, 0};
Point(p16 + 20) = {2.380704, 3.29227, 0};
Point(p16 + 21) = {2.396110133437977, 3.096516514344232, 0};
Point(p16 + 22) = {2.441949183616641, 2.905583129173881, 0};
Point(p16 + 23) = {2.517092440989506, 2.724171258103417, 0};
Point(p16 + 24) = {2.619689629173881, 2.556747863470075, 0};
Point(p16 + 25) = {2.747214464896119, 2.407435464896119, 0};
Point(p16 + 26) = {2.896526863470075, 2.279910629173881, 0};
Point(p16 + 27) = {3.063950258103417, 2.177313440989507, 0};
Point(p16 + 28) = {3.245362129173881, 2.102170183616641, 0};
Point(p16 + 29) = {3.436295514344232, 2.056331133437977, 0};
Point(p16 + 30) = {3.632048999999999, 2.040925, 0};
Point(p16 + 31) = {3.827802485655767, 2.056331133437977, 0};
Point(p16 + 32) = {4.018735870826118, 2.102170183616641, 0};
Point(p16 + 33) = {4.200147741896583, 2.177313440989507, 0};
Point(p16 + 34) = {4.367571136529924, 2.279910629173881, 0};
Point(p16 + 35) = {4.516883535103879, 2.407435464896119, 0};
Point(p16 + 36) = {4.644408370826119, 2.556747863470075, 0};
Point(p16 + 37) = {4.747005559010493, 2.724171258103417, 0};
Point(p16 + 38) = {4.822148816383359, 2.905583129173881, 0};
Point(p16 + 39) = {4.867987866562022, 3.096516514344232, 0};
Spline(16) = {12, p16 + 1, p16 + 2, p16 + 3, p16 + 4, p16 + 5, p16 + 6, p16 + 7, p16 + 8, p16 + 9, p16 + 10, p16 + 11, p16 + 12, p16 + 13, p16 + 14, p16 + 15, p16 + 16, p16 + 17, p16 + 18, p16 + 19, p16 + 20, p16 + 21, p16 + 22, p16 + 23, p16 + 24, p16 + 25, p16 + 26, p16 + 27, p16 + 28, p16 + 29, p16 + 30, p16 + 31, p16 + 32, p16 + 33, p16 + 34, p16 + 35, p16 + 36, p16 + 37, p16 + 38, p16 + 39, 12};
Line(17) = {11, 8};
Line(18) = {12, 9};
Curve Loop(1) = {-1, 4, 3, -2};
Plane Surface(1) = {1};
Curve Loop(2) = {-5, 1, 7, -6};
Plane Surface(2) = {2};
Curve Loop(3) = {-2, 7, 9, -8, -10, -11};
Plane Surface(3) = {3};
Curve Loop(4) = {-12, 3, 8, -13};
Plane Surface(4) = {4};
Curve Loop(5) = {-4, 5, 14, -12, -15, -16};
Plane Surface(5) = {5};
Curve Loop(6) = {-6, 14, 13, -9};
Plane Surface(6) = {6};
Curve Loop(7) = {-10, -17, 15, 17};
Surface(7) = {7};
Curve Loop(8) = {-11, -18, 16, 18};
Surface(8) = {8};
Surface Loop(1) = {1, 2, 3, 4, 5, 6, 7, 8};
Volume(1) = {1};
Physical Surface("INFLOW") = {1};
Physical Surface("OUTFLOW") = {6};
Physical Surface("OBSTACLE") = {7, 8};
Physical Surface("WALL_Y") = {2, 4};
Physical Surface("WALL_Z") = {3, 5};
Physical Volume("FLUID") = {1};
