cl__1 = 1.863113;
cl__2 = 3.79909;
cl__3 = 1.701994;
cl__4 = 1.782929;
cl__5 = 0.076156;
Point(1) = {0.915126, -3.673748, 1, cl__1};
Point(2) = {0.915126, -3.673748, 0, cl__1};
Point(3) = {0.915126, 4.777906, 1, cl__2};
Point(4) = {0.915126, 4.777906, 0, cl__2};
Point(5) = {37.755138, -3.673748, 0, cl__3};
Point(6) = {37.755138, -3.673748, 1, cl__3};
Point(7) = {37.755138, 4.777906, 1, cl__4};
Point(8) = {20.909597, -1.18949, 1, cl__5};
Point(9) = {37.755138, 4.777906, 0, cl__4};
Point(10) = {20.909597, -1.18949, 0, cl__5};
Line(1) = {2, 1};
Line(2) = {1, 3};
Line(3) = {4, 3};
Line(4) = {2, 4};
Line(5) = {2, 5};
Line(6) = {5, 6};
Line(7) = {1, 6};
Line(8) = {3, 7};
Line(9) = {6, 7};
p10 = newp;
Point(p10 + 1) = {20.90022090804031, -1.070355455935032, 1};
Point(p10 + 2) = {20.87232350266277, -0.9541543997298263, 1};
Point(p10 + 3) = {20.82659171057394, -0.8437480870373513, 1};
Point(p10 + 4) = {20.76415160027017, -0.7418550876936396, 1};
Point(p10 + 5) = {20.68654065449399, -0.6509843455060105, 1};
Point(p10 + 6) = {20.59566991230636, -0.5733733997298263, 1};
Point(p10 + 7) = {20.49377691296265, -0.5109332894260582, 1};
Point(p10 + 8) = {20.38337060027017, -0.4652014973372303, 1};
Point(p10 + 9) = {20.26716954406497, -0.4373040919596857, 1};
Point(p10 + 10) = {20.148035, -0.427928, 1};
Point(p10 + 11) = {20.02890045593503, -0.4373040919596858, 1};
Point(p10 + 12) = {19.91269939972983, -0.4652014973372302, 1};
Point(p10 + 13) = {19.80229308703735, -0.5109332894260581, 1};
Point(p10 + 14) = {19.70040008769364, -0.5733733997298263, 1};
Point(p10 + 15) = {19.60952934550601, -0.6509843455060105, 1};
Point(p10 + 16) = {19.53191839972983, -0.7418550876936394, 1};
Point(p10 + 17) = {19.46947828942606, -0.8437480870373512, 1};
Point(p10 + 18) = {19.42374649733723, -0.9541543997298262, 1};
Point(p10 + 19) = {19.39584909195969, -1.070355455935032, 1};
Point(p10 + 20) = {19.386473, -1.18949, 1};
Point(p10 + 21) = {19.39584909195969, -1.308624544064968, 1};
Point(p10 + 22) = {19.42374649733723, -1.424825600270174, 1};
Point(p10 + 23) = {19.46947828942606, -1.535231912962648, 1};
Point(p10 + 24) = {19.53191839972983, -1.63712491230636, 1};
Point(p10 + 25) = {19.60952934550601, -1.727995654493989, 1};
Point(p10 + 26) = {19.70040008769364, -1.805606600270174, 1};
Point(p10 + 27) = {19.80229308703735, -1.868046710573942, 1};
Point(p10 + 28) = {19.91269939972983, -1.91377850266277, 1};
Point(p10 + 29) = {20.02890045593503, -1.941675908040314, 1};
Point(p10 + 30) = {20.148035, -1.951052, 1};
Point(p10 + 31) = {20.26716954406497, -1.941675908040314, 1};
Point(p10 + 32) = {20.38337060027017, -1.91377850266277, 1};
Point(p10 + 33) = {20.49377691296265, -1.868046710573942, 1};
Point(p10 + 34) = {20.59566991230636, -1.805606600270174, 1};
Point(p10 + 35) = {20.68654065449399, -1.72799565449399, 1};
Point(p10 + 36) = {20.76415160027017, -1.63712491230636, 1};
Point(p10 + 37) = {20.82659171057394, -1.535231912962649, 1};
Point(p10 + 38) = {20.87232350266277, -1.424825600270174, 1};
Point(p10 + 39) = {20.90022090804031, -1.308624544064968, 1};
Spline(10) = {8, p10 + 1, p10 + 2, p10 + 3, p10 + 4, p10 + 5, p10 + 6, p10 + 7, p10 + 8, p10 + 9, p10 + 10, p10 + 11, p10 + 12, p10 + 13, p10 + 14, p10 + 15, p10 + 16, p10 + 17, p10 + 18, p10 + 19, p10 + 20, p10 + 21, p10 + 22, p10 + 23, p10 + 24, p10 + 25, p10 + 26, p10 + 27, p10 + 28, p10 + 29, p10 + 30, p10 + 31, p10 + 32, p10 + 33, p10 + 34, p10 + 35, p10 + 36, p10 + 37, p10 + 38, p10 + 39, 8};
Line(11) = {4, 9};
Line(12) = {9, 7};
Line(13) = {5, 9};
p14 = newp;
Point(p14 + 1) = {20.90022090804031, -1.070355455935032, 0};
Point(p14 + 2) = {20.87232350266277, -0.9541543997298263, 0};
Point(p14 + 3) = {20.82659171057394, -0.8437480870373513, 0};
Point(p14 + 4) = {20.76415160027017, -0.7418550876936396, 0};
Point(p14 + 5) = {20.68654065449399, -0.6509843455060105, 0};
Point(p14 + 6) = {20.59566991230636, -0.5733733997298263, 0};
Point(p14 + 7) = {20.49377691296265, -0.5109332894260582, 0};
Point(p14 + 8) = {20.38337060027017, -0.4652014973372303, 0};
Point(p14 + 9) = {20.26716954406497, -0.4373040919596857, 0};
Point(p14 + 10) = {20.148035, -0.427928, 0};
Point(p14 + 11) = {20.02890045593503, -0.4373040919596858, 0};
Point(p14 + 12) = {19.91269939972983, -0.4652014973372302, 0};
Point(p14 + 13) = {19.80229308703735, -0.5109332894260581, 0};
Point(p14 + 14) = {19.70040008769364, -0.5733733997298263, 0};
Point(p14 + 15) = {19.60952934550601, -0.6509843455060105, 0};
Point(p14 + 16) = {19.53191839972983, -0.7418550876936394, 0};
Point(p14 + 17) = {19.46947828942606, -0.8437480870373512, 0};
Point(p14 + 18) = {19.42374649733723, -0.9541543997298262, 0};
Point(p14 + 19) = {19.39584909195969, -1.070355455935032, 0};
Point(p14 + 20) = {19.386473, -1.18949, 0};
Point(p14 + 21) = {19.39584909195969, -1.308624544064968, 0};
Point(p14 + 22) = {19.42374649733723, -1.424825600270174, 0};
Point(p14 + 23) = {19.46947828942606, -1.535231912962648, 0};
Point(p14 + 24) = {19.53191839972983, -1.63712491230636, 0};
Point(p14 + 25) = {19.60952934550601, -1.727995654493989, 0};
Point(p14 + 26) = {19.70040008769364, -1.805606600270174, 0};
Point(p14 + 27) = {19.80229308703735, -1.868046710573942, 0};
Point(p14 + 28) = {19.91269939972983, -1.91377850266277, 0};
Point(p14 + 29) = {20.02890045593503, -1.941675908040314, 0};
Point(p14 + 30) = {20.148035, -1.951052, 0};
Point(p14 + 31) = {20.26716954406497, -1.941675908040314, 0};
Point(p14 + 32) = {20.38337060027017, -1.91377850266277, 0};
Point(p14 + 33) = {20.49377691296265, -1.868046710573942, 0};
Point(p14 + 34) = {20.59566991230636, -1.805606600270174, 0};
Point(p14 + 35) = {20.68654065449399, -1.72799565449399, 0};
Point(p14 + 36) = {20.76415160027017, -1.63712491230636, 0};
Point(p14 + 37) = {20.82659171057394, -1.535231912962649, 0};
Point(p14 + 38) = {20.87232350266277, -1.424825600270174, 0};
Point(p14 + 39) = {20.90022090804031, -1.308624544064968, 0};
Spline(14) = {10, p14 + 1, p14 + 2, p14 + 3, p14 + 4, p14 + 5, p14 + 6, p14 + 7, p14 + 8, p14 + 9, p14 + 10, p14 + 11, p14 + 12, p14 + 13, p14 + 14, p14 + 15, p14 + 16, p14 + 17, p14 + 18, p14 + 19, p14 + 20, p14 + 21, p14 + 22, p14 + 23, p14 + 24, p14 + 25, p14 + 26, p14 + 27, p14 + 28, p14 + 29, p14 + 30, p14 + 31, p14 + 32, p14 + 33, p14 + 34, p14 + 35, p14 + 36, p14 + 37, p14 + 38, p14 + 39, 10};
Line(15) = {10, 8};
Curve Loop(1) = {-1, 4, 3, -2};
Plane Surface(1) = {1};
Curve Loop(2) = {-5, 1, 7, -6};
Plane Surface(2) = {2};
Curve Loop(3) = {-2, 7, 9, -8, -10};
Plane Surface(3) = {3};
Curve Loop(4) = {-11, 3, 8, -12};
Plane Surface(4) = {4};
Curve Loop(5) = {-4, 5, 13, -11, -14};
Plane Surface(5) = {5};
Curve Loop(6) = {-6, 13, 12, -9};
Plane Surface(6) = {6};
Curve Loop(7) = {-10, -15, 14, 15};
Surface(7) = {7};
Surface Loop(1) = {1, 2, 3, 4, 5, 6, 7};
Volume(1) = {1};
Physical Surface("INFLOW") = {1};
Physical Surface("OUTFLOW") = {6};
Physical Surface("OBSTACLE") = {7};
Physical Surface("WALL_Y") = {2, 4};
Physical Surface("WALL_Z") = {3, 5};
Physical Volume("FLUID") = {1};
