cl__1 = 0.464503;
cl__2 = 0.814848;
cl__3 = 0.695771;
cl__4 = 0.546332;
cl__5 = 0.075056;
cl__6 = 0.079514;
Point(1) = {0.145327, -4.017477, 1, cl__1};
Point(2) = {0.145327, -4.017477, 0, cl__1};
Point(3) = {0.145327, 5.357985999999999, 1, cl__2};
Point(4) = {0.145327, 5.357985999999999, 0, cl__2};
Point(5) = {31.999024, -4.017477, 0, cl__3};
Point(6) = {31.999024, -4.017477, 1, cl__3};
Point(7) = {31.999024, 5.357985999999999, 1, cl__4};
Point(8) = {5.900337, -2.000578, 1, cl__5};
Point(9) = {27.65454, 1.786915, 1, cl__6};
Point(10) = {31.999024, 5.357985999999999, 0, cl__4};
Point(11) = {5.900337, -2.000578, 0, cl__5};
Point(12) = {27.65454, 1.786915, 0, cl__6};
Line(1) = {2, 1};
Line(2) = {1, 3};
Line(3) = {4, 3};
Line(4) = {2, 4};
Line(5) = {2, 5};
Line(6) = {5, 6};
Line(7) = {1, 6};
Line(8) = {3, 7};
Line(9) = {6, 7};
p10 = newp;
Point(p10 + 1) = {5.891096348605427, -1.883164391484939, 1};
Point(p10 + 2) = {5.863601929927007, -1.768641895684945, 1};
Point(p10 + 3) = {5.818530747801345, -1.659830436524986, 1};
Point(p10 + 4) = {5.756992604315055, -1.559409313254109, 1};
Point(p10 + 5) = {5.680502772794156, -1.469851227205844, 1};
Point(p10 + 6) = {5.590944686745891, -1.393361395684945, 1};
Point(p10 + 7) = {5.490523563475014, -1.331823252198654, 1};
Point(p10 + 8) = {5.381712104315055, -1.286752070072993, 1};
Point(p10 + 9) = {5.267189608515061, -1.259257651394573, 1};
Point(p10 + 10) = {5.149776, -1.250017, 1};
Point(p10 + 11) = {5.03236239148494, -1.259257651394573, 1};
Point(p10 + 12) = {4.917839895684946, -1.286752070072993, 1};
Point(p10 + 13) = {4.809028436524986, -1.331823252198654, 1};
Point(p10 + 14) = {4.70860731325411, -1.393361395684945, 1};
Point(p10 + 15) = {4.619049227205844, -1.469851227205844, 1};
Point(p10 + 16) = {4.542559395684945, -1.559409313254109, 1};
Point(p10 + 17) = {4.481021252198655, -1.659830436524986, 1};
Point(p10 + 18) = {4.435950070072994, -1.768641895684945, 1};
Point(p10 + 19) = {4.408455651394573, -1.883164391484939, 1};
Point(p10 + 20) = {4.399215, -2.000578, 1};
Point(p10 + 21) = {4.408455651394573, -2.117991608515061, 1};
Point(p10 + 22) = {4.435950070072994, -2.232514104315055, 1};
Point(p10 + 23) = {4.481021252198654, -2.341325563475014, 1};
Point(p10 + 24) = {4.542559395684945, -2.441746686745891, 1};
Point(p10 + 25) = {4.619049227205844, -2.531304772794156, 1};
Point(p10 + 26) = {4.70860731325411, -2.607794604315055, 1};
Point(p10 + 27) = {4.809028436524986, -2.669332747801346, 1};
Point(p10 + 28) = {4.917839895684945, -2.714403929927007, 1};
Point(p10 + 29) = {5.03236239148494, -2.741898348605427, 1};
Point(p10 + 30) = {5.149776, -2.751139, 1};
Point(p10 + 31) = {5.267189608515061, -2.741898348605427, 1};
Point(p10 + 32) = {5.381712104315055, -2.714403929927007, 1};
Point(p10 + 33) = {5.490523563475014, -2.669332747801346, 1};
Point(p10 + 34) = {5.590944686745891, -2.607794604315055, 1};
Point(p10 + 35) = {5.680502772794156, -2.531304772794156, 1};
Point(p10 + 36) = {5.756992604315055, -2.441746686745891, 1};
Point(p10 + 37) = {5.818530747801345, -2.341325563475014, 1};
Point(p10 + 38) = {5.863601929927007, -2.232514104315055, 1};
Point(p10 + 39) = {5.891096348605427, -2.117991608515061, 1};
Spline(10) = {8, p10 + 1, p10 + 2, p10 + 3, p10 + 4, p10 + 5, p10 + 6, p10 + 7, p10 + 8, p10 + 9, p10 + 10, p10 + 11, p10 + 12, p10 + 13, p10 + 14, p10 + 15, p10 + 16, p10 + 17, p10 + 18, p10 + 19, p10 + 20, p10 + 21, p10 + 22, p10 + 23, p10 + 24, p10 + 25, p10 + 26, p10 + 27, p10 + 28, p10 + 29, p10 + 30, p10 + 31, p10 + 32, p10 + 33, p10 + 34, p10 + 35, p10 + 36, p10 + 37, p10 + 38, p10 + 39, 8};
p11 = newp;
Point(p11 + 1) = {27.64475049482916, 1.911302456966554, 1};
Point(p11 + 2) = {27.61562302942345, 2.03262708192429, 1};
Point(p11 + 3) = {27.56787481864966, 2.147901459953403, 1};
Point(p11 + 4) = {27.50268158192429, 2.254287153293089, 1};
Point(p11 + 5) = {27.42164859309945, 2.349164593099453, 1};
Point(p11 + 6) = {27.32677115329309, 2.43019758192429, 1};
Point(p11 + 7) = {27.2203854599534, 2.495390818649663, 1};
Point(p11 + 8) = {27.10511108192429, 2.543139029423445, 1};
Point(p11 + 9) = {26.98378645696656, 2.572266494829158, 1};
Point(p11 + 10) = {26.859399, 2.582056, 1};
Point(p11 + 11) = {26.73501154303344, 2.572266494829158, 1};
Point(p11 + 12) = {26.61368691807571, 2.543139029423445, 1};
Point(p11 + 13) = {26.4984125400466, 2.495390818649663, 1};
Point(p11 + 14) = {26.39202684670691, 2.43019758192429, 1};
Point(p11 + 15) = {26.29714940690055, 2.349164593099453, 1};
Point(p11 + 16) = {26.21611641807571, 2.254287153293089, 1};
Point(p11 + 17) = {26.15092318135034, 2.147901459953403, 1};
Point(p11 + 18) = {26.10317497057655, 2.03262708192429, 1};
Point(p11 + 19) = {26.07404750517084, 1.911302456966554, 1};
Point(p11 + 20) = {26.064258, 1.786915, 1};
Point(p11 + 21) = {26.07404750517084, 1.662527543033446, 1};
Point(p11 + 22) = {26.10317497057655, 1.54120291807571, 1};
Point(p11 + 23) = {26.15092318135034, 1.425928540046598, 1};
Point(p11 + 24) = {26.21611641807571, 1.319542846706911, 1};
Point(p11 + 25) = {26.29714940690055, 1.224665406900547, 1};
Point(p11 + 26) = {26.39202684670691, 1.14363241807571, 1};
Point(p11 + 27) = {26.4984125400466, 1.078439181350337, 1};
Point(p11 + 28) = {26.61368691807571, 1.030690970576555, 1};
Point(p11 + 29) = {26.73501154303344, 1.001563505170842, 1};
Point(p11 + 30) = {26.859399, 0.991774, 1};
Point(p11 + 31) = {26.98378645696656, 1.001563505170842, 1};
Point(p11 + 32) = {27.10511108192429, 1.030690970576555, 1};
Point(p11 + 33) = {27.2203854599534, 1.078439181350337, 1};
Point(p11 + 34) = {27.32677115329309, 1.14363241807571, 1};
Point(p11 + 35) = {27.42164859309945, 1.224665406900547, 1};
Point(p11 + 36) = {27.50268158192429, 1.319542846706911, 1};
Point(p11 + 37) = {27.56787481864966, 1.425928540046597, 1};
Point(p11 + 38) = {27.61562302942345, 1.54120291807571, 1};
Point(p11 + 39) = {27.64475049482916, 1.662527543033446, 1};
Spline(11) = {9, p11 + 1, p11 + 2, p11 + 3, p11 + 4, p11 + 5, p11 + 6, p11 + 7, p11 + 8, p11 + 9, p11 + 10, p11 + 11, p11 + 12, p11 + 13, p11 + 14, p11 + 15, p11 + 16, p11 + 17, p11 + 18, p11 + 19, p11 + 20, p11 + 21, p11 + 22, p11 + 23, p11 + 24, p11 + 25, p11 + 26, p11 + 27, p11 + 28, p11 + 29, p11 + 30, p11 + 31, p11 + 32, p11 + 33, p11 + 34, p11 + 35, p11 + 36, p11 + 37, p11 + 38, p11 + 39, 9};
Line(12) = {4, 10};
Line(13) = {10, 7};
Line(14) = {5, 10};
p15 = newp;
Point(p15 + 1) = {5.891096348605427, -1.883164391484939, 0};
Point(p15 + 2) = {5.863601929927007, -1.768641895684945, 0};
Point(p15 + 3) = {5.818530747801345, -1.659830436524986, 0};
Point(p15 + 4) = {5.756992604315055, -1.559409313254109, 0};
Point(p15 + 5) = {5.680502772794156, -1.469851227205844, 0};
Point(p15 + 6) = {5.590944686745891, -1.393361395684945, 0};
Point(p15 + 7) = {5.490523563475014, -1.331823252198654, 0};
Point(p15 + 8) = {5.381712104315055, -1.286752070072993, 0};
Point(p15 + 9) = {5.267189608515061, -1.259257651394573, 0};
Point(p15 + 10) = {5.149776, -1.250017, 0};
Point(p15 + 11) = {5.03236239148494, -1.259257651394573, 0};
Point(p15 + 12) = {4.917839895684946, -1.286752070072993, 0};
Point(p15 + 13) = {4.809028436524986, -1.331823252198654, 0};
Point(p15 + 14) = {4.70860731325411, -1.393361395684945, 0};
Point(p15 + 15) = {4.619049227205844, -1.469851227205844, 0};
Point(p15 + 16) = {4.542559395684945, -1.559409313254109, 0};
Point(p15 + 17) = {4.481021252198655, -1.659830436524986, 0};
Point(p15 + 18) = {4.435950070072994, -1.768641895684945, 0};
Point(p15 + 19) = {4.408455651394573, -1.883164391484939, 0};
Point(p15 + 20) = {4.399215, -2.000578, 0};
Point(p15 + 21) = {4.408455651394573, -2.117991608515061, 0};
Point(p15 + 22) = {4.435950070072994, -2.232514104315055, 0};
Point(p15 + 23) = {4.481021252198654, -2.341325563475014, 0};
Point(p15 + 24) = {4.542559395684945, -2.441746686745891, 0};
Point(p15 + 25) = {4.619049227205844, -2.531304772794156, 0};
Point(p15 + 26) = {4.70860731325411, -2.607794604315055, 0};
Point(p15 + 27) = {4.809028436524986, -2.669332747801346, 0};
Point(p15 + 28) = {4.917839895684945, -2.714403929927007, 0};
Point(p15 + 29) = {5.03236239148494, -2.741898348605427, 0};
Point(p15 + 30) = {5.149776, -2.751139, 0};
Point(p15 + 31) = {5.267189608515061, -2.741898348605427, 0};
Point(p15 + 32) = {5.381712104315055, -2.714403929927007, 0};
Point(p15 + 33) = {5.490523563475014, -2.669332747801346, 0};
Point(p15 + 34) = {5.590944686745891, -2.607794604315055, 0};
Point(p15 + 35) = {5.680502772794156, -2.531304772794156, 0};
Point(p15 + 36) = {5.756992604315055, -2.441746686745891, 0};
Point(p15 + 37) = {5.818530747801345, -2.341325563475014, 0};
Point(p15 + 38) = {5.863601929927007, -2.232514104315055, 0};
Point(p15 + 39) = {5.891096348605427, -2.117991608515061, 0};
Spline(15) = {11, p15 + 1, p15 + 2, p15 + 3, p15 + 4, p15 + 5, p15 + 6, p15 + 7, p15 + 8, p15 + 9, p15 + 10, p15 + 11, p15 + 12, p15 + 13, p15 + 14, p15 + 15, p15 + 16, p15 + 17, p15 + 18, p15 + 19, p15 + 20, p15 + 21, p15 + 22, p15 + 23, p15 + 24, p15 + 25, p15 + 26, p15 + 27, p15 + 28, p15 + 29, p15 + 30, p15 + 31, p15 + 32, p15 + 33, p15 + 34, p15 + 35, p15 + 36, p15 + 37, p15 + 38, p15 + 39, 11};
p16 = newp;
Point(p16 + 1) = {27.64475049482916, 1.911302456966554, 0};
Point(p16 + 2) = {27.61562302942345, 2.03262708192429, 0};
Point(p16 + 3) = {27.56787481864966, 2.147901459953403, 0};
Point(p16 + 4) = {27.50268158192429, 2.254287153293089, 0};
Point(p16 + 5) = {27.42164859309945, 2.349164593099453, 0};
Point(p16 + 6) = {27.32677115329309, 2.43019758192429, 0};
Point(p16 + 7) = {27.2203854599534, 2.495390818649663, 0};
Point(p16 + 8) = {27.10511108192429, 2.543139029423445, 0};
Point(p16 + 9) = {26.98378645696656, 2.572266494829158, 0};
Point(p16 + 10) = {26.859399, 2.582056, 0};
Point(p16 + 11) = {26.73501154303344, 2.572266494829158, 0};
Point(p16 + 12) = {26.61368691807571, 2.543139029423445, 0};
Point(p16 + 13) = {26.4984125400466, 2.495390818649663, 0};
Point(p16 + 14) = {26.39202684670691, 2.43019758192429, 0};
Point(p16 + 15) = {26.29714940690055, 2.349164593099453, 0};
Point(p16 + 16) = {26.21611641807571, 2.254287153293089, 0};
Point(p16 + 17) = {26.15092318135034, 2.147901459953403, 0};
Point(p16 + 18) = {26.10317497057655, 2.03262708192429, 0};
Point(p16 + 19) = {26.07404750517084, 1.911302456966554, 0};
Point(p16 + 20) = {26.064258, 1.786915, 0};
Point(p16 + 21) = {26.07404750517084, 1.662527543033446, 0};
Point(p16 + 22) = {26.10317497057655, 1.54120291807571, 0};
Point(p16 + 23) = {26.15092318135034, 1.425928540046598, 0};
Point(p16 + 24) = {26.21611641807571, 1.319542846706911, 0};
Point(p16 + 25) = {26.29714940690055, 1.224665406900547, 0};
Point(p16 + 26) = {26.39202684670691, 1.14363241807571, 0};
Point(p16 + 27) = {26.4984125400466, 1.078439181350337, 0};
Point(p16 + 28) = {26.61368691807571, 1.030690970576555, 0};
Point(p16 + 29) = {26.73501154303344, 1.001563505170842, 0};
Point(p16 + 30) = {26.859399, 0.991774, 0};
Point(p16 + 31) = {26.98378645696656, 1.001563505170842, 0};
Point(p16 + 32) = {27.10511108192429, 1.030690970576555, 0};
Point(p16 + 33) = {27.2203854599534, 1.078439181350337, 0};
Point(p16 + 34) = {27.32677115329309, 1.14363241807571, 0};
Point(p16 + 35) = {27.42164859309945, 1.224665406900547, 0};
Point(p16 + 36) = {27.50268158192429, 1.319542846706911, 0};
Point(p16 + 37) = {27.56787481864966, 1.425928540046597, 0};
Point(p16 + 38) = {27.61562302942345, 1.54120291807571, 0};
Point(p16 + 39) = {27.64475049482916, 1.662527543033446, 0};
Spline(16) = {12, p16 + 1, p16 + 2, p16 + 3, p16 + 4, p16 + 5, p16 + 6, p16 + 7, p16 + 8, p16 + 9, p16 + 10, p16 + 11, p16 + 12, p16 + 13, p16 + 14, p16 + 15, p16 + 16, p16 + 17, p16 + 18, p16 + 19, p16 + 20, p16 + 21, p16 + 22, p16 + 23, p16 + 24, p16 + 25, p16 + 26, p16 + 27, p16 + 28, p16 + 29, p16 + 30, p16 + 31, p16 + 32, p16 + 33, p16 + 34, p16 + 35, p16 + 36, p16 + 37, p16 + 38, p16 + 39, 12};
Line(17) = {11, 8};
Line(18) = {12, 9};
Curve Loop(1) = {-1, 4, 3, -2};
Plane Surface(1) = {1};
Curve Loop(2) = {-5, 1, 7, -6};
Plane Surface(2) = {2};
Curve Loop(3) = {-2, 7, 9, -8, -10, -11};
Plane Surface(3) = {3};
Curve Loop(4) = {-12, 3, 8, -13};
Plane Surface(4) = {4};
Curve Loop(5) = {-4, 5, 14, -12, -15, -16};
Plane Surface(5) = {5};
Curve Loop(6) = {-6, 14, 13, -9};
Plane Surface(6) = {6};
Curve Loop(7) = {-10, -17, 15, 17};
Surface(7) = {7};
Curve Loop(8) = {-11, -18, 16, 18};
Surface(8) = {8};
Surface Loop(1) = {1, 2, 3, 4, 5, 6, 7, 8};
Volume(1) = {1};
Physical Surface("INFLOW") = {1};
Physical Surface("OUTFLOW") = {6};
Physical Surface("OBSTACLE") = {7, 8};
Physical Surface("WALL_Y") = {2, 4};
Physical Surface("WALL_Z") = {3, 5};
Physical Volume("FLUID") = {1};
