cl__1 = 3.48465;
cl__2 = 0.5941419999999999;
cl__3 = 0.26135;
cl__4 = 0.112506;
Point(1) = {0.706956, -3.906244, 1, cl__1};
Point(2) = {0.706956, -3.906244, 0, cl__1};
Point(3) = {0.706956, 5.312218000000001, 1, cl__1};
Point(4) = {0.706956, 5.312218000000001, 0, cl__1};
Point(5) = {34.540313, -3.906244, 0, cl__2};
Point(6) = {34.540313, -3.906244, 1, cl__2};
Point(7) = {34.540313, 5.312218000000001, 1, cl__3};
Point(8) = {33.037235, 2.653332, 1, cl__4};
Point(9) = {34.540313, 5.312218000000001, 0, cl__3};
Point(10) = {33.037235, 2.653332, 0, cl__4};
Line(1) = {2, 1};
Line(2) = {1, 3};
Line(3) = {4, 3};
Line(4) = {2, 4};
Line(5) = {2, 5};
Line(6) = {5, 6};
Line(7) = {1, 6};
Line(8) = {3, 7};
Line(9) = {6, 7};
p10 = newp;
Point(p10 + 1) = {33.02338366909328, 2.829329846369232, 1};
Point(p10 + 2) = {32.98217074210999, 3.000994041657489, 1};
Point(p10 + 3) = {32.91461101809032, 3.164097643655975, 1};
Point(p10 + 4) = {32.82236804165749, 3.314624500373665, 1};
Point(p10 + 5) = {32.70771314102817, 3.448868141028175, 1};
Point(p10 + 6) = {32.57346950037366, 3.563523041657489, 1};
Point(p10 + 7) = {32.42294264365597, 3.655766018090317, 1};
Point(p10 + 8) = {32.25983904165749, 3.723325742109993, 1};
Point(p10 + 9) = {32.08817484636923, 3.764538669093284, 1};
Point(p10 + 10) = {31.912177, 3.77839, 1};
Point(p10 + 11) = {31.73617915363077, 3.764538669093284, 1};
Point(p10 + 12) = {31.56451495834251, 3.723325742109993, 1};
Point(p10 + 13) = {31.40141135634402, 3.655766018090317, 1};
Point(p10 + 14) = {31.25088449962633, 3.563523041657489, 1};
Point(p10 + 15) = {31.11664085897182, 3.448868141028175, 1};
Point(p10 + 16) = {31.00198595834251, 3.314624500373665, 1};
Point(p10 + 17) = {30.90974298190968, 3.164097643655975, 1};
Point(p10 + 18) = {30.84218325789001, 3.000994041657489, 1};
Point(p10 + 19) = {30.80097033090671, 2.829329846369232, 1};
Point(p10 + 20) = {30.787119, 2.653332, 1};
Point(p10 + 21) = {30.80097033090671, 2.477334153630768, 1};
Point(p10 + 22) = {30.84218325789001, 2.30566995834251, 1};
Point(p10 + 23) = {30.90974298190968, 2.142566356344025, 1};
Point(p10 + 24) = {31.00198595834251, 1.992039499626335, 1};
Point(p10 + 25) = {31.11664085897182, 1.857795858971825, 1};
Point(p10 + 26) = {31.25088449962633, 1.74314095834251, 1};
Point(p10 + 27) = {31.40141135634402, 1.650897981909683, 1};
Point(p10 + 28) = {31.56451495834251, 1.583338257890007, 1};
Point(p10 + 29) = {31.73617915363077, 1.542125330906716, 1};
Point(p10 + 30) = {31.912177, 1.528274, 1};
Point(p10 + 31) = {32.08817484636923, 1.542125330906715, 1};
Point(p10 + 32) = {32.25983904165749, 1.583338257890007, 1};
Point(p10 + 33) = {32.42294264365597, 1.650897981909683, 1};
Point(p10 + 34) = {32.57346950037366, 1.74314095834251, 1};
Point(p10 + 35) = {32.70771314102817, 1.857795858971825, 1};
Point(p10 + 36) = {32.82236804165749, 1.992039499626334, 1};
Point(p10 + 37) = {32.91461101809032, 2.142566356344024, 1};
Point(p10 + 38) = {32.98217074210999, 2.30566995834251, 1};
Point(p10 + 39) = {33.02338366909328, 2.477334153630768, 1};
Spline(10) = {8, p10 + 1, p10 + 2, p10 + 3, p10 + 4, p10 + 5, p10 + 6, p10 + 7, p10 + 8, p10 + 9, p10 + 10, p10 + 11, p10 + 12, p10 + 13, p10 + 14, p10 + 15, p10 + 16, p10 + 17, p10 + 18, p10 + 19, p10 + 20, p10 + 21, p10 + 22, p10 + 23, p10 + 24, p10 + 25, p10 + 26, p10 + 27, p10 + 28, p10 + 29, p10 + 30, p10 + 31, p10 + 32, p10 + 33, p10 + 34, p10 + 35, p10 + 36, p10 + 37, p10 + 38, p10 + 39, 8};
Line(11) = {4, 9};
Line(12) = {9, 7};
Line(13) = {5, 9};
p14 = newp;
Point(p14 + 1) = {33.02338366909328, 2.829329846369232, 0};
Point(p14 + 2) = {32.98217074210999, 3.000994041657489, 0};
Point(p14 + 3) = {32.91461101809032, 3.164097643655975, 0};
Point(p14 + 4) = {32.82236804165749, 3.314624500373665, 0};
Point(p14 + 5) = {32.70771314102817, 3.448868141028175, 0};
Point(p14 + 6) = {32.57346950037366, 3.563523041657489, 0};
Point(p14 + 7) = {32.42294264365597, 3.655766018090317, 0};
Point(p14 + 8) = {32.25983904165749, 3.723325742109993, 0};
Point(p14 + 9) = {32.08817484636923, 3.764538669093284, 0};
Point(p14 + 10) = {31.912177, 3.77839, 0};
Point(p14 + 11) = {31.73617915363077, 3.764538669093284, 0};
Point(p14 + 12) = {31.56451495834251, 3.723325742109993, 0};
Point(p14 + 13) = {31.40141135634402, 3.655766018090317, 0};
Point(p14 + 14) = {31.25088449962633, 3.563523041657489, 0};
Point(p14 + 15) = {31.11664085897182, 3.448868141028175, 0};
Point(p14 + 16) = {31.00198595834251, 3.314624500373665, 0};
Point(p14 + 17) = {30.90974298190968, 3.164097643655975, 0};
Point(p14 + 18) = {30.84218325789001, 3.000994041657489, 0};
Point(p14 + 19) = {30.80097033090671, 2.829329846369232, 0};
Point(p14 + 20) = {30.787119, 2.653332, 0};
Point(p14 + 21) = {30.80097033090671, 2.477334153630768, 0};
Point(p14 + 22) = {30.84218325789001, 2.30566995834251, 0};
Point(p14 + 23) = {30.90974298190968, 2.142566356344025, 0};
Point(p14 + 24) = {31.00198595834251, 1.992039499626335, 0};
Point(p14 + 25) = {31.11664085897182, 1.857795858971825, 0};
Point(p14 + 26) = {31.25088449962633, 1.74314095834251, 0};
Point(p14 + 27) = {31.40141135634402, 1.650897981909683, 0};
Point(p14 + 28) = {31.56451495834251, 1.583338257890007, 0};
Point(p14 + 29) = {31.73617915363077, 1.542125330906716, 0};
Point(p14 + 30) = {31.912177, 1.528274, 0};
Point(p14 + 31) = {32.08817484636923, 1.542125330906715, 0};
Point(p14 + 32) = {32.25983904165749, 1.583338257890007, 0};
Point(p14 + 33) = {32.42294264365597, 1.650897981909683, 0};
Point(p14 + 34) = {32.57346950037366, 1.74314095834251, 0};
Point(p14 + 35) = {32.70771314102817, 1.857795858971825, 0};
Point(p14 + 36) = {32.82236804165749, 1.992039499626334, 0};
Point(p14 + 37) = {32.91461101809032, 2.142566356344024, 0};
Point(p14 + 38) = {32.98217074210999, 2.30566995834251, 0};
Point(p14 + 39) = {33.02338366909328, 2.477334153630768, 0};
Spline(14) = {10, p14 + 1, p14 + 2, p14 + 3, p14 + 4, p14 + 5, p14 + 6, p14 + 7, p14 + 8, p14 + 9, p14 + 10, p14 + 11, p14 + 12, p14 + 13, p14 + 14, p14 + 15, p14 + 16, p14 + 17, p14 + 18, p14 + 19, p14 + 20, p14 + 21, p14 + 22, p14 + 23, p14 + 24, p14 + 25, p14 + 26, p14 + 27, p14 + 28, p14 + 29, p14 + 30, p14 + 31, p14 + 32, p14 + 33, p14 + 34, p14 + 35, p14 + 36, p14 + 37, p14 + 38, p14 + 39, 10};
Line(15) = {10, 8};
Curve Loop(1) = {-1, 4, 3, -2};
Plane Surface(1) = {1};
Curve Loop(2) = {-5, 1, 7, -6};
Plane Surface(2) = {2};
Curve Loop(3) = {-2, 7, 9, -8, -10};
Plane Surface(3) = {3};
Curve Loop(4) = {-11, 3, 8, -12};
Plane Surface(4) = {4};
Curve Loop(5) = {-4, 5, 13, -11, -14};
Plane Surface(5) = {5};
Curve Loop(6) = {-6, 13, 12, -9};
Plane Surface(6) = {6};
Curve Loop(7) = {-10, -15, 14, 15};
Surface(7) = {7};
Surface Loop(1) = {1, 2, 3, 4, 5, 6, 7};
Volume(1) = {1};
Physical Surface("INFLOW") = {1};
Physical Surface("OUTFLOW") = {6};
Physical Surface("OBSTACLE") = {7};
Physical Surface("WALL_Y") = {2, 4};
Physical Surface("WALL_Z") = {3, 5};
Physical Volume("FLUID") = {1};
