cl__1 = 3.493941;
cl__2 = 0.69878;
cl__3 = 0.441663;
cl__4 = 0.055481;
cl__5 = 0.058096;
Point(1) = {0.789859, -4.171332, 1, cl__1};
Point(2) = {0.789859, -4.171332, 0, cl__1};
Point(3) = {0.789859, 4.912174, 1, cl__1};
Point(4) = {0.789859, 4.912174, 0, cl__1};
Point(5) = {34.642958, -4.171332, 0, cl__2};
Point(6) = {34.642958, -4.171332, 1, cl__2};
Point(7) = {34.642958, 4.912174, 1, cl__3};
Point(8) = {31.069966, 2.141534, 1, cl__4};
Point(9) = {28.104053, 2.613251, 1, cl__5};
Point(10) = {34.642958, 4.912174, 0, cl__3};
Point(11) = {31.069966, 2.141534, 0, cl__4};
Point(12) = {28.104053, 2.613251, 0, cl__5};
Line(1) = {2, 1};
Line(2) = {1, 3};
Line(3) = {4, 3};
Line(4) = {2, 4};
Line(5) = {2, 5};
Line(6) = {5, 6};
Line(7) = {1, 6};
Line(8) = {3, 7};
Line(9) = {6, 7};
p10 = newp;
Point(p10 + 1) = {31.06313534362227, 2.228325718417901, 1};
Point(p10 + 2) = {31.04281156791875, 2.312980336683153, 1};
Point(p10 + 3) = {31.00949511169799, 2.393413377141497, 1};
Point(p10 + 4) = {30.96400633668315, 2.467644311394892, 1};
Point(p10 + 5) = {30.90746532748367, 2.533845327483671, 1};
Point(p10 + 6) = {30.84126431139489, 2.590386336683153, 1};
Point(p10 + 7) = {30.7670333771415, 2.635875111697997, 1};
Point(p10 + 8) = {30.68660033668315, 2.669191567918747, 1};
Point(p10 + 9) = {30.6019457184179, 2.689515343622269, 1};
Point(p10 + 10) = {30.515154, 2.696346, 1};
Point(p10 + 11) = {30.4283622815821, 2.689515343622269, 1};
Point(p10 + 12) = {30.34370766331685, 2.669191567918747, 1};
Point(p10 + 13) = {30.2632746228585, 2.635875111697997, 1};
Point(p10 + 14) = {30.18904368860511, 2.590386336683153, 1};
Point(p10 + 15) = {30.12284267251633, 2.533845327483671, 1};
Point(p10 + 16) = {30.06630166331685, 2.467644311394892, 1};
Point(p10 + 17) = {30.020812888302, 2.393413377141497, 1};
Point(p10 + 18) = {29.98749643208125, 2.312980336683153, 1};
Point(p10 + 19) = {29.96717265637773, 2.228325718417901, 1};
Point(p10 + 20) = {29.960342, 2.141534, 1};
Point(p10 + 21) = {29.96717265637773, 2.054742281582099, 1};
Point(p10 + 22) = {29.98749643208125, 1.970087663316846, 1};
Point(p10 + 23) = {30.020812888302, 1.889654622858503, 1};
Point(p10 + 24) = {30.06630166331685, 1.815423688605108, 1};
Point(p10 + 25) = {30.12284267251633, 1.749222672516329, 1};
Point(p10 + 26) = {30.18904368860511, 1.692681663316847, 1};
Point(p10 + 27) = {30.2632746228585, 1.647192888302003, 1};
Point(p10 + 28) = {30.34370766331685, 1.613876432081253, 1};
Point(p10 + 29) = {30.4283622815821, 1.593552656377731, 1};
Point(p10 + 30) = {30.515154, 1.586722, 1};
Point(p10 + 31) = {30.6019457184179, 1.59355265637773, 1};
Point(p10 + 32) = {30.68660033668315, 1.613876432081253, 1};
Point(p10 + 33) = {30.76703337714149, 1.647192888302003, 1};
Point(p10 + 34) = {30.84126431139489, 1.692681663316847, 1};
Point(p10 + 35) = {30.90746532748367, 1.749222672516329, 1};
Point(p10 + 36) = {30.96400633668315, 1.815423688605108, 1};
Point(p10 + 37) = {31.00949511169799, 1.889654622858502, 1};
Point(p10 + 38) = {31.04281156791875, 1.970087663316847, 1};
Point(p10 + 39) = {31.06313534362227, 2.054742281582099, 1};
Spline(10) = {8, p10 + 1, p10 + 2, p10 + 3, p10 + 4, p10 + 5, p10 + 6, p10 + 7, p10 + 8, p10 + 9, p10 + 10, p10 + 11, p10 + 12, p10 + 13, p10 + 14, p10 + 15, p10 + 16, p10 + 17, p10 + 18, p10 + 19, p10 + 20, p10 + 21, p10 + 22, p10 + 23, p10 + 24, p10 + 25, p10 + 26, p10 + 27, p10 + 28, p10 + 29, p10 + 30, p10 + 31, p10 + 32, p10 + 33, p10 + 34, p10 + 35, p10 + 36, p10 + 37, p10 + 38, p10 + 39, 8};
p11 = newp;
Point(p11 + 1) = {28.09690043066381, 2.704133010375307, 1};
Point(p11 + 2) = {28.07561884265032, 2.792777204035075, 1};
Point(p11 + 3) = {28.04073225928595, 2.877000866738187, 1};
Point(p11 + 4) = {27.99309970403507, 2.954730132386583, 1};
Point(p11 + 5) = {27.93389404849136, 3.024051048491355, 1};
Point(p11 + 6) = {27.86457313238658, 3.083256704035075, 1};
Point(p11 + 7) = {27.78684386673819, 3.13088925928595, 1};
Point(p11 + 8) = {27.70262020403507, 3.165775842650316, 1};
Point(p11 + 9) = {27.61397601037531, 3.187057430663811, 1};
Point(p11 + 10) = {27.523094, 3.19421, 1};
Point(p11 + 11) = {27.43221198962469, 3.187057430663811, 1};
Point(p11 + 12) = {27.34356779596493, 3.165775842650316, 1};
Point(p11 + 13) = {27.25934413326181, 3.13088925928595, 1};
Point(p11 + 14) = {27.18161486761342, 3.083256704035075, 1};
Point(p11 + 15) = {27.11229395150864, 3.024051048491355, 1};
Point(p11 + 16) = {27.05308829596493, 2.954730132386583, 1};
Point(p11 + 17) = {27.00545574071405, 2.877000866738187, 1};
Point(p11 + 18) = {26.97056915734968, 2.792777204035075, 1};
Point(p11 + 19) = {26.94928756933619, 2.704133010375307, 1};
Point(p11 + 20) = {26.942135, 2.613251, 1};
Point(p11 + 21) = {26.94928756933619, 2.522368989624693, 1};
Point(p11 + 22) = {26.97056915734968, 2.433724795964925, 1};
Point(p11 + 23) = {27.00545574071405, 2.349501133261813, 1};
Point(p11 + 24) = {27.05308829596493, 2.271771867613417, 1};
Point(p11 + 25) = {27.11229395150864, 2.202450951508645, 1};
Point(p11 + 26) = {27.18161486761342, 2.143245295964925, 1};
Point(p11 + 27) = {27.25934413326181, 2.09561274071405, 1};
Point(p11 + 28) = {27.34356779596493, 2.060726157349684, 1};
Point(p11 + 29) = {27.43221198962469, 2.039444569336189, 1};
Point(p11 + 30) = {27.523094, 2.032292, 1};
Point(p11 + 31) = {27.61397601037531, 2.039444569336189, 1};
Point(p11 + 32) = {27.70262020403507, 2.060726157349684, 1};
Point(p11 + 33) = {27.78684386673819, 2.09561274071405, 1};
Point(p11 + 34) = {27.86457313238658, 2.143245295964925, 1};
Point(p11 + 35) = {27.93389404849136, 2.202450951508645, 1};
Point(p11 + 36) = {27.99309970403507, 2.271771867613417, 1};
Point(p11 + 37) = {28.04073225928595, 2.349501133261812, 1};
Point(p11 + 38) = {28.07561884265032, 2.433724795964925, 1};
Point(p11 + 39) = {28.09690043066381, 2.522368989624693, 1};
Spline(11) = {9, p11 + 1, p11 + 2, p11 + 3, p11 + 4, p11 + 5, p11 + 6, p11 + 7, p11 + 8, p11 + 9, p11 + 10, p11 + 11, p11 + 12, p11 + 13, p11 + 14, p11 + 15, p11 + 16, p11 + 17, p11 + 18, p11 + 19, p11 + 20, p11 + 21, p11 + 22, p11 + 23, p11 + 24, p11 + 25, p11 + 26, p11 + 27, p11 + 28, p11 + 29, p11 + 30, p11 + 31, p11 + 32, p11 + 33, p11 + 34, p11 + 35, p11 + 36, p11 + 37, p11 + 38, p11 + 39, 9};
Line(12) = {4, 10};
Line(13) = {10, 7};
Line(14) = {5, 10};
p15 = newp;
Point(p15 + 1) = {31.06313534362227, 2.228325718417901, 0};
Point(p15 + 2) = {31.04281156791875, 2.312980336683153, 0};
Point(p15 + 3) = {31.00949511169799, 2.393413377141497, 0};
Point(p15 + 4) = {30.96400633668315, 2.467644311394892, 0};
Point(p15 + 5) = {30.90746532748367, 2.533845327483671, 0};
Point(p15 + 6) = {30.84126431139489, 2.590386336683153, 0};
Point(p15 + 7) = {30.7670333771415, 2.635875111697997, 0};
Point(p15 + 8) = {30.68660033668315, 2.669191567918747, 0};
Point(p15 + 9) = {30.6019457184179, 2.689515343622269, 0};
Point(p15 + 10) = {30.515154, 2.696346, 0};
Point(p15 + 11) = {30.4283622815821, 2.689515343622269, 0};
Point(p15 + 12) = {30.34370766331685, 2.669191567918747, 0};
Point(p15 + 13) = {30.2632746228585, 2.635875111697997, 0};
Point(p15 + 14) = {30.18904368860511, 2.590386336683153, 0};
Point(p15 + 15) = {30.12284267251633, 2.533845327483671, 0};
Point(p15 + 16) = {30.06630166331685, 2.467644311394892, 0};
Point(p15 + 17) = {30.020812888302, 2.393413377141497, 0};
Point(p15 + 18) = {29.98749643208125, 2.312980336683153, 0};
Point(p15 + 19) = {29.96717265637773, 2.228325718417901, 0};
Point(p15 + 20) = {29.960342, 2.141534, 0};
Point(p15 + 21) = {29.96717265637773, 2.054742281582099, 0};
Point(p15 + 22) = {29.98749643208125, 1.970087663316846, 0};
Point(p15 + 23) = {30.020812888302, 1.889654622858503, 0};
Point(p15 + 24) = {30.06630166331685, 1.815423688605108, 0};
Point(p15 + 25) = {30.12284267251633, 1.749222672516329, 0};
Point(p15 + 26) = {30.18904368860511, 1.692681663316847, 0};
Point(p15 + 27) = {30.2632746228585, 1.647192888302003, 0};
Point(p15 + 28) = {30.34370766331685, 1.613876432081253, 0};
Point(p15 + 29) = {30.4283622815821, 1.593552656377731, 0};
Point(p15 + 30) = {30.515154, 1.586722, 0};
Point(p15 + 31) = {30.6019457184179, 1.59355265637773, 0};
Point(p15 + 32) = {30.68660033668315, 1.613876432081253, 0};
Point(p15 + 33) = {30.76703337714149, 1.647192888302003, 0};
Point(p15 + 34) = {30.84126431139489, 1.692681663316847, 0};
Point(p15 + 35) = {30.90746532748367, 1.749222672516329, 0};
Point(p15 + 36) = {30.96400633668315, 1.815423688605108, 0};
Point(p15 + 37) = {31.00949511169799, 1.889654622858502, 0};
Point(p15 + 38) = {31.04281156791875, 1.970087663316847, 0};
Point(p15 + 39) = {31.06313534362227, 2.054742281582099, 0};
Spline(15) = {11, p15 + 1, p15 + 2, p15 + 3, p15 + 4, p15 + 5, p15 + 6, p15 + 7, p15 + 8, p15 + 9, p15 + 10, p15 + 11, p15 + 12, p15 + 13, p15 + 14, p15 + 15, p15 + 16, p15 + 17, p15 + 18, p15 + 19, p15 + 20, p15 + 21, p15 + 22, p15 + 23, p15 + 24, p15 + 25, p15 + 26, p15 + 27, p15 + 28, p15 + 29, p15 + 30, p15 + 31, p15 + 32, p15 + 33, p15 + 34, p15 + 35, p15 + 36, p15 + 37, p15 + 38, p15 + 39, 11};
p16 = newp;
Point(p16 + 1) = {28.09690043066381, 2.704133010375307, 0};
Point(p16 + 2) = {28.07561884265032, 2.792777204035075, 0};
Point(p16 + 3) = {28.04073225928595, 2.877000866738187, 0};
Point(p16 + 4) = {27.99309970403507, 2.954730132386583, 0};
Point(p16 + 5) = {27.93389404849136, 3.024051048491355, 0};
Point(p16 + 6) = {27.86457313238658, 3.083256704035075, 0};
Point(p16 + 7) = {27.78684386673819, 3.13088925928595, 0};
Point(p16 + 8) = {27.70262020403507, 3.165775842650316, 0};
Point(p16 + 9) = {27.61397601037531, 3.187057430663811, 0};
Point(p16 + 10) = {27.523094, 3.19421, 0};
Point(p16 + 11) = {27.43221198962469, 3.187057430663811, 0};
Point(p16 + 12) = {27.34356779596493, 3.165775842650316, 0};
Point(p16 + 13) = {27.25934413326181, 3.13088925928595, 0};
Point(p16 + 14) = {27.18161486761342, 3.083256704035075, 0};
Point(p16 + 15) = {27.11229395150864, 3.024051048491355, 0};
Point(p16 + 16) = {27.05308829596493, 2.954730132386583, 0};
Point(p16 + 17) = {27.00545574071405, 2.877000866738187, 0};
Point(p16 + 18) = {26.97056915734968, 2.792777204035075, 0};
Point(p16 + 19) = {26.94928756933619, 2.704133010375307, 0};
Point(p16 + 20) = {26.942135, 2.613251, 0};
Point(p16 + 21) = {26.94928756933619, 2.522368989624693, 0};
Point(p16 + 22) = {26.97056915734968, 2.433724795964925, 0};
Point(p16 + 23) = {27.00545574071405, 2.349501133261813, 0};
Point(p16 + 24) = {27.05308829596493, 2.271771867613417, 0};
Point(p16 + 25) = {27.11229395150864, 2.202450951508645, 0};
Point(p16 + 26) = {27.18161486761342, 2.143245295964925, 0};
Point(p16 + 27) = {27.25934413326181, 2.09561274071405, 0};
Point(p16 + 28) = {27.34356779596493, 2.060726157349684, 0};
Point(p16 + 29) = {27.43221198962469, 2.039444569336189, 0};
Point(p16 + 30) = {27.523094, 2.032292, 0};
Point(p16 + 31) = {27.61397601037531, 2.039444569336189, 0};
Point(p16 + 32) = {27.70262020403507, 2.060726157349684, 0};
Point(p16 + 33) = {27.78684386673819, 2.09561274071405, 0};
Point(p16 + 34) = {27.86457313238658, 2.143245295964925, 0};
Point(p16 + 35) = {27.93389404849136, 2.202450951508645, 0};
Point(p16 + 36) = {27.99309970403507, 2.271771867613417, 0};
Point(p16 + 37) = {28.04073225928595, 2.349501133261812, 0};
Point(p16 + 38) = {28.07561884265032, 2.433724795964925, 0};
Point(p16 + 39) = {28.09690043066381, 2.522368989624693, 0};
Spline(16) = {12, p16 + 1, p16 + 2, p16 + 3, p16 + 4, p16 + 5, p16 + 6, p16 + 7, p16 + 8, p16 + 9, p16 + 10, p16 + 11, p16 + 12, p16 + 13, p16 + 14, p16 + 15, p16 + 16, p16 + 17, p16 + 18, p16 + 19, p16 + 20, p16 + 21, p16 + 22, p16 + 23, p16 + 24, p16 + 25, p16 + 26, p16 + 27, p16 + 28, p16 + 29, p16 + 30, p16 + 31, p16 + 32, p16 + 33, p16 + 34, p16 + 35, p16 + 36, p16 + 37, p16 + 38, p16 + 39, 12};
Line(17) = {11, 8};
Line(18) = {12, 9};
Curve Loop(1) = {-1, 4, 3, -2};
Plane Surface(1) = {1};
Curve Loop(2) = {-5, 1, 7, -6};
Plane Surface(2) = {2};
Curve Loop(3) = {-2, 7, 9, -8, -10, -11};
Plane Surface(3) = {3};
Curve Loop(4) = {-12, 3, 8, -13};
Plane Surface(4) = {4};
Curve Loop(5) = {-4, 5, 14, -12, -15, -16};
Plane Surface(5) = {5};
Curve Loop(6) = {-6, 14, 13, -9};
Plane Surface(6) = {6};
Curve Loop(7) = {-10, -17, 15, 17};
Surface(7) = {7};
Curve Loop(8) = {-11, -18, 16, 18};
Surface(8) = {8};
Surface Loop(1) = {1, 2, 3, 4, 5, 6, 7, 8};
Volume(1) = {1};
Physical Surface("INFLOW") = {1};
Physical Surface("OUTFLOW") = {6};
Physical Surface("OBSTACLE") = {7, 8};
Physical Surface("WALL_Y") = {2, 4};
Physical Surface("WALL_Z") = {3, 5};
Physical Volume("FLUID") = {1};
