cl__1 = 1.015715;
cl__2 = 0.805488;
cl__3 = 3.724357;
cl__4 = 0.054365;
Point(1) = {0.321777, -4.276095, 1, cl__1};
Point(2) = {0.321777, -4.276095, 0, cl__1};
Point(3) = {0.321777, 4.653399, 1, cl__2};
Point(4) = {0.321777, 4.653399, 0, cl__2};
Point(5) = {36.974984, -4.276095, 0, cl__3};
Point(6) = {36.974984, -4.276095, 1, cl__3};
Point(7) = {36.974984, 4.653399, 1, cl__3};
Point(8) = {9.179615, 2.460473, 1, cl__4};
Point(9) = {36.974984, 4.653399, 0, cl__3};
Point(10) = {9.179615, 2.460473, 0, cl__4};
Line(1) = {2, 1};
Line(2) = {1, 3};
Line(3) = {4, 3};
Line(4) = {2, 4};
Line(5) = {2, 5};
Line(6) = {5, 6};
Line(7) = {1, 6};
Line(8) = {3, 7};
Line(9) = {6, 7};
p10 = newp;
Point(p10 + 1) = {9.172921803299525, 2.545518127615726, 1};
Point(p10 + 2) = {9.153007021914311, 2.628469161940957, 1};
Point(p10 + 3) = {9.120361023855434, 2.707283573211905, 1};
Point(p10 + 4) = {9.075787661940957, 2.780020689053046, 1};
Point(p10 + 5) = {9.020384480271723, 2.844889480271723, 1};
Point(p10 + 6) = {8.955515689053046, 2.900292661940957, 1};
Point(p10 + 7) = {8.882778573211905, 2.944866023855433, 1};
Point(p10 + 8) = {8.803964161940957, 2.977512021914311, 1};
Point(p10 + 9) = {8.721013127615727, 2.997426803299525, 1};
Point(p10 + 10) = {8.635968, 3.00412, 1};
Point(p10 + 11) = {8.550922872384273, 2.997426803299525, 1};
Point(p10 + 12) = {8.467971838059043, 2.977512021914311, 1};
Point(p10 + 13) = {8.389157426788096, 2.944866023855433, 1};
Point(p10 + 14) = {8.316420310946954, 2.900292661940957, 1};
Point(p10 + 15) = {8.251551519728277, 2.844889480271723, 1};
Point(p10 + 16) = {8.196148338059043, 2.780020689053046, 1};
Point(p10 + 17) = {8.151574976144566, 2.707283573211905, 1};
Point(p10 + 18) = {8.118928978085689, 2.628469161940957, 1};
Point(p10 + 19) = {8.099014196700475, 2.545518127615726, 1};
Point(p10 + 20) = {8.092321, 2.460473, 1};
Point(p10 + 21) = {8.099014196700475, 2.375427872384273, 1};
Point(p10 + 22) = {8.118928978085689, 2.292476838059043, 1};
Point(p10 + 23) = {8.151574976144566, 2.213662426788095, 1};
Point(p10 + 24) = {8.196148338059043, 2.140925310946954, 1};
Point(p10 + 25) = {8.251551519728277, 2.076056519728277, 1};
Point(p10 + 26) = {8.316420310946954, 2.020653338059043, 1};
Point(p10 + 27) = {8.389157426788096, 1.976079976144566, 1};
Point(p10 + 28) = {8.467971838059043, 1.943433978085689, 1};
Point(p10 + 29) = {8.550922872384273, 1.923519196700475, 1};
Point(p10 + 30) = {8.635968, 1.916826, 1};
Point(p10 + 31) = {8.721013127615727, 1.923519196700475, 1};
Point(p10 + 32) = {8.803964161940957, 1.943433978085689, 1};
Point(p10 + 33) = {8.882778573211905, 1.976079976144566, 1};
Point(p10 + 34) = {8.955515689053046, 2.020653338059043, 1};
Point(p10 + 35) = {9.020384480271723, 2.076056519728277, 1};
Point(p10 + 36) = {9.075787661940957, 2.140925310946954, 1};
Point(p10 + 37) = {9.120361023855434, 2.213662426788094, 1};
Point(p10 + 38) = {9.153007021914311, 2.292476838059043, 1};
Point(p10 + 39) = {9.172921803299525, 2.375427872384273, 1};
Spline(10) = {8, p10 + 1, p10 + 2, p10 + 3, p10 + 4, p10 + 5, p10 + 6, p10 + 7, p10 + 8, p10 + 9, p10 + 10, p10 + 11, p10 + 12, p10 + 13, p10 + 14, p10 + 15, p10 + 16, p10 + 17, p10 + 18, p10 + 19, p10 + 20, p10 + 21, p10 + 22, p10 + 23, p10 + 24, p10 + 25, p10 + 26, p10 + 27, p10 + 28, p10 + 29, p10 + 30, p10 + 31, p10 + 32, p10 + 33, p10 + 34, p10 + 35, p10 + 36, p10 + 37, p10 + 38, p10 + 39, 8};
Line(11) = {4, 9};
Line(12) = {9, 7};
Line(13) = {5, 9};
p14 = newp;
Point(p14 + 1) = {9.172921803299525, 2.545518127615726, 0};
Point(p14 + 2) = {9.153007021914311, 2.628469161940957, 0};
Point(p14 + 3) = {9.120361023855434, 2.707283573211905, 0};
Point(p14 + 4) = {9.075787661940957, 2.780020689053046, 0};
Point(p14 + 5) = {9.020384480271723, 2.844889480271723, 0};
Point(p14 + 6) = {8.955515689053046, 2.900292661940957, 0};
Point(p14 + 7) = {8.882778573211905, 2.944866023855433, 0};
Point(p14 + 8) = {8.803964161940957, 2.977512021914311, 0};
Point(p14 + 9) = {8.721013127615727, 2.997426803299525, 0};
Point(p14 + 10) = {8.635968, 3.00412, 0};
Point(p14 + 11) = {8.550922872384273, 2.997426803299525, 0};
Point(p14 + 12) = {8.467971838059043, 2.977512021914311, 0};
Point(p14 + 13) = {8.389157426788096, 2.944866023855433, 0};
Point(p14 + 14) = {8.316420310946954, 2.900292661940957, 0};
Point(p14 + 15) = {8.251551519728277, 2.844889480271723, 0};
Point(p14 + 16) = {8.196148338059043, 2.780020689053046, 0};
Point(p14 + 17) = {8.151574976144566, 2.707283573211905, 0};
Point(p14 + 18) = {8.118928978085689, 2.628469161940957, 0};
Point(p14 + 19) = {8.099014196700475, 2.545518127615726, 0};
Point(p14 + 20) = {8.092321, 2.460473, 0};
Point(p14 + 21) = {8.099014196700475, 2.375427872384273, 0};
Point(p14 + 22) = {8.118928978085689, 2.292476838059043, 0};
Point(p14 + 23) = {8.151574976144566, 2.213662426788095, 0};
Point(p14 + 24) = {8.196148338059043, 2.140925310946954, 0};
Point(p14 + 25) = {8.251551519728277, 2.076056519728277, 0};
Point(p14 + 26) = {8.316420310946954, 2.020653338059043, 0};
Point(p14 + 27) = {8.389157426788096, 1.976079976144566, 0};
Point(p14 + 28) = {8.467971838059043, 1.943433978085689, 0};
Point(p14 + 29) = {8.550922872384273, 1.923519196700475, 0};
Point(p14 + 30) = {8.635968, 1.916826, 0};
Point(p14 + 31) = {8.721013127615727, 1.923519196700475, 0};
Point(p14 + 32) = {8.803964161940957, 1.943433978085689, 0};
Point(p14 + 33) = {8.882778573211905, 1.976079976144566, 0};
Point(p14 + 34) = {8.955515689053046, 2.020653338059043, 0};
Point(p14 + 35) = {9.020384480271723, 2.076056519728277, 0};
Point(p14 + 36) = {9.075787661940957, 2.140925310946954, 0};
Point(p14 + 37) = {9.120361023855434, 2.213662426788094, 0};
Point(p14 + 38) = {9.153007021914311, 2.292476838059043, 0};
Point(p14 + 39) = {9.172921803299525, 2.375427872384273, 0};
Spline(14) = {10, p14 + 1, p14 + 2, p14 + 3, p14 + 4, p14 + 5, p14 + 6, p14 + 7, p14 + 8, p14 + 9, p14 + 10, p14 + 11, p14 + 12, p14 + 13, p14 + 14, p14 + 15, p14 + 16, p14 + 17, p14 + 18, p14 + 19, p14 + 20, p14 + 21, p14 + 22, p14 + 23, p14 + 24, p14 + 25, p14 + 26, p14 + 27, p14 + 28, p14 + 29, p14 + 30, p14 + 31, p14 + 32, p14 + 33, p14 + 34, p14 + 35, p14 + 36, p14 + 37, p14 + 38, p14 + 39, 10};
Line(15) = {10, 8};
Curve Loop(1) = {-1, 4, 3, -2};
Plane Surface(1) = {1};
Curve Loop(2) = {-5, 1, 7, -6};
Plane Surface(2) = {2};
Curve Loop(3) = {-2, 7, 9, -8, -10};
Plane Surface(3) = {3};
Curve Loop(4) = {-11, 3, 8, -12};
Plane Surface(4) = {4};
Curve Loop(5) = {-4, 5, 13, -11, -14};
Plane Surface(5) = {5};
Curve Loop(6) = {-6, 13, 12, -9};
Plane Surface(6) = {6};
Curve Loop(7) = {-10, -15, 14, 15};
Surface(7) = {7};
Surface Loop(1) = {1, 2, 3, 4, 5, 6, 7};
Volume(1) = {1};
Physical Surface("INFLOW") = {1};
Physical Surface("OUTFLOW") = {6};
Physical Surface("OBSTACLE") = {7};
Physical Surface("WALL_Y") = {2, 4};
Physical Surface("WALL_Z") = {3, 5};
Physical Volume("FLUID") = {1};
