cl__1 = 1.30333;
cl__2 = 1.297114;
cl__3 = 1.235261;
cl__4 = 1.463726;
cl__5 = 0.060822;
cl__6 = 0.071274;
Point(1) = {0.353598, -4.169775, 1, cl__1};
Point(2) = {0.353598, -4.169775, 0, cl__1};
Point(3) = {0.353598, 5.500455000000001, 1, cl__2};
Point(4) = {0.353598, 5.500455000000001, 0, cl__2};
Point(5) = {37.502842, -4.169775, 0, cl__3};
Point(6) = {37.502842, -4.169775, 1, cl__3};
Point(7) = {37.502842, 5.500455000000001, 1, cl__4};
Point(8) = {25.237696, -2.666616, 1, cl__5};
Point(9) = {13.900471, 0.7534899999999998, 1, cl__6};
Point(10) = {37.502842, 5.500455000000001, 0, cl__4};
Point(11) = {25.237696, -2.666616, 0, cl__5};
Point(12) = {13.900471, 0.7534899999999998, 0, cl__6};
Line(1) = {2, 1};
Line(2) = {1, 3};
Line(3) = {4, 3};
Line(4) = {2, 4};
Line(5) = {2, 5};
Line(6) = {5, 6};
Line(7) = {1, 6};
Line(8) = {3, 7};
Line(9) = {6, 7};
p10 = newp;
Point(p10 + 1) = {25.23020782714009, -2.571469742542161, 1};
Point(p10 + 2) = {25.207927692228, -2.478666301715258, 1};
Point(p10 + 3) = {25.1714042061288, -2.390490806229412, 1};
Point(p10 + 4) = {25.12153669828474, -2.309114429421177, 1};
Point(p10 + 5) = {25.05955307223972, -2.23654092776028, 1};
Point(p10 + 6) = {24.98697957057882, -2.174557301715258, 1};
Point(p10 + 7) = {24.90560319377059, -2.124689793871199, 1};
Point(p10 + 8) = {24.81742769828474, -2.088166307771994, 1};
Point(p10 + 9) = {24.72462425745784, -2.065886172859906, 1};
Point(p10 + 10) = {24.629478, -2.058398, 1};
Point(p10 + 11) = {24.53433174254216, -2.065886172859906, 1};
Point(p10 + 12) = {24.44152830171526, -2.088166307771994, 1};
Point(p10 + 13) = {24.35335280622941, -2.124689793871199, 1};
Point(p10 + 14) = {24.27197642942118, -2.174557301715258, 1};
Point(p10 + 15) = {24.19940292776028, -2.23654092776028, 1};
Point(p10 + 16) = {24.13741930171526, -2.309114429421177, 1};
Point(p10 + 17) = {24.0875517938712, -2.390490806229412, 1};
Point(p10 + 18) = {24.05102830777199, -2.478666301715258, 1};
Point(p10 + 19) = {24.02874817285991, -2.571469742542161, 1};
Point(p10 + 20) = {24.02126, -2.666616, 1};
Point(p10 + 21) = {24.02874817285991, -2.761762257457839, 1};
Point(p10 + 22) = {24.05102830777199, -2.854565698284742, 1};
Point(p10 + 23) = {24.0875517938712, -2.942741193770587, 1};
Point(p10 + 24) = {24.13741930171526, -3.024117570578823, 1};
Point(p10 + 25) = {24.19940292776028, -3.096691072239719, 1};
Point(p10 + 26) = {24.27197642942118, -3.158674698284742, 1};
Point(p10 + 27) = {24.35335280622941, -3.208542206128801, 1};
Point(p10 + 28) = {24.44152830171526, -3.245065692228005, 1};
Point(p10 + 29) = {24.53433174254216, -3.267345827140093, 1};
Point(p10 + 30) = {24.629478, -3.274834, 1};
Point(p10 + 31) = {24.72462425745784, -3.267345827140093, 1};
Point(p10 + 32) = {24.81742769828474, -3.245065692228006, 1};
Point(p10 + 33) = {24.90560319377059, -3.208542206128801, 1};
Point(p10 + 34) = {24.98697957057882, -3.158674698284742, 1};
Point(p10 + 35) = {25.05955307223972, -3.096691072239719, 1};
Point(p10 + 36) = {25.12153669828474, -3.024117570578824, 1};
Point(p10 + 37) = {25.1714042061288, -2.942741193770588, 1};
Point(p10 + 38) = {25.207927692228, -2.854565698284742, 1};
Point(p10 + 39) = {25.23020782714009, -2.761762257457839, 1};
Spline(10) = {8, p10 + 1, p10 + 2, p10 + 3, p10 + 4, p10 + 5, p10 + 6, p10 + 7, p10 + 8, p10 + 9, p10 + 10, p10 + 11, p10 + 12, p10 + 13, p10 + 14, p10 + 15, p10 + 16, p10 + 17, p10 + 18, p10 + 19, p10 + 20, p10 + 21, p10 + 22, p10 + 23, p10 + 24, p10 + 25, p10 + 26, p10 + 27, p10 + 28, p10 + 29, p10 + 30, p10 + 31, p10 + 32, p10 + 33, p10 + 34, p10 + 35, p10 + 36, p10 + 37, p10 + 38, p10 + 39, 8};
p11 = newp;
Point(p11 + 1) = {13.89169600018744, 0.8649869441783091, 1};
Point(p11 + 2) = {13.86558707036769, 0.9737384635538057, 1};
Point(p11 + 3) = {13.82278709904349, 1.077066734793865, 1};
Point(p11 + 4) = {13.76434996355381, 1.172427472933685, 1};
Point(p11 + 5) = {13.69171458011612, 1.257472580116119, 1};
Point(p11 + 6) = {13.60666947293369, 1.330107963553806, 1};
Point(p11 + 7) = {13.51130873479386, 1.388545099043493, 1};
Point(p11 + 8) = {13.40798046355381, 1.431345070367692, 1};
Point(p11 + 9) = {13.29922894417831, 1.457454000187438, 1};
Point(p11 + 10) = {13.187732, 1.466229, 1};
Point(p11 + 11) = {13.07623505582169, 1.457454000187438, 1};
Point(p11 + 12) = {12.9674835364462, 1.431345070367692, 1};
Point(p11 + 13) = {12.86415526520614, 1.388545099043493, 1};
Point(p11 + 14) = {12.76879452706632, 1.330107963553806, 1};
Point(p11 + 15) = {12.68374941988388, 1.257472580116119, 1};
Point(p11 + 16) = {12.61111403644619, 1.172427472933685, 1};
Point(p11 + 17) = {12.55267690095651, 1.077066734793865, 1};
Point(p11 + 18) = {12.50987692963231, 0.9737384635538057, 1};
Point(p11 + 19) = {12.48376799981256, 0.8649869441783091, 1};
Point(p11 + 20) = {12.474993, 0.7534900000000001, 1};
Point(p11 + 21) = {12.48376799981256, 0.641993055821691, 1};
Point(p11 + 22) = {12.50987692963231, 0.5332415364461941, 1};
Point(p11 + 23) = {12.55267690095651, 0.4299132652061355, 1};
Point(p11 + 24) = {12.61111403644619, 0.3345525270663151, 1};
Point(p11 + 25) = {12.68374941988388, 0.2495074198838814, 1};
Point(p11 + 26) = {12.76879452706632, 0.1768720364461944, 1};
Point(p11 + 27) = {12.86415526520614, 0.1184349009565069, 1};
Point(p11 + 28) = {12.9674835364462, 0.07563492963230856, 1};
Point(p11 + 29) = {13.07623505582169, 0.04952599981256212, 1};
Point(p11 + 30) = {13.187732, 0.04075099999999998, 1};
Point(p11 + 31) = {13.29922894417831, 0.04952599981256212, 1};
Point(p11 + 32) = {13.40798046355381, 0.07563492963230845, 1};
Point(p11 + 33) = {13.51130873479386, 0.1184349009565069, 1};
Point(p11 + 34) = {13.60666947293369, 0.1768720364461942, 1};
Point(p11 + 35) = {13.69171458011612, 0.2495074198838811, 1};
Point(p11 + 36) = {13.76434996355381, 0.3345525270663148, 1};
Point(p11 + 37) = {13.82278709904349, 0.429913265206135, 1};
Point(p11 + 38) = {13.86558707036769, 0.5332415364461942, 1};
Point(p11 + 39) = {13.89169600018744, 0.6419930558216908, 1};
Spline(11) = {9, p11 + 1, p11 + 2, p11 + 3, p11 + 4, p11 + 5, p11 + 6, p11 + 7, p11 + 8, p11 + 9, p11 + 10, p11 + 11, p11 + 12, p11 + 13, p11 + 14, p11 + 15, p11 + 16, p11 + 17, p11 + 18, p11 + 19, p11 + 20, p11 + 21, p11 + 22, p11 + 23, p11 + 24, p11 + 25, p11 + 26, p11 + 27, p11 + 28, p11 + 29, p11 + 30, p11 + 31, p11 + 32, p11 + 33, p11 + 34, p11 + 35, p11 + 36, p11 + 37, p11 + 38, p11 + 39, 9};
Line(12) = {4, 10};
Line(13) = {10, 7};
Line(14) = {5, 10};
p15 = newp;
Point(p15 + 1) = {25.23020782714009, -2.571469742542161, 0};
Point(p15 + 2) = {25.207927692228, -2.478666301715258, 0};
Point(p15 + 3) = {25.1714042061288, -2.390490806229412, 0};
Point(p15 + 4) = {25.12153669828474, -2.309114429421177, 0};
Point(p15 + 5) = {25.05955307223972, -2.23654092776028, 0};
Point(p15 + 6) = {24.98697957057882, -2.174557301715258, 0};
Point(p15 + 7) = {24.90560319377059, -2.124689793871199, 0};
Point(p15 + 8) = {24.81742769828474, -2.088166307771994, 0};
Point(p15 + 9) = {24.72462425745784, -2.065886172859906, 0};
Point(p15 + 10) = {24.629478, -2.058398, 0};
Point(p15 + 11) = {24.53433174254216, -2.065886172859906, 0};
Point(p15 + 12) = {24.44152830171526, -2.088166307771994, 0};
Point(p15 + 13) = {24.35335280622941, -2.124689793871199, 0};
Point(p15 + 14) = {24.27197642942118, -2.174557301715258, 0};
Point(p15 + 15) = {24.19940292776028, -2.23654092776028, 0};
Point(p15 + 16) = {24.13741930171526, -2.309114429421177, 0};
Point(p15 + 17) = {24.0875517938712, -2.390490806229412, 0};
Point(p15 + 18) = {24.05102830777199, -2.478666301715258, 0};
Point(p15 + 19) = {24.02874817285991, -2.571469742542161, 0};
Point(p15 + 20) = {24.02126, -2.666616, 0};
Point(p15 + 21) = {24.02874817285991, -2.761762257457839, 0};
Point(p15 + 22) = {24.05102830777199, -2.854565698284742, 0};
Point(p15 + 23) = {24.0875517938712, -2.942741193770587, 0};
Point(p15 + 24) = {24.13741930171526, -3.024117570578823, 0};
Point(p15 + 25) = {24.19940292776028, -3.096691072239719, 0};
Point(p15 + 26) = {24.27197642942118, -3.158674698284742, 0};
Point(p15 + 27) = {24.35335280622941, -3.208542206128801, 0};
Point(p15 + 28) = {24.44152830171526, -3.245065692228005, 0};
Point(p15 + 29) = {24.53433174254216, -3.267345827140093, 0};
Point(p15 + 30) = {24.629478, -3.274834, 0};
Point(p15 + 31) = {24.72462425745784, -3.267345827140093, 0};
Point(p15 + 32) = {24.81742769828474, -3.245065692228006, 0};
Point(p15 + 33) = {24.90560319377059, -3.208542206128801, 0};
Point(p15 + 34) = {24.98697957057882, -3.158674698284742, 0};
Point(p15 + 35) = {25.05955307223972, -3.096691072239719, 0};
Point(p15 + 36) = {25.12153669828474, -3.024117570578824, 0};
Point(p15 + 37) = {25.1714042061288, -2.942741193770588, 0};
Point(p15 + 38) = {25.207927692228, -2.854565698284742, 0};
Point(p15 + 39) = {25.23020782714009, -2.761762257457839, 0};
Spline(15) = {11, p15 + 1, p15 + 2, p15 + 3, p15 + 4, p15 + 5, p15 + 6, p15 + 7, p15 + 8, p15 + 9, p15 + 10, p15 + 11, p15 + 12, p15 + 13, p15 + 14, p15 + 15, p15 + 16, p15 + 17, p15 + 18, p15 + 19, p15 + 20, p15 + 21, p15 + 22, p15 + 23, p15 + 24, p15 + 25, p15 + 26, p15 + 27, p15 + 28, p15 + 29, p15 + 30, p15 + 31, p15 + 32, p15 + 33, p15 + 34, p15 + 35, p15 + 36, p15 + 37, p15 + 38, p15 + 39, 11};
p16 = newp;
Point(p16 + 1) = {13.89169600018744, 0.8649869441783091, 0};
Point(p16 + 2) = {13.86558707036769, 0.9737384635538057, 0};
Point(p16 + 3) = {13.82278709904349, 1.077066734793865, 0};
Point(p16 + 4) = {13.76434996355381, 1.172427472933685, 0};
Point(p16 + 5) = {13.69171458011612, 1.257472580116119, 0};
Point(p16 + 6) = {13.60666947293369, 1.330107963553806, 0};
Point(p16 + 7) = {13.51130873479386, 1.388545099043493, 0};
Point(p16 + 8) = {13.40798046355381, 1.431345070367692, 0};
Point(p16 + 9) = {13.29922894417831, 1.457454000187438, 0};
Point(p16 + 10) = {13.187732, 1.466229, 0};
Point(p16 + 11) = {13.07623505582169, 1.457454000187438, 0};
Point(p16 + 12) = {12.9674835364462, 1.431345070367692, 0};
Point(p16 + 13) = {12.86415526520614, 1.388545099043493, 0};
Point(p16 + 14) = {12.76879452706632, 1.330107963553806, 0};
Point(p16 + 15) = {12.68374941988388, 1.257472580116119, 0};
Point(p16 + 16) = {12.61111403644619, 1.172427472933685, 0};
Point(p16 + 17) = {12.55267690095651, 1.077066734793865, 0};
Point(p16 + 18) = {12.50987692963231, 0.9737384635538057, 0};
Point(p16 + 19) = {12.48376799981256, 0.8649869441783091, 0};
Point(p16 + 20) = {12.474993, 0.7534900000000001, 0};
Point(p16 + 21) = {12.48376799981256, 0.641993055821691, 0};
Point(p16 + 22) = {12.50987692963231, 0.5332415364461941, 0};
Point(p16 + 23) = {12.55267690095651, 0.4299132652061355, 0};
Point(p16 + 24) = {12.61111403644619, 0.3345525270663151, 0};
Point(p16 + 25) = {12.68374941988388, 0.2495074198838814, 0};
Point(p16 + 26) = {12.76879452706632, 0.1768720364461944, 0};
Point(p16 + 27) = {12.86415526520614, 0.1184349009565069, 0};
Point(p16 + 28) = {12.9674835364462, 0.07563492963230856, 0};
Point(p16 + 29) = {13.07623505582169, 0.04952599981256212, 0};
Point(p16 + 30) = {13.187732, 0.04075099999999998, 0};
Point(p16 + 31) = {13.29922894417831, 0.04952599981256212, 0};
Point(p16 + 32) = {13.40798046355381, 0.07563492963230845, 0};
Point(p16 + 33) = {13.51130873479386, 0.1184349009565069, 0};
Point(p16 + 34) = {13.60666947293369, 0.1768720364461942, 0};
Point(p16 + 35) = {13.69171458011612, 0.2495074198838811, 0};
Point(p16 + 36) = {13.76434996355381, 0.3345525270663148, 0};
Point(p16 + 37) = {13.82278709904349, 0.429913265206135, 0};
Point(p16 + 38) = {13.86558707036769, 0.5332415364461942, 0};
Point(p16 + 39) = {13.89169600018744, 0.6419930558216908, 0};
Spline(16) = {12, p16 + 1, p16 + 2, p16 + 3, p16 + 4, p16 + 5, p16 + 6, p16 + 7, p16 + 8, p16 + 9, p16 + 10, p16 + 11, p16 + 12, p16 + 13, p16 + 14, p16 + 15, p16 + 16, p16 + 17, p16 + 18, p16 + 19, p16 + 20, p16 + 21, p16 + 22, p16 + 23, p16 + 24, p16 + 25, p16 + 26, p16 + 27, p16 + 28, p16 + 29, p16 + 30, p16 + 31, p16 + 32, p16 + 33, p16 + 34, p16 + 35, p16 + 36, p16 + 37, p16 + 38, p16 + 39, 12};
Line(17) = {11, 8};
Line(18) = {12, 9};
Curve Loop(1) = {-1, 4, 3, -2};
Plane Surface(1) = {1};
Curve Loop(2) = {-5, 1, 7, -6};
Plane Surface(2) = {2};
Curve Loop(3) = {-2, 7, 9, -8, -10, -11};
Plane Surface(3) = {3};
Curve Loop(4) = {-12, 3, 8, -13};
Plane Surface(4) = {4};
Curve Loop(5) = {-4, 5, 14, -12, -15, -16};
Plane Surface(5) = {5};
Curve Loop(6) = {-6, 14, 13, -9};
Plane Surface(6) = {6};
Curve Loop(7) = {-10, -17, 15, 17};
Surface(7) = {7};
Curve Loop(8) = {-11, -18, 16, 18};
Surface(8) = {8};
Surface Loop(1) = {1, 2, 3, 4, 5, 6, 7, 8};
Volume(1) = {1};
Physical Surface("INFLOW") = {1};
Physical Surface("OUTFLOW") = {6};
Physical Surface("OBSTACLE") = {7, 8};
Physical Surface("WALL_Y") = {2, 4};
Physical Surface("WALL_Z") = {3, 5};
Physical Volume("FLUID") = {1};
