cl__1 = 3.291544;
cl__2 = 0.900969;
cl__3 = 1.075133;
cl__4 = 0.083982;
Point(1) = {0.929084, -3.146059, 1, cl__1};
Point(2) = {0.929084, -3.146059, 0, cl__1};
Point(3) = {0.929084, 4.804981, 1, cl__1};
Point(4) = {0.929084, 4.804981, 0, cl__1};
Point(5) = {32.674477, -3.146059, 0, cl__2};
Point(6) = {32.674477, -3.146059, 1, cl__2};
Point(7) = {32.674477, 4.804981, 1, cl__3};
Point(8) = {23.80014, -1.51877, 1, cl__4};
Point(9) = {32.674477, 4.804981, 0, cl__3};
Point(10) = {23.80014, -1.51877, 0, cl__4};
Line(1) = {2, 1};
Line(2) = {1, 3};
Line(3) = {4, 3};
Line(4) = {2, 4};
Line(5) = {2, 5};
Line(6) = {5, 6};
Line(7) = {1, 6};
Line(8) = {3, 7};
Line(9) = {6, 7};
p10 = newp;
Point(p10 + 1) = {23.78980036064031, -1.387392425397588, 1};
Point(p10 + 2) = {23.75903603879758, -1.25924980269906, 1};
Point(p10 + 3) = {23.7086045541765, -1.137497428556235, 1};
Point(p10 + 4) = {23.63974769730094, -1.025133250493474, 1};
Point(p10 + 5) = {23.55416095250999, -0.9249240474900077, 1};
Point(p10 + 6) = {23.45395174950653, -0.8393373026990597, 1};
Point(p10 + 7) = {23.34158757144377, -0.7704804458235039, 1};
Point(p10 + 8) = {23.21983519730094, -0.7200489612024226, 1};
Point(p10 + 9) = {23.09169257460241, -0.6892846393596883, 1};
Point(p10 + 10) = {22.960315, -0.6789449999999999, 1};
Point(p10 + 11) = {22.82893742539759, -0.6892846393596884, 1};
Point(p10 + 12) = {22.70079480269906, -0.7200489612024225, 1};
Point(p10 + 13) = {22.57904242855624, -0.7704804458235038, 1};
Point(p10 + 14) = {22.46667825049348, -0.8393373026990597, 1};
Point(p10 + 15) = {22.36646904749001, -0.9249240474900076, 1};
Point(p10 + 16) = {22.28088230269906, -1.025133250493474, 1};
Point(p10 + 17) = {22.21202544582351, -1.137497428556235, 1};
Point(p10 + 18) = {22.16159396120242, -1.25924980269906, 1};
Point(p10 + 19) = {22.13082963935969, -1.387392425397588, 1};
Point(p10 + 20) = {22.12049, -1.51877, 1};
Point(p10 + 21) = {22.13082963935969, -1.650147574602412, 1};
Point(p10 + 22) = {22.16159396120242, -1.77829019730094, 1};
Point(p10 + 23) = {22.21202544582351, -1.900042571443764, 1};
Point(p10 + 24) = {22.28088230269906, -2.012406749506526, 1};
Point(p10 + 25) = {22.36646904749001, -2.112615952509992, 1};
Point(p10 + 26) = {22.46667825049348, -2.19820269730094, 1};
Point(p10 + 27) = {22.57904242855624, -2.267059554176496, 1};
Point(p10 + 28) = {22.70079480269906, -2.317491038797577, 1};
Point(p10 + 29) = {22.82893742539759, -2.348255360640311, 1};
Point(p10 + 30) = {22.960315, -2.358595, 1};
Point(p10 + 31) = {23.09169257460241, -2.348255360640311, 1};
Point(p10 + 32) = {23.21983519730094, -2.317491038797578, 1};
Point(p10 + 33) = {23.34158757144377, -2.267059554176496, 1};
Point(p10 + 34) = {23.45395174950653, -2.19820269730094, 1};
Point(p10 + 35) = {23.55416095250999, -2.112615952509993, 1};
Point(p10 + 36) = {23.63974769730094, -2.012406749506527, 1};
Point(p10 + 37) = {23.7086045541765, -1.900042571443765, 1};
Point(p10 + 38) = {23.75903603879758, -1.77829019730094, 1};
Point(p10 + 39) = {23.78980036064031, -1.650147574602412, 1};
Spline(10) = {8, p10 + 1, p10 + 2, p10 + 3, p10 + 4, p10 + 5, p10 + 6, p10 + 7, p10 + 8, p10 + 9, p10 + 10, p10 + 11, p10 + 12, p10 + 13, p10 + 14, p10 + 15, p10 + 16, p10 + 17, p10 + 18, p10 + 19, p10 + 20, p10 + 21, p10 + 22, p10 + 23, p10 + 24, p10 + 25, p10 + 26, p10 + 27, p10 + 28, p10 + 29, p10 + 30, p10 + 31, p10 + 32, p10 + 33, p10 + 34, p10 + 35, p10 + 36, p10 + 37, p10 + 38, p10 + 39, 8};
Line(11) = {4, 9};
Line(12) = {9, 7};
Line(13) = {5, 9};
p14 = newp;
Point(p14 + 1) = {23.78980036064031, -1.387392425397588, 0};
Point(p14 + 2) = {23.75903603879758, -1.25924980269906, 0};
Point(p14 + 3) = {23.7086045541765, -1.137497428556235, 0};
Point(p14 + 4) = {23.63974769730094, -1.025133250493474, 0};
Point(p14 + 5) = {23.55416095250999, -0.9249240474900077, 0};
Point(p14 + 6) = {23.45395174950653, -0.8393373026990597, 0};
Point(p14 + 7) = {23.34158757144377, -0.7704804458235039, 0};
Point(p14 + 8) = {23.21983519730094, -0.7200489612024226, 0};
Point(p14 + 9) = {23.09169257460241, -0.6892846393596883, 0};
Point(p14 + 10) = {22.960315, -0.6789449999999999, 0};
Point(p14 + 11) = {22.82893742539759, -0.6892846393596884, 0};
Point(p14 + 12) = {22.70079480269906, -0.7200489612024225, 0};
Point(p14 + 13) = {22.57904242855624, -0.7704804458235038, 0};
Point(p14 + 14) = {22.46667825049348, -0.8393373026990597, 0};
Point(p14 + 15) = {22.36646904749001, -0.9249240474900076, 0};
Point(p14 + 16) = {22.28088230269906, -1.025133250493474, 0};
Point(p14 + 17) = {22.21202544582351, -1.137497428556235, 0};
Point(p14 + 18) = {22.16159396120242, -1.25924980269906, 0};
Point(p14 + 19) = {22.13082963935969, -1.387392425397588, 0};
Point(p14 + 20) = {22.12049, -1.51877, 0};
Point(p14 + 21) = {22.13082963935969, -1.650147574602412, 0};
Point(p14 + 22) = {22.16159396120242, -1.77829019730094, 0};
Point(p14 + 23) = {22.21202544582351, -1.900042571443764, 0};
Point(p14 + 24) = {22.28088230269906, -2.012406749506526, 0};
Point(p14 + 25) = {22.36646904749001, -2.112615952509992, 0};
Point(p14 + 26) = {22.46667825049348, -2.19820269730094, 0};
Point(p14 + 27) = {22.57904242855624, -2.267059554176496, 0};
Point(p14 + 28) = {22.70079480269906, -2.317491038797577, 0};
Point(p14 + 29) = {22.82893742539759, -2.348255360640311, 0};
Point(p14 + 30) = {22.960315, -2.358595, 0};
Point(p14 + 31) = {23.09169257460241, -2.348255360640311, 0};
Point(p14 + 32) = {23.21983519730094, -2.317491038797578, 0};
Point(p14 + 33) = {23.34158757144377, -2.267059554176496, 0};
Point(p14 + 34) = {23.45395174950653, -2.19820269730094, 0};
Point(p14 + 35) = {23.55416095250999, -2.112615952509993, 0};
Point(p14 + 36) = {23.63974769730094, -2.012406749506527, 0};
Point(p14 + 37) = {23.7086045541765, -1.900042571443765, 0};
Point(p14 + 38) = {23.75903603879758, -1.77829019730094, 0};
Point(p14 + 39) = {23.78980036064031, -1.650147574602412, 0};
Spline(14) = {10, p14 + 1, p14 + 2, p14 + 3, p14 + 4, p14 + 5, p14 + 6, p14 + 7, p14 + 8, p14 + 9, p14 + 10, p14 + 11, p14 + 12, p14 + 13, p14 + 14, p14 + 15, p14 + 16, p14 + 17, p14 + 18, p14 + 19, p14 + 20, p14 + 21, p14 + 22, p14 + 23, p14 + 24, p14 + 25, p14 + 26, p14 + 27, p14 + 28, p14 + 29, p14 + 30, p14 + 31, p14 + 32, p14 + 33, p14 + 34, p14 + 35, p14 + 36, p14 + 37, p14 + 38, p14 + 39, 10};
Line(15) = {10, 8};
Curve Loop(1) = {-1, 4, 3, -2};
Plane Surface(1) = {1};
Curve Loop(2) = {-5, 1, 7, -6};
Plane Surface(2) = {2};
Curve Loop(3) = {-2, 7, 9, -8, -10};
Plane Surface(3) = {3};
Curve Loop(4) = {-11, 3, 8, -12};
Plane Surface(4) = {4};
Curve Loop(5) = {-4, 5, 13, -11, -14};
Plane Surface(5) = {5};
Curve Loop(6) = {-6, 13, 12, -9};
Plane Surface(6) = {6};
Curve Loop(7) = {-10, -15, 14, 15};
Surface(7) = {7};
Surface Loop(1) = {1, 2, 3, 4, 5, 6, 7};
Volume(1) = {1};
Physical Surface("INFLOW") = {1};
Physical Surface("OUTFLOW") = {6};
Physical Surface("OBSTACLE") = {7};
Physical Surface("WALL_Y") = {2, 4};
Physical Surface("WALL_Z") = {3, 5};
Physical Volume("FLUID") = {1};
