cl__1 = 0.870353;
cl__2 = 1.226521;
cl__3 = 3.984812;
cl__4 = 0.130082;
cl__5 = 0.081806;
Point(1) = {0.567821, -3.610982, 1, cl__1};
Point(2) = {0.567821, -3.610982, 0, cl__1};
Point(3) = {0.567821, 4.480947, 1, cl__2};
Point(4) = {0.567821, 4.480947, 0, cl__2};
Point(5) = {39.642183, -3.610982, 0, cl__1};
Point(6) = {39.642183, -3.610982, 1, cl__1};
Point(7) = {39.642183, 4.480947, 1, cl__3};
Point(8) = {11.647067, -1.496935, 1, cl__4};
Point(9) = {28.596351, 1.904459, 1, cl__5};
Point(10) = {39.642183, 4.480947, 0, cl__3};
Point(11) = {11.647067, -1.496935, 0, cl__4};
Point(12) = {28.596351, 1.904459, 0, cl__5};
Line(1) = {2, 1};
Line(2) = {1, 3};
Line(3) = {4, 3};
Line(4) = {2, 4};
Line(5) = {2, 5};
Line(6) = {5, 6};
Line(7) = {1, 6};
Line(8) = {3, 7};
Line(9) = {6, 7};
p10 = newp;
Point(p10 + 1) = {11.63105178414794, -1.293442388489762, 1};
Point(p10 + 2) = {11.58340048435751, -1.094960440428164, 1};
Point(p10 + 3) = {11.50528643377514, -0.9063764401003019, 1};
Point(p10 + 4) = {11.39863305957184, -0.732333951468662, 1};
Point(p10 + 5) = {11.26606652178274, -0.5771184782172589, 1};
Point(p10 + 6) = {11.11085104853134, -0.4445519404281639, 1};
Point(p10 + 7) = {10.9368085598997, -0.3378985662248599, 1};
Point(p10 + 8) = {10.74822455957183, -0.2597845156424872, 1};
Point(p10 + 9) = {10.54974261151024, -0.2121332158520546, 1};
Point(p10 + 10) = {10.34625, -0.196118, 1};
Point(p10 + 11) = {10.14275738848976, -0.2121332158520548, 1};
Point(p10 + 12) = {9.944275440428164, -0.2597845156424872, 1};
Point(p10 + 13) = {9.755691440100302, -0.3378985662248599, 1};
Point(p10 + 14) = {9.581648951468662, -0.4445519404281639, 1};
Point(p10 + 15) = {9.426433478217259, -0.5771184782172587, 1};
Point(p10 + 16) = {9.293866940428163, -0.7323339514686618, 1};
Point(p10 + 17) = {9.187213566224859, -0.9063764401003018, 1};
Point(p10 + 18) = {9.109099515642487, -1.094960440428164, 1};
Point(p10 + 19) = {9.061448215852055, -1.293442388489762, 1};
Point(p10 + 20) = {9.045432999999999, -1.496935, 1};
Point(p10 + 21) = {9.061448215852055, -1.700427611510238, 1};
Point(p10 + 22) = {9.109099515642487, -1.898909559571836, 1};
Point(p10 + 23) = {9.187213566224859, -2.087493559899697, 1};
Point(p10 + 24) = {9.293866940428163, -2.261536048531338, 1};
Point(p10 + 25) = {9.426433478217259, -2.416751521782741, 1};
Point(p10 + 26) = {9.581648951468662, -2.549318059571836, 1};
Point(p10 + 27) = {9.755691440100302, -2.65597143377514, 1};
Point(p10 + 28) = {9.944275440428163, -2.734085484357513, 1};
Point(p10 + 29) = {10.14275738848976, -2.781736784147945, 1};
Point(p10 + 30) = {10.34625, -2.797752, 1};
Point(p10 + 31) = {10.54974261151024, -2.781736784147945, 1};
Point(p10 + 32) = {10.74822455957183, -2.734085484357513, 1};
Point(p10 + 33) = {10.9368085598997, -2.65597143377514, 1};
Point(p10 + 34) = {11.11085104853134, -2.549318059571836, 1};
Point(p10 + 35) = {11.26606652178274, -2.416751521782741, 1};
Point(p10 + 36) = {11.39863305957184, -2.261536048531338, 1};
Point(p10 + 37) = {11.50528643377514, -2.087493559899698, 1};
Point(p10 + 38) = {11.58340048435751, -1.898909559571836, 1};
Point(p10 + 39) = {11.63105178414794, -1.700427611510238, 1};
Spline(10) = {8, p10 + 1, p10 + 2, p10 + 3, p10 + 4, p10 + 5, p10 + 6, p10 + 7, p10 + 8, p10 + 9, p10 + 10, p10 + 11, p10 + 12, p10 + 13, p10 + 14, p10 + 15, p10 + 16, p10 + 17, p10 + 18, p10 + 19, p10 + 20, p10 + 21, p10 + 22, p10 + 23, p10 + 24, p10 + 25, p10 + 26, p10 + 27, p10 + 28, p10 + 29, p10 + 30, p10 + 31, p10 + 32, p10 + 33, p10 + 34, p10 + 35, p10 + 36, p10 + 37, p10 + 38, p10 + 39, 8};
p11 = newp;
Point(p11 + 1) = {28.58627934853058, 2.032431465601881, 1};
Point(p11 + 2) = {28.55631239160738, 2.15725282438438, 1};
Point(p11 + 3) = {28.50718801516449, 2.275849560235934, 1};
Point(p11 + 4) = {28.44011582438438, 2.385301427919876, 1};
Point(p11 + 5) = {28.35674735920391, 2.482913359203905, 1};
Point(p11 + 6) = {28.25913542791988, 2.56628182438438, 1};
Point(p11 + 7) = {28.14968356023594, 2.633354015164488, 1};
Point(p11 + 8) = {28.03108682438438, 2.68247839160738, 1};
Point(p11 + 9) = {27.90626546560188, 2.712445348530577, 1};
Point(p11 + 10) = {27.778293, 2.722517, 1};
Point(p11 + 11) = {27.65032053439812, 2.712445348530577, 1};
Point(p11 + 12) = {27.52549917561562, 2.682478391607381, 1};
Point(p11 + 13) = {27.40690243976407, 2.633354015164488, 1};
Point(p11 + 14) = {27.29745057208013, 2.56628182438438, 1};
Point(p11 + 15) = {27.1998386407961, 2.482913359203905, 1};
Point(p11 + 16) = {27.11647017561562, 2.385301427919876, 1};
Point(p11 + 17) = {27.04939798483552, 2.275849560235934, 1};
Point(p11 + 18) = {27.00027360839262, 2.157252824384381, 1};
Point(p11 + 19) = {26.97030665146942, 2.032431465601881, 1};
Point(p11 + 20) = {26.960235, 1.904459, 1};
Point(p11 + 21) = {26.97030665146942, 1.776486534398119, 1};
Point(p11 + 22) = {27.00027360839262, 1.651665175615619, 1};
Point(p11 + 23) = {27.04939798483552, 1.533068439764066, 1};
Point(p11 + 24) = {27.11647017561562, 1.423616572080124, 1};
Point(p11 + 25) = {27.1998386407961, 1.326004640796095, 1};
Point(p11 + 26) = {27.29745057208013, 1.242636175615619, 1};
Point(p11 + 27) = {27.40690243976407, 1.175563984835512, 1};
Point(p11 + 28) = {27.52549917561562, 1.126439608392619, 1};
Point(p11 + 29) = {27.65032053439812, 1.096472651469423, 1};
Point(p11 + 30) = {27.778293, 1.086401, 1};
Point(p11 + 31) = {27.90626546560188, 1.096472651469423, 1};
Point(p11 + 32) = {28.03108682438438, 1.126439608392619, 1};
Point(p11 + 33) = {28.14968356023594, 1.175563984835512, 1};
Point(p11 + 34) = {28.25913542791988, 1.242636175615619, 1};
Point(p11 + 35) = {28.3567473592039, 1.326004640796095, 1};
Point(p11 + 36) = {28.44011582438438, 1.423616572080124, 1};
Point(p11 + 37) = {28.50718801516449, 1.533068439764066, 1};
Point(p11 + 38) = {28.55631239160738, 1.651665175615619, 1};
Point(p11 + 39) = {28.58627934853058, 1.776486534398118, 1};
Spline(11) = {9, p11 + 1, p11 + 2, p11 + 3, p11 + 4, p11 + 5, p11 + 6, p11 + 7, p11 + 8, p11 + 9, p11 + 10, p11 + 11, p11 + 12, p11 + 13, p11 + 14, p11 + 15, p11 + 16, p11 + 17, p11 + 18, p11 + 19, p11 + 20, p11 + 21, p11 + 22, p11 + 23, p11 + 24, p11 + 25, p11 + 26, p11 + 27, p11 + 28, p11 + 29, p11 + 30, p11 + 31, p11 + 32, p11 + 33, p11 + 34, p11 + 35, p11 + 36, p11 + 37, p11 + 38, p11 + 39, 9};
Line(12) = {4, 10};
Line(13) = {10, 7};
Line(14) = {5, 10};
p15 = newp;
Point(p15 + 1) = {11.63105178414794, -1.293442388489762, 0};
Point(p15 + 2) = {11.58340048435751, -1.094960440428164, 0};
Point(p15 + 3) = {11.50528643377514, -0.9063764401003019, 0};
Point(p15 + 4) = {11.39863305957184, -0.732333951468662, 0};
Point(p15 + 5) = {11.26606652178274, -0.5771184782172589, 0};
Point(p15 + 6) = {11.11085104853134, -0.4445519404281639, 0};
Point(p15 + 7) = {10.9368085598997, -0.3378985662248599, 0};
Point(p15 + 8) = {10.74822455957183, -0.2597845156424872, 0};
Point(p15 + 9) = {10.54974261151024, -0.2121332158520546, 0};
Point(p15 + 10) = {10.34625, -0.196118, 0};
Point(p15 + 11) = {10.14275738848976, -0.2121332158520548, 0};
Point(p15 + 12) = {9.944275440428164, -0.2597845156424872, 0};
Point(p15 + 13) = {9.755691440100302, -0.3378985662248599, 0};
Point(p15 + 14) = {9.581648951468662, -0.4445519404281639, 0};
Point(p15 + 15) = {9.426433478217259, -0.5771184782172587, 0};
Point(p15 + 16) = {9.293866940428163, -0.7323339514686618, 0};
Point(p15 + 17) = {9.187213566224859, -0.9063764401003018, 0};
Point(p15 + 18) = {9.109099515642487, -1.094960440428164, 0};
Point(p15 + 19) = {9.061448215852055, -1.293442388489762, 0};
Point(p15 + 20) = {9.045432999999999, -1.496935, 0};
Point(p15 + 21) = {9.061448215852055, -1.700427611510238, 0};
Point(p15 + 22) = {9.109099515642487, -1.898909559571836, 0};
Point(p15 + 23) = {9.187213566224859, -2.087493559899697, 0};
Point(p15 + 24) = {9.293866940428163, -2.261536048531338, 0};
Point(p15 + 25) = {9.426433478217259, -2.416751521782741, 0};
Point(p15 + 26) = {9.581648951468662, -2.549318059571836, 0};
Point(p15 + 27) = {9.755691440100302, -2.65597143377514, 0};
Point(p15 + 28) = {9.944275440428163, -2.734085484357513, 0};
Point(p15 + 29) = {10.14275738848976, -2.781736784147945, 0};
Point(p15 + 30) = {10.34625, -2.797752, 0};
Point(p15 + 31) = {10.54974261151024, -2.781736784147945, 0};
Point(p15 + 32) = {10.74822455957183, -2.734085484357513, 0};
Point(p15 + 33) = {10.9368085598997, -2.65597143377514, 0};
Point(p15 + 34) = {11.11085104853134, -2.549318059571836, 0};
Point(p15 + 35) = {11.26606652178274, -2.416751521782741, 0};
Point(p15 + 36) = {11.39863305957184, -2.261536048531338, 0};
Point(p15 + 37) = {11.50528643377514, -2.087493559899698, 0};
Point(p15 + 38) = {11.58340048435751, -1.898909559571836, 0};
Point(p15 + 39) = {11.63105178414794, -1.700427611510238, 0};
Spline(15) = {11, p15 + 1, p15 + 2, p15 + 3, p15 + 4, p15 + 5, p15 + 6, p15 + 7, p15 + 8, p15 + 9, p15 + 10, p15 + 11, p15 + 12, p15 + 13, p15 + 14, p15 + 15, p15 + 16, p15 + 17, p15 + 18, p15 + 19, p15 + 20, p15 + 21, p15 + 22, p15 + 23, p15 + 24, p15 + 25, p15 + 26, p15 + 27, p15 + 28, p15 + 29, p15 + 30, p15 + 31, p15 + 32, p15 + 33, p15 + 34, p15 + 35, p15 + 36, p15 + 37, p15 + 38, p15 + 39, 11};
p16 = newp;
Point(p16 + 1) = {28.58627934853058, 2.032431465601881, 0};
Point(p16 + 2) = {28.55631239160738, 2.15725282438438, 0};
Point(p16 + 3) = {28.50718801516449, 2.275849560235934, 0};
Point(p16 + 4) = {28.44011582438438, 2.385301427919876, 0};
Point(p16 + 5) = {28.35674735920391, 2.482913359203905, 0};
Point(p16 + 6) = {28.25913542791988, 2.56628182438438, 0};
Point(p16 + 7) = {28.14968356023594, 2.633354015164488, 0};
Point(p16 + 8) = {28.03108682438438, 2.68247839160738, 0};
Point(p16 + 9) = {27.90626546560188, 2.712445348530577, 0};
Point(p16 + 10) = {27.778293, 2.722517, 0};
Point(p16 + 11) = {27.65032053439812, 2.712445348530577, 0};
Point(p16 + 12) = {27.52549917561562, 2.682478391607381, 0};
Point(p16 + 13) = {27.40690243976407, 2.633354015164488, 0};
Point(p16 + 14) = {27.29745057208013, 2.56628182438438, 0};
Point(p16 + 15) = {27.1998386407961, 2.482913359203905, 0};
Point(p16 + 16) = {27.11647017561562, 2.385301427919876, 0};
Point(p16 + 17) = {27.04939798483552, 2.275849560235934, 0};
Point(p16 + 18) = {27.00027360839262, 2.157252824384381, 0};
Point(p16 + 19) = {26.97030665146942, 2.032431465601881, 0};
Point(p16 + 20) = {26.960235, 1.904459, 0};
Point(p16 + 21) = {26.97030665146942, 1.776486534398119, 0};
Point(p16 + 22) = {27.00027360839262, 1.651665175615619, 0};
Point(p16 + 23) = {27.04939798483552, 1.533068439764066, 0};
Point(p16 + 24) = {27.11647017561562, 1.423616572080124, 0};
Point(p16 + 25) = {27.1998386407961, 1.326004640796095, 0};
Point(p16 + 26) = {27.29745057208013, 1.242636175615619, 0};
Point(p16 + 27) = {27.40690243976407, 1.175563984835512, 0};
Point(p16 + 28) = {27.52549917561562, 1.126439608392619, 0};
Point(p16 + 29) = {27.65032053439812, 1.096472651469423, 0};
Point(p16 + 30) = {27.778293, 1.086401, 0};
Point(p16 + 31) = {27.90626546560188, 1.096472651469423, 0};
Point(p16 + 32) = {28.03108682438438, 1.126439608392619, 0};
Point(p16 + 33) = {28.14968356023594, 1.175563984835512, 0};
Point(p16 + 34) = {28.25913542791988, 1.242636175615619, 0};
Point(p16 + 35) = {28.3567473592039, 1.326004640796095, 0};
Point(p16 + 36) = {28.44011582438438, 1.423616572080124, 0};
Point(p16 + 37) = {28.50718801516449, 1.533068439764066, 0};
Point(p16 + 38) = {28.55631239160738, 1.651665175615619, 0};
Point(p16 + 39) = {28.58627934853058, 1.776486534398118, 0};
Spline(16) = {12, p16 + 1, p16 + 2, p16 + 3, p16 + 4, p16 + 5, p16 + 6, p16 + 7, p16 + 8, p16 + 9, p16 + 10, p16 + 11, p16 + 12, p16 + 13, p16 + 14, p16 + 15, p16 + 16, p16 + 17, p16 + 18, p16 + 19, p16 + 20, p16 + 21, p16 + 22, p16 + 23, p16 + 24, p16 + 25, p16 + 26, p16 + 27, p16 + 28, p16 + 29, p16 + 30, p16 + 31, p16 + 32, p16 + 33, p16 + 34, p16 + 35, p16 + 36, p16 + 37, p16 + 38, p16 + 39, 12};
Line(17) = {11, 8};
Line(18) = {12, 9};
Curve Loop(1) = {-1, 4, 3, -2};
Plane Surface(1) = {1};
Curve Loop(2) = {-5, 1, 7, -6};
Plane Surface(2) = {2};
Curve Loop(3) = {-2, 7, 9, -8, -10, -11};
Plane Surface(3) = {3};
Curve Loop(4) = {-12, 3, 8, -13};
Plane Surface(4) = {4};
Curve Loop(5) = {-4, 5, 14, -12, -15, -16};
Plane Surface(5) = {5};
Curve Loop(6) = {-6, 14, 13, -9};
Plane Surface(6) = {6};
Curve Loop(7) = {-10, -17, 15, 17};
Surface(7) = {7};
Curve Loop(8) = {-11, -18, 16, 18};
Surface(8) = {8};
Surface Loop(1) = {1, 2, 3, 4, 5, 6, 7, 8};
Volume(1) = {1};
Physical Surface("INFLOW") = {1};
Physical Surface("OUTFLOW") = {6};
Physical Surface("OBSTACLE") = {7, 8};
Physical Surface("WALL_Y") = {2, 4};
Physical Surface("WALL_Z") = {3, 5};
Physical Volume("FLUID") = {1};
