cl__1 = 3.95784;
cl__2 = 0.8984220000000001;
cl__3 = 0.428938;
cl__4 = 0.085697;
cl__5 = 0.138949;
Point(1) = {0.19947, -4.352324, 1, cl__1};
Point(2) = {0.19947, -4.352324, 0, cl__1};
Point(3) = {0.19947, 4.436134999999999, 1, cl__2};
Point(4) = {0.19947, 4.436134999999999, 0, cl__2};
Point(5) = {39.33371, -4.352324, 0, cl__3};
Point(6) = {39.33371, -4.352324, 1, cl__3};
Point(7) = {39.33371, 4.436134999999999, 1, cl__2};
Point(8) = {30.4867, -2.714725, 1, cl__4};
Point(9) = {6.285551, -1.159908, 1, cl__5};
Point(10) = {39.33371, 4.436134999999999, 0, cl__2};
Point(11) = {30.4867, -2.714725, 0, cl__4};
Point(12) = {6.285551, -1.159908, 0, cl__5};
Line(1) = {2, 1};
Line(2) = {1, 3};
Line(3) = {4, 3};
Line(4) = {2, 4};
Line(5) = {2, 5};
Line(6) = {5, 6};
Line(7) = {1, 6};
Line(8) = {3, 7};
Line(9) = {6, 7};
p10 = newp;
Point(p10 + 1) = {30.47614922799318, -2.580664730756613, 1};
Point(p10 + 2) = {30.44475670699552, -2.449905470262524, 1};
Point(p10 + 3) = {30.3932954250598, -2.325666945476202, 1};
Point(p10 + 4) = {30.32303252973748, -2.21100832120191, 1};
Point(p10 + 5) = {30.23569812670056, -2.10875287329944, 1};
Point(p10 + 6) = {30.13344267879809, -2.021418470262524, 1};
Point(p10 + 7) = {30.0187840545238, -1.951155574940198, 1};
Point(p10 + 8) = {29.89454552973748, -1.899694293004477, 1};
Point(p10 + 9) = {29.76378626924339, -1.868301772006822, 1};
Point(p10 + 10) = {29.629726, -1.857751, 1};
Point(p10 + 11) = {29.49566573075661, -1.868301772006823, 1};
Point(p10 + 12) = {29.36490647026253, -1.899694293004477, 1};
Point(p10 + 13) = {29.2406679454762, -1.951155574940198, 1};
Point(p10 + 14) = {29.12600932120191, -2.021418470262524, 1};
Point(p10 + 15) = {29.02375387329944, -2.10875287329944, 1};
Point(p10 + 16) = {28.93641947026252, -2.21100832120191, 1};
Point(p10 + 17) = {28.8661565749402, -2.325666945476202, 1};
Point(p10 + 18) = {28.81469529300448, -2.449905470262524, 1};
Point(p10 + 19) = {28.78330277200682, -2.580664730756613, 1};
Point(p10 + 20) = {28.772752, -2.714725, 1};
Point(p10 + 21) = {28.78330277200682, -2.848785269243387, 1};
Point(p10 + 22) = {28.81469529300448, -2.979544529737477, 1};
Point(p10 + 23) = {28.8661565749402, -3.103783054523798, 1};
Point(p10 + 24) = {28.93641947026252, -3.21844167879809, 1};
Point(p10 + 25) = {29.02375387329944, -3.32069712670056, 1};
Point(p10 + 26) = {29.12600932120191, -3.408031529737476, 1};
Point(p10 + 27) = {29.2406679454762, -3.478294425059802, 1};
Point(p10 + 28) = {29.36490647026253, -3.529755706995523, 1};
Point(p10 + 29) = {29.49566573075661, -3.561148227993177, 1};
Point(p10 + 30) = {29.629726, -3.571699, 1};
Point(p10 + 31) = {29.76378626924339, -3.561148227993177, 1};
Point(p10 + 32) = {29.89454552973748, -3.529755706995523, 1};
Point(p10 + 33) = {30.0187840545238, -3.478294425059802, 1};
Point(p10 + 34) = {30.13344267879809, -3.408031529737476, 1};
Point(p10 + 35) = {30.23569812670056, -3.320697126700561, 1};
Point(p10 + 36) = {30.32303252973748, -3.21844167879809, 1};
Point(p10 + 37) = {30.3932954250598, -3.103783054523799, 1};
Point(p10 + 38) = {30.44475670699552, -2.979544529737476, 1};
Point(p10 + 39) = {30.47614922799318, -2.848785269243387, 1};
Spline(10) = {8, p10 + 1, p10 + 2, p10 + 3, p10 + 4, p10 + 5, p10 + 6, p10 + 7, p10 + 8, p10 + 9, p10 + 10, p10 + 11, p10 + 12, p10 + 13, p10 + 14, p10 + 15, p10 + 16, p10 + 17, p10 + 18, p10 + 19, p10 + 20, p10 + 21, p10 + 22, p10 + 23, p10 + 24, p10 + 25, p10 + 26, p10 + 27, p10 + 28, p10 + 29, p10 + 30, p10 + 31, p10 + 32, p10 + 33, p10 + 34, p10 + 35, p10 + 36, p10 + 37, p10 + 38, p10 + 39, 8};
p11 = newp;
Point(p11 + 1) = {6.268444109308517, -0.9425443444746446, 1};
Point(p11 + 2) = {6.217544665657404, -0.7305329035369375, 1};
Point(p11 + 3) = {6.134105982274923, -0.5290941024883964, 1};
Point(p11 + 4) = {6.020182596463062, -0.3431880331478884, 1};
Point(p11 + 5) = {5.878579680070552, -0.1773923199294477, 1};
Point(p11 + 6) = {5.712783966852111, -0.03578940353693749, 1};
Point(p11 + 7) = {5.526877897511604, 0.07813398227492252, 1};
Point(p11 + 8) = {5.325439096463063, 0.1615726656574039, 1};
Point(p11 + 9) = {5.113427655525355, 0.2124721093085162, 1};
Point(p11 + 10) = {4.896064, 0.229579, 1};
Point(p11 + 11) = {4.678700344474644, 0.212472109308516, 1};
Point(p11 + 12) = {4.466688903536937, 0.1615726656574041, 1};
Point(p11 + 13) = {4.265250102488396, 0.07813398227492274, 1};
Point(p11 + 14) = {4.079344033147889, -0.03578940353693749, 1};
Point(p11 + 15) = {3.913548319929448, -0.1773923199294476, 1};
Point(p11 + 16) = {3.771945403536938, -0.3431880331478883, 1};
Point(p11 + 17) = {3.658022017725077, -0.5290941024883963, 1};
Point(p11 + 18) = {3.574583334342596, -0.7305329035369372, 1};
Point(p11 + 19) = {3.523683890691484, -0.9425443444746445, 1};
Point(p11 + 20) = {3.506577, -1.159908, 1};
Point(p11 + 21) = {3.523683890691484, -1.377271655525355, 1};
Point(p11 + 22) = {3.574583334342596, -1.589283096463063, 1};
Point(p11 + 23) = {3.658022017725077, -1.790721897511603, 1};
Point(p11 + 24) = {3.771945403536937, -1.976627966852111, 1};
Point(p11 + 25) = {3.913548319929447, -2.142423680070552, 1};
Point(p11 + 26) = {4.079344033147889, -2.284026596463062, 1};
Point(p11 + 27) = {4.265250102488396, -2.397949982274922, 1};
Point(p11 + 28) = {4.466688903536937, -2.481388665657404, 1};
Point(p11 + 29) = {4.678700344474644, -2.532288109308516, 1};
Point(p11 + 30) = {4.896064, -2.549395, 1};
Point(p11 + 31) = {5.113427655525355, -2.532288109308516, 1};
Point(p11 + 32) = {5.325439096463063, -2.481388665657404, 1};
Point(p11 + 33) = {5.526877897511604, -2.397949982274922, 1};
Point(p11 + 34) = {5.712783966852111, -2.284026596463063, 1};
Point(p11 + 35) = {5.878579680070552, -2.142423680070553, 1};
Point(p11 + 36) = {6.020182596463062, -1.976627966852112, 1};
Point(p11 + 37) = {6.134105982274923, -1.790721897511604, 1};
Point(p11 + 38) = {6.217544665657404, -1.589283096463063, 1};
Point(p11 + 39) = {6.268444109308516, -1.377271655525355, 1};
Spline(11) = {9, p11 + 1, p11 + 2, p11 + 3, p11 + 4, p11 + 5, p11 + 6, p11 + 7, p11 + 8, p11 + 9, p11 + 10, p11 + 11, p11 + 12, p11 + 13, p11 + 14, p11 + 15, p11 + 16, p11 + 17, p11 + 18, p11 + 19, p11 + 20, p11 + 21, p11 + 22, p11 + 23, p11 + 24, p11 + 25, p11 + 26, p11 + 27, p11 + 28, p11 + 29, p11 + 30, p11 + 31, p11 + 32, p11 + 33, p11 + 34, p11 + 35, p11 + 36, p11 + 37, p11 + 38, p11 + 39, 9};
Line(12) = {4, 10};
Line(13) = {10, 7};
Line(14) = {5, 10};
p15 = newp;
Point(p15 + 1) = {30.47614922799318, -2.580664730756613, 0};
Point(p15 + 2) = {30.44475670699552, -2.449905470262524, 0};
Point(p15 + 3) = {30.3932954250598, -2.325666945476202, 0};
Point(p15 + 4) = {30.32303252973748, -2.21100832120191, 0};
Point(p15 + 5) = {30.23569812670056, -2.10875287329944, 0};
Point(p15 + 6) = {30.13344267879809, -2.021418470262524, 0};
Point(p15 + 7) = {30.0187840545238, -1.951155574940198, 0};
Point(p15 + 8) = {29.89454552973748, -1.899694293004477, 0};
Point(p15 + 9) = {29.76378626924339, -1.868301772006822, 0};
Point(p15 + 10) = {29.629726, -1.857751, 0};
Point(p15 + 11) = {29.49566573075661, -1.868301772006823, 0};
Point(p15 + 12) = {29.36490647026253, -1.899694293004477, 0};
Point(p15 + 13) = {29.2406679454762, -1.951155574940198, 0};
Point(p15 + 14) = {29.12600932120191, -2.021418470262524, 0};
Point(p15 + 15) = {29.02375387329944, -2.10875287329944, 0};
Point(p15 + 16) = {28.93641947026252, -2.21100832120191, 0};
Point(p15 + 17) = {28.8661565749402, -2.325666945476202, 0};
Point(p15 + 18) = {28.81469529300448, -2.449905470262524, 0};
Point(p15 + 19) = {28.78330277200682, -2.580664730756613, 0};
Point(p15 + 20) = {28.772752, -2.714725, 0};
Point(p15 + 21) = {28.78330277200682, -2.848785269243387, 0};
Point(p15 + 22) = {28.81469529300448, -2.979544529737477, 0};
Point(p15 + 23) = {28.8661565749402, -3.103783054523798, 0};
Point(p15 + 24) = {28.93641947026252, -3.21844167879809, 0};
Point(p15 + 25) = {29.02375387329944, -3.32069712670056, 0};
Point(p15 + 26) = {29.12600932120191, -3.408031529737476, 0};
Point(p15 + 27) = {29.2406679454762, -3.478294425059802, 0};
Point(p15 + 28) = {29.36490647026253, -3.529755706995523, 0};
Point(p15 + 29) = {29.49566573075661, -3.561148227993177, 0};
Point(p15 + 30) = {29.629726, -3.571699, 0};
Point(p15 + 31) = {29.76378626924339, -3.561148227993177, 0};
Point(p15 + 32) = {29.89454552973748, -3.529755706995523, 0};
Point(p15 + 33) = {30.0187840545238, -3.478294425059802, 0};
Point(p15 + 34) = {30.13344267879809, -3.408031529737476, 0};
Point(p15 + 35) = {30.23569812670056, -3.320697126700561, 0};
Point(p15 + 36) = {30.32303252973748, -3.21844167879809, 0};
Point(p15 + 37) = {30.3932954250598, -3.103783054523799, 0};
Point(p15 + 38) = {30.44475670699552, -2.979544529737476, 0};
Point(p15 + 39) = {30.47614922799318, -2.848785269243387, 0};
Spline(15) = {11, p15 + 1, p15 + 2, p15 + 3, p15 + 4, p15 + 5, p15 + 6, p15 + 7, p15 + 8, p15 + 9, p15 + 10, p15 + 11, p15 + 12, p15 + 13, p15 + 14, p15 + 15, p15 + 16, p15 + 17, p15 + 18, p15 + 19, p15 + 20, p15 + 21, p15 + 22, p15 + 23, p15 + 24, p15 + 25, p15 + 26, p15 + 27, p15 + 28, p15 + 29, p15 + 30, p15 + 31, p15 + 32, p15 + 33, p15 + 34, p15 + 35, p15 + 36, p15 + 37, p15 + 38, p15 + 39, 11};
p16 = newp;
Point(p16 + 1) = {6.268444109308517, -0.9425443444746446, 0};
Point(p16 + 2) = {6.217544665657404, -0.7305329035369375, 0};
Point(p16 + 3) = {6.134105982274923, -0.5290941024883964, 0};
Point(p16 + 4) = {6.020182596463062, -0.3431880331478884, 0};
Point(p16 + 5) = {5.878579680070552, -0.1773923199294477, 0};
Point(p16 + 6) = {5.712783966852111, -0.03578940353693749, 0};
Point(p16 + 7) = {5.526877897511604, 0.07813398227492252, 0};
Point(p16 + 8) = {5.325439096463063, 0.1615726656574039, 0};
Point(p16 + 9) = {5.113427655525355, 0.2124721093085162, 0};
Point(p16 + 10) = {4.896064, 0.229579, 0};
Point(p16 + 11) = {4.678700344474644, 0.212472109308516, 0};
Point(p16 + 12) = {4.466688903536937, 0.1615726656574041, 0};
Point(p16 + 13) = {4.265250102488396, 0.07813398227492274, 0};
Point(p16 + 14) = {4.079344033147889, -0.03578940353693749, 0};
Point(p16 + 15) = {3.913548319929448, -0.1773923199294476, 0};
Point(p16 + 16) = {3.771945403536938, -0.3431880331478883, 0};
Point(p16 + 17) = {3.658022017725077, -0.5290941024883963, 0};
Point(p16 + 18) = {3.574583334342596, -0.7305329035369372, 0};
Point(p16 + 19) = {3.523683890691484, -0.9425443444746445, 0};
Point(p16 + 20) = {3.506577, -1.159908, 0};
Point(p16 + 21) = {3.523683890691484, -1.377271655525355, 0};
Point(p16 + 22) = {3.574583334342596, -1.589283096463063, 0};
Point(p16 + 23) = {3.658022017725077, -1.790721897511603, 0};
Point(p16 + 24) = {3.771945403536937, -1.976627966852111, 0};
Point(p16 + 25) = {3.913548319929447, -2.142423680070552, 0};
Point(p16 + 26) = {4.079344033147889, -2.284026596463062, 0};
Point(p16 + 27) = {4.265250102488396, -2.397949982274922, 0};
Point(p16 + 28) = {4.466688903536937, -2.481388665657404, 0};
Point(p16 + 29) = {4.678700344474644, -2.532288109308516, 0};
Point(p16 + 30) = {4.896064, -2.549395, 0};
Point(p16 + 31) = {5.113427655525355, -2.532288109308516, 0};
Point(p16 + 32) = {5.325439096463063, -2.481388665657404, 0};
Point(p16 + 33) = {5.526877897511604, -2.397949982274922, 0};
Point(p16 + 34) = {5.712783966852111, -2.284026596463063, 0};
Point(p16 + 35) = {5.878579680070552, -2.142423680070553, 0};
Point(p16 + 36) = {6.020182596463062, -1.976627966852112, 0};
Point(p16 + 37) = {6.134105982274923, -1.790721897511604, 0};
Point(p16 + 38) = {6.217544665657404, -1.589283096463063, 0};
Point(p16 + 39) = {6.268444109308516, -1.377271655525355, 0};
Spline(16) = {12, p16 + 1, p16 + 2, p16 + 3, p16 + 4, p16 + 5, p16 + 6, p16 + 7, p16 + 8, p16 + 9, p16 + 10, p16 + 11, p16 + 12, p16 + 13, p16 + 14, p16 + 15, p16 + 16, p16 + 17, p16 + 18, p16 + 19, p16 + 20, p16 + 21, p16 + 22, p16 + 23, p16 + 24, p16 + 25, p16 + 26, p16 + 27, p16 + 28, p16 + 29, p16 + 30, p16 + 31, p16 + 32, p16 + 33, p16 + 34, p16 + 35, p16 + 36, p16 + 37, p16 + 38, p16 + 39, 12};
Line(17) = {11, 8};
Line(18) = {12, 9};
Curve Loop(1) = {-1, 4, 3, -2};
Plane Surface(1) = {1};
Curve Loop(2) = {-5, 1, 7, -6};
Plane Surface(2) = {2};
Curve Loop(3) = {-2, 7, 9, -8, -10, -11};
Plane Surface(3) = {3};
Curve Loop(4) = {-12, 3, 8, -13};
Plane Surface(4) = {4};
Curve Loop(5) = {-4, 5, 14, -12, -15, -16};
Plane Surface(5) = {5};
Curve Loop(6) = {-6, 14, 13, -9};
Plane Surface(6) = {6};
Curve Loop(7) = {-10, -17, 15, 17};
Surface(7) = {7};
Curve Loop(8) = {-11, -18, 16, 18};
Surface(8) = {8};
Surface Loop(1) = {1, 2, 3, 4, 5, 6, 7, 8};
Volume(1) = {1};
Physical Surface("INFLOW") = {1};
Physical Surface("OUTFLOW") = {6};
Physical Surface("OBSTACLE") = {7, 8};
Physical Surface("WALL_Y") = {2, 4};
Physical Surface("WALL_Z") = {3, 5};
Physical Volume("FLUID") = {1};
