cl__1 = 3.55433;
cl__2 = 0.366033;
cl__3 = 0.74269;
cl__4 = 0.062228;
cl__5 = 0.075181;
Point(1) = {0.73448, -3.853292, 1, cl__1};
Point(2) = {0.73448, -3.853292, 0, cl__1};
Point(3) = {0.73448, 5.719162000000001, 1, cl__2};
Point(4) = {0.73448, 5.719162000000001, 0, cl__2};
Point(5) = {35.219575, -3.853292, 0, cl__1};
Point(6) = {35.219575, -3.853292, 1, cl__1};
Point(7) = {35.219575, 5.719162000000001, 1, cl__3};
Point(8) = {31.776276, -2.507247, 1, cl__4};
Point(9) = {34.198941, 4.131046, 1, cl__5};
Point(10) = {35.219575, 5.719162000000001, 0, cl__3};
Point(11) = {31.776276, -2.507247, 0, cl__4};
Point(12) = {34.198941, 4.131046, 0, cl__5};
Line(1) = {2, 1};
Line(2) = {1, 3};
Line(3) = {4, 3};
Line(4) = {2, 4};
Line(5) = {2, 5};
Line(6) = {5, 6};
Line(7) = {1, 6};
Line(8) = {3, 7};
Line(9) = {6, 7};
p10 = newp;
Point(p10 + 1) = {31.76861473752052, -2.40990143039816, 1};
Point(p10 + 2) = {31.7458195957906, -2.314952831791341, 1};
Point(p10 + 3) = {31.70845186685236, -2.224739153793574, 1};
Point(p10 + 4) = {31.65743166820866, -2.141481756559197, 1};
Point(p10 + 5) = {31.59401528647642, -2.067230713523579, 1};
Point(p10 + 6) = {31.5197642434408, -2.003814331791341, 1};
Point(p10 + 7) = {31.43650684620642, -1.952794133147635, 1};
Point(p10 + 8) = {31.34629316820866, -1.915426404209401, 1};
Point(p10 + 9) = {31.25134456960184, -1.892631262479479, 1};
Point(p10 + 10) = {31.153999, -1.88497, 1};
Point(p10 + 11) = {31.05665343039816, -1.89263126247948, 1};
Point(p10 + 12) = {30.96170483179134, -1.915426404209401, 1};
Point(p10 + 13) = {30.87149115379357, -1.952794133147635, 1};
Point(p10 + 14) = {30.78823375655919, -2.003814331791341, 1};
Point(p10 + 15) = {30.71398271352358, -2.067230713523579, 1};
Point(p10 + 16) = {30.65056633179134, -2.141481756559197, 1};
Point(p10 + 17) = {30.59954613314763, -2.224739153793574, 1};
Point(p10 + 18) = {30.5621784042094, -2.314952831791341, 1};
Point(p10 + 19) = {30.53938326247948, -2.40990143039816, 1};
Point(p10 + 20) = {30.531722, -2.507247, 1};
Point(p10 + 21) = {30.53938326247948, -2.60459256960184, 1};
Point(p10 + 22) = {30.5621784042094, -2.699541168208659, 1};
Point(p10 + 23) = {30.59954613314763, -2.789754846206426, 1};
Point(p10 + 24) = {30.65056633179134, -2.873012243440803, 1};
Point(p10 + 25) = {30.71398271352358, -2.947263286476421, 1};
Point(p10 + 26) = {30.78823375655919, -3.010679668208659, 1};
Point(p10 + 27) = {30.87149115379357, -3.061699866852365, 1};
Point(p10 + 28) = {30.96170483179134, -3.099067595790599, 1};
Point(p10 + 29) = {31.05665343039816, -3.12186273752052, 1};
Point(p10 + 30) = {31.153999, -3.129524, 1};
Point(p10 + 31) = {31.25134456960184, -3.12186273752052, 1};
Point(p10 + 32) = {31.34629316820866, -3.099067595790599, 1};
Point(p10 + 33) = {31.43650684620642, -3.061699866852365, 1};
Point(p10 + 34) = {31.5197642434408, -3.010679668208659, 1};
Point(p10 + 35) = {31.59401528647642, -2.947263286476421, 1};
Point(p10 + 36) = {31.65743166820866, -2.873012243440804, 1};
Point(p10 + 37) = {31.70845186685236, -2.789754846206426, 1};
Point(p10 + 38) = {31.7458195957906, -2.699541168208659, 1};
Point(p10 + 39) = {31.76861473752052, -2.60459256960184, 1};
Spline(10) = {8, p10 + 1, p10 + 2, p10 + 3, p10 + 4, p10 + 5, p10 + 6, p10 + 7, p10 + 8, p10 + 9, p10 + 10, p10 + 11, p10 + 12, p10 + 13, p10 + 14, p10 + 15, p10 + 16, p10 + 17, p10 + 18, p10 + 19, p10 + 20, p10 + 21, p10 + 22, p10 + 23, p10 + 24, p10 + 25, p10 + 26, p10 + 27, p10 + 28, p10 + 29, p10 + 30, p10 + 31, p10 + 32, p10 + 33, p10 + 34, p10 + 35, p10 + 36, p10 + 37, p10 + 38, p10 + 39, 8};
p11 = newp;
Point(p11 + 1) = {34.18968499596615, 4.248654682292966, 1};
Point(p11 + 2) = {34.16214489740283, 4.363367448507041, 1};
Point(p11 + 3) = {34.11699883293701, 4.47235968962819, 1};
Point(p11 + 4) = {34.05535844850704, 4.5729476549555, 1};
Point(p11 + 5) = {33.9787415349503, 4.662654534950296, 1};
Point(p11 + 6) = {33.8890346549555, 4.739271448507041, 1};
Point(p11 + 7) = {33.78844668962819, 4.800911832937009, 1};
Point(p11 + 8) = {33.67945444850704, 4.846057897402828, 1};
Point(p11 + 9) = {33.56474168229297, 4.87359799596615, 1};
Point(p11 + 10) = {33.447133, 4.882854, 1};
Point(p11 + 11) = {33.32952431770703, 4.87359799596615, 1};
Point(p11 + 12) = {33.21481155149296, 4.846057897402828, 1};
Point(p11 + 13) = {33.10581931037181, 4.800911832937009, 1};
Point(p11 + 14) = {33.0052313450445, 4.739271448507041, 1};
Point(p11 + 15) = {32.91552446504971, 4.662654534950296, 1};
Point(p11 + 16) = {32.83890755149296, 4.572947654955501, 1};
Point(p11 + 17) = {32.77726716706299, 4.47235968962819, 1};
Point(p11 + 18) = {32.73212110259718, 4.363367448507041, 1};
Point(p11 + 19) = {32.70458100403386, 4.248654682292966, 1};
Point(p11 + 20) = {32.695325, 4.131046, 1};
Point(p11 + 21) = {32.70458100403385, 4.013437317707035, 1};
Point(p11 + 22) = {32.73212110259718, 3.89872455149296, 1};
Point(p11 + 23) = {32.77726716706299, 3.789732310371812, 1};
Point(p11 + 24) = {32.83890755149296, 3.689144345044501, 1};
Point(p11 + 25) = {32.91552446504971, 3.599437465049705, 1};
Point(p11 + 26) = {33.0052313450445, 3.52282055149296, 1};
Point(p11 + 27) = {33.10581931037181, 3.461180167062992, 1};
Point(p11 + 28) = {33.21481155149296, 3.416034102597174, 1};
Point(p11 + 29) = {33.32952431770703, 3.388494004033851, 1};
Point(p11 + 30) = {33.447133, 3.379238, 1};
Point(p11 + 31) = {33.56474168229297, 3.388494004033851, 1};
Point(p11 + 32) = {33.67945444850704, 3.416034102597174, 1};
Point(p11 + 33) = {33.78844668962819, 3.461180167062992, 1};
Point(p11 + 34) = {33.8890346549555, 3.52282055149296, 1};
Point(p11 + 35) = {33.9787415349503, 3.599437465049705, 1};
Point(p11 + 36) = {34.05535844850704, 3.689144345044501, 1};
Point(p11 + 37) = {34.11699883293701, 3.789732310371811, 1};
Point(p11 + 38) = {34.16214489740283, 3.89872455149296, 1};
Point(p11 + 39) = {34.18968499596615, 4.013437317707035, 1};
Spline(11) = {9, p11 + 1, p11 + 2, p11 + 3, p11 + 4, p11 + 5, p11 + 6, p11 + 7, p11 + 8, p11 + 9, p11 + 10, p11 + 11, p11 + 12, p11 + 13, p11 + 14, p11 + 15, p11 + 16, p11 + 17, p11 + 18, p11 + 19, p11 + 20, p11 + 21, p11 + 22, p11 + 23, p11 + 24, p11 + 25, p11 + 26, p11 + 27, p11 + 28, p11 + 29, p11 + 30, p11 + 31, p11 + 32, p11 + 33, p11 + 34, p11 + 35, p11 + 36, p11 + 37, p11 + 38, p11 + 39, 9};
Line(12) = {4, 10};
Line(13) = {10, 7};
Line(14) = {5, 10};
p15 = newp;
Point(p15 + 1) = {31.76861473752052, -2.40990143039816, 0};
Point(p15 + 2) = {31.7458195957906, -2.314952831791341, 0};
Point(p15 + 3) = {31.70845186685236, -2.224739153793574, 0};
Point(p15 + 4) = {31.65743166820866, -2.141481756559197, 0};
Point(p15 + 5) = {31.59401528647642, -2.067230713523579, 0};
Point(p15 + 6) = {31.5197642434408, -2.003814331791341, 0};
Point(p15 + 7) = {31.43650684620642, -1.952794133147635, 0};
Point(p15 + 8) = {31.34629316820866, -1.915426404209401, 0};
Point(p15 + 9) = {31.25134456960184, -1.892631262479479, 0};
Point(p15 + 10) = {31.153999, -1.88497, 0};
Point(p15 + 11) = {31.05665343039816, -1.89263126247948, 0};
Point(p15 + 12) = {30.96170483179134, -1.915426404209401, 0};
Point(p15 + 13) = {30.87149115379357, -1.952794133147635, 0};
Point(p15 + 14) = {30.78823375655919, -2.003814331791341, 0};
Point(p15 + 15) = {30.71398271352358, -2.067230713523579, 0};
Point(p15 + 16) = {30.65056633179134, -2.141481756559197, 0};
Point(p15 + 17) = {30.59954613314763, -2.224739153793574, 0};
Point(p15 + 18) = {30.5621784042094, -2.314952831791341, 0};
Point(p15 + 19) = {30.53938326247948, -2.40990143039816, 0};
Point(p15 + 20) = {30.531722, -2.507247, 0};
Point(p15 + 21) = {30.53938326247948, -2.60459256960184, 0};
Point(p15 + 22) = {30.5621784042094, -2.699541168208659, 0};
Point(p15 + 23) = {30.59954613314763, -2.789754846206426, 0};
Point(p15 + 24) = {30.65056633179134, -2.873012243440803, 0};
Point(p15 + 25) = {30.71398271352358, -2.947263286476421, 0};
Point(p15 + 26) = {30.78823375655919, -3.010679668208659, 0};
Point(p15 + 27) = {30.87149115379357, -3.061699866852365, 0};
Point(p15 + 28) = {30.96170483179134, -3.099067595790599, 0};
Point(p15 + 29) = {31.05665343039816, -3.12186273752052, 0};
Point(p15 + 30) = {31.153999, -3.129524, 0};
Point(p15 + 31) = {31.25134456960184, -3.12186273752052, 0};
Point(p15 + 32) = {31.34629316820866, -3.099067595790599, 0};
Point(p15 + 33) = {31.43650684620642, -3.061699866852365, 0};
Point(p15 + 34) = {31.5197642434408, -3.010679668208659, 0};
Point(p15 + 35) = {31.59401528647642, -2.947263286476421, 0};
Point(p15 + 36) = {31.65743166820866, -2.873012243440804, 0};
Point(p15 + 37) = {31.70845186685236, -2.789754846206426, 0};
Point(p15 + 38) = {31.7458195957906, -2.699541168208659, 0};
Point(p15 + 39) = {31.76861473752052, -2.60459256960184, 0};
Spline(15) = {11, p15 + 1, p15 + 2, p15 + 3, p15 + 4, p15 + 5, p15 + 6, p15 + 7, p15 + 8, p15 + 9, p15 + 10, p15 + 11, p15 + 12, p15 + 13, p15 + 14, p15 + 15, p15 + 16, p15 + 17, p15 + 18, p15 + 19, p15 + 20, p15 + 21, p15 + 22, p15 + 23, p15 + 24, p15 + 25, p15 + 26, p15 + 27, p15 + 28, p15 + 29, p15 + 30, p15 + 31, p15 + 32, p15 + 33, p15 + 34, p15 + 35, p15 + 36, p15 + 37, p15 + 38, p15 + 39, 11};
p16 = newp;
Point(p16 + 1) = {34.18968499596615, 4.248654682292966, 0};
Point(p16 + 2) = {34.16214489740283, 4.363367448507041, 0};
Point(p16 + 3) = {34.11699883293701, 4.47235968962819, 0};
Point(p16 + 4) = {34.05535844850704, 4.5729476549555, 0};
Point(p16 + 5) = {33.9787415349503, 4.662654534950296, 0};
Point(p16 + 6) = {33.8890346549555, 4.739271448507041, 0};
Point(p16 + 7) = {33.78844668962819, 4.800911832937009, 0};
Point(p16 + 8) = {33.67945444850704, 4.846057897402828, 0};
Point(p16 + 9) = {33.56474168229297, 4.87359799596615, 0};
Point(p16 + 10) = {33.447133, 4.882854, 0};
Point(p16 + 11) = {33.32952431770703, 4.87359799596615, 0};
Point(p16 + 12) = {33.21481155149296, 4.846057897402828, 0};
Point(p16 + 13) = {33.10581931037181, 4.800911832937009, 0};
Point(p16 + 14) = {33.0052313450445, 4.739271448507041, 0};
Point(p16 + 15) = {32.91552446504971, 4.662654534950296, 0};
Point(p16 + 16) = {32.83890755149296, 4.572947654955501, 0};
Point(p16 + 17) = {32.77726716706299, 4.47235968962819, 0};
Point(p16 + 18) = {32.73212110259718, 4.363367448507041, 0};
Point(p16 + 19) = {32.70458100403386, 4.248654682292966, 0};
Point(p16 + 20) = {32.695325, 4.131046, 0};
Point(p16 + 21) = {32.70458100403385, 4.013437317707035, 0};
Point(p16 + 22) = {32.73212110259718, 3.89872455149296, 0};
Point(p16 + 23) = {32.77726716706299, 3.789732310371812, 0};
Point(p16 + 24) = {32.83890755149296, 3.689144345044501, 0};
Point(p16 + 25) = {32.91552446504971, 3.599437465049705, 0};
Point(p16 + 26) = {33.0052313450445, 3.52282055149296, 0};
Point(p16 + 27) = {33.10581931037181, 3.461180167062992, 0};
Point(p16 + 28) = {33.21481155149296, 3.416034102597174, 0};
Point(p16 + 29) = {33.32952431770703, 3.388494004033851, 0};
Point(p16 + 30) = {33.447133, 3.379238, 0};
Point(p16 + 31) = {33.56474168229297, 3.388494004033851, 0};
Point(p16 + 32) = {33.67945444850704, 3.416034102597174, 0};
Point(p16 + 33) = {33.78844668962819, 3.461180167062992, 0};
Point(p16 + 34) = {33.8890346549555, 3.52282055149296, 0};
Point(p16 + 35) = {33.9787415349503, 3.599437465049705, 0};
Point(p16 + 36) = {34.05535844850704, 3.689144345044501, 0};
Point(p16 + 37) = {34.11699883293701, 3.789732310371811, 0};
Point(p16 + 38) = {34.16214489740283, 3.89872455149296, 0};
Point(p16 + 39) = {34.18968499596615, 4.013437317707035, 0};
Spline(16) = {12, p16 + 1, p16 + 2, p16 + 3, p16 + 4, p16 + 5, p16 + 6, p16 + 7, p16 + 8, p16 + 9, p16 + 10, p16 + 11, p16 + 12, p16 + 13, p16 + 14, p16 + 15, p16 + 16, p16 + 17, p16 + 18, p16 + 19, p16 + 20, p16 + 21, p16 + 22, p16 + 23, p16 + 24, p16 + 25, p16 + 26, p16 + 27, p16 + 28, p16 + 29, p16 + 30, p16 + 31, p16 + 32, p16 + 33, p16 + 34, p16 + 35, p16 + 36, p16 + 37, p16 + 38, p16 + 39, 12};
Line(17) = {11, 8};
Line(18) = {12, 9};
Curve Loop(1) = {-1, 4, 3, -2};
Plane Surface(1) = {1};
Curve Loop(2) = {-5, 1, 7, -6};
Plane Surface(2) = {2};
Curve Loop(3) = {-2, 7, 9, -8, -10, -11};
Plane Surface(3) = {3};
Curve Loop(4) = {-12, 3, 8, -13};
Plane Surface(4) = {4};
Curve Loop(5) = {-4, 5, 14, -12, -15, -16};
Plane Surface(5) = {5};
Curve Loop(6) = {-6, 14, 13, -9};
Plane Surface(6) = {6};
Curve Loop(7) = {-10, -17, 15, 17};
Surface(7) = {7};
Curve Loop(8) = {-11, -18, 16, 18};
Surface(8) = {8};
Surface Loop(1) = {1, 2, 3, 4, 5, 6, 7, 8};
Volume(1) = {1};
Physical Surface("INFLOW") = {1};
Physical Surface("OUTFLOW") = {6};
Physical Surface("OBSTACLE") = {7, 8};
Physical Surface("WALL_Y") = {2, 4};
Physical Surface("WALL_Z") = {3, 5};
Physical Volume("FLUID") = {1};
