cl__1 = 1.024106;
cl__2 = 0.805055;
cl__3 = 3.813164;
cl__4 = 0.06431199999999999;
Point(1) = {0.531166, -3.396551, 1, cl__1};
Point(2) = {0.531166, -3.396551, 0, cl__1};
Point(3) = {0.531166, 4.528408000000001, 1, cl__2};
Point(4) = {0.531166, 4.528408000000001, 0, cl__2};
Point(5) = {37.925194, -3.396551, 0, cl__3};
Point(6) = {37.925194, -3.396551, 1, cl__3};
Point(7) = {37.925194, 4.528408000000001, 1, cl__3};
Point(8) = {9.776634999999999, 3.271653, 1, cl__4};
Point(9) = {37.925194, 4.528408000000001, 0, cl__3};
Point(10) = {9.776634999999999, 3.271653, 0, cl__4};
Line(1) = {2, 1};
Line(2) = {1, 3};
Line(3) = {4, 3};
Line(4) = {2, 4};
Line(5) = {2, 5};
Line(6) = {5, 6};
Line(7) = {1, 6};
Line(8) = {3, 7};
Line(9) = {6, 7};
p10 = newp;
Point(p10 + 1) = {9.768717150226863, 3.372258820287743, 1};
Point(p10 + 2) = {9.745158564646706, 3.470387391388428, 1};
Point(p10 + 3) = {9.706539333822974, 3.563622462211498, 1};
Point(p10 + 4) = {9.653810391388427, 3.649668275883831, 1};
Point(p10 + 5) = {9.588270098903129, 3.72640609890313, 1};
Point(p10 + 6) = {9.51153227588383, 3.791946391388428, 1};
Point(p10 + 7) = {9.425486462211497, 3.844675333822975, 1};
Point(p10 + 8) = {9.332251391388427, 3.883294564646707, 1};
Point(p10 + 9) = {9.234122820287743, 3.906853150226864, 1};
Point(p10 + 10) = {9.133516999999999, 3.914771, 1};
Point(p10 + 11) = {9.032911179712256, 3.906853150226864, 1};
Point(p10 + 12) = {8.934782608611572, 3.883294564646707, 1};
Point(p10 + 13) = {8.841547537788502, 3.844675333822975, 1};
Point(p10 + 14) = {8.755501724116169, 3.791946391388428, 1};
Point(p10 + 15) = {8.67876390109687, 3.72640609890313, 1};
Point(p10 + 16) = {8.613223608611571, 3.649668275883831, 1};
Point(p10 + 17) = {8.560494666177025, 3.563622462211498, 1};
Point(p10 + 18) = {8.521875435353293, 3.470387391388428, 1};
Point(p10 + 19) = {8.498316849773136, 3.372258820287743, 1};
Point(p10 + 20) = {8.490399, 3.271653, 1};
Point(p10 + 21) = {8.498316849773136, 3.171047179712257, 1};
Point(p10 + 22) = {8.521875435353293, 3.072918608611572, 1};
Point(p10 + 23) = {8.560494666177025, 2.979683537788503, 1};
Point(p10 + 24) = {8.613223608611571, 2.89363772411617, 1};
Point(p10 + 25) = {8.67876390109687, 2.81689990109687, 1};
Point(p10 + 26) = {8.755501724116169, 2.751359608611573, 1};
Point(p10 + 27) = {8.841547537788502, 2.698630666177025, 1};
Point(p10 + 28) = {8.934782608611572, 2.660011435353294, 1};
Point(p10 + 29) = {9.032911179712256, 2.636452849773137, 1};
Point(p10 + 30) = {9.133516999999999, 2.628535, 1};
Point(p10 + 31) = {9.234122820287743, 2.636452849773137, 1};
Point(p10 + 32) = {9.332251391388427, 2.660011435353294, 1};
Point(p10 + 33) = {9.425486462211497, 2.698630666177025, 1};
Point(p10 + 34) = {9.51153227588383, 2.751359608611573, 1};
Point(p10 + 35) = {9.588270098903129, 2.81689990109687, 1};
Point(p10 + 36) = {9.653810391388427, 2.893637724116169, 1};
Point(p10 + 37) = {9.706539333822974, 2.979683537788502, 1};
Point(p10 + 38) = {9.745158564646706, 3.072918608611573, 1};
Point(p10 + 39) = {9.768717150226863, 3.171047179712257, 1};
Spline(10) = {8, p10 + 1, p10 + 2, p10 + 3, p10 + 4, p10 + 5, p10 + 6, p10 + 7, p10 + 8, p10 + 9, p10 + 10, p10 + 11, p10 + 12, p10 + 13, p10 + 14, p10 + 15, p10 + 16, p10 + 17, p10 + 18, p10 + 19, p10 + 20, p10 + 21, p10 + 22, p10 + 23, p10 + 24, p10 + 25, p10 + 26, p10 + 27, p10 + 28, p10 + 29, p10 + 30, p10 + 31, p10 + 32, p10 + 33, p10 + 34, p10 + 35, p10 + 36, p10 + 37, p10 + 38, p10 + 39, 8};
Line(11) = {4, 9};
Line(12) = {9, 7};
Line(13) = {5, 9};
p14 = newp;
Point(p14 + 1) = {9.768717150226863, 3.372258820287743, 0};
Point(p14 + 2) = {9.745158564646706, 3.470387391388428, 0};
Point(p14 + 3) = {9.706539333822974, 3.563622462211498, 0};
Point(p14 + 4) = {9.653810391388427, 3.649668275883831, 0};
Point(p14 + 5) = {9.588270098903129, 3.72640609890313, 0};
Point(p14 + 6) = {9.51153227588383, 3.791946391388428, 0};
Point(p14 + 7) = {9.425486462211497, 3.844675333822975, 0};
Point(p14 + 8) = {9.332251391388427, 3.883294564646707, 0};
Point(p14 + 9) = {9.234122820287743, 3.906853150226864, 0};
Point(p14 + 10) = {9.133516999999999, 3.914771, 0};
Point(p14 + 11) = {9.032911179712256, 3.906853150226864, 0};
Point(p14 + 12) = {8.934782608611572, 3.883294564646707, 0};
Point(p14 + 13) = {8.841547537788502, 3.844675333822975, 0};
Point(p14 + 14) = {8.755501724116169, 3.791946391388428, 0};
Point(p14 + 15) = {8.67876390109687, 3.72640609890313, 0};
Point(p14 + 16) = {8.613223608611571, 3.649668275883831, 0};
Point(p14 + 17) = {8.560494666177025, 3.563622462211498, 0};
Point(p14 + 18) = {8.521875435353293, 3.470387391388428, 0};
Point(p14 + 19) = {8.498316849773136, 3.372258820287743, 0};
Point(p14 + 20) = {8.490399, 3.271653, 0};
Point(p14 + 21) = {8.498316849773136, 3.171047179712257, 0};
Point(p14 + 22) = {8.521875435353293, 3.072918608611572, 0};
Point(p14 + 23) = {8.560494666177025, 2.979683537788503, 0};
Point(p14 + 24) = {8.613223608611571, 2.89363772411617, 0};
Point(p14 + 25) = {8.67876390109687, 2.81689990109687, 0};
Point(p14 + 26) = {8.755501724116169, 2.751359608611573, 0};
Point(p14 + 27) = {8.841547537788502, 2.698630666177025, 0};
Point(p14 + 28) = {8.934782608611572, 2.660011435353294, 0};
Point(p14 + 29) = {9.032911179712256, 2.636452849773137, 0};
Point(p14 + 30) = {9.133516999999999, 2.628535, 0};
Point(p14 + 31) = {9.234122820287743, 2.636452849773137, 0};
Point(p14 + 32) = {9.332251391388427, 2.660011435353294, 0};
Point(p14 + 33) = {9.425486462211497, 2.698630666177025, 0};
Point(p14 + 34) = {9.51153227588383, 2.751359608611573, 0};
Point(p14 + 35) = {9.588270098903129, 2.81689990109687, 0};
Point(p14 + 36) = {9.653810391388427, 2.893637724116169, 0};
Point(p14 + 37) = {9.706539333822974, 2.979683537788502, 0};
Point(p14 + 38) = {9.745158564646706, 3.072918608611573, 0};
Point(p14 + 39) = {9.768717150226863, 3.171047179712257, 0};
Spline(14) = {10, p14 + 1, p14 + 2, p14 + 3, p14 + 4, p14 + 5, p14 + 6, p14 + 7, p14 + 8, p14 + 9, p14 + 10, p14 + 11, p14 + 12, p14 + 13, p14 + 14, p14 + 15, p14 + 16, p14 + 17, p14 + 18, p14 + 19, p14 + 20, p14 + 21, p14 + 22, p14 + 23, p14 + 24, p14 + 25, p14 + 26, p14 + 27, p14 + 28, p14 + 29, p14 + 30, p14 + 31, p14 + 32, p14 + 33, p14 + 34, p14 + 35, p14 + 36, p14 + 37, p14 + 38, p14 + 39, 10};
Line(15) = {10, 8};
Curve Loop(1) = {-1, 4, 3, -2};
Plane Surface(1) = {1};
Curve Loop(2) = {-5, 1, 7, -6};
Plane Surface(2) = {2};
Curve Loop(3) = {-2, 7, 9, -8, -10};
Plane Surface(3) = {3};
Curve Loop(4) = {-11, 3, 8, -12};
Plane Surface(4) = {4};
Curve Loop(5) = {-4, 5, 13, -11, -14};
Plane Surface(5) = {5};
Curve Loop(6) = {-6, 13, 12, -9};
Plane Surface(6) = {6};
Curve Loop(7) = {-10, -15, 14, 15};
Surface(7) = {7};
Surface Loop(1) = {1, 2, 3, 4, 5, 6, 7};
Volume(1) = {1};
Physical Surface("INFLOW") = {1};
Physical Surface("OUTFLOW") = {6};
Physical Surface("OBSTACLE") = {7};
Physical Surface("WALL_Y") = {2, 4};
Physical Surface("WALL_Z") = {3, 5};
Physical Volume("FLUID") = {1};
