cl__1 = 1.469588;
cl__2 = 1.482269;
cl__3 = 3.669725;
cl__4 = 0.123236;
Point(1) = {0.628248, -3.232762, 1, cl__1};
Point(2) = {0.628248, -3.232762, 0, cl__1};
Point(3) = {0.628248, 5.03957, 1, cl__2};
Point(4) = {0.628248, 5.03957, 0, cl__2};
Point(5) = {36.463406, -3.232762, 0, cl__3};
Point(6) = {36.463406, -3.232762, 1, cl__3};
Point(7) = {36.463406, 5.03957, 1, cl__3};
Point(8) = {17.306275, 0.6582609999999997, 1, cl__4};
Point(9) = {36.463406, 5.03957, 0, cl__3};
Point(10) = {17.306275, 0.6582609999999997, 0, cl__4};
Line(1) = {2, 1};
Line(2) = {1, 3};
Line(3) = {4, 3};
Line(4) = {2, 4};
Line(5) = {2, 5};
Line(6) = {5, 6};
Line(7) = {1, 6};
Line(8) = {3, 7};
Line(9) = {6, 7};
p10 = newp;
Point(p10 + 1) = {17.29110260341582, 0.8510445773369789, 1};
Point(p10 + 2) = {17.24595900842149, 1.03908118318791, 1};
Point(p10 + 3) = {17.17195580014878, 1.217740732259028, 1};
Point(p10 + 4) = {17.07091518318791, 1.382624033515152, 1};
Point(p10 + 5) = {16.94532511286305, 1.529671112863054, 1};
Point(p10 + 6) = {16.79827803351515, 1.65526118318791, 1};
Point(p10 + 7) = {16.63339473225903, 1.756301800148777, 1};
Point(p10 + 8) = {16.45473518318791, 1.830305008421495, 1};
Point(p10 + 9) = {16.26669857733698, 1.875448603415824, 1};
Point(p10 + 10) = {16.073915, 1.890621, 1};
Point(p10 + 11) = {15.88113142266302, 1.875448603415824, 1};
Point(p10 + 12) = {15.69309481681209, 1.830305008421495, 1};
Point(p10 + 13) = {15.51443526774097, 1.756301800148777, 1};
Point(p10 + 14) = {15.34955196648485, 1.65526118318791, 1};
Point(p10 + 15) = {15.20250488713695, 1.529671112863054, 1};
Point(p10 + 16) = {15.07691481681209, 1.382624033515152, 1};
Point(p10 + 17) = {14.97587419985122, 1.217740732259028, 1};
Point(p10 + 18) = {14.9018709915785, 1.03908118318791, 1};
Point(p10 + 19) = {14.85672739658418, 0.851044577336979, 1};
Point(p10 + 20) = {14.841555, 0.6582610000000001, 1};
Point(p10 + 21) = {14.85672739658418, 0.4654774226630213, 1};
Point(p10 + 22) = {14.9018709915785, 0.2774408168120894, 1};
Point(p10 + 23) = {14.97587419985122, 0.09878126774097284, 1};
Point(p10 + 24) = {15.07691481681209, -0.06610203351515198, 1};
Point(p10 + 25) = {15.20250488713695, -0.2131491128630536, 1};
Point(p10 + 26) = {15.34955196648485, -0.3387391831879101, 1};
Point(p10 + 27) = {15.51443526774097, -0.4397798001487769, 1};
Point(p10 + 28) = {15.69309481681209, -0.5137830084214954, 1};
Point(p10 + 29) = {15.88113142266302, -0.5589266034158238, 1};
Point(p10 + 30) = {16.073915, -0.5740989999999999, 1};
Point(p10 + 31) = {16.26669857733698, -0.558926603415824, 1};
Point(p10 + 32) = {16.45473518318791, -0.5137830084214954, 1};
Point(p10 + 33) = {16.63339473225903, -0.4397798001487769, 1};
Point(p10 + 34) = {16.79827803351515, -0.3387391831879103, 1};
Point(p10 + 35) = {16.94532511286305, -0.2131491128630538, 1};
Point(p10 + 36) = {17.07091518318791, -0.06610203351515243, 1};
Point(p10 + 37) = {17.17195580014878, 0.09878126774097196, 1};
Point(p10 + 38) = {17.24595900842149, 0.2774408168120896, 1};
Point(p10 + 39) = {17.29110260341582, 0.4654774226630208, 1};
Spline(10) = {8, p10 + 1, p10 + 2, p10 + 3, p10 + 4, p10 + 5, p10 + 6, p10 + 7, p10 + 8, p10 + 9, p10 + 10, p10 + 11, p10 + 12, p10 + 13, p10 + 14, p10 + 15, p10 + 16, p10 + 17, p10 + 18, p10 + 19, p10 + 20, p10 + 21, p10 + 22, p10 + 23, p10 + 24, p10 + 25, p10 + 26, p10 + 27, p10 + 28, p10 + 29, p10 + 30, p10 + 31, p10 + 32, p10 + 33, p10 + 34, p10 + 35, p10 + 36, p10 + 37, p10 + 38, p10 + 39, 8};
Line(11) = {4, 9};
Line(12) = {9, 7};
Line(13) = {5, 9};
p14 = newp;
Point(p14 + 1) = {17.29110260341582, 0.8510445773369789, 0};
Point(p14 + 2) = {17.24595900842149, 1.03908118318791, 0};
Point(p14 + 3) = {17.17195580014878, 1.217740732259028, 0};
Point(p14 + 4) = {17.07091518318791, 1.382624033515152, 0};
Point(p14 + 5) = {16.94532511286305, 1.529671112863054, 0};
Point(p14 + 6) = {16.79827803351515, 1.65526118318791, 0};
Point(p14 + 7) = {16.63339473225903, 1.756301800148777, 0};
Point(p14 + 8) = {16.45473518318791, 1.830305008421495, 0};
Point(p14 + 9) = {16.26669857733698, 1.875448603415824, 0};
Point(p14 + 10) = {16.073915, 1.890621, 0};
Point(p14 + 11) = {15.88113142266302, 1.875448603415824, 0};
Point(p14 + 12) = {15.69309481681209, 1.830305008421495, 0};
Point(p14 + 13) = {15.51443526774097, 1.756301800148777, 0};
Point(p14 + 14) = {15.34955196648485, 1.65526118318791, 0};
Point(p14 + 15) = {15.20250488713695, 1.529671112863054, 0};
Point(p14 + 16) = {15.07691481681209, 1.382624033515152, 0};
Point(p14 + 17) = {14.97587419985122, 1.217740732259028, 0};
Point(p14 + 18) = {14.9018709915785, 1.03908118318791, 0};
Point(p14 + 19) = {14.85672739658418, 0.851044577336979, 0};
Point(p14 + 20) = {14.841555, 0.6582610000000001, 0};
Point(p14 + 21) = {14.85672739658418, 0.4654774226630213, 0};
Point(p14 + 22) = {14.9018709915785, 0.2774408168120894, 0};
Point(p14 + 23) = {14.97587419985122, 0.09878126774097284, 0};
Point(p14 + 24) = {15.07691481681209, -0.06610203351515198, 0};
Point(p14 + 25) = {15.20250488713695, -0.2131491128630536, 0};
Point(p14 + 26) = {15.34955196648485, -0.3387391831879101, 0};
Point(p14 + 27) = {15.51443526774097, -0.4397798001487769, 0};
Point(p14 + 28) = {15.69309481681209, -0.5137830084214954, 0};
Point(p14 + 29) = {15.88113142266302, -0.5589266034158238, 0};
Point(p14 + 30) = {16.073915, -0.5740989999999999, 0};
Point(p14 + 31) = {16.26669857733698, -0.558926603415824, 0};
Point(p14 + 32) = {16.45473518318791, -0.5137830084214954, 0};
Point(p14 + 33) = {16.63339473225903, -0.4397798001487769, 0};
Point(p14 + 34) = {16.79827803351515, -0.3387391831879103, 0};
Point(p14 + 35) = {16.94532511286305, -0.2131491128630538, 0};
Point(p14 + 36) = {17.07091518318791, -0.06610203351515243, 0};
Point(p14 + 37) = {17.17195580014878, 0.09878126774097196, 0};
Point(p14 + 38) = {17.24595900842149, 0.2774408168120896, 0};
Point(p14 + 39) = {17.29110260341582, 0.4654774226630208, 0};
Spline(14) = {10, p14 + 1, p14 + 2, p14 + 3, p14 + 4, p14 + 5, p14 + 6, p14 + 7, p14 + 8, p14 + 9, p14 + 10, p14 + 11, p14 + 12, p14 + 13, p14 + 14, p14 + 15, p14 + 16, p14 + 17, p14 + 18, p14 + 19, p14 + 20, p14 + 21, p14 + 22, p14 + 23, p14 + 24, p14 + 25, p14 + 26, p14 + 27, p14 + 28, p14 + 29, p14 + 30, p14 + 31, p14 + 32, p14 + 33, p14 + 34, p14 + 35, p14 + 36, p14 + 37, p14 + 38, p14 + 39, 10};
Line(15) = {10, 8};
Curve Loop(1) = {-1, 4, 3, -2};
Plane Surface(1) = {1};
Curve Loop(2) = {-5, 1, 7, -6};
Plane Surface(2) = {2};
Curve Loop(3) = {-2, 7, 9, -8, -10};
Plane Surface(3) = {3};
Curve Loop(4) = {-11, 3, 8, -12};
Plane Surface(4) = {4};
Curve Loop(5) = {-4, 5, 13, -11, -14};
Plane Surface(5) = {5};
Curve Loop(6) = {-6, 13, 12, -9};
Plane Surface(6) = {6};
Curve Loop(7) = {-10, -15, 14, 15};
Surface(7) = {7};
Surface Loop(1) = {1, 2, 3, 4, 5, 6, 7};
Volume(1) = {1};
Physical Surface("INFLOW") = {1};
Physical Surface("OUTFLOW") = {6};
Physical Surface("OBSTACLE") = {7};
Physical Surface("WALL_Y") = {2, 4};
Physical Surface("WALL_Z") = {3, 5};
Physical Volume("FLUID") = {1};
