cl__1 = 3.663422;
cl__2 = 0.645945;
cl__3 = 0.566545;
cl__4 = 0.065096;
Point(1) = {0.924154, -3.96616, 1, cl__1};
Point(2) = {0.924154, -3.96616, 0, cl__1};
Point(3) = {0.924154, 5.095143999999999, 1, cl__1};
Point(4) = {0.924154, 5.095143999999999, 0, cl__1};
Point(5) = {36.352983, -3.96616, 0, cl__2};
Point(6) = {36.352983, -3.96616, 1, cl__2};
Point(7) = {36.352983, 5.095143999999999, 1, cl__3};
Point(8) = {32.068909, 1.152756, 1, cl__4};
Point(9) = {36.352983, 5.095143999999999, 0, cl__3};
Point(10) = {32.068909, 1.152756, 0, cl__4};
Line(1) = {2, 1};
Line(2) = {1, 3};
Line(3) = {4, 3};
Line(4) = {2, 4};
Line(5) = {2, 5};
Line(6) = {5, 6};
Line(7) = {1, 6};
Line(8) = {3, 7};
Line(9) = {6, 7};
p10 = newp;
Point(p10 + 1) = {32.06089463912879, 1.254588110059193, 1};
Point(p10 + 2) = {32.03704889667794, 1.353912775607333, 1};
Point(p10 + 3) = {31.99795893396609, 1.448284293738956, 1};
Point(p10 + 4) = {31.94458727560733, 1.535378924476551, 1};
Point(p10 + 5) = {31.87824810896085, 1.613052108960851, 1};
Point(p10 + 6) = {31.80057492447655, 1.679391275607333, 1};
Point(p10 + 7) = {31.71348029373896, 1.732762933966087, 1};
Point(p10 + 8) = {31.61910877560733, 1.771852896677944, 1};
Point(p10 + 9) = {31.51978411005919, 1.795698639128789, 1};
Point(p10 + 10) = {31.417952, 1.803713, 1};
Point(p10 + 11) = {31.31611988994081, 1.795698639128789, 1};
Point(p10 + 12) = {31.21679522439267, 1.771852896677944, 1};
Point(p10 + 13) = {31.12242370626104, 1.732762933966087, 1};
Point(p10 + 14) = {31.03532907552345, 1.679391275607333, 1};
Point(p10 + 15) = {30.95765589103915, 1.613052108960851, 1};
Point(p10 + 16) = {30.89131672439267, 1.535378924476551, 1};
Point(p10 + 17) = {30.83794506603391, 1.448284293738956, 1};
Point(p10 + 18) = {30.79885510332205, 1.353912775607333, 1};
Point(p10 + 19) = {30.77500936087121, 1.254588110059194, 1};
Point(p10 + 20) = {30.766995, 1.152756, 1};
Point(p10 + 21) = {30.77500936087121, 1.050923889940806, 1};
Point(p10 + 22) = {30.79885510332205, 0.951599224392667, 1};
Point(p10 + 23) = {30.83794506603391, 0.8572277062610441, 1};
Point(p10 + 24) = {30.89131672439267, 0.7701330755234486, 1};
Point(p10 + 25) = {30.95765589103915, 0.6924598910391485, 1};
Point(p10 + 26) = {31.03532907552345, 0.6261207243926673, 1};
Point(p10 + 27) = {31.12242370626104, 0.5727490660339125, 1};
Point(p10 + 28) = {31.21679522439267, 0.5336591033220556, 1};
Point(p10 + 29) = {31.31611988994081, 0.5098133608712109, 1};
Point(p10 + 30) = {31.417952, 0.5017989999999999, 1};
Point(p10 + 31) = {31.51978411005919, 0.5098133608712108, 1};
Point(p10 + 32) = {31.61910877560733, 0.5336591033220556, 1};
Point(p10 + 33) = {31.71348029373896, 0.5727490660339125, 1};
Point(p10 + 34) = {31.80057492447655, 0.6261207243926672, 1};
Point(p10 + 35) = {31.87824810896085, 0.6924598910391484, 1};
Point(p10 + 36) = {31.94458727560733, 0.7701330755234483, 1};
Point(p10 + 37) = {31.99795893396609, 0.8572277062610436, 1};
Point(p10 + 38) = {32.03704889667794, 0.9515992243926671, 1};
Point(p10 + 39) = {32.06089463912879, 1.050923889940806, 1};
Spline(10) = {8, p10 + 1, p10 + 2, p10 + 3, p10 + 4, p10 + 5, p10 + 6, p10 + 7, p10 + 8, p10 + 9, p10 + 10, p10 + 11, p10 + 12, p10 + 13, p10 + 14, p10 + 15, p10 + 16, p10 + 17, p10 + 18, p10 + 19, p10 + 20, p10 + 21, p10 + 22, p10 + 23, p10 + 24, p10 + 25, p10 + 26, p10 + 27, p10 + 28, p10 + 29, p10 + 30, p10 + 31, p10 + 32, p10 + 33, p10 + 34, p10 + 35, p10 + 36, p10 + 37, p10 + 38, p10 + 39, 8};
Line(11) = {4, 9};
Line(12) = {9, 7};
Line(13) = {5, 9};
p14 = newp;
Point(p14 + 1) = {32.06089463912879, 1.254588110059193, 0};
Point(p14 + 2) = {32.03704889667794, 1.353912775607333, 0};
Point(p14 + 3) = {31.99795893396609, 1.448284293738956, 0};
Point(p14 + 4) = {31.94458727560733, 1.535378924476551, 0};
Point(p14 + 5) = {31.87824810896085, 1.613052108960851, 0};
Point(p14 + 6) = {31.80057492447655, 1.679391275607333, 0};
Point(p14 + 7) = {31.71348029373896, 1.732762933966087, 0};
Point(p14 + 8) = {31.61910877560733, 1.771852896677944, 0};
Point(p14 + 9) = {31.51978411005919, 1.795698639128789, 0};
Point(p14 + 10) = {31.417952, 1.803713, 0};
Point(p14 + 11) = {31.31611988994081, 1.795698639128789, 0};
Point(p14 + 12) = {31.21679522439267, 1.771852896677944, 0};
Point(p14 + 13) = {31.12242370626104, 1.732762933966087, 0};
Point(p14 + 14) = {31.03532907552345, 1.679391275607333, 0};
Point(p14 + 15) = {30.95765589103915, 1.613052108960851, 0};
Point(p14 + 16) = {30.89131672439267, 1.535378924476551, 0};
Point(p14 + 17) = {30.83794506603391, 1.448284293738956, 0};
Point(p14 + 18) = {30.79885510332205, 1.353912775607333, 0};
Point(p14 + 19) = {30.77500936087121, 1.254588110059194, 0};
Point(p14 + 20) = {30.766995, 1.152756, 0};
Point(p14 + 21) = {30.77500936087121, 1.050923889940806, 0};
Point(p14 + 22) = {30.79885510332205, 0.951599224392667, 0};
Point(p14 + 23) = {30.83794506603391, 0.8572277062610441, 0};
Point(p14 + 24) = {30.89131672439267, 0.7701330755234486, 0};
Point(p14 + 25) = {30.95765589103915, 0.6924598910391485, 0};
Point(p14 + 26) = {31.03532907552345, 0.6261207243926673, 0};
Point(p14 + 27) = {31.12242370626104, 0.5727490660339125, 0};
Point(p14 + 28) = {31.21679522439267, 0.5336591033220556, 0};
Point(p14 + 29) = {31.31611988994081, 0.5098133608712109, 0};
Point(p14 + 30) = {31.417952, 0.5017989999999999, 0};
Point(p14 + 31) = {31.51978411005919, 0.5098133608712108, 0};
Point(p14 + 32) = {31.61910877560733, 0.5336591033220556, 0};
Point(p14 + 33) = {31.71348029373896, 0.5727490660339125, 0};
Point(p14 + 34) = {31.80057492447655, 0.6261207243926672, 0};
Point(p14 + 35) = {31.87824810896085, 0.6924598910391484, 0};
Point(p14 + 36) = {31.94458727560733, 0.7701330755234483, 0};
Point(p14 + 37) = {31.99795893396609, 0.8572277062610436, 0};
Point(p14 + 38) = {32.03704889667794, 0.9515992243926671, 0};
Point(p14 + 39) = {32.06089463912879, 1.050923889940806, 0};
Spline(14) = {10, p14 + 1, p14 + 2, p14 + 3, p14 + 4, p14 + 5, p14 + 6, p14 + 7, p14 + 8, p14 + 9, p14 + 10, p14 + 11, p14 + 12, p14 + 13, p14 + 14, p14 + 15, p14 + 16, p14 + 17, p14 + 18, p14 + 19, p14 + 20, p14 + 21, p14 + 22, p14 + 23, p14 + 24, p14 + 25, p14 + 26, p14 + 27, p14 + 28, p14 + 29, p14 + 30, p14 + 31, p14 + 32, p14 + 33, p14 + 34, p14 + 35, p14 + 36, p14 + 37, p14 + 38, p14 + 39, 10};
Line(15) = {10, 8};
Curve Loop(1) = {-1, 4, 3, -2};
Plane Surface(1) = {1};
Curve Loop(2) = {-5, 1, 7, -6};
Plane Surface(2) = {2};
Curve Loop(3) = {-2, 7, 9, -8, -10};
Plane Surface(3) = {3};
Curve Loop(4) = {-11, 3, 8, -12};
Plane Surface(4) = {4};
Curve Loop(5) = {-4, 5, 13, -11, -14};
Plane Surface(5) = {5};
Curve Loop(6) = {-6, 13, 12, -9};
Plane Surface(6) = {6};
Curve Loop(7) = {-10, -15, 14, 15};
Surface(7) = {7};
Surface Loop(1) = {1, 2, 3, 4, 5, 6, 7};
Volume(1) = {1};
Physical Surface("INFLOW") = {1};
Physical Surface("OUTFLOW") = {6};
Physical Surface("OBSTACLE") = {7};
Physical Surface("WALL_Y") = {2, 4};
Physical Surface("WALL_Z") = {3, 5};
Physical Volume("FLUID") = {1};
