cl__1 = 1.732778;
cl__2 = 0.590827;
cl__3 = 3.88416;
cl__4 = 0.065008;
cl__5 = 0.091937;
Point(1) = {0.508825, -4.011651, 1, cl__1};
Point(2) = {0.508825, -4.011651, 0, cl__1};
Point(3) = {0.508825, 4.099728, 1, cl__2};
Point(4) = {0.508825, 4.099728, 0, cl__2};
Point(5) = {38.629285, -4.011651, 0, cl__1};
Point(6) = {38.629285, -4.011651, 1, cl__1};
Point(7) = {38.629285, 4.099728, 1, cl__3};
Point(8) = {18.874014, -0.9491980000000002, 1, cl__4};
Point(9) = {36.22451400000001, 1.952132, 1, cl__5};
Point(10) = {38.629285, 4.099728, 0, cl__3};
Point(11) = {18.874014, -0.9491980000000002, 0, cl__4};
Point(12) = {36.22451400000001, 1.952132, 0, cl__5};
Line(1) = {2, 1};
Line(2) = {1, 3};
Line(3) = {4, 3};
Line(4) = {2, 4};
Line(5) = {2, 5};
Line(6) = {5, 6};
Line(7) = {1, 6};
Line(8) = {3, 7};
Line(9) = {6, 7};
p10 = newp;
Point(p10 + 1) = {18.86601037489579, -0.8475023007943215, 1};
Point(p10 + 2) = {18.84219657539573, -0.7483106872117623, 1};
Point(p10 + 3) = {18.80315897627699, -0.6540655859768167, 1};
Point(p10 + 4) = {18.74985881278824, -0.5670876242634475, 1};
Point(p10 + 5) = {18.68360851184766, -0.4895184881523433, 1};
Point(p10 + 6) = {18.60603937573655, -0.4232681872117623, 1};
Point(p10 + 7) = {18.51906141402318, -0.3699680237230049, 1};
Point(p10 + 8) = {18.42481631278823, -0.330930424604265, 1};
Point(p10 + 9) = {18.32562469920568, -0.3071166251042098, 1};
Point(p10 + 10) = {18.223929, -0.299113, 1};
Point(p10 + 11) = {18.12223330079432, -0.3071166251042099, 1};
Point(p10 + 12) = {18.02304168721176, -0.330930424604265, 1};
Point(p10 + 13) = {17.92879658597682, -0.3699680237230049, 1};
Point(p10 + 14) = {17.84181862426345, -0.4232681872117623, 1};
Point(p10 + 15) = {17.76424948815234, -0.4895184881523432, 1};
Point(p10 + 16) = {17.69799918721176, -0.5670876242634475, 1};
Point(p10 + 17) = {17.644699023723, -0.6540655859768166, 1};
Point(p10 + 18) = {17.60566142460426, -0.7483106872117622, 1};
Point(p10 + 19) = {17.58184762510421, -0.8475023007943214, 1};
Point(p10 + 20) = {17.573844, -0.9491979999999999, 1};
Point(p10 + 21) = {17.58184762510421, -1.050893699205678, 1};
Point(p10 + 22) = {17.60566142460426, -1.150085312788238, 1};
Point(p10 + 23) = {17.644699023723, -1.244330414023183, 1};
Point(p10 + 24) = {17.69799918721176, -1.331308375736552, 1};
Point(p10 + 25) = {17.76424948815234, -1.408877511847657, 1};
Point(p10 + 26) = {17.84181862426345, -1.475127812788238, 1};
Point(p10 + 27) = {17.92879658597682, -1.528427976276995, 1};
Point(p10 + 28) = {18.02304168721176, -1.567465575395735, 1};
Point(p10 + 29) = {18.12223330079432, -1.59127937489579, 1};
Point(p10 + 30) = {18.223929, -1.599283, 1};
Point(p10 + 31) = {18.32562469920568, -1.59127937489579, 1};
Point(p10 + 32) = {18.42481631278823, -1.567465575395735, 1};
Point(p10 + 33) = {18.51906141402318, -1.528427976276995, 1};
Point(p10 + 34) = {18.60603937573655, -1.475127812788238, 1};
Point(p10 + 35) = {18.68360851184766, -1.408877511847657, 1};
Point(p10 + 36) = {18.74985881278824, -1.331308375736552, 1};
Point(p10 + 37) = {18.80315897627699, -1.244330414023183, 1};
Point(p10 + 38) = {18.84219657539573, -1.150085312788238, 1};
Point(p10 + 39) = {18.86601037489579, -1.050893699205679, 1};
Spline(10) = {8, p10 + 1, p10 + 2, p10 + 3, p10 + 4, p10 + 5, p10 + 6, p10 + 7, p10 + 8, p10 + 9, p10 + 10, p10 + 11, p10 + 12, p10 + 13, p10 + 14, p10 + 15, p10 + 16, p10 + 17, p10 + 18, p10 + 19, p10 + 20, p10 + 21, p10 + 22, p10 + 23, p10 + 24, p10 + 25, p10 + 26, p10 + 27, p10 + 28, p10 + 29, p10 + 30, p10 + 31, p10 + 32, p10 + 33, p10 + 34, p10 + 35, p10 + 36, p10 + 37, p10 + 38, p10 + 39, 8};
p11 = newp;
Point(p11 + 1) = {36.21319504200461, 2.095952997689572, 1};
Point(p11 + 2) = {36.17951687832976, 2.236232645101501, 1};
Point(p11 + 3) = {36.12430877713654, 2.369516791755047, 1};
Point(p11 + 4) = {36.0489301451015, 2.492523539614879, 1};
Point(p11 + 5) = {35.9552370543127, 2.602224054312695, 1};
Point(p11 + 6) = {35.84553653961488, 2.695917145101501, 1};
Point(p11 + 7) = {35.72252979175505, 2.771295777136535, 1};
Point(p11 + 8) = {35.58924564510151, 2.826503878329759, 1};
Point(p11 + 9) = {35.44896599768958, 2.860182042004611, 1};
Point(p11 + 10) = {35.305145, 2.871501, 1};
Point(p11 + 11) = {35.16132400231043, 2.860182042004611, 1};
Point(p11 + 12) = {35.0210443548985, 2.826503878329759, 1};
Point(p11 + 13) = {34.88776020824496, 2.771295777136536, 1};
Point(p11 + 14) = {34.76475346038512, 2.695917145101501, 1};
Point(p11 + 15) = {34.65505294568731, 2.602224054312695, 1};
Point(p11 + 16) = {34.56135985489851, 2.492523539614879, 1};
Point(p11 + 17) = {34.48598122286347, 2.369516791755047, 1};
Point(p11 + 18) = {34.43077312167024, 2.236232645101501, 1};
Point(p11 + 19) = {34.39709495799539, 2.095952997689572, 1};
Point(p11 + 20) = {34.385776, 1.952132, 1};
Point(p11 + 21) = {34.39709495799539, 1.808311002310428, 1};
Point(p11 + 22) = {34.43077312167024, 1.668031354898499, 1};
Point(p11 + 23) = {34.48598122286347, 1.534747208244953, 1};
Point(p11 + 24) = {34.56135985489851, 1.411740460385121, 1};
Point(p11 + 25) = {34.65505294568731, 1.302039945687305, 1};
Point(p11 + 26) = {34.76475346038512, 1.208346854898499, 1};
Point(p11 + 27) = {34.88776020824496, 1.132968222863465, 1};
Point(p11 + 28) = {35.0210443548985, 1.077760121670241, 1};
Point(p11 + 29) = {35.16132400231043, 1.044081957995389, 1};
Point(p11 + 30) = {35.305145, 1.032763, 1};
Point(p11 + 31) = {35.44896599768958, 1.044081957995389, 1};
Point(p11 + 32) = {35.58924564510151, 1.077760121670241, 1};
Point(p11 + 33) = {35.72252979175505, 1.132968222863464, 1};
Point(p11 + 34) = {35.84553653961488, 1.208346854898499, 1};
Point(p11 + 35) = {35.9552370543127, 1.302039945687305, 1};
Point(p11 + 36) = {36.0489301451015, 1.411740460385121, 1};
Point(p11 + 37) = {36.12430877713654, 1.534747208244952, 1};
Point(p11 + 38) = {36.17951687832976, 1.668031354898499, 1};
Point(p11 + 39) = {36.21319504200461, 1.808311002310428, 1};
Spline(11) = {9, p11 + 1, p11 + 2, p11 + 3, p11 + 4, p11 + 5, p11 + 6, p11 + 7, p11 + 8, p11 + 9, p11 + 10, p11 + 11, p11 + 12, p11 + 13, p11 + 14, p11 + 15, p11 + 16, p11 + 17, p11 + 18, p11 + 19, p11 + 20, p11 + 21, p11 + 22, p11 + 23, p11 + 24, p11 + 25, p11 + 26, p11 + 27, p11 + 28, p11 + 29, p11 + 30, p11 + 31, p11 + 32, p11 + 33, p11 + 34, p11 + 35, p11 + 36, p11 + 37, p11 + 38, p11 + 39, 9};
Line(12) = {4, 10};
Line(13) = {10, 7};
Line(14) = {5, 10};
p15 = newp;
Point(p15 + 1) = {18.86601037489579, -0.8475023007943215, 0};
Point(p15 + 2) = {18.84219657539573, -0.7483106872117623, 0};
Point(p15 + 3) = {18.80315897627699, -0.6540655859768167, 0};
Point(p15 + 4) = {18.74985881278824, -0.5670876242634475, 0};
Point(p15 + 5) = {18.68360851184766, -0.4895184881523433, 0};
Point(p15 + 6) = {18.60603937573655, -0.4232681872117623, 0};
Point(p15 + 7) = {18.51906141402318, -0.3699680237230049, 0};
Point(p15 + 8) = {18.42481631278823, -0.330930424604265, 0};
Point(p15 + 9) = {18.32562469920568, -0.3071166251042098, 0};
Point(p15 + 10) = {18.223929, -0.299113, 0};
Point(p15 + 11) = {18.12223330079432, -0.3071166251042099, 0};
Point(p15 + 12) = {18.02304168721176, -0.330930424604265, 0};
Point(p15 + 13) = {17.92879658597682, -0.3699680237230049, 0};
Point(p15 + 14) = {17.84181862426345, -0.4232681872117623, 0};
Point(p15 + 15) = {17.76424948815234, -0.4895184881523432, 0};
Point(p15 + 16) = {17.69799918721176, -0.5670876242634475, 0};
Point(p15 + 17) = {17.644699023723, -0.6540655859768166, 0};
Point(p15 + 18) = {17.60566142460426, -0.7483106872117622, 0};
Point(p15 + 19) = {17.58184762510421, -0.8475023007943214, 0};
Point(p15 + 20) = {17.573844, -0.9491979999999999, 0};
Point(p15 + 21) = {17.58184762510421, -1.050893699205678, 0};
Point(p15 + 22) = {17.60566142460426, -1.150085312788238, 0};
Point(p15 + 23) = {17.644699023723, -1.244330414023183, 0};
Point(p15 + 24) = {17.69799918721176, -1.331308375736552, 0};
Point(p15 + 25) = {17.76424948815234, -1.408877511847657, 0};
Point(p15 + 26) = {17.84181862426345, -1.475127812788238, 0};
Point(p15 + 27) = {17.92879658597682, -1.528427976276995, 0};
Point(p15 + 28) = {18.02304168721176, -1.567465575395735, 0};
Point(p15 + 29) = {18.12223330079432, -1.59127937489579, 0};
Point(p15 + 30) = {18.223929, -1.599283, 0};
Point(p15 + 31) = {18.32562469920568, -1.59127937489579, 0};
Point(p15 + 32) = {18.42481631278823, -1.567465575395735, 0};
Point(p15 + 33) = {18.51906141402318, -1.528427976276995, 0};
Point(p15 + 34) = {18.60603937573655, -1.475127812788238, 0};
Point(p15 + 35) = {18.68360851184766, -1.408877511847657, 0};
Point(p15 + 36) = {18.74985881278824, -1.331308375736552, 0};
Point(p15 + 37) = {18.80315897627699, -1.244330414023183, 0};
Point(p15 + 38) = {18.84219657539573, -1.150085312788238, 0};
Point(p15 + 39) = {18.86601037489579, -1.050893699205679, 0};
Spline(15) = {11, p15 + 1, p15 + 2, p15 + 3, p15 + 4, p15 + 5, p15 + 6, p15 + 7, p15 + 8, p15 + 9, p15 + 10, p15 + 11, p15 + 12, p15 + 13, p15 + 14, p15 + 15, p15 + 16, p15 + 17, p15 + 18, p15 + 19, p15 + 20, p15 + 21, p15 + 22, p15 + 23, p15 + 24, p15 + 25, p15 + 26, p15 + 27, p15 + 28, p15 + 29, p15 + 30, p15 + 31, p15 + 32, p15 + 33, p15 + 34, p15 + 35, p15 + 36, p15 + 37, p15 + 38, p15 + 39, 11};
p16 = newp;
Point(p16 + 1) = {36.21319504200461, 2.095952997689572, 0};
Point(p16 + 2) = {36.17951687832976, 2.236232645101501, 0};
Point(p16 + 3) = {36.12430877713654, 2.369516791755047, 0};
Point(p16 + 4) = {36.0489301451015, 2.492523539614879, 0};
Point(p16 + 5) = {35.9552370543127, 2.602224054312695, 0};
Point(p16 + 6) = {35.84553653961488, 2.695917145101501, 0};
Point(p16 + 7) = {35.72252979175505, 2.771295777136535, 0};
Point(p16 + 8) = {35.58924564510151, 2.826503878329759, 0};
Point(p16 + 9) = {35.44896599768958, 2.860182042004611, 0};
Point(p16 + 10) = {35.305145, 2.871501, 0};
Point(p16 + 11) = {35.16132400231043, 2.860182042004611, 0};
Point(p16 + 12) = {35.0210443548985, 2.826503878329759, 0};
Point(p16 + 13) = {34.88776020824496, 2.771295777136536, 0};
Point(p16 + 14) = {34.76475346038512, 2.695917145101501, 0};
Point(p16 + 15) = {34.65505294568731, 2.602224054312695, 0};
Point(p16 + 16) = {34.56135985489851, 2.492523539614879, 0};
Point(p16 + 17) = {34.48598122286347, 2.369516791755047, 0};
Point(p16 + 18) = {34.43077312167024, 2.236232645101501, 0};
Point(p16 + 19) = {34.39709495799539, 2.095952997689572, 0};
Point(p16 + 20) = {34.385776, 1.952132, 0};
Point(p16 + 21) = {34.39709495799539, 1.808311002310428, 0};
Point(p16 + 22) = {34.43077312167024, 1.668031354898499, 0};
Point(p16 + 23) = {34.48598122286347, 1.534747208244953, 0};
Point(p16 + 24) = {34.56135985489851, 1.411740460385121, 0};
Point(p16 + 25) = {34.65505294568731, 1.302039945687305, 0};
Point(p16 + 26) = {34.76475346038512, 1.208346854898499, 0};
Point(p16 + 27) = {34.88776020824496, 1.132968222863465, 0};
Point(p16 + 28) = {35.0210443548985, 1.077760121670241, 0};
Point(p16 + 29) = {35.16132400231043, 1.044081957995389, 0};
Point(p16 + 30) = {35.305145, 1.032763, 0};
Point(p16 + 31) = {35.44896599768958, 1.044081957995389, 0};
Point(p16 + 32) = {35.58924564510151, 1.077760121670241, 0};
Point(p16 + 33) = {35.72252979175505, 1.132968222863464, 0};
Point(p16 + 34) = {35.84553653961488, 1.208346854898499, 0};
Point(p16 + 35) = {35.9552370543127, 1.302039945687305, 0};
Point(p16 + 36) = {36.0489301451015, 1.411740460385121, 0};
Point(p16 + 37) = {36.12430877713654, 1.534747208244952, 0};
Point(p16 + 38) = {36.17951687832976, 1.668031354898499, 0};
Point(p16 + 39) = {36.21319504200461, 1.808311002310428, 0};
Spline(16) = {12, p16 + 1, p16 + 2, p16 + 3, p16 + 4, p16 + 5, p16 + 6, p16 + 7, p16 + 8, p16 + 9, p16 + 10, p16 + 11, p16 + 12, p16 + 13, p16 + 14, p16 + 15, p16 + 16, p16 + 17, p16 + 18, p16 + 19, p16 + 20, p16 + 21, p16 + 22, p16 + 23, p16 + 24, p16 + 25, p16 + 26, p16 + 27, p16 + 28, p16 + 29, p16 + 30, p16 + 31, p16 + 32, p16 + 33, p16 + 34, p16 + 35, p16 + 36, p16 + 37, p16 + 38, p16 + 39, 12};
Line(17) = {11, 8};
Line(18) = {12, 9};
Curve Loop(1) = {-1, 4, 3, -2};
Plane Surface(1) = {1};
Curve Loop(2) = {-5, 1, 7, -6};
Plane Surface(2) = {2};
Curve Loop(3) = {-2, 7, 9, -8, -10, -11};
Plane Surface(3) = {3};
Curve Loop(4) = {-12, 3, 8, -13};
Plane Surface(4) = {4};
Curve Loop(5) = {-4, 5, 14, -12, -15, -16};
Plane Surface(5) = {5};
Curve Loop(6) = {-6, 14, 13, -9};
Plane Surface(6) = {6};
Curve Loop(7) = {-10, -17, 15, 17};
Surface(7) = {7};
Curve Loop(8) = {-11, -18, 16, 18};
Surface(8) = {8};
Surface Loop(1) = {1, 2, 3, 4, 5, 6, 7, 8};
Volume(1) = {1};
Physical Surface("INFLOW") = {1};
Physical Surface("OUTFLOW") = {6};
Physical Surface("OBSTACLE") = {7, 8};
Physical Surface("WALL_Y") = {2, 4};
Physical Surface("WALL_Z") = {3, 5};
Physical Volume("FLUID") = {1};
