cl__1 = 3.735417;
cl__2 = 1.095863;
cl__3 = 1.041863;
cl__4 = 0.128878;
cl__5 = 0.089208;
Point(1) = {0.455584, -3.647268, 1, cl__1};
Point(2) = {0.455584, -3.647268, 0, cl__1};
Point(3) = {0.455584, 5.016223, 1, cl__1};
Point(4) = {0.455584, 5.016223, 0, cl__1};
Point(5) = {37.102159, -3.647268, 0, cl__2};
Point(6) = {37.102159, -3.647268, 1, cl__2};
Point(7) = {37.102159, 5.016223, 1, cl__3};
Point(8) = {27.245992, 1.431041, 1, cl__4};
Point(9) = {23.78196, 3.576823, 1, cl__5};
Point(10) = {37.102159, 5.016223, 0, cl__3};
Point(11) = {27.245992, 1.431041, 0, cl__4};
Point(12) = {23.78196, 3.576823, 0, cl__5};
Line(1) = {2, 1};
Line(2) = {1, 3};
Line(3) = {4, 3};
Line(4) = {2, 4};
Line(5) = {2, 5};
Line(6) = {5, 6};
Line(7) = {1, 6};
Line(8) = {3, 7};
Line(9) = {6, 7};
p10 = newp;
Point(p10 + 1) = {27.23012499190386, 1.632650453420084, 1};
Point(p10 + 2) = {27.18291466601435, 1.82929561299355, 1};
Point(p10 + 3) = {27.10552349723696, 2.016134422263833, 1};
Point(p10 + 4) = {26.99985711299355, 2.188566289664241, 1};
Point(p10 + 5) = {26.86851737035082, 2.342345370350817, 1};
Point(p10 + 6) = {26.71473828966424, 2.47368511299355, 1};
Point(p10 + 7) = {26.54230642226383, 2.57935149723696, 1};
Point(p10 + 8) = {26.35546761299355, 2.656742666014352, 1};
Point(p10 + 9) = {26.15882245342008, 2.703952991903861, 1};
Point(p10 + 10) = {25.957213, 2.71982, 1};
Point(p10 + 11) = {25.75560354657992, 2.703952991903861, 1};
Point(p10 + 12) = {25.55895838700645, 2.656742666014352, 1};
Point(p10 + 13) = {25.37211957773617, 2.57935149723696, 1};
Point(p10 + 14) = {25.19968771033576, 2.47368511299355, 1};
Point(p10 + 15) = {25.04590862964918, 2.342345370350817, 1};
Point(p10 + 16) = {24.91456888700645, 2.188566289664241, 1};
Point(p10 + 17) = {24.80890250276304, 2.016134422263833, 1};
Point(p10 + 18) = {24.73151133398565, 1.82929561299355, 1};
Point(p10 + 19) = {24.68430100809614, 1.632650453420084, 1};
Point(p10 + 20) = {24.668434, 1.431041, 1};
Point(p10 + 21) = {24.68430100809614, 1.229431546579916, 1};
Point(p10 + 22) = {24.73151133398565, 1.032786387006449, 1};
Point(p10 + 23) = {24.80890250276304, 0.8459475777361674, 1};
Point(p10 + 24) = {24.91456888700645, 0.673515710335759, 1};
Point(p10 + 25) = {25.04590862964918, 0.5197366296491827, 1};
Point(p10 + 26) = {25.19968771033576, 0.3883968870064498, 1};
Point(p10 + 27) = {25.37211957773616, 0.2827305027630396, 1};
Point(p10 + 28) = {25.55895838700645, 0.2053393339856484, 1};
Point(p10 + 29) = {25.75560354657992, 0.1581290080961393, 1};
Point(p10 + 30) = {25.957213, 0.1422620000000001, 1};
Point(p10 + 31) = {26.15882245342008, 0.1581290080961391, 1};
Point(p10 + 32) = {26.35546761299355, 0.2053393339856482, 1};
Point(p10 + 33) = {26.54230642226383, 0.2827305027630396, 1};
Point(p10 + 34) = {26.71473828966424, 0.3883968870064496, 1};
Point(p10 + 35) = {26.86851737035082, 0.5197366296491823, 1};
Point(p10 + 36) = {26.99985711299355, 0.6735157103357585, 1};
Point(p10 + 37) = {27.10552349723696, 0.8459475777361665, 1};
Point(p10 + 38) = {27.18291466601435, 1.032786387006449, 1};
Point(p10 + 39) = {27.23012499190386, 1.229431546579916, 1};
Spline(10) = {8, p10 + 1, p10 + 2, p10 + 3, p10 + 4, p10 + 5, p10 + 6, p10 + 7, p10 + 8, p10 + 9, p10 + 10, p10 + 11, p10 + 12, p10 + 13, p10 + 14, p10 + 15, p10 + 16, p10 + 17, p10 + 18, p10 + 19, p10 + 20, p10 + 21, p10 + 22, p10 + 23, p10 + 24, p10 + 25, p10 + 26, p10 + 27, p10 + 28, p10 + 29, p10 + 30, p10 + 31, p10 + 32, p10 + 33, p10 + 34, p10 + 35, p10 + 36, p10 + 37, p10 + 38, p10 + 39, 8};
p11 = newp;
Point(p11 + 1) = {23.77097705181309, 3.716374588269694, 1};
Point(p11 + 2) = {23.73829864388703, 3.85248995329102, 1};
Point(p11 + 3) = {23.68472942707839, 3.981817483036156, 1};
Point(p11 + 4) = {23.61158845329102, 4.101172704509312, 1};
Point(p11 + 5) = {23.52067669604055, 4.207616696040552, 1};
Point(p11 + 6) = {23.41423270450931, 4.29852845329102, 1};
Point(p11 + 7) = {23.29487748303616, 4.371669427078387, 1};
Point(p11 + 8) = {23.16554995329102, 4.425238643887032, 1};
Point(p11 + 9) = {23.02943458826969, 4.457917051813089, 1};
Point(p11 + 10) = {22.889883, 4.4689, 1};
Point(p11 + 11) = {22.75033141173031, 4.457917051813089, 1};
Point(p11 + 12) = {22.61421604670898, 4.425238643887032, 1};
Point(p11 + 13) = {22.48488851696385, 4.371669427078387, 1};
Point(p11 + 14) = {22.36553329549069, 4.29852845329102, 1};
Point(p11 + 15) = {22.25908930395945, 4.207616696040552, 1};
Point(p11 + 16) = {22.16817754670898, 4.101172704509313, 1};
Point(p11 + 17) = {22.09503657292161, 3.981817483036156, 1};
Point(p11 + 18) = {22.04146735611297, 3.85248995329102, 1};
Point(p11 + 19) = {22.00878894818691, 3.716374588269694, 1};
Point(p11 + 20) = {21.997806, 3.576823, 1};
Point(p11 + 21) = {22.00878894818691, 3.437271411730306, 1};
Point(p11 + 22) = {22.04146735611297, 3.30115604670898, 1};
Point(p11 + 23) = {22.09503657292161, 3.171828516963845, 1};
Point(p11 + 24) = {22.16817754670898, 3.052473295490687, 1};
Point(p11 + 25) = {22.25908930395945, 2.946029303959449, 1};
Point(p11 + 26) = {22.36553329549069, 2.85511754670898, 1};
Point(p11 + 27) = {22.48488851696385, 2.781976572921613, 1};
Point(p11 + 28) = {22.61421604670898, 2.728407356112968, 1};
Point(p11 + 29) = {22.75033141173031, 2.695728948186912, 1};
Point(p11 + 30) = {22.889883, 2.684746, 1};
Point(p11 + 31) = {23.02943458826969, 2.695728948186911, 1};
Point(p11 + 32) = {23.16554995329102, 2.728407356112968, 1};
Point(p11 + 33) = {23.29487748303616, 2.781976572921613, 1};
Point(p11 + 34) = {23.41423270450931, 2.85511754670898, 1};
Point(p11 + 35) = {23.52067669604055, 2.946029303959448, 1};
Point(p11 + 36) = {23.61158845329102, 3.052473295490687, 1};
Point(p11 + 37) = {23.68472942707839, 3.171828516963844, 1};
Point(p11 + 38) = {23.73829864388703, 3.30115604670898, 1};
Point(p11 + 39) = {23.77097705181309, 3.437271411730306, 1};
Spline(11) = {9, p11 + 1, p11 + 2, p11 + 3, p11 + 4, p11 + 5, p11 + 6, p11 + 7, p11 + 8, p11 + 9, p11 + 10, p11 + 11, p11 + 12, p11 + 13, p11 + 14, p11 + 15, p11 + 16, p11 + 17, p11 + 18, p11 + 19, p11 + 20, p11 + 21, p11 + 22, p11 + 23, p11 + 24, p11 + 25, p11 + 26, p11 + 27, p11 + 28, p11 + 29, p11 + 30, p11 + 31, p11 + 32, p11 + 33, p11 + 34, p11 + 35, p11 + 36, p11 + 37, p11 + 38, p11 + 39, 9};
Line(12) = {4, 10};
Line(13) = {10, 7};
Line(14) = {5, 10};
p15 = newp;
Point(p15 + 1) = {27.23012499190386, 1.632650453420084, 0};
Point(p15 + 2) = {27.18291466601435, 1.82929561299355, 0};
Point(p15 + 3) = {27.10552349723696, 2.016134422263833, 0};
Point(p15 + 4) = {26.99985711299355, 2.188566289664241, 0};
Point(p15 + 5) = {26.86851737035082, 2.342345370350817, 0};
Point(p15 + 6) = {26.71473828966424, 2.47368511299355, 0};
Point(p15 + 7) = {26.54230642226383, 2.57935149723696, 0};
Point(p15 + 8) = {26.35546761299355, 2.656742666014352, 0};
Point(p15 + 9) = {26.15882245342008, 2.703952991903861, 0};
Point(p15 + 10) = {25.957213, 2.71982, 0};
Point(p15 + 11) = {25.75560354657992, 2.703952991903861, 0};
Point(p15 + 12) = {25.55895838700645, 2.656742666014352, 0};
Point(p15 + 13) = {25.37211957773617, 2.57935149723696, 0};
Point(p15 + 14) = {25.19968771033576, 2.47368511299355, 0};
Point(p15 + 15) = {25.04590862964918, 2.342345370350817, 0};
Point(p15 + 16) = {24.91456888700645, 2.188566289664241, 0};
Point(p15 + 17) = {24.80890250276304, 2.016134422263833, 0};
Point(p15 + 18) = {24.73151133398565, 1.82929561299355, 0};
Point(p15 + 19) = {24.68430100809614, 1.632650453420084, 0};
Point(p15 + 20) = {24.668434, 1.431041, 0};
Point(p15 + 21) = {24.68430100809614, 1.229431546579916, 0};
Point(p15 + 22) = {24.73151133398565, 1.032786387006449, 0};
Point(p15 + 23) = {24.80890250276304, 0.8459475777361674, 0};
Point(p15 + 24) = {24.91456888700645, 0.673515710335759, 0};
Point(p15 + 25) = {25.04590862964918, 0.5197366296491827, 0};
Point(p15 + 26) = {25.19968771033576, 0.3883968870064498, 0};
Point(p15 + 27) = {25.37211957773616, 0.2827305027630396, 0};
Point(p15 + 28) = {25.55895838700645, 0.2053393339856484, 0};
Point(p15 + 29) = {25.75560354657992, 0.1581290080961393, 0};
Point(p15 + 30) = {25.957213, 0.1422620000000001, 0};
Point(p15 + 31) = {26.15882245342008, 0.1581290080961391, 0};
Point(p15 + 32) = {26.35546761299355, 0.2053393339856482, 0};
Point(p15 + 33) = {26.54230642226383, 0.2827305027630396, 0};
Point(p15 + 34) = {26.71473828966424, 0.3883968870064496, 0};
Point(p15 + 35) = {26.86851737035082, 0.5197366296491823, 0};
Point(p15 + 36) = {26.99985711299355, 0.6735157103357585, 0};
Point(p15 + 37) = {27.10552349723696, 0.8459475777361665, 0};
Point(p15 + 38) = {27.18291466601435, 1.032786387006449, 0};
Point(p15 + 39) = {27.23012499190386, 1.229431546579916, 0};
Spline(15) = {11, p15 + 1, p15 + 2, p15 + 3, p15 + 4, p15 + 5, p15 + 6, p15 + 7, p15 + 8, p15 + 9, p15 + 10, p15 + 11, p15 + 12, p15 + 13, p15 + 14, p15 + 15, p15 + 16, p15 + 17, p15 + 18, p15 + 19, p15 + 20, p15 + 21, p15 + 22, p15 + 23, p15 + 24, p15 + 25, p15 + 26, p15 + 27, p15 + 28, p15 + 29, p15 + 30, p15 + 31, p15 + 32, p15 + 33, p15 + 34, p15 + 35, p15 + 36, p15 + 37, p15 + 38, p15 + 39, 11};
p16 = newp;
Point(p16 + 1) = {23.77097705181309, 3.716374588269694, 0};
Point(p16 + 2) = {23.73829864388703, 3.85248995329102, 0};
Point(p16 + 3) = {23.68472942707839, 3.981817483036156, 0};
Point(p16 + 4) = {23.61158845329102, 4.101172704509312, 0};
Point(p16 + 5) = {23.52067669604055, 4.207616696040552, 0};
Point(p16 + 6) = {23.41423270450931, 4.29852845329102, 0};
Point(p16 + 7) = {23.29487748303616, 4.371669427078387, 0};
Point(p16 + 8) = {23.16554995329102, 4.425238643887032, 0};
Point(p16 + 9) = {23.02943458826969, 4.457917051813089, 0};
Point(p16 + 10) = {22.889883, 4.4689, 0};
Point(p16 + 11) = {22.75033141173031, 4.457917051813089, 0};
Point(p16 + 12) = {22.61421604670898, 4.425238643887032, 0};
Point(p16 + 13) = {22.48488851696385, 4.371669427078387, 0};
Point(p16 + 14) = {22.36553329549069, 4.29852845329102, 0};
Point(p16 + 15) = {22.25908930395945, 4.207616696040552, 0};
Point(p16 + 16) = {22.16817754670898, 4.101172704509313, 0};
Point(p16 + 17) = {22.09503657292161, 3.981817483036156, 0};
Point(p16 + 18) = {22.04146735611297, 3.85248995329102, 0};
Point(p16 + 19) = {22.00878894818691, 3.716374588269694, 0};
Point(p16 + 20) = {21.997806, 3.576823, 0};
Point(p16 + 21) = {22.00878894818691, 3.437271411730306, 0};
Point(p16 + 22) = {22.04146735611297, 3.30115604670898, 0};
Point(p16 + 23) = {22.09503657292161, 3.171828516963845, 0};
Point(p16 + 24) = {22.16817754670898, 3.052473295490687, 0};
Point(p16 + 25) = {22.25908930395945, 2.946029303959449, 0};
Point(p16 + 26) = {22.36553329549069, 2.85511754670898, 0};
Point(p16 + 27) = {22.48488851696385, 2.781976572921613, 0};
Point(p16 + 28) = {22.61421604670898, 2.728407356112968, 0};
Point(p16 + 29) = {22.75033141173031, 2.695728948186912, 0};
Point(p16 + 30) = {22.889883, 2.684746, 0};
Point(p16 + 31) = {23.02943458826969, 2.695728948186911, 0};
Point(p16 + 32) = {23.16554995329102, 2.728407356112968, 0};
Point(p16 + 33) = {23.29487748303616, 2.781976572921613, 0};
Point(p16 + 34) = {23.41423270450931, 2.85511754670898, 0};
Point(p16 + 35) = {23.52067669604055, 2.946029303959448, 0};
Point(p16 + 36) = {23.61158845329102, 3.052473295490687, 0};
Point(p16 + 37) = {23.68472942707839, 3.171828516963844, 0};
Point(p16 + 38) = {23.73829864388703, 3.30115604670898, 0};
Point(p16 + 39) = {23.77097705181309, 3.437271411730306, 0};
Spline(16) = {12, p16 + 1, p16 + 2, p16 + 3, p16 + 4, p16 + 5, p16 + 6, p16 + 7, p16 + 8, p16 + 9, p16 + 10, p16 + 11, p16 + 12, p16 + 13, p16 + 14, p16 + 15, p16 + 16, p16 + 17, p16 + 18, p16 + 19, p16 + 20, p16 + 21, p16 + 22, p16 + 23, p16 + 24, p16 + 25, p16 + 26, p16 + 27, p16 + 28, p16 + 29, p16 + 30, p16 + 31, p16 + 32, p16 + 33, p16 + 34, p16 + 35, p16 + 36, p16 + 37, p16 + 38, p16 + 39, 12};
Line(17) = {11, 8};
Line(18) = {12, 9};
Curve Loop(1) = {-1, 4, 3, -2};
Plane Surface(1) = {1};
Curve Loop(2) = {-5, 1, 7, -6};
Plane Surface(2) = {2};
Curve Loop(3) = {-2, 7, 9, -8, -10, -11};
Plane Surface(3) = {3};
Curve Loop(4) = {-12, 3, 8, -13};
Plane Surface(4) = {4};
Curve Loop(5) = {-4, 5, 14, -12, -15, -16};
Plane Surface(5) = {5};
Curve Loop(6) = {-6, 14, 13, -9};
Plane Surface(6) = {6};
Curve Loop(7) = {-10, -17, 15, 17};
Surface(7) = {7};
Curve Loop(8) = {-11, -18, 16, 18};
Surface(8) = {8};
Surface Loop(1) = {1, 2, 3, 4, 5, 6, 7, 8};
Volume(1) = {1};
Physical Surface("INFLOW") = {1};
Physical Surface("OUTFLOW") = {6};
Physical Surface("OBSTACLE") = {7, 8};
Physical Surface("WALL_Y") = {2, 4};
Physical Surface("WALL_Z") = {3, 5};
Physical Volume("FLUID") = {1};
