cl__1 = 0.614368;
cl__2 = 0.9028389999999999;
cl__3 = 3.567044;
cl__4 = 0.125474;
Point(1) = {0.549235, -4.10929, 1, cl__1};
Point(2) = {0.549235, -4.10929, 0, cl__1};
Point(3) = {0.549235, 5.050946, 1, cl__2};
Point(4) = {0.549235, 5.050946, 0, cl__2};
Point(5) = {35.375177, -4.10929, 0, cl__3};
Point(6) = {35.375177, -4.10929, 1, cl__3};
Point(7) = {35.375177, 5.050946, 1, cl__3};
Point(8) = {8.981090000000002, -2.313276000000001, 1, cl__4};
Point(9) = {35.375177, 5.050946, 0, cl__3};
Point(10) = {8.981090000000002, -2.313276000000001, 0, cl__4};
Line(1) = {2, 1};
Line(2) = {1, 3};
Line(3) = {4, 3};
Line(4) = {2, 4};
Line(5) = {2, 5};
Line(6) = {5, 6};
Line(7) = {1, 6};
Line(8) = {3, 7};
Line(9) = {6, 7};
p10 = newp;
Point(p10 + 1) = {8.965642068478344, -2.116991419335421, 1};
Point(p10 + 2) = {8.919678653256181, -1.925540016477979, 1};
Point(p10 + 3) = {8.844331526160113, -1.743635960356801, 1};
Point(p10 + 4) = {8.741455983522021, -1.575758332538542, 1};
Point(p10 + 5) = {8.613585162626009, -1.426040837373991, 1};
Point(p10 + 6) = {8.463867667461457, -1.298170016477979, 1};
Point(p10 + 7) = {8.295990039643199, -1.195294473839888, 1};
Point(p10 + 8) = {8.114085983522022, -1.119947346743819, 1};
Point(p10 + 9) = {7.922634580664579, -1.073983931521657, 1};
Point(p10 + 10) = {7.72635, -1.058536, 1};
Point(p10 + 11) = {7.53006541933542, -1.073983931521657, 1};
Point(p10 + 12) = {7.338614016477979, -1.119947346743819, 1};
Point(p10 + 13) = {7.156709960356801, -1.195294473839887, 1};
Point(p10 + 14) = {6.988832332538543, -1.298170016477979, 1};
Point(p10 + 15) = {6.839114837373992, -1.426040837373991, 1};
Point(p10 + 16) = {6.711244016477979, -1.575758332538542, 1};
Point(p10 + 17) = {6.608368473839888, -1.743635960356801, 1};
Point(p10 + 18) = {6.533021346743819, -1.925540016477979, 1};
Point(p10 + 19) = {6.487057931521657, -2.116991419335421, 1};
Point(p10 + 20) = {6.47161, -2.313276, 1};
Point(p10 + 21) = {6.487057931521657, -2.509560580664579, 1};
Point(p10 + 22) = {6.533021346743819, -2.701011983522022, 1};
Point(p10 + 23) = {6.608368473839887, -2.882916039643198, 1};
Point(p10 + 24) = {6.711244016477979, -3.050793667461458, 1};
Point(p10 + 25) = {6.839114837373991, -3.200511162626009, 1};
Point(p10 + 26) = {6.988832332538542, -3.328381983522021, 1};
Point(p10 + 27) = {7.156709960356801, -3.431257526160112, 1};
Point(p10 + 28) = {7.338614016477979, -3.506604653256181, 1};
Point(p10 + 29) = {7.53006541933542, -3.552568068478343, 1};
Point(p10 + 30) = {7.72635, -3.568016, 1};
Point(p10 + 31) = {7.922634580664579, -3.552568068478343, 1};
Point(p10 + 32) = {8.11408598352202, -3.506604653256181, 1};
Point(p10 + 33) = {8.295990039643199, -3.431257526160113, 1};
Point(p10 + 34) = {8.463867667461457, -3.328381983522022, 1};
Point(p10 + 35) = {8.613585162626009, -3.200511162626009, 1};
Point(p10 + 36) = {8.741455983522021, -3.050793667461458, 1};
Point(p10 + 37) = {8.844331526160113, -2.882916039643199, 1};
Point(p10 + 38) = {8.919678653256181, -2.701011983522022, 1};
Point(p10 + 39) = {8.965642068478344, -2.50956058066458, 1};
Spline(10) = {8, p10 + 1, p10 + 2, p10 + 3, p10 + 4, p10 + 5, p10 + 6, p10 + 7, p10 + 8, p10 + 9, p10 + 10, p10 + 11, p10 + 12, p10 + 13, p10 + 14, p10 + 15, p10 + 16, p10 + 17, p10 + 18, p10 + 19, p10 + 20, p10 + 21, p10 + 22, p10 + 23, p10 + 24, p10 + 25, p10 + 26, p10 + 27, p10 + 28, p10 + 29, p10 + 30, p10 + 31, p10 + 32, p10 + 33, p10 + 34, p10 + 35, p10 + 36, p10 + 37, p10 + 38, p10 + 39, 8};
Line(11) = {4, 9};
Line(12) = {9, 7};
Line(13) = {5, 9};
p14 = newp;
Point(p14 + 1) = {8.965642068478344, -2.116991419335421, 0};
Point(p14 + 2) = {8.919678653256181, -1.925540016477979, 0};
Point(p14 + 3) = {8.844331526160113, -1.743635960356801, 0};
Point(p14 + 4) = {8.741455983522021, -1.575758332538542, 0};
Point(p14 + 5) = {8.613585162626009, -1.426040837373991, 0};
Point(p14 + 6) = {8.463867667461457, -1.298170016477979, 0};
Point(p14 + 7) = {8.295990039643199, -1.195294473839888, 0};
Point(p14 + 8) = {8.114085983522022, -1.119947346743819, 0};
Point(p14 + 9) = {7.922634580664579, -1.073983931521657, 0};
Point(p14 + 10) = {7.72635, -1.058536, 0};
Point(p14 + 11) = {7.53006541933542, -1.073983931521657, 0};
Point(p14 + 12) = {7.338614016477979, -1.119947346743819, 0};
Point(p14 + 13) = {7.156709960356801, -1.195294473839887, 0};
Point(p14 + 14) = {6.988832332538543, -1.298170016477979, 0};
Point(p14 + 15) = {6.839114837373992, -1.426040837373991, 0};
Point(p14 + 16) = {6.711244016477979, -1.575758332538542, 0};
Point(p14 + 17) = {6.608368473839888, -1.743635960356801, 0};
Point(p14 + 18) = {6.533021346743819, -1.925540016477979, 0};
Point(p14 + 19) = {6.487057931521657, -2.116991419335421, 0};
Point(p14 + 20) = {6.47161, -2.313276, 0};
Point(p14 + 21) = {6.487057931521657, -2.509560580664579, 0};
Point(p14 + 22) = {6.533021346743819, -2.701011983522022, 0};
Point(p14 + 23) = {6.608368473839887, -2.882916039643198, 0};
Point(p14 + 24) = {6.711244016477979, -3.050793667461458, 0};
Point(p14 + 25) = {6.839114837373991, -3.200511162626009, 0};
Point(p14 + 26) = {6.988832332538542, -3.328381983522021, 0};
Point(p14 + 27) = {7.156709960356801, -3.431257526160112, 0};
Point(p14 + 28) = {7.338614016477979, -3.506604653256181, 0};
Point(p14 + 29) = {7.53006541933542, -3.552568068478343, 0};
Point(p14 + 30) = {7.72635, -3.568016, 0};
Point(p14 + 31) = {7.922634580664579, -3.552568068478343, 0};
Point(p14 + 32) = {8.11408598352202, -3.506604653256181, 0};
Point(p14 + 33) = {8.295990039643199, -3.431257526160113, 0};
Point(p14 + 34) = {8.463867667461457, -3.328381983522022, 0};
Point(p14 + 35) = {8.613585162626009, -3.200511162626009, 0};
Point(p14 + 36) = {8.741455983522021, -3.050793667461458, 0};
Point(p14 + 37) = {8.844331526160113, -2.882916039643199, 0};
Point(p14 + 38) = {8.919678653256181, -2.701011983522022, 0};
Point(p14 + 39) = {8.965642068478344, -2.50956058066458, 0};
Spline(14) = {10, p14 + 1, p14 + 2, p14 + 3, p14 + 4, p14 + 5, p14 + 6, p14 + 7, p14 + 8, p14 + 9, p14 + 10, p14 + 11, p14 + 12, p14 + 13, p14 + 14, p14 + 15, p14 + 16, p14 + 17, p14 + 18, p14 + 19, p14 + 20, p14 + 21, p14 + 22, p14 + 23, p14 + 24, p14 + 25, p14 + 26, p14 + 27, p14 + 28, p14 + 29, p14 + 30, p14 + 31, p14 + 32, p14 + 33, p14 + 34, p14 + 35, p14 + 36, p14 + 37, p14 + 38, p14 + 39, 10};
Line(15) = {10, 8};
Curve Loop(1) = {-1, 4, 3, -2};
Plane Surface(1) = {1};
Curve Loop(2) = {-5, 1, 7, -6};
Plane Surface(2) = {2};
Curve Loop(3) = {-2, 7, 9, -8, -10};
Plane Surface(3) = {3};
Curve Loop(4) = {-11, 3, 8, -12};
Plane Surface(4) = {4};
Curve Loop(5) = {-4, 5, 13, -11, -14};
Plane Surface(5) = {5};
Curve Loop(6) = {-6, 13, 12, -9};
Plane Surface(6) = {6};
Curve Loop(7) = {-10, -15, 14, 15};
Surface(7) = {7};
Surface Loop(1) = {1, 2, 3, 4, 5, 6, 7};
Volume(1) = {1};
Physical Surface("INFLOW") = {1};
Physical Surface("OUTFLOW") = {6};
Physical Surface("OBSTACLE") = {7};
Physical Surface("WALL_Y") = {2, 4};
Physical Surface("WALL_Z") = {3, 5};
Physical Volume("FLUID") = {1};
