cl__1 = 0.814616;
cl__2 = 0.614523;
cl__3 = 3.0298;
cl__4 = 0.10488;
Point(1) = {0.7055360000000001, -3.400431, 1, cl__1};
Point(2) = {0.7055360000000001, -3.400431, 0, cl__1};
Point(3) = {0.7055360000000001, 4.297632999999999, 1, cl__2};
Point(4) = {0.7055360000000001, 4.297632999999999, 0, cl__2};
Point(5) = {30.052512, -3.400431, 0, cl__3};
Point(6) = {30.052512, -3.400431, 1, cl__3};
Point(7) = {30.052512, 4.297632999999999, 1, cl__3};
Point(8) = {8.739960999999997, 2.578568, 1, cl__4};
Point(9) = {30.052512, 4.297632999999999, 0, cl__3};
Point(10) = {8.739960999999997, 2.578568, 0, cl__4};
Line(1) = {2, 1};
Line(2) = {1, 3};
Line(3) = {4, 3};
Line(4) = {2, 4};
Line(5) = {2, 5};
Line(6) = {5, 6};
Line(7) = {1, 6};
Line(8) = {3, 7};
Line(9) = {6, 7};
p10 = newp;
Point(p10 + 1) = {8.727048482369543, 2.742637092672055, 1};
Point(p10 + 2) = {8.688628878516422, 2.902666259768423, 1};
Point(p10 + 3) = {8.625648206594857, 3.054715052088836, 1};
Point(p10 + 4) = {8.539657259768422, 3.195039523745355, 1};
Point(p10 + 5) = {8.432773420535575, 3.320184420535576, 1};
Point(p10 + 6) = {8.307628523745354, 3.427068259768423, 1};
Point(p10 + 7) = {8.167304052088836, 3.513059206594857, 1};
Point(p10 + 8) = {8.015255259768422, 3.576039878516422, 1};
Point(p10 + 9) = {7.855226092672054, 3.614459482369543, 1};
Point(p10 + 10) = {7.691157, 3.627372, 1};
Point(p10 + 11) = {7.527087907327945, 3.614459482369543, 1};
Point(p10 + 12) = {7.367058740231577, 3.576039878516422, 1};
Point(p10 + 13) = {7.215009947911164, 3.513059206594857, 1};
Point(p10 + 14) = {7.074685476254644, 3.427068259768423, 1};
Point(p10 + 15) = {6.949540579464424, 3.320184420535576, 1};
Point(p10 + 16) = {6.842656740231577, 3.195039523745355, 1};
Point(p10 + 17) = {6.756665793405142, 3.054715052088836, 1};
Point(p10 + 18) = {6.693685121483577, 2.902666259768423, 1};
Point(p10 + 19) = {6.655265517630457, 2.742637092672055, 1};
Point(p10 + 20) = {6.642353, 2.578568, 1};
Point(p10 + 21) = {6.655265517630457, 2.414498907327946, 1};
Point(p10 + 22) = {6.693685121483577, 2.254469740231578, 1};
Point(p10 + 23) = {6.756665793405142, 2.102420947911165, 1};
Point(p10 + 24) = {6.842656740231577, 1.962096476254645, 1};
Point(p10 + 25) = {6.949540579464424, 1.836951579464424, 1};
Point(p10 + 26) = {7.074685476254644, 1.730067740231578, 1};
Point(p10 + 27) = {7.215009947911164, 1.644076793405143, 1};
Point(p10 + 28) = {7.367058740231577, 1.581096121483578, 1};
Point(p10 + 29) = {7.527087907327945, 1.542676517630457, 1};
Point(p10 + 30) = {7.691157, 1.529764, 1};
Point(p10 + 31) = {7.855226092672054, 1.542676517630457, 1};
Point(p10 + 32) = {8.015255259768422, 1.581096121483578, 1};
Point(p10 + 33) = {8.167304052088834, 1.644076793405143, 1};
Point(p10 + 34) = {8.307628523745354, 1.730067740231578, 1};
Point(p10 + 35) = {8.432773420535575, 1.836951579464424, 1};
Point(p10 + 36) = {8.539657259768422, 1.962096476254645, 1};
Point(p10 + 37) = {8.625648206594857, 2.102420947911164, 1};
Point(p10 + 38) = {8.688628878516422, 2.254469740231578, 1};
Point(p10 + 39) = {8.727048482369543, 2.414498907327946, 1};
Spline(10) = {8, p10 + 1, p10 + 2, p10 + 3, p10 + 4, p10 + 5, p10 + 6, p10 + 7, p10 + 8, p10 + 9, p10 + 10, p10 + 11, p10 + 12, p10 + 13, p10 + 14, p10 + 15, p10 + 16, p10 + 17, p10 + 18, p10 + 19, p10 + 20, p10 + 21, p10 + 22, p10 + 23, p10 + 24, p10 + 25, p10 + 26, p10 + 27, p10 + 28, p10 + 29, p10 + 30, p10 + 31, p10 + 32, p10 + 33, p10 + 34, p10 + 35, p10 + 36, p10 + 37, p10 + 38, p10 + 39, 8};
Line(11) = {4, 9};
Line(12) = {9, 7};
Line(13) = {5, 9};
p14 = newp;
Point(p14 + 1) = {8.727048482369543, 2.742637092672055, 0};
Point(p14 + 2) = {8.688628878516422, 2.902666259768423, 0};
Point(p14 + 3) = {8.625648206594857, 3.054715052088836, 0};
Point(p14 + 4) = {8.539657259768422, 3.195039523745355, 0};
Point(p14 + 5) = {8.432773420535575, 3.320184420535576, 0};
Point(p14 + 6) = {8.307628523745354, 3.427068259768423, 0};
Point(p14 + 7) = {8.167304052088836, 3.513059206594857, 0};
Point(p14 + 8) = {8.015255259768422, 3.576039878516422, 0};
Point(p14 + 9) = {7.855226092672054, 3.614459482369543, 0};
Point(p14 + 10) = {7.691157, 3.627372, 0};
Point(p14 + 11) = {7.527087907327945, 3.614459482369543, 0};
Point(p14 + 12) = {7.367058740231577, 3.576039878516422, 0};
Point(p14 + 13) = {7.215009947911164, 3.513059206594857, 0};
Point(p14 + 14) = {7.074685476254644, 3.427068259768423, 0};
Point(p14 + 15) = {6.949540579464424, 3.320184420535576, 0};
Point(p14 + 16) = {6.842656740231577, 3.195039523745355, 0};
Point(p14 + 17) = {6.756665793405142, 3.054715052088836, 0};
Point(p14 + 18) = {6.693685121483577, 2.902666259768423, 0};
Point(p14 + 19) = {6.655265517630457, 2.742637092672055, 0};
Point(p14 + 20) = {6.642353, 2.578568, 0};
Point(p14 + 21) = {6.655265517630457, 2.414498907327946, 0};
Point(p14 + 22) = {6.693685121483577, 2.254469740231578, 0};
Point(p14 + 23) = {6.756665793405142, 2.102420947911165, 0};
Point(p14 + 24) = {6.842656740231577, 1.962096476254645, 0};
Point(p14 + 25) = {6.949540579464424, 1.836951579464424, 0};
Point(p14 + 26) = {7.074685476254644, 1.730067740231578, 0};
Point(p14 + 27) = {7.215009947911164, 1.644076793405143, 0};
Point(p14 + 28) = {7.367058740231577, 1.581096121483578, 0};
Point(p14 + 29) = {7.527087907327945, 1.542676517630457, 0};
Point(p14 + 30) = {7.691157, 1.529764, 0};
Point(p14 + 31) = {7.855226092672054, 1.542676517630457, 0};
Point(p14 + 32) = {8.015255259768422, 1.581096121483578, 0};
Point(p14 + 33) = {8.167304052088834, 1.644076793405143, 0};
Point(p14 + 34) = {8.307628523745354, 1.730067740231578, 0};
Point(p14 + 35) = {8.432773420535575, 1.836951579464424, 0};
Point(p14 + 36) = {8.539657259768422, 1.962096476254645, 0};
Point(p14 + 37) = {8.625648206594857, 2.102420947911164, 0};
Point(p14 + 38) = {8.688628878516422, 2.254469740231578, 0};
Point(p14 + 39) = {8.727048482369543, 2.414498907327946, 0};
Spline(14) = {10, p14 + 1, p14 + 2, p14 + 3, p14 + 4, p14 + 5, p14 + 6, p14 + 7, p14 + 8, p14 + 9, p14 + 10, p14 + 11, p14 + 12, p14 + 13, p14 + 14, p14 + 15, p14 + 16, p14 + 17, p14 + 18, p14 + 19, p14 + 20, p14 + 21, p14 + 22, p14 + 23, p14 + 24, p14 + 25, p14 + 26, p14 + 27, p14 + 28, p14 + 29, p14 + 30, p14 + 31, p14 + 32, p14 + 33, p14 + 34, p14 + 35, p14 + 36, p14 + 37, p14 + 38, p14 + 39, 10};
Line(15) = {10, 8};
Curve Loop(1) = {-1, 4, 3, -2};
Plane Surface(1) = {1};
Curve Loop(2) = {-5, 1, 7, -6};
Plane Surface(2) = {2};
Curve Loop(3) = {-2, 7, 9, -8, -10};
Plane Surface(3) = {3};
Curve Loop(4) = {-11, 3, 8, -12};
Plane Surface(4) = {4};
Curve Loop(5) = {-4, 5, 13, -11, -14};
Plane Surface(5) = {5};
Curve Loop(6) = {-6, 13, 12, -9};
Plane Surface(6) = {6};
Curve Loop(7) = {-10, -15, 14, 15};
Surface(7) = {7};
Surface Loop(1) = {1, 2, 3, 4, 5, 6, 7};
Volume(1) = {1};
Physical Surface("INFLOW") = {1};
Physical Surface("OUTFLOW") = {6};
Physical Surface("OBSTACLE") = {7};
Physical Surface("WALL_Y") = {2, 4};
Physical Surface("WALL_Z") = {3, 5};
Physical Volume("FLUID") = {1};
