cl__1 = 3.629197;
cl__2 = 0.517323;
cl__3 = 0.497782;
cl__4 = 0.121927;
Point(1) = {0.667578, -3.949657, 1, cl__1};
Point(2) = {0.667578, -3.949657, 0, cl__1};
Point(3) = {0.667578, 5.925442, 1, cl__1};
Point(4) = {0.667578, 5.925442, 0, cl__1};
Point(5) = {35.954523, -3.949657, 0, cl__2};
Point(6) = {35.954523, -3.949657, 1, cl__2};
Point(7) = {35.954523, 5.925442, 1, cl__3};
Point(8) = {33.270068, 1.112452999999999, 1, cl__4};
Point(9) = {35.954523, 5.925442, 0, cl__3};
Point(10) = {33.270068, 1.112452999999999, 0, cl__4};
Line(1) = {2, 1};
Line(2) = {1, 3};
Line(3) = {4, 3};
Line(4) = {2, 4};
Line(5) = {2, 5};
Line(6) = {5, 6};
Line(7) = {1, 6};
Line(8) = {3, 7};
Line(9) = {6, 7};
p10 = newp;
Point(p10 + 1) = {33.2550567137908, 1.303189475927462, 1};
Point(p10 + 2) = {33.21039248284926, 1.489229386799519, 1};
Point(p10 + 3) = {33.13717508877325, 1.665991812579436, 1};
Point(p10 + 4) = {33.03720738679952, 1.829124275703653, 1};
Point(p10 + 5) = {32.91295091352445, 1.974609913524446, 1};
Point(p10 + 6) = {32.76746527570366, 2.09886638679952, 1};
Point(p10 + 7) = {32.60433281257944, 2.198834088773248, 1};
Point(p10 + 8) = {32.42757038679952, 2.272051482849257, 1};
Point(p10 + 9) = {32.24153047592747, 2.316715713790796, 1};
Point(p10 + 10) = {32.050794, 2.331727, 1};
Point(p10 + 11) = {31.86005752407254, 2.316715713790796, 1};
Point(p10 + 12) = {31.67401761320048, 2.272051482849257, 1};
Point(p10 + 13) = {31.49725518742057, 2.198834088773248, 1};
Point(p10 + 14) = {31.33412272429635, 2.09886638679952, 1};
Point(p10 + 15) = {31.18863708647556, 1.974609913524446, 1};
Point(p10 + 16) = {31.06438061320048, 1.829124275703653, 1};
Point(p10 + 17) = {30.96441291122676, 1.665991812579436, 1};
Point(p10 + 18) = {30.89119551715075, 1.48922938679952, 1};
Point(p10 + 19) = {30.84653128620921, 1.303189475927462, 1};
Point(p10 + 20) = {30.83152, 1.112453, 1};
Point(p10 + 21) = {30.84653128620921, 0.9217165240725376, 1};
Point(p10 + 22) = {30.89119551715075, 0.7356766132004799, 1};
Point(p10 + 23) = {30.96441291122676, 0.5589141874205644, 1};
Point(p10 + 24) = {31.06438061320048, 0.3957817242963472, 1};
Point(p10 + 25) = {31.18863708647556, 0.2502960864755535, 1};
Point(p10 + 26) = {31.33412272429635, 0.1260396132004804, 1};
Point(p10 + 27) = {31.49725518742057, 0.02607191122675201, 1};
Point(p10 + 28) = {31.67401761320048, -0.04714548284925701, 1};
Point(p10 + 29) = {31.86005752407254, -0.09180971379079583, 1};
Point(p10 + 30) = {32.050794, -0.1068210000000001, 1};
Point(p10 + 31) = {32.24153047592747, -0.09180971379079605, 1};
Point(p10 + 32) = {32.42757038679952, -0.04714548284925724, 1};
Point(p10 + 33) = {32.60433281257944, 0.02607191122675179, 1};
Point(p10 + 34) = {32.76746527570366, 0.1260396132004801, 1};
Point(p10 + 35) = {32.91295091352445, 0.2502960864755532, 1};
Point(p10 + 36) = {33.03720738679952, 0.3957817242963467, 1};
Point(p10 + 37) = {33.13717508877325, 0.5589141874205635, 1};
Point(p10 + 38) = {33.21039248284926, 0.7356766132004801, 1};
Point(p10 + 39) = {33.2550567137908, 0.9217165240725372, 1};
Spline(10) = {8, p10 + 1, p10 + 2, p10 + 3, p10 + 4, p10 + 5, p10 + 6, p10 + 7, p10 + 8, p10 + 9, p10 + 10, p10 + 11, p10 + 12, p10 + 13, p10 + 14, p10 + 15, p10 + 16, p10 + 17, p10 + 18, p10 + 19, p10 + 20, p10 + 21, p10 + 22, p10 + 23, p10 + 24, p10 + 25, p10 + 26, p10 + 27, p10 + 28, p10 + 29, p10 + 30, p10 + 31, p10 + 32, p10 + 33, p10 + 34, p10 + 35, p10 + 36, p10 + 37, p10 + 38, p10 + 39, 8};
Line(11) = {4, 9};
Line(12) = {9, 7};
Line(13) = {5, 9};
p14 = newp;
Point(p14 + 1) = {33.2550567137908, 1.303189475927462, 0};
Point(p14 + 2) = {33.21039248284926, 1.489229386799519, 0};
Point(p14 + 3) = {33.13717508877325, 1.665991812579436, 0};
Point(p14 + 4) = {33.03720738679952, 1.829124275703653, 0};
Point(p14 + 5) = {32.91295091352445, 1.974609913524446, 0};
Point(p14 + 6) = {32.76746527570366, 2.09886638679952, 0};
Point(p14 + 7) = {32.60433281257944, 2.198834088773248, 0};
Point(p14 + 8) = {32.42757038679952, 2.272051482849257, 0};
Point(p14 + 9) = {32.24153047592747, 2.316715713790796, 0};
Point(p14 + 10) = {32.050794, 2.331727, 0};
Point(p14 + 11) = {31.86005752407254, 2.316715713790796, 0};
Point(p14 + 12) = {31.67401761320048, 2.272051482849257, 0};
Point(p14 + 13) = {31.49725518742057, 2.198834088773248, 0};
Point(p14 + 14) = {31.33412272429635, 2.09886638679952, 0};
Point(p14 + 15) = {31.18863708647556, 1.974609913524446, 0};
Point(p14 + 16) = {31.06438061320048, 1.829124275703653, 0};
Point(p14 + 17) = {30.96441291122676, 1.665991812579436, 0};
Point(p14 + 18) = {30.89119551715075, 1.48922938679952, 0};
Point(p14 + 19) = {30.84653128620921, 1.303189475927462, 0};
Point(p14 + 20) = {30.83152, 1.112453, 0};
Point(p14 + 21) = {30.84653128620921, 0.9217165240725376, 0};
Point(p14 + 22) = {30.89119551715075, 0.7356766132004799, 0};
Point(p14 + 23) = {30.96441291122676, 0.5589141874205644, 0};
Point(p14 + 24) = {31.06438061320048, 0.3957817242963472, 0};
Point(p14 + 25) = {31.18863708647556, 0.2502960864755535, 0};
Point(p14 + 26) = {31.33412272429635, 0.1260396132004804, 0};
Point(p14 + 27) = {31.49725518742057, 0.02607191122675201, 0};
Point(p14 + 28) = {31.67401761320048, -0.04714548284925701, 0};
Point(p14 + 29) = {31.86005752407254, -0.09180971379079583, 0};
Point(p14 + 30) = {32.050794, -0.1068210000000001, 0};
Point(p14 + 31) = {32.24153047592747, -0.09180971379079605, 0};
Point(p14 + 32) = {32.42757038679952, -0.04714548284925724, 0};
Point(p14 + 33) = {32.60433281257944, 0.02607191122675179, 0};
Point(p14 + 34) = {32.76746527570366, 0.1260396132004801, 0};
Point(p14 + 35) = {32.91295091352445, 0.2502960864755532, 0};
Point(p14 + 36) = {33.03720738679952, 0.3957817242963467, 0};
Point(p14 + 37) = {33.13717508877325, 0.5589141874205635, 0};
Point(p14 + 38) = {33.21039248284926, 0.7356766132004801, 0};
Point(p14 + 39) = {33.2550567137908, 0.9217165240725372, 0};
Spline(14) = {10, p14 + 1, p14 + 2, p14 + 3, p14 + 4, p14 + 5, p14 + 6, p14 + 7, p14 + 8, p14 + 9, p14 + 10, p14 + 11, p14 + 12, p14 + 13, p14 + 14, p14 + 15, p14 + 16, p14 + 17, p14 + 18, p14 + 19, p14 + 20, p14 + 21, p14 + 22, p14 + 23, p14 + 24, p14 + 25, p14 + 26, p14 + 27, p14 + 28, p14 + 29, p14 + 30, p14 + 31, p14 + 32, p14 + 33, p14 + 34, p14 + 35, p14 + 36, p14 + 37, p14 + 38, p14 + 39, 10};
Line(15) = {10, 8};
Curve Loop(1) = {-1, 4, 3, -2};
Plane Surface(1) = {1};
Curve Loop(2) = {-5, 1, 7, -6};
Plane Surface(2) = {2};
Curve Loop(3) = {-2, 7, 9, -8, -10};
Plane Surface(3) = {3};
Curve Loop(4) = {-11, 3, 8, -12};
Plane Surface(4) = {4};
Curve Loop(5) = {-4, 5, 13, -11, -14};
Plane Surface(5) = {5};
Curve Loop(6) = {-6, 13, 12, -9};
Plane Surface(6) = {6};
Curve Loop(7) = {-10, -15, 14, 15};
Surface(7) = {7};
Surface Loop(1) = {1, 2, 3, 4, 5, 6, 7};
Volume(1) = {1};
Physical Surface("INFLOW") = {1};
Physical Surface("OUTFLOW") = {6};
Physical Surface("OBSTACLE") = {7};
Physical Surface("WALL_Y") = {2, 4};
Physical Surface("WALL_Z") = {3, 5};
Physical Volume("FLUID") = {1};
