cl__1 = 3.133205;
cl__2 = 0.424904;
cl__3 = 0.589307;
cl__4 = 0.061747;
Point(1) = {0.550839, -4.43807, 1, cl__1};
Point(2) = {0.550839, -4.43807, 0, cl__1};
Point(3) = {0.550839, 5.542573000000001, 1, cl__1};
Point(4) = {0.550839, 5.542573000000001, 0, cl__1};
Point(5) = {30.932092, -4.43807, 0, cl__2};
Point(6) = {30.932092, -4.43807, 1, cl__2};
Point(7) = {30.932092, 5.542573000000001, 1, cl__3};
Point(8) = {28.856297, -0.3847750000000001, 1, cl__4};
Point(9) = {30.932092, 5.542573000000001, 0, cl__3};
Point(10) = {28.856297, -0.3847750000000001, 0, cl__4};
Line(1) = {2, 1};
Line(2) = {1, 3};
Line(3) = {4, 3};
Line(4) = {2, 4};
Line(5) = {2, 5};
Line(6) = {5, 6};
Line(7) = {1, 6};
Line(8) = {3, 7};
Line(9) = {6, 7};
p10 = newp;
Point(p10 + 1) = {28.84869496891392, -0.2881820366094688, 1};
Point(p10 + 2) = {28.8260760628907, -0.1939675125512787, 1};
Point(p10 + 3) = {28.7889972344645, -0.104451302087821, 1};
Point(p10 + 4) = {28.73837148744872, -0.02183759140797581, 1};
Point(p10 + 5) = {28.67544539575213, 0.0518393957521327, 1};
Point(p10 + 6) = {28.60176840859203, 0.1147654874487213, 1};
Point(p10 + 7) = {28.51915469791218, 0.1653912344644947, 1};
Point(p10 + 8) = {28.42963848744872, 0.2024700628907032, 1};
Point(p10 + 9) = {28.33542396339053, 0.2250889689139173, 1};
Point(p10 + 10) = {28.238831, 0.232691, 1};
Point(p10 + 11) = {28.14223803660947, 0.2250889689139173, 1};
Point(p10 + 12) = {28.04802351255128, 0.2024700628907034, 1};
Point(p10 + 13) = {27.95850730208782, 0.1653912344644948, 1};
Point(p10 + 14) = {27.87589359140798, 0.1147654874487213, 1};
Point(p10 + 15) = {27.80221660424787, 0.05183939575213276, 1};
Point(p10 + 16) = {27.73929051255128, -0.0218375914079757, 1};
Point(p10 + 17) = {27.68866476553551, -0.1044513020878209, 1};
Point(p10 + 18) = {27.6515859371093, -0.1939675125512786, 1};
Point(p10 + 19) = {27.62896703108608, -0.2881820366094687, 1};
Point(p10 + 20) = {27.621365, -0.3847749999999999, 1};
Point(p10 + 21) = {27.62896703108608, -0.4813679633905311, 1};
Point(p10 + 22) = {27.6515859371093, -0.5755824874487214, 1};
Point(p10 + 23) = {27.68866476553551, -0.6650986979121787, 1};
Point(p10 + 24) = {27.73929051255128, -0.7477124085920241, 1};
Point(p10 + 25) = {27.80221660424787, -0.8213893957521327, 1};
Point(p10 + 26) = {27.87589359140798, -0.8843154874487211, 1};
Point(p10 + 27) = {27.95850730208782, -0.9349412344644946, 1};
Point(p10 + 28) = {28.04802351255128, -0.9720200628907032, 1};
Point(p10 + 29) = {28.14223803660947, -0.9946389689139172, 1};
Point(p10 + 30) = {28.238831, -1.002241, 1};
Point(p10 + 31) = {28.33542396339053, -0.9946389689139172, 1};
Point(p10 + 32) = {28.42963848744872, -0.9720200628907033, 1};
Point(p10 + 33) = {28.51915469791218, -0.9349412344644947, 1};
Point(p10 + 34) = {28.60176840859203, -0.8843154874487213, 1};
Point(p10 + 35) = {28.67544539575213, -0.8213893957521328, 1};
Point(p10 + 36) = {28.73837148744872, -0.7477124085920244, 1};
Point(p10 + 37) = {28.7889972344645, -0.6650986979121791, 1};
Point(p10 + 38) = {28.8260760628907, -0.5755824874487214, 1};
Point(p10 + 39) = {28.84869496891392, -0.4813679633905313, 1};
Spline(10) = {8, p10 + 1, p10 + 2, p10 + 3, p10 + 4, p10 + 5, p10 + 6, p10 + 7, p10 + 8, p10 + 9, p10 + 10, p10 + 11, p10 + 12, p10 + 13, p10 + 14, p10 + 15, p10 + 16, p10 + 17, p10 + 18, p10 + 19, p10 + 20, p10 + 21, p10 + 22, p10 + 23, p10 + 24, p10 + 25, p10 + 26, p10 + 27, p10 + 28, p10 + 29, p10 + 30, p10 + 31, p10 + 32, p10 + 33, p10 + 34, p10 + 35, p10 + 36, p10 + 37, p10 + 38, p10 + 39, 8};
Line(11) = {4, 9};
Line(12) = {9, 7};
Line(13) = {5, 9};
p14 = newp;
Point(p14 + 1) = {28.84869496891392, -0.2881820366094688, 0};
Point(p14 + 2) = {28.8260760628907, -0.1939675125512787, 0};
Point(p14 + 3) = {28.7889972344645, -0.104451302087821, 0};
Point(p14 + 4) = {28.73837148744872, -0.02183759140797581, 0};
Point(p14 + 5) = {28.67544539575213, 0.0518393957521327, 0};
Point(p14 + 6) = {28.60176840859203, 0.1147654874487213, 0};
Point(p14 + 7) = {28.51915469791218, 0.1653912344644947, 0};
Point(p14 + 8) = {28.42963848744872, 0.2024700628907032, 0};
Point(p14 + 9) = {28.33542396339053, 0.2250889689139173, 0};
Point(p14 + 10) = {28.238831, 0.232691, 0};
Point(p14 + 11) = {28.14223803660947, 0.2250889689139173, 0};
Point(p14 + 12) = {28.04802351255128, 0.2024700628907034, 0};
Point(p14 + 13) = {27.95850730208782, 0.1653912344644948, 0};
Point(p14 + 14) = {27.87589359140798, 0.1147654874487213, 0};
Point(p14 + 15) = {27.80221660424787, 0.05183939575213276, 0};
Point(p14 + 16) = {27.73929051255128, -0.0218375914079757, 0};
Point(p14 + 17) = {27.68866476553551, -0.1044513020878209, 0};
Point(p14 + 18) = {27.6515859371093, -0.1939675125512786, 0};
Point(p14 + 19) = {27.62896703108608, -0.2881820366094687, 0};
Point(p14 + 20) = {27.621365, -0.3847749999999999, 0};
Point(p14 + 21) = {27.62896703108608, -0.4813679633905311, 0};
Point(p14 + 22) = {27.6515859371093, -0.5755824874487214, 0};
Point(p14 + 23) = {27.68866476553551, -0.6650986979121787, 0};
Point(p14 + 24) = {27.73929051255128, -0.7477124085920241, 0};
Point(p14 + 25) = {27.80221660424787, -0.8213893957521327, 0};
Point(p14 + 26) = {27.87589359140798, -0.8843154874487211, 0};
Point(p14 + 27) = {27.95850730208782, -0.9349412344644946, 0};
Point(p14 + 28) = {28.04802351255128, -0.9720200628907032, 0};
Point(p14 + 29) = {28.14223803660947, -0.9946389689139172, 0};
Point(p14 + 30) = {28.238831, -1.002241, 0};
Point(p14 + 31) = {28.33542396339053, -0.9946389689139172, 0};
Point(p14 + 32) = {28.42963848744872, -0.9720200628907033, 0};
Point(p14 + 33) = {28.51915469791218, -0.9349412344644947, 0};
Point(p14 + 34) = {28.60176840859203, -0.8843154874487213, 0};
Point(p14 + 35) = {28.67544539575213, -0.8213893957521328, 0};
Point(p14 + 36) = {28.73837148744872, -0.7477124085920244, 0};
Point(p14 + 37) = {28.7889972344645, -0.6650986979121791, 0};
Point(p14 + 38) = {28.8260760628907, -0.5755824874487214, 0};
Point(p14 + 39) = {28.84869496891392, -0.4813679633905313, 0};
Spline(14) = {10, p14 + 1, p14 + 2, p14 + 3, p14 + 4, p14 + 5, p14 + 6, p14 + 7, p14 + 8, p14 + 9, p14 + 10, p14 + 11, p14 + 12, p14 + 13, p14 + 14, p14 + 15, p14 + 16, p14 + 17, p14 + 18, p14 + 19, p14 + 20, p14 + 21, p14 + 22, p14 + 23, p14 + 24, p14 + 25, p14 + 26, p14 + 27, p14 + 28, p14 + 29, p14 + 30, p14 + 31, p14 + 32, p14 + 33, p14 + 34, p14 + 35, p14 + 36, p14 + 37, p14 + 38, p14 + 39, 10};
Line(15) = {10, 8};
Curve Loop(1) = {-1, 4, 3, -2};
Plane Surface(1) = {1};
Curve Loop(2) = {-5, 1, 7, -6};
Plane Surface(2) = {2};
Curve Loop(3) = {-2, 7, 9, -8, -10};
Plane Surface(3) = {3};
Curve Loop(4) = {-11, 3, 8, -12};
Plane Surface(4) = {4};
Curve Loop(5) = {-4, 5, 13, -11, -14};
Plane Surface(5) = {5};
Curve Loop(6) = {-6, 13, 12, -9};
Plane Surface(6) = {6};
Curve Loop(7) = {-10, -15, 14, 15};
Surface(7) = {7};
Surface Loop(1) = {1, 2, 3, 4, 5, 6, 7};
Volume(1) = {1};
Physical Surface("INFLOW") = {1};
Physical Surface("OUTFLOW") = {6};
Physical Surface("OBSTACLE") = {7};
Physical Surface("WALL_Y") = {2, 4};
Physical Surface("WALL_Z") = {3, 5};
Physical Volume("FLUID") = {1};
