cl__1 = 3.929488;
cl__2 = 1.22223;
cl__3 = 1.190297;
cl__4 = 0.10393;
Point(1) = {0.38248, -3.349937, 1, cl__1};
Point(2) = {0.38248, -3.349937, 0, cl__1};
Point(3) = {0.38248, 5.089176999999999, 1, cl__1};
Point(4) = {0.38248, 5.089176999999999, 0, cl__1};
Point(5) = {39.067673, -3.349937, 0, cl__2};
Point(6) = {39.067673, -3.349937, 1, cl__2};
Point(7) = {39.067673, 5.089176999999999, 1, cl__3};
Point(8) = {27.711986, 1.365386, 1, cl__4};
Point(9) = {39.067673, 5.089176999999999, 0, cl__3};
Point(10) = {27.711986, 1.365386, 0, cl__4};
Line(1) = {2, 1};
Line(2) = {1, 3};
Line(3) = {4, 3};
Line(4) = {2, 4};
Line(5) = {2, 5};
Line(6) = {5, 6};
Line(7) = {1, 6};
Line(8) = {3, 7};
Line(9) = {6, 7};
p10 = newp;
Point(p10 + 1) = {27.69919049238052, 1.527968339516312, 1};
Point(p10 + 2) = {27.66111903738555, 1.686547362253883, 1};
Point(p10 + 3) = {27.59870908058897, 1.837218326379311, 1};
Point(p10 + 4) = {27.51349736225388, 1.976271212707567, 1};
Point(p10 + 5) = {27.40758207768718, 2.100282077687178, 1};
Point(p10 + 6) = {27.28357121270757, 2.206197362253883, 1};
Point(p10 + 7) = {27.14451832637931, 2.29140908058897, 1};
Point(p10 + 8) = {26.99384736225388, 2.353819037385553, 1};
Point(p10 + 9) = {26.83526833951631, 2.391890492380527, 1};
Point(p10 + 10) = {26.672686, 2.404686, 1};
Point(p10 + 11) = {26.51010366048369, 2.391890492380527, 1};
Point(p10 + 12) = {26.35152463774612, 2.353819037385553, 1};
Point(p10 + 13) = {26.20085367362069, 2.291409080588971, 1};
Point(p10 + 14) = {26.06180078729243, 2.206197362253883, 1};
Point(p10 + 15) = {25.93778992231282, 2.100282077687179, 1};
Point(p10 + 16) = {25.83187463774611, 1.976271212707567, 1};
Point(p10 + 17) = {25.74666291941103, 1.837218326379311, 1};
Point(p10 + 18) = {25.68425296261444, 1.686547362253883, 1};
Point(p10 + 19) = {25.64618150761947, 1.527968339516312, 1};
Point(p10 + 20) = {25.633386, 1.365386, 1};
Point(p10 + 21) = {25.64618150761947, 1.202803660483688, 1};
Point(p10 + 22) = {25.68425296261444, 1.044224637746117, 1};
Point(p10 + 23) = {25.74666291941103, 0.8935536736206896, 1};
Point(p10 + 24) = {25.83187463774611, 0.7545007872924329, 1};
Point(p10 + 25) = {25.93778992231282, 0.6304899223128213, 1};
Point(p10 + 26) = {26.06180078729243, 0.5245746377461173, 1};
Point(p10 + 27) = {26.20085367362069, 0.4393629194110295, 1};
Point(p10 + 28) = {26.35152463774612, 0.376952962614447, 1};
Point(p10 + 29) = {26.51010366048369, 0.3388815076194736, 1};
Point(p10 + 30) = {26.672686, 0.3260860000000001, 1};
Point(p10 + 31) = {26.83526833951631, 0.3388815076194733, 1};
Point(p10 + 32) = {26.99384736225388, 0.3769529626144469, 1};
Point(p10 + 33) = {27.14451832637931, 0.4393629194110293, 1};
Point(p10 + 34) = {27.28357121270757, 0.5245746377461171, 1};
Point(p10 + 35) = {27.40758207768718, 0.6304899223128211, 1};
Point(p10 + 36) = {27.51349736225388, 0.7545007872924325, 1};
Point(p10 + 37) = {27.59870908058897, 0.8935536736206888, 1};
Point(p10 + 38) = {27.66111903738555, 1.044224637746117, 1};
Point(p10 + 39) = {27.69919049238052, 1.202803660483688, 1};
Spline(10) = {8, p10 + 1, p10 + 2, p10 + 3, p10 + 4, p10 + 5, p10 + 6, p10 + 7, p10 + 8, p10 + 9, p10 + 10, p10 + 11, p10 + 12, p10 + 13, p10 + 14, p10 + 15, p10 + 16, p10 + 17, p10 + 18, p10 + 19, p10 + 20, p10 + 21, p10 + 22, p10 + 23, p10 + 24, p10 + 25, p10 + 26, p10 + 27, p10 + 28, p10 + 29, p10 + 30, p10 + 31, p10 + 32, p10 + 33, p10 + 34, p10 + 35, p10 + 36, p10 + 37, p10 + 38, p10 + 39, 8};
Line(11) = {4, 9};
Line(12) = {9, 7};
Line(13) = {5, 9};
p14 = newp;
Point(p14 + 1) = {27.69919049238052, 1.527968339516312, 0};
Point(p14 + 2) = {27.66111903738555, 1.686547362253883, 0};
Point(p14 + 3) = {27.59870908058897, 1.837218326379311, 0};
Point(p14 + 4) = {27.51349736225388, 1.976271212707567, 0};
Point(p14 + 5) = {27.40758207768718, 2.100282077687178, 0};
Point(p14 + 6) = {27.28357121270757, 2.206197362253883, 0};
Point(p14 + 7) = {27.14451832637931, 2.29140908058897, 0};
Point(p14 + 8) = {26.99384736225388, 2.353819037385553, 0};
Point(p14 + 9) = {26.83526833951631, 2.391890492380527, 0};
Point(p14 + 10) = {26.672686, 2.404686, 0};
Point(p14 + 11) = {26.51010366048369, 2.391890492380527, 0};
Point(p14 + 12) = {26.35152463774612, 2.353819037385553, 0};
Point(p14 + 13) = {26.20085367362069, 2.291409080588971, 0};
Point(p14 + 14) = {26.06180078729243, 2.206197362253883, 0};
Point(p14 + 15) = {25.93778992231282, 2.100282077687179, 0};
Point(p14 + 16) = {25.83187463774611, 1.976271212707567, 0};
Point(p14 + 17) = {25.74666291941103, 1.837218326379311, 0};
Point(p14 + 18) = {25.68425296261444, 1.686547362253883, 0};
Point(p14 + 19) = {25.64618150761947, 1.527968339516312, 0};
Point(p14 + 20) = {25.633386, 1.365386, 0};
Point(p14 + 21) = {25.64618150761947, 1.202803660483688, 0};
Point(p14 + 22) = {25.68425296261444, 1.044224637746117, 0};
Point(p14 + 23) = {25.74666291941103, 0.8935536736206896, 0};
Point(p14 + 24) = {25.83187463774611, 0.7545007872924329, 0};
Point(p14 + 25) = {25.93778992231282, 0.6304899223128213, 0};
Point(p14 + 26) = {26.06180078729243, 0.5245746377461173, 0};
Point(p14 + 27) = {26.20085367362069, 0.4393629194110295, 0};
Point(p14 + 28) = {26.35152463774612, 0.376952962614447, 0};
Point(p14 + 29) = {26.51010366048369, 0.3388815076194736, 0};
Point(p14 + 30) = {26.672686, 0.3260860000000001, 0};
Point(p14 + 31) = {26.83526833951631, 0.3388815076194733, 0};
Point(p14 + 32) = {26.99384736225388, 0.3769529626144469, 0};
Point(p14 + 33) = {27.14451832637931, 0.4393629194110293, 0};
Point(p14 + 34) = {27.28357121270757, 0.5245746377461171, 0};
Point(p14 + 35) = {27.40758207768718, 0.6304899223128211, 0};
Point(p14 + 36) = {27.51349736225388, 0.7545007872924325, 0};
Point(p14 + 37) = {27.59870908058897, 0.8935536736206888, 0};
Point(p14 + 38) = {27.66111903738555, 1.044224637746117, 0};
Point(p14 + 39) = {27.69919049238052, 1.202803660483688, 0};
Spline(14) = {10, p14 + 1, p14 + 2, p14 + 3, p14 + 4, p14 + 5, p14 + 6, p14 + 7, p14 + 8, p14 + 9, p14 + 10, p14 + 11, p14 + 12, p14 + 13, p14 + 14, p14 + 15, p14 + 16, p14 + 17, p14 + 18, p14 + 19, p14 + 20, p14 + 21, p14 + 22, p14 + 23, p14 + 24, p14 + 25, p14 + 26, p14 + 27, p14 + 28, p14 + 29, p14 + 30, p14 + 31, p14 + 32, p14 + 33, p14 + 34, p14 + 35, p14 + 36, p14 + 37, p14 + 38, p14 + 39, 10};
Line(15) = {10, 8};
Curve Loop(1) = {-1, 4, 3, -2};
Plane Surface(1) = {1};
Curve Loop(2) = {-5, 1, 7, -6};
Plane Surface(2) = {2};
Curve Loop(3) = {-2, 7, 9, -8, -10};
Plane Surface(3) = {3};
Curve Loop(4) = {-11, 3, 8, -12};
Plane Surface(4) = {4};
Curve Loop(5) = {-4, 5, 13, -11, -14};
Plane Surface(5) = {5};
Curve Loop(6) = {-6, 13, 12, -9};
Plane Surface(6) = {6};
Curve Loop(7) = {-10, -15, 14, 15};
Surface(7) = {7};
Surface Loop(1) = {1, 2, 3, 4, 5, 6, 7};
Volume(1) = {1};
Physical Surface("INFLOW") = {1};
Physical Surface("OUTFLOW") = {6};
Physical Surface("OBSTACLE") = {7};
Physical Surface("WALL_Y") = {2, 4};
Physical Surface("WALL_Z") = {3, 5};
Physical Volume("FLUID") = {1};
