cl__1 = 3.03446;
cl__2 = 1.213166;
cl__3 = 1.326119;
cl__4 = 0.112272;
cl__5 = 0.09933599999999999;
Point(1) = {0.327301, -3.447748, 1, cl__1};
Point(2) = {0.327301, -3.447748, 0, cl__1};
Point(3) = {0.327301, 4.55393, 1, cl__2};
Point(4) = {0.327301, 4.55393, 0, cl__2};
Point(5) = {30.079692, -3.447748, 0, cl__3};
Point(6) = {30.079692, -3.447748, 1, cl__3};
Point(7) = {30.079692, 4.55393, 1, cl__2};
Point(8) = {18.081851, -1.569055, 1, cl__4};
Point(9) = {14.948133, 0.7336809999999998, 1, cl__5};
Point(10) = {30.079692, 4.55393, 0, cl__2};
Point(11) = {18.081851, -1.569055, 0, cl__4};
Point(12) = {14.948133, 0.7336809999999998, 0, cl__5};
Line(1) = {2, 1};
Line(2) = {1, 3};
Line(3) = {4, 3};
Line(4) = {2, 4};
Line(5) = {2, 5};
Line(6) = {5, 6};
Line(7) = {1, 6};
Line(8) = {3, 7};
Line(9) = {6, 7};
p10 = newp;
Point(p10 + 1) = {18.06802847837629, -1.393423210278962, 1};
Point(p10 + 2) = {18.02690126986186, -1.222116058109348, 1};
Point(p10 + 3) = {17.95948206282372, -1.059351694113416, 1};
Point(p10 + 4) = {17.86743094189065, -0.9091379171166992, 1};
Point(p10 + 5) = {17.7530145111602, -0.7751734888398019, 1};
Point(p10 + 6) = {17.6190500828833, -0.6607570581093477, 1};
Point(p10 + 7) = {17.46883630588659, -0.5687059371762841, 1};
Point(p10 + 8) = {17.30607194189065, -0.5012867301381378, 1};
Point(p10 + 9) = {17.13476478972104, -0.460159521623708, 1};
Point(p10 + 10) = {16.959133, -0.446337, 1};
Point(p10 + 11) = {16.78350121027896, -0.4601595216237082, 1};
Point(p10 + 12) = {16.61219405810935, -0.5012867301381376, 1};
Point(p10 + 13) = {16.44942969411342, -0.5687059371762839, 1};
Point(p10 + 14) = {16.2992159171167, -0.6607570581093477, 1};
Point(p10 + 15) = {16.1652514888398, -0.7751734888398017, 1};
Point(p10 + 16) = {16.05083505810935, -0.909137917116699, 1};
Point(p10 + 17) = {15.95878393717629, -1.059351694113416, 1};
Point(p10 + 18) = {15.89136473013814, -1.222116058109348, 1};
Point(p10 + 19) = {15.85023752162371, -1.393423210278962, 1};
Point(p10 + 20) = {15.836415, -1.569055, 1};
Point(p10 + 21) = {15.85023752162371, -1.744686789721038, 1};
Point(p10 + 22) = {15.89136473013814, -1.915993941890653, 1};
Point(p10 + 23) = {15.95878393717629, -2.078758305886584, 1};
Point(p10 + 24) = {16.05083505810935, -2.228972082883301, 1};
Point(p10 + 25) = {16.1652514888398, -2.362936511160198, 1};
Point(p10 + 26) = {16.2992159171167, -2.477352941890652, 1};
Point(p10 + 27) = {16.44942969411342, -2.569404062823716, 1};
Point(p10 + 28) = {16.61219405810935, -2.636823269861862, 1};
Point(p10 + 29) = {16.78350121027896, -2.677950478376292, 1};
Point(p10 + 30) = {16.959133, -2.691773, 1};
Point(p10 + 31) = {17.13476478972104, -2.677950478376292, 1};
Point(p10 + 32) = {17.30607194189065, -2.636823269861862, 1};
Point(p10 + 33) = {17.46883630588659, -2.569404062823716, 1};
Point(p10 + 34) = {17.6190500828833, -2.477352941890652, 1};
Point(p10 + 35) = {17.7530145111602, -2.362936511160199, 1};
Point(p10 + 36) = {17.86743094189065, -2.228972082883301, 1};
Point(p10 + 37) = {17.95948206282372, -2.078758305886585, 1};
Point(p10 + 38) = {18.02690126986186, -1.915993941890653, 1};
Point(p10 + 39) = {18.06802847837629, -1.744686789721038, 1};
Spline(10) = {8, p10 + 1, p10 + 2, p10 + 3, p10 + 4, p10 + 5, p10 + 6, p10 + 7, p10 + 8, p10 + 9, p10 + 10, p10 + 11, p10 + 12, p10 + 13, p10 + 14, p10 + 15, p10 + 16, p10 + 17, p10 + 18, p10 + 19, p10 + 20, p10 + 21, p10 + 22, p10 + 23, p10 + 24, p10 + 25, p10 + 26, p10 + 27, p10 + 28, p10 + 29, p10 + 30, p10 + 31, p10 + 32, p10 + 33, p10 + 34, p10 + 35, p10 + 36, p10 + 37, p10 + 38, p10 + 39, 8};
p11 = newp;
Point(p11 + 1) = {14.93590307770193, 0.8890768966268288, 1};
Point(p11 + 2) = {14.89951445208347, 1.040646430549292, 1};
Point(p11 + 3) = {14.83986313187428, 1.184657456811776, 1};
Point(p11 + 4) = {14.75841793054929, 1.317563946002503, 1};
Point(p11 + 5) = {14.65718429926625, 1.43609329926625, 1};
Point(p11 + 6) = {14.5386549460025, 1.537326930549292, 1};
Point(p11 + 7) = {14.40574845681178, 1.618772131874281, 1};
Point(p11 + 8) = {14.26173743054929, 1.67842345208347, 1};
Point(p11 + 9) = {14.11016789662683, 1.714812077701927, 1};
Point(p11 + 10) = {13.954772, 1.727042, 1};
Point(p11 + 11) = {13.79937610337317, 1.714812077701926, 1};
Point(p11 + 12) = {13.64780656945071, 1.67842345208347, 1};
Point(p11 + 13) = {13.50379554318822, 1.618772131874281, 1};
Point(p11 + 14) = {13.3708890539975, 1.537326930549292, 1};
Point(p11 + 15) = {13.25235970073375, 1.43609329926625, 1};
Point(p11 + 16) = {13.15112606945071, 1.317563946002504, 1};
Point(p11 + 17) = {13.06968086812572, 1.184657456811776, 1};
Point(p11 + 18) = {13.01002954791653, 1.040646430549292, 1};
Point(p11 + 19) = {12.97364092229807, 0.889076896626829, 1};
Point(p11 + 20) = {12.961411, 0.7336810000000001, 1};
Point(p11 + 21) = {12.97364092229807, 0.5782851033731714, 1};
Point(p11 + 22) = {13.01002954791653, 0.4267155694507075, 1};
Point(p11 + 23) = {13.06968086812572, 0.2827045431882246, 1};
Point(p11 + 24) = {13.15112606945071, 0.1497980539974967, 1};
Point(p11 + 25) = {13.25235970073375, 0.03126870073374999, 1};
Point(p11 + 26) = {13.3708890539975, -0.06996493054929209, 1};
Point(p11 + 27) = {13.50379554318822, -0.1514101318742812, 1};
Point(p11 + 28) = {13.64780656945071, -0.21106145208347, 1};
Point(p11 + 29) = {13.79937610337317, -0.2474500777019265, 1};
Point(p11 + 30) = {13.954772, -0.25968, 1};
Point(p11 + 31) = {14.11016789662683, -0.2474500777019266, 1};
Point(p11 + 32) = {14.26173743054929, -0.2110614520834702, 1};
Point(p11 + 33) = {14.40574845681178, -0.1514101318742813, 1};
Point(p11 + 34) = {14.5386549460025, -0.06996493054929231, 1};
Point(p11 + 35) = {14.65718429926625, 0.03126870073374977, 1};
Point(p11 + 36) = {14.75841793054929, 0.1497980539974963, 1};
Point(p11 + 37) = {14.83986313187428, 0.2827045431882239, 1};
Point(p11 + 38) = {14.89951445208347, 0.4267155694507077, 1};
Point(p11 + 39) = {14.93590307770193, 0.5782851033731711, 1};
Spline(11) = {9, p11 + 1, p11 + 2, p11 + 3, p11 + 4, p11 + 5, p11 + 6, p11 + 7, p11 + 8, p11 + 9, p11 + 10, p11 + 11, p11 + 12, p11 + 13, p11 + 14, p11 + 15, p11 + 16, p11 + 17, p11 + 18, p11 + 19, p11 + 20, p11 + 21, p11 + 22, p11 + 23, p11 + 24, p11 + 25, p11 + 26, p11 + 27, p11 + 28, p11 + 29, p11 + 30, p11 + 31, p11 + 32, p11 + 33, p11 + 34, p11 + 35, p11 + 36, p11 + 37, p11 + 38, p11 + 39, 9};
Line(12) = {4, 10};
Line(13) = {10, 7};
Line(14) = {5, 10};
p15 = newp;
Point(p15 + 1) = {18.06802847837629, -1.393423210278962, 0};
Point(p15 + 2) = {18.02690126986186, -1.222116058109348, 0};
Point(p15 + 3) = {17.95948206282372, -1.059351694113416, 0};
Point(p15 + 4) = {17.86743094189065, -0.9091379171166992, 0};
Point(p15 + 5) = {17.7530145111602, -0.7751734888398019, 0};
Point(p15 + 6) = {17.6190500828833, -0.6607570581093477, 0};
Point(p15 + 7) = {17.46883630588659, -0.5687059371762841, 0};
Point(p15 + 8) = {17.30607194189065, -0.5012867301381378, 0};
Point(p15 + 9) = {17.13476478972104, -0.460159521623708, 0};
Point(p15 + 10) = {16.959133, -0.446337, 0};
Point(p15 + 11) = {16.78350121027896, -0.4601595216237082, 0};
Point(p15 + 12) = {16.61219405810935, -0.5012867301381376, 0};
Point(p15 + 13) = {16.44942969411342, -0.5687059371762839, 0};
Point(p15 + 14) = {16.2992159171167, -0.6607570581093477, 0};
Point(p15 + 15) = {16.1652514888398, -0.7751734888398017, 0};
Point(p15 + 16) = {16.05083505810935, -0.909137917116699, 0};
Point(p15 + 17) = {15.95878393717629, -1.059351694113416, 0};
Point(p15 + 18) = {15.89136473013814, -1.222116058109348, 0};
Point(p15 + 19) = {15.85023752162371, -1.393423210278962, 0};
Point(p15 + 20) = {15.836415, -1.569055, 0};
Point(p15 + 21) = {15.85023752162371, -1.744686789721038, 0};
Point(p15 + 22) = {15.89136473013814, -1.915993941890653, 0};
Point(p15 + 23) = {15.95878393717629, -2.078758305886584, 0};
Point(p15 + 24) = {16.05083505810935, -2.228972082883301, 0};
Point(p15 + 25) = {16.1652514888398, -2.362936511160198, 0};
Point(p15 + 26) = {16.2992159171167, -2.477352941890652, 0};
Point(p15 + 27) = {16.44942969411342, -2.569404062823716, 0};
Point(p15 + 28) = {16.61219405810935, -2.636823269861862, 0};
Point(p15 + 29) = {16.78350121027896, -2.677950478376292, 0};
Point(p15 + 30) = {16.959133, -2.691773, 0};
Point(p15 + 31) = {17.13476478972104, -2.677950478376292, 0};
Point(p15 + 32) = {17.30607194189065, -2.636823269861862, 0};
Point(p15 + 33) = {17.46883630588659, -2.569404062823716, 0};
Point(p15 + 34) = {17.6190500828833, -2.477352941890652, 0};
Point(p15 + 35) = {17.7530145111602, -2.362936511160199, 0};
Point(p15 + 36) = {17.86743094189065, -2.228972082883301, 0};
Point(p15 + 37) = {17.95948206282372, -2.078758305886585, 0};
Point(p15 + 38) = {18.02690126986186, -1.915993941890653, 0};
Point(p15 + 39) = {18.06802847837629, -1.744686789721038, 0};
Spline(15) = {11, p15 + 1, p15 + 2, p15 + 3, p15 + 4, p15 + 5, p15 + 6, p15 + 7, p15 + 8, p15 + 9, p15 + 10, p15 + 11, p15 + 12, p15 + 13, p15 + 14, p15 + 15, p15 + 16, p15 + 17, p15 + 18, p15 + 19, p15 + 20, p15 + 21, p15 + 22, p15 + 23, p15 + 24, p15 + 25, p15 + 26, p15 + 27, p15 + 28, p15 + 29, p15 + 30, p15 + 31, p15 + 32, p15 + 33, p15 + 34, p15 + 35, p15 + 36, p15 + 37, p15 + 38, p15 + 39, 11};
p16 = newp;
Point(p16 + 1) = {14.93590307770193, 0.8890768966268288, 0};
Point(p16 + 2) = {14.89951445208347, 1.040646430549292, 0};
Point(p16 + 3) = {14.83986313187428, 1.184657456811776, 0};
Point(p16 + 4) = {14.75841793054929, 1.317563946002503, 0};
Point(p16 + 5) = {14.65718429926625, 1.43609329926625, 0};
Point(p16 + 6) = {14.5386549460025, 1.537326930549292, 0};
Point(p16 + 7) = {14.40574845681178, 1.618772131874281, 0};
Point(p16 + 8) = {14.26173743054929, 1.67842345208347, 0};
Point(p16 + 9) = {14.11016789662683, 1.714812077701927, 0};
Point(p16 + 10) = {13.954772, 1.727042, 0};
Point(p16 + 11) = {13.79937610337317, 1.714812077701926, 0};
Point(p16 + 12) = {13.64780656945071, 1.67842345208347, 0};
Point(p16 + 13) = {13.50379554318822, 1.618772131874281, 0};
Point(p16 + 14) = {13.3708890539975, 1.537326930549292, 0};
Point(p16 + 15) = {13.25235970073375, 1.43609329926625, 0};
Point(p16 + 16) = {13.15112606945071, 1.317563946002504, 0};
Point(p16 + 17) = {13.06968086812572, 1.184657456811776, 0};
Point(p16 + 18) = {13.01002954791653, 1.040646430549292, 0};
Point(p16 + 19) = {12.97364092229807, 0.889076896626829, 0};
Point(p16 + 20) = {12.961411, 0.7336810000000001, 0};
Point(p16 + 21) = {12.97364092229807, 0.5782851033731714, 0};
Point(p16 + 22) = {13.01002954791653, 0.4267155694507075, 0};
Point(p16 + 23) = {13.06968086812572, 0.2827045431882246, 0};
Point(p16 + 24) = {13.15112606945071, 0.1497980539974967, 0};
Point(p16 + 25) = {13.25235970073375, 0.03126870073374999, 0};
Point(p16 + 26) = {13.3708890539975, -0.06996493054929209, 0};
Point(p16 + 27) = {13.50379554318822, -0.1514101318742812, 0};
Point(p16 + 28) = {13.64780656945071, -0.21106145208347, 0};
Point(p16 + 29) = {13.79937610337317, -0.2474500777019265, 0};
Point(p16 + 30) = {13.954772, -0.25968, 0};
Point(p16 + 31) = {14.11016789662683, -0.2474500777019266, 0};
Point(p16 + 32) = {14.26173743054929, -0.2110614520834702, 0};
Point(p16 + 33) = {14.40574845681178, -0.1514101318742813, 0};
Point(p16 + 34) = {14.5386549460025, -0.06996493054929231, 0};
Point(p16 + 35) = {14.65718429926625, 0.03126870073374977, 0};
Point(p16 + 36) = {14.75841793054929, 0.1497980539974963, 0};
Point(p16 + 37) = {14.83986313187428, 0.2827045431882239, 0};
Point(p16 + 38) = {14.89951445208347, 0.4267155694507077, 0};
Point(p16 + 39) = {14.93590307770193, 0.5782851033731711, 0};
Spline(16) = {12, p16 + 1, p16 + 2, p16 + 3, p16 + 4, p16 + 5, p16 + 6, p16 + 7, p16 + 8, p16 + 9, p16 + 10, p16 + 11, p16 + 12, p16 + 13, p16 + 14, p16 + 15, p16 + 16, p16 + 17, p16 + 18, p16 + 19, p16 + 20, p16 + 21, p16 + 22, p16 + 23, p16 + 24, p16 + 25, p16 + 26, p16 + 27, p16 + 28, p16 + 29, p16 + 30, p16 + 31, p16 + 32, p16 + 33, p16 + 34, p16 + 35, p16 + 36, p16 + 37, p16 + 38, p16 + 39, 12};
Line(17) = {11, 8};
Line(18) = {12, 9};
Curve Loop(1) = {-1, 4, 3, -2};
Plane Surface(1) = {1};
Curve Loop(2) = {-5, 1, 7, -6};
Plane Surface(2) = {2};
Curve Loop(3) = {-2, 7, 9, -8, -10, -11};
Plane Surface(3) = {3};
Curve Loop(4) = {-12, 3, 8, -13};
Plane Surface(4) = {4};
Curve Loop(5) = {-4, 5, 14, -12, -15, -16};
Plane Surface(5) = {5};
Curve Loop(6) = {-6, 14, 13, -9};
Plane Surface(6) = {6};
Curve Loop(7) = {-10, -17, 15, 17};
Surface(7) = {7};
Curve Loop(8) = {-11, -18, 16, 18};
Surface(8) = {8};
Surface Loop(1) = {1, 2, 3, 4, 5, 6, 7, 8};
Volume(1) = {1};
Physical Surface("INFLOW") = {1};
Physical Surface("OUTFLOW") = {6};
Physical Surface("OBSTACLE") = {7, 8};
Physical Surface("WALL_Y") = {2, 4};
Physical Surface("WALL_Z") = {3, 5};
Physical Volume("FLUID") = {1};
