cl__1 = 0.826503;
cl__2 = 0.908565;
cl__3 = 3.373915;
cl__4 = 0.07020700000000001;
Point(1) = {0.28763, -3.588829, 1, cl__1};
Point(2) = {0.28763, -3.588829, 0, cl__1};
Point(3) = {0.28763, 5.017111, 1, cl__2};
Point(4) = {0.28763, 5.017111, 0, cl__2};
Point(5) = {33.463635, -3.588829, 0, cl__3};
Point(6) = {33.463635, -3.588829, 1, cl__3};
Point(7) = {33.463635, 5.017111, 1, cl__3};
Point(8) = {9.283616, -0.1800430000000002, 1, cl__4};
Point(9) = {33.463635, 5.017111, 0, cl__3};
Point(10) = {9.283616, -0.1800430000000002, 0, cl__4};
Line(1) = {2, 1};
Line(2) = {1, 3};
Line(3) = {4, 3};
Line(4) = {2, 4};
Line(5) = {2, 5};
Line(6) = {5, 6};
Line(7) = {1, 6};
Line(8) = {3, 7};
Line(9) = {6, 7};
p10 = newp;
Point(p10 + 1) = {9.274972377904946, -0.0702153679981352, 1};
Point(p10 + 2) = {9.249254346282306, 0.03690794320683058, 1};
Point(p10 + 3) = {9.207095168423878, 0.1386892021711441, 1};
Point(p10 + 4) = {9.149532943206831, 0.232622216506472, 1};
Point(p10 + 5) = {9.077985043654078, 0.316394043654077, 1};
Point(p10 + 6) = {8.994213216506472, 0.3879419432068306, 1};
Point(p10 + 7) = {8.900280202171144, 0.445504168423879, 1};
Point(p10 + 8) = {8.79849894320683, 0.4876633462823058, 1};
Point(p10 + 9) = {8.691375632001865, 0.5133813779049472, 1};
Point(p10 + 10) = {8.581548, 0.522025, 1};
Point(p10 + 11) = {8.471720367998135, 0.5133813779049472, 1};
Point(p10 + 12) = {8.364597056793169, 0.487663346282306, 1};
Point(p10 + 13) = {8.262815797828855, 0.4455041684238791, 1};
Point(p10 + 14) = {8.168882783493528, 0.3879419432068306, 1};
Point(p10 + 15) = {8.085110956345922, 0.3163940436540771, 1};
Point(p10 + 16) = {8.013563056793169, 0.2326222165064721, 1};
Point(p10 + 17) = {7.95600083157612, 0.1386892021711442, 1};
Point(p10 + 18) = {7.913841653717694, 0.03690794320683063, 1};
Point(p10 + 19) = {7.888123622095053, -0.07021536799813512, 1};
Point(p10 + 20) = {7.87948, -0.1800429999999999, 1};
Point(p10 + 21) = {7.888123622095052, -0.2898706320018647, 1};
Point(p10 + 22) = {7.913841653717694, -0.3969939432068308, 1};
Point(p10 + 23) = {7.95600083157612, -0.4987752021711438, 1};
Point(p10 + 24) = {8.013563056793169, -0.592708216506472, 1};
Point(p10 + 25) = {8.085110956345922, -0.676480043654077, 1};
Point(p10 + 26) = {8.168882783493528, -0.7480279432068306, 1};
Point(p10 + 27) = {8.262815797828855, -0.8055901684238791, 1};
Point(p10 + 28) = {8.364597056793169, -0.8477493462823058, 1};
Point(p10 + 29) = {8.471720367998135, -0.8734673779049471, 1};
Point(p10 + 30) = {8.581548, -0.8821110000000001, 1};
Point(p10 + 31) = {8.691375632001865, -0.8734673779049473, 1};
Point(p10 + 32) = {8.79849894320683, -0.847749346282306, 1};
Point(p10 + 33) = {8.900280202171144, -0.8055901684238791, 1};
Point(p10 + 34) = {8.994213216506472, -0.7480279432068306, 1};
Point(p10 + 35) = {9.077985043654076, -0.6764800436540772, 1};
Point(p10 + 36) = {9.149532943206831, -0.5927082165064722, 1};
Point(p10 + 37) = {9.207095168423878, -0.4987752021711443, 1};
Point(p10 + 38) = {9.249254346282306, -0.3969939432068307, 1};
Point(p10 + 39) = {9.274972377904946, -0.289870632001865, 1};
Spline(10) = {8, p10 + 1, p10 + 2, p10 + 3, p10 + 4, p10 + 5, p10 + 6, p10 + 7, p10 + 8, p10 + 9, p10 + 10, p10 + 11, p10 + 12, p10 + 13, p10 + 14, p10 + 15, p10 + 16, p10 + 17, p10 + 18, p10 + 19, p10 + 20, p10 + 21, p10 + 22, p10 + 23, p10 + 24, p10 + 25, p10 + 26, p10 + 27, p10 + 28, p10 + 29, p10 + 30, p10 + 31, p10 + 32, p10 + 33, p10 + 34, p10 + 35, p10 + 36, p10 + 37, p10 + 38, p10 + 39, 8};
Line(11) = {4, 9};
Line(12) = {9, 7};
Line(13) = {5, 9};
p14 = newp;
Point(p14 + 1) = {9.274972377904946, -0.0702153679981352, 0};
Point(p14 + 2) = {9.249254346282306, 0.03690794320683058, 0};
Point(p14 + 3) = {9.207095168423878, 0.1386892021711441, 0};
Point(p14 + 4) = {9.149532943206831, 0.232622216506472, 0};
Point(p14 + 5) = {9.077985043654078, 0.316394043654077, 0};
Point(p14 + 6) = {8.994213216506472, 0.3879419432068306, 0};
Point(p14 + 7) = {8.900280202171144, 0.445504168423879, 0};
Point(p14 + 8) = {8.79849894320683, 0.4876633462823058, 0};
Point(p14 + 9) = {8.691375632001865, 0.5133813779049472, 0};
Point(p14 + 10) = {8.581548, 0.522025, 0};
Point(p14 + 11) = {8.471720367998135, 0.5133813779049472, 0};
Point(p14 + 12) = {8.364597056793169, 0.487663346282306, 0};
Point(p14 + 13) = {8.262815797828855, 0.4455041684238791, 0};
Point(p14 + 14) = {8.168882783493528, 0.3879419432068306, 0};
Point(p14 + 15) = {8.085110956345922, 0.3163940436540771, 0};
Point(p14 + 16) = {8.013563056793169, 0.2326222165064721, 0};
Point(p14 + 17) = {7.95600083157612, 0.1386892021711442, 0};
Point(p14 + 18) = {7.913841653717694, 0.03690794320683063, 0};
Point(p14 + 19) = {7.888123622095053, -0.07021536799813512, 0};
Point(p14 + 20) = {7.87948, -0.1800429999999999, 0};
Point(p14 + 21) = {7.888123622095052, -0.2898706320018647, 0};
Point(p14 + 22) = {7.913841653717694, -0.3969939432068308, 0};
Point(p14 + 23) = {7.95600083157612, -0.4987752021711438, 0};
Point(p14 + 24) = {8.013563056793169, -0.592708216506472, 0};
Point(p14 + 25) = {8.085110956345922, -0.676480043654077, 0};
Point(p14 + 26) = {8.168882783493528, -0.7480279432068306, 0};
Point(p14 + 27) = {8.262815797828855, -0.8055901684238791, 0};
Point(p14 + 28) = {8.364597056793169, -0.8477493462823058, 0};
Point(p14 + 29) = {8.471720367998135, -0.8734673779049471, 0};
Point(p14 + 30) = {8.581548, -0.8821110000000001, 0};
Point(p14 + 31) = {8.691375632001865, -0.8734673779049473, 0};
Point(p14 + 32) = {8.79849894320683, -0.847749346282306, 0};
Point(p14 + 33) = {8.900280202171144, -0.8055901684238791, 0};
Point(p14 + 34) = {8.994213216506472, -0.7480279432068306, 0};
Point(p14 + 35) = {9.077985043654076, -0.6764800436540772, 0};
Point(p14 + 36) = {9.149532943206831, -0.5927082165064722, 0};
Point(p14 + 37) = {9.207095168423878, -0.4987752021711443, 0};
Point(p14 + 38) = {9.249254346282306, -0.3969939432068307, 0};
Point(p14 + 39) = {9.274972377904946, -0.289870632001865, 0};
Spline(14) = {10, p14 + 1, p14 + 2, p14 + 3, p14 + 4, p14 + 5, p14 + 6, p14 + 7, p14 + 8, p14 + 9, p14 + 10, p14 + 11, p14 + 12, p14 + 13, p14 + 14, p14 + 15, p14 + 16, p14 + 17, p14 + 18, p14 + 19, p14 + 20, p14 + 21, p14 + 22, p14 + 23, p14 + 24, p14 + 25, p14 + 26, p14 + 27, p14 + 28, p14 + 29, p14 + 30, p14 + 31, p14 + 32, p14 + 33, p14 + 34, p14 + 35, p14 + 36, p14 + 37, p14 + 38, p14 + 39, 10};
Line(15) = {10, 8};
Curve Loop(1) = {-1, 4, 3, -2};
Plane Surface(1) = {1};
Curve Loop(2) = {-5, 1, 7, -6};
Plane Surface(2) = {2};
Curve Loop(3) = {-2, 7, 9, -8, -10};
Plane Surface(3) = {3};
Curve Loop(4) = {-11, 3, 8, -12};
Plane Surface(4) = {4};
Curve Loop(5) = {-4, 5, 13, -11, -14};
Plane Surface(5) = {5};
Curve Loop(6) = {-6, 13, 12, -9};
Plane Surface(6) = {6};
Curve Loop(7) = {-10, -15, 14, 15};
Surface(7) = {7};
Surface Loop(1) = {1, 2, 3, 4, 5, 6, 7};
Volume(1) = {1};
Physical Surface("INFLOW") = {1};
Physical Surface("OUTFLOW") = {6};
Physical Surface("OBSTACLE") = {7};
Physical Surface("WALL_Y") = {2, 4};
Physical Surface("WALL_Z") = {3, 5};
Physical Volume("FLUID") = {1};
