cl__1 = 0.731782;
cl__2 = 0.530872;
cl__3 = 3.66774;
cl__4 = 0.066927;
Point(1) = {0.821592, -3.396736, 1, cl__1};
Point(2) = {0.821592, -3.396736, 0, cl__1};
Point(3) = {0.821592, 5.329753, 1, cl__2};
Point(4) = {0.821592, 5.329753, 0, cl__2};
Point(5) = {36.41694500000001, -3.396736, 0, cl__3};
Point(6) = {36.41694500000001, -3.396736, 1, cl__3};
Point(7) = {36.41694500000001, 5.329753, 1, cl__3};
Point(8) = {6.795821, 2.574101, 1, cl__4};
Point(9) = {36.41694500000001, 5.329753, 0, cl__3};
Point(10) = {6.795821, 2.574101, 0, cl__4};
Line(1) = {2, 1};
Line(2) = {1, 3};
Line(3) = {4, 3};
Line(4) = {2, 4};
Line(5) = {2, 5};
Line(6) = {5, 6};
Line(7) = {1, 6};
Line(8) = {3, 7};
Line(9) = {6, 7};
p10 = newp;
Point(p10 + 1) = {6.787581224956745, 2.678797268679615, 1};
Point(p10 + 2) = {6.763064790434792, 2.780915567757344, 1};
Point(p10 + 3) = {6.722875372417452, 2.877941405798688, 1};
Point(p10 + 4) = {6.668002567757343, 2.967485684660775, 1};
Point(p10 + 5) = {6.599797527017595, 3.047343527017596, 1};
Point(p10 + 6) = {6.519939684660774, 3.115548567757344, 1};
Point(p10 + 7) = {6.430395405798687, 3.170421372417453, 1};
Point(p10 + 8) = {6.333369567757344, 3.210610790434792, 1};
Point(p10 + 9) = {6.231251268679615, 3.235127224956746, 1};
Point(p10 + 10) = {6.126555, 3.243367, 1};
Point(p10 + 11) = {6.021858731320385, 3.235127224956746, 1};
Point(p10 + 12) = {5.919740432242656, 3.210610790434792, 1};
Point(p10 + 13) = {5.822714594201313, 3.170421372417453, 1};
Point(p10 + 14) = {5.733170315339225, 3.115548567757344, 1};
Point(p10 + 15) = {5.653312472982404, 3.047343527017596, 1};
Point(p10 + 16) = {5.585107432242657, 2.967485684660775, 1};
Point(p10 + 17) = {5.530234627582548, 2.877941405798688, 1};
Point(p10 + 18) = {5.490045209565207, 2.780915567757344, 1};
Point(p10 + 19) = {5.465528775043254, 2.678797268679615, 1};
Point(p10 + 20) = {5.457288999999999, 2.574101, 1};
Point(p10 + 21) = {5.465528775043254, 2.469404731320385, 1};
Point(p10 + 22) = {5.490045209565207, 2.367286432242656, 1};
Point(p10 + 23) = {5.530234627582548, 2.270260594201313, 1};
Point(p10 + 24) = {5.585107432242656, 2.180716315339226, 1};
Point(p10 + 25) = {5.653312472982404, 2.100858472982404, 1};
Point(p10 + 26) = {5.733170315339225, 2.032653432242657, 1};
Point(p10 + 27) = {5.822714594201313, 1.977780627582548, 1};
Point(p10 + 28) = {5.919740432242656, 1.937591209565208, 1};
Point(p10 + 29) = {6.021858731320385, 1.913074775043255, 1};
Point(p10 + 30) = {6.126555, 1.904835, 1};
Point(p10 + 31) = {6.231251268679615, 1.913074775043255, 1};
Point(p10 + 32) = {6.333369567757344, 1.937591209565208, 1};
Point(p10 + 33) = {6.430395405798687, 1.977780627582548, 1};
Point(p10 + 34) = {6.519939684660774, 2.032653432242657, 1};
Point(p10 + 35) = {6.599797527017595, 2.100858472982404, 1};
Point(p10 + 36) = {6.668002567757343, 2.180716315339226, 1};
Point(p10 + 37) = {6.722875372417452, 2.270260594201313, 1};
Point(p10 + 38) = {6.763064790434792, 2.367286432242656, 1};
Point(p10 + 39) = {6.787581224956745, 2.469404731320385, 1};
Spline(10) = {8, p10 + 1, p10 + 2, p10 + 3, p10 + 4, p10 + 5, p10 + 6, p10 + 7, p10 + 8, p10 + 9, p10 + 10, p10 + 11, p10 + 12, p10 + 13, p10 + 14, p10 + 15, p10 + 16, p10 + 17, p10 + 18, p10 + 19, p10 + 20, p10 + 21, p10 + 22, p10 + 23, p10 + 24, p10 + 25, p10 + 26, p10 + 27, p10 + 28, p10 + 29, p10 + 30, p10 + 31, p10 + 32, p10 + 33, p10 + 34, p10 + 35, p10 + 36, p10 + 37, p10 + 38, p10 + 39, 8};
Line(11) = {4, 9};
Line(12) = {9, 7};
Line(13) = {5, 9};
p14 = newp;
Point(p14 + 1) = {6.787581224956745, 2.678797268679615, 0};
Point(p14 + 2) = {6.763064790434792, 2.780915567757344, 0};
Point(p14 + 3) = {6.722875372417452, 2.877941405798688, 0};
Point(p14 + 4) = {6.668002567757343, 2.967485684660775, 0};
Point(p14 + 5) = {6.599797527017595, 3.047343527017596, 0};
Point(p14 + 6) = {6.519939684660774, 3.115548567757344, 0};
Point(p14 + 7) = {6.430395405798687, 3.170421372417453, 0};
Point(p14 + 8) = {6.333369567757344, 3.210610790434792, 0};
Point(p14 + 9) = {6.231251268679615, 3.235127224956746, 0};
Point(p14 + 10) = {6.126555, 3.243367, 0};
Point(p14 + 11) = {6.021858731320385, 3.235127224956746, 0};
Point(p14 + 12) = {5.919740432242656, 3.210610790434792, 0};
Point(p14 + 13) = {5.822714594201313, 3.170421372417453, 0};
Point(p14 + 14) = {5.733170315339225, 3.115548567757344, 0};
Point(p14 + 15) = {5.653312472982404, 3.047343527017596, 0};
Point(p14 + 16) = {5.585107432242657, 2.967485684660775, 0};
Point(p14 + 17) = {5.530234627582548, 2.877941405798688, 0};
Point(p14 + 18) = {5.490045209565207, 2.780915567757344, 0};
Point(p14 + 19) = {5.465528775043254, 2.678797268679615, 0};
Point(p14 + 20) = {5.457288999999999, 2.574101, 0};
Point(p14 + 21) = {5.465528775043254, 2.469404731320385, 0};
Point(p14 + 22) = {5.490045209565207, 2.367286432242656, 0};
Point(p14 + 23) = {5.530234627582548, 2.270260594201313, 0};
Point(p14 + 24) = {5.585107432242656, 2.180716315339226, 0};
Point(p14 + 25) = {5.653312472982404, 2.100858472982404, 0};
Point(p14 + 26) = {5.733170315339225, 2.032653432242657, 0};
Point(p14 + 27) = {5.822714594201313, 1.977780627582548, 0};
Point(p14 + 28) = {5.919740432242656, 1.937591209565208, 0};
Point(p14 + 29) = {6.021858731320385, 1.913074775043255, 0};
Point(p14 + 30) = {6.126555, 1.904835, 0};
Point(p14 + 31) = {6.231251268679615, 1.913074775043255, 0};
Point(p14 + 32) = {6.333369567757344, 1.937591209565208, 0};
Point(p14 + 33) = {6.430395405798687, 1.977780627582548, 0};
Point(p14 + 34) = {6.519939684660774, 2.032653432242657, 0};
Point(p14 + 35) = {6.599797527017595, 2.100858472982404, 0};
Point(p14 + 36) = {6.668002567757343, 2.180716315339226, 0};
Point(p14 + 37) = {6.722875372417452, 2.270260594201313, 0};
Point(p14 + 38) = {6.763064790434792, 2.367286432242656, 0};
Point(p14 + 39) = {6.787581224956745, 2.469404731320385, 0};
Spline(14) = {10, p14 + 1, p14 + 2, p14 + 3, p14 + 4, p14 + 5, p14 + 6, p14 + 7, p14 + 8, p14 + 9, p14 + 10, p14 + 11, p14 + 12, p14 + 13, p14 + 14, p14 + 15, p14 + 16, p14 + 17, p14 + 18, p14 + 19, p14 + 20, p14 + 21, p14 + 22, p14 + 23, p14 + 24, p14 + 25, p14 + 26, p14 + 27, p14 + 28, p14 + 29, p14 + 30, p14 + 31, p14 + 32, p14 + 33, p14 + 34, p14 + 35, p14 + 36, p14 + 37, p14 + 38, p14 + 39, 10};
Line(15) = {10, 8};
Curve Loop(1) = {-1, 4, 3, -2};
Plane Surface(1) = {1};
Curve Loop(2) = {-5, 1, 7, -6};
Plane Surface(2) = {2};
Curve Loop(3) = {-2, 7, 9, -8, -10};
Plane Surface(3) = {3};
Curve Loop(4) = {-11, 3, 8, -12};
Plane Surface(4) = {4};
Curve Loop(5) = {-4, 5, 13, -11, -14};
Plane Surface(5) = {5};
Curve Loop(6) = {-6, 13, 12, -9};
Plane Surface(6) = {6};
Curve Loop(7) = {-10, -15, 14, 15};
Surface(7) = {7};
Surface Loop(1) = {1, 2, 3, 4, 5, 6, 7};
Volume(1) = {1};
Physical Surface("INFLOW") = {1};
Physical Surface("OUTFLOW") = {6};
Physical Surface("OBSTACLE") = {7};
Physical Surface("WALL_Y") = {2, 4};
Physical Surface("WALL_Z") = {3, 5};
Physical Volume("FLUID") = {1};
