cl__1 = 1;
cl__2 = 0.073148;
cl__3 = 0.124009;
Point(1) = {0.442721, -3.271559, 1, cl__1};
Point(2) = {0.442721, -3.271559, 0, cl__1};
Point(3) = {0.442721, 4.991892, 1, cl__1};
Point(4) = {0.442721, 4.991892, 0, cl__1};
Point(5) = {39.900313, -3.271559, 0, cl__1};
Point(6) = {39.900313, -3.271559, 1, cl__1};
Point(7) = {39.900313, 4.991892, 1, cl__1};
Point(8) = {24.424728, -1.724919, 1, cl__2};
Point(9) = {26.019273, 0.9059299999999998, 1, cl__3};
Point(10) = {39.900313, 4.991892, 0, cl__1};
Point(11) = {24.424728, -1.724919, 0, cl__2};
Point(12) = {26.019273, 0.9059299999999998, 0, cl__3};
Line(1) = {2, 1};
Line(2) = {1, 3};
Line(3) = {4, 3};
Line(4) = {2, 4};
Line(5) = {2, 5};
Line(6) = {5, 6};
Line(7) = {1, 6};
Line(8) = {3, 7};
Line(9) = {6, 7};
p10 = newp;
Point(p10 + 1) = {24.41572231662517, -1.610490943250232, 1};
Point(p10 + 2) = {24.38892701631352, -1.498880485022591, 1};
Point(p10 + 3) = {24.34500188828721, -1.392835845212515, 1};
Point(p10 + 4) = {24.28502851497741, -1.294968194794111, 1};
Point(p10 + 5) = {24.21048363987521, -1.207687360124789, 1};
Point(p10 + 6) = {24.12320280520589, -1.133142485022591, 1};
Point(p10 + 7) = {24.02533515478748, -1.07316911171279, 1};
Point(p10 + 8) = {23.91929051497741, -1.029243983686486, 1};
Point(p10 + 9) = {23.80768005674977, -1.002448683374831, 1};
Point(p10 + 10) = {23.693252, -0.9934430000000001, 1};
Point(p10 + 11) = {23.57882394325023, -1.002448683374831, 1};
Point(p10 + 12) = {23.46721348502259, -1.029243983686486, 1};
Point(p10 + 13) = {23.36116884521252, -1.07316911171279, 1};
Point(p10 + 14) = {23.26330119479411, -1.133142485022591, 1};
Point(p10 + 15) = {23.17602036012479, -1.207687360124789, 1};
Point(p10 + 16) = {23.10147548502259, -1.294968194794111, 1};
Point(p10 + 17) = {23.04150211171279, -1.392835845212515, 1};
Point(p10 + 18) = {22.99757698368649, -1.498880485022591, 1};
Point(p10 + 19) = {22.97078168337483, -1.610490943250232, 1};
Point(p10 + 20) = {22.961776, -1.724919, 1};
Point(p10 + 21) = {22.97078168337483, -1.839347056749768, 1};
Point(p10 + 22) = {22.99757698368649, -1.950957514977409, 1};
Point(p10 + 23) = {23.04150211171279, -2.057002154787484, 1};
Point(p10 + 24) = {23.10147548502259, -2.154869805205889, 1};
Point(p10 + 25) = {23.17602036012479, -2.242150639875211, 1};
Point(p10 + 26) = {23.26330119479411, -2.316695514977409, 1};
Point(p10 + 27) = {23.36116884521252, -2.37666888828721, 1};
Point(p10 + 28) = {23.46721348502259, -2.420594016313514, 1};
Point(p10 + 29) = {23.57882394325023, -2.447389316625169, 1};
Point(p10 + 30) = {23.693252, -2.456395, 1};
Point(p10 + 31) = {23.80768005674977, -2.447389316625169, 1};
Point(p10 + 32) = {23.91929051497741, -2.420594016313514, 1};
Point(p10 + 33) = {24.02533515478748, -2.37666888828721, 1};
Point(p10 + 34) = {24.12320280520589, -2.316695514977409, 1};
Point(p10 + 35) = {24.21048363987521, -2.242150639875211, 1};
Point(p10 + 36) = {24.28502851497741, -2.154869805205889, 1};
Point(p10 + 37) = {24.34500188828721, -2.057002154787485, 1};
Point(p10 + 38) = {24.38892701631352, -1.950957514977409, 1};
Point(p10 + 39) = {24.41572231662517, -1.839347056749768, 1};
Spline(10) = {8, p10 + 1, p10 + 2, p10 + 3, p10 + 4, p10 + 5, p10 + 6, p10 + 7, p10 + 8, p10 + 9, p10 + 10, p10 + 11, p10 + 12, p10 + 13, p10 + 14, p10 + 15, p10 + 16, p10 + 17, p10 + 18, p10 + 19, p10 + 20, p10 + 21, p10 + 22, p10 + 23, p10 + 24, p10 + 25, p10 + 26, p10 + 27, p10 + 28, p10 + 29, p10 + 30, p10 + 31, p10 + 32, p10 + 33, p10 + 34, p10 + 35, p10 + 36, p10 + 37, p10 + 38, p10 + 39, 8};
p11 = newp;
Point(p11 + 1) = {26.00400544660029, 1.099922659317275, 1};
Point(p11 + 2) = {25.95857872423594, 1.289138575537434, 1};
Point(p11 + 3) = {25.88411138957423, 1.468918624831515, 1};
Point(p11 + 4) = {25.78243707553743, 1.634836025730121, 1};
Point(p11 + 5) = {25.65605934117485, 1.782805341174845, 1};
Point(p11 + 6) = {25.50809002573012, 1.909183075537434, 1};
Point(p11 + 7) = {25.34217262483152, 2.010857389574229, 1};
Point(p11 + 8) = {25.16239257553744, 2.085324724235941, 1};
Point(p11 + 9) = {24.97317665931728, 2.130751446600284, 1};
Point(p11 + 10) = {24.779184, 2.146019, 1};
Point(p11 + 11) = {24.58519134068273, 2.130751446600283, 1};
Point(p11 + 12) = {24.39597542446257, 2.085324724235941, 1};
Point(p11 + 13) = {24.21619537516849, 2.010857389574229, 1};
Point(p11 + 14) = {24.05027797426988, 1.909183075537434, 1};
Point(p11 + 15) = {23.90230865882516, 1.782805341174845, 1};
Point(p11 + 16) = {23.77593092446257, 1.634836025730121, 1};
Point(p11 + 17) = {23.67425661042577, 1.468918624831515, 1};
Point(p11 + 18) = {23.59978927576406, 1.289138575537434, 1};
Point(p11 + 19) = {23.55436255339972, 1.099922659317275, 1};
Point(p11 + 20) = {23.539095, 0.9059300000000001, 1};
Point(p11 + 21) = {23.55436255339972, 0.7119373406827253, 1};
Point(p11 + 22) = {23.59978927576406, 0.5227214244625655, 1};
Point(p11 + 23) = {23.67425661042577, 0.3429413751684859, 1};
Point(p11 + 24) = {23.77593092446257, 0.1770239742698795, 1};
Point(p11 + 25) = {23.90230865882516, 0.02905465882515557, 1};
Point(p11 + 26) = {24.05027797426988, -0.09732307553743402, 1};
Point(p11 + 27) = {24.21619537516849, -0.1989973895742289, 1};
Point(p11 + 28) = {24.39597542446257, -0.2734647242359406, 1};
Point(p11 + 29) = {24.58519134068273, -0.3188914466002836, 1};
Point(p11 + 30) = {24.779184, -0.334159, 1};
Point(p11 + 31) = {24.97317665931728, -0.3188914466002838, 1};
Point(p11 + 32) = {25.16239257553744, -0.2734647242359408, 1};
Point(p11 + 33) = {25.34217262483152, -0.1989973895742289, 1};
Point(p11 + 34) = {25.50809002573012, -0.09732307553743424, 1};
Point(p11 + 35) = {25.65605934117485, 0.02905465882515523, 1};
Point(p11 + 36) = {25.78243707553743, 0.177023974269879, 1};
Point(p11 + 37) = {25.88411138957423, 0.342941375168485, 1};
Point(p11 + 38) = {25.95857872423594, 0.5227214244625655, 1};
Point(p11 + 39) = {26.00400544660029, 0.7119373406827249, 1};
Spline(11) = {9, p11 + 1, p11 + 2, p11 + 3, p11 + 4, p11 + 5, p11 + 6, p11 + 7, p11 + 8, p11 + 9, p11 + 10, p11 + 11, p11 + 12, p11 + 13, p11 + 14, p11 + 15, p11 + 16, p11 + 17, p11 + 18, p11 + 19, p11 + 20, p11 + 21, p11 + 22, p11 + 23, p11 + 24, p11 + 25, p11 + 26, p11 + 27, p11 + 28, p11 + 29, p11 + 30, p11 + 31, p11 + 32, p11 + 33, p11 + 34, p11 + 35, p11 + 36, p11 + 37, p11 + 38, p11 + 39, 9};
Line(12) = {4, 10};
Line(13) = {10, 7};
Line(14) = {5, 10};
p15 = newp;
Point(p15 + 1) = {24.41572231662517, -1.610490943250232, 0};
Point(p15 + 2) = {24.38892701631352, -1.498880485022591, 0};
Point(p15 + 3) = {24.34500188828721, -1.392835845212515, 0};
Point(p15 + 4) = {24.28502851497741, -1.294968194794111, 0};
Point(p15 + 5) = {24.21048363987521, -1.207687360124789, 0};
Point(p15 + 6) = {24.12320280520589, -1.133142485022591, 0};
Point(p15 + 7) = {24.02533515478748, -1.07316911171279, 0};
Point(p15 + 8) = {23.91929051497741, -1.029243983686486, 0};
Point(p15 + 9) = {23.80768005674977, -1.002448683374831, 0};
Point(p15 + 10) = {23.693252, -0.9934430000000001, 0};
Point(p15 + 11) = {23.57882394325023, -1.002448683374831, 0};
Point(p15 + 12) = {23.46721348502259, -1.029243983686486, 0};
Point(p15 + 13) = {23.36116884521252, -1.07316911171279, 0};
Point(p15 + 14) = {23.26330119479411, -1.133142485022591, 0};
Point(p15 + 15) = {23.17602036012479, -1.207687360124789, 0};
Point(p15 + 16) = {23.10147548502259, -1.294968194794111, 0};
Point(p15 + 17) = {23.04150211171279, -1.392835845212515, 0};
Point(p15 + 18) = {22.99757698368649, -1.498880485022591, 0};
Point(p15 + 19) = {22.97078168337483, -1.610490943250232, 0};
Point(p15 + 20) = {22.961776, -1.724919, 0};
Point(p15 + 21) = {22.97078168337483, -1.839347056749768, 0};
Point(p15 + 22) = {22.99757698368649, -1.950957514977409, 0};
Point(p15 + 23) = {23.04150211171279, -2.057002154787484, 0};
Point(p15 + 24) = {23.10147548502259, -2.154869805205889, 0};
Point(p15 + 25) = {23.17602036012479, -2.242150639875211, 0};
Point(p15 + 26) = {23.26330119479411, -2.316695514977409, 0};
Point(p15 + 27) = {23.36116884521252, -2.37666888828721, 0};
Point(p15 + 28) = {23.46721348502259, -2.420594016313514, 0};
Point(p15 + 29) = {23.57882394325023, -2.447389316625169, 0};
Point(p15 + 30) = {23.693252, -2.456395, 0};
Point(p15 + 31) = {23.80768005674977, -2.447389316625169, 0};
Point(p15 + 32) = {23.91929051497741, -2.420594016313514, 0};
Point(p15 + 33) = {24.02533515478748, -2.37666888828721, 0};
Point(p15 + 34) = {24.12320280520589, -2.316695514977409, 0};
Point(p15 + 35) = {24.21048363987521, -2.242150639875211, 0};
Point(p15 + 36) = {24.28502851497741, -2.154869805205889, 0};
Point(p15 + 37) = {24.34500188828721, -2.057002154787485, 0};
Point(p15 + 38) = {24.38892701631352, -1.950957514977409, 0};
Point(p15 + 39) = {24.41572231662517, -1.839347056749768, 0};
Spline(15) = {11, p15 + 1, p15 + 2, p15 + 3, p15 + 4, p15 + 5, p15 + 6, p15 + 7, p15 + 8, p15 + 9, p15 + 10, p15 + 11, p15 + 12, p15 + 13, p15 + 14, p15 + 15, p15 + 16, p15 + 17, p15 + 18, p15 + 19, p15 + 20, p15 + 21, p15 + 22, p15 + 23, p15 + 24, p15 + 25, p15 + 26, p15 + 27, p15 + 28, p15 + 29, p15 + 30, p15 + 31, p15 + 32, p15 + 33, p15 + 34, p15 + 35, p15 + 36, p15 + 37, p15 + 38, p15 + 39, 11};
p16 = newp;
Point(p16 + 1) = {26.00400544660029, 1.099922659317275, 0};
Point(p16 + 2) = {25.95857872423594, 1.289138575537434, 0};
Point(p16 + 3) = {25.88411138957423, 1.468918624831515, 0};
Point(p16 + 4) = {25.78243707553743, 1.634836025730121, 0};
Point(p16 + 5) = {25.65605934117485, 1.782805341174845, 0};
Point(p16 + 6) = {25.50809002573012, 1.909183075537434, 0};
Point(p16 + 7) = {25.34217262483152, 2.010857389574229, 0};
Point(p16 + 8) = {25.16239257553744, 2.085324724235941, 0};
Point(p16 + 9) = {24.97317665931728, 2.130751446600284, 0};
Point(p16 + 10) = {24.779184, 2.146019, 0};
Point(p16 + 11) = {24.58519134068273, 2.130751446600283, 0};
Point(p16 + 12) = {24.39597542446257, 2.085324724235941, 0};
Point(p16 + 13) = {24.21619537516849, 2.010857389574229, 0};
Point(p16 + 14) = {24.05027797426988, 1.909183075537434, 0};
Point(p16 + 15) = {23.90230865882516, 1.782805341174845, 0};
Point(p16 + 16) = {23.77593092446257, 1.634836025730121, 0};
Point(p16 + 17) = {23.67425661042577, 1.468918624831515, 0};
Point(p16 + 18) = {23.59978927576406, 1.289138575537434, 0};
Point(p16 + 19) = {23.55436255339972, 1.099922659317275, 0};
Point(p16 + 20) = {23.539095, 0.9059300000000001, 0};
Point(p16 + 21) = {23.55436255339972, 0.7119373406827253, 0};
Point(p16 + 22) = {23.59978927576406, 0.5227214244625655, 0};
Point(p16 + 23) = {23.67425661042577, 0.3429413751684859, 0};
Point(p16 + 24) = {23.77593092446257, 0.1770239742698795, 0};
Point(p16 + 25) = {23.90230865882516, 0.02905465882515557, 0};
Point(p16 + 26) = {24.05027797426988, -0.09732307553743402, 0};
Point(p16 + 27) = {24.21619537516849, -0.1989973895742289, 0};
Point(p16 + 28) = {24.39597542446257, -0.2734647242359406, 0};
Point(p16 + 29) = {24.58519134068273, -0.3188914466002836, 0};
Point(p16 + 30) = {24.779184, -0.334159, 0};
Point(p16 + 31) = {24.97317665931728, -0.3188914466002838, 0};
Point(p16 + 32) = {25.16239257553744, -0.2734647242359408, 0};
Point(p16 + 33) = {25.34217262483152, -0.1989973895742289, 0};
Point(p16 + 34) = {25.50809002573012, -0.09732307553743424, 0};
Point(p16 + 35) = {25.65605934117485, 0.02905465882515523, 0};
Point(p16 + 36) = {25.78243707553743, 0.177023974269879, 0};
Point(p16 + 37) = {25.88411138957423, 0.342941375168485, 0};
Point(p16 + 38) = {25.95857872423594, 0.5227214244625655, 0};
Point(p16 + 39) = {26.00400544660029, 0.7119373406827249, 0};
Spline(16) = {12, p16 + 1, p16 + 2, p16 + 3, p16 + 4, p16 + 5, p16 + 6, p16 + 7, p16 + 8, p16 + 9, p16 + 10, p16 + 11, p16 + 12, p16 + 13, p16 + 14, p16 + 15, p16 + 16, p16 + 17, p16 + 18, p16 + 19, p16 + 20, p16 + 21, p16 + 22, p16 + 23, p16 + 24, p16 + 25, p16 + 26, p16 + 27, p16 + 28, p16 + 29, p16 + 30, p16 + 31, p16 + 32, p16 + 33, p16 + 34, p16 + 35, p16 + 36, p16 + 37, p16 + 38, p16 + 39, 12};
Line(17) = {11, 8};
Line(18) = {12, 9};
Curve Loop(1) = {-1, 4, 3, -2};
Plane Surface(1) = {1};
Curve Loop(2) = {-5, 1, 7, -6};
Plane Surface(2) = {2};
Curve Loop(3) = {-2, 7, 9, -8, -10, -11};
Plane Surface(3) = {3};
Curve Loop(4) = {-12, 3, 8, -13};
Plane Surface(4) = {4};
Curve Loop(5) = {-4, 5, 14, -12, -15, -16};
Plane Surface(5) = {5};
Curve Loop(6) = {-6, 14, 13, -9};
Plane Surface(6) = {6};
Curve Loop(7) = {-10, -17, 15, 17};
Surface(7) = {7};
Curve Loop(8) = {-11, -18, 16, 18};
Surface(8) = {8};
Surface Loop(1) = {1, 2, 3, 4, 5, 6, 7, 8};
Volume(1) = {1};
Physical Surface("INFLOW") = {1};
Physical Surface("OUTFLOW") = {6};
Physical Surface("OBSTACLE") = {7, 8};
Physical Surface("WALL_Y") = {2, 4};
Physical Surface("WALL_Z") = {3, 5};
Physical Volume("FLUID") = {1};
