cl__1 = 1;
cl__2 = 0.124854;
cl__3 = 0.073753;
Point(1) = {0.37672, -4.551625, 1, cl__1};
Point(2) = {0.37672, -4.551625, 0, cl__1};
Point(3) = {0.37672, 4.87612, 1, cl__1};
Point(4) = {0.37672, 4.87612, 0, cl__1};
Point(5) = {38.313451, -4.551625, 0, cl__1};
Point(6) = {38.313451, -4.551625, 1, cl__1};
Point(7) = {38.313451, 4.87612, 1, cl__1};
Point(8) = {18.267322, -2.027645000000001, 1, cl__2};
Point(9) = {16.478941, 1.662705, 1, cl__3};
Point(10) = {38.313451, 4.87612, 0, cl__1};
Point(11) = {18.267322, -2.027645000000001, 0, cl__2};
Point(12) = {16.478941, 1.662705, 0, cl__3};
Line(1) = {2, 1};
Line(2) = {1, 3};
Line(3) = {4, 3};
Line(4) = {2, 4};
Line(5) = {2, 5};
Line(6) = {5, 6};
Line(7) = {1, 6};
Line(8) = {3, 7};
Line(9) = {6, 7};
p10 = newp;
Point(p10 + 1) = {18.25195043770163, -1.832330782322065, 1};
Point(p10 + 2) = {18.2062142496856, -1.641825848894086, 1};
Point(p10 + 3) = {18.13123961269057, -1.460821063426686, 1};
Point(p10 + 4) = {18.02887265110591, -1.293773364458513, 1};
Point(p10 + 5) = {17.90163397926231, -1.144796020737692, 1};
Point(p10 + 6) = {17.75265663554149, -1.017557348894086, 1};
Point(p10 + 7) = {17.58560893657332, -0.915190387309428, 1};
Point(p10 + 8) = {17.40460415110591, -0.8402157503143981, 1};
Point(p10 + 9) = {17.21409921767794, -0.7944795622983687, 1};
Point(p10 + 10) = {17.018785, -0.7791080000000001, 1};
Point(p10 + 11) = {16.82347078232207, -0.7944795622983687, 1};
Point(p10 + 12) = {16.63296584889409, -0.8402157503143979, 1};
Point(p10 + 13) = {16.45196106342669, -0.9151903873094278, 1};
Point(p10 + 14) = {16.28491336445851, -1.017557348894086, 1};
Point(p10 + 15) = {16.13593602073769, -1.144796020737691, 1};
Point(p10 + 16) = {16.00869734889409, -1.293773364458513, 1};
Point(p10 + 17) = {15.90633038730943, -1.460821063426685, 1};
Point(p10 + 18) = {15.8313557503144, -1.641825848894086, 1};
Point(p10 + 19) = {15.78561956229837, -1.832330782322065, 1};
Point(p10 + 20) = {15.770248, -2.027645, 1};
Point(p10 + 21) = {15.78561956229837, -2.222959217677935, 1};
Point(p10 + 22) = {15.8313557503144, -2.413464151105914, 1};
Point(p10 + 23) = {15.90633038730943, -2.594468936573314, 1};
Point(p10 + 24) = {16.00869734889409, -2.761516635541487, 1};
Point(p10 + 25) = {16.13593602073769, -2.910493979262308, 1};
Point(p10 + 26) = {16.28491336445851, -3.037732651105914, 1};
Point(p10 + 27) = {16.45196106342669, -3.140099612690572, 1};
Point(p10 + 28) = {16.63296584889409, -3.215074249685602, 1};
Point(p10 + 29) = {16.82347078232207, -3.260810437701632, 1};
Point(p10 + 30) = {17.018785, -3.276182, 1};
Point(p10 + 31) = {17.21409921767794, -3.260810437701632, 1};
Point(p10 + 32) = {17.40460415110591, -3.215074249685602, 1};
Point(p10 + 33) = {17.58560893657332, -3.140099612690572, 1};
Point(p10 + 34) = {17.75265663554149, -3.037732651105914, 1};
Point(p10 + 35) = {17.90163397926231, -2.910493979262309, 1};
Point(p10 + 36) = {18.02887265110591, -2.761516635541488, 1};
Point(p10 + 37) = {18.13123961269057, -2.594468936573315, 1};
Point(p10 + 38) = {18.2062142496856, -2.413464151105914, 1};
Point(p10 + 39) = {18.25195043770163, -2.222959217677935, 1};
Spline(10) = {8, p10 + 1, p10 + 2, p10 + 3, p10 + 4, p10 + 5, p10 + 6, p10 + 7, p10 + 8, p10 + 9, p10 + 10, p10 + 11, p10 + 12, p10 + 13, p10 + 14, p10 + 15, p10 + 16, p10 + 17, p10 + 18, p10 + 19, p10 + 20, p10 + 21, p10 + 22, p10 + 23, p10 + 24, p10 + 25, p10 + 26, p10 + 27, p10 + 28, p10 + 29, p10 + 30, p10 + 31, p10 + 32, p10 + 33, p10 + 34, p10 + 35, p10 + 36, p10 + 37, p10 + 38, p10 + 39, 8};
p11 = newp;
Point(p11 + 1) = {16.46986078183913, 1.778080111001122, 1};
Point(p11 + 2) = {16.44284371246317, 1.890614303861355, 1};
Point(p11 + 3) = {16.39855504178465, 1.997536613272908, 1};
Point(p11 + 4) = {16.33808530386136, 2.096214257123268, 1};
Point(p11 + 5) = {16.26292346432851, 2.184217464328515, 1};
Point(p11 + 6) = {16.17492025712327, 2.259379303861355, 1};
Point(p11 + 7) = {16.07624261327291, 2.319849041784647, 1};
Point(p11 + 8) = {15.96932030386135, 2.364137712463165, 1};
Point(p11 + 9) = {15.85678611100112, 2.391154781839132, 1};
Point(p11 + 10) = {15.741411, 2.400235, 1};
Point(p11 + 11) = {15.62603588899888, 2.391154781839132, 1};
Point(p11 + 12) = {15.51350169613865, 2.364137712463165, 1};
Point(p11 + 13) = {15.40657938672709, 2.319849041784647, 1};
Point(p11 + 14) = {15.30790174287673, 2.259379303861355, 1};
Point(p11 + 15) = {15.21989853567148, 2.184217464328515, 1};
Point(p11 + 16) = {15.14473669613864, 2.096214257123268, 1};
Point(p11 + 17) = {15.08426695821535, 1.997536613272908, 1};
Point(p11 + 18) = {15.03997828753683, 1.890614303861355, 1};
Point(p11 + 19) = {15.01296121816087, 1.778080111001122, 1};
Point(p11 + 20) = {15.003881, 1.662705, 1};
Point(p11 + 21) = {15.01296121816087, 1.547329888998879, 1};
Point(p11 + 22) = {15.03997828753683, 1.434795696138645, 1};
Point(p11 + 23) = {15.08426695821535, 1.327873386727092, 1};
Point(p11 + 24) = {15.14473669613864, 1.229195742876732, 1};
Point(p11 + 25) = {15.21989853567148, 1.141192535671486, 1};
Point(p11 + 26) = {15.30790174287673, 1.066030696138645, 1};
Point(p11 + 27) = {15.40657938672709, 1.005560958215353, 1};
Point(p11 + 28) = {15.51350169613865, 0.9612722875368355, 1};
Point(p11 + 29) = {15.62603588899888, 0.9342552181608682, 1};
Point(p11 + 30) = {15.741411, 0.9251750000000001, 1};
Point(p11 + 31) = {15.85678611100112, 0.9342552181608681, 1};
Point(p11 + 32) = {15.96932030386135, 0.9612722875368355, 1};
Point(p11 + 33) = {16.07624261327291, 1.005560958215353, 1};
Point(p11 + 34) = {16.17492025712327, 1.066030696138645, 1};
Point(p11 + 35) = {16.26292346432851, 1.141192535671486, 1};
Point(p11 + 36) = {16.33808530386136, 1.229195742876732, 1};
Point(p11 + 37) = {16.39855504178465, 1.327873386727092, 1};
Point(p11 + 38) = {16.44284371246317, 1.434795696138645, 1};
Point(p11 + 39) = {16.46986078183913, 1.547329888998878, 1};
Spline(11) = {9, p11 + 1, p11 + 2, p11 + 3, p11 + 4, p11 + 5, p11 + 6, p11 + 7, p11 + 8, p11 + 9, p11 + 10, p11 + 11, p11 + 12, p11 + 13, p11 + 14, p11 + 15, p11 + 16, p11 + 17, p11 + 18, p11 + 19, p11 + 20, p11 + 21, p11 + 22, p11 + 23, p11 + 24, p11 + 25, p11 + 26, p11 + 27, p11 + 28, p11 + 29, p11 + 30, p11 + 31, p11 + 32, p11 + 33, p11 + 34, p11 + 35, p11 + 36, p11 + 37, p11 + 38, p11 + 39, 9};
Line(12) = {4, 10};
Line(13) = {10, 7};
Line(14) = {5, 10};
p15 = newp;
Point(p15 + 1) = {18.25195043770163, -1.832330782322065, 0};
Point(p15 + 2) = {18.2062142496856, -1.641825848894086, 0};
Point(p15 + 3) = {18.13123961269057, -1.460821063426686, 0};
Point(p15 + 4) = {18.02887265110591, -1.293773364458513, 0};
Point(p15 + 5) = {17.90163397926231, -1.144796020737692, 0};
Point(p15 + 6) = {17.75265663554149, -1.017557348894086, 0};
Point(p15 + 7) = {17.58560893657332, -0.915190387309428, 0};
Point(p15 + 8) = {17.40460415110591, -0.8402157503143981, 0};
Point(p15 + 9) = {17.21409921767794, -0.7944795622983687, 0};
Point(p15 + 10) = {17.018785, -0.7791080000000001, 0};
Point(p15 + 11) = {16.82347078232207, -0.7944795622983687, 0};
Point(p15 + 12) = {16.63296584889409, -0.8402157503143979, 0};
Point(p15 + 13) = {16.45196106342669, -0.9151903873094278, 0};
Point(p15 + 14) = {16.28491336445851, -1.017557348894086, 0};
Point(p15 + 15) = {16.13593602073769, -1.144796020737691, 0};
Point(p15 + 16) = {16.00869734889409, -1.293773364458513, 0};
Point(p15 + 17) = {15.90633038730943, -1.460821063426685, 0};
Point(p15 + 18) = {15.8313557503144, -1.641825848894086, 0};
Point(p15 + 19) = {15.78561956229837, -1.832330782322065, 0};
Point(p15 + 20) = {15.770248, -2.027645, 0};
Point(p15 + 21) = {15.78561956229837, -2.222959217677935, 0};
Point(p15 + 22) = {15.8313557503144, -2.413464151105914, 0};
Point(p15 + 23) = {15.90633038730943, -2.594468936573314, 0};
Point(p15 + 24) = {16.00869734889409, -2.761516635541487, 0};
Point(p15 + 25) = {16.13593602073769, -2.910493979262308, 0};
Point(p15 + 26) = {16.28491336445851, -3.037732651105914, 0};
Point(p15 + 27) = {16.45196106342669, -3.140099612690572, 0};
Point(p15 + 28) = {16.63296584889409, -3.215074249685602, 0};
Point(p15 + 29) = {16.82347078232207, -3.260810437701632, 0};
Point(p15 + 30) = {17.018785, -3.276182, 0};
Point(p15 + 31) = {17.21409921767794, -3.260810437701632, 0};
Point(p15 + 32) = {17.40460415110591, -3.215074249685602, 0};
Point(p15 + 33) = {17.58560893657332, -3.140099612690572, 0};
Point(p15 + 34) = {17.75265663554149, -3.037732651105914, 0};
Point(p15 + 35) = {17.90163397926231, -2.910493979262309, 0};
Point(p15 + 36) = {18.02887265110591, -2.761516635541488, 0};
Point(p15 + 37) = {18.13123961269057, -2.594468936573315, 0};
Point(p15 + 38) = {18.2062142496856, -2.413464151105914, 0};
Point(p15 + 39) = {18.25195043770163, -2.222959217677935, 0};
Spline(15) = {11, p15 + 1, p15 + 2, p15 + 3, p15 + 4, p15 + 5, p15 + 6, p15 + 7, p15 + 8, p15 + 9, p15 + 10, p15 + 11, p15 + 12, p15 + 13, p15 + 14, p15 + 15, p15 + 16, p15 + 17, p15 + 18, p15 + 19, p15 + 20, p15 + 21, p15 + 22, p15 + 23, p15 + 24, p15 + 25, p15 + 26, p15 + 27, p15 + 28, p15 + 29, p15 + 30, p15 + 31, p15 + 32, p15 + 33, p15 + 34, p15 + 35, p15 + 36, p15 + 37, p15 + 38, p15 + 39, 11};
p16 = newp;
Point(p16 + 1) = {16.46986078183913, 1.778080111001122, 0};
Point(p16 + 2) = {16.44284371246317, 1.890614303861355, 0};
Point(p16 + 3) = {16.39855504178465, 1.997536613272908, 0};
Point(p16 + 4) = {16.33808530386136, 2.096214257123268, 0};
Point(p16 + 5) = {16.26292346432851, 2.184217464328515, 0};
Point(p16 + 6) = {16.17492025712327, 2.259379303861355, 0};
Point(p16 + 7) = {16.07624261327291, 2.319849041784647, 0};
Point(p16 + 8) = {15.96932030386135, 2.364137712463165, 0};
Point(p16 + 9) = {15.85678611100112, 2.391154781839132, 0};
Point(p16 + 10) = {15.741411, 2.400235, 0};
Point(p16 + 11) = {15.62603588899888, 2.391154781839132, 0};
Point(p16 + 12) = {15.51350169613865, 2.364137712463165, 0};
Point(p16 + 13) = {15.40657938672709, 2.319849041784647, 0};
Point(p16 + 14) = {15.30790174287673, 2.259379303861355, 0};
Point(p16 + 15) = {15.21989853567148, 2.184217464328515, 0};
Point(p16 + 16) = {15.14473669613864, 2.096214257123268, 0};
Point(p16 + 17) = {15.08426695821535, 1.997536613272908, 0};
Point(p16 + 18) = {15.03997828753683, 1.890614303861355, 0};
Point(p16 + 19) = {15.01296121816087, 1.778080111001122, 0};
Point(p16 + 20) = {15.003881, 1.662705, 0};
Point(p16 + 21) = {15.01296121816087, 1.547329888998879, 0};
Point(p16 + 22) = {15.03997828753683, 1.434795696138645, 0};
Point(p16 + 23) = {15.08426695821535, 1.327873386727092, 0};
Point(p16 + 24) = {15.14473669613864, 1.229195742876732, 0};
Point(p16 + 25) = {15.21989853567148, 1.141192535671486, 0};
Point(p16 + 26) = {15.30790174287673, 1.066030696138645, 0};
Point(p16 + 27) = {15.40657938672709, 1.005560958215353, 0};
Point(p16 + 28) = {15.51350169613865, 0.9612722875368355, 0};
Point(p16 + 29) = {15.62603588899888, 0.9342552181608682, 0};
Point(p16 + 30) = {15.741411, 0.9251750000000001, 0};
Point(p16 + 31) = {15.85678611100112, 0.9342552181608681, 0};
Point(p16 + 32) = {15.96932030386135, 0.9612722875368355, 0};
Point(p16 + 33) = {16.07624261327291, 1.005560958215353, 0};
Point(p16 + 34) = {16.17492025712327, 1.066030696138645, 0};
Point(p16 + 35) = {16.26292346432851, 1.141192535671486, 0};
Point(p16 + 36) = {16.33808530386136, 1.229195742876732, 0};
Point(p16 + 37) = {16.39855504178465, 1.327873386727092, 0};
Point(p16 + 38) = {16.44284371246317, 1.434795696138645, 0};
Point(p16 + 39) = {16.46986078183913, 1.547329888998878, 0};
Spline(16) = {12, p16 + 1, p16 + 2, p16 + 3, p16 + 4, p16 + 5, p16 + 6, p16 + 7, p16 + 8, p16 + 9, p16 + 10, p16 + 11, p16 + 12, p16 + 13, p16 + 14, p16 + 15, p16 + 16, p16 + 17, p16 + 18, p16 + 19, p16 + 20, p16 + 21, p16 + 22, p16 + 23, p16 + 24, p16 + 25, p16 + 26, p16 + 27, p16 + 28, p16 + 29, p16 + 30, p16 + 31, p16 + 32, p16 + 33, p16 + 34, p16 + 35, p16 + 36, p16 + 37, p16 + 38, p16 + 39, 12};
Line(17) = {11, 8};
Line(18) = {12, 9};
Curve Loop(1) = {-1, 4, 3, -2};
Plane Surface(1) = {1};
Curve Loop(2) = {-5, 1, 7, -6};
Plane Surface(2) = {2};
Curve Loop(3) = {-2, 7, 9, -8, -10, -11};
Plane Surface(3) = {3};
Curve Loop(4) = {-12, 3, 8, -13};
Plane Surface(4) = {4};
Curve Loop(5) = {-4, 5, 14, -12, -15, -16};
Plane Surface(5) = {5};
Curve Loop(6) = {-6, 14, 13, -9};
Plane Surface(6) = {6};
Curve Loop(7) = {-10, -17, 15, 17};
Surface(7) = {7};
Curve Loop(8) = {-11, -18, 16, 18};
Surface(8) = {8};
Surface Loop(1) = {1, 2, 3, 4, 5, 6, 7, 8};
Volume(1) = {1};
Physical Surface("INFLOW") = {1};
Physical Surface("OUTFLOW") = {6};
Physical Surface("OBSTACLE") = {7, 8};
Physical Surface("WALL_Y") = {2, 4};
Physical Surface("WALL_Z") = {3, 5};
Physical Volume("FLUID") = {1};
