cl__1 = 1.011525;
cl__2 = 0.983199;
cl__3 = 3.350072;
cl__4 = 0.139527;
cl__5 = 0.109951;
Point(1) = {0.610445, -3.645209, 1, cl__1};
Point(2) = {0.610445, -3.645209, 0, cl__1};
Point(3) = {0.610445, 5.560043, 1, cl__2};
Point(4) = {0.610445, 5.560043, 0, cl__2};
Point(5) = {33.183039, -3.645209, 0, cl__1};
Point(6) = {33.183039, -3.645209, 1, cl__1};
Point(7) = {33.183039, 5.560043, 1, cl__3};
Point(8) = {23.717711, -0.7993560000000003, 1, cl__4};
Point(9) = {12.435829, -0.3700570000000003, 1, cl__5};
Point(10) = {33.183039, 5.560043, 0, cl__3};
Point(11) = {23.717711, -0.7993560000000003, 0, cl__4};
Point(12) = {12.435829, -0.3700570000000003, 0, cl__5};
Line(1) = {2, 1};
Line(2) = {1, 3};
Line(3) = {4, 3};
Line(4) = {2, 4};
Line(5) = {2, 5};
Line(6) = {5, 6};
Line(7) = {1, 6};
Line(8) = {3, 7};
Line(9) = {6, 7};
p10 = newp;
Point(p10 + 1) = {23.7005329356055, -0.5810879968322471, 1};
Point(p10 + 2) = {23.6494217233781, -0.3681944762924559, 1};
Point(p10 + 3) = {23.56563589099126, -0.1659175834094021, 1};
Point(p10 + 4) = {23.45123852370754, 0.02076195339561437, 1};
Point(p10 + 5) = {23.30904646437259, 0.1872474643725918, 1};
Point(p10 + 6) = {23.14256095339561, 0.3294395237075443, 1};
Point(p10 + 7) = {22.9558814165906, 0.4438368909912556, 1};
Point(p10 + 8) = {22.75360452370754, 0.5276227233781063, 1};
Point(p10 + 9) = {22.54071100316775, 0.5787339356054966, 1};
Point(p10 + 10) = {22.322443, 0.595912, 1};
Point(p10 + 11) = {22.10417499683225, 0.5787339356054966, 1};
Point(p10 + 12) = {21.89128147629246, 0.5276227233781063, 1};
Point(p10 + 13) = {21.6890045834094, 0.4438368909912558, 1};
Point(p10 + 14) = {21.50232504660439, 0.3294395237075443, 1};
Point(p10 + 15) = {21.33583953562741, 0.1872474643725919, 1};
Point(p10 + 16) = {21.19364747629245, 0.0207619533956146, 1};
Point(p10 + 17) = {21.07925010900874, -0.1659175834094019, 1};
Point(p10 + 18) = {20.9954642766219, -0.3681944762924557, 1};
Point(p10 + 19) = {20.9443530643945, -0.581087996832247, 1};
Point(p10 + 20) = {20.927175, -0.7993559999999997, 1};
Point(p10 + 21) = {20.9443530643945, -1.017624003167753, 1};
Point(p10 + 22) = {20.9954642766219, -1.230517523707545, 1};
Point(p10 + 23) = {21.07925010900874, -1.432794416590597, 1};
Point(p10 + 24) = {21.19364747629245, -1.619473953395614, 1};
Point(p10 + 25) = {21.33583953562741, -1.785959464372592, 1};
Point(p10 + 26) = {21.50232504660439, -1.928151523707544, 1};
Point(p10 + 27) = {21.6890045834094, -2.042548890991255, 1};
Point(p10 + 28) = {21.89128147629246, -2.126334723378106, 1};
Point(p10 + 29) = {22.10417499683225, -2.177445935605497, 1};
Point(p10 + 30) = {22.322443, -2.194624, 1};
Point(p10 + 31) = {22.54071100316775, -2.177445935605497, 1};
Point(p10 + 32) = {22.75360452370754, -2.126334723378106, 1};
Point(p10 + 33) = {22.9558814165906, -2.042548890991256, 1};
Point(p10 + 34) = {23.14256095339561, -1.928151523707544, 1};
Point(p10 + 35) = {23.30904646437259, -1.785959464372592, 1};
Point(p10 + 36) = {23.45123852370754, -1.619473953395615, 1};
Point(p10 + 37) = {23.56563589099126, -1.432794416590598, 1};
Point(p10 + 38) = {23.6494217233781, -1.230517523707544, 1};
Point(p10 + 39) = {23.7005329356055, -1.017624003167753, 1};
Spline(10) = {8, p10 + 1, p10 + 2, p10 + 3, p10 + 4, p10 + 5, p10 + 6, p10 + 7, p10 + 8, p10 + 9, p10 + 10, p10 + 11, p10 + 12, p10 + 13, p10 + 14, p10 + 15, p10 + 16, p10 + 17, p10 + 18, p10 + 19, p10 + 20, p10 + 21, p10 + 22, p10 + 23, p10 + 24, p10 + 25, p10 + 26, p10 + 27, p10 + 28, p10 + 29, p10 + 30, p10 + 31, p10 + 32, p10 + 33, p10 + 34, p10 + 35, p10 + 36, p10 + 37, p10 + 38, p10 + 39, 8};
p11 = newp;
Point(p11 + 1) = {12.42229215812112, -0.1980551156057556, 1};
Point(p11 + 2) = {12.38201495445775, -0.03028848844682408, 1};
Point(p11 + 3) = {12.31598914743645, 0.129111910330628, 1};
Point(p11 + 4) = {12.22584051155318, 0.2762211138891064, 1};
Point(p11 + 5) = {12.11378880540955, 0.4074168054095456, 1};
Point(p11 + 6) = {11.98259311388911, 0.5194685115531761, 1};
Point(p11 + 7) = {11.83548391033063, 0.6096171474364491, 1};
Point(p11 + 8) = {11.67608351155318, 0.6756429544577494, 1};
Point(p11 + 9) = {11.50831688439425, 0.7159201581211223, 1};
Point(p11 + 10) = {11.336315, 0.729457, 1};
Point(p11 + 11) = {11.16431311560576, 0.7159201581211223, 1};
Point(p11 + 12) = {10.99654648844682, 0.6756429544577496, 1};
Point(p11 + 13) = {10.83714608966937, 0.6096171474364491, 1};
Point(p11 + 14) = {10.69003688611089, 0.5194685115531761, 1};
Point(p11 + 15) = {10.55884119459046, 0.4074168054095457, 1};
Point(p11 + 16) = {10.44678948844683, 0.2762211138891065, 1};
Point(p11 + 17) = {10.35664085256355, 0.1291119103306281, 1};
Point(p11 + 18) = {10.29061504554225, -0.03028848844682397, 1};
Point(p11 + 19) = {10.25033784187888, -0.1980551156057555, 1};
Point(p11 + 20) = {10.236801, -0.3700569999999999, 1};
Point(p11 + 21) = {10.25033784187888, -0.5420588843942443, 1};
Point(p11 + 22) = {10.29061504554225, -0.7098255115531764, 1};
Point(p11 + 23) = {10.35664085256355, -0.8692259103306275, 1};
Point(p11 + 24) = {10.44678948844683, -1.016335113889106, 1};
Point(p11 + 25) = {10.55884119459046, -1.147530805409546, 1};
Point(p11 + 26) = {10.69003688611089, -1.259582511553176, 1};
Point(p11 + 27) = {10.83714608966937, -1.349731147436449, 1};
Point(p11 + 28) = {10.99654648844682, -1.41575695445775, 1};
Point(p11 + 29) = {11.16431311560576, -1.456034158121122, 1};
Point(p11 + 30) = {11.336315, -1.469571, 1};
Point(p11 + 31) = {11.50831688439425, -1.456034158121122, 1};
Point(p11 + 32) = {11.67608351155318, -1.41575695445775, 1};
Point(p11 + 33) = {11.83548391033063, -1.349731147436449, 1};
Point(p11 + 34) = {11.98259311388911, -1.259582511553176, 1};
Point(p11 + 35) = {12.11378880540955, -1.147530805409546, 1};
Point(p11 + 36) = {12.22584051155318, -1.016335113889107, 1};
Point(p11 + 37) = {12.31598914743645, -0.8692259103306283, 1};
Point(p11 + 38) = {12.38201495445775, -0.7098255115531762, 1};
Point(p11 + 39) = {12.42229215812112, -0.5420588843942447, 1};
Spline(11) = {9, p11 + 1, p11 + 2, p11 + 3, p11 + 4, p11 + 5, p11 + 6, p11 + 7, p11 + 8, p11 + 9, p11 + 10, p11 + 11, p11 + 12, p11 + 13, p11 + 14, p11 + 15, p11 + 16, p11 + 17, p11 + 18, p11 + 19, p11 + 20, p11 + 21, p11 + 22, p11 + 23, p11 + 24, p11 + 25, p11 + 26, p11 + 27, p11 + 28, p11 + 29, p11 + 30, p11 + 31, p11 + 32, p11 + 33, p11 + 34, p11 + 35, p11 + 36, p11 + 37, p11 + 38, p11 + 39, 9};
Line(12) = {4, 10};
Line(13) = {10, 7};
Line(14) = {5, 10};
p15 = newp;
Point(p15 + 1) = {23.7005329356055, -0.5810879968322471, 0};
Point(p15 + 2) = {23.6494217233781, -0.3681944762924559, 0};
Point(p15 + 3) = {23.56563589099126, -0.1659175834094021, 0};
Point(p15 + 4) = {23.45123852370754, 0.02076195339561437, 0};
Point(p15 + 5) = {23.30904646437259, 0.1872474643725918, 0};
Point(p15 + 6) = {23.14256095339561, 0.3294395237075443, 0};
Point(p15 + 7) = {22.9558814165906, 0.4438368909912556, 0};
Point(p15 + 8) = {22.75360452370754, 0.5276227233781063, 0};
Point(p15 + 9) = {22.54071100316775, 0.5787339356054966, 0};
Point(p15 + 10) = {22.322443, 0.595912, 0};
Point(p15 + 11) = {22.10417499683225, 0.5787339356054966, 0};
Point(p15 + 12) = {21.89128147629246, 0.5276227233781063, 0};
Point(p15 + 13) = {21.6890045834094, 0.4438368909912558, 0};
Point(p15 + 14) = {21.50232504660439, 0.3294395237075443, 0};
Point(p15 + 15) = {21.33583953562741, 0.1872474643725919, 0};
Point(p15 + 16) = {21.19364747629245, 0.0207619533956146, 0};
Point(p15 + 17) = {21.07925010900874, -0.1659175834094019, 0};
Point(p15 + 18) = {20.9954642766219, -0.3681944762924557, 0};
Point(p15 + 19) = {20.9443530643945, -0.581087996832247, 0};
Point(p15 + 20) = {20.927175, -0.7993559999999997, 0};
Point(p15 + 21) = {20.9443530643945, -1.017624003167753, 0};
Point(p15 + 22) = {20.9954642766219, -1.230517523707545, 0};
Point(p15 + 23) = {21.07925010900874, -1.432794416590597, 0};
Point(p15 + 24) = {21.19364747629245, -1.619473953395614, 0};
Point(p15 + 25) = {21.33583953562741, -1.785959464372592, 0};
Point(p15 + 26) = {21.50232504660439, -1.928151523707544, 0};
Point(p15 + 27) = {21.6890045834094, -2.042548890991255, 0};
Point(p15 + 28) = {21.89128147629246, -2.126334723378106, 0};
Point(p15 + 29) = {22.10417499683225, -2.177445935605497, 0};
Point(p15 + 30) = {22.322443, -2.194624, 0};
Point(p15 + 31) = {22.54071100316775, -2.177445935605497, 0};
Point(p15 + 32) = {22.75360452370754, -2.126334723378106, 0};
Point(p15 + 33) = {22.9558814165906, -2.042548890991256, 0};
Point(p15 + 34) = {23.14256095339561, -1.928151523707544, 0};
Point(p15 + 35) = {23.30904646437259, -1.785959464372592, 0};
Point(p15 + 36) = {23.45123852370754, -1.619473953395615, 0};
Point(p15 + 37) = {23.56563589099126, -1.432794416590598, 0};
Point(p15 + 38) = {23.6494217233781, -1.230517523707544, 0};
Point(p15 + 39) = {23.7005329356055, -1.017624003167753, 0};
Spline(15) = {11, p15 + 1, p15 + 2, p15 + 3, p15 + 4, p15 + 5, p15 + 6, p15 + 7, p15 + 8, p15 + 9, p15 + 10, p15 + 11, p15 + 12, p15 + 13, p15 + 14, p15 + 15, p15 + 16, p15 + 17, p15 + 18, p15 + 19, p15 + 20, p15 + 21, p15 + 22, p15 + 23, p15 + 24, p15 + 25, p15 + 26, p15 + 27, p15 + 28, p15 + 29, p15 + 30, p15 + 31, p15 + 32, p15 + 33, p15 + 34, p15 + 35, p15 + 36, p15 + 37, p15 + 38, p15 + 39, 11};
p16 = newp;
Point(p16 + 1) = {12.42229215812112, -0.1980551156057556, 0};
Point(p16 + 2) = {12.38201495445775, -0.03028848844682408, 0};
Point(p16 + 3) = {12.31598914743645, 0.129111910330628, 0};
Point(p16 + 4) = {12.22584051155318, 0.2762211138891064, 0};
Point(p16 + 5) = {12.11378880540955, 0.4074168054095456, 0};
Point(p16 + 6) = {11.98259311388911, 0.5194685115531761, 0};
Point(p16 + 7) = {11.83548391033063, 0.6096171474364491, 0};
Point(p16 + 8) = {11.67608351155318, 0.6756429544577494, 0};
Point(p16 + 9) = {11.50831688439425, 0.7159201581211223, 0};
Point(p16 + 10) = {11.336315, 0.729457, 0};
Point(p16 + 11) = {11.16431311560576, 0.7159201581211223, 0};
Point(p16 + 12) = {10.99654648844682, 0.6756429544577496, 0};
Point(p16 + 13) = {10.83714608966937, 0.6096171474364491, 0};
Point(p16 + 14) = {10.69003688611089, 0.5194685115531761, 0};
Point(p16 + 15) = {10.55884119459046, 0.4074168054095457, 0};
Point(p16 + 16) = {10.44678948844683, 0.2762211138891065, 0};
Point(p16 + 17) = {10.35664085256355, 0.1291119103306281, 0};
Point(p16 + 18) = {10.29061504554225, -0.03028848844682397, 0};
Point(p16 + 19) = {10.25033784187888, -0.1980551156057555, 0};
Point(p16 + 20) = {10.236801, -0.3700569999999999, 0};
Point(p16 + 21) = {10.25033784187888, -0.5420588843942443, 0};
Point(p16 + 22) = {10.29061504554225, -0.7098255115531764, 0};
Point(p16 + 23) = {10.35664085256355, -0.8692259103306275, 0};
Point(p16 + 24) = {10.44678948844683, -1.016335113889106, 0};
Point(p16 + 25) = {10.55884119459046, -1.147530805409546, 0};
Point(p16 + 26) = {10.69003688611089, -1.259582511553176, 0};
Point(p16 + 27) = {10.83714608966937, -1.349731147436449, 0};
Point(p16 + 28) = {10.99654648844682, -1.41575695445775, 0};
Point(p16 + 29) = {11.16431311560576, -1.456034158121122, 0};
Point(p16 + 30) = {11.336315, -1.469571, 0};
Point(p16 + 31) = {11.50831688439425, -1.456034158121122, 0};
Point(p16 + 32) = {11.67608351155318, -1.41575695445775, 0};
Point(p16 + 33) = {11.83548391033063, -1.349731147436449, 0};
Point(p16 + 34) = {11.98259311388911, -1.259582511553176, 0};
Point(p16 + 35) = {12.11378880540955, -1.147530805409546, 0};
Point(p16 + 36) = {12.22584051155318, -1.016335113889107, 0};
Point(p16 + 37) = {12.31598914743645, -0.8692259103306283, 0};
Point(p16 + 38) = {12.38201495445775, -0.7098255115531762, 0};
Point(p16 + 39) = {12.42229215812112, -0.5420588843942447, 0};
Spline(16) = {12, p16 + 1, p16 + 2, p16 + 3, p16 + 4, p16 + 5, p16 + 6, p16 + 7, p16 + 8, p16 + 9, p16 + 10, p16 + 11, p16 + 12, p16 + 13, p16 + 14, p16 + 15, p16 + 16, p16 + 17, p16 + 18, p16 + 19, p16 + 20, p16 + 21, p16 + 22, p16 + 23, p16 + 24, p16 + 25, p16 + 26, p16 + 27, p16 + 28, p16 + 29, p16 + 30, p16 + 31, p16 + 32, p16 + 33, p16 + 34, p16 + 35, p16 + 36, p16 + 37, p16 + 38, p16 + 39, 12};
Line(17) = {11, 8};
Line(18) = {12, 9};
Curve Loop(1) = {-1, 4, 3, -2};
Plane Surface(1) = {1};
Curve Loop(2) = {-5, 1, 7, -6};
Plane Surface(2) = {2};
Curve Loop(3) = {-2, 7, 9, -8, -10, -11};
Plane Surface(3) = {3};
Curve Loop(4) = {-12, 3, 8, -13};
Plane Surface(4) = {4};
Curve Loop(5) = {-4, 5, 14, -12, -15, -16};
Plane Surface(5) = {5};
Curve Loop(6) = {-6, 14, 13, -9};
Plane Surface(6) = {6};
Curve Loop(7) = {-10, -17, 15, 17};
Surface(7) = {7};
Curve Loop(8) = {-11, -18, 16, 18};
Surface(8) = {8};
Surface Loop(1) = {1, 2, 3, 4, 5, 6, 7, 8};
Volume(1) = {1};
Physical Surface("INFLOW") = {1};
Physical Surface("OUTFLOW") = {6};
Physical Surface("OBSTACLE") = {7, 8};
Physical Surface("WALL_Y") = {2, 4};
Physical Surface("WALL_Z") = {3, 5};
Physical Volume("FLUID") = {1};
