cl__1 = 1.086081;
cl__2 = 3.858416;
cl__3 = 0.067758;
cl__4 = 0.100513;
Point(1) = {0.192763, -3.228933, 1, cl__1};
Point(2) = {0.192763, -3.228933, 0, cl__1};
Point(3) = {0.192763, 4.894793, 1, cl__2};
Point(4) = {0.192763, 4.894793, 0, cl__2};
Point(5) = {38.369766, -3.228933, 0, cl__1};
Point(6) = {38.369766, -3.228933, 1, cl__1};
Point(7) = {38.369766, 4.894793, 1, cl__2};
Point(8) = {14.969047, 0.7639839999999999, 1, cl__3};
Point(9) = {11.517579, 2.628076, 1, cl__4};
Point(10) = {38.369766, 4.894793, 0, cl__2};
Point(11) = {14.969047, 0.7639839999999999, 0, cl__3};
Point(12) = {11.517579, 2.628076, 0, cl__4};
Line(1) = {2, 1};
Line(2) = {1, 3};
Line(3) = {4, 3};
Line(4) = {2, 4};
Line(5) = {2, 5};
Line(6) = {5, 6};
Line(7) = {1, 6};
Line(8) = {3, 7};
Line(9) = {6, 7};
p10 = newp;
Point(p10 + 1) = {14.96070481657382, 0.8699814905598198, 1};
Point(p10 + 2) = {14.93588367853734, 0.9733689711165543, 1};
Point(p10 + 3) = {14.89519476468565, 1.071600698775521, 1};
Point(p10 + 4) = {14.83963997111655, 1.162257882389343, 1};
Point(p10 + 5) = {14.77058724122351, 1.243108241223505, 1};
Point(p10 + 6) = {14.68973688238934, 1.312160971116554, 1};
Point(p10 + 7) = {14.59907969877552, 1.367715764685651, 1};
Point(p10 + 8) = {14.50084797111655, 1.408404678537335, 1};
Point(p10 + 9) = {14.39746049055982, 1.433225816573816, 1};
Point(p10 + 10) = {14.291463, 1.441568, 1};
Point(p10 + 11) = {14.18546550944018, 1.433225816573816, 1};
Point(p10 + 12) = {14.08207802888345, 1.408404678537335, 1};
Point(p10 + 13) = {13.98384630122448, 1.367715764685651, 1};
Point(p10 + 14) = {13.89318911761066, 1.312160971116554, 1};
Point(p10 + 15) = {13.81233875877649, 1.243108241223505, 1};
Point(p10 + 16) = {13.74328602888345, 1.162257882389343, 1};
Point(p10 + 17) = {13.68773123531435, 1.071600698775521, 1};
Point(p10 + 18) = {13.64704232146267, 0.9733689711165544, 1};
Point(p10 + 19) = {13.62222118342618, 0.8699814905598199, 1};
Point(p10 + 20) = {13.613879, 0.7639840000000001, 1};
Point(p10 + 21) = {13.62222118342618, 0.6579865094401803, 1};
Point(p10 + 22) = {13.64704232146267, 0.5545990288834455, 1};
Point(p10 + 23) = {13.68773123531435, 0.4563673012244793, 1};
Point(p10 + 24) = {13.74328602888345, 0.365710117610657, 1};
Point(p10 + 25) = {13.81233875877649, 0.2848597587764944, 1};
Point(p10 + 26) = {13.89318911761066, 0.2158070288834457, 1};
Point(p10 + 27) = {13.98384630122448, 0.1602522353143491, 1};
Point(p10 + 28) = {14.08207802888345, 0.1195633214626647, 1};
Point(p10 + 29) = {14.18546550944018, 0.09474218342618423, 1};
Point(p10 + 30) = {14.291463, 0.08640000000000003, 1};
Point(p10 + 31) = {14.39746049055982, 0.09474218342618423, 1};
Point(p10 + 32) = {14.50084797111655, 0.1195633214626647, 1};
Point(p10 + 33) = {14.59907969877552, 0.160252235314349, 1};
Point(p10 + 34) = {14.68973688238934, 0.2158070288834456, 1};
Point(p10 + 35) = {14.77058724122351, 0.2848597587764943, 1};
Point(p10 + 36) = {14.83963997111655, 0.3657101176106567, 1};
Point(p10 + 37) = {14.89519476468565, 0.4563673012244788, 1};
Point(p10 + 38) = {14.93588367853734, 0.5545990288834455, 1};
Point(p10 + 39) = {14.96070481657382, 0.65798650944018, 1};
Spline(10) = {8, p10 + 1, p10 + 2, p10 + 3, p10 + 4, p10 + 5, p10 + 6, p10 + 7, p10 + 8, p10 + 9, p10 + 10, p10 + 11, p10 + 12, p10 + 13, p10 + 14, p10 + 15, p10 + 16, p10 + 17, p10 + 18, p10 + 19, p10 + 20, p10 + 21, p10 + 22, p10 + 23, p10 + 24, p10 + 25, p10 + 26, p10 + 27, p10 + 28, p10 + 29, p10 + 30, p10 + 31, p10 + 32, p10 + 33, p10 + 34, p10 + 35, p10 + 36, p10 + 37, p10 + 38, p10 + 39, 8};
p11 = newp;
Point(p11 + 1) = {11.50520423102903, 2.785312348108027, 1};
Point(p11 + 2) = {11.46838463199768, 2.938677015488113, 1};
Point(p11 + 3) = {11.40802682363136, 3.084393655041212, 1};
Point(p11 + 4) = {11.32561701548811, 3.218874239495724, 1};
Point(p11 + 5) = {11.22318441054691, 3.33880741054691, 1};
Point(p11 + 6) = {11.10325123949572, 3.441240015488114, 1};
Point(p11 + 7) = {10.96877065504121, 3.523649823631358, 1};
Point(p11 + 8) = {10.82305401548811, 3.584007631997682, 1};
Point(p11 + 9) = {10.66968934810803, 3.620827231029029, 1};
Point(p11 + 10) = {10.512453, 3.633202, 1};
Point(p11 + 11) = {10.35521665189197, 3.620827231029028, 1};
Point(p11 + 12) = {10.20185198451189, 3.584007631997683, 1};
Point(p11 + 13) = {10.05613534495879, 3.523649823631358, 1};
Point(p11 + 14) = {9.921654760504277, 3.441240015488114, 1};
Point(p11 + 15) = {9.801721589453091, 3.33880741054691, 1};
Point(p11 + 16) = {9.699288984511888, 3.218874239495725, 1};
Point(p11 + 17) = {9.616879176368643, 3.084393655041212, 1};
Point(p11 + 18) = {9.556521368002318, 2.938677015488114, 1};
Point(p11 + 19) = {9.519701768970972, 2.785312348108027, 1};
Point(p11 + 20) = {9.507327, 2.628076, 1};
Point(p11 + 21) = {9.519701768970972, 2.470839651891973, 1};
Point(p11 + 22) = {9.556521368002318, 2.317474984511886, 1};
Point(p11 + 23) = {9.616879176368643, 2.171758344958789, 1};
Point(p11 + 24) = {9.699288984511886, 2.037277760504276, 1};
Point(p11 + 25) = {9.801721589453091, 1.91734458945309, 1};
Point(p11 + 26) = {9.921654760504277, 1.814911984511887, 1};
Point(p11 + 27) = {10.05613534495879, 1.732502176368643, 1};
Point(p11 + 28) = {10.20185198451189, 1.672144368002318, 1};
Point(p11 + 29) = {10.35521665189197, 1.635324768970972, 1};
Point(p11 + 30) = {10.512453, 1.62295, 1};
Point(p11 + 31) = {10.66968934810803, 1.635324768970972, 1};
Point(p11 + 32) = {10.82305401548811, 1.672144368002317, 1};
Point(p11 + 33) = {10.96877065504121, 1.732502176368643, 1};
Point(p11 + 34) = {11.10325123949572, 1.814911984511887, 1};
Point(p11 + 35) = {11.22318441054691, 1.91734458945309, 1};
Point(p11 + 36) = {11.32561701548811, 2.037277760504276, 1};
Point(p11 + 37) = {11.40802682363136, 2.171758344958788, 1};
Point(p11 + 38) = {11.46838463199768, 2.317474984511886, 1};
Point(p11 + 39) = {11.50520423102903, 2.470839651891973, 1};
Spline(11) = {9, p11 + 1, p11 + 2, p11 + 3, p11 + 4, p11 + 5, p11 + 6, p11 + 7, p11 + 8, p11 + 9, p11 + 10, p11 + 11, p11 + 12, p11 + 13, p11 + 14, p11 + 15, p11 + 16, p11 + 17, p11 + 18, p11 + 19, p11 + 20, p11 + 21, p11 + 22, p11 + 23, p11 + 24, p11 + 25, p11 + 26, p11 + 27, p11 + 28, p11 + 29, p11 + 30, p11 + 31, p11 + 32, p11 + 33, p11 + 34, p11 + 35, p11 + 36, p11 + 37, p11 + 38, p11 + 39, 9};
Line(12) = {4, 10};
Line(13) = {10, 7};
Line(14) = {5, 10};
p15 = newp;
Point(p15 + 1) = {14.96070481657382, 0.8699814905598198, 0};
Point(p15 + 2) = {14.93588367853734, 0.9733689711165543, 0};
Point(p15 + 3) = {14.89519476468565, 1.071600698775521, 0};
Point(p15 + 4) = {14.83963997111655, 1.162257882389343, 0};
Point(p15 + 5) = {14.77058724122351, 1.243108241223505, 0};
Point(p15 + 6) = {14.68973688238934, 1.312160971116554, 0};
Point(p15 + 7) = {14.59907969877552, 1.367715764685651, 0};
Point(p15 + 8) = {14.50084797111655, 1.408404678537335, 0};
Point(p15 + 9) = {14.39746049055982, 1.433225816573816, 0};
Point(p15 + 10) = {14.291463, 1.441568, 0};
Point(p15 + 11) = {14.18546550944018, 1.433225816573816, 0};
Point(p15 + 12) = {14.08207802888345, 1.408404678537335, 0};
Point(p15 + 13) = {13.98384630122448, 1.367715764685651, 0};
Point(p15 + 14) = {13.89318911761066, 1.312160971116554, 0};
Point(p15 + 15) = {13.81233875877649, 1.243108241223505, 0};
Point(p15 + 16) = {13.74328602888345, 1.162257882389343, 0};
Point(p15 + 17) = {13.68773123531435, 1.071600698775521, 0};
Point(p15 + 18) = {13.64704232146267, 0.9733689711165544, 0};
Point(p15 + 19) = {13.62222118342618, 0.8699814905598199, 0};
Point(p15 + 20) = {13.613879, 0.7639840000000001, 0};
Point(p15 + 21) = {13.62222118342618, 0.6579865094401803, 0};
Point(p15 + 22) = {13.64704232146267, 0.5545990288834455, 0};
Point(p15 + 23) = {13.68773123531435, 0.4563673012244793, 0};
Point(p15 + 24) = {13.74328602888345, 0.365710117610657, 0};
Point(p15 + 25) = {13.81233875877649, 0.2848597587764944, 0};
Point(p15 + 26) = {13.89318911761066, 0.2158070288834457, 0};
Point(p15 + 27) = {13.98384630122448, 0.1602522353143491, 0};
Point(p15 + 28) = {14.08207802888345, 0.1195633214626647, 0};
Point(p15 + 29) = {14.18546550944018, 0.09474218342618423, 0};
Point(p15 + 30) = {14.291463, 0.08640000000000003, 0};
Point(p15 + 31) = {14.39746049055982, 0.09474218342618423, 0};
Point(p15 + 32) = {14.50084797111655, 0.1195633214626647, 0};
Point(p15 + 33) = {14.59907969877552, 0.160252235314349, 0};
Point(p15 + 34) = {14.68973688238934, 0.2158070288834456, 0};
Point(p15 + 35) = {14.77058724122351, 0.2848597587764943, 0};
Point(p15 + 36) = {14.83963997111655, 0.3657101176106567, 0};
Point(p15 + 37) = {14.89519476468565, 0.4563673012244788, 0};
Point(p15 + 38) = {14.93588367853734, 0.5545990288834455, 0};
Point(p15 + 39) = {14.96070481657382, 0.65798650944018, 0};
Spline(15) = {11, p15 + 1, p15 + 2, p15 + 3, p15 + 4, p15 + 5, p15 + 6, p15 + 7, p15 + 8, p15 + 9, p15 + 10, p15 + 11, p15 + 12, p15 + 13, p15 + 14, p15 + 15, p15 + 16, p15 + 17, p15 + 18, p15 + 19, p15 + 20, p15 + 21, p15 + 22, p15 + 23, p15 + 24, p15 + 25, p15 + 26, p15 + 27, p15 + 28, p15 + 29, p15 + 30, p15 + 31, p15 + 32, p15 + 33, p15 + 34, p15 + 35, p15 + 36, p15 + 37, p15 + 38, p15 + 39, 11};
p16 = newp;
Point(p16 + 1) = {11.50520423102903, 2.785312348108027, 0};
Point(p16 + 2) = {11.46838463199768, 2.938677015488113, 0};
Point(p16 + 3) = {11.40802682363136, 3.084393655041212, 0};
Point(p16 + 4) = {11.32561701548811, 3.218874239495724, 0};
Point(p16 + 5) = {11.22318441054691, 3.33880741054691, 0};
Point(p16 + 6) = {11.10325123949572, 3.441240015488114, 0};
Point(p16 + 7) = {10.96877065504121, 3.523649823631358, 0};
Point(p16 + 8) = {10.82305401548811, 3.584007631997682, 0};
Point(p16 + 9) = {10.66968934810803, 3.620827231029029, 0};
Point(p16 + 10) = {10.512453, 3.633202, 0};
Point(p16 + 11) = {10.35521665189197, 3.620827231029028, 0};
Point(p16 + 12) = {10.20185198451189, 3.584007631997683, 0};
Point(p16 + 13) = {10.05613534495879, 3.523649823631358, 0};
Point(p16 + 14) = {9.921654760504277, 3.441240015488114, 0};
Point(p16 + 15) = {9.801721589453091, 3.33880741054691, 0};
Point(p16 + 16) = {9.699288984511888, 3.218874239495725, 0};
Point(p16 + 17) = {9.616879176368643, 3.084393655041212, 0};
Point(p16 + 18) = {9.556521368002318, 2.938677015488114, 0};
Point(p16 + 19) = {9.519701768970972, 2.785312348108027, 0};
Point(p16 + 20) = {9.507327, 2.628076, 0};
Point(p16 + 21) = {9.519701768970972, 2.470839651891973, 0};
Point(p16 + 22) = {9.556521368002318, 2.317474984511886, 0};
Point(p16 + 23) = {9.616879176368643, 2.171758344958789, 0};
Point(p16 + 24) = {9.699288984511886, 2.037277760504276, 0};
Point(p16 + 25) = {9.801721589453091, 1.91734458945309, 0};
Point(p16 + 26) = {9.921654760504277, 1.814911984511887, 0};
Point(p16 + 27) = {10.05613534495879, 1.732502176368643, 0};
Point(p16 + 28) = {10.20185198451189, 1.672144368002318, 0};
Point(p16 + 29) = {10.35521665189197, 1.635324768970972, 0};
Point(p16 + 30) = {10.512453, 1.62295, 0};
Point(p16 + 31) = {10.66968934810803, 1.635324768970972, 0};
Point(p16 + 32) = {10.82305401548811, 1.672144368002317, 0};
Point(p16 + 33) = {10.96877065504121, 1.732502176368643, 0};
Point(p16 + 34) = {11.10325123949572, 1.814911984511887, 0};
Point(p16 + 35) = {11.22318441054691, 1.91734458945309, 0};
Point(p16 + 36) = {11.32561701548811, 2.037277760504276, 0};
Point(p16 + 37) = {11.40802682363136, 2.171758344958788, 0};
Point(p16 + 38) = {11.46838463199768, 2.317474984511886, 0};
Point(p16 + 39) = {11.50520423102903, 2.470839651891973, 0};
Spline(16) = {12, p16 + 1, p16 + 2, p16 + 3, p16 + 4, p16 + 5, p16 + 6, p16 + 7, p16 + 8, p16 + 9, p16 + 10, p16 + 11, p16 + 12, p16 + 13, p16 + 14, p16 + 15, p16 + 16, p16 + 17, p16 + 18, p16 + 19, p16 + 20, p16 + 21, p16 + 22, p16 + 23, p16 + 24, p16 + 25, p16 + 26, p16 + 27, p16 + 28, p16 + 29, p16 + 30, p16 + 31, p16 + 32, p16 + 33, p16 + 34, p16 + 35, p16 + 36, p16 + 37, p16 + 38, p16 + 39, 12};
Line(17) = {11, 8};
Line(18) = {12, 9};
Curve Loop(1) = {-1, 4, 3, -2};
Plane Surface(1) = {1};
Curve Loop(2) = {-5, 1, 7, -6};
Plane Surface(2) = {2};
Curve Loop(3) = {-2, 7, 9, -8, -10, -11};
Plane Surface(3) = {3};
Curve Loop(4) = {-12, 3, 8, -13};
Plane Surface(4) = {4};
Curve Loop(5) = {-4, 5, 14, -12, -15, -16};
Plane Surface(5) = {5};
Curve Loop(6) = {-6, 14, 13, -9};
Plane Surface(6) = {6};
Curve Loop(7) = {-10, -17, 15, 17};
Surface(7) = {7};
Curve Loop(8) = {-11, -18, 16, 18};
Surface(8) = {8};
Surface Loop(1) = {1, 2, 3, 4, 5, 6, 7, 8};
Volume(1) = {1};
Physical Surface("INFLOW") = {1};
Physical Surface("OUTFLOW") = {6};
Physical Surface("OBSTACLE") = {7, 8};
Physical Surface("WALL_Y") = {2, 4};
Physical Surface("WALL_Z") = {3, 5};
Physical Volume("FLUID") = {1};
