cl__1 = 3.121933;
cl__2 = 0.580584;
cl__3 = 0.698102;
cl__4 = 0.101325;
Point(1) = {0.205401, -3.804822, 1, cl__1};
Point(2) = {0.205401, -3.804822, 0, cl__1};
Point(3) = {0.205401, 4.971116, 1, cl__1};
Point(4) = {0.205401, 4.971116, 0, cl__1};
Point(5) = {30.909416, -3.804822, 0, cl__2};
Point(6) = {30.909416, -3.804822, 1, cl__2};
Point(7) = {30.909416, 4.971116, 1, cl__3};
Point(8) = {26.009448, -0.4086750000000003, 1, cl__4};
Point(9) = {30.909416, 4.971116, 0, cl__3};
Point(10) = {26.009448, -0.4086750000000003, 0, cl__4};
Line(1) = {2, 1};
Line(2) = {1, 3};
Line(3) = {4, 3};
Line(4) = {2, 4};
Line(5) = {2, 5};
Line(6) = {5, 6};
Line(7) = {1, 6};
Line(8) = {3, 7};
Line(9) = {6, 7};
p10 = newp;
Point(p10 + 1) = {25.99697323573134, -0.2501680911669162, 1};
Point(p10 + 2) = {25.95985611302303, -0.09556414848357331, 1};
Point(p10 + 3) = {25.89901057862082, 0.0513299658800962, 1};
Point(p10 + 4) = {25.81593485151643, 0.1868972313148438, 1};
Point(p10 + 5) = {25.71267453182371, 0.3077995318237068, 1};
Point(p10 + 6) = {25.59177223131485, 0.4110598515164267, 1};
Point(p10 + 7) = {25.4562049658801, 0.4941355786208153, 1};
Point(p10 + 8) = {25.30931085151643, 0.5549811130230317, 1};
Point(p10 + 9) = {25.15470690883308, 0.5920982357313421, 1};
Point(p10 + 10) = {24.9962, 0.6045729999999999, 1};
Point(p10 + 11) = {24.83769309116692, 0.5920982357313419, 1};
Point(p10 + 12) = {24.68308914848357, 0.5549811130230318, 1};
Point(p10 + 13) = {24.53619503411991, 0.4941355786208154, 1};
Point(p10 + 14) = {24.40062776868516, 0.4110598515164267, 1};
Point(p10 + 15) = {24.2797254681763, 0.3077995318237069, 1};
Point(p10 + 16) = {24.17646514848358, 0.1868972313148439, 1};
Point(p10 + 17) = {24.09338942137919, 0.05132996588009631, 1};
Point(p10 + 18) = {24.03254388697697, -0.0955641484835732, 1};
Point(p10 + 19) = {23.99542676426866, -0.2501680911669161, 1};
Point(p10 + 20) = {23.982952, -0.4086749999999999, 1};
Point(p10 + 21) = {23.99542676426866, -0.5671819088330837, 1};
Point(p10 + 22) = {24.03254388697697, -0.721785851516427, 1};
Point(p10 + 23) = {24.09338942137919, -0.8686799658800957, 1};
Point(p10 + 24) = {24.17646514848358, -1.004247231314844, 1};
Point(p10 + 25) = {24.2797254681763, -1.125149531823707, 1};
Point(p10 + 26) = {24.40062776868516, -1.228409851516427, 1};
Point(p10 + 27) = {24.53619503411991, -1.311485578620815, 1};
Point(p10 + 28) = {24.68308914848357, -1.372331113023032, 1};
Point(p10 + 29) = {24.83769309116692, -1.409448235731342, 1};
Point(p10 + 30) = {24.9962, -1.421923, 1};
Point(p10 + 31) = {25.15470690883308, -1.409448235731342, 1};
Point(p10 + 32) = {25.30931085151643, -1.372331113023032, 1};
Point(p10 + 33) = {25.4562049658801, -1.311485578620815, 1};
Point(p10 + 34) = {25.59177223131485, -1.228409851516427, 1};
Point(p10 + 35) = {25.71267453182371, -1.125149531823707, 1};
Point(p10 + 36) = {25.81593485151643, -1.004247231314844, 1};
Point(p10 + 37) = {25.89901057862082, -0.8686799658800965, 1};
Point(p10 + 38) = {25.95985611302303, -0.7217858515164269, 1};
Point(p10 + 39) = {25.99697323573134, -0.5671819088330841, 1};
Spline(10) = {8, p10 + 1, p10 + 2, p10 + 3, p10 + 4, p10 + 5, p10 + 6, p10 + 7, p10 + 8, p10 + 9, p10 + 10, p10 + 11, p10 + 12, p10 + 13, p10 + 14, p10 + 15, p10 + 16, p10 + 17, p10 + 18, p10 + 19, p10 + 20, p10 + 21, p10 + 22, p10 + 23, p10 + 24, p10 + 25, p10 + 26, p10 + 27, p10 + 28, p10 + 29, p10 + 30, p10 + 31, p10 + 32, p10 + 33, p10 + 34, p10 + 35, p10 + 36, p10 + 37, p10 + 38, p10 + 39, 8};
Line(11) = {4, 9};
Line(12) = {9, 7};
Line(13) = {5, 9};
p14 = newp;
Point(p14 + 1) = {25.99697323573134, -0.2501680911669162, 0};
Point(p14 + 2) = {25.95985611302303, -0.09556414848357331, 0};
Point(p14 + 3) = {25.89901057862082, 0.0513299658800962, 0};
Point(p14 + 4) = {25.81593485151643, 0.1868972313148438, 0};
Point(p14 + 5) = {25.71267453182371, 0.3077995318237068, 0};
Point(p14 + 6) = {25.59177223131485, 0.4110598515164267, 0};
Point(p14 + 7) = {25.4562049658801, 0.4941355786208153, 0};
Point(p14 + 8) = {25.30931085151643, 0.5549811130230317, 0};
Point(p14 + 9) = {25.15470690883308, 0.5920982357313421, 0};
Point(p14 + 10) = {24.9962, 0.6045729999999999, 0};
Point(p14 + 11) = {24.83769309116692, 0.5920982357313419, 0};
Point(p14 + 12) = {24.68308914848357, 0.5549811130230318, 0};
Point(p14 + 13) = {24.53619503411991, 0.4941355786208154, 0};
Point(p14 + 14) = {24.40062776868516, 0.4110598515164267, 0};
Point(p14 + 15) = {24.2797254681763, 0.3077995318237069, 0};
Point(p14 + 16) = {24.17646514848358, 0.1868972313148439, 0};
Point(p14 + 17) = {24.09338942137919, 0.05132996588009631, 0};
Point(p14 + 18) = {24.03254388697697, -0.0955641484835732, 0};
Point(p14 + 19) = {23.99542676426866, -0.2501680911669161, 0};
Point(p14 + 20) = {23.982952, -0.4086749999999999, 0};
Point(p14 + 21) = {23.99542676426866, -0.5671819088330837, 0};
Point(p14 + 22) = {24.03254388697697, -0.721785851516427, 0};
Point(p14 + 23) = {24.09338942137919, -0.8686799658800957, 0};
Point(p14 + 24) = {24.17646514848358, -1.004247231314844, 0};
Point(p14 + 25) = {24.2797254681763, -1.125149531823707, 0};
Point(p14 + 26) = {24.40062776868516, -1.228409851516427, 0};
Point(p14 + 27) = {24.53619503411991, -1.311485578620815, 0};
Point(p14 + 28) = {24.68308914848357, -1.372331113023032, 0};
Point(p14 + 29) = {24.83769309116692, -1.409448235731342, 0};
Point(p14 + 30) = {24.9962, -1.421923, 0};
Point(p14 + 31) = {25.15470690883308, -1.409448235731342, 0};
Point(p14 + 32) = {25.30931085151643, -1.372331113023032, 0};
Point(p14 + 33) = {25.4562049658801, -1.311485578620815, 0};
Point(p14 + 34) = {25.59177223131485, -1.228409851516427, 0};
Point(p14 + 35) = {25.71267453182371, -1.125149531823707, 0};
Point(p14 + 36) = {25.81593485151643, -1.004247231314844, 0};
Point(p14 + 37) = {25.89901057862082, -0.8686799658800965, 0};
Point(p14 + 38) = {25.95985611302303, -0.7217858515164269, 0};
Point(p14 + 39) = {25.99697323573134, -0.5671819088330841, 0};
Spline(14) = {10, p14 + 1, p14 + 2, p14 + 3, p14 + 4, p14 + 5, p14 + 6, p14 + 7, p14 + 8, p14 + 9, p14 + 10, p14 + 11, p14 + 12, p14 + 13, p14 + 14, p14 + 15, p14 + 16, p14 + 17, p14 + 18, p14 + 19, p14 + 20, p14 + 21, p14 + 22, p14 + 23, p14 + 24, p14 + 25, p14 + 26, p14 + 27, p14 + 28, p14 + 29, p14 + 30, p14 + 31, p14 + 32, p14 + 33, p14 + 34, p14 + 35, p14 + 36, p14 + 37, p14 + 38, p14 + 39, 10};
Line(15) = {10, 8};
Curve Loop(1) = {-1, 4, 3, -2};
Plane Surface(1) = {1};
Curve Loop(2) = {-5, 1, 7, -6};
Plane Surface(2) = {2};
Curve Loop(3) = {-2, 7, 9, -8, -10};
Plane Surface(3) = {3};
Curve Loop(4) = {-11, 3, 8, -12};
Plane Surface(4) = {4};
Curve Loop(5) = {-4, 5, 13, -11, -14};
Plane Surface(5) = {5};
Curve Loop(6) = {-6, 13, 12, -9};
Plane Surface(6) = {6};
Curve Loop(7) = {-10, -15, 14, 15};
Surface(7) = {7};
Surface Loop(1) = {1, 2, 3, 4, 5, 6, 7};
Volume(1) = {1};
Physical Surface("INFLOW") = {1};
Physical Surface("OUTFLOW") = {6};
Physical Surface("OBSTACLE") = {7};
Physical Surface("WALL_Y") = {2, 4};
Physical Surface("WALL_Z") = {3, 5};
Physical Volume("FLUID") = {1};
