cl__1 = 0.826943;
cl__2 = 0.877118;
cl__3 = 3.217955;
cl__4 = 0.070728;
cl__5 = 0.08488;
Point(1) = {0.693313, -3.448072, 1, cl__1};
Point(2) = {0.693313, -3.448072, 0, cl__1};
Point(3) = {0.693313, 4.668226000000001, 1, cl__2};
Point(4) = {0.693313, 4.668226000000001, 0, cl__2};
Point(5) = {31.922641, -3.448072, 0, cl__1};
Point(6) = {31.922641, -3.448072, 1, cl__1};
Point(7) = {31.922641, 4.668226000000001, 1, cl__3};
Point(8) = {10.207921, -1.712505, 1, cl__4};
Point(9) = {23.353891, -1.484952, 1, cl__5};
Point(10) = {31.922641, 4.668226000000001, 0, cl__3};
Point(11) = {10.207921, -1.712505, 0, cl__4};
Point(12) = {23.353891, -1.484952, 0, cl__5};
Line(1) = {2, 1};
Line(2) = {1, 3};
Line(3) = {4, 3};
Line(4) = {2, 4};
Line(5) = {2, 5};
Line(6) = {5, 6};
Line(7) = {1, 6};
Line(8) = {3, 7};
Line(9) = {6, 7};
p10 = newp;
Point(p10 + 1) = {10.19921323415945, -1.601862344435276, 1};
Point(p10 + 2) = {10.1733043507322, -1.493944078252476, 1};
Point(p10 + 3) = {10.1308323124149, -1.391407507325213, 1};
Point(p10 + 4) = {10.07284292174752, -1.296777422329084, 1};
Point(p10 + 5) = {10.00076406998406, -1.212383930015941, 1};
Point(p10 + 6) = {9.916370577670916, -1.140305078252476, 1};
Point(p10 + 7) = {9.821740492674788, -1.082315687585099, 1};
Point(p10 + 8) = {9.719203921747525, -1.039843649267796, 1};
Point(p10 + 9) = {9.611285655564725, -1.013934765840552, 1};
Point(p10 + 10) = {9.500643, -1.005227, 1};
Point(p10 + 11) = {9.390000344435276, -1.013934765840552, 1};
Point(p10 + 12) = {9.282082078252476, -1.039843649267796, 1};
Point(p10 + 13) = {9.179545507325214, -1.082315687585099, 1};
Point(p10 + 14) = {9.084915422329084, -1.140305078252476, 1};
Point(p10 + 15) = {9.000521930015941, -1.212383930015941, 1};
Point(p10 + 16) = {8.928443078252476, -1.296777422329084, 1};
Point(p10 + 17) = {8.870453687585099, -1.391407507325213, 1};
Point(p10 + 18) = {8.827981649267796, -1.493944078252476, 1};
Point(p10 + 19) = {8.802072765840553, -1.601862344435276, 1};
Point(p10 + 20) = {8.793365, -1.712505, 1};
Point(p10 + 21) = {8.802072765840553, -1.823147655564724, 1};
Point(p10 + 22) = {8.827981649267796, -1.931065921747524, 1};
Point(p10 + 23) = {8.870453687585099, -2.033602492674787, 1};
Point(p10 + 24) = {8.928443078252476, -2.128232577670916, 1};
Point(p10 + 25) = {9.000521930015941, -2.212626069984059, 1};
Point(p10 + 26) = {9.084915422329084, -2.284704921747524, 1};
Point(p10 + 27) = {9.179545507325212, -2.3426943124149, 1};
Point(p10 + 28) = {9.282082078252476, -2.385166350732204, 1};
Point(p10 + 29) = {9.390000344435276, -2.411075234159448, 1};
Point(p10 + 30) = {9.500643, -2.419783, 1};
Point(p10 + 31) = {9.611285655564725, -2.411075234159448, 1};
Point(p10 + 32) = {9.719203921747525, -2.385166350732204, 1};
Point(p10 + 33) = {9.821740492674786, -2.3426943124149, 1};
Point(p10 + 34) = {9.916370577670916, -2.284704921747524, 1};
Point(p10 + 35) = {10.00076406998406, -2.212626069984059, 1};
Point(p10 + 36) = {10.07284292174752, -2.128232577670916, 1};
Point(p10 + 37) = {10.1308323124149, -2.033602492674787, 1};
Point(p10 + 38) = {10.1733043507322, -1.931065921747524, 1};
Point(p10 + 39) = {10.19921323415945, -1.823147655564725, 1};
Spline(10) = {8, p10 + 1, p10 + 2, p10 + 3, p10 + 4, p10 + 5, p10 + 6, p10 + 7, p10 + 8, p10 + 9, p10 + 10, p10 + 11, p10 + 12, p10 + 13, p10 + 14, p10 + 15, p10 + 16, p10 + 17, p10 + 18, p10 + 19, p10 + 20, p10 + 21, p10 + 22, p10 + 23, p10 + 24, p10 + 25, p10 + 26, p10 + 27, p10 + 28, p10 + 29, p10 + 30, p10 + 31, p10 + 32, p10 + 33, p10 + 34, p10 + 35, p10 + 36, p10 + 37, p10 + 38, p10 + 39, 8};
p11 = newp;
Point(p11 + 1) = {23.34344082656218, -1.352169956770457, 1};
Point(p11 + 2) = {23.31234762420087, -1.222657448123562, 1};
Point(p11 + 3) = {23.26137701075066, -1.099603501849574, 1};
Point(p11 + 4) = {23.19178405187644, -0.9860381144983921, 1};
Point(p11 + 5) = {23.10528235719148, -0.884757642808515, 1};
Point(p11 + 6) = {23.00400188550161, -0.7982559481235616, 1};
Point(p11 + 7) = {22.89043649815043, -0.7286629892493409, 1};
Point(p11 + 8) = {22.76738255187644, -0.6776923757991249, 1};
Point(p11 + 9) = {22.63787004322954, -0.6465991734378254, 1};
Point(p11 + 10) = {22.505088, -0.6361490000000001, 1};
Point(p11 + 11) = {22.37230595677046, -0.6465991734378255, 1};
Point(p11 + 12) = {22.24279344812356, -0.6776923757991248, 1};
Point(p11 + 13) = {22.11973950184957, -0.7286629892493408, 1};
Point(p11 + 14) = {22.00617411449839, -0.7982559481235616, 1};
Point(p11 + 15) = {21.90489364280852, -0.8847576428085149, 1};
Point(p11 + 16) = {21.81839194812356, -0.9860381144983918, 1};
Point(p11 + 17) = {21.74879898924934, -1.099603501849574, 1};
Point(p11 + 18) = {21.69782837579913, -1.222657448123561, 1};
Point(p11 + 19) = {21.66673517343783, -1.352169956770457, 1};
Point(p11 + 20) = {21.656285, -1.484952, 1};
Point(p11 + 21) = {21.66673517343783, -1.617734043229543, 1};
Point(p11 + 22) = {21.69782837579913, -1.747246551876439, 1};
Point(p11 + 23) = {21.74879898924934, -1.870300498150426, 1};
Point(p11 + 24) = {21.81839194812356, -1.983865885501608, 1};
Point(p11 + 25) = {21.90489364280852, -2.085146357191485, 1};
Point(p11 + 26) = {22.00617411449839, -2.171648051876439, 1};
Point(p11 + 27) = {22.11973950184957, -2.241241010750659, 1};
Point(p11 + 28) = {22.24279344812356, -2.292211624200875, 1};
Point(p11 + 29) = {22.37230595677046, -2.323304826562175, 1};
Point(p11 + 30) = {22.505088, -2.333755, 1};
Point(p11 + 31) = {22.63787004322954, -2.323304826562175, 1};
Point(p11 + 32) = {22.76738255187644, -2.292211624200875, 1};
Point(p11 + 33) = {22.89043649815043, -2.24124101075066, 1};
Point(p11 + 34) = {23.00400188550161, -2.171648051876439, 1};
Point(p11 + 35) = {23.10528235719148, -2.085146357191485, 1};
Point(p11 + 36) = {23.19178405187644, -1.983865885501608, 1};
Point(p11 + 37) = {23.26137701075066, -1.870300498150427, 1};
Point(p11 + 38) = {23.31234762420087, -1.747246551876439, 1};
Point(p11 + 39) = {23.34344082656218, -1.617734043229543, 1};
Spline(11) = {9, p11 + 1, p11 + 2, p11 + 3, p11 + 4, p11 + 5, p11 + 6, p11 + 7, p11 + 8, p11 + 9, p11 + 10, p11 + 11, p11 + 12, p11 + 13, p11 + 14, p11 + 15, p11 + 16, p11 + 17, p11 + 18, p11 + 19, p11 + 20, p11 + 21, p11 + 22, p11 + 23, p11 + 24, p11 + 25, p11 + 26, p11 + 27, p11 + 28, p11 + 29, p11 + 30, p11 + 31, p11 + 32, p11 + 33, p11 + 34, p11 + 35, p11 + 36, p11 + 37, p11 + 38, p11 + 39, 9};
Line(12) = {4, 10};
Line(13) = {10, 7};
Line(14) = {5, 10};
p15 = newp;
Point(p15 + 1) = {10.19921323415945, -1.601862344435276, 0};
Point(p15 + 2) = {10.1733043507322, -1.493944078252476, 0};
Point(p15 + 3) = {10.1308323124149, -1.391407507325213, 0};
Point(p15 + 4) = {10.07284292174752, -1.296777422329084, 0};
Point(p15 + 5) = {10.00076406998406, -1.212383930015941, 0};
Point(p15 + 6) = {9.916370577670916, -1.140305078252476, 0};
Point(p15 + 7) = {9.821740492674788, -1.082315687585099, 0};
Point(p15 + 8) = {9.719203921747525, -1.039843649267796, 0};
Point(p15 + 9) = {9.611285655564725, -1.013934765840552, 0};
Point(p15 + 10) = {9.500643, -1.005227, 0};
Point(p15 + 11) = {9.390000344435276, -1.013934765840552, 0};
Point(p15 + 12) = {9.282082078252476, -1.039843649267796, 0};
Point(p15 + 13) = {9.179545507325214, -1.082315687585099, 0};
Point(p15 + 14) = {9.084915422329084, -1.140305078252476, 0};
Point(p15 + 15) = {9.000521930015941, -1.212383930015941, 0};
Point(p15 + 16) = {8.928443078252476, -1.296777422329084, 0};
Point(p15 + 17) = {8.870453687585099, -1.391407507325213, 0};
Point(p15 + 18) = {8.827981649267796, -1.493944078252476, 0};
Point(p15 + 19) = {8.802072765840553, -1.601862344435276, 0};
Point(p15 + 20) = {8.793365, -1.712505, 0};
Point(p15 + 21) = {8.802072765840553, -1.823147655564724, 0};
Point(p15 + 22) = {8.827981649267796, -1.931065921747524, 0};
Point(p15 + 23) = {8.870453687585099, -2.033602492674787, 0};
Point(p15 + 24) = {8.928443078252476, -2.128232577670916, 0};
Point(p15 + 25) = {9.000521930015941, -2.212626069984059, 0};
Point(p15 + 26) = {9.084915422329084, -2.284704921747524, 0};
Point(p15 + 27) = {9.179545507325212, -2.3426943124149, 0};
Point(p15 + 28) = {9.282082078252476, -2.385166350732204, 0};
Point(p15 + 29) = {9.390000344435276, -2.411075234159448, 0};
Point(p15 + 30) = {9.500643, -2.419783, 0};
Point(p15 + 31) = {9.611285655564725, -2.411075234159448, 0};
Point(p15 + 32) = {9.719203921747525, -2.385166350732204, 0};
Point(p15 + 33) = {9.821740492674786, -2.3426943124149, 0};
Point(p15 + 34) = {9.916370577670916, -2.284704921747524, 0};
Point(p15 + 35) = {10.00076406998406, -2.212626069984059, 0};
Point(p15 + 36) = {10.07284292174752, -2.128232577670916, 0};
Point(p15 + 37) = {10.1308323124149, -2.033602492674787, 0};
Point(p15 + 38) = {10.1733043507322, -1.931065921747524, 0};
Point(p15 + 39) = {10.19921323415945, -1.823147655564725, 0};
Spline(15) = {11, p15 + 1, p15 + 2, p15 + 3, p15 + 4, p15 + 5, p15 + 6, p15 + 7, p15 + 8, p15 + 9, p15 + 10, p15 + 11, p15 + 12, p15 + 13, p15 + 14, p15 + 15, p15 + 16, p15 + 17, p15 + 18, p15 + 19, p15 + 20, p15 + 21, p15 + 22, p15 + 23, p15 + 24, p15 + 25, p15 + 26, p15 + 27, p15 + 28, p15 + 29, p15 + 30, p15 + 31, p15 + 32, p15 + 33, p15 + 34, p15 + 35, p15 + 36, p15 + 37, p15 + 38, p15 + 39, 11};
p16 = newp;
Point(p16 + 1) = {23.34344082656218, -1.352169956770457, 0};
Point(p16 + 2) = {23.31234762420087, -1.222657448123562, 0};
Point(p16 + 3) = {23.26137701075066, -1.099603501849574, 0};
Point(p16 + 4) = {23.19178405187644, -0.9860381144983921, 0};
Point(p16 + 5) = {23.10528235719148, -0.884757642808515, 0};
Point(p16 + 6) = {23.00400188550161, -0.7982559481235616, 0};
Point(p16 + 7) = {22.89043649815043, -0.7286629892493409, 0};
Point(p16 + 8) = {22.76738255187644, -0.6776923757991249, 0};
Point(p16 + 9) = {22.63787004322954, -0.6465991734378254, 0};
Point(p16 + 10) = {22.505088, -0.6361490000000001, 0};
Point(p16 + 11) = {22.37230595677046, -0.6465991734378255, 0};
Point(p16 + 12) = {22.24279344812356, -0.6776923757991248, 0};
Point(p16 + 13) = {22.11973950184957, -0.7286629892493408, 0};
Point(p16 + 14) = {22.00617411449839, -0.7982559481235616, 0};
Point(p16 + 15) = {21.90489364280852, -0.8847576428085149, 0};
Point(p16 + 16) = {21.81839194812356, -0.9860381144983918, 0};
Point(p16 + 17) = {21.74879898924934, -1.099603501849574, 0};
Point(p16 + 18) = {21.69782837579913, -1.222657448123561, 0};
Point(p16 + 19) = {21.66673517343783, -1.352169956770457, 0};
Point(p16 + 20) = {21.656285, -1.484952, 0};
Point(p16 + 21) = {21.66673517343783, -1.617734043229543, 0};
Point(p16 + 22) = {21.69782837579913, -1.747246551876439, 0};
Point(p16 + 23) = {21.74879898924934, -1.870300498150426, 0};
Point(p16 + 24) = {21.81839194812356, -1.983865885501608, 0};
Point(p16 + 25) = {21.90489364280852, -2.085146357191485, 0};
Point(p16 + 26) = {22.00617411449839, -2.171648051876439, 0};
Point(p16 + 27) = {22.11973950184957, -2.241241010750659, 0};
Point(p16 + 28) = {22.24279344812356, -2.292211624200875, 0};
Point(p16 + 29) = {22.37230595677046, -2.323304826562175, 0};
Point(p16 + 30) = {22.505088, -2.333755, 0};
Point(p16 + 31) = {22.63787004322954, -2.323304826562175, 0};
Point(p16 + 32) = {22.76738255187644, -2.292211624200875, 0};
Point(p16 + 33) = {22.89043649815043, -2.24124101075066, 0};
Point(p16 + 34) = {23.00400188550161, -2.171648051876439, 0};
Point(p16 + 35) = {23.10528235719148, -2.085146357191485, 0};
Point(p16 + 36) = {23.19178405187644, -1.983865885501608, 0};
Point(p16 + 37) = {23.26137701075066, -1.870300498150427, 0};
Point(p16 + 38) = {23.31234762420087, -1.747246551876439, 0};
Point(p16 + 39) = {23.34344082656218, -1.617734043229543, 0};
Spline(16) = {12, p16 + 1, p16 + 2, p16 + 3, p16 + 4, p16 + 5, p16 + 6, p16 + 7, p16 + 8, p16 + 9, p16 + 10, p16 + 11, p16 + 12, p16 + 13, p16 + 14, p16 + 15, p16 + 16, p16 + 17, p16 + 18, p16 + 19, p16 + 20, p16 + 21, p16 + 22, p16 + 23, p16 + 24, p16 + 25, p16 + 26, p16 + 27, p16 + 28, p16 + 29, p16 + 30, p16 + 31, p16 + 32, p16 + 33, p16 + 34, p16 + 35, p16 + 36, p16 + 37, p16 + 38, p16 + 39, 12};
Line(17) = {11, 8};
Line(18) = {12, 9};
Curve Loop(1) = {-1, 4, 3, -2};
Plane Surface(1) = {1};
Curve Loop(2) = {-5, 1, 7, -6};
Plane Surface(2) = {2};
Curve Loop(3) = {-2, 7, 9, -8, -10, -11};
Plane Surface(3) = {3};
Curve Loop(4) = {-12, 3, 8, -13};
Plane Surface(4) = {4};
Curve Loop(5) = {-4, 5, 14, -12, -15, -16};
Plane Surface(5) = {5};
Curve Loop(6) = {-6, 14, 13, -9};
Plane Surface(6) = {6};
Curve Loop(7) = {-10, -17, 15, 17};
Surface(7) = {7};
Curve Loop(8) = {-11, -18, 16, 18};
Surface(8) = {8};
Surface Loop(1) = {1, 2, 3, 4, 5, 6, 7, 8};
Volume(1) = {1};
Physical Surface("INFLOW") = {1};
Physical Surface("OUTFLOW") = {6};
Physical Surface("OBSTACLE") = {7, 8};
Physical Surface("WALL_Y") = {2, 4};
Physical Surface("WALL_Z") = {3, 5};
Physical Volume("FLUID") = {1};
