cl__1 = 0.942066;
cl__2 = 3.46908;
cl__3 = 0.700142;
cl__4 = 0.131019;
cl__5 = 0.114797;
Point(1) = {0.482926, -4.144792, 1, cl__1};
Point(2) = {0.482926, -4.144792, 0, cl__1};
Point(3) = {0.482926, 5.097116000000001, 1, cl__2};
Point(4) = {0.482926, 5.097116000000001, 0, cl__2};
Point(5) = {34.381659, -4.144792, 0, cl__3};
Point(6) = {34.381659, -4.144792, 1, cl__3};
Point(7) = {34.381659, 5.097116000000001, 1, cl__2};
Point(8) = {12.274823, -1.845941, 1, cl__4};
Point(9) = {5.104792, 3.22709, 1, cl__5};
Point(10) = {34.381659, 5.097116000000001, 0, cl__2};
Point(11) = {12.274823, -1.845941, 0, cl__4};
Point(12) = {5.104792, 3.22709, 0, cl__5};
Line(1) = {2, 1};
Line(2) = {1, 3};
Line(3) = {4, 3};
Line(4) = {2, 4};
Line(5) = {2, 5};
Line(6) = {5, 6};
Line(7) = {1, 6};
Line(8) = {3, 7};
Line(9) = {6, 7};
p10 = newp;
Point(p10 + 1) = {12.25869243621098, -1.6409827539868, 1};
Point(p10 + 2) = {12.21069793285868, -1.441071260207865, 1};
Point(p10 + 3) = {12.13202127390026, -1.251129003108242, 1};
Point(p10 + 4) = {12.02459973979214, -1.075832991439934, 1};
Point(p10 + 5) = {11.89107840521568, -0.9194995947843221, 1};
Point(p10 + 6) = {11.73474500856007, -0.7859782602078651, 1};
Point(p10 + 7) = {11.55944899689176, -0.6785567260997392, 1};
Point(p10 + 8) = {11.36950673979213, -0.599880067141318, 1};
Point(p10 + 9) = {11.1695952460132, -0.5518855637890188, 1};
Point(p10 + 10) = {10.964637, -0.535755, 1};
Point(p10 + 11) = {10.7596787539868, -0.551885563789019, 1};
Point(p10 + 12) = {10.55976726020786, -0.5998800671413178, 1};
Point(p10 + 13) = {10.36982500310824, -0.6785567260997389, 1};
Point(p10 + 14) = {10.19452899143993, -0.7859782602078651, 1};
Point(p10 + 15) = {10.03819559478432, -0.919499594784322, 1};
Point(p10 + 16) = {9.904674260207866, -1.075832991439934, 1};
Point(p10 + 17) = {9.797252726099739, -1.251129003108242, 1};
Point(p10 + 18) = {9.718576067141317, -1.441071260207865, 1};
Point(p10 + 19) = {9.670581563789019, -1.6409827539868, 1};
Point(p10 + 20) = {9.654451, -1.845941, 1};
Point(p10 + 21) = {9.670581563789018, -2.0508992460132, 1};
Point(p10 + 22) = {9.718576067141317, -2.250810739792136, 1};
Point(p10 + 23) = {9.797252726099739, -2.440752996891757, 1};
Point(p10 + 24) = {9.904674260207864, -2.616049008560066, 1};
Point(p10 + 25) = {10.03819559478432, -2.772382405215678, 1};
Point(p10 + 26) = {10.19452899143993, -2.905903739792135, 1};
Point(p10 + 27) = {10.36982500310824, -3.013325273900261, 1};
Point(p10 + 28) = {10.55976726020786, -3.092001932858682, 1};
Point(p10 + 29) = {10.7596787539868, -3.139996436210981, 1};
Point(p10 + 30) = {10.964637, -3.156127, 1};
Point(p10 + 31) = {11.1695952460132, -3.139996436210981, 1};
Point(p10 + 32) = {11.36950673979213, -3.092001932858683, 1};
Point(p10 + 33) = {11.55944899689176, -3.013325273900261, 1};
Point(p10 + 34) = {11.73474500856006, -2.905903739792135, 1};
Point(p10 + 35) = {11.89107840521568, -2.772382405215678, 1};
Point(p10 + 36) = {12.02459973979213, -2.616049008560067, 1};
Point(p10 + 37) = {12.13202127390026, -2.440752996891758, 1};
Point(p10 + 38) = {12.21069793285868, -2.250810739792135, 1};
Point(p10 + 39) = {12.25869243621098, -2.0508992460132, 1};
Spline(10) = {8, p10 + 1, p10 + 2, p10 + 3, p10 + 4, p10 + 5, p10 + 6, p10 + 7, p10 + 8, p10 + 9, p10 + 10, p10 + 11, p10 + 12, p10 + 13, p10 + 14, p10 + 15, p10 + 16, p10 + 17, p10 + 18, p10 + 19, p10 + 20, p10 + 21, p10 + 22, p10 + 23, p10 + 24, p10 + 25, p10 + 26, p10 + 27, p10 + 28, p10 + 29, p10 + 30, p10 + 31, p10 + 32, p10 + 33, p10 + 34, p10 + 35, p10 + 36, p10 + 37, p10 + 38, p10 + 39, 8};
p11 = newp;
Point(p11 + 1) = {5.090658584353, 3.406672072832234, 1};
Point(p11 + 2) = {5.048606349011347, 3.581832239032608, 1};
Point(p11 + 3) = {4.979670759572521, 3.748257473986008, 1};
Point(p11 + 4) = {4.885549239032608, 3.90184983607419, 1};
Point(p11 + 5) = {4.76855937159872, 4.038827371598721, 1};
Point(p11 + 6) = {4.63158183607419, 4.155817239032609, 1};
Point(p11 + 7) = {4.477989473986007, 4.249938759572521, 1};
Point(p11 + 8) = {4.311564239032609, 4.318874349011347, 1};
Point(p11 + 9) = {4.136404072832233, 4.360926584353001, 1};
Point(p11 + 10) = {3.956822, 4.37506, 1};
Point(p11 + 11) = {3.777239927167766, 4.360926584353, 1};
Point(p11 + 12) = {3.602079760967392, 4.318874349011347, 1};
Point(p11 + 13) = {3.435654526013992, 4.249938759572521, 1};
Point(p11 + 14) = {3.28206216392581, 4.155817239032609, 1};
Point(p11 + 15) = {3.145084628401279, 4.038827371598721, 1};
Point(p11 + 16) = {3.028094760967392, 3.901849836074191, 1};
Point(p11 + 17) = {2.93397324042748, 3.748257473986008, 1};
Point(p11 + 18) = {2.865037650988652, 3.581832239032608, 1};
Point(p11 + 19) = {2.822985415647, 3.406672072832234, 1};
Point(p11 + 20) = {2.808852, 3.22709, 1};
Point(p11 + 21) = {2.822985415647, 3.047507927167767, 1};
Point(p11 + 22) = {2.865037650988652, 2.872347760967391, 1};
Point(p11 + 23) = {2.933973240427479, 2.705922526013993, 1};
Point(p11 + 24) = {3.028094760967392, 2.55233016392581, 1};
Point(p11 + 25) = {3.145084628401279, 2.415352628401279, 1};
Point(p11 + 26) = {3.28206216392581, 2.298362760967392, 1};
Point(p11 + 27) = {3.435654526013992, 2.204241240427479, 1};
Point(p11 + 28) = {3.602079760967391, 2.135305650988653, 1};
Point(p11 + 29) = {3.777239927167766, 2.093253415647, 1};
Point(p11 + 30) = {3.956822, 2.07912, 1};
Point(p11 + 31) = {4.136404072832233, 2.093253415647, 1};
Point(p11 + 32) = {4.311564239032608, 2.135305650988653, 1};
Point(p11 + 33) = {4.477989473986007, 2.204241240427479, 1};
Point(p11 + 34) = {4.63158183607419, 2.298362760967391, 1};
Point(p11 + 35) = {4.76855937159872, 2.415352628401279, 1};
Point(p11 + 36) = {4.885549239032608, 2.552330163925809, 1};
Point(p11 + 37) = {4.97967075957252, 2.705922526013993, 1};
Point(p11 + 38) = {5.048606349011347, 2.872347760967391, 1};
Point(p11 + 39) = {5.090658584353, 3.047507927167766, 1};
Spline(11) = {9, p11 + 1, p11 + 2, p11 + 3, p11 + 4, p11 + 5, p11 + 6, p11 + 7, p11 + 8, p11 + 9, p11 + 10, p11 + 11, p11 + 12, p11 + 13, p11 + 14, p11 + 15, p11 + 16, p11 + 17, p11 + 18, p11 + 19, p11 + 20, p11 + 21, p11 + 22, p11 + 23, p11 + 24, p11 + 25, p11 + 26, p11 + 27, p11 + 28, p11 + 29, p11 + 30, p11 + 31, p11 + 32, p11 + 33, p11 + 34, p11 + 35, p11 + 36, p11 + 37, p11 + 38, p11 + 39, 9};
Line(12) = {4, 10};
Line(13) = {10, 7};
Line(14) = {5, 10};
p15 = newp;
Point(p15 + 1) = {12.25869243621098, -1.6409827539868, 0};
Point(p15 + 2) = {12.21069793285868, -1.441071260207865, 0};
Point(p15 + 3) = {12.13202127390026, -1.251129003108242, 0};
Point(p15 + 4) = {12.02459973979214, -1.075832991439934, 0};
Point(p15 + 5) = {11.89107840521568, -0.9194995947843221, 0};
Point(p15 + 6) = {11.73474500856007, -0.7859782602078651, 0};
Point(p15 + 7) = {11.55944899689176, -0.6785567260997392, 0};
Point(p15 + 8) = {11.36950673979213, -0.599880067141318, 0};
Point(p15 + 9) = {11.1695952460132, -0.5518855637890188, 0};
Point(p15 + 10) = {10.964637, -0.535755, 0};
Point(p15 + 11) = {10.7596787539868, -0.551885563789019, 0};
Point(p15 + 12) = {10.55976726020786, -0.5998800671413178, 0};
Point(p15 + 13) = {10.36982500310824, -0.6785567260997389, 0};
Point(p15 + 14) = {10.19452899143993, -0.7859782602078651, 0};
Point(p15 + 15) = {10.03819559478432, -0.919499594784322, 0};
Point(p15 + 16) = {9.904674260207866, -1.075832991439934, 0};
Point(p15 + 17) = {9.797252726099739, -1.251129003108242, 0};
Point(p15 + 18) = {9.718576067141317, -1.441071260207865, 0};
Point(p15 + 19) = {9.670581563789019, -1.6409827539868, 0};
Point(p15 + 20) = {9.654451, -1.845941, 0};
Point(p15 + 21) = {9.670581563789018, -2.0508992460132, 0};
Point(p15 + 22) = {9.718576067141317, -2.250810739792136, 0};
Point(p15 + 23) = {9.797252726099739, -2.440752996891757, 0};
Point(p15 + 24) = {9.904674260207864, -2.616049008560066, 0};
Point(p15 + 25) = {10.03819559478432, -2.772382405215678, 0};
Point(p15 + 26) = {10.19452899143993, -2.905903739792135, 0};
Point(p15 + 27) = {10.36982500310824, -3.013325273900261, 0};
Point(p15 + 28) = {10.55976726020786, -3.092001932858682, 0};
Point(p15 + 29) = {10.7596787539868, -3.139996436210981, 0};
Point(p15 + 30) = {10.964637, -3.156127, 0};
Point(p15 + 31) = {11.1695952460132, -3.139996436210981, 0};
Point(p15 + 32) = {11.36950673979213, -3.092001932858683, 0};
Point(p15 + 33) = {11.55944899689176, -3.013325273900261, 0};
Point(p15 + 34) = {11.73474500856006, -2.905903739792135, 0};
Point(p15 + 35) = {11.89107840521568, -2.772382405215678, 0};
Point(p15 + 36) = {12.02459973979213, -2.616049008560067, 0};
Point(p15 + 37) = {12.13202127390026, -2.440752996891758, 0};
Point(p15 + 38) = {12.21069793285868, -2.250810739792135, 0};
Point(p15 + 39) = {12.25869243621098, -2.0508992460132, 0};
Spline(15) = {11, p15 + 1, p15 + 2, p15 + 3, p15 + 4, p15 + 5, p15 + 6, p15 + 7, p15 + 8, p15 + 9, p15 + 10, p15 + 11, p15 + 12, p15 + 13, p15 + 14, p15 + 15, p15 + 16, p15 + 17, p15 + 18, p15 + 19, p15 + 20, p15 + 21, p15 + 22, p15 + 23, p15 + 24, p15 + 25, p15 + 26, p15 + 27, p15 + 28, p15 + 29, p15 + 30, p15 + 31, p15 + 32, p15 + 33, p15 + 34, p15 + 35, p15 + 36, p15 + 37, p15 + 38, p15 + 39, 11};
p16 = newp;
Point(p16 + 1) = {5.090658584353, 3.406672072832234, 0};
Point(p16 + 2) = {5.048606349011347, 3.581832239032608, 0};
Point(p16 + 3) = {4.979670759572521, 3.748257473986008, 0};
Point(p16 + 4) = {4.885549239032608, 3.90184983607419, 0};
Point(p16 + 5) = {4.76855937159872, 4.038827371598721, 0};
Point(p16 + 6) = {4.63158183607419, 4.155817239032609, 0};
Point(p16 + 7) = {4.477989473986007, 4.249938759572521, 0};
Point(p16 + 8) = {4.311564239032609, 4.318874349011347, 0};
Point(p16 + 9) = {4.136404072832233, 4.360926584353001, 0};
Point(p16 + 10) = {3.956822, 4.37506, 0};
Point(p16 + 11) = {3.777239927167766, 4.360926584353, 0};
Point(p16 + 12) = {3.602079760967392, 4.318874349011347, 0};
Point(p16 + 13) = {3.435654526013992, 4.249938759572521, 0};
Point(p16 + 14) = {3.28206216392581, 4.155817239032609, 0};
Point(p16 + 15) = {3.145084628401279, 4.038827371598721, 0};
Point(p16 + 16) = {3.028094760967392, 3.901849836074191, 0};
Point(p16 + 17) = {2.93397324042748, 3.748257473986008, 0};
Point(p16 + 18) = {2.865037650988652, 3.581832239032608, 0};
Point(p16 + 19) = {2.822985415647, 3.406672072832234, 0};
Point(p16 + 20) = {2.808852, 3.22709, 0};
Point(p16 + 21) = {2.822985415647, 3.047507927167767, 0};
Point(p16 + 22) = {2.865037650988652, 2.872347760967391, 0};
Point(p16 + 23) = {2.933973240427479, 2.705922526013993, 0};
Point(p16 + 24) = {3.028094760967392, 2.55233016392581, 0};
Point(p16 + 25) = {3.145084628401279, 2.415352628401279, 0};
Point(p16 + 26) = {3.28206216392581, 2.298362760967392, 0};
Point(p16 + 27) = {3.435654526013992, 2.204241240427479, 0};
Point(p16 + 28) = {3.602079760967391, 2.135305650988653, 0};
Point(p16 + 29) = {3.777239927167766, 2.093253415647, 0};
Point(p16 + 30) = {3.956822, 2.07912, 0};
Point(p16 + 31) = {4.136404072832233, 2.093253415647, 0};
Point(p16 + 32) = {4.311564239032608, 2.135305650988653, 0};
Point(p16 + 33) = {4.477989473986007, 2.204241240427479, 0};
Point(p16 + 34) = {4.63158183607419, 2.298362760967391, 0};
Point(p16 + 35) = {4.76855937159872, 2.415352628401279, 0};
Point(p16 + 36) = {4.885549239032608, 2.552330163925809, 0};
Point(p16 + 37) = {4.97967075957252, 2.705922526013993, 0};
Point(p16 + 38) = {5.048606349011347, 2.872347760967391, 0};
Point(p16 + 39) = {5.090658584353, 3.047507927167766, 0};
Spline(16) = {12, p16 + 1, p16 + 2, p16 + 3, p16 + 4, p16 + 5, p16 + 6, p16 + 7, p16 + 8, p16 + 9, p16 + 10, p16 + 11, p16 + 12, p16 + 13, p16 + 14, p16 + 15, p16 + 16, p16 + 17, p16 + 18, p16 + 19, p16 + 20, p16 + 21, p16 + 22, p16 + 23, p16 + 24, p16 + 25, p16 + 26, p16 + 27, p16 + 28, p16 + 29, p16 + 30, p16 + 31, p16 + 32, p16 + 33, p16 + 34, p16 + 35, p16 + 36, p16 + 37, p16 + 38, p16 + 39, 12};
Line(17) = {11, 8};
Line(18) = {12, 9};
Curve Loop(1) = {-1, 4, 3, -2};
Plane Surface(1) = {1};
Curve Loop(2) = {-5, 1, 7, -6};
Plane Surface(2) = {2};
Curve Loop(3) = {-2, 7, 9, -8, -10, -11};
Plane Surface(3) = {3};
Curve Loop(4) = {-12, 3, 8, -13};
Plane Surface(4) = {4};
Curve Loop(5) = {-4, 5, 14, -12, -15, -16};
Plane Surface(5) = {5};
Curve Loop(6) = {-6, 14, 13, -9};
Plane Surface(6) = {6};
Curve Loop(7) = {-10, -17, 15, 17};
Surface(7) = {7};
Curve Loop(8) = {-11, -18, 16, 18};
Surface(8) = {8};
Surface Loop(1) = {1, 2, 3, 4, 5, 6, 7, 8};
Volume(1) = {1};
Physical Surface("INFLOW") = {1};
Physical Surface("OUTFLOW") = {6};
Physical Surface("OBSTACLE") = {7, 8};
Physical Surface("WALL_Y") = {2, 4};
Physical Surface("WALL_Z") = {3, 5};
Physical Volume("FLUID") = {1};
