cl__1 = 1;
cl__2 = 0.096204;
cl__3 = 0.11303;
Point(1) = {0.51346, -4.311162, 1, cl__1};
Point(2) = {0.51346, -4.311162, 0, cl__1};
Point(3) = {0.51346, 5.66553, 1, cl__1};
Point(4) = {0.51346, 5.66553, 0, cl__1};
Point(5) = {32.601668, -4.311162, 0, cl__1};
Point(6) = {32.601668, -4.311162, 1, cl__1};
Point(7) = {32.601668, 5.66553, 1, cl__1};
Point(8) = {25.350648, -2.495643, 1, cl__2};
Point(9) = {27.983425, -1.274625, 1, cl__3};
Point(10) = {32.601668, 5.66553, 0, cl__1};
Point(11) = {25.350648, -2.495643, 0, cl__2};
Point(12) = {27.983425, -1.274625, 0, cl__3};
Line(1) = {2, 1};
Line(2) = {1, 3};
Line(3) = {4, 3};
Line(4) = {2, 4};
Line(5) = {2, 5};
Line(6) = {5, 6};
Line(7) = {1, 6};
Line(8) = {3, 7};
Line(9) = {6, 7};
p10 = newp;
Point(p10 + 1) = {25.33880365425117, -2.345146317949301, 1};
Point(p10 + 2) = {25.30356226410614, -2.198355363680542, 1};
Point(p10 + 3) = {25.24579158954975, -2.058884617659067, 1};
Point(p10 + 4) = {25.16691413631946, -1.930168312528792, 1};
Point(p10 + 5) = {25.06887212909305, -1.81537587090695, 1};
Point(p10 + 6) = {24.95407968747121, -1.717333863680542, 1};
Point(p10 + 7) = {24.82536338234093, -1.63845641045025, 1};
Point(p10 + 8) = {24.68589263631945, -1.580685735893861, 1};
Point(p10 + 9) = {24.5391016820507, -1.545444345748832, 1};
Point(p10 + 10) = {24.388605, -1.5336, 1};
Point(p10 + 11) = {24.2381083179493, -1.545444345748832, 1};
Point(p10 + 12) = {24.09131736368054, -1.580685735893861, 1};
Point(p10 + 13) = {23.95184661765906, -1.63845641045025, 1};
Point(p10 + 14) = {23.82313031252879, -1.717333863680542, 1};
Point(p10 + 15) = {23.70833787090695, -1.81537587090695, 1};
Point(p10 + 16) = {23.61029586368054, -1.930168312528792, 1};
Point(p10 + 17) = {23.53141841045025, -2.058884617659067, 1};
Point(p10 + 18) = {23.47364773589386, -2.198355363680542, 1};
Point(p10 + 19) = {23.43840634574883, -2.345146317949301, 1};
Point(p10 + 20) = {23.426562, -2.495643, 1};
Point(p10 + 21) = {23.43840634574883, -2.646139682050698, 1};
Point(p10 + 22) = {23.47364773589386, -2.792930636319458, 1};
Point(p10 + 23) = {23.53141841045025, -2.932401382340932, 1};
Point(p10 + 24) = {23.61029586368054, -3.061117687471207, 1};
Point(p10 + 25) = {23.70833787090695, -3.17591012909305, 1};
Point(p10 + 26) = {23.82313031252879, -3.273952136319457, 1};
Point(p10 + 27) = {23.95184661765906, -3.35282958954975, 1};
Point(p10 + 28) = {24.09131736368054, -3.410600264106138, 1};
Point(p10 + 29) = {24.2381083179493, -3.445841654251168, 1};
Point(p10 + 30) = {24.388605, -3.457686, 1};
Point(p10 + 31) = {24.5391016820507, -3.445841654251168, 1};
Point(p10 + 32) = {24.68589263631945, -3.410600264106138, 1};
Point(p10 + 33) = {24.82536338234093, -3.35282958954975, 1};
Point(p10 + 34) = {24.95407968747121, -3.273952136319457, 1};
Point(p10 + 35) = {25.06887212909305, -3.17591012909305, 1};
Point(p10 + 36) = {25.16691413631946, -3.061117687471208, 1};
Point(p10 + 37) = {25.24579158954975, -2.932401382340933, 1};
Point(p10 + 38) = {25.30356226410614, -2.792930636319458, 1};
Point(p10 + 39) = {25.33880365425117, -2.646139682050699, 1};
Spline(10) = {8, p10 + 1, p10 + 2, p10 + 3, p10 + 4, p10 + 5, p10 + 6, p10 + 7, p10 + 8, p10 + 9, p10 + 10, p10 + 11, p10 + 12, p10 + 13, p10 + 14, p10 + 15, p10 + 16, p10 + 17, p10 + 18, p10 + 19, p10 + 20, p10 + 21, p10 + 22, p10 + 23, p10 + 24, p10 + 25, p10 + 26, p10 + 27, p10 + 28, p10 + 29, p10 + 30, p10 + 31, p10 + 32, p10 + 33, p10 + 34, p10 + 35, p10 + 36, p10 + 37, p10 + 38, p10 + 39, 8};
p11 = newp;
Point(p11 + 1) = {27.969509155998, -1.097807437033957, 1};
Point(p11 + 2) = {27.92810427825538, -0.9253437092919856, 1};
Point(p11 + 3) = {27.86022989227707, -0.7614804461253897, 1};
Point(p11 + 4) = {27.76755729070802, -0.610252504904322, 1};
Point(p11 + 5) = {27.65236838056159, -0.4753836194384077, 1};
Point(p11 + 6) = {27.51749949509568, -0.3601947092919855, 1};
Point(p11 + 7) = {27.36627155387461, -0.2675221077229362, 1};
Point(p11 + 8) = {27.20240829070801, -0.1996477217446204, 1};
Point(p11 + 9) = {27.02994456296604, -0.158242844001997, 1};
Point(p11 + 10) = {26.853127, -0.1443269999999999, 1};
Point(p11 + 11) = {26.67630943703396, -0.158242844001997, 1};
Point(p11 + 12) = {26.50384570929199, -0.1996477217446202, 1};
Point(p11 + 13) = {26.33998244612539, -0.2675221077229359, 1};
Point(p11 + 14) = {26.18875450490432, -0.3601947092919855, 1};
Point(p11 + 15) = {26.05388561943841, -0.4753836194384076, 1};
Point(p11 + 16) = {25.93869670929199, -0.6102525049043219, 1};
Point(p11 + 17) = {25.84602410772294, -0.7614804461253896, 1};
Point(p11 + 18) = {25.77814972174462, -0.9253437092919854, 1};
Point(p11 + 19) = {25.736744844002, -1.097807437033957, 1};
Point(p11 + 20) = {25.722829, -1.274625, 1};
Point(p11 + 21) = {25.736744844002, -1.451442562966043, 1};
Point(p11 + 22) = {25.77814972174462, -1.623906290708015, 1};
Point(p11 + 23) = {25.84602410772294, -1.78776955387461, 1};
Point(p11 + 24) = {25.93869670929199, -1.938997495095677, 1};
Point(p11 + 25) = {26.05388561943841, -2.073866380561592, 1};
Point(p11 + 26) = {26.18875450490432, -2.189055290708014, 1};
Point(p11 + 27) = {26.33998244612539, -2.281727892277064, 1};
Point(p11 + 28) = {26.50384570929199, -2.34960227825538, 1};
Point(p11 + 29) = {26.67630943703396, -2.391007155998003, 1};
Point(p11 + 30) = {26.853127, -2.404923, 1};
Point(p11 + 31) = {27.02994456296604, -2.391007155998003, 1};
Point(p11 + 32) = {27.20240829070801, -2.34960227825538, 1};
Point(p11 + 33) = {27.36627155387461, -2.281727892277064, 1};
Point(p11 + 34) = {27.51749949509568, -2.189055290708014, 1};
Point(p11 + 35) = {27.65236838056159, -2.073866380561592, 1};
Point(p11 + 36) = {27.76755729070802, -1.938997495095678, 1};
Point(p11 + 37) = {27.86022989227707, -1.78776955387461, 1};
Point(p11 + 38) = {27.92810427825538, -1.623906290708014, 1};
Point(p11 + 39) = {27.969509155998, -1.451442562966043, 1};
Spline(11) = {9, p11 + 1, p11 + 2, p11 + 3, p11 + 4, p11 + 5, p11 + 6, p11 + 7, p11 + 8, p11 + 9, p11 + 10, p11 + 11, p11 + 12, p11 + 13, p11 + 14, p11 + 15, p11 + 16, p11 + 17, p11 + 18, p11 + 19, p11 + 20, p11 + 21, p11 + 22, p11 + 23, p11 + 24, p11 + 25, p11 + 26, p11 + 27, p11 + 28, p11 + 29, p11 + 30, p11 + 31, p11 + 32, p11 + 33, p11 + 34, p11 + 35, p11 + 36, p11 + 37, p11 + 38, p11 + 39, 9};
Line(12) = {4, 10};
Line(13) = {10, 7};
Line(14) = {5, 10};
p15 = newp;
Point(p15 + 1) = {25.33880365425117, -2.345146317949301, 0};
Point(p15 + 2) = {25.30356226410614, -2.198355363680542, 0};
Point(p15 + 3) = {25.24579158954975, -2.058884617659067, 0};
Point(p15 + 4) = {25.16691413631946, -1.930168312528792, 0};
Point(p15 + 5) = {25.06887212909305, -1.81537587090695, 0};
Point(p15 + 6) = {24.95407968747121, -1.717333863680542, 0};
Point(p15 + 7) = {24.82536338234093, -1.63845641045025, 0};
Point(p15 + 8) = {24.68589263631945, -1.580685735893861, 0};
Point(p15 + 9) = {24.5391016820507, -1.545444345748832, 0};
Point(p15 + 10) = {24.388605, -1.5336, 0};
Point(p15 + 11) = {24.2381083179493, -1.545444345748832, 0};
Point(p15 + 12) = {24.09131736368054, -1.580685735893861, 0};
Point(p15 + 13) = {23.95184661765906, -1.63845641045025, 0};
Point(p15 + 14) = {23.82313031252879, -1.717333863680542, 0};
Point(p15 + 15) = {23.70833787090695, -1.81537587090695, 0};
Point(p15 + 16) = {23.61029586368054, -1.930168312528792, 0};
Point(p15 + 17) = {23.53141841045025, -2.058884617659067, 0};
Point(p15 + 18) = {23.47364773589386, -2.198355363680542, 0};
Point(p15 + 19) = {23.43840634574883, -2.345146317949301, 0};
Point(p15 + 20) = {23.426562, -2.495643, 0};
Point(p15 + 21) = {23.43840634574883, -2.646139682050698, 0};
Point(p15 + 22) = {23.47364773589386, -2.792930636319458, 0};
Point(p15 + 23) = {23.53141841045025, -2.932401382340932, 0};
Point(p15 + 24) = {23.61029586368054, -3.061117687471207, 0};
Point(p15 + 25) = {23.70833787090695, -3.17591012909305, 0};
Point(p15 + 26) = {23.82313031252879, -3.273952136319457, 0};
Point(p15 + 27) = {23.95184661765906, -3.35282958954975, 0};
Point(p15 + 28) = {24.09131736368054, -3.410600264106138, 0};
Point(p15 + 29) = {24.2381083179493, -3.445841654251168, 0};
Point(p15 + 30) = {24.388605, -3.457686, 0};
Point(p15 + 31) = {24.5391016820507, -3.445841654251168, 0};
Point(p15 + 32) = {24.68589263631945, -3.410600264106138, 0};
Point(p15 + 33) = {24.82536338234093, -3.35282958954975, 0};
Point(p15 + 34) = {24.95407968747121, -3.273952136319457, 0};
Point(p15 + 35) = {25.06887212909305, -3.17591012909305, 0};
Point(p15 + 36) = {25.16691413631946, -3.061117687471208, 0};
Point(p15 + 37) = {25.24579158954975, -2.932401382340933, 0};
Point(p15 + 38) = {25.30356226410614, -2.792930636319458, 0};
Point(p15 + 39) = {25.33880365425117, -2.646139682050699, 0};
Spline(15) = {11, p15 + 1, p15 + 2, p15 + 3, p15 + 4, p15 + 5, p15 + 6, p15 + 7, p15 + 8, p15 + 9, p15 + 10, p15 + 11, p15 + 12, p15 + 13, p15 + 14, p15 + 15, p15 + 16, p15 + 17, p15 + 18, p15 + 19, p15 + 20, p15 + 21, p15 + 22, p15 + 23, p15 + 24, p15 + 25, p15 + 26, p15 + 27, p15 + 28, p15 + 29, p15 + 30, p15 + 31, p15 + 32, p15 + 33, p15 + 34, p15 + 35, p15 + 36, p15 + 37, p15 + 38, p15 + 39, 11};
p16 = newp;
Point(p16 + 1) = {27.969509155998, -1.097807437033957, 0};
Point(p16 + 2) = {27.92810427825538, -0.9253437092919856, 0};
Point(p16 + 3) = {27.86022989227707, -0.7614804461253897, 0};
Point(p16 + 4) = {27.76755729070802, -0.610252504904322, 0};
Point(p16 + 5) = {27.65236838056159, -0.4753836194384077, 0};
Point(p16 + 6) = {27.51749949509568, -0.3601947092919855, 0};
Point(p16 + 7) = {27.36627155387461, -0.2675221077229362, 0};
Point(p16 + 8) = {27.20240829070801, -0.1996477217446204, 0};
Point(p16 + 9) = {27.02994456296604, -0.158242844001997, 0};
Point(p16 + 10) = {26.853127, -0.1443269999999999, 0};
Point(p16 + 11) = {26.67630943703396, -0.158242844001997, 0};
Point(p16 + 12) = {26.50384570929199, -0.1996477217446202, 0};
Point(p16 + 13) = {26.33998244612539, -0.2675221077229359, 0};
Point(p16 + 14) = {26.18875450490432, -0.3601947092919855, 0};
Point(p16 + 15) = {26.05388561943841, -0.4753836194384076, 0};
Point(p16 + 16) = {25.93869670929199, -0.6102525049043219, 0};
Point(p16 + 17) = {25.84602410772294, -0.7614804461253896, 0};
Point(p16 + 18) = {25.77814972174462, -0.9253437092919854, 0};
Point(p16 + 19) = {25.736744844002, -1.097807437033957, 0};
Point(p16 + 20) = {25.722829, -1.274625, 0};
Point(p16 + 21) = {25.736744844002, -1.451442562966043, 0};
Point(p16 + 22) = {25.77814972174462, -1.623906290708015, 0};
Point(p16 + 23) = {25.84602410772294, -1.78776955387461, 0};
Point(p16 + 24) = {25.93869670929199, -1.938997495095677, 0};
Point(p16 + 25) = {26.05388561943841, -2.073866380561592, 0};
Point(p16 + 26) = {26.18875450490432, -2.189055290708014, 0};
Point(p16 + 27) = {26.33998244612539, -2.281727892277064, 0};
Point(p16 + 28) = {26.50384570929199, -2.34960227825538, 0};
Point(p16 + 29) = {26.67630943703396, -2.391007155998003, 0};
Point(p16 + 30) = {26.853127, -2.404923, 0};
Point(p16 + 31) = {27.02994456296604, -2.391007155998003, 0};
Point(p16 + 32) = {27.20240829070801, -2.34960227825538, 0};
Point(p16 + 33) = {27.36627155387461, -2.281727892277064, 0};
Point(p16 + 34) = {27.51749949509568, -2.189055290708014, 0};
Point(p16 + 35) = {27.65236838056159, -2.073866380561592, 0};
Point(p16 + 36) = {27.76755729070802, -1.938997495095678, 0};
Point(p16 + 37) = {27.86022989227707, -1.78776955387461, 0};
Point(p16 + 38) = {27.92810427825538, -1.623906290708014, 0};
Point(p16 + 39) = {27.969509155998, -1.451442562966043, 0};
Spline(16) = {12, p16 + 1, p16 + 2, p16 + 3, p16 + 4, p16 + 5, p16 + 6, p16 + 7, p16 + 8, p16 + 9, p16 + 10, p16 + 11, p16 + 12, p16 + 13, p16 + 14, p16 + 15, p16 + 16, p16 + 17, p16 + 18, p16 + 19, p16 + 20, p16 + 21, p16 + 22, p16 + 23, p16 + 24, p16 + 25, p16 + 26, p16 + 27, p16 + 28, p16 + 29, p16 + 30, p16 + 31, p16 + 32, p16 + 33, p16 + 34, p16 + 35, p16 + 36, p16 + 37, p16 + 38, p16 + 39, 12};
Line(17) = {11, 8};
Line(18) = {12, 9};
Curve Loop(1) = {-1, 4, 3, -2};
Plane Surface(1) = {1};
Curve Loop(2) = {-5, 1, 7, -6};
Plane Surface(2) = {2};
Curve Loop(3) = {-2, 7, 9, -8, -10, -11};
Plane Surface(3) = {3};
Curve Loop(4) = {-12, 3, 8, -13};
Plane Surface(4) = {4};
Curve Loop(5) = {-4, 5, 14, -12, -15, -16};
Plane Surface(5) = {5};
Curve Loop(6) = {-6, 14, 13, -9};
Plane Surface(6) = {6};
Curve Loop(7) = {-10, -17, 15, 17};
Surface(7) = {7};
Curve Loop(8) = {-11, -18, 16, 18};
Surface(8) = {8};
Surface Loop(1) = {1, 2, 3, 4, 5, 6, 7, 8};
Volume(1) = {1};
Physical Surface("INFLOW") = {1};
Physical Surface("OUTFLOW") = {6};
Physical Surface("OBSTACLE") = {7, 8};
Physical Surface("WALL_Y") = {2, 4};
Physical Surface("WALL_Z") = {3, 5};
Physical Volume("FLUID") = {1};
