cl__1 = 1;
cl__2 = 0.061394;
cl__3 = 0.0955;
Point(1) = {0.660855, -3.500097, 1, cl__1};
Point(2) = {0.660855, -3.500097, 0, cl__1};
Point(3) = {0.660855, 4.637053999999999, 1, cl__1};
Point(4) = {0.660855, 4.637053999999999, 0, cl__1};
Point(5) = {32.533803, -3.500097, 0, cl__1};
Point(6) = {32.533803, -3.500097, 1, cl__1};
Point(7) = {32.533803, 4.637053999999999, 1, cl__1};
Point(8) = {3.27421, 0.02802899999999985, 1, cl__2};
Point(9) = {10.638604, 0.7096279999999998, 1, cl__3};
Point(10) = {32.533803, 4.637053999999999, 0, cl__1};
Point(11) = {3.27421, 0.02802899999999985, 0, cl__2};
Point(12) = {10.638604, 0.7096279999999998, 0, cl__3};
Line(1) = {2, 1};
Line(2) = {1, 3};
Line(3) = {4, 3};
Line(4) = {2, 4};
Line(5) = {2, 5};
Line(6) = {5, 6};
Line(7) = {1, 6};
Line(8) = {3, 7};
Line(9) = {6, 7};
p10 = newp;
Point(p10 + 1) = {3.266651441383276, 0.1240695932944741, 1};
Point(p10 + 2) = {3.244161882331665, 0.2177453484415833, 1};
Point(p10 + 3) = {3.207295090427586, 0.3067496574575986, 1};
Point(p10 + 4) = {3.156958848441583, 0.3888909388661795, 1};
Point(p10 + 5) = {3.094392601707763, 0.462146601707763, 1};
Point(p10 + 6) = {3.021136938866179, 0.5247128484415834, 1};
Point(p10 + 7) = {2.938995657457599, 0.5750490904275856, 1};
Point(p10 + 8) = {2.849991348441583, 0.6119158823316651, 1};
Point(p10 + 9) = {2.756315593294474, 0.6344054413832759, 1};
Point(p10 + 10) = {2.660275, 0.641964, 1};
Point(p10 + 11) = {2.564234406705526, 0.6344054413832758, 1};
Point(p10 + 12) = {2.470558651558417, 0.6119158823316652, 1};
Point(p10 + 13) = {2.381554342542402, 0.5750490904275857, 1};
Point(p10 + 14) = {2.299413061133821, 0.5247128484415834, 1};
Point(p10 + 15) = {2.226157398292237, 0.4621466017077631, 1};
Point(p10 + 16) = {2.163591151558417, 0.3888909388661795, 1};
Point(p10 + 17) = {2.113254909572414, 0.3067496574575987, 1};
Point(p10 + 18) = {2.076388117668335, 0.2177453484415834, 1};
Point(p10 + 19) = {2.053898558616724, 0.1240695932944742, 1};
Point(p10 + 20) = {2.04634, 0.02802900000000007, 1};
Point(p10 + 21) = {2.053898558616724, -0.06801159329447405, 1};
Point(p10 + 22) = {2.076388117668335, -0.1616873484415835, 1};
Point(p10 + 23) = {2.113254909572414, -0.2506916574575984, 1};
Point(p10 + 24) = {2.163591151558417, -0.3328329388661795, 1};
Point(p10 + 25) = {2.226157398292237, -0.4060886017077631, 1};
Point(p10 + 26) = {2.29941306113382, -0.4686548484415833, 1};
Point(p10 + 27) = {2.381554342542401, -0.5189910904275856, 1};
Point(p10 + 28) = {2.470558651558417, -0.5558578823316651, 1};
Point(p10 + 29) = {2.564234406705526, -0.5783474413832759, 1};
Point(p10 + 30) = {2.660275, -0.585906, 1};
Point(p10 + 31) = {2.756315593294474, -0.578347441383276, 1};
Point(p10 + 32) = {2.849991348441583, -0.5558578823316652, 1};
Point(p10 + 33) = {2.938995657457598, -0.5189910904275857, 1};
Point(p10 + 34) = {3.021136938866179, -0.4686548484415834, 1};
Point(p10 + 35) = {3.094392601707763, -0.4060886017077632, 1};
Point(p10 + 36) = {3.156958848441583, -0.3328329388661796, 1};
Point(p10 + 37) = {3.207295090427586, -0.2506916574575988, 1};
Point(p10 + 38) = {3.244161882331665, -0.1616873484415835, 1};
Point(p10 + 39) = {3.266651441383276, -0.06801159329447427, 1};
Spline(10) = {8, p10 + 1, p10 + 2, p10 + 3, p10 + 4, p10 + 5, p10 + 6, p10 + 7, p10 + 8, p10 + 9, p10 + 10, p10 + 11, p10 + 12, p10 + 13, p10 + 14, p10 + 15, p10 + 16, p10 + 17, p10 + 18, p10 + 19, p10 + 20, p10 + 21, p10 + 22, p10 + 23, p10 + 24, p10 + 25, p10 + 26, p10 + 27, p10 + 28, p10 + 29, p10 + 30, p10 + 31, p10 + 32, p10 + 33, p10 + 34, p10 + 35, p10 + 36, p10 + 37, p10 + 38, p10 + 39, 8};
p11 = newp;
Point(p11 + 1) = {10.62684638989167, 0.8590226012444904, 1};
Point(p11 + 2) = {10.59186307094884, 1.004738611594086, 1};
Point(p11 + 3) = {10.53451544858684, 1.143188019270268, 1};
Point(p11 + 4) = {10.45621561159409, 1.270961740368807, 1};
Point(p11 + 5) = {10.35889156181959, 1.38491356181959, 1};
Point(p11 + 6) = {10.24493974036881, 1.482237611594086, 1};
Point(p11 + 7) = {10.11716601927027, 1.560537448586843, 1};
Point(p11 + 8) = {9.978716611594086, 1.617885070948839, 1};
Point(p11 + 9) = {9.833000601244489, 1.652868389891675, 1};
Point(p11 + 10) = {9.683605999999999, 1.664626, 1};
Point(p11 + 11) = {9.534211398755509, 1.652868389891675, 1};
Point(p11 + 12) = {9.388495388405913, 1.617885070948839, 1};
Point(p11 + 13) = {9.250045980729732, 1.560537448586843, 1};
Point(p11 + 14) = {9.122272259631192, 1.482237611594086, 1};
Point(p11 + 15) = {9.008320438180409, 1.38491356181959, 1};
Point(p11 + 16) = {8.910996388405913, 1.270961740368807, 1};
Point(p11 + 17) = {8.832696551413157, 1.143188019270268, 1};
Point(p11 + 18) = {8.775348929051161, 1.004738611594086, 1};
Point(p11 + 19) = {8.740365610108324, 0.8590226012444906, 1};
Point(p11 + 20) = {8.728607999999999, 0.7096280000000001, 1};
Point(p11 + 21) = {8.740365610108324, 0.5602333987555097, 1};
Point(p11 + 22) = {8.775348929051161, 0.4145173884059137, 1};
Point(p11 + 23) = {8.832696551413155, 0.2760679807297328, 1};
Point(p11 + 24) = {8.910996388405913, 0.1482942596311929, 1};
Point(p11 + 25) = {9.008320438180409, 0.03434243818040961, 1};
Point(p11 + 26) = {9.122272259631192, -0.06298161159408588, 1};
Point(p11 + 27) = {9.250045980729732, -0.1412814485868429, 1};
Point(p11 + 28) = {9.388495388405913, -0.198629070948839, 1};
Point(p11 + 29) = {9.534211398755509, -0.2336123898916752, 1};
Point(p11 + 30) = {9.683605999999999, -0.24537, 1};
Point(p11 + 31) = {9.833000601244489, -0.2336123898916753, 1};
Point(p11 + 32) = {9.978716611594086, -0.1986290709488391, 1};
Point(p11 + 33) = {10.11716601927027, -0.141281448586843, 1};
Point(p11 + 34) = {10.24493974036881, -0.06298161159408611, 1};
Point(p11 + 35) = {10.35889156181959, 0.03434243818040938, 1};
Point(p11 + 36) = {10.45621561159409, 0.1482942596311926, 1};
Point(p11 + 37) = {10.53451544858684, 0.2760679807297322, 1};
Point(p11 + 38) = {10.59186307094884, 0.4145173884059138, 1};
Point(p11 + 39) = {10.62684638989167, 0.5602333987555095, 1};
Spline(11) = {9, p11 + 1, p11 + 2, p11 + 3, p11 + 4, p11 + 5, p11 + 6, p11 + 7, p11 + 8, p11 + 9, p11 + 10, p11 + 11, p11 + 12, p11 + 13, p11 + 14, p11 + 15, p11 + 16, p11 + 17, p11 + 18, p11 + 19, p11 + 20, p11 + 21, p11 + 22, p11 + 23, p11 + 24, p11 + 25, p11 + 26, p11 + 27, p11 + 28, p11 + 29, p11 + 30, p11 + 31, p11 + 32, p11 + 33, p11 + 34, p11 + 35, p11 + 36, p11 + 37, p11 + 38, p11 + 39, 9};
Line(12) = {4, 10};
Line(13) = {10, 7};
Line(14) = {5, 10};
p15 = newp;
Point(p15 + 1) = {3.266651441383276, 0.1240695932944741, 0};
Point(p15 + 2) = {3.244161882331665, 0.2177453484415833, 0};
Point(p15 + 3) = {3.207295090427586, 0.3067496574575986, 0};
Point(p15 + 4) = {3.156958848441583, 0.3888909388661795, 0};
Point(p15 + 5) = {3.094392601707763, 0.462146601707763, 0};
Point(p15 + 6) = {3.021136938866179, 0.5247128484415834, 0};
Point(p15 + 7) = {2.938995657457599, 0.5750490904275856, 0};
Point(p15 + 8) = {2.849991348441583, 0.6119158823316651, 0};
Point(p15 + 9) = {2.756315593294474, 0.6344054413832759, 0};
Point(p15 + 10) = {2.660275, 0.641964, 0};
Point(p15 + 11) = {2.564234406705526, 0.6344054413832758, 0};
Point(p15 + 12) = {2.470558651558417, 0.6119158823316652, 0};
Point(p15 + 13) = {2.381554342542402, 0.5750490904275857, 0};
Point(p15 + 14) = {2.299413061133821, 0.5247128484415834, 0};
Point(p15 + 15) = {2.226157398292237, 0.4621466017077631, 0};
Point(p15 + 16) = {2.163591151558417, 0.3888909388661795, 0};
Point(p15 + 17) = {2.113254909572414, 0.3067496574575987, 0};
Point(p15 + 18) = {2.076388117668335, 0.2177453484415834, 0};
Point(p15 + 19) = {2.053898558616724, 0.1240695932944742, 0};
Point(p15 + 20) = {2.04634, 0.02802900000000007, 0};
Point(p15 + 21) = {2.053898558616724, -0.06801159329447405, 0};
Point(p15 + 22) = {2.076388117668335, -0.1616873484415835, 0};
Point(p15 + 23) = {2.113254909572414, -0.2506916574575984, 0};
Point(p15 + 24) = {2.163591151558417, -0.3328329388661795, 0};
Point(p15 + 25) = {2.226157398292237, -0.4060886017077631, 0};
Point(p15 + 26) = {2.29941306113382, -0.4686548484415833, 0};
Point(p15 + 27) = {2.381554342542401, -0.5189910904275856, 0};
Point(p15 + 28) = {2.470558651558417, -0.5558578823316651, 0};
Point(p15 + 29) = {2.564234406705526, -0.5783474413832759, 0};
Point(p15 + 30) = {2.660275, -0.585906, 0};
Point(p15 + 31) = {2.756315593294474, -0.578347441383276, 0};
Point(p15 + 32) = {2.849991348441583, -0.5558578823316652, 0};
Point(p15 + 33) = {2.938995657457598, -0.5189910904275857, 0};
Point(p15 + 34) = {3.021136938866179, -0.4686548484415834, 0};
Point(p15 + 35) = {3.094392601707763, -0.4060886017077632, 0};
Point(p15 + 36) = {3.156958848441583, -0.3328329388661796, 0};
Point(p15 + 37) = {3.207295090427586, -0.2506916574575988, 0};
Point(p15 + 38) = {3.244161882331665, -0.1616873484415835, 0};
Point(p15 + 39) = {3.266651441383276, -0.06801159329447427, 0};
Spline(15) = {11, p15 + 1, p15 + 2, p15 + 3, p15 + 4, p15 + 5, p15 + 6, p15 + 7, p15 + 8, p15 + 9, p15 + 10, p15 + 11, p15 + 12, p15 + 13, p15 + 14, p15 + 15, p15 + 16, p15 + 17, p15 + 18, p15 + 19, p15 + 20, p15 + 21, p15 + 22, p15 + 23, p15 + 24, p15 + 25, p15 + 26, p15 + 27, p15 + 28, p15 + 29, p15 + 30, p15 + 31, p15 + 32, p15 + 33, p15 + 34, p15 + 35, p15 + 36, p15 + 37, p15 + 38, p15 + 39, 11};
p16 = newp;
Point(p16 + 1) = {10.62684638989167, 0.8590226012444904, 0};
Point(p16 + 2) = {10.59186307094884, 1.004738611594086, 0};
Point(p16 + 3) = {10.53451544858684, 1.143188019270268, 0};
Point(p16 + 4) = {10.45621561159409, 1.270961740368807, 0};
Point(p16 + 5) = {10.35889156181959, 1.38491356181959, 0};
Point(p16 + 6) = {10.24493974036881, 1.482237611594086, 0};
Point(p16 + 7) = {10.11716601927027, 1.560537448586843, 0};
Point(p16 + 8) = {9.978716611594086, 1.617885070948839, 0};
Point(p16 + 9) = {9.833000601244489, 1.652868389891675, 0};
Point(p16 + 10) = {9.683605999999999, 1.664626, 0};
Point(p16 + 11) = {9.534211398755509, 1.652868389891675, 0};
Point(p16 + 12) = {9.388495388405913, 1.617885070948839, 0};
Point(p16 + 13) = {9.250045980729732, 1.560537448586843, 0};
Point(p16 + 14) = {9.122272259631192, 1.482237611594086, 0};
Point(p16 + 15) = {9.008320438180409, 1.38491356181959, 0};
Point(p16 + 16) = {8.910996388405913, 1.270961740368807, 0};
Point(p16 + 17) = {8.832696551413157, 1.143188019270268, 0};
Point(p16 + 18) = {8.775348929051161, 1.004738611594086, 0};
Point(p16 + 19) = {8.740365610108324, 0.8590226012444906, 0};
Point(p16 + 20) = {8.728607999999999, 0.7096280000000001, 0};
Point(p16 + 21) = {8.740365610108324, 0.5602333987555097, 0};
Point(p16 + 22) = {8.775348929051161, 0.4145173884059137, 0};
Point(p16 + 23) = {8.832696551413155, 0.2760679807297328, 0};
Point(p16 + 24) = {8.910996388405913, 0.1482942596311929, 0};
Point(p16 + 25) = {9.008320438180409, 0.03434243818040961, 0};
Point(p16 + 26) = {9.122272259631192, -0.06298161159408588, 0};
Point(p16 + 27) = {9.250045980729732, -0.1412814485868429, 0};
Point(p16 + 28) = {9.388495388405913, -0.198629070948839, 0};
Point(p16 + 29) = {9.534211398755509, -0.2336123898916752, 0};
Point(p16 + 30) = {9.683605999999999, -0.24537, 0};
Point(p16 + 31) = {9.833000601244489, -0.2336123898916753, 0};
Point(p16 + 32) = {9.978716611594086, -0.1986290709488391, 0};
Point(p16 + 33) = {10.11716601927027, -0.141281448586843, 0};
Point(p16 + 34) = {10.24493974036881, -0.06298161159408611, 0};
Point(p16 + 35) = {10.35889156181959, 0.03434243818040938, 0};
Point(p16 + 36) = {10.45621561159409, 0.1482942596311926, 0};
Point(p16 + 37) = {10.53451544858684, 0.2760679807297322, 0};
Point(p16 + 38) = {10.59186307094884, 0.4145173884059138, 0};
Point(p16 + 39) = {10.62684638989167, 0.5602333987555095, 0};
Spline(16) = {12, p16 + 1, p16 + 2, p16 + 3, p16 + 4, p16 + 5, p16 + 6, p16 + 7, p16 + 8, p16 + 9, p16 + 10, p16 + 11, p16 + 12, p16 + 13, p16 + 14, p16 + 15, p16 + 16, p16 + 17, p16 + 18, p16 + 19, p16 + 20, p16 + 21, p16 + 22, p16 + 23, p16 + 24, p16 + 25, p16 + 26, p16 + 27, p16 + 28, p16 + 29, p16 + 30, p16 + 31, p16 + 32, p16 + 33, p16 + 34, p16 + 35, p16 + 36, p16 + 37, p16 + 38, p16 + 39, 12};
Line(17) = {11, 8};
Line(18) = {12, 9};
Curve Loop(1) = {-1, 4, 3, -2};
Plane Surface(1) = {1};
Curve Loop(2) = {-5, 1, 7, -6};
Plane Surface(2) = {2};
Curve Loop(3) = {-2, 7, 9, -8, -10, -11};
Plane Surface(3) = {3};
Curve Loop(4) = {-12, 3, 8, -13};
Plane Surface(4) = {4};
Curve Loop(5) = {-4, 5, 14, -12, -15, -16};
Plane Surface(5) = {5};
Curve Loop(6) = {-6, 14, 13, -9};
Plane Surface(6) = {6};
Curve Loop(7) = {-10, -17, 15, 17};
Surface(7) = {7};
Curve Loop(8) = {-11, -18, 16, 18};
Surface(8) = {8};
Surface Loop(1) = {1, 2, 3, 4, 5, 6, 7, 8};
Volume(1) = {1};
Physical Surface("INFLOW") = {1};
Physical Surface("OUTFLOW") = {6};
Physical Surface("OBSTACLE") = {7, 8};
Physical Surface("WALL_Y") = {2, 4};
Physical Surface("WALL_Z") = {3, 5};
Physical Volume("FLUID") = {1};
