cl__1 = 1;
cl__2 = 0.127802;
cl__3 = 0.095804;
Point(1) = {0.174246, -4.355208, 1, cl__1};
Point(2) = {0.174246, -4.355208, 0, cl__1};
Point(3) = {0.174246, 4.460005999999999, 1, cl__1};
Point(4) = {0.174246, 4.460005999999999, 0, cl__1};
Point(5) = {37.41717999999999, -4.355208, 0, cl__1};
Point(6) = {37.41717999999999, -4.355208, 1, cl__1};
Point(7) = {37.41717999999999, 4.460005999999999, 1, cl__1};
Point(8) = {29.178709, -0.2093970000000003, 1, cl__2};
Point(9) = {33.39802400000001, 0.1890969999999997, 1, cl__3};
Point(10) = {37.41717999999999, 4.460005999999999, 0, cl__1};
Point(11) = {29.178709, -0.2093970000000003, 0, cl__2};
Point(12) = {33.39802400000001, 0.1890969999999997, 0, cl__3};
Line(1) = {2, 1};
Line(2) = {1, 3};
Line(3) = {4, 3};
Line(4) = {2, 4};
Line(5) = {2, 5};
Line(6) = {5, 6};
Line(7) = {1, 6};
Line(8) = {3, 7};
Line(9) = {6, 7};
p10 = newp;
Point(p10 + 1) = {29.16297448998237, -0.009471094292679283, 1};
Point(p10 + 2) = {29.11615839578598, 0.1855319721000872, 1};
Point(p10 + 3) = {29.03941348502364, 0.3708105765056363, 1};
Point(p10 + 4) = {28.93462947210009, 0.5418025447790695, 1};
Point(p10 + 5) = {28.80438648717169, 0.6942974871716878, 1};
Point(p10 + 6) = {28.65189154477907, 0.8245404721000871, 1};
Point(p10 + 7) = {28.48089957650564, 0.9293244850236451, 1};
Point(p10 + 8) = {28.29562097210009, 1.006069395785983, 1};
Point(p10 + 9) = {28.10061790570732, 1.052885489982376, 1};
Point(p10 + 10) = {27.900692, 1.06862, 1};
Point(p10 + 11) = {27.70076609429268, 1.052885489982376, 1};
Point(p10 + 12) = {27.50576302789991, 1.006069395785983, 1};
Point(p10 + 13) = {27.32048442349436, 0.9293244850236453, 1};
Point(p10 + 14) = {27.14949245522093, 0.8245404721000871, 1};
Point(p10 + 15) = {26.99699751282831, 0.694297487171688, 1};
Point(p10 + 16) = {26.86675452789991, 0.5418025447790698, 1};
Point(p10 + 17) = {26.76197051497635, 0.3708105765056365, 1};
Point(p10 + 18) = {26.68522560421401, 0.1855319721000873, 1};
Point(p10 + 19) = {26.63840951001762, -0.009471094292679116, 1};
Point(p10 + 20) = {26.622675, -0.2093969999999998, 1};
Point(p10 + 21) = {26.63840951001762, -0.4093229057073206, 1};
Point(p10 + 22) = {26.68522560421401, -0.6043259721000875, 1};
Point(p10 + 23) = {26.76197051497635, -0.7896045765056356, 1};
Point(p10 + 24) = {26.86675452789991, -0.9605965447790694, 1};
Point(p10 + 25) = {26.99699751282831, -1.113091487171688, 1};
Point(p10 + 26) = {27.14949245522093, -1.243334472100087, 1};
Point(p10 + 27) = {27.32048442349436, -1.348118485023645, 1};
Point(p10 + 28) = {27.50576302789991, -1.424863395785983, 1};
Point(p10 + 29) = {27.70076609429268, -1.471679489982376, 1};
Point(p10 + 30) = {27.900692, -1.487414, 1};
Point(p10 + 31) = {28.10061790570732, -1.471679489982376, 1};
Point(p10 + 32) = {28.29562097210009, -1.424863395785983, 1};
Point(p10 + 33) = {28.48089957650564, -1.348118485023645, 1};
Point(p10 + 34) = {28.65189154477907, -1.243334472100087, 1};
Point(p10 + 35) = {28.80438648717169, -1.113091487171688, 1};
Point(p10 + 36) = {28.93462947210009, -0.9605965447790699, 1};
Point(p10 + 37) = {29.03941348502364, -0.7896045765056365, 1};
Point(p10 + 38) = {29.11615839578598, -0.6043259721000874, 1};
Point(p10 + 39) = {29.16297448998237, -0.409322905707321, 1};
Spline(10) = {8, p10 + 1, p10 + 2, p10 + 3, p10 + 4, p10 + 5, p10 + 6, p10 + 7, p10 + 8, p10 + 9, p10 + 10, p10 + 11, p10 + 12, p10 + 13, p10 + 14, p10 + 15, p10 + 16, p10 + 17, p10 + 18, p10 + 19, p10 + 20, p10 + 21, p10 + 22, p10 + 23, p10 + 24, p10 + 25, p10 + 26, p10 + 27, p10 + 28, p10 + 29, p10 + 30, p10 + 31, p10 + 32, p10 + 33, p10 + 34, p10 + 35, p10 + 36, p10 + 37, p10 + 38, p10 + 39, 8};
p11 = newp;
Point(p11 + 1) = {33.38622890088879, 0.3389679441905379, 1};
Point(p11 + 2) = {33.35113403804096, 0.4851485683419577, 1};
Point(p11 + 3) = {33.293603563453, 0.6240394203419746, 1};
Point(p11 + 4) = {33.21505406834196, 0.7522205464620378, 1};
Point(p11 + 5) = {33.11741970196831, 0.8665357019683034, 1};
Point(p11 + 6) = {33.00310454646204, 0.9641700683419577, 1};
Point(p11 + 7) = {32.87492342034198, 1.042719563452996, 1};
Point(p11 + 8) = {32.73603256834196, 1.100250038040958, 1};
Point(p11 + 9) = {32.58985194419054, 1.135344900888787, 1};
Point(p11 + 10) = {32.439981, 1.14714, 1};
Point(p11 + 11) = {32.29011005580946, 1.135344900888787, 1};
Point(p11 + 12) = {32.14392943165804, 1.100250038040958, 1};
Point(p11 + 13) = {32.00503857965803, 1.042719563452996, 1};
Point(p11 + 14) = {31.87685745353797, 0.9641700683419577, 1};
Point(p11 + 15) = {31.7625422980317, 0.8665357019683035, 1};
Point(p11 + 16) = {31.66490793165805, 0.7522205464620378, 1};
Point(p11 + 17) = {31.58635843654701, 0.6240394203419747, 1};
Point(p11 + 18) = {31.52882796195905, 0.4851485683419579, 1};
Point(p11 + 19) = {31.49373309911121, 0.338967944190538, 1};
Point(p11 + 20) = {31.481938, 0.1890970000000001, 1};
Point(p11 + 21) = {31.49373309911121, 0.03922605580946223, 1};
Point(p11 + 22) = {31.52882796195905, -0.1069545683419581, 1};
Point(p11 + 23) = {31.58635843654701, -0.2458454203419741, 1};
Point(p11 + 24) = {31.66490793165805, -0.3740265464620378, 1};
Point(p11 + 25) = {31.7625422980317, -0.4883417019683035, 1};
Point(p11 + 26) = {31.87685745353797, -0.5859760683419577, 1};
Point(p11 + 27) = {32.00503857965803, -0.6645255634529965, 1};
Point(p11 + 28) = {32.14392943165804, -0.7220560380409577, 1};
Point(p11 + 29) = {32.29011005580946, -0.7571509008887874, 1};
Point(p11 + 30) = {32.439981, -0.768946, 1};
Point(p11 + 31) = {32.58985194419054, -0.7571509008887876, 1};
Point(p11 + 32) = {32.73603256834196, -0.7220560380409579, 1};
Point(p11 + 33) = {32.87492342034198, -0.6645255634529965, 1};
Point(p11 + 34) = {33.00310454646204, -0.5859760683419579, 1};
Point(p11 + 35) = {33.11741970196831, -0.4883417019683037, 1};
Point(p11 + 36) = {33.21505406834196, -0.374026546462038, 1};
Point(p11 + 37) = {33.293603563453, -0.2458454203419748, 1};
Point(p11 + 38) = {33.35113403804096, -0.106954568341958, 1};
Point(p11 + 39) = {33.38622890088879, 0.03922605580946187, 1};
Spline(11) = {9, p11 + 1, p11 + 2, p11 + 3, p11 + 4, p11 + 5, p11 + 6, p11 + 7, p11 + 8, p11 + 9, p11 + 10, p11 + 11, p11 + 12, p11 + 13, p11 + 14, p11 + 15, p11 + 16, p11 + 17, p11 + 18, p11 + 19, p11 + 20, p11 + 21, p11 + 22, p11 + 23, p11 + 24, p11 + 25, p11 + 26, p11 + 27, p11 + 28, p11 + 29, p11 + 30, p11 + 31, p11 + 32, p11 + 33, p11 + 34, p11 + 35, p11 + 36, p11 + 37, p11 + 38, p11 + 39, 9};
Line(12) = {4, 10};
Line(13) = {10, 7};
Line(14) = {5, 10};
p15 = newp;
Point(p15 + 1) = {29.16297448998237, -0.009471094292679283, 0};
Point(p15 + 2) = {29.11615839578598, 0.1855319721000872, 0};
Point(p15 + 3) = {29.03941348502364, 0.3708105765056363, 0};
Point(p15 + 4) = {28.93462947210009, 0.5418025447790695, 0};
Point(p15 + 5) = {28.80438648717169, 0.6942974871716878, 0};
Point(p15 + 6) = {28.65189154477907, 0.8245404721000871, 0};
Point(p15 + 7) = {28.48089957650564, 0.9293244850236451, 0};
Point(p15 + 8) = {28.29562097210009, 1.006069395785983, 0};
Point(p15 + 9) = {28.10061790570732, 1.052885489982376, 0};
Point(p15 + 10) = {27.900692, 1.06862, 0};
Point(p15 + 11) = {27.70076609429268, 1.052885489982376, 0};
Point(p15 + 12) = {27.50576302789991, 1.006069395785983, 0};
Point(p15 + 13) = {27.32048442349436, 0.9293244850236453, 0};
Point(p15 + 14) = {27.14949245522093, 0.8245404721000871, 0};
Point(p15 + 15) = {26.99699751282831, 0.694297487171688, 0};
Point(p15 + 16) = {26.86675452789991, 0.5418025447790698, 0};
Point(p15 + 17) = {26.76197051497635, 0.3708105765056365, 0};
Point(p15 + 18) = {26.68522560421401, 0.1855319721000873, 0};
Point(p15 + 19) = {26.63840951001762, -0.009471094292679116, 0};
Point(p15 + 20) = {26.622675, -0.2093969999999998, 0};
Point(p15 + 21) = {26.63840951001762, -0.4093229057073206, 0};
Point(p15 + 22) = {26.68522560421401, -0.6043259721000875, 0};
Point(p15 + 23) = {26.76197051497635, -0.7896045765056356, 0};
Point(p15 + 24) = {26.86675452789991, -0.9605965447790694, 0};
Point(p15 + 25) = {26.99699751282831, -1.113091487171688, 0};
Point(p15 + 26) = {27.14949245522093, -1.243334472100087, 0};
Point(p15 + 27) = {27.32048442349436, -1.348118485023645, 0};
Point(p15 + 28) = {27.50576302789991, -1.424863395785983, 0};
Point(p15 + 29) = {27.70076609429268, -1.471679489982376, 0};
Point(p15 + 30) = {27.900692, -1.487414, 0};
Point(p15 + 31) = {28.10061790570732, -1.471679489982376, 0};
Point(p15 + 32) = {28.29562097210009, -1.424863395785983, 0};
Point(p15 + 33) = {28.48089957650564, -1.348118485023645, 0};
Point(p15 + 34) = {28.65189154477907, -1.243334472100087, 0};
Point(p15 + 35) = {28.80438648717169, -1.113091487171688, 0};
Point(p15 + 36) = {28.93462947210009, -0.9605965447790699, 0};
Point(p15 + 37) = {29.03941348502364, -0.7896045765056365, 0};
Point(p15 + 38) = {29.11615839578598, -0.6043259721000874, 0};
Point(p15 + 39) = {29.16297448998237, -0.409322905707321, 0};
Spline(15) = {11, p15 + 1, p15 + 2, p15 + 3, p15 + 4, p15 + 5, p15 + 6, p15 + 7, p15 + 8, p15 + 9, p15 + 10, p15 + 11, p15 + 12, p15 + 13, p15 + 14, p15 + 15, p15 + 16, p15 + 17, p15 + 18, p15 + 19, p15 + 20, p15 + 21, p15 + 22, p15 + 23, p15 + 24, p15 + 25, p15 + 26, p15 + 27, p15 + 28, p15 + 29, p15 + 30, p15 + 31, p15 + 32, p15 + 33, p15 + 34, p15 + 35, p15 + 36, p15 + 37, p15 + 38, p15 + 39, 11};
p16 = newp;
Point(p16 + 1) = {33.38622890088879, 0.3389679441905379, 0};
Point(p16 + 2) = {33.35113403804096, 0.4851485683419577, 0};
Point(p16 + 3) = {33.293603563453, 0.6240394203419746, 0};
Point(p16 + 4) = {33.21505406834196, 0.7522205464620378, 0};
Point(p16 + 5) = {33.11741970196831, 0.8665357019683034, 0};
Point(p16 + 6) = {33.00310454646204, 0.9641700683419577, 0};
Point(p16 + 7) = {32.87492342034198, 1.042719563452996, 0};
Point(p16 + 8) = {32.73603256834196, 1.100250038040958, 0};
Point(p16 + 9) = {32.58985194419054, 1.135344900888787, 0};
Point(p16 + 10) = {32.439981, 1.14714, 0};
Point(p16 + 11) = {32.29011005580946, 1.135344900888787, 0};
Point(p16 + 12) = {32.14392943165804, 1.100250038040958, 0};
Point(p16 + 13) = {32.00503857965803, 1.042719563452996, 0};
Point(p16 + 14) = {31.87685745353797, 0.9641700683419577, 0};
Point(p16 + 15) = {31.7625422980317, 0.8665357019683035, 0};
Point(p16 + 16) = {31.66490793165805, 0.7522205464620378, 0};
Point(p16 + 17) = {31.58635843654701, 0.6240394203419747, 0};
Point(p16 + 18) = {31.52882796195905, 0.4851485683419579, 0};
Point(p16 + 19) = {31.49373309911121, 0.338967944190538, 0};
Point(p16 + 20) = {31.481938, 0.1890970000000001, 0};
Point(p16 + 21) = {31.49373309911121, 0.03922605580946223, 0};
Point(p16 + 22) = {31.52882796195905, -0.1069545683419581, 0};
Point(p16 + 23) = {31.58635843654701, -0.2458454203419741, 0};
Point(p16 + 24) = {31.66490793165805, -0.3740265464620378, 0};
Point(p16 + 25) = {31.7625422980317, -0.4883417019683035, 0};
Point(p16 + 26) = {31.87685745353797, -0.5859760683419577, 0};
Point(p16 + 27) = {32.00503857965803, -0.6645255634529965, 0};
Point(p16 + 28) = {32.14392943165804, -0.7220560380409577, 0};
Point(p16 + 29) = {32.29011005580946, -0.7571509008887874, 0};
Point(p16 + 30) = {32.439981, -0.768946, 0};
Point(p16 + 31) = {32.58985194419054, -0.7571509008887876, 0};
Point(p16 + 32) = {32.73603256834196, -0.7220560380409579, 0};
Point(p16 + 33) = {32.87492342034198, -0.6645255634529965, 0};
Point(p16 + 34) = {33.00310454646204, -0.5859760683419579, 0};
Point(p16 + 35) = {33.11741970196831, -0.4883417019683037, 0};
Point(p16 + 36) = {33.21505406834196, -0.374026546462038, 0};
Point(p16 + 37) = {33.293603563453, -0.2458454203419748, 0};
Point(p16 + 38) = {33.35113403804096, -0.106954568341958, 0};
Point(p16 + 39) = {33.38622890088879, 0.03922605580946187, 0};
Spline(16) = {12, p16 + 1, p16 + 2, p16 + 3, p16 + 4, p16 + 5, p16 + 6, p16 + 7, p16 + 8, p16 + 9, p16 + 10, p16 + 11, p16 + 12, p16 + 13, p16 + 14, p16 + 15, p16 + 16, p16 + 17, p16 + 18, p16 + 19, p16 + 20, p16 + 21, p16 + 22, p16 + 23, p16 + 24, p16 + 25, p16 + 26, p16 + 27, p16 + 28, p16 + 29, p16 + 30, p16 + 31, p16 + 32, p16 + 33, p16 + 34, p16 + 35, p16 + 36, p16 + 37, p16 + 38, p16 + 39, 12};
Line(17) = {11, 8};
Line(18) = {12, 9};
Curve Loop(1) = {-1, 4, 3, -2};
Plane Surface(1) = {1};
Curve Loop(2) = {-5, 1, 7, -6};
Plane Surface(2) = {2};
Curve Loop(3) = {-2, 7, 9, -8, -10, -11};
Plane Surface(3) = {3};
Curve Loop(4) = {-12, 3, 8, -13};
Plane Surface(4) = {4};
Curve Loop(5) = {-4, 5, 14, -12, -15, -16};
Plane Surface(5) = {5};
Curve Loop(6) = {-6, 14, 13, -9};
Plane Surface(6) = {6};
Curve Loop(7) = {-10, -17, 15, 17};
Surface(7) = {7};
Curve Loop(8) = {-11, -18, 16, 18};
Surface(8) = {8};
Surface Loop(1) = {1, 2, 3, 4, 5, 6, 7, 8};
Volume(1) = {1};
Physical Surface("INFLOW") = {1};
Physical Surface("OUTFLOW") = {6};
Physical Surface("OBSTACLE") = {7, 8};
Physical Surface("WALL_Y") = {2, 4};
Physical Surface("WALL_Z") = {3, 5};
Physical Volume("FLUID") = {1};
